999
dxflib 3.12.2.0
  0
SECTION
  2
HEADER
  9
$ACADVER
  1
AC1015
  9
$HANDSEED
  5
FFFF
  9
$DIMADEC
 70
0
  9
$DIMASZ
 40
2.5
  9
$DIMAUNIT
 70
0
  9
$DIMAZIN
 70
2
  9
$DIMDEC
 70
4
  9
$DIMEXE
 40
1.25
  9
$DIMEXO
 40
0.625
  9
$DIMGAP
 40
0.625
  9
$DIMLUNIT
 70
2
  9
$DIMSCALE
 40
15.0
  9
$DIMTSZ
 40
0.0
  9
$DIMTXT
 40
2.5
  9
$DIMZIN
 70
8
  9
$DWGCODEPAGE
  3
ANSI_1252
  9
$INSUNITS
 70
4
  9
$LTSCALE
 40
1.0
  9
$MEASUREMENT
 70
1
  9
$PDMODE
 70
0
  9
$PDSIZE
 40
0
  0
ENDSEC
  0
SECTION
  2
TABLES
  0
TABLE
  2
VPORT
  5
8
100
AcDbSymbolTable
 70
1
  0
VPORT
  5
30
100
AcDbSymbolTableRecord
100
AcDbViewportTableRecord
  2
*Active
 70
0
 10
0.0
 20
0.0
 11
1.0
 21
1.0
 12
286.3055555555554861
 22
148.5
 13
0.0
 23
0.0
 14
10.0
 24
10.0
 15
10.0
 25
10.0
 16
0.0
 26
0.0
 36
1.0
 17
0.0
 27
0.0
 37
0.0
 40
297.0
 41
1.92798353909465
 42
50.0
 43
0.0
 44
0.0
 50
0.0
 51
0.0
 71
0
 72
100
 73
1
 74
3
 75
1
 76
1
 77
0
 78
0
281
0
 65
1
110
0.0
120
0.0
130
0.0
111
1.0
121
0.0
131
0.0
112
0.0
122
1.0
132
0.0
 79
0
146
0.0
  0
ENDTAB
  0
TABLE
  2
LTYPE
  5
5
100
AcDbSymbolTable
 70
41
  0
LTYPE
  5
16
100
AcDbSymbolTableRecord
100
AcDbLinetypeTableRecord
  2
Continuous
 70
0
  3
Solid line
 72
65
 73
0
 40
0.0
  0
LTYPE
  5
31
100
AcDbSymbolTableRecord
100
AcDbLinetypeTableRecord
  2
ACAD_ISO15W100
 70
0
  3
ISO double-dash triple-dot __ __ . . . __ __ . .
 72
65
 73
10
 40
39.0
 49
12.0
 74
0
 49
-3.0
 74
0
 49
12.0
 74
0
 49
-2.9500000000000002
 74
0
 49
0.1
 74
0
 49
-2.9000000000000004
 74
0
 49
0.1
 74
0
 49
-2.9000000000000004
 74
0
 49
0.1
 74
0
 49
-2.9500000000000002
 74
0
  0
LTYPE
  5
32
100
AcDbSymbolTableRecord
100
AcDbLinetypeTableRecord
  2
DIVIDE
 70
0
  3
Divide ____ . . ____ . . ____ . . ____ . . ____
 72
65
 73
6
 40
31.75
 49
12.6999999999999993
 74
0
 49
-6.2999999999999998
 74
0
 49
0.1
 74
0
 49
-6.25
 74
0
 49
0.1
 74
0
 49
-6.2999999999999998
 74
0
  0
LTYPE
  5
33
100
AcDbSymbolTableRecord
100
AcDbLinetypeTableRecord
  2
ACAD_ISO10W100
 70
0
  3
ISO dash dot __ . __ . __ . __ . __ . __ . __ . 
 72
65
 73
4
 40
18.0
 49
12.0
 74
0
 49
-2.9500000000000002
 74
0
 49
0.1
 74
0
 49
-2.9500000000000002
 74
0
  0
LTYPE
  5
34
100
AcDbSymbolTableRecord
100
AcDbLinetypeTableRecord
  2
ACAD_ISO04W100
 70
0
  3
ISO long-dash dot ____ . ____ . ____ . ____ . _
 72
65
 73
4
 40
30.0
 49
24.0
 74
0
 49
-2.9500000000000002
 74
0
 49
0.1
 74
0
 49
-2.9500000000000002
 74
0
  0
LTYPE
  5
35
100
AcDbSymbolTableRecord
100
AcDbLinetypeTableRecord
  2
CENTER2
 70
0
  3
Center (.5x) ___ _ ___ _ ___ _ ___ _ ___ _ ___
 72
65
 73
4
 40
28.5749999999999993
 49
19.0500000000000007
 74
0
 49
-3.1749999999999998
 74
0
 49
3.1749999999999998
 74
0
 49
-3.1749999999999998
 74
0
  0
LTYPE
  5
36
100
AcDbSymbolTableRecord
100
AcDbLinetypeTableRecord
  2
ACAD_ISO11W100
 70
0
  3
ISO double-dash dot __ __ . __ __ . __ __ . __ _
 72
65
 73
6
 40
33.0
 49
12.0
 74
0
 49
-3.0
 74
0
 49
12.0
 74
0
 49
-2.9500000000000002
 74
0
 49
0.1
 74
0
 49
-2.9500000000000002
 74
0
  0
LTYPE
  5
37
100
AcDbSymbolTableRecord
100
AcDbLinetypeTableRecord
  2
HIDDEN2
 70
0
  3
Hidden (.5x) _ _ _ _ _ _ _ _ _ _ _ _ _ _ _ _ _ 
 72
65
 73
2
 40
4.7624999999999993
 49
3.1749999999999998
 74
0
 49
-1.5874999999999999
 74
0
  0
LTYPE
  5
38
100
AcDbSymbolTableRecord
100
AcDbLinetypeTableRecord
  2
BORDERX2
 70
0
  3
Border (2x) ____  ____  .  ____  ____  .  ___
 72
65
 73
6
 40
88.8999999999999915
 49
25.3999999999999986
 74
0
 49
-12.6999999999999993
 74
0
 49
25.3999999999999986
 74
0
 49
-12.6499999999999986
 74
0
 49
0.1
 74
0
 49
-12.6499999999999986
 74
0
  0
LTYPE
  5
39
100
AcDbSymbolTableRecord
100
AcDbLinetypeTableRecord
  2
ACAD_ISO05W100
 70
0
  3
ISO long-dash double-dot ____ .. ____ .. ____ . 
 72
65
 73
6
 40
33.0
 49
24.0
 74
0
 49
-2.9500000000000002
 74
0
 49
0.1
 74
0
 49
-2.9000000000000004
 74
0
 49
0.1
 74
0
 49
-2.9500000000000002
 74
0
  0
LTYPE
  5
3A
100
AcDbSymbolTableRecord
100
AcDbLinetypeTableRecord
  2
DASHDOTX2
 70
0
  3
Dash dot (2x) ____  .  ____  .  ____  .  ___
 72
65
 73
4
 40
50.7999999999999972
 49
25.3999999999999986
 74
0
 49
-12.6499999999999986
 74
0
 49
0.1
 74
0
 49
-12.6499999999999986
 74
0
  0
LTYPE
  5
3B
100
AcDbSymbolTableRecord
100
AcDbLinetypeTableRecord
  2
HIDDENX2
 70
0
  3
Hidden (2x) ____ ____ ____ ____ ____ ____ ____ 
 72
65
 73
2
 40
19.0499999999999972
 49
12.6999999999999993
 74
0
 49
-6.3499999999999996
 74
0
  0
LTYPE
  5
3C
100
AcDbSymbolTableRecord
100
AcDbLinetypeTableRecord
  2
CENTERX2
 70
0
  3
Center (2x) ________  __  ________  __  _____
 72
65
 73
4
 40
101.5999999999999943
 49
63.5
 74
0
 49
-12.6999999999999993
 74
0
 49
12.6999999999999993
 74
0
 49
-12.6999999999999993
 74
0
  0
LTYPE
  5
3D
100
AcDbSymbolTableRecord
100
AcDbLinetypeTableRecord
  2
BORDER2
 70
0
  3
Border (.5x) __.__.__.__.__.__.__.__.__.__.__.
 72
65
 73
6
 40
22.2249999999999979
 49
6.3499999999999996
 74
0
 49
-3.1749999999999998
 74
0
 49
6.3499999999999996
 74
0
 49
-3.125
 74
0
 49
0.1
 74
0
 49
-3.125
 74
0
  0
LTYPE
  5
3E
100
AcDbSymbolTableRecord
100
AcDbLinetypeTableRecord
  2
DASHDOT2
 70
0
  3
Dash dot (.5x) _._._._._._._._._._._._._._._.
 72
65
 73
4
 40
12.6999999999999993
 49
6.3499999999999996
 74
0
 49
-3.125
 74
0
 49
0.1
 74
0
 49
-3.125
 74
0
  0
LTYPE
  5
3F
100
AcDbSymbolTableRecord
100
AcDbLinetypeTableRecord
  2
ACAD_ISO12W100
 70
0
  3
ISO dash double-dot __ . . __ . . __ . . __ . . 
 72
65
 73
6
 40
21.0
 49
12.0
 74
0
 49
-2.9500000000000002
 74
0
 49
0.1
 74
0
 49
-2.9000000000000004
 74
0
 49
0.1
 74
0
 49
-2.9500000000000002
 74
0
  0
LTYPE
  5
40
100
AcDbSymbolTableRecord
100
AcDbLinetypeTableRecord
  2
ACAD_ISO07W100
 70
0
  3
ISO dot . . . . . . . . . . . . . . . . . . . . 
 72
65
 73
2
 40
3.0
 49
0.1
 74
0
 49
-2.8999999999999999
 74
0
  0
LTYPE
  5
41
100
AcDbSymbolTableRecord
100
AcDbLinetypeTableRecord
  2
HIDDEN
 70
0
  3
Hidden __ __ __ __ __ __ __ __ __ __ __ __ __ __
 72
65
 73
2
 40
9.5249999999999986
 49
6.3499999999999996
 74
0
 49
-3.1749999999999998
 74
0
  0
LTYPE
  5
42
100
AcDbSymbolTableRecord
100
AcDbLinetypeTableRecord
  2
ACAD_ISO06W100
 70
0
  3
ISO long-dash triple-dot ____ ... ____ ... ____
 72
65
 73
8
 40
36.0
 49
24.0
 74
0
 49
-2.9500000000000002
 74
0
 49
0.1
 74
0
 49
-2.9000000000000004
 74
0
 49
0.1
 74
0
 49
-2.9000000000000004
 74
0
 49
0.1
 74
0
 49
-2.9500000000000002
 74
0
  0
LTYPE
  5
43
100
AcDbSymbolTableRecord
100
AcDbLinetypeTableRecord
  2
CENTER
 70
0
  3
Center ____ _ ____ _ ____ _ ____ _ ____ _ ____
 72
65
 73
4
 40
50.7999999999999972
 49
31.75
 74
0
 49
-6.3499999999999996
 74
0
 49
6.3499999999999996
 74
0
 49
-6.3499999999999996
 74
0
  0
LTYPE
  5
44
100
AcDbSymbolTableRecord
100
AcDbLinetypeTableRecord
  2
DOTX2
 70
0
  3
Dot (2x) .  .  .  .  .  .  .  .  .  .  .  .  .  .
 72
65
 73
2
 40
12.6999999999999993
 49
0.1
 74
0
 49
-12.5999999999999996
 74
0
  0
LTYPE
  5
45
100
AcDbSymbolTableRecord
100
AcDbLinetypeTableRecord
  2
PHANTOM
 70
0
  3
Phantom ______  __  __  ______  __  __  ______ 
 72
65
 73
6
 40
63.5
 49
31.75
 74
0
 49
-6.3499999999999996
 74
0
 49
6.3499999999999996
 74
0
 49
-6.3499999999999996
 74
0
 49
6.3499999999999996
 74
0
 49
-6.3499999999999996
 74
0
  0
LTYPE
  5
46
100
AcDbSymbolTableRecord
100
AcDbLinetypeTableRecord
  2
ACAD_ISO08W100
 70
0
  3
ISO long-dash short-dash ____ __ ____ __ ____ _
 72
65
 73
4
 40
36.0
 49
24.0
 74
0
 49
-3.0
 74
0
 49
6.0
 74
0
 49
-3.0
 74
0
  0
LTYPE
  5
47
100
AcDbSymbolTableRecord
100
AcDbLinetypeTableRecord
  2
DASHEDX2
 70
0
  3
Dashed (2x) ____  ____  ____  ____  ____  ___
 72
65
 73
2
 40
38.0999999999999943
 49
25.3999999999999986
 74
0
 49
-12.6999999999999993
 74
0
  0
LTYPE
  5
48
100
AcDbSymbolTableRecord
100
AcDbLinetypeTableRecord
  2
ACAD_ISO02W100
 70
0
  3
ISO dash __ __ __ __ __ __ __ __ __ __ __ __ __
 72
65
 73
2
 40
15.0
 49
12.0
 74
0
 49
-3.0
 74
0
  0
LTYPE
  5
49
100
AcDbSymbolTableRecord
100
AcDbLinetypeTableRecord
  2
PHANTOM2
 70
0
  3
Phantom (.5x) ___ _ _ ___ _ _ ___ _ _ ___ _ _
 72
65
 73
6
 40
31.75
 49
15.875
 74
0
 49
-3.1749999999999998
 74
0
 49
3.1749999999999998
 74
0
 49
-3.1749999999999998
 74
0
 49
3.1749999999999998
 74
0
 49
-3.1749999999999998
 74
0
  0
LTYPE
  5
4A
100
AcDbSymbolTableRecord
100
AcDbLinetypeTableRecord
  2
DASHED2
 70
0
  3
Dashed (.5x) _ _ _ _ _ _ _ _ _ _ _ _ _ _ _ _ _ 
 72
65
 73
2
 40
9.5249999999999986
 49
6.3499999999999996
 74
0
 49
-3.1749999999999998
 74
0
  0
LTYPE
  5
4B
100
AcDbSymbolTableRecord
100
AcDbLinetypeTableRecord
  2
ACAD_ISO09W100
 70
0
  3
ISO long-dash double-short-dash ____ __ __ ____
 72
65
 73
6
 40
45.0
 49
24.0
 74
0
 49
-3.0
 74
0
 49
6.0
 74
0
 49
-3.0
 74
0
 49
6.0
 74
0
 49
-3.0
 74
0
  0
LTYPE
  5
4C
100
AcDbSymbolTableRecord
100
AcDbLinetypeTableRecord
  2
ACAD_ISO13W100
 70
0
  3
ISO double-dash double-dot __ __ . . __ __ . . _
 72
65
 73
8
 40
36.0
 49
12.0
 74
0
 49
-3.0
 74
0
 49
12.0
 74
0
 49
-2.9500000000000002
 74
0
 49
0.1
 74
0
 49
-2.9000000000000004
 74
0
 49
0.1
 74
0
 49
-2.9500000000000002
 74
0
  0
LTYPE
  5
4D
100
AcDbSymbolTableRecord
100
AcDbLinetypeTableRecord
  2
DOT2
 70
0
  3
Dot (.5x) ........................................
 72
65
 73
2
 40
3.1749999999999998
 49
0.1
 74
0
 49
-3.0749999999999997
 74
0
  0
LTYPE
  5
4E
100
AcDbSymbolTableRecord
100
AcDbLinetypeTableRecord
  2
DASHED
 70
0
  3
Dashed __ __ __ __ __ __ __ __ __ __ __ __ __ _
 72
65
 73
2
 40
19.0499999999999972
 49
12.6999999999999993
 74
0
 49
-6.3499999999999996
 74
0
  0
LTYPE
  5
4F
100
AcDbSymbolTableRecord
100
AcDbLinetypeTableRecord
  2
ACAD_ISO14W100
 70
0
  3
ISO dash triple-dot __ . . . __ . . . __ . . . _
 72
65
 73
8
 40
24.0
 49
12.0
 74
0
 49
-2.9500000000000002
 74
0
 49
0.1
 74
0
 49
-2.9000000000000004
 74
0
 49
0.1
 74
0
 49
-2.9000000000000004
 74
0
 49
0.1
 74
0
 49
-2.9500000000000002
 74
0
  0
LTYPE
  5
15
100
AcDbSymbolTableRecord
100
AcDbLinetypeTableRecord
  2
BYLAYER
 70
0
  3

 72
65
 73
0
 40
0.0
  0
LTYPE
  5
50
100
AcDbSymbolTableRecord
100
AcDbLinetypeTableRecord
  2
PHANTOMX2
 70
0
  3
Phantom (2x) ____________    ____    ____   _
 72
65
 73
6
 40
127.0
 49
63.5
 74
0
 49
-12.6999999999999993
 74
0
 49
12.6999999999999993
 74
0
 49
-12.6999999999999993
 74
0
 49
12.6999999999999993
 74
0
 49
-12.6999999999999993
 74
0
  0
LTYPE
  5
14
100
AcDbSymbolTableRecord
100
AcDbLinetypeTableRecord
  2
BYBLOCK
 70
0
  3

 72
65
 73
0
 40
0.0
  0
LTYPE
  5
51
100
AcDbSymbolTableRecord
100
AcDbLinetypeTableRecord
  2
DIVIDEX2
 70
0
  3
Divide (2x) ________  .  .  ________  .  .  _
 72
65
 73
6
 40
63.4999999999999929
 49
25.3999999999999986
 74
0
 49
-12.6499999999999986
 74
0
 49
0.1
 74
0
 49
-12.5999999999999979
 74
0
 49
0.1
 74
0
 49
-12.6499999999999986
 74
0
  0
LTYPE
  5
52
100
AcDbSymbolTableRecord
100
AcDbLinetypeTableRecord
  2
BORDER
 70
0
  3
Border __ __ . __ __ . __ __ . __ __ . __ __ .
 72
65
 73
6
 40
44.4499999999999957
 49
12.6999999999999993
 74
0
 49
-6.3499999999999996
 74
0
 49
12.6999999999999993
 74
0
 49
-6.2999999999999998
 74
0
 49
0.1
 74
0
 49
-6.2999999999999998
 74
0
  0
LTYPE
  5
53
100
AcDbSymbolTableRecord
100
AcDbLinetypeTableRecord
  2
DIVIDE2
 70
0
  3
Divide (.5x) __..__..__..__..__..__..__..__.._
 72
65
 73
6
 40
15.875
 49
6.3499999999999996
 74
0
 49
-3.125
 74
0
 49
0.1
 74
0
 49
-3.0750000000000002
 74
0
 49
0.1
 74
0
 49
-3.125
 74
0
  0
LTYPE
  5
54
100
AcDbSymbolTableRecord
100
AcDbLinetypeTableRecord
  2
DOT
 70
0
  3
Dot . . . . . . . . . . . . . . . . . . . . . . . .
 72
65
 73
2
 40
6.3499999999999996
 49
0.1
 74
0
 49
-6.25
 74
0
  0
LTYPE
  5
55
100
AcDbSymbolTableRecord
100
AcDbLinetypeTableRecord
  2
DASHDOT
 70
0
  3
Dash dot __ . __ . __ . __ . __ . __ . __ . __
 72
65
 73
4
 40
25.3999999999999986
 49
12.6999999999999993
 74
0
 49
-6.2999999999999998
 74
0
 49
0.1
 74
0
 49
-6.2999999999999998
 74
0
  0
LTYPE
  5
56
100
AcDbSymbolTableRecord
100
AcDbLinetypeTableRecord
  2
ACAD_ISO03W100
 70
0
  3
ISO dash space __    __    __    __    __    __
 72
65
 73
2
 40
30.0
 49
12.0
 74
0
 49
-18.0
 74
0
  0
ENDTAB
  0
TABLE
  2
LAYER
  5
2
100
AcDbSymbolTable
 70
17
  0
LAYER
  5
57
100
AcDbSymbolTableRecord
100
AcDbLayerTableRecord
  2
Bac
 70
0
 62
9
420
12632256
  6
Continuous
370
25
390
F
  0
LAYER
  5
58
100
AcDbSymbolTableRecord
100
AcDbLayerTableRecord
  2
Cotes
 70
0
 62
7
420
0
  6
Continuous
370
25
390
F
  0
LAYER
  5
59
100
AcDbSymbolTableRecord
100
AcDbLayerTableRecord
  2
OSB18
 70
0
 62
30
420
16744192
  6
Continuous
370
25
390
F
  0
LAYER
  5
5A
100
AcDbSymbolTableRecord
100
AcDbLayerTableRecord
  2
EvacSiphon
 70
0
 62
9
420
12632256
  6
Continuous
370
25
390
F
  0
LAYER
  5
5B
100
AcDbSymbolTableRecord
100
AcDbLayerTableRecord
  2
Tube
 70
0
 62
7
420
0
  6
Continuous
370
25
390
F
  0
LAYER
  5
5C
100
AcDbSymbolTableRecord
100
AcDbLayerTableRecord
  2
Tadelakt
 70
0
 62
7
420
0
  6
Continuous
370
25
390
F
  0
LAYER
  5
5D
100
AcDbSymbolTableRecord
100
AcDbLayerTableRecord
  2
6x4 \U+00e0 poser
 70
0
 62
1
420
16711680
  6
Continuous
370
25
390
F
  0
LAYER
  5
5E
100
AcDbSymbolTableRecord
100
AcDbLayerTableRecord
  2
6x4 existant
 70
0
 62
14
420
8388608
  6
Continuous
370
25
390
F
  0
LAYER
  5
5F
100
AcDbSymbolTableRecord
100
AcDbLayerTableRecord
  2
EvacDiam100
 70
0
 62
9
420
12632256
  6
Continuous
370
25
390
F
  0
LAYER
  5
60
100
AcDbSymbolTableRecord
100
AcDbLayerTableRecord
  2
OSB22
 70
0
 62
20
420
16736015
  6
Continuous
370
25
390
F
  0
LAYER
  5
61
100
AcDbSymbolTableRecord
100
AcDbLayerTableRecord
  2
Gobetis
 70
0
 62
9
420
12632256
  6
Continuous
370
25
390
F
  0
LAYER
  5
62
100
AcDbSymbolTableRecord
100
AcDbLayerTableRecord
  2
OSB12
 70
1
 62
-2
420
16776960
  6
Continuous
370
25
390
F
  0
LAYER
  5
63
100
AcDbSymbolTableRecord
100
AcDbLayerTableRecord
  2
Mitigeur
 70
1
 62
-7
420
0
  6
Continuous
370
25
390
F
  0
LAYER
  5
10
100
AcDbSymbolTableRecord
100
AcDbLayerTableRecord
  2
0
 70
1
 62
-7
420
16777215
  6
Continuous
370
25
390
F
  0
LAYER
  5
64
100
AcDbSymbolTableRecord
100
AcDbLayerTableRecord
  2
Li\U+00e8ge
 70
0
 62
7
420
0
  6
Continuous
370
25
390
F
  0
LAYER
  5
65
100
AcDbSymbolTableRecord
100
AcDbLayerTableRecord
  2
Fermacell13
 70
0
 62
4
420
65535
  6
Continuous
370
25
390
F
  0
LAYER
  5
66
100
AcDbSymbolTableRecord
100
AcDbLayerTableRecord
  2
Vitre
 70
1
 62
-5
420
255
  6
Continuous
370
25
390
F
  0
ENDTAB
  0
TABLE
  2
STYLE
  5
3
100
AcDbSymbolTable
 70
1
  0
STYLE
  5
67
100
AcDbSymbolTableRecord
100
AcDbTextStyleTableRecord
  2
Standard
 70
0
 40
0.0
 41
1.0
 50
0.0
 71
0
 42
2.5
  3

  4

1001
ACAD
1000
txt
1071
0
  0
ENDTAB
  0
TABLE
  2
VIEW
  5
6
100
AcDbSymbolTable
 70
0
  0
ENDTAB
  0
TABLE
  2
UCS
  5
7
100
AcDbSymbolTable
 70
0
  0
ENDTAB
  0
TABLE
  2
APPID
  5
9
100
AcDbSymbolTable
 70
1
  0
APPID
  5
12
100
AcDbSymbolTableRecord
100
AcDbRegAppTableRecord
  2
ACAD
 70
0
  0
APPID
  5
68
100
AcDbSymbolTableRecord
100
AcDbRegAppTableRecord
  2
QCAD
 70
0
  0
ENDTAB
  0
TABLE
  2
DIMSTYLE
  5
A
100
AcDbSymbolTable
 70
1
100
AcDbDimStyleTable
 71
0
  0
DIMSTYLE
105
27
100
AcDbSymbolTableRecord
100
AcDbDimStyleTableRecord
  2
Standard
 41
2.5
 42
0.625
 43
3.75
 44
1.25
 70
0
 73
0
 74
0
 77
1
 78
8
140
2.5
141
2.5
143
0.03937007874016
147
0.625
171
3
172
1
271
2
272
2
274
3
278
44
283
0
284
8
340
67
  0
ENDTAB
  0
TABLE
  2
BLOCK_RECORD
  5
1
100
AcDbSymbolTable
 70
1
  0
BLOCK_RECORD
  5
1F
100
AcDbSymbolTableRecord
100
AcDbBlockTableRecord
  2
*Model_Space
340
22
  0
BLOCK_RECORD
  5
1B
100
AcDbSymbolTableRecord
100
AcDbBlockTableRecord
  2
*Paper_Space
340
1E
  0
BLOCK_RECORD
  5
23
100
AcDbSymbolTableRecord
100
AcDbBlockTableRecord
  2
*Paper_Space0
340
26
  0
BLOCK_RECORD
  5
69
100
AcDbSymbolTableRecord
100
AcDbBlockTableRecord
  2
Bac
340
0
  0
BLOCK_RECORD
  5
6A
100
AcDbSymbolTableRecord
100
AcDbBlockTableRecord
  2
Montant6x4
340
0
  0
ENDTAB
  0
ENDSEC
  0
SECTION
  2
BLOCKS
  0
BLOCK
  5
20
100
AcDbEntity
  8
0
100
AcDbBlockBegin
  2
*Model_Space
 70
0
 10
0.0
 20
0.0
 30
0.0
  3
*Model_Space
  1

  0
ENDBLK
  5
21
100
AcDbEntity
  8
0
100
AcDbBlockEnd
  0
BLOCK
  5
1C
100
AcDbEntity
 67
1
  8
0
100
AcDbBlockBegin
  2
*Paper_Space
 70
0
 10
0.0
 20
0.0
 30
0.0
  3
*Paper_Space
  1

  0
ENDBLK
  5
1D
100
AcDbEntity
 67
1
  8
0
100
AcDbBlockEnd
  0
BLOCK
  5
24
100
AcDbEntity
  8
0
100
AcDbBlockBegin
  2
*Paper_Space0
 70
0
 10
0.0
 20
0.0
 30
0.0
  3
*Paper_Space0
  1

  0
ENDBLK
  5
25
100
AcDbEntity
  8
0
100
AcDbBlockEnd
  0
BLOCK
  5
6B
100
AcDbEntity
  8
0
100
AcDbBlockBegin
  2
Bac
 70
0
 10
0.0
 20
0.0
 30
0.0
  3
Bac
  1

  0
LINE
  5
6C
100
AcDbEntity
100
AcDbLine
  8
Bac
 62
256
370
-1
 48
1.0
  6
BYLAYER
 10
0.000000000000098
 20
1600.0
 30
0.0
 11
-0.0000000000001959
 21
0.000000000000098
 31
0.0
  0
LINE
  5
6D
100
AcDbEntity
100
AcDbLine
  8
Bac
 62
256
370
-1
 48
1.0
  6
BYLAYER
 10
800.0
 20
1600.0
 30
0.0
 11
800.0
 21
-0.0
 31
0.0
  0
LINE
  5
6E
100
AcDbEntity
100
AcDbLine
  8
Bac
 62
256
370
-1
 48
1.0
  6
BYLAYER
 10
800.0
 20
-0.0
 30
0.0
 11
-0.0000000000001959
 21
0.000000000000098
 31
0.0
  0
LINE
  5
6F
100
AcDbEntity
100
AcDbLine
  8
Bac
 62
256
370
-1
 48
1.0
  6
BYLAYER
 10
800.0000000000001137
 20
1600.0
 30
0.0
 11
-0.0000000000000979
 21
1600.0
 31
0.0
  0
ENDBLK
  5
70
100
AcDbEntity
  8
0
100
AcDbBlockEnd
  0
BLOCK
  5
71
100
AcDbEntity
  8
0
100
AcDbBlockBegin
  2
Montant6x4
 70
0
 10
0.0
 20
0.0
 30
0.0
  3
Montant6x4
  1

  0
LINE
  5
72
100
AcDbEntity
100
AcDbLine
  8
6x4 existant
 62
256
370
-1
 48
1.0
  6
BYLAYER
 10
59.9999999999998153
 20
0.0
 30
0.0
 11
0.0
 21
0.0
 31
0.0
  0
LINE
  5
73
100
AcDbEntity
100
AcDbLine
  8
6x4 existant
 62
256
370
-1
 48
1.0
  6
BYLAYER
 10
0.0000000000000021
 20
34.0
 30
0.0
 11
0.0
 21
0.0
 31
0.0
  0
LINE
  5
74
100
AcDbEntity
100
AcDbLine
  8
6x4 existant
 62
256
370
-1
 48
1.0
  6
BYLAYER
 10
0.0
 20
0.0
 30
0.0
 11
59.9999999999998153
 21
34.0
 31
0.0
  0
LINE
  5
75
100
AcDbEntity
100
AcDbLine
  8
6x4 existant
 62
256
370
-1
 48
1.0
  6
BYLAYER
 10
59.9999999999998153
 20
34.0
 30
0.0
 11
60.0000000000000071
 21
0.0
 31
0.0
  0
LINE
  5
76
100
AcDbEntity
100
AcDbLine
  8
6x4 existant
 62
256
370
-1
 48
1.0
  6
BYLAYER
 10
60.0000000000000071
 20
0.0
 30
0.0
 11
0.0000000000000021
 21
34.0
 31
0.0
  0
LINE
  5
77
100
AcDbEntity
100
AcDbLine
  8
6x4 existant
 62
256
370
-1
 48
1.0
  6
BYLAYER
 10
59.9999999999998153
 20
34.0
 30
0.0
 11
0.0000000000000021
 21
34.0
 31
0.0
  0
ENDBLK
  5
78
100
AcDbEntity
  8
0
100
AcDbBlockEnd
  0
ENDSEC
  0
SECTION
  2
ENTITIES
  0
INSERT
  5
79
100
AcDbEntity
100
AcDbBlockReference
  8
Bac
 62
256
370
-1
 48
1.0
  6
BYLAYER
  2
Bac
 10
-0.0000000000001959
 20
35.9999999999999289
 30
0.0
  0
LINE
  5
7A
100
AcDbEntity
100
AcDbLine
  8
OSB18
 62
256
370
-1
 48
1.0
  6
BYLAYER
 10
800.0
 20
1654.0
 30
0.0
 11
800.0
 21
35.9999999999999361
 31
0.0
  0
LINE
  5
7B
100
AcDbEntity
100
AcDbLine
  8
OSB18
 62
256
370
-1
 48
1.0
  6
BYLAYER
 10
0.0000000000000995
 20
1000.0
 30
0.0
 11
-0.0000000000001954
 21
36.0000000000000284
 31
0.0
  0
LINE
  5
7C
100
AcDbEntity
100
AcDbLine
  8
OSB18
 62
256
370
-1
 48
1.0
  6
BYLAYER
 10
818.0
 20
1654.0
 30
0.0
 11
818.0
 21
35.9999999999999361
 31
0.0
  0
LINE
  5
7D
100
AcDbEntity
100
AcDbLine
  8
OSB18
 62
256
370
-1
 48
1.0
  6
BYLAYER
 10
-17.9999999999998685
 20
1000.0
 30
0.0
 11
-18.0000000000001954
 21
36.0000000000000284
 31
0.0
  0
LINE
  5
7E
100
AcDbEntity
100
AcDbLine
  8
OSB18
 62
256
370
-1
 48
1.0
  6
BYLAYER
 10
-18.0000000000001954
 20
36.0000000000000284
 30
0.0
 11
-0.0000000000001954
 21
36.0000000000000284
 31
0.0
  0
LINE
  5
7F
100
AcDbEntity
100
AcDbLine
  8
OSB18
 62
256
370
-1
 48
1.0
  6
BYLAYER
 10
800.0
 20
35.9999999999999361
 30
0.0
 11
818.0
 21
35.9999999999999361
 31
0.0
  0
LINE
  5
80
100
AcDbEntity
100
AcDbLine
  8
OSB18
 62
256
370
-1
 48
1.0
  6
BYLAYER
 10
800.0
 20
1654.0
 30
0.0
 11
818.0
 21
1654.0
 31
0.0
  0
LINE
  5
81
100
AcDbEntity
100
AcDbLine
  8
Fermacell13
 62
256
370
-1
 48
1.0
  6
BYLAYER
 10
787.0
 20
1636.0
 30
0.0
 11
787.0
 21
49.0
 31
0.0
  0
LINE
  5
82
100
AcDbEntity
100
AcDbLine
  8
Fermacell13
 62
256
370
-1
 48
1.0
  6
BYLAYER
 10
13.0000000000000995
 20
1000.0
 30
0.0
 11
12.9999999999998135
 21
49.0
 31
0.0
  0
LINE
  5
83
100
AcDbEntity
100
AcDbLine
  8
Fermacell13
 62
256
370
-1
 48
1.0
  6
BYLAYER
 10
800.0
 20
1636.0
 30
0.0
 11
800.0
 21
49.0
 31
0.0
  0
LINE
  5
84
100
AcDbEntity
100
AcDbLine
  8
Fermacell13
 62
256
370
-1
 48
1.0
  6
BYLAYER
 10
0.0000000000000995
 20
1000.0
 30
0.0
 11
-0.000000000000184
 21
49.0
 31
0.0
  0
LINE
  5
85
100
AcDbEntity
100
AcDbLine
  8
Fermacell13
 62
256
370
-1
 48
1.0
  6
BYLAYER
 10
0.0000000000000995
 20
994.0
 30
0.0
 11
13.0000000000000995
 21
994.0
 31
0.0
  0
LINE
  5
86
100
AcDbEntity
100
AcDbLine
  8
Fermacell13
 62
256
370
-1
 48
1.0
  6
BYLAYER
 10
787.0
 20
1636.0
 30
0.0
 11
800.0
 21
1636.0
 31
0.0
  0
LINE
  5
87
100
AcDbEntity
100
AcDbLine
  8
Gobetis
 62
256
370
-1
 48
1.0
  6
BYLAYER
 10
782.0
 20
1618.0
 30
0.0
 11
782.0
 21
49.0
 31
0.0
  0
LINE
  5
88
100
AcDbEntity
100
AcDbLine
  8
Gobetis
 62
256
370
-1
 48
1.0
  6
BYLAYER
 10
18.0000000000000995
 20
1002.0710678118655323
 30
0.0
 11
17.9999999999998046
 21
49.0000000000000995
 31
0.0
  0
LINE
  5
89
100
AcDbEntity
100
AcDbLine
  8
Gobetis
 62
256
370
-1
 48
1.0
  6
BYLAYER
 10
13.0000000000000995
 20
1000.0
 30
0.0
 11
12.9999999999998046
 21
49.0000000000000995
 31
0.0
  0
LINE
  5
8A
100
AcDbEntity
100
AcDbLine
  8
Gobetis
 62
256
370
-1
 48
1.0
  6
BYLAYER
 10
787.0
 20
1618.0
 30
0.0
 11
787.0
 21
49.0
 31
0.0
  0
LINE
  5
8B
100
AcDbEntity
100
AcDbLine
  8
Gobetis
 62
256
370
-1
 48
1.0
  6
BYLAYER
 10
782.0
 20
49.0
 30
0.0
 11
787.0
 21
49.0
 31
0.0
  0
LINE
  5
8C
100
AcDbEntity
100
AcDbLine
  8
Gobetis
 62
256
370
-1
 48
1.0
  6
BYLAYER
 10
787.0
 20
1618.0
 30
0.0
 11
782.0
 21
1618.0
 31
0.0
  0
LINE
  5
8D
100
AcDbEntity
100
AcDbLine
  8
Gobetis
 62
256
370
-1
 48
1.0
  6
BYLAYER
 10
18.0000000000000995
 20
994.0
 30
0.0
 11
13.0000000000000995
 21
994.0
 31
0.0
  0
LINE
  5
8E
100
AcDbEntity
100
AcDbLine
  8
Gobetis
 62
256
370
-1
 48
1.0
  6
BYLAYER
 10
12.9999999999998046
 20
49.0000000000000995
 30
0.0
 11
17.9999999999998046
 21
49.0000000000000995
 31
0.0
  0
HATCH
  5
8F
  8
Gobetis
 62
256
370
-1
 48
1.0
  6
BYLAYER
100
AcDbEntity
100
AcDbHatch
 10
0.0
 20
0.0
 30
0.0
210
0.0
220
0.0
230
1.0
  2
SOLID
 70
1
 71
0
 91
1
 92
1
 93
4
 72
1
 10
782.0
 20
49.0
 11
787.0
 21
49.0
 72
1
 10
787.0
 20
49.0
 11
787.0
 21
1618.0
 72
1
 10
787.0
 20
1618.0
 11
782.0
 21
1618.0
 72
1
 10
782.0
 20
1618.0
 11
782.0
 21
49.0
 97
0
 75
0
 76
1
 98
0
1001
ACAD
1010
0.0
1020
0.0
1030
0
  0
HATCH
  5
90
  8
Gobetis
 62
256
370
-1
 48
1.0
  6
BYLAYER
100
AcDbEntity
100
AcDbHatch
 10
0.0
 20
0.0
 30
0.0
210
0.0
220
0.0
230
1.0
  2
SOLID
 70
1
 71
0
 91
1
 92
1
 93
4
 72
1
 10
18.0000000000000995
 20
1000.0
 11
13.0000000000000995
 21
1000.0
 72
1
 10
13.0000000000000995
 20
1000.0
 11
12.9999999999998046
 21
49.0000000000000995
 72
1
 10
12.9999999999998046
 20
49.0000000000000995
 11
17.9999999999998046
 21
49.0000000000000995
 72
1
 10
17.9999999999998046
 20
49.0000000000000995
 11
18.0000000000000995
 21
1000.0
 97
0
 75
0
 76
1
 98
0
1001
ACAD
1010
0.0
1020
0.0
1030
0
  0
LINE
  5
91
100
AcDbEntity
100
AcDbLine
  8
Tadelakt
 62
256
370
-1
 48
1.0
  6
BYLAYER
 10
21.0000000000000995
 20
1000.0
 30
0.0
 11
20.9999999999998046
 21
54.0000000000000995
 31
0.0
  0
LINE
  5
92
100
AcDbEntity
100
AcDbLine
  8
Tadelakt
 62
256
370
-1
 48
1.0
  6
BYLAYER
 10
18.0000000000000995
 20
1000.0
 30
0.0
 11
17.9999999999998046
 21
54.0000000000000995
 31
0.0
  0
LINE
  5
93
100
AcDbEntity
100
AcDbLine
  8
Tadelakt
 62
256
370
-1
 48
1.0
  6
BYLAYER
 10
779.0
 20
1615.0
 30
0.0
 11
779.0
 21
54.0
 31
0.0
  0
LINE
  5
94
100
AcDbEntity
100
AcDbLine
  8
Tadelakt
 62
256
370
-1
 48
1.0
  6
BYLAYER
 10
782.0
 20
1615.0
 30
0.0
 11
782.0
 21
54.0
 31
0.0
  0
LINE
  5
95
100
AcDbEntity
100
AcDbLine
  8
Tadelakt
 62
256
370
-1
 48
1.0
  6
BYLAYER
 10
779.0
 20
54.0
 30
0.0
 11
782.0
 21
54.0
 31
0.0
  0
LINE
  5
96
100
AcDbEntity
100
AcDbLine
  8
Tadelakt
 62
256
370
-1
 48
1.0
  6
BYLAYER
 10
779.0
 20
1615.0
 30
0.0
 11
782.0
 21
1615.0
 31
0.0
  0
HATCH
  5
97
  8
Tadelakt
 62
256
370
-1
 48
1.0
  6
BYLAYER
100
AcDbEntity
100
AcDbHatch
 10
0.0
 20
0.0
 30
0.0
210
0.0
220
0.0
230
1.0
  2
SOLID
 70
1
 71
0
 91
1
 92
1
 93
4
 72
1
 10
779.0
 20
1615.0
 11
779.0
 21
54.0
 72
1
 10
779.0
 20
54.0
 11
782.0
 21
54.0
 72
1
 10
782.0
 20
54.0
 11
782.0
 21
1615.0
 72
1
 10
782.0
 20
1615.0
 11
779.0
 21
1615.0
 97
0
 75
0
 76
1
 98
0
1001
ACAD
1010
0.0
1020
0.0
1030
0
  0
LINE
  5
98
100
AcDbEntity
100
AcDbLine
  8
Tadelakt
 62
256
370
-1
 48
1.0
  6
BYLAYER
 10
17.9999999999998046
 20
54.0000000000000995
 30
0.0
 11
20.9999999999998046
 21
54.0000000000000995
 31
0.0
  0
LINE
  5
99
100
AcDbEntity
100
AcDbLine
  8
Tadelakt
 62
256
370
-1
 48
1.0
  6
BYLAYER
 10
21.0000000000000995
 20
994.0
 30
0.0
 11
18.0000000000000995
 21
994.0
 31
0.0
  0
HATCH
  5
9A
  8
Tadelakt
 62
256
370
-1
 48
1.0
  6
BYLAYER
100
AcDbEntity
100
AcDbHatch
 10
0.0
 20
0.0
 30
0.0
210
0.0
220
0.0
230
1.0
  2
SOLID
 70
1
 71
0
 91
1
 92
1
 93
4
 72
1
 10
21.0000000000000995
 20
1000.0
 11
20.9999999999998046
 21
54.0000000000000995
 72
1
 10
20.9999999999998046
 20
54.0000000000000995
 11
17.9999999999998046
 21
54.0000000000000995
 72
1
 10
17.9999999999998046
 20
54.0000000000000995
 11
18.0000000000000995
 21
1000.0
 72
1
 10
18.0000000000000995
 20
1000.0
 11
21.0000000000000995
 21
1000.0
 97
0
 75
0
 76
1
 98
0
1001
ACAD
1010
0.0
1020
0.0
1030
0
  0
LINE
  5
9B
100
AcDbEntity
100
AcDbLine
  8
OSB18
 62
256
370
-1
 48
1.0
  6
BYLAYER
 10
15.9999999999997726
 20
0.000000000000028
 30
0.0
 11
-18.0000000000001954
 21
0.000000000000032
 31
0.0
  0
LINE
  5
9C
100
AcDbEntity
100
AcDbLine
  8
OSB18
 62
256
370
-1
 48
1.0
  6
BYLAYER
 10
388.0
 20
-0.0000000000000163
 30
0.0
 11
354.0
 21
-0.0000000000000123
 31
0.0
  0
LINE
  5
9D
100
AcDbEntity
100
AcDbLine
  8
OSB18
 62
256
370
-1
 48
1.0
  6
BYLAYER
 10
818.0
 20
-0.0000000000000675
 30
0.0
 11
784.0
 21
-0.0000000000000635
 31
0.0
  0
LINE
  5
9E
100
AcDbEntity
100
AcDbLine
  8
OSB18
 62
256
370
-1
 48
1.0
  6
BYLAYER
 10
818.0
 20
17.9999999999999325
 30
0.0
 11
-18.0000000000001954
 21
18.000000000000032
 31
0.0
  0
LINE
  5
9F
100
AcDbEntity
100
AcDbLine
  8
OSB18
 62
256
370
-1
 48
1.0
  6
BYLAYER
 10
818.0
 20
35.9999999999999289
 30
0.0
 11
-18.0000000000001954
 21
36.0000000000000284
 31
0.0
  0
LINE
  5
A0
100
AcDbEntity
100
AcDbLine
  8
Fermacell13
 62
256
370
-1
 48
1.0
  6
BYLAYER
 10
800.0
 20
49.0
 30
0.0
 11
-0.0000000000001929
 21
49.0000000000000995
 31
0.0
  0
LINE
  5
A1
100
AcDbEntity
100
AcDbLine
  8
Fermacell13
 62
256
370
-1
 48
1.0
  6
BYLAYER
 10
800.0
 20
36.0
 30
0.0
 11
-0.0000000000001953
 21
36.0000000000000995
 31
0.0
  0
LINE
  5
A2
100
AcDbEntity
100
AcDbLine
  8
Gobetis
 62
256
370
-1
 48
1.0
  6
BYLAYER
 10
787.0
 20
54.0
 30
0.0
 11
12.9999999999997726
 21
54.0000000000000995
 31
0.0
  0
LINE
  5
A3
100
AcDbEntity
100
AcDbLine
  8
Tadelakt
 62
256
370
-1
 48
1.0
  6
BYLAYER
 10
779.0
 20
57.0
 30
0.0
 11
20.9999999999998082
 21
57.0000000000000995
 31
0.0
  0
HATCH
  5
A4
  8
OSB18
 62
256
370
-1
 48
1.0
  6
BYLAYER
100
AcDbEntity
100
AcDbHatch
 10
0.0
 20
0.0
 30
0.0
210
0.0
220
0.0
230
1.0
  2
ANSI33
 70
0
 71
0
 91
1
 92
1
 93
4
 72
1
 10
0.0000000000000995
 20
1000.0
 11
-0.0000000000001954
 21
36.0000000000000284
 72
1
 10
-0.0000000000001954
 20
36.0000000000000284
 11
-18.0000000000001954
 21
36.0000000000000284
 72
1
 10
-18.0000000000001954
 20
36.0000000000000284
 11
-17.9999999999998685
 21
1000.0
 72
1
 10
-17.9999999999998685
 20
1000.0
 11
0.0000000000000995
 21
1000.0
 97
0
 75
0
 76
1
 52
0.0
 41
10.0
 77
0
 78
1
 53
45.0
 43
0.0
 44
0.0
 45
-0.0883883476483184
 46
0.0883883476483185
 79
0
 98
0
1001
ACAD
1010
0.0
1020
0.0
1030
0
  0
HATCH
  5
A5
  8
OSB18
 62
256
370
-1
 48
1.0
  6
BYLAYER
100
AcDbEntity
100
AcDbHatch
 10
0.0
 20
0.0
 30
0.0
210
0.0
220
0.0
230
1.0
  2
ANSI33
 70
0
 71
0
 91
1
 92
1
 93
4
 72
1
 10
800.0
 20
1654.0
 11
800.0
 21
35.9999999999999361
 72
1
 10
800.0
 20
35.9999999999999361
 11
818.0
 21
35.9999999999999361
 72
1
 10
818.0
 20
35.9999999999999361
 11
818.0
 21
1654.0
 72
1
 10
818.0
 20
1654.0
 11
800.0
 21
1654.0
 97
0
 75
0
 76
1
 52
0.0
 41
10.0
 77
0
 78
1
 53
45.0
 43
0.0
 44
0.0
 45
-0.0883883476483184
 46
0.0883883476483185
 79
0
 98
0
1001
ACAD
1010
0.0
1020
0.0
1030
0
  0
LINE
  5
A6
100
AcDbEntity
100
AcDbLine
  8
Fermacell13
 62
256
370
-1
 48
1.0
  6
BYLAYER
 10
-0.000000000000184
 20
49.0
 30
0.0
 11
-0.0000000000001953
 21
36.0000000000000995
 31
0.0
  0
LINE
  5
A7
100
AcDbEntity
100
AcDbLine
  8
Fermacell13
 62
256
370
-1
 48
1.0
  6
BYLAYER
 10
800.0
 20
49.0
 30
0.0
 11
800.0
 21
36.0
 31
0.0
  0
HATCH
  5
A8
  8
Fermacell13
 62
256
370
-1
 48
1.0
  6
BYLAYER
100
AcDbEntity
100
AcDbHatch
 10
0.0
 20
0.0
 30
0.0
210
0.0
220
0.0
230
1.0
  2
ANSI33
 70
0
 71
0
 91
1
 92
1
 93
4
 72
1
 10
800.0
 20
49.0
 11
-0.0000000000001929
 21
49.0000000000000995
 72
1
 10
-0.000000000000184
 20
49.0
 11
-0.0000000000001953
 21
36.0000000000000995
 72
1
 10
-0.0000000000001953
 20
36.0000000000000995
 11
800.0
 21
36.0
 72
1
 10
800.0
 20
36.0
 11
800.0
 21
49.0
 97
0
 75
0
 76
1
 52
0.0
 41
10.0
 77
0
 78
1
 53
45.0
 43
0.0
 44
0.0
 45
-0.0883883476483184
 46
0.0883883476483185
 79
0
 98
0
1001
ACAD
1010
0.0
1020
0.0
1030
0
  0
LINE
  5
A9
100
AcDbEntity
100
AcDbLine
  8
Fermacell13
 62
256
370
-1
 48
1.0
  6
BYLAYER
 10
-0.000000000000184
 20
49.0
 30
0.0
 11
12.9999999999998135
 21
49.0
 31
0.0
  0
LINE
  5
AA
100
AcDbEntity
100
AcDbLine
  8
Fermacell13
 62
256
370
-1
 48
1.0
  6
BYLAYER
 10
787.0
 20
49.0
 30
0.0
 11
800.0
 21
49.0
 31
0.0
  0
HATCH
  5
AB
  8
Fermacell13
 62
256
370
-1
 48
1.0
  6
BYLAYER
100
AcDbEntity
100
AcDbHatch
 10
0.0
 20
0.0
 30
0.0
210
0.0
220
0.0
230
1.0
  2
ANSI33
 70
0
 71
0
 91
1
 92
1
 93
4
 72
1
 10
0.0000000000000995
 20
1000.0
 11
-0.000000000000184
 21
49.0
 72
1
 10
-0.000000000000184
 20
49.0
 11
12.9999999999998135
 21
49.0
 72
1
 10
12.9999999999998135
 20
49.0
 11
13.0000000000000995
 21
1000.0
 72
1
 10
13.0000000000000995
 20
1000.0
 11
0.0000000000000995
 21
1000.0
 97
0
 75
0
 76
1
 52
0.0
 41
10.0
 77
0
 78
1
 53
45.0
 43
0.0
 44
0.0
 45
-0.0883883476483184
 46
0.0883883476483185
 79
0
 98
0
1001
ACAD
1010
0.0
1020
0.0
1030
0
  0
HATCH
  5
AC
  8
Fermacell13
 62
256
370
-1
 48
1.0
  6
BYLAYER
100
AcDbEntity
100
AcDbHatch
 10
0.0
 20
0.0
 30
0.0
210
0.0
220
0.0
230
1.0
  2
ANSI33
 70
0
 71
0
 91
1
 92
1
 93
4
 72
1
 10
800.0
 20
1636.0
 11
800.0
 21
49.0
 72
1
 10
800.0
 20
49.0
 11
787.0
 21
49.0
 72
1
 10
787.0
 20
49.0
 11
787.0
 21
1636.0
 72
1
 10
787.0
 20
1636.0
 11
800.0
 21
1636.0
 97
0
 75
0
 76
1
 52
0.0
 41
10.0
 77
0
 78
1
 53
45.0
 43
0.0
 44
0.0
 45
-0.0883883476483184
 46
0.0883883476483185
 79
0
 98
0
1001
ACAD
1010
0.0
1020
0.0
1030
0
  0
LINE
  5
AD
100
AcDbEntity
100
AcDbLine
  8
OSB12
 62
256
370
-1
 48
1.0
  6
BYLAYER
 10
396.0
 20
-0.0000000000000107
 30
0.0
 11
396.0
 21
11.9999999999999893
 31
0.0
  0
LINE
  5
AE
100
AcDbEntity
100
AcDbLine
  8
OSB12
 62
256
370
-1
 48
1.0
  6
BYLAYER
 10
640.0
 20
-0.0000000000000249
 30
0.0
 11
640.0
 21
11.9999999999999893
 31
0.0
  0
LINE
  5
AF
100
AcDbEntity
100
AcDbLine
  8
OSB12
 62
256
370
-1
 48
1.0
  6
BYLAYER
 10
396.0
 20
-0.0000000000000107
 30
0.0
 11
640.0
 21
-0.0000000000000249
 31
0.0
  0
LINE
  5
B0
100
AcDbEntity
100
AcDbLine
  8
OSB12
 62
256
370
-1
 48
1.0
  6
BYLAYER
 10
396.0
 20
11.9999999999999893
 30
0.0
 11
640.0
 21
11.9999999999999893
 31
0.0
  0
LINE
  5
B1
100
AcDbEntity
100
AcDbLine
  8
OSB18
 62
256
370
-1
 48
1.0
  6
BYLAYER
 10
-18.0000000000001954
 20
18.000000000000032
 30
0.0
 11
-18.0000000000001954
 21
0.000000000000032
 31
0.0
  0
LINE
  5
B2
100
AcDbEntity
100
AcDbLine
  8
OSB18
 62
256
370
-1
 48
1.0
  6
BYLAYER
 10
818.0
 20
-0.0000000000000675
 30
0.0
 11
818.0
 21
17.9999999999999325
 31
0.0
  0
LINE
  5
B3
100
AcDbEntity
100
AcDbLine
  8
OSB18
 62
256
370
-1
 48
1.0
  6
BYLAYER
 10
-18.0000000000001954
 20
36.0000000000000284
 30
0.0
 11
-18.0000000000001954
 21
18.000000000000032
 31
0.0
  0
LINE
  5
B4
100
AcDbEntity
100
AcDbLine
  8
OSB18
 62
256
370
-1
 48
1.0
  6
BYLAYER
 10
818.0
 20
17.9999999999999325
 30
0.0
 11
818.0
 21
35.9999999999999289
 31
0.0
  0
HATCH
  5
B5
  8
OSB18
 62
256
370
-1
 48
1.0
  6
BYLAYER
100
AcDbEntity
100
AcDbHatch
 10
0.0
 20
0.0
 30
0.0
210
0.0
220
0.0
230
1.0
  2
ANSI33
 70
0
 71
0
 91
1
 92
1
 93
4
 72
1
 10
818.0
 20
17.9999999999999325
 11
-18.0000000000001954
 21
18.000000000000032
 72
1
 10
-18.0000000000001954
 20
18.000000000000032
 11
-18.0000000000001954
 21
36.0000000000000284
 72
1
 10
-18.0000000000001954
 20
36.0000000000000284
 11
818.0
 21
35.9999999999999289
 72
1
 10
818.0
 20
35.9999999999999289
 11
818.0
 21
17.9999999999999325
 97
0
 75
0
 76
1
 52
90.0
 41
10.0
 77
0
 78
1
 53
45.0
 43
0.0
 44
0.0
 45
-0.0883883476483184
 46
0.0883883476483185
 79
0
 98
0
1001
ACAD
1010
0.0
1020
0.0
1030
0
  0
HATCH
  5
B6
  8
OSB12
 62
256
370
-1
 48
1.0
  6
BYLAYER
100
AcDbEntity
100
AcDbHatch
 10
0.0
 20
0.0
 30
0.0
210
0.0
220
0.0
230
1.0
  2
SOLID
 70
1
 71
0
 91
1
 92
1
 93
4
 72
1
 10
396.0
 20
-0.0000000000000107
 11
396.0
 21
11.9999999999999893
 72
1
 10
396.0
 20
11.9999999999999893
 11
640.0
 21
11.9999999999999893
 72
1
 10
640.0
 20
11.9999999999999893
 11
640.0
 21
-0.0000000000000249
 72
1
 10
640.0
 20
-0.0000000000000249
 11
396.0
 21
-0.0000000000000107
 97
0
 75
0
 76
1
 98
0
1001
ACAD
1010
0.0
1020
0.0
1030
0
  0
LINE
  5
B7
100
AcDbEntity
100
AcDbLine
  8
0
 62
256
370
-1
 48
1.0
  6
BYLAYER
 10
800.0000000000001137
 20
1730.0
 30
0.0
 11
-0.00000000000009
 21
1730.0
 31
0.0
  0
LINE
  5
B8
100
AcDbEntity
100
AcDbLine
  8
OSB18
 62
256
370
-1
 48
1.0
  6
BYLAYER
 10
-17.9999999999998685
 20
994.0
 30
0.0
 11
0.0000000000000995
 21
994.0
 31
0.0
  0
LINE
  5
B9
100
AcDbEntity
100
AcDbLine
  8
OSB22
 62
256
370
-1
 48
1.0
  6
BYLAYER
 10
0.0
 20
2018.0
 30
0.0
 11
799.9999999999997726
 21
2018.0
 31
0.0
  0
LINE
  5
BA
100
AcDbEntity
100
AcDbLine
  8
OSB22
 62
256
370
-1
 48
1.0
  6
BYLAYER
 10
0.0000000000000013
 20
2040.0
 30
0.0
 11
799.9999999999997726
 21
2040.0
 31
0.0
  0
LINE
  5
BB
100
AcDbEntity
100
AcDbLine
  8
OSB22
 62
256
370
-1
 48
1.0
  6
BYLAYER
 10
0.0
 20
2018.0
 30
0.0
 11
0.0000000000000013
 21
2040.0
 31
0.0
  0
LINE
  5
BC
100
AcDbEntity
100
AcDbLine
  8
OSB22
 62
256
370
-1
 48
1.0
  6
BYLAYER
 10
799.9999999999997726
 20
2018.0
 30
0.0
 11
799.9999999999997726
 21
2040.0
 31
0.0
  0
LINE
  5
BD
100
AcDbEntity
100
AcDbLine
  8
Bac
 62
256
370
-1
 48
1.0
  6
BYLAYER
 10
0.0000000000000038
 20
2080.0
 30
0.0
 11
799.9999999999997726
 21
2080.0
 31
0.0
  0
LINE
  5
BE
100
AcDbEntity
100
AcDbLine
  8
Bac
 62
256
370
-1
 48
1.0
  6
BYLAYER
 10
0.0000000000000062
 20
2040.0
 30
0.0
 11
799.9999999999997726
 21
2040.0
 31
0.0
  0
LINE
  5
BF
100
AcDbEntity
100
AcDbLine
  8
Bac
 62
256
370
-1
 48
1.0
  6
BYLAYER
 10
0.0000000000000013
 20
2040.0
 30
0.0
 11
0.0000000000000038
 21
2080.0
 31
0.0
  0
LINE
  5
C0
100
AcDbEntity
100
AcDbLine
  8
Bac
 62
256
370
-1
 48
1.0
  6
BYLAYER
 10
799.9999999999997726
 20
2040.0
 30
0.0
 11
799.9999999999997726
 21
2080.0
 31
0.0
  0
LINE
  5
C1
100
AcDbEntity
100
AcDbLine
  8
OSB18
 62
256
370
-1
 48
1.0
  6
BYLAYER
 10
0.0000000000001586
 20
4590.0
 30
0.0
 11
799.9999999999998863
 21
4590.0
 31
0.0
  0
LINE
  5
C2
100
AcDbEntity
100
AcDbLine
  8
OSB18
 62
256
370
-1
 48
1.0
  6
BYLAYER
 10
0.0000000000003172
 20
2000.0
 30
0.0
 11
800.0
 21
2000.0
 31
0.0
  0
LINE
  5
C3
100
AcDbEntity
100
AcDbLine
  8
OSB18
 62
256
370
-1
 48
1.0
  6
BYLAYER
 10
0.0000000000003172
 20
2000.0
 30
0.0
 11
0.0000000000001586
 21
4590.0
 31
0.0
  0
LINE
  5
C4
100
AcDbEntity
100
AcDbLine
  8
OSB18
 62
256
370
-1
 48
1.0
  6
BYLAYER
 10
800.0
 20
2000.0
 30
0.0
 11
799.9999999999998863
 21
4590.0
 31
0.0
  0
LINE
  5
C5
100
AcDbEntity
100
AcDbLine
  8
OSB18
 62
256
370
-1
 48
1.0
  6
BYLAYER
 10
818.0
 20
2000.0
 30
0.0
 11
817.9999999999998863
 21
4590.0
 31
0.0
  0
LINE
  5
C6
100
AcDbEntity
100
AcDbLine
  8
OSB18
 62
256
370
-1
 48
1.0
  6
BYLAYER
 10
-2000.0
 20
2062.0
 30
0.0
 11
-2000.0
 21
4590.0
 31
0.0
  0
LINE
  5
C7
100
AcDbEntity
100
AcDbLine
  8
OSB18
 62
256
370
-1
 48
1.0
  6
BYLAYER
 10
-17.9999999999996838
 20
2000.0
 30
0.0
 11
-17.9999999999998401
 21
4590.0
 31
0.0
  0
LINE
  5
C8
100
AcDbEntity
100
AcDbLine
  8
OSB18
 62
256
370
-1
 48
1.0
  6
BYLAYER
 10
-17.9999999999996838
 20
2000.0
 30
0.0
 11
0.0000000000003172
 21
2000.0
 31
0.0
  0
LINE
  5
C9
100
AcDbEntity
100
AcDbLine
  8
OSB18
 62
256
370
-1
 48
1.0
  6
BYLAYER
 10
0.0000000000003172
 20
2000.0
 30
0.0
 11
800.0
 21
2000.0
 31
0.0
  0
LINE
  5
CA
100
AcDbEntity
100
AcDbLine
  8
OSB18
 62
256
370
-1
 48
1.0
  6
BYLAYER
 10
800.0
 20
2000.0
 30
0.0
 11
818.0
 21
2000.0
 31
0.0
  0
LINE
  5
CB
100
AcDbEntity
100
AcDbLine
  8
OSB18
 62
256
370
-1
 48
1.0
  6
BYLAYER
 10
-1164.0000000000002274
 20
2062.0
 30
0.0
 11
-1164.0000000000004547
 21
4590.0
 31
0.0
  0
LINE
  5
CC
100
AcDbEntity
100
AcDbLine
  8
OSB18
 62
256
370
-1
 48
1.0
  6
BYLAYER
 10
818.0
 20
2000.0
 30
0.0
 11
817.9999999999998863
 21
4590.0
 31
0.0
  0
LINE
  5
CD
100
AcDbEntity
100
AcDbLine
  8
OSB18
 62
256
370
-1
 48
1.0
  6
BYLAYER
 10
817.9999999999998863
 20
4590.0
 30
0.0
 11
799.9999999999998863
 21
4590.0
 31
0.0
  0
LINE
  5
CE
100
AcDbEntity
100
AcDbLine
  8
OSB18
 62
256
370
-1
 48
1.0
  6
BYLAYER
 10
-1164.0000000000004547
 20
4590.0
 30
0.0
 11
-2000.0
 21
4590.0
 31
0.0
  0
LINE
  5
CF
100
AcDbEntity
100
AcDbLine
  8
OSB18
 62
256
370
-1
 48
1.0
  6
BYLAYER
 10
799.9999999999998863
 20
4590.0
 30
0.0
 11
-17.9999999999998401
 21
4590.0
 31
0.0
  0
LINE
  5
D0
100
AcDbEntity
100
AcDbLine
  8
OSB18
 62
256
370
-1
 48
1.0
  6
BYLAYER
 10
-17.9999999999998401
 20
4590.0
 30
0.0
 11
0.0000000000001586
 21
4590.0
 31
0.0
  0
LINE
  5
D1
100
AcDbEntity
100
AcDbLine
  8
OSB18
 62
256
370
-1
 48
1.0
  6
BYLAYER
 10
-2000.0
 20
2062.0
 30
0.0
 11
-1164.0000000000004547
 21
2062.0
 31
0.0
  0
LINE
  5
D2
100
AcDbEntity
100
AcDbLine
  8
OSB18
 62
256
370
-1
 48
1.0
  6
BYLAYER
 10
-17.9999999999996874
 20
2062.0
 30
0.0
 11
817.9999999999998863
 21
2062.0
 31
0.0
  0
LINE
  5
D3
100
AcDbEntity
100
AcDbLine
  8
OSB22
 62
256
370
-1
 48
1.0
  6
BYLAYER
 10
-0.0000000000003918
 20
30.000000000000199
 30
0.0
 11
-0.0000000000000795
 21
1730.0
 31
0.0
  0
LINE
  5
D4
100
AcDbEntity
100
AcDbLine
  8
OSB22
 62
256
370
-1
 48
1.0
  6
BYLAYER
 10
-0.0000000000000795
 20
1730.0
 30
0.0
 11
800.0000000000001137
 21
1730.0
 31
0.0
  0
LINE
  5
D5
100
AcDbEntity
100
AcDbLine
  8
OSB22
 62
256
370
-1
 48
1.0
  6
BYLAYER
 10
800.0000000000001137
 20
1730.0
 30
0.0
 11
799.9999999999997726
 21
30.0000000000000995
 31
0.0
  0
LINE
  5
D6
100
AcDbEntity
100
AcDbLine
  8
OSB22
 62
256
370
-1
 48
1.0
  6
BYLAYER
 10
799.9999999999997726
 20
30.0000000000000995
 30
0.0
 11
-0.0000000000003918
 21
30.000000000000199
 31
0.0
  0
LINE
  5
D7
100
AcDbEntity
100
AcDbLine
  8
OSB18
 62
256
370
-1
 48
1.0
  6
BYLAYER
 10
2000.0
 20
2000.0
 30
0.0
 11
2000.0
 21
4590.0
 31
0.0
  0
LINE
  5
D8
100
AcDbEntity
100
AcDbLine
  8
OSB18
 62
256
370
-1
 48
1.0
  6
BYLAYER
 10
2018.0
 20
2000.0
 30
0.0
 11
2018.0
 21
4590.0
 31
0.0
  0
LINE
  5
D9
100
AcDbEntity
100
AcDbLine
  8
OSB18
 62
256
370
-1
 48
1.0
  6
BYLAYER
 10
2000.0
 20
2000.0
 30
0.0
 11
2018.0
 21
2000.0
 31
0.0
  0
LINE
  5
DA
100
AcDbEntity
100
AcDbLine
  8
OSB18
 62
256
370
-1
 48
1.0
  6
BYLAYER
 10
2018.0
 20
4590.0
 30
0.0
 11
2000.0
 21
4590.0
 31
0.0
  0
LINE
  5
DB
100
AcDbEntity
100
AcDbLine
  8
OSB18
 62
256
370
-1
 48
1.0
  6
BYLAYER
 10
2000.0
 20
4590.0
 30
0.0
 11
2018.0
 21
4590.0
 31
0.0
  0
LINE
  5
DC
100
AcDbEntity
100
AcDbLine
  8
OSB18
 62
256
370
-1
 48
1.0
  6
BYLAYER
 10
2036.0
 20
2062.0
 30
0.0
 11
2036.0
 21
4590.0
 31
0.0
  0
LINE
  5
DD
100
AcDbEntity
100
AcDbLine
  8
0
 62
256
370
-1
 48
1.0
  6
BYLAYER
 10
3730.0
 20
2000.0
 30
0.0
 11
3730.0
 21
4590.0
 31
0.0
  0
LINE
  5
DE
100
AcDbEntity
100
AcDbLine
  8
Bac
 62
256
370
-1
 48
1.0
  6
BYLAYER
 10
2036.0
 20
2022.0000000000002274
 30
0.0
 11
2036.0
 21
2062.0
 31
0.0
  0
LINE
  5
DF
100
AcDbEntity
100
AcDbLine
  8
Bac
 62
256
370
-1
 48
1.0
  6
BYLAYER
 10
2036.0
 20
2022.0000000000002274
 30
0.0
 11
3636.0
 21
2022.0
 31
0.0
  0
LINE
  5
E0
100
AcDbEntity
100
AcDbLine
  8
Bac
 62
256
370
-1
 48
1.0
  6
BYLAYER
 10
2036.0
 20
2062.0
 30
0.0
 11
3636.0
 21
2062.0
 31
0.0
  0
LINE
  5
E1
100
AcDbEntity
100
AcDbLine
  8
OSB22
 62
256
370
-1
 48
1.0
  6
BYLAYER
 10
2030.0
 20
2022.0000000000002274
 30
0.0
 11
3730.0
 21
2022.0
 31
0.0
  0
LINE
  5
E2
100
AcDbEntity
100
AcDbLine
  8
OSB22
 62
256
370
-1
 48
1.0
  6
BYLAYER
 10
2030.0
 20
2000.0000000000002274
 30
0.0
 11
3730.0
 21
2000.0
 31
0.0
  0
LINE
  5
E3
100
AcDbEntity
100
AcDbLine
  8
OSB22
 62
256
370
-1
 48
1.0
  6
BYLAYER
 10
2030.0
 20
2022.0000000000002274
 30
0.0
 11
2030.0
 21
2000.0000000000002274
 31
0.0
  0
LINE
  5
E4
100
AcDbEntity
100
AcDbLine
  8
OSB22
 62
256
370
-1
 48
1.0
  6
BYLAYER
 10
3730.0
 20
2022.0
 30
0.0
 11
3730.0
 21
2000.0
 31
0.0
  0
LINE
  5
E5
100
AcDbEntity
100
AcDbLine
  8
OSB18
 62
256
370
-1
 48
1.0
  6
BYLAYER
 10
2036.0
 20
2062.0
 30
0.0
 11
2018.0
 21
2062.0
 31
0.0
  0
LINE
  5
E6
100
AcDbEntity
100
AcDbLine
  8
OSB18
 62
256
370
-1
 48
1.0
  6
BYLAYER
 10
2018.0
 20
4590.0
 30
0.0
 11
2036.0
 21
4590.0
 31
0.0
  0
LINE
  5
E7
100
AcDbEntity
100
AcDbLine
  8
OSB18
 62
256
370
-1
 48
1.0
  6
BYLAYER
 10
3636.0
 20
2062.0
 30
0.0
 11
3636.0
 21
4590.0
 31
0.0
  0
LINE
  5
E8
100
AcDbEntity
100
AcDbLine
  8
OSB18
 62
256
370
-1
 48
1.0
  6
BYLAYER
 10
3654.0
 20
2062.0
 30
0.0
 11
3654.0
 21
4590.0
 31
0.0
  0
LINE
  5
E9
100
AcDbEntity
100
AcDbLine
  8
OSB18
 62
256
370
-1
 48
1.0
  6
BYLAYER
 10
3654.0
 20
2062.0
 30
0.0
 11
3636.0
 21
2062.0
 31
0.0
  0
LINE
  5
EA
100
AcDbEntity
100
AcDbLine
  8
OSB18
 62
256
370
-1
 48
1.0
  6
BYLAYER
 10
3636.0
 20
2062.0
 30
0.0
 11
3636.0
 21
4590.0
 31
0.0
  0
LINE
  5
EB
100
AcDbEntity
100
AcDbLine
  8
OSB18
 62
256
370
-1
 48
1.0
  6
BYLAYER
 10
3636.0
 20
4590.0
 30
0.0
 11
3654.0
 21
4590.0
 31
0.0
  0
LINE
  5
EC
100
AcDbEntity
100
AcDbLine
  8
0
 62
256
370
-1
 48
1.0
  6
BYLAYER
 10
799.9999999999995453
 20
0.0
 30
0.0
 11
-0.0000000000006055
 21
0.0
 31
0.0
  0
LINE
  5
ED
100
AcDbEntity
100
AcDbLine
  8
OSB18
 62
256
370
-1
 48
1.0
  6
BYLAYER
 10
799.9999999999998863
 20
1654.0
 30
0.0
 11
-54.9999999999998792
 21
1654.0
 31
0.0
  0
LINE
  5
EE
100
AcDbEntity
100
AcDbLine
  8
OSB18
 62
256
370
-1
 48
1.0
  6
BYLAYER
 10
799.9999999999998863
 20
1636.0
 30
0.0
 11
-54.9999999999998792
 21
1636.0
 31
0.0
  0
LINE
  5
EF
100
AcDbEntity
100
AcDbLine
  8
OSB18
 62
256
370
-1
 48
1.0
  6
BYLAYER
 10
-54.9999999999998792
 20
1654.0
 30
0.0
 11
-54.9999999999998792
 21
1636.0
 31
0.0
  0
LINE
  5
F0
100
AcDbEntity
100
AcDbLine
  8
OSB18
 62
256
370
-1
 48
1.0
  6
BYLAYER
 10
799.9999999999998863
 20
1654.0
 30
0.0
 11
799.9999999999997726
 21
1636.0
 31
0.0
  0
HATCH
  5
F1
  8
OSB18
 62
256
370
-1
 48
1.0
  6
BYLAYER
100
AcDbEntity
100
AcDbHatch
 10
0.0
 20
0.0
 30
0.0
210
0.0
220
0.0
230
1.0
  2
ANSI33
 70
0
 71
0
 91
1
 92
1
 93
4
 72
1
 10
799.9999999999998863
 20
1654.0
 11
-54.9999999999998792
 21
1654.0
 72
1
 10
-54.9999999999998792
 20
1654.0
 11
-54.9999999999998792
 21
1636.0
 72
1
 10
-54.9999999999998792
 20
1636.0
 11
799.9999999999998863
 21
1636.0
 72
1
 10
799.9999999999997726
 20
1636.0
 11
799.9999999999998863
 21
1654.0
 97
0
 75
0
 76
1
 52
0.0
 41
10.0
 77
0
 78
1
 53
45.0
 43
0.0
 44
0.0
 45
-0.0883883476483184
 46
0.0883883476483185
 79
0
 98
0
1001
ACAD
1010
0.0
1020
0.0
1030
0
  0
LINE
  5
F2
100
AcDbEntity
100
AcDbLine
  8
Vitre
 62
256
370
-1
 48
1.0
  6
BYLAYER
 10
-18.0000000000001954
 20
0.000000000000032
 30
0.0
 11
-78.0000000000001847
 21
0.000000000000032
 31
0.0
  0
LINE
  5
F3
100
AcDbEntity
100
AcDbLine
  8
Vitre
 62
256
370
-1
 48
1.0
  6
BYLAYER
 10
-18.000000000000135
 20
960.0
 30
0.0
 11
-77.9999999999999432
 21
960.0
 31
0.0
  0
LINE
  5
F4
100
AcDbEntity
100
AcDbLine
  8
Vitre
 62
256
370
-1
 48
1.0
  6
BYLAYER
 10
-17.9999999999999503
 20
960.0
 30
0.0
 11
-18.0000000000002061
 21
-0.0000000000000098
 31
0.0
  0
LINE
  5
F5
100
AcDbEntity
100
AcDbLine
  8
Vitre
 62
256
370
-1
 48
1.0
  6
BYLAYER
 10
-77.9999999999999432
 20
960.0
 30
0.0
 11
-78.000000000000199
 21
-0.0000000000000024
 31
0.0
  0
INSERT
  5
F6
100
AcDbEntity
100
AcDbBlockReference
  8
6x4 existant
 62
256
370
-1
 48
1.0
  6
BYLAYER
  2
Montant6x4
 10
-77.9999999999999574
 20
960.0
 30
0.0
  0
LINE
  5
F7
100
AcDbEntity
100
AcDbLine
  8
Fermacell13
 62
256
370
-1
 48
1.0
  6
BYLAYER
 10
-0.0000000000002056
 20
1007.0
 30
0.0
 11
-77.9999999999999432
 21
1007.0
 31
0.0
  0
LINE
  5
F8
100
AcDbEntity
100
AcDbLine
  8
Fermacell13
 62
256
370
-1
 48
1.0
  6
BYLAYER
 10
-77.9999999999999432
 20
1007.0
 30
0.0
 11
-77.9999999999999432
 21
994.0
 31
0.0
  0
LINE
  5
F9
100
AcDbEntity
100
AcDbLine
  8
Fermacell13
 62
256
370
-1
 48
1.0
  6
BYLAYER
 10
-77.9999999999999432
 20
994.0
 30
0.0
 11
13.0000000000000995
 21
994.0
 31
0.0
  0
LINE
  5
FA
100
AcDbEntity
100
AcDbLine
  8
Fermacell13
 62
256
370
-1
 48
1.0
  6
BYLAYER
 10
-0.0000000000002056
 20
1007.0
 30
0.0
 11
13.0000000000000995
 21
994.0
 31
0.0
  0
HATCH
  5
FB
  8
Fermacell13
 62
256
370
-1
 48
1.0
  6
BYLAYER
100
AcDbEntity
100
AcDbHatch
 10
0.0
 20
0.0
 30
0.0
210
0.0
220
0.0
230
1.0
  2
ANSI33
 70
0
 71
0
 91
1
 92
1
 93
4
 72
1
 10
-0.0000000000002056
 20
1007.0
 11
-77.9999999999999432
 21
1007.0
 72
1
 10
-77.9999999999999432
 20
1007.0
 11
-77.9999999999999432
 21
994.0
 72
1
 10
-77.9999999999999432
 20
994.0
 11
13.0000000000000995
 21
994.0
 72
1
 10
13.0000000000000995
 20
994.0
 11
-0.0000000000002056
 21
1007.0
 97
0
 75
0
 76
1
 52
0.0
 41
10.0
 77
0
 78
1
 53
45.0
 43
0.0
 44
0.0
 45
-0.0883883476483184
 46
0.0883883476483185
 79
0
 98
0
1001
ACAD
1010
0.0
1020
0.0
1030
0
  0
INSERT
  5
FC
100
AcDbEntity
100
AcDbBlockReference
  8
Fermacell13
 62
256
370
-1
 48
1.0
  6
BYLAYER
  2
Montant6x4
 10
800.0000000000001137
 20
1654.0
 30
0.0
  0
LINE
  5
FD
100
AcDbEntity
100
AcDbLine
  8
0
 62
256
370
-1
 48
1.0
  6
BYLAYER
 10
-54.9999999999998863
 20
1770.0
 30
0.0
 11
-54.9999999999998863
 21
1730.0
 31
0.0
  0
INSERT
  5
FE
100
AcDbEntity
100
AcDbBlockReference
  8
6x4 existant
 62
256
370
-1
 48
1.0
  6
BYLAYER
  2
Montant6x4
 10
-20.9999999999998792
 20
1654.0
 30
0.0
 50
90.0
  0
LINE
  5
FF
100
AcDbEntity
100
AcDbLine
  8
Fermacell13
 62
256
370
-1
 48
1.0
  6
BYLAYER
 10
787.0
 20
1623.0
 30
0.0
 11
-54.9999999999998792
 21
1623.0
 31
0.0
  0
LINE
  5
100
100
AcDbEntity
100
AcDbLine
  8
Fermacell13
 62
256
370
-1
 48
1.0
  6
BYLAYER
 10
787.0
 20
1636.0
 30
0.0
 11
-54.9999999999998792
 21
1636.0
 31
0.0
  0
LINE
  5
101
100
AcDbEntity
100
AcDbLine
  8
Fermacell13
 62
256
370
-1
 48
1.0
  6
BYLAYER
 10
787.0
 20
1623.0
 30
0.0
 11
787.0
 21
1636.0
 31
0.0
  0
HATCH
  5
102
  8
Fermacell13
 62
256
370
-1
 48
1.0
  6
BYLAYER
100
AcDbEntity
100
AcDbHatch
 10
0.0
 20
0.0
 30
0.0
210
0.0
220
0.0
230
1.0
  2
ANSI33
 70
0
 71
0
 91
1
 92
1
 93
4
 72
1
 10
787.0
 20
1636.0
 11
-54.9999999999998792
 21
1636.0
 72
1
 10
-54.9999999999998792
 20
1636.0
 11
-54.9999999999998792
 21
1623.0
 72
1
 10
-54.9999999999998792
 20
1623.0
 11
787.0
 21
1623.0
 72
1
 10
787.0
 20
1623.0
 11
787.0
 21
1636.0
 97
0
 75
0
 76
1
 52
0.0
 41
10.0
 77
0
 78
1
 53
45.0
 43
0.0
 44
0.0
 45
-0.0883883476483184
 46
0.0883883476483185
 79
0
 98
0
1001
ACAD
1010
0.0
1020
0.0
1030
0
  0
LINE
  5
103
100
AcDbEntity
100
AcDbLine
  8
Gobetis
 62
256
370
-1
 48
1.0
  6
BYLAYER
 10
787.0
 20
1618.0
 30
0.0
 11
-57.0710678118651913
 21
1618.0
 31
0.0
  0
LINE
  5
104
100
AcDbEntity
100
AcDbLine
  8
Tadelakt
 62
256
370
-1
 48
1.0
  6
BYLAYER
 10
782.0
 20
1615.0
 30
0.0
 11
-58.3137084989845107
 21
1615.0
 31
0.0
  0
LINE
  5
105
100
AcDbEntity
100
AcDbLine
  8
Tadelakt
 62
256
370
-1
 48
1.0
  6
BYLAYER
 10
782.0
 20
1618.0
 30
0.0
 11
-57.071067811865305
 21
1618.0
 31
0.0
  0
LINE
  5
106
100
AcDbEntity
100
AcDbLine
  8
0
 62
256
370
-1
 48
1.0
  6
BYLAYER
 10
-67.9999999999998863
 20
1730.0
 30
0.0
 11
-76.9276162597527957
 21
1730.0
 31
0.0
  0
LINE
  5
107
100
AcDbEntity
100
AcDbLine
  8
Tadelakt
 62
256
370
-1
 48
1.0
  6
BYLAYER
 10
782.0
 20
1618.0
 30
0.0
 11
782.0
 21
1615.0
 31
0.0
  0
LINE
  5
108
100
AcDbEntity
100
AcDbLine
  8
Gobetis
 62
256
370
-1
 48
1.0
  6
BYLAYER
 10
787.0
 20
1623.0
 30
0.0
 11
-54.9999999999998863
 21
1623.0
 31
0.0
  0
LINE
  5
109
100
AcDbEntity
100
AcDbLine
  8
Gobetis
 62
256
370
-1
 48
1.0
  6
BYLAYER
 10
787.0
 20
1623.0
 30
0.0
 11
787.0
 21
1618.0
 31
0.0
  0
LINE
  5
10A
100
AcDbEntity
100
AcDbLine
  8
Gobetis
 62
256
370
-1
 48
1.0
  6
BYLAYER
 10
2.0710678118652237
 20
1012.0
 30
0.0
 11
-77.9999999999999432
 21
1012.0
 31
0.0
  0
LINE
  5
10B
100
AcDbEntity
100
AcDbLine
  8
Gobetis
 62
256
370
-1
 48
1.0
  6
BYLAYER
 10
2.0710678118652242
 20
1012.0
 30
0.0
 11
18.0000000000000817
 21
996.0710678118655323
 31
0.0
  0
LINE
  5
10C
100
AcDbEntity
100
AcDbLine
  8
Tadelakt
 62
256
370
-1
 48
1.0
  6
BYLAYER
 10
3.3137084989844818
 20
1015.0
 30
0.0
 11
21.0000000000000746
 21
997.3137084989848518
 31
0.0
  0
LINE
  5
10D
100
AcDbEntity
100
AcDbLine
  8
Tadelakt
 62
256
370
-1
 48
1.0
  6
BYLAYER
 10
3.3137084989844818
 20
1015.0
 30
0.0
 11
-77.9999999999999432
 21
1015.0
 31
0.0
  0
LINE
  5
10E
100
AcDbEntity
100
AcDbLine
  8
Gobetis
 62
256
370
-1
 48
1.0
  6
BYLAYER
 10
-77.9999999999999432
 20
1012.0
 30
0.0
 11
-77.9999999999999432
 21
1007.0
 31
0.0
  0
LINE
  5
10F
100
AcDbEntity
100
AcDbLine
  8
Gobetis
 62
256
370
-1
 48
1.0
  6
BYLAYER
 10
-77.9999999999999432
 20
1007.0
 30
0.0
 11
-0.0000000000002056
 21
1007.0
 31
0.0
  0
LINE
  5
110
100
AcDbEntity
100
AcDbLine
  8
Gobetis
 62
256
370
-1
 48
1.0
  6
BYLAYER
 10
-0.0000000000002056
 20
1007.0
 30
0.0
 11
13.0000000000000995
 21
994.0
 31
0.0
  0
LINE
  5
111
100
AcDbEntity
100
AcDbLine
  8
Tadelakt
 62
256
370
-1
 48
1.0
  6
BYLAYER
 10
-77.9999999999999432
 20
1015.0
 30
0.0
 11
-77.9999999999999432
 21
1012.0
 31
0.0
  0
LINE
  5
112
100
AcDbEntity
100
AcDbLine
  8
Tadelakt
 62
256
370
-1
 48
1.0
  6
BYLAYER
 10
-77.9999999999999432
 20
1012.0
 30
0.0
 11
2.0710678118652242
 21
1012.0
 31
0.0
  0
LINE
  5
113
100
AcDbEntity
100
AcDbLine
  8
Tadelakt
 62
256
370
-1
 48
1.0
  6
BYLAYER
 10
2.0710678118652242
 20
1012.0
 30
0.0
 11
18.0000000000000995
 21
996.0710678118655323
 31
0.0
  0
LINE
  5
114
100
AcDbEntity
100
AcDbLine
  8
Tadelakt
 62
256
370
-1
 48
1.0
  6
BYLAYER
 10
18.0000000000000995
 20
996.0710678118655323
 30
0.0
 11
18.0000000000000995
 21
994.0
 31
0.0
  0
LINE
  5
115
100
AcDbEntity
100
AcDbLine
  8
Tadelakt
 62
256
370
-1
 48
1.0
  6
BYLAYER
 10
21.0000000000000746
 20
997.3137084989848518
 30
0.0
 11
21.0000000000000995
 21
994.0
 31
0.0
  0
HATCH
  5
116
  8
Tadelakt
 62
256
370
-1
 48
1.0
  6
BYLAYER
100
AcDbEntity
100
AcDbHatch
 10
0.0
 20
0.0
 30
0.0
210
0.0
220
0.0
230
1.0
  2
SOLID
 70
1
 71
0
 91
1
 92
1
 93
8
 72
1
 10
-77.9999999999999432
 20
1015.0
 11
-77.9999999999999432
 21
1012.0
 72
1
 10
-77.9999999999999432
 20
1012.0
 11
2.0710678118652242
 21
1012.0
 72
1
 10
2.0710678118652242
 20
1012.0
 11
18.0000000000000995
 21
996.0710678118655323
 72
1
 10
18.0000000000000995
 20
996.0710678118655323
 11
18.0000000000000995
 21
994.0
 72
1
 10
18.0000000000000995
 20
994.0
 11
21.0000000000000995
 21
994.0
 72
1
 10
21.0000000000000995
 20
994.0
 11
21.0000000000000746
 21
997.3137084989848518
 72
1
 10
21.0000000000000746
 20
997.3137084989848518
 11
3.3137084989844818
 21
1015.0
 72
1
 10
3.3137084989844818
 20
1015.0
 11
-77.9999999999999432
 21
1015.0
 97
0
 75
0
 76
1
 98
0
1001
ACAD
1010
0.0
1020
0.0
1030
0
  0
LINE
  5
117
100
AcDbEntity
100
AcDbLine
  8
Gobetis
 62
256
370
-1
 48
1.0
  6
BYLAYER
 10
18.0000000000000995
 20
996.0710678118655323
 30
0.0
 11
18.0000000000000995
 21
994.0
 31
0.0
  0
HATCH
  5
118
  8
Gobetis
 62
256
370
-1
 48
1.0
  6
BYLAYER
100
AcDbEntity
100
AcDbHatch
 10
0.0
 20
0.0
 30
0.0
210
0.0
220
0.0
230
1.0
  2
SOLID
 70
1
 71
0
 91
1
 92
1
 93
7
 72
1
 10
-77.9999999999999432
 20
1012.0
 11
-77.9999999999999432
 21
1007.0
 72
1
 10
-77.9999999999999432
 20
1007.0
 11
-0.0000000000002056
 21
1007.0
 72
1
 10
-0.0000000000002056
 20
1007.0
 11
13.0000000000000995
 21
994.0
 72
1
 10
13.0000000000000995
 20
994.0
 11
18.0000000000000995
 21
994.0
 72
1
 10
18.0000000000000995
 20
994.0
 11
18.0000000000000995
 21
996.0710678118655323
 72
1
 10
18.0000000000000817
 20
996.0710678118655323
 11
2.0710678118652242
 21
1012.0
 72
1
 10
2.0710678118652237
 20
1012.0
 11
-77.9999999999999432
 21
1012.0
 97
0
 75
0
 76
1
 98
0
1001
ACAD
1010
0.0
1020
0.0
1030
0
  0
LINE
  5
119
100
AcDbEntity
100
AcDbLine
  8
Fermacell13
 62
256
370
-1
 48
1.0
  6
BYLAYER
 10
-67.9999999999998863
 20
1654.0
 30
0.0
 11
-67.9999999999998863
 21
1636.0
 31
0.0
  0
LINE
  5
11A
100
AcDbEntity
100
AcDbLine
  8
Fermacell13
 62
256
370
-1
 48
1.0
  6
BYLAYER
 10
-54.9999999999998863
 20
1654.0
 30
0.0
 11
-54.9999999999998863
 21
1636.0
 31
0.0
  0
LINE
  5
11B
100
AcDbEntity
100
AcDbLine
  8
Fermacell13
 62
256
370
-1
 48
1.0
  6
BYLAYER
 10
-67.9999999999998863
 20
1636.0
 30
0.0
 11
-54.9999999999998792
 21
1623.0
 31
0.0
  0
LINE
  5
11C
100
AcDbEntity
100
AcDbLine
  8
Fermacell13
 62
256
370
-1
 48
1.0
  6
BYLAYER
 10
-67.9999999999998863
 20
1654.0
 30
0.0
 11
-54.9999999999998863
 21
1654.0
 31
0.0
  0
LINE
  5
11D
100
AcDbEntity
100
AcDbLine
  8
Fermacell13
 62
256
370
-1
 48
1.0
  6
BYLAYER
 10
-54.9999999999998863
 20
1636.0
 30
0.0
 11
-54.9999999999998792
 21
1623.0
 31
0.0
  0
HATCH
  5
11E
  8
Fermacell13
 62
256
370
-1
 48
1.0
  6
BYLAYER
100
AcDbEntity
100
AcDbHatch
 10
0.0
 20
0.0
 30
0.0
210
0.0
220
0.0
230
1.0
  2
ANSI33
 70
0
 71
0
 91
1
 92
1
 93
5
 72
1
 10
-67.9999999999998863
 20
1654.0
 11
-67.9999999999998863
 21
1636.0
 72
1
 10
-67.9999999999998863
 20
1636.0
 11
-54.9999999999998792
 21
1623.0
 72
1
 10
-54.9999999999998792
 20
1623.0
 11
-54.9999999999998863
 21
1636.0
 72
1
 10
-54.9999999999998863
 20
1636.0
 11
-54.9999999999998863
 21
1654.0
 72
1
 10
-54.9999999999998863
 20
1654.0
 11
-67.9999999999998863
 21
1654.0
 97
0
 75
0
 76
1
 52
0.0
 41
10.0
 77
0
 78
1
 53
45.0
 43
0.0
 44
0.0
 45
-0.0883883476483184
 46
0.0883883476483185
 79
0
 98
0
1001
ACAD
1010
0.0
1020
0.0
1030
0
  0
LINE
  5
11F
100
AcDbEntity
100
AcDbLine
  8
Gobetis
 62
256
370
-1
 48
1.0
  6
BYLAYER
 10
-72.9999999999999289
 20
1633.928932188134695
 30
0.0
 11
-57.0710678118652694
 21
1618.0
 31
0.0
  0
LINE
  5
120
100
AcDbEntity
100
AcDbLine
  8
Gobetis
 62
256
370
-1
 48
1.0
  6
BYLAYER
 10
-72.9999999999998863
 20
1654.0
 30
0.0
 11
-72.9999999999998863
 21
1633.928932188134695
 31
0.0
  0
LINE
  5
121
100
AcDbEntity
100
AcDbLine
  8
Gobetis
 62
256
370
-1
 48
1.0
  6
BYLAYER
 10
-72.9999999999998863
 20
1654.0
 30
0.0
 11
-67.9999999999998863
 21
1654.0
 31
0.0
  0
LINE
  5
122
100
AcDbEntity
100
AcDbLine
  8
Gobetis
 62
256
370
-1
 48
1.0
  6
BYLAYER
 10
-67.9999999999998863
 20
1654.0
 30
0.0
 11
-67.9999999999998863
 21
1636.0
 31
0.0
  0
LINE
  5
123
100
AcDbEntity
100
AcDbLine
  8
Gobetis
 62
256
370
-1
 48
1.0
  6
BYLAYER
 10
-67.9999999999998863
 20
1636.0
 30
0.0
 11
-54.9999999999998792
 21
1623.0
 31
0.0
  0
HATCH
  5
124
  8
Gobetis
 62
256
370
-1
 48
1.0
  6
BYLAYER
100
AcDbEntity
100
AcDbHatch
 10
0.0
 20
0.0
 30
0.0
210
0.0
220
0.0
230
1.0
  2
SOLID
 70
1
 71
0
 91
1
 92
1
 93
8
 72
1
 10
787.0
 20
1618.0
 11
-57.0710678118651913
 21
1618.0
 72
1
 10
-57.0710678118652694
 20
1618.0
 11
-72.9999999999999289
 21
1633.928932188134695
 72
1
 10
-72.9999999999998863
 20
1633.928932188134695
 11
-72.9999999999998863
 21
1654.0
 72
1
 10
-72.9999999999998863
 20
1654.0
 11
-67.9999999999998863
 21
1654.0
 72
1
 10
-67.9999999999998863
 20
1654.0
 11
-67.9999999999998863
 21
1636.0
 72
1
 10
-67.9999999999998863
 20
1636.0
 11
-54.9999999999998792
 21
1623.0
 72
1
 10
-54.9999999999998863
 20
1623.0
 11
787.0
 21
1623.0
 72
1
 10
787.0
 20
1623.0
 11
787.0
 21
1618.0
 97
0
 75
0
 76
1
 98
0
1001
ACAD
1010
0.0
1020
0.0
1030
0
  0
LINE
  5
125
100
AcDbEntity
100
AcDbLine
  8
Tadelakt
 62
256
370
-1
 48
1.0
  6
BYLAYER
 10
-75.9999999999998437
 20
1632.6862915010153756
 30
0.0
 11
-58.313708498984461
 21
1615.0
 31
0.0
  0
LINE
  5
126
100
AcDbEntity
100
AcDbLine
  8
Tadelakt
 62
256
370
-1
 48
1.0
  6
BYLAYER
 10
-75.9999999999998863
 20
1654.0
 30
0.0
 11
-75.9999999999998863
 21
1632.6862915010153756
 31
0.0
  0
LINE
  5
127
100
AcDbEntity
100
AcDbLine
  8
Tadelakt
 62
256
370
-1
 48
1.0
  6
BYLAYER
 10
-75.9999999999998863
 20
1654.0
 30
0.0
 11
-72.9999999999998863
 21
1654.0
 31
0.0
  0
LINE
  5
128
100
AcDbEntity
100
AcDbLine
  8
Tadelakt
 62
256
370
-1
 48
1.0
  6
BYLAYER
 10
-72.9999999999998863
 20
1654.0
 30
0.0
 11
-72.9999999999999289
 21
1633.928932188134695
 31
0.0
  0
LINE
  5
129
100
AcDbEntity
100
AcDbLine
  8
Tadelakt
 62
256
370
-1
 48
1.0
  6
BYLAYER
 10
-72.9999999999999289
 20
1633.928932188134695
 30
0.0
 11
-57.0710678118652694
 21
1618.0
 31
0.0
  0
HATCH
  5
12A
  8
Tadelakt
 62
256
370
-1
 48
1.0
  6
BYLAYER
100
AcDbEntity
100
AcDbHatch
 10
0.0
 20
0.0
 30
0.0
210
0.0
220
0.0
230
1.0
  2
SOLID
 70
1
 71
0
 91
1
 92
1
 93
8
 72
1
 10
-75.9999999999998863
 20
1654.0
 11
-75.9999999999998863
 21
1632.6862915010153756
 72
1
 10
-75.9999999999998437
 20
1632.6862915010153756
 11
-58.313708498984461
 21
1615.0
 72
1
 10
-58.3137084989845107
 20
1615.0
 11
782.0
 21
1615.0
 72
1
 10
782.0
 20
1615.0
 11
782.0
 21
1618.0
 72
1
 10
782.0
 20
1618.0
 11
-57.071067811865305
 21
1618.0
 72
1
 10
-57.0710678118652694
 20
1618.0
 11
-72.9999999999999289
 21
1633.928932188134695
 72
1
 10
-72.9999999999999289
 20
1633.928932188134695
 11
-72.9999999999998863
 21
1654.0
 72
1
 10
-72.9999999999998863
 20
1654.0
 11
-75.9999999999998863
 21
1654.0
 97
0
 75
0
 76
1
 98
0
1001
ACAD
1010
0.0
1020
0.0
1030
0
  0
LINE
  5
12B
100
AcDbEntity
100
AcDbLine
  8
Bac
 62
256
370
-1
 48
1.0
  6
BYLAYER
 10
3636.0
 20
2022.0000000000002274
 30
0.0
 11
3636.0
 21
2062.0
 31
0.0
  0
INSERT
  5
12C
100
AcDbEntity
100
AcDbBlockReference
  8
6x4 existant
 62
256
370
-1
 48
1.0
  6
BYLAYER
  2
Montant6x4
 10
818.0
 20
-0.0000000000000675
 30
0.0
 41
1.0
 42
-1.0
 43
1.0
 50
270.0
  0
LINE
  5
12D
100
AcDbEntity
100
AcDbLine
  8
0
 62
256
370
-1
 48
1.0
  6
BYLAYER
 10
388.0
 20
-59.9999999999998366
 30
0.0
 11
388.0
 21
-0.0000000000000148
 31
0.0
  0
LINE
  5
12E
100
AcDbEntity
100
AcDbLine
  8
0
 62
256
370
-1
 48
1.0
  6
BYLAYER
 10
-72.0
 20
-59.9999999999997797
 30
0.0
 11
-72.0
 21
0.0000000000000415
 31
0.0
  0
INSERT
  5
12F
100
AcDbEntity
100
AcDbBlockReference
  8
6x4 existant
 62
256
370
-1
 48
1.0
  6
BYLAYER
  2
Montant6x4
 10
388.0
 20
-0.0000000000000148
 30
0.0
 41
1.0
 42
-1.0
 43
1.0
 50
270.0
  0
INSERT
  5
130
100
AcDbEntity
100
AcDbBlockReference
  8
6x4 existant
 62
256
370
-1
 48
1.0
  6
BYLAYER
  2
Montant6x4
 10
-72.0
 20
0.0000000000000415
 30
0.0
 41
1.0
 42
-1.0
 43
1.0
 50
270.0
  0
LINE
  5
131
100
AcDbEntity
100
AcDbLine
  8
6x4 \U+00e0 poser
 62
256
370
-1
 48
1.0
  6
BYLAYER
 10
-18.0000000000002025
 20
-39.9999999999999858
 30
0.0
 11
-18.0000000000002025
 21
0.0000000000000415
 31
0.0
  0
LINE
  5
132
100
AcDbEntity
100
AcDbLine
  8
6x4 \U+00e0 poser
 62
256
370
-1
 48
1.0
  6
BYLAYER
 10
15.9999999999997975
 20
-39.9999999999999858
 30
0.0
 11
15.9999999999997975
 21
0.0000000000000415
 31
0.0
  0
LINE
  5
133
100
AcDbEntity
100
AcDbLine
  8
6x4 \U+00e0 poser
 62
256
370
-1
 48
1.0
  6
BYLAYER
 10
-18.0000000000002061
 20
-0.0000000000000098
 30
0.0
 11
15.9999999999997975
 21
0.0000000000000415
 31
0.0
  0
LINE
  5
134
100
AcDbEntity
100
AcDbLine
  8
6x4 \U+00e0 poser
 62
256
370
-1
 48
1.0
  6
BYLAYER
 10
15.9999999999997975
 20
0.0000000000000415
 30
0.0
 11
-18.0000000000002025
 21
-39.9999999999999858
 31
0.0
  0
LINE
  5
135
100
AcDbEntity
100
AcDbLine
  8
6x4 \U+00e0 poser
 62
256
370
-1
 48
1.0
  6
BYLAYER
 10
15.9999999999997975
 20
-39.9999999999999858
 30
0.0
 11
-18.0000000000002025
 21
0.0000000000000415
 31
0.0
  0
LINE
  5
136
100
AcDbEntity
100
AcDbLine
  8
OSB18
 62
256
370
-1
 48
1.0
  6
BYLAYER
 10
15.9999999999998046
 20
18.0000000000000249
 30
0.0
 11
15.9999999999998046
 21
0.0000000000000237
 31
0.0
  0
LINE
  5
137
100
AcDbEntity
100
AcDbLine
  8
OSB18
 62
256
370
-1
 48
1.0
  6
BYLAYER
 10
388.0
 20
-0.0000000000000148
 30
0.0
 11
388.0
 21
17.9999999999999858
 31
0.0
  0
LINE
  5
138
100
AcDbEntity
100
AcDbLine
  8
OSB18
 62
256
370
-1
 48
1.0
  6
BYLAYER
 10
784.0
 20
-0.0000000000000633
 30
0.0
 11
784.0
 21
17.9999999999999361
 31
0.0
  0
LINE
  5
139
100
AcDbEntity
100
AcDbLine
  8
OSB18
 62
256
370
-1
 48
1.0
  6
BYLAYER
 10
354.0
 20
-0.0000000000000107
 30
0.0
 11
354.0
 21
17.9999999999999893
 31
0.0
  0
LINE
  5
13A
100
AcDbEntity
100
AcDbLine
  8
OSB18
 62
256
370
-1
 48
1.0
  6
BYLAYER
 10
-18.0000000000001954
 20
18.000000000000032
 30
0.0
 11
15.9999999999998046
 21
18.0000000000000249
 31
0.0
  0
LINE
  5
13B
100
AcDbEntity
100
AcDbLine
  8
OSB18
 62
256
370
-1
 48
1.0
  6
BYLAYER
 10
354.0
 20
17.9999999999999893
 30
0.0
 11
388.0
 21
17.9999999999999858
 31
0.0
  0
LINE
  5
13C
100
AcDbEntity
100
AcDbLine
  8
OSB18
 62
256
370
-1
 48
1.0
  6
BYLAYER
 10
784.0
 20
17.9999999999999361
 30
0.0
 11
818.0
 21
17.9999999999999325
 31
0.0
  0
HATCH
  5
13D
  8
OSB18
 62
256
370
-1
 48
1.0
  6
BYLAYER
100
AcDbEntity
100
AcDbHatch
 10
0.0
 20
0.0
 30
0.0
210
0.0
220
0.0
230
1.0
  2
ANSI33
 70
0
 71
0
 91
1
 92
1
 93
4
 72
1
 10
818.0
 20
-0.0000000000000675
 11
784.0
 21
-0.0000000000000635
 72
1
 10
784.0
 20
-0.0000000000000633
 11
784.0
 21
17.9999999999999361
 72
1
 10
784.0
 20
17.9999999999999361
 11
818.0
 21
17.9999999999999325
 72
1
 10
818.0
 20
17.9999999999999325
 11
818.0
 21
-0.0000000000000675
 97
0
 75
0
 76
1
 52
0.0
 41
10.0
 77
0
 78
1
 53
45.0
 43
0.0
 44
0.0
 45
-0.0883883476483184
 46
0.0883883476483185
 79
0
 98
0
1001
ACAD
1010
0.0
1020
0.0
1030
0
  0
HATCH
  5
13E
  8
OSB18
 62
256
370
-1
 48
1.0
  6
BYLAYER
100
AcDbEntity
100
AcDbHatch
 10
0.0
 20
0.0
 30
0.0
210
0.0
220
0.0
230
1.0
  2
ANSI33
 70
0
 71
0
 91
1
 92
1
 93
4
 72
1
 10
354.0
 20
-0.0000000000000107
 11
354.0
 21
17.9999999999999893
 72
1
 10
354.0
 20
17.9999999999999893
 11
388.0
 21
17.9999999999999858
 72
1
 10
388.0
 20
17.9999999999999858
 11
388.0
 21
-0.0000000000000148
 72
1
 10
388.0
 20
-0.0000000000000163
 11
354.0
 21
-0.0000000000000123
 97
0
 75
0
 76
1
 52
0.0
 41
10.0
 77
0
 78
1
 53
45.0
 43
0.0
 44
0.0
 45
-0.0883883476483184
 46
0.0883883476483185
 79
0
 98
0
1001
ACAD
1010
0.0
1020
0.0
1030
0
  0
HATCH
  5
13F
  8
OSB18
 62
256
370
-1
 48
1.0
  6
BYLAYER
100
AcDbEntity
100
AcDbHatch
 10
0.0
 20
0.0
 30
0.0
210
0.0
220
0.0
230
1.0
  2
ANSI33
 70
0
 71
0
 91
1
 92
1
 93
4
 72
1
 10
-18.0000000000001954
 20
18.000000000000032
 11
15.9999999999998046
 21
18.0000000000000249
 72
1
 10
15.9999999999998046
 20
18.0000000000000249
 11
15.9999999999998046
 21
0.0000000000000237
 72
1
 10
15.9999999999997726
 20
0.000000000000028
 11
-18.0000000000001954
 21
0.000000000000032
 72
1
 10
-18.0000000000001954
 20
0.000000000000032
 11
-18.0000000000001954
 21
18.000000000000032
 97
0
 75
0
 76
1
 52
0.0
 41
10.0
 77
0
 78
1
 53
45.0
 43
0.0
 44
0.0
 45
-0.0883883476483184
 46
0.0883883476483185
 79
0
 98
0
1001
ACAD
1010
0.0
1020
0.0
1030
0
  0
LINE
  5
140
100
AcDbEntity
100
AcDbLine
  8
0
 62
256
370
-1
 48
1.0
  6
BYLAYER
 10
518.0
 20
-0.0000000000000308
 30
0.0
 11
518.0
 21
17.999999999999968
 31
0.0
  0
LINE
  5
141
100
AcDbEntity
100
AcDbLine
  8
0
 62
256
370
-1
 48
1.0
  6
BYLAYER
 10
418.0
 20
-0.0000000000000185
 30
0.0
 11
418.0
 21
17.9999999999999787
 31
0.0
  0
LINE
  5
142
100
AcDbEntity
100
AcDbLine
  8
0
 62
256
370
-1
 48
1.0
  6
BYLAYER
 10
618.0
 20
-0.0000000000000308
 30
0.0
 11
618.0
 21
17.999999999999968
 31
0.0
  0
LINE
  5
143
100
AcDbEntity
100
AcDbLine
  8
6x4 \U+00e0 poser
 62
256
370
-1
 48
1.0
  6
BYLAYER
 10
-18.0000000000002025
 20
-40.0000000000000071
 30
0.0
 11
15.9999999999997993
 21
-39.9999999999999574
 31
0.0
  0
LINE
  5
144
100
AcDbEntity
100
AcDbLine
  8
6x4 \U+00e0 poser
 62
256
370
-1
 48
1.0
  6
BYLAYER
 10
388.0
 20
-0.0000000000000163
 30
0.0
 11
784.0
 21
-0.0000000000000633
 31
0.0
  0
LINE
  5
145
100
AcDbEntity
100
AcDbLine
  8
6x4 \U+00e0 poser
 62
256
370
-1
 48
1.0
  6
BYLAYER
 10
388.0
 20
-40.0000000000000142
 30
0.0
 11
784.0
 21
-40.0000000000000639
 31
0.0
  0
LINE
  5
146
100
AcDbEntity
100
AcDbLine
  8
6x4 \U+00e0 poser
 62
256
370
-1
 48
1.0
  6
BYLAYER
 10
388.0
 20
-0.0000000000000163
 30
0.0
 11
388.0
 21
-40.0000000000000142
 31
0.0
  0
LINE
  5
147
100
AcDbEntity
100
AcDbLine
  8
6x4 \U+00e0 poser
 62
256
370
-1
 48
1.0
  6
BYLAYER
 10
784.0
 20
-40.0000000000000639
 30
0.0
 11
784.0
 21
-0.0000000000000633
 31
0.0
  0
LINE
  5
148
100
AcDbEntity
100
AcDbLine
  8
6x4 \U+00e0 poser
 62
256
370
-1
 48
1.0
  6
BYLAYER
 10
-18.0000000000002025
 20
-39.9999999999999858
 30
0.0
 11
-72.0
 21
-39.9999999999999858
 31
0.0
  0
LINE
  5
149
100
AcDbEntity
100
AcDbLine
  8
6x4 \U+00e0 poser
 62
256
370
-1
 48
1.0
  6
BYLAYER
 10
-72.0
 20
-39.9999999999999858
 30
0.0
 11
-72.0
 21
0.0000000000000415
 31
0.0
  0
LINE
  5
14A
100
AcDbEntity
100
AcDbLine
  8
6x4 \U+00e0 poser
 62
256
370
-1
 48
1.0
  6
BYLAYER
 10
-72.0
 20
0.0000000000000415
 30
0.0
 11
-18.0000000000002061
 21
0.0000000000000415
 31
0.0
  0
LINE
  5
14B
100
AcDbEntity
100
AcDbLine
  8
6x4 \U+00e0 poser
 62
256
370
-1
 48
1.0
  6
BYLAYER
 10
-18.0000000000002061
 20
0.0000000000000415
 30
0.0
 11
-18.0000000000002025
 21
-39.9999999999999858
 31
0.0
  0
RAY
  5
14C
100
AcDbEntity
100
AcDbLine
  8
0
 62
256
370
-1
 48
1.0
  6
BYLAYER
 10
-106.0000000000000284
 20
2000.0
 30
0.0
 11
0.0
 21
1.0
 31
0.0
  0
RAY
  5
14D
100
AcDbEntity
100
AcDbLine
  8
0
 62
256
370
-1
 48
1.0
  6
BYLAYER
 10
354.0
 20
2000.0
 30
0.0
 11
0.0
 21
1.0
 31
0.0
  0
RAY
  5
14E
100
AcDbEntity
100
AcDbLine
  8
0
 62
256
370
-1
 48
1.0
  6
BYLAYER
 10
784.0
 20
2000.0
 30
0.0
 11
0.0
 21
1.0
 31
0.0
  0
RAY
  5
14F
100
AcDbEntity
100
AcDbLine
  8
0
 62
256
370
-1
 48
1.0
  6
BYLAYER
 10
-18.0000000000002025
 20
2000.0
 30
0.0
 11
0.0
 21
1.0
 31
0.0
  0
LINE
  5
150
100
AcDbEntity
100
AcDbLine
  8
6x4 existant
 62
256
370
-1
 48
1.0
  6
BYLAYER
 10
388.0
 20
2022.0
 30
0.0
 11
388.0
 21
4822.0
 31
0.0
  0
LINE
  5
151
100
AcDbEntity
100
AcDbLine
  8
6x4 existant
 62
256
370
-1
 48
1.0
  6
BYLAYER
 10
388.0
 20
2000.0
 30
0.0
 11
388.0
 21
2000.0
 31
0.0
  0
LINE
  5
152
100
AcDbEntity
100
AcDbLine
  8
6x4 existant
 62
256
370
-1
 48
1.0
  6
BYLAYER
 10
818.0
 20
2022.0
 30
0.0
 11
818.0
 21
4822.0
 31
0.0
  0
LINE
  5
153
100
AcDbEntity
100
AcDbLine
  8
6x4 existant
 62
256
370
-1
 48
1.0
  6
BYLAYER
 10
818.0
 20
2000.0
 30
0.0
 11
818.0
 21
2000.0
 31
0.0
  0
LINE
  5
154
100
AcDbEntity
100
AcDbLine
  8
6x4 existant
 62
256
370
-1
 48
1.0
  6
BYLAYER
 10
-72.0000000000000284
 20
2022.0
 30
0.0
 11
-72.0000000000000284
 21
4822.0
 31
0.0
  0
LINE
  5
155
100
AcDbEntity
100
AcDbLine
  8
6x4 existant
 62
256
370
-1
 48
1.0
  6
BYLAYER
 10
-72.0000000000000284
 20
2000.0
 30
0.0
 11
-72.0000000000000284
 21
2000.0
 31
0.0
  0
LINE
  5
156
100
AcDbEntity
100
AcDbLine
  8
6x4 \U+00e0 poser
 62
256
370
-1
 48
1.0
  6
BYLAYER
 10
16.0000000000002061
 20
3811.0
 30
0.0
 11
16.0000000000001457
 21
4822.0
 31
0.0
  0
LINE
  5
157
100
AcDbEntity
100
AcDbLine
  8
6x4 \U+00e0 poser
 62
256
370
-1
 48
1.0
  6
BYLAYER
 10
16.00000000000027
 20
2756.0
 30
0.0
 11
16.0000000000002096
 21
3777.0
 31
0.0
  0
LINE
  5
158
100
AcDbEntity
100
AcDbLine
  8
6x4 \U+00e0 poser
 62
256
370
-1
 48
1.0
  6
BYLAYER
 10
16.0000000000003162
 20
2022.0
 30
0.0
 11
16.0000000000002736
 21
2722.0
 31
0.0
  0
LINE
  5
159
100
AcDbEntity
100
AcDbLine
  8
6x4 \U+00e0 poser
 62
256
370
-1
 48
1.0
  6
BYLAYER
 10
16.0000000000003162
 20
2022.0
 30
0.0
 11
-17.9999999999996874
 21
2022.0
 31
0.0
  0
LINE
  5
15A
100
AcDbEntity
100
AcDbLine
  8
6x4 existant
 62
256
370
-1
 48
1.0
  6
BYLAYER
 10
-72.0
 20
2022.0
 30
0.0
 11
-106.0
 21
2022.0
 31
0.0
  0
LINE
  5
15B
100
AcDbEntity
100
AcDbLine
  8
6x4 existant
 62
256
370
-1
 48
1.0
  6
BYLAYER
 10
388.0
 20
2022.0
 30
0.0
 11
354.0
 21
2022.0
 31
0.0
  0
LINE
  5
15C
100
AcDbEntity
100
AcDbLine
  8
6x4 existant
 62
256
370
-1
 48
1.0
  6
BYLAYER
 10
784.0
 20
2022.0
 30
0.0
 11
818.0
 21
2022.0
 31
0.0
  0
LINE
  5
15D
100
AcDbEntity
100
AcDbLine
  8
6x4 \U+00e0 poser
 62
256
370
-1
 48
1.0
  6
BYLAYER
 10
16.0000000000004867
 20
4822.0
 30
0.0
 11
-17.9999999999995168
 21
4822.0
 31
0.0
  0
LINE
  5
15E
100
AcDbEntity
100
AcDbLine
  8
6x4 existant
 62
256
370
-1
 48
1.0
  6
BYLAYER
 10
-71.9999999999998295
 20
4822.0
 30
0.0
 11
-105.9999999999998295
 21
4822.0
 31
0.0
  0
LINE
  5
15F
100
AcDbEntity
100
AcDbLine
  8
6x4 existant
 62
256
370
-1
 48
1.0
  6
BYLAYER
 10
388.0000000000001705
 20
4822.0
 30
0.0
 11
354.0000000000001705
 21
4822.0
 31
0.0
  0
LINE
  5
160
100
AcDbEntity
100
AcDbLine
  8
6x4 existant
 62
256
370
-1
 48
1.0
  6
BYLAYER
 10
784.0000000000002274
 20
4822.0
 30
0.0
 11
818.0000000000002274
 21
4822.0
 31
0.0
  0
LINE
  5
161
100
AcDbEntity
100
AcDbLine
  8
6x4 existant
 62
256
370
-1
 48
1.0
  6
BYLAYER
 10
-106.0000000000000284
 20
2022.0
 30
0.0
 11
-106.0000000000000284
 21
4822.0
 31
0.0
  0
LINE
  5
162
100
AcDbEntity
100
AcDbLine
  8
6x4 existant
 62
256
370
-1
 48
1.0
  6
BYLAYER
 10
354.0
 20
2022.0
 30
0.0
 11
354.0
 21
4822.0
 31
0.0
  0
LINE
  5
163
100
AcDbEntity
100
AcDbLine
  8
6x4 existant
 62
256
370
-1
 48
1.0
  6
BYLAYER
 10
784.0
 20
2022.0
 30
0.0
 11
784.0
 21
4822.0
 31
0.0
  0
LINE
  5
164
100
AcDbEntity
100
AcDbLine
  8
6x4 \U+00e0 poser
 62
256
370
-1
 48
1.0
  6
BYLAYER
 10
-17.9999999999997939
 20
3811.0
 30
0.0
 11
-17.9999999999998543
 21
4822.0
 31
0.0
  0
LINE
  5
165
100
AcDbEntity
100
AcDbLine
  8
6x4 \U+00e0 poser
 62
256
370
-1
 48
1.0
  6
BYLAYER
 10
-17.99999999999973
 20
2756.0
 30
0.0
 11
-17.9999999999997904
 21
3777.0
 31
0.0
  0
LINE
  5
166
100
AcDbEntity
100
AcDbLine
  8
6x4 \U+00e0 poser
 62
256
370
-1
 48
1.0
  6
BYLAYER
 10
-17.9999999999996838
 20
2022.0
 30
0.0
 11
-17.9999999999997264
 21
2722.0
 31
0.0
  0
LINE
  5
167
100
AcDbEntity
100
AcDbLine
  8
6x4 existant
 62
256
370
-1
 48
1.0
  6
BYLAYER
 10
784.0
 20
2722.0
 30
0.0
 11
799.9999999999997726
 21
2722.0
 31
0.0
  0
LINE
  5
168
100
AcDbEntity
100
AcDbLine
  8
6x4 existant
 62
256
370
-1
 48
1.0
  6
BYLAYER
 10
-72.0000000000000284
 20
2722.0
 30
0.0
 11
354.0
 21
2722.0
 31
0.0
  0
LINE
  5
169
100
AcDbEntity
100
AcDbLine
  8
6x4 existant
 62
256
370
-1
 48
1.0
  6
BYLAYER
 10
784.0
 20
3777.0
 30
0.0
 11
799.9999999999998863
 21
3777.0
 31
0.0
  0
LINE
  5
16A
100
AcDbEntity
100
AcDbLine
  8
6x4 existant
 62
256
370
-1
 48
1.0
  6
BYLAYER
 10
-72.0000000000000284
 20
3777.0
 30
0.0
 11
354.0
 21
3777.0
 31
0.0
  0
LINE
  5
16B
100
AcDbEntity
100
AcDbLine
  8
6x4 existant
 62
256
370
-1
 48
1.0
  6
BYLAYER
 10
388.0
 20
2792.0
 30
0.0
 11
799.9999999999997726
 21
2792.0
 31
0.0
  0
LINE
  5
16C
100
AcDbEntity
100
AcDbLine
  8
6x4 existant
 62
256
370
-1
 48
1.0
  6
BYLAYER
 10
388.0
 20
3887.0
 30
0.0
 11
799.9999999999998863
 21
3887.0
 31
0.0
  0
LINE
  5
16D
100
AcDbEntity
100
AcDbLine
  8
6x4 existant
 62
256
370
-1
 48
1.0
  6
BYLAYER
 10
-72.0000000000000284
 20
3811.0
 30
0.0
 11
354.0
 21
3811.0
 31
0.0
  0
LINE
  5
16E
100
AcDbEntity
100
AcDbLine
  8
6x4 existant
 62
256
370
-1
 48
1.0
  6
BYLAYER
 10
388.0
 20
3921.0
 30
0.0
 11
799.9999999999998863
 21
3921.0
 31
0.0
  0
LINE
  5
16F
100
AcDbEntity
100
AcDbLine
  8
6x4 existant
 62
256
370
-1
 48
1.0
  6
BYLAYER
 10
-72.0000000000000284
 20
2756.0
 30
0.0
 11
354.0
 21
2756.0
 31
0.0
  0
LINE
  5
170
100
AcDbEntity
100
AcDbLine
  8
6x4 existant
 62
256
370
-1
 48
1.0
  6
BYLAYER
 10
388.0
 20
2826.0
 30
0.0
 11
799.9999999999997726
 21
2826.0
 31
0.0
  0
LINE
  5
171
100
AcDbEntity
100
AcDbLine
  8
6x4 \U+00e0 poser
 62
256
370
-1
 48
1.0
  6
BYLAYER
 10
16.0000000000002736
 20
2722.0
 30
0.0
 11
-17.9999999999997264
 21
2722.0
 31
0.0
  0
LINE
  5
172
100
AcDbEntity
100
AcDbLine
  8
6x4 \U+00e0 poser
 62
256
370
-1
 48
1.0
  6
BYLAYER
 10
-17.99999999999973
 20
2756.0
 30
0.0
 11
16.00000000000027
 21
2756.0
 31
0.0
  0
LINE
  5
173
100
AcDbEntity
100
AcDbLine
  8
6x4 \U+00e0 poser
 62
256
370
-1
 48
1.0
  6
BYLAYER
 10
16.0000000000002096
 20
3777.0
 30
0.0
 11
-17.9999999999997904
 21
3777.0
 31
0.0
  0
LINE
  5
174
100
AcDbEntity
100
AcDbLine
  8
6x4 \U+00e0 poser
 62
256
370
-1
 48
1.0
  6
BYLAYER
 10
-17.9999999999997939
 20
3811.0
 30
0.0
 11
16.0000000000002061
 21
3811.0
 31
0.0
  0
LINE
  5
175
100
AcDbEntity
100
AcDbLine
  8
Tube
 62
256
370
-1
 48
1.0
  6
BYLAYER
 10
388.0000000000001137
 20
4062.0
 30
0.0
 11
354.0000000000001137
 21
4062.0
 31
0.0
  0
LINE
  5
176
100
AcDbEntity
100
AcDbLine
  8
Tube
 62
256
370
-1
 48
1.0
  6
BYLAYER
 10
388.0
 20
3432.0
 30
0.0
 11
354.0
 21
3432.0
 31
0.0
  0
LINE
  5
177
100
AcDbEntity
100
AcDbLine
  8
Tube
 62
256
370
-1
 48
1.0
  6
BYLAYER
 10
371.0000000000001137
 20
4062.0
 30
0.0
 11
371.0
 21
3432.0
 31
0.0
  0
LINE
  5
178
100
AcDbEntity
100
AcDbLine
  8
Mitigeur
 62
256
370
-1
 48
1.0
  6
BYLAYER
 10
396.0
 20
3160.0
 30
0.0
 11
640.0
 21
3160.0
 31
0.0
  0
LINE
  5
179
100
AcDbEntity
100
AcDbLine
  8
OSB12
 62
256
370
-1
 48
1.0
  6
BYLAYER
 10
-3244.0
 20
3205.0
 30
0.0
 11
-3244.0
 21
3115.0
 31
0.0
  0
LINE
  5
17A
100
AcDbEntity
100
AcDbLine
  8
OSB12
 62
256
370
-1
 48
1.0
  6
BYLAYER
 10
396.0
 20
3205.0
 30
0.0
 11
396.0
 21
3115.0
 31
0.0
  0
LINE
  5
17B
100
AcDbEntity
100
AcDbLine
  8
OSB12
 62
256
370
-1
 48
1.0
  6
BYLAYER
 10
-3000.0
 20
3205.0
 30
0.0
 11
-3000.0
 21
3115.0
 31
0.0
  0
LINE
  5
17C
100
AcDbEntity
100
AcDbLine
  8
OSB12
 62
256
370
-1
 48
1.0
  6
BYLAYER
 10
640.0
 20
3205.0
 30
0.0
 11
640.0
 21
3115.0
 31
0.0
  0
LINE
  5
17D
100
AcDbEntity
100
AcDbLine
  8
OSB12
 62
256
370
-1
 48
1.0
  6
BYLAYER
 10
-3244.0
 20
3205.0
 30
0.0
 11
-3000.0
 21
3205.0
 31
0.0
  0
LINE
  5
17E
100
AcDbEntity
100
AcDbLine
  8
OSB12
 62
256
370
-1
 48
1.0
  6
BYLAYER
 10
396.0
 20
3205.0
 30
0.0
 11
640.0
 21
3205.0
 31
0.0
  0
LINE
  5
17F
100
AcDbEntity
100
AcDbLine
  8
OSB12
 62
256
370
-1
 48
1.0
  6
BYLAYER
 10
-3244.0
 20
3115.0
 30
0.0
 11
-3000.0
 21
3115.0
 31
0.0
  0
LINE
  5
180
100
AcDbEntity
100
AcDbLine
  8
OSB12
 62
256
370
-1
 48
1.0
  6
BYLAYER
 10
396.0
 20
3115.0
 30
0.0
 11
640.0
 21
3115.0
 31
0.0
  0
LINE
  5
181
100
AcDbEntity
100
AcDbLine
  8
Mitigeur
 62
256
370
-1
 48
1.0
  6
BYLAYER
 10
443.0
 20
3137.5
 30
0.0
 11
443.0
 21
3182.5
 31
0.0
  0
LINE
  5
182
100
AcDbEntity
100
AcDbLine
  8
Mitigeur
 62
256
370
-1
 48
1.0
  6
BYLAYER
 10
593.0
 20
3137.5
 30
0.0
 11
593.0
 21
3182.5
 31
0.0
  0
CIRCLE
  5
183
100
AcDbEntity
100
AcDbCircle
  8
Mitigeur
 62
256
370
-1
 48
1.0
  6
BYLAYER
 10
443.0
 20
3160.0
 30
0.0
 40
17.0
  0
CIRCLE
  5
184
100
AcDbEntity
100
AcDbCircle
  8
Mitigeur
 62
256
370
-1
 48
1.0
  6
BYLAYER
 10
593.0
 20
3160.0
 30
0.0
 40
17.0
  0
LINE
  5
185
100
AcDbEntity
100
AcDbLine
  8
6x4 \U+00e0 poser
 62
256
370
-1
 48
1.0
  6
BYLAYER
 10
388.0
 20
3180.0
 30
0.0
 11
784.0
 21
3180.0
 31
0.0
  0
LINE
  5
186
100
AcDbEntity
100
AcDbLine
  8
6x4 \U+00e0 poser
 62
256
370
-1
 48
1.0
  6
BYLAYER
 10
388.0
 20
3205.0
 30
0.0
 11
784.0
 21
3205.0
 31
0.0
  0
LINE
  5
187
100
AcDbEntity
100
AcDbLine
  8
6x4 \U+00e0 poser
 62
256
370
-1
 48
1.0
  6
BYLAYER
 10
388.0
 20
3115.0
 30
0.0
 11
784.0
 21
3115.0
 31
0.0
  0
LINE
  5
188
100
AcDbEntity
100
AcDbLine
  8
6x4 \U+00e0 poser
 62
256
370
-1
 48
1.0
  6
BYLAYER
 10
388.0
 20
3140.0
 30
0.0
 11
784.0
 21
3140.0
 31
0.0
  0
LINE
  5
189
100
AcDbEntity
100
AcDbLine
  8
OSB18
 62
256
370
-1
 48
1.0
  6
BYLAYER
 10
354.0
 20
2022.0
 30
0.0
 11
388.0
 21
2022.0
 31
0.0
  0
LINE
  5
18A
100
AcDbEntity
100
AcDbLine
  8
OSB18
 62
256
370
-1
 48
1.0
  6
BYLAYER
 10
388.0
 20
2022.0
 30
0.0
 11
388.0
 21
4590.0
 31
0.0
  0
LINE
  5
18B
100
AcDbEntity
100
AcDbLine
  8
OSB18
 62
256
370
-1
 48
1.0
  6
BYLAYER
 10
388.0
 20
4590.0
 30
0.0
 11
354.0
 21
4590.0
 31
0.0
  0
LINE
  5
18C
100
AcDbEntity
100
AcDbLine
  8
OSB18
 62
256
370
-1
 48
1.0
  6
BYLAYER
 10
354.0
 20
4590.0
 30
0.0
 11
354.0
 21
2022.0
 31
0.0
  0
LINE
  5
18D
100
AcDbEntity
100
AcDbLine
  8
OSB18
 62
256
370
-1
 48
1.0
  6
BYLAYER
 10
-17.9999999999996838
 20
2022.0
 30
0.0
 11
16.0000000000003162
 21
2022.0
 31
0.0
  0
LINE
  5
18E
100
AcDbEntity
100
AcDbLine
  8
OSB18
 62
256
370
-1
 48
1.0
  6
BYLAYER
 10
16.0000000000003162
 20
2022.0
 30
0.0
 11
16.0000000000001599
 21
4590.0
 31
0.0
  0
LINE
  5
18F
100
AcDbEntity
100
AcDbLine
  8
OSB18
 62
256
370
-1
 48
1.0
  6
BYLAYER
 10
16.0000000000001599
 20
4590.0
 30
0.0
 11
-17.9999999999998401
 21
4590.0
 31
0.0
  0
LINE
  5
190
100
AcDbEntity
100
AcDbLine
  8
OSB18
 62
256
370
-1
 48
1.0
  6
BYLAYER
 10
-17.9999999999998401
 20
4590.0
 30
0.0
 11
-17.9999999999996838
 21
2022.0
 31
0.0
  0
LINE
  5
191
100
AcDbEntity
100
AcDbLine
  8
OSB18
 62
256
370
-1
 48
1.0
  6
BYLAYER
 10
784.0
 20
2022.0
 30
0.0
 11
818.0
 21
2022.0
 31
0.0
  0
LINE
  5
192
100
AcDbEntity
100
AcDbLine
  8
OSB18
 62
256
370
-1
 48
1.0
  6
BYLAYER
 10
818.0
 20
2022.0
 30
0.0
 11
817.9999999999998863
 21
4590.0
 31
0.0
  0
LINE
  5
193
100
AcDbEntity
100
AcDbLine
  8
OSB18
 62
256
370
-1
 48
1.0
  6
BYLAYER
 10
817.9999999999998863
 20
4590.0
 30
0.0
 11
784.0
 21
4590.0
 31
0.0
  0
LINE
  5
194
100
AcDbEntity
100
AcDbLine
  8
OSB18
 62
256
370
-1
 48
1.0
  6
BYLAYER
 10
784.0
 20
4590.0
 30
0.0
 11
784.0
 21
2022.0
 31
0.0
  0
LINE
  5
195
100
AcDbEntity
100
AcDbLine
  8
OSB18
 62
256
370
-1
 48
1.0
  6
BYLAYER
 10
-1555.0000000000002274
 20
2860.0
 30
0.0
 11
-1523.0000000000002274
 21
2860.0
 31
0.0
  0
LINE
  5
196
100
AcDbEntity
100
AcDbLine
  8
OSB18
 62
256
370
-1
 48
1.0
  6
BYLAYER
 10
427.0
 20
2860.0
 30
0.0
 11
459.0
 21
2860.0
 31
0.0
  0
LINE
  5
197
100
AcDbEntity
100
AcDbLine
  8
OSB18
 62
256
370
-1
 48
1.0
  6
BYLAYER
 10
-1405.0000000000002274
 20
2860.0
 30
0.0
 11
-1373.0000000000002274
 21
2860.0
 31
0.0
  0
LINE
  5
198
100
AcDbEntity
100
AcDbLine
  8
OSB18
 62
256
370
-1
 48
1.0
  6
BYLAYER
 10
577.0
 20
2860.0
 30
0.0
 11
609.0
 21
2860.0
 31
0.0
  0
CIRCLE
  5
199
100
AcDbEntity
100
AcDbCircle
  8
OSB18
 62
256
370
-1
 48
1.0
  6
BYLAYER
 10
-1611.0
 20
4062.0
 30
0.0
 40
2.0
  0
CIRCLE
  5
19A
100
AcDbEntity
100
AcDbCircle
  8
OSB18
 62
256
370
-1
 48
1.0
  6
BYLAYER
 10
371.0000000000001137
 20
4062.0
 30
0.0
 40
2.0
  0
CIRCLE
  5
19B
100
AcDbEntity
100
AcDbCircle
  8
OSB18
 62
256
370
-1
 48
1.0
  6
BYLAYER
 10
-1611.0000000000002274
 20
3432.0
 30
0.0
 40
2.0
  0
CIRCLE
  5
19C
100
AcDbEntity
100
AcDbCircle
  8
OSB18
 62
256
370
-1
 48
1.0
  6
BYLAYER
 10
371.0
 20
3432.0
 30
0.0
 40
2.0
  0
DIMENSION
  5
19D
100
AcDbEntity
  8
Cotes
 62
256
370
-1
 48
1.0
  6
BYLAYER
100
AcDbDimension
 10
-2000.0
 20
4674.3898689012839895
 30
0.0
 11
-1582.0000000000002274
 21
4702.5148689012839895
 31
0.0
 70
1
 71
8
 72
2
 41
1.0
 42
0.0
  1

  3
Standard
100
AcDbAlignedDimension
 13
-2000.0
 23
4590.0
 33
0.0
 14
-1164.0000000000004547
 24
4590.0
 34
0.0
1001
ACAD
1000
DSTYLE
1002
{
1070
144
1040
1.0
1070
40
1040
15.0
1002
}
  0
DIMENSION
  5
19E
100
AcDbEntity
  8
Cotes
 62
256
370
-1
 48
1.0
  6
BYLAYER
100
AcDbDimension
 10
-2154.0856061453046095
 20
4590.0
 30
0.0
 11
-2182.2106061453046095
 21
3326.0
 31
0.0
 70
1
 71
8
 72
2
 41
1.0
 42
0.0
  1

  3
Standard
100
AcDbAlignedDimension
 13
-2000.0
 23
4590.0
 33
0.0
 14
-2000.0
 24
2062.0
 34
0.0
1001
ACAD
1000
DSTYLE
1002
{
1070
144
1040
1.0
1070
40
1040
15.0
1002
}
  0
DIMENSION
  5
19F
100
AcDbEntity
  8
Cotes
 62
256
370
-1
 48
1.0
  6
BYLAYER
100
AcDbDimension
 10
-962.1136361785428335
 20
2860.0
 30
0.0
 11
-990.2386361785428335
 21
2461.0
 31
0.0
 70
1
 71
8
 72
2
 41
1.0
 42
0.0
  1

  3
Standard
100
AcDbAlignedDimension
 13
-1372.0000000000002274
 23
2860.0
 33
0.0
 14
-1372.0000000000002274
 24
2062.0
 34
0.0
1001
ACAD
1000
DSTYLE
1002
{
1070
144
1040
1.0
1070
40
1040
15.0
1002
}
  0
DIMENSION
  5
1A0
100
AcDbEntity
  8
Cotes
 62
256
370
-1
 48
1.0
  6
BYLAYER
100
AcDbDimension
 10
-753.0030786181578151
 20
3160.0
 30
0.0
 11
-781.1280786181578151
 21
2611.0
 31
0.0
 70
1
 71
8
 72
2
 41
1.0
 42
0.0
  1

  3
Standard
100
AcDbAlignedDimension
 13
-1389.0000000000002274
 23
3160.0
 33
0.0
 14
-1389.0000000000002274
 24
2062.0
 34
0.0
1001
ACAD
1000
DSTYLE
1002
{
1070
144
1040
1.0
1070
40
1040
15.0
1002
}
  0
LINE
  5
1A1
100
AcDbEntity
100
AcDbLine
  8
OSB18
 62
256
370
-1
 48
1.0
  6
BYLAYER
 10
-1555.0000000000002274
 20
2860.0
 30
0.0
 11
-1555.0000000000002274
 21
3160.0
 31
0.0
  0
LINE
  5
1A2
100
AcDbEntity
100
AcDbLine
  8
OSB18
 62
256
370
-1
 48
1.0
  6
BYLAYER
 10
427.0
 20
2860.0
 30
0.0
 11
427.0
 21
3160.0
 31
0.0
  0
LINE
  5
1A3
100
AcDbEntity
100
AcDbLine
  8
OSB18
 62
256
370
-1
 48
1.0
  6
BYLAYER
 10
-1523.0000000000002274
 20
2860.0
 30
0.0
 11
-1523.0000000000002274
 21
3160.0
 31
0.0
  0
LINE
  5
1A4
100
AcDbEntity
100
AcDbLine
  8
OSB18
 62
256
370
-1
 48
1.0
  6
BYLAYER
 10
459.0
 20
2860.0
 30
0.0
 11
459.0
 21
3160.0
 31
0.0
  0
LINE
  5
1A5
100
AcDbEntity
100
AcDbLine
  8
OSB18
 62
256
370
-1
 48
1.0
  6
BYLAYER
 10
-1405.0000000000002274
 20
2860.0
 30
0.0
 11
-1405.0000000000002274
 21
3160.0
 31
0.0
  0
LINE
  5
1A6
100
AcDbEntity
100
AcDbLine
  8
OSB18
 62
256
370
-1
 48
1.0
  6
BYLAYER
 10
577.0
 20
2860.0
 30
0.0
 11
577.0
 21
3160.0
 31
0.0
  0
LINE
  5
1A7
100
AcDbEntity
100
AcDbLine
  8
OSB18
 62
256
370
-1
 48
1.0
  6
BYLAYER
 10
-1373.0000000000002274
 20
2860.0
 30
0.0
 11
-1373.0000000000002274
 21
3160.0
 31
0.0
  0
LINE
  5
1A8
100
AcDbEntity
100
AcDbLine
  8
OSB18
 62
256
370
-1
 48
1.0
  6
BYLAYER
 10
609.0
 20
2860.0
 30
0.0
 11
609.0
 21
3160.0
 31
0.0
  0
DIMENSION
  5
1A9
100
AcDbEntity
  8
Cotes
 62
256
370
-1
 48
1.0
  6
BYLAYER
100
AcDbDimension
 10
-1389.0000000000002274
 20
3256.0374835336929209
 30
0.0
 11
-1276.5000000000002274
 21
3284.1624835336929209
 31
0.0
 70
1
 71
8
 72
2
 41
1.0
 42
0.0
  1

  3
Standard
100
AcDbAlignedDimension
 13
-1389.0000000000002274
 23
3160.0
 33
0.0
 14
-1164.0000000000002274
 24
3160.0
 34
0.0
1001
ACAD
1000
DSTYLE
1002
{
1070
144
1040
1.0
1070
40
1040
15.0
1002
}
  0
DIMENSION
  5
1AA
100
AcDbEntity
  8
Cotes
 62
256
370
-1
 48
1.0
  6
BYLAYER
100
AcDbDimension
 10
-1539.0000000000002274
 20
3367.9082945806435418
 30
0.0
 11
-1351.5000000000002274
 21
3396.0332945806435418
 31
0.0
 70
1
 71
8
 72
2
 41
1.0
 42
0.0
  1

  3
Standard
100
AcDbAlignedDimension
 13
-1539.0000000000002274
 23
3160.0
 33
0.0
 14
-1164.0000000000002274
 24
3160.0
 34
0.0
1001
ACAD
1000
DSTYLE
1002
{
1070
144
1040
1.0
1070
40
1040
15.0
1002
}
  0
DIMENSION
  5
1AB
100
AcDbEntity
  8
Cotes
 62
256
370
-1
 48
1.0
  6
BYLAYER
100
AcDbDimension
 10
-3244.0
 20
3353.2962374076719243
 30
0.0
 11
-3122.0
 21
3381.4212374076719243
 31
0.0
 70
1
 71
8
 72
2
 41
1.0
 42
0.0
  1

  3
Standard
100
AcDbAlignedDimension
 13
-3244.0
 23
3205.0
 33
0.0
 14
-3000.0
 24
3205.0
 34
0.0
1001
ACAD
1000
DSTYLE
1002
{
1070
144
1040
1.0
1070
40
1040
15.0
1002
}
  0
DIMENSION
  5
1AC
100
AcDbEntity
  8
Cotes
 62
256
370
-1
 48
1.0
  6
BYLAYER
100
AcDbDimension
 10
-3335.7255476799714415
 20
3205.0
 30
0.0
 11
-3363.8505476799714415
 21
3160.0
 31
0.0
 70
1
 71
8
 72
2
 41
1.0
 42
0.0
  1

  3
Standard
100
AcDbAlignedDimension
 13
-3244.0
 23
3205.0
 33
0.0
 14
-3244.0
 24
3115.0
 34
0.0
1001
ACAD
1000
DSTYLE
1002
{
1070
144
1040
1.0
1070
40
1040
15.0
1002
}
  0
DIMENSION
  5
1AD
100
AcDbEntity
  8
Cotes
 62
256
370
-1
 48
1.0
  6
BYLAYER
100
AcDbDimension
 10
-3197.0
 20
3046.6657945515266874
 30
0.0
 11
-3162.625
 21
3074.7907945515266874
 31
0.0
 70
1
 71
8
 72
2
 41
1.0
 42
0.0
  1

  3
Standard
100
AcDbAlignedDimension
 13
-3197.0
 23
3115.0
 33
0.0
 14
-3244.0
 24
3115.0
 34
0.0
1001
ACAD
1000
DSTYLE
1002
{
1070
144
1040
1.0
1070
40
1040
15.0
1002
}
  0
DIMENSION
  5
1AE
100
AcDbEntity
  8
Cotes
 62
256
370
-1
 48
1.0
  6
BYLAYER
100
AcDbDimension
 10
-3047.0
 20
2958.7763484199972481
 30
0.0
 11
-3145.5
 21
2986.9013484199972481
 31
0.0
 70
1
 71
8
 72
2
 41
1.0
 42
0.0
  1

  3
Standard
100
AcDbAlignedDimension
 13
-3047.0
 23
3160.0
 33
0.0
 14
-3244.0
 24
3160.0
 34
0.0
1001
ACAD
1000
DSTYLE
1002
{
1070
144
1040
1.0
1070
40
1040
15.0
1002
}
  0
DIMENSION
  5
1AF
100
AcDbEntity
  8
Cotes
 62
256
370
-1
 48
1.0
  6
BYLAYER
100
AcDbDimension
 10
396.0
 20
3205.0
 30
0.0
 11
413.7083333333333144
 21
3233.125
 31
0.0
 70
1
 71
8
 72
2
 41
1.0
 42
0.0
  1

  3
Standard
100
AcDbAlignedDimension
 13
396.0
 23
3205.0
 33
0.0
 14
388.0
 24
3205.0
 34
0.0
1001
ACAD
1000
DSTYLE
1002
{
1070
144
1040
1.0
1070
40
1040
15.0
1002
}
  0
DIMENSION
  5
1B0
100
AcDbEntity
  8
Cotes
 62
256
370
-1
 48
1.0
  6
BYLAYER
100
AcDbDimension
 10
640.0
 20
3205.0
 30
0.0
 11
720.0
 21
3233.125
 31
0.0
 70
1
 71
8
 72
2
 41
1.0
 42
0.0
  1

  3
Standard
100
AcDbAlignedDimension
 13
640.0
 23
3205.0
 33
0.0
 14
800.0
 24
3205.0
 34
0.0
1001
ACAD
1000
DSTYLE
1002
{
1070
144
1040
1.0
1070
40
1040
15.0
1002
}
  0
CIRCLE
  5
1B1
100
AcDbEntity
100
AcDbCircle
  8
OSB12
 62
256
370
-1
 48
1.0
  6
BYLAYER
 10
443.0
 20
3160.0
 30
0.0
 40
16.0
  0
ARC
  5
1B2
100
AcDbEntity
  8
OSB18
 62
256
370
-1
 48
1.0
  6
BYLAYER
100
AcDbCircle
 10
-1539.0000000000002274
 20
3160.0
 30
0.0
 40
16.0
100
AcDbArc
 50
0.0
 51
180.0
  0
ARC
  5
1B3
100
AcDbEntity
  8
OSB18
 62
256
370
-1
 48
1.0
  6
BYLAYER
100
AcDbCircle
 10
443.0
 20
3160.0
 30
0.0
 40
16.0
100
AcDbArc
 50
0.0
 51
180.0
  0
ARC
  5
1B4
100
AcDbEntity
  8
OSB18
 62
256
370
-1
 48
1.0
  6
BYLAYER
100
AcDbCircle
 10
-1389.0000000000002274
 20
3160.0
 30
0.0
 40
16.0
100
AcDbArc
 50
0.0
 51
180.0
  0
ARC
  5
1B5
100
AcDbEntity
  8
OSB18
 62
256
370
-1
 48
1.0
  6
BYLAYER
100
AcDbCircle
 10
593.0
 20
3160.0
 30
0.0
 40
16.0
100
AcDbArc
 50
0.0
 51
180.0
  0
CIRCLE
  5
1B6
100
AcDbEntity
100
AcDbCircle
  8
OSB12
 62
256
370
-1
 48
1.0
  6
BYLAYER
 10
593.0
 20
3160.0
 30
0.0
 40
16.0
  0
DIMENSION
  5
1B7
100
AcDbEntity
  8
Cotes
 62
256
370
-1
 48
1.0
  6
BYLAYER
100
AcDbDimension
 10
-1373.0000000000002274
 20
2730.164197188541948
 30
0.0
 11
-1268.5000000000002274
 21
2758.289197188541948
 31
0.0
 70
1
 71
8
 72
2
 41
1.0
 42
0.0
  1

  3
Standard
100
AcDbAlignedDimension
 13
-1373.0000000000002274
 23
2860.0
 33
0.0
 14
-1164.0000000000002274
 24
2860.0
 34
0.0
1001
ACAD
1000
DSTYLE
1002
{
1070
144
1040
1.0
1070
40
1040
15.0
1002
}
  0
DIMENSION
  5
1B8
100
AcDbEntity
  8
Cotes
 62
256
370
-1
 48
1.0
  6
BYLAYER
100
AcDbDimension
 10
-1523.0000000000002274
 20
2526.2828394356060926
 30
0.0
 11
-1343.5000000000002274
 21
2554.4078394356060926
 31
0.0
 70
1
 71
8
 72
2
 41
1.0
 42
0.0
  1

  3
Standard
100
AcDbAlignedDimension
 13
-1523.0000000000002274
 23
2860.0
 33
0.0
 14
-1164.0000000000002274
 24
2860.0
 34
0.0
1001
ACAD
1000
DSTYLE
1002
{
1070
144
1040
1.0
1070
40
1040
15.0
1002
}
  0
CIRCLE
  5
1B9
100
AcDbEntity
100
AcDbCircle
  8
OSB12
 62
256
370
-1
 48
1.0
  6
BYLAYER
 10
-3197.0
 20
3160.0
 30
0.0
 40
16.0
  0
CIRCLE
  5
1BA
100
AcDbEntity
100
AcDbCircle
  8
OSB12
 62
256
370
-1
 48
1.0
  6
BYLAYER
 10
-3047.0
 20
3160.0
 30
0.0
 40
16.0
  0
DIMENSION
  5
1BB
100
AcDbEntity
  8
Cotes
 62
256
370
-1
 48
1.0
  6
BYLAYER
100
AcDbDimension
 10
-3181.0
 20
3160.0
 30
0.0
 11
-3148.7083333333334849
 21
3188.125
 31
0.0
 70
3
 71
8
 72
2
 41
1.0
 42
0.0
  1

  3
Standard
100
AcDbDiametricDimension
 15
-3213.0
 25
3160.0
 35
0.0
 40
0.0
1001
ACAD
1000
DSTYLE
1002
{
1070
144
1040
1.0
1070
40
1040
15.0
1002
}
  0
DIMENSION
  5
1BC
100
AcDbEntity
  8
Cotes
 62
256
370
-1
 48
1.0
  6
BYLAYER
100
AcDbDimension
 10
-1523.0000000000002274
 20
3160.0
 30
0.0
 11
-1490.7083333333334849
 21
3188.125
 31
0.0
 70
3
 71
8
 72
2
 41
1.0
 42
0.0
  1

  3
Standard
100
AcDbDiametricDimension
 15
-1555.0000000000002274
 25
3160.0
 35
0.0
 40
0.0
1001
ACAD
1000
DSTYLE
1002
{
1070
144
1040
1.0
1070
40
1040
15.0
1002
}
  0
DIMENSION
  5
1BD
100
AcDbEntity
  8
Cotes
 62
256
370
-1
 48
1.0
  6
BYLAYER
100
AcDbDimension
 10
-2939.4012248349854417
 20
3160.0
 30
0.0
 11
-2967.5262248349854417
 21
3194.375
 31
0.0
 70
1
 71
8
 72
2
 41
1.0
 42
0.0
  1

  3
Standard
100
AcDbAlignedDimension
 13
-3047.0
 23
3160.0
 33
0.0
 14
-3047.0
 24
3115.0
 34
0.0
1001
ACAD
1000
DSTYLE
1002
{
1070
144
1040
1.0
1070
40
1040
15.0
1002
}
  0
DIMENSION
  5
1BE
100
AcDbEntity
  8
Cotes
 62
256
370
-1
 48
1.0
  6
BYLAYER
100
AcDbDimension
 10
640.0
 20
3115.0
 30
0.0
 11
611.875
 21
2557.5
 31
0.0
 70
1
 71
8
 72
2
 41
1.0
 42
0.0
  1

  3
Standard
100
AcDbAlignedDimension
 13
640.0
 23
3115.0
 33
0.0
 14
640.0
 24
2000.0
 34
0.0
1001
ACAD
1000
DSTYLE
1002
{
1070
144
1040
1.0
1070
40
1040
15.0
1002
}
  0
DIMENSION
  5
1BF
100
AcDbEntity
  8
Cotes
 62
256
370
-1
 48
1.0
  6
BYLAYER
100
AcDbDimension
 10
784.0
 20
3180.0
 30
0.0
 11
755.875
 21
2590.0
 31
0.0
 70
1
 71
8
 72
2
 41
1.0
 42
0.0
  1

  3
Standard
100
AcDbAlignedDimension
 13
784.0
 23
3180.0
 33
0.0
 14
784.0
 24
2000.0
 34
0.0
1001
ACAD
1000
DSTYLE
1002
{
1070
144
1040
1.0
1070
40
1040
15.0
1002
}
  0
CIRCLE
  5
1C0
100
AcDbEntity
100
AcDbCircle
  8
EvacDiam100
 62
256
370
-1
 48
1.0
  6
BYLAYER
 10
709.9999999999997726
 20
176.0
 30
0.0
 40
50.0
  0
CIRCLE
  5
1C1
100
AcDbEntity
100
AcDbCircle
  8
EvacSiphon
 62
256
370
-1
 48
1.0
  6
BYLAYER
 10
399.9999999999997726
 20
166.0000000000000568
 30
0.0
 40
45.0
  0
XLINE
  5
1C2
100
AcDbEntity
100
AcDbLine
  8
0
 62
256
370
-1
 48
1.0
  6
BYLAYER
 10
354.9999999999997726
 20
166.0000000000000568
 30
0.0
 11
0.0
 21
1.0
 31
0.0
  0
XLINE
  5
1C3
100
AcDbEntity
100
AcDbLine
  8
0
 62
256
370
-1
 48
1.0
  6
BYLAYER
 10
444.9999999999997726
 20
166.0000000000000568
 30
0.0
 11
0.0
 21
1.0
 31
0.0
  0
XLINE
  5
1C4
100
AcDbEntity
100
AcDbLine
  8
0
 62
256
370
-1
 48
1.0
  6
BYLAYER
 10
659.9999999999997726
 20
176.0
 30
0.0
 11
0.0
 21
1.0
 31
0.0
  0
XLINE
  5
1C5
100
AcDbEntity
100
AcDbLine
  8
0
 62
256
370
-1
 48
1.0
  6
BYLAYER
 10
759.9999999999997726
 20
176.0
 30
0.0
 11
0.0
 21
1.0
 31
0.0
  0
LINE
  5
1C6
100
AcDbEntity
100
AcDbLine
  8
OSB18
 62
256
370
-1
 48
1.0
  6
BYLAYER
 10
0.0000000000003183
 20
2018.0
 30
0.0
 11
800.0
 21
2018.0
 31
0.0
  0
LINE
  5
1C7
100
AcDbEntity
100
AcDbLine
  8
EvacSiphon
 62
256
370
-1
 48
1.0
  6
BYLAYER
 10
354.9999999999997726
 20
1982.0
 30
0.0
 11
354.9999999999997726
 21
2040.0
 31
0.0
  0
LINE
  5
1C8
100
AcDbEntity
100
AcDbLine
  8
EvacSiphon
 62
256
370
-1
 48
1.0
  6
BYLAYER
 10
444.9999999999997726
 20
1982.0
 30
0.0
 11
444.9999999999997726
 21
2040.0
 31
0.0
  0
LINE
  5
1C9
100
AcDbEntity
100
AcDbLine
  8
EvacSiphon
 62
256
370
-1
 48
1.0
  6
BYLAYER
 10
354.9999999999997726
 20
2040.0
 30
0.0
 11
444.9999999999997726
 21
2040.0
 31
0.0
  0
LINE
  5
1CA
100
AcDbEntity
100
AcDbLine
  8
EvacSiphon
 62
256
370
-1
 48
1.0
  6
BYLAYER
 10
354.9999999999997726
 20
1982.0
 30
0.0
 11
444.9999999999997726
 21
1982.0
 31
0.0
  0
LINE
  5
1CB
100
AcDbEntity
100
AcDbLine
  8
Li\U+00e8ge
 62
256
370
-1
 48
1.0
  6
BYLAYER
 10
0.0000000000003203
 20
1950.0
 30
0.0
 11
800.0
 21
1950.0
 31
0.0
  0
LINE
  5
1CC
100
AcDbEntity
100
AcDbLine
  8
Li\U+00e8ge
 62
256
370
-1
 48
1.0
  6
BYLAYER
 10
0.0000000000003233
 20
1900.0
 30
0.0
 11
800.0
 21
1900.0
 31
0.0
  0
LINE
  5
1CD
100
AcDbEntity
100
AcDbLine
  8
EvacDiam100
 62
256
370
-1
 48
1.0
  6
BYLAYER
 10
659.9999999999997726
 20
1980.0
 30
0.0
 11
659.9999999999997726
 21
1900.0
 31
0.0
  0
LINE
  5
1CE
100
AcDbEntity
100
AcDbLine
  8
EvacDiam100
 62
256
370
-1
 48
1.0
  6
BYLAYER
 10
759.9999999999997726
 20
1900.0
 30
0.0
 11
759.9999999999997726
 21
1980.0
 31
0.0
  0
LINE
  5
1CF
100
AcDbEntity
100
AcDbLine
  8
EvacDiam100
 62
256
370
-1
 48
1.0
  6
BYLAYER
 10
759.9999999999997726
 20
1972.0
 30
0.0
 11
759.9999999999997726
 21
1972.0
 31
0.0
  0
LINE
  5
1D0
100
AcDbEntity
100
AcDbLine
  8
EvacDiam100
 62
256
370
-1
 48
1.0
  6
BYLAYER
 10
444.9999999999997726
 20
1982.0
 30
0.0
 11
659.9999999999997726
 21
1980.0
 31
0.0
  0
LINE
  5
1D1
100
AcDbEntity
100
AcDbLine
  8
EvacSiphon
 62
256
370
-1
 48
1.0
  6
BYLAYER
 10
444.0707720129503855
 20
185.9784017215613687
 30
0.0
 11
659.0707720129504423
 21
195.9784017215613119
 31
0.0
  0
LINE
  5
1D2
100
AcDbEntity
100
AcDbLine
  8
EvacSiphon
 62
256
370
-1
 48
1.0
  6
BYLAYER
 10
445.9292279870491598
 20
146.021598278438745
 30
0.0
 11
660.9292279870491029
 21
156.0215982784386881
 31
0.0
  0
LINE
  5
1D3
100
AcDbEntity
100
AcDbLine
  8
EvacSiphon
 62
256
370
-1
 48
1.0
  6
BYLAYER
 10
659.9999999999997726
 20
1980.0
 30
0.0
 11
759.9999999999997726
 21
1980.0
 31
0.0
  0
LINE
  5
1D4
100
AcDbEntity
100
AcDbLine
  8
EvacSiphon
 62
256
370
-1
 48
1.0
  6
BYLAYER
 10
659.9999999999997726
 20
1875.0
 30
0.0
 11
759.9999999999997726
 21
1875.0
 31
0.0
  0
LINE
  5
1D5
100
AcDbEntity
100
AcDbLine
  8
EvacSiphon
 62
256
370
-1
 48
1.0
  6
BYLAYER
 10
659.9999999999997726
 20
1925.0
 30
0.0
 11
759.9999999999997726
 21
1925.0
 31
0.0
  0
LINE
  5
1D6
100
AcDbEntity
100
AcDbLine
  8
EvacSiphon
 62
256
370
-1
 48
1.0
  6
BYLAYER
 10
0.0000000000003255
 20
1864.0
 30
0.0
 11
800.0
 21
1864.0
 31
0.0
  0
INSERT
  5
1D7
100
AcDbEntity
100
AcDbBlockReference
  8
6x4 \U+00e0 poser
 62
256
370
-1
 48
1.0
  6
BYLAYER
  2
Montant6x4
 10
-18.0000000000002061
 20
640.0
 30
0.0
 41
1.0
 42
-1.0
 43
1.0
 50
180.0
  0
INSERT
  5
1D8
100
AcDbEntity
100
AcDbBlockReference
  8
6x4 \U+00e0 poser
 62
256
370
-1
 48
1.0
  6
BYLAYER
  2
Montant6x4
 10
-18.0000000000002061
 20
320.0
 30
0.0
 41
1.0
 42
-1.0
 43
1.0
 50
180.0
  0
INSERT
  5
1D9
100
AcDbEntity
100
AcDbBlockReference
  8
6x4 \U+00e0 poser
 62
256
370
-1
 48
1.0
  6
BYLAYER
  2
Montant6x4
 10
-18.0000000000002061
 20
-0.0000000000000098
 30
0.0
 41
1.0
 42
-1.0
 43
1.0
 50
180.0
  0
LINE
  5
1DA
100
AcDbEntity
100
AcDbLine
  8
0
 62
256
370
-1
 48
1.0
  6
BYLAYER
 10
-77.9999999999998863
 20
354.0000000000000568
 30
0.0
 11
-18.0000000000000959
 21
354.0
 31
0.0
  0
LINE
  5
1DB
100
AcDbEntity
100
AcDbLine
  8
0
 62
256
370
-1
 48
1.0
  6
BYLAYER
 10
-77.9999999999997868
 20
674.0
 30
0.0
 11
-17.9999999999999964
 21
674.0
 31
0.0
  0
DIMENSION
  5
1DC
100
AcDbEntity
  8
Cotes
 62
256
370
-1
 48
1.0
  6
BYLAYER
100
AcDbDimension
 10
944.260687557429037
 20
2080.0
 30
0.0
 11
916.135687557429037
 21
2756.0
 31
0.0
 70
1
 71
8
 72
2
 41
1.0
 42
0.0
  1

  3
Standard
100
AcDbAlignedDimension
 13
799.9999999999997726
 23
2080.0
 33
0.0
 14
799.9999999999997726
 24
3432.0
 34
0.0
1001
ACAD
1000
DSTYLE
1002
{
1070
144
1040
1.0
1070
40
1040
15.0
1002
}
  0
DIMENSION
  5
1DD
100
AcDbEntity
  8
Cotes
 62
256
370
-1
 48
1.0
  6
BYLAYER
100
AcDbDimension
 10
1272.2280782323182393
 20
2080.0
 30
0.0
 11
1244.1030782323182393
 21
3071.0
 31
0.0
 70
1
 71
8
 72
2
 41
1.0
 42
0.0
  1

  3
Standard
100
AcDbAlignedDimension
 13
799.9999999999997726
 23
2080.0
 33
0.0
 14
799.9999999999997726
 24
4062.0
 34
0.0
1001
ACAD
1000
DSTYLE
1002
{
1070
144
1040
1.0
1070
40
1040
15.0
1002
}
  0
ENDSEC
  0
SECTION
  2
OBJECTS
  0
DICTIONARY
  5
C
100
AcDbDictionary
280
0
281
1
  3
ACAD_GROUP
350
D
  3
ACAD_LAYOUT
350
1A
  3
ACAD_MLINESTYLE
350
17
  3
ACAD_PLOTSETTINGS
350
19
  3
ACAD_PLOTSTYLENAME
350
E
  3
AcDbVariableDictionary
350
1DE
  3
QCAD_OBJECTS
350
1DF
  0
DICTIONARY
  5
D
100
AcDbDictionary
280
0
281
1
  0
ACDBDICTIONARYWDFLT
  5
E
100
AcDbDictionary
281
1
  3
Normal
350
F
100
AcDbDictionaryWithDefault
340
F
  0
ACDBPLACEHOLDER
  5
F
  0
DICTIONARY
  5
17
100
AcDbDictionary
280
0
281
1
  3
Standard
350
18
  0
MLINESTYLE
  5
18
100
AcDbMlineStyle
  2
STANDARD
 70
0
  3

 62
256
 51
90.0
 52
90.0
 71
2
 49
0.5
 62
256
  6
BYLAYER
 49
-0.5
 62
256
  6
BYLAYER
  0
DICTIONARY
  5
19
100
AcDbDictionary
280
0
281
1
  0
DICTIONARY
  5
1A
100
AcDbDictionary
281
1
  3
Layout1
350
1E
  3
Layout2
350
26
  3
Model
350
22
  0
LAYOUT
  5
1E
100
AcDbPlotSettings
  1

  2
none_device
  4

  6

 40
0.0
 41
0.0
 42
0.0
 43
0.0
 44
0.0
 45
0.0
 46
0.0
 47
0.0
 48
0.0
 49
0.0
140
0.0
141
0.0
142
1.0
143
1.0
 70
688
 72
0
 73
0
 74
5
  7

 75
16
147
1.0
148
0.0
149
0.0
100
AcDbLayout
  1
Layout1
 70
1
 71
1
 10
0.0
 20
0.0
 11
420.0
 21
297.0
 12
0.0
 22
0.0
 32
0.0
 14
100000000000000000000.0
 24
100000000000000000000.0
 34
100000000000000000000.0
 15
-100000000000000000000.0
 25
-100000000000000000000.0
 35
-100000000000000000000.0
146
0.0
 13
0.0
 23
0.0
 33
0.0
 16
1.0
 26
0.0
 36
0.0
 17
0.0
 27
1.0
 37
0.0
 76
0
330
1B
  0
LAYOUT
  5
22
100
AcDbPlotSettings
  1

  2
none_device
  4

  6

 40
0.0
 41
0.0
 42
0.0
 43
0.0
 44
0.0
 45
0.0
 46
0.0
 47
0.0
 48
0.0
 49
0.0
140
0.0
141
0.0
142
1.0
143
1.0
 70
1712
 72
0
 73
0
 74
0
  7

 75
0
147
1.0
148
0.0
149
0.0
100
AcDbLayout
  1
Model
 70
1
 71
0
 10
0.0
 20
0.0
 11
12.0
 21
9.0
 12
0.0
 22
0.0
 32
0.0
 14
0.0
 24
0.0
 34
0.0
 15
0.0
 25
0.0
 35
0.0
146
0.0
 13
0.0
 23
0.0
 33
0.0
 16
1.0
 26
0.0
 36
0.0
 17
0.0
 27
1.0
 37
0.0
 76
0
330
1F
  0
LAYOUT
  5
26
100
AcDbPlotSettings
  1

  2
none_device
  4

  6

 40
0.0
 41
0.0
 42
0.0
 43
0.0
 44
0.0
 45
0.0
 46
0.0
 47
0.0
 48
0.0
 49
0.0
140
0.0
141
0.0
142
1.0
143
1.0
 70
688
 72
0
 73
0
 74
5
  7

 75
16
147
1.0
148
0.0
149
0.0
100
AcDbLayout
  1
Layout2
 70
1
 71
2
 10
0.0
 20
0.0
 11
12.0
 21
9.0
 12
0.0
 22
0.0
 32
0.0
 14
0.0
 24
0.0
 34
0.0
 15
0.0
 25
0.0
 35
0.0
146
0.0
 13
0.0
 23
0.0
 33
0.0
 16
1.0
 26
0.0
 36
0.0
 17
0.0
 27
1.0
 37
0.0
 76
0
330
23
  0
DICTIONARY
  5
1DE
100
AcDbDictionary
281
1
  3
DIMASSOC
350
1E1
  3
HIDETEXT
350
1E0
  0
DICTIONARYVAR
  5
1E0
100
DictionaryVariables
280
0
  1
2
  0
DICTIONARYVAR
  5
1E1
100
DictionaryVariables
280
0
  1
1
  0
DICTIONARY
  5
1DF
100
AcDbDictionary
281
1
  3
ColorSettings/BackgroundColor
350
1E2
  3
ColorSettings/ColorMode
350
1E3
  3
DimensionSettings/AngularFormat
350
1E4
  3
DimensionSettings/AngularPrecision
350
1E5
  3
DimensionSettings/DimensionFont
350
1E6
  3
DimensionSettings/KeepProportions
350
1E7
  3
DimensionSettings/LinearFormat
350
1E8
  3
DimensionSettings/LinearPrecision
350
1E9
  3
Grid/DisplayGrid00
350
1EA
  3
Grid/DisplayGrid01
350
1EB
  3
Grid/DisplayGrid02
350
1EC
  3
Grid/DisplayGrid03
350
1ED
  3
Grid/GridSpacingX00
350
1EE
  3
Grid/GridSpacingX01
350
1EF
  3
Grid/GridSpacingX02
350
1F0
  3
Grid/GridSpacingX03
350
1F1
  3
Grid/GridSpacingY00
350
1F2
  3
Grid/GridSpacingY01
350
1F3
  3
Grid/GridSpacingY02
350
1F4
  3
Grid/GridSpacingY03
350
1F5
  3
Grid/IsometricGrid00
350
1F6
  3
Grid/IsometricGrid01
350
1F7
  3
Grid/IsometricGrid02
350
1F8
  3
Grid/IsometricGrid03
350
1F9
  3
Grid/IsometricProjection00
350
1FA
  3
Grid/IsometricProjection01
350
1FB
  3
Grid/IsometricProjection02
350
1FC
  3
Grid/IsometricProjection03
350
1FD
  3
Grid/MetaGridSpacingX00
350
1FE
  3
Grid/MetaGridSpacingX01
350
1FF
  3
Grid/MetaGridSpacingX02
350
200
  3
Grid/MetaGridSpacingX03
350
201
  3
Grid/MetaGridSpacingY00
350
202
  3
Grid/MetaGridSpacingY01
350
203
  3
Grid/MetaGridSpacingY02
350
204
  3
Grid/MetaGridSpacingY03
350
205
  3
MultiPageSettings/Columns
350
206
  3
MultiPageSettings/GlueMarginsBottom
350
207
  3
MultiPageSettings/GlueMarginsLeft
350
208
  3
MultiPageSettings/GlueMarginsRight
350
209
  3
MultiPageSettings/GlueMarginsTop
350
20A
  3
MultiPageSettings/PrintCropMarks
350
20B
  3
MultiPageSettings/Rows
350
20C
  3
PageSettings/OffsetX
350
20D
  3
PageSettings/OffsetY
350
20E
  3
PageSettings/PageOrientation
350
20F
  3
PageSettings/PaperHeight
350
210
  3
PageSettings/PaperWidth
350
211
  3
PageSettings/Scale
350
212
  3
PageSettings/ShowPaperBorders
350
213
  3
QCADVersion
350
214
  3
UnitSettings/PaperUnit
350
215
  3
ViewportCenter
350
216
  3
ViewportHeight
350
217
  3
ViewportWidth
350
218
  0
XRECORD
  5
1E2
330
1DF
100
AcDbXrecord
280
1
1000
Blanc
  0
XRECORD
  5
1E3
330
1DF
100
AcDbXrecord
280
1
1000
FullColor
  0
XRECORD
  5
1E4
330
1DF
100
AcDbXrecord
280
1
 90
0
  0
XRECORD
  5
1E5
330
1DF
100
AcDbXrecord
280
1
 90
0
  0
XRECORD
  5
1E6
330
1DF
100
AcDbXrecord
280
1
1000
DejaVu Sans
  0
XRECORD
  5
1E7
330
1DF
100
AcDbXrecord
280
1
290
1
  0
XRECORD
  5
1E8
330
1DF
100
AcDbXrecord
280
1
 90
2
  0
XRECORD
  5
1E9
330
1DF
100
AcDbXrecord
280
1
 90
4
  0
XRECORD
  5
1EA
330
1DF
100
AcDbXrecord
280
1
290
1
  0
XRECORD
  5
1EB
330
1DF
100
AcDbXrecord
280
1
290
1
  0
XRECORD
  5
1EC
330
1DF
100
AcDbXrecord
280
1
290
1
  0
XRECORD
  5
1ED
330
1DF
100
AcDbXrecord
280
1
290
1
  0
XRECORD
  5
1EE
330
1DF
100
AcDbXrecord
280
1
1000
auto
  0
XRECORD
  5
1EF
330
1DF
100
AcDbXrecord
280
1
1000
auto
  0
XRECORD
  5
1F0
330
1DF
100
AcDbXrecord
280
1
1000
auto
  0
XRECORD
  5
1F1
330
1DF
100
AcDbXrecord
280
1
1000
auto
  0
XRECORD
  5
1F2
330
1DF
100
AcDbXrecord
280
1
1000
auto
  0
XRECORD
  5
1F3
330
1DF
100
AcDbXrecord
280
1
1000
auto
  0
XRECORD
  5
1F4
330
1DF
100
AcDbXrecord
280
1
1000
auto
  0
XRECORD
  5
1F5
330
1DF
100
AcDbXrecord
280
1
1000
auto
  0
XRECORD
  5
1F6
330
1DF
100
AcDbXrecord
280
1
290
0
  0
XRECORD
  5
1F7
330
1DF
100
AcDbXrecord
280
1
290
0
  0
XRECORD
  5
1F8
330
1DF
100
AcDbXrecord
280
1
290
0
  0
XRECORD
  5
1F9
330
1DF
100
AcDbXrecord
280
1
290
0
  0
XRECORD
  5
1FA
330
1DF
100
AcDbXrecord
280
1
 90
0
  0
XRECORD
  5
1FB
330
1DF
100
AcDbXrecord
280
1
 90
0
  0
XRECORD
  5
1FC
330
1DF
100
AcDbXrecord
280
1
 90
0
  0
XRECORD
  5
1FD
330
1DF
100
AcDbXrecord
280
1
 90
0
  0
XRECORD
  5
1FE
330
1DF
100
AcDbXrecord
280
1
1000
auto
  0
XRECORD
  5
1FF
330
1DF
100
AcDbXrecord
280
1
1000
auto
  0
XRECORD
  5
200
330
1DF
100
AcDbXrecord
280
1
1000
auto
  0
XRECORD
  5
201
330
1DF
100
AcDbXrecord
280
1
1000
auto
  0
XRECORD
  5
202
330
1DF
100
AcDbXrecord
280
1
1000
auto
  0
XRECORD
  5
203
330
1DF
100
AcDbXrecord
280
1
1000
auto
  0
XRECORD
  5
204
330
1DF
100
AcDbXrecord
280
1
1000
auto
  0
XRECORD
  5
205
330
1DF
100
AcDbXrecord
280
1
1000
auto
  0
XRECORD
  5
206
330
1DF
100
AcDbXrecord
280
1
 90
1
  0
XRECORD
  5
207
330
1DF
100
AcDbXrecord
280
1
 40
10.0
  0
XRECORD
  5
208
330
1DF
100
AcDbXrecord
280
1
 40
10.0
  0
XRECORD
  5
209
330
1DF
100
AcDbXrecord
280
1
 40
10.0
  0
XRECORD
  5
20A
330
1DF
100
AcDbXrecord
280
1
 40
10.0
  0
XRECORD
  5
20B
330
1DF
100
AcDbXrecord
280
1
290
0
  0
XRECORD
  5
20C
330
1DF
100
AcDbXrecord
280
1
 90
1
  0
XRECORD
  5
20D
330
1DF
100
AcDbXrecord
280
1
 40
0.0
  0
XRECORD
  5
20E
330
1DF
100
AcDbXrecord
280
1
 40
0.0
  0
XRECORD
  5
20F
330
1DF
100
AcDbXrecord
280
1
1000
Portrait
  0
XRECORD
  5
210
330
1DF
100
AcDbXrecord
280
1
 40
297.0
  0
XRECORD
  5
211
330
1DF
100
AcDbXrecord
280
1
 40
210.0
  0
XRECORD
  5
212
330
1DF
100
AcDbXrecord
280
1
1000
1:1
  0
XRECORD
  5
213
330
1DF
100
AcDbXrecord
280
1
290
1
  0
XRECORD
  5
214
330
1DF
100
AcDbXrecord
280
1
1000
3.15.2
  0
XRECORD
  5
215
330
1DF
100
AcDbXrecord
280
1
 90
4
  0
XRECORD
  5
217
330
1DF
100
AcDbXrecord
280
1
 40
1286.0462001153350684
  0
XRECORD
  5
218
330
1DF
100
AcDbXrecord
280
1
 40
1948.646115865624779
  0
ENDSEC
  0
EOF
