999
dxflib 3.12.2.0
  0
SECTION
  2
HEADER
  9
$ACADVER
  1
AC1015
  9
$HANDSEED
  5
FFFF
  9
$DIMADEC
 70
0
  9
$DIMASZ
 40
2.5
  9
$DIMAUNIT
 70
0
  9
$DIMAZIN
 70
2
  9
$DIMDEC
 70
4
  9
$DIMEXE
 40
1.25
  9
$DIMEXO
 40
0.625
  9
$DIMGAP
 40
0.625
  9
$DIMLUNIT
 70
2
  9
$DIMSCALE
 40
1.0
  9
$DIMTSZ
 40
0.0
  9
$DIMTXT
 40
2.5
  9
$DIMZIN
 70
8
  9
$DWGCODEPAGE
  3
ANSI_1252
  9
$INSUNITS
 70
4
  9
$LTSCALE
 40
1.0
  9
$MEASUREMENT
 70
1
  9
$PDMODE
 70
0
  9
$PDSIZE
 40
0
  0
ENDSEC
  0
SECTION
  2
TABLES
  0
TABLE
  2
VPORT
  5
8
100
AcDbSymbolTable
 70
1
  0
VPORT
  5
30
100
AcDbSymbolTableRecord
100
AcDbViewportTableRecord
  2
*Active
 70
0
 10
0.0
 20
0.0
 11
1.0
 21
1.0
 12
286.3055555555554861
 22
148.5
 13
0.0
 23
0.0
 14
10.0
 24
10.0
 15
10.0
 25
10.0
 16
0.0
 26
0.0
 36
1.0
 17
0.0
 27
0.0
 37
0.0
 40
297.0
 41
1.92798353909465
 42
50.0
 43
0.0
 44
0.0
 50
0.0
 51
0.0
 71
0
 72
100
 73
1
 74
3
 75
1
 76
1
 77
0
 78
0
281
0
 65
1
110
0.0
120
0.0
130
0.0
111
1.0
121
0.0
131
0.0
112
0.0
122
1.0
132
0.0
 79
0
146
0.0
  0
ENDTAB
  0
TABLE
  2
LTYPE
  5
5
100
AcDbSymbolTable
 70
41
  0
LTYPE
  5
16
100
AcDbSymbolTableRecord
100
AcDbLinetypeTableRecord
  2
Continuous
 70
0
  3
Solid line
 72
65
 73
0
 40
0.0
  0
LTYPE
  5
31
100
AcDbSymbolTableRecord
100
AcDbLinetypeTableRecord
  2
ACAD_ISO15W100
 70
0
  3
ISO double-dash triple-dot __ __ . . . __ __ . .
 72
65
 73
10
 40
39.0
 49
12.0
 74
0
 49
-3.0
 74
0
 49
12.0
 74
0
 49
-3.0
 74
0
 49
0.0
 74
0
 49
-3.0
 74
0
 49
0.0
 74
0
 49
-3.0
 74
0
 49
0.0
 74
0
 49
-3.0
 74
0
  0
LTYPE
  5
32
100
AcDbSymbolTableRecord
100
AcDbLinetypeTableRecord
  2
DIVIDE
 70
0
  3
Divide ____ . . ____ . . ____ . . ____ . . ____
 72
65
 73
6
 40
31.75
 49
12.6999999999999993
 74
0
 49
-6.3499999999999996
 74
0
 49
0.0
 74
0
 49
-6.3499999999999996
 74
0
 49
0.0
 74
0
 49
-6.3499999999999996
 74
0
  0
LTYPE
  5
33
100
AcDbSymbolTableRecord
100
AcDbLinetypeTableRecord
  2
ACAD_ISO10W100
 70
0
  3
ISO dash dot __ . __ . __ . __ . __ . __ . __ . 
 72
65
 73
4
 40
18.0
 49
12.0
 74
0
 49
-3.0
 74
0
 49
0.0
 74
0
 49
-3.0
 74
0
  0
LTYPE
  5
34
100
AcDbSymbolTableRecord
100
AcDbLinetypeTableRecord
  2
ACAD_ISO04W100
 70
0
  3
ISO long-dash dot ____ . ____ . ____ . ____ . _
 72
65
 73
4
 40
30.0
 49
24.0
 74
0
 49
-3.0
 74
0
 49
0.0
 74
0
 49
-3.0
 74
0
  0
LTYPE
  5
35
100
AcDbSymbolTableRecord
100
AcDbLinetypeTableRecord
  2
CENTER2
 70
0
  3
Center (.5x) ___ _ ___ _ ___ _ ___ _ ___ _ ___
 72
65
 73
4
 40
28.5749999999999993
 49
19.0500000000000007
 74
0
 49
-3.1749999999999998
 74
0
 49
3.1749999999999998
 74
0
 49
-3.1749999999999998
 74
0
  0
LTYPE
  5
36
100
AcDbSymbolTableRecord
100
AcDbLinetypeTableRecord
  2
ACAD_ISO11W100
 70
0
  3
ISO double-dash dot __ __ . __ __ . __ __ . __ _
 72
65
 73
6
 40
33.0
 49
12.0
 74
0
 49
-3.0
 74
0
 49
12.0
 74
0
 49
-3.0
 74
0
 49
0.0
 74
0
 49
-3.0
 74
0
  0
LTYPE
  5
37
100
AcDbSymbolTableRecord
100
AcDbLinetypeTableRecord
  2
HIDDEN2
 70
0
  3
Hidden (.5x) _ _ _ _ _ _ _ _ _ _ _ _ _ _ _ _ _ 
 72
65
 73
2
 40
4.7624999999999993
 49
3.1749999999999998
 74
0
 49
-1.5874999999999999
 74
0
  0
LTYPE
  5
38
100
AcDbSymbolTableRecord
100
AcDbLinetypeTableRecord
  2
BORDERX2
 70
0
  3
Border (2x) ____  ____  .  ____  ____  .  ___
 72
65
 73
6
 40
88.8999999999999915
 49
25.3999999999999986
 74
0
 49
-12.6999999999999993
 74
0
 49
25.3999999999999986
 74
0
 49
-12.6999999999999993
 74
0
 49
0.0
 74
0
 49
-12.6999999999999993
 74
0
  0
LTYPE
  5
39
100
AcDbSymbolTableRecord
100
AcDbLinetypeTableRecord
  2
ACAD_ISO05W100
 70
0
  3
ISO long-dash double-dot ____ .. ____ .. ____ . 
 72
65
 73
6
 40
33.0
 49
24.0
 74
0
 49
-3.0
 74
0
 49
0.0
 74
0
 49
-3.0
 74
0
 49
0.0
 74
0
 49
-3.0
 74
0
  0
LTYPE
  5
3A
100
AcDbSymbolTableRecord
100
AcDbLinetypeTableRecord
  2
DASHDOTX2
 70
0
  3
Dash dot (2x) ____  .  ____  .  ____  .  ___
 72
65
 73
4
 40
50.7999999999999972
 49
25.3999999999999986
 74
0
 49
-12.6999999999999993
 74
0
 49
0.0
 74
0
 49
-12.6999999999999993
 74
0
  0
LTYPE
  5
3B
100
AcDbSymbolTableRecord
100
AcDbLinetypeTableRecord
  2
HIDDENX2
 70
0
  3
Hidden (2x) ____ ____ ____ ____ ____ ____ ____ 
 72
65
 73
2
 40
19.0499999999999972
 49
12.6999999999999993
 74
0
 49
-6.3499999999999996
 74
0
  0
LTYPE
  5
3C
100
AcDbSymbolTableRecord
100
AcDbLinetypeTableRecord
  2
CENTERX2
 70
0
  3
Center (2x) ________  __  ________  __  _____
 72
65
 73
4
 40
101.5999999999999943
 49
63.5
 74
0
 49
-12.6999999999999993
 74
0
 49
12.6999999999999993
 74
0
 49
-12.6999999999999993
 74
0
  0
LTYPE
  5
3D
100
AcDbSymbolTableRecord
100
AcDbLinetypeTableRecord
  2
BORDER2
 70
0
  3
Border (.5x) __.__.__.__.__.__.__.__.__.__.__.
 72
65
 73
6
 40
22.2249999999999979
 49
6.3499999999999996
 74
0
 49
-3.1749999999999998
 74
0
 49
6.3499999999999996
 74
0
 49
-3.1749999999999998
 74
0
 49
0.0
 74
0
 49
-3.1749999999999998
 74
0
  0
LTYPE
  5
3E
100
AcDbSymbolTableRecord
100
AcDbLinetypeTableRecord
  2
DASHDOT2
 70
0
  3
Dash dot (.5x) _._._._._._._._._._._._._._._.
 72
65
 73
4
 40
12.6999999999999993
 49
6.3499999999999996
 74
0
 49
-3.1749999999999998
 74
0
 49
0.0
 74
0
 49
-3.1749999999999998
 74
0
  0
LTYPE
  5
3F
100
AcDbSymbolTableRecord
100
AcDbLinetypeTableRecord
  2
ACAD_ISO12W100
 70
0
  3
ISO dash double-dot __ . . __ . . __ . . __ . . 
 72
65
 73
6
 40
21.0
 49
12.0
 74
0
 49
-3.0
 74
0
 49
0.0
 74
0
 49
-3.0
 74
0
 49
0.0
 74
0
 49
-3.0
 74
0
  0
LTYPE
  5
40
100
AcDbSymbolTableRecord
100
AcDbLinetypeTableRecord
  2
ACAD_ISO07W100
 70
0
  3
ISO dot . . . . . . . . . . . . . . . . . . . . 
 72
65
 73
2
 40
3.0
 49
0.0
 74
0
 49
-3.0
 74
0
  0
LTYPE
  5
41
100
AcDbSymbolTableRecord
100
AcDbLinetypeTableRecord
  2
HIDDEN
 70
0
  3
Hidden __ __ __ __ __ __ __ __ __ __ __ __ __ __
 72
65
 73
2
 40
9.5249999999999986
 49
6.3499999999999996
 74
0
 49
-3.1749999999999998
 74
0
  0
LTYPE
  5
42
100
AcDbSymbolTableRecord
100
AcDbLinetypeTableRecord
  2
ACAD_ISO06W100
 70
0
  3
ISO long-dash triple-dot ____ ... ____ ... ____
 72
65
 73
8
 40
36.0
 49
24.0
 74
0
 49
-3.0
 74
0
 49
0.0
 74
0
 49
-3.0
 74
0
 49
0.0
 74
0
 49
-3.0
 74
0
 49
0.0
 74
0
 49
-3.0
 74
0
  0
LTYPE
  5
43
100
AcDbSymbolTableRecord
100
AcDbLinetypeTableRecord
  2
CENTER
 70
0
  3
Center ____ _ ____ _ ____ _ ____ _ ____ _ ____
 72
65
 73
4
 40
50.7999999999999972
 49
31.75
 74
0
 49
-6.3499999999999996
 74
0
 49
6.3499999999999996
 74
0
 49
-6.3499999999999996
 74
0
  0
LTYPE
  5
44
100
AcDbSymbolTableRecord
100
AcDbLinetypeTableRecord
  2
DOTX2
 70
0
  3
Dot (2x) .  .  .  .  .  .  .  .  .  .  .  .  .  .
 72
65
 73
2
 40
12.6999999999999993
 49
0.0
 74
0
 49
-12.6999999999999993
 74
0
  0
LTYPE
  5
45
100
AcDbSymbolTableRecord
100
AcDbLinetypeTableRecord
  2
PHANTOM
 70
0
  3
Phantom ______  __  __  ______  __  __  ______ 
 72
65
 73
6
 40
63.5
 49
31.75
 74
0
 49
-6.3499999999999996
 74
0
 49
6.3499999999999996
 74
0
 49
-6.3499999999999996
 74
0
 49
6.3499999999999996
 74
0
 49
-6.3499999999999996
 74
0
  0
LTYPE
  5
46
100
AcDbSymbolTableRecord
100
AcDbLinetypeTableRecord
  2
ACAD_ISO08W100
 70
0
  3
ISO long-dash short-dash ____ __ ____ __ ____ _
 72
65
 73
4
 40
36.0
 49
24.0
 74
0
 49
-3.0
 74
0
 49
6.0
 74
0
 49
-3.0
 74
0
  0
LTYPE
  5
47
100
AcDbSymbolTableRecord
100
AcDbLinetypeTableRecord
  2
DASHEDX2
 70
0
  3
Dashed (2x) ____  ____  ____  ____  ____  ___
 72
65
 73
2
 40
38.0999999999999943
 49
25.3999999999999986
 74
0
 49
-12.6999999999999993
 74
0
  0
LTYPE
  5
48
100
AcDbSymbolTableRecord
100
AcDbLinetypeTableRecord
  2
ACAD_ISO02W100
 70
0
  3
ISO dash __ __ __ __ __ __ __ __ __ __ __ __ __
 72
65
 73
2
 40
15.0
 49
12.0
 74
0
 49
-3.0
 74
0
  0
LTYPE
  5
49
100
AcDbSymbolTableRecord
100
AcDbLinetypeTableRecord
  2
PHANTOM2
 70
0
  3
Phantom (.5x) ___ _ _ ___ _ _ ___ _ _ ___ _ _
 72
65
 73
6
 40
31.75
 49
15.875
 74
0
 49
-3.1749999999999998
 74
0
 49
3.1749999999999998
 74
0
 49
-3.1749999999999998
 74
0
 49
3.1749999999999998
 74
0
 49
-3.1749999999999998
 74
0
  0
LTYPE
  5
4A
100
AcDbSymbolTableRecord
100
AcDbLinetypeTableRecord
  2
DASHED2
 70
0
  3
Dashed (.5x) _ _ _ _ _ _ _ _ _ _ _ _ _ _ _ _ _ 
 72
65
 73
2
 40
9.5249999999999986
 49
6.3499999999999996
 74
0
 49
-3.1749999999999998
 74
0
  0
LTYPE
  5
4B
100
AcDbSymbolTableRecord
100
AcDbLinetypeTableRecord
  2
ACAD_ISO09W100
 70
0
  3
ISO long-dash double-short-dash ____ __ __ ____
 72
65
 73
6
 40
45.0
 49
24.0
 74
0
 49
-3.0
 74
0
 49
6.0
 74
0
 49
-3.0
 74
0
 49
6.0
 74
0
 49
-3.0
 74
0
  0
LTYPE
  5
4C
100
AcDbSymbolTableRecord
100
AcDbLinetypeTableRecord
  2
ACAD_ISO13W100
 70
0
  3
ISO double-dash double-dot __ __ . . __ __ . . _
 72
65
 73
8
 40
36.0
 49
12.0
 74
0
 49
-3.0
 74
0
 49
12.0
 74
0
 49
-3.0
 74
0
 49
0.0
 74
0
 49
-3.0
 74
0
 49
0.0
 74
0
 49
-3.0
 74
0
  0
LTYPE
  5
4D
100
AcDbSymbolTableRecord
100
AcDbLinetypeTableRecord
  2
DOT2
 70
0
  3
Dot (.5x) ........................................
 72
65
 73
2
 40
3.1749999999999998
 49
0.0
 74
0
 49
-3.1749999999999998
 74
0
  0
LTYPE
  5
4E
100
AcDbSymbolTableRecord
100
AcDbLinetypeTableRecord
  2
DASHED
 70
0
  3
Dashed __ __ __ __ __ __ __ __ __ __ __ __ __ _
 72
65
 73
2
 40
19.0499999999999972
 49
12.6999999999999993
 74
0
 49
-6.3499999999999996
 74
0
  0
LTYPE
  5
4F
100
AcDbSymbolTableRecord
100
AcDbLinetypeTableRecord
  2
ACAD_ISO14W100
 70
0
  3
ISO dash triple-dot __ . . . __ . . . __ . . . _
 72
65
 73
8
 40
24.0
 49
12.0
 74
0
 49
-3.0
 74
0
 49
0.0
 74
0
 49
-3.0
 74
0
 49
0.0
 74
0
 49
-3.0
 74
0
 49
0.0
 74
0
 49
-3.0
 74
0
  0
LTYPE
  5
15
100
AcDbSymbolTableRecord
100
AcDbLinetypeTableRecord
  2
BYLAYER
 70
0
  3

 72
65
 73
0
 40
0.0
  0
LTYPE
  5
50
100
AcDbSymbolTableRecord
100
AcDbLinetypeTableRecord
  2
PHANTOMX2
 70
0
  3
Phantom (2x) ____________    ____    ____   _
 72
65
 73
6
 40
127.0
 49
63.5
 74
0
 49
-12.6999999999999993
 74
0
 49
12.6999999999999993
 74
0
 49
-12.6999999999999993
 74
0
 49
12.6999999999999993
 74
0
 49
-12.6999999999999993
 74
0
  0
LTYPE
  5
14
100
AcDbSymbolTableRecord
100
AcDbLinetypeTableRecord
  2
BYBLOCK
 70
0
  3

 72
65
 73
0
 40
0.0
  0
LTYPE
  5
51
100
AcDbSymbolTableRecord
100
AcDbLinetypeTableRecord
  2
DIVIDEX2
 70
0
  3
Divide (2x) ________  .  .  ________  .  .  _
 72
65
 73
6
 40
63.5
 49
25.3999999999999986
 74
0
 49
-12.6999999999999993
 74
0
 49
0.0
 74
0
 49
-12.6999999999999993
 74
0
 49
0.0
 74
0
 49
-12.6999999999999993
 74
0
  0
LTYPE
  5
52
100
AcDbSymbolTableRecord
100
AcDbLinetypeTableRecord
  2
BORDER
 70
0
  3
Border __ __ . __ __ . __ __ . __ __ . __ __ .
 72
65
 73
6
 40
44.4499999999999957
 49
12.6999999999999993
 74
0
 49
-6.3499999999999996
 74
0
 49
12.6999999999999993
 74
0
 49
-6.3499999999999996
 74
0
 49
0.0
 74
0
 49
-6.3499999999999996
 74
0
  0
LTYPE
  5
53
100
AcDbSymbolTableRecord
100
AcDbLinetypeTableRecord
  2
DIVIDE2
 70
0
  3
Divide (.5x) __..__..__..__..__..__..__..__.._
 72
65
 73
6
 40
15.875
 49
6.3499999999999996
 74
0
 49
-3.1749999999999998
 74
0
 49
0.0
 74
0
 49
-3.1749999999999998
 74
0
 49
0.0
 74
0
 49
-3.1749999999999998
 74
0
  0
LTYPE
  5
54
100
AcDbSymbolTableRecord
100
AcDbLinetypeTableRecord
  2
DOT
 70
0
  3
Dot . . . . . . . . . . . . . . . . . . . . . . . .
 72
65
 73
2
 40
6.3499999999999996
 49
0.0
 74
0
 49
-6.3499999999999996
 74
0
  0
LTYPE
  5
55
100
AcDbSymbolTableRecord
100
AcDbLinetypeTableRecord
  2
DASHDOT
 70
0
  3
Dash dot __ . __ . __ . __ . __ . __ . __ . __
 72
65
 73
4
 40
25.3999999999999986
 49
12.6999999999999993
 74
0
 49
-6.3499999999999996
 74
0
 49
0.0
 74
0
 49
-6.3499999999999996
 74
0
  0
LTYPE
  5
56
100
AcDbSymbolTableRecord
100
AcDbLinetypeTableRecord
  2
ACAD_ISO03W100
 70
0
  3
ISO dash space __    __    __    __    __    __
 72
65
 73
2
 40
30.0
 49
12.0
 74
0
 49
-18.0
 74
0
  0
ENDTAB
  0
TABLE
  2
LAYER
  5
2
100
AcDbSymbolTable
 70
16
  0
LAYER
  5
57
100
AcDbSymbolTableRecord
100
AcDbLayerTableRecord
  2
MaxTheoriqueToit
 70
1
 62
-3
420
65280
  6
Continuous
370
25
390
F
  0
LAYER
  5
58
100
AcDbSymbolTableRecord
100
AcDbLayerTableRecord
  2
OSB18
 70
0
 62
2
420
16776960
  6
Continuous
370
25
390
F
  0
LAYER
  5
59
100
AcDbSymbolTableRecord
100
AcDbLayerTableRecord
  2
Faitage
 70
0
 62
7
420
0
  6
Continuous
370
25
390
F
  0
LAYER
  5
5A
100
AcDbSymbolTableRecord
100
AcDbLayerTableRecord
  2
ConnexionHauteDuPoele
 70
0
 62
7
420
0
  6
Continuous
370
25
390
F
  0
LAYER
  5
5B
100
AcDbSymbolTableRecord
100
AcDbLayerTableRecord
  2
PoujoulatTripleNoir
 70
0
 62
7
420
0
  6
Continuous
370
25
390
F
  0
LAYER
  5
5C
100
AcDbSymbolTableRecord
100
AcDbLayerTableRecord
  2
lambourdes+resiliente
 70
0
 62
1
420
16711680
  6
Continuous
370
25
390
F
  0
LAYER
  5
5D
100
AcDbSymbolTableRecord
100
AcDbLayerTableRecord
  2
HautDuPoele
 70
0
 62
7
420
0
  6
Continuous
370
25
390
F
  0
LAYER
  5
5E
100
AcDbSymbolTableRecord
100
AcDbLayerTableRecord
  2
ParePluie
 70
0
 62
9
420
12632256
  6
Continuous
370
25
390
F
  0
LAYER
  5
5F
100
AcDbSymbolTableRecord
100
AcDbLayerTableRecord
  2
1mfaitage
 70
1
 62
-6
420
16711935
  6
Continuous
370
25
390
F
  0
LAYER
  5
60
100
AcDbSymbolTableRecord
100
AcDbLayerTableRecord
  2
OSB18Platelage
 70
0
 62
30
420
16744192
  6
Continuous
370
25
390
F
  0
LAYER
  5
61
100
AcDbSymbolTableRecord
100
AcDbLayerTableRecord
  2
400faitage
 70
0
 62
7
420
0
  6
Continuous
370
25
390
F
  0
LAYER
  5
62
100
AcDbSymbolTableRecord
100
AcDbLayerTableRecord
  2
parquet
 70
0
 62
30
420
16744192
  6
Continuous
370
25
390
F
  0
LAYER
  5
63
100
AcDbSymbolTableRecord
100
AcDbLayerTableRecord
  2
plaque verre
 70
0
 62
7
420
0
  6
Continuous
370
25
390
F
  0
LAYER
  5
10
100
AcDbSymbolTableRecord
100
AcDbLayerTableRecord
  2
0
 70
0
 62
7
420
16777215
  6
Continuous
370
25
390
F
  0
LAYER
  5
64
100
AcDbSymbolTableRecord
100
AcDbLayerTableRecord
  2
PoujoulatTripleInox
 70
0
 62
252
420
10526884
  6
Continuous
370
25
390
F
  0
LAYER
  5
65
100
AcDbSymbolTableRecord
100
AcDbLayerTableRecord
  2
faux-plafond
 70
0
 62
14
420
8388608
  6
Continuous
370
25
390
F
  0
ENDTAB
  0
TABLE
  2
STYLE
  5
3
100
AcDbSymbolTable
 70
11
  0
STYLE
  5
66
100
AcDbSymbolTableRecord
100
AcDbTextStyleTableRecord
  2
Standard
 70
0
 40
0.0
 41
1.0
 50
0.0
 71
0
 42
2.5
  3

  4

1001
ACAD
1000
txt
1071
0
  0
STYLE
  5
67
100
AcDbSymbolTableRecord
100
AcDbTextStyleTableRecord
  2
textstyle0
 70
0
 40
0.0
 41
1.0
 50
0.0
 71
0
 42
100.0
  3

  4

1001
ACAD
1000
Liberation Sans
1071
0
  0
STYLE
  5
68
100
AcDbSymbolTableRecord
100
AcDbTextStyleTableRecord
  2
textstyle1
 70
0
 40
0.0
 41
1.0
 50
0.0
 71
0
 42
100.0
  3

  4

1001
ACAD
1000
Liberation Sans
1071
0
  0
STYLE
  5
69
100
AcDbSymbolTableRecord
100
AcDbTextStyleTableRecord
  2
textstyle2
 70
0
 40
0.0
 41
1.0
 50
0.0
 71
0
 42
100.0
  3

  4

1001
ACAD
1000
Liberation Sans
1071
0
  0
STYLE
  5
6A
100
AcDbSymbolTableRecord
100
AcDbTextStyleTableRecord
  2
textstyle3
 70
0
 40
0.0
 41
1.0
 50
0.0
 71
0
 42
100.0
  3

  4

1001
ACAD
1000
Liberation Sans
1071
0
  0
STYLE
  5
6B
100
AcDbSymbolTableRecord
100
AcDbTextStyleTableRecord
  2
textstyle4
 70
0
 40
0.0
 41
1.0
 50
0.0
 71
0
 42
100.0
  3

  4

1001
ACAD
1000
Liberation Sans
1071
0
  0
STYLE
  5
6C
100
AcDbSymbolTableRecord
100
AcDbTextStyleTableRecord
  2
textstyle5
 70
0
 40
0.0
 41
1.0
 50
0.0
 71
0
 42
100.0
  3

  4

1001
ACAD
1000
Liberation Sans
1071
0
  0
STYLE
  5
6D
100
AcDbSymbolTableRecord
100
AcDbTextStyleTableRecord
  2
textstyle6
 70
0
 40
0.0
 41
1.0
 50
0.0
 71
0
 42
100.0
  3

  4

1001
ACAD
1000
Liberation Sans
1071
0
  0
STYLE
  5
6E
100
AcDbSymbolTableRecord
100
AcDbTextStyleTableRecord
  2
textstyle7
 70
0
 40
0.0
 41
1.0
 50
0.0
 71
0
 42
60.0
  3

  4

1001
ACAD
1000
Liberation Sans
1071
0
  0
STYLE
  5
6F
100
AcDbSymbolTableRecord
100
AcDbTextStyleTableRecord
  2
textstyle8
 70
0
 40
0.0
 41
1.0
 50
0.0
 71
0
 42
60.0
  3

  4

1001
ACAD
1000
Liberation Sans
1071
0
  0
STYLE
  5
70
100
AcDbSymbolTableRecord
100
AcDbTextStyleTableRecord
  2
textstyle9
 70
0
 40
0.0
 41
1.0
 50
0.0
 71
0
 42
60.0
  3

  4

1001
ACAD
1000
Liberation Sans
1071
0
  0
ENDTAB
  0
TABLE
  2
VIEW
  5
6
100
AcDbSymbolTable
 70
0
  0
ENDTAB
  0
TABLE
  2
UCS
  5
7
100
AcDbSymbolTable
 70
0
  0
ENDTAB
  0
TABLE
  2
APPID
  5
9
100
AcDbSymbolTable
 70
1
  0
APPID
  5
12
100
AcDbSymbolTableRecord
100
AcDbRegAppTableRecord
  2
ACAD
 70
0
  0
APPID
  5
71
100
AcDbSymbolTableRecord
100
AcDbRegAppTableRecord
  2
QCAD
 70
0
  0
ENDTAB
  0
TABLE
  2
DIMSTYLE
  5
A
100
AcDbSymbolTable
 70
1
100
AcDbDimStyleTable
 71
0
  0
DIMSTYLE
105
27
100
AcDbSymbolTableRecord
100
AcDbDimStyleTableRecord
  2
Standard
 41
2.5
 42
0.625
 43
3.75
 44
1.25
 70
0
 73
0
 74
0
 77
1
 78
8
140
2.5
141
2.5
143
0.03937007874016
147
0.625
171
3
172
1
271
2
272
2
274
3
278
44
283
0
284
8
340
66
  0
ENDTAB
  0
TABLE
  2
BLOCK_RECORD
  5
1
100
AcDbSymbolTable
 70
1
  0
BLOCK_RECORD
  5
1F
100
AcDbSymbolTableRecord
100
AcDbBlockTableRecord
  2
*Model_Space
340
22
  0
BLOCK_RECORD
  5
1B
100
AcDbSymbolTableRecord
100
AcDbBlockTableRecord
  2
*Paper_Space
340
1E
  0
BLOCK_RECORD
  5
23
100
AcDbSymbolTableRecord
100
AcDbBlockTableRecord
  2
*Paper_Space0
340
26
  0
BLOCK_RECORD
  5
72
100
AcDbSymbolTableRecord
100
AcDbBlockTableRecord
  2
AdaptInt
340
0
  0
BLOCK_RECORD
  5
73
100
AcDbSymbolTableRecord
100
AcDbBlockTableRecord
  2
AdaptBuse
340
0
  0
BLOCK_RECORD
  5
74
100
AcDbSymbolTableRecord
100
AcDbBlockTableRecord
  2
ElementReglableInt
340
0
  0
BLOCK_RECORD
  5
75
100
AcDbSymbolTableRecord
100
AcDbBlockTableRecord
  2
25Int
340
0
  0
BLOCK_RECORD
  5
76
100
AcDbSymbolTableRecord
100
AcDbBlockTableRecord
  2
115Int
340
0
  0
BLOCK_RECORD
  5
77
100
AcDbSymbolTableRecord
100
AcDbBlockTableRecord
  2
25Ext
340
0
  0
BLOCK_RECORD
  5
78
100
AcDbSymbolTableRecord
100
AcDbBlockTableRecord
  2
10Int
340
0
  0
BLOCK_RECORD
  5
79
100
AcDbSymbolTableRecord
100
AcDbBlockTableRecord
  2
115Ext
340
0
  0
BLOCK_RECORD
  5
7A
100
AcDbSymbolTableRecord
100
AcDbBlockTableRecord
  2
45Ext
340
0
  0
ENDTAB
  0
ENDSEC
  0
SECTION
  2
BLOCKS
  0
BLOCK
  5
20
100
AcDbEntity
  8
0
100
AcDbBlockBegin
  2
*Model_Space
 70
0
 10
0.0
 20
0.0
 30
0.0
  3
*Model_Space
  1

  0
ENDBLK
  5
21
100
AcDbEntity
  8
0
100
AcDbBlockEnd
  0
BLOCK
  5
1C
100
AcDbEntity
 67
1
  8
0
100
AcDbBlockBegin
  2
*Paper_Space
 70
0
 10
0.0
 20
0.0
 30
0.0
  3
*Paper_Space
  1

  0
ENDBLK
  5
1D
100
AcDbEntity
 67
1
  8
0
100
AcDbBlockEnd
  0
BLOCK
  5
24
100
AcDbEntity
  8
0
100
AcDbBlockBegin
  2
*Paper_Space0
 70
0
 10
0.0
 20
0.0
 30
0.0
  3
*Paper_Space0
  1

  0
ENDBLK
  5
25
100
AcDbEntity
  8
0
100
AcDbBlockEnd
  0
BLOCK
  5
7B
100
AcDbEntity
  8
0
100
AcDbBlockBegin
  2
AdaptInt
 70
0
 10
0.0
 20
0.0
 30
0.0
  3
AdaptInt
  1

  0
LINE
  5
7C
100
AcDbEntity
100
AcDbLine
  8
PoujoulatTripleNoir
 62
256
370
-1
 48
1.0
  6
BYLAYER
 10
0.0
 20
0.0
 30
0.0
 11
0.0
 21
495.0
 31
0.0
  0
LINE
  5
7D
100
AcDbEntity
100
AcDbLine
  8
PoujoulatTripleNoir
 62
256
370
-1
 48
1.0
  6
BYLAYER
 10
255.0
 20
0.0
 30
0.0
 11
255.0
 21
495.0
 31
0.0
  0
LINE
  5
7E
100
AcDbEntity
100
AcDbLine
  8
PoujoulatTripleNoir
 62
256
370
-1
 48
1.0
  6
BYLAYER
 10
0.0
 20
0.0
 30
0.0
 11
255.0
 21
0.0
 31
0.0
  0
LINE
  5
7F
100
AcDbEntity
100
AcDbLine
  8
PoujoulatTripleNoir
 62
256
370
-1
 48
1.0
  6
BYLAYER
 10
0.0
 20
495.0
 30
0.0
 11
255.0
 21
495.0
 31
0.0
  0
LINE
  5
80
100
AcDbEntity
100
AcDbLine
  8
PoujoulatTripleNoir
 62
256
370
-1
 48
1.0
  6
BYLAYER
 10
52.0
 20
-5.0
 30
0.0
 11
202.0
 21
-5.0
 31
0.0
  0
LINE
  5
81
100
AcDbEntity
100
AcDbLine
  8
PoujoulatTripleNoir
 62
256
370
-1
 48
1.0
  6
BYLAYER
 10
52.0
 20
-5.0
 30
0.0
 11
52.0
 21
0.0
 31
0.0
  0
LINE
  5
82
100
AcDbEntity
100
AcDbLine
  8
PoujoulatTripleNoir
 62
256
370
-1
 48
1.0
  6
BYLAYER
 10
202.0
 20
-5.0
 30
0.0
 11
202.0
 21
0.0
 31
0.0
  0
LINE
  5
83
100
AcDbEntity
100
AcDbLine
  8
PoujoulatTripleNoir
 62
256
370
-1
 48
1.0
  6
BYLAYER
 10
255.0
 20
80.0
 30
0.0
 11
407.7350647362945892
 21
-72.7350647362945892
 31
0.0
  0
LINE
  5
84
100
AcDbEntity
100
AcDbLine
  8
PoujoulatTripleNoir
 62
256
370
-1
 48
1.0
  6
BYLAYER
 10
255.0
 20
198.793939239340034
 30
0.0
 11
467.1320343559646062
 21
-13.3380951166245723
 31
0.0
  0
LINE
  5
85
100
AcDbEntity
100
AcDbLine
  8
PoujoulatTripleNoir
 62
256
370
-1
 48
1.0
  6
BYLAYER
 10
467.1320343559641515
 20
-13.3380951166245723
 30
0.0
 11
407.7350647362945892
 21
-72.7350647362945892
 31
0.0
  0
ENDBLK
  5
86
100
AcDbEntity
  8
0
100
AcDbBlockEnd
  0
BLOCK
  5
87
100
AcDbEntity
  8
0
100
AcDbBlockBegin
  2
AdaptBuse
 70
0
 10
0.0
 20
0.0
 30
0.0
  3
AdaptBuse
  1

  0
LINE
  5
88
100
AcDbEntity
100
AcDbLine
  8
PoujoulatTripleNoir
 62
256
370
-1
 48
1.0
  6
BYLAYER
 10
0.0
 20
0.0
 30
0.0
 11
0.0
 21
115.0
 31
0.0
  0
LINE
  5
89
100
AcDbEntity
100
AcDbLine
  8
PoujoulatTripleNoir
 62
256
370
-1
 48
1.0
  6
BYLAYER
 10
150.0
 20
0.0
 30
0.0
 11
150.0
 21
115.0
 31
0.0
  0
LINE
  5
8A
100
AcDbEntity
100
AcDbLine
  8
PoujoulatTripleNoir
 62
256
370
-1
 48
1.0
  6
BYLAYER
 10
0.0
 20
0.0
 30
0.0
 11
150.0
 21
0.0
 31
0.0
  0
LINE
  5
8B
100
AcDbEntity
100
AcDbLine
  8
PoujoulatTripleNoir
 62
256
370
-1
 48
1.0
  6
BYLAYER
 10
0.0
 20
115.0
 30
0.0
 11
150.0
 21
115.0
 31
0.0
  0
ENDBLK
  5
8C
100
AcDbEntity
  8
0
100
AcDbBlockEnd
  0
BLOCK
  5
8D
100
AcDbEntity
  8
0
100
AcDbBlockBegin
  2
ElementReglableInt
 70
0
 10
0.0
 20
0.0
 30
0.0
  3
ElementReglableInt
  1

  0
LINE
  5
8E
100
AcDbEntity
100
AcDbLine
  8
PoujoulatTripleNoir
 62
256
370
-1
 48
1.0
  6
BYLAYER
 10
0.0
 20
0.0
 30
0.0
 11
0.0
 21
949.9999999999998863
 31
0.0
  0
LINE
  5
8F
100
AcDbEntity
100
AcDbLine
  8
PoujoulatTripleNoir
 62
256
370
-1
 48
1.0
  6
BYLAYER
 10
255.0
 20
0.0
 30
0.0
 11
255.0
 21
949.9999999999998863
 31
0.0
  0
LINE
  5
90
100
AcDbEntity
100
AcDbLine
  8
PoujoulatTripleNoir
 62
256
370
-1
 48
1.0
  6
BYLAYER
 10
0.0
 20
0.0
 30
0.0
 11
255.0
 21
0.0
 31
0.0
  0
LINE
  5
91
100
AcDbEntity
100
AcDbLine
  8
PoujoulatTripleNoir
 62
256
370
-1
 48
1.0
  6
DASHDOTX2
 10
0.0000000000000083
 20
785.0
 30
0.0
 11
255.0
 21
785.0
 31
0.0
  0
LINE
  5
92
100
AcDbEntity
100
AcDbLine
  8
PoujoulatTripleNoir
 62
256
370
-1
 48
1.0
  6
BYLAYER
 10
0.0000000000000582
 20
950.0
 30
0.0
 11
255.0000000000000568
 21
950.0
 31
0.0
  0
LINE
  5
93
100
AcDbEntity
100
AcDbLine
  8
PoujoulatTripleNoir
 62
256
370
-1
 48
1.0
  6
BYLAYER
 10
0.000000000000038
 20
620.0
 30
0.0
 11
255.0000000000000284
 21
620.0
 31
0.0
  0
ENDBLK
  5
94
100
AcDbEntity
  8
0
100
AcDbBlockEnd
  0
BLOCK
  5
95
100
AcDbEntity
  8
0
100
AcDbBlockBegin
  2
25Int
 70
0
 10
0.0
 20
0.0
 30
0.0
  3
25Int
  1

  0
LINE
  5
96
100
AcDbEntity
100
AcDbLine
  8
PoujoulatTripleNoir
 62
256
370
-1
 48
1.0
  6
BYLAYER
 10
0.0
 20
0.0
 30
0.0
 11
0.0
 21
250.0
 31
0.0
  0
LINE
  5
97
100
AcDbEntity
100
AcDbLine
  8
PoujoulatTripleNoir
 62
256
370
-1
 48
1.0
  6
BYLAYER
 10
255.0
 20
0.0
 30
0.0
 11
255.0
 21
250.0
 31
0.0
  0
LINE
  5
98
100
AcDbEntity
100
AcDbLine
  8
PoujoulatTripleNoir
 62
256
370
-1
 48
1.0
  6
BYLAYER
 10
0.0
 20
0.0
 30
0.0
 11
255.0
 21
0.0
 31
0.0
  0
LINE
  5
99
100
AcDbEntity
100
AcDbLine
  8
PoujoulatTripleNoir
 62
256
370
-1
 48
1.0
  6
BYLAYER
 10
0.0
 20
250.0
 30
0.0
 11
255.0
 21
250.0
 31
0.0
  0
ENDBLK
  5
9A
100
AcDbEntity
  8
0
100
AcDbBlockEnd
  0
BLOCK
  5
9B
100
AcDbEntity
  8
0
100
AcDbBlockBegin
  2
115Int
 70
0
 10
0.0
 20
0.0
 30
0.0
  3
115Int
  1

  0
LINE
  5
9C
100
AcDbEntity
100
AcDbLine
  8
PoujoulatTripleNoir
 62
256
370
-1
 48
1.0
  6
BYLAYER
 10
0.0
 20
0.0
 30
0.0
 11
0.0000000000000568
 21
1150.0
 31
0.0
  0
LINE
  5
9D
100
AcDbEntity
100
AcDbLine
  8
PoujoulatTripleNoir
 62
256
370
-1
 48
1.0
  6
BYLAYER
 10
255.0000000000000568
 20
0.0
 30
0.0
 11
255.0000000000000568
 21
1150.0
 31
0.0
  0
LINE
  5
9E
100
AcDbEntity
100
AcDbLine
  8
PoujoulatTripleNoir
 62
256
370
-1
 48
1.0
  6
BYLAYER
 10
0.0000000000000568
 20
1150.0
 30
0.0
 11
255.0000000000000568
 21
1150.0
 31
0.0
  0
LINE
  5
9F
100
AcDbEntity
100
AcDbLine
  8
PoujoulatTripleNoir
 62
256
370
-1
 48
1.0
  6
BYLAYER
 10
255.0000000000000568
 20
0.0
 30
0.0
 11
0.0
 21
0.0
 31
0.0
  0
ENDBLK
  5
A0
100
AcDbEntity
  8
0
100
AcDbBlockEnd
  0
BLOCK
  5
A1
100
AcDbEntity
  8
0
100
AcDbBlockBegin
  2
25Ext
 70
0
 10
0.0
 20
0.0
 30
0.0
  3
25Ext
  1

  0
LINE
  5
A2
100
AcDbEntity
100
AcDbLine
  8
PoujoulatTripleInox
 62
256
370
-1
 48
1.0
  6
BYLAYER
 10
255.0
 20
0.0
 30
0.0
 11
255.0
 21
250.0
 31
0.0
  0
LINE
  5
A3
100
AcDbEntity
100
AcDbLine
  8
PoujoulatTripleInox
 62
256
370
-1
 48
1.0
  6
BYLAYER
 10
0.0
 20
0.0
 30
0.0
 11
0.0
 21
250.0
 31
0.0
  0
LINE
  5
A4
100
AcDbEntity
100
AcDbLine
  8
PoujoulatTripleInox
 62
256
370
-1
 48
1.0
  6
BYLAYER
 10
255.0
 20
0.0
 30
0.0
 11
0.0
 21
0.0
 31
0.0
  0
LINE
  5
A5
100
AcDbEntity
100
AcDbLine
  8
PoujoulatTripleInox
 62
256
370
-1
 48
1.0
  6
BYLAYER
 10
255.0000000000000284
 20
250.0
 30
0.0
 11
0.0
 21
250.0
 31
0.0
  0
ENDBLK
  5
A6
100
AcDbEntity
  8
0
100
AcDbBlockEnd
  0
BLOCK
  5
A7
100
AcDbEntity
  8
0
100
AcDbBlockBegin
  2
10Int
 70
0
 10
0.0
 20
0.0
 30
0.0
  3
10Int
  1

  0
LINE
  5
A8
100
AcDbEntity
100
AcDbLine
  8
PoujoulatTripleNoir
 62
256
370
-1
 48
1.0
  6
BYLAYER
 10
0.0
 20
0.0
 30
0.0
 11
0.0
 21
100.0
 31
0.0
  0
LINE
  5
A9
100
AcDbEntity
100
AcDbLine
  8
PoujoulatTripleNoir
 62
256
370
-1
 48
1.0
  6
BYLAYER
 10
255.0
 20
0.0
 30
0.0
 11
255.0
 21
100.0
 31
0.0
  0
LINE
  5
AA
100
AcDbEntity
100
AcDbLine
  8
PoujoulatTripleNoir
 62
256
370
-1
 48
1.0
  6
BYLAYER
 10
0.0
 20
0.0
 30
0.0
 11
255.0
 21
0.0
 31
0.0
  0
LINE
  5
AB
100
AcDbEntity
100
AcDbLine
  8
PoujoulatTripleNoir
 62
256
370
-1
 48
1.0
  6
BYLAYER
 10
0.0
 20
100.0
 30
0.0
 11
255.0
 21
100.0
 31
0.0
  0
ENDBLK
  5
AC
100
AcDbEntity
  8
0
100
AcDbBlockEnd
  0
BLOCK
  5
AD
100
AcDbEntity
  8
0
100
AcDbBlockBegin
  2
115Ext
 70
0
 10
0.0
 20
0.0
 30
0.0
  3
115Ext
  1

  0
LINE
  5
AE
100
AcDbEntity
100
AcDbLine
  8
PoujoulatTripleInox
 62
256
370
-1
 48
1.0
  6
BYLAYER
 10
0.0
 20
0.0
 30
0.0
 11
0.0000000000000704
 21
1150.0
 31
0.0
  0
LINE
  5
AF
100
AcDbEntity
100
AcDbLine
  8
PoujoulatTripleInox
 62
256
370
-1
 48
1.0
  6
BYLAYER
 10
255.0
 20
0.0
 30
0.0
 11
255.0000000000000568
 21
1150.0
 31
0.0
  0
LINE
  5
B0
100
AcDbEntity
100
AcDbLine
  8
PoujoulatTripleInox
 62
256
370
-1
 48
1.0
  6
BYLAYER
 10
0.0
 20
0.0
 30
0.0
 11
255.0
 21
0.0
 31
0.0
  0
LINE
  5
B1
100
AcDbEntity
100
AcDbLine
  8
PoujoulatTripleInox
 62
256
370
-1
 48
1.0
  6
BYLAYER
 10
255.0000000000000568
 20
1150.0
 30
0.0
 11
0.0000000000000704
 21
1150.0
 31
0.0
  0
ENDBLK
  5
B2
100
AcDbEntity
  8
0
100
AcDbBlockEnd
  0
BLOCK
  5
B3
100
AcDbEntity
  8
0
100
AcDbBlockBegin
  2
45Ext
 70
0
 10
0.0
 20
0.0
 30
0.0
  3
45Ext
  1

  0
LINE
  5
B4
100
AcDbEntity
100
AcDbLine
  8
PoujoulatTripleInox
 62
256
370
-1
 48
1.0
  6
BYLAYER
 10
255.0
 20
0.0
 30
0.0
 11
255.0
 21
450.0
 31
0.0
  0
LINE
  5
B5
100
AcDbEntity
100
AcDbLine
  8
PoujoulatTripleInox
 62
256
370
-1
 48
1.0
  6
BYLAYER
 10
0.0
 20
0.0
 30
0.0
 11
0.0
 21
450.0
 31
0.0
  0
LINE
  5
B6
100
AcDbEntity
100
AcDbLine
  8
PoujoulatTripleInox
 62
256
370
-1
 48
1.0
  6
BYLAYER
 10
255.0
 20
0.0
 30
0.0
 11
0.0
 21
0.0
 31
0.0
  0
LINE
  5
B7
100
AcDbEntity
100
AcDbLine
  8
PoujoulatTripleInox
 62
256
370
-1
 48
1.0
  6
BYLAYER
 10
255.0
 20
450.0
 30
0.0
 11
0.0
 21
450.0
 31
0.0
  0
ENDBLK
  5
B8
100
AcDbEntity
  8
0
100
AcDbBlockEnd
  0
ENDSEC
  0
SECTION
  2
ENTITIES
  0
XLINE
  5
B9
100
AcDbEntity
100
AcDbLine
  8
0
 62
256
370
-1
 48
1.0
  6
BYLAYER
 10
0.0
 20
0.0
 30
0.0
 11
1.0
 21
0.0
 31
0.0
  0
LINE
  5
BA
100
AcDbEntity
100
AcDbLine
  8
lambourdes+resiliente
 62
256
370
-1
 48
1.0
  6
BYLAYER
 10
0.0
 20
0.0
 30
0.0
 11
0.0
 21
40.0
 31
0.0
  0
LINE
  5
BB
100
AcDbEntity
100
AcDbLine
  8
lambourdes+resiliente
 62
256
370
-1
 48
1.0
  6
BYLAYER
 10
550.0
 20
0.0
 30
0.0
 11
550.0
 21
40.0
 31
0.0
  0
LINE
  5
BC
100
AcDbEntity
100
AcDbLine
  8
lambourdes+resiliente
 62
256
370
-1
 48
1.0
  6
BYLAYER
 10
50.0
 20
0.0
 30
0.0
 11
50.0
 21
40.0
 31
0.0
  0
LINE
  5
BD
100
AcDbEntity
100
AcDbLine
  8
lambourdes+resiliente
 62
256
370
-1
 48
1.0
  6
BYLAYER
 10
500.0
 20
40.0
 30
0.0
 11
550.0
 21
0.0
 31
0.0
  0
LINE
  5
BE
100
AcDbEntity
100
AcDbLine
  8
lambourdes+resiliente
 62
256
370
-1
 48
1.0
  6
BYLAYER
 10
0.0
 20
40.0
 30
0.0
 11
50.0
 21
0.0
 31
0.0
  0
LINE
  5
BF
100
AcDbEntity
100
AcDbLine
  8
lambourdes+resiliente
 62
256
370
-1
 48
1.0
  6
BYLAYER
 10
550.0
 20
0.0
 30
0.0
 11
500.0
 21
0.0
 31
0.0
  0
LINE
  5
C0
100
AcDbEntity
100
AcDbLine
  8
lambourdes+resiliente
 62
256
370
-1
 48
1.0
  6
BYLAYER
 10
50.0
 20
0.0
 30
0.0
 11
0.0
 21
0.0
 31
0.0
  0
LINE
  5
C1
100
AcDbEntity
100
AcDbLine
  8
lambourdes+resiliente
 62
256
370
-1
 48
1.0
  6
BYLAYER
 10
500.0
 20
0.0
 30
0.0
 11
550.0
 21
40.0
 31
0.0
  0
LINE
  5
C2
100
AcDbEntity
100
AcDbLine
  8
lambourdes+resiliente
 62
256
370
-1
 48
1.0
  6
BYLAYER
 10
0.0
 20
0.0
 30
0.0
 11
50.0
 21
40.0
 31
0.0
  0
LINE
  5
C3
100
AcDbEntity
100
AcDbLine
  8
lambourdes+resiliente
 62
256
370
-1
 48
1.0
  6
BYLAYER
 10
550.0
 20
40.0
 30
0.0
 11
500.0
 21
40.0
 31
0.0
  0
LINE
  5
C4
100
AcDbEntity
100
AcDbLine
  8
lambourdes+resiliente
 62
256
370
-1
 48
1.0
  6
BYLAYER
 10
50.0
 20
40.0
 30
0.0
 11
0.0
 21
40.0
 31
0.0
  0
LINE
  5
C5
100
AcDbEntity
100
AcDbLine
  8
lambourdes+resiliente
 62
256
370
-1
 48
1.0
  6
BYLAYER
 10
500.0
 20
0.0
 30
0.0
 11
500.0
 21
40.0
 31
0.0
  0
XLINE
  5
C6
100
AcDbEntity
100
AcDbLine
  8
parquet
 62
256
370
-1
 48
1.0
  6
BYLAYER
 10
0.0000000000000024
 20
40.0
 30
0.0
 11
1.0
 21
0.0
 31
0.0
  0
XLINE
  5
C7
100
AcDbEntity
100
AcDbLine
  8
parquet
 62
256
370
-1
 48
1.0
  6
BYLAYER
 10
0.0000000000000038
 20
62.0
 30
0.0
 11
1.0
 21
0.0
 31
0.0
  0
XLINE
  5
C8
100
AcDbEntity
100
AcDbLine
  8
plaque verre
 62
256
370
-1
 48
1.0
  6
BYLAYER
 10
0.0000000000000039
 20
64.0
 30
0.0
 11
1.0
 21
0.0
 31
0.0
  0
XLINE
  5
C9
100
AcDbEntity
100
AcDbLine
  8
HautDuPoele
 62
256
370
-1
 48
1.0
  6
BYLAYER
 10
0.0000000000000599
 20
979.0
 30
0.0
 11
1.0
 21
0.0
 31
0.0
  0
XLINE
  5
CA
100
AcDbEntity
100
AcDbLine
  8
ConnexionHauteDuPoele
 62
256
370
-1
 48
1.0
  6
BYLAYER
 10
0.0000000000000576
 20
941.0
 30
0.0
 11
0.9999999999999999
 21
0.0
 31
0.0
  0
XLINE
  5
CB
100
AcDbEntity
100
AcDbLine
  8
OSB18
 62
256
370
-1
 48
1.0
  6
BYLAYER
 10
0.0000000000001685
 20
2752.0
 30
0.0
 11
1.0
 21
0.0
 31
0.0
  0
XLINE
  5
CC
100
AcDbEntity
100
AcDbLine
  8
OSB18
 62
256
370
-1
 48
1.0
  6
BYLAYER
 10
0.0000000000001696
 20
2770.0
 30
0.0
 11
1.0
 21
0.0
 31
0.0
  0
LINE
  5
CD
100
AcDbEntity
100
AcDbLine
  8
PoujoulatTripleInox
 62
256
370
-1
 48
1.0
  6
BYLAYER
 10
-nan
 20
-nan
 30
0.0
 11
0.0
 21
1200.0
 31
0.0
  0
INSERT
  5
CE
100
AcDbEntity
100
AcDbBlockReference
  8
PoujoulatTripleInox
 62
256
370
-1
 48
1.0
  6
BYLAYER
  2
115Ext
 10
23.147683327172615
 20
3609.9999999999995453
 30
0.0
  0
INSERT
  5
CF
100
AcDbEntity
100
AcDbBlockReference
  8
PoujoulatTripleNoir
 62
256
370
-1
 48
1.0
  6
BYLAYER
  2
115Int
 10
23.1476833271725582
 20
2459.9999999999995453
 30
0.0
  0
INSERT
  5
D0
100
AcDbEntity
100
AcDbBlockReference
  8
PoujoulatTripleNoir
 62
256
370
-1
 48
1.0
  6
BYLAYER
  2
25Int
 10
-400.7769870682271289
 20
5346.5745968041010201
 30
0.0
  0
INSERT
  5
D1
100
AcDbEntity
100
AcDbBlockReference
  8
PoujoulatTripleNoir
 62
256
370
-1
 48
1.0
  6
BYLAYER
  2
10Int
 10
931.2531638066611777
 20
5516.5254952873920047
 30
0.0
  0
INSERT
  5
D2
100
AcDbEntity
100
AcDbBlockReference
  8
PoujoulatTripleInox
 62
256
370
-1
 48
1.0
  6
BYLAYER
  2
25Ext
 10
354.1776148669428039
 20
5330.7390468263401999
 30
0.0
  0
INSERT
  5
D3
100
AcDbEntity
100
AcDbBlockReference
  8
PoujoulatTripleNoir
 62
256
370
-1
 48
1.0
  6
BYLAYER
  2
AdaptInt
 10
23.1476833271726719
 20
1037.9180784582392789
 30
0.0
  0
INSERT
  5
D4
100
AcDbEntity
100
AcDbBlockReference
  8
PoujoulatTripleInox
 62
256
370
-1
 48
1.0
  6
BYLAYER
  2
45Ext
 10
-1282.5458264208771197
 20
5295.9232121804943745
 30
0.0
  0
INSERT
  5
D5
100
AcDbEntity
100
AcDbBlockReference
  8
PoujoulatTripleNoir
 62
256
370
-1
 48
1.0
  6
BYLAYER
  2
AdaptBuse
 10
75.1476833271726719
 20
941.0
 30
0.0
  0
XLINE
  5
D6
100
AcDbEntity
100
AcDbLine
  8
MaxTheoriqueToit
 62
256
370
-1
 48
1.0
  6
BYLAYER
 10
0.0000000000002194
 20
3583.0
 30
0.0
 11
1.0
 21
0.0
 31
0.0
  0
INSERT
  5
D7
100
AcDbEntity
100
AcDbBlockReference
  8
PoujoulatTripleNoir
 62
256
370
-1
 48
1.0
  6
BYLAYER
  2
ElementReglableInt
 10
-111.8425358436693386
 20
1532.9180784582392789
 30
0.0
  0
XLINE
  5
D8
100
AcDbEntity
100
AcDbLine
  8
1mfaitage
 62
256
370
-1
 48
1.0
  6
BYLAYER
 10
0.0000000000002806
 20
4583.0
 30
0.0
 11
1.0
 21
0.0
 31
0.0
  0
XLINE
  5
D9
100
AcDbEntity
100
AcDbLine
  8
faux-plafond
 62
256
370
-1
 48
1.0
  6
BYLAYER
 10
0.0000000000001569
 20
2562.0
 30
0.0
 11
1.0
 21
0.0
 31
0.0
  0
XLINE
  5
DA
100
AcDbEntity
100
AcDbLine
  8
faux-plafond
 62
256
370
-1
 48
1.0
  6
BYLAYER
 10
0.0000000000001577
 20
2575.0
 30
0.0
 11
1.0
 21
0.0
 31
0.0
  0
MTEXT
  5
DB
100
AcDbEntity
100
AcDbMText
  8
1mfaitage
 62
256
370
-1
 48
1.0
  6
BYLAYER
 10
-1100.0
 20
4700.0
 30
0.0
 40
100.0
 41
0.0
 71
1
 72
1
  1
1m du fa\U+00eetage\P
  7
textstyle0
 50
0.0
 73
2
 44
1.0
  0
MTEXT
  5
DC
100
AcDbEntity
100
AcDbMText
  8
MaxTheoriqueToit
 62
256
370
-1
 48
1.0
  6
BYLAYER
 10
-2000.0
 20
3500.0
 30
0.0
 40
100.0
 41
0.0
 71
1
 72
1
  1
Hauteur Max Th\U+00e9orique du toit
  7
textstyle1
 50
0.0
 73
2
 44
1.0
  0
MTEXT
  5
DD
100
AcDbEntity
100
AcDbMText
  8
OSB18
 62
256
370
-1
 48
1.0
  6
BYLAYER
 10
-1300.0
 20
3000.0
 30
0.0
 40
100.0
 41
0.0
 71
1
 72
1
  1
Plafond OSB
  7
textstyle2
 50
0.0
 73
2
 44
1.0
  0
MTEXT
  5
DE
100
AcDbEntity
100
AcDbMText
  8
faux-plafond
 62
256
370
-1
 48
1.0
  6
BYLAYER
 10
-1200.0
 20
2500.0
 30
0.0
 40
100.0
 41
0.0
 71
1
 72
1
  1
Faux-Plafond
  7
textstyle3
 50
0.0
 73
2
 44
1.0
  0
LINE
  5
DF
100
AcDbEntity
100
AcDbLine
  8
ParePluie
 62
256
370
-1
 48
1.0
  6
BYLAYER
 10
-2142.9806106923601874
 20
3452.612964021921016
 30
0.0
 11
1530.2781176899343336
 21
3755.116624006344864
 31
0.0
  0
LINE
  5
E0
100
AcDbEntity
100
AcDbLine
  8
OSB18Platelage
 62
256
370
-1
 48
1.0
  6
BYLAYER
 10
-2147.0843654193754446
 20
3502.4442714213914769
 30
0.0
 11
1526.1743629629190764
 21
3804.947931405815325
 31
0.0
  0
LINE
  5
E1
100
AcDbEntity
100
AcDbLine
  8
OSB18Platelage
 62
256
370
-1
 48
1.0
  6
BYLAYER
 10
-2148.5617171211010827
 20
3520.3835420852005882
 30
0.0
 11
1524.6970112611936656
 21
3822.8872020696244363
 31
0.0
  0
XLINE
  5
E2
100
AcDbEntity
100
AcDbLine
  8
Faitage
 62
256
370
-1
 48
1.0
  6
BYLAYER
 10
0.000000000000267
 20
4360.0
 30
0.0
 11
0.9999999999999999
 21
0.0
 31
0.0
  0
XLINE
  5
E3
100
AcDbEntity
100
AcDbLine
  8
400faitage
 62
256
370
-1
 48
1.0
  6
BYLAYER
 10
0.0000000000002915
 20
4760.0
 30
0.0
 11
1.0
 21
0.0
 31
0.0
  0
MTEXT
  5
E4
100
AcDbEntity
100
AcDbMText
  8
400faitage
 62
256
370
-1
 48
1.0
  6
BYLAYER
 10
-500.0
 20
4900.0
 30
0.0
 40
100.0
 41
0.0
 71
1
 72
1
  1
40cm au-dessus du fa\U+00eet
  7
textstyle4
 50
0.0
 73
2
 44
1.0
  0
MTEXT
  5
E5
100
AcDbEntity
100
AcDbMText
  8
400faitage
 62
256
370
-1
 48
1.0
  6
BYLAYER
 10
-500.0
 20
4500.0
 30
0.0
 40
100.0
 41
0.0
 71
1
 72
1
  1
fa\U+00eet
  7
textstyle5
 50
0.0
 73
2
 44
1.0
  0
MTEXT
  5
E6
100
AcDbEntity
100
AcDbMText
  8
OSB18Platelage
 62
256
370
-1
 48
1.0
  6
BYLAYER
 10
-1100.0
 20
3800.0
 30
0.0
 40
100.0
 41
0.0
 71
1
 72
1
  1
platelage OSB
  7
textstyle6
 50
0.0
 73
2
 44
1.0
  0
MTEXT
  5
E7
100
AcDbEntity
100
AcDbMText
  8
PoujoulatTripleNoir
 62
256
370
-1
 48
1.0
  6
BYLAYER
 10
349.7716023450591365
 20
3185.9927408360199479
 30
0.0
 40
60.0
 41
0.0
 71
1
 72
1
  1
El\U+00e9ment 115cm galva noir
  7
textstyle7
 50
0.0
 73
2
 44
1.0
  0
MTEXT
  5
E8
100
AcDbEntity
100
AcDbMText
  8
PoujoulatTripleInox
 62
256
370
-1
 48
1.0
  6
BYLAYER
 10
400.0
 20
4200.0
 30
0.0
 40
60.0
 41
0.0
 71
1
 72
1
  1
El\U+00e9ment 115cm inox
  7
textstyle8
 50
0.0
 73
2
 44
1.0
  0
MTEXT
  5
E9
100
AcDbEntity
100
AcDbMText
  8
PoujoulatTripleNoir
 62
256
370
-1
 48
1.0
  6
BYLAYER
 10
200.0
 20
2000.0
 30
0.0
 40
60.0
 41
0.0
 71
1
 72
1
  1
El\U+00e9ment r\U+00e9glable galva noir
  7
textstyle9
 50
0.0
 73
2
 44
1.0
  0
ENDSEC
  0
SECTION
  2
OBJECTS
  0
DICTIONARY
  5
C
100
AcDbDictionary
280
0
281
1
  3
ACAD_GROUP
350
D
  3
ACAD_LAYOUT
350
1A
  3
ACAD_MLINESTYLE
350
17
  3
ACAD_PLOTSETTINGS
350
19
  3
ACAD_PLOTSTYLENAME
350
E
  3
AcDbVariableDictionary
350
EA
  3
QCAD_OBJECTS
350
EB
  0
DICTIONARY
  5
D
100
AcDbDictionary
280
0
281
1
  0
ACDBDICTIONARYWDFLT
  5
E
100
AcDbDictionary
281
1
  3
Normal
350
F
100
AcDbDictionaryWithDefault
340
F
  0
ACDBPLACEHOLDER
  5
F
  0
DICTIONARY
  5
17
100
AcDbDictionary
280
0
281
1
  3
Standard
350
18
  0
MLINESTYLE
  5
18
100
AcDbMlineStyle
  2
STANDARD
 70
0
  3

 62
256
 51
90.0
 52
90.0
 71
2
 49
0.5
 62
256
  6
BYLAYER
 49
-0.5
 62
256
  6
BYLAYER
  0
DICTIONARY
  5
19
100
AcDbDictionary
280
0
281
1
  0
DICTIONARY
  5
1A
100
AcDbDictionary
281
1
  3
Layout1
350
1E
  3
Layout2
350
26
  3
Model
350
22
  0
LAYOUT
  5
1E
100
AcDbPlotSettings
  1

  2
none_device
  4

  6

 40
0.0
 41
0.0
 42
0.0
 43
0.0
 44
0.0
 45
0.0
 46
0.0
 47
0.0
 48
0.0
 49
0.0
140
0.0
141
0.0
142
1.0
143
1.0
 70
688
 72
0
 73
0
 74
5
  7

 75
16
147
1.0
148
0.0
149
0.0
100
AcDbLayout
  1
Layout1
 70
1
 71
1
 10
0.0
 20
0.0
 11
420.0
 21
297.0
 12
0.0
 22
0.0
 32
0.0
 14
100000000000000000000.0
 24
100000000000000000000.0
 34
100000000000000000000.0
 15
-100000000000000000000.0
 25
-100000000000000000000.0
 35
-100000000000000000000.0
146
0.0
 13
0.0
 23
0.0
 33
0.0
 16
1.0
 26
0.0
 36
0.0
 17
0.0
 27
1.0
 37
0.0
 76
0
330
1B
  0
LAYOUT
  5
22
100
AcDbPlotSettings
  1

  2
none_device
  4

  6

 40
0.0
 41
0.0
 42
0.0
 43
0.0
 44
0.0
 45
0.0
 46
0.0
 47
0.0
 48
0.0
 49
0.0
140
0.0
141
0.0
142
1.0
143
1.0
 70
1712
 72
0
 73
0
 74
0
  7

 75
0
147
1.0
148
0.0
149
0.0
100
AcDbLayout
  1
Model
 70
1
 71
0
 10
0.0
 20
0.0
 11
12.0
 21
9.0
 12
0.0
 22
0.0
 32
0.0
 14
0.0
 24
0.0
 34
0.0
 15
0.0
 25
0.0
 35
0.0
146
0.0
 13
0.0
 23
0.0
 33
0.0
 16
1.0
 26
0.0
 36
0.0
 17
0.0
 27
1.0
 37
0.0
 76
0
330
1F
  0
LAYOUT
  5
26
100
AcDbPlotSettings
  1

  2
none_device
  4

  6

 40
0.0
 41
0.0
 42
0.0
 43
0.0
 44
0.0
 45
0.0
 46
0.0
 47
0.0
 48
0.0
 49
0.0
140
0.0
141
0.0
142
1.0
143
1.0
 70
688
 72
0
 73
0
 74
5
  7

 75
16
147
1.0
148
0.0
149
0.0
100
AcDbLayout
  1
Layout2
 70
1
 71
2
 10
0.0
 20
0.0
 11
12.0
 21
9.0
 12
0.0
 22
0.0
 32
0.0
 14
0.0
 24
0.0
 34
0.0
 15
0.0
 25
0.0
 35
0.0
146
0.0
 13
0.0
 23
0.0
 33
0.0
 16
1.0
 26
0.0
 36
0.0
 17
0.0
 27
1.0
 37
0.0
 76
0
330
23
  0
DICTIONARY
  5
EA
100
AcDbDictionary
281
1
  3
DIMASSOC
350
ED
  3
HIDETEXT
350
EC
  0
DICTIONARYVAR
  5
EC
100
DictionaryVariables
280
0
  1
2
  0
DICTIONARYVAR
  5
ED
100
DictionaryVariables
280
0
  1
1
  0
DICTIONARY
  5
EB
100
AcDbDictionary
281
1
  3
ColorSettings/BackgroundColor
350
EE
  3
ColorSettings/ColorMode
350
EF
  3
Grid/DisplayGrid00
350
F0
  3
Grid/DisplayGrid01
350
F1
  3
Grid/DisplayGrid02
350
F2
  3
Grid/DisplayGrid03
350
F3
  3
Grid/GridSpacingX00
350
F4
  3
Grid/GridSpacingX01
350
F5
  3
Grid/GridSpacingX02
350
F6
  3
Grid/GridSpacingX03
350
F7
  3
Grid/GridSpacingY00
350
F8
  3
Grid/GridSpacingY01
350
F9
  3
Grid/GridSpacingY02
350
FA
  3
Grid/GridSpacingY03
350
FB
  3
Grid/IsometricGrid00
350
FC
  3
Grid/IsometricGrid01
350
FD
  3
Grid/IsometricGrid02
350
FE
  3
Grid/IsometricGrid03
350
FF
  3
Grid/IsometricProjection00
350
100
  3
Grid/IsometricProjection01
350
101
  3
Grid/IsometricProjection02
350
102
  3
Grid/IsometricProjection03
350
103
  3
Grid/MetaGridSpacingX00
350
104
  3
Grid/MetaGridSpacingX01
350
105
  3
Grid/MetaGridSpacingX02
350
106
  3
Grid/MetaGridSpacingX03
350
107
  3
Grid/MetaGridSpacingY00
350
108
  3
Grid/MetaGridSpacingY01
350
109
  3
Grid/MetaGridSpacingY02
350
10A
  3
Grid/MetaGridSpacingY03
350
10B
  3
MultiPageSettings/Columns
350
10C
  3
MultiPageSettings/GlueMarginsBottom
350
10D
  3
MultiPageSettings/GlueMarginsLeft
350
10E
  3
MultiPageSettings/GlueMarginsRight
350
10F
  3
MultiPageSettings/GlueMarginsTop
350
110
  3
MultiPageSettings/PrintCropMarks
350
111
  3
MultiPageSettings/Rows
350
112
  3
PageSettings/OffsetX
350
113
  3
PageSettings/OffsetY
350
114
  3
PageSettings/PageOrientation
350
115
  3
PageSettings/PaperHeight
350
116
  3
PageSettings/PaperWidth
350
117
  3
PageSettings/Scale
350
118
  3
PageSettings/ShowPaperBorders
350
119
  3
QCADVersion
350
11A
  3
UnitSettings/PaperUnit
350
11B
  3
ViewportCenter
350
11C
  3
ViewportHeight
350
11D
  3
ViewportWidth
350
11E
  0
XRECORD
  5
EE
330
EB
100
AcDbXrecord
280
1
1000
Blanc
  0
XRECORD
  5
EF
330
EB
100
AcDbXrecord
280
1
1000
FullColor
  0
XRECORD
  5
F0
330
EB
100
AcDbXrecord
280
1
290
1
  0
XRECORD
  5
F1
330
EB
100
AcDbXrecord
280
1
290
1
  0
XRECORD
  5
F2
330
EB
100
AcDbXrecord
280
1
290
1
  0
XRECORD
  5
F3
330
EB
100
AcDbXrecord
280
1
290
1
  0
XRECORD
  5
F4
330
EB
100
AcDbXrecord
280
1
1000
auto
  0
XRECORD
  5
F5
330
EB
100
AcDbXrecord
280
1
1000
auto
  0
XRECORD
  5
F6
330
EB
100
AcDbXrecord
280
1
1000
auto
  0
XRECORD
  5
F7
330
EB
100
AcDbXrecord
280
1
1000
auto
  0
XRECORD
  5
F8
330
EB
100
AcDbXrecord
280
1
1000
auto
  0
XRECORD
  5
F9
330
EB
100
AcDbXrecord
280
1
1000
auto
  0
XRECORD
  5
FA
330
EB
100
AcDbXrecord
280
1
1000
auto
  0
XRECORD
  5
FB
330
EB
100
AcDbXrecord
280
1
1000
auto
  0
XRECORD
  5
FC
330
EB
100
AcDbXrecord
280
1
290
0
  0
XRECORD
  5
FD
330
EB
100
AcDbXrecord
280
1
290
0
  0
XRECORD
  5
FE
330
EB
100
AcDbXrecord
280
1
290
0
  0
XRECORD
  5
FF
330
EB
100
AcDbXrecord
280
1
290
0
  0
XRECORD
  5
100
330
EB
100
AcDbXrecord
280
1
 90
0
  0
XRECORD
  5
101
330
EB
100
AcDbXrecord
280
1
 90
0
  0
XRECORD
  5
102
330
EB
100
AcDbXrecord
280
1
 90
0
  0
XRECORD
  5
103
330
EB
100
AcDbXrecord
280
1
 90
0
  0
XRECORD
  5
104
330
EB
100
AcDbXrecord
280
1
1000
auto
  0
XRECORD
  5
105
330
EB
100
AcDbXrecord
280
1
1000
auto
  0
XRECORD
  5
106
330
EB
100
AcDbXrecord
280
1
1000
auto
  0
XRECORD
  5
107
330
EB
100
AcDbXrecord
280
1
1000
auto
  0
XRECORD
  5
108
330
EB
100
AcDbXrecord
280
1
1000
auto
  0
XRECORD
  5
109
330
EB
100
AcDbXrecord
280
1
1000
auto
  0
XRECORD
  5
10A
330
EB
100
AcDbXrecord
280
1
1000
auto
  0
XRECORD
  5
10B
330
EB
100
AcDbXrecord
280
1
1000
auto
  0
XRECORD
  5
10C
330
EB
100
AcDbXrecord
280
1
 90
1
  0
XRECORD
  5
10D
330
EB
100
AcDbXrecord
280
1
 40
10.0
  0
XRECORD
  5
10E
330
EB
100
AcDbXrecord
280
1
 40
10.0
  0
XRECORD
  5
10F
330
EB
100
AcDbXrecord
280
1
 40
10.0
  0
XRECORD
  5
110
330
EB
100
AcDbXrecord
280
1
 40
10.0
  0
XRECORD
  5
111
330
EB
100
AcDbXrecord
280
1
290
0
  0
XRECORD
  5
112
330
EB
100
AcDbXrecord
280
1
 90
1
  0
XRECORD
  5
113
330
EB
100
AcDbXrecord
280
1
 40
-2414.974303587929171
  0
XRECORD
  5
114
330
EB
100
AcDbXrecord
280
1
 40
-637.3993611290088666
  0
XRECORD
  5
115
330
EB
100
AcDbXrecord
280
1
1000
Portrait
  0
XRECORD
  5
116
330
EB
100
AcDbXrecord
280
1
 40
297.0
  0
XRECORD
  5
117
330
EB
100
AcDbXrecord
280
1
 40
210.0
  0
XRECORD
  5
118
330
EB
100
AcDbXrecord
280
1
1000
1:20
  0
XRECORD
  5
119
330
EB
100
AcDbXrecord
280
1
290
1
  0
XRECORD
  5
11A
330
EB
100
AcDbXrecord
280
1
1000
3.15.2
  0
XRECORD
  5
11B
330
EB
100
AcDbXrecord
280
1
 90
4
  0
XRECORD
  5
11D
330
EB
100
AcDbXrecord
280
1
 40
5746.66809063870096
  0
XRECORD
  5
11E
330
EB
100
AcDbXrecord
280
1
 40
7406.5622602454968728
  0
ENDSEC
  0
EOF
