999
dxflib 3.12.2.0
  0
SECTION
  2
HEADER
  9
$ACADVER
  1
AC1015
  9
$HANDSEED
  5
FFFF
  9
$DIMADEC
 70
0
  9
$DIMASZ
 40
2.5
  9
$DIMAUNIT
 70
0
  9
$DIMAZIN
 70
2
  9
$DIMDEC
 70
4
  9
$DIMEXE
 40
1.25
  9
$DIMEXO
 40
0.625
  9
$DIMGAP
 40
0.625
  9
$DIMLUNIT
 70
2
  9
$DIMSCALE
 40
1.0
  9
$DIMTSZ
 40
0.0
  9
$DIMTXT
 40
2.5
  9
$DIMZIN
 70
8
  9
$DWGCODEPAGE
  3
ANSI_1252
  9
$INSUNITS
 70
4
  9
$LTSCALE
 40
1.0
  9
$MEASUREMENT
 70
1
  9
$PDMODE
 70
0
  9
$PDSIZE
 40
0
  0
ENDSEC
  0
SECTION
  2
TABLES
  0
TABLE
  2
VPORT
  5
8
100
AcDbSymbolTable
 70
1
  0
VPORT
  5
30
100
AcDbSymbolTableRecord
100
AcDbViewportTableRecord
  2
*Active
 70
0
 10
0.0
 20
0.0
 11
1.0
 21
1.0
 12
286.3055555555554861
 22
148.5
 13
0.0
 23
0.0
 14
10.0
 24
10.0
 15
10.0
 25
10.0
 16
0.0
 26
0.0
 36
1.0
 17
0.0
 27
0.0
 37
0.0
 40
297.0
 41
1.92798353909465
 42
50.0
 43
0.0
 44
0.0
 50
0.0
 51
0.0
 71
0
 72
100
 73
1
 74
3
 75
1
 76
1
 77
0
 78
0
281
0
 65
1
110
0.0
120
0.0
130
0.0
111
1.0
121
0.0
131
0.0
112
0.0
122
1.0
132
0.0
 79
0
146
0.0
  0
ENDTAB
  0
TABLE
  2
LTYPE
  5
5
100
AcDbSymbolTable
 70
41
  0
LTYPE
  5
16
100
AcDbSymbolTableRecord
100
AcDbLinetypeTableRecord
  2
Continuous
 70
0
  3
Solid line
 72
65
 73
0
 40
0.0
  0
LTYPE
  5
31
100
AcDbSymbolTableRecord
100
AcDbLinetypeTableRecord
  2
ACAD_ISO15W100
 70
0
  3
ISO double-dash triple-dot __ __ . . . __ __ . .
 72
65
 73
10
 40
39.0
 49
12.0
 74
0
 49
-3.0
 74
0
 49
12.0
 74
0
 49
-2.9500000000000002
 74
0
 49
0.1
 74
0
 49
-2.9000000000000004
 74
0
 49
0.1
 74
0
 49
-2.9000000000000004
 74
0
 49
0.1
 74
0
 49
-2.9500000000000002
 74
0
  0
LTYPE
  5
32
100
AcDbSymbolTableRecord
100
AcDbLinetypeTableRecord
  2
DIVIDE
 70
0
  3
Divide ____ . . ____ . . ____ . . ____ . . ____
 72
65
 73
6
 40
31.75
 49
12.6999999999999993
 74
0
 49
-6.2999999999999998
 74
0
 49
0.1
 74
0
 49
-6.25
 74
0
 49
0.1
 74
0
 49
-6.2999999999999998
 74
0
  0
LTYPE
  5
33
100
AcDbSymbolTableRecord
100
AcDbLinetypeTableRecord
  2
ACAD_ISO10W100
 70
0
  3
ISO dash dot __ . __ . __ . __ . __ . __ . __ . 
 72
65
 73
4
 40
18.0
 49
12.0
 74
0
 49
-2.9500000000000002
 74
0
 49
0.1
 74
0
 49
-2.9500000000000002
 74
0
  0
LTYPE
  5
34
100
AcDbSymbolTableRecord
100
AcDbLinetypeTableRecord
  2
ACAD_ISO04W100
 70
0
  3
ISO long-dash dot ____ . ____ . ____ . ____ . _
 72
65
 73
4
 40
30.0
 49
24.0
 74
0
 49
-2.9500000000000002
 74
0
 49
0.1
 74
0
 49
-2.9500000000000002
 74
0
  0
LTYPE
  5
35
100
AcDbSymbolTableRecord
100
AcDbLinetypeTableRecord
  2
CENTER2
 70
0
  3
Center (.5x) ___ _ ___ _ ___ _ ___ _ ___ _ ___
 72
65
 73
4
 40
28.5749999999999993
 49
19.0500000000000007
 74
0
 49
-3.1749999999999998
 74
0
 49
3.1749999999999998
 74
0
 49
-3.1749999999999998
 74
0
  0
LTYPE
  5
36
100
AcDbSymbolTableRecord
100
AcDbLinetypeTableRecord
  2
ACAD_ISO11W100
 70
0
  3
ISO double-dash dot __ __ . __ __ . __ __ . __ _
 72
65
 73
6
 40
33.0
 49
12.0
 74
0
 49
-3.0
 74
0
 49
12.0
 74
0
 49
-2.9500000000000002
 74
0
 49
0.1
 74
0
 49
-2.9500000000000002
 74
0
  0
LTYPE
  5
37
100
AcDbSymbolTableRecord
100
AcDbLinetypeTableRecord
  2
HIDDEN2
 70
0
  3
Hidden (.5x) _ _ _ _ _ _ _ _ _ _ _ _ _ _ _ _ _ 
 72
65
 73
2
 40
4.7624999999999993
 49
3.1749999999999998
 74
0
 49
-1.5874999999999999
 74
0
  0
LTYPE
  5
38
100
AcDbSymbolTableRecord
100
AcDbLinetypeTableRecord
  2
BORDERX2
 70
0
  3
Border (2x) ____  ____  .  ____  ____  .  ___
 72
65
 73
6
 40
88.8999999999999915
 49
25.3999999999999986
 74
0
 49
-12.6999999999999993
 74
0
 49
25.3999999999999986
 74
0
 49
-12.6499999999999986
 74
0
 49
0.1
 74
0
 49
-12.6499999999999986
 74
0
  0
LTYPE
  5
39
100
AcDbSymbolTableRecord
100
AcDbLinetypeTableRecord
  2
ACAD_ISO05W100
 70
0
  3
ISO long-dash double-dot ____ .. ____ .. ____ . 
 72
65
 73
6
 40
33.0
 49
24.0
 74
0
 49
-2.9500000000000002
 74
0
 49
0.1
 74
0
 49
-2.9000000000000004
 74
0
 49
0.1
 74
0
 49
-2.9500000000000002
 74
0
  0
LTYPE
  5
3A
100
AcDbSymbolTableRecord
100
AcDbLinetypeTableRecord
  2
DASHDOTX2
 70
0
  3
Dash dot (2x) ____  .  ____  .  ____  .  ___
 72
65
 73
4
 40
50.7999999999999972
 49
25.3999999999999986
 74
0
 49
-12.6499999999999986
 74
0
 49
0.1
 74
0
 49
-12.6499999999999986
 74
0
  0
LTYPE
  5
3B
100
AcDbSymbolTableRecord
100
AcDbLinetypeTableRecord
  2
HIDDENX2
 70
0
  3
Hidden (2x) ____ ____ ____ ____ ____ ____ ____ 
 72
65
 73
2
 40
19.0499999999999972
 49
12.6999999999999993
 74
0
 49
-6.3499999999999996
 74
0
  0
LTYPE
  5
3C
100
AcDbSymbolTableRecord
100
AcDbLinetypeTableRecord
  2
CENTERX2
 70
0
  3
Center (2x) ________  __  ________  __  _____
 72
65
 73
4
 40
101.5999999999999943
 49
63.5
 74
0
 49
-12.6999999999999993
 74
0
 49
12.6999999999999993
 74
0
 49
-12.6999999999999993
 74
0
  0
LTYPE
  5
3D
100
AcDbSymbolTableRecord
100
AcDbLinetypeTableRecord
  2
BORDER2
 70
0
  3
Border (.5x) __.__.__.__.__.__.__.__.__.__.__.
 72
65
 73
6
 40
22.2249999999999979
 49
6.3499999999999996
 74
0
 49
-3.1749999999999998
 74
0
 49
6.3499999999999996
 74
0
 49
-3.125
 74
0
 49
0.1
 74
0
 49
-3.125
 74
0
  0
LTYPE
  5
3E
100
AcDbSymbolTableRecord
100
AcDbLinetypeTableRecord
  2
DASHDOT2
 70
0
  3
Dash dot (.5x) _._._._._._._._._._._._._._._.
 72
65
 73
4
 40
12.6999999999999993
 49
6.3499999999999996
 74
0
 49
-3.125
 74
0
 49
0.1
 74
0
 49
-3.125
 74
0
  0
LTYPE
  5
3F
100
AcDbSymbolTableRecord
100
AcDbLinetypeTableRecord
  2
ACAD_ISO12W100
 70
0
  3
ISO dash double-dot __ . . __ . . __ . . __ . . 
 72
65
 73
6
 40
21.0
 49
12.0
 74
0
 49
-2.9500000000000002
 74
0
 49
0.1
 74
0
 49
-2.9000000000000004
 74
0
 49
0.1
 74
0
 49
-2.9500000000000002
 74
0
  0
LTYPE
  5
40
100
AcDbSymbolTableRecord
100
AcDbLinetypeTableRecord
  2
ACAD_ISO07W100
 70
0
  3
ISO dot . . . . . . . . . . . . . . . . . . . . 
 72
65
 73
2
 40
3.0
 49
0.1
 74
0
 49
-2.8999999999999999
 74
0
  0
LTYPE
  5
41
100
AcDbSymbolTableRecord
100
AcDbLinetypeTableRecord
  2
HIDDEN
 70
0
  3
Hidden __ __ __ __ __ __ __ __ __ __ __ __ __ __
 72
65
 73
2
 40
9.5249999999999986
 49
6.3499999999999996
 74
0
 49
-3.1749999999999998
 74
0
  0
LTYPE
  5
42
100
AcDbSymbolTableRecord
100
AcDbLinetypeTableRecord
  2
ACAD_ISO06W100
 70
0
  3
ISO long-dash triple-dot ____ ... ____ ... ____
 72
65
 73
8
 40
36.0
 49
24.0
 74
0
 49
-2.9500000000000002
 74
0
 49
0.1
 74
0
 49
-2.9000000000000004
 74
0
 49
0.1
 74
0
 49
-2.9000000000000004
 74
0
 49
0.1
 74
0
 49
-2.9500000000000002
 74
0
  0
LTYPE
  5
43
100
AcDbSymbolTableRecord
100
AcDbLinetypeTableRecord
  2
CENTER
 70
0
  3
Center ____ _ ____ _ ____ _ ____ _ ____ _ ____
 72
65
 73
4
 40
50.7999999999999972
 49
31.75
 74
0
 49
-6.3499999999999996
 74
0
 49
6.3499999999999996
 74
0
 49
-6.3499999999999996
 74
0
  0
LTYPE
  5
44
100
AcDbSymbolTableRecord
100
AcDbLinetypeTableRecord
  2
DOTX2
 70
0
  3
Dot (2x) .  .  .  .  .  .  .  .  .  .  .  .  .  .
 72
65
 73
2
 40
12.6999999999999993
 49
0.1
 74
0
 49
-12.5999999999999996
 74
0
  0
LTYPE
  5
45
100
AcDbSymbolTableRecord
100
AcDbLinetypeTableRecord
  2
PHANTOM
 70
0
  3
Phantom ______  __  __  ______  __  __  ______ 
 72
65
 73
6
 40
63.5
 49
31.75
 74
0
 49
-6.3499999999999996
 74
0
 49
6.3499999999999996
 74
0
 49
-6.3499999999999996
 74
0
 49
6.3499999999999996
 74
0
 49
-6.3499999999999996
 74
0
  0
LTYPE
  5
46
100
AcDbSymbolTableRecord
100
AcDbLinetypeTableRecord
  2
ACAD_ISO08W100
 70
0
  3
ISO long-dash short-dash ____ __ ____ __ ____ _
 72
65
 73
4
 40
36.0
 49
24.0
 74
0
 49
-3.0
 74
0
 49
6.0
 74
0
 49
-3.0
 74
0
  0
LTYPE
  5
47
100
AcDbSymbolTableRecord
100
AcDbLinetypeTableRecord
  2
DASHEDX2
 70
0
  3
Dashed (2x) ____  ____  ____  ____  ____  ___
 72
65
 73
2
 40
38.0999999999999943
 49
25.3999999999999986
 74
0
 49
-12.6999999999999993
 74
0
  0
LTYPE
  5
48
100
AcDbSymbolTableRecord
100
AcDbLinetypeTableRecord
  2
ACAD_ISO02W100
 70
0
  3
ISO dash __ __ __ __ __ __ __ __ __ __ __ __ __
 72
65
 73
2
 40
15.0
 49
12.0
 74
0
 49
-3.0
 74
0
  0
LTYPE
  5
49
100
AcDbSymbolTableRecord
100
AcDbLinetypeTableRecord
  2
PHANTOM2
 70
0
  3
Phantom (.5x) ___ _ _ ___ _ _ ___ _ _ ___ _ _
 72
65
 73
6
 40
31.75
 49
15.875
 74
0
 49
-3.1749999999999998
 74
0
 49
3.1749999999999998
 74
0
 49
-3.1749999999999998
 74
0
 49
3.1749999999999998
 74
0
 49
-3.1749999999999998
 74
0
  0
LTYPE
  5
4A
100
AcDbSymbolTableRecord
100
AcDbLinetypeTableRecord
  2
DASHED2
 70
0
  3
Dashed (.5x) _ _ _ _ _ _ _ _ _ _ _ _ _ _ _ _ _ 
 72
65
 73
2
 40
9.5249999999999986
 49
6.3499999999999996
 74
0
 49
-3.1749999999999998
 74
0
  0
LTYPE
  5
4B
100
AcDbSymbolTableRecord
100
AcDbLinetypeTableRecord
  2
ACAD_ISO09W100
 70
0
  3
ISO long-dash double-short-dash ____ __ __ ____
 72
65
 73
6
 40
45.0
 49
24.0
 74
0
 49
-3.0
 74
0
 49
6.0
 74
0
 49
-3.0
 74
0
 49
6.0
 74
0
 49
-3.0
 74
0
  0
LTYPE
  5
4C
100
AcDbSymbolTableRecord
100
AcDbLinetypeTableRecord
  2
ACAD_ISO13W100
 70
0
  3
ISO double-dash double-dot __ __ . . __ __ . . _
 72
65
 73
8
 40
36.0
 49
12.0
 74
0
 49
-3.0
 74
0
 49
12.0
 74
0
 49
-2.9500000000000002
 74
0
 49
0.1
 74
0
 49
-2.9000000000000004
 74
0
 49
0.1
 74
0
 49
-2.9500000000000002
 74
0
  0
LTYPE
  5
4D
100
AcDbSymbolTableRecord
100
AcDbLinetypeTableRecord
  2
DOT2
 70
0
  3
Dot (.5x) ........................................
 72
65
 73
2
 40
3.1749999999999998
 49
0.1
 74
0
 49
-3.0749999999999997
 74
0
  0
LTYPE
  5
4E
100
AcDbSymbolTableRecord
100
AcDbLinetypeTableRecord
  2
DASHED
 70
0
  3
Dashed __ __ __ __ __ __ __ __ __ __ __ __ __ _
 72
65
 73
2
 40
19.0499999999999972
 49
12.6999999999999993
 74
0
 49
-6.3499999999999996
 74
0
  0
LTYPE
  5
4F
100
AcDbSymbolTableRecord
100
AcDbLinetypeTableRecord
  2
ACAD_ISO14W100
 70
0
  3
ISO dash triple-dot __ . . . __ . . . __ . . . _
 72
65
 73
8
 40
24.0
 49
12.0
 74
0
 49
-2.9500000000000002
 74
0
 49
0.1
 74
0
 49
-2.9000000000000004
 74
0
 49
0.1
 74
0
 49
-2.9000000000000004
 74
0
 49
0.1
 74
0
 49
-2.9500000000000002
 74
0
  0
LTYPE
  5
15
100
AcDbSymbolTableRecord
100
AcDbLinetypeTableRecord
  2
BYLAYER
 70
0
  3

 72
65
 73
0
 40
0.0
  0
LTYPE
  5
50
100
AcDbSymbolTableRecord
100
AcDbLinetypeTableRecord
  2
PHANTOMX2
 70
0
  3
Phantom (2x) ____________    ____    ____   _
 72
65
 73
6
 40
127.0
 49
63.5
 74
0
 49
-12.6999999999999993
 74
0
 49
12.6999999999999993
 74
0
 49
-12.6999999999999993
 74
0
 49
12.6999999999999993
 74
0
 49
-12.6999999999999993
 74
0
  0
LTYPE
  5
14
100
AcDbSymbolTableRecord
100
AcDbLinetypeTableRecord
  2
BYBLOCK
 70
0
  3

 72
65
 73
0
 40
0.0
  0
LTYPE
  5
51
100
AcDbSymbolTableRecord
100
AcDbLinetypeTableRecord
  2
DIVIDEX2
 70
0
  3
Divide (2x) ________  .  .  ________  .  .  _
 72
65
 73
6
 40
63.4999999999999929
 49
25.3999999999999986
 74
0
 49
-12.6499999999999986
 74
0
 49
0.1
 74
0
 49
-12.5999999999999979
 74
0
 49
0.1
 74
0
 49
-12.6499999999999986
 74
0
  0
LTYPE
  5
52
100
AcDbSymbolTableRecord
100
AcDbLinetypeTableRecord
  2
BORDER
 70
0
  3
Border __ __ . __ __ . __ __ . __ __ . __ __ .
 72
65
 73
6
 40
44.4499999999999957
 49
12.6999999999999993
 74
0
 49
-6.3499999999999996
 74
0
 49
12.6999999999999993
 74
0
 49
-6.2999999999999998
 74
0
 49
0.1
 74
0
 49
-6.2999999999999998
 74
0
  0
LTYPE
  5
53
100
AcDbSymbolTableRecord
100
AcDbLinetypeTableRecord
  2
DIVIDE2
 70
0
  3
Divide (.5x) __..__..__..__..__..__..__..__.._
 72
65
 73
6
 40
15.875
 49
6.3499999999999996
 74
0
 49
-3.125
 74
0
 49
0.1
 74
0
 49
-3.0750000000000002
 74
0
 49
0.1
 74
0
 49
-3.125
 74
0
  0
LTYPE
  5
54
100
AcDbSymbolTableRecord
100
AcDbLinetypeTableRecord
  2
DOT
 70
0
  3
Dot . . . . . . . . . . . . . . . . . . . . . . . .
 72
65
 73
2
 40
6.3499999999999996
 49
0.1
 74
0
 49
-6.25
 74
0
  0
LTYPE
  5
55
100
AcDbSymbolTableRecord
100
AcDbLinetypeTableRecord
  2
DASHDOT
 70
0
  3
Dash dot __ . __ . __ . __ . __ . __ . __ . __
 72
65
 73
4
 40
25.3999999999999986
 49
12.6999999999999993
 74
0
 49
-6.2999999999999998
 74
0
 49
0.1
 74
0
 49
-6.2999999999999998
 74
0
  0
LTYPE
  5
56
100
AcDbSymbolTableRecord
100
AcDbLinetypeTableRecord
  2
ACAD_ISO03W100
 70
0
  3
ISO dash space __    __    __    __    __    __
 72
65
 73
2
 40
30.0
 49
12.0
 74
0
 49
-18.0
 74
0
  0
ENDTAB
  0
TABLE
  2
LAYER
  5
2
100
AcDbSymbolTable
 70
22
  0
LAYER
  5
57
100
AcDbSymbolTableRecord
100
AcDbLayerTableRecord
  2
Fermacell
 70
1
 62
-4
420
65535
  6
Continuous
370
25
390
F
  0
LAYER
  5
58
100
AcDbSymbolTableRecord
100
AcDbLayerTableRecord
  2
DessinMeuble
 70
1
 62
-6
420
16711935
  6
Continuous
370
25
390
F
  0
LAYER
  5
59
100
AcDbSymbolTableRecord
100
AcDbLayerTableRecord
  2
Prises Elec
 70
0
 62
1
420
16711680
  6
Continuous
370
25
390
F
  0
LAYER
  5
5A
100
AcDbSymbolTableRecord
100
AcDbLayerTableRecord
  2
Hetre
 70
0
 62
3
420
65280
  6
Continuous
370
25
390
F
  0
LAYER
  5
5B
100
AcDbSymbolTableRecord
100
AcDbLayerTableRecord
  2
OSB22
 70
0
 62
30
420
14390823
  6
Continuous
370
25
390
F
  0
LAYER
  5
5C
100
AcDbSymbolTableRecord
100
AcDbLayerTableRecord
  2
Contreplaque
 70
1
 62
-9
420
13487565
  6
Continuous
370
25
390
F
  0
LAYER
  5
5D
100
AcDbSymbolTableRecord
100
AcDbLayerTableRecord
  2
Vasques
 70
0
 62
5
420
255
  6
Continuous
370
25
390
F
  0
LAYER
  5
5E
100
AcDbSymbolTableRecord
100
AcDbLayerTableRecord
  2
DessinMeubleAlternatif
 70
1
 62
-6
420
16711935
  6
Continuous
370
25
390
F
  0
LAYER
  5
5F
100
AcDbSymbolTableRecord
100
AcDbLayerTableRecord
  2
Gobetis
 70
1
 62
-252
420
10526884
  6
Continuous
370
25
390
F
  0
LAYER
  5
60
100
AcDbSymbolTableRecord
100
AcDbLayerTableRecord
  2
Entretoises
 70
0
 62
14
420
8388608
  6
Continuous
370
25
390
F
  0
LAYER
  5
10
100
AcDbSymbolTableRecord
100
AcDbLayerTableRecord
  2
0
 70
1
 62
-7
420
16777215
  6
Continuous
370
25
390
F
  0
LAYER
  5
61
100
AcDbSymbolTableRecord
100
AcDbLayerTableRecord
  2
Tasseaux
 70
0
 62
9
420
12894879
  6
Continuous
370
25
390
F
  0
LAYER
  5
62
100
AcDbSymbolTableRecord
100
AcDbLayerTableRecord
  2
Voliges
 70
0
 62
94
420
32768
  6
Continuous
370
25
390
F
  0
LAYER
  5
63
100
AcDbSymbolTableRecord
100
AcDbLayerTableRecord
  2
Lignes
 70
1
 62
-9
420
12632256
  6
Continuous
370
25
390
F
  0
LAYER
  5
64
100
AcDbSymbolTableRecord
100
AcDbLayerTableRecord
  2
Robinets
 70
0
 62
7
420
0
  6
Continuous
370
25
390
F
  0
LAYER
  5
65
100
AcDbSymbolTableRecord
100
AcDbLayerTableRecord
  2
Tadelakt
 70
0
 62
7
420
0
  6
Continuous
370
25
390
F
  0
LAYER
  5
66
100
AcDbSymbolTableRecord
100
AcDbLayerTableRecord
  2
tablette
 70
1
 62
-3
420
65280
  6
Continuous
370
25
390
F
  0
LAYER
  5
67
100
AcDbSymbolTableRecord
100
AcDbLayerTableRecord
  2
OSB12
 70
0
 62
2
420
16776960
  6
Continuous
370
25
390
F
  0
LAYER
  5
68
100
AcDbSymbolTableRecord
100
AcDbLayerTableRecord
  2
6x4 existant
 70
0
 62
14
420
8388608
  6
Continuous
370
25
390
F
  0
LAYER
  5
69
100
AcDbSymbolTableRecord
100
AcDbLayerTableRecord
  2
OSB18
 70
0
 62
30
420
16744192
  6
Continuous
370
25
390
F
  0
LAYER
  5
6A
100
AcDbSymbolTableRecord
100
AcDbLayerTableRecord
  2
Bois
 70
0
 62
1
420
16711680
  6
Continuous
370
25
390
F
  0
LAYER
  5
6B
100
AcDbSymbolTableRecord
100
AcDbLayerTableRecord
  2
Parquet Plafond
 70
0
 62
174
420
128
  6
Continuous
370
25
390
F
  0
ENDTAB
  0
TABLE
  2
STYLE
  5
3
100
AcDbSymbolTable
 70
3
  0
STYLE
  5
6C
100
AcDbSymbolTableRecord
100
AcDbTextStyleTableRecord
  2
Standard
 70
0
 40
0.0
 41
1.0
 50
0.0
 71
0
 42
2.5
  3

  4

1001
ACAD
1000
txt
1071
0
  0
STYLE
  5
6D
100
AcDbSymbolTableRecord
100
AcDbTextStyleTableRecord
  2
textstyle0
 70
0
 40
0.0
 41
1.0
 50
0.0
 71
0
 42
100.0
  3

  4

1001
ACAD
1000
Liberation Sans
1071
0
  0
STYLE
  5
6E
100
AcDbSymbolTableRecord
100
AcDbTextStyleTableRecord
  2
textstyle1
 70
0
 40
0.0
 41
1.0
 50
0.0
 71
0
 42
100.0
  3

  4

1001
ACAD
1000
Liberation Sans
1071
0
  0
ENDTAB
  0
TABLE
  2
VIEW
  5
6
100
AcDbSymbolTable
 70
0
  0
ENDTAB
  0
TABLE
  2
UCS
  5
7
100
AcDbSymbolTable
 70
0
  0
ENDTAB
  0
TABLE
  2
APPID
  5
9
100
AcDbSymbolTable
 70
1
  0
APPID
  5
12
100
AcDbSymbolTableRecord
100
AcDbRegAppTableRecord
  2
ACAD
 70
0
  0
APPID
  5
6F
100
AcDbSymbolTableRecord
100
AcDbRegAppTableRecord
  2
QCAD
 70
0
  0
ENDTAB
  0
TABLE
  2
DIMSTYLE
  5
A
100
AcDbSymbolTable
 70
1
100
AcDbDimStyleTable
 71
0
  0
DIMSTYLE
105
27
100
AcDbSymbolTableRecord
100
AcDbDimStyleTableRecord
  2
Standard
 41
2.5
 42
0.625
 43
3.75
 44
1.25
 70
0
 73
0
 74
0
 77
1
 78
8
140
2.5
141
2.5
143
0.03937007874016
147
0.625
171
3
172
1
271
2
272
2
274
3
278
44
283
0
284
8
340
6C
  0
ENDTAB
  0
TABLE
  2
BLOCK_RECORD
  5
1
100
AcDbSymbolTable
 70
1
  0
BLOCK_RECORD
  5
1F
100
AcDbSymbolTableRecord
100
AcDbBlockTableRecord
  2
*Model_Space
340
22
  0
BLOCK_RECORD
  5
1B
100
AcDbSymbolTableRecord
100
AcDbBlockTableRecord
  2
*Paper_Space
340
1E
  0
BLOCK_RECORD
  5
23
100
AcDbSymbolTableRecord
100
AcDbBlockTableRecord
  2
*Paper_Space0
340
26
  0
BLOCK_RECORD
  5
70
100
AcDbSymbolTableRecord
100
AcDbBlockTableRecord
  2
Vasque
340
0
  0
ENDTAB
  0
ENDSEC
  0
SECTION
  2
BLOCKS
  0
BLOCK
  5
20
100
AcDbEntity
  8
0
100
AcDbBlockBegin
  2
*Model_Space
 70
0
 10
0.0
 20
0.0
 30
0.0
  3
*Model_Space
  1

  0
ENDBLK
  5
21
100
AcDbEntity
  8
0
100
AcDbBlockEnd
  0
BLOCK
  5
1C
100
AcDbEntity
 67
1
  8
0
100
AcDbBlockBegin
  2
*Paper_Space
 70
0
 10
0.0
 20
0.0
 30
0.0
  3
*Paper_Space
  1

  0
ENDBLK
  5
1D
100
AcDbEntity
 67
1
  8
0
100
AcDbBlockEnd
  0
BLOCK
  5
24
100
AcDbEntity
  8
0
100
AcDbBlockBegin
  2
*Paper_Space0
 70
0
 10
0.0
 20
0.0
 30
0.0
  3
*Paper_Space0
  1

  0
ENDBLK
  5
25
100
AcDbEntity
  8
0
100
AcDbBlockEnd
  0
BLOCK
  5
71
100
AcDbEntity
  8
0
100
AcDbBlockBegin
  2
Vasque
 70
0
 10
0.0
 20
0.0
 30
0.0
  3
Vasque
  1

  0
LINE
  5
72
100
AcDbEntity
100
AcDbLine
  8
Vasques
 62
256
370
-1
 48
1.0
  6
BYLAYER
 10
0.0
 20
0.0
 30
0.0
 11
430.0
 21
0.0
 31
0.0
  0
LINE
  5
73
100
AcDbEntity
100
AcDbLine
  8
Vasques
 62
256
370
-1
 48
1.0
  6
BYLAYER
 10
0.0
 20
500.0
 30
0.0
 11
430.0
 21
500.0
 31
0.0
  0
LINE
  5
74
100
AcDbEntity
100
AcDbLine
  8
Vasques
 62
256
370
-1
 48
1.0
  6
BYLAYER
 10
0.0
 20
0.0
 30
0.0
 11
0.0
 21
500.0
 31
0.0
  0
LINE
  5
75
100
AcDbEntity
100
AcDbLine
  8
Vasques
 62
256
370
-1
 48
1.0
  6
BYLAYER
 10
430.0
 20
500.0
 30
0.0
 11
430.0
 21
0.0
 31
0.0
  0
ENDBLK
  5
76
100
AcDbEntity
  8
0
100
AcDbBlockEnd
  0
ENDSEC
  0
SECTION
  2
ENTITIES
  0
LINE
  5
77
100
AcDbEntity
100
AcDbLine
  8
0
 62
256
370
-1
 48
1.0
  6
BYLAYER
 10
0.0
 20
0.0
 30
0.0
 11
0.0000000000001041
 21
1700.0
 31
0.0
  0
LINE
  5
78
100
AcDbEntity
100
AcDbLine
  8
OSB12
 62
256
370
-1
 48
1.0
  6
BYLAYER
 10
12.0
 20
12.0
 30
0.0
 11
12.0000000000001048
 21
1700.0
 31
0.0
  0
LINE
  5
79
100
AcDbEntity
100
AcDbLine
  8
OSB12
 62
256
370
-1
 48
1.0
  6
BYLAYER
 10
0.0000000000000007
 20
12.0
 30
0.0
 11
0.0000000000001048
 21
1700.0
 31
0.0
  0
LINE
  5
7A
100
AcDbEntity
100
AcDbLine
  8
OSB12
 62
256
370
-1
 48
1.0
  6
BYLAYER
 10
0.0
 20
12.0
 30
0.0
 11
12.0
 21
12.0
 31
0.0
  0
LINE
  5
7B
100
AcDbEntity
100
AcDbLine
  8
OSB12
 62
256
370
-1
 48
1.0
  6
BYLAYER
 10
0.0000000000001048
 20
1700.0
 30
0.0
 11
12.0000000000001048
 21
1700.0
 31
0.0
  0
LINE
  5
7C
100
AcDbEntity
100
AcDbLine
  8
OSB12
 62
256
370
-1
 48
1.0
  6
BYLAYER
 10
0.0
 20
0.0
 30
0.0
 11
310.0
 21
0.0000000000000015
 31
0.0
  0
LINE
  5
7D
100
AcDbEntity
100
AcDbLine
  8
OSB12
 62
256
370
-1
 48
1.0
  6
BYLAYER
 10
310.0
 20
12.0000000000000018
 30
0.0
 11
310.0000000000000568
 21
-550.0
 31
0.0
  0
LINE
  5
7E
100
AcDbEntity
100
AcDbLine
  8
OSB12
 62
256
370
-1
 48
1.0
  6
BYLAYER
 10
322.0
 20
12.0000000000000018
 30
0.0
 11
322.0000000000000568
 21
-550.0
 31
0.0
  0
LINE
  5
7F
100
AcDbEntity
100
AcDbLine
  8
OSB12
 62
256
370
-1
 48
1.0
  6
BYLAYER
 10
0.0000000000000007
 20
12.0
 30
0.0
 11
310.0
 21
12.0000000000000018
 31
0.0
  0
LINE
  5
80
100
AcDbEntity
100
AcDbLine
  8
OSB12
 62
256
370
-1
 48
1.0
  6
BYLAYER
 10
310.0
 20
12.0000000000000018
 30
0.0
 11
310.0
 21
0.0000000000000015
 31
0.0
  0
LINE
  5
81
100
AcDbEntity
100
AcDbLine
  8
OSB12
 62
256
370
-1
 48
1.0
  6
BYLAYER
 10
310.0
 20
12.0000000000000018
 30
0.0
 11
322.0
 21
12.0000000000000018
 31
0.0
  0
LINE
  5
82
100
AcDbEntity
100
AcDbLine
  8
OSB12
 62
256
370
-1
 48
1.0
  6
BYLAYER
 10
310.0000000000000568
 20
-550.0
 30
0.0
 11
322.0000000000000568
 21
-550.0
 31
0.0
  0
LINE
  5
83
100
AcDbEntity
100
AcDbLine
  8
OSB12
 62
256
370
-1
 48
1.0
  6
BYLAYER
 10
322.0000000000000568
 20
-550.0
 30
0.0
 11
682.0
 21
-550.0000000000001137
 31
0.0
  0
LINE
  5
84
100
AcDbEntity
100
AcDbLine
  8
OSB12
 62
256
370
-1
 48
1.0
  6
BYLAYER
 10
322.0000000000000568
 20
-538.0
 30
0.0
 11
682.0
 21
-538.0000000000001137
 31
0.0
  0
LINE
  5
85
100
AcDbEntity
100
AcDbLine
  8
OSB12
 62
256
370
-1
 48
1.0
  6
BYLAYER
 10
682.0
 20
-550.0000000000001137
 30
0.0
 11
682.0
 21
-538.0000000000001137
 31
0.0
  0
LINE
  5
86
100
AcDbEntity
100
AcDbLine
  8
OSB22
 62
256
370
-1
 48
1.0
  6
BYLAYER
 10
12.0000000000001048
 20
1682.0
 30
0.0
 11
12.0
 21
12.0
 31
0.0
  0
LINE
  5
87
100
AcDbEntity
100
AcDbLine
  8
OSB22
 62
256
370
-1
 48
1.0
  6
BYLAYER
 10
12.0
 20
12.0
 30
0.0
 11
682.0
 21
12.0
 31
0.0
  0
LINE
  5
88
100
AcDbEntity
100
AcDbLine
  8
OSB22
 62
256
370
-1
 48
1.0
  6
BYLAYER
 10
682.0
 20
12.0
 30
0.0
 11
682.0
 21
1682.0
 31
0.0
  0
LINE
  5
89
100
AcDbEntity
100
AcDbLine
  8
OSB18
 62
256
370
-1
 48
1.0
  6
BYLAYER
 10
30.0000000000001066
 20
1700.0
 30
0.0
 11
30.0
 21
11.9999999999999964
 31
0.0
  0
LINE
  5
8A
100
AcDbEntity
100
AcDbLine
  8
OSB18
 62
256
370
-1
 48
1.0
  6
BYLAYER
 10
12.0000000000001048
 20
1700.0
 30
0.0
 11
12.0
 21
11.9999999999999982
 31
0.0
  0
LINE
  5
8B
100
AcDbEntity
100
AcDbLine
  8
OSB18
 62
256
370
-1
 48
1.0
  6
BYLAYER
 10
12.0
 20
12.0
 30
0.0
 11
30.0
 21
11.9999999999999964
 31
0.0
  0
LINE
  5
8C
100
AcDbEntity
100
AcDbLine
  8
OSB18
 62
256
370
-1
 48
1.0
  6
BYLAYER
 10
30.0
 20
11.9999999999999964
 30
0.0
 11
30.0000000000001066
 21
1700.0
 31
0.0
  0
LINE
  5
8D
100
AcDbEntity
100
AcDbLine
  8
OSB18
 62
256
370
-1
 48
1.0
  6
BYLAYER
 10
30.0000000000001066
 20
1700.0
 30
0.0
 11
12.0000000000001048
 21
1700.0
 31
0.0
  0
LINE
  5
8E
100
AcDbEntity
100
AcDbLine
  8
Fermacell
 62
256
370
-1
 48
1.0
  6
BYLAYER
 10
43.0
 20
30.0
 30
0.0
 11
43.0000000000001066
 21
1682.0
 31
0.0
  0
LINE
  5
8F
100
AcDbEntity
100
AcDbLine
  8
OSB18
 62
256
370
-1
 48
1.0
  6
BYLAYER
 10
0.0000000000000018
 20
30.0
 30
0.0
 11
653.0
 21
30.0
 31
0.0
  0
LINE
  5
90
100
AcDbEntity
100
AcDbLine
  8
OSB18
 62
256
370
-1
 48
1.0
  6
BYLAYER
 10
0.0000000000000029
 20
12.0
 30
0.0
 11
653.0
 21
12.0
 31
0.0
  0
LINE
  5
91
100
AcDbEntity
100
AcDbLine
  8
OSB18
 62
256
370
-1
 48
1.0
  6
BYLAYER
 10
653.0
 20
30.0
 30
0.0
 11
653.0
 21
12.0000000000000053
 31
0.0
  0
LINE
  5
92
100
AcDbEntity
100
AcDbLine
  8
OSB18
 62
256
370
-1
 48
1.0
  6
BYLAYER
 10
30.0
 20
11.9999999999999964
 30
0.0
 11
30.0
 21
30.0
 31
0.0
  0
LINE
  5
93
100
AcDbEntity
100
AcDbLine
  8
OSB18
 62
256
370
-1
 48
1.0
  6
BYLAYER
 10
682.0
 20
1700.0
 30
0.0
 11
682.0
 21
1682.0
 31
0.0
  0
LINE
  5
94
100
AcDbEntity
100
AcDbLine
  8
OSB18
 62
256
370
-1
 48
1.0
  6
BYLAYER
 10
30.0000000000001066
 20
1700.0
 30
0.0
 11
30.0000000000001066
 21
1682.0
 31
0.0
  0
LINE
  5
95
100
AcDbEntity
100
AcDbLine
  8
tablette
 62
256
370
-1
 48
1.0
  6
BYLAYER
 10
512.0000000000001137
 20
1648.0
 30
0.0
 11
512.0000000000001137
 21
1700.0
 31
0.0
  0
LINE
  5
96
100
AcDbEntity
100
AcDbLine
  8
tablette
 62
256
370
-1
 48
1.0
  6
BYLAYER
 10
512.0000000000001137
 20
1648.0
 30
0.0
 11
800.0
 21
1648.0
 31
0.0
  0
LINE
  5
97
100
AcDbEntity
100
AcDbLine
  8
Fermacell
 62
256
370
-1
 48
1.0
  6
BYLAYER
 10
43.0
 20
43.0
 30
0.0
 11
666.0
 21
43.0
 31
0.0
  0
LINE
  5
98
100
AcDbEntity
100
AcDbLine
  8
Fermacell
 62
256
370
-1
 48
1.0
  6
BYLAYER
 10
30.0
 20
30.0
 30
0.0
 11
666.0
 21
30.0
 31
0.0
  0
LINE
  5
99
100
AcDbEntity
100
AcDbLine
  8
Fermacell
 62
256
370
-1
 48
1.0
  6
BYLAYER
 10
30.0
 20
30.0
 30
0.0
 11
30.0000000000001066
 21
1682.0
 31
0.0
  0
LINE
  5
9A
100
AcDbEntity
100
AcDbLine
  8
Gobetis
 62
256
370
-1
 48
1.0
  6
BYLAYER
 10
43.0000000000001066
 20
1669.0
 30
0.0
 11
682.0
 21
1669.0
 31
0.0
  0
LINE
  5
9B
100
AcDbEntity
100
AcDbLine
  8
0
 62
256
370
-1
 48
1.0
  6
BYLAYER
 10
43.0000000000001066
 20
1648.0
 30
0.0
 11
682.0
 21
1648.0
 31
0.0
  0
LINE
  5
9C
100
AcDbEntity
100
AcDbLine
  8
DessinMeuble
 62
256
370
-1
 48
1.0
  6
BYLAYER
 10
322.0
 20
12.0000000000000018
 30
0.0
 11
322.0
 21
1254.0
 31
0.0
  0
LINE
  5
9D
100
AcDbEntity
100
AcDbLine
  8
Gobetis
 62
256
370
-1
 48
1.0
  6
BYLAYER
 10
51.0
 20
51.0
 30
0.0
 11
664.0
 21
51.0
 31
0.0
  0
LINE
  5
9E
100
AcDbEntity
100
AcDbLine
  8
Gobetis
 62
256
370
-1
 48
1.0
  6
BYLAYER
 10
43.0
 20
43.0
 30
0.0
 11
666.0
 21
43.0
 31
0.0
  0
LINE
  5
9F
100
AcDbEntity
100
AcDbLine
  8
Tadelakt
 62
256
370
-1
 48
1.0
  6
BYLAYER
 10
54.0
 20
54.0
 30
0.0
 11
667.0
 21
54.0
 31
0.0
  0
LINE
  5
A0
100
AcDbEntity
100
AcDbLine
  8
Tadelakt
 62
256
370
-1
 48
1.0
  6
BYLAYER
 10
51.0
 20
51.0
 30
0.0
 11
664.0
 21
51.0
 31
0.0
  0
LINE
  5
A1
100
AcDbEntity
100
AcDbLine
  8
DessinMeuble
 62
256
370
-1
 48
1.0
  6
BYLAYER
 10
43.0000000000000711
 20
1254.0
 30
0.0
 11
322.0
 21
1254.0
 31
0.0
  0
SPLINE
  5
A2
  8
DessinMeuble
 62
256
370
-1
 48
1.0
  6
BYLAYER
100
AcDbEntity
100
AcDbSpline
 70
8
 71
3
 72
8
 73
4
 74
0
 40
0.0
 40
0.0
 40
0.0
 40
0.0
 40
1.0
 40
1.0
 40
1.0
 40
1.0
 10
322.0
 20
1254.0
 30
0.0
 10
322.0
 20
1400.0
 30
0.0
 10
400.0
 20
1600.0
 30
0.0
 10
512.0000000000001137
 20
1648.0
 30
0.0
  0
INSERT
  5
A3
100
AcDbEntity
100
AcDbBlockReference
  8
Vasques
 62
256
370
-1
 48
1.0
  6
BYLAYER
  2
Vasque
 10
252.0
 20
1007.0
 30
0.0
  0
INSERT
  5
A4
100
AcDbEntity
100
AcDbBlockReference
  8
Vasques
 62
256
370
-1
 48
1.0
  6
BYLAYER
  2
Vasque
 10
252.0
 20
205.0
 30
0.0
  0
LINE
  5
A5
100
AcDbEntity
100
AcDbLine
  8
0
 62
256
370
-1
 48
1.0
  6
BYLAYER
 10
43.0000000000000071
 20
205.0
 30
0.0
 11
682.0
 21
205.0
 31
0.0
  0
LINE
  5
A6
100
AcDbEntity
100
AcDbLine
  8
0
 62
256
370
-1
 48
1.0
  6
BYLAYER
 10
587.0
 20
12.0000000000000124
 30
0.0
 11
587.0
 21
1682.0
 31
0.0
  0
LINE
  5
A7
100
AcDbEntity
100
AcDbLine
  8
0
 62
256
370
-1
 48
1.0
  6
BYLAYER
 10
157.0000000000000284
 20
1007.0
 30
0.0
 11
587.0
 21
1007.0
 31
0.0
  0
LINE
  5
A8
100
AcDbEntity
100
AcDbLine
  8
Gobetis
 62
256
370
-1
 48
1.0
  6
BYLAYER
 10
51.0
 20
51.0
 30
0.0
 11
51.0000000000001066
 21
1661.0
 31
0.0
  0
LINE
  5
A9
100
AcDbEntity
100
AcDbLine
  8
Gobetis
 62
256
370
-1
 48
1.0
  6
BYLAYER
 10
43.0
 20
43.0
 30
0.0
 11
43.0000000000001066
 21
1669.0
 31
0.0
  0
LINE
  5
AA
100
AcDbEntity
100
AcDbLine
  8
Tadelakt
 62
256
370
-1
 48
1.0
  6
BYLAYER
 10
54.0
 20
54.0
 30
0.0
 11
54.0000000000001066
 21
1660.0
 31
0.0
  0
LINE
  5
AB
100
AcDbEntity
100
AcDbLine
  8
Tadelakt
 62
256
370
-1
 48
1.0
  6
BYLAYER
 10
51.0
 20
51.0
 30
0.0
 11
51.0000000000001066
 21
1665.0
 31
0.0
  0
XLINE
  5
AC
100
AcDbEntity
100
AcDbLine
  8
Lignes
 62
256
370
-1
 48
1.0
  6
BYLAYER
 10
-2000.0
 20
5000.0
 30
0.0
 11
0.7071067811864395
 21
0.7071067811866669
 31
0.0
  0
XLINE
  5
AD
100
AcDbEntity
100
AcDbLine
  8
Lignes
 62
256
370
-1
 48
1.0
  6
BYLAYER
 10
310.0000000000000568
 20
-550.0
 30
0.0
 11
1.0
 21
0.0
 31
0.0
  0
XLINE
  5
AE
100
AcDbEntity
100
AcDbLine
  8
Lignes
 62
256
370
-1
 48
1.0
  6
BYLAYER
 10
0.0000000000001041
 20
1700.0
 30
0.0
 11
1.0
 21
0.0
 31
0.0
  0
RAY
  5
AF
100
AcDbEntity
100
AcDbLine
  8
Lignes
 62
256
370
-1
 48
1.0
  6
BYLAYER
 10
-7549.9999999982155714
 20
-550.0
 30
0.0
 11
0.0
 21
1.0
 31
0.0
  0
RAY
  5
B0
100
AcDbEntity
100
AcDbLine
  8
Lignes
 62
256
370
-1
 48
1.0
  6
BYLAYER
 10
-5299.9999999989386197
 20
1700.0
 30
0.0
 11
0.0
 21
1.0
 31
0.0
  0
LINE
  5
B1
100
AcDbEntity
100
AcDbLine
  8
OSB12
 62
256
370
-1
 48
1.0
  6
BYLAYER
 10
-7549.9999999982155714
 20
3000.0
 30
0.0
 11
-5299.9999999989386197
 21
3000.0
 31
0.0
  0
LINE
  5
B2
100
AcDbEntity
100
AcDbLine
  8
OSB12
 62
256
370
-1
 48
1.0
  6
BYLAYER
 10
-7549.9999999982155714
 20
5590.0
 30
0.0
 11
-5299.9999999989386197
 21
5590.0
 31
0.0
  0
LINE
  5
B3
100
AcDbEntity
100
AcDbLine
  8
OSB12
 62
256
370
-1
 48
1.0
  6
BYLAYER
 10
-7549.9999999982155714
 20
5590.0
 30
0.0
 11
-7549.9999999982155714
 21
3000.0
 31
0.0
  0
LINE
  5
B4
100
AcDbEntity
100
AcDbLine
  8
OSB12
 62
256
370
-1
 48
1.0
  6
BYLAYER
 10
-5299.9999999989386197
 20
5590.0
 30
0.0
 11
-5299.9999999989386197
 21
3000.0
 31
0.0
  0
LINE
  5
B5
100
AcDbEntity
100
AcDbLine
  8
OSB12
 62
256
370
-1
 48
1.0
  6
BYLAYER
 10
-6999.9999999983920134
 20
3000.0
 30
0.0
 11
-6999.9999999983920134
 21
5590.0
 31
0.0
  0
LINE
  5
B6
100
AcDbEntity
100
AcDbLine
  8
OSB12
 62
256
370
-1
 48
1.0
  6
BYLAYER
 10
-6987.9999999983920134
 20
3000.0
 30
0.0
 11
-6987.9999999983920134
 21
5590.0
 31
0.0
  0
LINE
  5
B7
100
AcDbEntity
100
AcDbLine
  8
OSB12
 62
256
370
-1
 48
1.0
  6
BYLAYER
 10
-7537.9999999982155714
 20
5590.0
 30
0.0
 11
-7537.9999999982155714
 21
3000.0
 31
0.0
  0
LINE
  5
B8
100
AcDbEntity
100
AcDbLine
  8
OSB18
 62
256
370
-1
 48
1.0
  6
BYLAYER
 10
-6969.9999999983920134
 20
3000.0
 30
0.0
 11
-6969.9999999983920134
 21
5590.0
 31
0.0
  0
LINE
  5
B9
100
AcDbEntity
100
AcDbLine
  8
OSB18
 62
256
370
-1
 48
1.0
  6
BYLAYER
 10
-5317.9999999989386197
 20
4220.0
 30
0.0
 11
-5317.9999999989386197
 21
3000.0
 31
0.0
  0
LINE
  5
BA
100
AcDbEntity
100
AcDbLine
  8
DessinMeuble
 62
256
370
-1
 48
1.0
  6
BYLAYER
 10
-6969.9999999983920134
 20
4346.0
 30
0.0
 11
-5299.9999999989386197
 21
4346.0
 31
0.0
  0
LINE
  5
BB
100
AcDbEntity
100
AcDbLine
  8
tablette
 62
256
370
-1
 48
1.0
  6
BYLAYER
 10
-5351.9999999989386197
 20
4247.0
 30
0.0
 11
-5351.9999999989386197
 21
4220.0
 31
0.0
  0
LINE
  5
BC
100
AcDbEntity
100
AcDbLine
  8
tablette
 62
256
370
-1
 48
1.0
  6
BYLAYER
 10
-5351.9999999989386197
 20
4247.0
 30
0.0
 11
-5299.9999999989386197
 21
4247.0
 31
0.0
  0
LINE
  5
BD
100
AcDbEntity
100
AcDbLine
  8
tablette
 62
256
370
-1
 48
1.0
  6
BYLAYER
 10
-5299.9999999989386197
 20
4220.0
 30
0.0
 11
-5299.9999999989386197
 21
4247.0
 31
0.0
  0
LINE
  5
BE
100
AcDbEntity
100
AcDbLine
  8
tablette
 62
256
370
-1
 48
1.0
  6
BYLAYER
 10
-5351.9999999989386197
 20
4220.0
 30
0.0
 11
-5299.9999999989386197
 21
4220.0
 31
0.0
  0
LINE
  5
BF
100
AcDbEntity
100
AcDbLine
  8
OSB22
 62
256
370
-1
 48
1.0
  6
BYLAYER
 10
-6969.9999999983920134
 20
3911.0
 30
0.0
 11
-5317.9999999989386197
 21
3911.0
 31
0.0
  0
LINE
  5
C0
100
AcDbEntity
100
AcDbLine
  8
OSB22
 62
256
370
-1
 48
1.0
  6
BYLAYER
 10
-6969.9999999983920134
 20
3933.0
 30
0.0
 11
-5317.9999999989386197
 21
3933.0
 31
0.0
  0
LINE
  5
C1
100
AcDbEntity
100
AcDbLine
  8
Fermacell
 62
256
370
-1
 48
1.0
  6
BYLAYER
 10
-6969.9999999983920134
 20
3946.0
 30
0.0
 11
-5317.9999999989386197
 21
3946.0
 31
0.0
  0
LINE
  5
C2
100
AcDbEntity
100
AcDbLine
  8
Fermacell
 62
256
370
-1
 48
1.0
  6
BYLAYER
 10
-6969.9999999983920134
 20
3933.0
 30
0.0
 11
-5317.9999999989386197
 21
3933.0
 31
0.0
  0
LINE
  5
C3
100
AcDbEntity
100
AcDbLine
  8
Gobetis
 62
256
370
-1
 48
1.0
  6
BYLAYER
 10
-6948.9999999983920134
 20
3954.0
 30
0.0
 11
-5338.9999999989386197
 21
3954.0
 31
0.0
  0
LINE
  5
C4
100
AcDbEntity
100
AcDbLine
  8
Gobetis
 62
256
370
-1
 48
1.0
  6
BYLAYER
 10
-6956.9999999983920134
 20
3946.0
 30
0.0
 11
-5330.9999999989386197
 21
3946.0
 31
0.0
  0
LINE
  5
C5
100
AcDbEntity
100
AcDbLine
  8
Tadelakt
 62
256
370
-1
 48
1.0
  6
BYLAYER
 10
-6945.9999999983920134
 20
3957.0
 30
0.0
 11
-5341.9999999989386197
 21
3957.0
 31
0.0
  0
LINE
  5
C6
100
AcDbEntity
100
AcDbLine
  8
Tadelakt
 62
256
370
-1
 48
1.0
  6
BYLAYER
 10
-6948.9999999983920134
 20
3954.0
 30
0.0
 11
-5338.9999999989386197
 21
3954.0
 31
0.0
  0
LINE
  5
C7
100
AcDbEntity
100
AcDbLine
  8
Parquet Plafond
 62
256
370
-1
 48
1.0
  6
BYLAYER
 10
-7549.9999999982155714
 20
3062.0
 30
0.0
 11
-5299.9999999989386197
 21
3062.0
 31
0.0
  0
LINE
  5
C8
100
AcDbEntity
100
AcDbLine
  8
Parquet Plafond
 62
256
370
-1
 48
1.0
  6
BYLAYER
 10
-7549.9999999982155714
 20
5562.0
 30
0.0
 11
-5299.9999999989386197
 21
5562.0
 31
0.0
  0
LINE
  5
C9
100
AcDbEntity
100
AcDbLine
  8
DessinMeuble
 62
256
370
-1
 48
1.0
  6
BYLAYER
 10
-5745.999999998795829
 20
4346.0
 30
0.0
 11
-5745.999999998795829
 21
5590.0
 31
0.0
  0
LINE
  5
CA
100
AcDbEntity
100
AcDbLine
  8
Robinets
 62
256
370
-1
 48
1.0
  6
BYLAYER
 10
252.0
 20
455.0
 30
0.0
 11
299.0
 21
455.0
 31
0.0
  0
LINE
  5
CB
100
AcDbEntity
100
AcDbLine
  8
Robinets
 62
256
370
-1
 48
1.0
  6
BYLAYER
 10
252.0
 20
1257.0
 30
0.0
 11
299.0
 21
1257.0
 31
0.0
  0
CIRCLE
  5
CC
100
AcDbEntity
100
AcDbCircle
  8
Robinets
 62
256
370
-1
 48
1.0
  6
BYLAYER
 10
299.0
 20
455.0
 30
0.0
 40
40.0
  0
CIRCLE
  5
CD
100
AcDbEntity
100
AcDbCircle
  8
Robinets
 62
256
370
-1
 48
1.0
  6
BYLAYER
 10
299.0
 20
1257.0
 30
0.0
 40
40.0
  0
LINE
  5
CE
100
AcDbEntity
100
AcDbLine
  8
Robinets
 62
256
370
-1
 48
1.0
  6
BYLAYER
 10
-6524.999999998538442
 20
3972.0
 30
0.0
 11
-6524.999999998538442
 21
4111.0
 31
0.0
  0
LINE
  5
CF
100
AcDbEntity
100
AcDbLine
  8
Robinets
 62
256
370
-1
 48
1.0
  6
BYLAYER
 10
-5722.9999999987967385
 20
3972.0
 30
0.0
 11
-5722.9999999987967385
 21
4111.0
 31
0.0
  0
LINE
  5
D0
100
AcDbEntity
100
AcDbLine
  8
Robinets
 62
256
370
-1
 48
1.0
  6
BYLAYER
 10
-6564.999999998538442
 20
3972.0
 30
0.0
 11
-6564.999999998538442
 21
4111.0
 31
0.0
  0
LINE
  5
D1
100
AcDbEntity
100
AcDbLine
  8
Robinets
 62
256
370
-1
 48
1.0
  6
BYLAYER
 10
-5762.9999999987967385
 20
3972.0
 30
0.0
 11
-5762.9999999987967385
 21
4111.0
 31
0.0
  0
LINE
  5
D2
100
AcDbEntity
100
AcDbLine
  8
Robinets
 62
256
370
-1
 48
1.0
  6
BYLAYER
 10
-6564.999999998538442
 20
4111.0
 30
0.0
 11
-6524.999999998538442
 21
4111.0
 31
0.0
  0
LINE
  5
D3
100
AcDbEntity
100
AcDbLine
  8
Robinets
 62
256
370
-1
 48
1.0
  6
BYLAYER
 10
-6564.999999998538442
 20
3972.0
 30
0.0
 11
-6524.999999998538442
 21
3972.0
 31
0.0
  0
LINE
  5
D4
100
AcDbEntity
100
AcDbLine
  8
Robinets
 62
256
370
-1
 48
1.0
  6
BYLAYER
 10
-5762.9999999987967385
 20
4111.0
 30
0.0
 11
-5722.9999999987967385
 21
4111.0
 31
0.0
  0
LINE
  5
D5
100
AcDbEntity
100
AcDbLine
  8
Robinets
 62
256
370
-1
 48
1.0
  6
BYLAYER
 10
-5762.9999999987967385
 20
3972.0
 30
0.0
 11
-5722.9999999987967385
 21
3972.0
 31
0.0
  0
LINE
  5
D6
100
AcDbEntity
100
AcDbLine
  8
Prises Elec
 62
256
370
-1
 48
1.0
  6
BYLAYER
 10
-6999.9999999983920134
 20
4280.0
 30
0.0
 11
-6969.9999999983920134
 21
4280.0
 31
0.0
  0
LINE
  5
D7
100
AcDbEntity
100
AcDbLine
  8
Prises Elec
 62
256
370
-1
 48
1.0
  6
BYLAYER
 10
-7549.9999999982155714
 20
4280.0
 30
0.0
 11
-7537.9999999982155714
 21
4280.0
 31
0.0
  0
LINE
  5
D8
100
AcDbEntity
100
AcDbLine
  8
Prises Elec
 62
256
370
-1
 48
1.0
  6
BYLAYER
 10
-6999.9999999983920134
 20
4350.0
 30
0.0
 11
-6969.9999999983920134
 21
4350.0
 31
0.0
  0
LINE
  5
D9
100
AcDbEntity
100
AcDbLine
  8
Prises Elec
 62
256
370
-1
 48
1.0
  6
BYLAYER
 10
-7549.9999999982155714
 20
4350.0
 30
0.0
 11
-7537.9999999982155714
 21
4350.0
 31
0.0
  0
LINE
  5
DA
100
AcDbEntity
100
AcDbLine
  8
DessinMeubleAlternatif
 62
256
370
-1
 48
1.0
  6
BYLAYER
 10
-5351.9999999989386197
 20
4647.0
 30
0.0
 11
-5770.9999999983920134
 21
4647.0
 31
0.0
  0
LINE
  5
DB
100
AcDbEntity
100
AcDbLine
  8
DessinMeubleAlternatif
 62
256
370
-1
 48
1.0
  6
BYLAYER
 10
-5351.9999999989386197
 20
5047.0
 30
0.0
 11
-5770.9999999983920134
 21
5047.0
 31
0.0
  0
LINE
  5
DC
100
AcDbEntity
100
AcDbLine
  8
Vasques
 62
256
370
-1
 48
1.0
  6
BYLAYER
 10
-5992.9999999987157935
 20
3972.0
 30
0.0
 11
-5492.999999998876774
 21
3972.0
 31
0.0
  0
LINE
  5
DD
100
AcDbEntity
100
AcDbLine
  8
Vasques
 62
256
370
-1
 48
1.0
  6
BYLAYER
 10
-6794.9999999984584065
 20
3972.0
 30
0.0
 11
-6294.9999999986184775
 21
3972.0
 31
0.0
  0
LINE
  5
DE
100
AcDbEntity
100
AcDbLine
  8
Vasques
 62
256
370
-1
 48
1.0
  6
BYLAYER
 10
-5992.9999999987157935
 20
3812.0
 30
0.0
 11
-5492.999999998876774
 21
3812.0
 31
0.0
  0
LINE
  5
DF
100
AcDbEntity
100
AcDbLine
  8
Vasques
 62
256
370
-1
 48
1.0
  6
BYLAYER
 10
-6794.9999999984584065
 20
3812.0
 30
0.0
 11
-6294.9999999986184775
 21
3812.0
 31
0.0
  0
LINE
  5
E0
100
AcDbEntity
100
AcDbLine
  8
Robinets
 62
256
370
-1
 48
1.0
  6
BYLAYER
 10
-6564.999999998538442
 20
4149.0
 30
0.0
 11
-6524.999999998538442
 21
4149.0
 31
0.0
  0
LINE
  5
E1
100
AcDbEntity
100
AcDbLine
  8
Robinets
 62
256
370
-1
 48
1.0
  6
BYLAYER
 10
-5762.9999999987967385
 20
4149.0
 30
0.0
 11
-5722.9999999987967385
 21
4149.0
 31
0.0
  0
LINE
  5
E2
100
AcDbEntity
100
AcDbLine
  8
Fermacell
 62
256
370
-1
 48
1.0
  6
BYLAYER
 10
-6956.9999999983920134
 20
3946.0
 30
0.0
 11
-6956.9999999983920134
 21
4247.0
 31
0.0
  0
LINE
  5
E3
100
AcDbEntity
100
AcDbLine
  8
Gobetis
 62
256
370
-1
 48
1.0
  6
BYLAYER
 10
-6948.9999999983920134
 20
3954.0
 30
0.0
 11
-6948.9999999983920134
 21
4247.0
 31
0.0
  0
LINE
  5
E4
100
AcDbEntity
100
AcDbLine
  8
Tadelakt
 62
256
370
-1
 48
1.0
  6
BYLAYER
 10
-6945.9999999983920134
 20
3957.0
 30
0.0
 11
-6945.9999999983920134
 21
4247.0
 31
0.0
  0
LINE
  5
E5
100
AcDbEntity
100
AcDbLine
  8
DessinMeubleAlternatif
 62
256
370
-1
 48
1.0
  6
BYLAYER
 10
-6065.9999999983920134
 20
4220.0
 30
0.0
 11
-6065.9999999983920134
 21
5047.0
 31
0.0
  0
LINE
  5
E6
100
AcDbEntity
100
AcDbLine
  8
DessinMeubleAlternatif
 62
256
370
-1
 48
1.0
  6
BYLAYER
 10
-6655.9999999983920134
 20
4220.0
 30
0.0
 11
-6655.9999999983920134
 21
5047.0
 31
0.0
  0
LINE
  5
E7
100
AcDbEntity
100
AcDbLine
  8
DessinMeubleAlternatif
 62
256
370
-1
 48
1.0
  6
BYLAYER
 10
-5770.9999999983920134
 20
4220.0
 30
0.0
 11
-5770.9999999983920134
 21
5590.0
 31
0.0
  0
LINE
  5
E8
100
AcDbEntity
100
AcDbLine
  8
DessinMeubleAlternatif
 62
256
370
-1
 48
1.0
  6
BYLAYER
 10
-6360.9999999983920134
 20
4220.0
 30
0.0
 11
-6360.9999999983920134
 21
5590.0
 31
0.0
  0
LINE
  5
E9
100
AcDbEntity
100
AcDbLine
  8
DessinMeubleAlternatif
 62
256
370
-1
 48
1.0
  6
BYLAYER
 10
-6060.9999999983920134
 20
4220.0
 30
0.0
 11
-6060.9999999983920134
 21
5047.0
 31
0.0
  0
LINE
  5
EA
100
AcDbEntity
100
AcDbLine
  8
DessinMeubleAlternatif
 62
256
370
-1
 48
1.0
  6
BYLAYER
 10
-6650.9999999983920134
 20
4220.0
 30
0.0
 11
-6650.9999999983920134
 21
5047.0
 31
0.0
  0
LINE
  5
EB
100
AcDbEntity
100
AcDbLine
  8
DessinMeubleAlternatif
 62
256
370
-1
 48
1.0
  6
BYLAYER
 10
-6355.9999999983920134
 20
4220.0
 30
0.0
 11
-6355.9999999983920134
 21
5590.0
 31
0.0
  0
LINE
  5
EC
100
AcDbEntity
100
AcDbLine
  8
Fermacell
 62
256
370
-1
 48
1.0
  6
BYLAYER
 10
-5330.9999999989386197
 20
4220.0
 30
0.0
 11
-5330.9999999989386197
 21
3946.0
 31
0.0
  0
LINE
  5
ED
100
AcDbEntity
100
AcDbLine
  8
Gobetis
 62
256
370
-1
 48
1.0
  6
BYLAYER
 10
-5338.9999999989386197
 20
4220.0
 30
0.0
 11
-5338.9999999989386197
 21
3954.0
 31
0.0
  0
LINE
  5
EE
100
AcDbEntity
100
AcDbLine
  8
Tadelakt
 62
256
370
-1
 48
1.0
  6
BYLAYER
 10
-5341.9999999989386197
 20
4220.0
 30
0.0
 11
-5341.9999999989386197
 21
3957.0
 31
0.0
  0
LINE
  5
EF
100
AcDbEntity
100
AcDbLine
  8
0
 62
256
370
-1
 48
1.0
  6
BYLAYER
 10
672.0
 20
12.0000000000000018
 30
0.0
 11
672.0
 21
1682.0
 31
0.0
  0
LINE
  5
F0
100
AcDbEntity
100
AcDbLine
  8
0
 62
256
370
-1
 48
1.0
  6
BYLAYER
 10
597.0
 20
12.0000000000000107
 30
0.0
 11
597.0
 21
1682.0
 31
0.0
  0
LINE
  5
F1
100
AcDbEntity
100
AcDbLine
  8
Prises Elec
 62
256
370
-1
 48
1.0
  6
BYLAYER
 10
672.0
 20
54.0
 30
0.0
 11
597.0
 21
54.0
 31
0.0
  0
LINE
  5
F2
100
AcDbEntity
100
AcDbLine
  8
Prises Elec
 62
256
370
-1
 48
1.0
  6
BYLAYER
 10
672.0
 20
14.0
 30
0.0
 11
597.0
 21
14.0
 31
0.0
  0
LINE
  5
F3
100
AcDbEntity
100
AcDbLine
  8
Prises Elec
 62
256
370
-1
 48
1.0
  6
BYLAYER
 10
597.0
 20
54.0
 30
0.0
 11
597.0
 21
14.0
 31
0.0
  0
LINE
  5
F4
100
AcDbEntity
100
AcDbLine
  8
Prises Elec
 62
256
370
-1
 48
1.0
  6
BYLAYER
 10
672.0
 20
14.0
 30
0.0
 11
672.0
 21
54.0
 31
0.0
  0
LINE
  5
F5
100
AcDbEntity
100
AcDbLine
  8
DessinMeubleAlternatif
 62
256
370
-1
 48
1.0
  6
BYLAYER
 10
-5770.9999999983920134
 20
5047.0
 30
0.0
 11
-6945.9999999983920134
 21
5047.0
 31
0.0
  0
MTEXT
  5
F6
100
AcDbEntity
100
AcDbMText
  8
DessinMeubleAlternatif
 62
256
370
-1
 48
1.0
  6
BYLAYER
 10
-5800.0
 20
5900.0
 30
0.0
 40
100.0
 41
0.0
 71
1
 72
1
  1
Coulissant
  7
textstyle0
 50
0.0
 73
2
 44
1.0
  0
LINE
  5
F7
100
AcDbEntity
100
AcDbLine
  8
DessinMeubleAlternatif
 62
256
370
-1
 48
1.0
  6
BYLAYER
 10
-5800.0
 20
5700.0
 30
0.0
 11
-6700.0
 21
5300.0
 31
0.0
  0
LINE
  5
F8
100
AcDbEntity
100
AcDbLine
  8
DessinMeubleAlternatif
 62
256
370
-1
 48
1.0
  6
BYLAYER
 10
-5800.0
 20
5700.0
 30
0.0
 11
-6000.0
 21
5200.0
 31
0.0
  0
LINE
  5
F9
100
AcDbEntity
100
AcDbLine
  8
DessinMeubleAlternatif
 62
256
370
-1
 48
1.0
  6
BYLAYER
 10
-5800.0
 20
5700.0
 30
0.0
 11
-5500.0
 21
5300.0
 31
0.0
  0
MTEXT
  5
FA
100
AcDbEntity
100
AcDbMText
  8
DessinMeubleAlternatif
 62
256
370
-1
 48
1.0
  6
BYLAYER
 10
-4843.6214418164845483
 20
4668.3160692323099283
 30
0.0
 40
100.0
 41
0.0
 71
1
 72
1
  1
Etag\U+00e8res
  7
textstyle1
 50
0.0
 73
2
 44
1.0
  0
LINE
  5
FB
100
AcDbEntity
100
AcDbLine
  8
DessinMeubleAlternatif
 62
256
370
-1
 48
1.0
  6
BYLAYER
 10
-4900.0
 20
4600.0
 30
0.0
 11
-5600.0
 21
4900.0
 31
0.0
  0
LINE
  5
FC
100
AcDbEntity
100
AcDbLine
  8
DessinMeubleAlternatif
 62
256
370
-1
 48
1.0
  6
BYLAYER
 10
-4900.0
 20
4600.0
 30
0.0
 11
-5600.0
 21
4400.0
 31
0.0
  0
LINE
  5
FD
100
AcDbEntity
100
AcDbLine
  8
Entretoises
 62
256
370
-1
 48
1.0
  6
BYLAYER
 10
-7894.9999999982155714
 20
3920.0
 30
0.0
 11
-7583.9999999982155714
 21
3920.0
 31
0.0
  0
LINE
  5
FE
100
AcDbEntity
100
AcDbLine
  8
Entretoises
 62
256
370
-1
 48
1.0
  6
BYLAYER
 10
-7894.9999999982155714
 20
3950.0
 30
0.0
 11
-7583.9999999982155714
 21
3950.0
 31
0.0
  0
LINE
  5
FF
100
AcDbEntity
100
AcDbLine
  8
Entretoises
 62
256
370
-1
 48
1.0
  6
BYLAYER
 10
-7894.9999999982155714
 20
4800.0
 30
0.0
 11
-7583.9999999982155714
 21
4800.0
 31
0.0
  0
LINE
  5
100
100
AcDbEntity
100
AcDbLine
  8
Entretoises
 62
256
370
-1
 48
1.0
  6
BYLAYER
 10
-7894.9999999982155714
 20
4840.0
 30
0.0
 11
-7583.9999999982155714
 21
4840.0
 31
0.0
  0
LINE
  5
101
100
AcDbEntity
100
AcDbLine
  8
6x4 existant
 62
256
370
-1
 48
1.0
  6
BYLAYER
 10
-7894.9999999982155714
 20
5590.0
 30
0.0
 11
-7894.9999999982155714
 21
3000.0
 31
0.0
  0
LINE
  5
102
100
AcDbEntity
100
AcDbLine
  8
6x4 existant
 62
256
370
-1
 48
1.0
  6
BYLAYER
 10
-8239.9999999982155714
 20
5590.0
 30
0.0
 11
-8239.9999999982155714
 21
3000.0
 31
0.0
  0
LINE
  5
103
100
AcDbEntity
100
AcDbLine
  8
6x4 existant
 62
256
370
-1
 48
1.0
  6
BYLAYER
 10
-7928.9999999982155714
 20
5590.0
 30
0.0
 11
-7928.9999999982155714
 21
3000.0
 31
0.0
  0
LINE
  5
104
100
AcDbEntity
100
AcDbLine
  8
6x4 existant
 62
256
370
-1
 48
1.0
  6
BYLAYER
 10
-8273.9999999982155714
 20
5590.0
 30
0.0
 11
-8273.9999999982155714
 21
3000.0
 31
0.0
  0
LINE
  5
105
100
AcDbEntity
100
AcDbLine
  8
6x4 existant
 62
256
370
-1
 48
1.0
  6
BYLAYER
 10
-7583.9999999982155714
 20
5590.0
 30
0.0
 11
-7583.9999999982155714
 21
3000.0
 31
0.0
  0
LINE
  5
106
100
AcDbEntity
100
AcDbLine
  8
Entretoises
 62
256
370
-1
 48
1.0
  6
BYLAYER
 10
-8239.9999999982155714
 20
4360.0
 30
0.0
 11
-7928.9999999982155714
 21
4360.0
 31
0.0
  0
LINE
  5
107
100
AcDbEntity
100
AcDbLine
  8
Entretoises
 62
256
370
-1
 48
1.0
  6
BYLAYER
 10
-8239.9999999982155714
 20
4390.0
 30
0.0
 11
-7928.9999999982155714
 21
4390.0
 31
0.0
  0
LINE
  5
108
100
AcDbEntity
100
AcDbLine
  8
Entretoises
 62
256
370
-1
 48
1.0
  6
BYLAYER
 10
-8535.9999999982155714
 20
3890.0
 30
0.0
 11
-8273.9999999982155714
 21
3890.0
 31
0.0
  0
LINE
  5
109
100
AcDbEntity
100
AcDbLine
  8
Entretoises
 62
256
370
-1
 48
1.0
  6
BYLAYER
 10
-8535.9999999982155714
 20
3920.0
 30
0.0
 11
-8273.9999999982155714
 21
3920.0
 31
0.0
  0
LINE
  5
10A
100
AcDbEntity
100
AcDbLine
  8
Entretoises
 62
256
370
-1
 48
1.0
  6
BYLAYER
 10
-8535.9999999982155714
 20
4830.0
 30
0.0
 11
-8273.9999999982155714
 21
4830.0
 31
0.0
  0
LINE
  5
10B
100
AcDbEntity
100
AcDbLine
  8
Entretoises
 62
256
370
-1
 48
1.0
  6
BYLAYER
 10
-8535.9999999982155714
 20
4860.0
 30
0.0
 11
-8273.9999999982155714
 21
4860.0
 31
0.0
  0
LINE
  5
10C
100
AcDbEntity
100
AcDbLine
  8
6x4 existant
 62
256
370
-1
 48
1.0
  6
BYLAYER
 10
-8569.9999999982155714
 20
5590.0
 30
0.0
 11
-8569.9999999982155714
 21
3000.0
 31
0.0
  0
LINE
  5
10D
100
AcDbEntity
100
AcDbLine
  8
6x4 existant
 62
256
370
-1
 48
1.0
  6
BYLAYER
 10
-8535.9999999982155714
 20
5590.0
 30
0.0
 11
-8535.9999999982155714
 21
3000.0
 31
0.0
  0
LINE
  5
10E
100
AcDbEntity
100
AcDbLine
  8
Gobetis
 62
256
370
-1
 48
1.0
  6
BYLAYER
 10
-5330.9999999989386197
 20
4220.0
 30
0.0
 11
-5330.9999999989386197
 21
3946.0
 31
0.0
  0
LINE
  5
10F
100
AcDbEntity
100
AcDbLine
  8
Tadelakt
 62
256
370
-1
 48
1.0
  6
BYLAYER
 10
-5338.9999999989386197
 20
4220.0
 30
0.0
 11
-5338.9999999989386197
 21
3954.0
 31
0.0
  0
LINE
  5
110
100
AcDbEntity
100
AcDbLine
  8
Vasques
 62
256
370
-1
 48
1.0
  6
BYLAYER
 10
-5992.9999999987157935
 20
3812.0
 30
0.0
 11
-5992.9999999987157935
 21
3972.0
 31
0.0
  0
LINE
  5
111
100
AcDbEntity
100
AcDbLine
  8
Vasques
 62
256
370
-1
 48
1.0
  6
BYLAYER
 10
-5492.999999998876774
 20
3972.0
 30
0.0
 11
-5492.999999998876774
 21
3812.0
 31
0.0
  0
LINE
  5
112
100
AcDbEntity
100
AcDbLine
  8
Vasques
 62
256
370
-1
 48
1.0
  6
BYLAYER
 10
-6794.9999999984584065
 20
3812.0
 30
0.0
 11
-6794.9999999984584065
 21
3972.0
 31
0.0
  0
LINE
  5
113
100
AcDbEntity
100
AcDbLine
  8
Vasques
 62
256
370
-1
 48
1.0
  6
BYLAYER
 10
-6294.9999999986184775
 20
3812.0
 30
0.0
 11
-6294.9999999986184775
 21
3972.0
 31
0.0
  0
LINE
  5
114
100
AcDbEntity
100
AcDbLine
  8
Bois
 62
256
370
-1
 48
1.0
  6
BYLAYER
 10
52.0000000000000995
 20
1642.0
 30
0.0
 11
642.0
 21
1642.0
 31
0.0
  0
LINE
  5
115
100
AcDbEntity
100
AcDbLine
  8
Bois
 62
256
370
-1
 48
1.0
  6
BYLAYER
 10
642.0
 20
12.0000000000000053
 30
0.0
 11
642.0
 21
1682.0
 31
0.0
  0
LINE
  5
116
100
AcDbEntity
100
AcDbLine
  8
Bois
 62
256
370
-1
 48
1.0
  6
BYLAYER
 10
52.0000000000001066
 20
1682.0
 30
0.0
 11
52.0
 21
11.9999999999999876
 31
0.0
  0
LINE
  5
117
100
AcDbEntity
100
AcDbLine
  8
Bois
 62
256
370
-1
 48
1.0
  6
BYLAYER
 10
52.0
 20
52.0
 30
0.0
 11
642.0
 21
52.0
 31
0.0
  0
LINE
  5
118
100
AcDbEntity
100
AcDbLine
  8
Bois
 62
256
370
-1
 48
1.0
  6
BYLAYER
 10
52.0000000000000995
 20
1682.0
 30
0.0
 11
642.0
 21
1682.0
 31
0.0
  0
LINE
  5
119
100
AcDbEntity
100
AcDbLine
  8
Bois
 62
256
370
-1
 48
1.0
  6
BYLAYER
 10
682.0
 20
12.0000000000000053
 30
0.0
 11
682.0
 21
1682.0
 31
0.0
  0
LINE
  5
11A
100
AcDbEntity
100
AcDbLine
  8
Bois
 62
256
370
-1
 48
1.0
  6
BYLAYER
 10
642.0
 20
12.0000000000000053
 30
0.0
 11
682.0
 21
12.0000000000000053
 31
0.0
  0
LINE
  5
11B
100
AcDbEntity
100
AcDbLine
  8
Bois
 62
256
370
-1
 48
1.0
  6
BYLAYER
 10
52.0
 20
12.0
 30
0.0
 11
642.0
 21
12.0
 31
0.0
  0
LINE
  5
11C
100
AcDbEntity
100
AcDbLine
  8
Bois
 62
256
370
-1
 48
1.0
  6
BYLAYER
 10
12.0000000000001066
 20
1682.0
 30
0.0
 11
12.0
 21
11.9999999999999929
 31
0.0
  0
LINE
  5
11D
100
AcDbEntity
100
AcDbLine
  8
Bois
 62
256
370
-1
 48
1.0
  6
BYLAYER
 10
12.0
 20
12.0
 30
0.0
 11
52.0
 21
11.9999999999999876
 31
0.0
  0
LINE
  5
11E
100
AcDbEntity
100
AcDbLine
  8
Bois
 62
256
370
-1
 48
1.0
  6
BYLAYER
 10
52.0
 20
11.9999999999999876
 30
0.0
 11
52.0000000000001066
 21
1682.0
 31
0.0
  0
LINE
  5
11F
100
AcDbEntity
100
AcDbLine
  8
Bois
 62
256
370
-1
 48
1.0
  6
BYLAYER
 10
52.0000000000001066
 20
1682.0
 30
0.0
 11
12.0000000000001066
 21
1682.0
 31
0.0
  0
LINE
  5
120
100
AcDbEntity
100
AcDbLine
  8
Bois
 62
256
370
-1
 48
1.0
  6
BYLAYER
 10
-6987.9999999983920134
 20
3851.0
 30
0.0
 11
-5317.9999999989386197
 21
3851.0
 31
0.0
  0
LINE
  5
121
100
AcDbEntity
100
AcDbLine
  8
Bois
 62
256
370
-1
 48
1.0
  6
BYLAYER
 10
-6947.9999999983920134
 20
3851.0
 30
0.0
 11
-6947.9999999983920134
 21
3911.0
 31
0.0
  0
LINE
  5
122
100
AcDbEntity
100
AcDbLine
  8
Bois
 62
256
370
-1
 48
1.0
  6
BYLAYER
 10
-5357.9999999989386197
 20
3911.0
 30
0.0
 11
-5357.9999999989386197
 21
3851.0
 31
0.0
  0
LINE
  5
123
100
AcDbEntity
100
AcDbLine
  8
Bois
 62
256
370
-1
 48
1.0
  6
BYLAYER
 10
-6987.9999999983920134
 20
3851.0
 30
0.0
 11
-6987.9999999983920134
 21
3911.0
 31
0.0
  0
LINE
  5
124
100
AcDbEntity
100
AcDbLine
  8
Bois
 62
256
370
-1
 48
1.0
  6
BYLAYER
 10
-5317.9999999989386197
 20
3911.0
 30
0.0
 11
-5317.9999999989386197
 21
3851.0
 31
0.0
  0
LINE
  5
125
100
AcDbEntity
100
AcDbLine
  8
Bois
 62
256
370
-1
 48
1.0
  6
BYLAYER
 10
-6987.9999999983920134
 20
3911.0
 30
0.0
 11
-5317.9999999989386197
 21
3911.0
 31
0.0
  0
LINE
  5
126
100
AcDbEntity
100
AcDbLine
  8
Bois
 62
256
370
-1
 48
1.0
  6
BYLAYER
 10
-6987.9999999983920134
 20
3911.0
 30
0.0
 11
-6947.9999999983920134
 21
3851.0
 31
0.0
  0
LINE
  5
127
100
AcDbEntity
100
AcDbLine
  8
Bois
 62
256
370
-1
 48
1.0
  6
BYLAYER
 10
-6947.9999999983920134
 20
3911.0
 30
0.0
 11
-6987.9999999983920134
 21
3851.0
 31
0.0
  0
LINE
  5
128
100
AcDbEntity
100
AcDbLine
  8
Bois
 62
256
370
-1
 48
1.0
  6
BYLAYER
 10
-5357.9999999989386197
 20
3911.0
 30
0.0
 11
-5317.9999999989386197
 21
3851.0
 31
0.0
  0
LINE
  5
129
100
AcDbEntity
100
AcDbLine
  8
Bois
 62
256
370
-1
 48
1.0
  6
BYLAYER
 10
-5357.9999999989386197
 20
3851.0
 30
0.0
 11
-5317.9999999989386197
 21
3911.0
 31
0.0
  0
LINE
  5
12A
100
AcDbEntity
100
AcDbLine
  8
Bois
 62
256
370
-1
 48
1.0
  6
BYLAYER
 10
-6947.9999999983920134
 20
3060.0
 30
0.0
 11
-6947.9999999983920134
 21
3851.0
 31
0.0
  0
LINE
  5
12B
100
AcDbEntity
100
AcDbLine
  8
Bois
 62
256
370
-1
 48
1.0
  6
BYLAYER
 10
-5357.9999999989386197
 20
3851.0
 30
0.0
 11
-5357.9999999989386197
 21
3060.0
 31
0.0
  0
LINE
  5
12C
100
AcDbEntity
100
AcDbLine
  8
Bois
 62
256
370
-1
 48
1.0
  6
BYLAYER
 10
-6987.9999999983920134
 20
3060.0
 30
0.0
 11
-5317.9999999989386197
 21
3060.0
 31
0.0
  0
LINE
  5
12D
100
AcDbEntity
100
AcDbLine
  8
Bois
 62
256
370
-1
 48
1.0
  6
BYLAYER
 10
-6987.9999999983920134
 20
3000.0
 30
0.0
 11
-5317.9999999989386197
 21
3000.0
 31
0.0
  0
LINE
  5
12E
100
AcDbEntity
100
AcDbLine
  8
Bois
 62
256
370
-1
 48
1.0
  6
BYLAYER
 10
-6987.9999999983920134
 20
3000.0
 30
0.0
 11
-6987.9999999983920134
 21
3060.0
 31
0.0
  0
LINE
  5
12F
100
AcDbEntity
100
AcDbLine
  8
Bois
 62
256
370
-1
 48
1.0
  6
BYLAYER
 10
-5317.9999999989386197
 20
3000.0
 30
0.0
 11
-5317.9999999989386197
 21
3060.0
 31
0.0
  0
LINE
  5
130
100
AcDbEntity
100
AcDbLine
  8
Bois
 62
256
370
-1
 48
1.0
  6
BYLAYER
 10
-5317.9999999989386197
 20
3851.0
 30
0.0
 11
-5317.9999999989386197
 21
3060.0
 31
0.0
  0
LINE
  5
131
100
AcDbEntity
100
AcDbLine
  8
Bois
 62
256
370
-1
 48
1.0
  6
BYLAYER
 10
-6987.9999999983920134
 20
3060.0
 30
0.0
 11
-6987.9999999983920134
 21
3851.0
 31
0.0
  0
LINE
  5
132
100
AcDbEntity
100
AcDbLine
  8
OSB18
 62
256
370
-1
 48
1.0
  6
BYLAYER
 10
-6947.9999999983920134
 20
3078.0
 30
0.0
 11
-5357.9999999989386197
 21
3078.0
 31
0.0
  0
LINE
  5
133
100
AcDbEntity
100
AcDbLine
  8
OSB18
 62
256
370
-1
 48
1.0
  6
BYLAYER
 10
-6947.9999999983920134
 20
3060.0
 30
0.0
 11
-5357.9999999989386197
 21
3060.0
 31
0.0
  0
LINE
  5
134
100
AcDbEntity
100
AcDbLine
  8
OSB18
 62
256
370
-1
 48
1.0
  6
BYLAYER
 10
-5357.9999999989386197
 20
3060.0
 30
0.0
 11
-5357.9999999989386197
 21
3078.0
 31
0.0
  0
LINE
  5
135
100
AcDbEntity
100
AcDbLine
  8
OSB18
 62
256
370
-1
 48
1.0
  6
BYLAYER
 10
-6947.9999999983920134
 20
3060.0
 30
0.0
 11
-6947.9999999983920134
 21
3078.0
 31
0.0
  0
LINE
  5
136
100
AcDbEntity
100
AcDbLine
  8
Bois
 62
256
370
-1
 48
1.0
  6
BYLAYER
 10
642.0
 20
52.0
 30
0.0
 11
682.0
 21
52.0
 31
0.0
  0
LINE
  5
137
100
AcDbEntity
100
AcDbLine
  8
Bois
 62
256
370
-1
 48
1.0
  6
BYLAYER
 10
642.0
 20
52.0
 30
0.0
 11
682.0
 21
12.0
 31
0.0
  0
LINE
  5
138
100
AcDbEntity
100
AcDbLine
  8
Bois
 62
256
370
-1
 48
1.0
  6
BYLAYER
 10
682.0
 20
52.0
 30
0.0
 11
642.0
 21
12.0000000000000053
 31
0.0
  0
LINE
  5
139
100
AcDbEntity
100
AcDbLine
  8
Bois
 62
256
370
-1
 48
1.0
  6
BYLAYER
 10
52.0
 20
52.0
 30
0.0
 11
12.0000000000000036
 21
52.0
 31
0.0
  0
LINE
  5
13A
100
AcDbEntity
100
AcDbLine
  8
Bois
 62
256
370
-1
 48
1.0
  6
BYLAYER
 10
12.0000000000000036
 20
52.0
 30
0.0
 11
52.0
 21
11.9999999999999876
 31
0.0
  0
LINE
  5
13B
100
AcDbEntity
100
AcDbLine
  8
Bois
 62
256
370
-1
 48
1.0
  6
BYLAYER
 10
52.0
 20
52.0
 30
0.0
 11
12.0
 21
12.0
 31
0.0
  0
LINE
  5
13C
100
AcDbEntity
100
AcDbLine
  8
Bois
 62
256
370
-1
 48
1.0
  6
BYLAYER
 10
52.0000000000000995
 20
1642.0
 30
0.0
 11
12.0000000000001048
 21
1642.0
 31
0.0
  0
LINE
  5
13D
100
AcDbEntity
100
AcDbLine
  8
Bois
 62
256
370
-1
 48
1.0
  6
BYLAYER
 10
12.0000000000001066
 20
1682.0
 30
0.0
 11
52.0000000000000995
 21
1642.0
 31
0.0
  0
LINE
  5
13E
100
AcDbEntity
100
AcDbLine
  8
Bois
 62
256
370
-1
 48
1.0
  6
BYLAYER
 10
52.0000000000001066
 20
1682.0
 30
0.0
 11
12.0000000000001048
 21
1642.0
 31
0.0
  0
LINE
  5
13F
100
AcDbEntity
100
AcDbLine
  8
Bois
 62
256
370
-1
 48
1.0
  6
BYLAYER
 10
-6172.9999999986648618
 20
3060.0
 30
0.0
 11
-6172.9999999986648618
 21
3851.0
 31
0.0
  0
LINE
  5
140
100
AcDbEntity
100
AcDbLine
  8
Bois
 62
256
370
-1
 48
1.0
  6
BYLAYER
 10
-6132.9999999986648618
 20
3060.0
 30
0.0
 11
-6132.9999999986648618
 21
3851.0
 31
0.0
  0
LINE
  5
141
100
AcDbEntity
100
AcDbLine
  8
Bois
 62
256
370
-1
 48
1.0
  6
BYLAYER
 10
12.0
 20
867.0
 30
0.0
 11
52.0
 21
867.0
 31
0.0
  0
LINE
  5
142
100
AcDbEntity
100
AcDbLine
  8
Bois
 62
256
370
-1
 48
1.0
  6
BYLAYER
 10
642.0
 20
867.0
 30
0.0
 11
682.0
 21
867.0
 31
0.0
  0
LINE
  5
143
100
AcDbEntity
100
AcDbLine
  8
Bois
 62
256
370
-1
 48
1.0
  6
BYLAYER
 10
12.0
 20
827.0
 30
0.0
 11
52.0
 21
827.0
 31
0.0
  0
LINE
  5
144
100
AcDbEntity
100
AcDbLine
  8
Bois
 62
256
370
-1
 48
1.0
  6
BYLAYER
 10
642.0
 20
827.0
 30
0.0
 11
682.0
 21
827.0
 31
0.0
  0
LINE
  5
145
100
AcDbEntity
100
AcDbLine
  8
Bois
 62
256
370
-1
 48
1.0
  6
BYLAYER
 10
12.0
 20
867.0
 30
0.0
 11
52.0
 21
827.0
 31
0.0
  0
LINE
  5
146
100
AcDbEntity
100
AcDbLine
  8
Bois
 62
256
370
-1
 48
1.0
  6
BYLAYER
 10
642.0
 20
867.0
 30
0.0
 11
682.0
 21
827.0
 31
0.0
  0
LINE
  5
147
100
AcDbEntity
100
AcDbLine
  8
Bois
 62
256
370
-1
 48
1.0
  6
BYLAYER
 10
52.0
 20
867.0
 30
0.0
 11
12.0
 21
827.0
 31
0.0
  0
LINE
  5
148
100
AcDbEntity
100
AcDbLine
  8
Bois
 62
256
370
-1
 48
1.0
  6
BYLAYER
 10
682.0
 20
867.0
 30
0.0
 11
642.0
 21
827.0
 31
0.0
  0
LINE
  5
149
100
AcDbEntity
100
AcDbLine
  8
OSB12
 62
256
370
-1
 48
1.0
  6
BYLAYER
 10
12.0
 20
827.0
 30
0.0
 11
682.0
 21
827.0
 31
0.0
  0
LINE
  5
14A
100
AcDbEntity
100
AcDbLine
  8
OSB12
 62
256
370
-1
 48
1.0
  6
BYLAYER
 10
12.0
 20
815.0
 30
0.0
 11
682.0
 21
815.0
 31
0.0
  0
LINE
  5
14B
100
AcDbEntity
100
AcDbLine
  8
OSB12
 62
256
370
-1
 48
1.0
  6
BYLAYER
 10
12.0
 20
815.0
 30
0.0
 11
12.0
 21
827.0
 31
0.0
  0
LINE
  5
14C
100
AcDbEntity
100
AcDbLine
  8
OSB12
 62
256
370
-1
 48
1.0
  6
BYLAYER
 10
682.0
 20
815.0
 30
0.0
 11
682.0
 21
827.0
 31
0.0
  0
LINE
  5
14D
100
AcDbEntity
100
AcDbLine
  8
OSB12
 62
256
370
-1
 48
1.0
  6
BYLAYER
 10
-6184.9999999986648618
 20
3078.0
 30
0.0
 11
-6184.9999999986648618
 21
3851.0
 31
0.0
  0
LINE
  5
14E
100
AcDbEntity
100
AcDbLine
  8
OSB12
 62
256
370
-1
 48
1.0
  6
BYLAYER
 10
-6172.9999999986648618
 20
3078.0
 30
0.0
 11
-6172.9999999986648618
 21
3851.0
 31
0.0
  0
LINE
  5
14F
100
AcDbEntity
100
AcDbLine
  8
OSB12
 62
256
370
-1
 48
1.0
  6
BYLAYER
 10
-6184.9999999986648618
 20
3851.0
 30
0.0
 11
-6172.9999999986648618
 21
3851.0
 31
0.0
  0
LINE
  5
150
100
AcDbEntity
100
AcDbLine
  8
OSB12
 62
256
370
-1
 48
1.0
  6
BYLAYER
 10
-6172.9999999986648618
 20
3078.0
 30
0.0
 11
-6184.9999999986648618
 21
3078.0
 31
0.0
  0
LINE
  5
151
100
AcDbEntity
100
AcDbLine
  8
DessinMeubleAlternatif
 62
256
370
-1
 48
1.0
  6
BYLAYER
 10
-5351.9999999989386197
 20
4220.0
 30
0.0
 11
-6969.9999999983920134
 21
4220.0
 31
0.0
  0
LINE
  5
152
100
AcDbEntity
100
AcDbLine
  8
Contreplaque
 62
256
370
-1
 48
1.0
  6
BYLAYER
 10
-5770.9999999983920134
 20
4225.0
 30
0.0
 11
-6987.9999999983920134
 21
4225.0
 31
0.0
  0
LINE
  5
153
100
AcDbEntity
100
AcDbLine
  8
Contreplaque
 62
256
370
-1
 48
1.0
  6
BYLAYER
 10
-5770.9999999983920134
 20
4220.0
 30
0.0
 11
-6987.9999999983920134
 21
4220.0
 31
0.0
  0
LINE
  5
154
100
AcDbEntity
100
AcDbLine
  8
Bois
 62
256
370
-1
 48
1.0
  6
BYLAYER
 10
-5299.9999999989386197
 20
4303.0
 30
0.0
 11
-6987.9999999983920134
 21
4303.0
 31
0.0
  0
LINE
  5
155
100
AcDbEntity
100
AcDbLine
  8
Bois
 62
256
370
-1
 48
1.0
  6
BYLAYER
 10
-5299.9999999989386197
 20
4243.0
 30
0.0
 11
-6987.9999999983920134
 21
4243.0
 31
0.0
  0
LINE
  5
156
100
AcDbEntity
100
AcDbLine
  8
Bois
 62
256
370
-1
 48
1.0
  6
BYLAYER
 10
-5299.9999999989386197
 20
4243.0
 30
0.0
 11
-5299.9999999989386197
 21
4303.0
 31
0.0
  0
LINE
  5
157
100
AcDbEntity
100
AcDbLine
  8
Bois
 62
256
370
-1
 48
1.0
  6
BYLAYER
 10
-6987.9999999983920134
 20
4243.0
 30
0.0
 11
-6987.9999999983920134
 21
4303.0
 31
0.0
  0
LINE
  5
158
100
AcDbEntity
100
AcDbLine
  8
OSB12
 62
256
370
-1
 48
1.0
  6
BYLAYER
 10
-5770.9999999983920134
 20
4237.0
 30
0.0
 11
-5770.9999999983920134
 21
4225.0
 31
0.0
  0
LINE
  5
159
100
AcDbEntity
100
AcDbLine
  8
Bois
 62
256
370
-1
 48
1.0
  6
BYLAYER
 10
-5311.9999999989386197
 20
5119.0
 30
0.0
 11
-6987.9999999983920134
 21
5119.0
 31
0.0
  0
LINE
  5
15A
100
AcDbEntity
100
AcDbLine
  8
Bois
 62
256
370
-1
 48
1.0
  6
BYLAYER
 10
-5311.9999999989386197
 20
5059.0
 30
0.0
 11
-6987.9999999983920134
 21
5059.0
 31
0.0
  0
LINE
  5
15B
100
AcDbEntity
100
AcDbLine
  8
Contreplaque
 62
256
370
-1
 48
1.0
  6
BYLAYER
 10
-6987.9999999983920134
 20
4220.0
 30
0.0
 11
-6987.9999999983920134
 21
4225.0
 31
0.0
  0
LINE
  5
15C
100
AcDbEntity
100
AcDbLine
  8
Contreplaque
 62
256
370
-1
 48
1.0
  6
BYLAYER
 10
-5770.9999999983920134
 20
4220.0
 30
0.0
 11
-5770.9999999983920134
 21
4220.0
 31
0.0
  0
LINE
  5
15D
100
AcDbEntity
100
AcDbLine
  8
Contreplaque
 62
256
370
-1
 48
1.0
  6
BYLAYER
 10
-5770.9999999983920134
 20
4220.0
 30
0.0
 11
-5770.9999999983920134
 21
4225.0
 31
0.0
  0
LINE
  5
15E
100
AcDbEntity
100
AcDbLine
  8
Bois
 62
256
370
-1
 48
1.0
  6
BYLAYER
 10
-6987.9999999983920134
 20
5059.0
 30
0.0
 11
-6987.9999999983920134
 21
5119.0
 31
0.0
  0
LINE
  5
15F
100
AcDbEntity
100
AcDbLine
  8
Bois
 62
256
370
-1
 48
1.0
  6
BYLAYER
 10
-5311.9999999989386197
 20
5059.0
 30
0.0
 11
-5311.9999999989386197
 21
5119.0
 31
0.0
  0
LINE
  5
160
100
AcDbEntity
100
AcDbLine
  8
tablette
 62
256
370
-1
 48
1.0
  6
BYLAYER
 10
-5351.9999999989386197
 20
4247.0
 30
0.0
 11
-5770.9999999983920134
 21
4247.0
 31
0.0
  0
LINE
  5
161
100
AcDbEntity
100
AcDbLine
  8
tablette
 62
256
370
-1
 48
1.0
  6
BYLAYER
 10
-5351.9999999989386197
 20
4220.0
 30
0.0
 11
-5770.9999999983920134
 21
4220.0
 31
0.0
  0
LINE
  5
162
100
AcDbEntity
100
AcDbLine
  8
tablette
 62
256
370
-1
 48
1.0
  6
BYLAYER
 10
-5770.9999999983920134
 20
4220.0
 30
0.0
 11
-5770.9999999983920134
 21
4247.0
 31
0.0
  0
LINE
  5
163
100
AcDbEntity
100
AcDbLine
  8
tablette
 62
256
370
-1
 48
1.0
  6
BYLAYER
 10
-5770.9999999983920134
 20
4647.0
 30
0.0
 11
-5299.9999999989386197
 21
4647.0
 31
0.0
  0
LINE
  5
164
100
AcDbEntity
100
AcDbLine
  8
tablette
 62
256
370
-1
 48
1.0
  6
BYLAYER
 10
-5770.9999999983920134
 20
4674.0
 30
0.0
 11
-5299.9999999989386197
 21
4674.0
 31
0.0
  0
LINE
  5
165
100
AcDbEntity
100
AcDbLine
  8
tablette
 62
256
370
-1
 48
1.0
  6
BYLAYER
 10
-5299.9999999989386197
 20
4647.0
 30
0.0
 11
-5299.9999999989386197
 21
4674.0
 31
0.0
  0
LINE
  5
166
100
AcDbEntity
100
AcDbLine
  8
tablette
 62
256
370
-1
 48
1.0
  6
BYLAYER
 10
-5770.9999999983920134
 20
4647.0
 30
0.0
 11
-5770.9999999983920134
 21
4674.0
 31
0.0
  0
LINE
  5
167
100
AcDbEntity
100
AcDbLine
  8
Bois
 62
256
370
-1
 48
1.0
  6
BYLAYER
 10
-5770.9999999983920134
 20
4607.0
 30
0.0
 11
-5299.9999999989386197
 21
4607.0
 31
0.0
  0
LINE
  5
168
100
AcDbEntity
100
AcDbLine
  8
Bois
 62
256
370
-1
 48
1.0
  6
BYLAYER
 10
-5770.9999999983920134
 20
4647.0
 30
0.0
 11
-5299.9999999989386197
 21
4647.0
 31
0.0
  0
LINE
  5
169
100
AcDbEntity
100
AcDbLine
  8
Bois
 62
256
370
-1
 48
1.0
  6
BYLAYER
 10
-5770.9999999983920134
 20
4607.0
 30
0.0
 11
-5770.9999999983920134
 21
4647.0
 31
0.0
  0
LINE
  5
16A
100
AcDbEntity
100
AcDbLine
  8
Bois
 62
256
370
-1
 48
1.0
  6
BYLAYER
 10
-5299.9999999989386197
 20
4607.0
 30
0.0
 11
-5299.9999999989386197
 21
4647.0
 31
0.0
  0
LINE
  5
16B
100
AcDbEntity
100
AcDbLine
  8
OSB12
 62
256
370
-1
 48
1.0
  6
BYLAYER
 10
-6364.4999999983920134
 20
4243.0
 30
0.0
 11
-6364.4999999983920134
 21
5119.0
 31
0.0
  0
LINE
  5
16C
100
AcDbEntity
100
AcDbLine
  8
OSB12
 62
256
370
-1
 48
1.0
  6
BYLAYER
 10
-6352.4999999983920134
 20
4243.0
 30
0.0
 11
-6352.4999999983920134
 21
5119.0
 31
0.0
  0
LINE
  5
16D
100
AcDbEntity
100
AcDbLine
  8
OSB12
 62
256
370
-1
 48
1.0
  6
BYLAYER
 10
-6352.4999999983920134
 20
4243.0
 30
0.0
 11
-6364.4999999983920134
 21
4243.0
 31
0.0
  0
LINE
  5
16E
100
AcDbEntity
100
AcDbLine
  8
Contreplaque
 62
256
370
-1
 48
1.0
  6
BYLAYER
 10
-5765.9999999983920134
 20
4674.0
 30
0.0
 11
-5765.9999999983920134
 21
5042.0
 31
0.0
  0
LINE
  5
16F
100
AcDbEntity
100
AcDbLine
  8
Contreplaque
 62
256
370
-1
 48
1.0
  6
BYLAYER
 10
-5765.9999999983920134
 20
4247.0
 30
0.0
 11
-5765.9999999983920134
 21
4607.0
 31
0.0
  0
LINE
  5
170
100
AcDbEntity
100
AcDbLine
  8
Contreplaque
 62
256
370
-1
 48
1.0
  6
BYLAYER
 10
-5770.9999999983920134
 20
4247.0
 30
0.0
 11
-5770.9999999983920134
 21
4607.0
 31
0.0
  0
LINE
  5
171
100
AcDbEntity
100
AcDbLine
  8
Contreplaque
 62
256
370
-1
 48
1.0
  6
BYLAYER
 10
-5770.9999999983920134
 20
4674.0
 30
0.0
 11
-5770.9999999983920134
 21
5047.0
 31
0.0
  0
LINE
  5
172
100
AcDbEntity
100
AcDbLine
  8
Contreplaque
 62
256
370
-1
 48
1.0
  6
BYLAYER
 10
-5770.9999999983920134
 20
5047.0
 30
0.0
 11
-5765.9999999983920134
 21
5047.0
 31
0.0
  0
LINE
  5
173
100
AcDbEntity
100
AcDbLine
  8
Contreplaque
 62
256
370
-1
 48
1.0
  6
BYLAYER
 10
-5765.9999999983920134
 20
4674.0
 30
0.0
 11
-5770.9999999983920134
 21
4674.0
 31
0.0
  0
LINE
  5
174
100
AcDbEntity
100
AcDbLine
  8
Contreplaque
 62
256
370
-1
 48
1.0
  6
BYLAYER
 10
-5770.9999999983920134
 20
4607.0
 30
0.0
 11
-5765.9999999983920134
 21
4607.0
 31
0.0
  0
LINE
  5
175
100
AcDbEntity
100
AcDbLine
  8
OSB12
 62
256
370
-1
 48
1.0
  6
BYLAYER
 10
-6364.4999999983920134
 20
5119.0
 30
0.0
 11
-6352.4999999983920134
 21
5119.0
 31
0.0
  0
LINE
  5
176
100
AcDbEntity
100
AcDbLine
  8
OSB12
 62
256
370
-1
 48
1.0
  6
BYLAYER
 10
-5299.9999999989386197
 20
5047.0
 30
0.0
 11
-6987.9999999983920134
 21
5047.0
 31
0.0
  0
LINE
  5
177
100
AcDbEntity
100
AcDbLine
  8
OSB12
 62
256
370
-1
 48
1.0
  6
BYLAYER
 10
-5299.9999999989386197
 20
5059.0
 30
0.0
 11
-6987.9999999983920134
 21
5059.0
 31
0.0
  0
LINE
  5
178
100
AcDbEntity
100
AcDbLine
  8
Contreplaque
 62
256
370
-1
 48
1.0
  6
BYLAYER
 10
-5299.9999999989386197
 20
5042.0
 30
0.0
 11
-5765.9999999983920134
 21
5042.0
 31
0.0
  0
LINE
  5
179
100
AcDbEntity
100
AcDbLine
  8
Contreplaque
 62
256
370
-1
 48
1.0
  6
BYLAYER
 10
-5299.9999999989386197
 20
5047.0
 30
0.0
 11
-5765.9999999983920134
 21
5047.0
 31
0.0
  0
LINE
  5
17A
100
AcDbEntity
100
AcDbLine
  8
Contreplaque
 62
256
370
-1
 48
1.0
  6
BYLAYER
 10
-5299.9999999989386197
 20
5042.0
 30
0.0
 11
-5299.9999999989386197
 21
5047.0
 31
0.0
  0
LINE
  5
17B
100
AcDbEntity
100
AcDbLine
  8
OSB12
 62
256
370
-1
 48
1.0
  6
BYLAYER
 10
-5782.9999999983920134
 20
4243.0
 30
0.0
 11
-5782.9999999983920134
 21
5047.0
 31
0.0
  0
LINE
  5
17C
100
AcDbEntity
100
AcDbLine
  8
OSB12
 62
256
370
-1
 48
1.0
  6
BYLAYER
 10
-5770.9999999983920134
 20
4243.0
 30
0.0
 11
-5770.9999999983920134
 21
5119.0
 31
0.0
  0
LINE
  5
17D
100
AcDbEntity
100
AcDbLine
  8
OSB12
 62
256
370
-1
 48
1.0
  6
BYLAYER
 10
-5782.9999999983920134
 20
4243.0
 30
0.0
 11
-5770.9999999983920134
 21
4243.0
 31
0.0
  0
LINE
  5
17E
100
AcDbEntity
100
AcDbLine
  8
OSB12
 62
256
370
-1
 48
1.0
  6
BYLAYER
 10
-5782.9999999983920134
 20
5047.0
 30
0.0
 11
-5770.9999999983920134
 21
5047.0
 31
0.0
  0
LINE
  5
17F
100
AcDbEntity
100
AcDbLine
  8
Bois
 62
256
370
-1
 48
1.0
  6
BYLAYER
 10
-6404.4999999983920134
 20
4303.0
 30
0.0
 11
-6404.4999999983920134
 21
5059.0
 31
0.0
  0
LINE
  5
180
100
AcDbEntity
100
AcDbLine
  8
Bois
 62
256
370
-1
 48
1.0
  6
BYLAYER
 10
-5822.9999999983920134
 20
4303.0
 30
0.0
 11
-5822.9999999983920134
 21
5059.0
 31
0.0
  0
LINE
  5
181
100
AcDbEntity
100
AcDbLine
  8
Bois
 62
256
370
-1
 48
1.0
  6
BYLAYER
 10
-6364.4999999983920134
 20
4303.0
 30
0.0
 11
-6364.4999999983920134
 21
5059.0
 31
0.0
  0
LINE
  5
182
100
AcDbEntity
100
AcDbLine
  8
Bois
 62
256
370
-1
 48
1.0
  6
BYLAYER
 10
-5782.9999999983920134
 20
4303.0
 30
0.0
 11
-5782.9999999983920134
 21
5059.0
 31
0.0
  0
LINE
  5
183
100
AcDbEntity
100
AcDbLine
  8
OSB18
 62
256
370
-1
 48
1.0
  6
BYLAYER
 10
-5770.9999999983920134
 20
4243.0
 30
0.0
 11
-6987.9999999983920134
 21
4243.0
 31
0.0
  0
LINE
  5
184
100
AcDbEntity
100
AcDbLine
  8
OSB18
 62
256
370
-1
 48
1.0
  6
BYLAYER
 10
-5770.9999999983920134
 20
4225.0
 30
0.0
 11
-6987.9999999983920134
 21
4225.0
 31
0.0
  0
LINE
  5
185
100
AcDbEntity
100
AcDbLine
  8
OSB18
 62
256
370
-1
 48
1.0
  6
BYLAYER
 10
-6987.9999999983920134
 20
4225.0
 30
0.0
 11
-6987.9999999983920134
 21
4243.0
 31
0.0
  0
LINE
  5
186
100
AcDbEntity
100
AcDbLine
  8
OSB18
 62
256
370
-1
 48
1.0
  6
BYLAYER
 10
-5770.9999999983920134
 20
4225.0
 30
0.0
 11
-5770.9999999983920134
 21
4243.0
 31
0.0
  0
LINE
  5
187
100
AcDbEntity
100
AcDbLine
  8
Bois
 62
256
370
-1
 48
1.0
  6
BYLAYER
 10
-6364.4999999983920134
 20
5059.0
 30
0.0
 11
-6364.4999999983920134
 21
5119.0
 31
0.0
  0
LINE
  5
188
100
AcDbEntity
100
AcDbLine
  8
Bois
 62
256
370
-1
 48
1.0
  6
BYLAYER
 10
-6364.4999999983920134
 20
5119.0
 30
0.0
 11
-6404.4999999983920134
 21
5119.0
 31
0.0
  0
LINE
  5
189
100
AcDbEntity
100
AcDbLine
  8
Bois
 62
256
370
-1
 48
1.0
  6
BYLAYER
 10
-6404.4999999983920134
 20
5119.0
 30
0.0
 11
-6404.4999999983920134
 21
5059.0
 31
0.0
  0
LINE
  5
18A
100
AcDbEntity
100
AcDbLine
  8
Bois
 62
256
370
-1
 48
1.0
  6
BYLAYER
 10
-6404.4999999983920134
 20
5059.0
 30
0.0
 11
-6364.4999999983920134
 21
5059.0
 31
0.0
  0
LINE
  5
18B
100
AcDbEntity
100
AcDbLine
  8
Bois
 62
256
370
-1
 48
1.0
  6
BYLAYER
 10
-6364.4999999983920134
 20
5059.0
 30
0.0
 11
-6404.4999999983920134
 21
5119.0
 31
0.0
  0
LINE
  5
18C
100
AcDbEntity
100
AcDbLine
  8
Bois
 62
256
370
-1
 48
1.0
  6
BYLAYER
 10
-6364.4999999983920134
 20
5119.0
 30
0.0
 11
-6404.4999999983920134
 21
5059.0
 31
0.0
  0
LINE
  5
18D
100
AcDbEntity
100
AcDbLine
  8
Bois
 62
256
370
-1
 48
1.0
  6
BYLAYER
 10
-5822.9999999983920134
 20
5059.0
 30
0.0
 11
-5822.9999999983920134
 21
5119.0
 31
0.0
  0
LINE
  5
18E
100
AcDbEntity
100
AcDbLine
  8
Bois
 62
256
370
-1
 48
1.0
  6
BYLAYER
 10
-5822.9999999983920134
 20
5119.0
 30
0.0
 11
-5782.9999999983920134
 21
5059.0
 31
0.0
  0
LINE
  5
18F
100
AcDbEntity
100
AcDbLine
  8
Bois
 62
256
370
-1
 48
1.0
  6
BYLAYER
 10
-5782.9999999983920134
 20
5059.0
 30
0.0
 11
-5822.9999999983920134
 21
5059.0
 31
0.0
  0
LINE
  5
190
100
AcDbEntity
100
AcDbLine
  8
Bois
 62
256
370
-1
 48
1.0
  6
BYLAYER
 10
-5782.9999999983920134
 20
5059.0
 30
0.0
 11
-5782.9999999983920134
 21
5119.0
 31
0.0
  0
LINE
  5
191
100
AcDbEntity
100
AcDbLine
  8
Bois
 62
256
370
-1
 48
1.0
  6
BYLAYER
 10
-5782.9999999983920134
 20
5119.0
 30
0.0
 11
-5822.9999999983920134
 21
5059.0
 31
0.0
  0
LINE
  5
192
100
AcDbEntity
100
AcDbLine
  8
Bois
 62
256
370
-1
 48
1.0
  6
BYLAYER
 10
-6947.9999999983920134
 20
5059.0
 30
0.0
 11
-6947.9999999983920134
 21
5119.0
 31
0.0
  0
LINE
  5
193
100
AcDbEntity
100
AcDbLine
  8
Bois
 62
256
370
-1
 48
1.0
  6
BYLAYER
 10
-6987.9999999983920134
 20
5119.0
 30
0.0
 11
-6947.9999999983920134
 21
5059.0
 31
0.0
  0
LINE
  5
194
100
AcDbEntity
100
AcDbLine
  8
Bois
 62
256
370
-1
 48
1.0
  6
BYLAYER
 10
-6947.9999999983920134
 20
5059.0
 30
0.0
 11
-6987.9999999983920134
 21
5059.0
 31
0.0
  0
LINE
  5
195
100
AcDbEntity
100
AcDbLine
  8
Bois
 62
256
370
-1
 48
1.0
  6
BYLAYER
 10
-6987.9999999983920134
 20
5059.0
 30
0.0
 11
-6947.9999999983920134
 21
5119.0
 31
0.0
  0
LINE
  5
196
100
AcDbEntity
100
AcDbLine
  8
Bois
 62
256
370
-1
 48
1.0
  6
BYLAYER
 10
-6947.9999999983920134
 20
5119.0
 30
0.0
 11
-6987.9999999983920134
 21
5119.0
 31
0.0
  0
LINE
  5
197
100
AcDbEntity
100
AcDbLine
  8
Bois
 62
256
370
-1
 48
1.0
  6
BYLAYER
 10
-5351.9999999989386197
 20
5119.0
 30
0.0
 11
-5351.9999999989386197
 21
5059.0
 31
0.0
  0
LINE
  5
198
100
AcDbEntity
100
AcDbLine
  8
Bois
 62
256
370
-1
 48
1.0
  6
BYLAYER
 10
-5351.9999999989386197
 20
5119.0
 30
0.0
 11
-5311.9999999989386197
 21
5059.0
 31
0.0
  0
LINE
  5
199
100
AcDbEntity
100
AcDbLine
  8
Bois
 62
256
370
-1
 48
1.0
  6
BYLAYER
 10
-5311.9999999989386197
 20
5059.0
 30
0.0
 11
-5351.9999999989386197
 21
5059.0
 31
0.0
  0
LINE
  5
19A
100
AcDbEntity
100
AcDbLine
  8
Bois
 62
256
370
-1
 48
1.0
  6
BYLAYER
 10
-5351.9999999989386197
 20
5059.0
 30
0.0
 11
-5311.9999999989386197
 21
5119.0
 31
0.0
  0
LINE
  5
19B
100
AcDbEntity
100
AcDbLine
  8
Bois
 62
256
370
-1
 48
1.0
  6
BYLAYER
 10
-5311.9999999989386197
 20
5119.0
 30
0.0
 11
-5351.9999999989386197
 21
5119.0
 31
0.0
  0
XLINE
  5
19C
100
AcDbEntity
100
AcDbLine
  8
Lignes
 62
256
370
-1
 48
1.0
  6
BYLAYER
 10
-5299.9999999989386197
 20
5092.5563045863182197
 30
0.0
 11
0.0
 21
1.0
 31
0.0
  0
LINE
  5
19D
100
AcDbEntity
100
AcDbLine
  8
Bois
 62
256
370
-1
 48
1.0
  6
BYLAYER
 10
12.0000000000000391
 20
635.5000000002045226
 30
0.0
 11
52.0000000000000426
 21
635.5000000002045226
 31
0.0
  0
LINE
  5
19E
100
AcDbEntity
100
AcDbLine
  8
Bois
 62
256
370
-1
 48
1.0
  6
BYLAYER
 10
52.0000000000000426
 20
635.5000000002045226
 30
0.0
 11
12.0000000000000373
 21
595.500000000191676
 31
0.0
  0
LINE
  5
19F
100
AcDbEntity
100
AcDbLine
  8
Bois
 62
256
370
-1
 48
1.0
  6
BYLAYER
 10
12.0000000000000373
 20
595.500000000191676
 30
0.0
 11
52.0000000000000355
 21
595.500000000191676
 31
0.0
  0
LINE
  5
1A0
100
AcDbEntity
100
AcDbLine
  8
Bois
 62
256
370
-1
 48
1.0
  6
BYLAYER
 10
52.0000000000000355
 20
595.500000000191676
 30
0.0
 11
12.0000000000000391
 21
635.5000000002045226
 31
0.0
  0
LINE
  5
1A1
100
AcDbEntity
100
AcDbLine
  8
Bois
 62
256
370
-1
 48
1.0
  6
BYLAYER
 10
12.0000000000000391
 20
635.5000000002045226
 30
0.0
 11
12.0000000000000373
 21
595.500000000191676
 31
0.0
  0
LINE
  5
1A2
100
AcDbEntity
100
AcDbLine
  8
Bois
 62
256
370
-1
 48
1.0
  6
BYLAYER
 10
52.0000000000000355
 20
1177.0000000003788045
 30
0.0
 11
52.0000000000000426
 21
1217.0000000003915375
 31
0.0
  0
LINE
  5
1A3
100
AcDbEntity
100
AcDbLine
  8
Bois
 62
256
370
-1
 48
1.0
  6
BYLAYER
 10
52.0000000000000355
 20
595.500000000191676
 30
0.0
 11
52.0000000000000426
 21
635.5000000002045226
 31
0.0
  0
LINE
  5
1A4
100
AcDbEntity
100
AcDbLine
  8
Bois
 62
256
370
-1
 48
1.0
  6
BYLAYER
 10
52.0000000000000711
 20
1177.0000000003785772
 30
0.0
 11
52.0000000000000782
 21
1217.0000000003915375
 31
0.0
  0
LINE
  5
1A5
100
AcDbEntity
100
AcDbLine
  8
Bois
 62
256
370
-1
 48
1.0
  6
BYLAYER
 10
52.0000000000000782
 20
1217.0000000003915375
 30
0.0
 11
12.0000000000000764
 21
1217.0000000003915375
 31
0.0
  0
LINE
  5
1A6
100
AcDbEntity
100
AcDbLine
  8
Bois
 62
256
370
-1
 48
1.0
  6
BYLAYER
 10
12.0000000000000764
 20
1217.0000000003915375
 30
0.0
 11
12.0000000000000746
 21
1177.0000000003785772
 31
0.0
  0
LINE
  5
1A7
100
AcDbEntity
100
AcDbLine
  8
Bois
 62
256
370
-1
 48
1.0
  6
BYLAYER
 10
12.0000000000000746
 20
1177.0000000003785772
 30
0.0
 11
52.0000000000000711
 21
1177.0000000003785772
 31
0.0
  0
LINE
  5
1A8
100
AcDbEntity
100
AcDbLine
  8
Bois
 62
256
370
-1
 48
1.0
  6
BYLAYER
 10
52.0000000000000711
 20
1177.0000000003785772
 30
0.0
 11
12.0000000000000764
 21
1217.0000000003915375
 31
0.0
  0
LINE
  5
1A9
100
AcDbEntity
100
AcDbLine
  8
Bois
 62
256
370
-1
 48
1.0
  6
BYLAYER
 10
52.0000000000000782
 20
1217.0000000003915375
 30
0.0
 11
12.0000000000000728
 21
1177.0000000003785772
 31
0.0
  0
LINE
  5
1AA
100
AcDbEntity
100
AcDbLine
  8
Bois
 62
256
370
-1
 48
1.0
  6
BYLAYER
 10
52.0000000000000355
 20
1177.0000000003788045
 30
0.0
 11
322.0
 21
1177.0000000003788045
 31
0.0
  0
LINE
  5
1AB
100
AcDbEntity
100
AcDbLine
  8
Bois
 62
256
370
-1
 48
1.0
  6
BYLAYER
 10
52.0000000000000355
 20
595.500000000191676
 30
0.0
 11
322.0
 21
595.500000000191676
 31
0.0
  0
LINE
  5
1AC
100
AcDbEntity
100
AcDbLine
  8
Bois
 62
256
370
-1
 48
1.0
  6
BYLAYER
 10
52.0000000000000426
 20
1217.0000000003915375
 30
0.0
 11
322.0
 21
1217.0000000003915375
 31
0.0
  0
LINE
  5
1AD
100
AcDbEntity
100
AcDbLine
  8
Bois
 62
256
370
-1
 48
1.0
  6
BYLAYER
 10
52.0000000000000426
 20
635.5000000002045226
 30
0.0
 11
322.0
 21
635.5000000002045226
 31
0.0
  0
LINE
  5
1AE
100
AcDbEntity
100
AcDbLine
  8
Bois
 62
256
370
-1
 48
1.0
  6
BYLAYER
 10
322.0
 20
1641.9999999999872671
 30
0.0
 11
322.0
 21
1682.0
 31
0.0
  0
LINE
  5
1AF
100
AcDbEntity
100
AcDbLine
  8
Bois
 62
256
370
-1
 48
1.0
  6
BYLAYER
 10
322.0
 20
12.0
 30
0.0
 11
322.0
 21
52.0000000000128466
 31
0.0
  0
LINE
  5
1B0
100
AcDbEntity
100
AcDbLine
  8
Bois
 62
256
370
-1
 48
1.0
  6
BYLAYER
 10
322.0
 20
1177.0000000003788045
 30
0.0
 11
322.0
 21
1217.0000000003915375
 31
0.0
  0
LINE
  5
1B1
100
AcDbEntity
100
AcDbLine
  8
Bois
 62
256
370
-1
 48
1.0
  6
BYLAYER
 10
322.0
 20
595.500000000191676
 30
0.0
 11
322.0
 21
635.5000000002045226
 31
0.0
  0
LINE
  5
1B2
100
AcDbEntity
100
AcDbLine
  8
Bois
 62
256
370
-1
 48
1.0
  6
BYLAYER
 10
52.0
 20
867.0
 30
0.0
 11
642.0
 21
867.0
 31
0.0
  0
LINE
  5
1B3
100
AcDbEntity
100
AcDbLine
  8
Bois
 62
256
370
-1
 48
1.0
  6
BYLAYER
 10
642.0
 20
827.0
 30
0.0
 11
52.0
 21
827.0
 31
0.0
  0
LINE
  5
1B4
100
AcDbEntity
100
AcDbLine
  8
Bois
 62
256
370
-1
 48
1.0
  6
BYLAYER
 10
-6132.9999999986648618
 20
3851.0
 30
0.0
 11
-6132.9999999986648618
 21
3911.0
 31
0.0
  0
LINE
  5
1B5
100
AcDbEntity
100
AcDbLine
  8
Bois
 62
256
370
-1
 48
1.0
  6
BYLAYER
 10
-6132.9999999986648618
 20
3911.0
 30
0.0
 11
-6172.9999999986648618
 21
3851.0
 31
0.0
  0
LINE
  5
1B6
100
AcDbEntity
100
AcDbLine
  8
Bois
 62
256
370
-1
 48
1.0
  6
BYLAYER
 10
-6172.9999999986648618
 20
3851.0
 30
0.0
 11
-6172.9999999986648618
 21
3911.0
 31
0.0
  0
LINE
  5
1B7
100
AcDbEntity
100
AcDbLine
  8
Bois
 62
256
370
-1
 48
1.0
  6
BYLAYER
 10
-6172.9999999986648618
 20
3911.0
 30
0.0
 11
-6132.9999999986648618
 21
3851.0
 31
0.0
  0
LINE
  5
1B8
100
AcDbEntity
100
AcDbLine
  8
Bois
 62
256
370
-1
 48
1.0
  6
BYLAYER
 10
-6947.9999999983920134
 20
3060.0
 30
0.0
 11
-6947.9999999983920134
 21
3000.0
 31
0.0
  0
LINE
  5
1B9
100
AcDbEntity
100
AcDbLine
  8
Bois
 62
256
370
-1
 48
1.0
  6
BYLAYER
 10
-6947.9999999983920134
 20
3000.0
 30
0.0
 11
-6987.9999999983920134
 21
3060.0
 31
0.0
  0
LINE
  5
1BA
100
AcDbEntity
100
AcDbLine
  8
Bois
 62
256
370
-1
 48
1.0
  6
BYLAYER
 10
-6947.9999999983920134
 20
3060.0
 30
0.0
 11
-6987.9999999983920134
 21
3000.0
 31
0.0
  0
LINE
  5
1BB
100
AcDbEntity
100
AcDbLine
  8
Bois
 62
256
370
-1
 48
1.0
  6
BYLAYER
 10
-5357.9999999989386197
 20
3060.0
 30
0.0
 11
-5357.9999999989386197
 21
3000.0
 31
0.0
  0
LINE
  5
1BC
100
AcDbEntity
100
AcDbLine
  8
Bois
 62
256
370
-1
 48
1.0
  6
BYLAYER
 10
-5357.9999999989386197
 20
3000.0
 30
0.0
 11
-5317.9999999989386197
 21
3060.0
 31
0.0
  0
LINE
  5
1BD
100
AcDbEntity
100
AcDbLine
  8
Bois
 62
256
370
-1
 48
1.0
  6
BYLAYER
 10
-5357.9999999989386197
 20
3060.0
 30
0.0
 11
-5317.9999999989386197
 21
3000.0
 31
0.0
  0
LINE
  5
1BE
100
AcDbEntity
100
AcDbLine
  8
Bois
 62
256
370
-1
 48
1.0
  6
BYLAYER
 10
-5765.4999999986648618
 20
3060.0
 30
0.0
 11
-5765.4999999986648618
 21
3000.0
 31
0.0
  0
LINE
  5
1BF
100
AcDbEntity
100
AcDbLine
  8
Bois
 62
256
370
-1
 48
1.0
  6
BYLAYER
 10
-6580.4999999983920134
 20
3060.0
 30
0.0
 11
-6580.4999999983920134
 21
3000.0
 31
0.0
  0
LINE
  5
1C0
100
AcDbEntity
100
AcDbLine
  8
Bois
 62
256
370
-1
 48
1.0
  6
BYLAYER
 10
-6172.9999999986648618
 20
3060.0
 30
0.0
 11
-6172.9999999986648618
 21
3000.0
 31
0.0
  0
LINE
  5
1C1
100
AcDbEntity
100
AcDbLine
  8
Bois
 62
256
370
-1
 48
1.0
  6
BYLAYER
 10
-5765.4999999986648618
 20
3000.0
 30
0.0
 11
-5725.4999999986648618
 21
3060.0
 31
0.0
  0
LINE
  5
1C2
100
AcDbEntity
100
AcDbLine
  8
Bois
 62
256
370
-1
 48
1.0
  6
BYLAYER
 10
-6580.4999999983920134
 20
3000.0
 30
0.0
 11
-6540.4999999983920134
 21
3060.0
 31
0.0
  0
LINE
  5
1C3
100
AcDbEntity
100
AcDbLine
  8
Bois
 62
256
370
-1
 48
1.0
  6
BYLAYER
 10
-6172.9999999986648618
 20
3000.0
 30
0.0
 11
-6132.9999999986648618
 21
3060.0
 31
0.0
  0
LINE
  5
1C4
100
AcDbEntity
100
AcDbLine
  8
Bois
 62
256
370
-1
 48
1.0
  6
BYLAYER
 10
-5725.4999999986648618
 20
3060.0
 30
0.0
 11
-5725.4999999986648618
 21
3000.0
 31
0.0
  0
LINE
  5
1C5
100
AcDbEntity
100
AcDbLine
  8
Bois
 62
256
370
-1
 48
1.0
  6
BYLAYER
 10
-6132.9999999986648618
 20
3060.0
 30
0.0
 11
-6132.9999999986648618
 21
3000.0
 31
0.0
  0
LINE
  5
1C6
100
AcDbEntity
100
AcDbLine
  8
Bois
 62
256
370
-1
 48
1.0
  6
BYLAYER
 10
-5725.4999999986648618
 20
3000.0
 30
0.0
 11
-5765.4999999986648618
 21
3060.0
 31
0.0
  0
LINE
  5
1C7
100
AcDbEntity
100
AcDbLine
  8
Bois
 62
256
370
-1
 48
1.0
  6
BYLAYER
 10
-6540.4999999983920134
 20
3000.0
 30
0.0
 11
-6580.4999999983920134
 21
3060.0
 31
0.0
  0
LINE
  5
1C8
100
AcDbEntity
100
AcDbLine
  8
Bois
 62
256
370
-1
 48
1.0
  6
BYLAYER
 10
-6132.9999999986648618
 20
3000.0
 30
0.0
 11
-6172.9999999986648618
 21
3060.0
 31
0.0
  0
LINE
  5
1C9
100
AcDbEntity
100
AcDbLine
  8
Bois
 62
256
370
-1
 48
1.0
  6
BYLAYER
 10
-6540.4999999983920134
 20
3060.0
 30
0.0
 11
-6540.4999999983920134
 21
3000.0
 31
0.0
  0
LINE
  5
1CA
100
AcDbEntity
100
AcDbLine
  8
Bois
 62
256
370
-1
 48
1.0
  6
BYLAYER
 10
52.0000000000000782
 20
1274.5000000001371063
 30
0.0
 11
642.0
 21
1274.5000000001371063
 31
0.0
  0
LINE
  5
1CB
100
AcDbEntity
100
AcDbLine
  8
Bois
 62
256
370
-1
 48
1.0
  6
BYLAYER
 10
642.0
 20
1274.5000000001371063
 30
0.0
 11
642.0
 21
1234.5000000001243734
 31
0.0
  0
LINE
  5
1CC
100
AcDbEntity
100
AcDbLine
  8
Bois
 62
256
370
-1
 48
1.0
  6
BYLAYER
 10
642.0
 20
1234.5000000001243734
 30
0.0
 11
52.0000000000000782
 21
1234.5000000001243734
 31
0.0
  0
LINE
  5
1CD
100
AcDbEntity
100
AcDbLine
  8
Bois
 62
256
370
-1
 48
1.0
  6
BYLAYER
 10
52.0000000000000782
 20
1234.5000000001243734
 30
0.0
 11
52.0000000000000782
 21
1274.5000000001371063
 31
0.0
  0
LINE
  5
1CE
100
AcDbEntity
100
AcDbLine
  8
Bois
 62
256
370
-1
 48
1.0
  6
BYLAYER
 10
52.0000000000000284
 20
459.5000000001479634
 30
0.0
 11
642.0
 21
459.5000000001479634
 31
0.0
  0
LINE
  5
1CF
100
AcDbEntity
100
AcDbLine
  8
Bois
 62
256
370
-1
 48
1.0
  6
BYLAYER
 10
642.0
 20
459.5000000001479634
 30
0.0
 11
642.0
 21
419.5000000001351168
 31
0.0
  0
LINE
  5
1D0
100
AcDbEntity
100
AcDbLine
  8
Bois
 62
256
370
-1
 48
1.0
  6
BYLAYER
 10
642.0
 20
419.5000000001351168
 30
0.0
 11
52.0000000000000284
 21
419.5000000001351168
 31
0.0
  0
LINE
  5
1D1
100
AcDbEntity
100
AcDbLine
  8
Bois
 62
256
370
-1
 48
1.0
  6
BYLAYER
 10
52.0000000000000284
 20
419.5000000001351168
 30
0.0
 11
52.0000000000000284
 21
459.5000000001479634
 31
0.0
  0
LINE
  5
1D2
100
AcDbEntity
100
AcDbLine
  8
OSB12
 62
256
370
-1
 48
1.0
  6
BYLAYER
 10
322.0
 20
1682.0
 30
0.0
 11
322.0
 21
12.0
 31
0.0
  0
LINE
  5
1D3
100
AcDbEntity
100
AcDbLine
  8
OSB12
 62
256
370
-1
 48
1.0
  6
BYLAYER
 10
322.0
 20
12.0
 30
0.0
 11
52.0
 21
12.0
 31
0.0
  0
LINE
  5
1D4
100
AcDbEntity
100
AcDbLine
  8
OSB12
 62
256
370
-1
 48
1.0
  6
BYLAYER
 10
52.0
 20
12.0
 30
0.0
 11
52.0
 21
52.0
 31
0.0
  0
LINE
  5
1D5
100
AcDbEntity
100
AcDbLine
  8
OSB12
 62
256
370
-1
 48
1.0
  6
BYLAYER
 10
52.0
 20
52.0
 30
0.0
 11
12.0000000000000036
 21
52.0
 31
0.0
  0
LINE
  5
1D6
100
AcDbEntity
100
AcDbLine
  8
OSB12
 62
256
370
-1
 48
1.0
  6
BYLAYER
 10
12.0000000000000036
 20
52.0
 30
0.0
 11
12.0000000000000373
 21
595.500000000191676
 31
0.0
  0
LINE
  5
1D7
100
AcDbEntity
100
AcDbLine
  8
OSB12
 62
256
370
-1
 48
1.0
  6
BYLAYER
 10
12.0000000000000373
 20
595.500000000191676
 30
0.0
 11
52.0000000000000355
 21
595.500000000191676
 31
0.0
  0
LINE
  5
1D8
100
AcDbEntity
100
AcDbLine
  8
OSB12
 62
256
370
-1
 48
1.0
  6
BYLAYER
 10
52.0000000000000355
 20
595.500000000191676
 30
0.0
 11
52.0000000000000426
 21
635.5000000002045226
 31
0.0
  0
LINE
  5
1D9
100
AcDbEntity
100
AcDbLine
  8
OSB12
 62
256
370
-1
 48
1.0
  6
BYLAYER
 10
52.0000000000000426
 20
635.5000000002045226
 30
0.0
 11
12.0000000000000391
 21
635.5000000002045226
 31
0.0
  0
LINE
  5
1DA
100
AcDbEntity
100
AcDbLine
  8
OSB12
 62
256
370
-1
 48
1.0
  6
BYLAYER
 10
12.0000000000000391
 20
635.5000000002045226
 30
0.0
 11
12.0
 21
827.0
 31
0.0
  0
LINE
  5
1DB
100
AcDbEntity
100
AcDbLine
  8
OSB12
 62
256
370
-1
 48
1.0
  6
BYLAYER
 10
12.0
 20
827.0
 30
0.0
 11
12.0000000000000746
 21
1177.0000000003785772
 31
0.0
  0
LINE
  5
1DC
100
AcDbEntity
100
AcDbLine
  8
OSB12
 62
256
370
-1
 48
1.0
  6
BYLAYER
 10
12.0000000000000746
 20
1177.0000000003785772
 30
0.0
 11
52.0000000000000711
 21
1177.0000000003785772
 31
0.0
  0
LINE
  5
1DD
100
AcDbEntity
100
AcDbLine
  8
OSB12
 62
256
370
-1
 48
1.0
  6
BYLAYER
 10
52.0000000000000711
 20
1177.0000000003785772
 30
0.0
 11
52.0000000000000782
 21
1217.0000000003915375
 31
0.0
  0
LINE
  5
1DE
100
AcDbEntity
100
AcDbLine
  8
OSB12
 62
256
370
-1
 48
1.0
  6
BYLAYER
 10
52.0000000000000782
 20
1217.0000000003915375
 30
0.0
 11
12.0000000000000764
 21
1217.0000000003915375
 31
0.0
  0
LINE
  5
1DF
100
AcDbEntity
100
AcDbLine
  8
OSB12
 62
256
370
-1
 48
1.0
  6
BYLAYER
 10
12.0000000000000764
 20
1217.0000000003915375
 30
0.0
 11
12.0000000000001048
 21
1642.0
 31
0.0
  0
LINE
  5
1E0
100
AcDbEntity
100
AcDbLine
  8
OSB12
 62
256
370
-1
 48
1.0
  6
BYLAYER
 10
12.0000000000001048
 20
1642.0
 30
0.0
 11
52.0000000000000995
 21
1642.0
 31
0.0
  0
LINE
  5
1E1
100
AcDbEntity
100
AcDbLine
  8
OSB12
 62
256
370
-1
 48
1.0
  6
BYLAYER
 10
52.0000000000000995
 20
1642.0
 30
0.0
 11
52.0000000000000995
 21
1682.0
 31
0.0
  0
LINE
  5
1E2
100
AcDbEntity
100
AcDbLine
  8
OSB12
 62
256
370
-1
 48
1.0
  6
BYLAYER
 10
52.0000000000000995
 20
1682.0
 30
0.0
 11
322.0
 21
1682.0
 31
0.0
  0
LINE
  5
1E3
100
AcDbEntity
100
AcDbLine
  8
OSB12
 62
256
370
-1
 48
1.0
  6
BYLAYER
 10
52.0000000000000426
 20
1229.0000000003915375
 30
0.0
 11
322.0
 21
1229.0000000003915375
 31
0.0
  0
LINE
  5
1E4
100
AcDbEntity
100
AcDbLine
  8
OSB12
 62
256
370
-1
 48
1.0
  6
BYLAYER
 10
52.0000000000000426
 20
1217.0000000003915375
 30
0.0
 11
322.0
 21
1217.0000000003915375
 31
0.0
  0
LINE
  5
1E5
100
AcDbEntity
100
AcDbLine
  8
OSB12
 62
256
370
-1
 48
1.0
  6
BYLAYER
 10
52.0000000000000426
 20
1217.0000000003915375
 30
0.0
 11
52.0000000000000426
 21
1229.0000000003915375
 31
0.0
  0
LINE
  5
1E6
100
AcDbEntity
100
AcDbLine
  8
OSB12
 62
256
370
-1
 48
1.0
  6
BYLAYER
 10
322.0
 20
1217.0000000003915375
 30
0.0
 11
322.0
 21
1229.0000000003915375
 31
0.0
  0
LINE
  5
1E7
100
AcDbEntity
100
AcDbLine
  8
OSB12
 62
256
370
-1
 48
1.0
  6
BYLAYER
 10
52.0000000000000426
 20
647.5000000002045226
 30
0.0
 11
322.0
 21
647.5000000002045226
 31
0.0
  0
LINE
  5
1E8
100
AcDbEntity
100
AcDbLine
  8
OSB12
 62
256
370
-1
 48
1.0
  6
BYLAYER
 10
52.0000000000000426
 20
635.5000000002045226
 30
0.0
 11
322.0
 21
635.5000000002045226
 31
0.0
  0
LINE
  5
1E9
100
AcDbEntity
100
AcDbLine
  8
OSB12
 62
256
370
-1
 48
1.0
  6
BYLAYER
 10
52.0000000000000426
 20
635.5000000002045226
 30
0.0
 11
52.0000000000000426
 21
647.5000000002045226
 31
0.0
  0
LINE
  5
1EA
100
AcDbEntity
100
AcDbLine
  8
OSB12
 62
256
370
-1
 48
1.0
  6
BYLAYER
 10
322.0
 20
635.5000000002045226
 30
0.0
 11
322.0
 21
647.5000000002045226
 31
0.0
  0
LINE
  5
1EB
100
AcDbEntity
100
AcDbLine
  8
Contreplaque
 62
256
370
-1
 48
1.0
  6
BYLAYER
 10
-5299.9999999989386197
 20
5042.0
 30
0.0
 11
-5770.9999999983920134
 21
5042.0
 31
0.0
  0
LINE
  5
1EC
100
AcDbEntity
100
AcDbLine
  8
Contreplaque
 62
256
370
-1
 48
1.0
  6
BYLAYER
 10
-5782.9999999983920134
 20
5042.0
 30
0.0
 11
-6352.4999999983920134
 21
5042.0
 31
0.0
  0
LINE
  5
1ED
100
AcDbEntity
100
AcDbLine
  8
Contreplaque
 62
256
370
-1
 48
1.0
  6
BYLAYER
 10
-6364.4999999983920134
 20
5042.0
 30
0.0
 11
-6987.9999999983920134
 21
5042.0
 31
0.0
  0
LINE
  5
1EE
100
AcDbEntity
100
AcDbLine
  8
Contreplaque
 62
256
370
-1
 48
1.0
  6
BYLAYER
 10
-5787.9999999983920134
 20
4243.0
 30
0.0
 11
-5787.9999999983920134
 21
5042.0
 31
0.0
  0
LINE
  5
1EF
100
AcDbEntity
100
AcDbLine
  8
Contreplaque
 62
256
370
-1
 48
1.0
  6
BYLAYER
 10
-6347.4999999983920134
 20
4243.0
 30
0.0
 11
-6347.4999999983920134
 21
5042.0
 31
0.0
  0
LINE
  5
1F0
100
AcDbEntity
100
AcDbLine
  8
Contreplaque
 62
256
370
-1
 48
1.0
  6
BYLAYER
 10
-6369.4999999983920134
 20
4243.0
 30
0.0
 11
-6369.4999999983920134
 21
5042.0
 31
0.0
  0
XLINE
  5
1F1
100
AcDbEntity
100
AcDbLine
  8
0
 62
256
370
-1
 48
1.0
  6
BYLAYER
 10
-5575.2899950265255029
 20
3000.0
 30
0.0
 11
1.0
 21
0.0
 31
0.0
  0
XLINE
  5
1F2
100
AcDbEntity
100
AcDbLine
  8
0
 62
256
370
-1
 48
1.0
  6
BYLAYER
 10
0.0
 20
400.0
 30
0.0
 11
0.0000000000000001
 21
1.0
 31
0.0
  0
XLINE
  5
1F3
100
AcDbEntity
100
AcDbLine
  8
0
 62
256
370
-1
 48
1.0
  6
BYLAYER
 10
682.0
 20
111.5166651854181907
 30
0.0
 11
0.0
 21
1.0
 31
0.0
  0
LINE
  5
1F4
100
AcDbEntity
100
AcDbLine
  8
Bois
 62
256
370
-1
 48
1.0
  6
BYLAYER
 10
12.0000000000001599
 20
3851.0
 30
0.0
 11
682.0
 21
3851.0
 31
0.0
  0
LINE
  5
1F5
100
AcDbEntity
100
AcDbLine
  8
Bois
 62
256
370
-1
 48
1.0
  6
BYLAYER
 10
12.0000000000001599
 20
3000.0
 30
0.0
 11
682.0
 21
3000.0
 31
0.0
  0
LINE
  5
1F6
100
AcDbEntity
100
AcDbLine
  8
Bois
 62
256
370
-1
 48
1.0
  6
BYLAYER
 10
12.0000000000001634
 20
3911.0
 30
0.0
 11
682.0
 21
3911.0
 31
0.0
  0
LINE
  5
1F7
100
AcDbEntity
100
AcDbLine
  8
Bois
 62
256
370
-1
 48
1.0
  6
BYLAYER
 10
12.0000000000001634
 20
3060.0
 30
0.0
 11
682.0
 21
3060.0
 31
0.0
  0
LINE
  5
1F8
100
AcDbEntity
100
AcDbLine
  8
Bois
 62
256
370
-1
 48
1.0
  6
BYLAYER
 10
12.0000000000001599
 20
3851.0
 30
0.0
 11
12.0000000000001634
 21
3911.0
 31
0.0
  0
LINE
  5
1F9
100
AcDbEntity
100
AcDbLine
  8
Bois
 62
256
370
-1
 48
1.0
  6
BYLAYER
 10
12.0000000000001599
 20
3000.0
 30
0.0
 11
12.0000000000001634
 21
3060.0
 31
0.0
  0
LINE
  5
1FA
100
AcDbEntity
100
AcDbLine
  8
Bois
 62
256
370
-1
 48
1.0
  6
BYLAYER
 10
682.0
 20
3851.0
 30
0.0
 11
682.0
 21
3911.0
 31
0.0
  0
LINE
  5
1FB
100
AcDbEntity
100
AcDbLine
  8
Bois
 62
256
370
-1
 48
1.0
  6
BYLAYER
 10
682.0
 20
3000.0
 30
0.0
 11
682.0
 21
3060.0
 31
0.0
  0
LINE
  5
1FC
100
AcDbEntity
100
AcDbLine
  8
Bois
 62
256
370
-1
 48
1.0
  6
BYLAYER
 10
52.0000000000001563
 20
3851.0
 30
0.0
 11
52.0000000000001634
 21
3911.0
 31
0.0
  0
LINE
  5
1FD
100
AcDbEntity
100
AcDbLine
  8
Bois
 62
256
370
-1
 48
1.0
  6
BYLAYER
 10
52.0000000000001563
 20
3000.0
 30
0.0
 11
52.0000000000001634
 21
3060.0
 31
0.0
  0
LINE
  5
1FE
100
AcDbEntity
100
AcDbLine
  8
Bois
 62
256
370
-1
 48
1.0
  6
BYLAYER
 10
642.0
 20
3851.0
 30
0.0
 11
642.0
 21
3911.0
 31
0.0
  0
LINE
  5
1FF
100
AcDbEntity
100
AcDbLine
  8
Bois
 62
256
370
-1
 48
1.0
  6
BYLAYER
 10
642.0
 20
3000.0
 30
0.0
 11
642.0
 21
3060.0
 31
0.0
  0
LINE
  5
200
100
AcDbEntity
100
AcDbLine
  8
Bois
 62
256
370
-1
 48
1.0
  6
BYLAYER
 10
12.0000000000001634
 20
3911.0
 30
0.0
 11
52.0000000000001563
 21
3851.0
 31
0.0
  0
LINE
  5
201
100
AcDbEntity
100
AcDbLine
  8
Bois
 62
256
370
-1
 48
1.0
  6
BYLAYER
 10
12.0000000000001634
 20
3060.0
 30
0.0
 11
52.0000000000001563
 21
3000.0
 31
0.0
  0
LINE
  5
202
100
AcDbEntity
100
AcDbLine
  8
Bois
 62
256
370
-1
 48
1.0
  6
BYLAYER
 10
52.0000000000001634
 20
3911.0
 30
0.0
 11
12.0000000000001599
 21
3851.0
 31
0.0
  0
LINE
  5
203
100
AcDbEntity
100
AcDbLine
  8
Bois
 62
256
370
-1
 48
1.0
  6
BYLAYER
 10
52.0000000000001634
 20
3060.0
 30
0.0
 11
12.0000000000001599
 21
3000.0
 31
0.0
  0
LINE
  5
204
100
AcDbEntity
100
AcDbLine
  8
Bois
 62
256
370
-1
 48
1.0
  6
BYLAYER
 10
642.0
 20
3911.0
 30
0.0
 11
682.0
 21
3851.0
 31
0.0
  0
LINE
  5
205
100
AcDbEntity
100
AcDbLine
  8
Bois
 62
256
370
-1
 48
1.0
  6
BYLAYER
 10
642.0
 20
3060.0
 30
0.0
 11
682.0
 21
3000.0
 31
0.0
  0
LINE
  5
206
100
AcDbEntity
100
AcDbLine
  8
Bois
 62
256
370
-1
 48
1.0
  6
BYLAYER
 10
682.0
 20
3911.0
 30
0.0
 11
642.0
 21
3851.0
 31
0.0
  0
LINE
  5
207
100
AcDbEntity
100
AcDbLine
  8
Bois
 62
256
370
-1
 48
1.0
  6
BYLAYER
 10
682.0
 20
3060.0
 30
0.0
 11
642.0
 21
3000.0
 31
0.0
  0
LINE
  5
208
100
AcDbEntity
100
AcDbLine
  8
OSB12
 62
256
370
-1
 48
1.0
  6
BYLAYER
 10
12.0000000000002149
 20
3000.0
 30
0.0
 11
12.0000000000003126
 21
5590.0
 31
0.0
  0
LINE
  5
209
100
AcDbEntity
100
AcDbLine
  8
OSB12
 62
256
370
-1
 48
1.0
  6
BYLAYER
 10
12.0000000000001599
 20
3000.0
 30
0.0
 11
0.0000000000001592
 21
3000.0
 31
0.0
  0
LINE
  5
20A
100
AcDbEntity
100
AcDbLine
  8
OSB12
 62
256
370
-1
 48
1.0
  6
BYLAYER
 10
12.000000000000318
 20
5590.0
 30
0.0
 11
0.0000000000003178
 21
5590.0
 31
0.0
  0
LINE
  5
20B
100
AcDbEntity
100
AcDbLine
  8
OSB12
 62
256
370
-1
 48
1.0
  6
BYLAYER
 10
0.0000000000001599
 20
3000.0
 30
0.0
 11
0.0000000000003126
 21
5590.0
 31
0.0
  0
LINE
  5
20C
100
AcDbEntity
100
AcDbLine
  8
OSB22
 62
256
370
-1
 48
1.0
  6
BYLAYER
 10
12.0
 20
3933.0
 30
0.0
 11
682.0
 21
3933.0
 31
0.0
  0
LINE
  5
20D
100
AcDbEntity
100
AcDbLine
  8
OSB22
 62
256
370
-1
 48
1.0
  6
BYLAYER
 10
12.0
 20
3911.0
 30
0.0
 11
682.0
 21
3911.0
 31
0.0
  0
LINE
  5
20E
100
AcDbEntity
100
AcDbLine
  8
OSB22
 62
256
370
-1
 48
1.0
  6
BYLAYER
 10
682.0
 20
3933.0
 30
0.0
 11
682.0
 21
3911.0
 31
0.0
  0
LINE
  5
20F
100
AcDbEntity
100
AcDbLine
  8
Bois
 62
256
370
-1
 48
1.0
  6
BYLAYER
 10
682.0
 20
3060.0
 30
0.0
 11
682.0
 21
3851.0
 31
0.0
  0
LINE
  5
210
100
AcDbEntity
100
AcDbLine
  8
Bois
 62
256
370
-1
 48
1.0
  6
BYLAYER
 10
642.0
 20
3851.0
 30
0.0
 11
642.0
 21
3060.0
 31
0.0
  0
LINE
  5
211
100
AcDbEntity
100
AcDbLine
  8
Bois
 62
256
370
-1
 48
1.0
  6
BYLAYER
 10
52.0000000000001634
 20
3060.0
 30
0.0
 11
52.0000000000001563
 21
3851.0
 31
0.0
  0
LINE
  5
212
100
AcDbEntity
100
AcDbLine
  8
Bois
 62
256
370
-1
 48
1.0
  6
BYLAYER
 10
12.0000000000001599
 20
3851.0
 30
0.0
 11
12.0000000000001634
 21
3060.0
 31
0.0
  0
LINE
  5
213
100
AcDbEntity
100
AcDbLine
  8
OSB18
 62
256
370
-1
 48
1.0
  6
BYLAYER
 10
12.0
 20
3078.0
 30
0.0
 11
682.0
 21
3078.0
 31
0.0
  0
LINE
  5
214
100
AcDbEntity
100
AcDbLine
  8
OSB18
 62
256
370
-1
 48
1.0
  6
BYLAYER
 10
12.0
 20
3060.0
 30
0.0
 11
682.0
 21
3060.0
 31
0.0
  0
LINE
  5
215
100
AcDbEntity
100
AcDbLine
  8
Bois
 62
256
370
-1
 48
1.0
  6
BYLAYER
 10
682.0
 20
3078.0
 30
0.0
 11
682.0
 21
3060.0
 31
0.0
  0
LINE
  5
216
100
AcDbEntity
100
AcDbLine
  8
Bois
 62
256
370
-1
 48
1.0
  6
BYLAYER
 10
12.0000000000001634
 20
3060.0
 30
0.0
 11
12.0
 21
3078.0
 31
0.0
  0
LINE
  5
217
100
AcDbEntity
100
AcDbLine
  8
OSB22
 62
256
370
-1
 48
1.0
  6
BYLAYER
 10
12.0000000000001634
 20
3911.0
 30
0.0
 11
12.0
 21
3933.0
 31
0.0
  0
LINE
  5
218
100
AcDbEntity
100
AcDbLine
  8
OSB12
 62
256
370
-1
 48
1.0
  6
BYLAYER
 10
642.0
 20
3000.0
 30
0.0
 11
642.0
 21
3060.0
 31
0.0
  0
LINE
  5
219
100
AcDbEntity
100
AcDbLine
  8
OSB12
 62
256
370
-1
 48
1.0
  6
BYLAYER
 10
642.0
 20
3060.0
 30
0.0
 11
682.0
 21
3060.0
 31
0.0
  0
LINE
  5
21A
100
AcDbEntity
100
AcDbLine
  8
OSB12
 62
256
370
-1
 48
1.0
  6
BYLAYER
 10
682.0
 20
3060.0
 30
0.0
 11
682.0
 21
3851.0
 31
0.0
  0
LINE
  5
21B
100
AcDbEntity
100
AcDbLine
  8
OSB12
 62
256
370
-1
 48
1.0
  6
BYLAYER
 10
682.0
 20
3851.0
 30
0.0
 11
642.0
 21
3851.0
 31
0.0
  0
LINE
  5
21C
100
AcDbEntity
100
AcDbLine
  8
OSB12
 62
256
370
-1
 48
1.0
  6
BYLAYER
 10
642.0
 20
3851.0
 30
0.0
 11
642.0
 21
3911.0
 31
0.0
  0
LINE
  5
21D
100
AcDbEntity
100
AcDbLine
  8
OSB12
 62
256
370
-1
 48
1.0
  6
BYLAYER
 10
642.0
 20
3911.0
 30
0.0
 11
52.0000000000001634
 21
3911.0
 31
0.0
  0
LINE
  5
21E
100
AcDbEntity
100
AcDbLine
  8
OSB12
 62
256
370
-1
 48
1.0
  6
BYLAYER
 10
52.0000000000001634
 20
3911.0
 30
0.0
 11
52.0000000000001563
 21
3851.0
 31
0.0
  0
LINE
  5
21F
100
AcDbEntity
100
AcDbLine
  8
OSB12
 62
256
370
-1
 48
1.0
  6
BYLAYER
 10
52.0000000000001563
 20
3851.0
 30
0.0
 11
12.0000000000001599
 21
3851.0
 31
0.0
  0
LINE
  5
220
100
AcDbEntity
100
AcDbLine
  8
OSB12
 62
256
370
-1
 48
1.0
  6
BYLAYER
 10
12.0000000000001599
 20
3851.0
 30
0.0
 11
12.0000000000001634
 21
3060.0
 31
0.0
  0
LINE
  5
221
100
AcDbEntity
100
AcDbLine
  8
OSB12
 62
256
370
-1
 48
1.0
  6
BYLAYER
 10
12.0000000000001634
 20
3060.0
 30
0.0
 11
52.0000000000001634
 21
3060.0
 31
0.0
  0
LINE
  5
222
100
AcDbEntity
100
AcDbLine
  8
OSB12
 62
256
370
-1
 48
1.0
  6
BYLAYER
 10
52.0000000000001634
 20
3060.0
 30
0.0
 11
52.0000000000001563
 21
3000.0
 31
0.0
  0
LINE
  5
223
100
AcDbEntity
100
AcDbLine
  8
OSB12
 62
256
370
-1
 48
1.0
  6
BYLAYER
 10
52.0000000000001563
 20
3000.0
 30
0.0
 11
642.0
 21
3000.0
 31
0.0
  0
LINE
  5
224
100
AcDbEntity
100
AcDbLine
  8
Vasques
 62
256
370
-1
 48
1.0
  6
BYLAYER
 10
252.0
 20
3972.0
 30
0.0
 11
682.0
 21
3972.0
 31
0.0
  0
LINE
  5
225
100
AcDbEntity
100
AcDbLine
  8
Vasques
 62
256
370
-1
 48
1.0
  6
BYLAYER
 10
252.0
 20
3812.0
 30
0.0
 11
682.0
 21
3812.0
 31
0.0
  0
LINE
  5
226
100
AcDbEntity
100
AcDbLine
  8
Vasques
 62
256
370
-1
 48
1.0
  6
BYLAYER
 10
252.0
 20
3972.0
 30
0.0
 11
252.0
 21
3812.0
 31
0.0
  0
LINE
  5
227
100
AcDbEntity
100
AcDbLine
  8
Vasques
 62
256
370
-1
 48
1.0
  6
BYLAYER
 10
682.0
 20
3972.0
 30
0.0
 11
682.0
 21
3812.0
 31
0.0
  0
LINE
  5
228
100
AcDbEntity
100
AcDbLine
  8
Bois
 62
256
370
-1
 48
1.0
  6
BYLAYER
 10
52.0
 20
4243.0
 30
0.0
 11
12.0000000000002274
 21
4243.0
 31
0.0
  0
LINE
  5
229
100
AcDbEntity
100
AcDbLine
  8
Bois
 62
256
370
-1
 48
1.0
  6
BYLAYER
 10
52.0
 20
4303.0
 30
0.0
 11
12.0000000000002274
 21
4303.0
 31
0.0
  0
LINE
  5
22A
100
AcDbEntity
100
AcDbLine
  8
Bois
 62
256
370
-1
 48
1.0
  6
BYLAYER
 10
322.0
 20
5059.0
 30
0.0
 11
12.0000000000002842
 21
5059.0
 31
0.0
  0
LINE
  5
22B
100
AcDbEntity
100
AcDbLine
  8
Bois
 62
256
370
-1
 48
1.0
  6
BYLAYER
 10
322.0
 20
5119.0
 30
0.0
 11
12.0000000000002842
 21
5119.0
 31
0.0
  0
LINE
  5
22C
100
AcDbEntity
100
AcDbLine
  8
Bois
 62
256
370
-1
 48
1.0
  6
BYLAYER
 10
52.0
 20
4607.0
 30
0.0
 11
12.0000000000002558
 21
4607.0
 31
0.0
  0
LINE
  5
22D
100
AcDbEntity
100
AcDbLine
  8
Bois
 62
256
370
-1
 48
1.0
  6
BYLAYER
 10
52.0
 20
4647.0
 30
0.0
 11
12.0000000000002558
 21
4647.0
 31
0.0
  0
LINE
  5
22E
100
AcDbEntity
100
AcDbLine
  8
Bois
 62
256
370
-1
 48
1.0
  6
BYLAYER
 10
52.0000000000000639
 20
4647.0
 30
0.0
 11
52.0000000000000639
 21
4607.0
 31
0.0
  0
RAY
  5
22F
100
AcDbEntity
100
AcDbLine
  8
Bois
 62
256
370
-1
 48
1.0
  6
BYLAYER
 10
52.0000000000000639
 20
7052.0000000006602932
 30
0.0
 11
0.0
 21
1.0
 31
0.0
  0
LINE
  5
230
100
AcDbEntity
100
AcDbLine
  8
Bois
 62
256
370
-1
 48
1.0
  6
BYLAYER
 10
52.0000000000000568
 20
4303.0
 30
0.0
 11
52.0000000000000568
 21
4243.0
 31
0.0
  0
LINE
  5
231
100
AcDbEntity
100
AcDbLine
  8
Bois
 62
256
370
-1
 48
1.0
  6
BYLAYER
 10
322.0
 20
5059.0
 30
0.0
 11
322.0
 21
5119.0
 31
0.0
  0
LINE
  5
232
100
AcDbEntity
100
AcDbLine
  8
Bois
 62
256
370
-1
 48
1.0
  6
BYLAYER
 10
12.0000000000002558
 20
4607.0
 30
0.0
 11
12.0000000000002558
 21
4647.0
 31
0.0
  0
LINE
  5
233
100
AcDbEntity
100
AcDbLine
  8
Bois
 62
256
370
-1
 48
1.0
  6
BYLAYER
 10
52.0
 20
4607.0
 30
0.0
 11
12.0000000000002558
 21
4647.0
 31
0.0
  0
LINE
  5
234
100
AcDbEntity
100
AcDbLine
  8
Bois
 62
256
370
-1
 48
1.0
  6
BYLAYER
 10
52.0000000000000639
 20
4647.0
 30
0.0
 11
12.0000000000002558
 21
4607.0
 31
0.0
  0
LINE
  5
235
100
AcDbEntity
100
AcDbLine
  8
Bois
 62
256
370
-1
 48
1.0
  6
BYLAYER
 10
12.0000000000002842
 20
5059.0
 30
0.0
 11
12.0000000000002842
 21
5119.0
 31
0.0
  0
LINE
  5
236
100
AcDbEntity
100
AcDbLine
  8
Bois
 62
256
370
-1
 48
1.0
  6
BYLAYER
 10
12.0000000000002274
 20
4243.0
 30
0.0
 11
12.0000000000002274
 21
4303.0
 31
0.0
  0
LINE
  5
237
100
AcDbEntity
100
AcDbLine
  8
Bois
 62
256
370
-1
 48
1.0
  6
BYLAYER
 10
12.0000000000002274
 20
4303.0
 30
0.0
 11
52.0000000000000568
 21
4243.0
 31
0.0
  0
LINE
  5
238
100
AcDbEntity
100
AcDbLine
  8
Bois
 62
256
370
-1
 48
1.0
  6
BYLAYER
 10
52.0000000000000568
 20
4303.0
 30
0.0
 11
12.0000000000002274
 21
4243.0
 31
0.0
  0
LINE
  5
239
100
AcDbEntity
100
AcDbLine
  8
Bois
 62
256
370
-1
 48
1.0
  6
BYLAYER
 10
52.0000000000000568
 20
4303.0
 30
0.0
 11
52.0000000000000639
 21
4607.0
 31
0.0
  0
LINE
  5
23A
100
AcDbEntity
100
AcDbLine
  8
Bois
 62
256
370
-1
 48
1.0
  6
BYLAYER
 10
12.0000000000002274
 20
4303.0
 30
0.0
 11
12.0000000000002558
 21
4607.0
 31
0.0
  0
LINE
  5
23B
100
AcDbEntity
100
AcDbLine
  8
Bois
 62
256
370
-1
 48
1.0
  6
BYLAYER
 10
52.0000000000000639
 20
4647.0
 30
0.0
 11
52.0000000000000639
 21
5059.0
 31
0.0
  0
LINE
  5
23C
100
AcDbEntity
100
AcDbLine
  8
Bois
 62
256
370
-1
 48
1.0
  6
BYLAYER
 10
12.0000000000002842
 20
5059.0
 30
0.0
 11
12.0000000000002558
 21
4647.0
 31
0.0
  0
LINE
  5
23D
100
AcDbEntity
100
AcDbLine
  8
OSB18
 62
256
370
-1
 48
1.0
  6
BYLAYER
 10
12.0
 20
4243.0
 30
0.0
 11
322.0
 21
4243.0
 31
0.0
  0
LINE
  5
23E
100
AcDbEntity
100
AcDbLine
  8
OSB18
 62
256
370
-1
 48
1.0
  6
BYLAYER
 10
12.0
 20
4225.0
 30
0.0
 11
682.0
 21
4225.0
 31
0.0
  0
LINE
  5
23F
100
AcDbEntity
100
AcDbLine
  8
OSB18
 62
256
370
-1
 48
1.0
  6
BYLAYER
 10
322.0
 20
4243.0
 30
0.0
 11
322.0
 21
4225.0
 31
0.0
  0
LINE
  5
240
100
AcDbEntity
100
AcDbLine
  8
OSB18
 62
256
370
-1
 48
1.0
  6
BYLAYER
 10
12.0000000000000462
 20
4243.0
 30
0.0
 11
12.0000000000000462
 21
4225.0
 31
0.0
  0
LINE
  5
241
100
AcDbEntity
100
AcDbLine
  8
tablette
 62
256
370
-1
 48
1.0
  6
BYLAYER
 10
12.0
 20
4674.0
 30
0.0
 11
322.0
 21
4674.0
 31
0.0
  0
LINE
  5
242
100
AcDbEntity
100
AcDbLine
  8
tablette
 62
256
370
-1
 48
1.0
  6
BYLAYER
 10
12.0
 20
4647.0
 30
0.0
 11
322.0
 21
4647.0
 31
0.0
  0
LINE
  5
243
100
AcDbEntity
100
AcDbLine
  8
tablette
 62
256
370
-1
 48
1.0
  6
BYLAYER
 10
12.0
 20
4220.0
 30
0.0
 11
800.0
 21
4220.0
 31
0.0
  0
LINE
  5
244
100
AcDbEntity
100
AcDbLine
  8
tablette
 62
256
370
-1
 48
1.0
  6
BYLAYER
 10
52.0000000000000568
 20
4247.0
 30
0.0
 11
800.0
 21
4247.0
 31
0.0
  0
LINE
  5
245
100
AcDbEntity
100
AcDbLine
  8
tablette
 62
256
370
-1
 48
1.0
  6
BYLAYER
 10
322.0
 20
4647.0
 30
0.0
 11
322.0
 21
4674.0
 31
0.0
  0
LINE
  5
246
100
AcDbEntity
100
AcDbLine
  8
tablette
 62
256
370
-1
 48
1.0
  6
BYLAYER
 10
12.0000000000002558
 20
4647.0
 30
0.0
 11
12.0
 21
4674.0
 31
0.0
  0
LINE
  5
247
100
AcDbEntity
100
AcDbLine
  8
tablette
 62
256
370
-1
 48
1.0
  6
BYLAYER
 10
52.0000000000000568
 20
4247.0
 30
0.0
 11
52.0000000000000568
 21
4243.0
 31
0.0
  0
LINE
  5
248
100
AcDbEntity
100
AcDbLine
  8
tablette
 62
256
370
-1
 48
1.0
  6
BYLAYER
 10
52.0000000000000568
 20
4243.0
 30
0.0
 11
12.0000000000002274
 21
4243.0
 31
0.0
  0
LINE
  5
249
100
AcDbEntity
100
AcDbLine
  8
tablette
 62
256
370
-1
 48
1.0
  6
BYLAYER
 10
12.0000000000002274
 20
4243.0
 30
0.0
 11
12.0000000000002274
 21
4220.0
 31
0.0
  0
LINE
  5
24A
100
AcDbEntity
100
AcDbLine
  8
Bois
 62
256
370
-1
 48
1.0
  6
BYLAYER
 10
52.0000000000000639
 20
5059.0
 30
0.0
 11
52.0000000000000639
 21
5119.0
 31
0.0
  0
LINE
  5
24B
100
AcDbEntity
100
AcDbLine
  8
Bois
 62
256
370
-1
 48
1.0
  6
BYLAYER
 10
12.0000000000002842
 20
5059.0
 30
0.0
 11
52.0000000000000639
 21
5119.0
 31
0.0
  0
LINE
  5
24C
100
AcDbEntity
100
AcDbLine
  8
Bois
 62
256
370
-1
 48
1.0
  6
BYLAYER
 10
12.0000000000002842
 20
5119.0
 30
0.0
 11
52.0000000000000639
 21
5059.0
 31
0.0
  0
LINE
  5
24D
100
AcDbEntity
100
AcDbLine
  8
Bois
 62
256
370
-1
 48
1.0
  6
BYLAYER
 10
282.0
 20
5059.0
 30
0.0
 11
282.0
 21
5119.0
 31
0.0
  0
LINE
  5
24E
100
AcDbEntity
100
AcDbLine
  8
Bois
 62
256
370
-1
 48
1.0
  6
BYLAYER
 10
322.0
 20
5119.0
 30
0.0
 11
282.0
 21
5059.0
 31
0.0
  0
LINE
  5
24F
100
AcDbEntity
100
AcDbLine
  8
Bois
 62
256
370
-1
 48
1.0
  6
BYLAYER
 10
282.0
 20
5119.0
 30
0.0
 11
322.0
 21
5059.0
 31
0.0
  0
LINE
  5
250
100
AcDbEntity
100
AcDbLine
  8
Bois
 62
256
370
-1
 48
1.0
  6
BYLAYER
 10
-6947.9999999983920134
 20
5550.0
 30
0.0
 11
-6947.9999999983920134
 21
5590.0
 31
0.0
  0
LINE
  5
251
100
AcDbEntity
100
AcDbLine
  8
Bois
 62
256
370
-1
 48
1.0
  6
BYLAYER
 10
-6987.9999999983920134
 20
5550.0
 30
0.0
 11
-5311.9999999989386197
 21
5550.0
 31
0.0
  0
LINE
  5
252
100
AcDbEntity
100
AcDbLine
  8
Bois
 62
256
370
-1
 48
1.0
  6
BYLAYER
 10
-5351.9999999989386197
 20
5590.0
 30
0.0
 11
-5351.9999999989386197
 21
5550.0
 31
0.0
  0
LINE
  5
253
100
AcDbEntity
100
AcDbLine
  8
Bois
 62
256
370
-1
 48
1.0
  6
BYLAYER
 10
-6947.9999999983920134
 20
5550.0
 30
0.0
 11
-6987.9999999983920134
 21
5590.0
 31
0.0
  0
LINE
  5
254
100
AcDbEntity
100
AcDbLine
  8
Bois
 62
256
370
-1
 48
1.0
  6
BYLAYER
 10
-6947.9999999983920134
 20
5590.0
 30
0.0
 11
-6987.9999999983920134
 21
5550.0
 31
0.0
  0
LINE
  5
255
100
AcDbEntity
100
AcDbLine
  8
Bois
 62
256
370
-1
 48
1.0
  6
BYLAYER
 10
-5311.9999999989386197
 20
5550.0
 30
0.0
 11
-5351.9999999989386197
 21
5590.0
 31
0.0
  0
LINE
  5
256
100
AcDbEntity
100
AcDbLine
  8
Bois
 62
256
370
-1
 48
1.0
  6
BYLAYER
 10
-5311.9999999989386197
 20
5590.0
 30
0.0
 11
-5351.9999999989386197
 21
5550.0
 31
0.0
  0
LINE
  5
257
100
AcDbEntity
100
AcDbLine
  8
Bois
 62
256
370
-1
 48
1.0
  6
BYLAYER
 10
-6987.9999999983920134
 20
5590.0
 30
0.0
 11
-5311.9999999989386197
 21
5590.0
 31
0.0
  0
LINE
  5
258
100
AcDbEntity
100
AcDbLine
  8
OSB12
 62
256
370
-1
 48
1.0
  6
BYLAYER
 10
-5311.9999999989386197
 20
5590.0
 30
0.0
 11
-5311.9999999989386197
 21
5059.0
 31
0.0
  0
LINE
  5
259
100
AcDbEntity
100
AcDbLine
  8
Bois
 62
256
370
-1
 48
1.0
  6
BYLAYER
 10
-5351.9999999989386197
 20
5119.0
 30
0.0
 11
-5351.9999999989386197
 21
5550.0
 31
0.0
  0
LINE
  5
25A
100
AcDbEntity
100
AcDbLine
  8
Bois
 62
256
370
-1
 48
1.0
  6
BYLAYER
 10
-5311.9999999989386197
 20
5550.0
 30
0.0
 11
-5311.9999999989386197
 21
5119.0
 31
0.0
  0
LINE
  5
25B
100
AcDbEntity
100
AcDbLine
  8
Bois
 62
256
370
-1
 48
1.0
  6
BYLAYER
 10
-5782.9999999983920134
 20
5119.0
 30
0.0
 11
-5782.9999999983920134
 21
5550.0
 31
0.0
  0
LINE
  5
25C
100
AcDbEntity
100
AcDbLine
  8
Bois
 62
256
370
-1
 48
1.0
  6
BYLAYER
 10
-5822.9999999983920134
 20
5119.0
 30
0.0
 11
-5822.9999999983920134
 21
5550.0
 31
0.0
  0
LINE
  5
25D
100
AcDbEntity
100
AcDbLine
  8
Bois
 62
256
370
-1
 48
1.0
  6
BYLAYER
 10
-6364.4999999983920134
 20
5119.0
 30
0.0
 11
-6364.4999999983920134
 21
5550.0
 31
0.0
  0
LINE
  5
25E
100
AcDbEntity
100
AcDbLine
  8
Bois
 62
256
370
-1
 48
1.0
  6
BYLAYER
 10
-6404.4999999983920134
 20
5119.0
 30
0.0
 11
-6404.4999999983920134
 21
5550.0
 31
0.0
  0
LINE
  5
25F
100
AcDbEntity
100
AcDbLine
  8
Bois
 62
256
370
-1
 48
1.0
  6
BYLAYER
 10
-6947.9999999983920134
 20
5119.0
 30
0.0
 11
-6947.9999999983920134
 21
5550.0
 31
0.0
  0
LINE
  5
260
100
AcDbEntity
100
AcDbLine
  8
Bois
 62
256
370
-1
 48
1.0
  6
BYLAYER
 10
-6987.9999999983920134
 20
5550.0
 30
0.0
 11
-6987.9999999983920134
 21
5119.0
 31
0.0
  0
LINE
  5
261
100
AcDbEntity
100
AcDbLine
  8
OSB12
 62
256
370
-1
 48
1.0
  6
BYLAYER
 10
-5782.9999999983920134
 20
5119.0
 30
0.0
 11
-5770.9999999983920134
 21
5119.0
 31
0.0
  0
LINE
  5
262
100
AcDbEntity
100
AcDbLine
  8
OSB12
 62
256
370
-1
 48
1.0
  6
BYLAYER
 10
-5770.9999999983920134
 20
5119.0
 30
0.0
 11
-5782.9999999983920134
 21
5119.0
 31
0.0
  0
LINE
  5
263
100
AcDbEntity
100
AcDbLine
  8
OSB12
 62
256
370
-1
 48
1.0
  6
BYLAYER
 10
-6987.9999999983920134
 20
5538.0
 30
0.0
 11
-5311.9999999989386197
 21
5538.0
 31
0.0
  0
LINE
  5
264
100
AcDbEntity
100
AcDbLine
  8
OSB12
 62
256
370
-1
 48
1.0
  6
BYLAYER
 10
-6987.9999999983920134
 20
5550.0
 30
0.0
 11
-5311.9999999989386197
 21
5550.0
 31
0.0
  0
LINE
  5
265
100
AcDbEntity
100
AcDbLine
  8
OSB12
 62
256
370
-1
 48
1.0
  6
BYLAYER
 10
-6987.9999999983920134
 20
5538.0
 30
0.0
 11
-6987.9999999983920134
 21
5550.0
 31
0.0
  0
LINE
  5
266
100
AcDbEntity
100
AcDbLine
  8
OSB12
 62
256
370
-1
 48
1.0
  6
BYLAYER
 10
-5311.9999999989386197
 20
5538.0
 30
0.0
 11
-5311.9999999989386197
 21
5550.0
 31
0.0
  0
LINE
  5
267
100
AcDbEntity
100
AcDbLine
  8
OSB12
 62
256
370
-1
 48
1.0
  6
BYLAYER
 10
322.0
 20
5059.0
 30
0.0
 11
12.0000000000002842
 21
5059.0
 31
0.0
  0
LINE
  5
268
100
AcDbEntity
100
AcDbLine
  8
OSB12
 62
256
370
-1
 48
1.0
  6
BYLAYER
 10
12.0000000000002842
 20
5059.0
 30
0.0
 11
12.000000000000318
 21
5590.0
 31
0.0
  0
LINE
  5
269
100
AcDbEntity
100
AcDbLine
  8
OSB12
 62
256
370
-1
 48
1.0
  6
BYLAYER
 10
12.000000000000318
 20
5590.0
 30
0.0
 11
322.0
 21
5590.0
 31
0.0
  0
LINE
  5
26A
100
AcDbEntity
100
AcDbLine
  8
OSB12
 62
256
370
-1
 48
1.0
  6
BYLAYER
 10
322.0
 20
5590.0
 30
0.0
 11
322.0
 21
5059.0
 31
0.0
  0
LINE
  5
26B
100
AcDbEntity
100
AcDbLine
  8
OSB12
 62
256
370
-1
 48
1.0
  6
BYLAYER
 10
322.0
 20
5047.0
 30
0.0
 11
12.0000000000002824
 21
5047.0
 31
0.0
  0
LINE
  5
26C
100
AcDbEntity
100
AcDbLine
  8
OSB12
 62
256
370
-1
 48
1.0
  6
BYLAYER
 10
12.0000000000002824
 20
5047.0
 30
0.0
 11
12.0000000000002842
 21
5059.0
 31
0.0
  0
LINE
  5
26D
100
AcDbEntity
100
AcDbLine
  8
OSB12
 62
256
370
-1
 48
1.0
  6
BYLAYER
 10
322.0
 20
5047.0
 30
0.0
 11
322.0
 21
5059.0
 31
0.0
  0
LINE
  5
26E
100
AcDbEntity
100
AcDbLine
  8
OSB12
 62
256
370
-1
 48
1.0
  6
BYLAYER
 10
322.0
 20
4243.0
 30
0.0
 11
322.0
 21
5047.0
 31
0.0
  0
LINE
  5
26F
100
AcDbEntity
100
AcDbLine
  8
OSB12
 62
256
370
-1
 48
1.0
  6
BYLAYER
 10
322.0
 20
5047.0
 30
0.0
 11
12.0000000000002824
 21
5047.0
 31
0.0
  0
LINE
  5
270
100
AcDbEntity
100
AcDbLine
  8
OSB12
 62
256
370
-1
 48
1.0
  6
BYLAYER
 10
12.0000000000002824
 20
5047.0
 30
0.0
 11
12.0000000000002274
 21
4243.0
 31
0.0
  0
LINE
  5
271
100
AcDbEntity
100
AcDbLine
  8
OSB12
 62
256
370
-1
 48
1.0
  6
BYLAYER
 10
12.0000000000002274
 20
4243.0
 30
0.0
 11
322.0
 21
4243.0
 31
0.0
  0
LINE
  5
272
100
AcDbEntity
100
AcDbLine
  8
Bois
 62
256
370
-1
 48
1.0
  6
BYLAYER
 10
12.0
 20
5590.0
 30
0.0
 11
322.0
 21
5590.0
 31
0.0
  0
LINE
  5
273
100
AcDbEntity
100
AcDbLine
  8
Bois
 62
256
370
-1
 48
1.0
  6
BYLAYER
 10
12.0
 20
5550.0
 30
0.0
 11
322.0
 21
5550.0
 31
0.0
  0
LINE
  5
274
100
AcDbEntity
100
AcDbLine
  8
Bois
 62
256
370
-1
 48
1.0
  6
BYLAYER
 10
52.0000000000003197
 20
5550.0
 30
0.0
 11
52.0000000000003197
 21
5590.0
 31
0.0
  0
LINE
  5
275
100
AcDbEntity
100
AcDbLine
  8
Bois
 62
256
370
-1
 48
1.0
  6
BYLAYER
 10
282.0
 20
5590.0
 30
0.0
 11
282.0
 21
5550.0
 31
0.0
  0
LINE
  5
276
100
AcDbEntity
100
AcDbLine
  8
Bois
 62
256
370
-1
 48
1.0
  6
BYLAYER
 10
52.0000000000003197
 20
5550.0
 30
0.0
 11
12.000000000000318
 21
5590.0
 31
0.0
  0
LINE
  5
277
100
AcDbEntity
100
AcDbLine
  8
Bois
 62
256
370
-1
 48
1.0
  6
BYLAYER
 10
52.0000000000003197
 20
5590.0
 30
0.0
 11
12.0
 21
5550.0
 31
0.0
  0
LINE
  5
278
100
AcDbEntity
100
AcDbLine
  8
Bois
 62
256
370
-1
 48
1.0
  6
BYLAYER
 10
12.0
 20
5550.0
 30
0.0
 11
12.0000000000003126
 21
5590.0
 31
0.0
  0
LINE
  5
279
100
AcDbEntity
100
AcDbLine
  8
Bois
 62
256
370
-1
 48
1.0
  6
BYLAYER
 10
282.0
 20
5590.0
 30
0.0
 11
322.0
 21
5550.0
 31
0.0
  0
LINE
  5
27A
100
AcDbEntity
100
AcDbLine
  8
Bois
 62
256
370
-1
 48
1.0
  6
BYLAYER
 10
282.0
 20
5550.0
 30
0.0
 11
322.0
 21
5590.0
 31
0.0
  0
LINE
  5
27B
100
AcDbEntity
100
AcDbLine
  8
Bois
 62
256
370
-1
 48
1.0
  6
BYLAYER
 10
322.0
 20
5590.0
 30
0.0
 11
322.0
 21
5550.0
 31
0.0
  0
LINE
  5
27C
100
AcDbEntity
100
AcDbLine
  8
OSB12
 62
256
370
-1
 48
1.0
  6
BYLAYER
 10
12.0
 20
5538.0
 30
0.0
 11
322.0
 21
5538.0
 31
0.0
  0
LINE
  5
27D
100
AcDbEntity
100
AcDbLine
  8
OSB12
 62
256
370
-1
 48
1.0
  6
BYLAYER
 10
12.0
 20
5550.0
 30
0.0
 11
322.0
 21
5550.0
 31
0.0
  0
LINE
  5
27E
100
AcDbEntity
100
AcDbLine
  8
Bois
 62
256
370
-1
 48
1.0
  6
BYLAYER
 10
282.0
 20
5119.0
 30
0.0
 11
282.0
 21
5550.0
 31
0.0
  0
LINE
  5
27F
100
AcDbEntity
100
AcDbLine
  8
Bois
 62
256
370
-1
 48
1.0
  6
BYLAYER
 10
322.0
 20
5550.0
 30
0.0
 11
322.0
 21
5119.0
 31
0.0
  0
LINE
  5
280
100
AcDbEntity
100
AcDbLine
  8
Bois
 62
256
370
-1
 48
1.0
  6
BYLAYER
 10
52.0000000000000639
 20
5119.0
 30
0.0
 11
52.0000000000003197
 21
5550.0
 31
0.0
  0
LINE
  5
281
100
AcDbEntity
100
AcDbLine
  8
Bois
 62
256
370
-1
 48
1.0
  6
BYLAYER
 10
12.0
 20
5550.0
 30
0.0
 11
12.0000000000002842
 21
5119.0
 31
0.0
  0
LINE
  5
282
100
AcDbEntity
100
AcDbLine
  8
OSB18
 62
256
370
-1
 48
1.0
  6
BYLAYER
 10
30.0000000000002132
 20
3933.0
 30
0.0
 11
30.0000000000002309
 21
4225.0
 31
0.0
  0
LINE
  5
283
100
AcDbEntity
100
AcDbLine
  8
OSB18
 62
256
370
-1
 48
1.0
  6
BYLAYER
 10
682.0
 20
4225.0
 30
0.0
 11
682.0
 21
3933.0
 31
0.0
  0
LINE
  5
284
100
AcDbEntity
100
AcDbLine
  8
OSB18
 62
256
370
-1
 48
1.0
  6
BYLAYER
 10
30.0000000000002132
 20
3933.0
 30
0.0
 11
682.0
 21
3933.0
 31
0.0
  0
LINE
  5
285
100
AcDbEntity
100
AcDbLine
  8
OSB12
 62
256
370
-1
 48
1.0
  6
BYLAYER
 10
52.0
 20
0.0
 30
0.0
 11
642.0
 21
0.0
 31
0.0
  0
LINE
  5
286
100
AcDbEntity
100
AcDbLine
  8
OSB12
 62
256
370
-1
 48
1.0
  6
BYLAYER
 10
682.0
 20
0.0
 30
0.0
 11
682.0
 21
12.0
 31
0.0
  0
LINE
  5
287
100
AcDbEntity
100
AcDbLine
  8
OSB12
 62
256
370
-1
 48
1.0
  6
BYLAYER
 10
682.0
 20
12.0
 30
0.0
 11
322.0
 21
12.0
 31
0.0
  0
LINE
  5
288
100
AcDbEntity
100
AcDbLine
  8
6x4 existant
 62
256
370
-1
 48
1.0
  6
BYLAYER
 10
642.0
 20
-28.0
 30
0.0
 11
682.0
 21
-28.0
 31
0.0
  0
LINE
  5
289
100
AcDbEntity
100
AcDbLine
  8
6x4 existant
 62
256
370
-1
 48
1.0
  6
BYLAYER
 10
642.0
 20
12.0
 30
0.0
 11
642.0
 21
-28.0
 31
0.0
  0
LINE
  5
28A
100
AcDbEntity
100
AcDbLine
  8
6x4 existant
 62
256
370
-1
 48
1.0
  6
BYLAYER
 10
642.0
 20
-28.0
 30
0.0
 11
682.0
 21
12.0000000000000053
 31
0.0
  0
LINE
  5
28B
100
AcDbEntity
100
AcDbLine
  8
6x4 existant
 62
256
370
-1
 48
1.0
  6
BYLAYER
 10
682.0
 20
12.0000000000000053
 30
0.0
 11
642.0
 21
12.0000000000000053
 31
0.0
  0
LINE
  5
28C
100
AcDbEntity
100
AcDbLine
  8
6x4 existant
 62
256
370
-1
 48
1.0
  6
BYLAYER
 10
642.0
 20
12.0000000000000053
 30
0.0
 11
682.0
 21
-28.0
 31
0.0
  0
LINE
  5
28D
100
AcDbEntity
100
AcDbLine
  8
6x4 existant
 62
256
370
-1
 48
1.0
  6
BYLAYER
 10
682.0
 20
-28.0
 30
0.0
 11
682.0
 21
12.0
 31
0.0
  0
LINE
  5
28E
100
AcDbEntity
100
AcDbLine
  8
Tadelakt
 62
256
370
-1
 48
1.0
  6
BYLAYER
 10
674.0
 20
41.0
 30
0.0
 11
674.0
 21
12.0000000000000018
 31
0.0
  0
LINE
  5
28F
100
AcDbEntity
100
AcDbLine
  8
Tadelakt
 62
256
370
-1
 48
1.0
  6
BYLAYER
 10
677.0
 20
44.0
 30
0.0
 11
677.0
 21
12.0000000000000018
 31
0.0
  0
LINE
  5
290
100
AcDbEntity
100
AcDbLine
  8
Gobetis
 62
256
370
-1
 48
1.0
  6
BYLAYER
 10
666.0
 20
43.0
 30
0.0
 11
666.0
 21
12.0000000000000036
 31
0.0
  0
LINE
  5
291
100
AcDbEntity
100
AcDbLine
  8
Gobetis
 62
256
370
-1
 48
1.0
  6
BYLAYER
 10
674.0
 20
41.0
 30
0.0
 11
674.0
 21
12.0000000000000018
 31
0.0
  0
LINE
  5
292
100
AcDbEntity
100
AcDbLine
  8
Fermacell
 62
256
370
-1
 48
1.0
  6
BYLAYER
 10
653.0
 20
30.0
 30
0.0
 11
653.0
 21
12.0000000000000053
 31
0.0
  0
LINE
  5
293
100
AcDbEntity
100
AcDbLine
  8
Fermacell
 62
256
370
-1
 48
1.0
  6
BYLAYER
 10
666.0
 20
29.9999999999999964
 30
0.0
 11
666.0
 21
12.0000000000000018
 31
0.0
  0
LINE
  5
294
100
AcDbEntity
100
AcDbLine
  8
Fermacell
 62
256
370
-1
 48
1.0
  6
BYLAYER
 10
666.0
 20
29.9999999999999964
 30
0.0
 11
666.0
 21
43.0
 31
0.0
  0
ARC
  5
295
100
AcDbEntity
  8
Tadelakt
 62
256
370
-1
 48
1.0
  6
BYLAYER
100
AcDbCircle
 10
667.0
 20
44.0
 30
0.0
 40
10.0
100
AcDbArc
 50
0.0
 51
90.0
  0
ARC
  5
296
100
AcDbEntity
  8
Tadelakt
 62
256
370
-1
 48
1.0
  6
BYLAYER
100
AcDbCircle
 10
664.0
 20
41.0
 30
0.0
 40
10.0
100
AcDbArc
 50
0.0
 51
90.0
  0
ARC
  5
297
100
AcDbEntity
  8
Gobetis
 62
256
370
-1
 48
1.0
  6
BYLAYER
100
AcDbCircle
 10
664.0
 20
41.0
 30
0.0
 40
10.0
100
AcDbArc
 50
0.0
 51
90.0
  0
LINE
  5
298
100
AcDbEntity
100
AcDbLine
  8
Voliges
 62
256
370
-1
 48
1.0
  6
BYLAYER
 10
322.0
 20
59.0
 30
0.0
 11
672.0
 21
59.0
 31
0.0
  0
LINE
  5
299
100
AcDbEntity
100
AcDbLine
  8
Voliges
 62
256
370
-1
 48
1.0
  6
BYLAYER
 10
322.0
 20
43.0
 30
0.0
 11
666.0
 21
43.0
 31
0.0
  0
LINE
  5
29A
100
AcDbEntity
100
AcDbLine
  8
Voliges
 62
256
370
-1
 48
1.0
  6
BYLAYER
 10
682.0
 20
49.0
 30
0.0
 11
682.0
 21
12.0
 31
0.0
  0
ARC
  5
29B
100
AcDbEntity
  8
Voliges
 62
256
370
-1
 48
1.0
  6
BYLAYER
100
AcDbCircle
 10
672.0
 20
49.0
 30
0.0
 40
10.0
100
AcDbArc
 50
0.0
 51
90.0
  0
LINE
  5
29C
100
AcDbEntity
100
AcDbLine
  8
Voliges
 62
256
370
-1
 48
1.0
  6
BYLAYER
 10
666.0
 20
43.0
 30
0.0
 11
666.0
 21
59.0
 31
0.0
  0
LINE
  5
29D
100
AcDbEntity
100
AcDbLine
  8
Voliges
 62
256
370
-1
 48
1.0
  6
BYLAYER
 10
322.0
 20
59.0
 30
0.0
 11
322.0
 21
43.0
 31
0.0
  0
LINE
  5
29E
100
AcDbEntity
100
AcDbLine
  8
Hetre
 62
256
370
-1
 48
1.0
  6
BYLAYER
 10
622.0000000000001137
 20
1655.0
 30
0.0
 11
682.0
 21
1655.0
 31
0.0
  0
LINE
  5
29F
100
AcDbEntity
100
AcDbLine
  8
Hetre
 62
256
370
-1
 48
1.0
  6
BYLAYER
 10
622.0
 20
1678.0
 30
0.0
 11
622.0
 21
1655.0
 31
0.0
  0
LINE
  5
2A0
100
AcDbEntity
100
AcDbLine
  8
Hetre
 62
256
370
-1
 48
1.0
  6
BYLAYER
 10
644.0
 20
1700.0
 30
0.0
 11
682.0
 21
1700.0
 31
0.0
  0
LINE
  5
2A1
100
AcDbEntity
100
AcDbLine
  8
Hetre
 62
256
370
-1
 48
1.0
  6
BYLAYER
 10
682.0
 20
1700.0
 30
0.0
 11
682.0
 21
1655.0
 31
0.0
  0
LINE
  5
2A2
100
AcDbEntity
100
AcDbLine
  8
Hetre
 62
256
370
-1
 48
1.0
  6
BYLAYER
 10
682.0
 20
1655.0
 30
0.0
 11
644.0
 21
1683.5
 31
0.0
  0
LINE
  5
2A3
100
AcDbEntity
100
AcDbLine
  8
Hetre
 62
256
370
-1
 48
1.0
  6
BYLAYER
 10
682.0
 20
1700.0
 30
0.0
 11
622.0
 21
1655.0
 31
0.0
  0
LINE
  5
2A4
100
AcDbEntity
100
AcDbLine
  8
Tadelakt
 62
256
370
-1
 48
1.0
  6
BYLAYER
 10
54.0000000000001137
 20
1660.0
 30
0.0
 11
622.0
 21
1660.0
 31
0.0
  0
LINE
  5
2A5
100
AcDbEntity
100
AcDbLine
  8
Tadelakt
 62
256
370
-1
 48
1.0
  6
BYLAYER
 10
51.0000000000001137
 20
1665.0
 30
0.0
 11
622.0
 21
1665.0
 31
0.0
  0
LINE
  5
2A6
100
AcDbEntity
100
AcDbLine
  8
Fermacell
 62
256
370
-1
 48
1.0
  6
BYLAYER
 10
51.0000000000001137
 20
1678.0
 30
0.0
 11
622.0
 21
1678.0
 31
0.0
  0
LINE
  5
2A7
100
AcDbEntity
100
AcDbLine
  8
Fermacell
 62
256
370
-1
 48
1.0
  6
BYLAYER
 10
51.0000000000001137
 20
1665.0
 30
0.0
 11
622.0
 21
1665.0
 31
0.0
  0
LINE
  5
2A8
100
AcDbEntity
100
AcDbLine
  8
OSB18
 62
256
370
-1
 48
1.0
  6
BYLAYER
 10
51.0000000000001137
 20
1696.0
 30
0.0
 11
644.0
 21
1696.0
 31
0.0
  0
LINE
  5
2A9
100
AcDbEntity
100
AcDbLine
  8
OSB18
 62
256
370
-1
 48
1.0
  6
BYLAYER
 10
51.0000000000001137
 20
1678.0
 30
0.0
 11
644.0
 21
1678.0
 31
0.0
  0
LINE
  5
2AA
100
AcDbEntity
100
AcDbLine
  8
Hetre
 62
256
370
-1
 48
1.0
  6
BYLAYER
 10
644.0
 20
1700.0
 30
0.0
 11
644.0
 21
1678.0
 31
0.0
  0
LINE
  5
2AB
100
AcDbEntity
100
AcDbLine
  8
Hetre
 62
256
370
-1
 48
1.0
  6
BYLAYER
 10
622.0
 20
1678.0
 30
0.0
 11
644.0
 21
1678.0
 31
0.0
  0
LINE
  5
2AC
100
AcDbEntity
100
AcDbLine
  8
Hetre
 62
256
370
-1
 48
1.0
  6
BYLAYER
 10
644.0
 20
1678.0
 30
0.0
 11
644.0
 21
1696.0
 31
0.0
  0
ENDSEC
  0
SECTION
  2
OBJECTS
  0
DICTIONARY
  5
C
100
AcDbDictionary
280
0
281
1
  3
ACAD_GROUP
350
D
  3
ACAD_LAYOUT
350
1A
  3
ACAD_MLINESTYLE
350
17
  3
ACAD_PLOTSETTINGS
350
19
  3
ACAD_PLOTSTYLENAME
350
E
  3
AcDbVariableDictionary
350
2AD
  3
QCAD_OBJECTS
350
2AE
  0
DICTIONARY
  5
D
100
AcDbDictionary
280
0
281
1
  0
ACDBDICTIONARYWDFLT
  5
E
100
AcDbDictionary
281
1
  3
Normal
350
F
100
AcDbDictionaryWithDefault
340
F
  0
ACDBPLACEHOLDER
  5
F
  0
DICTIONARY
  5
17
100
AcDbDictionary
280
0
281
1
  3
Standard
350
18
  0
MLINESTYLE
  5
18
100
AcDbMlineStyle
  2
STANDARD
 70
0
  3

 62
256
 51
90.0
 52
90.0
 71
2
 49
0.5
 62
256
  6
BYLAYER
 49
-0.5
 62
256
  6
BYLAYER
  0
DICTIONARY
  5
19
100
AcDbDictionary
280
0
281
1
  0
DICTIONARY
  5
1A
100
AcDbDictionary
281
1
  3
Layout1
350
1E
  3
Layout2
350
26
  3
Model
350
22
  0
LAYOUT
  5
1E
100
AcDbPlotSettings
  1

  2
none_device
  4

  6

 40
0.0
 41
0.0
 42
0.0
 43
0.0
 44
0.0
 45
0.0
 46
0.0
 47
0.0
 48
0.0
 49
0.0
140
0.0
141
0.0
142
1.0
143
1.0
 70
688
 72
0
 73
0
 74
5
  7

 75
16
147
1.0
148
0.0
149
0.0
100
AcDbLayout
  1
Layout1
 70
1
 71
1
 10
0.0
 20
0.0
 11
420.0
 21
297.0
 12
0.0
 22
0.0
 32
0.0
 14
100000000000000000000.0
 24
100000000000000000000.0
 34
100000000000000000000.0
 15
-100000000000000000000.0
 25
-100000000000000000000.0
 35
-100000000000000000000.0
146
0.0
 13
0.0
 23
0.0
 33
0.0
 16
1.0
 26
0.0
 36
0.0
 17
0.0
 27
1.0
 37
0.0
 76
0
330
1B
  0
LAYOUT
  5
22
100
AcDbPlotSettings
  1

  2
none_device
  4

  6

 40
0.0
 41
0.0
 42
0.0
 43
0.0
 44
0.0
 45
0.0
 46
0.0
 47
0.0
 48
0.0
 49
0.0
140
0.0
141
0.0
142
1.0
143
1.0
 70
1712
 72
0
 73
0
 74
0
  7

 75
0
147
1.0
148
0.0
149
0.0
100
AcDbLayout
  1
Model
 70
1
 71
0
 10
0.0
 20
0.0
 11
12.0
 21
9.0
 12
0.0
 22
0.0
 32
0.0
 14
0.0
 24
0.0
 34
0.0
 15
0.0
 25
0.0
 35
0.0
146
0.0
 13
0.0
 23
0.0
 33
0.0
 16
1.0
 26
0.0
 36
0.0
 17
0.0
 27
1.0
 37
0.0
 76
0
330
1F
  0
LAYOUT
  5
26
100
AcDbPlotSettings
  1

  2
none_device
  4

  6

 40
0.0
 41
0.0
 42
0.0
 43
0.0
 44
0.0
 45
0.0
 46
0.0
 47
0.0
 48
0.0
 49
0.0
140
0.0
141
0.0
142
1.0
143
1.0
 70
688
 72
0
 73
0
 74
5
  7

 75
16
147
1.0
148
0.0
149
0.0
100
AcDbLayout
  1
Layout2
 70
1
 71
2
 10
0.0
 20
0.0
 11
12.0
 21
9.0
 12
0.0
 22
0.0
 32
0.0
 14
0.0
 24
0.0
 34
0.0
 15
0.0
 25
0.0
 35
0.0
146
0.0
 13
0.0
 23
0.0
 33
0.0
 16
1.0
 26
0.0
 36
0.0
 17
0.0
 27
1.0
 37
0.0
 76
0
330
23
  0
DICTIONARY
  5
2AD
100
AcDbDictionary
281
1
  3
DIMASSOC
350
2B0
  3
HIDETEXT
350
2AF
  0
DICTIONARYVAR
  5
2AF
100
DictionaryVariables
280
0
  1
2
  0
DICTIONARYVAR
  5
2B0
100
DictionaryVariables
280
0
  1
1
  0
DICTIONARY
  5
2AE
100
AcDbDictionary
281
1
  3
ColorSettings/BackgroundColor
350
2B1
  3
ColorSettings/ColorMode
350
2B2
  3
Grid/DisplayGrid00
350
2B3
  3
Grid/DisplayGrid01
350
2B4
  3
Grid/DisplayGrid02
350
2B5
  3
Grid/DisplayGrid03
350
2B6
  3
Grid/GridSpacingX00
350
2B7
  3
Grid/GridSpacingX01
350
2B8
  3
Grid/GridSpacingX02
350
2B9
  3
Grid/GridSpacingX03
350
2BA
  3
Grid/GridSpacingY00
350
2BB
  3
Grid/GridSpacingY01
350
2BC
  3
Grid/GridSpacingY02
350
2BD
  3
Grid/GridSpacingY03
350
2BE
  3
Grid/IsometricGrid00
350
2BF
  3
Grid/IsometricGrid01
350
2C0
  3
Grid/IsometricGrid02
350
2C1
  3
Grid/IsometricGrid03
350
2C2
  3
Grid/IsometricProjection00
350
2C3
  3
Grid/IsometricProjection01
350
2C4
  3
Grid/IsometricProjection02
350
2C5
  3
Grid/IsometricProjection03
350
2C6
  3
Grid/MetaGridSpacingX00
350
2C7
  3
Grid/MetaGridSpacingX01
350
2C8
  3
Grid/MetaGridSpacingX02
350
2C9
  3
Grid/MetaGridSpacingX03
350
2CA
  3
Grid/MetaGridSpacingY00
350
2CB
  3
Grid/MetaGridSpacingY01
350
2CC
  3
Grid/MetaGridSpacingY02
350
2CD
  3
Grid/MetaGridSpacingY03
350
2CE
  3
MultiPageSettings/Columns
350
2CF
  3
MultiPageSettings/GlueMarginsBottom
350
2D0
  3
MultiPageSettings/GlueMarginsLeft
350
2D1
  3
MultiPageSettings/GlueMarginsRight
350
2D2
  3
MultiPageSettings/GlueMarginsTop
350
2D3
  3
MultiPageSettings/PrintCropMarks
350
2D4
  3
MultiPageSettings/Rows
350
2D5
  3
PageSettings/OffsetX
350
2D6
  3
PageSettings/OffsetY
350
2D7
  3
PageSettings/PageOrientation
350
2D8
  3
PageSettings/PaperHeight
350
2D9
  3
PageSettings/PaperWidth
350
2DA
  3
PageSettings/Scale
350
2DB
  3
PageSettings/ShowPaperBorders
350
2DC
  3
QCADVersion
350
2DD
  3
UnitSettings/PaperUnit
350
2DE
  3
ViewportCenter
350
2DF
  3
ViewportHeight
350
2E0
  3
ViewportWidth
350
2E1
  0
XRECORD
  5
2B1
330
2AE
100
AcDbXrecord
280
1
1000
Blanc
  0
XRECORD
  5
2B2
330
2AE
100
AcDbXrecord
280
1
1000
FullColor
  0
XRECORD
  5
2B3
330
2AE
100
AcDbXrecord
280
1
290
1
  0
XRECORD
  5
2B4
330
2AE
100
AcDbXrecord
280
1
290
1
  0
XRECORD
  5
2B5
330
2AE
100
AcDbXrecord
280
1
290
1
  0
XRECORD
  5
2B6
330
2AE
100
AcDbXrecord
280
1
290
1
  0
XRECORD
  5
2B7
330
2AE
100
AcDbXrecord
280
1
1000
auto
  0
XRECORD
  5
2B8
330
2AE
100
AcDbXrecord
280
1
1000
auto
  0
XRECORD
  5
2B9
330
2AE
100
AcDbXrecord
280
1
1000
auto
  0
XRECORD
  5
2BA
330
2AE
100
AcDbXrecord
280
1
1000
auto
  0
XRECORD
  5
2BB
330
2AE
100
AcDbXrecord
280
1
1000
auto
  0
XRECORD
  5
2BC
330
2AE
100
AcDbXrecord
280
1
1000
auto
  0
XRECORD
  5
2BD
330
2AE
100
AcDbXrecord
280
1
1000
auto
  0
XRECORD
  5
2BE
330
2AE
100
AcDbXrecord
280
1
1000
auto
  0
XRECORD
  5
2BF
330
2AE
100
AcDbXrecord
280
1
290
0
  0
XRECORD
  5
2C0
330
2AE
100
AcDbXrecord
280
1
290
0
  0
XRECORD
  5
2C1
330
2AE
100
AcDbXrecord
280
1
290
0
  0
XRECORD
  5
2C2
330
2AE
100
AcDbXrecord
280
1
290
0
  0
XRECORD
  5
2C3
330
2AE
100
AcDbXrecord
280
1
 90
0
  0
XRECORD
  5
2C4
330
2AE
100
AcDbXrecord
280
1
 90
0
  0
XRECORD
  5
2C5
330
2AE
100
AcDbXrecord
280
1
 90
0
  0
XRECORD
  5
2C6
330
2AE
100
AcDbXrecord
280
1
 90
0
  0
XRECORD
  5
2C7
330
2AE
100
AcDbXrecord
280
1
1000
auto
  0
XRECORD
  5
2C8
330
2AE
100
AcDbXrecord
280
1
1000
auto
  0
XRECORD
  5
2C9
330
2AE
100
AcDbXrecord
280
1
1000
auto
  0
XRECORD
  5
2CA
330
2AE
100
AcDbXrecord
280
1
1000
auto
  0
XRECORD
  5
2CB
330
2AE
100
AcDbXrecord
280
1
1000
auto
  0
XRECORD
  5
2CC
330
2AE
100
AcDbXrecord
280
1
1000
auto
  0
XRECORD
  5
2CD
330
2AE
100
AcDbXrecord
280
1
1000
auto
  0
XRECORD
  5
2CE
330
2AE
100
AcDbXrecord
280
1
1000
auto
  0
XRECORD
  5
2CF
330
2AE
100
AcDbXrecord
280
1
 90
1
  0
XRECORD
  5
2D0
330
2AE
100
AcDbXrecord
280
1
 40
10.0
  0
XRECORD
  5
2D1
330
2AE
100
AcDbXrecord
280
1
 40
10.0
  0
XRECORD
  5
2D2
330
2AE
100
AcDbXrecord
280
1
 40
10.0
  0
XRECORD
  5
2D3
330
2AE
100
AcDbXrecord
280
1
 40
10.0
  0
XRECORD
  5
2D4
330
2AE
100
AcDbXrecord
280
1
290
0
  0
XRECORD
  5
2D5
330
2AE
100
AcDbXrecord
280
1
 90
1
  0
XRECORD
  5
2D6
330
2AE
100
AcDbXrecord
280
1
 40
0.0
  0
XRECORD
  5
2D7
330
2AE
100
AcDbXrecord
280
1
 40
0.0
  0
XRECORD
  5
2D8
330
2AE
100
AcDbXrecord
280
1
1000
Portrait
  0
XRECORD
  5
2D9
330
2AE
100
AcDbXrecord
280
1
 40
297.0
  0
XRECORD
  5
2DA
330
2AE
100
AcDbXrecord
280
1
 40
210.0
  0
XRECORD
  5
2DB
330
2AE
100
AcDbXrecord
280
1
1000
1:1
  0
XRECORD
  5
2DC
330
2AE
100
AcDbXrecord
280
1
290
1
  0
XRECORD
  5
2DD
330
2AE
100
AcDbXrecord
280
1
1000
3.15.2
  0
XRECORD
  5
2DE
330
2AE
100
AcDbXrecord
280
1
 90
4
  0
XRECORD
  5
2E0
330
2AE
100
AcDbXrecord
280
1
 40
108.326794044203325
  0
XRECORD
  5
2E1
330
2AE
100
AcDbXrecord
280
1
 40
164.1391937859473273
  0
ENDSEC
  0
EOF
