999
dxflib 3.12.2.0
  0
SECTION
  2
HEADER
  9
$ACADVER
  1
AC1015
  9
$HANDSEED
  5
FFFF
  9
$DIMADEC
 70
0
  9
$DIMASZ
 40
2.5
  9
$DIMAUNIT
 70
0
  9
$DIMAZIN
 70
2
  9
$DIMDEC
 70
4
  9
$DIMEXE
 40
1.25
  9
$DIMEXO
 40
0.625
  9
$DIMGAP
 40
0.625
  9
$DIMLUNIT
 70
2
  9
$DIMSCALE
 40
1.0
  9
$DIMTSZ
 40
0.0
  9
$DIMTXT
 40
2.5
  9
$DIMZIN
 70
8
  9
$DWGCODEPAGE
  3
ANSI_1252
  9
$INSUNITS
 70
4
  9
$LTSCALE
 40
1.0
  9
$MEASUREMENT
 70
1
  9
$PDMODE
 70
0
  9
$PDSIZE
 40
0
  0
ENDSEC
  0
SECTION
  2
TABLES
  0
TABLE
  2
VPORT
  5
8
100
AcDbSymbolTable
 70
1
  0
VPORT
  5
30
100
AcDbSymbolTableRecord
100
AcDbViewportTableRecord
  2
*Active
 70
0
 10
0.0
 20
0.0
 11
1.0
 21
1.0
 12
286.3055555555554861
 22
148.5
 13
0.0
 23
0.0
 14
10.0
 24
10.0
 15
10.0
 25
10.0
 16
0.0
 26
0.0
 36
1.0
 17
0.0
 27
0.0
 37
0.0
 40
297.0
 41
1.92798353909465
 42
50.0
 43
0.0
 44
0.0
 50
0.0
 51
0.0
 71
0
 72
100
 73
1
 74
3
 75
1
 76
1
 77
0
 78
0
281
0
 65
1
110
0.0
120
0.0
130
0.0
111
1.0
121
0.0
131
0.0
112
0.0
122
1.0
132
0.0
 79
0
146
0.0
  0
ENDTAB
  0
TABLE
  2
LTYPE
  5
5
100
AcDbSymbolTable
 70
41
  0
LTYPE
  5
16
100
AcDbSymbolTableRecord
100
AcDbLinetypeTableRecord
  2
Continuous
 70
0
  3
Solid line
 72
65
 73
0
 40
0.0
  0
LTYPE
  5
31
100
AcDbSymbolTableRecord
100
AcDbLinetypeTableRecord
  2
ACAD_ISO15W100
 70
0
  3
ISO double-dash triple-dot __ __ . . . __ __ . .
 72
65
 73
10
 40
39.0
 49
12.0
 74
0
 49
-3.0
 74
0
 49
12.0
 74
0
 49
-2.9500000000000002
 74
0
 49
0.1
 74
0
 49
-2.9000000000000004
 74
0
 49
0.1
 74
0
 49
-2.9000000000000004
 74
0
 49
0.1
 74
0
 49
-2.9500000000000002
 74
0
  0
LTYPE
  5
32
100
AcDbSymbolTableRecord
100
AcDbLinetypeTableRecord
  2
DIVIDE
 70
0
  3
Divide ____ . . ____ . . ____ . . ____ . . ____
 72
65
 73
6
 40
31.75
 49
12.6999999999999993
 74
0
 49
-6.2999999999999998
 74
0
 49
0.1
 74
0
 49
-6.25
 74
0
 49
0.1
 74
0
 49
-6.2999999999999998
 74
0
  0
LTYPE
  5
33
100
AcDbSymbolTableRecord
100
AcDbLinetypeTableRecord
  2
ACAD_ISO10W100
 70
0
  3
ISO dash dot __ . __ . __ . __ . __ . __ . __ . 
 72
65
 73
4
 40
18.0
 49
12.0
 74
0
 49
-2.9500000000000002
 74
0
 49
0.1
 74
0
 49
-2.9500000000000002
 74
0
  0
LTYPE
  5
34
100
AcDbSymbolTableRecord
100
AcDbLinetypeTableRecord
  2
ACAD_ISO04W100
 70
0
  3
ISO long-dash dot ____ . ____ . ____ . ____ . _
 72
65
 73
4
 40
30.0
 49
24.0
 74
0
 49
-2.9500000000000002
 74
0
 49
0.1
 74
0
 49
-2.9500000000000002
 74
0
  0
LTYPE
  5
35
100
AcDbSymbolTableRecord
100
AcDbLinetypeTableRecord
  2
CENTER2
 70
0
  3
Center (.5x) ___ _ ___ _ ___ _ ___ _ ___ _ ___
 72
65
 73
4
 40
28.5749999999999993
 49
19.0500000000000007
 74
0
 49
-3.1749999999999998
 74
0
 49
3.1749999999999998
 74
0
 49
-3.1749999999999998
 74
0
  0
LTYPE
  5
36
100
AcDbSymbolTableRecord
100
AcDbLinetypeTableRecord
  2
ACAD_ISO11W100
 70
0
  3
ISO double-dash dot __ __ . __ __ . __ __ . __ _
 72
65
 73
6
 40
33.0
 49
12.0
 74
0
 49
-3.0
 74
0
 49
12.0
 74
0
 49
-2.9500000000000002
 74
0
 49
0.1
 74
0
 49
-2.9500000000000002
 74
0
  0
LTYPE
  5
37
100
AcDbSymbolTableRecord
100
AcDbLinetypeTableRecord
  2
HIDDEN2
 70
0
  3
Hidden (.5x) _ _ _ _ _ _ _ _ _ _ _ _ _ _ _ _ _ 
 72
65
 73
2
 40
4.7624999999999993
 49
3.1749999999999998
 74
0
 49
-1.5874999999999999
 74
0
  0
LTYPE
  5
38
100
AcDbSymbolTableRecord
100
AcDbLinetypeTableRecord
  2
BORDERX2
 70
0
  3
Border (2x) ____  ____  .  ____  ____  .  ___
 72
65
 73
6
 40
88.8999999999999915
 49
25.3999999999999986
 74
0
 49
-12.6999999999999993
 74
0
 49
25.3999999999999986
 74
0
 49
-12.6499999999999986
 74
0
 49
0.1
 74
0
 49
-12.6499999999999986
 74
0
  0
LTYPE
  5
39
100
AcDbSymbolTableRecord
100
AcDbLinetypeTableRecord
  2
ACAD_ISO05W100
 70
0
  3
ISO long-dash double-dot ____ .. ____ .. ____ . 
 72
65
 73
6
 40
33.0
 49
24.0
 74
0
 49
-2.9500000000000002
 74
0
 49
0.1
 74
0
 49
-2.9000000000000004
 74
0
 49
0.1
 74
0
 49
-2.9500000000000002
 74
0
  0
LTYPE
  5
3A
100
AcDbSymbolTableRecord
100
AcDbLinetypeTableRecord
  2
DASHDOTX2
 70
0
  3
Dash dot (2x) ____  .  ____  .  ____  .  ___
 72
65
 73
4
 40
50.7999999999999972
 49
25.3999999999999986
 74
0
 49
-12.6499999999999986
 74
0
 49
0.1
 74
0
 49
-12.6499999999999986
 74
0
  0
LTYPE
  5
3B
100
AcDbSymbolTableRecord
100
AcDbLinetypeTableRecord
  2
HIDDENX2
 70
0
  3
Hidden (2x) ____ ____ ____ ____ ____ ____ ____ 
 72
65
 73
2
 40
19.0499999999999972
 49
12.6999999999999993
 74
0
 49
-6.3499999999999996
 74
0
  0
LTYPE
  5
3C
100
AcDbSymbolTableRecord
100
AcDbLinetypeTableRecord
  2
CENTERX2
 70
0
  3
Center (2x) ________  __  ________  __  _____
 72
65
 73
4
 40
101.5999999999999943
 49
63.5
 74
0
 49
-12.6999999999999993
 74
0
 49
12.6999999999999993
 74
0
 49
-12.6999999999999993
 74
0
  0
LTYPE
  5
3D
100
AcDbSymbolTableRecord
100
AcDbLinetypeTableRecord
  2
BORDER2
 70
0
  3
Border (.5x) __.__.__.__.__.__.__.__.__.__.__.
 72
65
 73
6
 40
22.2249999999999979
 49
6.3499999999999996
 74
0
 49
-3.1749999999999998
 74
0
 49
6.3499999999999996
 74
0
 49
-3.125
 74
0
 49
0.1
 74
0
 49
-3.125
 74
0
  0
LTYPE
  5
3E
100
AcDbSymbolTableRecord
100
AcDbLinetypeTableRecord
  2
DASHDOT2
 70
0
  3
Dash dot (.5x) _._._._._._._._._._._._._._._.
 72
65
 73
4
 40
12.6999999999999993
 49
6.3499999999999996
 74
0
 49
-3.125
 74
0
 49
0.1
 74
0
 49
-3.125
 74
0
  0
LTYPE
  5
3F
100
AcDbSymbolTableRecord
100
AcDbLinetypeTableRecord
  2
ACAD_ISO12W100
 70
0
  3
ISO dash double-dot __ . . __ . . __ . . __ . . 
 72
65
 73
6
 40
21.0
 49
12.0
 74
0
 49
-2.9500000000000002
 74
0
 49
0.1
 74
0
 49
-2.9000000000000004
 74
0
 49
0.1
 74
0
 49
-2.9500000000000002
 74
0
  0
LTYPE
  5
40
100
AcDbSymbolTableRecord
100
AcDbLinetypeTableRecord
  2
ACAD_ISO07W100
 70
0
  3
ISO dot . . . . . . . . . . . . . . . . . . . . 
 72
65
 73
2
 40
3.0
 49
0.1
 74
0
 49
-2.8999999999999999
 74
0
  0
LTYPE
  5
41
100
AcDbSymbolTableRecord
100
AcDbLinetypeTableRecord
  2
HIDDEN
 70
0
  3
Hidden __ __ __ __ __ __ __ __ __ __ __ __ __ __
 72
65
 73
2
 40
9.5249999999999986
 49
6.3499999999999996
 74
0
 49
-3.1749999999999998
 74
0
  0
LTYPE
  5
42
100
AcDbSymbolTableRecord
100
AcDbLinetypeTableRecord
  2
ACAD_ISO06W100
 70
0
  3
ISO long-dash triple-dot ____ ... ____ ... ____
 72
65
 73
8
 40
36.0
 49
24.0
 74
0
 49
-2.9500000000000002
 74
0
 49
0.1
 74
0
 49
-2.9000000000000004
 74
0
 49
0.1
 74
0
 49
-2.9000000000000004
 74
0
 49
0.1
 74
0
 49
-2.9500000000000002
 74
0
  0
LTYPE
  5
43
100
AcDbSymbolTableRecord
100
AcDbLinetypeTableRecord
  2
CENTER
 70
0
  3
Center ____ _ ____ _ ____ _ ____ _ ____ _ ____
 72
65
 73
4
 40
50.7999999999999972
 49
31.75
 74
0
 49
-6.3499999999999996
 74
0
 49
6.3499999999999996
 74
0
 49
-6.3499999999999996
 74
0
  0
LTYPE
  5
44
100
AcDbSymbolTableRecord
100
AcDbLinetypeTableRecord
  2
DOTX2
 70
0
  3
Dot (2x) .  .  .  .  .  .  .  .  .  .  .  .  .  .
 72
65
 73
2
 40
12.6999999999999993
 49
0.1
 74
0
 49
-12.5999999999999996
 74
0
  0
LTYPE
  5
45
100
AcDbSymbolTableRecord
100
AcDbLinetypeTableRecord
  2
PHANTOM
 70
0
  3
Phantom ______  __  __  ______  __  __  ______ 
 72
65
 73
6
 40
63.5
 49
31.75
 74
0
 49
-6.3499999999999996
 74
0
 49
6.3499999999999996
 74
0
 49
-6.3499999999999996
 74
0
 49
6.3499999999999996
 74
0
 49
-6.3499999999999996
 74
0
  0
LTYPE
  5
46
100
AcDbSymbolTableRecord
100
AcDbLinetypeTableRecord
  2
ACAD_ISO08W100
 70
0
  3
ISO long-dash short-dash ____ __ ____ __ ____ _
 72
65
 73
4
 40
36.0
 49
24.0
 74
0
 49
-3.0
 74
0
 49
6.0
 74
0
 49
-3.0
 74
0
  0
LTYPE
  5
47
100
AcDbSymbolTableRecord
100
AcDbLinetypeTableRecord
  2
DASHEDX2
 70
0
  3
Dashed (2x) ____  ____  ____  ____  ____  ___
 72
65
 73
2
 40
38.0999999999999943
 49
25.3999999999999986
 74
0
 49
-12.6999999999999993
 74
0
  0
LTYPE
  5
48
100
AcDbSymbolTableRecord
100
AcDbLinetypeTableRecord
  2
ACAD_ISO02W100
 70
0
  3
ISO dash __ __ __ __ __ __ __ __ __ __ __ __ __
 72
65
 73
2
 40
15.0
 49
12.0
 74
0
 49
-3.0
 74
0
  0
LTYPE
  5
49
100
AcDbSymbolTableRecord
100
AcDbLinetypeTableRecord
  2
PHANTOM2
 70
0
  3
Phantom (.5x) ___ _ _ ___ _ _ ___ _ _ ___ _ _
 72
65
 73
6
 40
31.75
 49
15.875
 74
0
 49
-3.1749999999999998
 74
0
 49
3.1749999999999998
 74
0
 49
-3.1749999999999998
 74
0
 49
3.1749999999999998
 74
0
 49
-3.1749999999999998
 74
0
  0
LTYPE
  5
4A
100
AcDbSymbolTableRecord
100
AcDbLinetypeTableRecord
  2
DASHED2
 70
0
  3
Dashed (.5x) _ _ _ _ _ _ _ _ _ _ _ _ _ _ _ _ _ 
 72
65
 73
2
 40
9.5249999999999986
 49
6.3499999999999996
 74
0
 49
-3.1749999999999998
 74
0
  0
LTYPE
  5
4B
100
AcDbSymbolTableRecord
100
AcDbLinetypeTableRecord
  2
ACAD_ISO09W100
 70
0
  3
ISO long-dash double-short-dash ____ __ __ ____
 72
65
 73
6
 40
45.0
 49
24.0
 74
0
 49
-3.0
 74
0
 49
6.0
 74
0
 49
-3.0
 74
0
 49
6.0
 74
0
 49
-3.0
 74
0
  0
LTYPE
  5
4C
100
AcDbSymbolTableRecord
100
AcDbLinetypeTableRecord
  2
ACAD_ISO13W100
 70
0
  3
ISO double-dash double-dot __ __ . . __ __ . . _
 72
65
 73
8
 40
36.0
 49
12.0
 74
0
 49
-3.0
 74
0
 49
12.0
 74
0
 49
-2.9500000000000002
 74
0
 49
0.1
 74
0
 49
-2.9000000000000004
 74
0
 49
0.1
 74
0
 49
-2.9500000000000002
 74
0
  0
LTYPE
  5
4D
100
AcDbSymbolTableRecord
100
AcDbLinetypeTableRecord
  2
DOT2
 70
0
  3
Dot (.5x) ........................................
 72
65
 73
2
 40
3.1749999999999998
 49
0.1
 74
0
 49
-3.0749999999999997
 74
0
  0
LTYPE
  5
4E
100
AcDbSymbolTableRecord
100
AcDbLinetypeTableRecord
  2
DASHED
 70
0
  3
Dashed __ __ __ __ __ __ __ __ __ __ __ __ __ _
 72
65
 73
2
 40
19.0499999999999972
 49
12.6999999999999993
 74
0
 49
-6.3499999999999996
 74
0
  0
LTYPE
  5
4F
100
AcDbSymbolTableRecord
100
AcDbLinetypeTableRecord
  2
ACAD_ISO14W100
 70
0
  3
ISO dash triple-dot __ . . . __ . . . __ . . . _
 72
65
 73
8
 40
24.0
 49
12.0
 74
0
 49
-2.9500000000000002
 74
0
 49
0.1
 74
0
 49
-2.9000000000000004
 74
0
 49
0.1
 74
0
 49
-2.9000000000000004
 74
0
 49
0.1
 74
0
 49
-2.9500000000000002
 74
0
  0
LTYPE
  5
15
100
AcDbSymbolTableRecord
100
AcDbLinetypeTableRecord
  2
BYLAYER
 70
0
  3

 72
65
 73
0
 40
0.0
  0
LTYPE
  5
50
100
AcDbSymbolTableRecord
100
AcDbLinetypeTableRecord
  2
PHANTOMX2
 70
0
  3
Phantom (2x) ____________    ____    ____   _
 72
65
 73
6
 40
127.0
 49
63.5
 74
0
 49
-12.6999999999999993
 74
0
 49
12.6999999999999993
 74
0
 49
-12.6999999999999993
 74
0
 49
12.6999999999999993
 74
0
 49
-12.6999999999999993
 74
0
  0
LTYPE
  5
14
100
AcDbSymbolTableRecord
100
AcDbLinetypeTableRecord
  2
BYBLOCK
 70
0
  3

 72
65
 73
0
 40
0.0
  0
LTYPE
  5
51
100
AcDbSymbolTableRecord
100
AcDbLinetypeTableRecord
  2
DIVIDEX2
 70
0
  3
Divide (2x) ________  .  .  ________  .  .  _
 72
65
 73
6
 40
63.4999999999999929
 49
25.3999999999999986
 74
0
 49
-12.6499999999999986
 74
0
 49
0.1
 74
0
 49
-12.5999999999999979
 74
0
 49
0.1
 74
0
 49
-12.6499999999999986
 74
0
  0
LTYPE
  5
52
100
AcDbSymbolTableRecord
100
AcDbLinetypeTableRecord
  2
BORDER
 70
0
  3
Border __ __ . __ __ . __ __ . __ __ . __ __ .
 72
65
 73
6
 40
44.4499999999999957
 49
12.6999999999999993
 74
0
 49
-6.3499999999999996
 74
0
 49
12.6999999999999993
 74
0
 49
-6.2999999999999998
 74
0
 49
0.1
 74
0
 49
-6.2999999999999998
 74
0
  0
LTYPE
  5
53
100
AcDbSymbolTableRecord
100
AcDbLinetypeTableRecord
  2
DIVIDE2
 70
0
  3
Divide (.5x) __..__..__..__..__..__..__..__.._
 72
65
 73
6
 40
15.875
 49
6.3499999999999996
 74
0
 49
-3.125
 74
0
 49
0.1
 74
0
 49
-3.0750000000000002
 74
0
 49
0.1
 74
0
 49
-3.125
 74
0
  0
LTYPE
  5
54
100
AcDbSymbolTableRecord
100
AcDbLinetypeTableRecord
  2
DOT
 70
0
  3
Dot . . . . . . . . . . . . . . . . . . . . . . . .
 72
65
 73
2
 40
6.3499999999999996
 49
0.1
 74
0
 49
-6.25
 74
0
  0
LTYPE
  5
55
100
AcDbSymbolTableRecord
100
AcDbLinetypeTableRecord
  2
DASHDOT
 70
0
  3
Dash dot __ . __ . __ . __ . __ . __ . __ . __
 72
65
 73
4
 40
25.3999999999999986
 49
12.6999999999999993
 74
0
 49
-6.2999999999999998
 74
0
 49
0.1
 74
0
 49
-6.2999999999999998
 74
0
  0
LTYPE
  5
56
100
AcDbSymbolTableRecord
100
AcDbLinetypeTableRecord
  2
ACAD_ISO03W100
 70
0
  3
ISO dash space __    __    __    __    __    __
 72
65
 73
2
 40
30.0
 49
12.0
 74
0
 49
-18.0
 74
0
  0
ENDTAB
  0
TABLE
  2
LAYER
  5
2
100
AcDbSymbolTable
 70
10
  0
LAYER
  5
57
100
AcDbSymbolTableRecord
100
AcDbLayerTableRecord
  2
TraversesNiveauVMC
 70
0
 62
1
420
16711680
  6
Continuous
370
25
390
F
  0
LAYER
  5
58
100
AcDbSymbolTableRecord
100
AcDbLayerTableRecord
  2
Montants
 70
0
 62
1
420
16711680
  6
Continuous
370
25
390
F
  0
LAYER
  5
59
100
AcDbSymbolTableRecord
100
AcDbLayerTableRecord
  2
OSB18
 70
0
 62
30
420
16744192
  6
Continuous
370
25
390
F
  0
LAYER
  5
5A
100
AcDbSymbolTableRecord
100
AcDbLayerTableRecord
  2
Evacuation
 70
0
 62
5
420
255
  6
Continuous
370
25
390
F
  0
LAYER
  5
5B
100
AcDbSymbolTableRecord
100
AcDbLayerTableRecord
  2
VMC
 70
0
 62
7
420
0
  6
Continuous
370
25
390
F
  0
LAYER
  5
5C
100
AcDbSymbolTableRecord
100
AcDbLayerTableRecord
  2
Murs & Sols
 70
1
 62
-7
420
0
  6
Continuous
370
25
390
F
  0
LAYER
  5
5D
100
AcDbSymbolTableRecord
100
AcDbLayerTableRecord
  2
FibreBois
 70
1
 62
-2
420
16776960
  6
Continuous
370
25
390
F
  0
LAYER
  5
5E
100
AcDbSymbolTableRecord
100
AcDbLayerTableRecord
  2
OSB18 Niveau VMC
 70
1
 62
-30
420
16744192
  6
Continuous
370
25
390
F
  0
LAYER
  5
10
100
AcDbSymbolTableRecord
100
AcDbLayerTableRecord
  2
0
 70
0
 62
7
420
16777215
  6
Continuous
370
25
390
F
  0
LAYER
  5
5F
100
AcDbSymbolTableRecord
100
AcDbLayerTableRecord
  2
Lambourdes
 70
1
 62
-1
420
16711680
  6
Continuous
370
25
390
F
  0
ENDTAB
  0
TABLE
  2
STYLE
  5
3
100
AcDbSymbolTable
 70
1
  0
STYLE
  5
60
100
AcDbSymbolTableRecord
100
AcDbTextStyleTableRecord
  2
Standard
 70
0
 40
0.0
 41
1.0
 50
0.0
 71
0
 42
2.5
  3

  4

1001
ACAD
1000
txt
1071
0
  0
ENDTAB
  0
TABLE
  2
VIEW
  5
6
100
AcDbSymbolTable
 70
0
  0
ENDTAB
  0
TABLE
  2
UCS
  5
7
100
AcDbSymbolTable
 70
0
  0
ENDTAB
  0
TABLE
  2
APPID
  5
9
100
AcDbSymbolTable
 70
1
  0
APPID
  5
12
100
AcDbSymbolTableRecord
100
AcDbRegAppTableRecord
  2
ACAD
 70
0
  0
APPID
  5
61
100
AcDbSymbolTableRecord
100
AcDbRegAppTableRecord
  2
QCAD
 70
0
  0
ENDTAB
  0
TABLE
  2
DIMSTYLE
  5
A
100
AcDbSymbolTable
 70
1
100
AcDbDimStyleTable
 71
0
  0
DIMSTYLE
105
27
100
AcDbSymbolTableRecord
100
AcDbDimStyleTableRecord
  2
Standard
 41
2.5
 42
0.625
 43
3.75
 44
1.25
 70
0
 73
0
 74
0
 77
1
 78
8
140
2.5
141
2.5
143
0.03937007874016
147
0.625
171
3
172
1
271
2
272
2
274
3
278
44
283
0
284
8
340
60
  0
ENDTAB
  0
TABLE
  2
BLOCK_RECORD
  5
1
100
AcDbSymbolTable
 70
1
  0
BLOCK_RECORD
  5
1F
100
AcDbSymbolTableRecord
100
AcDbBlockTableRecord
  2
*Model_Space
340
22
  0
BLOCK_RECORD
  5
1B
100
AcDbSymbolTableRecord
100
AcDbBlockTableRecord
  2
*Paper_Space
340
1E
  0
BLOCK_RECORD
  5
23
100
AcDbSymbolTableRecord
100
AcDbBlockTableRecord
  2
*Paper_Space0
340
26
  0
BLOCK_RECORD
  5
62
100
AcDbSymbolTableRecord
100
AcDbBlockTableRecord
  2
CentraleVMC
340
0
  0
BLOCK_RECORD
  5
63
100
AcDbSymbolTableRecord
100
AcDbBlockTableRecord
  2
Montant_50x40
340
0
  0
BLOCK_RECORD
  5
64
100
AcDbSymbolTableRecord
100
AcDbBlockTableRecord
  2
Montant_6x4
340
0
  0
BLOCK_RECORD
  5
65
100
AcDbSymbolTableRecord
100
AcDbBlockTableRecord
  2
Montant_60x34_Hetre
340
0
  0
BLOCK_RECORD
  5
66
100
AcDbSymbolTableRecord
100
AcDbBlockTableRecord
  2
Montant_6x4_Hetre
340
0
  0
ENDTAB
  0
ENDSEC
  0
SECTION
  2
BLOCKS
  0
BLOCK
  5
20
100
AcDbEntity
  8
0
100
AcDbBlockBegin
  2
*Model_Space
 70
0
 10
0.0
 20
0.0
 30
0.0
  3
*Model_Space
  1

  0
ENDBLK
  5
21
100
AcDbEntity
  8
0
100
AcDbBlockEnd
  0
BLOCK
  5
1C
100
AcDbEntity
 67
1
  8
0
100
AcDbBlockBegin
  2
*Paper_Space
 70
0
 10
0.0
 20
0.0
 30
0.0
  3
*Paper_Space
  1

  0
ENDBLK
  5
1D
100
AcDbEntity
 67
1
  8
0
100
AcDbBlockEnd
  0
BLOCK
  5
24
100
AcDbEntity
  8
0
100
AcDbBlockBegin
  2
*Paper_Space0
 70
0
 10
0.0
 20
0.0
 30
0.0
  3
*Paper_Space0
  1

  0
ENDBLK
  5
25
100
AcDbEntity
  8
0
100
AcDbBlockEnd
  0
BLOCK
  5
67
100
AcDbEntity
  8
0
100
AcDbBlockBegin
  2
CentraleVMC
 70
0
 10
0.0
 20
0.0
 30
0.0
  3
CentraleVMC
  1

  0
LINE
  5
68
100
AcDbEntity
100
AcDbLine
  8
VMC
 62
256
370
-1
 48
1.0
  6
BYLAYER
 10
0.0
 20
0.0
 30
0.0
 11
0.0
 21
591.0
 31
0.0
  0
LINE
  5
69
100
AcDbEntity
100
AcDbLine
  8
VMC
 62
256
370
-1
 48
1.0
  6
BYLAYER
 10
-792.0
 20
0.000000000000097
 30
0.0
 11
-792.0
 21
591.0000000000001137
 31
0.0
  0
LINE
  5
6A
100
AcDbEntity
100
AcDbLine
  8
VMC
 62
256
370
-1
 48
1.0
  6
BYLAYER
 10
-792.0
 20
0.000000000000097
 30
0.0
 11
0.0
 21
0.0
 31
0.0
  0
LINE
  5
6B
100
AcDbEntity
100
AcDbLine
  8
VMC
 62
256
370
-1
 48
1.0
  6
BYLAYER
 10
-791.9999999999997726
 20
591.0000000000001137
 30
0.0
 11
0.0000000000001809
 21
591.0
 31
0.0
  0
CIRCLE
  5
6C
100
AcDbEntity
100
AcDbCircle
  8
VMC
 62
256
370
-1
 48
1.0
  6
BYLAYER
 10
-671.0
 20
361.0000000000001137
 30
0.0
 40
80.0
  0
CIRCLE
  5
6D
100
AcDbEntity
100
AcDbCircle
  8
VMC
 62
256
370
-1
 48
1.0
  6
BYLAYER
 10
-501.0
 20
164.0000000000000853
 30
0.0
 40
80.0
  0
CIRCLE
  5
6E
100
AcDbEntity
100
AcDbCircle
  8
VMC
 62
256
370
-1
 48
1.0
  6
BYLAYER
 10
-301.0
 20
361.0000000000000568
 30
0.0
 40
80.0
  0
CIRCLE
  5
6F
100
AcDbEntity
100
AcDbCircle
  8
VMC
 62
256
370
-1
 48
1.0
  6
BYLAYER
 10
-141.0
 20
164.0000000000000284
 30
0.0
 40
80.0
  0
CIRCLE
  5
70
100
AcDbEntity
100
AcDbCircle
  8
VMC
 62
256
370
-1
 48
1.0
  6
BYLAYER
 10
-178.0
 20
301.0
 30
0.0
 40
20.0
  0
ENDBLK
  5
71
100
AcDbEntity
  8
0
100
AcDbBlockEnd
  0
BLOCK
  5
72
100
AcDbEntity
  8
0
100
AcDbBlockBegin
  2
Montant_50x40
 70
0
 10
0.0
 20
0.0
 30
0.0
  3
Montant_50x40
  1

  0
LINE
  5
73
100
AcDbEntity
100
AcDbLine
  8
Montants
 62
256
370
-1
 48
1.0
  6
BYLAYER
 10
-40.0
 20
0.0
 30
0.0
 11
-40.0
 21
50.0
 31
0.0
  0
LINE
  5
74
100
AcDbEntity
100
AcDbLine
  8
Montants
 62
256
370
-1
 48
1.0
  6
BYLAYER
 10
0.0
 20
50.0
 30
0.0
 11
-40.0
 21
50.0
 31
0.0
  0
LINE
  5
75
100
AcDbEntity
100
AcDbLine
  8
Montants
 62
256
370
-1
 48
1.0
  6
BYLAYER
 10
-40.0
 20
50.0
 30
0.0
 11
0.0
 21
0.0
 31
0.0
  0
LINE
  5
76
100
AcDbEntity
100
AcDbLine
  8
Montants
 62
256
370
-1
 48
1.0
  6
BYLAYER
 10
0.0
 20
0.0
 30
0.0
 11
-40.0
 21
0.0
 31
0.0
  0
LINE
  5
77
100
AcDbEntity
100
AcDbLine
  8
Montants
 62
256
370
-1
 48
1.0
  6
BYLAYER
 10
-40.0
 20
0.0
 30
0.0
 11
0.0
 21
50.0
 31
0.0
  0
LINE
  5
78
100
AcDbEntity
100
AcDbLine
  8
Montants
 62
256
370
-1
 48
1.0
  6
BYLAYER
 10
0.0
 20
0.0
 30
0.0
 11
0.0
 21
50.0
 31
0.0
  0
ENDBLK
  5
79
100
AcDbEntity
  8
0
100
AcDbBlockEnd
  0
BLOCK
  5
7A
100
AcDbEntity
  8
0
100
AcDbBlockBegin
  2
Montant_6x4
 70
0
 10
0.0
 20
0.0
 30
0.0
  3
Montant_6x4
  1

  0
LINE
  5
7B
100
AcDbEntity
100
AcDbLine
  8
Montants
 62
256
370
-1
 48
1.0
  6
BYLAYER
 10
40.0
 20
0.0
 30
0.0
 11
40.0
 21
60.0
 31
0.0
  0
LINE
  5
7C
100
AcDbEntity
100
AcDbLine
  8
Montants
 62
256
370
-1
 48
1.0
  6
BYLAYER
 10
0.0
 20
60.0
 30
0.0
 11
40.0
 21
60.0
 31
0.0
  0
LINE
  5
7D
100
AcDbEntity
100
AcDbLine
  8
Montants
 62
256
370
-1
 48
1.0
  6
BYLAYER
 10
0.0
 20
0.0
 30
0.0
 11
0.0
 21
60.0
 31
0.0
  0
LINE
  5
7E
100
AcDbEntity
100
AcDbLine
  8
Montants
 62
256
370
-1
 48
1.0
  6
BYLAYER
 10
0.0
 20
0.0
 30
0.0
 11
40.0
 21
0.0
 31
0.0
  0
LINE
  5
7F
100
AcDbEntity
100
AcDbLine
  8
Montants
 62
256
370
-1
 48
1.0
  6
BYLAYER
 10
40.0
 20
0.0
 30
0.0
 11
0.0
 21
60.0
 31
0.0
  0
LINE
  5
80
100
AcDbEntity
100
AcDbLine
  8
Montants
 62
256
370
-1
 48
1.0
  6
BYLAYER
 10
40.0
 20
60.0
 30
0.0
 11
0.0
 21
0.0
 31
0.0
  0
ENDBLK
  5
81
100
AcDbEntity
  8
0
100
AcDbBlockEnd
  0
BLOCK
  5
82
100
AcDbEntity
  8
0
100
AcDbBlockBegin
  2
Montant_60x34_Hetre
 70
0
 10
0.0
 20
0.0
 30
0.0
  3
Montant_60x34_Hetre
  1

  0
LINE
  5
83
100
AcDbEntity
100
AcDbLine
  8
Montants
 62
31
420
14858364
370
-1
 48
1.0
  6
BYLAYER
 10
0.0
 20
0.0
 30
0.0
 11
0.0
 21
60.0
 31
0.0
  0
LINE
  5
84
100
AcDbEntity
100
AcDbLine
  8
Montants
 62
31
420
14858364
370
-1
 48
1.0
  6
BYLAYER
 10
-34.0
 20
0.0
 30
0.0
 11
-34.0
 21
60.0
 31
0.0
  0
LINE
  5
85
100
AcDbEntity
100
AcDbLine
  8
Montants
 62
31
420
14858364
370
-1
 48
1.0
  6
BYLAYER
 10
-34.0
 20
60.0
 30
0.0
 11
0.0
 21
60.0
 31
0.0
  0
LINE
  5
86
100
AcDbEntity
100
AcDbLine
  8
Montants
 62
31
420
14858364
370
-1
 48
1.0
  6
BYLAYER
 10
0.0
 20
60.0
 30
0.0
 11
-34.0
 21
0.0
 31
0.0
  0
LINE
  5
87
100
AcDbEntity
100
AcDbLine
  8
Montants
 62
31
420
14858364
370
-1
 48
1.0
  6
BYLAYER
 10
-34.0
 20
0.0
 30
0.0
 11
0.0
 21
0.0
 31
0.0
  0
LINE
  5
88
100
AcDbEntity
100
AcDbLine
  8
Montants
 62
31
420
14858364
370
-1
 48
1.0
  6
BYLAYER
 10
0.0
 20
0.0
 30
0.0
 11
-34.0
 21
60.0
 31
0.0
  0
ENDBLK
  5
89
100
AcDbEntity
  8
0
100
AcDbBlockEnd
  0
BLOCK
  5
8A
100
AcDbEntity
  8
0
100
AcDbBlockBegin
  2
Montant_6x4_Hetre
 70
0
 10
0.0
 20
0.0
 30
0.0
  3
Montant_6x4_Hetre
  1

  0
LINE
  5
8B
100
AcDbEntity
100
AcDbLine
  8
Montants
 62
31
420
14858364
370
-1
 48
1.0
  6
BYLAYER
 10
0.0
 20
0.0
 30
0.0
 11
0.0000000000000178
 21
60.0
 31
0.0
  0
LINE
  5
8C
100
AcDbEntity
100
AcDbLine
  8
Montants
 62
31
420
14858364
370
-1
 48
1.0
  6
BYLAYER
 10
-40.0
 20
0.0000000000000049
 30
0.0
 11
-39.9999999999999858
 21
60.0000000000000071
 31
0.0
  0
LINE
  5
8D
100
AcDbEntity
100
AcDbLine
  8
Montants
 62
31
420
14858364
370
-1
 48
1.0
  6
BYLAYER
 10
-39.9999999999999858
 20
60.0000000000000071
 30
0.0
 11
0.0000000000000178
 21
60.0
 31
0.0
  0
LINE
  5
8E
100
AcDbEntity
100
AcDbLine
  8
Montants
 62
31
420
14858364
370
-1
 48
1.0
  6
BYLAYER
 10
0.0000000000000178
 20
60.0
 30
0.0
 11
-40.0
 21
0.0000000000000049
 31
0.0
  0
LINE
  5
8F
100
AcDbEntity
100
AcDbLine
  8
Montants
 62
31
420
14858364
370
-1
 48
1.0
  6
BYLAYER
 10
-40.0
 20
0.0000000000000049
 30
0.0
 11
0.0
 21
0.0
 31
0.0
  0
LINE
  5
90
100
AcDbEntity
100
AcDbLine
  8
Montants
 62
31
420
14858364
370
-1
 48
1.0
  6
BYLAYER
 10
0.0
 20
0.0
 30
0.0
 11
-39.9999999999999858
 21
60.0000000000000071
 31
0.0
  0
ENDBLK
  5
91
100
AcDbEntity
  8
0
100
AcDbBlockEnd
  0
ENDSEC
  0
SECTION
  2
ENTITIES
  0
INSERT
  5
92
100
AcDbEntity
100
AcDbBlockReference
  8
VMC
 62
256
370
-1
 48
1.0
  6
BYLAYER
  2
CentraleVMC
 10
350.0000000000001137
 20
909.0
 30
0.0
  0
LINE
  5
93
100
AcDbEntity
100
AcDbLine
  8
Murs & Sols
 62
256
370
-1
 48
1.0
  6
BYLAYER
 10
1000.0
 20
0.0
 30
0.0
 11
1000.0000000000001137
 21
1500.0
 31
0.0
  0
LINE
  5
94
100
AcDbEntity
100
AcDbLine
  8
Murs & Sols
 62
256
370
-1
 48
1.0
  6
BYLAYER
 10
-25.9999999999995453
 20
1500.0
 30
0.0
 11
1000.0000000000001137
 21
1500.0
 31
0.0
  0
LINE
  5
95
100
AcDbEntity
100
AcDbLine
  8
Murs & Sols
 62
256
370
-1
 48
1.0
  6
BYLAYER
 10
-2000.0
 20
1500.0
 30
0.0
 11
-65.9999999999997726
 21
1500.0
 31
0.0
  0
LINE
  5
96
100
AcDbEntity
100
AcDbLine
  8
Lambourdes
 62
256
370
-1
 48
1.0
  6
BYLAYER
 10
-441.9999999999998863
 20
1450.0
 30
0.0
 11
1000.0000000000001137
 21
1450.0
 31
0.0
  0
LINE
  5
97
100
AcDbEntity
100
AcDbLine
  8
Lambourdes
 62
256
370
-1
 48
1.0
  6
BYLAYER
 10
950.0000000000001137
 20
959.0
 30
0.0
 11
950.0000000000001137
 21
1450.0
 31
0.0
  0
LINE
  5
98
100
AcDbEntity
100
AcDbLine
  8
Lambourdes
 62
256
370
-1
 48
1.0
  6
BYLAYER
 10
-441.9999999999998863
 20
909.0000000000001137
 30
0.0
 11
1000.0000000000001137
 21
909.0
 31
0.0
  0
LINE
  5
99
100
AcDbEntity
100
AcDbLine
  8
Lambourdes
 62
256
370
-1
 48
1.0
  6
BYLAYER
 10
-441.9999999999998863
 20
909.0000000000001137
 30
0.0
 11
-441.9999999999998863
 21
1450.0
 31
0.0
  0
LINE
  5
9A
100
AcDbEntity
100
AcDbLine
  8
Lambourdes
 62
256
370
-1
 48
1.0
  6
BYLAYER
 10
1000.0000000000001137
 20
923.9999999999998863
 30
0.0
 11
1000.0000000000001137
 21
973.9999999999998863
 31
0.0
  0
LINE
  5
9B
100
AcDbEntity
100
AcDbLine
  8
Lambourdes
 62
256
370
-1
 48
1.0
  6
BYLAYER
 10
1000.0000000000001137
 20
909.0
 30
0.0
 11
1000.0000000000001137
 21
1450.0
 31
0.0
  0
LINE
  5
9C
100
AcDbEntity
100
AcDbLine
  8
Lambourdes
 62
256
370
-1
 48
1.0
  6
BYLAYER
 10
1000.0000000000001137
 20
1450.0
 30
0.0
 11
1000.0000000000001137
 21
1500.0
 31
0.0
  0
LINE
  5
9D
100
AcDbEntity
100
AcDbLine
  8
Lambourdes
 62
256
370
-1
 48
1.0
  6
BYLAYER
 10
1000.0000000000001137
 20
1500.0
 30
0.0
 11
-441.9999999999998863
 21
1500.0
 31
0.0
  0
LINE
  5
9E
100
AcDbEntity
100
AcDbLine
  8
Lambourdes
 62
256
370
-1
 48
1.0
  6
BYLAYER
 10
-441.9999999999998863
 20
1500.0
 30
0.0
 11
-441.9999999999998863
 21
1450.0
 31
0.0
  0
LINE
  5
9F
100
AcDbEntity
100
AcDbLine
  8
Lambourdes
 62
256
370
-1
 48
1.0
  6
BYLAYER
 10
-391.9999999999998863
 20
959.0000000000001137
 30
0.0
 11
-391.9999999999998863
 21
1450.0
 31
0.0
  0
LINE
  5
A0
100
AcDbEntity
100
AcDbLine
  8
Lambourdes
 62
256
370
-1
 48
1.0
  6
BYLAYER
 10
300.0000000000001137
 20
959.0
 30
0.0
 11
300.0000000000001137
 21
1450.0
 31
0.0
  0
LINE
  5
A1
100
AcDbEntity
100
AcDbLine
  8
Lambourdes
 62
256
370
-1
 48
1.0
  6
BYLAYER
 10
400.0000000000001137
 20
959.0
 30
0.0
 11
400.0000000000001137
 21
1450.0
 31
0.0
  0
LINE
  5
A2
100
AcDbEntity
100
AcDbLine
  8
OSB18
 62
256
370
-1
 48
1.0
  6
BYLAYER
 10
-436.9999999999998863
 20
969.0000000000001137
 30
0.0
 11
-407.9999999999998863
 21
969.0000000000001137
 31
0.0
  0
LINE
  5
A3
100
AcDbEntity
100
AcDbLine
  8
OSB18
 62
256
370
-1
 48
1.0
  6
BYLAYER
 10
-25.9999999999996589
 20
914.0000000000001137
 30
0.0
 11
316.0000000000001137
 21
914.0000000000001137
 31
0.0
  0
LINE
  5
A4
100
AcDbEntity
100
AcDbLine
  8
OSB18
 62
256
370
-1
 48
1.0
  6
BYLAYER
 10
-407.9999999999998863
 20
914.0000000000001137
 30
0.0
 11
-65.9999999999996589
 21
914.0000000000001137
 31
0.0
  0
LINE
  5
A5
100
AcDbEntity
100
AcDbLine
  8
OSB18
 62
256
370
-1
 48
1.0
  6
BYLAYER
 10
384.0000000000001137
 20
914.0
 30
0.0
 11
966.0000000000001137
 21
914.0
 31
0.0
  0
LINE
  5
A6
100
AcDbEntity
100
AcDbLine
  8
OSB18
 62
256
370
-1
 48
1.0
  6
BYLAYER
 10
966.0000000000001137
 20
969.0000000000001137
 30
0.0
 11
1000.0000000000001137
 21
969.0000000000001137
 31
0.0
  0
LINE
  5
A7
100
AcDbEntity
100
AcDbLine
  8
OSB18
 62
256
370
-1
 48
1.0
  6
BYLAYER
 10
1000.0000000000001137
 20
969.0000000000001137
 30
0.0
 11
1000.0000000000001137
 21
1440.0
 31
0.0
  0
LINE
  5
A8
100
AcDbEntity
100
AcDbLine
  8
OSB18
 62
256
370
-1
 48
1.0
  6
BYLAYER
 10
1000.0000000000001137
 20
1440.0
 30
0.0
 11
960.0000000000002274
 21
1440.0
 31
0.0
  0
LINE
  5
A9
100
AcDbEntity
100
AcDbLine
  8
OSB18
 62
256
370
-1
 48
1.0
  6
BYLAYER
 10
960.0000000000002274
 20
1440.0
 30
0.0
 11
960.0000000000002274
 21
1500.0
 31
0.0
  0
LINE
  5
AA
100
AcDbEntity
100
AcDbLine
  8
OSB18
 62
256
370
-1
 48
1.0
  6
BYLAYER
 10
960.0000000000002274
 20
1500.0
 30
0.0
 11
390.0000000000001137
 21
1500.0
 31
0.0
  0
LINE
  5
AB
100
AcDbEntity
100
AcDbLine
  8
OSB18
 62
256
370
-1
 48
1.0
  6
BYLAYER
 10
-65.9999999999996021
 20
1500.0
 30
0.0
 11
-401.9999999999996589
 21
1500.0
 31
0.0
  0
LINE
  5
AC
100
AcDbEntity
100
AcDbLine
  8
OSB18
 62
256
370
-1
 48
1.0
  6
BYLAYER
 10
310.0000000000003411
 20
1500.0
 30
0.0
 11
-25.9999999999996589
 21
1500.0
 31
0.0
  0
LINE
  5
AD
100
AcDbEntity
100
AcDbLine
  8
OSB18
 62
256
370
-1
 48
1.0
  6
BYLAYER
 10
-401.9999999999996589
 20
1450.0
 30
0.0
 11
-436.9999999999998863
 21
1450.0
 31
0.0
  0
LINE
  5
AE
100
AcDbEntity
100
AcDbLine
  8
OSB18
 62
256
370
-1
 48
1.0
  6
BYLAYER
 10
-436.9999999999998863
 20
1450.0
 30
0.0
 11
-436.9999999999998863
 21
969.0000000000001137
 31
0.0
  0
LINE
  5
AF
100
AcDbEntity
100
AcDbLine
  8
Lambourdes
 62
256
370
-1
 48
1.0
  6
BYLAYER
 10
-441.9999999999998863
 20
959.0000000000001137
 30
0.0
 11
1000.0000000000001137
 21
959.0
 31
0.0
  0
LINE
  5
B0
100
AcDbEntity
100
AcDbLine
  8
Murs & Sols
 62
256
370
-1
 48
1.0
  6
BYLAYER
 10
-2000.0
 20
3000.0
 30
0.0
 11
1000.0
 21
3000.0
 31
0.0
  0
LINE
  5
B1
100
AcDbEntity
100
AcDbLine
  8
Lambourdes
 62
256
370
-1
 48
1.0
  6
BYLAYER
 10
-441.9999999999997726
 20
3000.0
 30
0.0
 11
-441.9999999999997726
 21
3040.0
 31
0.0
  0
LINE
  5
B2
100
AcDbEntity
100
AcDbLine
  8
Lambourdes
 62
256
370
-1
 48
1.0
  6
BYLAYER
 10
-391.9999999999998295
 20
3000.0
 30
0.0
 11
-391.9999999999998295
 21
3040.0
 31
0.0
  0
LINE
  5
B3
100
AcDbEntity
100
AcDbLine
  8
Lambourdes
 62
256
370
-1
 48
1.0
  6
BYLAYER
 10
300.0000000000002274
 20
3000.0
 30
0.0
 11
300.0000000000002274
 21
3040.0
 31
0.0
  0
LINE
  5
B4
100
AcDbEntity
100
AcDbLine
  8
Lambourdes
 62
256
370
-1
 48
1.0
  6
BYLAYER
 10
400.0000000000002274
 20
3000.0
 30
0.0
 11
400.0000000000002274
 21
3040.0
 31
0.0
  0
LINE
  5
B5
100
AcDbEntity
100
AcDbLine
  8
Lambourdes
 62
256
370
-1
 48
1.0
  6
BYLAYER
 10
950.0000000000002274
 20
3000.0
 30
0.0
 11
950.0000000000002274
 21
3040.0
 31
0.0
  0
LINE
  5
B6
100
AcDbEntity
100
AcDbLine
  8
Lambourdes
 62
256
370
-1
 48
1.0
  6
BYLAYER
 10
1000.0000000000002274
 20
3000.0
 30
0.0
 11
1000.0000000000002274
 21
3040.0
 31
0.0
  0
LINE
  5
B7
100
AcDbEntity
100
AcDbLine
  8
Lambourdes
 62
256
370
-1
 48
1.0
  6
BYLAYER
 10
950.0000000000002274
 20
3040.0
 30
0.0
 11
1000.0
 21
3040.0
 31
0.0
  0
LINE
  5
B8
100
AcDbEntity
100
AcDbLine
  8
Lambourdes
 62
256
370
-1
 48
1.0
  6
BYLAYER
 10
300.0000000000002274
 20
3040.0
 30
0.0
 11
400.0000000000002274
 21
3040.0
 31
0.0
  0
LINE
  5
B9
100
AcDbEntity
100
AcDbLine
  8
Lambourdes
 62
256
370
-1
 48
1.0
  6
BYLAYER
 10
-441.9999999999997726
 20
3040.0
 30
0.0
 11
-391.9999999999998295
 21
3040.0
 31
0.0
  0
LINE
  5
BA
100
AcDbEntity
100
AcDbLine
  8
Lambourdes
 62
256
370
-1
 48
1.0
  6
BYLAYER
 10
-441.9999999999997726
 20
3000.0
 30
0.0
 11
-391.9999999999998295
 21
3000.0
 31
0.0
  0
LINE
  5
BB
100
AcDbEntity
100
AcDbLine
  8
Lambourdes
 62
256
370
-1
 48
1.0
  6
BYLAYER
 10
300.0000000000002274
 20
3000.0
 30
0.0
 11
400.0000000000002274
 21
3000.0
 31
0.0
  0
LINE
  5
BC
100
AcDbEntity
100
AcDbLine
  8
Lambourdes
 62
256
370
-1
 48
1.0
  6
BYLAYER
 10
950.0000000000002274
 20
3000.0
 30
0.0
 11
1000.0000000000002274
 21
3000.0
 31
0.0
  0
LINE
  5
BD
100
AcDbEntity
100
AcDbLine
  8
Lambourdes
 62
256
370
-1
 48
1.0
  6
BYLAYER
 10
1000.0000000000002274
 20
3040.0
 30
0.0
 11
950.0000000000002274
 21
3000.0
 31
0.0
  0
LINE
  5
BE
100
AcDbEntity
100
AcDbLine
  8
Lambourdes
 62
256
370
-1
 48
1.0
  6
BYLAYER
 10
950.0000000000002274
 20
3040.0
 30
0.0
 11
1000.0
 21
3000.0
 31
0.0
  0
LINE
  5
BF
100
AcDbEntity
100
AcDbLine
  8
Lambourdes
 62
256
370
-1
 48
1.0
  6
BYLAYER
 10
400.0000000000002274
 20
3040.0
 30
0.0
 11
300.0000000000002274
 21
3000.0
 31
0.0
  0
LINE
  5
C0
100
AcDbEntity
100
AcDbLine
  8
Lambourdes
 62
256
370
-1
 48
1.0
  6
BYLAYER
 10
300.0000000000002274
 20
3040.0
 30
0.0
 11
400.0000000000002274
 21
3000.0
 31
0.0
  0
LINE
  5
C1
100
AcDbEntity
100
AcDbLine
  8
Lambourdes
 62
256
370
-1
 48
1.0
  6
BYLAYER
 10
-391.9999999999998295
 20
3040.0
 30
0.0
 11
-441.9999999999997726
 21
3000.0
 31
0.0
  0
LINE
  5
C2
100
AcDbEntity
100
AcDbLine
  8
Lambourdes
 62
256
370
-1
 48
1.0
  6
BYLAYER
 10
-441.9999999999997726
 20
3040.0
 30
0.0
 11
-391.9999999999998295
 21
3000.0
 31
0.0
  0
LINE
  5
C3
100
AcDbEntity
100
AcDbLine
  8
OSB18
 62
256
370
-1
 48
1.0
  6
BYLAYER
 10
-436.9999999999997726
 20
3040.0
 30
0.0
 11
-436.9999999999997726
 21
3058.0
 31
0.0
  0
LINE
  5
C4
100
AcDbEntity
100
AcDbLine
  8
OSB18
 62
256
370
-1
 48
1.0
  6
BYLAYER
 10
-436.9999999999997726
 20
3058.0
 30
0.0
 11
1000.0000000000004547
 21
3058.0
 31
0.0
  0
LINE
  5
C5
100
AcDbEntity
100
AcDbLine
  8
OSB18
 62
256
370
-1
 48
1.0
  6
BYLAYER
 10
1000.0000000000002274
 20
3040.0
 30
0.0
 11
1000.0000000000002274
 21
3058.0
 31
0.0
  0
LINE
  5
C6
100
AcDbEntity
100
AcDbLine
  8
OSB18
 62
256
370
-1
 48
1.0
  6
BYLAYER
 10
1000.0000000000002274
 20
3040.0
 30
0.0
 11
-436.9999999999997726
 21
3040.0
 31
0.0
  0
HATCH
  5
C7
  8
OSB18
 62
256
370
-1
 48
1.0
  6
BYLAYER
100
AcDbEntity
100
AcDbHatch
 10
0.0
 20
0.0
 30
0.0
210
0.0
220
0.0
230
1.0
  2
ANSI33
 70
0
 71
0
 91
1
 92
1
 93
4
 72
1
 10
-436.9999999999997726
 20
3040.0
 11
-436.9999999999997726
 21
3058.0
 72
1
 10
-436.9999999999997726
 20
3058.0
 11
1000.0000000000004547
 21
3058.0
 72
1
 10
1000.0000000000002274
 20
3058.0
 11
1000.0000000000002274
 21
3040.0
 72
1
 10
1000.0000000000002274
 20
3040.0
 11
-436.9999999999997726
 21
3040.0
 97
0
 75
0
 76
1
 52
0.0
 41
10.0
 77
0
 78
1
 53
45.0
 43
0.0
 44
0.0
 45
-0.0883883476483184
 46
0.0883883476483185
 79
0
 98
0
1001
ACAD
1010
0.0
1020
0.0
1030
0
  0
INSERT
  5
C8
100
AcDbEntity
100
AcDbBlockReference
  8
Montants
 62
256
370
-1
 48
1.0
  6
BYLAYER
  2
Montant_6x4
 10
390.0000000000001137
 20
1440.0
 30
0.0
 41
1.0
 42
-1.0
 43
1.0
 50
180.0
  0
INSERT
  5
C9
100
AcDbEntity
100
AcDbBlockReference
  8
Montants
 62
256
370
-1
 48
1.0
  6
BYLAYER
  2
Montant_6x4
 10
1000.0000000000001137
 20
1440.0
 30
0.0
 41
1.0
 42
-1.0
 43
1.0
 50
180.0
  0
LINE
  5
CA
100
AcDbEntity
100
AcDbLine
  8
Montants
 62
256
370
-1
 48
1.0
  6
BYLAYER
 10
350.0000000000002274
 20
3040.0
 30
0.0
 11
390.0000000000002274
 21
3040.0
 31
0.0
  0
LINE
  5
CB
100
AcDbEntity
100
AcDbLine
  8
OSB18
 62
256
370
-1
 48
1.0
  6
BYLAYER
 10
316.0000000000001137
 20
969.0000000000001137
 30
0.0
 11
384.0000000000001137
 21
969.0000000000001137
 31
0.0
  0
LINE
  5
CC
100
AcDbEntity
100
AcDbLine
  8
OSB18
 62
256
370
-1
 48
1.0
  6
BYLAYER
 10
350.0000000000001137
 20
1440.0
 30
0.0
 11
390.0000000000001137
 21
1440.0
 31
0.0
  0
LINE
  5
CD
100
AcDbEntity
100
AcDbLine
  8
OSB18
 62
256
370
-1
 48
1.0
  6
BYLAYER
 10
390.0000000000001137
 20
1440.0
 30
0.0
 11
390.0000000000001137
 21
1500.0
 31
0.0
  0
LINE
  5
CE
100
AcDbEntity
100
AcDbLine
  8
OSB18
 62
256
370
-1
 48
1.0
  6
BYLAYER
 10
-401.9999999999996589
 20
1500.0
 30
0.0
 11
-401.9999999999996589
 21
1450.0
 31
0.0
  0
LINE
  5
CF
100
AcDbEntity
100
AcDbLine
  8
OSB18
 62
256
370
-1
 48
1.0
  6
BYLAYER
 10
310.0000000000003411
 20
1500.0
 30
0.0
 11
310.0000000000003411
 21
1450.0
 31
0.0
  0
LINE
  5
D0
100
AcDbEntity
100
AcDbLine
  8
OSB18
 62
256
370
-1
 48
1.0
  6
BYLAYER
 10
-407.9999999999998863
 20
969.0000000000001137
 30
0.0
 11
-407.9999999999998863
 21
914.0000000000001137
 31
0.0
  0
LINE
  5
D1
100
AcDbEntity
100
AcDbLine
  8
OSB18
 62
256
370
-1
 48
1.0
  6
BYLAYER
 10
316.0000000000001137
 20
969.0000000000001137
 30
0.0
 11
316.0000000000001137
 21
914.0000000000001137
 31
0.0
  0
LINE
  5
D2
100
AcDbEntity
100
AcDbLine
  8
OSB18
 62
256
370
-1
 48
1.0
  6
BYLAYER
 10
384.0000000000001137
 20
969.0000000000001137
 30
0.0
 11
384.0000000000001137
 21
914.0
 31
0.0
  0
LINE
  5
D3
100
AcDbEntity
100
AcDbLine
  8
OSB18
 62
256
370
-1
 48
1.0
  6
BYLAYER
 10
966.0000000000001137
 20
914.0
 30
0.0
 11
966.0000000000001137
 21
969.0000000000001137
 31
0.0
  0
INSERT
  5
D4
100
AcDbEntity
100
AcDbBlockReference
  8
Montants
 62
256
370
-1
 48
1.0
  6
BYLAYER
  2
Montant_60x34_Hetre
 10
-407.9999999999998863
 20
909.0000000000001137
 30
0.0
  0
INSERT
  5
D5
100
AcDbEntity
100
AcDbBlockReference
  8
Montants
 62
256
370
-1
 48
1.0
  6
BYLAYER
  2
Montant_50x40
 10
350.0000000000003411
 20
1450.0
 30
0.0
  0
INSERT
  5
D6
100
AcDbEntity
100
AcDbBlockReference
  8
Montants
 62
256
370
-1
 48
1.0
  6
BYLAYER
  2
Montant_50x40
 10
-401.9999999999996589
 20
1450.0
 30
0.0
  0
INSERT
  5
D7
100
AcDbEntity
100
AcDbBlockReference
  8
Montants
 62
256
370
-1
 48
1.0
  6
BYLAYER
  2
Montant_60x34_Hetre
 10
316.0000000000001137
 20
909.0
 30
0.0
 41
1.0
 42
-1.0
 43
1.0
 50
180.0
  0
INSERT
  5
D8
100
AcDbEntity
100
AcDbBlockReference
  8
Montants
 62
256
370
-1
 48
1.0
  6
BYLAYER
  2
Montant_60x34_Hetre
 10
350.0000000000001137
 20
909.0
 30
0.0
 41
1.0
 42
-1.0
 43
1.0
 50
180.0
  0
INSERT
  5
D9
100
AcDbEntity
100
AcDbBlockReference
  8
Montants
 62
256
370
-1
 48
1.0
  6
BYLAYER
  2
Montant_60x34_Hetre
 10
966.0000000000001137
 20
909.0
 30
0.0
 41
1.0
 42
-1.0
 43
1.0
 50
180.0
  0
LINE
  5
DA
100
AcDbEntity
100
AcDbLine
  8
OSB18
 62
256
370
-1
 48
1.0
  6
BYLAYER
 10
310.0000000000003411
 20
1450.0
 30
0.0
 11
350.0000000000003411
 21
1450.0
 31
0.0
  0
LINE
  5
DB
100
AcDbEntity
100
AcDbLine
  8
OSB18
 62
256
370
-1
 48
1.0
  6
BYLAYER
 10
350.0000000000003411
 20
1450.0
 30
0.0
 11
350.0000000000001137
 21
1440.0
 31
0.0
  0
LINE
  5
DC
100
AcDbEntity
100
AcDbLine
  8
Lambourdes
 62
256
370
-1
 48
1.0
  6
BYLAYER
 10
-70.9999999999998863
 20
959.0000000000001137
 30
0.0
 11
-70.9999999999998863
 21
1450.0
 31
0.0
  0
LINE
  5
DD
100
AcDbEntity
100
AcDbLine
  8
Lambourdes
 62
256
370
-1
 48
1.0
  6
BYLAYER
 10
-20.9999999999998863
 20
959.0
 30
0.0
 11
-20.9999999999998863
 21
1450.0
 31
0.0
  0
LINE
  5
DE
100
AcDbEntity
100
AcDbLine
  8
Lambourdes
 62
256
370
-1
 48
1.0
  6
BYLAYER
 10
-70.9999999999997868
 20
3000.0
 30
0.0
 11
-70.9999999999997868
 21
3040.0
 31
0.0
  0
LINE
  5
DF
100
AcDbEntity
100
AcDbLine
  8
Lambourdes
 62
256
370
-1
 48
1.0
  6
BYLAYER
 10
-20.9999999999997904
 20
3000.0
 30
0.0
 11
-20.9999999999997868
 21
3040.0
 31
0.0
  0
LINE
  5
E0
100
AcDbEntity
100
AcDbLine
  8
Lambourdes
 62
256
370
-1
 48
1.0
  6
BYLAYER
 10
-70.9999999999997868
 20
3040.0
 30
0.0
 11
-20.9999999999997868
 21
3040.0
 31
0.0
  0
LINE
  5
E1
100
AcDbEntity
100
AcDbLine
  8
Lambourdes
 62
256
370
-1
 48
1.0
  6
BYLAYER
 10
-20.9999999999997868
 20
3040.0
 30
0.0
 11
-70.9999999999997868
 21
3000.0
 31
0.0
  0
LINE
  5
E2
100
AcDbEntity
100
AcDbLine
  8
Lambourdes
 62
256
370
-1
 48
1.0
  6
BYLAYER
 10
-70.9999999999997868
 20
3000.0
 30
0.0
 11
-20.9999999999997904
 21
3000.0
 31
0.0
  0
LINE
  5
E3
100
AcDbEntity
100
AcDbLine
  8
Lambourdes
 62
256
370
-1
 48
1.0
  6
BYLAYER
 10
-20.9999999999997904
 20
3000.0
 30
0.0
 11
-70.9999999999997868
 21
3040.0
 31
0.0
  0
LINE
  5
E4
100
AcDbEntity
100
AcDbLine
  8
Lambourdes
 62
256
370
-1
 48
1.0
  6
BYLAYER
 10
-441.9999999999997726
 20
3000.0
 30
0.0
 11
1000.0000000000002274
 21
3000.0
 31
0.0
  0
LINE
  5
E5
100
AcDbEntity
100
AcDbLine
  8
Lambourdes
 62
256
370
-1
 48
1.0
  6
BYLAYER
 10
1000.0000000000002274
 20
3000.0
 30
0.0
 11
1000.0000000000002274
 21
3040.0
 31
0.0
  0
LINE
  5
E6
100
AcDbEntity
100
AcDbLine
  8
Lambourdes
 62
256
370
-1
 48
1.0
  6
BYLAYER
 10
1000.0000000000002274
 20
3040.0
 30
0.0
 11
-441.9999999999997726
 21
3040.0
 31
0.0
  0
LINE
  5
E7
100
AcDbEntity
100
AcDbLine
  8
Lambourdes
 62
256
370
-1
 48
1.0
  6
BYLAYER
 10
-441.9999999999997726
 20
3040.0
 30
0.0
 11
-441.9999999999997726
 21
3000.0
 31
0.0
  0
LINE
  5
E8
100
AcDbEntity
100
AcDbLine
  8
Montants
 62
256
370
-1
 48
1.0
  6
BYLAYER
 10
-441.9999999999997726
 20
3040.0
 30
0.0
 11
-441.9999999999997726
 21
3257.0
 31
0.0
  0
LINE
  5
E9
100
AcDbEntity
100
AcDbLine
  8
Montants
 62
256
370
-1
 48
1.0
  6
BYLAYER
 10
-401.9999999999995453
 20
3040.0
 30
0.0
 11
-401.9999999999995453
 21
3257.0
 31
0.0
  0
LINE
  5
EA
100
AcDbEntity
100
AcDbLine
  8
Montants
 62
31
420
14858364
370
-1
 48
1.0
  6
BYLAYER
 10
-441.9999999999997726
 20
3040.0
 30
0.0
 11
-441.9999999999997726
 21
3370.0
 31
0.0
  0
LINE
  5
EB
100
AcDbEntity
100
AcDbLine
  8
Montants
 62
31
420
14858364
370
-1
 48
1.0
  6
BYLAYER
 10
-407.9999999999997726
 20
3040.0
 30
0.0
 11
-407.9999999999997726
 21
3370.0
 31
0.0
  0
LINE
  5
EC
100
AcDbEntity
100
AcDbLine
  8
Montants
 62
256
370
-1
 48
1.0
  6
BYLAYER
 10
310.0000000000004547
 20
3040.0
 30
0.0
 11
310.0000000000004547
 21
3257.0
 31
0.0
  0
LINE
  5
ED
100
AcDbEntity
100
AcDbLine
  8
Montants
 62
256
370
-1
 48
1.0
  6
BYLAYER
 10
350.0000000000002842
 20
3040.0
 30
0.0
 11
350.0000000000002842
 21
3257.0
 31
0.0
  0
LINE
  5
EE
100
AcDbEntity
100
AcDbLine
  8
Montants
 62
256
370
-1
 48
1.0
  6
BYLAYER
 10
390.0000000000002274
 20
3040.0
 30
0.0
 11
390.0000000000002842
 21
4469.1706517716665985
 31
0.0
  0
LINE
  5
EF
100
AcDbEntity
100
AcDbLine
  8
Montants
 62
31
420
14858364
370
-1
 48
1.0
  6
BYLAYER
 10
350.0000000000002842
 20
3040.0
 30
0.0
 11
350.0000000000002842
 21
3370.0
 31
0.0
  0
LINE
  5
F0
100
AcDbEntity
100
AcDbLine
  8
Montants
 62
31
420
14858364
370
-1
 48
1.0
  6
BYLAYER
 10
316.0000000000002274
 20
3040.0
 30
0.0
 11
316.0000000000002274
 21
3370.0
 31
0.0
  0
LINE
  5
F1
100
AcDbEntity
100
AcDbLine
  8
Montants
 62
256
370
-1
 48
1.0
  6
BYLAYER
 10
384.0000000000002274
 20
3040.0
 30
0.0
 11
384.0000000000002842
 21
3943.9389916779314262
 31
0.0
  0
LINE
  5
F2
100
AcDbEntity
100
AcDbLine
  8
Montants
 62
256
370
-1
 48
1.0
  6
BYLAYER
 10
966.0000000000002274
 20
3040.0
 30
0.0
 11
966.0000000000003411
 21
3937.1472029698225015
 31
0.0
  0
LINE
  5
F3
100
AcDbEntity
100
AcDbLine
  8
Montants
 62
256
370
-1
 48
1.0
  6
BYLAYER
 10
960.0000000000003411
 20
3040.0
 30
0.0
 11
960.0000000000004547
 21
4471.4345813410363917
 31
0.0
  0
LINE
  5
F4
100
AcDbEntity
100
AcDbLine
  8
Montants
 62
256
370
-1
 48
1.0
  6
BYLAYER
 10
1000.0000000000002274
 20
3040.0
 30
0.0
 11
1000.0000000000003411
 21
4475.962440479775978
 31
0.0
  0
LINE
  5
F5
100
AcDbEntity
100
AcDbLine
  8
Montants
 62
256
370
-1
 48
1.0
  6
BYLAYER
 10
-401.9999999999995453
 20
3257.0
 30
0.0
 11
-441.9999999999997726
 21
3257.0
 31
0.0
  0
LINE
  5
F6
100
AcDbEntity
100
AcDbLine
  8
Montants
 62
256
370
-1
 48
1.0
  6
BYLAYER
 10
350.0000000000002842
 20
3257.0
 30
0.0
 11
310.0000000000004547
 21
3257.0
 31
0.0
  0
LINE
  5
F7
100
AcDbEntity
100
AcDbLine
  8
Montants
 62
256
370
-1
 48
1.0
  6
BYLAYER
 10
350.0000000000002842
 20
3040.0
 30
0.0
 11
310.0000000000004547
 21
3040.0
 31
0.0
  0
LINE
  5
F8
100
AcDbEntity
100
AcDbLine
  8
Montants
 62
256
370
-1
 48
1.0
  6
BYLAYER
 10
-441.9999999999997726
 20
3040.0
 30
0.0
 11
-401.9999999999995453
 21
3040.0
 31
0.0
  0
LINE
  5
F9
100
AcDbEntity
100
AcDbLine
  8
Montants
 62
31
420
14858364
370
-1
 48
1.0
  6
BYLAYER
 10
-441.9999999999997726
 20
3040.0
 30
0.0
 11
-407.9999999999997726
 21
3040.0
 31
0.0
  0
LINE
  5
FA
100
AcDbEntity
100
AcDbLine
  8
Montants
 62
31
420
14858364
370
-1
 48
1.0
  6
BYLAYER
 10
-441.9999999999997726
 20
3370.0
 30
0.0
 11
-407.9999999999997726
 21
3370.0
 31
0.0
  0
LINE
  5
FB
100
AcDbEntity
100
AcDbLine
  8
Montants
 62
31
420
14858364
370
-1
 48
1.0
  6
BYLAYER
 10
316.0000000000002274
 20
3370.0
 30
0.0
 11
350.0000000000002274
 21
3370.0
 31
0.0
  0
LINE
  5
FC
100
AcDbEntity
100
AcDbLine
  8
Montants
 62
31
420
14858364
370
-1
 48
1.0
  6
BYLAYER
 10
350.0000000000002274
 20
3040.0
 30
0.0
 11
316.0000000000002274
 21
3040.0
 31
0.0
  0
LINE
  5
FD
100
AcDbEntity
100
AcDbLine
  8
TraversesNiveauVMC
 62
31
420
14858364
370
-1
 48
1.0
  6
BYLAYER
 10
-441.9999999999997726
 20
3310.0
 30
0.0
 11
-47.9999999999997726
 21
3310.0
 31
0.0
  0
LINE
  5
FE
100
AcDbEntity
100
AcDbLine
  8
TraversesNiveauVMC
 62
31
420
14858364
370
-1
 48
1.0
  6
BYLAYER
 10
-43.9999999999997726
 20
3310.0
 30
0.0
 11
350.0000000000002842
 21
3310.0
 31
0.0
  0
LINE
  5
FF
100
AcDbEntity
100
AcDbLine
  8
TraversesNiveauVMC
 62
31
420
14858364
370
-1
 48
1.0
  6
BYLAYER
 10
350.0000000000002842
 20
3310.0
 30
0.0
 11
350.0000000000002842
 21
3370.0
 31
0.0
  0
LINE
  5
100
100
AcDbEntity
100
AcDbLine
  8
TraversesNiveauVMC
 62
31
420
14858364
370
-1
 48
1.0
  6
BYLAYER
 10
-441.9999999999997726
 20
3310.0
 30
0.0
 11
-441.9999999999997726
 21
3370.0
 31
0.0
  0
LINE
  5
101
100
AcDbEntity
100
AcDbLine
  8
FibreBois
 62
256
370
-1
 48
1.0
  6
BYLAYER
 10
-441.9999999999997726
 20
3352.0
 30
0.0
 11
350.0000000000002842
 21
3352.0
 31
0.0
  0
LINE
  5
102
100
AcDbEntity
100
AcDbLine
  8
FibreBois
 62
256
370
-1
 48
1.0
  6
BYLAYER
 10
-441.9999999999997726
 20
3352.0
 30
0.0
 11
-441.9999999999997726
 21
3330.0
 31
0.0
  0
LINE
  5
103
100
AcDbEntity
100
AcDbLine
  8
FibreBois
 62
256
370
-1
 48
1.0
  6
BYLAYER
 10
-441.9999999999997726
 20
3330.0
 30
0.0
 11
350.0000000000002842
 21
3330.0
 31
0.0
  0
LINE
  5
104
100
AcDbEntity
100
AcDbLine
  8
FibreBois
 62
256
370
-1
 48
1.0
  6
BYLAYER
 10
350.0000000000002842
 20
3330.0
 30
0.0
 11
350.0000000000002842
 21
3352.0
 31
0.0
  0
HATCH
  5
105
  8
FibreBois
 62
256
370
-1
 48
1.0
  6
BYLAYER
100
AcDbEntity
100
AcDbHatch
 10
0.0
 20
0.0
 30
0.0
210
0.0
220
0.0
230
1.0
  2
ANSI33
 70
0
 71
0
 91
1
 92
1
 93
4
 72
1
 10
-441.9999999999997726
 20
3352.0
 11
350.0000000000002842
 21
3352.0
 72
1
 10
350.0000000000002842
 20
3352.0
 11
350.0000000000002842
 21
3330.0
 72
1
 10
350.0000000000002842
 20
3330.0
 11
-441.9999999999997726
 21
3330.0
 72
1
 10
-441.9999999999997726
 20
3330.0
 11
-441.9999999999997726
 21
3352.0
 97
0
 75
0
 76
1
 52
0.0
 41
10.0
 77
0
 78
1
 53
45.0
 43
0.0
 44
0.0
 45
-0.0883883476483184
 46
0.0883883476483185
 79
0
 98
0
1001
ACAD
1010
0.0
1020
0.0
1030
0
  0
LINE
  5
106
100
AcDbEntity
100
AcDbLine
  8
Montants
 62
31
420
14858364
370
-1
 48
1.0
  6
BYLAYER
 10
-65.9999999999996589
 20
3370.0
 30
0.0
 11
-65.9999999999996589
 21
3040.0
 31
0.0
  0
LINE
  5
107
100
AcDbEntity
100
AcDbLine
  8
Montants
 62
31
420
14858364
370
-1
 48
1.0
  6
BYLAYER
 10
-25.9999999999996589
 20
3370.0
 30
0.0
 11
-25.9999999999996589
 21
3040.0
 31
0.0
  0
LINE
  5
108
100
AcDbEntity
100
AcDbLine
  8
Montants
 62
31
420
14858364
370
-1
 48
1.0
  6
BYLAYER
 10
-65.9999999999996589
 20
3370.0
 30
0.0
 11
-25.9999999999996589
 21
3370.0
 31
0.0
  0
LINE
  5
109
100
AcDbEntity
100
AcDbLine
  8
Montants
 62
31
420
14858364
370
-1
 48
1.0
  6
BYLAYER
 10
-65.9999999999996589
 20
3040.0
 30
0.0
 11
-25.9999999999996589
 21
3040.0
 31
0.0
  0
LINE
  5
10A
100
AcDbEntity
100
AcDbLine
  8
TraversesNiveauVMC
 62
31
420
14858364
370
-1
 48
1.0
  6
BYLAYER
 10
-441.9999999999997726
 20
3370.0
 30
0.0
 11
-47.9999999999997655
 21
3370.0
 31
0.0
  0
LINE
  5
10B
100
AcDbEntity
100
AcDbLine
  8
TraversesNiveauVMC
 62
31
420
14858364
370
-1
 48
1.0
  6
BYLAYER
 10
-43.9999999999997655
 20
3370.0
 30
0.0
 11
350.0000000000002842
 21
3370.0
 31
0.0
  0
LINE
  5
10C
100
AcDbEntity
100
AcDbLine
  8
Montants
 62
31
420
14858364
370
-1
 48
1.0
  6
BYLAYER
 10
-441.9999999999997726
 20
3310.0
 30
0.0
 11
-441.9999999999997726
 21
3370.0
 31
0.0
  0
LINE
  5
10D
100
AcDbEntity
100
AcDbLine
  8
TraversesNiveauVMC
 62
31
420
14858364
370
-1
 48
1.0
  6
BYLAYER
 10
-47.9999999999997726
 20
3310.0
 30
0.0
 11
-47.9999999999997655
 21
3370.0
 31
0.0
  0
LINE
  5
10E
100
AcDbEntity
100
AcDbLine
  8
TraversesNiveauVMC
 62
31
420
14858364
370
-1
 48
1.0
  6
BYLAYER
 10
-43.9999999999997726
 20
3310.0
 30
0.0
 11
-43.9999999999997655
 21
3370.0
 31
0.0
  0
INSERT
  5
10F
100
AcDbEntity
100
AcDbBlockReference
  8
Montants
 62
256
370
-1
 48
1.0
  6
BYLAYER
  2
Montant_6x4_Hetre
 10
-25.9999999999996589
 20
909.0
 30
0.0
  0
LINE
  5
110
100
AcDbEntity
100
AcDbLine
  8
OSB18
 62
256
370
-1
 48
1.0
  6
BYLAYER
 10
-25.9999999999996589
 20
914.0000000000001137
 30
0.0
 11
-25.9999999999996412
 21
969.0
 31
0.0
  0
LINE
  5
111
100
AcDbEntity
100
AcDbLine
  8
OSB18
 62
256
370
-1
 48
1.0
  6
BYLAYER
 10
-25.9999999999996412
 20
969.0
 30
0.0
 11
-65.9999999999996447
 21
969.0
 31
0.0
  0
LINE
  5
112
100
AcDbEntity
100
AcDbLine
  8
OSB18
 62
256
370
-1
 48
1.0
  6
BYLAYER
 10
-65.9999999999996447
 20
969.0
 30
0.0
 11
-65.9999999999996589
 21
914.0000000000001137
 31
0.0
  0
LINE
  5
113
100
AcDbEntity
100
AcDbLine
  8
TraversesNiveauVMC
 62
256
370
-1
 48
1.0
  6
BYLAYER
 10
-441.9999999999997726
 20
3330.0
 30
0.0
 11
350.0000000000002842
 21
3330.0
 31
0.0
  0
LINE
  5
114
100
AcDbEntity
100
AcDbLine
  8
TraversesNiveauVMC
 62
256
370
-1
 48
1.0
  6
BYLAYER
 10
-441.9999999999997726
 20
3257.0
 30
0.0
 11
350.0000000000002842
 21
3257.0
 31
0.0
  0
LINE
  5
115
100
AcDbEntity
100
AcDbLine
  8
TraversesNiveauVMC
 62
256
370
-1
 48
1.0
  6
BYLAYER
 10
-441.9999999999997726
 20
3257.0
 30
0.0
 11
-441.9999999999997726
 21
3330.0
 31
0.0
  0
LINE
  5
116
100
AcDbEntity
100
AcDbLine
  8
TraversesNiveauVMC
 62
256
370
-1
 48
1.0
  6
BYLAYER
 10
350.0000000000002842
 20
3257.0
 30
0.0
 11
350.0000000000002842
 21
3330.0
 31
0.0
  0
LINE
  5
117
100
AcDbEntity
100
AcDbLine
  8
Montants
 62
256
370
-1
 48
1.0
  6
BYLAYER
 10
-25.9999999999996589
 20
3040.0
 30
0.0
 11
-25.9999999999996589
 21
3257.0
 31
0.0
  0
LINE
  5
118
100
AcDbEntity
100
AcDbLine
  8
Montants
 62
256
370
-1
 48
1.0
  6
BYLAYER
 10
-25.9999999999996589
 20
3257.0
 30
0.0
 11
-65.9999999999996589
 21
3257.0
 31
0.0
  0
LINE
  5
119
100
AcDbEntity
100
AcDbLine
  8
Montants
 62
256
370
-1
 48
1.0
  6
BYLAYER
 10
-65.9999999999996589
 20
3257.0
 30
0.0
 11
-65.9999999999996589
 21
3040.0
 31
0.0
  0
LINE
  5
11A
100
AcDbEntity
100
AcDbLine
  8
Montants
 62
256
370
-1
 48
1.0
  6
BYLAYER
 10
-65.9999999999996589
 20
3040.0
 30
0.0
 11
-25.9999999999996589
 21
3040.0
 31
0.0
  0
LINE
  5
11B
100
AcDbEntity
100
AcDbLine
  8
OSB18
 62
256
370
-1
 48
1.0
  6
BYLAYER
 10
-25.9999999999996589
 20
1500.0
 30
0.0
 11
-25.9999999999996589
 21
1450.0
 31
0.0
  0
LINE
  5
11C
100
AcDbEntity
100
AcDbLine
  8
OSB18
 62
256
370
-1
 48
1.0
  6
BYLAYER
 10
-25.9999999999996589
 20
1450.0
 30
0.0
 11
-65.9999999999996589
 21
1450.0
 31
0.0
  0
LINE
  5
11D
100
AcDbEntity
100
AcDbLine
  8
OSB18
 62
256
370
-1
 48
1.0
  6
BYLAYER
 10
-65.9999999999996589
 20
1450.0
 30
0.0
 11
-65.9999999999996447
 21
1500.0
 31
0.0
  0
HATCH
  5
11E
  8
OSB18
 62
256
370
-1
 48
1.0
  6
BYLAYER
100
AcDbEntity
100
AcDbHatch
 10
0.0
 20
0.0
 30
0.0
210
0.0
220
0.0
230
1.0
  2
ANSI33
 70
0
 71
0
 91
1
 92
1
 93
30
 72
1
 10
310.0000000000003411
 20
1500.0
 11
-25.9999999999996589
 21
1500.0
 72
1
 10
-25.9999999999996589
 20
1500.0
 11
-25.9999999999996589
 21
1450.0
 72
1
 10
-25.9999999999996589
 20
1450.0
 11
-65.9999999999996589
 21
1450.0
 72
1
 10
-65.9999999999996589
 20
1450.0
 11
-65.9999999999996447
 21
1500.0
 72
1
 10
-65.9999999999996021
 20
1500.0
 11
-401.9999999999996589
 21
1500.0
 72
1
 10
-401.9999999999996589
 20
1500.0
 11
-401.9999999999996589
 21
1450.0
 72
1
 10
-401.9999999999996589
 20
1450.0
 11
-436.9999999999998863
 21
1450.0
 72
1
 10
-436.9999999999998863
 20
1450.0
 11
-436.9999999999998863
 21
969.0000000000001137
 72
1
 10
-436.9999999999998863
 20
969.0000000000001137
 11
-407.9999999999998863
 21
969.0000000000001137
 72
1
 10
-407.9999999999998863
 20
969.0000000000001137
 11
-407.9999999999998863
 21
914.0000000000001137
 72
1
 10
-407.9999999999998863
 20
914.0000000000001137
 11
-65.9999999999996589
 21
914.0000000000001137
 72
1
 10
-65.9999999999996589
 20
914.0000000000001137
 11
-65.9999999999996447
 21
969.0
 72
1
 10
-65.9999999999996447
 20
969.0
 11
-25.9999999999996412
 21
969.0
 72
1
 10
-25.9999999999996412
 20
969.0
 11
-25.9999999999996589
 21
914.0000000000001137
 72
1
 10
-25.9999999999996589
 20
914.0000000000001137
 11
316.0000000000001137
 21
914.0000000000001137
 72
1
 10
316.0000000000001137
 20
914.0000000000001137
 11
316.0000000000001137
 21
969.0000000000001137
 72
1
 10
316.0000000000001137
 20
969.0000000000001137
 11
384.0000000000001137
 21
969.0000000000001137
 72
1
 10
384.0000000000001137
 20
969.0000000000001137
 11
384.0000000000001137
 21
914.0
 72
1
 10
384.0000000000001137
 20
914.0
 11
966.0000000000001137
 21
914.0
 72
1
 10
966.0000000000001137
 20
914.0
 11
966.0000000000001137
 21
969.0000000000001137
 72
1
 10
966.0000000000001137
 20
969.0000000000001137
 11
1000.0000000000001137
 21
969.0000000000001137
 72
1
 10
1000.0000000000001137
 20
969.0000000000001137
 11
1000.0000000000001137
 21
1440.0
 72
1
 10
1000.0000000000001137
 20
1440.0
 11
960.0000000000002274
 21
1440.0
 72
1
 10
960.0000000000002274
 20
1440.0
 11
960.0000000000002274
 21
1500.0
 72
1
 10
960.0000000000002274
 20
1500.0
 11
390.0000000000001137
 21
1500.0
 72
1
 10
390.0000000000001137
 20
1500.0
 11
390.0000000000001137
 21
1440.0
 72
1
 10
390.0000000000001137
 20
1440.0
 11
350.0000000000001137
 21
1440.0
 72
1
 10
350.0000000000001137
 20
1440.0
 11
350.0000000000003411
 21
1450.0
 72
1
 10
350.0000000000003411
 20
1450.0
 11
310.0000000000003411
 21
1450.0
 72
1
 10
310.0000000000003411
 20
1450.0
 11
310.0000000000003411
 21
1500.0
 97
0
 75
0
 76
1
 52
0.0
 41
10.0
 77
0
 78
1
 53
45.0
 43
0.0
 44
0.0
 45
-0.0883883476483184
 46
0.0883883476483185
 79
0
 98
0
1001
ACAD
1010
0.0
1020
0.0
1030
0
  0
LINE
  5
11F
100
AcDbEntity
100
AcDbLine
  8
OSB18
 62
256
370
-1
 48
1.0
  6
BYLAYER
 10
-441.9999999999997726
 20
3352.0
 30
0.0
 11
-441.9999999999997726
 21
3370.0
 31
0.0
  0
LINE
  5
120
100
AcDbEntity
100
AcDbLine
  8
OSB18
 62
256
370
-1
 48
1.0
  6
BYLAYER
 10
-441.9999999999997726
 20
3370.0
 30
0.0
 11
350.0000000000002842
 21
3370.0
 31
0.0
  0
LINE
  5
121
100
AcDbEntity
100
AcDbLine
  8
OSB18
 62
256
370
-1
 48
1.0
  6
BYLAYER
 10
350.0000000000002842
 20
3370.0
 30
0.0
 11
350.0000000000002842
 21
3352.0
 31
0.0
  0
LINE
  5
122
100
AcDbEntity
100
AcDbLine
  8
OSB18
 62
256
370
-1
 48
1.0
  6
BYLAYER
 10
350.0000000000002842
 20
3352.0
 30
0.0
 11
-441.9999999999997726
 21
3352.0
 31
0.0
  0
HATCH
  5
123
  8
OSB18
 62
256
370
-1
 48
1.0
  6
BYLAYER
100
AcDbEntity
100
AcDbHatch
 10
0.0
 20
0.0
 30
0.0
210
0.0
220
0.0
230
1.0
  2
ANSI33
 70
0
 71
0
 91
1
 92
1
 93
4
 72
1
 10
-441.9999999999997726
 20
3352.0
 11
-441.9999999999997726
 21
3370.0
 72
1
 10
-441.9999999999997726
 20
3370.0
 11
350.0000000000002842
 21
3370.0
 72
1
 10
350.0000000000002842
 20
3370.0
 11
350.0000000000002842
 21
3352.0
 72
1
 10
350.0000000000002842
 20
3352.0
 11
-441.9999999999997726
 21
3352.0
 97
0
 75
0
 76
1
 52
0.0
 41
10.0
 77
0
 78
1
 53
45.0
 43
0.0
 44
0.0
 45
-0.0883883476483184
 46
0.0883883476483185
 79
0
 98
0
1001
ACAD
1010
0.0
1020
0.0
1030
0
  0
LINE
  5
124
100
AcDbEntity
100
AcDbLine
  8
OSB18 Niveau VMC
 62
256
370
-1
 48
1.0
  6
BYLAYER
 10
-441.9999999999998863
 20
1500.0
 30
0.0
 11
-441.9999999999998863
 21
924.0
 31
0.0
  0
LINE
  5
125
100
AcDbEntity
100
AcDbLine
  8
OSB18 Niveau VMC
 62
256
370
-1
 48
1.0
  6
BYLAYER
 10
-441.9999999999998863
 20
924.0000000000001137
 30
0.0
 11
350.0000000000001137
 21
924.0
 31
0.0
  0
LINE
  5
126
100
AcDbEntity
100
AcDbLine
  8
OSB18 Niveau VMC
 62
256
370
-1
 48
1.0
  6
BYLAYER
 10
350.0000000000001137
 20
924.0
 30
0.0
 11
350.0000000000003411
 21
1500.0
 31
0.0
  0
LINE
  5
127
100
AcDbEntity
100
AcDbLine
  8
OSB18 Niveau VMC
 62
256
370
-1
 48
1.0
  6
BYLAYER
 10
350.0000000000003411
 20
1500.0
 30
0.0
 11
-441.9999999999998863
 21
1500.0
 31
0.0
  0
HATCH
  5
128
  8
OSB18 Niveau VMC
 62
256
370
-1
 48
1.0
  6
BYLAYER
100
AcDbEntity
100
AcDbHatch
 10
0.0
 20
0.0
 30
0.0
210
0.0
220
0.0
230
1.0
  2
ANSI33
 70
0
 71
0
 91
1
 92
1
 93
4
 72
1
 10
-441.9999999999998863
 20
1500.0
 11
-441.9999999999998863
 21
924.0
 72
1
 10
-441.9999999999998863
 20
924.0000000000001137
 11
350.0000000000001137
 21
924.0
 72
1
 10
350.0000000000001137
 20
924.0
 11
350.0000000000003411
 21
1500.0
 72
1
 10
350.0000000000003411
 20
1500.0
 11
-441.9999999999998863
 21
1500.0
 97
0
 75
0
 76
1
 52
0.0
 41
10.0
 77
0
 78
1
 53
45.0
 43
0.0
 44
0.0
 45
-0.0883883476483184
 46
0.0883883476483185
 79
0
 98
0
1001
ACAD
1010
0.0
1020
0.0
1030
0
  0
LINE
  5
129
100
AcDbEntity
100
AcDbLine
  8
TraversesNiveauVMC
 62
31
420
14858364
370
-1
 48
1.0
  6
BYLAYER
 10
316.0000000000005684
 20
908.9999999999998863
 30
0.0
 11
-25.9999999999996589
 21
909.0
 31
0.0
  0
LINE
  5
12A
100
AcDbEntity
100
AcDbLine
  8
TraversesNiveauVMC
 62
31
420
14858364
370
-1
 48
1.0
  6
BYLAYER
 10
-407.9999999999998863
 20
909.0000000000001137
 30
0.0
 11
-65.9999999999996589
 21
909.0
 31
0.0
  0
LINE
  5
12B
100
AcDbEntity
100
AcDbLine
  8
TraversesNiveauVMC
 62
31
420
14858364
370
-1
 48
1.0
  6
BYLAYER
 10
-25.9999999999996589
 20
909.0
 30
0.0
 11
-25.9999999999996518
 21
924.0000000000001137
 31
0.0
  0
LINE
  5
12C
100
AcDbEntity
100
AcDbLine
  8
TraversesNiveauVMC
 62
31
420
14858364
370
-1
 48
1.0
  6
BYLAYER
 10
-65.9999999999996589
 20
909.0
 30
0.0
 11
-65.9999999999996589
 21
924.0000000000001137
 31
0.0
  0
LINE
  5
12D
100
AcDbEntity
100
AcDbLine
  8
TraversesNiveauVMC
 62
31
420
14858364
370
-1
 48
1.0
  6
BYLAYER
 10
-25.9999999999996518
 20
924.0000000000001137
 30
0.0
 11
-43.9999999999995381
 21
924.0
 31
0.0
  0
LINE
  5
12E
100
AcDbEntity
100
AcDbLine
  8
TraversesNiveauVMC
 62
31
420
14858364
370
-1
 48
1.0
  6
BYLAYER
 10
-65.9999999999996589
 20
924.0000000000001137
 30
0.0
 11
-47.9999999999997726
 21
924.0
 31
0.0
  0
LINE
  5
12F
100
AcDbEntity
100
AcDbLine
  8
TraversesNiveauVMC
 62
31
420
14858364
370
-1
 48
1.0
  6
BYLAYER
 10
-43.9999999999995381
 20
924.0000000000001137
 30
0.0
 11
-43.9999999999995239
 21
949.0
 31
0.0
  0
LINE
  5
130
100
AcDbEntity
100
AcDbLine
  8
TraversesNiveauVMC
 62
31
420
14858364
370
-1
 48
1.0
  6
BYLAYER
 10
-47.9999999999997726
 20
924.0000000000001137
 30
0.0
 11
-47.9999999999997726
 21
949.0
 31
0.0
  0
LINE
  5
131
100
AcDbEntity
100
AcDbLine
  8
TraversesNiveauVMC
 62
31
420
14858364
370
-1
 48
1.0
  6
BYLAYER
 10
316.0000000000006253
 20
949.0
 30
0.0
 11
-43.99999999999946
 21
949.0
 31
0.0
  0
LINE
  5
132
100
AcDbEntity
100
AcDbLine
  8
TraversesNiveauVMC
 62
31
420
14858364
370
-1
 48
1.0
  6
BYLAYER
 10
-407.9999999999998863
 20
949.0000000000001137
 30
0.0
 11
-47.9999999999998295
 21
949.0
 31
0.0
  0
LINE
  5
133
100
AcDbEntity
100
AcDbLine
  8
TraversesNiveauVMC
 62
31
420
14858364
370
-1
 48
1.0
  6
BYLAYER
 10
316.0000000000005684
 20
908.9999999999998863
 30
0.0
 11
316.0000000000006253
 21
949.0
 31
0.0
  0
LINE
  5
134
100
AcDbEntity
100
AcDbLine
  8
TraversesNiveauVMC
 62
31
420
14858364
370
-1
 48
1.0
  6
BYLAYER
 10
-407.9999999999998863
 20
909.0000000000001137
 30
0.0
 11
-407.9999999999998863
 21
949.0000000000001137
 31
0.0
  0
LINE
  5
135
100
AcDbEntity
100
AcDbLine
  8
TraversesNiveauVMC
 62
256
370
-1
 48
1.0
  6
BYLAYER
 10
-441.9999999999996589
 20
1500.0
 30
0.0
 11
350.0000000000003411
 21
1500.0
 31
0.0
  0
LINE
  5
136
100
AcDbEntity
100
AcDbLine
  8
TraversesNiveauVMC
 62
256
370
-1
 48
1.0
  6
BYLAYER
 10
-441.9999999999996589
 20
1445.0
 30
0.0
 11
350.0000000000005684
 21
1445.0
 31
0.0
  0
LINE
  5
137
100
AcDbEntity
100
AcDbLine
  8
TraversesNiveauVMC
 62
256
370
-1
 48
1.0
  6
BYLAYER
 10
310.0000000000007958
 20
1445.0
 30
0.0
 11
350.0000000000006253
 21
1445.0
 31
0.0
  0
LINE
  5
138
100
AcDbEntity
100
AcDbLine
  8
TraversesNiveauVMC
 62
256
370
-1
 48
1.0
  6
BYLAYER
 10
-401.9999999999996589
 20
1445.0
 30
0.0
 11
-441.9999999999996589
 21
1445.0
 31
0.0
  0
LINE
  5
139
100
AcDbEntity
100
AcDbLine
  8
TraversesNiveauVMC
 62
256
370
-1
 48
1.0
  6
BYLAYER
 10
350.0000000000006253
 20
1445.0
 30
0.0
 11
350.0000000000006253
 21
938.9999999999994316
 31
0.0
  0
LINE
  5
13A
100
AcDbEntity
100
AcDbLine
  8
TraversesNiveauVMC
 62
256
370
-1
 48
1.0
  6
BYLAYER
 10
-441.9999999999996589
 20
1445.0
 30
0.0
 11
-441.9999999999998863
 21
939.0000000000001137
 31
0.0
  0
LINE
  5
13B
100
AcDbEntity
100
AcDbLine
  8
TraversesNiveauVMC
 62
256
370
-1
 48
1.0
  6
BYLAYER
 10
350.0000000000006253
 20
938.9999999999994316
 30
0.0
 11
316.0000000000005684
 21
938.9999999999994316
 31
0.0
  0
LINE
  5
13C
100
AcDbEntity
100
AcDbLine
  8
TraversesNiveauVMC
 62
256
370
-1
 48
1.0
  6
BYLAYER
 10
-441.9999999999998863
 20
939.0000000000001137
 30
0.0
 11
-407.9999999999998863
 21
939.0000000000001137
 31
0.0
  0
LINE
  5
13D
100
AcDbEntity
100
AcDbLine
  8
TraversesNiveauVMC
 62
256
370
-1
 48
1.0
  6
BYLAYER
 10
316.0000000000005684
 20
938.9999999999994316
 30
0.0
 11
316.0000000000006253
 21
949.0
 31
0.0
  0
LINE
  5
13E
100
AcDbEntity
100
AcDbLine
  8
TraversesNiveauVMC
 62
256
370
-1
 48
1.0
  6
BYLAYER
 10
-407.9999999999998863
 20
939.0000000000001137
 30
0.0
 11
-407.9999999999998863
 21
949.0000000000001137
 31
0.0
  0
LINE
  5
13F
100
AcDbEntity
100
AcDbLine
  8
TraversesNiveauVMC
 62
256
370
-1
 48
1.0
  6
BYLAYER
 10
316.0000000000006253
 20
949.0
 30
0.0
 11
310.0000000000003979
 21
948.9999999999997726
 31
0.0
  0
LINE
  5
140
100
AcDbEntity
100
AcDbLine
  8
TraversesNiveauVMC
 62
256
370
-1
 48
1.0
  6
BYLAYER
 10
-407.9999999999998863
 20
949.0000000000001137
 30
0.0
 11
-401.9999999999996589
 21
949.0000000000001137
 31
0.0
  0
LINE
  5
141
100
AcDbEntity
100
AcDbLine
  8
TraversesNiveauVMC
 62
256
370
-1
 48
1.0
  6
BYLAYER
 10
310.0000000000003979
 20
948.9999999999997726
 30
0.0
 11
310.0000000000007958
 21
1445.0
 31
0.0
  0
LINE
  5
142
100
AcDbEntity
100
AcDbLine
  8
TraversesNiveauVMC
 62
256
370
-1
 48
1.0
  6
BYLAYER
 10
-401.9999999999996589
 20
949.0000000000001137
 30
0.0
 11
-401.9999999999996589
 21
1445.0
 31
0.0
  0
LINE
  5
143
100
AcDbEntity
100
AcDbLine
  8
TraversesNiveauVMC
 62
256
370
-1
 48
1.0
  6
BYLAYER
 10
-65.9999999999996589
 20
1445.0
 30
0.0
 11
-65.9999999999996589
 21
924.0
 31
0.0
  0
LINE
  5
144
100
AcDbEntity
100
AcDbLine
  8
TraversesNiveauVMC
 62
256
370
-1
 48
1.0
  6
BYLAYER
 10
-65.9999999999996589
 20
924.0
 30
0.0
 11
-25.9999999999996518
 21
924.0000000000001137
 31
0.0
  0
LINE
  5
145
100
AcDbEntity
100
AcDbLine
  8
TraversesNiveauVMC
 62
256
370
-1
 48
1.0
  6
BYLAYER
 10
-25.9999999999996518
 20
924.0000000000001137
 30
0.0
 11
-25.9999999999996589
 21
1445.0
 31
0.0
  0
LINE
  5
146
100
AcDbEntity
100
AcDbLine
  8
TraversesNiveauVMC
 62
256
370
-1
 48
1.0
  6
BYLAYER
 10
-25.9999999999996589
 20
1445.0
 30
0.0
 11
-65.9999999999996589
 21
1445.0
 31
0.0
  0
LINE
  5
147
100
AcDbEntity
100
AcDbLine
  8
TraversesNiveauVMC
 62
256
370
-1
 48
1.0
  6
BYLAYER
 10
-441.9999999999996589
 20
1445.0
 30
0.0
 11
-441.9999999999996589
 21
1500.0
 31
0.0
  0
LINE
  5
148
100
AcDbEntity
100
AcDbLine
  8
TraversesNiveauVMC
 62
256
370
-1
 48
1.0
  6
BYLAYER
 10
350.0000000000005684
 20
1445.0
 30
0.0
 11
350.0000000000006253
 21
1500.0
 31
0.0
  0
LINE
  5
149
100
AcDbEntity
100
AcDbLine
  8
TraversesNiveauVMC
 62
256
370
-1
 48
1.0
  6
BYLAYER
 10
310.0000000000007958
 20
3265.0
 30
0.0
 11
350.0000000000002842
 21
3265.0
 31
0.0
  0
LINE
  5
14A
100
AcDbEntity
100
AcDbLine
  8
TraversesNiveauVMC
 62
256
370
-1
 48
1.0
  6
BYLAYER
 10
-65.9999999999995453
 20
3265.0
 30
0.0
 11
-25.9999999999995381
 21
3265.0
 31
0.0
  0
LINE
  5
14B
100
AcDbEntity
100
AcDbLine
  8
TraversesNiveauVMC
 62
256
370
-1
 48
1.0
  6
BYLAYER
 10
-441.9999999999997726
 20
3265.0
 30
0.0
 11
-401.9999999999994884
 21
3265.0
 31
0.0
  0
LINE
  5
14C
100
AcDbEntity
100
AcDbLine
  8
TraversesNiveauVMC
 62
256
370
-1
 48
1.0
  6
BYLAYER
 10
-401.9999999999994884
 20
3265.0
 30
0.0
 11
-401.9999999999994884
 21
3330.0
 31
0.0
  0
LINE
  5
14D
100
AcDbEntity
100
AcDbLine
  8
TraversesNiveauVMC
 62
256
370
-1
 48
1.0
  6
BYLAYER
 10
-25.9999999999995381
 20
3265.0
 30
0.0
 11
-25.9999999999995346
 21
3330.0
 31
0.0
  0
LINE
  5
14E
100
AcDbEntity
100
AcDbLine
  8
TraversesNiveauVMC
 62
256
370
-1
 48
1.0
  6
BYLAYER
 10
-65.9999999999995453
 20
3265.0
 30
0.0
 11
-65.9999999999995453
 21
3330.0
 31
0.0
  0
LINE
  5
14F
100
AcDbEntity
100
AcDbLine
  8
TraversesNiveauVMC
 62
256
370
-1
 48
1.0
  6
BYLAYER
 10
310.0000000000007958
 20
3265.0
 30
0.0
 11
310.0000000000007958
 21
3330.0
 31
0.0
  0
LINE
  5
150
100
AcDbEntity
100
AcDbLine
  8
TraversesNiveauVMC
 62
256
370
-1
 48
1.0
  6
BYLAYER
 10
310.0000000000007958
 20
3330.0
 30
0.0
 11
350.0000000000002842
 21
3330.0
 31
0.0
  0
LINE
  5
151
100
AcDbEntity
100
AcDbLine
  8
TraversesNiveauVMC
 62
256
370
-1
 48
1.0
  6
BYLAYER
 10
350.0000000000002842
 20
3330.0
 30
0.0
 11
350.0000000000002842
 21
3265.0
 31
0.0
  0
LINE
  5
152
100
AcDbEntity
100
AcDbLine
  8
TraversesNiveauVMC
 62
256
370
-1
 48
1.0
  6
BYLAYER
 10
350.0000000000002842
 20
3265.0
 30
0.0
 11
310.0000000000007958
 21
3330.0
 31
0.0
  0
LINE
  5
153
100
AcDbEntity
100
AcDbLine
  8
TraversesNiveauVMC
 62
256
370
-1
 48
1.0
  6
BYLAYER
 10
350.0000000000002842
 20
3330.0
 30
0.0
 11
310.0000000000007958
 21
3265.0
 31
0.0
  0
LINE
  5
154
100
AcDbEntity
100
AcDbLine
  8
TraversesNiveauVMC
 62
256
370
-1
 48
1.0
  6
BYLAYER
 10
-25.9999999999995381
 20
3265.0
 30
0.0
 11
-65.9999999999995453
 21
3330.0
 31
0.0
  0
LINE
  5
155
100
AcDbEntity
100
AcDbLine
  8
TraversesNiveauVMC
 62
256
370
-1
 48
1.0
  6
BYLAYER
 10
-65.9999999999995453
 20
3330.0
 30
0.0
 11
-25.9999999999995346
 21
3330.0
 31
0.0
  0
LINE
  5
156
100
AcDbEntity
100
AcDbLine
  8
TraversesNiveauVMC
 62
256
370
-1
 48
1.0
  6
BYLAYER
 10
-25.9999999999995346
 20
3330.0
 30
0.0
 11
-65.9999999999995453
 21
3265.0
 31
0.0
  0
LINE
  5
157
100
AcDbEntity
100
AcDbLine
  8
TraversesNiveauVMC
 62
256
370
-1
 48
1.0
  6
BYLAYER
 10
-441.9999999999997726
 20
3265.0
 30
0.0
 11
-401.9999999999994884
 21
3330.0
 31
0.0
  0
LINE
  5
158
100
AcDbEntity
100
AcDbLine
  8
TraversesNiveauVMC
 62
256
370
-1
 48
1.0
  6
BYLAYER
 10
-401.9999999999994884
 20
3330.0
 30
0.0
 11
-441.9999999999997726
 21
3330.0
 31
0.0
  0
LINE
  5
159
100
AcDbEntity
100
AcDbLine
  8
TraversesNiveauVMC
 62
256
370
-1
 48
1.0
  6
BYLAYER
 10
-441.9999999999997726
 20
3330.0
 30
0.0
 11
-401.9999999999994884
 21
3265.0
 31
0.0
  0
LINE
  5
15A
100
AcDbEntity
100
AcDbLine
  8
TraversesNiveauVMC
 62
256
370
-1
 48
1.0
  6
BYLAYER
 10
-441.9999999999997726
 20
3265.0
 30
0.0
 11
-441.9999999999997726
 21
3330.0
 31
0.0
  0
XLINE
  5
15B
100
AcDbEntity
100
AcDbLine
  8
TraversesNiveauVMC
 62
256
370
-1
 48
1.0
  6
BYLAYER
 10
-786.5049455087271326
 20
696.4700434759470227
 30
0.0
 11
0.7071067811865532
 21
-0.7071067811865532
 31
0.0
  0
LINE
  5
15C
100
AcDbEntity
100
AcDbLine
  8
TraversesNiveauVMC
 62
256
370
-1
 48
1.0
  6
BYLAYER
 10
-1590.0349020327798826
 20
3257.0
 30
0.0
 11
-1590.0349020327798826
 21
3330.0
 31
0.0
  0
LINE
  5
15D
100
AcDbEntity
100
AcDbLine
  8
TraversesNiveauVMC
 62
256
370
-1
 48
1.0
  6
BYLAYER
 10
-1535.0349020327798826
 20
3257.0
 30
0.0
 11
-1535.0349020327798826
 21
3330.0
 31
0.0
  0
LINE
  5
15E
100
AcDbEntity
100
AcDbLine
  8
TraversesNiveauVMC
 62
256
370
-1
 48
1.0
  6
BYLAYER
 10
-1029.0349020327801099
 20
3270.0
 30
0.0
 11
-1029.0349020327801099
 21
3330.0
 31
0.0
  0
LINE
  5
15F
100
AcDbEntity
100
AcDbLine
  8
TraversesNiveauVMC
 62
256
370
-1
 48
1.0
  6
BYLAYER
 10
-1024.0349020327798826
 20
3265.0
 30
0.0
 11
-1024.0349020327798826
 21
3330.0
 31
0.0
  0
LINE
  5
160
100
AcDbEntity
100
AcDbLine
  8
TraversesNiveauVMC
 62
256
370
-1
 48
1.0
  6
BYLAYER
 10
-1590.0349020327798826
 20
3257.0
 30
0.0
 11
-1535.0349020327796552
 21
3257.0
 31
0.0
  0
LINE
  5
161
100
AcDbEntity
100
AcDbLine
  8
TraversesNiveauVMC
 62
256
370
-1
 48
1.0
  6
BYLAYER
 10
-3442.0
 20
3257.0
 30
0.0
 11
-3347.0349020327798826
 21
3257.0
 31
0.0
  0
LINE
  5
162
100
AcDbEntity
100
AcDbLine
  8
TraversesNiveauVMC
 62
256
370
-1
 48
1.0
  6
BYLAYER
 10
-1535.0349020327798826
 20
3330.0
 30
0.0
 11
-1024.0349020327798826
 21
3330.0
 31
0.0
  0
LINE
  5
163
100
AcDbEntity
100
AcDbLine
  8
TraversesNiveauVMC
 62
256
370
-1
 48
1.0
  6
BYLAYER
 10
-1590.0349020327796552
 20
3330.0
 30
0.0
 11
-1535.0349020327798826
 21
3330.0
 31
0.0
  0
LINE
  5
164
100
AcDbEntity
100
AcDbLine
  8
TraversesNiveauVMC
 62
256
370
-1
 48
1.0
  6
BYLAYER
 10
-3442.0
 20
3330.0
 30
0.0
 11
-3420.0349020327803373
 21
3330.0
 31
0.0
  0
LINE
  5
165
100
AcDbEntity
100
AcDbLine
  8
TraversesNiveauVMC
 62
256
370
-1
 48
1.0
  6
BYLAYER
 10
-1590.0349020327796552
 20
3330.0
 30
0.0
 11
-1535.0349020327798826
 21
3257.0
 31
0.0
  0
LINE
  5
166
100
AcDbEntity
100
AcDbLine
  8
TraversesNiveauVMC
 62
256
370
-1
 48
1.0
  6
BYLAYER
 10
-1590.0349020327798826
 20
3257.0
 30
0.0
 11
-1535.0349020327798826
 21
3330.0
 31
0.0
  0
LINE
  5
167
100
AcDbEntity
100
AcDbLine
  8
Montants
 62
31
420
14858364
370
-1
 48
1.0
  6
BYLAYER
 10
-999.0349020327801099
 20
3040.0
 30
0.0
 11
-999.0349020327801099
 21
3370.0
 31
0.0
  0
LINE
  5
168
100
AcDbEntity
100
AcDbLine
  8
Montants
 62
31
420
14858364
370
-1
 48
1.0
  6
BYLAYER
 10
-1059.0349020327801099
 20
3040.0
 30
0.0
 11
-1059.0349020327801099
 21
3270.0
 31
0.0
  0
LINE
  5
169
100
AcDbEntity
100
AcDbLine
  8
Montants
 62
31
420
14858364
370
-1
 48
1.0
  6
BYLAYER
 10
-1059.0349020327803373
 20
3040.0
 30
0.0
 11
-999.0349020327803373
 21
3040.0
 31
0.0
  0
LINE
  5
16A
100
AcDbEntity
100
AcDbLine
  8
Montants
 62
31
420
14858364
370
-1
 48
1.0
  6
BYLAYER
 10
-1029.0349020327801099
 20
3370.0
 30
0.0
 11
-999.0349020327798826
 21
3370.0
 31
0.0
  0
LINE
  5
16B
100
AcDbEntity
100
AcDbLine
  8
Montants
 62
31
420
14858364
370
-1
 48
1.0
  6
BYLAYER
 10
-1059.0349020327801099
 20
3270.0
 30
0.0
 11
-1029.0349020327801099
 21
3270.0
 31
0.0
  0
LINE
  5
16C
100
AcDbEntity
100
AcDbLine
  8
Montants
 62
31
420
14858364
370
-1
 48
1.0
  6
BYLAYER
 10
-1029.0349020327801099
 20
3270.0
 30
0.0
 11
-1029.0349020327801099
 21
3370.0
 31
0.0
  0
LINE
  5
16D
100
AcDbEntity
100
AcDbLine
  8
TraversesNiveauVMC
 62
256
370
-1
 48
1.0
  6
BYLAYER
 10
-1535.0349020327798826
 20
3330.0
 30
0.0
 11
-1535.0349020327798826
 21
3265.0
 31
0.0
  0
LINE
  5
16E
100
AcDbEntity
100
AcDbLine
  8
TraversesNiveauVMC
 62
31
420
14858364
370
-1
 48
1.0
  6
BYLAYER
 10
-1039.0349020327803373
 20
3310.0
 30
0.0
 11
-999.0349020327803373
 21
3310.0
 31
0.0
  0
LINE
  5
16F
100
AcDbEntity
100
AcDbLine
  8
TraversesNiveauVMC
 62
31
420
14858364
370
-1
 48
1.0
  6
BYLAYER
 10
-1024.0349020327798826
 20
3330.0
 30
0.0
 11
-1024.0349020327798826
 21
3370.0
 31
0.0
  0
LINE
  5
170
100
AcDbEntity
100
AcDbLine
  8
TraversesNiveauVMC
 62
31
420
14858364
370
-1
 48
1.0
  6
BYLAYER
 10
-1039.0349020327801099
 20
3310.0
 30
0.0
 11
-1039.0349020327801099
 21
3330.0
 31
0.0
  0
LINE
  5
171
100
AcDbEntity
100
AcDbLine
  8
TraversesNiveauVMC
 62
31
420
14858364
370
-1
 48
1.0
  6
BYLAYER
 10
-1039.0349020327801099
 20
3330.0
 30
0.0
 11
-1024.0349020327798826
 21
3330.0
 31
0.0
  0
LINE
  5
172
100
AcDbEntity
100
AcDbLine
  8
TraversesNiveauVMC
 62
31
420
14858364
370
-1
 48
1.0
  6
BYLAYER
 10
-999.0349020327803373
 20
3310.0
 30
0.0
 11
-999.0349020327803373
 21
3370.0
 31
0.0
  0
LINE
  5
173
100
AcDbEntity
100
AcDbLine
  8
TraversesNiveauVMC
 62
31
420
14858364
370
-1
 48
1.0
  6
BYLAYER
 10
-999.0349020327803373
 20
3370.0
 30
0.0
 11
-1014.0349020327798826
 21
3370.0
 31
0.0
  0
LINE
  5
174
100
AcDbEntity
100
AcDbLine
  8
TraversesNiveauVMC
 62
256
370
-1
 48
1.0
  6
BYLAYER
 10
-1535.0349020327798826
 20
3270.0
 30
0.0
 11
-1029.0349020327801099
 21
3270.0
 31
0.0
  0
LINE
  5
175
100
AcDbEntity
100
AcDbLine
  8
TraversesNiveauVMC
 62
256
370
-1
 48
1.0
  6
BYLAYER
 10
-1535.0349020327798826
 20
3265.0
 30
0.0
 11
-1024.0349020327798826
 21
3265.0
 31
0.0
  0
LINE
  5
176
100
AcDbEntity
100
AcDbLine
  8
Evacuation
 62
256
370
-1
 48
1.0
  6
BYLAYER
 10
-43.9999999999997513
 20
3170.0
 30
0.0
 11
350.0000000000002842
 21
3170.0
 31
0.0
  0
LINE
  5
177
100
AcDbEntity
100
AcDbLine
  8
Evacuation
 62
256
370
-1
 48
1.0
  6
BYLAYER
 10
-43.9999999999997513
 20
3210.0
 30
0.0
 11
350.0000000000002842
 21
3210.0
 31
0.0
  0
ENDSEC
  0
SECTION
  2
OBJECTS
  0
DICTIONARY
  5
C
100
AcDbDictionary
280
0
281
1
  3
ACAD_GROUP
350
D
  3
ACAD_LAYOUT
350
1A
  3
ACAD_MLINESTYLE
350
17
  3
ACAD_PLOTSETTINGS
350
19
  3
ACAD_PLOTSTYLENAME
350
E
  3
AcDbVariableDictionary
350
178
  3
QCAD_OBJECTS
350
179
  0
DICTIONARY
  5
D
100
AcDbDictionary
280
0
281
1
  0
ACDBDICTIONARYWDFLT
  5
E
100
AcDbDictionary
281
1
  3
Normal
350
F
100
AcDbDictionaryWithDefault
340
F
  0
ACDBPLACEHOLDER
  5
F
  0
DICTIONARY
  5
17
100
AcDbDictionary
280
0
281
1
  3
Standard
350
18
  0
MLINESTYLE
  5
18
100
AcDbMlineStyle
  2
STANDARD
 70
0
  3

 62
256
 51
90.0
 52
90.0
 71
2
 49
0.5
 62
256
  6
BYLAYER
 49
-0.5
 62
256
  6
BYLAYER
  0
DICTIONARY
  5
19
100
AcDbDictionary
280
0
281
1
  0
DICTIONARY
  5
1A
100
AcDbDictionary
281
1
  3
Layout1
350
1E
  3
Layout2
350
26
  3
Model
350
22
  0
LAYOUT
  5
1E
100
AcDbPlotSettings
  1

  2
none_device
  4

  6

 40
0.0
 41
0.0
 42
0.0
 43
0.0
 44
0.0
 45
0.0
 46
0.0
 47
0.0
 48
0.0
 49
0.0
140
0.0
141
0.0
142
1.0
143
1.0
 70
688
 72
0
 73
0
 74
5
  7

 75
16
147
1.0
148
0.0
149
0.0
100
AcDbLayout
  1
Layout1
 70
1
 71
1
 10
0.0
 20
0.0
 11
420.0
 21
297.0
 12
0.0
 22
0.0
 32
0.0
 14
100000000000000000000.0
 24
100000000000000000000.0
 34
100000000000000000000.0
 15
-100000000000000000000.0
 25
-100000000000000000000.0
 35
-100000000000000000000.0
146
0.0
 13
0.0
 23
0.0
 33
0.0
 16
1.0
 26
0.0
 36
0.0
 17
0.0
 27
1.0
 37
0.0
 76
0
330
1B
  0
LAYOUT
  5
22
100
AcDbPlotSettings
  1

  2
none_device
  4

  6

 40
0.0
 41
0.0
 42
0.0
 43
0.0
 44
0.0
 45
0.0
 46
0.0
 47
0.0
 48
0.0
 49
0.0
140
0.0
141
0.0
142
1.0
143
1.0
 70
1712
 72
0
 73
0
 74
0
  7

 75
0
147
1.0
148
0.0
149
0.0
100
AcDbLayout
  1
Model
 70
1
 71
0
 10
0.0
 20
0.0
 11
12.0
 21
9.0
 12
0.0
 22
0.0
 32
0.0
 14
0.0
 24
0.0
 34
0.0
 15
0.0
 25
0.0
 35
0.0
146
0.0
 13
0.0
 23
0.0
 33
0.0
 16
1.0
 26
0.0
 36
0.0
 17
0.0
 27
1.0
 37
0.0
 76
0
330
1F
  0
LAYOUT
  5
26
100
AcDbPlotSettings
  1

  2
none_device
  4

  6

 40
0.0
 41
0.0
 42
0.0
 43
0.0
 44
0.0
 45
0.0
 46
0.0
 47
0.0
 48
0.0
 49
0.0
140
0.0
141
0.0
142
1.0
143
1.0
 70
688
 72
0
 73
0
 74
5
  7

 75
16
147
1.0
148
0.0
149
0.0
100
AcDbLayout
  1
Layout2
 70
1
 71
2
 10
0.0
 20
0.0
 11
12.0
 21
9.0
 12
0.0
 22
0.0
 32
0.0
 14
0.0
 24
0.0
 34
0.0
 15
0.0
 25
0.0
 35
0.0
146
0.0
 13
0.0
 23
0.0
 33
0.0
 16
1.0
 26
0.0
 36
0.0
 17
0.0
 27
1.0
 37
0.0
 76
0
330
23
  0
DICTIONARY
  5
178
100
AcDbDictionary
281
1
  3
DIMASSOC
350
17B
  3
HIDETEXT
350
17A
  0
DICTIONARYVAR
  5
17A
100
DictionaryVariables
280
0
  1
2
  0
DICTIONARYVAR
  5
17B
100
DictionaryVariables
280
0
  1
1
  0
DICTIONARY
  5
179
100
AcDbDictionary
281
1
  3
ColorSettings/BackgroundColor
350
17C
  3
ColorSettings/ColorMode
350
17D
  3
Grid/DisplayGrid00
350
17E
  3
Grid/DisplayGrid01
350
17F
  3
Grid/DisplayGrid02
350
180
  3
Grid/DisplayGrid03
350
181
  3
Grid/GridSpacingX00
350
182
  3
Grid/GridSpacingX01
350
183
  3
Grid/GridSpacingX02
350
184
  3
Grid/GridSpacingX03
350
185
  3
Grid/GridSpacingY00
350
186
  3
Grid/GridSpacingY01
350
187
  3
Grid/GridSpacingY02
350
188
  3
Grid/GridSpacingY03
350
189
  3
Grid/IsometricGrid00
350
18A
  3
Grid/IsometricGrid01
350
18B
  3
Grid/IsometricGrid02
350
18C
  3
Grid/IsometricGrid03
350
18D
  3
Grid/IsometricProjection00
350
18E
  3
Grid/IsometricProjection01
350
18F
  3
Grid/IsometricProjection02
350
190
  3
Grid/IsometricProjection03
350
191
  3
Grid/MetaGridSpacingX00
350
192
  3
Grid/MetaGridSpacingX01
350
193
  3
Grid/MetaGridSpacingX02
350
194
  3
Grid/MetaGridSpacingX03
350
195
  3
Grid/MetaGridSpacingY00
350
196
  3
Grid/MetaGridSpacingY01
350
197
  3
Grid/MetaGridSpacingY02
350
198
  3
Grid/MetaGridSpacingY03
350
199
  3
MultiPageSettings/Columns
350
19A
  3
MultiPageSettings/GlueMarginsBottom
350
19B
  3
MultiPageSettings/GlueMarginsLeft
350
19C
  3
MultiPageSettings/GlueMarginsRight
350
19D
  3
MultiPageSettings/GlueMarginsTop
350
19E
  3
MultiPageSettings/PrintCropMarks
350
19F
  3
MultiPageSettings/Rows
350
1A0
  3
PageSettings/OffsetX
350
1A1
  3
PageSettings/OffsetY
350
1A2
  3
PageSettings/PageOrientation
350
1A3
  3
PageSettings/PaperHeight
350
1A4
  3
PageSettings/PaperWidth
350
1A5
  3
PageSettings/Scale
350
1A6
  3
PageSettings/ShowPaperBorders
350
1A7
  3
QCADVersion
350
1A8
  3
UnitSettings/PaperUnit
350
1A9
  3
ViewportCenter
350
1AA
  3
ViewportHeight
350
1AB
  3
ViewportWidth
350
1AC
  0
XRECORD
  5
17C
330
179
100
AcDbXrecord
280
1
1000
Blanc
  0
XRECORD
  5
17D
330
179
100
AcDbXrecord
280
1
1000
FullColor
  0
XRECORD
  5
17E
330
179
100
AcDbXrecord
280
1
290
1
  0
XRECORD
  5
17F
330
179
100
AcDbXrecord
280
1
290
1
  0
XRECORD
  5
180
330
179
100
AcDbXrecord
280
1
290
1
  0
XRECORD
  5
181
330
179
100
AcDbXrecord
280
1
290
1
  0
XRECORD
  5
182
330
179
100
AcDbXrecord
280
1
1000
auto
  0
XRECORD
  5
183
330
179
100
AcDbXrecord
280
1
1000
auto
  0
XRECORD
  5
184
330
179
100
AcDbXrecord
280
1
1000
auto
  0
XRECORD
  5
185
330
179
100
AcDbXrecord
280
1
1000
auto
  0
XRECORD
  5
186
330
179
100
AcDbXrecord
280
1
1000
auto
  0
XRECORD
  5
187
330
179
100
AcDbXrecord
280
1
1000
auto
  0
XRECORD
  5
188
330
179
100
AcDbXrecord
280
1
1000
auto
  0
XRECORD
  5
189
330
179
100
AcDbXrecord
280
1
1000
auto
  0
XRECORD
  5
18A
330
179
100
AcDbXrecord
280
1
290
0
  0
XRECORD
  5
18B
330
179
100
AcDbXrecord
280
1
290
0
  0
XRECORD
  5
18C
330
179
100
AcDbXrecord
280
1
290
0
  0
XRECORD
  5
18D
330
179
100
AcDbXrecord
280
1
290
0
  0
XRECORD
  5
18E
330
179
100
AcDbXrecord
280
1
 90
0
  0
XRECORD
  5
18F
330
179
100
AcDbXrecord
280
1
 90
0
  0
XRECORD
  5
190
330
179
100
AcDbXrecord
280
1
 90
0
  0
XRECORD
  5
191
330
179
100
AcDbXrecord
280
1
 90
0
  0
XRECORD
  5
192
330
179
100
AcDbXrecord
280
1
1000
auto
  0
XRECORD
  5
193
330
179
100
AcDbXrecord
280
1
1000
auto
  0
XRECORD
  5
194
330
179
100
AcDbXrecord
280
1
1000
auto
  0
XRECORD
  5
195
330
179
100
AcDbXrecord
280
1
1000
auto
  0
XRECORD
  5
196
330
179
100
AcDbXrecord
280
1
1000
auto
  0
XRECORD
  5
197
330
179
100
AcDbXrecord
280
1
1000
auto
  0
XRECORD
  5
198
330
179
100
AcDbXrecord
280
1
1000
auto
  0
XRECORD
  5
199
330
179
100
AcDbXrecord
280
1
1000
auto
  0
XRECORD
  5
19A
330
179
100
AcDbXrecord
280
1
 90
1
  0
XRECORD
  5
19B
330
179
100
AcDbXrecord
280
1
 40
10.0
  0
XRECORD
  5
19C
330
179
100
AcDbXrecord
280
1
 40
10.0
  0
XRECORD
  5
19D
330
179
100
AcDbXrecord
280
1
 40
10.0
  0
XRECORD
  5
19E
330
179
100
AcDbXrecord
280
1
 40
10.0
  0
XRECORD
  5
19F
330
179
100
AcDbXrecord
280
1
290
0
  0
XRECORD
  5
1A0
330
179
100
AcDbXrecord
280
1
 90
1
  0
XRECORD
  5
1A1
330
179
100
AcDbXrecord
280
1
 40
0.0
  0
XRECORD
  5
1A2
330
179
100
AcDbXrecord
280
1
 40
0.0
  0
XRECORD
  5
1A3
330
179
100
AcDbXrecord
280
1
1000
Portrait
  0
XRECORD
  5
1A4
330
179
100
AcDbXrecord
280
1
 40
297.0
  0
XRECORD
  5
1A5
330
179
100
AcDbXrecord
280
1
 40
210.0
  0
XRECORD
  5
1A6
330
179
100
AcDbXrecord
280
1
1000
1:1
  0
XRECORD
  5
1A7
330
179
100
AcDbXrecord
280
1
290
1
  0
XRECORD
  5
1A8
330
179
100
AcDbXrecord
280
1
1000
3.15.2
  0
XRECORD
  5
1A9
330
179
100
AcDbXrecord
280
1
 90
4
  0
XRECORD
  5
1AB
330
179
100
AcDbXrecord
280
1
 40
187.3525344438535285
  0
XRECORD
  5
1AC
330
179
100
AcDbXrecord
280
1
 40
221.5761824218877791
  0
ENDSEC
  0
EOF
