999
dxflib 3.12.2.0
  0
SECTION
  2
HEADER
  9
$ACADVER
  1
AC1015
  9
$HANDSEED
  5
FFFF
  9
$DIMADEC
 70
0
  9
$DIMASZ
 40
2.5
  9
$DIMAUNIT
 70
0
  9
$DIMAZIN
 70
2
  9
$DIMDEC
 70
4
  9
$DIMEXE
 40
1.25
  9
$DIMEXO
 40
0.625
  9
$DIMGAP
 40
0.625
  9
$DIMLUNIT
 70
2
  9
$DIMSCALE
 40
30.0
  9
$DIMTSZ
 40
0.0
  9
$DIMTXT
 40
2.5
  9
$DIMZIN
 70
8
  9
$DWGCODEPAGE
  3
ANSI_1252
  9
$INSUNITS
 70
4
  9
$LTSCALE
 40
1.0
  9
$MEASUREMENT
 70
1
  9
$PDMODE
 70
0
  9
$PDSIZE
 40
0
  0
ENDSEC
  0
SECTION
  2
TABLES
  0
TABLE
  2
VPORT
  5
8
100
AcDbSymbolTable
 70
1
  0
VPORT
  5
30
100
AcDbSymbolTableRecord
100
AcDbViewportTableRecord
  2
*Active
 70
0
 10
0.0
 20
0.0
 11
1.0
 21
1.0
 12
286.3055555555554861
 22
148.5
 13
0.0
 23
0.0
 14
10.0
 24
10.0
 15
10.0
 25
10.0
 16
0.0
 26
0.0
 36
1.0
 17
0.0
 27
0.0
 37
0.0
 40
297.0
 41
1.92798353909465
 42
50.0
 43
0.0
 44
0.0
 50
0.0
 51
0.0
 71
0
 72
100
 73
1
 74
3
 75
1
 76
1
 77
0
 78
0
281
0
 65
1
110
0.0
120
0.0
130
0.0
111
1.0
121
0.0
131
0.0
112
0.0
122
1.0
132
0.0
 79
0
146
0.0
  0
ENDTAB
  0
TABLE
  2
LTYPE
  5
5
100
AcDbSymbolTable
 70
41
  0
LTYPE
  5
16
100
AcDbSymbolTableRecord
100
AcDbLinetypeTableRecord
  2
Continuous
 70
0
  3
Solid line
 72
65
 73
0
 40
0.0
  0
LTYPE
  5
31
100
AcDbSymbolTableRecord
100
AcDbLinetypeTableRecord
  2
ACAD_ISO15W100
 70
0
  3
ISO double-dash triple-dot __ __ . . . __ __ . .
 72
65
 73
10
 40
39.0
 49
12.0
 74
0
 49
-3.0
 74
0
 49
12.0
 74
0
 49
-2.9500000000000002
 74
0
 49
0.1
 74
0
 49
-2.9000000000000004
 74
0
 49
0.1
 74
0
 49
-2.9000000000000004
 74
0
 49
0.1
 74
0
 49
-2.9500000000000002
 74
0
  0
LTYPE
  5
32
100
AcDbSymbolTableRecord
100
AcDbLinetypeTableRecord
  2
DIVIDE
 70
0
  3
Divide ____ . . ____ . . ____ . . ____ . . ____
 72
65
 73
6
 40
31.75
 49
12.6999999999999993
 74
0
 49
-6.2999999999999998
 74
0
 49
0.1
 74
0
 49
-6.25
 74
0
 49
0.1
 74
0
 49
-6.2999999999999998
 74
0
  0
LTYPE
  5
33
100
AcDbSymbolTableRecord
100
AcDbLinetypeTableRecord
  2
ACAD_ISO10W100
 70
0
  3
ISO dash dot __ . __ . __ . __ . __ . __ . __ . 
 72
65
 73
4
 40
18.0
 49
12.0
 74
0
 49
-2.9500000000000002
 74
0
 49
0.1
 74
0
 49
-2.9500000000000002
 74
0
  0
LTYPE
  5
34
100
AcDbSymbolTableRecord
100
AcDbLinetypeTableRecord
  2
ACAD_ISO04W100
 70
0
  3
ISO long-dash dot ____ . ____ . ____ . ____ . _
 72
65
 73
4
 40
30.0
 49
24.0
 74
0
 49
-2.9500000000000002
 74
0
 49
0.1
 74
0
 49
-2.9500000000000002
 74
0
  0
LTYPE
  5
35
100
AcDbSymbolTableRecord
100
AcDbLinetypeTableRecord
  2
CENTER2
 70
0
  3
Center (.5x) ___ _ ___ _ ___ _ ___ _ ___ _ ___
 72
65
 73
4
 40
28.5749999999999993
 49
19.0500000000000007
 74
0
 49
-3.1749999999999998
 74
0
 49
3.1749999999999998
 74
0
 49
-3.1749999999999998
 74
0
  0
LTYPE
  5
36
100
AcDbSymbolTableRecord
100
AcDbLinetypeTableRecord
  2
ACAD_ISO11W100
 70
0
  3
ISO double-dash dot __ __ . __ __ . __ __ . __ _
 72
65
 73
6
 40
33.0
 49
12.0
 74
0
 49
-3.0
 74
0
 49
12.0
 74
0
 49
-2.9500000000000002
 74
0
 49
0.1
 74
0
 49
-2.9500000000000002
 74
0
  0
LTYPE
  5
37
100
AcDbSymbolTableRecord
100
AcDbLinetypeTableRecord
  2
HIDDEN2
 70
0
  3
Hidden (.5x) _ _ _ _ _ _ _ _ _ _ _ _ _ _ _ _ _ 
 72
65
 73
2
 40
4.7624999999999993
 49
3.1749999999999998
 74
0
 49
-1.5874999999999999
 74
0
  0
LTYPE
  5
38
100
AcDbSymbolTableRecord
100
AcDbLinetypeTableRecord
  2
BORDERX2
 70
0
  3
Border (2x) ____  ____  .  ____  ____  .  ___
 72
65
 73
6
 40
88.8999999999999915
 49
25.3999999999999986
 74
0
 49
-12.6999999999999993
 74
0
 49
25.3999999999999986
 74
0
 49
-12.6499999999999986
 74
0
 49
0.1
 74
0
 49
-12.6499999999999986
 74
0
  0
LTYPE
  5
39
100
AcDbSymbolTableRecord
100
AcDbLinetypeTableRecord
  2
ACAD_ISO05W100
 70
0
  3
ISO long-dash double-dot ____ .. ____ .. ____ . 
 72
65
 73
6
 40
33.0
 49
24.0
 74
0
 49
-2.9500000000000002
 74
0
 49
0.1
 74
0
 49
-2.9000000000000004
 74
0
 49
0.1
 74
0
 49
-2.9500000000000002
 74
0
  0
LTYPE
  5
3A
100
AcDbSymbolTableRecord
100
AcDbLinetypeTableRecord
  2
DASHDOTX2
 70
0
  3
Dash dot (2x) ____  .  ____  .  ____  .  ___
 72
65
 73
4
 40
50.7999999999999972
 49
25.3999999999999986
 74
0
 49
-12.6499999999999986
 74
0
 49
0.1
 74
0
 49
-12.6499999999999986
 74
0
  0
LTYPE
  5
3B
100
AcDbSymbolTableRecord
100
AcDbLinetypeTableRecord
  2
HIDDENX2
 70
0
  3
Hidden (2x) ____ ____ ____ ____ ____ ____ ____ 
 72
65
 73
2
 40
19.0499999999999972
 49
12.6999999999999993
 74
0
 49
-6.3499999999999996
 74
0
  0
LTYPE
  5
3C
100
AcDbSymbolTableRecord
100
AcDbLinetypeTableRecord
  2
CENTERX2
 70
0
  3
Center (2x) ________  __  ________  __  _____
 72
65
 73
4
 40
101.5999999999999943
 49
63.5
 74
0
 49
-12.6999999999999993
 74
0
 49
12.6999999999999993
 74
0
 49
-12.6999999999999993
 74
0
  0
LTYPE
  5
3D
100
AcDbSymbolTableRecord
100
AcDbLinetypeTableRecord
  2
BORDER2
 70
0
  3
Border (.5x) __.__.__.__.__.__.__.__.__.__.__.
 72
65
 73
6
 40
22.2249999999999979
 49
6.3499999999999996
 74
0
 49
-3.1749999999999998
 74
0
 49
6.3499999999999996
 74
0
 49
-3.125
 74
0
 49
0.1
 74
0
 49
-3.125
 74
0
  0
LTYPE
  5
3E
100
AcDbSymbolTableRecord
100
AcDbLinetypeTableRecord
  2
DASHDOT2
 70
0
  3
Dash dot (.5x) _._._._._._._._._._._._._._._.
 72
65
 73
4
 40
12.6999999999999993
 49
6.3499999999999996
 74
0
 49
-3.125
 74
0
 49
0.1
 74
0
 49
-3.125
 74
0
  0
LTYPE
  5
3F
100
AcDbSymbolTableRecord
100
AcDbLinetypeTableRecord
  2
ACAD_ISO12W100
 70
0
  3
ISO dash double-dot __ . . __ . . __ . . __ . . 
 72
65
 73
6
 40
21.0
 49
12.0
 74
0
 49
-2.9500000000000002
 74
0
 49
0.1
 74
0
 49
-2.9000000000000004
 74
0
 49
0.1
 74
0
 49
-2.9500000000000002
 74
0
  0
LTYPE
  5
40
100
AcDbSymbolTableRecord
100
AcDbLinetypeTableRecord
  2
ACAD_ISO07W100
 70
0
  3
ISO dot . . . . . . . . . . . . . . . . . . . . 
 72
65
 73
2
 40
3.0
 49
0.1
 74
0
 49
-2.8999999999999999
 74
0
  0
LTYPE
  5
41
100
AcDbSymbolTableRecord
100
AcDbLinetypeTableRecord
  2
HIDDEN
 70
0
  3
Hidden __ __ __ __ __ __ __ __ __ __ __ __ __ __
 72
65
 73
2
 40
9.5249999999999986
 49
6.3499999999999996
 74
0
 49
-3.1749999999999998
 74
0
  0
LTYPE
  5
42
100
AcDbSymbolTableRecord
100
AcDbLinetypeTableRecord
  2
ACAD_ISO06W100
 70
0
  3
ISO long-dash triple-dot ____ ... ____ ... ____
 72
65
 73
8
 40
36.0
 49
24.0
 74
0
 49
-2.9500000000000002
 74
0
 49
0.1
 74
0
 49
-2.9000000000000004
 74
0
 49
0.1
 74
0
 49
-2.9000000000000004
 74
0
 49
0.1
 74
0
 49
-2.9500000000000002
 74
0
  0
LTYPE
  5
43
100
AcDbSymbolTableRecord
100
AcDbLinetypeTableRecord
  2
CENTER
 70
0
  3
Center ____ _ ____ _ ____ _ ____ _ ____ _ ____
 72
65
 73
4
 40
50.7999999999999972
 49
31.75
 74
0
 49
-6.3499999999999996
 74
0
 49
6.3499999999999996
 74
0
 49
-6.3499999999999996
 74
0
  0
LTYPE
  5
44
100
AcDbSymbolTableRecord
100
AcDbLinetypeTableRecord
  2
DOTX2
 70
0
  3
Dot (2x) .  .  .  .  .  .  .  .  .  .  .  .  .  .
 72
65
 73
2
 40
12.6999999999999993
 49
0.1
 74
0
 49
-12.5999999999999996
 74
0
  0
LTYPE
  5
45
100
AcDbSymbolTableRecord
100
AcDbLinetypeTableRecord
  2
PHANTOM
 70
0
  3
Phantom ______  __  __  ______  __  __  ______ 
 72
65
 73
6
 40
63.5
 49
31.75
 74
0
 49
-6.3499999999999996
 74
0
 49
6.3499999999999996
 74
0
 49
-6.3499999999999996
 74
0
 49
6.3499999999999996
 74
0
 49
-6.3499999999999996
 74
0
  0
LTYPE
  5
46
100
AcDbSymbolTableRecord
100
AcDbLinetypeTableRecord
  2
ACAD_ISO08W100
 70
0
  3
ISO long-dash short-dash ____ __ ____ __ ____ _
 72
65
 73
4
 40
36.0
 49
24.0
 74
0
 49
-3.0
 74
0
 49
6.0
 74
0
 49
-3.0
 74
0
  0
LTYPE
  5
47
100
AcDbSymbolTableRecord
100
AcDbLinetypeTableRecord
  2
DASHEDX2
 70
0
  3
Dashed (2x) ____  ____  ____  ____  ____  ___
 72
65
 73
2
 40
38.0999999999999943
 49
25.3999999999999986
 74
0
 49
-12.6999999999999993
 74
0
  0
LTYPE
  5
48
100
AcDbSymbolTableRecord
100
AcDbLinetypeTableRecord
  2
ACAD_ISO02W100
 70
0
  3
ISO dash __ __ __ __ __ __ __ __ __ __ __ __ __
 72
65
 73
2
 40
15.0
 49
12.0
 74
0
 49
-3.0
 74
0
  0
LTYPE
  5
49
100
AcDbSymbolTableRecord
100
AcDbLinetypeTableRecord
  2
PHANTOM2
 70
0
  3
Phantom (.5x) ___ _ _ ___ _ _ ___ _ _ ___ _ _
 72
65
 73
6
 40
31.75
 49
15.875
 74
0
 49
-3.1749999999999998
 74
0
 49
3.1749999999999998
 74
0
 49
-3.1749999999999998
 74
0
 49
3.1749999999999998
 74
0
 49
-3.1749999999999998
 74
0
  0
LTYPE
  5
4A
100
AcDbSymbolTableRecord
100
AcDbLinetypeTableRecord
  2
DASHED2
 70
0
  3
Dashed (.5x) _ _ _ _ _ _ _ _ _ _ _ _ _ _ _ _ _ 
 72
65
 73
2
 40
9.5249999999999986
 49
6.3499999999999996
 74
0
 49
-3.1749999999999998
 74
0
  0
LTYPE
  5
4B
100
AcDbSymbolTableRecord
100
AcDbLinetypeTableRecord
  2
ACAD_ISO09W100
 70
0
  3
ISO long-dash double-short-dash ____ __ __ ____
 72
65
 73
6
 40
45.0
 49
24.0
 74
0
 49
-3.0
 74
0
 49
6.0
 74
0
 49
-3.0
 74
0
 49
6.0
 74
0
 49
-3.0
 74
0
  0
LTYPE
  5
4C
100
AcDbSymbolTableRecord
100
AcDbLinetypeTableRecord
  2
ACAD_ISO13W100
 70
0
  3
ISO double-dash double-dot __ __ . . __ __ . . _
 72
65
 73
8
 40
36.0
 49
12.0
 74
0
 49
-3.0
 74
0
 49
12.0
 74
0
 49
-2.9500000000000002
 74
0
 49
0.1
 74
0
 49
-2.9000000000000004
 74
0
 49
0.1
 74
0
 49
-2.9500000000000002
 74
0
  0
LTYPE
  5
4D
100
AcDbSymbolTableRecord
100
AcDbLinetypeTableRecord
  2
DOT2
 70
0
  3
Dot (.5x) ........................................
 72
65
 73
2
 40
3.1749999999999998
 49
0.1
 74
0
 49
-3.0749999999999997
 74
0
  0
LTYPE
  5
4E
100
AcDbSymbolTableRecord
100
AcDbLinetypeTableRecord
  2
DASHED
 70
0
  3
Dashed __ __ __ __ __ __ __ __ __ __ __ __ __ _
 72
65
 73
2
 40
19.0499999999999972
 49
12.6999999999999993
 74
0
 49
-6.3499999999999996
 74
0
  0
LTYPE
  5
4F
100
AcDbSymbolTableRecord
100
AcDbLinetypeTableRecord
  2
ACAD_ISO14W100
 70
0
  3
ISO dash triple-dot __ . . . __ . . . __ . . . _
 72
65
 73
8
 40
24.0
 49
12.0
 74
0
 49
-2.9500000000000002
 74
0
 49
0.1
 74
0
 49
-2.9000000000000004
 74
0
 49
0.1
 74
0
 49
-2.9000000000000004
 74
0
 49
0.1
 74
0
 49
-2.9500000000000002
 74
0
  0
LTYPE
  5
15
100
AcDbSymbolTableRecord
100
AcDbLinetypeTableRecord
  2
BYLAYER
 70
0
  3

 72
65
 73
0
 40
0.0
  0
LTYPE
  5
50
100
AcDbSymbolTableRecord
100
AcDbLinetypeTableRecord
  2
PHANTOMX2
 70
0
  3
Phantom (2x) ____________    ____    ____   _
 72
65
 73
6
 40
127.0
 49
63.5
 74
0
 49
-12.6999999999999993
 74
0
 49
12.6999999999999993
 74
0
 49
-12.6999999999999993
 74
0
 49
12.6999999999999993
 74
0
 49
-12.6999999999999993
 74
0
  0
LTYPE
  5
14
100
AcDbSymbolTableRecord
100
AcDbLinetypeTableRecord
  2
BYBLOCK
 70
0
  3

 72
65
 73
0
 40
0.0
  0
LTYPE
  5
51
100
AcDbSymbolTableRecord
100
AcDbLinetypeTableRecord
  2
DIVIDEX2
 70
0
  3
Divide (2x) ________  .  .  ________  .  .  _
 72
65
 73
6
 40
63.4999999999999929
 49
25.3999999999999986
 74
0
 49
-12.6499999999999986
 74
0
 49
0.1
 74
0
 49
-12.5999999999999979
 74
0
 49
0.1
 74
0
 49
-12.6499999999999986
 74
0
  0
LTYPE
  5
52
100
AcDbSymbolTableRecord
100
AcDbLinetypeTableRecord
  2
BORDER
 70
0
  3
Border __ __ . __ __ . __ __ . __ __ . __ __ .
 72
65
 73
6
 40
44.4499999999999957
 49
12.6999999999999993
 74
0
 49
-6.3499999999999996
 74
0
 49
12.6999999999999993
 74
0
 49
-6.2999999999999998
 74
0
 49
0.1
 74
0
 49
-6.2999999999999998
 74
0
  0
LTYPE
  5
53
100
AcDbSymbolTableRecord
100
AcDbLinetypeTableRecord
  2
DIVIDE2
 70
0
  3
Divide (.5x) __..__..__..__..__..__..__..__.._
 72
65
 73
6
 40
15.875
 49
6.3499999999999996
 74
0
 49
-3.125
 74
0
 49
0.1
 74
0
 49
-3.0750000000000002
 74
0
 49
0.1
 74
0
 49
-3.125
 74
0
  0
LTYPE
  5
54
100
AcDbSymbolTableRecord
100
AcDbLinetypeTableRecord
  2
DOT
 70
0
  3
Dot . . . . . . . . . . . . . . . . . . . . . . . .
 72
65
 73
2
 40
6.3499999999999996
 49
0.1
 74
0
 49
-6.25
 74
0
  0
LTYPE
  5
55
100
AcDbSymbolTableRecord
100
AcDbLinetypeTableRecord
  2
DASHDOT
 70
0
  3
Dash dot __ . __ . __ . __ . __ . __ . __ . __
 72
65
 73
4
 40
25.3999999999999986
 49
12.6999999999999993
 74
0
 49
-6.2999999999999998
 74
0
 49
0.1
 74
0
 49
-6.2999999999999998
 74
0
  0
LTYPE
  5
56
100
AcDbSymbolTableRecord
100
AcDbLinetypeTableRecord
  2
ACAD_ISO03W100
 70
0
  3
ISO dash space __    __    __    __    __    __
 72
65
 73
2
 40
30.0
 49
12.0
 74
0
 49
-18.0
 74
0
  0
ENDTAB
  0
TABLE
  2
LAYER
  5
2
100
AcDbSymbolTable
 70
6
  0
LAYER
  5
57
100
AcDbSymbolTableRecord
100
AcDbLayerTableRecord
  2
R\U+00e9f\U+00e9rences
 70
1
 62
-7
420
0
  6
Continuous
370
25
390
F
  0
LAYER
  5
58
100
AcDbSymbolTableRecord
100
AcDbLayerTableRecord
  2
lattes
 70
1
 62
-30
420
16744192
  6
Continuous
370
25
390
F
  0
LAYER
  5
59
100
AcDbSymbolTableRecord
100
AcDbLayerTableRecord
  2
CalepinageLattes
 70
0
 62
3
420
65280
  6
Continuous
370
25
390
F
  0
LAYER
  5
5A
100
AcDbSymbolTableRecord
100
AcDbLayerTableRecord
  2
Murs
 70
0
 62
7
420
0
  6
Continuous
370
25
390
F
  0
LAYER
  5
10
100
AcDbSymbolTableRecord
100
AcDbLayerTableRecord
  2
0
 70
1
 62
-7
420
16777215
  6
Continuous
370
25
390
F
  0
LAYER
  5
5B
100
AcDbSymbolTableRecord
100
AcDbLayerTableRecord
  2
Lambourdes
 70
0
 62
1
420
16711680
  6
Continuous
370
25
390
F
  0
ENDTAB
  0
TABLE
  2
STYLE
  5
3
100
AcDbSymbolTable
 70
1
  0
STYLE
  5
5C
100
AcDbSymbolTableRecord
100
AcDbTextStyleTableRecord
  2
Standard
 70
0
 40
0.0
 41
1.0
 50
0.0
 71
0
 42
2.5
  3

  4

1001
ACAD
1000
txt
1071
0
  0
ENDTAB
  0
TABLE
  2
VIEW
  5
6
100
AcDbSymbolTable
 70
0
  0
ENDTAB
  0
TABLE
  2
UCS
  5
7
100
AcDbSymbolTable
 70
0
  0
ENDTAB
  0
TABLE
  2
APPID
  5
9
100
AcDbSymbolTable
 70
1
  0
APPID
  5
12
100
AcDbSymbolTableRecord
100
AcDbRegAppTableRecord
  2
ACAD
 70
0
  0
APPID
  5
5D
100
AcDbSymbolTableRecord
100
AcDbRegAppTableRecord
  2
QCAD
 70
0
  0
ENDTAB
  0
TABLE
  2
DIMSTYLE
  5
A
100
AcDbSymbolTable
 70
1
100
AcDbDimStyleTable
 71
0
  0
DIMSTYLE
105
27
100
AcDbSymbolTableRecord
100
AcDbDimStyleTableRecord
  2
Standard
 41
2.5
 42
0.625
 43
3.75
 44
1.25
 70
0
 73
0
 74
0
 77
1
 78
8
140
2.5
141
2.5
143
0.03937007874016
147
0.625
171
3
172
1
271
2
272
2
274
3
278
44
283
0
284
8
340
5C
  0
ENDTAB
  0
TABLE
  2
BLOCK_RECORD
  5
1
100
AcDbSymbolTable
 70
1
  0
BLOCK_RECORD
  5
1F
100
AcDbSymbolTableRecord
100
AcDbBlockTableRecord
  2
*Model_Space
340
22
  0
BLOCK_RECORD
  5
1B
100
AcDbSymbolTableRecord
100
AcDbBlockTableRecord
  2
*Paper_Space
340
1E
  0
BLOCK_RECORD
  5
23
100
AcDbSymbolTableRecord
100
AcDbBlockTableRecord
  2
*Paper_Space0
340
26
  0
BLOCK_RECORD
  5
5E
100
AcDbSymbolTableRecord
100
AcDbBlockTableRecord
  2
Latte2500
340
0
  0
BLOCK_RECORD
  5
5F
100
AcDbSymbolTableRecord
100
AcDbBlockTableRecord
  2
Latte2100
340
0
  0
ENDTAB
  0
ENDSEC
  0
SECTION
  2
BLOCKS
  0
BLOCK
  5
20
100
AcDbEntity
  8
0
100
AcDbBlockBegin
  2
*Model_Space
 70
0
 10
0.0
 20
0.0
 30
0.0
  3
*Model_Space
  1

  0
ENDBLK
  5
21
100
AcDbEntity
  8
0
100
AcDbBlockEnd
  0
BLOCK
  5
1C
100
AcDbEntity
 67
1
  8
0
100
AcDbBlockBegin
  2
*Paper_Space
 70
0
 10
0.0
 20
0.0
 30
0.0
  3
*Paper_Space
  1

  0
ENDBLK
  5
1D
100
AcDbEntity
 67
1
  8
0
100
AcDbBlockEnd
  0
BLOCK
  5
24
100
AcDbEntity
  8
0
100
AcDbBlockBegin
  2
*Paper_Space0
 70
0
 10
0.0
 20
0.0
 30
0.0
  3
*Paper_Space0
  1

  0
ENDBLK
  5
25
100
AcDbEntity
  8
0
100
AcDbBlockEnd
  0
BLOCK
  5
60
100
AcDbEntity
  8
0
100
AcDbBlockBegin
  2
Latte2500
 70
0
 10
0.0
 20
0.0
 30
0.0
  3
Latte2500
  1

  0
LINE
  5
61
100
AcDbEntity
100
AcDbLine
  8
lattes
 62
256
370
-1
 48
1.0
  6
BYLAYER
 10
0.0
 20
0.0
 30
0.0
 11
50.0
 21
0.0
 31
0.0
  0
LINE
  5
62
100
AcDbEntity
100
AcDbLine
  8
lattes
 62
256
370
-1
 48
1.0
  6
BYLAYER
 10
0.0
 20
0.0
 30
0.0
 11
0.0
 21
2500.0
 31
0.0
  0
LINE
  5
63
100
AcDbEntity
100
AcDbLine
  8
lattes
 62
256
370
-1
 48
1.0
  6
BYLAYER
 10
50.0
 20
0.0
 30
0.0
 11
50.0
 21
2500.0
 31
0.0
  0
LINE
  5
64
100
AcDbEntity
100
AcDbLine
  8
lattes
 62
256
370
-1
 48
1.0
  6
BYLAYER
 10
0.0
 20
2500.0
 30
0.0
 11
50.0
 21
2500.0
 31
0.0
  0
ENDBLK
  5
65
100
AcDbEntity
  8
0
100
AcDbBlockEnd
  0
BLOCK
  5
66
100
AcDbEntity
  8
0
100
AcDbBlockBegin
  2
Latte2100
 70
0
 10
0.0
 20
0.0
 30
0.0
  3
Latte2100
  1

  0
LINE
  5
67
100
AcDbEntity
100
AcDbLine
  8
lattes
 62
2
420
16776960
370
-1
 48
1.0
  6
BYLAYER
 10
0.0
 20
0.0
 30
0.0
 11
50.0
 21
0.0
 31
0.0
  0
LINE
  5
68
100
AcDbEntity
100
AcDbLine
  8
lattes
 62
2
420
16776960
370
-1
 48
1.0
  6
BYLAYER
 10
50.0
 20
0.0
 30
0.0
 11
50.0
 21
2100.0
 31
0.0
  0
LINE
  5
69
100
AcDbEntity
100
AcDbLine
  8
lattes
 62
2
420
16776960
370
-1
 48
1.0
  6
BYLAYER
 10
50.0
 20
2100.0
 30
0.0
 11
50.0
 21
2100.0
 31
0.0
  0
LINE
  5
6A
100
AcDbEntity
100
AcDbLine
  8
lattes
 62
2
420
16776960
370
-1
 48
1.0
  6
BYLAYER
 10
50.0
 20
2100.0
 30
0.0
 11
0.0
 21
2100.0
 31
0.0
  0
LINE
  5
6B
100
AcDbEntity
100
AcDbLine
  8
lattes
 62
2
420
16776960
370
-1
 48
1.0
  6
BYLAYER
 10
0.0
 20
2100.0
 30
0.0
 11
0.0
 21
0.0
 31
0.0
  0
ENDBLK
  5
6C
100
AcDbEntity
  8
0
100
AcDbBlockEnd
  0
ENDSEC
  0
SECTION
  2
ENTITIES
  0
RAY
  5
6D
100
AcDbEntity
100
AcDbLine
  8
Murs
 62
256
370
-1
 48
1.0
  6
BYLAYER
 10
-0.0
 20
-0.0
 30
0.0
 11
-0.0000000000000001
 21
-1.0
 31
0.0
  0
RAY
  5
6E
100
AcDbEntity
100
AcDbLine
  8
Murs
 62
256
370
-1
 48
1.0
  6
BYLAYER
 10
0.0
 20
0.0
 30
0.0
 11
1.0
 21
0.0
 31
0.0
  0
RAY
  5
6F
100
AcDbEntity
100
AcDbLine
  8
0
 62
256
370
-1
 48
1.0
  6
BYLAYER
 10
0.0000000000001925
 20
-3144.0
 30
0.0
 11
1.0
 21
0.0
 31
0.0
  0
RAY
  5
70
100
AcDbEntity
100
AcDbLine
  8
0
 62
256
370
-1
 48
1.0
  6
BYLAYER
 10
0.0000000000001926
 20
-3146.0
 30
0.0
 11
0.9999999999999999
 21
0.0
 31
0.0
  0
RAY
  5
71
100
AcDbEntity
100
AcDbLine
  8
0
 62
256
370
-1
 48
1.0
  6
BYLAYER
 10
0.0000000000001614
 20
-2636.0
 30
0.0
 11
1.0
 21
0.0
 31
0.0
  0
RAY
  5
72
100
AcDbEntity
100
AcDbLine
  8
0
 62
256
370
-1
 48
1.0
  6
BYLAYER
 10
0.0000000000001658
 20
-2707.0
 30
0.0
 11
0.9999999999999999
 21
0.0
 31
0.0
  0
RAY
  5
73
100
AcDbEntity
100
AcDbLine
  8
0
 62
256
370
-1
 48
1.0
  6
BYLAYER
 10
0.0000000000001305
 20
-2132.0
 30
0.0
 11
1.0
 21
0.0
 31
0.0
  0
RAY
  5
74
100
AcDbEntity
100
AcDbLine
  8
0
 62
256
370
-1
 48
1.0
  6
BYLAYER
 10
0.0000000000001337
 20
-2183.0
 30
0.0
 11
1.0
 21
0.0
 31
0.0
  0
RAY
  5
75
100
AcDbEntity
100
AcDbLine
  8
0
 62
256
370
-1
 48
1.0
  6
BYLAYER
 10
0.0000000000001005
 20
-1641.0
 30
0.0
 11
1.0
 21
0.0
 31
0.0
  0
RAY
  5
76
100
AcDbEntity
100
AcDbLine
  8
0
 62
256
370
-1
 48
1.0
  6
BYLAYER
 10
0.0000000000001023
 20
-1671.0
 30
0.0
 11
1.0
 21
0.0
 31
0.0
  0
RAY
  5
77
100
AcDbEntity
100
AcDbLine
  8
0
 62
256
370
-1
 48
1.0
  6
BYLAYER
 10
0.0000000000000713
 20
-1164.0
 30
0.0
 11
1.0
 21
0.0
 31
0.0
  0
RAY
  5
78
100
AcDbEntity
100
AcDbLine
  8
0
 62
256
370
-1
 48
1.0
  6
BYLAYER
 10
0.0000000000000724
 20
-1182.0
 30
0.0
 11
1.0
 21
0.0
 31
0.0
  0
RAY
  5
79
100
AcDbEntity
100
AcDbLine
  8
0
 62
256
370
-1
 48
1.0
  6
BYLAYER
 10
0.0000000000000392
 20
-641.0
 30
0.0
 11
1.0
 21
0.0
 31
0.0
  0
RAY
  5
7A
100
AcDbEntity
100
AcDbLine
  8
0
 62
256
370
-1
 48
1.0
  6
BYLAYER
 10
0.0000000000000417
 20
-681.0
 30
0.0
 11
1.0
 21
0.0
 31
0.0
  0
XLINE
  5
7B
100
AcDbEntity
100
AcDbLine
  8
0
 62
256
370
-1
 48
1.0
  6
BYLAYER
 10
2816.0
 20
0.0
 30
0.0
 11
0.0
 21
1.0
 31
0.0
  0
XLINE
  5
7C
100
AcDbEntity
100
AcDbLine
  8
0
 62
256
370
-1
 48
1.0
  6
BYLAYER
 10
2806.0
 20
0.0
 30
0.0
 11
0.0
 21
1.0
 31
0.0
  0
XLINE
  5
7D
100
AcDbEntity
100
AcDbLine
  8
0
 62
256
370
-1
 48
1.0
  6
BYLAYER
 10
2792.0
 20
0.0
 30
0.0
 11
0.0
 21
1.0
 31
0.0
  0
LINE
  5
7E
100
AcDbEntity
100
AcDbLine
  8
Lambourdes
 62
256
370
-1
 48
1.0
  6
BYLAYER
 10
2816.0
 20
-2707.0
 30
0.0
 11
-0.0000000000001614
 21
-2636.0
 31
0.0
  0
LINE
  5
7F
100
AcDbEntity
100
AcDbLine
  8
Lambourdes
 62
256
370
-1
 48
1.0
  6
BYLAYER
 10
-0.0000000000001305
 20
-2132.0
 30
0.0
 11
2806.0
 21
-2183.0
 31
0.0
  0
LINE
  5
80
100
AcDbEntity
100
AcDbLine
  8
Lambourdes
 62
256
370
-1
 48
1.0
  6
BYLAYER
 10
2806.0
 20
-1671.0
 30
0.0
 11
-0.0000000000001005
 21
-1641.0
 31
0.0
  0
LINE
  5
81
100
AcDbEntity
100
AcDbLine
  8
Lambourdes
 62
256
370
-1
 48
1.0
  6
BYLAYER
 10
-0.0000000000000713
 20
-1164.0
 30
0.0
 11
2806.0
 21
-1182.0
 31
0.0
  0
LINE
  5
82
100
AcDbEntity
100
AcDbLine
  8
Lambourdes
 62
256
370
-1
 48
1.0
  6
BYLAYER
 10
2792.0
 20
-681.0
 30
0.0
 11
-0.0000000000000392
 21
-641.0
 31
0.0
  0
LINE
  5
83
100
AcDbEntity
100
AcDbLine
  8
Lambourdes
 62
256
370
-1
 48
1.0
  6
BYLAYER
 10
0.0000000000000037
 20
-60.0
 30
0.0
 11
2784.6436327739388616
 21
-60.0
 31
0.0
  0
LINE
  5
84
100
AcDbEntity
100
AcDbLine
  8
Lambourdes
 62
256
370
-1
 48
1.0
  6
BYLAYER
 10
0.0000000000000067
 20
-10.0
 30
0.0
 11
2784.6436327739388616
 21
-10.0
 31
0.0
  0
LINE
  5
85
100
AcDbEntity
100
AcDbLine
  8
Lambourdes
 62
256
370
-1
 48
1.0
  6
BYLAYER
 10
2792.7162588749138195
 20
-631.0051305309824556
 30
0.0
 11
0.7162588749138851
 21
-591.0051305309824556
 31
0.0
  0
LINE
  5
86
100
AcDbEntity
100
AcDbLine
  8
Lambourdes
 62
256
370
-1
 48
1.0
  6
BYLAYER
 10
0.3207346696645358
 20
-1114.0010287178658928
 30
0.0
 11
2806.320734669664489
 21
-1132.0010287178658928
 31
0.0
  0
LINE
  5
87
100
AcDbEntity
100
AcDbLine
  8
Lambourdes
 62
256
370
-1
 48
1.0
  6
BYLAYER
 10
2806.5345382317227632
 20
-1621.0028573928586866
 30
0.0
 11
0.5345382317228059
 21
-1591.0028573928586866
 31
0.0
  0
LINE
  5
88
100
AcDbEntity
100
AcDbLine
  8
Lambourdes
 62
256
370
-1
 48
1.0
  6
BYLAYER
 10
2817.2602529020982729
 20
-2657.0158848970718282
 30
0.0
 11
1.2602529020979101
 21
-2586.0158848970718282
 31
0.0
  0
LINE
  5
89
100
AcDbEntity
100
AcDbLine
  8
Lambourdes
 62
256
370
-1
 48
1.0
  6
BYLAYER
 10
0.9086168628244709
 20
-2082.0082565277366484
 30
0.0
 11
2806.9086168628246014
 21
-2133.0082565277366484
 31
0.0
  0
LINE
  5
8A
100
AcDbEntity
100
AcDbLine
  8
Lambourdes
 62
256
370
-1
 48
1.0
  6
BYLAYER
 10
2784.6436327739388616
 20
-60.0
 30
0.0
 11
2784.6436327739388616
 21
-10.0
 31
0.0
  0
LINE
  5
8B
100
AcDbEntity
100
AcDbLine
  8
Lambourdes
 62
256
370
-1
 48
1.0
  6
BYLAYER
 10
2792.7162588749138195
 20
-631.0051305309824556
 30
0.0
 11
2792.0
 21
-681.0
 31
0.0
  0
LINE
  5
8C
100
AcDbEntity
100
AcDbLine
  8
Lambourdes
 62
256
370
-1
 48
1.0
  6
BYLAYER
 10
2806.0
 20
-1182.0
 30
0.0
 11
2806.320734669664489
 21
-1132.0010287178658928
 31
0.0
  0
LINE
  5
8D
100
AcDbEntity
100
AcDbLine
  8
Lambourdes
 62
256
370
-1
 48
1.0
  6
BYLAYER
 10
2806.0
 20
-1671.0
 30
0.0
 11
2806.5345382317227632
 21
-1621.0028573928586866
 31
0.0
  0
LINE
  5
8E
100
AcDbEntity
100
AcDbLine
  8
Lambourdes
 62
256
370
-1
 48
1.0
  6
BYLAYER
 10
2806.0
 20
-2183.0
 30
0.0
 11
2806.9086168628246014
 21
-2133.0082565277366484
 31
0.0
  0
LINE
  5
8F
100
AcDbEntity
100
AcDbLine
  8
Lambourdes
 62
256
370
-1
 48
1.0
  6
BYLAYER
 10
2816.0
 20
-2707.0
 30
0.0
 11
2817.2602529020982729
 21
-2657.0158848970718282
 31
0.0
  0
LINE
  5
90
100
AcDbEntity
100
AcDbLine
  8
Lambourdes
 62
256
370
-1
 48
1.0
  6
BYLAYER
 10
2816.0
 20
-3146.0
 30
0.0
 11
-0.0000000000001925
 21
-3144.0
 31
0.0
  0
LINE
  5
91
100
AcDbEntity
100
AcDbLine
  8
Lambourdes
 62
256
370
-1
 48
1.0
  6
BYLAYER
 10
2816.0355113546893335
 20
-3096.0000126105646814
 30
0.0
 11
0.0355113546893664
 21
-3094.0000126105646814
 31
0.0
  0
LINE
  5
92
100
AcDbEntity
100
AcDbLine
  8
Lambourdes
 62
256
370
-1
 48
1.0
  6
BYLAYER
 10
2816.0
 20
-3146.0
 30
0.0
 11
2816.0355113546893335
 21
-3096.0000126105646814
 31
0.0
  0
INSERT
  5
93
100
AcDbEntity
100
AcDbBlockReference
  8
lattes
 62
256
370
-1
 48
1.0
  6
BYLAYER
  2
Latte2500
 10
2554.9933701320001092
 20
-5175.4112770725932933
 30
0.0
  0
INSERT
  5
94
100
AcDbEntity
100
AcDbBlockReference
  8
lattes
 62
256
370
-1
 48
1.0
  6
BYLAYER
  2
Latte2500
 10
2159.8226893491350893
 20
-4646.2513796632993035
 30
0.0
  0
INSERT
  5
95
100
AcDbEntity
100
AcDbBlockReference
  8
lattes
 62
256
370
-1
 48
1.0
  6
BYLAYER
  2
Latte2500
 10
1768.5030370834911082
 20
-4134.9063014829680469
 30
0.0
  0
INSERT
  5
96
100
AcDbEntity
100
AcDbBlockReference
  8
lattes
 62
256
370
-1
 48
1.0
  6
BYLAYER
  2
Latte2500
 10
4000.0
 20
-4000.0
 30
0.0
  0
INSERT
  5
97
100
AcDbEntity
100
AcDbBlockReference
  8
lattes
 62
256
370
-1
 48
1.0
  6
BYLAYER
  2
Latte2100
 10
0.0
 20
-2100.0
 30
0.0
  0
INSERT
  5
98
100
AcDbEntity
100
AcDbBlockReference
  8
lattes
 62
256
370
-1
 48
1.0
  6
BYLAYER
  2
Latte2100
 10
1370.3493329940752119
 20
-4745.5427661930516479
 30
0.0
  0
INSERT
  5
99
100
AcDbEntity
100
AcDbBlockReference
  8
lattes
 62
256
370
-1
 48
1.0
  6
BYLAYER
  2
Latte2100
 10
1008.7808456208119878
 20
-4225.3290758825360172
 30
0.0
  0
INSERT
  5
9A
100
AcDbEntity
100
AcDbBlockReference
  8
lattes
 62
256
370
-1
 48
1.0
  6
BYLAYER
  2
Latte2100
 10
501.8412287385939976
 20
-3721.3637157122047938
 30
0.0
  0
INSERT
  5
9B
100
AcDbEntity
100
AcDbBlockReference
  8
lattes
 62
256
370
-1
 48
1.0
  6
BYLAYER
  2
Latte2100
 10
316.2339204681566116
 20
-3241.0270422792364116
 30
0.0
  0
INSERT
  5
9C
100
AcDbEntity
100
AcDbBlockReference
  8
lattes
 62
256
370
-1
 48
1.0
  6
BYLAYER
  2
Latte2100
 10
137.6727903294377029
 20
-2718.6830765080740093
 30
0.0
  0
INSERT
  5
9D
100
AcDbEntity
100
AcDbBlockReference
  8
lattes
 62
256
370
-1
 48
1.0
  6
BYLAYER
  2
Latte2100
 10
4950.0
 20
-6100.0
 30
0.0
  0
LINE
  5
9E
100
AcDbEntity
100
AcDbLine
  8
Lambourdes
 62
256
370
-1
 48
1.0
  6
BYLAYER
 10
-0.0000000000000713
 20
-1164.0
 30
0.0
 11
0.3207346696645358
 21
-1114.0010287178658928
 31
0.0
  0
DIMENSION
  5
9F
100
AcDbEntity
  8
lattes
 62
256
370
-1
 48
1.0
  6
BYLAYER
100
AcDbDimension
 10
900.0
 20
-3721.3637157122047938
 30
0.0
 11
843.75
 21
-3432.877824201535077
 31
0.0
 70
1
 71
8
 72
2
 41
1.0
 42
0.0
  1

  3
Standard
100
AcDbAlignedDimension
 13
551.8412287385940544
 23
-3721.3637157122047938
 33
0.0
 14
551.8412287385940544
 24
-3144.3919326908653602
 34
0.0
1001
ACAD
1000
DSTYLE
1002
{
1070
144
1040
1.0
1070
40
1040
30.0
1002
}
  0
DIMENSION
  5
A0
100
AcDbEntity
  8
lattes
 62
256
370
-1
 48
1.0
  6
BYLAYER
100
AcDbDimension
 10
1300.0
 20
-4225.3290758825360172
 30
0.0
 11
1243.75
 21
-3685.0405254574689025
 31
0.0
 70
1
 71
8
 72
2
 41
1.0
 42
0.0
  1

  3
Standard
100
AcDbAlignedDimension
 13
1058.7808456208119878
 23
-4225.3290758825360172
 33
0.0
 14
1058.7808456208119878
 24
-3144.751975032401333
 34
0.0
1001
ACAD
1000
DSTYLE
1002
{
1070
144
1040
1.0
1070
40
1040
30.0
1002
}
  0
DIMENSION
  5
A1
100
AcDbEntity
  8
lattes
 62
256
370
-1
 48
1.0
  6
BYLAYER
100
AcDbDimension
 10
1600.0
 20
-4745.5427661930516479
 30
0.0
 11
1543.75
 21
-3945.2757685130718528
 31
0.0
 70
1
 71
8
 72
2
 41
1.0
 42
0.0
  1

  3
Standard
100
AcDbAlignedDimension
 13
1420.3493329940752119
 23
-4745.5427661930516479
 33
0.0
 14
1420.3493329940752119
 24
-3145.0087708330925125
 34
0.0
1001
ACAD
1000
DSTYLE
1002
{
1070
144
1040
1.0
1070
40
1040
30.0
1002
}
  0
DIMENSION
  5
A2
100
AcDbEntity
  8
lattes
 62
256
370
-1
 48
1.0
  6
BYLAYER
100
AcDbDimension
 10
2800.0
 20
-5175.4112770725932933
 30
0.0
 11
2743.75
 21
-4160.6307072046674875
 31
0.0
 70
1
 71
8
 72
2
 41
1.0
 42
0.0
  1

  3
Standard
100
AcDbAlignedDimension
 13
2604.9933701320001092
 23
-5175.4112770725932933
 33
0.0
 14
2604.9933701320001092
 24
-3145.8501373367416818
 34
0.0
1001
ACAD
1000
DSTYLE
1002
{
1070
144
1040
1.0
1070
40
1040
30.0
1002
}
  0
DIMENSION
  5
A3
100
AcDbEntity
  8
lattes
 62
256
370
-1
 48
1.0
  6
BYLAYER
100
AcDbDimension
 10
2400.0
 20
-4646.2513796632993035
 30
0.0
 11
2343.75
 21
-3895.9104280025831031
 31
0.0
 70
1
 71
8
 72
2
 41
1.0
 42
0.0
  1

  3
Standard
100
AcDbAlignedDimension
 13
2209.8226893491350893
 23
-4646.2513796632993035
 33
0.0
 14
2209.8226893491350893
 24
-3145.5694763418673574
 34
0.0
1001
ACAD
1000
DSTYLE
1002
{
1070
144
1040
1.0
1070
40
1040
30.0
1002
}
  0
DIMENSION
  5
A4
100
AcDbEntity
  8
lattes
 62
256
370
-1
 48
1.0
  6
BYLAYER
100
AcDbDimension
 10
2000.0
 20
-4134.9063014829680469
 30
0.0
 11
1943.75
 21
-3640.0989259677207883
 31
0.0
 70
1
 71
8
 72
2
 41
1.0
 42
0.0
  1

  3
Standard
100
AcDbAlignedDimension
 13
1818.5030370834911082
 23
-4134.9063014829680469
 33
0.0
 14
1818.5030370834911082
 24
-3145.2915504524739845
 34
0.0
1001
ACAD
1000
DSTYLE
1002
{
1070
144
1040
1.0
1070
40
1040
30.0
1002
}
  0
DIMENSION
  5
A5
100
AcDbEntity
  8
lattes
 62
256
370
-1
 48
1.0
  6
BYLAYER
100
AcDbDimension
 10
400.8898570603903408
 20
-618.6830765080740093
 30
0.0
 11
344.6398570603903408
 21
-309.3415382540370047
 31
0.0
 70
1
 71
8
 72
2
 41
1.0
 42
0.0
  1

  3
Standard
100
AcDbAlignedDimension
 13
187.6727903294377029
 23
-618.6830765080740093
 33
0.0
 14
187.6727903294377029
 24
0.0
 34
0.0
1001
ACAD
1000
DSTYLE
1002
{
1070
144
1040
1.0
1070
40
1040
30.0
1002
}
  0
DIMENSION
  5
A6
100
AcDbEntity
  8
lattes
 62
256
370
-1
 48
1.0
  6
BYLAYER
100
AcDbDimension
 10
644.8938395408035831
 20
-1141.0270422792364116
 30
0.0
 11
588.6438395408035831
 21
-570.5135211396182058
 31
0.0
 70
1
 71
8
 72
2
 41
1.0
 42
0.0
  1

  3
Standard
100
AcDbAlignedDimension
 13
366.2339204681566116
 23
-1141.0270422792364116
 33
0.0
 14
366.2339204681566116
 24
0.0
 34
0.0
1001
ACAD
1000
DSTYLE
1002
{
1070
144
1040
1.0
1070
40
1040
30.0
1002
}
  0
DIMENSION
  5
A7
100
AcDbEntity
  8
lattes
 62
256
370
-1
 48
1.0
  6
BYLAYER
100
AcDbDimension
 10
924.2326661012751856
 20
-1621.3637157122047938
 30
0.0
 11
867.9826661012751856
 21
-810.6818578561023969
 31
0.0
 70
1
 71
8
 72
2
 41
1.0
 42
0.0
  1

  3
Standard
100
AcDbAlignedDimension
 13
551.8412287385940544
 23
-1621.3637157122047938
 33
0.0
 14
551.8412287385940544
 24
0.0
 34
0.0
1001
ACAD
1000
DSTYLE
1002
{
1070
144
1040
1.0
1070
40
1040
30.0
1002
}
  0
DIMENSION
  5
A8
100
AcDbEntity
  8
lattes
 62
256
370
-1
 48
1.0
  6
BYLAYER
100
AcDbDimension
 10
1264.070265570782567
 20
-2125.3290758825360172
 30
0.0
 11
1207.820265570782567
 21
-1062.6645379412680086
 31
0.0
 70
1
 71
8
 72
2
 41
1.0
 42
0.0
  1

  3
Standard
100
AcDbAlignedDimension
 13
1058.7808456208119878
 23
-2125.3290758825360172
 33
0.0
 14
1058.7808456208119878
 24
0.0
 34
0.0
1001
ACAD
1000
DSTYLE
1002
{
1070
144
1040
1.0
1070
40
1040
30.0
1002
}
  0
DIMENSION
  5
A9
100
AcDbEntity
  8
lattes
 62
256
370
-1
 48
1.0
  6
BYLAYER
100
AcDbDimension
 10
1560.4845130677947509
 20
-2645.5427661930516479
 30
0.0
 11
1504.2345130677947509
 21
-1322.7713830965258239
 31
0.0
 70
1
 71
8
 72
2
 41
1.0
 42
0.0
  1

  3
Standard
100
AcDbAlignedDimension
 13
1420.3493329940752119
 23
-2645.5427661930516479
 33
0.0
 14
1420.3493329940752119
 24
0.0
 34
0.0
1001
ACAD
1000
DSTYLE
1002
{
1070
144
1040
1.0
1070
40
1040
30.0
1002
}
  0
DIMENSION
  5
AA
100
AcDbEntity
  8
lattes
 62
256
370
-1
 48
1.0
  6
BYLAYER
100
AcDbDimension
 10
1943.1406396555998981
 20
-1634.9063014829680469
 30
0.0
 11
1886.8906396555998981
 21
-817.4531507414840235
 31
0.0
 70
1
 71
8
 72
2
 41
1.0
 42
0.0
  1

  3
Standard
100
AcDbAlignedDimension
 13
1818.5030370834911082
 23
-1634.9063014829680469
 33
0.0
 14
1818.5030370834911082
 24
0.0
 34
0.0
1001
ACAD
1000
DSTYLE
1002
{
1070
144
1040
1.0
1070
40
1040
30.0
1002
}
  0
DIMENSION
  5
AB
100
AcDbEntity
  8
lattes
 62
256
370
-1
 48
1.0
  6
BYLAYER
100
AcDbDimension
 10
2329.5980486158659915
 20
-2146.2513796632993035
 30
0.0
 11
2273.3480486158659915
 21
-1073.1256898316496518
 31
0.0
 70
1
 71
8
 72
2
 41
1.0
 42
0.0
  1

  3
Standard
100
AcDbAlignedDimension
 13
2209.8226893491350893
 23
-2146.2513796632993035
 33
0.0
 14
2209.8226893491350893
 24
0.0
 34
0.0
1001
ACAD
1000
DSTYLE
1002
{
1070
144
1040
1.0
1070
40
1040
30.0
1002
}
  0
DIMENSION
  5
AC
100
AcDbEntity
  8
lattes
 62
256
370
-1
 48
1.0
  6
BYLAYER
100
AcDbDimension
 10
2946.194099243924029
 20
-2675.4112770725932933
 30
0.0
 11
2889.944099243924029
 21
-1337.7056385362966466
 31
0.0
 70
1
 71
8
 72
2
 41
1.0
 42
0.0
  1

  3
Standard
100
AcDbAlignedDimension
 13
2604.9933701320001092
 23
-2675.4112770725932933
 33
0.0
 14
2604.9933701320001092
 24
0.0
 34
0.0
1001
ACAD
1000
DSTYLE
1002
{
1070
144
1040
1.0
1070
40
1040
30.0
1002
}
  0
LINE
  5
AD
100
AcDbEntity
100
AcDbLine
  8
CalepinageLattes
 62
256
370
-1
 48
1.0
  6
BYLAYER
 10
50.0
 20
-3164.0355164078637245
 30
0.0
 11
50.0
 21
0.0
 31
0.0
  0
LINE
  5
AE
100
AcDbEntity
100
AcDbLine
  8
CalepinageLattes
 62
256
370
-1
 48
1.0
  6
BYLAYER
 10
110.0
 20
-3164.0781300442272368
 30
0.0
 11
110.0
 21
0.0
 31
0.0
  0
LINE
  5
AF
100
AcDbEntity
100
AcDbLine
  8
CalepinageLattes
 62
256
370
-1
 48
1.0
  6
BYLAYER
 10
170.0
 20
-3164.1207436805907491
 30
0.0
 11
170.0
 21
0.0
 31
0.0
  0
LINE
  5
B0
100
AcDbEntity
100
AcDbLine
  8
CalepinageLattes
 62
256
370
-1
 48
1.0
  6
BYLAYER
 10
230.0
 20
-3164.1633573169542615
 30
0.0
 11
230.0
 21
0.0
 31
0.0
  0
LINE
  5
B1
100
AcDbEntity
100
AcDbLine
  8
CalepinageLattes
 62
256
370
-1
 48
1.0
  6
BYLAYER
 10
290.0
 20
-3164.2059709533182286
 30
0.0
 11
290.0
 21
0.0
 31
0.0
  0
LINE
  5
B2
100
AcDbEntity
100
AcDbLine
  8
CalepinageLattes
 62
256
370
-1
 48
1.0
  6
BYLAYER
 10
350.0
 20
-3164.2485845896817409
 30
0.0
 11
350.0
 21
0.0
 31
0.0
  0
LINE
  5
B3
100
AcDbEntity
100
AcDbLine
  8
CalepinageLattes
 62
256
370
-1
 48
1.0
  6
BYLAYER
 10
410.0
 20
-3164.2911982260452533
 30
0.0
 11
410.0
 21
0.0
 31
0.0
  0
LINE
  5
B4
100
AcDbEntity
100
AcDbLine
  8
CalepinageLattes
 62
256
370
-1
 48
1.0
  6
BYLAYER
 10
470.0
 20
-3164.3338118624087656
 30
0.0
 11
470.0
 21
0.0
 31
0.0
  0
LINE
  5
B5
100
AcDbEntity
100
AcDbLine
  8
CalepinageLattes
 62
256
370
-1
 48
1.0
  6
BYLAYER
 10
530.0
 20
-3164.3764254987727327
 30
0.0
 11
530.0
 21
0.0
 31
0.0
  0
LINE
  5
B6
100
AcDbEntity
100
AcDbLine
  8
CalepinageLattes
 62
256
370
-1
 48
1.0
  6
BYLAYER
 10
590.0
 20
-3164.419039135136245
 30
0.0
 11
590.0
 21
0.0
 31
0.0
  0
LINE
  5
B7
100
AcDbEntity
100
AcDbLine
  8
CalepinageLattes
 62
256
370
-1
 48
1.0
  6
BYLAYER
 10
650.0
 20
-3164.4616527714997574
 30
0.0
 11
650.0
 21
0.0
 31
0.0
  0
LINE
  5
B8
100
AcDbEntity
100
AcDbLine
  8
CalepinageLattes
 62
256
370
-1
 48
1.0
  6
BYLAYER
 10
710.0
 20
-3164.5042664078637245
 30
0.0
 11
710.0
 21
0.0
 31
0.0
  0
LINE
  5
B9
100
AcDbEntity
100
AcDbLine
  8
CalepinageLattes
 62
256
370
-1
 48
1.0
  6
BYLAYER
 10
770.0
 20
-3164.5468800442272368
 30
0.0
 11
770.0
 21
0.0
 31
0.0
  0
LINE
  5
BA
100
AcDbEntity
100
AcDbLine
  8
CalepinageLattes
 62
256
370
-1
 48
1.0
  6
BYLAYER
 10
830.0
 20
-3164.5894936805907491
 30
0.0
 11
830.0
 21
0.0
 31
0.0
  0
LINE
  5
BB
100
AcDbEntity
100
AcDbLine
  8
CalepinageLattes
 62
256
370
-1
 48
1.0
  6
BYLAYER
 10
890.0
 20
-3164.6321073169542615
 30
0.0
 11
890.0
 21
0.0
 31
0.0
  0
LINE
  5
BC
100
AcDbEntity
100
AcDbLine
  8
CalepinageLattes
 62
256
370
-1
 48
1.0
  6
BYLAYER
 10
950.0
 20
-3164.6747209533182286
 30
0.0
 11
950.0
 21
0.0
 31
0.0
  0
LINE
  5
BD
100
AcDbEntity
100
AcDbLine
  8
CalepinageLattes
 62
256
370
-1
 48
1.0
  6
BYLAYER
 10
1010.0
 20
-3164.7173345896817409
 30
0.0
 11
1010.0
 21
0.0
 31
0.0
  0
LINE
  5
BE
100
AcDbEntity
100
AcDbLine
  8
CalepinageLattes
 62
256
370
-1
 48
1.0
  6
BYLAYER
 10
1070.0
 20
-3164.7599482260452533
 30
0.0
 11
1070.0
 21
0.0
 31
0.0
  0
LINE
  5
BF
100
AcDbEntity
100
AcDbLine
  8
CalepinageLattes
 62
256
370
-1
 48
1.0
  6
BYLAYER
 10
1130.0
 20
-3164.8025618624087656
 30
0.0
 11
1130.0
 21
0.0
 31
0.0
  0
LINE
  5
C0
100
AcDbEntity
100
AcDbLine
  8
CalepinageLattes
 62
256
370
-1
 48
1.0
  6
BYLAYER
 10
1190.0
 20
-3164.8451754987727327
 30
0.0
 11
1190.0
 21
0.0
 31
0.0
  0
LINE
  5
C1
100
AcDbEntity
100
AcDbLine
  8
CalepinageLattes
 62
256
370
-1
 48
1.0
  6
BYLAYER
 10
1250.0
 20
-3164.887789135136245
 30
0.0
 11
1250.0
 21
0.0
 31
0.0
  0
LINE
  5
C2
100
AcDbEntity
100
AcDbLine
  8
CalepinageLattes
 62
256
370
-1
 48
1.0
  6
BYLAYER
 10
1310.0
 20
-3164.9304027714997574
 30
0.0
 11
1310.0
 21
0.0
 31
0.0
  0
LINE
  5
C3
100
AcDbEntity
100
AcDbLine
  8
CalepinageLattes
 62
256
370
-1
 48
1.0
  6
BYLAYER
 10
1370.0
 20
-3164.9730164078637245
 30
0.0
 11
1370.0
 21
0.0
 31
0.0
  0
LINE
  5
C4
100
AcDbEntity
100
AcDbLine
  8
CalepinageLattes
 62
256
370
-1
 48
1.0
  6
BYLAYER
 10
1430.0
 20
-3165.0156300442272368
 30
0.0
 11
1430.0
 21
0.0
 31
0.0
  0
LINE
  5
C5
100
AcDbEntity
100
AcDbLine
  8
CalepinageLattes
 62
256
370
-1
 48
1.0
  6
BYLAYER
 10
1490.0
 20
-3165.0582436805907491
 30
0.0
 11
1490.0
 21
0.0
 31
0.0
  0
LINE
  5
C6
100
AcDbEntity
100
AcDbLine
  8
CalepinageLattes
 62
256
370
-1
 48
1.0
  6
BYLAYER
 10
1550.0
 20
-3165.1008573169542615
 30
0.0
 11
1550.0
 21
0.0
 31
0.0
  0
LINE
  5
C7
100
AcDbEntity
100
AcDbLine
  8
CalepinageLattes
 62
256
370
-1
 48
1.0
  6
BYLAYER
 10
1610.0
 20
-3165.1434709533182286
 30
0.0
 11
1610.0
 21
0.0
 31
0.0
  0
LINE
  5
C8
100
AcDbEntity
100
AcDbLine
  8
CalepinageLattes
 62
256
370
-1
 48
1.0
  6
BYLAYER
 10
1670.0
 20
-3165.1860845896817409
 30
0.0
 11
1670.0
 21
0.0
 31
0.0
  0
LINE
  5
C9
100
AcDbEntity
100
AcDbLine
  8
CalepinageLattes
 62
256
370
-1
 48
1.0
  6
BYLAYER
 10
1730.0
 20
-3165.2286982260452533
 30
0.0
 11
1730.0
 21
0.0
 31
0.0
  0
LINE
  5
CA
100
AcDbEntity
100
AcDbLine
  8
CalepinageLattes
 62
256
370
-1
 48
1.0
  6
BYLAYER
 10
1790.0
 20
-3165.2713118624087656
 30
0.0
 11
1790.0
 21
0.0
 31
0.0
  0
LINE
  5
CB
100
AcDbEntity
100
AcDbLine
  8
CalepinageLattes
 62
256
370
-1
 48
1.0
  6
BYLAYER
 10
1850.0
 20
-3165.3139254987727327
 30
0.0
 11
1850.0
 21
0.0
 31
0.0
  0
LINE
  5
CC
100
AcDbEntity
100
AcDbLine
  8
CalepinageLattes
 62
256
370
-1
 48
1.0
  6
BYLAYER
 10
1910.0
 20
-3165.356539135136245
 30
0.0
 11
1910.0
 21
0.0
 31
0.0
  0
LINE
  5
CD
100
AcDbEntity
100
AcDbLine
  8
CalepinageLattes
 62
256
370
-1
 48
1.0
  6
BYLAYER
 10
1970.0
 20
-3165.3991527714997574
 30
0.0
 11
1970.0
 21
0.0
 31
0.0
  0
LINE
  5
CE
100
AcDbEntity
100
AcDbLine
  8
CalepinageLattes
 62
256
370
-1
 48
1.0
  6
BYLAYER
 10
2030.0
 20
-3165.4417664078637245
 30
0.0
 11
2030.0
 21
0.0
 31
0.0
  0
LINE
  5
CF
100
AcDbEntity
100
AcDbLine
  8
CalepinageLattes
 62
256
370
-1
 48
1.0
  6
BYLAYER
 10
2090.0
 20
-3165.4843800442272368
 30
0.0
 11
2090.0
 21
0.0
 31
0.0
  0
LINE
  5
D0
100
AcDbEntity
100
AcDbLine
  8
CalepinageLattes
 62
256
370
-1
 48
1.0
  6
BYLAYER
 10
2150.0
 20
-3165.5269936805907491
 30
0.0
 11
2150.0
 21
0.0
 31
0.0
  0
LINE
  5
D1
100
AcDbEntity
100
AcDbLine
  8
CalepinageLattes
 62
256
370
-1
 48
1.0
  6
BYLAYER
 10
2210.0
 20
-3165.5696073169542615
 30
0.0
 11
2210.0
 21
0.0
 31
0.0
  0
LINE
  5
D2
100
AcDbEntity
100
AcDbLine
  8
CalepinageLattes
 62
256
370
-1
 48
1.0
  6
BYLAYER
 10
2270.0
 20
-3165.6122209533182286
 30
0.0
 11
2270.0
 21
0.0
 31
0.0
  0
LINE
  5
D3
100
AcDbEntity
100
AcDbLine
  8
CalepinageLattes
 62
256
370
-1
 48
1.0
  6
BYLAYER
 10
2330.0
 20
-3165.6548345896817409
 30
0.0
 11
2330.0
 21
0.0
 31
0.0
  0
LINE
  5
D4
100
AcDbEntity
100
AcDbLine
  8
CalepinageLattes
 62
256
370
-1
 48
1.0
  6
BYLAYER
 10
2390.0
 20
-3165.6974482260452533
 30
0.0
 11
2390.0
 21
0.0
 31
0.0
  0
LINE
  5
D5
100
AcDbEntity
100
AcDbLine
  8
CalepinageLattes
 62
256
370
-1
 48
1.0
  6
BYLAYER
 10
2450.0
 20
-3165.7400618624087656
 30
0.0
 11
2450.0
 21
0.0
 31
0.0
  0
LINE
  5
D6
100
AcDbEntity
100
AcDbLine
  8
CalepinageLattes
 62
256
370
-1
 48
1.0
  6
BYLAYER
 10
2510.0
 20
-3165.7826754987727327
 30
0.0
 11
2510.0
 21
0.0
 31
0.0
  0
LINE
  5
D7
100
AcDbEntity
100
AcDbLine
  8
CalepinageLattes
 62
256
370
-1
 48
1.0
  6
BYLAYER
 10
2570.0
 20
-3165.825289135136245
 30
0.0
 11
2570.0
 21
0.0
 31
0.0
  0
LINE
  5
D8
100
AcDbEntity
100
AcDbLine
  8
CalepinageLattes
 62
256
370
-1
 48
1.0
  6
BYLAYER
 10
2630.0
 20
-3165.8679027714997574
 30
0.0
 11
2630.0
 21
0.0
 31
0.0
  0
LINE
  5
D9
100
AcDbEntity
100
AcDbLine
  8
CalepinageLattes
 62
256
370
-1
 48
1.0
  6
BYLAYER
 10
2690.0
 20
-3165.9105164078637245
 30
0.0
 11
2690.0
 21
0.0
 31
0.0
  0
LINE
  5
DA
100
AcDbEntity
100
AcDbLine
  8
CalepinageLattes
 62
256
370
-1
 48
1.0
  6
BYLAYER
 10
2750.0
 20
-3165.9531300442272368
 30
0.0
 11
2750.0
 21
0.0
 31
0.0
  0
LINE
  5
DB
100
AcDbEntity
100
AcDbLine
  8
CalepinageLattes
 62
256
370
-1
 48
1.0
  6
BYLAYER
 10
2810.0
 20
-3165.9957436805907491
 30
0.0
 11
2810.0
 21
0.0
 31
0.0
  0
LINE
  5
DC
100
AcDbEntity
100
AcDbLine
  8
CalepinageLattes
 62
256
370
-1
 48
1.0
  6
BYLAYER
 10
2760.0
 20
-3165.9602323169542615
 30
0.0
 11
2760.0
 21
0.0
 31
0.0
  0
LINE
  5
DD
100
AcDbEntity
100
AcDbLine
  8
CalepinageLattes
 62
256
370
-1
 48
1.0
  6
BYLAYER
 10
2700.0
 20
-3165.9176186805907491
 30
0.0
 11
2700.0
 21
0.0
 31
0.0
  0
LINE
  5
DE
100
AcDbEntity
100
AcDbLine
  8
CalepinageLattes
 62
256
370
-1
 48
1.0
  6
BYLAYER
 10
2640.0
 20
-3165.8750050442272368
 30
0.0
 11
2640.0
 21
0.0
 31
0.0
  0
LINE
  5
DF
100
AcDbEntity
100
AcDbLine
  8
CalepinageLattes
 62
256
370
-1
 48
1.0
  6
BYLAYER
 10
2580.0
 20
-3165.8323914078637245
 30
0.0
 11
2580.0
 21
0.0
 31
0.0
  0
LINE
  5
E0
100
AcDbEntity
100
AcDbLine
  8
CalepinageLattes
 62
256
370
-1
 48
1.0
  6
BYLAYER
 10
2520.0
 20
-3165.7897777714997574
 30
0.0
 11
2520.0
 21
0.0
 31
0.0
  0
LINE
  5
E1
100
AcDbEntity
100
AcDbLine
  8
CalepinageLattes
 62
256
370
-1
 48
1.0
  6
BYLAYER
 10
2460.0
 20
-3165.747164135136245
 30
0.0
 11
2460.0
 21
0.0
 31
0.0
  0
LINE
  5
E2
100
AcDbEntity
100
AcDbLine
  8
CalepinageLattes
 62
256
370
-1
 48
1.0
  6
BYLAYER
 10
2400.0
 20
-3165.7045504987727327
 30
0.0
 11
2400.0
 21
0.0
 31
0.0
  0
LINE
  5
E3
100
AcDbEntity
100
AcDbLine
  8
CalepinageLattes
 62
256
370
-1
 48
1.0
  6
BYLAYER
 10
2340.0
 20
-3165.6619368624087656
 30
0.0
 11
2340.0
 21
0.0
 31
0.0
  0
LINE
  5
E4
100
AcDbEntity
100
AcDbLine
  8
CalepinageLattes
 62
256
370
-1
 48
1.0
  6
BYLAYER
 10
2280.0
 20
-3165.6193232260452533
 30
0.0
 11
2280.0
 21
0.0
 31
0.0
  0
LINE
  5
E5
100
AcDbEntity
100
AcDbLine
  8
CalepinageLattes
 62
256
370
-1
 48
1.0
  6
BYLAYER
 10
2220.0
 20
-3165.5767095896817409
 30
0.0
 11
2220.0
 21
0.0
 31
0.0
  0
LINE
  5
E6
100
AcDbEntity
100
AcDbLine
  8
CalepinageLattes
 62
256
370
-1
 48
1.0
  6
BYLAYER
 10
2160.0
 20
-3165.5340959533182286
 30
0.0
 11
2160.0
 21
0.0
 31
0.0
  0
LINE
  5
E7
100
AcDbEntity
100
AcDbLine
  8
CalepinageLattes
 62
256
370
-1
 48
1.0
  6
BYLAYER
 10
2100.0
 20
-3165.4914823169542615
 30
0.0
 11
2100.0
 21
0.0
 31
0.0
  0
LINE
  5
E8
100
AcDbEntity
100
AcDbLine
  8
CalepinageLattes
 62
256
370
-1
 48
1.0
  6
BYLAYER
 10
2040.0
 20
-3165.4488686805907491
 30
0.0
 11
2040.0
 21
0.0
 31
0.0
  0
LINE
  5
E9
100
AcDbEntity
100
AcDbLine
  8
CalepinageLattes
 62
256
370
-1
 48
1.0
  6
BYLAYER
 10
1980.0
 20
-3165.4062550442272368
 30
0.0
 11
1980.0
 21
0.0
 31
0.0
  0
LINE
  5
EA
100
AcDbEntity
100
AcDbLine
  8
CalepinageLattes
 62
256
370
-1
 48
1.0
  6
BYLAYER
 10
1920.0
 20
-3165.3636414078637245
 30
0.0
 11
1920.0
 21
0.0
 31
0.0
  0
LINE
  5
EB
100
AcDbEntity
100
AcDbLine
  8
CalepinageLattes
 62
256
370
-1
 48
1.0
  6
BYLAYER
 10
1860.0
 20
-3165.3210277714997574
 30
0.0
 11
1860.0
 21
0.0
 31
0.0
  0
LINE
  5
EC
100
AcDbEntity
100
AcDbLine
  8
CalepinageLattes
 62
256
370
-1
 48
1.0
  6
BYLAYER
 10
1800.0
 20
-3165.278414135136245
 30
0.0
 11
1800.0
 21
0.0
 31
0.0
  0
LINE
  5
ED
100
AcDbEntity
100
AcDbLine
  8
CalepinageLattes
 62
256
370
-1
 48
1.0
  6
BYLAYER
 10
1740.0
 20
-3165.2358004987727327
 30
0.0
 11
1740.0
 21
0.0
 31
0.0
  0
LINE
  5
EE
100
AcDbEntity
100
AcDbLine
  8
CalepinageLattes
 62
256
370
-1
 48
1.0
  6
BYLAYER
 10
1680.0
 20
-3165.1931868624087656
 30
0.0
 11
1680.0
 21
0.0
 31
0.0
  0
LINE
  5
EF
100
AcDbEntity
100
AcDbLine
  8
CalepinageLattes
 62
256
370
-1
 48
1.0
  6
BYLAYER
 10
1620.0
 20
-3165.1505732260452533
 30
0.0
 11
1620.0
 21
0.0
 31
0.0
  0
LINE
  5
F0
100
AcDbEntity
100
AcDbLine
  8
CalepinageLattes
 62
256
370
-1
 48
1.0
  6
BYLAYER
 10
1560.0
 20
-3165.1079595896817409
 30
0.0
 11
1560.0
 21
0.0
 31
0.0
  0
LINE
  5
F1
100
AcDbEntity
100
AcDbLine
  8
CalepinageLattes
 62
256
370
-1
 48
1.0
  6
BYLAYER
 10
1500.0
 20
-3165.0653459533182286
 30
0.0
 11
1500.0
 21
0.0
 31
0.0
  0
LINE
  5
F2
100
AcDbEntity
100
AcDbLine
  8
CalepinageLattes
 62
256
370
-1
 48
1.0
  6
BYLAYER
 10
1440.0
 20
-3165.0227323169542615
 30
0.0
 11
1440.0
 21
0.0
 31
0.0
  0
LINE
  5
F3
100
AcDbEntity
100
AcDbLine
  8
CalepinageLattes
 62
256
370
-1
 48
1.0
  6
BYLAYER
 10
1380.0
 20
-3164.9801186805907491
 30
0.0
 11
1380.0
 21
0.0
 31
0.0
  0
LINE
  5
F4
100
AcDbEntity
100
AcDbLine
  8
CalepinageLattes
 62
256
370
-1
 48
1.0
  6
BYLAYER
 10
1320.0
 20
-3164.9375050442272368
 30
0.0
 11
1320.0
 21
0.0
 31
0.0
  0
LINE
  5
F5
100
AcDbEntity
100
AcDbLine
  8
CalepinageLattes
 62
256
370
-1
 48
1.0
  6
BYLAYER
 10
1260.0
 20
-3164.8948914078637245
 30
0.0
 11
1260.0
 21
0.0
 31
0.0
  0
LINE
  5
F6
100
AcDbEntity
100
AcDbLine
  8
CalepinageLattes
 62
256
370
-1
 48
1.0
  6
BYLAYER
 10
1200.0
 20
-3164.8522777714997574
 30
0.0
 11
1200.0
 21
0.0
 31
0.0
  0
LINE
  5
F7
100
AcDbEntity
100
AcDbLine
  8
CalepinageLattes
 62
256
370
-1
 48
1.0
  6
BYLAYER
 10
1140.0
 20
-3164.809664135136245
 30
0.0
 11
1140.0
 21
0.0
 31
0.0
  0
LINE
  5
F8
100
AcDbEntity
100
AcDbLine
  8
CalepinageLattes
 62
256
370
-1
 48
1.0
  6
BYLAYER
 10
1080.0
 20
-3164.7670504987727327
 30
0.0
 11
1080.0
 21
0.0
 31
0.0
  0
LINE
  5
F9
100
AcDbEntity
100
AcDbLine
  8
CalepinageLattes
 62
256
370
-1
 48
1.0
  6
BYLAYER
 10
1020.0
 20
-3164.7244368624087656
 30
0.0
 11
1020.0
 21
0.0
 31
0.0
  0
LINE
  5
FA
100
AcDbEntity
100
AcDbLine
  8
CalepinageLattes
 62
256
370
-1
 48
1.0
  6
BYLAYER
 10
960.0
 20
-3164.6818232260452533
 30
0.0
 11
960.0
 21
0.0
 31
0.0
  0
LINE
  5
FB
100
AcDbEntity
100
AcDbLine
  8
CalepinageLattes
 62
256
370
-1
 48
1.0
  6
BYLAYER
 10
900.0
 20
-3164.6392095896817409
 30
0.0
 11
900.0
 21
0.0
 31
0.0
  0
LINE
  5
FC
100
AcDbEntity
100
AcDbLine
  8
CalepinageLattes
 62
256
370
-1
 48
1.0
  6
BYLAYER
 10
840.0
 20
-3164.5965959533182286
 30
0.0
 11
840.0
 21
0.0
 31
0.0
  0
LINE
  5
FD
100
AcDbEntity
100
AcDbLine
  8
CalepinageLattes
 62
256
370
-1
 48
1.0
  6
BYLAYER
 10
780.0
 20
-3164.5539823169542615
 30
0.0
 11
780.0
 21
0.0
 31
0.0
  0
LINE
  5
FE
100
AcDbEntity
100
AcDbLine
  8
CalepinageLattes
 62
256
370
-1
 48
1.0
  6
BYLAYER
 10
720.0
 20
-3164.5113686805907491
 30
0.0
 11
720.0
 21
0.0
 31
0.0
  0
LINE
  5
FF
100
AcDbEntity
100
AcDbLine
  8
CalepinageLattes
 62
256
370
-1
 48
1.0
  6
BYLAYER
 10
660.0
 20
-3164.4687550442272368
 30
0.0
 11
660.0
 21
0.0
 31
0.0
  0
LINE
  5
100
100
AcDbEntity
100
AcDbLine
  8
CalepinageLattes
 62
256
370
-1
 48
1.0
  6
BYLAYER
 10
600.0
 20
-3164.4261414078637245
 30
0.0
 11
600.0
 21
0.0
 31
0.0
  0
LINE
  5
101
100
AcDbEntity
100
AcDbLine
  8
CalepinageLattes
 62
256
370
-1
 48
1.0
  6
BYLAYER
 10
540.0
 20
-3164.3835277714997574
 30
0.0
 11
540.0
 21
0.0
 31
0.0
  0
LINE
  5
102
100
AcDbEntity
100
AcDbLine
  8
CalepinageLattes
 62
256
370
-1
 48
1.0
  6
BYLAYER
 10
480.0
 20
-3164.340914135136245
 30
0.0
 11
480.0
 21
0.0
 31
0.0
  0
LINE
  5
103
100
AcDbEntity
100
AcDbLine
  8
CalepinageLattes
 62
256
370
-1
 48
1.0
  6
BYLAYER
 10
420.0
 20
-3164.2983004987727327
 30
0.0
 11
420.0
 21
0.0
 31
0.0
  0
LINE
  5
104
100
AcDbEntity
100
AcDbLine
  8
CalepinageLattes
 62
256
370
-1
 48
1.0
  6
BYLAYER
 10
360.0
 20
-3164.2556868624087656
 30
0.0
 11
360.0
 21
0.0
 31
0.0
  0
LINE
  5
105
100
AcDbEntity
100
AcDbLine
  8
CalepinageLattes
 62
256
370
-1
 48
1.0
  6
BYLAYER
 10
300.0
 20
-3164.2130732260452533
 30
0.0
 11
300.0
 21
0.0
 31
0.0
  0
LINE
  5
106
100
AcDbEntity
100
AcDbLine
  8
CalepinageLattes
 62
256
370
-1
 48
1.0
  6
BYLAYER
 10
240.0
 20
-3164.1704595896817409
 30
0.0
 11
240.0
 21
0.0
 31
0.0
  0
LINE
  5
107
100
AcDbEntity
100
AcDbLine
  8
CalepinageLattes
 62
256
370
-1
 48
1.0
  6
BYLAYER
 10
180.0
 20
-3164.1278459533182286
 30
0.0
 11
180.0
 21
0.0
 31
0.0
  0
LINE
  5
108
100
AcDbEntity
100
AcDbLine
  8
CalepinageLattes
 62
256
370
-1
 48
1.0
  6
BYLAYER
 10
120.0
 20
-3164.0852323169542615
 30
0.0
 11
120.0
 21
0.0
 31
0.0
  0
LINE
  5
109
100
AcDbEntity
100
AcDbLine
  8
CalepinageLattes
 62
256
370
-1
 48
1.0
  6
BYLAYER
 10
60.0
 20
-3164.0426186805907491
 30
0.0
 11
60.0
 21
0.0
 31
0.0
  0
LINE
  5
10A
100
AcDbEntity
100
AcDbLine
  8
CalepinageLattes
 62
256
370
-1
 48
1.0
  6
BYLAYER
 10
2810.0
 20
-3165.9957436805907491
 30
0.0
 11
2760.0
 21
-3165.9602323169542615
 31
0.0
  0
LINE
  5
10B
100
AcDbEntity
100
AcDbLine
  8
CalepinageLattes
 62
256
370
-1
 48
1.0
  6
BYLAYER
 10
2750.0
 20
-3165.9531300442272368
 30
0.0
 11
2700.0
 21
-3165.9176186805907491
 31
0.0
  0
LINE
  5
10C
100
AcDbEntity
100
AcDbLine
  8
CalepinageLattes
 62
256
370
-1
 48
1.0
  6
BYLAYER
 10
2690.0
 20
-3165.9105164078632697
 30
0.0
 11
2640.0
 21
-3165.875005044226782
 31
0.0
  0
LINE
  5
10D
100
AcDbEntity
100
AcDbLine
  8
CalepinageLattes
 62
256
370
-1
 48
1.0
  6
BYLAYER
 10
2630.0
 20
-3165.8679027714997574
 30
0.0
 11
2580.0
 21
-3165.8323914078632697
 31
0.0
  0
LINE
  5
10E
100
AcDbEntity
100
AcDbLine
  8
CalepinageLattes
 62
256
370
-1
 48
1.0
  6
BYLAYER
 10
2570.0
 20
-3165.8252891351357903
 30
0.0
 11
2520.0
 21
-3165.7897777714993026
 31
0.0
  0
LINE
  5
10F
100
AcDbEntity
100
AcDbLine
  8
CalepinageLattes
 62
256
370
-1
 48
1.0
  6
BYLAYER
 10
2510.0
 20
-3165.7826754987722779
 30
0.0
 11
2460.0
 21
-3165.7471641351357903
 31
0.0
  0
LINE
  5
110
100
AcDbEntity
100
AcDbLine
  8
CalepinageLattes
 62
256
370
-1
 48
1.0
  6
BYLAYER
 10
2450.0
 20
-3165.7400618624083108
 30
0.0
 11
2400.0
 21
-3165.7045504987718232
 31
0.0
  0
LINE
  5
111
100
AcDbEntity
100
AcDbLine
  8
CalepinageLattes
 62
256
370
-1
 48
1.0
  6
BYLAYER
 10
2390.0
 20
-3165.6974482260447985
 30
0.0
 11
2340.0
 21
-3165.6619368624083108
 31
0.0
  0
LINE
  5
112
100
AcDbEntity
100
AcDbLine
  8
CalepinageLattes
 62
256
370
-1
 48
1.0
  6
BYLAYER
 10
2330.0
 20
-3165.6548345896808314
 30
0.0
 11
2280.0
 21
-3165.6193232260443438
 31
0.0
  0
LINE
  5
113
100
AcDbEntity
100
AcDbLine
  8
CalepinageLattes
 62
256
370
-1
 48
1.0
  6
BYLAYER
 10
2270.0
 20
-3165.6122209533173191
 30
0.0
 11
2220.0
 21
-3165.5767095896808314
 31
0.0
  0
LINE
  5
114
100
AcDbEntity
100
AcDbLine
  8
CalepinageLattes
 62
256
370
-1
 48
1.0
  6
BYLAYER
 10
2210.0
 20
-3165.569607316953352
 30
0.0
 11
2160.0
 21
-3165.5340959533168643
 31
0.0
  0
LINE
  5
115
100
AcDbEntity
100
AcDbLine
  8
CalepinageLattes
 62
256
370
-1
 48
1.0
  6
BYLAYER
 10
2150.0
 20
-3165.5269936805898396
 30
0.0
 11
2100.0
 21
-3165.491482316953352
 31
0.0
  0
LINE
  5
116
100
AcDbEntity
100
AcDbLine
  8
CalepinageLattes
 62
256
370
-1
 48
1.0
  6
BYLAYER
 10
2090.0
 20
-3165.4843800442258726
 30
0.0
 11
2040.0
 21
-3165.4488686805893849
 31
0.0
  0
LINE
  5
117
100
AcDbEntity
100
AcDbLine
  8
CalepinageLattes
 62
256
370
-1
 48
1.0
  6
BYLAYER
 10
2030.0
 20
-3165.4417664078623602
 30
0.0
 11
1980.0
 21
-3165.4062550442258726
 31
0.0
  0
LINE
  5
118
100
AcDbEntity
100
AcDbLine
  8
CalepinageLattes
 62
256
370
-1
 48
1.0
  6
BYLAYER
 10
1970.0
 20
-3165.3991527714983931
 30
0.0
 11
1920.0
 21
-3165.3636414078619055
 31
0.0
  0
LINE
  5
119
100
AcDbEntity
100
AcDbLine
  8
CalepinageLattes
 62
256
370
-1
 48
1.0
  6
BYLAYER
 10
1910.0
 20
-3165.3565391351348808
 30
0.0
 11
1860.0
 21
-3165.3210277714983931
 31
0.0
  0
LINE
  5
11A
100
AcDbEntity
100
AcDbLine
  8
CalepinageLattes
 62
256
370
-1
 48
1.0
  6
BYLAYER
 10
1850.0
 20
-3165.3139254987709137
 30
0.0
 11
1800.0
 21
-3165.278414135134426
 31
0.0
  0
LINE
  5
11B
100
AcDbEntity
100
AcDbLine
  8
CalepinageLattes
 62
256
370
-1
 48
1.0
  6
BYLAYER
 10
1790.0
 20
-3165.2713118624074013
 30
0.0
 11
1740.0
 21
-3165.2358004987709137
 31
0.0
  0
LINE
  5
11C
100
AcDbEntity
100
AcDbLine
  8
CalepinageLattes
 62
256
370
-1
 48
1.0
  6
BYLAYER
 10
1730.0
 20
-3165.2286982260434343
 30
0.0
 11
1679.9999999999997726
 21
-3165.1931868624069466
 31
0.0
  0
LINE
  5
11D
100
AcDbEntity
100
AcDbLine
  8
CalepinageLattes
 62
256
370
-1
 48
1.0
  6
BYLAYER
 10
1669.9999999999997726
 20
-3165.1860845896799219
 30
0.0
 11
1620.0
 21
-3165.1505732260434343
 31
0.0
  0
LINE
  5
11E
100
AcDbEntity
100
AcDbLine
  8
CalepinageLattes
 62
256
370
-1
 48
1.0
  6
BYLAYER
 10
1610.0
 20
-3165.1434709533159548
 30
0.0
 11
1560.0
 21
-3165.1079595896794672
 31
0.0
  0
LINE
  5
11F
100
AcDbEntity
100
AcDbLine
  8
CalepinageLattes
 62
256
370
-1
 48
1.0
  6
BYLAYER
 10
1550.0
 20
-3165.1008573169524425
 30
0.0
 11
1500.0
 21
-3165.0653459533159548
 31
0.0
  0
LINE
  5
120
100
AcDbEntity
100
AcDbLine
  8
CalepinageLattes
 62
256
370
-1
 48
1.0
  6
BYLAYER
 10
1490.0
 20
-3165.0582436805884754
 30
0.0
 11
1440.0
 21
-3165.0227323169519877
 31
0.0
  0
LINE
  5
121
100
AcDbEntity
100
AcDbLine
  8
CalepinageLattes
 62
256
370
-1
 48
1.0
  6
BYLAYER
 10
1430.0
 20
-3165.0156300442249631
 30
0.0
 11
1380.0000000000002274
 21
-3164.9801186805884754
 31
0.0
  0
LINE
  5
122
100
AcDbEntity
100
AcDbLine
  8
CalepinageLattes
 62
256
370
-1
 48
1.0
  6
BYLAYER
 10
1370.0
 20
-3164.973016407860996
 30
0.0
 11
1320.0
 21
-3164.9375050442245083
 31
0.0
  0
LINE
  5
123
100
AcDbEntity
100
AcDbLine
  8
CalepinageLattes
 62
256
370
-1
 48
1.0
  6
BYLAYER
 10
1310.0
 20
-3164.9304027714974836
 30
0.0
 11
1260.0
 21
-3164.894891407860996
 31
0.0
  0
LINE
  5
124
100
AcDbEntity
100
AcDbLine
  8
CalepinageLattes
 62
256
370
-1
 48
1.0
  6
BYLAYER
 10
1250.0
 20
-3164.8877891351339713
 30
0.0
 11
1200.0
 21
-3164.8522777714974836
 31
0.0
  0
LINE
  5
125
100
AcDbEntity
100
AcDbLine
  8
CalepinageLattes
 62
256
370
-1
 48
1.0
  6
BYLAYER
 10
1190.0
 20
-3164.8451754987704589
 30
0.0
 11
1139.9999999999997726
 21
-3164.8096641351339713
 31
0.0
  0
LINE
  5
126
100
AcDbEntity
100
AcDbLine
  8
CalepinageLattes
 62
256
370
-1
 48
1.0
  6
BYLAYER
 10
1130.0
 20
-3164.8025618624069466
 30
0.0
 11
1079.9999999999997726
 21
-3164.7670504987704589
 31
0.0
  0
LINE
  5
127
100
AcDbEntity
100
AcDbLine
  8
CalepinageLattes
 62
256
370
-1
 48
1.0
  6
BYLAYER
 10
1070.0
 20
-3164.7599482260434343
 30
0.0
 11
1020.0
 21
-3164.7244368624069466
 31
0.0
  0
LINE
  5
128
100
AcDbEntity
100
AcDbLine
  8
CalepinageLattes
 62
256
370
-1
 48
1.0
  6
BYLAYER
 10
1010.0000000000002274
 20
-3164.7173345896799219
 30
0.0
 11
960.0
 21
-3164.6818232260434343
 31
0.0
  0
LINE
  5
129
100
AcDbEntity
100
AcDbLine
  8
CalepinageLattes
 62
256
370
-1
 48
1.0
  6
BYLAYER
 10
950.0
 20
-3164.6747209533164096
 30
0.0
 11
900.0
 21
-3164.6392095896799219
 31
0.0
  0
LINE
  5
12A
100
AcDbEntity
100
AcDbLine
  8
CalepinageLattes
 62
256
370
-1
 48
1.0
  6
BYLAYER
 10
890.0
 20
-3164.6321073169528972
 30
0.0
 11
840.0000000000002274
 21
-3164.5965959533164096
 31
0.0
  0
LINE
  5
12B
100
AcDbEntity
100
AcDbLine
  8
CalepinageLattes
 62
256
370
-1
 48
1.0
  6
BYLAYER
 10
830.0
 20
-3164.5894936805893849
 30
0.0
 11
780.0
 21
-3164.5539823169528972
 31
0.0
  0
LINE
  5
12C
100
AcDbEntity
100
AcDbLine
  8
CalepinageLattes
 62
256
370
-1
 48
1.0
  6
BYLAYER
 10
770.0000000000002274
 20
-3164.5468800442258726
 30
0.0
 11
720.0
 21
-3164.5113686805893849
 31
0.0
  0
LINE
  5
12D
100
AcDbEntity
100
AcDbLine
  8
CalepinageLattes
 62
256
370
-1
 48
1.0
  6
BYLAYER
 10
710.0
 20
-3164.5042664078623602
 30
0.0
 11
660.0
 21
-3164.4687550442258726
 31
0.0
  0
LINE
  5
12E
100
AcDbEntity
100
AcDbLine
  8
CalepinageLattes
 62
256
370
-1
 48
1.0
  6
BYLAYER
 10
650.0
 20
-3164.4616527714988479
 30
0.0
 11
600.0
 21
-3164.4261414078623602
 31
0.0
  0
LINE
  5
12F
100
AcDbEntity
100
AcDbLine
  8
CalepinageLattes
 62
256
370
-1
 48
1.0
  6
BYLAYER
 10
590.0
 20
-3164.4190391351353355
 30
0.0
 11
540.0
 21
-3164.3835277714988479
 31
0.0
  0
LINE
  5
130
100
AcDbEntity
100
AcDbLine
  8
CalepinageLattes
 62
256
370
-1
 48
1.0
  6
BYLAYER
 10
530.0
 20
-3164.3764254987718232
 30
0.0
 11
480.0
 21
-3164.3409141351353355
 31
0.0
  0
LINE
  5
131
100
AcDbEntity
100
AcDbLine
  8
CalepinageLattes
 62
256
370
-1
 48
1.0
  6
BYLAYER
 10
469.9999999999995453
 20
-3164.3338118624083108
 30
0.0
 11
419.9999999999995453
 21
-3164.2983004987718232
 31
0.0
  0
LINE
  5
132
100
AcDbEntity
100
AcDbLine
  8
CalepinageLattes
 62
256
370
-1
 48
1.0
  6
BYLAYER
 10
409.9999999999995453
 20
-3164.2911982260447985
 30
0.0
 11
360.0
 21
-3164.2556868624083108
 31
0.0
  0
LINE
  5
133
100
AcDbEntity
100
AcDbLine
  8
CalepinageLattes
 62
256
370
-1
 48
1.0
  6
BYLAYER
 10
350.0
 20
-3164.2485845896812862
 30
0.0
 11
300.0
 21
-3164.2130732260447985
 31
0.0
  0
LINE
  5
134
100
AcDbEntity
100
AcDbLine
  8
CalepinageLattes
 62
256
370
-1
 48
1.0
  6
BYLAYER
 10
290.0
 20
-3164.2059709533177738
 30
0.0
 11
240.0
 21
-3164.1704595896812862
 31
0.0
  0
LINE
  5
135
100
AcDbEntity
100
AcDbLine
  8
CalepinageLattes
 62
256
370
-1
 48
1.0
  6
BYLAYER
 10
230.0
 20
-3164.1633573169542615
 30
0.0
 11
180.0
 21
-3164.1278459533177738
 31
0.0
  0
LINE
  5
136
100
AcDbEntity
100
AcDbLine
  8
CalepinageLattes
 62
256
370
-1
 48
1.0
  6
BYLAYER
 10
170.0
 20
-3164.1207436805907491
 30
0.0
 11
120.0000000000004547
 21
-3164.0852323169542615
 31
0.0
  0
LINE
  5
137
100
AcDbEntity
100
AcDbLine
  8
CalepinageLattes
 62
256
370
-1
 48
1.0
  6
BYLAYER
 10
110.0
 20
-3164.0781300442272368
 30
0.0
 11
60.0
 21
-3164.0426186805907491
 31
0.0
  0
LINE
  5
138
100
AcDbEntity
100
AcDbLine
  8
CalepinageLattes
 62
256
370
-1
 48
1.0
  6
BYLAYER
 10
50.0
 20
-3164.0355164078637245
 30
0.0
 11
-0.0142045418760185
 21
-3163.9999949557741274
 31
0.0
  0
LINE
  5
139
100
AcDbEntity
100
AcDbLine
  8
Lambourdes
 62
256
370
-1
 48
1.0
  6
BYLAYER
 10
-0.0000000000001005
 20
-1641.0
 30
0.0
 11
0.5345382317228059
 21
-1591.0028573928586866
 31
0.0
  0
LINE
  5
13A
100
AcDbEntity
100
AcDbLine
  8
Lambourdes
 62
256
370
-1
 48
1.0
  6
BYLAYER
 10
-0.0000000000001305
 20
-2132.0
 30
0.0
 11
0.9086168628244709
 21
-2082.0082565277366484
 31
0.0
  0
LINE
  5
13B
100
AcDbEntity
100
AcDbLine
  8
Lambourdes
 62
256
370
-1
 48
1.0
  6
BYLAYER
 10
-0.0000000000001614
 20
-2636.0
 30
0.0
 11
1.2602529020979101
 21
-2586.0158848970718282
 31
0.0
  0
LINE
  5
13C
100
AcDbEntity
100
AcDbLine
  8
Lambourdes
 62
256
370
-1
 48
1.0
  6
BYLAYER
 10
-0.0000000000001925
 20
-3144.0
 30
0.0
 11
0.0355113546893664
 21
-3094.0000126105646814
 31
0.0
  0
LINE
  5
13D
100
AcDbEntity
100
AcDbLine
  8
Lambourdes
 62
256
370
-1
 48
1.0
  6
BYLAYER
 10
-0.0000000000000392
 20
-641.0
 30
0.0
 11
0.7162588749138851
 21
-591.0051305309824556
 31
0.0
  0
LINE
  5
13E
100
AcDbEntity
100
AcDbLine
  8
CalepinageLattes
 62
256
370
-1
 48
1.0
  6
BYLAYER
 10
1259.9999999999997726
 20
-1616.0014286964292296
 30
0.0
 11
1309.732730884138391
 21
-1616.0014286964292296
 31
0.0
  0
LINE
  5
13F
100
AcDbEntity
100
AcDbLine
  8
CalepinageLattes
 62
256
370
-1
 48
1.0
  6
BYLAYER
 10
1019.9999999999997726
 20
-1616.0014286964292296
 30
0.0
 11
1069.732730884138391
 21
-1616.0014286964292296
 31
0.0
  0
LINE
  5
140
100
AcDbEntity
100
AcDbLine
  8
CalepinageLattes
 62
256
370
-1
 48
1.0
  6
BYLAYER
 10
779.9999999999997726
 20
-1616.0014286964292296
 30
0.0
 11
829.732730884138391
 21
-1616.0014286964292296
 31
0.0
  0
LINE
  5
141
100
AcDbEntity
100
AcDbLine
  8
CalepinageLattes
 62
256
370
-1
 48
1.0
  6
BYLAYER
 10
539.9999999999997726
 20
-1616.0014286964292296
 30
0.0
 11
589.732730884138391
 21
-1616.0014286964292296
 31
0.0
  0
LINE
  5
142
100
AcDbEntity
100
AcDbLine
  8
CalepinageLattes
 62
256
370
-1
 48
1.0
  6
BYLAYER
 10
299.9999999999997726
 20
-1616.0014286964292296
 30
0.0
 11
349.732730884138391
 21
-1616.0014286964292296
 31
0.0
  0
LINE
  5
143
100
AcDbEntity
100
AcDbLine
  8
CalepinageLattes
 62
256
370
-1
 48
1.0
  6
BYLAYER
 10
59.999999999999801
 20
-1616.0014286964292296
 30
0.0
 11
109.7327308841384195
 21
-1616.0014286964292296
 31
0.0
  0
LINE
  5
144
100
AcDbEntity
100
AcDbLine
  8
CalepinageLattes
 62
256
370
-1
 48
1.0
  6
BYLAYER
 10
2700.0
 20
-1616.0014286964292296
 30
0.0
 11
2749.7327308841386184
 21
-1616.0014286964292296
 31
0.0
  0
LINE
  5
145
100
AcDbEntity
100
AcDbLine
  8
CalepinageLattes
 62
256
370
-1
 48
1.0
  6
BYLAYER
 10
2460.0
 20
-1616.0014286964292296
 30
0.0
 11
2509.7327308841386184
 21
-1616.0014286964292296
 31
0.0
  0
LINE
  5
146
100
AcDbEntity
100
AcDbLine
  8
CalepinageLattes
 62
256
370
-1
 48
1.0
  6
BYLAYER
 10
2220.0
 20
-1616.0014286964292296
 30
0.0
 11
2269.7327308841386184
 21
-1616.0014286964292296
 31
0.0
  0
LINE
  5
147
100
AcDbEntity
100
AcDbLine
  8
CalepinageLattes
 62
256
370
-1
 48
1.0
  6
BYLAYER
 10
1979.9999999999997726
 20
-1616.0014286964292296
 30
0.0
 11
2029.732730884138391
 21
-1616.0014286964292296
 31
0.0
  0
LINE
  5
148
100
AcDbEntity
100
AcDbLine
  8
CalepinageLattes
 62
256
370
-1
 48
1.0
  6
BYLAYER
 10
1739.9999999999997726
 20
-1616.0014286964292296
 30
0.0
 11
1789.732730884138391
 21
-1616.0014286964292296
 31
0.0
  0
LINE
  5
149
100
AcDbEntity
100
AcDbLine
  8
CalepinageLattes
 62
256
370
-1
 48
1.0
  6
BYLAYER
 10
1499.9999999999997726
 20
-1616.0014286964292296
 30
0.0
 11
1549.732730884138391
 21
-1616.0014286964292296
 31
0.0
  0
LINE
  5
14A
100
AcDbEntity
100
AcDbLine
  8
CalepinageLattes
 62
256
370
-1
 48
1.0
  6
BYLAYER
 10
1139.732730884138391
 20
-616.2309265302405947
 30
0.0
 11
1189.732730884138391
 21
-616.2309265302405947
 31
0.0
  0
LINE
  5
14B
100
AcDbEntity
100
AcDbLine
  8
CalepinageLattes
 62
256
370
-1
 48
1.0
  6
BYLAYER
 10
899.732730884138391
 20
-616.2309265302405947
 30
0.0
 11
949.732730884138391
 21
-616.2309265302405947
 31
0.0
  0
LINE
  5
14C
100
AcDbEntity
100
AcDbLine
  8
CalepinageLattes
 62
256
370
-1
 48
1.0
  6
BYLAYER
 10
659.732730884138391
 20
-616.2309265302405947
 30
0.0
 11
709.732730884138391
 21
-616.2309265302405947
 31
0.0
  0
LINE
  5
14D
100
AcDbEntity
100
AcDbLine
  8
CalepinageLattes
 62
256
370
-1
 48
1.0
  6
BYLAYER
 10
419.732730884138391
 20
-616.2309265302405947
 30
0.0
 11
469.732730884138391
 21
-616.2309265302405947
 31
0.0
  0
LINE
  5
14E
100
AcDbEntity
100
AcDbLine
  8
CalepinageLattes
 62
256
370
-1
 48
1.0
  6
BYLAYER
 10
179.7327308841384195
 20
-616.2309265302405947
 30
0.0
 11
229.7327308841384195
 21
-616.2309265302405947
 31
0.0
  0
LINE
  5
14F
100
AcDbEntity
100
AcDbLine
  8
CalepinageLattes
 62
256
370
-1
 48
1.0
  6
BYLAYER
 10
2579.7327308841386184
 20
-616.2309265302405947
 30
0.0
 11
2629.7327308841386184
 21
-616.2309265302405947
 31
0.0
  0
LINE
  5
150
100
AcDbEntity
100
AcDbLine
  8
CalepinageLattes
 62
256
370
-1
 48
1.0
  6
BYLAYER
 10
2339.7327308841386184
 20
-616.2309265302405947
 30
0.0
 11
2389.7327308841386184
 21
-616.2309265302405947
 31
0.0
  0
LINE
  5
151
100
AcDbEntity
100
AcDbLine
  8
CalepinageLattes
 62
256
370
-1
 48
1.0
  6
BYLAYER
 10
2099.7327308841386184
 20
-616.2309265302405947
 30
0.0
 11
2149.7327308841386184
 21
-616.2309265302405947
 31
0.0
  0
LINE
  5
152
100
AcDbEntity
100
AcDbLine
  8
CalepinageLattes
 62
256
370
-1
 48
1.0
  6
BYLAYER
 10
1859.732730884138391
 20
-616.2309265302405947
 30
0.0
 11
1909.732730884138391
 21
-616.2309265302405947
 31
0.0
  0
LINE
  5
153
100
AcDbEntity
100
AcDbLine
  8
CalepinageLattes
 62
256
370
-1
 48
1.0
  6
BYLAYER
 10
1619.732730884138391
 20
-616.2309265302405947
 30
0.0
 11
1669.732730884138391
 21
-616.2309265302405947
 31
0.0
  0
LINE
  5
154
100
AcDbEntity
100
AcDbLine
  8
CalepinageLattes
 62
256
370
-1
 48
1.0
  6
BYLAYER
 10
1379.732730884138391
 20
-616.2309265302405947
 30
0.0
 11
1429.732730884138391
 21
-616.2309265302405947
 31
0.0
  0
LINE
  5
155
100
AcDbEntity
100
AcDbLine
  8
CalepinageLattes
 62
256
370
-1
 48
1.0
  6
BYLAYER
 10
1139.732730884138391
 20
-2614.0910966952515082
 30
0.0
 11
1189.732730884138391
 21
-2614.0910966952515082
 31
0.0
  0
LINE
  5
156
100
AcDbEntity
100
AcDbLine
  8
CalepinageLattes
 62
256
370
-1
 48
1.0
  6
BYLAYER
 10
899.732730884138391
 20
-2614.0910966952515082
 30
0.0
 11
949.732730884138391
 21
-2614.0910966952515082
 31
0.0
  0
LINE
  5
157
100
AcDbEntity
100
AcDbLine
  8
CalepinageLattes
 62
256
370
-1
 48
1.0
  6
BYLAYER
 10
659.732730884138391
 20
-2614.0910966952515082
 30
0.0
 11
709.732730884138391
 21
-2614.0910966952515082
 31
0.0
  0
LINE
  5
158
100
AcDbEntity
100
AcDbLine
  8
CalepinageLattes
 62
256
370
-1
 48
1.0
  6
BYLAYER
 10
419.732730884138391
 20
-2614.0910966952515082
 30
0.0
 11
469.732730884138391
 21
-2614.0910966952515082
 31
0.0
  0
LINE
  5
159
100
AcDbEntity
100
AcDbLine
  8
CalepinageLattes
 62
256
370
-1
 48
1.0
  6
BYLAYER
 10
179.7327308841384195
 20
-2614.0910966952515082
 30
0.0
 11
229.7327308841384195
 21
-2614.0910966952515082
 31
0.0
  0
LINE
  5
15A
100
AcDbEntity
100
AcDbLine
  8
CalepinageLattes
 62
256
370
-1
 48
1.0
  6
BYLAYER
 10
2579.7327308841386184
 20
-2614.0910966952515082
 30
0.0
 11
2629.7327308841386184
 21
-2614.0910966952515082
 31
0.0
  0
LINE
  5
15B
100
AcDbEntity
100
AcDbLine
  8
CalepinageLattes
 62
256
370
-1
 48
1.0
  6
BYLAYER
 10
2339.7327308841386184
 20
-2614.0910966952515082
 30
0.0
 11
2389.7327308841386184
 21
-2614.0910966952515082
 31
0.0
  0
LINE
  5
15C
100
AcDbEntity
100
AcDbLine
  8
CalepinageLattes
 62
256
370
-1
 48
1.0
  6
BYLAYER
 10
2099.7327308841386184
 20
-2614.0910966952515082
 30
0.0
 11
2149.7327308841386184
 21
-2614.0910966952515082
 31
0.0
  0
LINE
  5
15D
100
AcDbEntity
100
AcDbLine
  8
CalepinageLattes
 62
256
370
-1
 48
1.0
  6
BYLAYER
 10
1859.732730884138391
 20
-2614.0910966952515082
 30
0.0
 11
1909.732730884138391
 21
-2614.0910966952515082
 31
0.0
  0
LINE
  5
15E
100
AcDbEntity
100
AcDbLine
  8
CalepinageLattes
 62
256
370
-1
 48
1.0
  6
BYLAYER
 10
1619.732730884138391
 20
-2614.0910966952515082
 30
0.0
 11
1669.732730884138391
 21
-2614.0910966952515082
 31
0.0
  0
LINE
  5
15F
100
AcDbEntity
100
AcDbLine
  8
CalepinageLattes
 62
256
370
-1
 48
1.0
  6
BYLAYER
 10
1379.732730884138391
 20
-2614.0910966952515082
 30
0.0
 11
1429.732730884138391
 21
-2614.0910966952515082
 31
0.0
  0
LINE
  5
160
100
AcDbEntity
100
AcDbLine
  8
CalepinageLattes
 62
256
370
-1
 48
1.0
  6
BYLAYER
 10
1079.732730884138391
 20
-1140.0480309375336674
 30
0.0
 11
1129.732730884138391
 21
-1140.0480309375336674
 31
0.0
  0
LINE
  5
161
100
AcDbEntity
100
AcDbLine
  8
CalepinageLattes
 62
256
370
-1
 48
1.0
  6
BYLAYER
 10
839.732730884138391
 20
-1140.0480309375336674
 30
0.0
 11
889.732730884138391
 21
-1140.0480309375336674
 31
0.0
  0
LINE
  5
162
100
AcDbEntity
100
AcDbLine
  8
CalepinageLattes
 62
256
370
-1
 48
1.0
  6
BYLAYER
 10
599.732730884138391
 20
-1140.0480309375336674
 30
0.0
 11
649.732730884138391
 21
-1140.0480309375336674
 31
0.0
  0
LINE
  5
163
100
AcDbEntity
100
AcDbLine
  8
CalepinageLattes
 62
256
370
-1
 48
1.0
  6
BYLAYER
 10
359.732730884138391
 20
-1140.0480309375336674
 30
0.0
 11
409.732730884138391
 21
-1140.0480309375336674
 31
0.0
  0
LINE
  5
164
100
AcDbEntity
100
AcDbLine
  8
CalepinageLattes
 62
256
370
-1
 48
1.0
  6
BYLAYER
 10
119.7327308841384195
 20
-1140.0480309375336674
 30
0.0
 11
169.7327308841384195
 21
-1140.0480309375336674
 31
0.0
  0
LINE
  5
165
100
AcDbEntity
100
AcDbLine
  8
CalepinageLattes
 62
256
370
-1
 48
1.0
  6
BYLAYER
 10
2759.7327308841386184
 20
-1140.0480309375336674
 30
0.0
 11
2809.7327308841386184
 21
-1140.0480309375336674
 31
0.0
  0
LINE
  5
166
100
AcDbEntity
100
AcDbLine
  8
CalepinageLattes
 62
256
370
-1
 48
1.0
  6
BYLAYER
 10
2519.7327308841386184
 20
-1140.0480309375336674
 30
0.0
 11
2569.7327308841386184
 21
-1140.0480309375336674
 31
0.0
  0
LINE
  5
167
100
AcDbEntity
100
AcDbLine
  8
CalepinageLattes
 62
256
370
-1
 48
1.0
  6
BYLAYER
 10
2279.7327308841386184
 20
-1140.0480309375336674
 30
0.0
 11
2329.7327308841386184
 21
-1140.0480309375336674
 31
0.0
  0
LINE
  5
168
100
AcDbEntity
100
AcDbLine
  8
CalepinageLattes
 62
256
370
-1
 48
1.0
  6
BYLAYER
 10
2039.732730884138391
 20
-1140.0480309375336674
 30
0.0
 11
2089.7327308841386184
 21
-1140.0480309375336674
 31
0.0
  0
LINE
  5
169
100
AcDbEntity
100
AcDbLine
  8
CalepinageLattes
 62
256
370
-1
 48
1.0
  6
BYLAYER
 10
1799.732730884138391
 20
-1140.0480309375336674
 30
0.0
 11
1849.732730884138391
 21
-1140.0480309375336674
 31
0.0
  0
LINE
  5
16A
100
AcDbEntity
100
AcDbLine
  8
CalepinageLattes
 62
256
370
-1
 48
1.0
  6
BYLAYER
 10
1559.732730884138391
 20
-1140.0480309375336674
 30
0.0
 11
1609.732730884138391
 21
-1140.0480309375336674
 31
0.0
  0
LINE
  5
16B
100
AcDbEntity
100
AcDbLine
  8
CalepinageLattes
 62
256
370
-1
 48
1.0
  6
BYLAYER
 10
1319.732730884138391
 20
-1140.0480309375336674
 30
0.0
 11
1369.732730884138391
 21
-1140.0480309375336674
 31
0.0
  0
LINE
  5
16C
100
AcDbEntity
100
AcDbLine
  8
CalepinageLattes
 62
256
370
-1
 48
1.0
  6
BYLAYER
 10
1249.732730884138391
 20
-2109.164758987557434
 30
0.0
 11
1199.732730884138391
 21
-2109.164758987557434
 31
0.0
  0
LINE
  5
16D
100
AcDbEntity
100
AcDbLine
  8
CalepinageLattes
 62
256
370
-1
 48
1.0
  6
BYLAYER
 10
1009.732730884138391
 20
-2109.164758987557434
 30
0.0
 11
959.732730884138391
 21
-2109.164758987557434
 31
0.0
  0
LINE
  5
16E
100
AcDbEntity
100
AcDbLine
  8
CalepinageLattes
 62
256
370
-1
 48
1.0
  6
BYLAYER
 10
769.732730884138391
 20
-2109.164758987557434
 30
0.0
 11
719.732730884138391
 21
-2109.164758987557434
 31
0.0
  0
LINE
  5
16F
100
AcDbEntity
100
AcDbLine
  8
CalepinageLattes
 62
256
370
-1
 48
1.0
  6
BYLAYER
 10
529.732730884138391
 20
-2109.164758987557434
 30
0.0
 11
479.732730884138391
 21
-2109.164758987557434
 31
0.0
  0
LINE
  5
170
100
AcDbEntity
100
AcDbLine
  8
CalepinageLattes
 62
256
370
-1
 48
1.0
  6
BYLAYER
 10
289.732730884138391
 20
-2109.164758987557434
 30
0.0
 11
239.7327308841384195
 21
-2109.164758987557434
 31
0.0
  0
LINE
  5
171
100
AcDbEntity
100
AcDbLine
  8
CalepinageLattes
 62
256
370
-1
 48
1.0
  6
BYLAYER
 10
49.999999999999801
 20
-2109.164758987557434
 30
0.0
 11
-0.000000000000199
 21
-2109.164758987557434
 31
0.0
  0
LINE
  5
172
100
AcDbEntity
100
AcDbLine
  8
CalepinageLattes
 62
256
370
-1
 48
1.0
  6
BYLAYER
 10
2690.0
 20
-2109.164758987557434
 30
0.0
 11
2640.0
 21
-2109.164758987557434
 31
0.0
  0
LINE
  5
173
100
AcDbEntity
100
AcDbLine
  8
CalepinageLattes
 62
256
370
-1
 48
1.0
  6
BYLAYER
 10
2450.0
 20
-2109.164758987557434
 30
0.0
 11
2400.0
 21
-2109.164758987557434
 31
0.0
  0
LINE
  5
174
100
AcDbEntity
100
AcDbLine
  8
CalepinageLattes
 62
256
370
-1
 48
1.0
  6
BYLAYER
 10
2209.7327308841386184
 20
-2109.164758987557434
 30
0.0
 11
2159.7327308841386184
 21
-2109.164758987557434
 31
0.0
  0
LINE
  5
175
100
AcDbEntity
100
AcDbLine
  8
CalepinageLattes
 62
256
370
-1
 48
1.0
  6
BYLAYER
 10
1969.732730884138391
 20
-2109.164758987557434
 30
0.0
 11
1919.732730884138391
 21
-2109.164758987557434
 31
0.0
  0
LINE
  5
176
100
AcDbEntity
100
AcDbLine
  8
CalepinageLattes
 62
256
370
-1
 48
1.0
  6
BYLAYER
 10
1729.732730884138391
 20
-2109.164758987557434
 30
0.0
 11
1679.732730884138391
 21
-2109.164758987557434
 31
0.0
  0
LINE
  5
177
100
AcDbEntity
100
AcDbLine
  8
CalepinageLattes
 62
256
370
-1
 48
1.0
  6
BYLAYER
 10
1489.732730884138391
 20
-2109.164758987557434
 30
0.0
 11
1439.732730884138391
 21
-2109.164758987557434
 31
0.0
  0
RAY
  5
178
100
AcDbEntity
100
AcDbLine
  8
R\U+00e9f\U+00e9rences
 62
256
370
-1
 48
1.0
  6
BYLAYER
 10
0.0000000000001286
 20
-2100.0
 30
0.0
 11
1.0
 21
0.0
 31
0.0
  0
RAY
  5
179
100
AcDbEntity
100
AcDbLine
  8
R\U+00e9f\U+00e9rences
 62
256
370
-1
 48
1.0
  6
BYLAYER
 10
0.0000000000001531
 20
-2500.0
 30
0.0
 11
0.9999999999999999
 21
0.0
 31
0.0
  0
LINE
  5
17A
100
AcDbEntity
100
AcDbLine
  8
R\U+00e9f\U+00e9rences
 62
256
370
-1
 48
1.0
  6
BYLAYER
 10
2817.7613631926024027
 20
-666.0006254840095608
 30
0.0
 11
1.7613631926019246
 21
-664.0006254840095608
 31
0.0
  0
LINE
  5
17B
100
AcDbEntity
100
AcDbLine
  8
R\U+00e9f\U+00e9rences
 62
256
370
-1
 48
1.0
  6
BYLAYER
 10
2817.4772723550859155
 20
-1066.0005245994921097
 30
0.0
 11
1.4772723550854538
 21
-1064.0005245994921097
 31
0.0
  0
ENDSEC
  0
SECTION
  2
OBJECTS
  0
DICTIONARY
  5
C
100
AcDbDictionary
280
0
281
1
  3
ACAD_GROUP
350
D
  3
ACAD_LAYOUT
350
1A
  3
ACAD_MLINESTYLE
350
17
  3
ACAD_PLOTSETTINGS
350
19
  3
ACAD_PLOTSTYLENAME
350
E
  3
AcDbVariableDictionary
350
17C
  3
QCAD_OBJECTS
350
17D
  0
DICTIONARY
  5
D
100
AcDbDictionary
280
0
281
1
  0
ACDBDICTIONARYWDFLT
  5
E
100
AcDbDictionary
281
1
  3
Normal
350
F
100
AcDbDictionaryWithDefault
340
F
  0
ACDBPLACEHOLDER
  5
F
  0
DICTIONARY
  5
17
100
AcDbDictionary
280
0
281
1
  3
Standard
350
18
  0
MLINESTYLE
  5
18
100
AcDbMlineStyle
  2
STANDARD
 70
0
  3

 62
256
 51
90.0
 52
90.0
 71
2
 49
0.5
 62
256
  6
BYLAYER
 49
-0.5
 62
256
  6
BYLAYER
  0
DICTIONARY
  5
19
100
AcDbDictionary
280
0
281
1
  0
DICTIONARY
  5
1A
100
AcDbDictionary
281
1
  3
Layout1
350
1E
  3
Layout2
350
26
  3
Model
350
22
  0
LAYOUT
  5
1E
100
AcDbPlotSettings
  1

  2
none_device
  4

  6

 40
0.0
 41
0.0
 42
0.0
 43
0.0
 44
0.0
 45
0.0
 46
0.0
 47
0.0
 48
0.0
 49
0.0
140
0.0
141
0.0
142
1.0
143
1.0
 70
688
 72
0
 73
0
 74
5
  7

 75
16
147
1.0
148
0.0
149
0.0
100
AcDbLayout
  1
Layout1
 70
1
 71
1
 10
0.0
 20
0.0
 11
420.0
 21
297.0
 12
0.0
 22
0.0
 32
0.0
 14
100000000000000000000.0
 24
100000000000000000000.0
 34
100000000000000000000.0
 15
-100000000000000000000.0
 25
-100000000000000000000.0
 35
-100000000000000000000.0
146
0.0
 13
0.0
 23
0.0
 33
0.0
 16
1.0
 26
0.0
 36
0.0
 17
0.0
 27
1.0
 37
0.0
 76
0
330
1B
  0
LAYOUT
  5
22
100
AcDbPlotSettings
  1

  2
none_device
  4

  6

 40
0.0
 41
0.0
 42
0.0
 43
0.0
 44
0.0
 45
0.0
 46
0.0
 47
0.0
 48
0.0
 49
0.0
140
0.0
141
0.0
142
1.0
143
1.0
 70
1712
 72
0
 73
0
 74
0
  7

 75
0
147
1.0
148
0.0
149
0.0
100
AcDbLayout
  1
Model
 70
1
 71
0
 10
0.0
 20
0.0
 11
12.0
 21
9.0
 12
0.0
 22
0.0
 32
0.0
 14
0.0
 24
0.0
 34
0.0
 15
0.0
 25
0.0
 35
0.0
146
0.0
 13
0.0
 23
0.0
 33
0.0
 16
1.0
 26
0.0
 36
0.0
 17
0.0
 27
1.0
 37
0.0
 76
0
330
1F
  0
LAYOUT
  5
26
100
AcDbPlotSettings
  1

  2
none_device
  4

  6

 40
0.0
 41
0.0
 42
0.0
 43
0.0
 44
0.0
 45
0.0
 46
0.0
 47
0.0
 48
0.0
 49
0.0
140
0.0
141
0.0
142
1.0
143
1.0
 70
688
 72
0
 73
0
 74
5
  7

 75
16
147
1.0
148
0.0
149
0.0
100
AcDbLayout
  1
Layout2
 70
1
 71
2
 10
0.0
 20
0.0
 11
12.0
 21
9.0
 12
0.0
 22
0.0
 32
0.0
 14
0.0
 24
0.0
 34
0.0
 15
0.0
 25
0.0
 35
0.0
146
0.0
 13
0.0
 23
0.0
 33
0.0
 16
1.0
 26
0.0
 36
0.0
 17
0.0
 27
1.0
 37
0.0
 76
0
330
23
  0
DICTIONARY
  5
17C
100
AcDbDictionary
281
1
  3
DIMASSOC
350
17F
  3
HIDETEXT
350
17E
  0
DICTIONARYVAR
  5
17E
100
DictionaryVariables
280
0
  1
2
  0
DICTIONARYVAR
  5
17F
100
DictionaryVariables
280
0
  1
1
  0
DICTIONARY
  5
17D
100
AcDbDictionary
281
1
  3
ColorSettings/BackgroundColor
350
180
  3
ColorSettings/ColorMode
350
181
  3
DimensionSettings/AngularFormat
350
182
  3
DimensionSettings/AngularPrecision
350
183
  3
DimensionSettings/DimensionFont
350
184
  3
DimensionSettings/KeepProportions
350
185
  3
DimensionSettings/LinearFormat
350
186
  3
DimensionSettings/LinearPrecision
350
187
  3
Grid/DisplayGrid00
350
188
  3
Grid/DisplayGrid01
350
189
  3
Grid/DisplayGrid02
350
18A
  3
Grid/DisplayGrid03
350
18B
  3
Grid/GridSpacingX00
350
18C
  3
Grid/GridSpacingX01
350
18D
  3
Grid/GridSpacingX02
350
18E
  3
Grid/GridSpacingX03
350
18F
  3
Grid/GridSpacingY00
350
190
  3
Grid/GridSpacingY01
350
191
  3
Grid/GridSpacingY02
350
192
  3
Grid/GridSpacingY03
350
193
  3
Grid/IsometricGrid00
350
194
  3
Grid/IsometricGrid01
350
195
  3
Grid/IsometricGrid02
350
196
  3
Grid/IsometricGrid03
350
197
  3
Grid/IsometricProjection00
350
198
  3
Grid/IsometricProjection01
350
199
  3
Grid/IsometricProjection02
350
19A
  3
Grid/IsometricProjection03
350
19B
  3
Grid/MetaGridSpacingX00
350
19C
  3
Grid/MetaGridSpacingX01
350
19D
  3
Grid/MetaGridSpacingX02
350
19E
  3
Grid/MetaGridSpacingX03
350
19F
  3
Grid/MetaGridSpacingY00
350
1A0
  3
Grid/MetaGridSpacingY01
350
1A1
  3
Grid/MetaGridSpacingY02
350
1A2
  3
Grid/MetaGridSpacingY03
350
1A3
  3
MultiPageSettings/Columns
350
1A4
  3
MultiPageSettings/GlueMarginsBottom
350
1A5
  3
MultiPageSettings/GlueMarginsLeft
350
1A6
  3
MultiPageSettings/GlueMarginsRight
350
1A7
  3
MultiPageSettings/GlueMarginsTop
350
1A8
  3
MultiPageSettings/PrintCropMarks
350
1A9
  3
MultiPageSettings/Rows
350
1AA
  3
PageSettings/OffsetX
350
1AB
  3
PageSettings/OffsetY
350
1AC
  3
PageSettings/PageOrientation
350
1AD
  3
PageSettings/PaperHeight
350
1AE
  3
PageSettings/PaperWidth
350
1AF
  3
PageSettings/Scale
350
1B0
  3
PageSettings/ShowPaperBorders
350
1B1
  3
QCADVersion
350
1B2
  3
UnitSettings/PaperUnit
350
1B3
  3
ViewportCenter
350
1B4
  3
ViewportHeight
350
1B5
  3
ViewportWidth
350
1B6
  0
XRECORD
  5
180
330
17D
100
AcDbXrecord
280
1
1000
Blanc
  0
XRECORD
  5
181
330
17D
100
AcDbXrecord
280
1
1000
FullColor
  0
XRECORD
  5
182
330
17D
100
AcDbXrecord
280
1
 90
0
  0
XRECORD
  5
183
330
17D
100
AcDbXrecord
280
1
 90
0
  0
XRECORD
  5
184
330
17D
100
AcDbXrecord
280
1
1000
DejaVu Sans
  0
XRECORD
  5
185
330
17D
100
AcDbXrecord
280
1
290
1
  0
XRECORD
  5
186
330
17D
100
AcDbXrecord
280
1
 90
2
  0
XRECORD
  5
187
330
17D
100
AcDbXrecord
280
1
 90
4
  0
XRECORD
  5
188
330
17D
100
AcDbXrecord
280
1
290
1
  0
XRECORD
  5
189
330
17D
100
AcDbXrecord
280
1
290
1
  0
XRECORD
  5
18A
330
17D
100
AcDbXrecord
280
1
290
1
  0
XRECORD
  5
18B
330
17D
100
AcDbXrecord
280
1
290
1
  0
XRECORD
  5
18C
330
17D
100
AcDbXrecord
280
1
1000
auto
  0
XRECORD
  5
18D
330
17D
100
AcDbXrecord
280
1
1000
auto
  0
XRECORD
  5
18E
330
17D
100
AcDbXrecord
280
1
1000
auto
  0
XRECORD
  5
18F
330
17D
100
AcDbXrecord
280
1
1000
auto
  0
XRECORD
  5
190
330
17D
100
AcDbXrecord
280
1
1000
auto
  0
XRECORD
  5
191
330
17D
100
AcDbXrecord
280
1
1000
auto
  0
XRECORD
  5
192
330
17D
100
AcDbXrecord
280
1
1000
auto
  0
XRECORD
  5
193
330
17D
100
AcDbXrecord
280
1
1000
auto
  0
XRECORD
  5
194
330
17D
100
AcDbXrecord
280
1
290
0
  0
XRECORD
  5
195
330
17D
100
AcDbXrecord
280
1
290
0
  0
XRECORD
  5
196
330
17D
100
AcDbXrecord
280
1
290
0
  0
XRECORD
  5
197
330
17D
100
AcDbXrecord
280
1
290
0
  0
XRECORD
  5
198
330
17D
100
AcDbXrecord
280
1
 90
0
  0
XRECORD
  5
199
330
17D
100
AcDbXrecord
280
1
 90
0
  0
XRECORD
  5
19A
330
17D
100
AcDbXrecord
280
1
 90
0
  0
XRECORD
  5
19B
330
17D
100
AcDbXrecord
280
1
 90
0
  0
XRECORD
  5
19C
330
17D
100
AcDbXrecord
280
1
1000
auto
  0
XRECORD
  5
19D
330
17D
100
AcDbXrecord
280
1
1000
auto
  0
XRECORD
  5
19E
330
17D
100
AcDbXrecord
280
1
1000
auto
  0
XRECORD
  5
19F
330
17D
100
AcDbXrecord
280
1
1000
auto
  0
XRECORD
  5
1A0
330
17D
100
AcDbXrecord
280
1
1000
auto
  0
XRECORD
  5
1A1
330
17D
100
AcDbXrecord
280
1
1000
auto
  0
XRECORD
  5
1A2
330
17D
100
AcDbXrecord
280
1
1000
auto
  0
XRECORD
  5
1A3
330
17D
100
AcDbXrecord
280
1
1000
auto
  0
XRECORD
  5
1A4
330
17D
100
AcDbXrecord
280
1
 90
1
  0
XRECORD
  5
1A5
330
17D
100
AcDbXrecord
280
1
 40
10.0
  0
XRECORD
  5
1A6
330
17D
100
AcDbXrecord
280
1
 40
10.0
  0
XRECORD
  5
1A7
330
17D
100
AcDbXrecord
280
1
 40
10.0
  0
XRECORD
  5
1A8
330
17D
100
AcDbXrecord
280
1
 40
10.0
  0
XRECORD
  5
1A9
330
17D
100
AcDbXrecord
280
1
290
0
  0
XRECORD
  5
1AA
330
17D
100
AcDbXrecord
280
1
 90
1
  0
XRECORD
  5
1AB
330
17D
100
AcDbXrecord
280
1
 40
0.0
  0
XRECORD
  5
1AC
330
17D
100
AcDbXrecord
280
1
 40
0.0
  0
XRECORD
  5
1AD
330
17D
100
AcDbXrecord
280
1
1000
Portrait
  0
XRECORD
  5
1AE
330
17D
100
AcDbXrecord
280
1
 40
297.0
  0
XRECORD
  5
1AF
330
17D
100
AcDbXrecord
280
1
 40
210.0
  0
XRECORD
  5
1B0
330
17D
100
AcDbXrecord
280
1
1000
1:1
  0
XRECORD
  5
1B1
330
17D
100
AcDbXrecord
280
1
290
1
  0
XRECORD
  5
1B2
330
17D
100
AcDbXrecord
280
1
1000
3.15.2
  0
XRECORD
  5
1B3
330
17D
100
AcDbXrecord
280
1
 90
4
  0
XRECORD
  5
1B5
330
17D
100
AcDbXrecord
280
1
 40
3516.4988882030943387
  0
XRECORD
  5
1B6
330
17D
100
AcDbXrecord
280
1
 40
4385.1161434564482988
  0
ENDSEC
  0
EOF
