  0
SECTION
  2
HEADER
  9
$ACADVER
  1
AC1027
  9
$ACADMAINTVER
 70
     8
  9
$DWGCODEPAGE
  3
ANSI_1252
  9
$REQUIREDVERSIONS
160
                 0
  9
$INSBASE
 10
0.0
 20
0.0
 30
0.0
  9
$EXTMIN
 10
1.000000000000000E+20
 20
1.000000000000000E+20
 30
1.000000000000000E+20
  9
$EXTMAX
 10
-1.000000000000000E+20
 20
-1.000000000000000E+20
 30
-1.000000000000000E+20
  9
$LIMMIN
 10
0.0
 20
0.0
  9
$LIMMAX
 10
12.0
 20
9.0
  9
$ORTHOMODE
 70
     0
  9
$REGENMODE
 70
     1
  9
$FILLMODE
 70
     1
  9
$QTEXTMODE
 70
     0
  9
$MIRRTEXT
 70
     1
  9
$LTSCALE
 40
1.0
  9
$ATTMODE
 70
     1
  9
$TEXTSIZE
 40
0.2
  9
$TRACEWID
 40
0.05
  9
$TEXTSTYLE
  7
Standard
  9
$CLAYER
  8
0
  9
$CELTYPE
  6
ByLayer
  9
$CECOLOR
 62
   256
  9
$CELTSCALE
 40
1.0
  9
$DISPSILH
 70
     0
  9
$DIMSCALE
 40
1.0
  9
$DIMASZ
 40
10.0
  9
$DIMEXO
 40
2.5
  9
$DIMDLI
 40
0.38
  9
$DIMRND
 40
0.0
  9
$DIMDLE
 40
0.0
  9
$DIMEXE
 40
5.0
  9
$DIMTP
 40
0.0
  9
$DIMTM
 40
0.0
  9
$DIMTXT
 40
10.0
  9
$DIMCEN
 40
0.09
  9
$DIMTSZ
 40
0.0
  9
$DIMTOL
 70
     0
  9
$DIMLIM
 70
     0
  9
$DIMTIH
 70
     1
  9
$DIMTOH
 70
     1
  9
$DIMSE1
 70
     0
  9
$DIMSE2
 70
     0
  9
$DIMTAD
 70
     0
  9
$DIMZIN
 70
     8
  9
$DIMBLK
  1

  9
$DIMASO
 70
     1
  9
$DIMSHO
 70
     1
  9
$DIMPOST
  1

  9
$DIMAPOST
  1

  9
$DIMALT
 70
     0
  9
$DIMALTD
 70
     2
  9
$DIMALTF
 40
25.4
  9
$DIMLFAC
 40
1.0
  9
$DIMTOFL
 70
     0
  9
$DIMTVP
 40
0.0
  9
$DIMTIX
 70
     0
  9
$DIMSOXD
 70
     0
  9
$DIMSAH
 70
     0
  9
$DIMBLK1
  1

  9
$DIMBLK2
  1

  9
$DIMSTYLE
  2
Standard
  9
$DIMCLRD
 70
     0
  9
$DIMCLRE
 70
     0
  9
$DIMCLRT
 70
     0
  9
$DIMTFAC
 40
1.0
  9
$DIMGAP
 40
2.5
  9
$DIMJUST
 70
     0
  9
$DIMSD1
 70
     0
  9
$DIMSD2
 70
     0
  9
$DIMTOLJ
 70
     1
  9
$DIMTZIN
 70
     0
  9
$DIMALTZ
 70
     0
  9
$DIMALTTZ
 70
     0
  9
$DIMUPT
 70
     0
  9
$DIMDEC
 70
     4
  9
$DIMTDEC
 70
     4
  9
$DIMALTU
 70
     2
  9
$DIMALTTD
 70
     2
  9
$DIMTXSTY
  7
Standard
  9
$DIMAUNIT
 70
     0
  9
$DIMADEC
 70
     0
  9
$DIMALTRND
 40
0.0
  9
$DIMAZIN
 70
     2
  9
$DIMDSEP
 70
    46
  9
$DIMATFIT
 70
     3
  9
$DIMFRAC
 70
     0
  9
$DIMLDRBLK
  1

  9
$DIMLUNIT
 70
     2
  9
$DIMLWD
 70
    -2
  9
$DIMLWE
 70
    -2
  9
$DIMTMOVE
 70
     0
  9
$DIMFXL
 40
1.0
  9
$DIMFXLON
 70
     0
  9
$DIMJOGANG
 40
0.7853981633974483
  9
$DIMTFILL
 70
     0
  9
$DIMTFILLCLR
 70
     0
  9
$DIMARCSYM
 70
     0
  9
$DIMLTYPE
  6

  9
$DIMLTEX1
  6

  9
$DIMLTEX2
  6

  9
$DIMTXTDIRECTION
 70
     0
  9
$LUNITS
 70
     2
  9
$LUPREC
 70
     4
  9
$SKETCHINC
 40
0.1
  9
$FILLETRAD
 40
0.5
  9
$AUNITS
 70
     0
  9
$AUPREC
 70
     0
  9
$MENU
  1
.
  9
$ELEVATION
 40
0.0
  9
$PELEVATION
 40
0.0
  9
$THICKNESS
 40
0.0
  9
$LIMCHECK
 70
     0
  9
$CHAMFERA
 40
0.0
  9
$CHAMFERB
 40
0.0
  9
$CHAMFERC
 40
0.0
  9
$CHAMFERD
 40
0.0
  9
$SKPOLY
 70
     0
  9
$TDCREATE
 40
2457136.670729167
  9
$TDUCREATE
 40
2457136.6290625
  9
$TDUPDATE
 40
2457136.670729167
  9
$TDUUPDATE
 40
2457136.6290625
  9
$TDINDWG
 40
0.0000000116
  9
$TDUSRTIMER
 40
0.0000000116
  9
$USRTIMER
 70
     1
  9
$ANGBASE
 50
0.0
  9
$ANGDIR
 70
     0
  9
$PDMODE
 70
     0
  9
$PDSIZE
 40
0.0
  9
$PLINEWID
 40
0.0
  9
$SPLFRAME
 70
     0
  9
$SPLINETYPE
 70
     6
  9
$SPLINESEGS
 70
     8
  9
$HANDSEED
  5
2F9
  9
$SURFTAB1
 70
     6
  9
$SURFTAB2
 70
     6
  9
$SURFTYPE
 70
     6
  9
$SURFU
 70
     6
  9
$SURFV
 70
     6
  9
$UCSBASE
  2

  9
$UCSNAME
  2

  9
$UCSORG
 10
0.0
 20
0.0
 30
0.0
  9
$UCSXDIR
 10
1.0
 20
0.0
 30
0.0
  9
$UCSYDIR
 10
0.0
 20
1.0
 30
0.0
  9
$UCSORTHOREF
  2

  9
$UCSORTHOVIEW
 70
     0
  9
$UCSORGTOP
 10
0.0
 20
0.0
 30
0.0
  9
$UCSORGBOTTOM
 10
0.0
 20
0.0
 30
0.0
  9
$UCSORGLEFT
 10
0.0
 20
0.0
 30
0.0
  9
$UCSORGRIGHT
 10
0.0
 20
0.0
 30
0.0
  9
$UCSORGFRONT
 10
0.0
 20
0.0
 30
0.0
  9
$UCSORGBACK
 10
0.0
 20
0.0
 30
0.0
  9
$PUCSBASE
  2

  9
$PUCSNAME
  2

  9
$PUCSORG
 10
0.0
 20
0.0
 30
0.0
  9
$PUCSXDIR
 10
1.0
 20
0.0
 30
0.0
  9
$PUCSYDIR
 10
0.0
 20
1.0
 30
0.0
  9
$PUCSORTHOREF
  2

  9
$PUCSORTHOVIEW
 70
     0
  9
$PUCSORGTOP
 10
0.0
 20
0.0
 30
0.0
  9
$PUCSORGBOTTOM
 10
0.0
 20
0.0
 30
0.0
  9
$PUCSORGLEFT
 10
0.0
 20
0.0
 30
0.0
  9
$PUCSORGRIGHT
 10
0.0
 20
0.0
 30
0.0
  9
$PUCSORGFRONT
 10
0.0
 20
0.0
 30
0.0
  9
$PUCSORGBACK
 10
0.0
 20
0.0
 30
0.0
  9
$USERI1
 70
     0
  9
$USERI2
 70
     0
  9
$USERI3
 70
     0
  9
$USERI4
 70
     0
  9
$USERI5
 70
     0
  9
$USERR1
 40
0.0
  9
$USERR2
 40
0.0
  9
$USERR3
 40
0.0
  9
$USERR4
 40
0.0
  9
$USERR5
 40
0.0
  9
$WORLDVIEW
 70
     1
  9
$SHADEDGE
 70
     3
  9
$SHADEDIF
 70
    70
  9
$TILEMODE
 70
     1
  9
$MAXACTVP
 70
    64
  9
$PINSBASE
 10
0.0
 20
0.0
 30
0.0
  9
$PLIMCHECK
 70
     0
  9
$PEXTMIN
 10
1.000000000000000E+20
 20
1.000000000000000E+20
 30
1.000000000000000E+20
  9
$PEXTMAX
 10
-1.000000000000000E+20
 20
-1.000000000000000E+20
 30
-1.000000000000000E+20
  9
$PLIMMIN
 10
0.0
 20
0.0
  9
$PLIMMAX
 10
12.0
 20
9.0
  9
$UNITMODE
 70
     0
  9
$VISRETAIN
 70
     1
  9
$PLINEGEN
 70
     0
  9
$PSLTSCALE
 70
     1
  9
$TREEDEPTH
 70
  3020
  9
$CMLSTYLE
  2
Standard
  9
$CMLJUST
 70
     0
  9
$CMLSCALE
 40
1.0
  9
$PROXYGRAPHICS
 70
     1
  9
$MEASUREMENT
 70
     1
  9
$CELWEIGHT
370
    -1
  9
$ENDCAPS
280
     0
  9
$JOINSTYLE
280
     0
  9
$LWDISPLAY
290
     0
  9
$INSUNITS
 70
     4
  9
$HYPERLINKBASE
  1

  9
$STYLESHEET
  1

  9
$XEDIT
290
     1
  9
$CEPSNTYPE
380
     0
  9
$PSTYLEMODE
290
     1
  9
$FINGERPRINTGUID
  2
{0801809D-5D15-C736-501C-6CA8F6C6E4C3}
  9
$VERSIONGUID
  2
{FAEB1C32-E019-11D5-929B-00C0DF256EC4}
  9
$EXTNAMES
290
     1
  9
$PSVPSCALE
 40
0.0
  9
$OLESTARTUP
290
     0
  9
$SORTENTS
280
   127
  9
$INDEXCTL
280
     0
  9
$HIDETEXT
280
     1
  9
$XCLIPFRAME
280
     2
  9
$HALOGAP
280
     0
  9
$OBSCOLOR
 70
   257
  9
$OBSLTYPE
280
     0
  9
$INTERSECTIONDISPLAY
280
     0
  9
$INTERSECTIONCOLOR
 70
   257
  9
$DIMASSOC
280
     2
  9
$PROJECTNAME
  1

  9
$CAMERADISPLAY
290
     0
  9
$LENSLENGTH
 40
50.0
  9
$CAMERAHEIGHT
 40
0.0
  9
$STEPSPERSEC
 40
2.0
  9
$STEPSIZE
 40
6.0
  9
$3DDWFPREC
 40
2.0
  9
$PSOLWIDTH
 40
0.25
  9
$PSOLHEIGHT
 40
4.0
  9
$LOFTANG1
 40
1.570796326794897
  9
$LOFTANG2
 40
1.570796326794897
  9
$LOFTMAG1
 40
0.0
  9
$LOFTMAG2
 40
0.0
  9
$LOFTPARAM
 70
     7
  9
$LOFTNORMALS
280
     1
  9
$LATITUDE
 40
37.795
  9
$LONGITUDE
 40
-122.394
  9
$NORTHDIRECTION
 40
0.0
  9
$TIMEZONE
 70
 -8000
  9
$LIGHTGLYPHDISPLAY
280
     1
  9
$TILEMODELIGHTSYNCH
280
     1
  9
$CMATERIAL
347
1E9
  9
$SOLIDHIST
280
     0
  9
$SHOWHIST
280
     1
  9
$DWFFRAME
280
     2
  9
$DGNFRAME
280
     2
  9
$REALWORLDSCALE
290
     1
  9
$INTERFERECOLOR
 62
   256
  9
$CSHADOW
280
     0
  9
$SHADOWPLANELOCATION
 40
0.0
  0
ENDSEC
  0
SECTION
  2
CLASSES
  0
CLASS
  1
ACDBDICTIONARYWDFLT
  2
AcDbDictionaryWithDefault
  3
ObjectDBX Classes
 90
        0
 91
        4
280
     0
281
     0
  0
CLASS
  1
VISUALSTYLE
  2
AcDbVisualStyle
  3
ObjectDBX Classes
 90
     4095
 91
        4
280
     0
281
     0
  0
CLASS
  1
MATERIAL
  2
AcDbMaterial
  3
ObjectDBX Classes
 90
     1153
 91
        4
280
     0
281
     0
  0
CLASS
  1
SCALE
  2
AcDbScale
  3
ObjectDBX Classes
 90
     1153
 91
        4
280
     0
281
     0
  0
CLASS
  1
TABLESTYLE
  2
AcDbTableStyle
  3
ObjectDBX Classes
 90
     4095
 91
        4
280
     0
281
     0
  0
CLASS
  1
MLEADERSTYLE
  2
AcDbMLeaderStyle
  3
ACDB_MLEADERSTYLE_CLASS
 90
     4095
 91
        4
280
     0
281
     0
  0
CLASS
  1
SUN
  2
AcDbSun
  3
SCENEOE
 90
     1153
 91
        4
280
     0
281
     0
  0
CLASS
  1
DICTIONARYVAR
  2
AcDbDictionaryVar
  3
ObjectDBX Classes
 90
        0
 91
        4
280
     0
281
     0
  0
CLASS
  1
CELLSTYLEMAP
  2
AcDbCellStyleMap
  3
ObjectDBX Classes
 90
     1152
 91
        4
280
     0
281
     0
  0
ENDSEC
  0
SECTION
  2
TABLES
  0
TABLE
  2
VPORT
  5
1AE
330
0
100
AcDbSymbolTable
 70
     1
  0
VPORT
  5
1CE
330
1AE
100
AcDbSymbolTableRecord
100
AcDbViewportTableRecord
  2
*Active
 70
     0
 10
0.0
 20
0.0
 11
1.0
 21
1.0
 12
10.42990654205607
 22
4.5
 13
0.0
 23
0.0
 14
0.5
 24
0.5
 15
0.5
 25
0.5
 16
0.0
 26
0.0
 36
1.0
 17
0.0
 27
0.0
 37
0.0
 40
9.0
 41
1.972972972850329
 42
50.0
 43
0.0
 44
0.0
 50
0.0
 51
0.0
 71
     0
 72
   100
 73
     1
 74
     3
 75
     0
 76
     0
 77
     0
 78
     0
281
     0
 65
     1
110
0.0
120
0.0
130
0.0
111
1.0
121
0.0
131
0.0
112
0.0
122
1.0
132
0.0
 79
     0
146
0.0
 60
     3
 61
     5
292
     1
282
     1
141
0.0
142
0.0
 63
   250
361
212
  0
ENDTAB
  0
TABLE
  2
LTYPE
  5
1AB
330
0
100
AcDbSymbolTable
 70
    48
  0
LTYPE
  5
1B9
330
1AB
100
AcDbSymbolTableRecord
100
AcDbLinetypeTableRecord
  2
ByBlock
 70
     0
  3

 72
    65
 73
     0
 40
0.0
  0
LTYPE
  5
1BA
330
1AB
100
AcDbSymbolTableRecord
100
AcDbLinetypeTableRecord
  2
ByLayer
 70
     0
  3

 72
    65
 73
     0
 40
0.0
  0
LTYPE
  5
1BB
330
1AB
100
AcDbSymbolTableRecord
100
AcDbLinetypeTableRecord
  2
Continuous
 70
     0
  3
Solid line
 72
    65
 73
     0
 40
0.0
  0
LTYPE
  5
248
330
1AB
100
AcDbSymbolTableRecord
100
AcDbLinetypeTableRecord
  2
ACAD_ISO02W100
 70
     0
  3
ISO dash __ __ __ __ __ __ __ __ __ __ __ __ __
 72
    65
 73
     2
 40
15.0
 49
12.0
 74
     0
 49
-3.0
 74
     0
  0
LTYPE
  5
249
330
1AB
100
AcDbSymbolTableRecord
100
AcDbLinetypeTableRecord
  2
ACAD_ISO03W100
 70
     0
  3
ISO dash space __    __    __    __    __    __
 72
    65
 73
     2
 40
30.0
 49
12.0
 74
     0
 49
-18.0
 74
     0
  0
LTYPE
  5
24A
330
1AB
100
AcDbSymbolTableRecord
100
AcDbLinetypeTableRecord
  2
ACAD_ISO04W100
 70
     0
  3
ISO long-dash dot ____ . ____ . ____ . ____ . _
 72
    65
 73
     4
 40
30.0
 49
24.0
 74
     0
 49
-3.0
 74
     0
 49
0.0
 74
     0
 49
-3.0
 74
     0
  0
LTYPE
  5
24B
330
1AB
100
AcDbSymbolTableRecord
100
AcDbLinetypeTableRecord
  2
ACAD_ISO05W100
 70
     0
  3
ISO long-dash double-dot ____ .. ____ .. ____ . 
 72
    65
 73
     6
 40
33.0
 49
24.0
 74
     0
 49
-3.0
 74
     0
 49
0.0
 74
     0
 49
-3.0
 74
     0
 49
0.0
 74
     0
 49
-3.0
 74
     0
  0
LTYPE
  5
24C
330
1AB
100
AcDbSymbolTableRecord
100
AcDbLinetypeTableRecord
  2
ACAD_ISO06W100
 70
     0
  3
ISO long-dash triple-dot ____ ... ____ ... ____
 72
    65
 73
     8
 40
36.0
 49
24.0
 74
     0
 49
-3.0
 74
     0
 49
0.0
 74
     0
 49
-3.0
 74
     0
 49
0.0
 74
     0
 49
-3.0
 74
     0
 49
0.0
 74
     0
 49
-3.0
 74
     0
  0
LTYPE
  5
24D
330
1AB
100
AcDbSymbolTableRecord
100
AcDbLinetypeTableRecord
  2
ACAD_ISO07W100
 70
     0
  3
ISO dot . . . . . . . . . . . . . . . . . . . . 
 72
    65
 73
     2
 40
3.0
 49
0.0
 74
     0
 49
-3.0
 74
     0
  0
LTYPE
  5
24E
330
1AB
100
AcDbSymbolTableRecord
100
AcDbLinetypeTableRecord
  2
ACAD_ISO08W100
 70
     0
  3
ISO long-dash short-dash ____ __ ____ __ ____ _
 72
    65
 73
     4
 40
36.0
 49
24.0
 74
     0
 49
-3.0
 74
     0
 49
6.0
 74
     0
 49
-3.0
 74
     0
  0
LTYPE
  5
24F
330
1AB
100
AcDbSymbolTableRecord
100
AcDbLinetypeTableRecord
  2
ACAD_ISO09W100
 70
     0
  3
ISO long-dash double-short-dash ____ __ __ ____
 72
    65
 73
     6
 40
45.0
 49
24.0
 74
     0
 49
-3.0
 74
     0
 49
6.0
 74
     0
 49
-3.0
 74
     0
 49
6.0
 74
     0
 49
-3.0
 74
     0
  0
LTYPE
  5
250
330
1AB
100
AcDbSymbolTableRecord
100
AcDbLinetypeTableRecord
  2
ACAD_ISO10W100
 70
     0
  3
ISO dash dot __ . __ . __ . __ . __ . __ . __ . 
 72
    65
 73
     4
 40
18.0
 49
12.0
 74
     0
 49
-3.0
 74
     0
 49
0.0
 74
     0
 49
-3.0
 74
     0
  0
LTYPE
  5
251
330
1AB
100
AcDbSymbolTableRecord
100
AcDbLinetypeTableRecord
  2
ACAD_ISO11W100
 70
     0
  3
ISO double-dash dot __ __ . __ __ . __ __ . __ _
 72
    65
 73
     6
 40
33.0
 49
12.0
 74
     0
 49
-3.0
 74
     0
 49
12.0
 74
     0
 49
-3.0
 74
     0
 49
0.0
 74
     0
 49
-3.0
 74
     0
  0
LTYPE
  5
252
330
1AB
100
AcDbSymbolTableRecord
100
AcDbLinetypeTableRecord
  2
ACAD_ISO12W100
 70
     0
  3
ISO dash double-dot __ . . __ . . __ . . __ . . 
 72
    65
 73
     6
 40
21.0
 49
12.0
 74
     0
 49
-3.0
 74
     0
 49
0.0
 74
     0
 49
-3.0
 74
     0
 49
0.0
 74
     0
 49
-3.0
 74
     0
  0
LTYPE
  5
253
330
1AB
100
AcDbSymbolTableRecord
100
AcDbLinetypeTableRecord
  2
ACAD_ISO13W100
 70
     0
  3
ISO double-dash double-dot __ __ . . __ __ . . _
 72
    65
 73
     8
 40
36.0
 49
12.0
 74
     0
 49
-3.0
 74
     0
 49
12.0
 74
     0
 49
-3.0
 74
     0
 49
0.0
 74
     0
 49
-3.0
 74
     0
 49
0.0
 74
     0
 49
-3.0
 74
     0
  0
LTYPE
  5
254
330
1AB
100
AcDbSymbolTableRecord
100
AcDbLinetypeTableRecord
  2
ACAD_ISO14W100
 70
     0
  3
ISO dash triple-dot __ . . . __ . . . __ . . . _
 72
    65
 73
     8
 40
24.0
 49
12.0
 74
     0
 49
-3.0
 74
     0
 49
0.0
 74
     0
 49
-3.0
 74
     0
 49
0.0
 74
     0
 49
-3.0
 74
     0
 49
0.0
 74
     0
 49
-3.0
 74
     0
  0
LTYPE
  5
255
330
1AB
100
AcDbSymbolTableRecord
100
AcDbLinetypeTableRecord
  2
ACAD_ISO15W100
 70
     0
  3
ISO double-dash triple-dot __ __ . . . __ __ . .
 72
    65
 73
    10
 40
39.0
 49
12.0
 74
     0
 49
-3.0
 74
     0
 49
12.0
 74
     0
 49
-3.0
 74
     0
 49
0.0
 74
     0
 49
-3.0
 74
     0
 49
0.0
 74
     0
 49
-3.0
 74
     0
 49
0.0
 74
     0
 49
-3.0
 74
     0
  0
LTYPE
  5
258
330
1AB
100
AcDbSymbolTableRecord
100
AcDbLinetypeTableRecord
  2
BATTING
 70
     0
  3
Batting SSSSSSSSSSSSSSSSSSSSSSSSSSSSSSSSSSSSSSSSSSSSSSS
 72
    65
 73
     4
 40
10.16254
 49
0.00254
 74
     0
 49
-2.54
 74
     2
 75
     0
340
256
 46
2.54
 50
0.0
 44
-2.54
 45
0.0
  9
BAT
 49
-5.08
 74
     2
 75
     0
340
257
 46
2.54
 50
180.0
 44
2.54
 45
0.0
  9
BAT
 49
-2.54
 74
     0
  0
LTYPE
  5
259
330
1AB
100
AcDbSymbolTableRecord
100
AcDbLinetypeTableRecord
  2
BORDER
 70
     0
  3
Border __ __ . __ __ . __ __ . __ __ . __ __ .
 72
    65
 73
     6
 40
44.45
 49
12.7
 74
     0
 49
-6.35
 74
     0
 49
12.7
 74
     0
 49
-6.35
 74
     0
 49
0.0
 74
     0
 49
-6.35
 74
     0
  0
LTYPE
  5
25A
330
1AB
100
AcDbSymbolTableRecord
100
AcDbLinetypeTableRecord
  2
BORDER2
 70
     0
  3
Border (.5x) __.__.__.__.__.__.__.__.__.__.__.
 72
    65
 73
     6
 40
22.225
 49
6.35
 74
     0
 49
-3.175
 74
     0
 49
6.35
 74
     0
 49
-3.175
 74
     0
 49
0.0
 74
     0
 49
-3.175
 74
     0
  0
LTYPE
  5
25B
330
1AB
100
AcDbSymbolTableRecord
100
AcDbLinetypeTableRecord
  2
BORDERX2
 70
     0
  3
Border (2x) ____  ____  .  ____  ____  .  ___
 72
    65
 73
     6
 40
88.89999999999999
 49
25.4
 74
     0
 49
-12.7
 74
     0
 49
25.4
 74
     0
 49
-12.7
 74
     0
 49
0.0
 74
     0
 49
-12.7
 74
     0
  0
LTYPE
  5
25C
330
1AB
100
AcDbSymbolTableRecord
100
AcDbLinetypeTableRecord
  2
CENTER
 70
     0
  3
Center ____ _ ____ _ ____ _ ____ _ ____ _ ____
 72
    65
 73
     4
 40
50.8
 49
31.75
 74
     0
 49
-6.35
 74
     0
 49
6.35
 74
     0
 49
-6.35
 74
     0
  0
LTYPE
  5
25D
330
1AB
100
AcDbSymbolTableRecord
100
AcDbLinetypeTableRecord
  2
CENTER2
 70
     0
  3
Center (.5x) ___ _ ___ _ ___ _ ___ _ ___ _ ___
 72
    65
 73
     4
 40
28.575
 49
19.05
 74
     0
 49
-3.175
 74
     0
 49
3.175
 74
     0
 49
-3.175
 74
     0
  0
LTYPE
  5
25E
330
1AB
100
AcDbSymbolTableRecord
100
AcDbLinetypeTableRecord
  2
CENTERX2
 70
     0
  3
Center (2x) ________  __  ________  __  _____
 72
    65
 73
     4
 40
101.6
 49
63.5
 74
     0
 49
-12.7
 74
     0
 49
12.7
 74
     0
 49
-12.7
 74
     0
  0
LTYPE
  5
25F
330
1AB
100
AcDbSymbolTableRecord
100
AcDbLinetypeTableRecord
  2
DASHDOT
 70
     0
  3
Dash dot __ . __ . __ . __ . __ . __ . __ . __
 72
    65
 73
     4
 40
25.4
 49
12.7
 74
     0
 49
-6.35
 74
     0
 49
0.0
 74
     0
 49
-6.35
 74
     0
  0
LTYPE
  5
260
330
1AB
100
AcDbSymbolTableRecord
100
AcDbLinetypeTableRecord
  2
DASHDOT2
 70
     0
  3
Dash dot (.5x) _._._._._._._._._._._._._._._.
 72
    65
 73
     4
 40
12.7
 49
6.35
 74
     0
 49
-3.175
 74
     0
 49
0.0
 74
     0
 49
-3.175
 74
     0
  0
LTYPE
  5
261
330
1AB
100
AcDbSymbolTableRecord
100
AcDbLinetypeTableRecord
  2
DASHDOTX2
 70
     0
  3
Dash dot (2x) ____  .  ____  .  ____  .  ___
 72
    65
 73
     4
 40
50.8
 49
25.4
 74
     0
 49
-12.7
 74
     0
 49
0.0
 74
     0
 49
-12.7
 74
     0
  0
LTYPE
  5
262
330
1AB
100
AcDbSymbolTableRecord
100
AcDbLinetypeTableRecord
  2
DASHED
 70
     0
  3
Dashed __ __ __ __ __ __ __ __ __ __ __ __ __ _
 72
    65
 73
     2
 40
19.05
 49
12.7
 74
     0
 49
-6.35
 74
     0
  0
LTYPE
  5
263
330
1AB
100
AcDbSymbolTableRecord
100
AcDbLinetypeTableRecord
  2
DASHED2
 70
     0
  3
Dashed (.5x) _ _ _ _ _ _ _ _ _ _ _ _ _ _ _ _ _ 
 72
    65
 73
     2
 40
9.524999999999999
 49
6.35
 74
     0
 49
-3.175
 74
     0
  0
LTYPE
  5
264
330
1AB
100
AcDbSymbolTableRecord
100
AcDbLinetypeTableRecord
  2
DASHEDX2
 70
     0
  3
Dashed (2x) ____  ____  ____  ____  ____  ___
 72
    65
 73
     2
 40
38.09999999999999
 49
25.4
 74
     0
 49
-12.7
 74
     0
  0
LTYPE
  5
265
330
1AB
100
AcDbSymbolTableRecord
100
AcDbLinetypeTableRecord
  2
DIVIDE
 70
     0
  3
Divide ____ . . ____ . . ____ . . ____ . . ____
 72
    65
 73
     6
 40
31.75
 49
12.7
 74
     0
 49
-6.35
 74
     0
 49
0.0
 74
     0
 49
-6.35
 74
     0
 49
0.0
 74
     0
 49
-6.35
 74
     0
  0
LTYPE
  5
266
330
1AB
100
AcDbSymbolTableRecord
100
AcDbLinetypeTableRecord
  2
DIVIDE2
 70
     0
  3
Divide (.5x) __..__..__..__..__..__..__..__.._
 72
    65
 73
     6
 40
15.875
 49
6.35
 74
     0
 49
-3.175
 74
     0
 49
0.0
 74
     0
 49
-3.175
 74
     0
 49
0.0
 74
     0
 49
-3.175
 74
     0
  0
LTYPE
  5
267
330
1AB
100
AcDbSymbolTableRecord
100
AcDbLinetypeTableRecord
  2
DIVIDEX2
 70
     0
  3
Divide (2x) ________  .  .  ________  .  .  _
 72
    65
 73
     6
 40
63.5
 49
25.4
 74
     0
 49
-12.7
 74
     0
 49
0.0
 74
     0
 49
-12.7
 74
     0
 49
0.0
 74
     0
 49
-12.7
 74
     0
  0
LTYPE
  5
268
330
1AB
100
AcDbSymbolTableRecord
100
AcDbLinetypeTableRecord
  2
DOT
 70
     0
  3
Dot . . . . . . . . . . . . . . . . . . . . . . . .
 72
    65
 73
     2
 40
6.35
 49
0.0
 74
     0
 49
-6.35
 74
     0
  0
LTYPE
  5
269
330
1AB
100
AcDbSymbolTableRecord
100
AcDbLinetypeTableRecord
  2
DOT2
 70
     0
  3
Dot (.5x) ........................................
 72
    65
 73
     2
 40
3.175
 49
0.0
 74
     0
 49
-3.175
 74
     0
  0
LTYPE
  5
26A
330
1AB
100
AcDbSymbolTableRecord
100
AcDbLinetypeTableRecord
  2
DOTX2
 70
     0
  3
Dot (2x) .  .  .  .  .  .  .  .  .  .  .  .  .  .
 72
    65
 73
     2
 40
12.7
 49
0.0
 74
     0
 49
-12.7
 74
     0
  0
LTYPE
  5
26C
330
1AB
100
AcDbSymbolTableRecord
100
AcDbLinetypeTableRecord
  2
DRAINAGE
 70
     0
  3
Drainage ---->---->---->----
 72
    65
 73
     2
 40
10.16
 49
5.08
 74
     2
 75
     0
340
26B
 46
2.54
 50
180.0
 44
0.0
 45
0.0
  9
RIGHT_ARROW
 49
5.08
 74
     0
  0
LTYPE
  5
26E
330
1AB
100
AcDbSymbolTableRecord
100
AcDbLinetypeTableRecord
  2
DRAINAGE2
 70
     0
  3
Drainage reversed----<----<----<----
 72
    65
 73
     2
 40
10.16
 49
5.08
 74
     2
 75
     0
340
26D
 46
2.54
 50
0.0
 44
0.0
 45
0.0
  9
RIGHT_ARROW
 49
5.08
 74
     0
  0
LTYPE
  5
270
330
1AB
100
AcDbSymbolTableRecord
100
AcDbLinetypeTableRecord
  2
FENCELINE1
 70
     0
  3
Fenceline circle ----0-----0----0-----0----0-----0--
 72
    65
 73
     4
 40
36.83
 49
6.35
 74
     0
 49
-2.54
 74
     2
 75
     0
340
26F
 46
2.54
 50
0.0
 44
-2.54
 45
0.0
  9
CIRC1
 49
-2.54
 74
     0
 49
25.4
 74
     0
  0
LTYPE
  5
272
330
1AB
100
AcDbSymbolTableRecord
100
AcDbLinetypeTableRecord
  2
FENCELINE2
 70
     0
  3
Fenceline square ----[]-----[]----[]-----[]----[]---
 72
    65
 73
     4
 40
36.83
 49
6.35
 74
     0
 49
-2.54
 74
     2
 75
     0
340
271
 46
2.54
 50
0.0
 44
-2.54
 45
0.0
  9
BOX
 49
-2.54
 74
     0
 49
25.4
 74
     0
  0
LTYPE
  5
274
330
1AB
100
AcDbSymbolTableRecord
100
AcDbLinetypeTableRecord
  2
GAS_LINE
 70
     0
  3
Gas line ----GAS----GAS----GAS----GAS----GAS----GAS--
 72
    65
 73
     3
 40
24.13
 49
12.7
 74
     0
 49
-5.08
 74
     2
 75
     0
340
273
 46
2.54
 50
0.0
 44
-2.54
 45
-1.27
  9
GAS
 49
-6.35
 74
     0
  0
LTYPE
  5
275
330
1AB
100
AcDbSymbolTableRecord
100
AcDbLinetypeTableRecord
  2
HIDDEN
 70
     0
  3
Hidden __ __ __ __ __ __ __ __ __ __ __ __ __ __
 72
    65
 73
     2
 40
9.524999999999999
 49
6.35
 74
     0
 49
-3.175
 74
     0
  0
LTYPE
  5
276
330
1AB
100
AcDbSymbolTableRecord
100
AcDbLinetypeTableRecord
  2
HIDDEN2
 70
     0
  3
Hidden (.5x) _ _ _ _ _ _ _ _ _ _ _ _ _ _ _ _ _ 
 72
    65
 73
     2
 40
4.762499999999999
 49
3.175
 74
     0
 49
-1.5875
 74
     0
  0
LTYPE
  5
277
330
1AB
100
AcDbSymbolTableRecord
100
AcDbLinetypeTableRecord
  2
HIDDENX2
 70
     0
  3
Hidden (2x) ____ ____ ____ ____ ____ ____ ____ 
 72
    65
 73
     2
 40
19.05
 49
12.7
 74
     0
 49
-6.35
 74
     0
  0
LTYPE
  5
279
330
1AB
100
AcDbSymbolTableRecord
100
AcDbLinetypeTableRecord
  2
HOT_WATER_SUPPLY
 70
     0
  3
Hot water supply ---- HW ---- HW ---- HW ----
 72
    65
 73
     3
 40
22.86
 49
12.7
 74
     0
 49
-5.08
 74
     2
 75
     0
340
278
 46
2.54
 50
0.0
 44
-2.54
 45
-1.27
  9
HW
 49
-5.08
 74
     0
  0
LTYPE
  5
27A
330
1AB
100
AcDbSymbolTableRecord
100
AcDbLinetypeTableRecord
  2
PHANTOM
 70
     0
  3
Phantom ______  __  __  ______  __  __  ______ 
 72
    65
 73
     6
 40
63.50000000000001
 49
31.75
 74
     0
 49
-6.35
 74
     0
 49
6.35
 74
     0
 49
-6.35
 74
     0
 49
6.35
 74
     0
 49
-6.35
 74
     0
  0
LTYPE
  5
27B
330
1AB
100
AcDbSymbolTableRecord
100
AcDbLinetypeTableRecord
  2
PHANTOM2
 70
     0
  3
Phantom (.5x) ___ _ _ ___ _ _ ___ _ _ ___ _ _
 72
    65
 73
     6
 40
31.75
 49
15.875
 74
     0
 49
-3.175
 74
     0
 49
3.175
 74
     0
 49
-3.175
 74
     0
 49
3.175
 74
     0
 49
-3.175
 74
     0
  0
LTYPE
  5
27C
330
1AB
100
AcDbSymbolTableRecord
100
AcDbLinetypeTableRecord
  2
PHANTOMX2
 70
     0
  3
Phantom (2x) ____________    ____    ____   _
 72
    65
 73
     6
 40
127.0
 49
63.5
 74
     0
 49
-12.7
 74
     0
 49
12.7
 74
     0
 49
-12.7
 74
     0
 49
12.7
 74
     0
 49
-12.7
 74
     0
  0
LTYPE
  5
27E
330
1AB
100
AcDbSymbolTableRecord
100
AcDbLinetypeTableRecord
  2
TRACKS
 70
     0
  3
Tracks -|-|-|-|-|-|-|-|-|-|-|-|-|-|-|-|-|-|-|-|-|-|-|-|-
 72
    65
 73
     2
 40
7.62
 49
3.81
 74
     2
 75
     0
340
27D
 46
6.35
 50
0.0
 44
0.0
 45
0.0
  9
TRACK1
 49
3.81
 74
     0
  0
LTYPE
  5
281
330
1AB
100
AcDbSymbolTableRecord
100
AcDbLinetypeTableRecord
  2
ZIGZAG
 70
     0
  3
Zig zag /\/\/\/\/\/\/\/\/\/\/\/\/\/\/\/\/\/\/\/\/\/\/\/
 72
    65
 73
     4
 40
20.32254
 49
0.00254
 74
     0
 49
-5.08
 74
     2
 75
     0
340
27F
 46
5.08
 50
0.0
 44
-5.08
 45
0.0
  9
ZIG
 49
-10.16
 74
     2
 75
     0
340
280
 46
5.08
 50
180.0
 44
5.08
 45
0.0
  9
ZIG
 49
-5.08
 74
     0
  0
ENDTAB
  0
TABLE
  2
LAYER
  5
1A8
330
0
100
AcDbSymbolTable
 70
     7
  0
LAYER
  5
1B6
330
1A8
100
AcDbSymbolTableRecord
100
AcDbLayerTableRecord
  2
0
 70
     0
 62
     7
420
 16777215
  6
Continuous
370
    25
390
1B5
347
1EB
348
0
  0
LAYER
  5
282
330
1A8
100
AcDbSymbolTableRecord
100
AcDbLayerTableRecord
  2
ligne_de_construction
 70
     1
 62
     3
420
    65280
  6
ACAD_ISO07W100
370
    25
390
1B5
347
1EB
348
0
  0
LAYER
  5
283
330
1A8
100
AcDbSymbolTableRecord
100
AcDbLayerTableRecord
  2
larmier
 70
     0
 62
     1
420
 16711680
  6
Continuous
370
    25
390
1B5
347
1EB
348
0
  0
LAYER
  5
284
330
1A8
100
AcDbSymbolTableRecord
100
AcDbLayerTableRecord
  2
ardoise
 70
     0
 62
   253
420
 10526884
  6
Continuous
370
    25
390
1B5
347
1EB
348
0
  0
LAYER
  5
285
330
1A8
100
AcDbSymbolTableRecord
100
AcDbLayerTableRecord
  2
Madrier
 70
     0
 62
     1
420
 16711680
  6
Continuous
370
    25
390
1B5
347
1EB
348
0
  0
LAYER
  5
286
330
1A8
100
AcDbSymbolTableRecord
100
AcDbLayerTableRecord
  2
cotes
 70
     0
 62
   178
420
        0
  6
Continuous
370
    25
390
1B5
347
1EB
348
0
  0
LAYER
  5
28D
330
1A8
100
AcDbSymbolTableRecord
100
AcDbLayerTableRecord
  2
Defpoints
 70
     0
 62
     7
  6
Continuous
290
     0
370
    -3
390
1B5
347
1EB
348
0
  0
ENDTAB
  0
TABLE
  2
STYLE
  5
1A9
330
0
100
AcDbSymbolTable
 70
    12
  0
STYLE
  5
1B7
330
1A9
100
AcDbSymbolTableRecord
100
AcDbTextStyleTableRecord
  2
Standard
 70
     0
 40
0.0
 41
1.0
 50
0.0
 71
     0
 42
0.2
  3
txt
  4

  0
STYLE
  5
256
330
1A9
100
AcDbSymbolTableRecord
100
AcDbTextStyleTableRecord
  2
textstyle0
 70
     0
 40
0.0
 41
1.0
 50
0.0
 71
     0
 42
0.2
  3
ltypeshp.shx
  4

  0
STYLE
  5
257
330
1A9
100
AcDbSymbolTableRecord
100
AcDbTextStyleTableRecord
  2
textstyle1
 70
     0
 40
0.0
 41
1.0
 50
0.0
 71
     0
 42
0.2
  3
ltypeshp.shx
  4

  0
STYLE
  5
26B
330
1A9
100
AcDbSymbolTableRecord
100
AcDbTextStyleTableRecord
  2
textstyle2
 70
     0
 40
0.0
 41
1.0
 50
0.0
 71
     0
 42
0.2
  3
qcadshp.shx
  4

  0
STYLE
  5
26D
330
1A9
100
AcDbSymbolTableRecord
100
AcDbTextStyleTableRecord
  2
textstyle3
 70
     0
 40
0.0
 41
1.0
 50
0.0
 71
     0
 42
0.2
  3
qcadshp.shx
  4

  0
STYLE
  5
26F
330
1A9
100
AcDbSymbolTableRecord
100
AcDbTextStyleTableRecord
  2
textstyle4
 70
     0
 40
0.0
 41
1.0
 50
0.0
 71
     0
 42
0.2
  3
ltypeshp.shx
  4

  0
STYLE
  5
271
330
1A9
100
AcDbSymbolTableRecord
100
AcDbTextStyleTableRecord
  2
textstyle5
 70
     0
 40
0.0
 41
1.0
 50
0.0
 71
     0
 42
0.2
  3
ltypeshp.shx
  4

  0
STYLE
  5
273
330
1A9
100
AcDbSymbolTableRecord
100
AcDbTextStyleTableRecord
  2
textstyle6
 70
     0
 40
0.0
 41
1.0
 50
0.0
 71
     0
 42
0.2
  3
STANDARD
  4

  0
STYLE
  5
278
330
1A9
100
AcDbSymbolTableRecord
100
AcDbTextStyleTableRecord
  2
textstyle7
 70
     0
 40
0.0
 41
1.0
 50
0.0
 71
     0
 42
0.2
  3
STANDARD
  4

  0
STYLE
  5
27D
330
1A9
100
AcDbSymbolTableRecord
100
AcDbTextStyleTableRecord
  2
textstyle8
 70
     0
 40
0.0
 41
1.0
 50
0.0
 71
     0
 42
0.2
  3
ltypeshp.shx
  4

  0
STYLE
  5
27F
330
1A9
100
AcDbSymbolTableRecord
100
AcDbTextStyleTableRecord
  2
textstyle9
 70
     0
 40
0.0
 41
1.0
 50
0.0
 71
     0
 42
0.2
  3
ltypeshp.shx
  4

  0
STYLE
  5
280
330
1A9
100
AcDbSymbolTableRecord
100
AcDbTextStyleTableRecord
  2
textstyle10
 70
     0
 40
0.0
 41
1.0
 50
0.0
 71
     0
 42
0.2
  3
ltypeshp.shx
  4

  0
ENDTAB
  0
TABLE
  2
VIEW
  5
1AC
330
0
100
AcDbSymbolTable
 70
     0
  0
ENDTAB
  0
TABLE
  2
UCS
  5
1AD
330
0
100
AcDbSymbolTable
 70
     0
  0
ENDTAB
  0
TABLE
  2
APPID
  5
1AF
330
0
100
AcDbSymbolTable
 70
     2
  0
APPID
  5
1B8
330
1AF
100
AcDbSymbolTableRecord
100
AcDbRegAppTableRecord
  2
ACAD
 70
     0
  0
APPID
  5
213
330
1AF
100
AcDbSymbolTableRecord
100
AcDbRegAppTableRecord
  2
QCAD
 70
     0
  0
ENDTAB
  0
TABLE
  2
DIMSTYLE
  5
1B0
330
0
100
AcDbSymbolTable
 70
     2
100
AcDbDimStyleTable
  0
DIMSTYLE
105
1CC
330
1B0
100
AcDbSymbolTableRecord
100
AcDbDimStyleTableRecord
  2
Standard
 70
     0
178
     0
340
1B7
  0
DIMSTYLE
105
247
102
{ACAD_REACTORS
330
C5
330
C6
330
C7
330
C9
330
CA
330
CD
330
CE
330
CF
102
}
330
1B0
100
AcDbSymbolTableRecord
100
AcDbDimStyleTableRecord
  2
QCADDimStyle
 70
     0
 41
10.0
 42
2.5
 44
5.0
 73
     0
 77
     1
140
10.0
147
2.5
178
     0
340
1B7
  0
ENDTAB
  0
TABLE
  2
BLOCK_RECORD
  5
1A7
330
0
100
AcDbSymbolTable
 70
    11
  0
BLOCK_RECORD
  5
1C4
330
1A7
100
AcDbSymbolTableRecord
100
AcDbBlockTableRecord
  2
*Model_Space
340
1C7
 70
     0
280
     1
281
     0
  0
BLOCK_RECORD
  5
1C0
330
1A7
100
AcDbSymbolTableRecord
100
AcDbBlockTableRecord
  2
*Paper_Space
340
1C3
 70
     0
280
     1
281
     0
  0
BLOCK_RECORD
  5
1C8
330
1A7
100
AcDbSymbolTableRecord
100
AcDbBlockTableRecord
  2
*Paper_Space0
340
1CB
 70
     0
280
     1
281
     0
  0
BLOCK_RECORD
  5
287
330
1A7
100
AcDbSymbolTableRecord
100
AcDbBlockTableRecord
  2
tasseau
340
0
102
{BLKREFS
331
6F
331
73
331
74
331
75
331
15F
331
163
331
164
331
165
102
}
 70
     0
280
     1
281
     0
  0
BLOCK_RECORD
  5
28A
330
1A7
100
AcDbSymbolTableRecord
100
AcDbBlockTableRecord
  2
tasseau_plan
340
0
102
{BLKREFS
331
D5
331
172
331
173
331
174
331
175
331
176
331
177
331
178
331
179
331
17A
331
17B
331
17C
331
17D
331
17E
331
17F
331
180
331
181
331
182
331
183
331
184
331
185
331
186
331
187
331
188
331
189
331
18A
331
18B
331
18C
331
18D
331
18E
331
18F
102
}
 70
     0
280
     1
281
     0
  0
BLOCK_RECORD
  5
28E
330
1A7
100
AcDbSymbolTableRecord
100
AcDbBlockTableRecord
  2
*D3
340
0
 70
     0
280
     1
281
     0
  0
BLOCK_RECORD
  5
29B
330
1A7
100
AcDbSymbolTableRecord
100
AcDbBlockTableRecord
  2
*D4
340
0
 70
     0
280
     1
281
     0
  0
BLOCK_RECORD
  5
2A7
330
1A7
100
AcDbSymbolTableRecord
100
AcDbBlockTableRecord
  2
*D5
340
0
 70
     0
280
     1
281
     0
  0
BLOCK_RECORD
  5
2B3
330
1A7
100
AcDbSymbolTableRecord
100
AcDbBlockTableRecord
  2
*D6
340
0
 70
     0
280
     1
281
     0
  0
BLOCK_RECORD
  5
2BF
330
1A7
100
AcDbSymbolTableRecord
100
AcDbBlockTableRecord
  2
*D7
340
0
 70
     0
280
     1
281
     0
  0
BLOCK_RECORD
  5
2CB
330
1A7
100
AcDbSymbolTableRecord
100
AcDbBlockTableRecord
  2
*D8
340
0
 70
     0
280
     1
281
     0
  0
BLOCK_RECORD
  5
2D7
330
1A7
100
AcDbSymbolTableRecord
100
AcDbBlockTableRecord
  2
*D9
340
0
 70
     0
280
     1
281
     0
  0
BLOCK_RECORD
  5
2E3
330
1A7
100
AcDbSymbolTableRecord
100
AcDbBlockTableRecord
  2
*D10
340
0
 70
     0
280
     1
281
     0
  0
ENDTAB
  0
ENDSEC
  0
SECTION
  2
BLOCKS
  0
BLOCK
  5
1C5
330
1C4
100
AcDbEntity
  8
0
100
AcDbBlockBegin
  2
*Model_Space
 70
     0
 10
0.0
 20
0.0
 30
0.0
  3
*Model_Space
  1
*Model_Space
  0
ENDBLK
  5
1C6
330
1C4
100
AcDbEntity
  8
0
100
AcDbBlockEnd
  0
BLOCK
  5
1C1
330
1C0
100
AcDbEntity
 67
     1
  8
0
100
AcDbBlockBegin
  2
*Paper_Space
 70
     0
 10
0.0
 20
0.0
 30
0.0
  3
*Paper_Space
  1
*Paper_Space
  0
ENDBLK
  5
1C2
330
1C0
100
AcDbEntity
 67
     1
  8
0
100
AcDbBlockEnd
  0
BLOCK
  5
1C9
330
1C8
100
AcDbEntity
  8
0
100
AcDbBlockBegin
  2
*Paper_Space0
 70
     0
 10
0.0
 20
0.0
 30
0.0
  3
*Paper_Space0
  1
*Paper_Space0
  0
ENDBLK
  5
1CA
330
1C8
100
AcDbEntity
  8
0
100
AcDbBlockEnd
  0
BLOCK
  5
288
330
287
100
AcDbEntity
  8
0
100
AcDbBlockBegin
  2
tasseau
 70
     0
 10
0.0
 20
0.0
 30
0.0
  3
tasseau
  1
tasseau
  0
LINE
  5
6A
330
287
100
AcDbEntity
  8
0
100
AcDbLine
 10
-27.0
 20
0.0
 30
0.0
 11
0.0
 21
0.0
 31
0.0
  0
LINE
  5
6B
330
287
100
AcDbEntity
  8
0
100
AcDbLine
 10
0.0
 20
0.0
 30
0.0
 11
0.0
 21
45.0
 31
0.0
  0
LINE
  5
6C
330
287
100
AcDbEntity
  8
0
100
AcDbLine
 10
0.0
 20
45.0
 30
0.0
 11
-27.0
 21
45.0
 31
0.0
  0
LINE
  5
6D
330
287
100
AcDbEntity
  8
0
100
AcDbLine
 10
-27.0
 20
45.0
 30
0.0
 11
-27.0
 21
0.0
 31
0.0
  0
LINE
  5
8D
330
287
100
AcDbEntity
  8
0
100
AcDbLine
 10
-27.0
 20
0.0
 30
0.0
 11
0.0
 21
45.0
 31
0.0
  0
LINE
  5
8E
330
287
100
AcDbEntity
  8
0
100
AcDbLine
 10
-27.0
 20
45.0
 30
0.0
 11
0.0
 21
0.0
 31
0.0
  0
ENDBLK
  5
289
330
287
100
AcDbEntity
  8
0
100
AcDbBlockEnd
  0
BLOCK
  5
28B
330
28A
100
AcDbEntity
  8
0
100
AcDbBlockBegin
  2
tasseau_plan
 70
     0
 10
0.0
 20
0.0
 30
0.0
  3
tasseau_plan
  1
tasseau_plan
  0
LINE
  5
D0
330
28A
100
AcDbEntity
  8
0
100
AcDbLine
 10
-0.000000000003638
 20
-27.0
 30
0.0
 11
44.99999999999636
 21
-27.0
 31
0.0
  0
LINE
  5
D1
330
28A
100
AcDbEntity
  8
0
100
AcDbLine
 10
44.99999999999636
 20
-27.0
 30
0.0
 11
44.99999999999636
 21
0.0
 31
0.0
  0
LINE
  5
D2
330
28A
100
AcDbEntity
  8
0
100
AcDbLine
 10
44.99999999999636
 20
0.0
 30
0.0
 11
-0.000000000003638
 21
0.0
 31
0.0
  0
LINE
  5
D3
330
28A
100
AcDbEntity
  8
0
100
AcDbLine
 10
-0.000000000003638
 20
0.0
 30
0.0
 11
-0.000000000003638
 21
-27.0
 31
0.0
  0
LINE
  5
D6
330
28A
100
AcDbEntity
  8
0
100
AcDbLine
 10
-0.000000000003638
 20
-27.0
 30
0.0
 11
44.99999999999636
 21
0.0
 31
0.0
  0
LINE
  5
D7
330
28A
100
AcDbEntity
  8
0
100
AcDbLine
 10
-0.000000000003638
 20
0.0
 30
0.0
 11
44.99999999999636
 21
-27.0
 31
0.0
  0
ENDBLK
  5
28C
330
28A
100
AcDbEntity
  8
0
100
AcDbBlockEnd
  0
BLOCK
  5
28F
330
28E
100
AcDbEntity
  8
0
100
AcDbBlockBegin
  2
*D3
 70
     1
 10
0.0
 20
0.0
 30
0.0
  3
*D3
  1
*D3
  0
LINE
  5
291
330
28E
100
AcDbEntity
  8
cotes
 62
     0
370
    -2
100
AcDbLine
 10
-2243.295547446264
 20
-1917.0
 30
0.0
 11
-2168.27282288263
 21
-1917.0
 31
0.0
  0
LINE
  5
292
330
28E
100
AcDbEntity
  8
cotes
 62
     0
370
    -2
100
AcDbLine
 10
-2243.295547446264
 20
-1925.0
 30
0.0
 11
-2168.27282288263
 21
-1925.0
 31
0.0
  0
LINE
  5
293
330
28E
100
AcDbEntity
  8
cotes
 62
     0
370
    -2
100
AcDbLine
 10
-2173.27282288263
 20
-1907.0
 30
0.0
 11
-2173.27282288263
 21
-1897.0
 31
0.0
  0
LINE
  5
294
330
28E
100
AcDbEntity
  8
cotes
 62
     0
370
    -2
100
AcDbLine
 10
-2173.27282288263
 20
-1935.0
 30
0.0
 11
-2173.27282288263
 21
-1945.0
 31
0.0
  0
SOLID
  5
295
330
28E
100
AcDbEntity
  8
cotes
 62
     0
100
AcDbTrace
 10
-2174.939489549297
 20
-1907.0
 30
0.0
 11
-2171.606156215964
 21
-1907.0
 31
0.0
 12
-2173.27282288263
 22
-1917.0
 32
0.0
 13
-2173.27282288263
 23
-1917.0
 33
0.0
  0
SOLID
  5
296
330
28E
100
AcDbEntity
  8
cotes
 62
     0
100
AcDbTrace
 10
-2171.606156215964
 20
-1935.0
 30
0.0
 11
-2174.939489549297
 21
-1935.0
 31
0.0
 12
-2173.27282288263
 22
-1925.0
 32
0.0
 13
-2173.27282288263
 23
-1925.0
 33
0.0
  0
MTEXT
  5
297
330
28E
100
AcDbEntity
  8
cotes
 62
     0
100
AcDbMText
 10
-2159.52282288263
 20
-1921.0
 30
0.0
 40
10.0
 41
0.0
 46
0.0
 71
     5
 72
     1
  1
\A1;8
 73
     1
 44
1.0
  0
POINT
  5
298
330
28E
100
AcDbEntity
  8
Defpoints
 62
     0
100
AcDbPoint
 10
-2245.795547446264
 20
-1917.0
 30
0.0
  0
POINT
  5
299
330
28E
100
AcDbEntity
  8
Defpoints
 62
     0
100
AcDbPoint
 10
-2245.795547446264
 20
-1925.0
 30
0.0
  0
POINT
  5
29A
330
28E
100
AcDbEntity
  8
Defpoints
 62
     0
100
AcDbPoint
 10
-2173.27282288263
 20
-1925.0
 30
0.0
  0
ENDBLK
  5
290
330
28E
100
AcDbEntity
  8
0
100
AcDbBlockEnd
  0
BLOCK
  5
29C
330
29B
100
AcDbEntity
  8
0
100
AcDbBlockBegin
  2
*D4
 70
     1
 10
0.0
 20
0.0
 30
0.0
  3
*D4
  1
*D4
  0
LINE
  5
29E
330
29B
100
AcDbEntity
  8
cotes
 62
     0
370
    -2
100
AcDbLine
 10
-2243.295547446264
 20
-1925.000000000001
 30
0.0
 11
-2205.0
 21
-1925.000000000001
 31
0.0
  0
LINE
  5
29F
330
29B
100
AcDbEntity
  8
cotes
 62
     0
370
    -2
100
AcDbLine
 10
-2243.295547446264
 20
-2000.0
 30
0.0
 11
-2205.0
 21
-2000.0
 31
0.0
  0
LINE
  5
2A0
330
29B
100
AcDbEntity
  8
cotes
 62
     0
370
    -2
100
AcDbLine
 10
-2210.0
 20
-1935.000000000001
 30
0.0
 11
-2210.0
 21
-1990.0
 31
0.0
  0
SOLID
  5
2A1
330
29B
100
AcDbEntity
  8
cotes
 62
     0
100
AcDbTrace
 10
-2208.333333333333
 20
-1935.000000000001
 30
0.0
 11
-2211.666666666667
 21
-1935.000000000001
 31
0.0
 12
-2210.0
 22
-1925.000000000001
 32
0.0
 13
-2210.0
 23
-1925.000000000001
 33
0.0
  0
SOLID
  5
2A2
330
29B
100
AcDbEntity
  8
cotes
 62
     0
100
AcDbTrace
 10
-2211.666666666667
 20
-1990.0
 30
0.0
 11
-2208.333333333333
 21
-1990.0
 31
0.0
 12
-2210.0
 22
-2000.0
 32
0.0
 13
-2210.0
 23
-2000.0
 33
0.0
  0
MTEXT
  5
2A3
330
29B
100
AcDbEntity
  8
cotes
 62
     0
100
AcDbMText
 10
-2217.5
 20
-1962.5
 30
0.0
 40
10.0
 41
0.0
 46
0.0
 71
     5
 72
     1
  1
\A1;75
 11
0.0
 21
1.0
 31
0.0
 73
     1
 44
1.0
  0
POINT
  5
2A4
330
29B
100
AcDbEntity
  8
Defpoints
 62
     0
100
AcDbPoint
 10
-2245.795547446264
 20
-1925.000000000001
 30
0.0
  0
POINT
  5
2A5
330
29B
100
AcDbEntity
  8
Defpoints
 62
     0
100
AcDbPoint
 10
-2245.795547446264
 20
-2000.0
 30
0.0
  0
POINT
  5
2A6
330
29B
100
AcDbEntity
  8
Defpoints
 62
     0
100
AcDbPoint
 10
-2210.0
 20
-2000.0
 30
0.0
  0
ENDBLK
  5
29D
330
29B
100
AcDbEntity
  8
0
100
AcDbBlockEnd
  0
BLOCK
  5
2A8
330
2A7
100
AcDbEntity
  8
0
100
AcDbBlockBegin
  2
*D5
 70
     1
 10
0.0
 20
0.0
 30
0.0
  3
*D5
  1
*D5
  0
LINE
  5
2AA
330
2A7
100
AcDbEntity
  8
cotes
 62
     0
370
    -2
100
AcDbLine
 10
-2243.295547446264
 20
-1925.000000000001
 30
0.0
 11
-2168.27282288263
 21
-1925.000000000001
 31
0.0
  0
LINE
  5
2AB
330
2A7
100
AcDbEntity
  8
cotes
 62
     0
370
    -2
100
AcDbLine
 10
-2243.295547446264
 20
-2145.0
 30
0.0
 11
-2168.27282288263
 21
-2145.0
 31
0.0
  0
LINE
  5
2AC
330
2A7
100
AcDbEntity
  8
cotes
 62
     0
370
    -2
100
AcDbLine
 10
-2173.27282288263
 20
-1935.000000000001
 30
0.0
 11
-2173.27282288263
 21
-2135.0
 31
0.0
  0
SOLID
  5
2AD
330
2A7
100
AcDbEntity
  8
cotes
 62
     0
100
AcDbTrace
 10
-2171.606156215964
 20
-1935.000000000001
 30
0.0
 11
-2174.939489549297
 21
-1935.000000000001
 31
0.0
 12
-2173.27282288263
 22
-1925.000000000001
 32
0.0
 13
-2173.27282288263
 23
-1925.000000000001
 33
0.0
  0
SOLID
  5
2AE
330
2A7
100
AcDbEntity
  8
cotes
 62
     0
100
AcDbTrace
 10
-2174.939489549297
 20
-2135.0
 30
0.0
 11
-2171.606156215964
 21
-2135.0
 31
0.0
 12
-2173.27282288263
 22
-2145.0
 32
0.0
 13
-2173.27282288263
 23
-2145.0
 33
0.0
  0
MTEXT
  5
2AF
330
2A7
100
AcDbEntity
  8
cotes
 62
     0
100
AcDbMText
 10
-2180.77282288263
 20
-2035.0
 30
0.0
 40
10.0
 41
0.0
 46
0.0
 71
     5
 72
     1
  1
\A1;220
 11
0.0
 21
1.0
 31
0.0
 73
     1
 44
1.0
  0
POINT
  5
2B0
330
2A7
100
AcDbEntity
  8
Defpoints
 62
     0
100
AcDbPoint
 10
-2245.795547446264
 20
-1925.000000000001
 30
0.0
  0
POINT
  5
2B1
330
2A7
100
AcDbEntity
  8
Defpoints
 62
     0
100
AcDbPoint
 10
-2245.795547446264
 20
-2145.0
 30
0.0
  0
POINT
  5
2B2
330
2A7
100
AcDbEntity
  8
Defpoints
 62
     0
100
AcDbPoint
 10
-2173.27282288263
 20
-2145.0
 30
0.0
  0
ENDBLK
  5
2A9
330
2A7
100
AcDbEntity
  8
0
100
AcDbBlockEnd
  0
BLOCK
  5
2B4
330
2B3
100
AcDbEntity
  8
0
100
AcDbBlockBegin
  2
*D6
 70
     1
 10
0.0
 20
0.0
 30
0.0
  3
*D6
  1
*D6
  0
LINE
  5
2B6
330
2B3
100
AcDbEntity
  8
cotes
 62
     0
370
    -2
100
AcDbLine
 10
-2197.5
 20
-2145.0
 30
0.0
 11
-2168.27282288263
 21
-2145.0
 31
0.0
  0
LINE
  5
2B7
330
2B3
100
AcDbEntity
  8
cotes
 62
     0
370
    -2
100
AcDbLine
 10
-2197.5
 20
-2180.0
 30
0.0
 11
-2168.27282288263
 21
-2180.0
 31
0.0
  0
LINE
  5
2B8
330
2B3
100
AcDbEntity
  8
cotes
 62
     0
370
    -2
100
AcDbLine
 10
-2173.27282288263
 20
-2155.0
 30
0.0
 11
-2173.27282288263
 21
-2170.0
 31
0.0
  0
SOLID
  5
2B9
330
2B3
100
AcDbEntity
  8
cotes
 62
     0
100
AcDbTrace
 10
-2171.606156215964
 20
-2155.0
 30
0.0
 11
-2174.939489549297
 21
-2155.0
 31
0.0
 12
-2173.27282288263
 22
-2145.0
 32
0.0
 13
-2173.27282288263
 23
-2145.0
 33
0.0
  0
SOLID
  5
2BA
330
2B3
100
AcDbEntity
  8
cotes
 62
     0
100
AcDbTrace
 10
-2174.939489549297
 20
-2170.0
 30
0.0
 11
-2171.606156215964
 21
-2170.0
 31
0.0
 12
-2173.27282288263
 22
-2180.0
 32
0.0
 13
-2173.27282288263
 23
-2180.0
 33
0.0
  0
MTEXT
  5
2BB
330
2B3
100
AcDbEntity
  8
cotes
 62
     0
100
AcDbMText
 10
-2180.77282288263
 20
-2162.5
 30
0.0
 40
10.0
 41
0.0
 46
0.0
 71
     5
 72
     1
  1
\A1;35
 11
0.0
 21
1.0
 31
0.0
 73
     1
 44
1.0
  0
POINT
  5
2BC
330
2B3
100
AcDbEntity
  8
Defpoints
 62
     0
100
AcDbPoint
 10
-2200.0
 20
-2145.0
 30
0.0
  0
POINT
  5
2BD
330
2B3
100
AcDbEntity
  8
Defpoints
 62
     0
100
AcDbPoint
 10
-2200.0
 20
-2180.0
 30
0.0
  0
POINT
  5
2BE
330
2B3
100
AcDbEntity
  8
Defpoints
 62
     0
100
AcDbPoint
 10
-2173.27282288263
 20
-2180.0
 30
0.0
  0
ENDBLK
  5
2B5
330
2B3
100
AcDbEntity
  8
0
100
AcDbBlockEnd
  0
BLOCK
  5
2C0
330
2BF
100
AcDbEntity
  8
0
100
AcDbBlockBegin
  2
*D7
 70
     1
 10
0.0
 20
0.0
 30
0.0
  3
*D7
  1
*D7
  0
LINE
  5
2C2
330
2BF
100
AcDbEntity
  8
cotes
 62
     0
370
    -2
100
AcDbLine
 10
-2243.295547446264
 20
-2145.0
 30
0.0
 11
-2205.0
 21
-2145.0
 31
0.0
  0
LINE
  5
2C3
330
2BF
100
AcDbEntity
  8
cotes
 62
     0
370
    -2
100
AcDbLine
 10
-2243.295547446264
 20
-2220.0
 30
0.0
 11
-2205.0
 21
-2220.0
 31
0.0
  0
LINE
  5
2C4
330
2BF
100
AcDbEntity
  8
cotes
 62
     0
370
    -2
100
AcDbLine
 10
-2210.0
 20
-2155.0
 30
0.0
 11
-2210.0
 21
-2210.0
 31
0.0
  0
SOLID
  5
2C5
330
2BF
100
AcDbEntity
  8
cotes
 62
     0
100
AcDbTrace
 10
-2208.333333333333
 20
-2155.0
 30
0.0
 11
-2211.666666666666
 21
-2155.0
 31
0.0
 12
-2210.0
 22
-2145.0
 32
0.0
 13
-2210.0
 23
-2145.0
 33
0.0
  0
SOLID
  5
2C6
330
2BF
100
AcDbEntity
  8
cotes
 62
     0
100
AcDbTrace
 10
-2211.666666666666
 20
-2210.0
 30
0.0
 11
-2208.333333333333
 21
-2210.0
 31
0.0
 12
-2210.0
 22
-2220.0
 32
0.0
 13
-2210.0
 23
-2220.0
 33
0.0
  0
MTEXT
  5
2C7
330
2BF
100
AcDbEntity
  8
cotes
 62
     0
100
AcDbMText
 10
-2217.5
 20
-2182.5
 30
0.0
 40
10.0
 41
0.0
 46
0.0
 71
     5
 72
     1
  1
\A1;75
 11
0.0
 21
1.0
 31
0.0
 73
     1
 44
1.0
  0
POINT
  5
2C8
330
2BF
100
AcDbEntity
  8
Defpoints
 62
     0
100
AcDbPoint
 10
-2245.795547446264
 20
-2145.0
 30
0.0
  0
POINT
  5
2C9
330
2BF
100
AcDbEntity
  8
Defpoints
 62
     0
100
AcDbPoint
 10
-2245.795547446264
 20
-2220.0
 30
0.0
  0
POINT
  5
2CA
330
2BF
100
AcDbEntity
  8
Defpoints
 62
     0
100
AcDbPoint
 10
-2210.0
 20
-2220.0
 30
0.0
  0
ENDBLK
  5
2C1
330
2BF
100
AcDbEntity
  8
0
100
AcDbBlockEnd
  0
BLOCK
  5
2CC
330
2CB
100
AcDbEntity
  8
0
100
AcDbBlockBegin
  2
*D8
 70
     1
 10
0.0
 20
0.0
 30
0.0
  3
*D8
  1
*D8
  0
LINE
  5
2CE
330
2CB
100
AcDbEntity
  8
cotes
 62
     0
370
    -2
100
AcDbLine
 10
-2195.0
 20
-2180.0
 30
0.0
 11
-2168.27282288263
 21
-2180.0
 31
0.0
  0
LINE
  5
2CF
330
2CB
100
AcDbEntity
  8
cotes
 62
     0
370
    -2
100
AcDbLine
 10
-2195.0
 20
-2207.0
 30
0.0
 11
-2168.27282288263
 21
-2207.0
 31
0.0
  0
LINE
  5
2D0
330
2CB
100
AcDbEntity
  8
cotes
 62
     0
370
    -2
100
AcDbLine
 10
-2173.27282288263
 20
-2190.0
 30
0.0
 11
-2173.27282288263
 21
-2197.0
 31
0.0
  0
SOLID
  5
2D1
330
2CB
100
AcDbEntity
  8
cotes
 62
     0
100
AcDbTrace
 10
-2171.606156215964
 20
-2190.0
 30
0.0
 11
-2174.939489549297
 21
-2190.0
 31
0.0
 12
-2173.27282288263
 22
-2180.0
 32
0.0
 13
-2173.27282288263
 23
-2180.0
 33
0.0
  0
SOLID
  5
2D2
330
2CB
100
AcDbEntity
  8
cotes
 62
     0
100
AcDbTrace
 10
-2174.939489549297
 20
-2197.0
 30
0.0
 11
-2171.606156215964
 21
-2197.0
 31
0.0
 12
-2173.27282288263
 22
-2207.0
 32
0.0
 13
-2173.27282288263
 23
-2207.0
 33
0.0
  0
MTEXT
  5
2D3
330
2CB
100
AcDbEntity
  8
cotes
 62
     0
100
AcDbMText
 10
-2180.77282288263
 20
-2193.5
 30
0.0
 40
10.0
 41
0.0
 46
0.0
 71
     5
 72
     1
  1
\A1;27
 11
0.0
 21
1.0
 31
0.0
 73
     1
 44
1.0
  0
POINT
  5
2D4
330
2CB
100
AcDbEntity
  8
Defpoints
 62
     0
100
AcDbPoint
 10
-2197.5
 20
-2180.0
 30
0.0
  0
POINT
  5
2D5
330
2CB
100
AcDbEntity
  8
Defpoints
 62
     0
100
AcDbPoint
 10
-2197.5
 20
-2207.0
 30
0.0
  0
POINT
  5
2D6
330
2CB
100
AcDbEntity
  8
Defpoints
 62
     0
100
AcDbPoint
 10
-2173.27282288263
 20
-2207.0
 30
0.0
  0
ENDBLK
  5
2CD
330
2CB
100
AcDbEntity
  8
0
100
AcDbBlockEnd
  0
BLOCK
  5
2D8
330
2D7
100
AcDbEntity
  8
0
100
AcDbBlockBegin
  2
*D9
 70
     1
 10
0.0
 20
0.0
 30
0.0
  3
*D9
  1
*D9
  0
LINE
  5
2DA
330
2D7
100
AcDbEntity
  8
cotes
 62
     0
370
    -2
100
AcDbLine
 10
-2243.295547446264
 20
-2207.0
 30
0.0
 11
-2168.27282288263
 21
-2207.0
 31
0.0
  0
LINE
  5
2DB
330
2D7
100
AcDbEntity
  8
cotes
 62
     0
370
    -2
100
AcDbLine
 10
-2243.295547446264
 20
-2234.0
 30
0.0
 11
-2168.27282288263
 21
-2234.0
 31
0.0
  0
LINE
  5
2DC
330
2D7
100
AcDbEntity
  8
cotes
 62
     0
370
    -2
100
AcDbLine
 10
-2173.27282288263
 20
-2217.0
 30
0.0
 11
-2173.27282288263
 21
-2224.0
 31
0.0
  0
SOLID
  5
2DD
330
2D7
100
AcDbEntity
  8
cotes
 62
     0
100
AcDbTrace
 10
-2171.606156215964
 20
-2217.0
 30
0.0
 11
-2174.939489549297
 21
-2217.0
 31
0.0
 12
-2173.27282288263
 22
-2207.0
 32
0.0
 13
-2173.27282288263
 23
-2207.0
 33
0.0
  0
SOLID
  5
2DE
330
2D7
100
AcDbEntity
  8
cotes
 62
     0
100
AcDbTrace
 10
-2174.939489549297
 20
-2224.0
 30
0.0
 11
-2171.606156215964
 21
-2224.0
 31
0.0
 12
-2173.27282288263
 22
-2234.0
 32
0.0
 13
-2173.27282288263
 23
-2234.0
 33
0.0
  0
MTEXT
  5
2DF
330
2D7
100
AcDbEntity
  8
cotes
 62
     0
100
AcDbMText
 10
-2180.77282288263
 20
-2220.5
 30
0.0
 40
10.0
 41
0.0
 46
0.0
 71
     5
 72
     1
  1
\A1;27
 11
0.0
 21
1.0
 31
0.0
 73
     1
 44
1.0
  0
POINT
  5
2E0
330
2D7
100
AcDbEntity
  8
Defpoints
 62
     0
100
AcDbPoint
 10
-2245.795547446264
 20
-2207.0
 30
0.0
  0
POINT
  5
2E1
330
2D7
100
AcDbEntity
  8
Defpoints
 62
     0
100
AcDbPoint
 10
-2245.795547446264
 20
-2234.0
 30
0.0
  0
POINT
  5
2E2
330
2D7
100
AcDbEntity
  8
Defpoints
 62
     0
100
AcDbPoint
 10
-2173.27282288263
 20
-2234.0
 30
0.0
  0
ENDBLK
  5
2D9
330
2D7
100
AcDbEntity
  8
0
100
AcDbBlockEnd
  0
BLOCK
  5
2E4
330
2E3
100
AcDbEntity
  8
0
100
AcDbBlockBegin
  2
*D10
 70
     1
 10
0.0
 20
0.0
 30
0.0
  3
*D10
  1
*D10
  0
LINE
  5
2E6
330
2E3
100
AcDbEntity
  8
cotes
 62
     0
370
    -2
100
AcDbLine
 10
-2243.295547446264
 20
-2254.0
 30
0.0
 11
-2168.27282288263
 21
-2254.0
 31
0.0
  0
LINE
  5
2E7
330
2E3
100
AcDbEntity
  8
cotes
 62
     0
370
    -2
100
AcDbLine
 10
-2243.295547446265
 20
-2234.0
 30
0.0
 11
-2168.27282288263
 21
-2234.0
 31
0.0
  0
LINE
  5
2E8
330
2E3
100
AcDbEntity
  8
cotes
 62
     0
370
    -2
100
AcDbLine
 10
-2173.27282288263
 20
-2264.0
 30
0.0
 11
-2173.27282288263
 21
-2274.0
 31
0.0
  0
LINE
  5
2E9
330
2E3
100
AcDbEntity
  8
cotes
 62
     0
370
    -2
100
AcDbLine
 10
-2173.27282288263
 20
-2224.0
 30
0.0
 11
-2173.27282288263
 21
-2214.0
 31
0.0
  0
SOLID
  5
2EA
330
2E3
100
AcDbEntity
  8
cotes
 62
     0
100
AcDbTrace
 10
-2171.606156215964
 20
-2264.0
 30
0.0
 11
-2174.939489549297
 21
-2264.0
 31
0.0
 12
-2173.27282288263
 22
-2254.0
 32
0.0
 13
-2173.27282288263
 23
-2254.0
 33
0.0
  0
SOLID
  5
2EB
330
2E3
100
AcDbEntity
  8
cotes
 62
     0
100
AcDbTrace
 10
-2174.939489549297
 20
-2224.0
 30
0.0
 11
-2171.606156215964
 21
-2224.0
 31
0.0
 12
-2173.27282288263
 22
-2234.0
 32
0.0
 13
-2173.27282288263
 23
-2234.0
 33
0.0
  0
MTEXT
  5
2EC
330
2E3
100
AcDbEntity
  8
cotes
 62
     0
100
AcDbMText
 10
-2159.52282288263
 20
-2244.0
 30
0.0
 40
10.0
 41
0.0
 46
0.0
 71
     5
 72
     1
  1
\A1;20
 73
     1
 44
1.0
  0
POINT
  5
2ED
330
2E3
100
AcDbEntity
  8
Defpoints
 62
     0
100
AcDbPoint
 10
-2245.795547446264
 20
-2254.0
 30
0.0
  0
POINT
  5
2EE
330
2E3
100
AcDbEntity
  8
Defpoints
 62
     0
100
AcDbPoint
 10
-2245.795547446265
 20
-2234.0
 30
0.0
  0
POINT
  5
2EF
330
2E3
100
AcDbEntity
  8
Defpoints
 62
     0
100
AcDbPoint
 10
-2173.27282288263
 20
-2234.0
 30
0.0
  0
ENDBLK
  5
2E5
330
2E3
100
AcDbEntity
  8
0
100
AcDbBlockEnd
  0
ENDSEC
  0
SECTION
  2
ENTITIES
  0
LINE
  5
35
330
1C4
100
AcDbEntity
  8
0
100
AcDbLine
 10
-1455.0
 20
-917.0000000000002
 30
0.0
 11
-1380.0
 21
-917.0000000000002
 31
0.0
  0
LINE
  5
36
330
1C4
100
AcDbEntity
  8
0
100
AcDbLine
 10
-1380.0
 20
-917.0000000000002
 30
0.0
 11
-1380.0
 21
-717.0000000000002
 31
0.0
  0
LINE
  5
37
330
1C4
100
AcDbEntity
  8
0
100
AcDbLine
 10
-1380.0
 20
-717.0000000000002
 30
0.0
 11
-1455.0
 21
-717.0000000000002
 31
0.0
  0
LINE
  5
38
330
1C4
100
AcDbEntity
  8
0
100
AcDbLine
 10
-1455.0
 20
-717.0000000000002
 30
0.0
 11
-1455.0
 21
-872.0000000000002
 31
0.0
  0
LINE
  5
39
330
1C4
100
AcDbEntity
  8
0
100
AcDbLine
 10
-1600.0
 20
-717.0000000000002
 30
0.0
 11
-1600.0
 21
1583.0
 31
0.0
  0
LINE
  5
3A
330
1C4
100
AcDbEntity
  8
0
100
AcDbLine
 10
-1675.0
 20
-917.0000000000002
 30
0.0
 11
-1600.0
 21
-917.0000000000002
 31
0.0
  0
LINE
  5
3B
330
1C4
100
AcDbEntity
  8
0
100
AcDbLine
 10
-1600.0
 20
-872.0000000000002
 30
0.0
 11
-1600.0
 21
-717.0000000000002
 31
0.0
  0
LINE
  5
3E
330
1C4
100
AcDbEntity
  8
0
100
AcDbLine
 10
-1600.0
 20
1583.0
 30
0.0
 11
-1380.0
 21
1583.0
 31
0.0
  0
LINE
  5
3F
330
1C4
100
AcDbEntity
  8
0
100
AcDbLine
 10
-1380.0
 20
1583.0
 30
0.0
 11
-1380.0
 21
-717.0000000000002
 31
0.0
  0
LINE
  5
44
330
1C4
100
AcDbEntity
  8
0
100
AcDbLine
 10
-1600.0
 20
-917.0000000000002
 30
0.0
 11
-1455.0
 21
-917.0000000000002
 31
0.0
  0
LINE
  5
45
330
1C4
100
AcDbEntity
  8
0
100
AcDbLine
 10
-1455.0
 20
-917.0000000000002
 30
0.0
 11
-1455.0
 21
-872.0000000000002
 31
0.0
  0
LINE
  5
46
330
1C4
100
AcDbEntity
  8
0
100
AcDbLine
 10
-1455.0
 20
-872.0000000000002
 30
0.0
 11
-1600.0
 21
-872.0000000000002
 31
0.0
  0
LINE
  5
47
330
1C4
100
AcDbEntity
  8
0
100
AcDbLine
 10
-1600.0
 20
-872.0000000000002
 30
0.0
 11
-1600.0
 21
-917.0000000000002
 31
0.0
  0
LINE
  5
48
330
1C4
100
AcDbEntity
  8
0
100
AcDbLine
 10
-1600.0
 20
-917.0000000000002
 30
0.0
 11
-1455.0
 21
-872.0000000000002
 31
0.0
  0
LINE
  5
49
330
1C4
100
AcDbEntity
  8
0
100
AcDbLine
 10
-1600.0
 20
-872.0000000000002
 30
0.0
 11
-1455.0
 21
-917.0000000000002
 31
0.0
  0
LINE
  5
4A
330
1C4
100
AcDbEntity
  8
0
100
AcDbLine
 10
-1455.0
 20
-917.0000000000002
 30
0.0
 11
-1380.0
 21
-717.0000000000002
 31
0.0
  0
LINE
  5
4B
330
1C4
100
AcDbEntity
  8
0
100
AcDbLine
 10
-1455.0
 20
-717.0000000000002
 30
0.0
 11
-1380.0
 21
-917.0000000000002
 31
0.0
  0
LINE
  5
4D
330
1C4
100
AcDbEntity
  8
0
100
AcDbLine
 10
-1675.0
 20
-917.0000000000002
 30
0.0
 11
-1600.0
 21
-717.0000000000002
 31
0.0
  0
LINE
  5
4E
330
1C4
100
AcDbEntity
  8
0
100
AcDbLine
 10
-1675.0
 20
-917.0000000000002
 30
0.0
 11
-1372.0
 21
-917.0000000000002
 31
0.0
  0
LINE
  5
4F
330
1C4
100
AcDbEntity
  8
0
100
AcDbLine
 10
-1372.0
 20
-917.0000000000002
 30
0.0
 11
-1372.0
 21
-932.0000000000002
 31
0.0
  0
LINE
  5
50
330
1C4
100
AcDbEntity
  8
0
100
AcDbLine
 10
-1372.0
 20
-932.0000000000002
 30
0.0
 11
-1675.0
 21
-932.0000000000003
 31
0.0
  0
LINE
  5
51
330
1C4
100
AcDbEntity
  8
0
100
AcDbLine
 10
-1675.0
 20
-932.0000000000003
 30
0.0
 11
-1675.0
 21
-917.0000000000002
 31
0.0
  0
HATCH
  5
134
330
1C4
100
AcDbEntity
  8
0
100
AcDbHatch
 10
0.0
 20
0.0
 30
0.0
210
0.0
220
0.0
230
1.0
  2
JIS_WOOD
 70
     0
 71
     0
 91
        1
 92
        0
 93
        4
 72
     1
 10
-1675.0
 20
-917.0000000000002
 11
-1372.0
 21
-917.0000000000002
 72
     1
 10
-1372.0
 20
-917.0000000000002
 11
-1372.0
 21
-932.0000000000002
 72
     1
 10
-1372.0
 20
-932.0000000000002
 11
-1675.0
 21
-932.0000000000002
 72
     1
 10
-1675.0
 20
-932.0000000000002
 11
-1675.0
 21
-917.0000000000002
 97
        0
 75
     0
 76
     1
 52
0.0
 41
10.0
 77
     0
 78
     1
 53
45.0
 43
0.0
 44
0.0
 45
-4.999999991609842
 46
4.999999991609842
 79
     0
 98
        0
1001
ACAD
1010
0.0
1020
0.0
1030
0.0
  0
LINE
  5
54
330
1C4
100
AcDbEntity
  8
0
100
AcDbLine
 10
-1635.0
 20
1583.0
 30
0.0
 11
-1635.0
 21
-717.0000000000002
 31
0.0
  0
LINE
  5
57
330
1C4
100
AcDbEntity
  8
0
100
AcDbLine
 10
-1675.0
 20
-745.8675134594814
 30
0.0
 11
-1675.0
 21
-917.0000000000002
 31
0.0
  0
LINE
  5
58
330
1C4
100
AcDbEntity
  8
0
100
AcDbLine
 10
-1600.0
 20
-917.0000000000002
 30
0.0
 11
-1666.101306179876
 21
-740.7298501869968
 31
0.0
  0
LINE
  5
59
330
1C4
100
AcDbEntity
  8
0
100
AcDbLine
 10
-1600.0
 20
-717.0000000000002
 30
0.0
 11
-1635.0
 21
-717.0000000000002
 31
0.0
  0
LINE
  5
5A
330
1C4
100
AcDbEntity
  8
0
100
AcDbLine
 10
-1625.0
 20
-717.0000000000002
 30
0.0
 11
-1675.0
 21
-745.8675134594813
 31
0.0
  0
LINE
  5
5B
330
1C4
100
AcDbEntity
  8
0
100
AcDbLine
 10
-1455.0
 20
-872.0000000000002
 30
0.0
 11
-1455.0
 21
-717.0000000000002
 31
0.0
  0
HATCH
  5
135
330
1C4
100
AcDbEntity
  8
0
 62
     2
420
 16776960
100
AcDbHatch
 10
0.0
 20
0.0
 30
0.0
210
0.0
220
0.0
230
1.0
  2
HONEY
 70
     0
 71
     0
 91
        1
 92
        0
 93
        6
 72
     1
 10
-1455.0
 20
-717.0000000000002
 11
-1600.0
 21
-717.0000000000002
 72
     1
 10
-1600.0
 20
-717.0000000000002
 11
-1600.0
 21
1583.0
 72
     1
 10
-1600.0
 20
1583.0
 11
-1380.0
 21
1583.0
 72
     1
 10
-1380.0
 20
1583.0
 11
-1380.0
 21
-717.0000000000002
 72
     1
 10
-1380.0
 20
-717.0000000000002
 11
-1455.0
 21
-717.0000000000002
 72
     1
 10
-1455.0
 20
-717.0000000000002
 11
-1455.0
 21
-717.0000000000002
 97
        0
 75
     0
 76
     1
 52
0.0
 41
10.0
 77
     0
 78
     3
 53
0.0
 43
0.0
 44
0.0
 45
47.625
 46
27.4963
 79
     2
 49
31.75
 49
-63.5
 53
120.0
 43
0.0
 44
0.0
 45
-47.62499431007805
 46
27.49630985523391
 79
     2
 49
31.75
 49
-63.5
 53
60.0
 43
0.0
 44
0.0
 45
0.0000056899219469
 46
54.99260985523389
 79
     2
 49
-63.5
 49
31.75
 98
        0
1001
ACAD
1010
0.0
1020
0.0
1030
0.0
  0
LINE
  5
5D
330
1C4
100
AcDbEntity
  8
0
100
AcDbLine
 10
-1635.0
 20
1583.0
 30
0.0
 11
-1600.0
 21
1583.0
 31
0.0
  0
HATCH
  5
136
330
1C4
100
AcDbEntity
  8
0
100
AcDbHatch
 10
0.0
 20
0.0
 30
0.0
210
0.0
220
0.0
230
1.0
  2
JIS_WOOD
 70
     0
 71
     0
 91
        1
 92
        0
 93
        4
 72
     1
 10
-1600.0
 20
-717.0000000000002
 11
-1635.0
 21
-717.0000000000002
 72
     1
 10
-1635.0
 20
-717.0000000000002
 11
-1635.0
 21
1583.0
 72
     1
 10
-1635.0
 20
1583.0
 11
-1600.0
 21
1583.0
 72
     1
 10
-1600.0
 20
1583.0
 11
-1600.0
 21
-717.0000000000002
 97
        0
 75
     0
 76
     1
 52
90.0
 41
10.0
 77
     0
 78
     1
 53
135.0
 43
0.0
 44
0.0
 45
-4.999999991609842
 46
-4.999999991609842
 79
     0
 98
        0
1001
ACAD
1010
0.0
1020
0.0
1030
0.0
  0
LINE
  5
5F
330
1C4
100
AcDbEntity
  8
0
100
AcDbLine
 10
-1372.0
 20
1583.0
 30
0.0
 11
-1372.0
 21
-917.0000000000002
 31
0.0
  0
LINE
  5
62
330
1C4
100
AcDbEntity
  8
0
100
AcDbLine
 10
-1372.0
 20
-917.0000000000002
 30
0.0
 11
-1380.0
 21
-917.0000000000002
 31
0.0
  0
LINE
  5
63
330
1C4
100
AcDbEntity
  8
0
100
AcDbLine
 10
-1380.0
 20
1583.0
 30
0.0
 11
-1372.0
 21
1583.0
 31
0.0
  0
HATCH
  5
137
330
1C4
100
AcDbEntity
  8
0
100
AcDbHatch
 10
0.0
 20
0.0
 30
0.0
210
0.0
220
0.0
230
1.0
  2
JIS_WOOD
 70
     0
 71
     0
 91
        1
 92
        0
 93
        5
 72
     1
 10
-1380.0
 20
-917.0000000000002
 11
-1380.0
 21
-717.0000000000002
 72
     1
 10
-1380.0
 20
-717.0000000000002
 11
-1380.0
 21
1583.0
 72
     1
 10
-1380.0
 20
1583.0
 11
-1372.0
 21
1583.0
 72
     1
 10
-1372.0
 20
1583.0
 11
-1372.0
 21
-917.0000000000002
 72
     1
 10
-1372.0
 20
-917.0000000000002
 11
-1380.0
 21
-917.0000000000002
 97
        0
 75
     0
 76
     1
 52
90.0
 41
10.0
 77
     0
 78
     1
 53
135.0
 43
0.0
 44
0.0
 45
-4.999999991609842
 46
-4.999999991609842
 79
     0
 98
        0
1001
ACAD
1010
0.0
1020
0.0
1030
0.0
  0
LINE
  5
67
330
1C4
100
AcDbEntity
  8
0
100
AcDbLine
 10
-1600.0
 20
-717.0000000000002
 30
0.0
 11
-1455.0
 21
-717.0000000000002
 31
0.0
  0
HATCH
  5
138
330
1C4
100
AcDbEntity
  8
0
 62
    30
420
 16744192
100
AcDbHatch
 10
0.0
 20
0.0
 30
0.0
210
0.0
220
0.0
230
1.0
  2
HONEY
 70
     0
 71
     0
 91
        1
 92
        0
 93
        4
 72
     1
 10
-1600.0
 20
-717.0000000000002
 11
-1455.0
 21
-717.0000000000002
 72
     1
 10
-1455.0
 20
-717.0000000000002
 11
-1455.0
 21
-872.0000000000002
 72
     1
 10
-1455.0
 20
-872.0000000000002
 11
-1600.0
 21
-872.0000000000002
 72
     1
 10
-1600.0
 20
-872.0000000000002
 11
-1600.0
 21
-717.0000000000002
 97
        0
 75
     0
 76
     1
 52
90.0
 41
5.0
 77
     0
 78
     3
 53
90.0
 43
0.0
 44
0.0
 45
-13.74815
 46
23.8125
 79
     2
 49
15.875
 49
-31.75
 53
210.0
 43
0.0
 44
0.0
 45
-13.74815492761695
 46
-23.81249715503903
 79
     2
 49
15.875
 49
-31.75
 53
150.0
 43
0.0
 44
0.0
 45
-27.49630492761695
 46
0.0000028449609824
 79
     2
 49
-31.75
 49
15.875
 98
        0
1001
ACAD
1010
0.0
1020
0.0
1030
0.0
  0
INSERT
  5
6F
330
1C4
100
AcDbEntity
  8
0
100
AcDbBlockReference
  2
tasseau
 10
-1662.0
 20
-717.0000000000002
 30
0.0
  0
LINE
  5
70
330
1C4
100
AcDbEntity
  8
0
100
AcDbLine
 10
-1662.0
 20
1583.0
 30
0.0
 11
-1662.0
 21
-717.0000000000002
 31
0.0
  0
LINE
  5
71
330
1C4
100
AcDbEntity
  8
0
100
AcDbLine
 10
-1662.0
 20
-717.0000000000002
 30
0.0
 11
-1635.0
 21
-717.0000000000002
 31
0.0
  0
LINE
  5
72
330
1C4
100
AcDbEntity
  8
0
100
AcDbLine
 10
-1662.0
 20
1583.0
 30
0.0
 11
-1635.0
 21
1583.0
 31
0.0
  0
INSERT
  5
73
330
1C4
100
AcDbEntity
  8
0
100
AcDbBlockReference
  2
tasseau
 10
-1662.0
 20
-117.0000000000002
 30
0.0
  0
INSERT
  5
74
330
1C4
100
AcDbEntity
  8
0
100
AcDbBlockReference
  2
tasseau
 10
-1662.0
 20
482.9999999999998
 30
0.0
  0
INSERT
  5
75
330
1C4
100
AcDbEntity
  8
0
100
AcDbBlockReference
  2
tasseau
 10
-1662.0
 20
1083.0
 30
0.0
  0
LINE
  5
7D
330
1C4
100
AcDbEntity
  8
0
100
AcDbLine
 10
-1689.0
 20
-717.0000000000002
 30
0.0
 11
-1689.0
 21
1128.0
 31
0.0
  0
LINE
  5
7E
330
1C4
100
AcDbEntity
  8
0
100
AcDbLine
 10
-1709.0
 20
-737.0000000000002
 30
0.0
 11
-1709.0
 21
1183.0
 31
0.0
  0
LINE
  5
80
330
1C4
100
AcDbEntity
  8
larmier
100
AcDbLine
 10
-1600.0
 20
-685.5406798738793
 30
0.0
 11
-1598.989234301691
 21
-717.0000000000002
 31
0.0
  0
LINE
  5
81
330
1C4
100
AcDbEntity
  8
larmier
100
AcDbLine
 10
-1598.989234301691
 20
-717.0000000000002
 30
0.0
 11
-1625.0
 21
-717.0000000000002
 31
0.0
  0
LINE
  5
82
330
1C4
100
AcDbEntity
  8
larmier
100
AcDbLine
 10
-1625.0
 20
-717.0000000000002
 30
0.0
 11
-1689.951905283833
 21
-754.5000000000001
 31
0.0
  0
LINE
  5
83
330
1C4
100
AcDbEntity
  8
larmier
100
AcDbLine
 10
-1689.951905283833
 20
-754.5000000000001
 30
0.0
 11
-1689.951905283833
 21
-780.6324865000003
 31
0.0
  0
LINE
  5
84
330
1C4
100
AcDbEntity
  8
larmier
100
AcDbLine
 10
-1689.951905283833
 20
-780.6324865000003
 30
0.0
 11
-1685.0
 21
-767.0000000000002
 31
0.0
  0
LINE
  5
86
330
1C4
100
AcDbEntity
  8
ardoise
100
AcDbLine
 10
-1675.0
 20
-763.4145445349429
 30
0.0
 11
-1708.177540946623
 21
-932.0000000000002
 31
0.0
  0
LINE
  5
87
330
1C4
100
AcDbEntity
  8
ardoise
100
AcDbLine
 10
-1677.943539747221
 20
-762.8352572516952
 30
0.0
 11
-1711.121080693843
 21
-931.4207127167525
 31
0.0
  0
LINE
  5
88
330
1C4
100
AcDbEntity
  8
ardoise
100
AcDbLine
 10
-1711.121080693843
 20
-931.4207127167525
 30
0.0
 11
-1708.177540946623
 21
-932.0000000000002
 31
0.0
  0
LINE
  5
89
330
1C4
100
AcDbEntity
  8
ardoise
100
AcDbLine
 10
-1677.943539747221
 20
-762.8352572516952
 30
0.0
 11
-1675.0
 21
-763.4145445349429
 31
0.0
  0
LINE
  5
8A
330
1C4
100
AcDbEntity
  8
0
100
AcDbLine
 10
-1709.0
 20
-737.0000000000002
 30
0.0
 11
-1689.0
 21
-717.0000000000002
 31
0.0
  0
XLINE
  5
8F
330
1C4
100
AcDbEntity
  8
ligne_de_construction
100
AcDbXline
 10
83.0
 20
0.0
 30
0.0
 11
0.0
 21
1.0
 31
0.0
1001
QCAD
1000
fixedAngle:false
  0
XLINE
  5
90
330
1C4
100
AcDbEntity
  8
ligne_de_construction
100
AcDbXline
 10
75.0
 20
0.0
 30
0.0
 11
0.0
 21
1.0
 31
0.0
1001
QCAD
1000
fixedAngle:false
  0
XLINE
  5
91
330
1C4
100
AcDbEntity
  8
ligne_de_construction
100
AcDbXline
 10
0.0000000000000101
 20
0.0000000000000269
 30
0.0
 11
6.123233995736759E-17
 21
1.0
 31
0.0
1001
QCAD
1000
fixedAngle:false
  0
XLINE
  5
92
330
1C4
100
AcDbEntity
  8
ligne_de_construction
100
AcDbXline
 10
-145.0000000000001
 20
0.0
 30
0.0
 11
0.0
 21
1.0
 31
0.0
1001
QCAD
1000
fixedAngle:false
  0
XLINE
  5
93
330
1C4
100
AcDbEntity
  8
ligne_de_construction
100
AcDbXline
 10
-180.0
 20
200.0
 30
0.0
 11
0.0
 21
1.0
 31
0.0
1001
QCAD
1000
fixedAngle:false
  0
XLINE
  5
95
330
1C4
100
AcDbEntity
  8
ligne_de_construction
100
AcDbXline
 10
-220.0
 20
171.1324865405189
 30
0.0
 11
0.0
 21
1.0
 31
0.0
1001
QCAD
1000
fixedAngle:false
  0
LINE
  5
A2
330
1C4
100
AcDbEntity
  8
ligne_de_construction
100
AcDbLine
 10
-1000.0
 20
-3000.0
 30
0.0
 11
1828.42712474619
 21
-171.5728752538103
 31
0.0
  0
XLINE
  5
A3
330
1C4
100
AcDbEntity
  8
ligne_de_construction
100
AcDbXline
 10
83.0
 20
-1917.0
 30
0.0
 11
1.0
 21
0.0
 31
0.0
1001
QCAD
1000
fixedAngle:false
  0
XLINE
  5
A4
330
1C4
100
AcDbEntity
  8
ligne_de_construction
100
AcDbXline
 10
75.0
 20
-1925.0
 30
0.0
 11
1.0
 21
0.0
 31
0.0
1001
QCAD
1000
fixedAngle:false
  0
XLINE
  5
A5
330
1C4
100
AcDbEntity
  8
ligne_de_construction
100
AcDbXline
 10
-0.0000000000001124
 20
-2000.0
 30
0.0
 11
1.0
 21
0.0
 31
0.0
1001
QCAD
1000
fixedAngle:false
  0
XLINE
  5
A6
330
1C4
100
AcDbEntity
  8
ligne_de_construction
100
AcDbXline
 10
-145.0000000000001
 20
-2145.0
 30
0.0
 11
1.0
 21
0.0
 31
0.0
1001
QCAD
1000
fixedAngle:false
  0
LINE
  5
AB
330
1C4
100
AcDbEntity
  8
0
100
AcDbLine
 10
-20245.79554744627
 20
-1917.0
 30
0.0
 11
-2495.795547446263
 21
-1917.0
 31
0.0
  0
LINE
  5
AC
330
1C4
100
AcDbEntity
  8
Madrier
100
AcDbLine
 10
-20245.79554744627
 20
-1925.0
 30
0.0
 11
-2495.795547446264
 21
-1925.000000000001
 31
0.0
  0
LINE
  5
AF
330
1C4
100
AcDbEntity
  8
Madrier
100
AcDbLine
 10
-20200.79554744627
 20
-2000.0
 30
0.0
 11
-2495.795547446264
 21
-2000.0
 31
0.0
  0
LINE
  5
B0
330
1C4
100
AcDbEntity
  8
Madrier
100
AcDbLine
 10
-20245.79554744627
 20
-2145.0
 30
0.0
 11
-2495.795547446264
 21
-2145.0
 31
0.0
  0
LINE
  5
B1
330
1C4
100
AcDbEntity
  8
0
  6
ACAD_ISO02W100
100
AcDbLine
 10
-20245.79554744627
 20
-2207.0
 30
0.0
 11
-2495.795547446263
 21
-2207.0
 31
0.0
  0
LINE
  5
B2
330
1C4
100
AcDbEntity
  8
Madrier
100
AcDbLine
 10
-20245.79554744627
 20
-2220.0
 30
0.0
 11
-2495.795547446263
 21
-2220.0
 31
0.0
  0
LINE
  5
B3
330
1C4
100
AcDbEntity
  8
0
100
AcDbLine
 10
-20245.79554744627
 20
-2234.0
 30
0.0
 11
-2495.795547446264
 21
-2234.0
 31
0.0
  0
LINE
  5
B4
330
1C4
100
AcDbEntity
  8
0
100
AcDbLine
 10
-20245.79554744627
 20
-2254.0
 30
0.0
 11
-2495.795547446264
 21
-2254.000000000011
 31
0.0
  0
LINE
  5
B5
330
1C4
100
AcDbEntity
  8
0
100
AcDbLine
 10
-2495.795547446264
 20
-1925.0
 30
0.0
 11
-2495.795547446264
 21
-1917.0
 31
0.0
  0
LINE
  5
B6
330
1C4
100
AcDbEntity
  8
0
100
AcDbLine
 10
-20245.79554744626
 20
-1925.000000000011
 30
0.0
 11
-20245.79554744626
 21
-1917.000000000011
 31
0.0
  0
LINE
  5
B7
330
1C4
100
AcDbEntity
  8
0
100
AcDbLine
 10
-20245.79554744627
 20
-1925.0
 30
0.0
 11
-20245.79554744627
 21
-2000.0
 31
0.0
  0
LINE
  5
B8
330
1C4
100
AcDbEntity
  8
0
100
AcDbLine
 10
-20245.79554744627
 20
-2000.0
 30
0.0
 11
-20245.79554744627
 21
-2145.0
 31
0.0
  0
LINE
  5
B9
330
1C4
100
AcDbEntity
  8
0
100
AcDbLine
 10
-20245.79554744626
 20
-2207.0
 30
0.0
 11
-20245.79554744627
 21
-2145.0
 31
0.0
  0
LINE
  5
BA
330
1C4
100
AcDbEntity
  8
0
100
AcDbLine
 10
-20245.79554744627
 20
-2220.0
 30
0.0
 11
-20245.79554744626
 21
-2207.0
 31
0.0
  0
LINE
  5
BB
330
1C4
100
AcDbEntity
  8
0
100
AcDbLine
 10
-20245.79554744627
 20
-2234.0
 30
0.0
 11
-20245.79554744627
 21
-2220.0
 31
0.0
  0
LINE
  5
BC
330
1C4
100
AcDbEntity
  8
0
100
AcDbLine
 10
-20245.79554744627
 20
-2254.0
 30
0.0
 11
-20245.79554744627
 21
-2234.0
 31
0.0
  0
HATCH
  5
127
330
1C4
100
AcDbEntity
  8
0
100
AcDbHatch
 10
0.0
 20
0.0
 30
0.0
210
0.0
220
0.0
230
1.0
  2
JIS_WOOD
 70
     0
 71
     0
 91
        1
 92
        0
 93
        4
 72
     1
 10
-20245.79554744627
 20
-1917.0
 11
-2495.795547446265
 21
-1917.0
 72
     1
 10
-2495.795547446264
 20
-1917.0
 11
-2495.795547446264
 21
-1925.000000000001
 72
     1
 10
-2495.795547446264
 20
-1925.000000000001
 11
-20245.79554744627
 21
-1925.0
 72
     1
 10
-20245.79554744627
 20
-1925.0
 11
-20245.79554744627
 21
-1917.0
 97
        0
 75
     0
 76
     1
 52
90.0
 41
5.0
 77
     0
 78
     1
 53
135.0
 43
0.0
 44
0.0
 45
-2.499999995804921
 46
-2.499999995804921
 79
     0
 98
        0
1001
ACAD
1010
0.0
1020
0.0
1030
0.0
  0
LINE
  5
BE
330
1C4
100
AcDbEntity
  8
0
100
AcDbLine
 10
-2495.795547446264
 20
-2000.0
 30
0.0
 11
-2495.795547446264
 21
-1925.0
 31
0.0
  0
LINE
  5
BF
330
1C4
100
AcDbEntity
  8
0
100
AcDbLine
 10
-2495.795547446264
 20
-2207.0
 30
0.0
 11
-2495.795547446264
 21
-2145.0
 31
0.0
  0
LINE
  5
C0
330
1C4
100
AcDbEntity
  8
0
100
AcDbLine
 10
-2495.795547446264
 20
-2145.0
 30
0.0
 11
-2495.795547446264
 21
-1925.000000000001
 31
0.0
  0
LINE
  5
C1
330
1C4
100
AcDbEntity
  8
0
100
AcDbLine
 10
-2495.795547446264
 20
-2220.0
 30
0.0
 11
-2495.795547446264
 21
-2207.0
 31
0.0
  0
LINE
  5
C2
330
1C4
100
AcDbEntity
  8
0
100
AcDbLine
 10
-2495.795547446264
 20
-2234.0
 30
0.0
 11
-2495.795547446264
 21
-2220.0
 31
0.0
  0
LINE
  5
C3
330
1C4
100
AcDbEntity
  8
0
100
AcDbLine
 10
-2495.795547446264
 20
-2254.0
 30
0.0
 11
-2495.795547446264
 21
-2234.0
 31
0.0
  0
HATCH
  5
125
330
1C4
100
AcDbEntity
  8
0
100
AcDbHatch
 10
0.0
 20
0.0
 30
0.0
210
0.0
220
0.0
230
1.0
  2
JIS_WOOD
 70
     0
 71
     0
 91
        1
 92
        0
 93
        4
 72
     1
 10
-2495.795547446264
 20
-2180.0
 11
-2495.795547446263
 21
-2145.0
 72
     1
 10
-2495.795547446263
 20
-2145.0
 11
-20245.79554744627
 21
-2145.0
 72
     1
 10
-20245.79554744627
 20
-2145.0
 11
-20245.79554744627
 21
-2180.0
 72
     1
 10
-20245.79554744627
 20
-2180.0
 11
-2495.795547446265
 21
-2180.0
 97
        0
 75
     0
 76
     1
 52
90.0
 41
5.0
 77
     0
 78
     1
 53
135.0
 43
0.0
 44
0.0
 45
-2.499999995804921
 46
-2.499999995804921
 79
     0
 98
        0
1001
ACAD
1010
0.0
1020
0.0
1030
0.0
  0
DIMENSION
  5
C5
330
1C4
100
AcDbEntity
  8
cotes
100
AcDbDimension
280
     0
  2
*D3
 10
-2173.27282288263
 20
-1925.0
 30
0.0
 11
-2159.52282288263
 21
-1921.0
 31
0.0
 70
    32
 71
     5
 42
7.999999999999545
 73
     0
 74
     0
 75
     0
  3
QCADDimStyle
100
AcDbAlignedDimension
 13
-2245.795547446264
 23
-1917.0
 33
0.0
 14
-2245.795547446264
 24
-1925.0
 34
0.0
 50
90.0
100
AcDbRotatedDimension
1001
ACAD
1000
DSTYLE
1002
{
1070
   178
1070
     0
1070
   177
1070
     0
1070
   176
1070
     0
1070
   279
1070
     2
1070
    41
1040
10.0
1070
    79
1070
     2
1070
    44
1040
5.0
1070
    42
1040
2.5
1070
   147
1040
2.5
1070
   140
1040
10.0
1070
    78
1070
     8
1002
}
  0
DIMENSION
  5
C6
330
1C4
100
AcDbEntity
  8
cotes
100
AcDbDimension
280
     0
  2
*D4
 10
-2210.0
 20
-2000.0
 30
0.0
 11
-2217.5
 21
-1962.5
 31
0.0
 70
    32
 71
     5
 42
74.99999999999955
 73
     0
 74
     0
 75
     0
  3
QCADDimStyle
100
AcDbAlignedDimension
 13
-2245.795547446264
 23
-1925.000000000001
 33
0.0
 14
-2245.795547446264
 24
-2000.0
 34
0.0
 50
90.0
100
AcDbRotatedDimension
1001
ACAD
1000
DSTYLE
1002
{
1070
   178
1070
     0
1070
   177
1070
     0
1070
   176
1070
     0
1070
   279
1070
     2
1070
    41
1040
10.0
1070
    79
1070
     2
1070
    44
1040
5.0
1070
    42
1040
2.5
1070
   147
1040
2.5
1070
   140
1040
10.0
1070
    78
1070
     8
1002
}
  0
DIMENSION
  5
C7
330
1C4
100
AcDbEntity
  8
cotes
100
AcDbDimension
280
     0
  2
*D5
 10
-2173.27282288263
 20
-2145.0
 30
0.0
 11
-2180.77282288263
 21
-2035.0
 31
0.0
 70
    32
 71
     5
 42
219.9999999999993
 73
     0
 74
     0
 75
     0
  3
QCADDimStyle
100
AcDbAlignedDimension
 13
-2245.795547446264
 23
-1925.000000000001
 33
0.0
 14
-2245.795547446264
 24
-2145.0
 34
0.0
 50
90.0
100
AcDbRotatedDimension
1001
ACAD
1000
DSTYLE
1002
{
1070
   178
1070
     0
1070
   177
1070
     0
1070
   176
1070
     0
1070
   279
1070
     2
1070
    41
1040
10.0
1070
    79
1070
     2
1070
    44
1040
5.0
1070
    42
1040
2.5
1070
   147
1040
2.5
1070
   140
1040
10.0
1070
    78
1070
     8
1002
}
  0
XLINE
  5
C8
330
1C4
100
AcDbEntity
  8
ligne_de_construction
100
AcDbXline
 10
-180.0
 20
-2180.0
 30
0.0
 11
1.0
 21
0.0
 31
0.0
1001
QCAD
1000
fixedAngle:false
  0
DIMENSION
  5
C9
330
1C4
100
AcDbEntity
  8
cotes
100
AcDbDimension
280
     0
  2
*D6
 10
-2173.27282288263
 20
-2180.0
 30
0.0
 11
-2180.77282288263
 21
-2162.5
 31
0.0
 70
    32
 71
     5
 42
35.0
 73
     0
 74
     0
 75
     0
  3
QCADDimStyle
100
AcDbAlignedDimension
 13
-2200.0
 23
-2145.0
 33
0.0
 14
-2200.0
 24
-2180.0
 34
0.0
 50
90.0
100
AcDbRotatedDimension
1001
ACAD
1000
DSTYLE
1002
{
1070
   178
1070
     0
1070
   177
1070
     0
1070
   176
1070
     0
1070
   279
1070
     2
1070
    41
1040
10.0
1070
    79
1070
     2
1070
    44
1040
5.0
1070
    42
1040
2.5
1070
   147
1040
2.5
1070
   140
1040
10.0
1070
    78
1070
     8
1002
}
  0
DIMENSION
  5
CA
330
1C4
100
AcDbEntity
  8
cotes
100
AcDbDimension
280
     0
  2
*D7
 10
-2210.0
 20
-2220.0
 30
0.0
 11
-2217.5
 21
-2182.5
 31
0.0
 70
    32
 71
     5
 42
75.0
 73
     0
 74
     0
 75
     0
  3
QCADDimStyle
100
AcDbAlignedDimension
 13
-2245.795547446264
 23
-2145.0
 33
0.0
 14
-2245.795547446264
 24
-2220.0
 34
0.0
 50
90.0
100
AcDbRotatedDimension
1001
ACAD
1000
DSTYLE
1002
{
1070
   178
1070
     0
1070
   177
1070
     0
1070
   176
1070
     0
1070
   279
1070
     2
1070
    41
1040
10.0
1070
    79
1070
     2
1070
    44
1040
5.0
1070
    42
1040
2.5
1070
   147
1040
2.5
1070
   140
1040
10.0
1070
    78
1070
     8
1002
}
  0
DIMENSION
  5
CD
330
1C4
100
AcDbEntity
  8
cotes
100
AcDbDimension
280
     0
  2
*D8
 10
-2173.27282288263
 20
-2207.0
 30
0.0
 11
-2180.77282288263
 21
-2193.5
 31
0.0
 70
    32
 71
     5
 42
27.0
 73
     0
 74
     0
 75
     0
  3
QCADDimStyle
100
AcDbAlignedDimension
 13
-2197.5
 23
-2180.0
 33
0.0
 14
-2197.5
 24
-2207.0
 34
0.0
 50
90.0
100
AcDbRotatedDimension
1001
ACAD
1000
DSTYLE
1002
{
1070
   178
1070
     0
1070
   177
1070
     0
1070
   176
1070
     0
1070
   279
1070
     2
1070
    41
1040
10.0
1070
    79
1070
     2
1070
    44
1040
5.0
1070
    42
1040
2.5
1070
   147
1040
2.5
1070
   140
1040
10.0
1070
    78
1070
     8
1002
}
  0
DIMENSION
  5
CE
330
1C4
100
AcDbEntity
  8
cotes
100
AcDbDimension
280
     0
  2
*D9
 10
-2173.27282288263
 20
-2234.0
 30
0.0
 11
-2180.77282288263
 21
-2220.5
 31
0.0
 70
    32
 71
     5
 42
27.0
 73
     0
 74
     0
 75
     0
  3
QCADDimStyle
100
AcDbAlignedDimension
 13
-2245.795547446264
 23
-2207.0
 33
0.0
 14
-2245.795547446264
 24
-2234.0
 34
0.0
 50
90.0
100
AcDbRotatedDimension
1001
ACAD
1000
DSTYLE
1002
{
1070
   178
1070
     0
1070
   177
1070
     0
1070
   176
1070
     0
1070
   279
1070
     2
1070
    41
1040
10.0
1070
    79
1070
     2
1070
    44
1040
5.0
1070
    42
1040
2.5
1070
   147
1040
2.5
1070
   140
1040
10.0
1070
    78
1070
     8
1002
}
  0
DIMENSION
  5
CF
330
1C4
100
AcDbEntity
  8
cotes
100
AcDbDimension
280
     0
  2
*D10
 10
-2173.27282288263
 20
-2234.0
 30
0.0
 11
-2159.52282288263
 21
-2244.0
 31
0.0
 70
    32
 71
     5
 42
20.0
 73
     0
 74
     0
 75
     0
  3
QCADDimStyle
100
AcDbAlignedDimension
 13
-2245.795547446264
 23
-2254.0
 33
0.0
 14
-2245.795547446265
 24
-2234.0
 34
0.0
 50
90.0
100
AcDbRotatedDimension
1001
ACAD
1000
DSTYLE
1002
{
1070
   178
1070
     0
1070
   177
1070
     0
1070
   176
1070
     0
1070
   279
1070
     2
1070
    41
1040
10.0
1070
    79
1070
     2
1070
    44
1040
5.0
1070
    42
1040
2.5
1070
   147
1040
2.5
1070
   140
1040
10.0
1070
    78
1070
     8
1002
}
  0
INSERT
  5
D5
330
1C4
100
AcDbEntity
  8
0
100
AcDbBlockReference
  2
tasseau_plan
 10
-20167.61462091616
 20
-2277.820482764501
 30
0.0
  0
XLINE
  5
D9
330
1C4
100
AcDbEntity
  8
ligne_de_construction
100
AcDbXline
 10
-207.0
 20
200.0
 30
0.0
 11
0.0
 21
1.0
 31
0.0
1001
QCAD
1000
fixedAngle:false
  0
XLINE
  5
DA
330
1C4
100
AcDbEntity
  8
ligne_de_construction
100
AcDbXline
 10
-233.9999999999999
 20
200.0000000000001
 30
0.0
 11
0.0
 21
1.0
 31
0.0
1001
QCAD
1000
fixedAngle:false
  0
XLINE
  5
DB
330
1C4
100
AcDbEntity
  8
ligne_de_construction
100
AcDbXline
 10
-253.9999999999999
 20
180.0000000000001
 30
0.0
 11
0.0
 21
1.0
 31
0.0
1001
QCAD
1000
fixedAngle:false
  0
XLINE
  5
DC
330
1C4
100
AcDbEntity
  8
ligne_de_construction
100
AcDbXline
 10
-207.0
 20
-2207.0
 30
0.0
 11
1.0
 21
0.0
 31
0.0
1001
QCAD
1000
fixedAngle:false
  0
XLINE
  5
DD
330
1C4
100
AcDbEntity
  8
ligne_de_construction
100
AcDbXline
 10
-220.0
 20
-2220.0
 30
0.0
 11
1.0
 21
0.0
 31
0.0
1001
QCAD
1000
fixedAngle:false
  0
XLINE
  5
DE
330
1C4
100
AcDbEntity
  8
ligne_de_construction
100
AcDbXline
 10
-233.9999999999999
 20
-2234.0
 30
0.0
 11
1.0
 21
0.0
 31
0.0
1001
QCAD
1000
fixedAngle:false
  0
XLINE
  5
DF
330
1C4
100
AcDbEntity
  8
ligne_de_construction
100
AcDbXline
 10
-253.9999999999999
 20
-2254.0
 30
0.0
 11
1.0
 21
0.0
 31
0.0
1001
QCAD
1000
fixedAngle:false
  0
LINE
  5
EF
330
1C4
100
AcDbEntity
  8
Madrier
100
AcDbLine
 10
-20245.79554744626
 20
-2254.000000000011
 30
0.0
 11
-20320.79554744626
 21
-2254.0
 31
0.0
  0
LINE
  5
F0
330
1C4
100
AcDbEntity
  8
Madrier
100
AcDbLine
 10
-19945.79554744626
 20
-1917.0
 30
0.0
 11
-19870.79554744625
 21
-1917.0
 31
0.0
  0
LINE
  5
F2
330
1C4
100
AcDbEntity
  8
Madrier
100
AcDbLine
 10
-20245.79554744626
 20
-1917.0
 30
0.0
 11
-19945.79554744626
 21
-1917.0
 31
0.0
  0
LINE
  5
F5
330
1C4
100
AcDbEntity
  8
Madrier
100
AcDbLine
 10
-20245.79554744626
 20
-1842.0
 30
0.0
 11
-19945.79554744625
 21
-1842.0
 31
0.0
  0
LINE
  5
F7
330
1C4
100
AcDbEntity
  8
0
100
AcDbLine
 10
-2495.795547446264
 20
-2180.0
 30
0.0
 11
-20245.79554744626
 21
-2180.0
 31
0.0
  0
LINE
  5
FA
330
1C4
100
AcDbEntity
  8
Madrier
100
AcDbLine
 10
-20245.79554744627
 20
-1925.000000000001
 30
0.0
 11
-20245.79554744627
 21
-2145.0
 31
0.0
  0
LINE
  5
FB
330
1C4
100
AcDbEntity
  8
Madrier
100
AcDbLine
 10
-20200.79554744627
 20
-1925.000000000001
 30
0.0
 11
-20200.79554744627
 21
-2145.0
 31
0.0
  0
LINE
  5
FE
330
1C4
100
AcDbEntity
  8
Madrier
100
AcDbLine
 10
-20245.79554744627
 20
-917.0000000000002
 30
0.0
 11
-2495.795547446263
 21
-917.0000000000002
 31
0.0
  0
LINE
  5
FF
330
1C4
100
AcDbEntity
  8
Madrier
100
AcDbLine
 10
-20245.79554744627
 20
-717.0000000000002
 30
0.0
 11
-2495.795547446263
 21
-717.0000000000002
 31
0.0
  0
LINE
  5
100
330
1C4
100
AcDbEntity
  8
0
100
AcDbLine
 10
-20245.79554744627
 20
-932.0000000000002
 30
0.0
 11
-2420.795547446263
 21
-932.0000000000002
 31
0.0
  0
LINE
  5
101
330
1C4
100
AcDbEntity
  8
Madrier
100
AcDbLine
 10
-20245.79554744627
 20
-917.0000000000002
 30
0.0
 11
-20320.79554744626
 21
-917.0000000000002
 31
0.0
  0
LINE
  5
102
330
1C4
100
AcDbEntity
  8
Madrier
100
AcDbLine
 10
-20320.79554744626
 20
-917.0000000000002
 30
0.0
 11
-20320.79554744626
 21
-717.0000000000002
 31
0.0
  0
LINE
  5
103
330
1C4
100
AcDbEntity
  8
Madrier
100
AcDbLine
 10
-20320.79554744626
 20
-717.0000000000002
 30
0.0
 11
-20245.79554744627
 21
-717.0000000000002
 31
0.0
  0
LINE
  5
104
330
1C4
100
AcDbEntity
  8
Madrier
100
AcDbLine
 10
-20245.79554744627
 20
-717.0000000000002
 30
0.0
 11
-20245.79554744627
 21
-917.0000000000002
 31
0.0
  0
LINE
  5
105
330
1C4
100
AcDbEntity
  8
0
100
AcDbLine
 10
-20245.79554744627
 20
-932.0000000000002
 30
0.0
 11
-20320.79554744626
 21
-932.0000000000002
 31
0.0
  0
LINE
  5
106
330
1C4
100
AcDbEntity
  8
0
100
AcDbLine
 10
-20320.79554744626
 20
-932.0000000000002
 30
0.0
 11
-20320.79554744626
 21
-917.0000000000002
 31
0.0
  0
LINE
  5
107
330
1C4
100
AcDbEntity
  8
0
100
AcDbLine
 10
-20320.79554744626
 20
-917.0000000000002
 30
0.0
 11
-20245.79554744627
 21
-917.0000000000002
 31
0.0
  0
LINE
  5
108
330
1C4
100
AcDbEntity
  8
0
100
AcDbLine
 10
-20245.79554744627
 20
-917.0000000000002
 30
0.0
 11
-20245.79554744627
 21
-932.0000000000002
 31
0.0
  0
LINE
  5
109
330
1C4
100
AcDbEntity
  8
0
100
AcDbLine
 10
-20245.79554744627
 20
-917.0000000000002
 30
0.0
 11
-2495.795547446263
 21
-917.0000000000002
 31
0.0
  0
LINE
  5
10A
330
1C4
100
AcDbEntity
  8
0
100
AcDbLine
 10
-2420.795547446263
 20
-932.0000000000002
 30
0.0
 11
-2420.795547446263
 21
-917.0000000000002
 31
0.0
  0
LINE
  5
10B
330
1C4
100
AcDbEntity
  8
0
100
AcDbLine
 10
-20413.5891327696
 20
-1210.995876638692
 30
0.0
 11
-20071.3110406439
 21
-1074.063909086228
 31
0.0
  0
LINE
  5
10C
330
1C4
100
AcDbEntity
  8
0
100
AcDbLine
 10
-20071.3110406439
 20
-1074.063909086228
 30
0.0
 11
-20157.83687380677
 21
-1202.743353277173
 31
0.0
  0
LINE
  5
10D
330
1C4
100
AcDbEntity
  8
0
100
AcDbLine
 10
-20157.83687380677
 20
-1202.743353277173
 30
0.0
 11
-19654.2121525767
 21
-1080.719742406449
 31
0.0
  0
LINE
  5
10E
330
1C4
100
AcDbEntity
  8
Madrier
100
AcDbLine
 10
-20320.79554744626
 20
-2254.0
 30
0.0
 11
-20320.79554744626
 21
-1173.872822295192
 31
0.0
  0
LINE
  5
110
330
1C4
100
AcDbEntity
  8
Madrier
100
AcDbLine
 10
-20245.79554744626
 20
-1143.868279782248
 30
0.0
 11
-20245.79554744626
 21
-2254.0
 31
0.0
  0
LINE
  5
111
330
1C4
100
AcDbEntity
  8
Madrier
100
AcDbLine
 10
-19945.79554744625
 20
-1151.367701515813
 30
0.0
 11
-19945.79554744626
 21
-1917.0
 31
0.0
  0
LINE
  5
113
330
1C4
100
AcDbEntity
  8
Madrier
100
AcDbLine
 10
-19870.79554744625
 20
-1917.0
 30
0.0
 11
-19870.79554744626
 21
-1133.195895348413
 31
0.0
  0
LINE
  5
114
330
1C4
100
AcDbEntity
  8
0
100
AcDbLine
 10
-20245.79554744627
 20
-872.0000000000002
 30
0.0
 11
-2495.795547446263
 21
-872.0000000000002
 31
0.0
  0
LINE
  5
115
330
1C4
100
AcDbEntity
  8
0
100
AcDbLine
 10
-20245.79554744627
 20
1893.0
 30
0.0
 11
-2495.795547446263
 21
1893.0
 31
0.0
  0
LINE
  5
116
330
1C4
100
AcDbEntity
  8
0
100
AcDbLine
 10
-20245.79554744627
 20
1893.0
 30
0.0
 11
-20245.79554744627
 21
-872.0000000000003
 31
0.0
  0
LINE
  5
117
330
1C4
100
AcDbEntity
  8
0
100
AcDbLine
 10
-2495.795547446263
 20
1893.0
 30
0.0
 11
-2495.795547446263
 21
-872.0000000000002
 31
0.0
  0
LINE
  5
118
330
1C4
100
AcDbEntity
  8
Madrier
100
AcDbLine
 10
-2495.795547446264
 20
-2254.000000000011
 30
0.0
 11
-2420.795547446263
 21
-2254.0
 31
0.0
  0
LINE
  5
119
330
1C4
100
AcDbEntity
  8
Madrier
100
AcDbLine
 10
-2495.795547446263
 20
-1917.0
 30
0.0
 11
-2795.795547446263
 21
-1917.0
 31
0.0
  0
LINE
  5
11A
330
1C4
100
AcDbEntity
  8
Madrier
100
AcDbLine
 10
-2495.795547446264
 20
-1842.0
 30
0.0
 11
-2795.795547446271
 21
-1842.0
 31
0.0
  0
LINE
  5
11B
330
1C4
100
AcDbEntity
  8
Madrier
100
AcDbLine
 10
-2420.795547446263
 20
-2254.0
 30
0.0
 11
-2420.795547446263
 21
-1173.872822295192
 31
0.0
  0
LINE
  5
11C
330
1C4
100
AcDbEntity
  8
Madrier
100
AcDbLine
 10
-2495.795547446263
 20
-1143.868279782248
 30
0.0
 11
-2495.795547446264
 21
-2254.0
 31
0.0
  0
LINE
  5
11D
330
1C4
100
AcDbEntity
  8
Madrier
100
AcDbLine
 10
-2795.795547446271
 20
-1151.367701515813
 30
0.0
 11
-2795.795547446263
 21
-1917.0
 31
0.0
  0
LINE
  5
11E
330
1C4
100
AcDbEntity
  8
Madrier
100
AcDbLine
 10
-2870.795547446271
 20
-1917.0
 30
0.0
 11
-2870.795547446263
 21
-1133.195895348413
 31
0.0
  0
LINE
  5
11F
330
1C4
100
AcDbEntity
  8
Madrier
100
AcDbLine
 10
-2795.795547446263
 20
-1917.0
 30
0.0
 11
-2870.795547446271
 21
-1917.0
 31
0.0
  0
LINE
  5
121
330
1C4
100
AcDbEntity
  8
ligne_de_construction
100
AcDbLine
 10
-2870.795547446271
 20
-1916.999999999998
 30
0.0
 11
-2870.795547446264
 21
-1133.195895348411
 31
0.0
  0
LINE
  5
128
330
1C4
100
AcDbEntity
  8
Madrier
100
AcDbLine
 10
-2495.795547446263
 20
-717.0000000000002
 30
0.0
 11
-2495.795547446263
 21
-917.0000000000002
 31
0.0
  0
LINE
  5
129
330
1C4
100
AcDbEntity
  8
0
100
AcDbLine
 10
-2495.795547446263
 20
-872.0000000000003
 30
0.0
 11
-2495.795547446263
 21
-917.0000000000002
 31
0.0
  0
LINE
  5
12A
330
1C4
100
AcDbEntity
  8
Madrier
100
AcDbLine
 10
-2420.795547446263
 20
-717.0000000000002
 30
0.0
 11
-2420.795547446263
 21
-917.0000000000002
 31
0.0
  0
LINE
  5
12B
330
1C4
100
AcDbEntity
  8
Madrier
100
AcDbLine
 10
-2495.795547446263
 20
-717.0000000000002
 30
0.0
 11
-2420.795547446263
 21
-717.0000000000002
 31
0.0
  0
LINE
  5
12C
330
1C4
100
AcDbEntity
  8
Madrier
100
AcDbLine
 10
-2420.795547446263
 20
-917.0000000000002
 30
0.0
 11
-2495.795547446263
 21
-917.0000000000002
 31
0.0
  0
LINE
  5
12D
330
1C4
100
AcDbEntity
  8
0
100
AcDbLine
 10
-2540.795547446263
 20
1893.0
 30
0.0
 11
-2540.795547446261
 21
-872.0000000000002
 31
0.0
  0
LINE
  5
12E
330
1C4
100
AcDbEntity
  8
0
100
AcDbLine
 10
-20200.79554744627
 20
1893.0
 30
0.0
 11
-20200.79554744627
 21
-872.0000000000002
 31
0.0
  0
LINE
  5
139
330
1C4
100
AcDbEntity
  8
0
100
AcDbLine
 10
-20918.84736718303
 20
-917.0000000000002
 30
0.0
 11
-20843.84736718303
 21
-917.0000000000002
 31
0.0
  0
LINE
  5
13A
330
1C4
100
AcDbEntity
  8
0
100
AcDbLine
 10
-20843.84736718303
 20
-917.0000000000002
 30
0.0
 11
-20843.84736718303
 21
-717.0000000000002
 31
0.0
  0
LINE
  5
13B
330
1C4
100
AcDbEntity
  8
0
100
AcDbLine
 10
-20843.84736718303
 20
-717.0000000000002
 30
0.0
 11
-20918.84736718303
 21
-717.0000000000002
 31
0.0
  0
LINE
  5
13C
330
1C4
100
AcDbEntity
  8
0
100
AcDbLine
 10
-20918.84736718303
 20
-717.0000000000002
 30
0.0
 11
-20918.84736718303
 21
-872.0000000000002
 31
0.0
  0
LINE
  5
13D
330
1C4
100
AcDbEntity
  8
0
100
AcDbLine
 10
-21063.84736718303
 20
-717.0000000000002
 30
0.0
 11
-21063.84736718303
 21
1583.0
 31
0.0
  0
LINE
  5
13E
330
1C4
100
AcDbEntity
  8
0
100
AcDbLine
 10
-21138.84736718303
 20
-917.0000000000002
 30
0.0
 11
-21063.84736718303
 21
-917.0000000000002
 31
0.0
  0
LINE
  5
13F
330
1C4
100
AcDbEntity
  8
0
100
AcDbLine
 10
-21063.84736718303
 20
-872.0000000000002
 30
0.0
 11
-21063.84736718303
 21
-717.0000000000002
 31
0.0
  0
LINE
  5
140
330
1C4
100
AcDbEntity
  8
0
100
AcDbLine
 10
-21063.84736718303
 20
1583.0
 30
0.0
 11
-20843.84736718303
 21
1583.0
 31
0.0
  0
LINE
  5
141
330
1C4
100
AcDbEntity
  8
0
100
AcDbLine
 10
-20843.84736718303
 20
1583.0
 30
0.0
 11
-20843.84736718303
 21
-717.0000000000002
 31
0.0
  0
LINE
  5
142
330
1C4
100
AcDbEntity
  8
0
100
AcDbLine
 10
-21063.84736718303
 20
-917.0000000000002
 30
0.0
 11
-20918.84736718303
 21
-917.0000000000002
 31
0.0
  0
LINE
  5
143
330
1C4
100
AcDbEntity
  8
0
100
AcDbLine
 10
-20918.84736718303
 20
-917.0000000000002
 30
0.0
 11
-20918.84736718303
 21
-872.0000000000002
 31
0.0
  0
LINE
  5
144
330
1C4
100
AcDbEntity
  8
0
100
AcDbLine
 10
-20918.84736718303
 20
-872.0000000000002
 30
0.0
 11
-21063.84736718303
 21
-872.0000000000002
 31
0.0
  0
LINE
  5
145
330
1C4
100
AcDbEntity
  8
0
100
AcDbLine
 10
-21063.84736718303
 20
-872.0000000000002
 30
0.0
 11
-21063.84736718303
 21
-917.0000000000002
 31
0.0
  0
LINE
  5
146
330
1C4
100
AcDbEntity
  8
0
100
AcDbLine
 10
-21063.84736718303
 20
-917.0000000000002
 30
0.0
 11
-20918.84736718303
 21
-872.0000000000002
 31
0.0
  0
LINE
  5
147
330
1C4
100
AcDbEntity
  8
0
100
AcDbLine
 10
-21063.84736718303
 20
-872.0000000000002
 30
0.0
 11
-20918.84736718303
 21
-917.0000000000002
 31
0.0
  0
LINE
  5
148
330
1C4
100
AcDbEntity
  8
0
100
AcDbLine
 10
-20918.84736718303
 20
-917.0000000000002
 30
0.0
 11
-20843.84736718303
 21
-717.0000000000002
 31
0.0
  0
LINE
  5
149
330
1C4
100
AcDbEntity
  8
0
100
AcDbLine
 10
-20918.84736718303
 20
-717.0000000000002
 30
0.0
 11
-20843.84736718303
 21
-917.0000000000002
 31
0.0
  0
LINE
  5
14A
330
1C4
100
AcDbEntity
  8
0
100
AcDbLine
 10
-21138.84736718303
 20
-917.0000000000002
 30
0.0
 11
-21063.84736718303
 21
-717.0000000000002
 31
0.0
  0
LINE
  5
14B
330
1C4
100
AcDbEntity
  8
0
100
AcDbLine
 10
-21138.84736718303
 20
-917.0000000000002
 30
0.0
 11
-20835.84736718303
 21
-917.0000000000002
 31
0.0
  0
LINE
  5
14C
330
1C4
100
AcDbEntity
  8
0
100
AcDbLine
 10
-20835.84736718303
 20
-917.0000000000002
 30
0.0
 11
-20835.84736718303
 21
-932.0000000000002
 31
0.0
  0
LINE
  5
14D
330
1C4
100
AcDbEntity
  8
0
100
AcDbLine
 10
-20835.84736718303
 20
-932.0000000000002
 30
0.0
 11
-21138.84736718303
 21
-932.0000000000003
 31
0.0
  0
LINE
  5
14E
330
1C4
100
AcDbEntity
  8
0
100
AcDbLine
 10
-21138.84736718303
 20
-932.0000000000003
 30
0.0
 11
-21138.84736718303
 21
-917.0000000000002
 31
0.0
  0
HATCH
  5
14F
330
1C4
100
AcDbEntity
  8
0
100
AcDbHatch
 10
0.0
 20
0.0
 30
0.0
210
0.0
220
0.0
230
1.0
  2
JIS_WOOD
 70
     0
 71
     0
 91
        1
 92
        0
 93
        4
 72
     1
 10
-21138.84736718303
 20
-917.0000000000002
 11
-20835.84736718303
 21
-917.0000000000002
 72
     1
 10
-20835.84736718303
 20
-917.0000000000002
 11
-20835.84736718303
 21
-932.0000000000002
 72
     1
 10
-20835.84736718303
 20
-932.0000000000002
 11
-21138.84736718303
 21
-932.0000000000002
 72
     1
 10
-21138.84736718303
 20
-932.0000000000002
 11
-21138.84736718303
 21
-917.0000000000002
 97
        0
 75
     0
 76
     1
 52
0.0
 41
10.0
 77
     0
 78
     1
 53
45.0
 43
0.0
 44
0.0
 45
-4.999999991609842
 46
4.999999991609842
 79
     0
 98
        0
1001
ACAD
1010
0.0
1020
0.0
1030
0.0
  0
LINE
  5
150
330
1C4
100
AcDbEntity
  8
0
100
AcDbLine
 10
-21098.84736718303
 20
1583.0
 30
0.0
 11
-21098.84736718303
 21
-717.0000000000002
 31
0.0
  0
LINE
  5
151
330
1C4
100
AcDbEntity
  8
0
100
AcDbLine
 10
-21138.84736718303
 20
-745.8675134594814
 30
0.0
 11
-21138.84736718303
 21
-917.0000000000002
 31
0.0
  0
LINE
  5
152
330
1C4
100
AcDbEntity
  8
0
100
AcDbLine
 10
-21063.84736718303
 20
-917.0000000000002
 30
0.0
 11
-21129.94867336291
 21
-740.7298501869968
 31
0.0
  0
LINE
  5
153
330
1C4
100
AcDbEntity
  8
0
100
AcDbLine
 10
-21063.84736718303
 20
-717.0000000000002
 30
0.0
 11
-21098.84736718303
 21
-717.0000000000002
 31
0.0
  0
LINE
  5
154
330
1C4
100
AcDbEntity
  8
0
100
AcDbLine
 10
-21088.84736718303
 20
-717.0000000000002
 30
0.0
 11
-21138.84736718303
 21
-745.8675134594813
 31
0.0
  0
LINE
  5
155
330
1C4
100
AcDbEntity
  8
0
100
AcDbLine
 10
-20918.84736718303
 20
-872.0000000000002
 30
0.0
 11
-20918.84736718303
 21
-717.0000000000002
 31
0.0
  0
HATCH
  5
156
330
1C4
100
AcDbEntity
  8
0
 62
     2
420
 16776960
100
AcDbHatch
 10
0.0
 20
0.0
 30
0.0
210
0.0
220
0.0
230
1.0
  2
HONEY
 70
     0
 71
     0
 91
        1
 92
        0
 93
        6
 72
     1
 10
-20918.84736718303
 20
-717.0000000000002
 11
-21063.84736718303
 21
-717.0000000000002
 72
     1
 10
-21063.84736718303
 20
-717.0000000000002
 11
-21063.84736718303
 21
1583.0
 72
     1
 10
-21063.84736718303
 20
1583.0
 11
-20843.84736718303
 21
1583.0
 72
     1
 10
-20843.84736718303
 20
1583.0
 11
-20843.84736718303
 21
-717.0000000000002
 72
     1
 10
-20843.84736718303
 20
-717.0000000000002
 11
-20918.84736718303
 21
-717.0000000000002
 72
     1
 10
-20918.84736718303
 20
-717.0000000000002
 11
-20918.84736718303
 21
-717.0000000000002
 97
        0
 75
     0
 76
     1
 52
0.0
 41
10.0
 77
     0
 78
     3
 53
0.0
 43
0.0
 44
0.0
 45
47.625
 46
27.4963
 79
     2
 49
31.75
 49
-63.5
 53
120.0
 43
0.0
 44
0.0
 45
-47.62499431007805
 46
27.49630985523391
 79
     2
 49
31.75
 49
-63.5
 53
60.0
 43
0.0
 44
0.0
 45
0.0000056899219469
 46
54.99260985523389
 79
     2
 49
-63.5
 49
31.75
 98
        0
1001
ACAD
1010
0.0
1020
0.0
1030
0.0
  0
LINE
  5
157
330
1C4
100
AcDbEntity
  8
0
100
AcDbLine
 10
-21098.84736718303
 20
1583.0
 30
0.0
 11
-21063.84736718303
 21
1583.0
 31
0.0
  0
HATCH
  5
158
330
1C4
100
AcDbEntity
  8
0
100
AcDbHatch
 10
0.0
 20
0.0
 30
0.0
210
0.0
220
0.0
230
1.0
  2
JIS_WOOD
 70
     0
 71
     0
 91
        1
 92
        0
 93
        4
 72
     1
 10
-21063.84736718303
 20
-717.0000000000002
 11
-21098.84736718303
 21
-717.0000000000002
 72
     1
 10
-21098.84736718303
 20
-717.0000000000002
 11
-21098.84736718303
 21
1583.0
 72
     1
 10
-21098.84736718303
 20
1583.0
 11
-21063.84736718303
 21
1583.0
 72
     1
 10
-21063.84736718303
 20
1583.0
 11
-21063.84736718303
 21
-717.0000000000002
 97
        0
 75
     0
 76
     1
 52
90.0
 41
10.0
 77
     0
 78
     1
 53
135.0
 43
0.0
 44
0.0
 45
-4.999999991609842
 46
-4.999999991609842
 79
     0
 98
        0
1001
ACAD
1010
0.0
1020
0.0
1030
0.0
  0
LINE
  5
159
330
1C4
100
AcDbEntity
  8
0
100
AcDbLine
 10
-20835.84736718303
 20
1583.0
 30
0.0
 11
-20835.84736718303
 21
-917.0000000000002
 31
0.0
  0
LINE
  5
15A
330
1C4
100
AcDbEntity
  8
0
100
AcDbLine
 10
-20835.84736718303
 20
-917.0000000000002
 30
0.0
 11
-20843.84736718303
 21
-917.0000000000002
 31
0.0
  0
LINE
  5
15B
330
1C4
100
AcDbEntity
  8
0
100
AcDbLine
 10
-20843.84736718303
 20
1583.0
 30
0.0
 11
-20835.84736718303
 21
1583.0
 31
0.0
  0
HATCH
  5
15C
330
1C4
100
AcDbEntity
  8
0
100
AcDbHatch
 10
0.0
 20
0.0
 30
0.0
210
0.0
220
0.0
230
1.0
  2
JIS_WOOD
 70
     0
 71
     0
 91
        1
 92
        0
 93
        5
 72
     1
 10
-20843.84736718303
 20
-917.0000000000002
 11
-20843.84736718303
 21
-717.0000000000002
 72
     1
 10
-20843.84736718303
 20
-717.0000000000002
 11
-20843.84736718303
 21
1583.0
 72
     1
 10
-20843.84736718303
 20
1583.0
 11
-20835.84736718303
 21
1583.0
 72
     1
 10
-20835.84736718303
 20
1583.0
 11
-20835.84736718303
 21
-917.0000000000002
 72
     1
 10
-20835.84736718303
 20
-917.0000000000002
 11
-20843.84736718303
 21
-917.0000000000002
 97
        0
 75
     0
 76
     1
 52
90.0
 41
10.0
 77
     0
 78
     1
 53
135.0
 43
0.0
 44
0.0
 45
-4.999999991609842
 46
-4.999999991609842
 79
     0
 98
        0
1001
ACAD
1010
0.0
1020
0.0
1030
0.0
  0
LINE
  5
15D
330
1C4
100
AcDbEntity
  8
0
100
AcDbLine
 10
-21063.84736718303
 20
-717.0000000000002
 30
0.0
 11
-20918.84736718303
 21
-717.0000000000002
 31
0.0
  0
HATCH
  5
15E
330
1C4
100
AcDbEntity
  8
0
 62
    30
420
 16744192
100
AcDbHatch
 10
0.0
 20
0.0
 30
0.0
210
0.0
220
0.0
230
1.0
  2
HONEY
 70
     0
 71
     0
 91
        1
 92
        0
 93
        4
 72
     1
 10
-21063.84736718303
 20
-717.0000000000002
 11
-20918.84736718303
 21
-717.0000000000002
 72
     1
 10
-20918.84736718303
 20
-717.0000000000002
 11
-20918.84736718303
 21
-872.0000000000002
 72
     1
 10
-20918.84736718303
 20
-872.0000000000002
 11
-21063.84736718303
 21
-872.0000000000002
 72
     1
 10
-21063.84736718303
 20
-872.0000000000002
 11
-21063.84736718303
 21
-717.0000000000002
 97
        0
 75
     0
 76
     1
 52
90.0
 41
5.0
 77
     0
 78
     3
 53
90.0
 43
0.0
 44
0.0
 45
-13.74815
 46
23.8125
 79
     2
 49
15.875
 49
-31.75
 53
210.0
 43
0.0
 44
0.0
 45
-13.74815492761695
 46
-23.81249715503903
 79
     2
 49
15.875
 49
-31.75
 53
150.0
 43
0.0
 44
0.0
 45
-27.49630492761695
 46
0.0000028449609824
 79
     2
 49
-31.75
 49
15.875
 98
        0
1001
ACAD
1010
0.0
1020
0.0
1030
0.0
  0
INSERT
  5
15F
330
1C4
100
AcDbEntity
  8
0
100
AcDbBlockReference
  2
tasseau
 10
-21125.84736718303
 20
-717.0000000000002
 30
0.0
  0
LINE
  5
160
330
1C4
100
AcDbEntity
  8
0
100
AcDbLine
 10
-21125.84736718303
 20
1583.0
 30
0.0
 11
-21125.84736718303
 21
-717.0000000000002
 31
0.0
  0
LINE
  5
161
330
1C4
100
AcDbEntity
  8
0
100
AcDbLine
 10
-21125.84736718303
 20
-717.0000000000002
 30
0.0
 11
-21098.84736718303
 21
-717.0000000000002
 31
0.0
  0
LINE
  5
162
330
1C4
100
AcDbEntity
  8
0
100
AcDbLine
 10
-21125.84736718303
 20
1583.0
 30
0.0
 11
-21098.84736718303
 21
1583.0
 31
0.0
  0
INSERT
  5
163
330
1C4
100
AcDbEntity
  8
0
100
AcDbBlockReference
  2
tasseau
 10
-21125.84736718303
 20
-117.0000000000002
 30
0.0
  0
INSERT
  5
164
330
1C4
100
AcDbEntity
  8
0
100
AcDbBlockReference
  2
tasseau
 10
-21125.84736718303
 20
482.9999999999998
 30
0.0
  0
INSERT
  5
165
330
1C4
100
AcDbEntity
  8
0
100
AcDbBlockReference
  2
tasseau
 10
-21125.84736718303
 20
1083.0
 30
0.0
  0
LINE
  5
166
330
1C4
100
AcDbEntity
  8
0
100
AcDbLine
 10
-21152.84736718303
 20
-717.0000000000002
 30
0.0
 11
-21152.84736718303
 21
1128.0
 31
0.0
  0
LINE
  5
167
330
1C4
100
AcDbEntity
  8
0
100
AcDbLine
 10
-21172.84736718303
 20
-737.0000000000002
 30
0.0
 11
-21172.84736718303
 21
1183.0
 31
0.0
  0
LINE
  5
168
330
1C4
100
AcDbEntity
  8
larmier
100
AcDbLine
 10
-21063.84736718303
 20
-685.5406798738793
 30
0.0
 11
-21062.83660148472
 21
-717.0000000000002
 31
0.0
  0
LINE
  5
169
330
1C4
100
AcDbEntity
  8
larmier
100
AcDbLine
 10
-21062.83660148472
 20
-717.0000000000002
 30
0.0
 11
-21088.84736718303
 21
-717.0000000000002
 31
0.0
  0
LINE
  5
16A
330
1C4
100
AcDbEntity
  8
larmier
100
AcDbLine
 10
-21088.84736718303
 20
-717.0000000000002
 30
0.0
 11
-21153.79927246687
 21
-754.5000000000001
 31
0.0
  0
LINE
  5
16B
330
1C4
100
AcDbEntity
  8
larmier
100
AcDbLine
 10
-21153.79927246687
 20
-754.5000000000001
 30
0.0
 11
-21153.79927246687
 21
-780.6324865000003
 31
0.0
  0
LINE
  5
16C
330
1C4
100
AcDbEntity
  8
larmier
100
AcDbLine
 10
-21153.79927246687
 20
-780.6324865000003
 30
0.0
 11
-21148.84736718303
 21
-767.0000000000002
 31
0.0
  0
LINE
  5
16D
330
1C4
100
AcDbEntity
  8
ardoise
100
AcDbLine
 10
-21138.84736718303
 20
-763.4145445349429
 30
0.0
 11
-21172.02490812966
 21
-932.0000000000002
 31
0.0
  0
LINE
  5
16E
330
1C4
100
AcDbEntity
  8
ardoise
100
AcDbLine
 10
-21141.79090693026
 20
-762.8352572516952
 30
0.0
 11
-21174.96844787688
 21
-931.4207127167525
 31
0.0
  0
LINE
  5
16F
330
1C4
100
AcDbEntity
  8
ardoise
100
AcDbLine
 10
-21174.96844787688
 20
-931.4207127167525
 30
0.0
 11
-21172.02490812966
 21
-932.0000000000002
 31
0.0
  0
LINE
  5
170
330
1C4
100
AcDbEntity
  8
ardoise
100
AcDbLine
 10
-21141.79090693026
 20
-762.8352572516952
 30
0.0
 11
-21138.84736718303
 21
-763.4145445349429
 31
0.0
  0
LINE
  5
171
330
1C4
100
AcDbEntity
  8
0
100
AcDbLine
 10
-21172.84736718303
 20
-737.0000000000002
 30
0.0
 11
-21152.84736718303
 21
-717.0000000000002
 31
0.0
  0
INSERT
  5
172
330
1C4
100
AcDbEntity
  8
0
100
AcDbBlockReference
  2
tasseau_plan
 10
-20245.79554744626
 20
-2179.999999999999
 30
0.0
  0
INSERT
  5
173
330
1C4
100
AcDbEntity
  8
0
100
AcDbBlockReference
  2
tasseau_plan
 10
-19645.79554744626
 20
-2179.999999999999
 30
0.0
  0
INSERT
  5
174
330
1C4
100
AcDbEntity
  8
0
100
AcDbBlockReference
  2
tasseau_plan
 10
-19045.79554744626
 20
-2179.999999999999
 30
0.0
  0
INSERT
  5
175
330
1C4
100
AcDbEntity
  8
0
100
AcDbBlockReference
  2
tasseau_plan
 10
-18445.79554744626
 20
-2179.999999999999
 30
0.0
  0
INSERT
  5
176
330
1C4
100
AcDbEntity
  8
0
100
AcDbBlockReference
  2
tasseau_plan
 10
-17845.79554744626
 20
-2179.999999999999
 30
0.0
  0
INSERT
  5
177
330
1C4
100
AcDbEntity
  8
0
100
AcDbBlockReference
  2
tasseau_plan
 10
-17245.79554744626
 20
-2179.999999999999
 30
0.0
  0
INSERT
  5
178
330
1C4
100
AcDbEntity
  8
0
100
AcDbBlockReference
  2
tasseau_plan
 10
-16645.79554744626
 20
-2179.999999999999
 30
0.0
  0
INSERT
  5
179
330
1C4
100
AcDbEntity
  8
0
100
AcDbBlockReference
  2
tasseau_plan
 10
-16045.79554744626
 20
-2179.999999999999
 30
0.0
  0
INSERT
  5
17A
330
1C4
100
AcDbEntity
  8
0
100
AcDbBlockReference
  2
tasseau_plan
 10
-15445.79554744626
 20
-2179.999999999999
 30
0.0
  0
INSERT
  5
17B
330
1C4
100
AcDbEntity
  8
0
100
AcDbBlockReference
  2
tasseau_plan
 10
-14845.79554744626
 20
-2179.999999999999
 30
0.0
  0
INSERT
  5
17C
330
1C4
100
AcDbEntity
  8
0
100
AcDbBlockReference
  2
tasseau_plan
 10
-14245.79554744626
 20
-2179.999999999999
 30
0.0
  0
INSERT
  5
17D
330
1C4
100
AcDbEntity
  8
0
100
AcDbBlockReference
  2
tasseau_plan
 10
-13645.79554744626
 20
-2179.999999999999
 30
0.0
  0
INSERT
  5
17E
330
1C4
100
AcDbEntity
  8
0
100
AcDbBlockReference
  2
tasseau_plan
 10
-13045.79554744626
 20
-2179.999999999999
 30
0.0
  0
INSERT
  5
17F
330
1C4
100
AcDbEntity
  8
0
100
AcDbBlockReference
  2
tasseau_plan
 10
-12445.79554744626
 20
-2179.999999999999
 30
0.0
  0
INSERT
  5
180
330
1C4
100
AcDbEntity
  8
0
100
AcDbBlockReference
  2
tasseau_plan
 10
-11845.79554744626
 20
-2179.999999999999
 30
0.0
  0
INSERT
  5
181
330
1C4
100
AcDbEntity
  8
0
100
AcDbBlockReference
  2
tasseau_plan
 10
-11245.79554744626
 20
-2179.999999999999
 30
0.0
  0
INSERT
  5
182
330
1C4
100
AcDbEntity
  8
0
100
AcDbBlockReference
  2
tasseau_plan
 10
-10645.79554744626
 20
-2179.999999999999
 30
0.0
  0
INSERT
  5
183
330
1C4
100
AcDbEntity
  8
0
100
AcDbBlockReference
  2
tasseau_plan
 10
-10045.79554744626
 20
-2179.999999999999
 30
0.0
  0
INSERT
  5
184
330
1C4
100
AcDbEntity
  8
0
100
AcDbBlockReference
  2
tasseau_plan
 10
-9445.795547446258
 20
-2179.999999999999
 30
0.0
  0
INSERT
  5
185
330
1C4
100
AcDbEntity
  8
0
100
AcDbBlockReference
  2
tasseau_plan
 10
-8845.795547446258
 20
-2179.999999999999
 30
0.0
  0
INSERT
  5
186
330
1C4
100
AcDbEntity
  8
0
100
AcDbBlockReference
  2
tasseau_plan
 10
-8245.795547446258
 20
-2179.999999999999
 30
0.0
  0
INSERT
  5
187
330
1C4
100
AcDbEntity
  8
0
100
AcDbBlockReference
  2
tasseau_plan
 10
-7645.795547446258
 20
-2179.999999999999
 30
0.0
  0
INSERT
  5
188
330
1C4
100
AcDbEntity
  8
0
100
AcDbBlockReference
  2
tasseau_plan
 10
-7045.795547446258
 20
-2179.999999999999
 30
0.0
  0
INSERT
  5
189
330
1C4
100
AcDbEntity
  8
0
100
AcDbBlockReference
  2
tasseau_plan
 10
-6445.795547446258
 20
-2179.999999999999
 30
0.0
  0
INSERT
  5
18A
330
1C4
100
AcDbEntity
  8
0
100
AcDbBlockReference
  2
tasseau_plan
 10
-5845.795547446258
 20
-2179.999999999999
 30
0.0
  0
INSERT
  5
18B
330
1C4
100
AcDbEntity
  8
0
100
AcDbBlockReference
  2
tasseau_plan
 10
-5245.795547446258
 20
-2179.999999999999
 30
0.0
  0
INSERT
  5
18C
330
1C4
100
AcDbEntity
  8
0
100
AcDbBlockReference
  2
tasseau_plan
 10
-4645.795547446258
 20
-2179.999999999999
 30
0.0
  0
INSERT
  5
18D
330
1C4
100
AcDbEntity
  8
0
100
AcDbBlockReference
  2
tasseau_plan
 10
-4045.795547446258
 20
-2179.999999999999
 30
0.0
  0
INSERT
  5
18E
330
1C4
100
AcDbEntity
  8
0
100
AcDbBlockReference
  2
tasseau_plan
 10
-3445.795547446258
 20
-2179.999999999999
 30
0.0
  0
INSERT
  5
18F
330
1C4
100
AcDbEntity
  8
0
100
AcDbBlockReference
  2
tasseau_plan
 10
-2845.795547446258
 20
-2179.999999999999
 30
0.0
  0
LINE
  5
1A5
330
1C4
100
AcDbEntity
  8
Madrier
  6
ACAD_ISO02W100
100
AcDbLine
 10
-20200.79554744627
 20
-2000.0
 30
0.0
 11
-20245.79554744627
 21
-2000.0
 31
0.0
  0
ENDSEC
  0
SECTION
  2
OBJECTS
  0
DICTIONARY
  5
1B2
330
0
100
AcDbDictionary
281
     1
  3
ACAD_DETAILVIEWSTYLE
350
2F7
  3
ACAD_GROUP
350
1B3
  3
ACAD_LAYOUT
350
1BF
  3
ACAD_MATERIAL
350
1E8
  3
ACAD_MLEADERSTYLE
350
210
  3
ACAD_MLINESTYLE
350
1BC
  3
ACAD_PLOTSETTINGS
350
1BE
  3
ACAD_PLOTSTYLENAME
350
1B4
  3
ACAD_SCALELIST
350
1EC
  3
ACAD_SECTIONVIEWSTYLE
350
2F8
  3
ACAD_TABLESTYLE
350
20E
  3
ACAD_VISUALSTYLE
350
1CF
  3
ACDB_RECOMPOSE_DATA
350
2F4
  3
AcDbVariableDictionary
350
2F0
  3
QCAD_OBJECTS
350
214
  0
SUN
  5
212
330
1CE
100
AcDbSun
 90
        1
290
     0
 63
     7
421
 16777215
 40
1.0
291
     1
 91
  2455826
 92
 54000000
292
     0
 70
     2
 71
   256
280
     1
  0
DICTIONARY
  5
2F7
102
{ACAD_REACTORS
330
1B2
102
}
330
1B2
100
AcDbDictionary
281
     1
  0
DICTIONARY
  5
1B3
102
{ACAD_REACTORS
330
1B2
102
}
330
1B2
100
AcDbDictionary
281
     1
  0
DICTIONARY
  5
1BF
102
{ACAD_REACTORS
330
1B2
102
}
330
1B2
100
AcDbDictionary
281
     1
  3
Layout1
350
1C3
  3
Layout2
350
1CB
  3
Model
350
1C7
  0
DICTIONARY
  5
1E8
102
{ACAD_REACTORS
330
1B2
102
}
330
1B2
100
AcDbDictionary
281
     1
  3
ByBlock
350
1EA
  3
ByLayer
350
1E9
  3
Global
350
1EB
  0
DICTIONARY
  5
210
102
{ACAD_REACTORS
330
1B2
102
}
330
1B2
100
AcDbDictionary
281
     1
  3
Standard
350
211
  0
DICTIONARY
  5
1BC
102
{ACAD_REACTORS
330
1B2
102
}
330
1B2
100
AcDbDictionary
281
     1
  3
Standard
350
1BD
  0
DICTIONARY
  5
1BE
102
{ACAD_REACTORS
330
1B2
102
}
330
1B2
100
AcDbDictionary
281
     1
  0
ACDBDICTIONARYWDFLT
  5
1B4
102
{ACAD_REACTORS
330
1B2
102
}
330
1B2
100
AcDbDictionary
281
     1
  3
Normal
350
1B5
100
AcDbDictionaryWithDefault
340
1B5
  0
DICTIONARY
  5
1EC
102
{ACAD_REACTORS
330
1B2
102
}
330
1B2
100
AcDbDictionary
281
     1
  3
A0
350
1ED
  3
A1
350
1EE
  3
A2
350
1EF
  3
A3
350
1F0
  3
A4
350
1F1
  3
A5
350
1F2
  3
A6
350
1F3
  3
A7
350
1F4
  3
A8
350
1F5
  3
A9
350
1F6
  3
B0
350
1F7
  3
B1
350
1F8
  3
B2
350
1F9
  3
B3
350
1FA
  3
B4
350
1FB
  3
B5
350
1FC
  3
B6
350
1FD
  3
B7
350
1FE
  3
B8
350
1FF
  3
B9
350
200
  3
C0
350
201
  3
C1
350
202
  3
C2
350
203
  3
C3
350
204
  3
C4
350
205
  3
C5
350
206
  3
C6
350
207
  3
C7
350
208
  3
C8
350
209
  3
C9
350
20A
  3
D0
350
20B
  3
D1
350
20C
  3
D2
350
20D
  0
DICTIONARY
  5
2F8
102
{ACAD_REACTORS
330
1B2
102
}
330
1B2
100
AcDbDictionary
281
     1
  0
DICTIONARY
  5
20E
102
{ACAD_REACTORS
330
1B2
102
}
330
1B2
100
AcDbDictionary
281
     1
  3
Standard
350
20F
  0
DICTIONARY
  5
1CF
102
{ACAD_REACTORS
330
1B2
102
}
330
1B2
100
AcDbDictionary
281
     1
  3
2dWireframe
350
1D4
  3
Basic
350
1D7
  3
Brighten
350
1DB
  3
ColorChange
350
1DF
  3
Conceptual
350
1D9
  3
Dim
350
1DA
  3
EdgeColorOff
350
1E2
  3
Facepattern
350
1DE
  3
Flat
350
1D0
  3
FlatWithEdges
350
1D1
  3
Gouraud
350
1D2
  3
GouraudWithEdges
350
1D3
  3
Hidden
350
1D6
  3
JitterOff
350
1E0
  3
Linepattern
350
1DD
  3
OverhangOff
350
1E1
  3
Realistic
350
1D8
  3
Shaded
350
1E7
  3
Shaded with edges
350
1E6
  3
Shades of Gray
350
1E3
  3
Sketchy
350
1E4
  3
Thicken
350
1DC
  3
Wireframe
350
1D5
  3
X-Ray
350
1E5
  0
XRECORD
  5
2F4
102
{ACAD_REACTORS
330
1B2
102
}
330
1B2
100
AcDbXrecord
280
     1
 90
        1
330
20F
  0
DICTIONARY
  5
2F0
102
{ACAD_REACTORS
330
1B2
102
}
330
1B2
100
AcDbDictionary
281
     1
  3
CANNOSCALE
350
2F1
  3
CMLEADERSTYLE
350
2F6
  3
CTABLESTYLE
350
2F5
  0
DICTIONARY
  5
214
102
{ACAD_REACTORS
330
1B2
102
}
330
1B2
100
AcDbDictionary
281
     1
  3
DimensionSettings/AngularFormat
350
216
  3
DimensionSettings/AngularPrecision
350
217
  3
DimensionSettings/DimensionFont
350
218
  3
DimensionSettings/KeepProportions
350
219
  3
DimensionSettings/LinearFormat
350
21A
  3
DimensionSettings/LinearPrecision
350
21B
  3
Grid/DisplayGrid00
350
21C
  3
Grid/DisplayGrid01
350
21D
  3
Grid/DisplayGrid02
350
21E
  3
Grid/DisplayGrid03
350
21F
  3
Grid/GridSpacingX00
350
220
  3
Grid/GridSpacingX01
350
221
  3
Grid/GridSpacingX02
350
222
  3
Grid/GridSpacingX03
350
223
  3
Grid/GridSpacingY00
350
224
  3
Grid/GridSpacingY01
350
225
  3
Grid/GridSpacingY02
350
226
  3
Grid/GridSpacingY03
350
227
  3
Grid/IsometricGrid00
350
228
  3
Grid/IsometricGrid01
350
229
  3
Grid/IsometricGrid02
350
22A
  3
Grid/IsometricGrid03
350
22B
  3
Grid/IsometricProjection00
350
22C
  3
Grid/IsometricProjection01
350
22D
  3
Grid/IsometricProjection02
350
22E
  3
Grid/IsometricProjection03
350
22F
  3
Grid/MetaGridSpacingX00
350
230
  3
Grid/MetaGridSpacingX01
350
231
  3
Grid/MetaGridSpacingX02
350
232
  3
Grid/MetaGridSpacingX03
350
233
  3
Grid/MetaGridSpacingY00
350
234
  3
Grid/MetaGridSpacingY01
350
235
  3
Grid/MetaGridSpacingY02
350
236
  3
Grid/MetaGridSpacingY03
350
237
  3
MultiPageSettings/Columns
350
238
  3
MultiPageSettings/GlueMarginsBottom
350
239
  3
MultiPageSettings/GlueMarginsLeft
350
23A
  3
MultiPageSettings/GlueMarginsRight
350
23B
  3
MultiPageSettings/GlueMarginsTop
350
23C
  3
MultiPageSettings/PrintCropMarks
350
23D
  3
MultiPageSettings/Rows
350
23E
  3
PageSettings/OffsetX
350
23F
  3
PageSettings/OffsetY
350
240
  3
PageSettings/PageOrientation
350
241
  3
PageSettings/PaperHeight
350
242
  3
PageSettings/PaperWidth
350
243
  3
PageSettings/Scale
350
244
  3
PageSettings/ShowPaperBorders
350
245
  3
QCADVersion
350
215
  3
UnitSettings/PaperUnit
350
246
  0
LAYOUT
  5
1C3
102
{ACAD_REACTORS
330
1BF
102
}
330
1BF
100
AcDbPlotSettings
  1

  2
none_device
  4

  6

 40
0.0
 41
0.0
 42
0.0
 43
0.0
 44
0.0
 45
0.0
 46
0.0
 47
0.0
 48
0.0
 49
0.0
140
0.0
141
0.0
142
1.0
143
1.0
 70
   688
 72
     0
 73
     0
 74
     5
  7

 75
    16
 76
     0
 77
     2
 78
   300
147
1.0
148
0.0
149
0.0
100
AcDbLayout
  1
Layout1
 70
     1
 71
     1
 10
0.0
 20
0.0
 11
12.0
 21
9.0
 12
0.0
 22
0.0
 32
0.0
 14
1.000000000000000E+20
 24
1.000000000000000E+20
 34
1.000000000000000E+20
 15
-1.000000000000000E+20
 25
-1.000000000000000E+20
 35
-1.000000000000000E+20
146
0.0
 13
0.0
 23
0.0
 33
0.0
 16
1.0
 26
0.0
 36
0.0
 17
0.0
 27
1.0
 37
0.0
 76
     0
330
1C0
  0
LAYOUT
  5
1CB
102
{ACAD_REACTORS
330
1BF
102
}
330
1BF
100
AcDbPlotSettings
  1

  2
none_device
  4

  6

 40
0.0
 41
0.0
 42
0.0
 43
0.0
 44
0.0
 45
0.0
 46
0.0
 47
0.0
 48
0.0
 49
0.0
140
0.0
141
0.0
142
1.0
143
1.0
 70
   688
 72
     0
 73
     0
 74
     5
  7

 75
    16
 76
     0
 77
     2
 78
   300
147
1.0
148
0.0
149
0.0
100
AcDbLayout
  1
Layout2
 70
     1
 71
     2
 10
0.0
 20
0.0
 11
0.0
 21
0.0
 12
0.0
 22
0.0
 32
0.0
 14
0.0
 24
0.0
 34
0.0
 15
0.0
 25
0.0
 35
0.0
146
0.0
 13
0.0
 23
0.0
 33
0.0
 16
1.0
 26
0.0
 36
0.0
 17
0.0
 27
1.0
 37
0.0
 76
     0
330
1C8
  0
LAYOUT
  5
1C7
102
{ACAD_REACTORS
330
1BF
102
}
330
1BF
100
AcDbPlotSettings
  1

  2
none_device
  4
Letter_(8.50_x_11.00_Inches)
  6

 40
6.35
 41
6.35
 42
6.35000508
 43
6.35000508
 44
215.9
 45
279.4
 46
0.0
 47
0.0
 48
0.0
 49
0.0
140
0.0
141
0.0
142
1.0
143
1.0
 70
  1712
 72
     0
 73
     0
 74
     0
  7

 75
     0
 76
     0
 77
     2
 78
   300
147
1.0
148
0.0
149
0.0
100
AcDbLayout
  1
Model
 70
     1
 71
     0
 10
0.0
 20
0.0
 11
12.0
 21
9.0
 12
0.0
 22
0.0
 32
0.0
 14
1.000000000000000E+20
 24
1.000000000000000E+20
 34
1.000000000000000E+20
 15
-1.000000000000000E+20
 25
-1.000000000000000E+20
 35
-1.000000000000000E+20
146
0.0
 13
0.0
 23
0.0
 33
0.0
 16
1.0
 26
0.0
 36
0.0
 17
0.0
 27
1.0
 37
0.0
 76
     0
330
1C4
331
1CE
  0
MATERIAL
  5
1EA
102
{ACAD_REACTORS
330
1E8
102
}
330
1E8
100
AcDbMaterial
  1
ByBlock
 72
     1
 94
      127
  0
MATERIAL
  5
1E9
102
{ACAD_REACTORS
330
1E8
102
}
330
1E8
100
AcDbMaterial
  1
ByLayer
 72
     1
 94
      127
  0
MATERIAL
  5
1EB
102
{ACAD_REACTORS
330
1E8
102
}
330
1E8
100
AcDbMaterial
  1
Global
 72
     1
 94
      127
  0
MLEADERSTYLE
  5
211
102
{ACAD_REACTORS
330
210
102
}
330
210
100
AcDbMLeaderStyle
179
     2
170
     2
171
     1
172
     0
 90
        2
 40
0.0
 41
0.0
173
     1
 91
-1056964608
340
1B9
 92
       -2
290
     1
 42
0.09
291
     1
 43
0.36
  3
Standard
341
0
 44
0.18
300

342
1B7
174
     1
178
     6
175
     1
176
     0
 93
-1056964608
 45
0.18
292
     0
297
     0
 46
0.18
343
0
 94
-1056964608
 47
1.0
 49
1.0
140
1.0
293
     1
141
0.0
294
     1
177
     0
142
1.0
295
     0
296
     0
143
0.125
271
     0
272
     9
273
     9
298
     0
  0
MLINESTYLE
  5
1BD
102
{ACAD_REACTORS
330
1BC
102
}
330
1BC
100
AcDbMlineStyle
  2
Standard
 70
     0
  3

 62
   256
 51
90.0
 52
90.0
 71
     2
 49
0.5
 62
   256
  6
BYLAYER
 49
-0.5
 62
   256
  6
BYLAYER
  0
ACDBPLACEHOLDER
  5
1B5
102
{ACAD_REACTORS
330
1B4
102
}
330
1B4
  0
SCALE
  5
1ED
102
{ACAD_REACTORS
330
1EC
102
}
330
1EC
100
AcDbScale
 70
     0
300
1:1
140
1.0
141
1.0
290
     1
  0
SCALE
  5
1EE
102
{ACAD_REACTORS
330
1EC
102
}
330
1EC
100
AcDbScale
 70
     0
300
1:2
140
1.0
141
2.0
290
     0
  0
SCALE
  5
1EF
102
{ACAD_REACTORS
330
1EC
102
}
330
1EC
100
AcDbScale
 70
     0
300
1:4
140
1.0
141
4.0
290
     0
  0
SCALE
  5
1F0
102
{ACAD_REACTORS
330
1EC
102
}
330
1EC
100
AcDbScale
 70
     0
300
1:5
140
1.0
141
5.0
290
     0
  0
SCALE
  5
1F1
102
{ACAD_REACTORS
330
1EC
102
}
330
1EC
100
AcDbScale
 70
     0
300
1:8
140
1.0
141
8.0
290
     0
  0
SCALE
  5
1F2
102
{ACAD_REACTORS
330
1EC
102
}
330
1EC
100
AcDbScale
 70
     0
300
1:10
140
1.0
141
10.0
290
     0
  0
SCALE
  5
1F3
102
{ACAD_REACTORS
330
1EC
102
}
330
1EC
100
AcDbScale
 70
     0
300
1:16
140
1.0
141
16.0
290
     0
  0
SCALE
  5
1F4
102
{ACAD_REACTORS
330
1EC
102
}
330
1EC
100
AcDbScale
 70
     0
300
1:20
140
1.0
141
20.0
290
     0
  0
SCALE
  5
1F5
102
{ACAD_REACTORS
330
1EC
102
}
330
1EC
100
AcDbScale
 70
     0
300
1:30
140
1.0
141
30.0
290
     0
  0
SCALE
  5
1F6
102
{ACAD_REACTORS
330
1EC
102
}
330
1EC
100
AcDbScale
 70
     0
300
1:40
140
1.0
141
40.0
290
     0
  0
SCALE
  5
1F7
102
{ACAD_REACTORS
330
1EC
102
}
330
1EC
100
AcDbScale
 70
     0
300
1:50
140
1.0
141
50.0
290
     0
  0
SCALE
  5
1F8
102
{ACAD_REACTORS
330
1EC
102
}
330
1EC
100
AcDbScale
 70
     0
300
1:100
140
1.0
141
100.0
290
     0
  0
SCALE
  5
1F9
102
{ACAD_REACTORS
330
1EC
102
}
330
1EC
100
AcDbScale
 70
     0
300
2:1
140
2.0
141
1.0
290
     0
  0
SCALE
  5
1FA
102
{ACAD_REACTORS
330
1EC
102
}
330
1EC
100
AcDbScale
 70
     0
300
4:1
140
4.0
141
1.0
290
     0
  0
SCALE
  5
1FB
102
{ACAD_REACTORS
330
1EC
102
}
330
1EC
100
AcDbScale
 70
     0
300
8:1
140
8.0
141
1.0
290
     0
  0
SCALE
  5
1FC
102
{ACAD_REACTORS
330
1EC
102
}
330
1EC
100
AcDbScale
 70
     0
300
10:1
140
10.0
141
1.0
290
     0
  0
SCALE
  5
1FD
102
{ACAD_REACTORS
330
1EC
102
}
330
1EC
100
AcDbScale
 70
     0
300
100:1
140
100.0
141
1.0
290
     0
  0
SCALE
  5
1FE
102
{ACAD_REACTORS
330
1EC
102
}
330
1EC
100
AcDbScale
 70
     0
300
1/128" = 1'-0"
140
0.0078125
141
12.0
290
     0
  0
SCALE
  5
1FF
102
{ACAD_REACTORS
330
1EC
102
}
330
1EC
100
AcDbScale
 70
     0
300
1/64" = 1'-0"
140
0.015625
141
12.0
290
     0
  0
SCALE
  5
200
102
{ACAD_REACTORS
330
1EC
102
}
330
1EC
100
AcDbScale
 70
     0
300
1/32" = 1'-0"
140
0.03125
141
12.0
290
     0
  0
SCALE
  5
201
102
{ACAD_REACTORS
330
1EC
102
}
330
1EC
100
AcDbScale
 70
     0
300
1/16" = 1'-0"
140
0.0625
141
12.0
290
     0
  0
SCALE
  5
202
102
{ACAD_REACTORS
330
1EC
102
}
330
1EC
100
AcDbScale
 70
     0
300
3/32" = 1'-0"
140
0.09375
141
12.0
290
     0
  0
SCALE
  5
203
102
{ACAD_REACTORS
330
1EC
102
}
330
1EC
100
AcDbScale
 70
     0
300
1/8" = 1'-0"
140
0.125
141
12.0
290
     0
  0
SCALE
  5
204
102
{ACAD_REACTORS
330
1EC
102
}
330
1EC
100
AcDbScale
 70
     0
300
3/16" = 1'-0"
140
0.1875
141
12.0
290
     0
  0
SCALE
  5
205
102
{ACAD_REACTORS
330
1EC
102
}
330
1EC
100
AcDbScale
 70
     0
300
1/4" = 1'-0"
140
0.25
141
12.0
290
     0
  0
SCALE
  5
206
102
{ACAD_REACTORS
330
1EC
102
}
330
1EC
100
AcDbScale
 70
     0
300
3/8" = 1'-0"
140
0.375
141
12.0
290
     0
  0
SCALE
  5
207
102
{ACAD_REACTORS
330
1EC
102
}
330
1EC
100
AcDbScale
 70
     0
300
1/2" = 1'-0"
140
0.5
141
12.0
290
     0
  0
SCALE
  5
208
102
{ACAD_REACTORS
330
1EC
102
}
330
1EC
100
AcDbScale
 70
     0
300
3/4" = 1'-0"
140
0.75
141
12.0
290
     0
  0
SCALE
  5
209
102
{ACAD_REACTORS
330
1EC
102
}
330
1EC
100
AcDbScale
 70
     0
300
1" = 1'-0"
140
1.0
141
12.0
290
     0
  0
SCALE
  5
20A
102
{ACAD_REACTORS
330
1EC
102
}
330
1EC
100
AcDbScale
 70
     0
300
1-1/2" = 1'-0"
140
1.5
141
12.0
290
     0
  0
SCALE
  5
20B
102
{ACAD_REACTORS
330
1EC
102
}
330
1EC
100
AcDbScale
 70
     0
300
3" = 1'-0"
140
3.0
141
12.0
290
     0
  0
SCALE
  5
20C
102
{ACAD_REACTORS
330
1EC
102
}
330
1EC
100
AcDbScale
 70
     0
300
6" = 1'-0"
140
6.0
141
12.0
290
     0
  0
SCALE
  5
20D
102
{ACAD_REACTORS
330
1EC
102
}
330
1EC
100
AcDbScale
 70
     0
300
1'-0" = 1'-0"
140
12.0
141
12.0
290
     0
  0
TABLESTYLE
  5
20F
102
{ACAD_REACTORS
330
20E
102
}
102
{ACAD_XDICTIONARY
360
2F2
102
}
330
20E
100
AcDbTableStyle
  3
Standard
 70
     0
 71
     0
 40
0.06
 41
0.06
280
     0
281
     0
  7
Standard
140
0.18
170
     2
 62
     0
 63
   257
283
     0
 90
        4
 91
        0
  1

274
    -2
284
     1
 64
     0
275
    -2
285
     1
 65
     0
276
    -2
286
     1
 66
     0
277
    -2
287
     1
 67
     0
278
    -2
288
     1
 68
     0
279
    -2
289
     1
 69
     0
  7
Standard
140
0.25
170
     5
 62
     0
 63
   257
283
     0
 90
        4
 91
        0
  1

274
    -2
284
     1
 64
     0
275
    -2
285
     1
 65
     0
276
    -2
286
     1
 66
     0
277
    -2
287
     1
 67
     0
278
    -2
288
     1
 68
     0
279
    -2
289
     1
 69
     0
  7
Standard
140
0.18
170
     5
 62
     0
 63
   257
283
     0
 90
        4
 91
        0
  1

274
    -2
284
     1
 64
     0
275
    -2
285
     1
 65
     0
276
    -2
286
     1
 66
     0
277
    -2
287
     1
 67
     0
278
    -2
288
     1
 68
     0
279
    -2
289
     1
 69
     0
  0
VISUALSTYLE
  5
1D4
102
{ACAD_REACTORS
330
1CF
102
}
330
1CF
100
AcDbVisualStyle
  2
2dWireframe
 70
     4
177
     3
291
     0
 70
    58
 90
        0
176
     1
 90
        2
176
     1
 90
        0
176
     1
 90
        0
176
     1
 40
0.6
176
     1
 40
30.0
176
     1
 62
     7
420
 16777215
176
     1
 90
        1
176
     1
 90
        4
176
     1
 62
     7
176
     1
 62
   257
176
     1
 90
        1
176
     1
 90
        1
176
     1
 40
1.0
176
     1
 90
        0
176
     1
 62
   257
176
     1
 40
1.0
176
     1
 90
        1
176
     1
 90
        6
176
     1
 90
        2
176
     1
 62
     7
176
     1
 90
        5
176
     1
 90
        0
176
     1
 90
        0
176
     1
290
     0
176
     1
 90
        1
176
     1
 40
0.0
176
     1
 90
        0
176
     1
290
     1
176
     1
290
     1
176
     1
290
     0
176
     1
290
     0
176
     1
290
     0
176
     1
290
     0
176
     1
290
     0
176
     1
290
     0
176
     1
290
     0
176
     1
 90
       50
176
     1
 40
0.0
176
     1
 40
1.0
176
     1
 90
        0
176
     1
 62
   178
420
        0
176
     1
 90
       50
176
     1
 90
        3
176
     1
 62
     5
420
      255
176
     1
290
     0
176
     1
 90
       50
176
     1
 90
       50
176
     1
 90
       50
176
     1
290
     0
176
     1
 90
       50
176
     1
 62
   256
176
     0
 40
1.0
176
     0
 90
        2
176
     1
  1
strokes_ogs.tif
176
     1
290
     0
176
     1
 40
1.0
176
     1
 40
1.0
176
     1
  0
VISUALSTYLE
  5
1D7
102
{ACAD_REACTORS
330
1CF
102
}
330
1CF
100
AcDbVisualStyle
  2
Basic
 70
     7
177
     3
291
     1
 70
    58
 90
        1
176
     1
 90
        0
176
     1
 90
        1
176
     1
 90
        0
176
     1
 40
0.6
176
     1
 40
30.0
176
     1
 62
     7
420
 16777215
176
     1
 90
        0
176
     1
 90
        4
176
     1
 62
     7
176
     1
 62
   257
176
     1
 90
        1
176
     1
 90
        1
176
     1
 40
1.0
176
     1
 90
        8
176
     1
 62
     7
176
     1
 40
1.0
176
     1
 90
        1
176
     1
 90
        6
176
     1
 90
        2
176
     1
 62
     7
176
     1
 90
        5
176
     1
 90
        0
176
     1
 90
        0
176
     1
290
     0
176
     1
 90
        1
176
     1
 40
0.0
176
     1
 90
        0
176
     1
290
     0
176
     1
290
     1
176
     1
290
     1
176
     1
290
     0
176
     1
290
     0
176
     1
290
     0
176
     1
290
     0
176
     1
290
     0
176
     1
290
     0
176
     1
 90
       50
176
     1
 40
0.0
176
     1
 40
1.0
176
     1
 90
        0
176
     1
 62
   178
420
        0
176
     1
 90
       50
176
     1
 90
        3
176
     1
 62
     5
420
      255
176
     1
290
     0
176
     1
 90
       50
176
     1
 90
       50
176
     1
 90
       50
176
     1
290
     0
176
     1
 90
       50
176
     1
 62
   256
176
     0
 40
1.0
176
     0
 90
        2
176
     1
  1
strokes_ogs.tif
176
     1
290
     0
176
     1
 40
1.0
176
     1
 40
1.0
176
     1
  0
VISUALSTYLE
  5
1DB
102
{ACAD_REACTORS
330
1CF
102
}
330
1CF
100
AcDbVisualStyle
  2
Brighten
 70
    12
177
     3
291
     1
 70
    58
 90
        2
176
     1
 90
        2
176
     1
 90
        0
176
     1
 90
        0
176
     1
 40
0.6
176
     1
 40
30.0
176
     1
 62
     7
420
 16777215
176
     1
 90
        1
176
     1
 90
        4
176
     1
 62
     7
176
     1
 62
   257
176
     1
 90
        1
176
     1
 90
        1
176
     1
 40
1.0
176
     1
 90
        8
176
     1
 62
     7
176
     1
 40
1.0
176
     1
 90
        1
176
     1
 90
        6
176
     1
 90
        2
176
     1
 62
     7
176
     1
 90
        5
176
     1
 90
        0
176
     1
 90
        0
176
     1
290
     0
176
     1
 90
        1
176
     1
 40
50.0
176
     1
 90
        0
176
     1
290
     0
176
     1
290
     1
176
     1
290
     1
176
     1
290
     0
176
     1
290
     0
176
     1
290
     0
176
     1
290
     0
176
     1
290
     0
176
     1
290
     0
176
     1
 90
       50
176
     1
 40
0.0
176
     1
 40
1.0
176
     1
 90
        0
176
     1
 62
   178
420
        0
176
     1
 90
       50
176
     1
 90
        3
176
     1
 62
     5
420
      255
176
     1
290
     0
176
     1
 90
       50
176
     1
 90
       50
176
     1
 90
       50
176
     1
290
     0
176
     1
 90
       50
176
     1
 62
   256
176
     0
 40
1.0
176
     0
 90
        2
176
     1
  1
strokes_ogs.tif
176
     1
290
     0
176
     1
 40
1.0
176
     1
 40
1.0
176
     1
  0
VISUALSTYLE
  5
1DF
102
{ACAD_REACTORS
330
1CF
102
}
330
1CF
100
AcDbVisualStyle
  2
ColorChange
 70
    16
177
     3
291
     1
 70
    58
 90
        2
176
     1
 90
        2
176
     1
 90
        3
176
     1
 90
        0
176
     1
 40
0.6
176
     1
 40
30.0
176
     1
 62
     8
420
  8421504
176
     1
 90
        1
176
     1
 90
        4
176
     1
 62
     7
176
     1
 62
   257
176
     1
 90
        1
176
     1
 90
        1
176
     1
 40
1.0
176
     1
 90
        8
176
     1
 62
     8
420
  8421504
176
     1
 40
1.0
176
     1
 90
        1
176
     1
 90
        6
176
     1
 90
        2
176
     1
 62
     7
176
     1
 90
        5
176
     1
 90
        0
176
     1
 90
        0
176
     1
290
     0
176
     1
 90
        1
176
     1
 40
0.0
176
     1
 90
        0
176
     1
290
     0
176
     1
290
     1
176
     1
290
     1
176
     1
290
     0
176
     1
290
     0
176
     1
290
     0
176
     1
290
     0
176
     1
290
     0
176
     1
290
     0
176
     1
 90
       50
176
     1
 40
0.0
176
     1
 40
1.0
176
     1
 90
        0
176
     1
 62
   178
420
        0
176
     1
 90
       50
176
     1
 90
        3
176
     1
 62
     5
420
      255
176
     1
290
     0
176
     1
 90
       50
176
     1
 90
       50
176
     1
 90
       50
176
     1
290
     0
176
     1
 90
       50
176
     1
 62
   256
176
     0
 40
1.0
176
     0
 90
        2
176
     1
  1
strokes_ogs.tif
176
     1
290
     0
176
     1
 40
1.0
176
     1
 40
1.0
176
     1
  0
VISUALSTYLE
  5
1D9
102
{ACAD_REACTORS
330
1CF
102
}
330
1CF
100
AcDbVisualStyle
  2
Conceptual
 70
     9
177
     3
291
     0
 70
    58
 90
        3
176
     1
 90
        2
176
     1
 90
        0
176
     1
 90
        0
176
     1
 40
0.6
176
     1
 40
30.0
176
     1
 62
     7
420
 16777215
176
     1
 90
        2
176
     1
 90
        2
176
     1
 62
     7
176
     1
 62
   257
176
     1
 90
        1
176
     1
 90
        1
176
     1
 40
179.0
176
     1
 90
        8
176
     1
 62
     7
176
     1
 40
1.0
176
     1
 90
        1
176
     1
 90
        6
176
     1
 90
        2
176
     1
 62
     7
176
     1
 90
        3
176
     1
 90
        0
176
     1
 90
        0
176
     1
290
     0
176
     1
 90
        1
176
     1
 40
0.0
176
     1
 90
        0
176
     1
290
     0
176
     1
290
     1
176
     1
290
     1
176
     1
290
     0
176
     1
290
     0
176
     1
290
     0
176
     1
290
     0
176
     1
290
     0
176
     1
290
     0
176
     1
 90
       50
176
     1
 40
0.0
176
     1
 40
1.0
176
     1
 90
        0
176
     1
 62
   178
420
        0
176
     1
 90
       50
176
     1
 90
        3
176
     1
 62
     5
420
      255
176
     1
290
     0
176
     1
 90
       50
176
     1
 90
       50
176
     1
 90
       50
176
     1
290
     0
176
     1
 90
       50
176
     1
 62
   256
176
     0
 40
1.0
176
     0
 90
        2
176
     1
  1
strokes_ogs.tif
176
     1
290
     0
176
     1
 40
1.0
176
     1
 40
1.0
176
     1
  0
VISUALSTYLE
  5
1DA
102
{ACAD_REACTORS
330
1CF
102
}
330
1CF
100
AcDbVisualStyle
  2
Dim
 70
    11
177
     3
291
     1
 70
    58
 90
        2
176
     1
 90
        2
176
     1
 90
        0
176
     1
 90
        0
176
     1
 40
0.6
176
     1
 40
30.0
176
     1
 62
     7
420
 16777215
176
     1
 90
        1
176
     1
 90
        4
176
     1
 62
     7
176
     1
 62
   257
176
     1
 90
        1
176
     1
 90
        1
176
     1
 40
1.0
176
     1
 90
        8
176
     1
 62
     7
176
     1
 40
1.0
176
     1
 90
        1
176
     1
 90
        6
176
     1
 90
        2
176
     1
 62
     7
176
     1
 90
        5
176
     1
 90
        0
176
     1
 90
        0
176
     1
290
     0
176
     1
 90
        1
176
     1
 40
-50.0
176
     1
 90
        0
176
     1
290
     0
176
     1
290
     1
176
     1
290
     1
176
     1
290
     0
176
     1
290
     0
176
     1
290
     0
176
     1
290
     0
176
     1
290
     0
176
     1
290
     0
176
     1
 90
       50
176
     1
 40
0.0
176
     1
 40
1.0
176
     1
 90
        0
176
     1
 62
   178
420
        0
176
     1
 90
       50
176
     1
 90
        3
176
     1
 62
     5
420
      255
176
     1
290
     0
176
     1
 90
       50
176
     1
 90
       50
176
     1
 90
       50
176
     1
290
     0
176
     1
 90
       50
176
     1
 62
   256
176
     0
 40
1.0
176
     0
 90
        2
176
     1
  1
strokes_ogs.tif
176
     1
290
     0
176
     1
 40
1.0
176
     1
 40
1.0
176
     1
  0
VISUALSTYLE
  5
1E2
102
{ACAD_REACTORS
330
1CF
102
}
330
1CF
100
AcDbVisualStyle
  2
EdgeColorOff
 70
    22
177
     3
291
     1
 70
    58
 90
        2
176
     0
 90
        2
176
     0
 90
        0
176
     0
 90
        0
176
     0
 40
0.6
176
     0
 40
30.0
176
     0
 62
     7
420
 16777215
176
     0
 90
        1
176
     0
 90
        4
176
     0
 62
     7
176
     0
 62
   257
176
     0
 90
        1
176
     0
 90
        1
176
     0
 40
1.0
176
     0
 90
        8
176
     2
 62
     7
176
     0
 40
1.0
176
     0
 90
        1
176
     0
 90
        6
176
     0
 90
        2
176
     0
 62
     7
176
     0
 90
        5
176
     0
 90
        0
176
     0
 90
        0
176
     0
290
     0
176
     0
 90
        1
176
     0
 40
0.0
176
     0
 90
        0
176
     0
290
     0
176
     0
290
     1
176
     0
290
     1
176
     0
290
     0
176
     0
290
     0
176
     0
290
     0
176
     0
290
     0
176
     0
290
     0
176
     0
290
     0
176
     0
 90
       50
176
     0
 40
0.0
176
     0
 40
1.0
176
     0
 90
        0
176
     0
 62
   178
420
        0
176
     0
 90
       50
176
     0
 90
        3
176
     0
 62
     5
420
      255
176
     0
290
     0
176
     0
 90
       50
176
     0
 90
       50
176
     0
 90
       50
176
     0
290
     0
176
     0
 90
       50
176
     0
 62
   256
176
     0
 40
1.0
176
     0
 90
        2
176
     0
  1
strokes_ogs.tif
176
     0
290
     0
176
     0
 40
1.0
176
     0
 40
1.0
176
     0
  0
VISUALSTYLE
  5
1DE
102
{ACAD_REACTORS
330
1CF
102
}
330
1CF
100
AcDbVisualStyle
  2
Facepattern
 70
    15
177
     3
291
     1
 70
    58
 90
        2
176
     1
 90
        2
176
     1
 90
        0
176
     1
 90
        0
176
     1
 40
0.6
176
     1
 40
30.0
176
     1
 62
     7
420
 16777215
176
     1
 90
        1
176
     1
 90
        4
176
     1
 62
     7
176
     1
 62
   257
176
     1
 90
        1
176
     1
 90
        1
176
     1
 40
1.0
176
     1
 90
        8
176
     1
 62
     7
176
     1
 40
1.0
176
     1
 90
        1
176
     1
 90
        6
176
     1
 90
        2
176
     1
 62
     7
176
     1
 90
        5
176
     1
 90
        0
176
     1
 90
        0
176
     1
290
     0
176
     1
 90
        1
176
     1
 40
0.0
176
     1
 90
        0
176
     1
290
     0
176
     1
290
     1
176
     1
290
     1
176
     1
290
     0
176
     1
290
     0
176
     1
290
     0
176
     1
290
     0
176
     1
290
     0
176
     1
290
     0
176
     1
 90
       50
176
     1
 40
0.0
176
     1
 40
1.0
176
     1
 90
        0
176
     1
 62
   178
420
        0
176
     1
 90
       50
176
     1
 90
        3
176
     1
 62
     5
420
      255
176
     1
290
     0
176
     1
 90
       50
176
     1
 90
       50
176
     1
 90
       50
176
     1
290
     0
176
     1
 90
       50
176
     1
 62
   256
176
     0
 40
1.0
176
     0
 90
        2
176
     1
  1
strokes_ogs.tif
176
     1
290
     0
176
     1
 40
1.0
176
     1
 40
1.0
176
     1
  0
VISUALSTYLE
  5
1D0
102
{ACAD_REACTORS
330
1CF
102
}
330
1CF
100
AcDbVisualStyle
  2
Flat
 70
     0
177
     3
291
     1
 70
    58
 90
        2
176
     1
 90
        1
176
     1
 90
        1
176
     1
 90
        2
176
     1
 40
0.6
176
     1
 40
30.0
176
     1
 62
     7
420
 16777215
176
     1
 90
        0
176
     1
 90
        0
176
     1
 62
     7
176
     1
 62
   257
176
     1
 90
        1
176
     1
 90
        1
176
     1
 40
1.0
176
     1
 90
        8
176
     1
 62
     7
176
     1
 40
1.0
176
     1
 90
        1
176
     1
 90
        6
176
     1
 90
        2
176
     1
 62
     7
176
     1
 90
        5
176
     1
 90
        0
176
     1
 90
        0
176
     1
290
     0
176
     1
 90
       13
176
     1
 40
0.0
176
     1
 90
        0
176
     1
290
     0
176
     1
290
     1
176
     1
290
     1
176
     1
290
     0
176
     1
290
     0
176
     1
290
     0
176
     1
290
     0
176
     1
290
     0
176
     1
290
     0
176
     1
 90
       50
176
     1
 40
0.0
176
     1
 40
1.0
176
     1
 90
        0
176
     1
 62
   178
420
        0
176
     1
 90
       50
176
     1
 90
        3
176
     1
 62
     5
420
      255
176
     1
290
     0
176
     1
 90
       50
176
     1
 90
       50
176
     1
 90
       50
176
     1
290
     0
176
     1
 90
       50
176
     1
 62
   256
176
     0
 40
1.0
176
     0
 90
        2
176
     1
  1
strokes_ogs.tif
176
     1
290
     0
176
     1
 40
1.0
176
     1
 40
1.0
176
     1
  0
VISUALSTYLE
  5
1D1
102
{ACAD_REACTORS
330
1CF
102
}
330
1CF
100
AcDbVisualStyle
  2
FlatWithEdges
 70
     1
177
     3
291
     1
 70
    58
 90
        2
176
     1
 90
        1
176
     1
 90
        1
176
     1
 90
        2
176
     1
 40
0.6
176
     1
 40
30.0
176
     1
 62
     7
420
 16777215
176
     1
 90
        1
176
     1
 90
        0
176
     1
 62
     7
176
     1
 62
   257
176
     1
 90
        1
176
     1
 90
        1
176
     1
 40
1.0
176
     1
 90
        0
176
     1
 62
   257
176
     1
 40
1.0
176
     1
 90
        1
176
     1
 90
        6
176
     1
 90
        2
176
     1
 62
     7
176
     1
 90
        5
176
     1
 90
        0
176
     1
 90
        0
176
     1
290
     0
176
     1
 90
       13
176
     1
 40
0.0
176
     1
 90
        0
176
     1
290
     0
176
     1
290
     1
176
     1
290
     1
176
     1
290
     0
176
     1
290
     0
176
     1
290
     0
176
     1
290
     0
176
     1
290
     0
176
     1
290
     0
176
     1
 90
       50
176
     1
 40
0.0
176
     1
 40
1.0
176
     1
 90
        0
176
     1
 62
   178
420
        0
176
     1
 90
       50
176
     1
 90
        3
176
     1
 62
     5
420
      255
176
     1
290
     0
176
     1
 90
       50
176
     1
 90
       50
176
     1
 90
       50
176
     1
290
     0
176
     1
 90
       50
176
     1
 62
   256
176
     0
 40
1.0
176
     0
 90
        2
176
     1
  1
strokes_ogs.tif
176
     1
290
     0
176
     1
 40
1.0
176
     1
 40
1.0
176
     1
  0
VISUALSTYLE
  5
1D2
102
{ACAD_REACTORS
330
1CF
102
}
330
1CF
100
AcDbVisualStyle
  2
Gouraud
 70
     2
177
     3
291
     1
 70
    58
 90
        2
176
     1
 90
        2
176
     1
 90
        1
176
     1
 90
        2
176
     1
 40
0.6
176
     1
 40
30.0
176
     1
 62
     7
420
 16777215
176
     1
 90
        0
176
     1
 90
        0
176
     1
 62
     7
176
     1
 62
   257
176
     1
 90
        1
176
     1
 90
        1
176
     1
 40
1.0
176
     1
 90
        0
176
     1
 62
     7
176
     1
 40
1.0
176
     1
 90
        1
176
     1
 90
        6
176
     1
 90
        2
176
     1
 62
     7
176
     1
 90
        5
176
     1
 90
        0
176
     1
 90
        0
176
     1
290
     0
176
     1
 90
       13
176
     1
 40
0.0
176
     1
 90
        0
176
     1
290
     0
176
     1
290
     1
176
     1
290
     1
176
     1
290
     0
176
     1
290
     0
176
     1
290
     0
176
     1
290
     0
176
     1
290
     0
176
     1
290
     0
176
     1
 90
       50
176
     1
 40
0.0
176
     1
 40
1.0
176
     1
 90
        0
176
     1
 62
   178
420
        0
176
     1
 90
       50
176
     1
 90
        3
176
     1
 62
     5
420
      255
176
     1
290
     0
176
     1
 90
       50
176
     1
 90
       50
176
     1
 90
       50
176
     1
290
     0
176
     1
 90
       50
176
     1
 62
   256
176
     0
 40
1.0
176
     0
 90
        2
176
     1
  1
strokes_ogs.tif
176
     1
290
     0
176
     1
 40
1.0
176
     1
 40
1.0
176
     1
  0
VISUALSTYLE
  5
1D3
102
{ACAD_REACTORS
330
1CF
102
}
330
1CF
100
AcDbVisualStyle
  2
GouraudWithEdges
 70
     3
177
     3
291
     1
 70
    58
 90
        2
176
     1
 90
        2
176
     1
 90
        1
176
     1
 90
        2
176
     1
 40
0.6
176
     1
 40
30.0
176
     1
 62
     7
420
 16777215
176
     1
 90
        1
176
     1
 90
        0
176
     1
 62
     7
176
     1
 62
   257
176
     1
 90
        1
176
     1
 90
        1
176
     1
 40
1.0
176
     1
 90
        0
176
     1
 62
   257
176
     1
 40
1.0
176
     1
 90
        1
176
     1
 90
        6
176
     1
 90
        2
176
     1
 62
     7
176
     1
 90
        5
176
     1
 90
        0
176
     1
 90
        0
176
     1
290
     0
176
     1
 90
       13
176
     1
 40
0.0
176
     1
 90
        0
176
     1
290
     0
176
     1
290
     1
176
     1
290
     1
176
     1
290
     0
176
     1
290
     0
176
     1
290
     0
176
     1
290
     0
176
     1
290
     0
176
     1
290
     0
176
     1
 90
       50
176
     1
 40
0.0
176
     1
 40
1.0
176
     1
 90
        0
176
     1
 62
   178
420
        0
176
     1
 90
       50
176
     1
 90
        3
176
     1
 62
     5
420
      255
176
     1
290
     0
176
     1
 90
       50
176
     1
 90
       50
176
     1
 90
       50
176
     1
290
     0
176
     1
 90
       50
176
     1
 62
   256
176
     0
 40
1.0
176
     0
 90
        2
176
     1
  1
strokes_ogs.tif
176
     1
290
     0
176
     1
 40
1.0
176
     1
 40
1.0
176
     1
  0
VISUALSTYLE
  5
1D6
102
{ACAD_REACTORS
330
1CF
102
}
330
1CF
100
AcDbVisualStyle
  2
Hidden
 70
     6
177
     3
291
     0
 70
    58
 90
        1
176
     1
 90
        2
176
     1
 90
        2
176
     1
 90
        0
176
     1
 40
0.6
176
     1
 40
30.0
176
     1
 62
     7
420
 16777215
176
     1
 90
        2
176
     1
 90
        2
176
     1
 62
     7
176
     1
 62
   257
176
     1
 90
        2
176
     1
 90
        1
176
     1
 40
40.0
176
     1
 90
        0
176
     1
 62
   257
176
     1
 40
1.0
176
     1
 90
        1
176
     1
 90
        6
176
     1
 90
        2
176
     1
 62
     7
176
     1
 90
        3
176
     1
 90
        0
176
     1
 90
        0
176
     1
290
     0
176
     1
 90
        1
176
     1
 40
0.0
176
     1
 90
        0
176
     1
290
     0
176
     1
290
     1
176
     1
290
     1
176
     1
290
     0
176
     1
290
     0
176
     1
290
     0
176
     1
290
     0
176
     1
290
     0
176
     1
290
     0
176
     1
 90
       50
176
     1
 40
0.0
176
     1
 40
1.0
176
     1
 90
        0
176
     1
 62
   178
420
        0
176
     1
 90
       50
176
     1
 90
        3
176
     1
 62
     5
420
      255
176
     1
290
     0
176
     1
 90
       50
176
     1
 90
       50
176
     1
 90
       50
176
     1
290
     0
176
     1
 90
       50
176
     1
 62
   256
176
     0
 40
1.0
176
     0
 90
        2
176
     1
  1
strokes_ogs.tif
176
     1
290
     0
176
     1
 40
1.0
176
     1
 40
1.0
176
     1
  0
VISUALSTYLE
  5
1E0
102
{ACAD_REACTORS
330
1CF
102
}
330
1CF
100
AcDbVisualStyle
  2
JitterOff
 70
    20
177
     3
291
     1
 70
    58
 90
        2
176
     0
 90
        2
176
     0
 90
        0
176
     0
 90
        0
176
     0
 40
0.6
176
     0
 40
30.0
176
     0
 62
     7
420
 16777215
176
     0
 90
        1
176
     0
 90
        4
176
     0
 62
     7
176
     0
 62
   257
176
     0
 90
        1
176
     0
 90
        1
176
     0
 40
1.0
176
     0
 90
       10
176
     2
 62
     7
176
     0
 40
1.0
176
     0
 90
        1
176
     0
 90
        6
176
     0
 90
        2
176
     0
 62
     7
176
     0
 90
        5
176
     0
 90
        0
176
     0
 90
        0
176
     0
290
     0
176
     0
 90
        1
176
     0
 40
0.0
176
     0
 90
        0
176
     0
290
     0
176
     0
290
     1
176
     0
290
     1
176
     0
290
     0
176
     0
290
     0
176
     0
290
     0
176
     0
290
     0
176
     0
290
     0
176
     0
290
     0
176
     0
 90
       50
176
     0
 40
0.0
176
     0
 40
1.0
176
     0
 90
        0
176
     0
 62
   178
420
        0
176
     0
 90
       50
176
     0
 90
        3
176
     0
 62
     5
420
      255
176
     0
290
     0
176
     0
 90
       50
176
     0
 90
       50
176
     0
 90
       50
176
     0
290
     0
176
     0
 90
       50
176
     0
 62
   256
176
     0
 40
1.0
176
     0
 90
        2
176
     0
  1
strokes_ogs.tif
176
     0
290
     0
176
     0
 40
1.0
176
     0
 40
1.0
176
     0
  0
VISUALSTYLE
  5
1DD
102
{ACAD_REACTORS
330
1CF
102
}
330
1CF
100
AcDbVisualStyle
  2
Linepattern
 70
    14
177
     3
291
     1
 70
    58
 90
        2
176
     1
 90
        2
176
     1
 90
        0
176
     1
 90
        0
176
     1
 40
0.6
176
     1
 40
30.0
176
     1
 62
     7
420
 16777215
176
     1
 90
        1
176
     1
 90
        4
176
     1
 62
     7
176
     1
 62
   257
176
     1
 90
        7
176
     1
 90
        7
176
     1
 40
1.0
176
     1
 90
        8
176
     1
 62
     7
176
     1
 40
1.0
176
     1
 90
        1
176
     1
 90
        6
176
     1
 90
        2
176
     1
 62
     7
176
     1
 90
        5
176
     1
 90
        0
176
     1
 90
        0
176
     1
290
     0
176
     1
 90
        1
176
     1
 40
0.0
176
     1
 90
        0
176
     1
290
     0
176
     1
290
     1
176
     1
290
     1
176
     1
290
     0
176
     1
290
     0
176
     1
290
     0
176
     1
290
     0
176
     1
290
     0
176
     1
290
     0
176
     1
 90
       50
176
     1
 40
0.0
176
     1
 40
1.0
176
     1
 90
        0
176
     1
 62
   178
420
        0
176
     1
 90
       50
176
     1
 90
        3
176
     1
 62
     5
420
      255
176
     1
290
     0
176
     1
 90
       50
176
     1
 90
       50
176
     1
 90
       50
176
     1
290
     0
176
     1
 90
       50
176
     1
 62
   256
176
     0
 40
1.0
176
     0
 90
        2
176
     1
  1
strokes_ogs.tif
176
     1
290
     0
176
     1
 40
1.0
176
     1
 40
1.0
176
     1
  0
VISUALSTYLE
  5
1E1
102
{ACAD_REACTORS
330
1CF
102
}
330
1CF
100
AcDbVisualStyle
  2
OverhangOff
 70
    21
177
     3
291
     1
 70
    58
 90
        2
176
     0
 90
        2
176
     0
 90
        0
176
     0
 90
        0
176
     0
 40
0.6
176
     0
 40
30.0
176
     0
 62
     7
420
 16777215
176
     0
 90
        1
176
     0
 90
        4
176
     0
 62
     7
176
     0
 62
   257
176
     0
 90
        1
176
     0
 90
        1
176
     0
 40
1.0
176
     0
 90
        9
176
     2
 62
     7
176
     0
 40
1.0
176
     0
 90
        1
176
     0
 90
        6
176
     0
 90
        2
176
     0
 62
     7
176
     0
 90
        5
176
     0
 90
        0
176
     0
 90
        0
176
     0
290
     0
176
     0
 90
        1
176
     0
 40
0.0
176
     0
 90
        0
176
     0
290
     0
176
     0
290
     1
176
     0
290
     1
176
     0
290
     0
176
     0
290
     0
176
     0
290
     0
176
     0
290
     0
176
     0
290
     0
176
     0
290
     0
176
     0
 90
       50
176
     0
 40
0.0
176
     0
 40
1.0
176
     0
 90
        0
176
     0
 62
   178
420
        0
176
     0
 90
       50
176
     0
 90
        3
176
     0
 62
     5
420
      255
176
     0
290
     0
176
     0
 90
       50
176
     0
 90
       50
176
     0
 90
       50
176
     0
290
     0
176
     0
 90
       50
176
     0
 62
   256
176
     0
 40
1.0
176
     0
 90
        2
176
     0
  1
strokes_ogs.tif
176
     0
290
     0
176
     0
 40
1.0
176
     0
 40
1.0
176
     0
  0
VISUALSTYLE
  5
1D8
102
{ACAD_REACTORS
330
1CF
102
}
330
1CF
100
AcDbVisualStyle
  2
Realistic
 70
     8
177
     3
291
     0
 70
    58
 90
        2
176
     1
 90
        3
176
     1
 90
        0
176
     1
 90
        2
176
     1
 40
0.6
176
     1
 40
30.0
176
     1
 62
     7
420
 16777215
176
     1
 90
        0
176
     1
 90
        0
176
     1
 62
     7
176
     1
 62
   257
176
     1
 90
        1
176
     1
 90
        1
176
     1
 40
1.0
176
     1
 90
        8
176
     1
 62
   257
176
     1
 40
1.0
176
     1
 90
        1
176
     1
 90
        6
176
     1
 90
        2
176
     1
 62
     7
176
     1
 90
        3
176
     1
 90
        0
176
     1
 90
        0
176
     1
290
     0
176
     1
 90
       13
176
     1
 40
0.0
176
     1
 90
        0
176
     1
290
     0
176
     1
290
     1
176
     1
290
     1
176
     1
290
     0
176
     1
290
     0
176
     1
290
     0
176
     1
290
     0
176
     1
290
     0
176
     1
290
     0
176
     1
 90
       50
176
     1
 40
0.0
176
     1
 40
1.0
176
     1
 90
        0
176
     1
 62
   178
420
        0
176
     1
 90
       50
176
     1
 90
        3
176
     1
 62
     5
420
      255
176
     1
290
     0
176
     1
 90
       50
176
     1
 90
       50
176
     1
 90
       50
176
     1
290
     0
176
     1
 90
       50
176
     1
 62
   256
176
     0
 40
1.0
176
     0
 90
        2
176
     1
  1
strokes_ogs.tif
176
     1
290
     0
176
     1
 40
1.0
176
     1
 40
1.0
176
     1
  0
VISUALSTYLE
  5
1E7
102
{ACAD_REACTORS
330
1CF
102
}
330
1CF
100
AcDbVisualStyle
  2
Shaded
 70
    27
177
     3
291
     0
 70
    58
 90
        2
176
     1
 90
        2
176
     1
 90
        1
176
     1
 90
        2
176
     1
 40
0.6
176
     1
 40
30.0
176
     1
 62
     7
420
 16777215
176
     1
 90
        0
176
     1
 90
        4
176
     1
 62
     7
176
     1
 62
   257
176
     1
 90
        1
176
     1
 90
        1
176
     1
 40
1.0
176
     1
 90
        8
176
     1
 62
   257
176
     1
 40
1.0
176
     1
 90
        1
176
     1
 90
        6
176
     1
 90
        2
176
     1
 62
     8
420
  7895160
176
     1
 90
        3
176
     1
 90
        0
176
     1
 90
        0
176
     1
290
     0
176
     1
 90
        5
176
     1
 40
0.0
176
     1
 90
        0
176
     1
290
     0
176
     1
290
     1
176
     1
290
     1
176
     1
290
     0
176
     1
290
     0
176
     1
290
     0
176
     1
290
     0
176
     1
290
     0
176
     1
290
     0
176
     1
 90
       50
176
     1
 40
0.0
176
     1
 40
1.0
176
     1
 90
        0
176
     1
 62
   178
420
        0
176
     1
 90
       50
176
     1
 90
        3
176
     1
 62
     5
420
      255
176
     1
290
     0
176
     1
 90
       50
176
     1
 90
       50
176
     1
 90
       50
176
     1
290
     0
176
     1
 90
       50
176
     1
 62
   256
176
     0
 40
1.0
176
     0
 90
        2
176
     1
  1
strokes_ogs.tif
176
     1
290
     0
176
     1
 40
1.0
176
     1
 40
1.0
176
     1
  0
VISUALSTYLE
  5
1E6
102
{ACAD_REACTORS
330
1CF
102
}
330
1CF
100
AcDbVisualStyle
  2
Shaded with edges
 70
    26
177
     3
291
     0
 70
    58
 90
        2
176
     1
 90
        2
176
     1
 90
        1
176
     1
 90
        2
176
     1
 40
0.6
176
     1
 40
30.0
176
     1
 62
     7
420
 16777215
176
     1
 90
        1
176
     1
 90
       10
176
     1
 62
     7
176
     1
 62
   257
176
     1
 90
        2
176
     1
 90
        1
176
     1
 40
1.0
176
     1
 90
        8
176
     1
 62
   257
176
     1
 40
1.0
176
     1
 90
        1
176
     1
 90
        6
176
     1
 90
        2
176
     1
 62
     7
176
     1
 90
        3
176
     1
 90
        0
176
     1
 90
        0
176
     1
290
     0
176
     1
 90
        5
176
     1
 40
0.0
176
     1
 90
        0
176
     1
290
     0
176
     1
290
     1
176
     1
290
     1
176
     1
290
     0
176
     1
290
     0
176
     1
290
     0
176
     1
290
     0
176
     1
290
     0
176
     1
290
     0
176
     1
 90
       50
176
     1
 40
0.0
176
     1
 40
1.0
176
     1
 90
        0
176
     1
 62
   178
420
        0
176
     1
 90
       50
176
     1
 90
        3
176
     1
 62
     5
420
      255
176
     1
290
     0
176
     1
 90
       50
176
     1
 90
       50
176
     1
 90
       50
176
     1
290
     0
176
     1
 90
       50
176
     1
 62
   256
176
     0
 40
1.0
176
     0
 90
        2
176
     1
  1
strokes_ogs.tif
176
     1
290
     0
176
     1
 40
1.0
176
     1
 40
1.0
176
     1
  0
VISUALSTYLE
  5
1E3
102
{ACAD_REACTORS
330
1CF
102
}
330
1CF
100
AcDbVisualStyle
  2
Shades of Gray
 70
    23
177
     3
291
     0
 70
    58
 90
        2
176
     1
 90
        2
176
     1
 90
        3
176
     1
 90
        0
176
     1
 40
0.6
176
     1
 40
30.0
176
     1
 62
     7
420
 16777215
176
     1
 90
        2
176
     1
 90
        2
176
     1
 62
     7
176
     1
 62
     7
176
     1
 90
        1
176
     1
 90
        1
176
     1
 40
40.0
176
     1
 90
        8
176
     1
 62
     7
176
     1
 40
1.0
176
     1
 90
        1
176
     1
 90
        6
176
     1
 90
        2
176
     1
 62
     7
176
     1
 90
        3
176
     1
 90
        0
176
     1
 90
        0
176
     1
290
     0
176
     1
 90
        1
176
     1
 40
0.0
176
     1
 90
        0
176
     1
290
     0
176
     1
290
     1
176
     1
290
     1
176
     1
290
     0
176
     1
290
     0
176
     1
290
     0
176
     1
290
     0
176
     1
290
     0
176
     1
290
     0
176
     1
 90
       50
176
     1
 40
0.0
176
     1
 40
1.0
176
     1
 90
        0
176
     1
 62
   178
420
        0
176
     1
 90
       50
176
     1
 90
        3
176
     1
 62
     5
420
      255
176
     1
290
     0
176
     1
 90
       50
176
     1
 90
       50
176
     1
 90
       50
176
     1
290
     0
176
     1
 90
       50
176
     1
 62
   256
176
     0
 40
1.0
176
     0
 90
        2
176
     1
  1
strokes_ogs.tif
176
     1
290
     0
176
     1
 40
1.0
176
     1
 40
1.0
176
     1
  0
VISUALSTYLE
  5
1E4
102
{ACAD_REACTORS
330
1CF
102
}
330
1CF
100
AcDbVisualStyle
  2
Sketchy
 70
    24
177
     3
291
     0
 70
    58
 90
        1
176
     1
 90
        2
176
     1
 90
        2
176
     1
 90
        0
176
     1
 40
0.6
176
     1
 40
30.0
176
     1
 62
     7
420
 16777215
176
     1
 90
        2
176
     1
 90
        2
176
     1
 62
     7
176
     1
 62
     7
176
     1
 90
        1
176
     1
 90
        1
176
     1
 40
40.0
176
     1
 90
       11
176
     1
 62
     7
176
     1
 40
1.0
176
     1
 90
        1
176
     1
 90
        6
176
     1
 90
        2
176
     1
 62
     7
176
     1
 90
        6
176
     1
 90
        0
176
     1
 90
        0
176
     1
290
     0
176
     1
 90
        1
176
     1
 40
0.0
176
     1
 90
        0
176
     1
290
     0
176
     1
290
     1
176
     1
290
     1
176
     1
290
     0
176
     1
290
     0
176
     1
290
     0
176
     1
290
     0
176
     1
290
     0
176
     1
290
     0
176
     1
 90
       50
176
     1
 40
0.0
176
     1
 40
1.0
176
     1
 90
        0
176
     1
 62
   178
420
        0
176
     1
 90
       50
176
     1
 90
        3
176
     1
 62
     5
420
      255
176
     1
290
     0
176
     1
 90
       50
176
     1
 90
       50
176
     1
 90
       50
176
     1
290
     0
176
     1
 90
       50
176
     1
 62
   256
176
     0
 40
1.0
176
     0
 90
        2
176
     1
  1
strokes_ogs.tif
176
     1
290
     0
176
     1
 40
1.0
176
     1
 40
1.0
176
     1
  0
VISUALSTYLE
  5
1DC
102
{ACAD_REACTORS
330
1CF
102
}
330
1CF
100
AcDbVisualStyle
  2
Thicken
 70
    13
177
     3
291
     1
 70
    58
 90
        2
176
     1
 90
        2
176
     1
 90
        0
176
     1
 90
        0
176
     1
 40
0.6
176
     1
 40
30.0
176
     1
 62
     7
420
 16777215
176
     1
 90
        1
176
     1
 90
        4
176
     1
 62
     7
176
     1
 62
   257
176
     1
 90
        1
176
     1
 90
        1
176
     1
 40
1.0
176
     1
 90
       12
176
     1
 62
     7
176
     1
 40
1.0
176
     1
 90
        1
176
     1
 90
        6
176
     1
 90
        2
176
     1
 62
     7
176
     1
 90
        5
176
     1
 90
        0
176
     1
 90
        0
176
     1
290
     0
176
     1
 90
        1
176
     1
 40
0.0
176
     1
 90
        0
176
     1
290
     0
176
     1
290
     1
176
     1
290
     1
176
     1
290
     0
176
     1
290
     0
176
     1
290
     0
176
     1
290
     0
176
     1
290
     0
176
     1
290
     0
176
     1
 90
       50
176
     1
 40
0.0
176
     1
 40
1.0
176
     1
 90
        0
176
     1
 62
   178
420
        0
176
     1
 90
       50
176
     1
 90
        3
176
     1
 62
     5
420
      255
176
     1
290
     0
176
     1
 90
       50
176
     1
 90
       50
176
     1
 90
       50
176
     1
290
     0
176
     1
 90
       50
176
     1
 62
   256
176
     0
 40
1.0
176
     0
 90
        2
176
     1
  1
strokes_ogs.tif
176
     1
290
     0
176
     1
 40
1.0
176
     1
 40
1.0
176
     1
  0
VISUALSTYLE
  5
1D5
102
{ACAD_REACTORS
330
1CF
102
}
330
1CF
100
AcDbVisualStyle
  2
Wireframe
 70
     5
177
     3
291
     0
 70
    58
 90
        0
176
     1
 90
        2
176
     1
 90
        0
176
     1
 90
        0
176
     1
 40
0.6
176
     1
 40
30.0
176
     1
 62
     7
420
 16777215
176
     1
 90
        1
176
     1
 90
        4
176
     1
 62
     7
176
     1
 62
   257
176
     1
 90
        1
176
     1
 90
        1
176
     1
 40
1.0
176
     1
 90
        0
176
     1
 62
   257
176
     1
 40
1.0
176
     1
 90
        1
176
     1
 90
        6
176
     1
 90
        2
176
     1
 62
     7
176
     1
 90
        3
176
     1
 90
        0
176
     1
 90
        0
176
     1
290
     0
176
     1
 90
        1
176
     1
 40
0.0
176
     1
 90
        0
176
     1
290
     0
176
     1
290
     1
176
     1
290
     1
176
     1
290
     0
176
     1
290
     0
176
     1
290
     0
176
     1
290
     0
176
     1
290
     0
176
     1
290
     0
176
     1
 90
       50
176
     1
 40
0.0
176
     1
 40
1.0
176
     1
 90
        0
176
     1
 62
   178
420
        0
176
     1
 90
       50
176
     1
 90
        3
176
     1
 62
     5
420
      255
176
     1
290
     0
176
     1
 90
       50
176
     1
 90
       50
176
     1
 90
       50
176
     1
290
     0
176
     1
 90
       50
176
     1
 62
   256
176
     0
 40
1.0
176
     0
 90
        2
176
     1
  1
strokes_ogs.tif
176
     1
290
     0
176
     1
 40
1.0
176
     1
 40
1.0
176
     1
  0
VISUALSTYLE
  5
1E5
102
{ACAD_REACTORS
330
1CF
102
}
330
1CF
100
AcDbVisualStyle
  2
X-Ray
 70
    25
177
     3
291
     0
 70
    58
 90
        2
176
     1
 90
        2
176
     1
 90
        1
176
     1
 90
        1
176
     1
 40
0.5
176
     1
 40
30.0
176
     1
 62
     7
420
 16777215
176
     1
 90
        1
176
     1
 90
        0
176
     1
 62
     7
176
     1
 62
   257
176
     1
 90
        1
176
     1
 90
        1
176
     1
 40
1.0
176
     1
 90
        8
176
     1
 62
     7
176
     1
 40
1.0
176
     1
 90
        1
176
     1
 90
        6
176
     1
 90
        2
176
     1
 62
     7
176
     1
 90
        3
176
     1
 90
        0
176
     1
 90
        0
176
     1
290
     0
176
     1
 90
       13
176
     1
 40
0.0
176
     1
 90
        0
176
     1
290
     0
176
     1
290
     1
176
     1
290
     1
176
     1
290
     0
176
     1
290
     0
176
     1
290
     0
176
     1
290
     0
176
     1
290
     0
176
     1
290
     0
176
     1
 90
       50
176
     1
 40
0.0
176
     1
 40
1.0
176
     1
 90
        0
176
     1
 62
   178
420
        0
176
     1
 90
       50
176
     1
 90
        3
176
     1
 62
     5
420
      255
176
     1
290
     0
176
     1
 90
       50
176
     1
 90
       50
176
     1
 90
       50
176
     1
290
     0
176
     1
 90
       50
176
     1
 62
   256
176
     0
 40
1.0
176
     0
 90
        2
176
     1
  1
strokes_ogs.tif
176
     1
290
     0
176
     1
 40
1.0
176
     1
 40
1.0
176
     1
  0
DICTIONARYVAR
  5
2F1
102
{ACAD_REACTORS
330
2F0
102
}
330
2F0
100
DictionaryVariables
280
     0
  1
1:1
  0
DICTIONARYVAR
  5
2F6
102
{ACAD_REACTORS
330
2F0
102
}
330
2F0
100
DictionaryVariables
280
     0
  1
Standard
  0
DICTIONARYVAR
  5
2F5
102
{ACAD_REACTORS
330
2F0
102
}
330
2F0
100
DictionaryVariables
280
     0
  1
Standard
  0
XRECORD
  5
216
102
{ACAD_REACTORS
330
214
102
}
330
214
100
AcDbXrecord
280
     1
 90
        0
  0
XRECORD
  5
217
102
{ACAD_REACTORS
330
214
102
}
330
214
100
AcDbXrecord
280
     1
 90
        0
  0
XRECORD
  5
218
102
{ACAD_REACTORS
330
214
102
}
330
214
100
AcDbXrecord
280
     1
1000
Standard
  0
XRECORD
  5
219
102
{ACAD_REACTORS
330
214
102
}
330
214
100
AcDbXrecord
280
     1
290
     1
  0
XRECORD
  5
21A
102
{ACAD_REACTORS
330
214
102
}
330
214
100
AcDbXrecord
280
     1
 90
        2
  0
XRECORD
  5
21B
102
{ACAD_REACTORS
330
214
102
}
330
214
100
AcDbXrecord
280
     1
 90
        4
  0
XRECORD
  5
21C
102
{ACAD_REACTORS
330
214
102
}
330
214
100
AcDbXrecord
280
     1
290
     0
  0
XRECORD
  5
21D
102
{ACAD_REACTORS
330
214
102
}
330
214
100
AcDbXrecord
280
     1
290
     1
  0
XRECORD
  5
21E
102
{ACAD_REACTORS
330
214
102
}
330
214
100
AcDbXrecord
280
     1
290
     1
  0
XRECORD
  5
21F
102
{ACAD_REACTORS
330
214
102
}
330
214
100
AcDbXrecord
280
     1
290
     1
  0
XRECORD
  5
220
102
{ACAD_REACTORS
330
214
102
}
330
214
100
AcDbXrecord
280
     1
1000
auto
  0
XRECORD
  5
221
102
{ACAD_REACTORS
330
214
102
}
330
214
100
AcDbXrecord
280
     1
1000
auto
  0
XRECORD
  5
222
102
{ACAD_REACTORS
330
214
102
}
330
214
100
AcDbXrecord
280
     1
1000
auto
  0
XRECORD
  5
223
102
{ACAD_REACTORS
330
214
102
}
330
214
100
AcDbXrecord
280
     1
1000
auto
  0
XRECORD
  5
224
102
{ACAD_REACTORS
330
214
102
}
330
214
100
AcDbXrecord
280
     1
1000
auto
  0
XRECORD
  5
225
102
{ACAD_REACTORS
330
214
102
}
330
214
100
AcDbXrecord
280
     1
1000
auto
  0
XRECORD
  5
226
102
{ACAD_REACTORS
330
214
102
}
330
214
100
AcDbXrecord
280
     1
1000
auto
  0
XRECORD
  5
227
102
{ACAD_REACTORS
330
214
102
}
330
214
100
AcDbXrecord
280
     1
1000
auto
  0
XRECORD
  5
228
102
{ACAD_REACTORS
330
214
102
}
330
214
100
AcDbXrecord
280
     1
290
     0
  0
XRECORD
  5
229
102
{ACAD_REACTORS
330
214
102
}
330
214
100
AcDbXrecord
280
     1
290
     0
  0
XRECORD
  5
22A
102
{ACAD_REACTORS
330
214
102
}
330
214
100
AcDbXrecord
280
     1
290
     0
  0
XRECORD
  5
22B
102
{ACAD_REACTORS
330
214
102
}
330
214
100
AcDbXrecord
280
     1
290
     0
  0
XRECORD
  5
22C
102
{ACAD_REACTORS
330
214
102
}
330
214
100
AcDbXrecord
280
     1
 90
        0
  0
XRECORD
  5
22D
102
{ACAD_REACTORS
330
214
102
}
330
214
100
AcDbXrecord
280
     1
 90
        0
  0
XRECORD
  5
22E
102
{ACAD_REACTORS
330
214
102
}
330
214
100
AcDbXrecord
280
     1
 90
        0
  0
XRECORD
  5
22F
102
{ACAD_REACTORS
330
214
102
}
330
214
100
AcDbXrecord
280
     1
 90
        0
  0
XRECORD
  5
230
102
{ACAD_REACTORS
330
214
102
}
330
214
100
AcDbXrecord
280
     1
1000
auto
  0
XRECORD
  5
231
102
{ACAD_REACTORS
330
214
102
}
330
214
100
AcDbXrecord
280
     1
1000
auto
  0
XRECORD
  5
232
102
{ACAD_REACTORS
330
214
102
}
330
214
100
AcDbXrecord
280
     1
1000
auto
  0
XRECORD
  5
233
102
{ACAD_REACTORS
330
214
102
}
330
214
100
AcDbXrecord
280
     1
1000
auto
  0
XRECORD
  5
234
102
{ACAD_REACTORS
330
214
102
}
330
214
100
AcDbXrecord
280
     1
1000
auto
  0
XRECORD
  5
235
102
{ACAD_REACTORS
330
214
102
}
330
214
100
AcDbXrecord
280
     1
1000
auto
  0
XRECORD
  5
236
102
{ACAD_REACTORS
330
214
102
}
330
214
100
AcDbXrecord
280
     1
1000
auto
  0
XRECORD
  5
237
102
{ACAD_REACTORS
330
214
102
}
330
214
100
AcDbXrecord
280
     1
1000
auto
  0
XRECORD
  5
238
102
{ACAD_REACTORS
330
214
102
}
330
214
100
AcDbXrecord
280
     1
 90
        1
  0
XRECORD
  5
239
102
{ACAD_REACTORS
330
214
102
}
330
214
100
AcDbXrecord
280
     1
 40
10.0
  0
XRECORD
  5
23A
102
{ACAD_REACTORS
330
214
102
}
330
214
100
AcDbXrecord
280
     1
 40
10.0
  0
XRECORD
  5
23B
102
{ACAD_REACTORS
330
214
102
}
330
214
100
AcDbXrecord
280
     1
 40
10.0
  0
XRECORD
  5
23C
102
{ACAD_REACTORS
330
214
102
}
330
214
100
AcDbXrecord
280
     1
 40
10.0
  0
XRECORD
  5
23D
102
{ACAD_REACTORS
330
214
102
}
330
214
100
AcDbXrecord
280
     1
290
     0
  0
XRECORD
  5
23E
102
{ACAD_REACTORS
330
214
102
}
330
214
100
AcDbXrecord
280
     1
 90
        1
  0
XRECORD
  5
23F
102
{ACAD_REACTORS
330
214
102
}
330
214
100
AcDbXrecord
280
     1
 40
0.0
  0
XRECORD
  5
240
102
{ACAD_REACTORS
330
214
102
}
330
214
100
AcDbXrecord
280
     1
 40
0.0
  0
XRECORD
  5
241
102
{ACAD_REACTORS
330
214
102
}
330
214
100
AcDbXrecord
280
     1
1000
Portrait
  0
XRECORD
  5
242
102
{ACAD_REACTORS
330
214
102
}
330
214
100
AcDbXrecord
280
     1
 40
297.0
  0
XRECORD
  5
243
102
{ACAD_REACTORS
330
214
102
}
330
214
100
AcDbXrecord
280
     1
 40
210.0
  0
XRECORD
  5
244
102
{ACAD_REACTORS
330
214
102
}
330
214
100
AcDbXrecord
280
     1
1000
1:1
  0
XRECORD
  5
245
102
{ACAD_REACTORS
330
214
102
}
330
214
100
AcDbXrecord
280
     1
290
     1
  0
XRECORD
  5
215
102
{ACAD_REACTORS
330
214
102
}
330
214
100
AcDbXrecord
280
     1
1000
3.9.1
  0
XRECORD
  5
246
102
{ACAD_REACTORS
330
214
102
}
330
214
100
AcDbXrecord
280
     1
 90
        4
  0
DICTIONARY
  5
2F2
330
20F
100
AcDbDictionary
280
     1
281
     1
  3
ACAD_ROUNDTRIP_2008_TABLESTYLE_CELLSTYLEMAP
360
2F3
  0
CELLSTYLEMAP
  5
2F3
102
{ACAD_REACTORS
330
2F2
102
}
330
2F2
100
AcDbCellStyleMap
 90
        3
300
CELLSTYLE
  1
TABLEFORMAT_BEGIN
 90
        5
170
     1
 91
        0
 92
    32768
 62
   257
 93
        1
300
CONTENTFORMAT
  1
CONTENTFORMAT_BEGIN
 90
        0
 91
        0
 92
        4
 93
        0
300

 40
0.0
140
1.0
 94
        5
 62
     0
340
1B7
144
0.25
309
CONTENTFORMAT_END
171
     1
301
MARGIN
  1
CELLMARGIN_BEGIN
 40
0.06
 40
0.06
 40
0.06
 40
0.06
 40
0.06
 40
0.06
309
CELLMARGIN_END
 94
        6
 95
        1
302
GRIDFORMAT
  1
GRIDFORMAT_BEGIN
 90
        0
 91
        1
 62
     0
 92
       -2
340
1B9
 93
        0
 40
0.045
309
GRIDFORMAT_END
 95
        2
302
GRIDFORMAT
  1
GRIDFORMAT_BEGIN
 90
        0
 91
        1
 62
     0
 92
       -2
340
1B9
 93
        0
 40
0.045
309
GRIDFORMAT_END
 95
        4
302
GRIDFORMAT
  1
GRIDFORMAT_BEGIN
 90
        0
 91
        1
 62
     0
 92
       -2
340
1B9
 93
        0
 40
0.045
309
GRIDFORMAT_END
 95
        8
302
GRIDFORMAT
  1
GRIDFORMAT_BEGIN
 90
        0
 91
        1
 62
     0
 92
       -2
340
1B9
 93
        0
 40
0.045
309
GRIDFORMAT_END
 95
       16
302
GRIDFORMAT
  1
GRIDFORMAT_BEGIN
 90
        0
 91
        1
 62
     0
 92
       -2
340
1B9
 93
        0
 40
0.045
309
GRIDFORMAT_END
 95
       32
302
GRIDFORMAT
  1
GRIDFORMAT_BEGIN
 90
        0
 91
        1
 62
     0
 92
       -2
340
1B9
 93
        0
 40
0.045
309
GRIDFORMAT_END
309
TABLEFORMAT_END
  1
CELLSTYLE_BEGIN
 90
        1
 91
        1
300
_TITLE
309
CELLSTYLE_END
300
CELLSTYLE
  1
TABLEFORMAT_BEGIN
 90
        5
170
     1
 91
        0
 92
        0
 62
   257
 93
        1
300
CONTENTFORMAT
  1
CONTENTFORMAT_BEGIN
 90
        0
 91
        0
 92
        4
 93
        0
300

 40
0.0
140
1.0
 94
        5
 62
     0
340
1B7
144
0.18
309
CONTENTFORMAT_END
171
     1
301
MARGIN
  1
CELLMARGIN_BEGIN
 40
0.06
 40
0.06
 40
0.06
 40
0.06
 40
0.06
 40
0.06
309
CELLMARGIN_END
 94
        6
 95
        1
302
GRIDFORMAT
  1
GRIDFORMAT_BEGIN
 90
        0
 91
        1
 62
     0
 92
       -2
340
1B9
 93
        0
 40
0.045
309
GRIDFORMAT_END
 95
        2
302
GRIDFORMAT
  1
GRIDFORMAT_BEGIN
 90
        0
 91
        1
 62
     0
 92
       -2
340
1B9
 93
        0
 40
0.045
309
GRIDFORMAT_END
 95
        4
302
GRIDFORMAT
  1
GRIDFORMAT_BEGIN
 90
        0
 91
        1
 62
     0
 92
       -2
340
1B9
 93
        0
 40
0.045
309
GRIDFORMAT_END
 95
        8
302
GRIDFORMAT
  1
GRIDFORMAT_BEGIN
 90
        0
 91
        1
 62
     0
 92
       -2
340
1B9
 93
        0
 40
0.045
309
GRIDFORMAT_END
 95
       16
302
GRIDFORMAT
  1
GRIDFORMAT_BEGIN
 90
        0
 91
        1
 62
     0
 92
       -2
340
1B9
 93
        0
 40
0.045
309
GRIDFORMAT_END
 95
       32
302
GRIDFORMAT
  1
GRIDFORMAT_BEGIN
 90
        0
 91
        1
 62
     0
 92
       -2
340
1B9
 93
        0
 40
0.045
309
GRIDFORMAT_END
309
TABLEFORMAT_END
  1
CELLSTYLE_BEGIN
 90
        2
 91
        1
300
_HEADER
309
CELLSTYLE_END
300
CELLSTYLE
  1
TABLEFORMAT_BEGIN
 90
        5
170
     1
 91
        0
 92
        0
 62
   257
 93
        1
300
CONTENTFORMAT
  1
CONTENTFORMAT_BEGIN
 90
        0
 91
        0
 92
        4
 93
        0
300

 40
0.0
140
1.0
 94
        2
 62
     0
340
1B7
144
0.18
309
CONTENTFORMAT_END
171
     1
301
MARGIN
  1
CELLMARGIN_BEGIN
 40
0.06
 40
0.06
 40
0.06
 40
0.06
 40
0.06
 40
0.06
309
CELLMARGIN_END
 94
        6
 95
        1
302
GRIDFORMAT
  1
GRIDFORMAT_BEGIN
 90
        0
 91
        1
 62
     0
 92
       -2
340
1B9
 93
        0
 40
0.045
309
GRIDFORMAT_END
 95
        2
302
GRIDFORMAT
  1
GRIDFORMAT_BEGIN
 90
        0
 91
        1
 62
     0
 92
       -2
340
1B9
 93
        0
 40
0.045
309
GRIDFORMAT_END
 95
        4
302
GRIDFORMAT
  1
GRIDFORMAT_BEGIN
 90
        0
 91
        1
 62
     0
 92
       -2
340
1B9
 93
        0
 40
0.045
309
GRIDFORMAT_END
 95
        8
302
GRIDFORMAT
  1
GRIDFORMAT_BEGIN
 90
        0
 91
        1
 62
     0
 92
       -2
340
1B9
 93
        0
 40
0.045
309
GRIDFORMAT_END
 95
       16
302
GRIDFORMAT
  1
GRIDFORMAT_BEGIN
 90
        0
 91
        1
 62
     0
 92
       -2
340
1B9
 93
        0
 40
0.045
309
GRIDFORMAT_END
 95
       32
302
GRIDFORMAT
  1
GRIDFORMAT_BEGIN
 90
        0
 91
        1
 62
     0
 92
       -2
340
1B9
 93
        0
 40
0.045
309
GRIDFORMAT_END
309
TABLEFORMAT_END
  1
CELLSTYLE_BEGIN
 90
        3
 91
        2
300
_DATA
309
CELLSTYLE_END
  0
ENDSEC
  0
EOF
