  0
SECTION
  2
HEADER
  9
$ACADVER
  1
AC1027
  9
$ACADMAINTVER
 70
     8
  9
$DWGCODEPAGE
  3
ANSI_1252
  9
$REQUIREDVERSIONS
160
                 0
  9
$INSBASE
 10
0.0
 20
0.0
 30
0.0
  9
$EXTMIN
 10
1.000000000000000E+20
 20
1.000000000000000E+20
 30
1.000000000000000E+20
  9
$EXTMAX
 10
-1.000000000000000E+20
 20
-1.000000000000000E+20
 30
-1.000000000000000E+20
  9
$LIMMIN
 10
0.0
 20
0.0
  9
$LIMMAX
 10
12.0
 20
9.0
  9
$ORTHOMODE
 70
     0
  9
$REGENMODE
 70
     1
  9
$FILLMODE
 70
     1
  9
$QTEXTMODE
 70
     0
  9
$MIRRTEXT
 70
     1
  9
$LTSCALE
 40
1.0
  9
$ATTMODE
 70
     1
  9
$TEXTSIZE
 40
0.2
  9
$TRACEWID
 40
0.05
  9
$TEXTSTYLE
  7
Standard
  9
$CLAYER
  8
0
  9
$CELTYPE
  6
ByLayer
  9
$CECOLOR
 62
   256
  9
$CELTSCALE
 40
1.0
  9
$DISPSILH
 70
     0
  9
$DIMSCALE
 40
1.0
  9
$DIMASZ
 40
5.0
  9
$DIMEXO
 40
1.25
  9
$DIMDLI
 40
0.38
  9
$DIMRND
 40
0.0
  9
$DIMDLE
 40
0.0
  9
$DIMEXE
 40
2.5
  9
$DIMTP
 40
0.0
  9
$DIMTM
 40
0.0
  9
$DIMTXT
 40
5.0
  9
$DIMCEN
 40
0.09
  9
$DIMTSZ
 40
0.0
  9
$DIMTOL
 70
     0
  9
$DIMLIM
 70
     0
  9
$DIMTIH
 70
     1
  9
$DIMTOH
 70
     1
  9
$DIMSE1
 70
     0
  9
$DIMSE2
 70
     0
  9
$DIMTAD
 70
     0
  9
$DIMZIN
 70
     8
  9
$DIMBLK
  1

  9
$DIMASO
 70
     1
  9
$DIMSHO
 70
     1
  9
$DIMPOST
  1

  9
$DIMAPOST
  1

  9
$DIMALT
 70
     0
  9
$DIMALTD
 70
     2
  9
$DIMALTF
 40
25.4
  9
$DIMLFAC
 40
1.0
  9
$DIMTOFL
 70
     0
  9
$DIMTVP
 40
0.0
  9
$DIMTIX
 70
     0
  9
$DIMSOXD
 70
     0
  9
$DIMSAH
 70
     0
  9
$DIMBLK1
  1

  9
$DIMBLK2
  1

  9
$DIMSTYLE
  2
Standard
  9
$DIMCLRD
 70
     0
  9
$DIMCLRE
 70
     0
  9
$DIMCLRT
 70
     0
  9
$DIMTFAC
 40
1.0
  9
$DIMGAP
 40
1.25
  9
$DIMJUST
 70
     0
  9
$DIMSD1
 70
     0
  9
$DIMSD2
 70
     0
  9
$DIMTOLJ
 70
     1
  9
$DIMTZIN
 70
     0
  9
$DIMALTZ
 70
     0
  9
$DIMALTTZ
 70
     0
  9
$DIMUPT
 70
     0
  9
$DIMDEC
 70
     4
  9
$DIMTDEC
 70
     4
  9
$DIMALTU
 70
     2
  9
$DIMALTTD
 70
     2
  9
$DIMTXSTY
  7
Standard
  9
$DIMAUNIT
 70
     0
  9
$DIMADEC
 70
     0
  9
$DIMALTRND
 40
0.0
  9
$DIMAZIN
 70
     2
  9
$DIMDSEP
 70
    46
  9
$DIMATFIT
 70
     3
  9
$DIMFRAC
 70
     0
  9
$DIMLDRBLK
  1

  9
$DIMLUNIT
 70
     2
  9
$DIMLWD
 70
    -2
  9
$DIMLWE
 70
    -2
  9
$DIMTMOVE
 70
     0
  9
$DIMFXL
 40
1.0
  9
$DIMFXLON
 70
     0
  9
$DIMJOGANG
 40
0.7853981633974483
  9
$DIMTFILL
 70
     0
  9
$DIMTFILLCLR
 70
     0
  9
$DIMARCSYM
 70
     0
  9
$DIMLTYPE
  6

  9
$DIMLTEX1
  6

  9
$DIMLTEX2
  6

  9
$DIMTXTDIRECTION
 70
     0
  9
$LUNITS
 70
     2
  9
$LUPREC
 70
     4
  9
$SKETCHINC
 40
0.1
  9
$FILLETRAD
 40
0.5
  9
$AUNITS
 70
     0
  9
$AUPREC
 70
     0
  9
$MENU
  1
.
  9
$ELEVATION
 40
0.0
  9
$PELEVATION
 40
0.0
  9
$THICKNESS
 40
0.0
  9
$LIMCHECK
 70
     0
  9
$CHAMFERA
 40
0.0
  9
$CHAMFERB
 40
0.0
  9
$CHAMFERC
 40
0.0
  9
$CHAMFERD
 40
0.0
  9
$SKPOLY
 70
     0
  9
$TDCREATE
 40
2458689.425185185
  9
$TDUCREATE
 40
2458689.383518518
  9
$TDUPDATE
 40
2458689.425185185
  9
$TDUUPDATE
 40
2458689.383518518
  9
$TDINDWG
 40
0.0000000116
  9
$TDUSRTIMER
 40
0.0000000116
  9
$USRTIMER
 70
     1
  9
$ANGBASE
 50
0.0
  9
$ANGDIR
 70
     0
  9
$PDMODE
 70
     0
  9
$PDSIZE
 40
0.0
  9
$PLINEWID
 40
0.0
  9
$SPLFRAME
 70
     0
  9
$SPLINETYPE
 70
     6
  9
$SPLINESEGS
 70
     8
  9
$HANDSEED
  5
364
  9
$SURFTAB1
 70
     6
  9
$SURFTAB2
 70
     6
  9
$SURFTYPE
 70
     6
  9
$SURFU
 70
     6
  9
$SURFV
 70
     6
  9
$UCSBASE
  2

  9
$UCSNAME
  2

  9
$UCSORG
 10
0.0
 20
0.0
 30
0.0
  9
$UCSXDIR
 10
1.0
 20
0.0
 30
0.0
  9
$UCSYDIR
 10
0.0
 20
1.0
 30
0.0
  9
$UCSORTHOREF
  2

  9
$UCSORTHOVIEW
 70
     0
  9
$UCSORGTOP
 10
0.0
 20
0.0
 30
0.0
  9
$UCSORGBOTTOM
 10
0.0
 20
0.0
 30
0.0
  9
$UCSORGLEFT
 10
0.0
 20
0.0
 30
0.0
  9
$UCSORGRIGHT
 10
0.0
 20
0.0
 30
0.0
  9
$UCSORGFRONT
 10
0.0
 20
0.0
 30
0.0
  9
$UCSORGBACK
 10
0.0
 20
0.0
 30
0.0
  9
$PUCSBASE
  2

  9
$PUCSNAME
  2

  9
$PUCSORG
 10
0.0
 20
0.0
 30
0.0
  9
$PUCSXDIR
 10
1.0
 20
0.0
 30
0.0
  9
$PUCSYDIR
 10
0.0
 20
1.0
 30
0.0
  9
$PUCSORTHOREF
  2

  9
$PUCSORTHOVIEW
 70
     0
  9
$PUCSORGTOP
 10
0.0
 20
0.0
 30
0.0
  9
$PUCSORGBOTTOM
 10
0.0
 20
0.0
 30
0.0
  9
$PUCSORGLEFT
 10
0.0
 20
0.0
 30
0.0
  9
$PUCSORGRIGHT
 10
0.0
 20
0.0
 30
0.0
  9
$PUCSORGFRONT
 10
0.0
 20
0.0
 30
0.0
  9
$PUCSORGBACK
 10
0.0
 20
0.0
 30
0.0
  9
$USERI1
 70
     0
  9
$USERI2
 70
     0
  9
$USERI3
 70
     0
  9
$USERI4
 70
     0
  9
$USERI5
 70
     0
  9
$USERR1
 40
0.0
  9
$USERR2
 40
0.0
  9
$USERR3
 40
0.0
  9
$USERR4
 40
0.0
  9
$USERR5
 40
0.0
  9
$WORLDVIEW
 70
     1
  9
$SHADEDGE
 70
     3
  9
$SHADEDIF
 70
    70
  9
$TILEMODE
 70
     1
  9
$MAXACTVP
 70
    64
  9
$PINSBASE
 10
0.0
 20
0.0
 30
0.0
  9
$PLIMCHECK
 70
     0
  9
$PEXTMIN
 10
1.000000000000000E+20
 20
1.000000000000000E+20
 30
1.000000000000000E+20
  9
$PEXTMAX
 10
-1.000000000000000E+20
 20
-1.000000000000000E+20
 30
-1.000000000000000E+20
  9
$PLIMMIN
 10
0.0
 20
0.0
  9
$PLIMMAX
 10
12.0
 20
9.0
  9
$UNITMODE
 70
     0
  9
$VISRETAIN
 70
     1
  9
$PLINEGEN
 70
     0
  9
$PSLTSCALE
 70
     1
  9
$TREEDEPTH
 70
  3020
  9
$CMLSTYLE
  2
Standard
  9
$CMLJUST
 70
     0
  9
$CMLSCALE
 40
1.0
  9
$PROXYGRAPHICS
 70
     1
  9
$MEASUREMENT
 70
     1
  9
$CELWEIGHT
370
    -1
  9
$ENDCAPS
280
     0
  9
$JOINSTYLE
280
     0
  9
$LWDISPLAY
290
     0
  9
$INSUNITS
 70
     4
  9
$HYPERLINKBASE
  1

  9
$STYLESHEET
  1

  9
$XEDIT
290
     1
  9
$CEPSNTYPE
380
     0
  9
$PSTYLEMODE
290
     1
  9
$FINGERPRINTGUID
  2
{26B08926-16D8-75AC-EB81-A5B118E32C9C}
  9
$VERSIONGUID
  2
{FAEB1C32-E019-11D5-929B-00C0DF256EC4}
  9
$EXTNAMES
290
     1
  9
$PSVPSCALE
 40
0.0
  9
$OLESTARTUP
290
     0
  9
$SORTENTS
280
   127
  9
$INDEXCTL
280
     0
  9
$HIDETEXT
280
     1
  9
$XCLIPFRAME
280
     2
  9
$HALOGAP
280
     0
  9
$OBSCOLOR
 70
   257
  9
$OBSLTYPE
280
     0
  9
$INTERSECTIONDISPLAY
280
     0
  9
$INTERSECTIONCOLOR
 70
   257
  9
$DIMASSOC
280
     2
  9
$PROJECTNAME
  1

  9
$CAMERADISPLAY
290
     0
  9
$LENSLENGTH
 40
50.0
  9
$CAMERAHEIGHT
 40
0.0
  9
$STEPSPERSEC
 40
2.0
  9
$STEPSIZE
 40
6.0
  9
$3DDWFPREC
 40
2.0
  9
$PSOLWIDTH
 40
0.25
  9
$PSOLHEIGHT
 40
4.0
  9
$LOFTANG1
 40
1.570796326794897
  9
$LOFTANG2
 40
1.570796326794897
  9
$LOFTMAG1
 40
0.0
  9
$LOFTMAG2
 40
0.0
  9
$LOFTPARAM
 70
     7
  9
$LOFTNORMALS
280
     1
  9
$LATITUDE
 40
37.795
  9
$LONGITUDE
 40
-122.394
  9
$NORTHDIRECTION
 40
0.0
  9
$TIMEZONE
 70
 -8000
  9
$LIGHTGLYPHDISPLAY
280
     1
  9
$TILEMODELIGHTSYNCH
280
     1
  9
$CMATERIAL
347
181
  9
$SOLIDHIST
280
     0
  9
$SHOWHIST
280
     1
  9
$DWFFRAME
280
     2
  9
$DGNFRAME
280
     2
  9
$REALWORLDSCALE
290
     1
  9
$INTERFERECOLOR
 62
   256
  9
$CSHADOW
280
     0
  9
$SHADOWPLANELOCATION
 40
0.0
  0
ENDSEC
  0
SECTION
  2
CLASSES
  0
CLASS
  1
ACDBDICTIONARYWDFLT
  2
AcDbDictionaryWithDefault
  3
ObjectDBX Classes
 90
        0
 91
        4
280
     0
281
     0
  0
CLASS
  1
VISUALSTYLE
  2
AcDbVisualStyle
  3
ObjectDBX Classes
 90
     4095
 91
        4
280
     0
281
     0
  0
CLASS
  1
MATERIAL
  2
AcDbMaterial
  3
ObjectDBX Classes
 90
     1153
 91
        4
280
     0
281
     0
  0
CLASS
  1
SCALE
  2
AcDbScale
  3
ObjectDBX Classes
 90
     1153
 91
        4
280
     0
281
     0
  0
CLASS
  1
TABLESTYLE
  2
AcDbTableStyle
  3
ObjectDBX Classes
 90
     4095
 91
        4
280
     0
281
     0
  0
CLASS
  1
MLEADERSTYLE
  2
AcDbMLeaderStyle
  3
ACDB_MLEADERSTYLE_CLASS
 90
     4095
 91
        4
280
     0
281
     0
  0
CLASS
  1
SUN
  2
AcDbSun
  3
SCENEOE
 90
     1153
 91
        4
280
     0
281
     0
  0
CLASS
  1
DICTIONARYVAR
  2
AcDbDictionaryVar
  3
ObjectDBX Classes
 90
        0
 91
        4
280
     0
281
     0
  0
CLASS
  1
CELLSTYLEMAP
  2
AcDbCellStyleMap
  3
ObjectDBX Classes
 90
     1152
 91
        4
280
     0
281
     0
  0
ENDSEC
  0
SECTION
  2
TABLES
  0
TABLE
  2
VPORT
  5
146
330
0
100
AcDbSymbolTable
 70
     1
  0
VPORT
  5
166
330
146
100
AcDbSymbolTableRecord
100
AcDbViewportTableRecord
  2
*Active
 70
     0
 10
0.0
 20
0.0
 11
1.0
 21
1.0
 12
10.42990654205607
 22
4.5
 13
0.0
 23
0.0
 14
0.5
 24
0.5
 15
0.5
 25
0.5
 16
0.0
 26
0.0
 36
1.0
 17
0.0
 27
0.0
 37
0.0
 40
9.0
 41
1.972972972850329
 42
50.0
 43
0.0
 44
0.0
 50
0.0
 51
0.0
 71
     0
 72
   100
 73
     1
 74
     3
 75
     0
 76
     0
 77
     0
 78
     0
281
     0
 65
     1
110
0.0
120
0.0
130
0.0
111
1.0
121
0.0
131
0.0
112
0.0
122
1.0
132
0.0
 79
     0
146
0.0
 60
     3
 61
     5
292
     1
282
     1
141
0.0
142
0.0
 63
   250
361
1AA
  0
ENDTAB
  0
TABLE
  2
LTYPE
  5
143
330
0
100
AcDbSymbolTable
 70
    48
  0
LTYPE
  5
151
330
143
100
AcDbSymbolTableRecord
100
AcDbLinetypeTableRecord
  2
ByBlock
 70
     0
  3

 72
    65
 73
     0
 40
0.0
  0
LTYPE
  5
152
330
143
100
AcDbSymbolTableRecord
100
AcDbLinetypeTableRecord
  2
ByLayer
 70
     0
  3

 72
    65
 73
     0
 40
0.0
  0
LTYPE
  5
153
330
143
100
AcDbSymbolTableRecord
100
AcDbLinetypeTableRecord
  2
Continuous
 70
     0
  3
Solid line
 72
    65
 73
     0
 40
0.0
  0
LTYPE
  5
1E0
330
143
100
AcDbSymbolTableRecord
100
AcDbLinetypeTableRecord
  2
ACAD_ISO02W100
 70
     0
  3
ISO dash __ __ __ __ __ __ __ __ __ __ __ __ __
 72
    65
 73
     2
 40
15.0
 49
12.0
 74
     0
 49
-3.0
 74
     0
  0
LTYPE
  5
1E1
330
143
100
AcDbSymbolTableRecord
100
AcDbLinetypeTableRecord
  2
ACAD_ISO03W100
 70
     0
  3
ISO dash space __    __    __    __    __    __
 72
    65
 73
     2
 40
30.0
 49
12.0
 74
     0
 49
-18.0
 74
     0
  0
LTYPE
  5
1E2
330
143
100
AcDbSymbolTableRecord
100
AcDbLinetypeTableRecord
  2
ACAD_ISO04W100
 70
     0
  3
ISO long-dash dot ____ . ____ . ____ . ____ . _
 72
    65
 73
     4
 40
30.0
 49
24.0
 74
     0
 49
-3.0
 74
     0
 49
0.0
 74
     0
 49
-3.0
 74
     0
  0
LTYPE
  5
1E3
330
143
100
AcDbSymbolTableRecord
100
AcDbLinetypeTableRecord
  2
ACAD_ISO05W100
 70
     0
  3
ISO long-dash double-dot ____ .. ____ .. ____ . 
 72
    65
 73
     6
 40
33.0
 49
24.0
 74
     0
 49
-3.0
 74
     0
 49
0.0
 74
     0
 49
-3.0
 74
     0
 49
0.0
 74
     0
 49
-3.0
 74
     0
  0
LTYPE
  5
1E4
330
143
100
AcDbSymbolTableRecord
100
AcDbLinetypeTableRecord
  2
ACAD_ISO06W100
 70
     0
  3
ISO long-dash triple-dot ____ ... ____ ... ____
 72
    65
 73
     8
 40
36.0
 49
24.0
 74
     0
 49
-3.0
 74
     0
 49
0.0
 74
     0
 49
-3.0
 74
     0
 49
0.0
 74
     0
 49
-3.0
 74
     0
 49
0.0
 74
     0
 49
-3.0
 74
     0
  0
LTYPE
  5
1E5
330
143
100
AcDbSymbolTableRecord
100
AcDbLinetypeTableRecord
  2
ACAD_ISO07W100
 70
     0
  3
ISO dot . . . . . . . . . . . . . . . . . . . . 
 72
    65
 73
     2
 40
3.0
 49
0.0
 74
     0
 49
-3.0
 74
     0
  0
LTYPE
  5
1E6
330
143
100
AcDbSymbolTableRecord
100
AcDbLinetypeTableRecord
  2
ACAD_ISO08W100
 70
     0
  3
ISO long-dash short-dash ____ __ ____ __ ____ _
 72
    65
 73
     4
 40
36.0
 49
24.0
 74
     0
 49
-3.0
 74
     0
 49
6.0
 74
     0
 49
-3.0
 74
     0
  0
LTYPE
  5
1E7
330
143
100
AcDbSymbolTableRecord
100
AcDbLinetypeTableRecord
  2
ACAD_ISO09W100
 70
     0
  3
ISO long-dash double-short-dash ____ __ __ ____
 72
    65
 73
     6
 40
45.0
 49
24.0
 74
     0
 49
-3.0
 74
     0
 49
6.0
 74
     0
 49
-3.0
 74
     0
 49
6.0
 74
     0
 49
-3.0
 74
     0
  0
LTYPE
  5
1E8
330
143
100
AcDbSymbolTableRecord
100
AcDbLinetypeTableRecord
  2
ACAD_ISO10W100
 70
     0
  3
ISO dash dot __ . __ . __ . __ . __ . __ . __ . 
 72
    65
 73
     4
 40
18.0
 49
12.0
 74
     0
 49
-3.0
 74
     0
 49
0.0
 74
     0
 49
-3.0
 74
     0
  0
LTYPE
  5
1E9
330
143
100
AcDbSymbolTableRecord
100
AcDbLinetypeTableRecord
  2
ACAD_ISO11W100
 70
     0
  3
ISO double-dash dot __ __ . __ __ . __ __ . __ _
 72
    65
 73
     6
 40
33.0
 49
12.0
 74
     0
 49
-3.0
 74
     0
 49
12.0
 74
     0
 49
-3.0
 74
     0
 49
0.0
 74
     0
 49
-3.0
 74
     0
  0
LTYPE
  5
1EA
330
143
100
AcDbSymbolTableRecord
100
AcDbLinetypeTableRecord
  2
ACAD_ISO12W100
 70
     0
  3
ISO dash double-dot __ . . __ . . __ . . __ . . 
 72
    65
 73
     6
 40
21.0
 49
12.0
 74
     0
 49
-3.0
 74
     0
 49
0.0
 74
     0
 49
-3.0
 74
     0
 49
0.0
 74
     0
 49
-3.0
 74
     0
  0
LTYPE
  5
1EB
330
143
100
AcDbSymbolTableRecord
100
AcDbLinetypeTableRecord
  2
ACAD_ISO13W100
 70
     0
  3
ISO double-dash double-dot __ __ . . __ __ . . _
 72
    65
 73
     8
 40
36.0
 49
12.0
 74
     0
 49
-3.0
 74
     0
 49
12.0
 74
     0
 49
-3.0
 74
     0
 49
0.0
 74
     0
 49
-3.0
 74
     0
 49
0.0
 74
     0
 49
-3.0
 74
     0
  0
LTYPE
  5
1EC
330
143
100
AcDbSymbolTableRecord
100
AcDbLinetypeTableRecord
  2
ACAD_ISO14W100
 70
     0
  3
ISO dash triple-dot __ . . . __ . . . __ . . . _
 72
    65
 73
     8
 40
24.0
 49
12.0
 74
     0
 49
-3.0
 74
     0
 49
0.0
 74
     0
 49
-3.0
 74
     0
 49
0.0
 74
     0
 49
-3.0
 74
     0
 49
0.0
 74
     0
 49
-3.0
 74
     0
  0
LTYPE
  5
1ED
330
143
100
AcDbSymbolTableRecord
100
AcDbLinetypeTableRecord
  2
ACAD_ISO15W100
 70
     0
  3
ISO double-dash triple-dot __ __ . . . __ __ . .
 72
    65
 73
    10
 40
39.0
 49
12.0
 74
     0
 49
-3.0
 74
     0
 49
12.0
 74
     0
 49
-3.0
 74
     0
 49
0.0
 74
     0
 49
-3.0
 74
     0
 49
0.0
 74
     0
 49
-3.0
 74
     0
 49
0.0
 74
     0
 49
-3.0
 74
     0
  0
LTYPE
  5
1F0
330
143
100
AcDbSymbolTableRecord
100
AcDbLinetypeTableRecord
  2
BATTING
 70
     0
  3
Batting SSSSSSSSSSSSSSSSSSSSSSSSSSSSSSSSSSSSSSSSSSSSSSS
 72
    65
 73
     4
 40
10.16254
 49
0.00254
 74
     0
 49
-2.54
 74
     2
 75
     0
340
1EE
 46
2.54
 50
0.0
 44
-2.54
 45
0.0
  9
BAT
 49
-5.08
 74
     2
 75
     0
340
1EF
 46
2.54
 50
180.0
 44
2.54
 45
0.0
  9
BAT
 49
-2.54
 74
     0
  0
LTYPE
  5
1F1
330
143
100
AcDbSymbolTableRecord
100
AcDbLinetypeTableRecord
  2
BORDER
 70
     0
  3
Border __ __ . __ __ . __ __ . __ __ . __ __ .
 72
    65
 73
     6
 40
44.45
 49
12.7
 74
     0
 49
-6.35
 74
     0
 49
12.7
 74
     0
 49
-6.35
 74
     0
 49
0.0
 74
     0
 49
-6.35
 74
     0
  0
LTYPE
  5
1F2
330
143
100
AcDbSymbolTableRecord
100
AcDbLinetypeTableRecord
  2
BORDER2
 70
     0
  3
Border (.5x) __.__.__.__.__.__.__.__.__.__.__.
 72
    65
 73
     6
 40
22.225
 49
6.35
 74
     0
 49
-3.175
 74
     0
 49
6.35
 74
     0
 49
-3.175
 74
     0
 49
0.0
 74
     0
 49
-3.175
 74
     0
  0
LTYPE
  5
1F3
330
143
100
AcDbSymbolTableRecord
100
AcDbLinetypeTableRecord
  2
BORDERX2
 70
     0
  3
Border (2x) ____  ____  .  ____  ____  .  ___
 72
    65
 73
     6
 40
88.89999999999999
 49
25.4
 74
     0
 49
-12.7
 74
     0
 49
25.4
 74
     0
 49
-12.7
 74
     0
 49
0.0
 74
     0
 49
-12.7
 74
     0
  0
LTYPE
  5
1F4
330
143
100
AcDbSymbolTableRecord
100
AcDbLinetypeTableRecord
  2
CENTER
 70
     0
  3
Center ____ _ ____ _ ____ _ ____ _ ____ _ ____
 72
    65
 73
     4
 40
50.8
 49
31.75
 74
     0
 49
-6.35
 74
     0
 49
6.35
 74
     0
 49
-6.35
 74
     0
  0
LTYPE
  5
1F5
330
143
100
AcDbSymbolTableRecord
100
AcDbLinetypeTableRecord
  2
CENTER2
 70
     0
  3
Center (.5x) ___ _ ___ _ ___ _ ___ _ ___ _ ___
 72
    65
 73
     4
 40
28.575
 49
19.05
 74
     0
 49
-3.175
 74
     0
 49
3.175
 74
     0
 49
-3.175
 74
     0
  0
LTYPE
  5
1F6
330
143
100
AcDbSymbolTableRecord
100
AcDbLinetypeTableRecord
  2
CENTERX2
 70
     0
  3
Center (2x) ________  __  ________  __  _____
 72
    65
 73
     4
 40
101.6
 49
63.5
 74
     0
 49
-12.7
 74
     0
 49
12.7
 74
     0
 49
-12.7
 74
     0
  0
LTYPE
  5
1F7
330
143
100
AcDbSymbolTableRecord
100
AcDbLinetypeTableRecord
  2
DASHDOT
 70
     0
  3
Dash dot __ . __ . __ . __ . __ . __ . __ . __
 72
    65
 73
     4
 40
25.4
 49
12.7
 74
     0
 49
-6.35
 74
     0
 49
0.0
 74
     0
 49
-6.35
 74
     0
  0
LTYPE
  5
1F8
330
143
100
AcDbSymbolTableRecord
100
AcDbLinetypeTableRecord
  2
DASHDOT2
 70
     0
  3
Dash dot (.5x) _._._._._._._._._._._._._._._.
 72
    65
 73
     4
 40
12.7
 49
6.35
 74
     0
 49
-3.175
 74
     0
 49
0.0
 74
     0
 49
-3.175
 74
     0
  0
LTYPE
  5
1F9
330
143
100
AcDbSymbolTableRecord
100
AcDbLinetypeTableRecord
  2
DASHDOTX2
 70
     0
  3
Dash dot (2x) ____  .  ____  .  ____  .  ___
 72
    65
 73
     4
 40
50.8
 49
25.4
 74
     0
 49
-12.7
 74
     0
 49
0.0
 74
     0
 49
-12.7
 74
     0
  0
LTYPE
  5
1FA
330
143
100
AcDbSymbolTableRecord
100
AcDbLinetypeTableRecord
  2
DASHED
 70
     0
  3
Dashed __ __ __ __ __ __ __ __ __ __ __ __ __ _
 72
    65
 73
     2
 40
19.05
 49
12.7
 74
     0
 49
-6.35
 74
     0
  0
LTYPE
  5
1FB
330
143
100
AcDbSymbolTableRecord
100
AcDbLinetypeTableRecord
  2
DASHED2
 70
     0
  3
Dashed (.5x) _ _ _ _ _ _ _ _ _ _ _ _ _ _ _ _ _ 
 72
    65
 73
     2
 40
9.524999999999999
 49
6.35
 74
     0
 49
-3.175
 74
     0
  0
LTYPE
  5
1FC
330
143
100
AcDbSymbolTableRecord
100
AcDbLinetypeTableRecord
  2
DASHEDX2
 70
     0
  3
Dashed (2x) ____  ____  ____  ____  ____  ___
 72
    65
 73
     2
 40
38.09999999999999
 49
25.4
 74
     0
 49
-12.7
 74
     0
  0
LTYPE
  5
1FD
330
143
100
AcDbSymbolTableRecord
100
AcDbLinetypeTableRecord
  2
DIVIDE
 70
     0
  3
Divide ____ . . ____ . . ____ . . ____ . . ____
 72
    65
 73
     6
 40
31.75
 49
12.7
 74
     0
 49
-6.35
 74
     0
 49
0.0
 74
     0
 49
-6.35
 74
     0
 49
0.0
 74
     0
 49
-6.35
 74
     0
  0
LTYPE
  5
1FE
330
143
100
AcDbSymbolTableRecord
100
AcDbLinetypeTableRecord
  2
DIVIDE2
 70
     0
  3
Divide (.5x) __..__..__..__..__..__..__..__.._
 72
    65
 73
     6
 40
15.875
 49
6.35
 74
     0
 49
-3.175
 74
     0
 49
0.0
 74
     0
 49
-3.175
 74
     0
 49
0.0
 74
     0
 49
-3.175
 74
     0
  0
LTYPE
  5
1FF
330
143
100
AcDbSymbolTableRecord
100
AcDbLinetypeTableRecord
  2
DIVIDEX2
 70
     0
  3
Divide (2x) ________  .  .  ________  .  .  _
 72
    65
 73
     6
 40
63.5
 49
25.4
 74
     0
 49
-12.7
 74
     0
 49
0.0
 74
     0
 49
-12.7
 74
     0
 49
0.0
 74
     0
 49
-12.7
 74
     0
  0
LTYPE
  5
200
330
143
100
AcDbSymbolTableRecord
100
AcDbLinetypeTableRecord
  2
DOT
 70
     0
  3
Dot . . . . . . . . . . . . . . . . . . . . . . . .
 72
    65
 73
     2
 40
6.35
 49
0.0
 74
     0
 49
-6.35
 74
     0
  0
LTYPE
  5
201
330
143
100
AcDbSymbolTableRecord
100
AcDbLinetypeTableRecord
  2
DOT2
 70
     0
  3
Dot (.5x) ........................................
 72
    65
 73
     2
 40
3.175
 49
0.0
 74
     0
 49
-3.175
 74
     0
  0
LTYPE
  5
202
330
143
100
AcDbSymbolTableRecord
100
AcDbLinetypeTableRecord
  2
DOTX2
 70
     0
  3
Dot (2x) .  .  .  .  .  .  .  .  .  .  .  .  .  .
 72
    65
 73
     2
 40
12.7
 49
0.0
 74
     0
 49
-12.7
 74
     0
  0
LTYPE
  5
204
330
143
100
AcDbSymbolTableRecord
100
AcDbLinetypeTableRecord
  2
DRAINAGE
 70
     0
  3
Drainage ---->---->---->----
 72
    65
 73
     2
 40
10.16
 49
5.08
 74
     2
 75
     0
340
203
 46
2.54
 50
180.0
 44
0.0
 45
0.0
  9
RIGHT_ARROW
 49
5.08
 74
     0
  0
LTYPE
  5
206
330
143
100
AcDbSymbolTableRecord
100
AcDbLinetypeTableRecord
  2
DRAINAGE2
 70
     0
  3
Drainage reversed----<----<----<----
 72
    65
 73
     2
 40
10.16
 49
5.08
 74
     2
 75
     0
340
205
 46
2.54
 50
0.0
 44
0.0
 45
0.0
  9
RIGHT_ARROW
 49
5.08
 74
     0
  0
LTYPE
  5
208
330
143
100
AcDbSymbolTableRecord
100
AcDbLinetypeTableRecord
  2
FENCELINE1
 70
     0
  3
Fenceline circle ----0-----0----0-----0----0-----0--
 72
    65
 73
     4
 40
36.83
 49
6.35
 74
     0
 49
-2.54
 74
     2
 75
     0
340
207
 46
2.54
 50
0.0
 44
-2.54
 45
0.0
  9
CIRC1
 49
-2.54
 74
     0
 49
25.4
 74
     0
  0
LTYPE
  5
20A
330
143
100
AcDbSymbolTableRecord
100
AcDbLinetypeTableRecord
  2
FENCELINE2
 70
     0
  3
Fenceline square ----[]-----[]----[]-----[]----[]---
 72
    65
 73
     4
 40
36.83
 49
6.35
 74
     0
 49
-2.54
 74
     2
 75
     0
340
209
 46
2.54
 50
0.0
 44
-2.54
 45
0.0
  9
BOX
 49
-2.54
 74
     0
 49
25.4
 74
     0
  0
LTYPE
  5
20C
330
143
100
AcDbSymbolTableRecord
100
AcDbLinetypeTableRecord
  2
GAS_LINE
 70
     0
  3
Gas line ----GAS----GAS----GAS----GAS----GAS----GAS--
 72
    65
 73
     3
 40
24.13
 49
12.7
 74
     0
 49
-5.08
 74
     2
 75
     0
340
20B
 46
2.54
 50
0.0
 44
-2.54
 45
-1.27
  9
GAS
 49
-6.35
 74
     0
  0
LTYPE
  5
20D
330
143
100
AcDbSymbolTableRecord
100
AcDbLinetypeTableRecord
  2
HIDDEN
 70
     0
  3
Hidden __ __ __ __ __ __ __ __ __ __ __ __ __ __
 72
    65
 73
     2
 40
9.524999999999999
 49
6.35
 74
     0
 49
-3.175
 74
     0
  0
LTYPE
  5
20E
330
143
100
AcDbSymbolTableRecord
100
AcDbLinetypeTableRecord
  2
HIDDEN2
 70
     0
  3
Hidden (.5x) _ _ _ _ _ _ _ _ _ _ _ _ _ _ _ _ _ 
 72
    65
 73
     2
 40
4.762499999999999
 49
3.175
 74
     0
 49
-1.5875
 74
     0
  0
LTYPE
  5
20F
330
143
100
AcDbSymbolTableRecord
100
AcDbLinetypeTableRecord
  2
HIDDENX2
 70
     0
  3
Hidden (2x) ____ ____ ____ ____ ____ ____ ____ 
 72
    65
 73
     2
 40
19.05
 49
12.7
 74
     0
 49
-6.35
 74
     0
  0
LTYPE
  5
211
330
143
100
AcDbSymbolTableRecord
100
AcDbLinetypeTableRecord
  2
HOT_WATER_SUPPLY
 70
     0
  3
Hot water supply ---- HW ---- HW ---- HW ----
 72
    65
 73
     3
 40
22.86
 49
12.7
 74
     0
 49
-5.08
 74
     2
 75
     0
340
210
 46
2.54
 50
0.0
 44
-2.54
 45
-1.27
  9
HW
 49
-5.08
 74
     0
  0
LTYPE
  5
212
330
143
100
AcDbSymbolTableRecord
100
AcDbLinetypeTableRecord
  2
PHANTOM
 70
     0
  3
Phantom ______  __  __  ______  __  __  ______ 
 72
    65
 73
     6
 40
63.50000000000001
 49
31.75
 74
     0
 49
-6.35
 74
     0
 49
6.35
 74
     0
 49
-6.35
 74
     0
 49
6.35
 74
     0
 49
-6.35
 74
     0
  0
LTYPE
  5
213
330
143
100
AcDbSymbolTableRecord
100
AcDbLinetypeTableRecord
  2
PHANTOM2
 70
     0
  3
Phantom (.5x) ___ _ _ ___ _ _ ___ _ _ ___ _ _
 72
    65
 73
     6
 40
31.75
 49
15.875
 74
     0
 49
-3.175
 74
     0
 49
3.175
 74
     0
 49
-3.175
 74
     0
 49
3.175
 74
     0
 49
-3.175
 74
     0
  0
LTYPE
  5
214
330
143
100
AcDbSymbolTableRecord
100
AcDbLinetypeTableRecord
  2
PHANTOMX2
 70
     0
  3
Phantom (2x) ____________    ____    ____   _
 72
    65
 73
     6
 40
127.0
 49
63.5
 74
     0
 49
-12.7
 74
     0
 49
12.7
 74
     0
 49
-12.7
 74
     0
 49
12.7
 74
     0
 49
-12.7
 74
     0
  0
LTYPE
  5
216
330
143
100
AcDbSymbolTableRecord
100
AcDbLinetypeTableRecord
  2
TRACKS
 70
     0
  3
Tracks -|-|-|-|-|-|-|-|-|-|-|-|-|-|-|-|-|-|-|-|-|-|-|-|-
 72
    65
 73
     2
 40
7.62
 49
3.81
 74
     2
 75
     0
340
215
 46
6.35
 50
0.0
 44
0.0
 45
0.0
  9
TRACK1
 49
3.81
 74
     0
  0
LTYPE
  5
219
330
143
100
AcDbSymbolTableRecord
100
AcDbLinetypeTableRecord
  2
ZIGZAG
 70
     0
  3
Zig zag /\/\/\/\/\/\/\/\/\/\/\/\/\/\/\/\/\/\/\/\/\/\/\/
 72
    65
 73
     4
 40
20.32254
 49
0.00254
 74
     0
 49
-5.08
 74
     2
 75
     0
340
217
 46
5.08
 50
0.0
 44
-5.08
 45
0.0
  9
ZIG
 49
-10.16
 74
     2
 75
     0
340
218
 46
5.08
 50
180.0
 44
5.08
 45
0.0
  9
ZIG
 49
-5.08
 74
     0
  0
ENDTAB
  0
TABLE
  2
LAYER
  5
140
330
0
100
AcDbSymbolTable
 70
     3
  0
LAYER
  5
14E
330
140
100
AcDbSymbolTableRecord
100
AcDbLayerTableRecord
  2
0
 70
     0
 62
     7
420
 16777215
  6
Continuous
370
    25
390
14D
347
183
348
0
  0
LAYER
  5
21A
330
140
100
AcDbSymbolTableRecord
100
AcDbLayerTableRecord
  2
Cotes
 70
     0
 62
     4
420
    65535
  6
Continuous
370
    25
390
14D
347
183
348
0
  0
LAYER
  5
228
330
140
100
AcDbSymbolTableRecord
100
AcDbLayerTableRecord
  2
Defpoints
 70
     0
 62
     7
  6
Continuous
290
     0
370
    -3
390
14D
347
183
348
0
  0
ENDTAB
  0
TABLE
  2
STYLE
  5
141
330
0
100
AcDbSymbolTable
 70
    14
  0
STYLE
  5
14F
330
141
100
AcDbSymbolTableRecord
100
AcDbTextStyleTableRecord
  2
Standard
 70
     0
 40
0.0
 41
1.0
 50
0.0
 71
     0
 42
0.2
  3
txt
  4

  0
STYLE
  5
1EE
330
141
100
AcDbSymbolTableRecord
100
AcDbTextStyleTableRecord
  2
textstyle0
 70
     0
 40
0.0
 41
1.0
 50
0.0
 71
     0
 42
0.2
  3
ltypeshp.shx
  4

  0
STYLE
  5
1EF
330
141
100
AcDbSymbolTableRecord
100
AcDbTextStyleTableRecord
  2
textstyle1
 70
     0
 40
0.0
 41
1.0
 50
0.0
 71
     0
 42
0.2
  3
ltypeshp.shx
  4

  0
STYLE
  5
203
330
141
100
AcDbSymbolTableRecord
100
AcDbTextStyleTableRecord
  2
textstyle2
 70
     0
 40
0.0
 41
1.0
 50
0.0
 71
     0
 42
0.2
  3
qcadshp.shx
  4

  0
STYLE
  5
205
330
141
100
AcDbSymbolTableRecord
100
AcDbTextStyleTableRecord
  2
textstyle3
 70
     0
 40
0.0
 41
1.0
 50
0.0
 71
     0
 42
0.2
  3
qcadshp.shx
  4

  0
STYLE
  5
207
330
141
100
AcDbSymbolTableRecord
100
AcDbTextStyleTableRecord
  2
textstyle4
 70
     0
 40
0.0
 41
1.0
 50
0.0
 71
     0
 42
0.2
  3
ltypeshp.shx
  4

  0
STYLE
  5
209
330
141
100
AcDbSymbolTableRecord
100
AcDbTextStyleTableRecord
  2
textstyle5
 70
     0
 40
0.0
 41
1.0
 50
0.0
 71
     0
 42
0.2
  3
ltypeshp.shx
  4

  0
STYLE
  5
20B
330
141
100
AcDbSymbolTableRecord
100
AcDbTextStyleTableRecord
  2
textstyle6
 70
     0
 40
0.0
 41
1.0
 50
0.0
 71
     0
 42
0.2
  3
STANDARD
  4

  0
STYLE
  5
210
330
141
100
AcDbSymbolTableRecord
100
AcDbTextStyleTableRecord
  2
textstyle7
 70
     0
 40
0.0
 41
1.0
 50
0.0
 71
     0
 42
0.2
  3
STANDARD
  4

  0
STYLE
  5
215
330
141
100
AcDbSymbolTableRecord
100
AcDbTextStyleTableRecord
  2
textstyle8
 70
     0
 40
0.0
 41
1.0
 50
0.0
 71
     0
 42
0.2
  3
ltypeshp.shx
  4

  0
STYLE
  5
217
330
141
100
AcDbSymbolTableRecord
100
AcDbTextStyleTableRecord
  2
textstyle9
 70
     0
 40
0.0
 41
1.0
 50
0.0
 71
     0
 42
0.2
  3
ltypeshp.shx
  4

  0
STYLE
  5
218
330
141
100
AcDbSymbolTableRecord
100
AcDbTextStyleTableRecord
  2
textstyle10
 70
     0
 40
0.0
 41
1.0
 50
0.0
 71
     0
 42
0.2
  3
ltypeshp.shx
  4

  0
STYLE
  5
227
330
141
100
AcDbSymbolTableRecord
100
AcDbTextStyleTableRecord
  2
textstyle11
 70
     0
 40
0.0
 41
1.0
 50
0.0
 71
     0
 42
0.2
  3

  4

1001
ACAD
1000
Liberation Sans
1071
        0
  0
STYLE
  5
306
330
141
100
AcDbSymbolTableRecord
100
AcDbTextStyleTableRecord
  2
textstyle12
 70
     0
 40
0.0
 41
1.0
 50
0.0
 71
     0
 42
0.2
  3

  4

1001
ACAD
1000
Liberation Sans
1071
        0
  0
ENDTAB
  0
TABLE
  2
VIEW
  5
144
330
0
100
AcDbSymbolTable
 70
     0
  0
ENDTAB
  0
TABLE
  2
UCS
  5
145
330
0
100
AcDbSymbolTable
 70
     0
  0
ENDTAB
  0
TABLE
  2
APPID
  5
147
330
0
100
AcDbSymbolTable
 70
     2
  0
APPID
  5
150
330
147
100
AcDbSymbolTableRecord
100
AcDbRegAppTableRecord
  2
ACAD
 70
     0
  0
APPID
  5
1AB
330
147
100
AcDbSymbolTableRecord
100
AcDbRegAppTableRecord
  2
QCAD
 70
     0
  0
ENDTAB
  0
TABLE
  2
DIMSTYLE
  5
148
330
0
100
AcDbSymbolTable
 70
     2
100
AcDbDimStyleTable
  0
DIMSTYLE
105
164
330
148
100
AcDbSymbolTableRecord
100
AcDbDimStyleTableRecord
  2
Standard
 70
     0
178
     0
340
14F
  0
DIMSTYLE
105
1DF
102
{ACAD_REACTORS
330
70
330
72
330
73
330
7C
330
7E
330
7F
330
82
330
84
330
85
330
86
330
87
330
B7
330
B8
330
BB
330
BC
330
C6
330
C7
330
C8
330
FC
330
FD
330
FF
330
101
330
102
330
103
330
105
102
}
330
148
100
AcDbSymbolTableRecord
100
AcDbDimStyleTableRecord
  2
QCADDimStyle
 70
     0
 41
5.0
 42
1.25
 44
2.5
 73
     0
 77
     1
140
5.0
147
1.25
178
     0
340
14F
  0
ENDTAB
  0
TABLE
  2
BLOCK_RECORD
  5
13F
330
0
100
AcDbSymbolTable
 70
    30
  0
BLOCK_RECORD
  5
15C
330
13F
100
AcDbSymbolTableRecord
100
AcDbBlockTableRecord
  2
*Model_Space
340
15F
 70
     0
280
     1
281
     0
  0
BLOCK_RECORD
  5
158
330
13F
100
AcDbSymbolTableRecord
100
AcDbBlockTableRecord
  2
*Paper_Space
340
15B
 70
     0
280
     1
281
     0
  0
BLOCK_RECORD
  5
160
330
13F
100
AcDbSymbolTableRecord
100
AcDbBlockTableRecord
  2
*Paper_Space0
340
163
 70
     0
280
     1
281
     0
  0
BLOCK_RECORD
  5
21B
330
13F
100
AcDbSymbolTableRecord
100
AcDbBlockTableRecord
  2
SeuilBaie1_VueDessus
340
0
102
{BLKREFS
331
4F
102
}
 70
     0
280
     1
281
     0
  0
BLOCK_RECORD
  5
21E
330
13F
100
AcDbSymbolTableRecord
100
AcDbBlockTableRecord
  2
JoueEstBaie_VueDessus
340
0
102
{BLKREFS
331
B6
331
100
102
}
 70
     0
280
     1
281
     0
  0
BLOCK_RECORD
  5
221
330
13F
100
AcDbSymbolTableRecord
100
AcDbBlockTableRecord
  2
SeuilBaie1_VueCoupe
340
0
102
{BLKREFS
331
51
102
}
 70
     0
280
     1
281
     0
  0
BLOCK_RECORD
  5
224
330
13F
100
AcDbSymbolTableRecord
100
AcDbBlockTableRecord
  2
JoueEstBaie_Vue_Coupe
340
0
102
{BLKREFS
331
FB
331
104
102
}
 70
     0
280
     1
281
     0
  0
BLOCK_RECORD
  5
229
330
13F
100
AcDbSymbolTableRecord
100
AcDbBlockTableRecord
  2
*D5
340
0
 70
     0
280
     1
281
     0
  0
BLOCK_RECORD
  5
235
330
13F
100
AcDbSymbolTableRecord
100
AcDbBlockTableRecord
  2
*D6
340
0
 70
     0
280
     1
281
     0
  0
BLOCK_RECORD
  5
241
330
13F
100
AcDbSymbolTableRecord
100
AcDbBlockTableRecord
  2
*D7
340
0
 70
     0
280
     1
281
     0
  0
BLOCK_RECORD
  5
24D
330
13F
100
AcDbSymbolTableRecord
100
AcDbBlockTableRecord
  2
*D8
340
0
 70
     0
280
     1
281
     0
  0
BLOCK_RECORD
  5
25A
330
13F
100
AcDbSymbolTableRecord
100
AcDbBlockTableRecord
  2
*D9
340
0
 70
     0
280
     1
281
     0
  0
BLOCK_RECORD
  5
266
330
13F
100
AcDbSymbolTableRecord
100
AcDbBlockTableRecord
  2
*D10
340
0
 70
     0
280
     1
281
     0
  0
BLOCK_RECORD
  5
273
330
13F
100
AcDbSymbolTableRecord
100
AcDbBlockTableRecord
  2
*D11
340
0
 70
     0
280
     1
281
     0
  0
BLOCK_RECORD
  5
27F
330
13F
100
AcDbSymbolTableRecord
100
AcDbBlockTableRecord
  2
*D12
340
0
 70
     0
280
     1
281
     0
  0
BLOCK_RECORD
  5
28D
330
13F
100
AcDbSymbolTableRecord
100
AcDbBlockTableRecord
  2
*D13
340
0
 70
     0
280
     1
281
     0
  0
BLOCK_RECORD
  5
29A
330
13F
100
AcDbSymbolTableRecord
100
AcDbBlockTableRecord
  2
*D14
340
0
 70
     0
280
     1
281
     0
  0
BLOCK_RECORD
  5
2A6
330
13F
100
AcDbSymbolTableRecord
100
AcDbBlockTableRecord
  2
*D15
340
0
 70
     0
280
     1
281
     0
  0
BLOCK_RECORD
  5
2B2
330
13F
100
AcDbSymbolTableRecord
100
AcDbBlockTableRecord
  2
*D16
340
0
 70
     0
280
     1
281
     0
  0
BLOCK_RECORD
  5
2BE
330
13F
100
AcDbSymbolTableRecord
100
AcDbBlockTableRecord
  2
*D17
340
0
 70
     0
280
     1
281
     0
  0
BLOCK_RECORD
  5
2CA
330
13F
100
AcDbSymbolTableRecord
100
AcDbBlockTableRecord
  2
*D18
340
0
 70
     0
280
     1
281
     0
  0
BLOCK_RECORD
  5
2D6
330
13F
100
AcDbSymbolTableRecord
100
AcDbBlockTableRecord
  2
*D19
340
0
 70
     0
280
     1
281
     0
  0
BLOCK_RECORD
  5
2E2
330
13F
100
AcDbSymbolTableRecord
100
AcDbBlockTableRecord
  2
*D20
340
0
 70
     0
280
     1
281
     0
  0
BLOCK_RECORD
  5
2EE
330
13F
100
AcDbSymbolTableRecord
100
AcDbBlockTableRecord
  2
*D21
340
0
 70
     0
280
     1
281
     0
  0
BLOCK_RECORD
  5
2FA
330
13F
100
AcDbSymbolTableRecord
100
AcDbBlockTableRecord
  2
*D22
340
0
 70
     0
280
     1
281
     0
  0
BLOCK_RECORD
  5
307
330
13F
100
AcDbSymbolTableRecord
100
AcDbBlockTableRecord
  2
*D23
340
0
 70
     0
280
     1
281
     0
  0
BLOCK_RECORD
  5
313
330
13F
100
AcDbSymbolTableRecord
100
AcDbBlockTableRecord
  2
*D24
340
0
 70
     0
280
     1
281
     0
  0
BLOCK_RECORD
  5
31F
330
13F
100
AcDbSymbolTableRecord
100
AcDbBlockTableRecord
  2
*D25
340
0
 70
     0
280
     1
281
     0
  0
BLOCK_RECORD
  5
32B
330
13F
100
AcDbSymbolTableRecord
100
AcDbBlockTableRecord
  2
*D26
340
0
 70
     0
280
     1
281
     0
  0
BLOCK_RECORD
  5
337
330
13F
100
AcDbSymbolTableRecord
100
AcDbBlockTableRecord
  2
*D27
340
0
 70
     0
280
     1
281
     0
  0
BLOCK_RECORD
  5
343
330
13F
100
AcDbSymbolTableRecord
100
AcDbBlockTableRecord
  2
*D28
340
0
 70
     0
280
     1
281
     0
  0
BLOCK_RECORD
  5
34F
330
13F
100
AcDbSymbolTableRecord
100
AcDbBlockTableRecord
  2
*D29
340
0
 70
     0
280
     1
281
     0
  0
ENDTAB
  0
ENDSEC
  0
SECTION
  2
BLOCKS
  0
BLOCK
  5
15D
330
15C
100
AcDbEntity
  8
0
100
AcDbBlockBegin
  2
*Model_Space
 70
     0
 10
0.0
 20
0.0
 30
0.0
  3
*Model_Space
  1
*Model_Space
  0
ENDBLK
  5
15E
330
15C
100
AcDbEntity
  8
0
100
AcDbBlockEnd
  0
BLOCK
  5
159
330
158
100
AcDbEntity
 67
     1
  8
0
100
AcDbBlockBegin
  2
*Paper_Space
 70
     0
 10
0.0
 20
0.0
 30
0.0
  3
*Paper_Space
  1
*Paper_Space
  0
ENDBLK
  5
15A
330
158
100
AcDbEntity
 67
     1
  8
0
100
AcDbBlockEnd
  0
BLOCK
  5
161
330
160
100
AcDbEntity
  8
0
100
AcDbBlockBegin
  2
*Paper_Space0
 70
     0
 10
0.0
 20
0.0
 30
0.0
  3
*Paper_Space0
  1
*Paper_Space0
  0
ENDBLK
  5
162
330
160
100
AcDbEntity
  8
0
100
AcDbBlockEnd
  0
BLOCK
  5
21C
330
21B
100
AcDbEntity
  8
0
100
AcDbBlockBegin
  2
SeuilBaie1_VueDessus
 70
     0
 10
0.0
 20
0.0
 30
0.0
  3
SeuilBaie1_VueDessus
  1
SeuilBaie1_VueDessus
  0
LINE
  5
35
330
21B
100
AcDbEntity
  8
0
100
AcDbLine
 10
0.0
 20
-259.0677010324786
 30
0.0
 11
0.0
 21
0.0
 31
0.0
  0
LINE
  5
36
330
21B
100
AcDbEntity
  8
0
100
AcDbLine
 10
2397.0
 20
-259.0677010324786
 30
0.0
 11
2397.0
 21
0.0
 31
0.0
  0
LINE
  5
37
330
21B
100
AcDbEntity
  8
0
100
AcDbLine
 10
-65.0
 20
-281.9801790885888
 30
0.0
 11
2462.0
 21
-281.9801790885888
 31
0.0
  0
LINE
  5
47
330
21B
100
AcDbEntity
  8
0
100
AcDbLine
 10
2397.0
 20
0.0
 30
0.0
 11
0.0
 21
0.0
 31
0.0
  0
LINE
  5
4A
330
21B
100
AcDbEntity
  8
0
100
AcDbLine
 10
0.0
 20
-259.0677010324786
 30
0.0
 11
-65.0
 21
-259.0677010324786
 31
0.0
  0
LINE
  5
4B
330
21B
100
AcDbEntity
  8
0
100
AcDbLine
 10
-65.0
 20
-281.9801790885888
 30
0.0
 11
-65.0
 21
-259.0677010324787
 31
0.0
  0
LINE
  5
4C
330
21B
100
AcDbEntity
  8
0
100
AcDbLine
 10
2397.0
 20
-259.0677010324786
 30
0.0
 11
2462.0
 21
-259.0677010324786
 31
0.0
  0
LINE
  5
4D
330
21B
100
AcDbEntity
  8
0
100
AcDbLine
 10
2462.0
 20
-281.9801790885888
 30
0.0
 11
2462.0
 21
-259.0677010324787
 31
0.0
  0
LINE
  5
6B
330
21B
100
AcDbEntity
  8
0
100
AcDbLine
 10
2397.0
 20
-259.0677010324786
 30
0.0
 11
2395.5
 21
-259.0677010324786
 31
0.0
  0
LINE
  5
6D
330
21B
100
AcDbEntity
  8
0
100
AcDbLine
 10
0.0
 20
-259.0677010324786
 30
0.0
 11
1.5
 21
-259.0677010324786
 31
0.0
  0
LINE
  5
10B
330
21B
100
AcDbEntity
  8
0
100
AcDbLine
 10
2395.5
 20
-259.0677010324786
 30
0.0
 11
2395.5
 21
0.0000000000000002
 31
0.0
  0
LINE
  5
10C
330
21B
100
AcDbEntity
  8
0
100
AcDbLine
 10
1.5
 20
-259.0677010324786
 30
0.0
 11
1.5
 21
0.0
 31
0.0
  0
ENDBLK
  5
21D
330
21B
100
AcDbEntity
  8
0
100
AcDbBlockEnd
  0
BLOCK
  5
21F
330
21E
100
AcDbEntity
  8
0
100
AcDbBlockBegin
  2
JoueEstBaie_VueDessus
 70
     0
 10
0.0
 20
0.0
 30
0.0
  3
JoueEstBaie_VueDessus
  1
JoueEstBaie_VueDessus
  0
LINE
  5
9B
330
21E
100
AcDbEntity
  8
0
100
AcDbLine
 10
65.0
 20
1.5
 30
0.0
 11
65.0
 21
-1.5
 31
0.0
  0
LINE
  5
9C
330
21E
100
AcDbEntity
  8
0
100
AcDbLine
 10
45.0
 20
24.5
 30
0.0
 11
45.0
 21
1.5
 31
0.0
  0
LINE
  5
9F
330
21E
100
AcDbEntity
  8
0
100
AcDbLine
 10
45.0
 20
1.5
 30
0.0
 11
65.0
 21
1.5
 31
0.0
  0
LINE
  5
A2
330
21E
100
AcDbEntity
  8
0
100
AcDbLine
 10
45.0
 20
24.5
 30
0.0
 11
95.0
 21
24.5
 31
0.0
  0
LINE
  5
A4
330
21E
100
AcDbEntity
  8
0
100
AcDbLine
 10
-1.500000000000455
 20
-1.5
 30
0.0
 11
65.0
 21
-1.5
 31
0.0
  0
LINE
  5
A5
330
21E
100
AcDbEntity
  8
0
100
AcDbLine
 10
43.5
 20
26.0
 30
0.0
 11
43.5
 21
0.0
 31
0.0
  0
LINE
  5
A8
330
21E
100
AcDbEntity
  8
0
100
AcDbLine
 10
0.0
 20
0.0
 30
0.0
 11
63.5
 21
0.0
 31
0.0
  0
LINE
  5
A9
330
21E
100
AcDbEntity
  8
0
100
AcDbLine
 10
-4.5
 20
248.0
 30
0.0
 11
1.499999999999545
 21
248.0
 31
0.0
  0
LINE
  5
AC
330
21E
100
AcDbEntity
  8
0
100
AcDbLine
 10
43.5
 20
26.0
 30
0.0
 11
95.0
 21
26.0
 31
0.0
  0
LINE
  5
AD
330
21E
100
AcDbEntity
  8
0
100
AcDbLine
 10
95.0
 20
24.5
 30
0.0
 11
95.0
 21
26.0
 31
0.0
  0
LINE
  5
AF
330
21E
100
AcDbEntity
  8
0
100
AcDbLine
 10
1.5
 20
248.0
 30
0.0
 11
1.5
 21
198.0
 31
0.0
  0
LINE
  5
B0
330
21E
100
AcDbEntity
  8
0
100
AcDbLine
 10
-3.0
 20
246.5
 30
0.0
 11
0.0
 21
246.5
 31
0.0
  0
LINE
  5
B1
330
21E
100
AcDbEntity
  8
0
100
AcDbLine
 10
0.0
 20
198.0
 30
0.0
 11
1.499999999999545
 21
198.0
 31
0.0
  0
LINE
  5
B2
330
21E
100
AcDbEntity
  8
0
100
AcDbLine
 10
-4.5
 20
223.0
 30
0.0
 11
-1.5
 21
223.0
 31
0.0
  0
LINE
  5
B4
330
21E
100
AcDbEntity
  8
0
100
AcDbLine
 10
-1.5
 20
236.5
 30
0.0
 11
0.0
 21
236.5
 31
0.0
  0
LINE
  5
BA
330
21E
100
AcDbEntity
  8
0
100
AcDbLine
 10
0.0
 20
246.5
 30
0.0
 11
0.0
 21
0.0
 31
0.0
  0
LINE
  5
127
330
21E
100
AcDbEntity
  8
0
100
AcDbLine
 10
-4.5
 20
248.0
 30
0.0
 11
-4.5
 21
223.0
 31
0.0
  0
LINE
  5
129
330
21E
100
AcDbEntity
  8
0
100
AcDbLine
 10
-3.0
 20
246.5
 30
0.0
 11
-3.0
 21
224.5
 31
0.0
  0
LINE
  5
12A
330
21E
100
AcDbEntity
  8
0
100
AcDbLine
 10
-1.5
 20
236.5
 30
0.0
 11
-3.0
 21
236.5
 31
0.0
  0
LINE
  5
12B
330
21E
100
AcDbEntity
  8
0
100
AcDbLine
 10
-1.5
 20
236.5
 30
0.0
 11
-1.5
 21
-1.5
 31
0.0
  0
ENDBLK
  5
220
330
21E
100
AcDbEntity
  8
0
100
AcDbBlockEnd
  0
BLOCK
  5
222
330
221
100
AcDbEntity
  8
0
100
AcDbBlockBegin
  2
SeuilBaie1_VueCoupe
 70
     0
 10
0.0
 20
0.0
 30
0.0
  3
SeuilBaie1_VueCoupe
  1
SeuilBaie1_VueCoupe
  0
LINE
  5
3F
330
221
100
AcDbEntity
  8
0
100
AcDbLine
 10
22.85582913760067
 20
-281.9801790885888
 30
0.0
 11
33.35773905637234
 21
-281.9801790885888
 31
0.0
  0
LINE
  5
42
330
221
100
AcDbEntity
  8
0
100
AcDbLine
 10
22.35697681071956
 20
-259.0677010324787
 30
0.0
 11
6.295859410025514
 21
-259.0677010324787
 31
0.0
  0
LINE
  5
43
330
221
100
AcDbEntity
  8
0
100
AcDbLine
 10
-15.05729756314986
 20
-15.00000000000102
 30
0.0
 11
6.295859410025969
 21
-259.0677010324786
 31
0.0
  0
LINE
  5
44
330
221
100
AcDbEntity
  8
0
100
AcDbLine
 10
1.003819837543348
 20
-15.00000000000102
 30
0.0
 11
-15.05729756315031
 21
-15.00000000000102
 31
0.0
  0
LINE
  5
60
330
221
100
AcDbEntity
  8
0
100
AcDbLine
 10
0.9961946980917455
 20
-14.91284425725337
 30
0.0
 11
24.23032589862681
 21
-280.4801790885888
 31
0.0
  0
LINE
  5
61
330
221
100
AcDbEntity
  8
0
100
AcDbLine
 10
1.0
 20
-0.0000000000000002
 30
0.0
 11
1.0
 21
-15.00000000000102
 31
0.0
  0
LINE
  5
69
330
221
100
AcDbEntity
  8
0
100
AcDbLine
 10
1.0
 20
-0.0000000000000002
 30
0.0
 11
-0.5
 21
0.0000000000000001
 31
0.0
  0
LINE
  5
79
330
221
100
AcDbEntity
  8
0
100
AcDbLine
 10
26.28667124450689
 20
-274.9091112767233
 30
0.0
 11
33.35773905637233
 21
-281.9801790885888
 31
0.0
  0
LINE
  5
7B
330
221
100
AcDbEntity
  8
0
100
AcDbLine
 10
25.22601107272705
 20
-275.9697714485031
 30
0.0
 11
26.28667124450689
 21
-274.9091112767233
 31
0.0
  0
LINE
  5
106
330
221
100
AcDbEntity
  8
0
100
AcDbLine
 10
-0.5
 20
-0.0000000000000001
 30
0.0
 11
-0.5
 21
-15.00000000000102
 31
0.0
  0
LINE
  5
108
330
221
100
AcDbEntity
  8
0
100
AcDbLine
 10
24.23032589862681
 20
-280.4801790885888
 30
0.0
 11
29.73641871281273
 21
-280.4801790885888
 31
0.0
  0
LINE
  5
109
330
221
100
AcDbEntity
  8
0
100
AcDbLine
 10
25.22601107272706
 20
-275.9697714485031
 30
0.0
 11
29.73641871281272
 21
-280.4801790885888
 31
0.0
  0
LINE
  5
10A
330
221
100
AcDbEntity
  8
0
100
AcDbLine
 10
20.85124705440454
 20
-259.0677010324787
 30
0.0
 11
22.85582913760067
 21
-281.9801790885888
 31
0.0
  0
ENDBLK
  5
223
330
221
100
AcDbEntity
  8
0
100
AcDbBlockEnd
  0
BLOCK
  5
225
330
224
100
AcDbEntity
  8
0
100
AcDbBlockBegin
  2
JoueEstBaie_Vue_Coupe
 70
     0
 10
0.0
 20
0.0
 30
0.0
  3
JoueEstBaie_Vue_Coupe
  1
JoueEstBaie_Vue_Coupe
  0
LINE
  5
8A
330
224
100
AcDbEntity
  8
0
100
AcDbLine
 10
0.0
 20
0.0
 30
0.0
 11
249.4999999999995
 21
0.0
 31
0.0
  0
LINE
  5
8E
330
224
100
AcDbEntity
  8
0
100
AcDbLine
 10
-0.0000000000006821
 20
-2110.0
 30
0.0
 11
249.4999999999986
 21
-2131.828421549715
 31
0.0
  0
LINE
  5
C4
330
224
100
AcDbEntity
  8
0
100
AcDbLine
 10
249.4999999999995
 20
0.0
 30
0.0
 11
249.4999999999986
 21
-2131.828421549715
 31
0.0
  0
LINE
  5
C5
330
224
100
AcDbEntity
  8
0
100
AcDbLine
 10
0.0
 20
0.0
 30
0.0
 11
-0.0000000000006821
 21
-2110.0
 31
0.0
  0
LINE
  5
DE
330
224
100
AcDbEntity
  8
0
100
AcDbLine
 10
1.499999999999773
 20
0.0
 30
0.0
 11
1.499999999999773
 21
-2110.131232995289
 31
0.0
  0
LINE
  5
DF
330
224
100
AcDbEntity
  8
0
100
AcDbLine
 10
11.49999999999977
 20
0.0
 30
0.0
 11
11.49999999999977
 21
-2111.006119630548
 31
0.0
  0
LINE
  5
E0
330
224
100
AcDbEntity
  8
0
100
AcDbLine
 10
24.99999999999977
 20
0.0
 30
0.0
 11
24.99999999999977
 21
-2112.187216588148
 31
0.0
  0
LINE
  5
E1
330
224
100
AcDbEntity
  8
0
100
AcDbLine
 10
49.99999999999977
 20
0.0
 30
0.0
 11
49.99999999999977
 21
-2114.374433176295
 31
0.0
  0
LINE
  5
E2
330
224
100
AcDbEntity
  8
0
100
AcDbLine
 10
221.9999999999998
 20
0.0
 30
0.0
 11
221.9999999999998
 21
-2129.422483302753
 31
0.0
  0
LINE
  5
E3
330
224
100
AcDbEntity
  8
0
100
AcDbLine
 10
223.4999999999998
 20
0.0
 30
0.0
 11
223.4999999999998
 21
-2129.553716298042
 31
0.0
  0
LINE
  5
E4
330
224
100
AcDbEntity
  8
0
100
AcDbLine
 10
247.9999999999998
 20
0.0
 30
0.0
 11
247.9999999999998
 21
-2131.697188554426
 31
0.0
  0
ENDBLK
  5
226
330
224
100
AcDbEntity
  8
0
100
AcDbBlockEnd
  0
BLOCK
  5
22A
330
229
100
AcDbEntity
  8
0
100
AcDbBlockBegin
  2
*D5
 70
     1
 10
0.0
 20
0.0
 30
0.0
  3
*D5
  1
*D5
  0
LINE
  5
22C
330
229
100
AcDbEntity
  8
Cotes
 62
     0
370
    -2
100
AcDbLine
 10
2589.373872263833
 20
584.999999999999
 30
0.0
 11
2574.311270258193
 21
584.999999999999
 31
0.0
  0
LINE
  5
22D
330
229
100
AcDbEntity
  8
Cotes
 62
     0
370
    -2
100
AcDbLine
 10
2589.373872263833
 20
600.0
 30
0.0
 11
2574.311270258193
 21
600.0
 31
0.0
  0
LINE
  5
22E
330
229
100
AcDbEntity
  8
Cotes
 62
     0
370
    -2
100
AcDbLine
 10
2576.811270258193
 20
589.999999999999
 30
0.0
 11
2576.811270258193
 21
595.0
 31
0.0
  0
SOLID
  5
22F
330
229
100
AcDbEntity
  8
Cotes
 62
     0
100
AcDbTrace
 10
2575.977936924859
 20
589.999999999999
 30
0.0
 11
2577.644603591526
 21
589.999999999999
 31
0.0
 12
2576.811270258193
 22
584.999999999999
 32
0.0
 13
2576.811270258193
 23
584.999999999999
 33
0.0
  0
SOLID
  5
230
330
229
100
AcDbEntity
  8
Cotes
 62
     0
100
AcDbTrace
 10
2577.644603591526
 20
595.0
 30
0.0
 11
2575.977936924859
 21
595.0
 31
0.0
 12
2576.811270258193
 22
600.0
 32
0.0
 13
2576.811270258193
 23
600.0
 33
0.0
  0
MTEXT
  5
231
330
229
100
AcDbEntity
  8
Cotes
 62
     0
100
AcDbMText
 10
2573.061270258193
 20
592.4999999999995
 30
0.0
 40
5.0
 41
0.0
 46
0.0
 71
     5
 72
     1
  1
\A1;15
 11
0.0
 21
1.0
 31
0.0
 73
     1
 44
1.0
  0
POINT
  5
232
330
229
100
AcDbEntity
  8
Defpoints
 62
     0
100
AcDbPoint
 10
2590.623872263833
 20
584.999999999999
 30
0.0
  0
POINT
  5
233
330
229
100
AcDbEntity
  8
Defpoints
 62
     0
100
AcDbPoint
 10
2590.623872263833
 20
600.0
 30
0.0
  0
POINT
  5
234
330
229
100
AcDbEntity
  8
Defpoints
 62
     0
100
AcDbPoint
 10
2576.811270258193
 20
600.0
 30
0.0
  0
ENDBLK
  5
22B
330
229
100
AcDbEntity
  8
0
100
AcDbBlockEnd
  0
BLOCK
  5
236
330
235
100
AcDbEntity
  8
0
100
AcDbBlockBegin
  2
*D6
 70
     1
 10
0.0
 20
0.0
 30
0.0
  3
*D6
  1
*D6
  0
LINE
  5
238
330
235
100
AcDbEntity
  8
Cotes
 62
     0
370
    -2
100
AcDbLine
 10
2606.926413199597
 20
585.1089446784335
 30
0.0
 11
2623.13505516962
 21
586.5270171019611
 31
0.0
  0
LINE
  5
239
330
235
100
AcDbEntity
  8
Cotes
 62
     0
370
    -2
100
AcDbLine
 10
2628.279570172774
 20
341.0412436459559
 30
0.0
 11
2644.488212142796
 21
342.4593160694834
 31
0.0
  0
LINE
  5
23A
330
235
100
AcDbEntity
  8
Cotes
 62
     0
370
    -2
100
AcDbLine
 10
2621.080347138129
 20
581.3281542546332
 30
0.0
 11
2641.561946683828
 21
347.2224002030729
 31
0.0
  0
SOLID
  5
23B
330
235
100
AcDbEntity
  8
Cotes
 62
     0
100
AcDbTrace
 10
2621.910509386538
 20
581.4007840402562
 30
0.0
 11
2620.250184889719
 21
581.2555244690102
 31
0.0
 12
2620.64456842439
 22
586.3091277450919
 32
0.0
 13
2620.64456842439
 23
586.3091277450919
 33
0.0
  0
SOLID
  5
23C
330
235
100
AcDbEntity
  8
Cotes
 62
     0
100
AcDbTrace
 10
2640.731784435419
 20
347.1497704174499
 30
0.0
 11
2642.392108932238
 21
347.295029988696
 31
0.0
 12
2641.997725397567
 22
342.2414267126142
 32
0.0
 13
2641.997725397567
 23
342.2414267126142
 33
0.0
  0
MTEXT
  5
23D
330
235
100
AcDbEntity
  8
Cotes
 62
     0
100
AcDbMText
 10
2635.056877028822
 20
464.6021112641567
 30
0.0
 40
5.0
 41
0.0
 46
0.0
 71
     5
 72
     1
  1
\A1;245
 11
0.08715574274765829
 21
-0.9961946980917455
 31
0.0
 73
     1
 44
1.0
  0
POINT
  5
23E
330
235
100
AcDbEntity
  8
Defpoints
 62
     0
100
AcDbPoint
 10
2605.681169826983
 20
584.999999999999
 30
0.0
  0
POINT
  5
23F
330
235
100
AcDbEntity
  8
Defpoints
 62
     0
100
AcDbPoint
 10
2627.034326800159
 20
340.9322989675213
 30
0.0
  0
POINT
  5
240
330
235
100
AcDbEntity
  8
Defpoints
 62
     0
100
AcDbPoint
 10
2641.997725397567
 20
342.2414267126142
 30
0.0
  0
ENDBLK
  5
237
330
235
100
AcDbEntity
  8
0
100
AcDbBlockEnd
  0
BLOCK
  5
242
330
241
100
AcDbEntity
  8
0
100
AcDbBlockBegin
  2
*D7
 70
     1
 10
0.0
 20
0.0
 30
0.0
  3
*D7
  1
*D7
  0
LINE
  5
244
330
241
100
AcDbEntity
  8
Cotes
 62
     0
370
    -2
100
AcDbLine
 10
2606.926413199597
 20
585.1089446784335
 30
0.0
 11
2632.661239991183
 21
587.3604502805006
 31
0.0
  0
LINE
  5
245
330
241
100
AcDbEntity
  8
Cotes
 62
     0
370
    -2
100
AcDbLine
 10
2630.28415225597
 20
318.1287655898458
 30
0.0
 11
2656.018979047556
 21
320.3802711919128
 31
0.0
  0
LINE
  5
246
330
241
100
AcDbEntity
  8
Cotes
 62
     0
370
    -2
100
AcDbLine
 10
2630.606531959692
 20
582.1615874331727
 30
0.0
 11
2653.092713588588
 21
325.1433553255024
 31
0.0
  0
SOLID
  5
247
330
241
100
AcDbEntity
  8
Cotes
 62
     0
100
AcDbTrace
 10
2631.436694208102
 20
582.2342172187957
 30
0.0
 11
2629.776369711283
 21
582.0889576475497
 31
0.0
 12
2630.170753245954
 22
587.1425609236314
 32
0.0
 13
2630.170753245954
 23
587.1425609236314
 33
0.0
  0
SOLID
  5
248
330
241
100
AcDbEntity
  8
Cotes
 62
     0
100
AcDbTrace
 10
2652.262551340179
 20
325.0707255398793
 30
0.0
 11
2653.922875836998
 21
325.2159851111255
 31
0.0
 12
2653.528492302326
 22
320.1623818350437
 32
0.0
 13
2653.528492302326
 23
320.1623818350437
 33
0.0
  0
MTEXT
  5
249
330
241
100
AcDbEntity
  8
Cotes
 62
     0
100
AcDbMText
 10
2645.585352891984
 20
453.9793054146413
 30
0.0
 40
5.0
 41
0.0
 46
0.0
 71
     5
 72
     1
  1
\A1;268
 11
0.087155742747658
 21
-0.9961946980917455
 31
0.0
 73
     1
 44
1.0
  0
POINT
  5
24A
330
241
100
AcDbEntity
  8
Defpoints
 62
     0
100
AcDbPoint
 10
2605.681169826983
 20
584.999999999999
 30
0.0
  0
POINT
  5
24B
330
241
100
AcDbEntity
  8
Defpoints
 62
     0
100
AcDbPoint
 10
2629.038908883355
 20
318.0198209114112
 30
0.0
  0
POINT
  5
24C
330
241
100
AcDbEntity
  8
Defpoints
 62
     0
100
AcDbPoint
 10
2653.528492302326
 20
320.1623818350437
 30
0.0
  0
ENDBLK
  5
243
330
241
100
AcDbEntity
  8
0
100
AcDbBlockEnd
  0
BLOCK
  5
24E
330
24D
100
AcDbEntity
  8
0
100
AcDbBlockBegin
  2
*D8
 70
     1
 10
0.0
 20
0.0
 30
0.0
  3
*D8
  1
*D8
  0
LINE
  5
250
330
24D
100
AcDbEntity
  8
Cotes
 62
     0
370
    -2
100
AcDbLine
 10
2629.038908883355
 20
316.7698209114112
 30
0.0
 11
2629.038908883355
 21
300.3631571719694
 31
0.0
  0
LINE
  5
251
330
24D
100
AcDbEntity
  8
Cotes
 62
     0
370
    -2
100
AcDbLine
 10
2639.038908883355
 20
316.7698209114112
 30
0.0
 11
2639.038908883355
 21
300.3631571719694
 31
0.0
  0
LINE
  5
252
330
24D
100
AcDbEntity
  8
Cotes
 62
     0
370
    -2
100
AcDbLine
 10
2624.038908883355
 20
302.8631571719694
 30
0.0
 11
2619.038908883355
 21
302.8631571719694
 31
0.0
  0
LINE
  5
253
330
24D
100
AcDbEntity
  8
Cotes
 62
     0
370
    -2
100
AcDbLine
 10
2644.038908883355
 20
302.8631571719694
 30
0.0
 11
2649.038908883355
 21
302.8631571719694
 31
0.0
  0
SOLID
  5
254
330
24D
100
AcDbEntity
  8
Cotes
 62
     0
100
AcDbTrace
 10
2624.038908883355
 20
302.029823838636
 30
0.0
 11
2624.038908883355
 21
303.6964905053027
 31
0.0
 12
2629.038908883355
 22
302.8631571719694
 32
0.0
 13
2629.038908883355
 23
302.8631571719694
 33
0.0
  0
SOLID
  5
255
330
24D
100
AcDbEntity
  8
Cotes
 62
     0
100
AcDbTrace
 10
2644.038908883355
 20
303.6964905053027
 30
0.0
 11
2644.038908883355
 21
302.029823838636
 31
0.0
 12
2639.038908883355
 22
302.8631571719694
 32
0.0
 13
2639.038908883355
 23
302.8631571719694
 33
0.0
  0
MTEXT
  5
256
330
24D
100
AcDbEntity
  8
Cotes
 62
     0
100
AcDbMText
 10
2634.038908883355
 20
306.6131571719694
 30
0.0
 40
5.0
 41
0.0
 46
0.0
 71
     5
 72
     1
  1
\A1;10
 73
     1
 44
1.0
  0
POINT
  5
257
330
24D
100
AcDbEntity
  8
Defpoints
 62
     0
100
AcDbPoint
 10
2629.038908883355
 20
318.0198209114112
 30
0.0
  0
POINT
  5
258
330
24D
100
AcDbEntity
  8
Defpoints
 62
     0
100
AcDbPoint
 10
2639.038908883355
 20
318.0198209114112
 30
0.0
  0
POINT
  5
259
330
24D
100
AcDbEntity
  8
Defpoints
 62
     0
100
AcDbPoint
 10
2639.038908883355
 20
302.8631571719694
 30
0.0
  0
ENDBLK
  5
24F
330
24D
100
AcDbEntity
  8
0
100
AcDbBlockEnd
  0
BLOCK
  5
25B
330
25A
100
AcDbEntity
  8
0
100
AcDbBlockBegin
  2
*D9
 70
     1
 10
0.0
 20
0.0
 30
0.0
  3
*D9
  1
*D9
  0
LINE
  5
25D
330
25A
100
AcDbEntity
  8
Cotes
 62
     0
370
    -2
100
AcDbLine
 10
2620.857151045693
 20
423.0114541700802
 30
0.0
 11
2620.966095724128
 21
421.7662107974655
 31
0.0
  0
LINE
  5
25E
330
25A
100
AcDbEntity
  8
Cotes
 62
     0
370
    -2
100
AcDbLine
 10
2604.918035876226
 20
421.6169622861178
 30
0.0
 11
2605.02698055466
 21
420.3717189135031
 31
0.0
  0
LINE
  5
25F
330
25A
100
AcDbEntity
  8
Cotes
 62
     0
370
    -2
100
AcDbLine
 10
2615.7672328768
 20
423.8209188289566
 30
0.0
 11
2609.79006468825
 21
423.2979843724707
 31
0.0
  0
SOLID
  5
260
330
25A
100
AcDbEntity
  8
Cotes
 62
     0
100
AcDbTrace
 10
2615.839862662423
 20
422.9907565805468
 30
0.0
 11
2615.694603091177
 21
424.6510810773664
 31
0.0
 12
2620.748206367259
 22
424.2566975426949
 32
0.0
 13
2620.748206367259
 23
424.2566975426949
 33
0.0
  0
SOLID
  5
261
330
25A
100
AcDbEntity
  8
Cotes
 62
     0
100
AcDbTrace
 10
2609.717434902627
 20
424.1281466208805
 30
0.0
 11
2609.862694473873
 21
422.4678221240609
 31
0.0
 12
2604.809091197791
 22
422.8622056587324
 32
0.0
 13
2604.809091197791
 23
422.8622056587324
 33
0.0
  0
MTEXT
  5
262
330
25A
100
AcDbEntity
  8
Cotes
 62
     0
100
AcDbMText
 10
2612.451814747221
 20
427.2951817185577
 30
0.0
 40
5.0
 41
0.0
 46
0.0
 71
     5
 72
     1
  1
\A1;16
 11
0.9961946980917455
 21
0.08715574274765617
 31
0.0
 73
     1
 44
1.0
  0
POINT
  5
263
330
25A
100
AcDbEntity
  8
Defpoints
 62
     0
100
AcDbPoint
 10
2620.748206367259
 20
424.256697542695
 30
0.0
  0
POINT
  5
264
330
25A
100
AcDbEntity
  8
Defpoints
 62
     0
100
AcDbPoint
 10
2604.809091197791
 20
422.8622056587325
 30
0.0
  0
POINT
  5
265
330
25A
100
AcDbEntity
  8
Defpoints
 62
     0
100
AcDbPoint
 10
2604.809091197791
 20
422.8622056587324
 30
0.0
  0
ENDBLK
  5
25C
330
25A
100
AcDbEntity
  8
0
100
AcDbBlockEnd
  0
BLOCK
  5
267
330
266
100
AcDbEntity
  8
0
100
AcDbBlockBegin
  2
*D10
 70
     1
 10
0.0
 20
0.0
 30
0.0
  3
*D10
  1
*D10
  0
LINE
  5
269
330
266
100
AcDbEntity
  8
Cotes
 62
     0
370
    -2
100
AcDbLine
 10
2638.155025406872
 20
317.135937434928
 30
0.0
 11
2614.741777033005
 21
293.7226890610621
 31
0.0
  0
LINE
  5
26A
330
266
100
AcDbEntity
  8
Cotes
 62
     0
370
    -2
100
AcDbLine
 10
2631.083957595006
 20
324.2070052467935
 30
0.0
 11
2607.67070922114
 21
300.7937568729276
 31
0.0
  0
LINE
  5
26B
330
266
100
AcDbEntity
  8
Cotes
 62
     0
370
    -2
100
AcDbLine
 10
2620.045077891904
 20
291.9549221080956
 30
0.0
 11
2623.580611797837
 21
288.4193882021628
 31
0.0
  0
LINE
  5
26C
330
266
100
AcDbEntity
  8
Cotes
 62
     0
370
    -2
100
AcDbLine
 10
2605.902942268173
 20
306.0970577318268
 30
0.0
 11
2602.36740836224
 21
309.6325916377596
 31
0.0
  0
SOLID
  5
26D
330
266
100
AcDbEntity
  8
Cotes
 62
     0
100
AcDbTrace
 10
2620.634333542893
 20
292.5441777590844
 30
0.0
 11
2619.455822240915
 21
291.3656664571068
 31
0.0
 12
2616.509543985972
 22
295.4904560140284
 32
0.0
 13
2616.509543985972
 23
295.4904560140284
 33
0.0
  0
SOLID
  5
26E
330
266
100
AcDbEntity
  8
Cotes
 62
     0
100
AcDbTrace
 10
2605.313686617184
 20
305.507802080838
 30
0.0
 11
2606.492197919162
 21
306.6863133828156
 31
0.0
 12
2609.438476174106
 22
302.561523825894
 32
0.0
 13
2609.438476174106
 23
302.561523825894
 33
0.0
  0
MTEXT
  5
26F
330
266
100
AcDbEntity
  8
Cotes
 62
     0
100
AcDbMText
 10
2615.625660509489
 20
301.6776403494107
 30
0.0
 40
5.0
 41
0.0
 46
0.0
 71
     5
 72
     1
  1
\A1;10
 11
0.7071067811865361
 21
-0.7071067811865589
 31
0.0
 73
     1
 44
1.0
  0
POINT
  5
270
330
266
100
AcDbEntity
  8
Defpoints
 62
     0
100
AcDbPoint
 10
2639.038908883355
 20
318.0198209114112
 30
0.0
  0
POINT
  5
271
330
266
100
AcDbEntity
  8
Defpoints
 62
     0
100
AcDbPoint
 10
2631.96784107149
 20
325.0908887232767
 30
0.0
  0
POINT
  5
272
330
266
100
AcDbEntity
  8
Defpoints
 62
     0
100
AcDbPoint
 10
2609.438476174106
 20
302.561523825894
 30
0.0
  0
ENDBLK
  5
268
330
266
100
AcDbEntity
  8
0
100
AcDbBlockEnd
  0
BLOCK
  5
274
330
273
100
AcDbEntity
  8
0
100
AcDbBlockBegin
  2
*D11
 70
     1
 10
0.0
 20
0.0
 30
0.0
  3
*D11
  1
*D11
  0
ARC
  5
276
330
273
100
AcDbEntity
  8
Cotes
 62
     0
370
    -2
100
AcDbCircle
 10
2606.681169826983
 20
585.0436609429057
 30
0.0
 40
6.12811768365867
100
AcDbArc
 50
323.1529481705122
 51
41.8470518294885
  0
SOLID
  5
277
330
273
100
AcDbEntity
  8
Cotes
 62
     0
100
AcDbTrace
 10
2611.180149209707
 20
582.0970552870202
 30
0.0
 11
2611.990110150506
 21
580.6404355521005
 31
0.0
 12
2607.215270475347
 22
578.9388625971627
 32
0.0
 13
2607.215270475347
 23
578.9388625971627
 33
0.0
  0
SOLID
  5
278
330
273
100
AcDbEntity
  8
Cotes
 62
     0
100
AcDbTrace
 10
2611.586141650341
 20
589.8928353688284
 30
0.0
 11
2610.906215630353
 21
588.3711657643737
 31
0.0
 12
2606.681169826983
 22
591.1717786265643
 32
0.0
 13
2606.681169826983
 23
591.1717786265643
 33
0.0
  0
MTEXT
  5
279
330
273
100
AcDbEntity
  8
Cotes
 62
     0
100
AcDbMText
 10
2622.793937116305
 20
585.7471595556229
 30
0.0
 40
5.0
 41
0.0
 46
0.0
 71
     5
 72
     1
  1
\A1;175%%d
 73
     1
 44
1.0
  0
POINT
  5
27A
330
273
100
AcDbEntity
  8
Defpoints
 62
     0
100
AcDbPoint
 10
2612.157455812843
 20
582.2933667503085
 30
0.0
  0
POINT
  5
27B
330
273
100
AcDbEntity
  8
Defpoints
 62
     0
100
AcDbPoint
 10
2606.677364525074
 20
585.0871557427466
 30
0.0
  0
POINT
  5
27C
330
273
100
AcDbEntity
  8
Defpoints
 62
     0
100
AcDbPoint
 10
2606.681169826983
 20
600.0
 30
0.0
  0
POINT
  5
27D
330
273
100
AcDbEntity
  8
Defpoints
 62
     0
100
AcDbPoint
 10
2606.681169826983
 20
584.999999999999
 30
0.0
  0
POINT
  5
27E
330
273
100
AcDbEntity
  8
Defpoints
 62
     0
100
AcDbPoint
 10
2608.110417775458
 20
568.7072821382164
 30
0.0
  0
ENDBLK
  5
275
330
273
100
AcDbEntity
  8
0
100
AcDbBlockEnd
  0
BLOCK
  5
280
330
27F
100
AcDbEntity
  8
0
100
AcDbBlockBegin
  2
*D12
 70
     1
 10
0.0
 20
0.0
 30
0.0
  3
*D12
  1
*D12
  0
LINE
  5
282
330
27F
100
AcDbEntity
  8
Cotes
 62
     0
370
    -2
100
AcDbLine
 10
2630.37685081382
 20
325.2676654185733
 30
0.0
 11
2611.91632609747
 21
343.7281901349234
 31
0.0
  0
LINE
  5
283
330
27F
100
AcDbEntity
  8
Cotes
 62
     0
370
    -2
100
AcDbLine
 10
2628.705240057373
 20
319.0198209114112
 30
0.0
 11
2601.681784460969
 21
319.0198209114112
 31
0.0
  0
ARC
  5
284
330
27F
100
AcDbEntity
  8
Cotes
 62
     0
370
    -2
100
AcDbCircle
 10
2636.624695320982
 20
319.0198209114112
 30
0.0
 40
32.44291086001322
100
AcDbArc
 50
143.8390088616497
 51
171.1609911383509
  0
SOLID
  5
285
330
27F
100
AcDbEntity
  8
Cotes
 62
     0
100
AcDbTrace
 10
2611.064425159862
 20
337.6208627678663
 30
0.0
 11
2609.798603830459
 21
338.7050556196247
 31
0.0
 12
2613.684093050436
 22
341.960423181957
 32
0.0
 13
2613.684093050436
 23
341.960423181957
 33
0.0
  0
SOLID
  5
286
330
27F
100
AcDbEntity
  8
Cotes
 62
     0
100
AcDbTrace
 10
2603.736221163875
 20
324.0691691656642
 30
0.0
 11
2605.39793212726
 21
323.9407384374645
 31
0.0
 12
2604.181784460969
 22
319.0198209114112
 32
0.0
 13
2604.181784460969
 23
319.0198209114112
 33
0.0
  0
MTEXT
  5
287
330
27F
100
AcDbEntity
  8
Cotes
 62
     0
100
AcDbMText
 10
2603.076820096778
 20
332.9158058180766
 30
0.0
 40
5.0
 41
0.0
 46
0.0
 71
     5
 72
     1
  1
\A1;45%%d
 11
0.382683432365084
 21
0.9238795325112892
 31
0.0
 73
     1
 44
1.0
  0
POINT
  5
288
330
27F
100
AcDbEntity
  8
Defpoints
 62
     0
100
AcDbPoint
 10
2608.528310343496
 20
335.2412763414177
 30
0.0
  0
POINT
  5
289
330
27F
100
AcDbEntity
  8
Defpoints
 62
     0
100
AcDbPoint
 10
2636.624695320982
 20
319.0198209114112
 30
0.0
  0
POINT
  5
28A
330
27F
100
AcDbEntity
  8
Defpoints
 62
     0
100
AcDbPoint
 10
2629.955240057373
 20
319.0198209114112
 30
0.0
  0
POINT
  5
28B
330
27F
100
AcDbEntity
  8
Defpoints
 62
     0
100
AcDbPoint
 10
2636.624695320982
 20
319.0198209114112
 30
0.0
  0
POINT
  5
28C
330
27F
100
AcDbEntity
  8
Defpoints
 62
     0
100
AcDbPoint
 10
2631.260734290303
 20
324.3837819420901
 30
0.0
  0
ENDBLK
  5
281
330
27F
100
AcDbEntity
  8
0
100
AcDbBlockEnd
  0
BLOCK
  5
28E
330
28D
100
AcDbEntity
  8
0
100
AcDbBlockBegin
  2
*D13
 70
     1
 10
0.0
 20
0.0
 30
0.0
  3
*D13
  1
*D13
  0
LINE
  5
290
330
28D
100
AcDbEntity
  8
Cotes
 62
     0
370
    -2
100
AcDbLine
 10
2637.874695320982
 20
319.0198209114112
 30
0.0
 11
2649.077910064796
 21
319.0198209114112
 31
0.0
  0
ARC
  5
291
330
28D
100
AcDbEntity
  8
Cotes
 62
     0
370
    -2
100
AcDbCircle
 10
2629.955240057373
 20
319.0198209114112
 30
0.0
 40
16.62267000742368
100
AcDbArc
 50
17.29987004965708
 51
77.70012995034263
  0
SOLID
  5
292
330
28D
100
AcDbEntity
  8
Cotes
 62
     0
100
AcDbTrace
 10
2645.002070240787
 20
323.8376184677135
 30
0.0
 11
2646.649779708994
 21
324.0882801643486
 31
0.0
 12
2646.577910064796
 22
319.0198209114112
 32
0.0
 13
2646.577910064796
 23
319.0198209114112
 33
0.0
  0
SOLID
  5
293
330
28D
100
AcDbEntity
  8
Cotes
 62
     0
100
AcDbTrace
 10
2633.549387289475
 20
336.092578130215
 30
0.0
 11
2633.443286778807
 21
334.4292920876434
 31
0.0
 12
2628.506478906426
 22
335.5792366409353
 32
0.0
 13
2628.506478906426
 23
335.5792366409353
 33
0.0
  0
MTEXT
  5
294
330
28D
100
AcDbEntity
  8
Cotes
 62
     0
100
AcDbMText
 10
2643.799243823042
 20
334.127899909721
 30
0.0
 40
5.0
 41
0.0
 46
0.0
 71
     5
 72
     1
  1
\A1;95%%d
 11
0.7372773368101185
 21
-0.6755902076156662
 31
0.0
 73
     1
 44
1.0
  0
POINT
  5
295
330
28D
100
AcDbEntity
  8
Defpoints
 62
     0
100
AcDbPoint
 10
2644.103071641109
 20
327.7463333679384
 30
0.0
  0
POINT
  5
296
330
28D
100
AcDbEntity
  8
Defpoints
 62
     0
100
AcDbPoint
 10
2629.955240057373
 20
319.0198209114112
 30
0.0
  0
POINT
  5
297
330
28D
100
AcDbEntity
  8
Defpoints
 62
     0
100
AcDbPoint
 10
2628.262508392839
 20
338.3678323715683
 30
0.0
  0
POINT
  5
298
330
28D
100
AcDbEntity
  8
Defpoints
 62
     0
100
AcDbPoint
 10
2629.955240057373
 20
319.0198209114112
 30
0.0
  0
POINT
  5
299
330
28D
100
AcDbEntity
  8
Defpoints
 62
     0
100
AcDbPoint
 10
2636.624695320982
 20
319.0198209114112
 30
0.0
  0
ENDBLK
  5
28F
330
28D
100
AcDbEntity
  8
0
100
AcDbBlockEnd
  0
BLOCK
  5
29B
330
29A
100
AcDbEntity
  8
0
100
AcDbBlockBegin
  2
*D14
 70
     1
 10
0.0
 20
0.0
 30
0.0
  3
*D14
  1
*D14
  0
LINE
  5
29D
330
29A
100
AcDbEntity
  8
Cotes
 62
     0
370
    -2
100
AcDbLine
 10
-25.0
 20
316.7698209114112
 30
0.0
 11
-25.0
 21
257.2545941843937
 31
0.0
  0
LINE
  5
29E
330
29A
100
AcDbEntity
  8
Cotes
 62
     0
370
    -2
100
AcDbLine
 10
2502.0
 20
316.7698209114112
 30
0.0
 11
2502.0
 21
257.2545941843937
 31
0.0
  0
LINE
  5
29F
330
29A
100
AcDbEntity
  8
Cotes
 62
     0
370
    -2
100
AcDbLine
 10
-20.0
 20
259.7545941843937
 30
0.0
 11
2497.0
 21
259.7545941843937
 31
0.0
  0
SOLID
  5
2A0
330
29A
100
AcDbEntity
  8
Cotes
 62
     0
100
AcDbTrace
 10
-20.0
 20
260.587927517727
 30
0.0
 11
-20.0
 21
258.9212608510604
 31
0.0
 12
-25.0
 22
259.7545941843937
 32
0.0
 13
-25.0
 23
259.7545941843937
 33
0.0
  0
SOLID
  5
2A1
330
29A
100
AcDbEntity
  8
Cotes
 62
     0
100
AcDbTrace
 10
2497.0
 20
258.9212608510604
 30
0.0
 11
2497.0
 21
260.587927517727
 31
0.0
 12
2502.0
 22
259.7545941843937
 32
0.0
 13
2502.0
 23
259.7545941843937
 33
0.0
  0
MTEXT
  5
2A2
330
29A
100
AcDbEntity
  8
Cotes
 62
     0
100
AcDbMText
 10
1238.5
 20
263.5045941843937
 30
0.0
 40
5.0
 41
0.0
 46
0.0
 71
     5
 72
     1
  1
\A1;2527
 73
     1
 44
1.0
  0
POINT
  5
2A3
330
29A
100
AcDbEntity
  8
Defpoints
 62
     0
100
AcDbPoint
 10
-25.0
 20
318.0198209114112
 30
0.0
  0
POINT
  5
2A4
330
29A
100
AcDbEntity
  8
Defpoints
 62
     0
100
AcDbPoint
 10
2502.0
 20
318.0198209114112
 30
0.0
  0
POINT
  5
2A5
330
29A
100
AcDbEntity
  8
Defpoints
 62
     0
100
AcDbPoint
 10
2502.0
 20
259.7545941843937
 30
0.0
  0
ENDBLK
  5
29C
330
29A
100
AcDbEntity
  8
0
100
AcDbBlockEnd
  0
BLOCK
  5
2A7
330
2A6
100
AcDbEntity
  8
0
100
AcDbBlockBegin
  2
*D15
 70
     1
 10
0.0
 20
0.0
 30
0.0
  3
*D15
  1
*D15
  0
LINE
  5
2A9
330
2A6
100
AcDbEntity
  8
Cotes
 62
     0
370
    -2
100
AcDbLine
 10
40.0
 20
601.25
 30
0.0
 11
40.0
 21
658.9422600695832
 31
0.0
  0
LINE
  5
2AA
330
2A6
100
AcDbEntity
  8
Cotes
 62
     0
370
    -2
100
AcDbLine
 10
2437.0
 20
601.25
 30
0.0
 11
2437.0
 21
658.9422600695832
 31
0.0
  0
LINE
  5
2AB
330
2A6
100
AcDbEntity
  8
Cotes
 62
     0
370
    -2
100
AcDbLine
 10
45.0
 20
656.4422600695832
 30
0.0
 11
2432.0
 21
656.4422600695832
 31
0.0
  0
SOLID
  5
2AC
330
2A6
100
AcDbEntity
  8
Cotes
 62
     0
100
AcDbTrace
 10
45.0
 20
657.2755934029166
 30
0.0
 11
45.0
 21
655.6089267362498
 31
0.0
 12
40.0
 22
656.4422600695832
 32
0.0
 13
40.0
 23
656.4422600695832
 33
0.0
  0
SOLID
  5
2AD
330
2A6
100
AcDbEntity
  8
Cotes
 62
     0
100
AcDbTrace
 10
2432.0
 20
655.6089267362498
 30
0.0
 11
2432.0
 21
657.2755934029166
 31
0.0
 12
2437.0
 22
656.4422600695832
 32
0.0
 13
2437.0
 23
656.4422600695832
 33
0.0
  0
MTEXT
  5
2AE
330
2A6
100
AcDbEntity
  8
Cotes
 62
     0
100
AcDbMText
 10
1238.5
 20
660.1922600695832
 30
0.0
 40
5.0
 41
0.0
 46
0.0
 71
     5
 72
     1
  1
\A1;2397
 73
     1
 44
1.0
  0
POINT
  5
2AF
330
2A6
100
AcDbEntity
  8
Defpoints
 62
     0
100
AcDbPoint
 10
40.0
 20
600.0
 30
0.0
  0
POINT
  5
2B0
330
2A6
100
AcDbEntity
  8
Defpoints
 62
     0
100
AcDbPoint
 10
2437.0
 20
600.0
 30
0.0
  0
POINT
  5
2B1
330
2A6
100
AcDbEntity
  8
Defpoints
 62
     0
100
AcDbPoint
 10
2437.0
 20
656.4422600695832
 30
0.0
  0
ENDBLK
  5
2A8
330
2A6
100
AcDbEntity
  8
0
100
AcDbBlockEnd
  0
BLOCK
  5
2B3
330
2B2
100
AcDbEntity
  8
0
100
AcDbBlockBegin
  2
*D16
 70
     1
 10
0.0
 20
0.0
 30
0.0
  3
*D16
  1
*D16
  0
LINE
  5
2B5
330
2B2
100
AcDbEntity
  8
Cotes
 62
     0
370
    -2
100
AcDbLine
 10
2604.951406932449
 20
-1647.0
 30
0.0
 11
2636.201406932449
 21
-1647.0
 31
0.0
  0
LINE
  5
2B6
330
2B2
100
AcDbEntity
  8
Cotes
 62
     0
370
    -2
100
AcDbLine
 10
2634.951406932449
 20
-1624.0
 30
0.0
 11
2636.201406932449
 21
-1624.0
 31
0.0
  0
LINE
  5
2B7
330
2B2
100
AcDbEntity
  8
Cotes
 62
     0
370
    -2
100
AcDbLine
 10
2633.701406932449
 20
-1642.0
 30
0.0
 11
2633.701406932449
 21
-1629.0
 31
0.0
  0
SOLID
  5
2B8
330
2B2
100
AcDbEntity
  8
Cotes
 62
     0
100
AcDbTrace
 10
2632.868073599115
 20
-1642.0
 30
0.0
 11
2634.534740265782
 21
-1642.0
 31
0.0
 12
2633.701406932449
 22
-1647.0
 32
0.0
 13
2633.701406932449
 23
-1647.0
 33
0.0
  0
SOLID
  5
2B9
330
2B2
100
AcDbEntity
  8
Cotes
 62
     0
100
AcDbTrace
 10
2634.534740265782
 20
-1629.0
 30
0.0
 11
2632.868073599115
 21
-1629.0
 31
0.0
 12
2633.701406932449
 22
-1624.0
 32
0.0
 13
2633.701406932449
 23
-1624.0
 33
0.0
  0
MTEXT
  5
2BA
330
2B2
100
AcDbEntity
  8
Cotes
 62
     0
100
AcDbMText
 10
2629.951406932449
 20
-1635.5
 30
0.0
 40
5.0
 41
0.0
 46
0.0
 71
     5
 72
     1
  1
\A1;23
 11
0.0
 21
1.0
 31
0.0
 73
     1
 44
1.0
  0
POINT
  5
2BB
330
2B2
100
AcDbEntity
  8
Defpoints
 62
     0
100
AcDbPoint
 10
2603.701406932449
 20
-1647.0
 30
0.0
  0
POINT
  5
2BC
330
2B2
100
AcDbEntity
  8
Defpoints
 62
     0
100
AcDbPoint
 10
2633.701406932449
 20
-1624.0
 30
0.0
  0
POINT
  5
2BD
330
2B2
100
AcDbEntity
  8
Defpoints
 62
     0
100
AcDbPoint
 10
2633.701406932449
 20
-1624.0
 30
0.0
  0
ENDBLK
  5
2B4
330
2B2
100
AcDbEntity
  8
0
100
AcDbBlockEnd
  0
BLOCK
  5
2BF
330
2BE
100
AcDbEntity
  8
0
100
AcDbBlockBegin
  2
*D17
 70
     1
 10
0.0
 20
0.0
 30
0.0
  3
*D17
  1
*D17
  0
LINE
  5
2C1
330
2BE
100
AcDbEntity
  8
Cotes
 62
     0
370
    -2
100
AcDbLine
 10
2539.951406932449
 20
-1648.5
 30
0.0
 11
2562.5
 21
-1648.5
 31
0.0
  0
LINE
  5
2C2
330
2BE
100
AcDbEntity
  8
Cotes
 62
     0
370
    -2
100
AcDbLine
 10
2539.951406932449
 20
-1400.5
 30
0.0
 11
2562.5
 21
-1400.5
 31
0.0
  0
LINE
  5
2C3
330
2BE
100
AcDbEntity
  8
Cotes
 62
     0
370
    -2
100
AcDbLine
 10
2560.0
 20
-1643.5
 30
0.0
 11
2560.0
 21
-1405.5
 31
0.0
  0
SOLID
  5
2C4
330
2BE
100
AcDbEntity
  8
Cotes
 62
     0
100
AcDbTrace
 10
2559.166666666667
 20
-1643.5
 30
0.0
 11
2560.833333333333
 21
-1643.5
 31
0.0
 12
2560.0
 22
-1648.5
 32
0.0
 13
2560.0
 23
-1648.5
 33
0.0
  0
SOLID
  5
2C5
330
2BE
100
AcDbEntity
  8
Cotes
 62
     0
100
AcDbTrace
 10
2560.833333333333
 20
-1405.5
 30
0.0
 11
2559.166666666667
 21
-1405.5
 31
0.0
 12
2560.0
 22
-1400.5
 32
0.0
 13
2560.0
 23
-1400.5
 33
0.0
  0
MTEXT
  5
2C6
330
2BE
100
AcDbEntity
  8
Cotes
 62
     0
100
AcDbMText
 10
2556.25
 20
-1524.5
 30
0.0
 40
5.0
 41
0.0
 46
0.0
 71
     5
 72
     1
  1
\A1;248
 11
0.0
 21
1.0
 31
0.0
 73
     1
 44
1.0
  0
POINT
  5
2C7
330
2BE
100
AcDbEntity
  8
Defpoints
 62
     0
100
AcDbPoint
 10
2538.701406932449
 20
-1648.5
 30
0.0
  0
POINT
  5
2C8
330
2BE
100
AcDbEntity
  8
Defpoints
 62
     0
100
AcDbPoint
 10
2538.701406932449
 20
-1400.5
 30
0.0
  0
POINT
  5
2C9
330
2BE
100
AcDbEntity
  8
Defpoints
 62
     0
100
AcDbPoint
 10
2560.0
 20
-1400.5
 30
0.0
  0
ENDBLK
  5
2C0
330
2BE
100
AcDbEntity
  8
0
100
AcDbBlockEnd
  0
BLOCK
  5
2CB
330
2CA
100
AcDbEntity
  8
0
100
AcDbBlockBegin
  2
*D18
 70
     1
 10
0.0
 20
0.0
 30
0.0
  3
*D18
  1
*D18
  0
LINE
  5
2CD
330
2CA
100
AcDbEntity
  8
Cotes
 62
     0
370
    -2
100
AcDbLine
 10
2538.701406932449
 20
-1649.75
 30
0.0
 11
2538.701406932449
 21
-1664.5
 31
0.0
  0
LINE
  5
2CE
330
2CA
100
AcDbEntity
  8
Cotes
 62
     0
370
    -2
100
AcDbLine
 10
2603.701406932449
 20
-1651.25
 30
0.0
 11
2603.701406932449
 21
-1664.5
 31
0.0
  0
LINE
  5
2CF
330
2CA
100
AcDbEntity
  8
Cotes
 62
     0
370
    -2
100
AcDbLine
 10
2543.701406932449
 20
-1662.0
 30
0.0
 11
2598.701406932449
 21
-1662.0
 31
0.0
  0
SOLID
  5
2D0
330
2CA
100
AcDbEntity
  8
Cotes
 62
     0
100
AcDbTrace
 10
2543.701406932449
 20
-1661.166666666667
 30
0.0
 11
2543.701406932449
 21
-1662.833333333333
 31
0.0
 12
2538.701406932449
 22
-1662.0
 32
0.0
 13
2538.701406932449
 23
-1662.0
 33
0.0
  0
SOLID
  5
2D1
330
2CA
100
AcDbEntity
  8
Cotes
 62
     0
100
AcDbTrace
 10
2598.701406932449
 20
-1662.833333333333
 30
0.0
 11
2598.701406932449
 21
-1661.166666666667
 31
0.0
 12
2603.701406932449
 22
-1662.0
 32
0.0
 13
2603.701406932449
 23
-1662.0
 33
0.0
  0
MTEXT
  5
2D2
330
2CA
100
AcDbEntity
  8
Cotes
 62
     0
100
AcDbMText
 10
2571.201406932449
 20
-1658.25
 30
0.0
 40
5.0
 41
0.0
 46
0.0
 71
     5
 72
     1
  1
\A1;65
 73
     1
 44
1.0
  0
POINT
  5
2D3
330
2CA
100
AcDbEntity
  8
Defpoints
 62
     0
100
AcDbPoint
 10
2538.701406932449
 20
-1648.5
 30
0.0
  0
POINT
  5
2D4
330
2CA
100
AcDbEntity
  8
Defpoints
 62
     0
100
AcDbPoint
 10
2603.701406932449
 20
-1650.0
 30
0.0
  0
POINT
  5
2D5
330
2CA
100
AcDbEntity
  8
Defpoints
 62
     0
100
AcDbPoint
 10
2603.701406932449
 20
-1662.0
 30
0.0
  0
ENDBLK
  5
2CC
330
2CA
100
AcDbEntity
  8
0
100
AcDbBlockEnd
  0
BLOCK
  5
2D7
330
2D6
100
AcDbEntity
  8
0
100
AcDbBlockBegin
  2
*D19
 70
     1
 10
0.0
 20
0.0
 30
0.0
  3
*D19
  1
*D19
  0
LINE
  5
2D9
330
2D6
100
AcDbEntity
  8
Cotes
 62
     0
370
    -2
100
AcDbLine
 10
2603.701406932449
 20
-1648.25
 30
0.0
 11
2603.701406932449
 21
-1660.5
 31
0.0
  0
LINE
  5
2DA
330
2D6
100
AcDbEntity
  8
Cotes
 62
     0
370
    -2
100
AcDbLine
 10
2583.701406932449
 20
-1648.25
 30
0.0
 11
2583.701406932449
 21
-1660.5
 31
0.0
  0
LINE
  5
2DB
330
2D6
100
AcDbEntity
  8
Cotes
 62
     0
370
    -2
100
AcDbLine
 10
2598.701406932449
 20
-1658.0
 30
0.0
 11
2588.701406932449
 21
-1658.0
 31
0.0
  0
SOLID
  5
2DC
330
2D6
100
AcDbEntity
  8
Cotes
 62
     0
100
AcDbTrace
 10
2598.701406932449
 20
-1658.833333333333
 30
0.0
 11
2598.701406932449
 21
-1657.166666666667
 31
0.0
 12
2603.701406932449
 22
-1658.0
 32
0.0
 13
2603.701406932449
 23
-1658.0
 33
0.0
  0
SOLID
  5
2DD
330
2D6
100
AcDbEntity
  8
Cotes
 62
     0
100
AcDbTrace
 10
2588.701406932449
 20
-1657.166666666667
 30
0.0
 11
2588.701406932449
 21
-1658.833333333333
 31
0.0
 12
2583.701406932449
 22
-1658.0
 32
0.0
 13
2583.701406932449
 23
-1658.0
 33
0.0
  0
MTEXT
  5
2DE
330
2D6
100
AcDbEntity
  8
Cotes
 62
     0
100
AcDbMText
 10
2593.701406932449
 20
-1654.25
 30
0.0
 40
5.0
 41
0.0
 46
0.0
 71
     5
 72
     1
  1
\A1;20
 73
     1
 44
1.0
  0
POINT
  5
2DF
330
2D6
100
AcDbEntity
  8
Defpoints
 62
     0
100
AcDbPoint
 10
2603.701406932449
 20
-1647.0
 30
0.0
  0
POINT
  5
2E0
330
2D6
100
AcDbEntity
  8
Defpoints
 62
     0
100
AcDbPoint
 10
2583.701406932449
 20
-1647.0
 30
0.0
  0
POINT
  5
2E1
330
2D6
100
AcDbEntity
  8
Defpoints
 62
     0
100
AcDbPoint
 10
2583.701406932449
 20
-1658.0
 30
0.0
  0
ENDBLK
  5
2D8
330
2D6
100
AcDbEntity
  8
0
100
AcDbBlockEnd
  0
BLOCK
  5
2E3
330
2E2
100
AcDbEntity
  8
0
100
AcDbBlockBegin
  2
*D20
 70
     1
 10
0.0
 20
0.0
 30
0.0
  3
*D20
  1
*D20
  0
LINE
  5
2E5
330
2E2
100
AcDbEntity
  8
Cotes
 62
     0
370
    -2
100
AcDbLine
 10
1699.25
 20
-4110.0
 30
0.0
 11
1637.999999999999
 21
-4110.0
 31
0.0
  0
LINE
  5
2E6
330
2E2
100
AcDbEntity
  8
Cotes
 62
     0
370
    -2
100
AcDbLine
 10
1699.25
 20
-2000.0
 30
0.0
 11
1638.0
 21
-2000.0
 31
0.0
  0
LINE
  5
2E7
330
2E2
100
AcDbEntity
  8
Cotes
 62
     0
370
    -2
100
AcDbLine
 10
1640.499999999999
 20
-4105.0
 30
0.0
 11
1640.5
 21
-2005.0
 31
0.0
  0
SOLID
  5
2E8
330
2E2
100
AcDbEntity
  8
Cotes
 62
     0
100
AcDbTrace
 10
1639.666666666666
 20
-4105.0
 30
0.0
 11
1641.333333333332
 21
-4105.0
 31
0.0
 12
1640.499999999999
 22
-4110.0
 32
0.0
 13
1640.499999999999
 23
-4110.0
 33
0.0
  0
SOLID
  5
2E9
330
2E2
100
AcDbEntity
  8
Cotes
 62
     0
100
AcDbTrace
 10
1641.333333333333
 20
-2005.0
 30
0.0
 11
1639.666666666667
 21
-2005.0
 31
0.0
 12
1640.5
 22
-2000.0
 32
0.0
 13
1640.5
 23
-2000.0
 33
0.0
  0
MTEXT
  5
2EA
330
2E2
100
AcDbEntity
  8
Cotes
 62
     0
100
AcDbMText
 10
1636.75
 20
-3055.0
 30
0.0
 40
5.0
 41
0.0
 46
0.0
 71
     5
 72
     1
  1
\A1;2110
 11
3.232801072652588E-16
 21
1.0
 31
0.0
 73
     1
 44
1.0
  0
POINT
  5
2EB
330
2E2
100
AcDbEntity
  8
Defpoints
 62
     0
100
AcDbPoint
 10
1700.5
 20
-4110.0
 30
0.0
  0
POINT
  5
2EC
330
2E2
100
AcDbEntity
  8
Defpoints
 62
     0
100
AcDbPoint
 10
1700.5
 20
-2000.0
 30
0.0
  0
POINT
  5
2ED
330
2E2
100
AcDbEntity
  8
Defpoints
 62
     0
100
AcDbPoint
 10
1640.5
 20
-2000.0
 30
0.0
  0
ENDBLK
  5
2E4
330
2E2
100
AcDbEntity
  8
0
100
AcDbBlockEnd
  0
BLOCK
  5
2EF
330
2EE
100
AcDbEntity
  8
0
100
AcDbBlockBegin
  2
*D21
 70
     1
 10
0.0
 20
0.0
 30
0.0
  3
*D21
  1
*D21
  0
LINE
  5
2F1
330
2EE
100
AcDbEntity
  8
Cotes
 62
     0
370
    -2
100
AcDbLine
 10
1951.25
 20
-2000.0
 30
0.0
 11
2053.0
 21
-2000.0
 31
0.0
  0
LINE
  5
2F2
330
2EE
100
AcDbEntity
  8
Cotes
 62
     0
370
    -2
100
AcDbLine
 10
1951.249999999999
 20
-4131.828421549715
 30
0.0
 11
2053.0
 21
-4131.828421549715
 31
0.0
  0
LINE
  5
2F3
330
2EE
100
AcDbEntity
  8
Cotes
 62
     0
370
    -2
100
AcDbLine
 10
2050.5
 20
-2005.0
 30
0.0
 11
2050.5
 21
-4126.828421549715
 31
0.0
  0
SOLID
  5
2F4
330
2EE
100
AcDbEntity
  8
Cotes
 62
     0
100
AcDbTrace
 10
2051.333333333333
 20
-2005.0
 30
0.0
 11
2049.666666666667
 21
-2005.0
 31
0.0
 12
2050.5
 22
-2000.0
 32
0.0
 13
2050.5
 23
-2000.0
 33
0.0
  0
SOLID
  5
2F5
330
2EE
100
AcDbEntity
  8
Cotes
 62
     0
100
AcDbTrace
 10
2049.666666666666
 20
-4126.828421549715
 30
0.0
 11
2051.333333333333
 21
-4126.828421549715
 31
0.0
 12
2050.5
 22
-4131.828421549715
 32
0.0
 13
2050.5
 23
-4131.828421549715
 33
0.0
  0
MTEXT
  5
2F6
330
2EE
100
AcDbEntity
  8
Cotes
 62
     0
100
AcDbMText
 10
2046.75
 20
-3065.914210774858
 30
0.0
 40
5.0
 41
0.0
 46
0.0
 71
     5
 72
     1
  1
\A1;2131.8284
 11
2.133132977727586E-16
 21
1.0
 31
0.0
 73
     1
 44
1.0
  0
POINT
  5
2F7
330
2EE
100
AcDbEntity
  8
Defpoints
 62
     0
100
AcDbPoint
 10
1950.0
 20
-2000.0
 30
0.0
  0
POINT
  5
2F8
330
2EE
100
AcDbEntity
  8
Defpoints
 62
     0
100
AcDbPoint
 10
1949.999999999999
 20
-4131.828421549715
 30
0.0
  0
POINT
  5
2F9
330
2EE
100
AcDbEntity
  8
Defpoints
 62
     0
100
AcDbPoint
 10
2050.5
 20
-4131.828421549715
 30
0.0
  0
ENDBLK
  5
2F0
330
2EE
100
AcDbEntity
  8
0
100
AcDbBlockEnd
  0
BLOCK
  5
2FB
330
2FA
100
AcDbEntity
  8
0
100
AcDbBlockBegin
  2
*D22
 70
     1
 10
0.0
 20
0.0
 30
0.0
  3
*D22
  1
*D22
  0
ARC
  5
2FD
330
2FA
100
AcDbEntity
  8
Cotes
 62
     0
370
    -2
100
AcDbCircle
 10
1700.5
 20
-4110.0
 30
0.0
 40
76.1577310586393
100
AcDbArc
 50
358.7623281247909
 51
86.23767187520959
  0
SOLID
  5
2FE
330
2FA
100
AcDbEntity
  8
Cotes
 62
     0
100
AcDbTrace
 10
1775.807864258228
 20
-4111.599650194603
 30
0.0
 11
1777.472062321569
 21
-4111.690328658131
 31
0.0
 12
1776.367927899313
 22
-4116.637583616392
 32
0.0
 13
1776.367927899313
 23
-4116.637583616392
 33
0.0
  0
SOLID
  5
2FF
330
2FA
100
AcDbEntity
  8
Cotes
 62
     0
100
AcDbTrace
 10
1705.524660815192
 20
-4033.173517764378
 30
0.0
 11
1705.4699498015
 21
-4034.839286200493
 31
0.0
 12
1700.5
 22
-4033.842268941361
 32
0.0
 13
1700.5
 23
-4033.842268941361
 33
0.0
  0
MTEXT
  5
300
330
2FA
100
AcDbEntity
  8
Cotes
 62
     0
100
AcDbMText
 10
1759.501930256977
 20
-4055.934691978328
 30
0.0
 40
5.0
 41
0.0
 46
0.0
 71
     5
 72
     1
  1
\A1;95%%d
 11
0.6755902076156654
 21
-0.7372773368101195
 31
0.0
 73
     1
 44
1.0
  0
POINT
  5
301
330
2FA
100
AcDbEntity
  8
Defpoints
 62
     0
100
AcDbPoint
 10
1768.557034286971
 20
-4075.820472734955
 30
0.0
  0
POINT
  5
302
330
2FA
100
AcDbEntity
  8
Defpoints
 62
     0
100
AcDbPoint
 10
1700.5
 20
-4110.0
 30
0.0
  0
POINT
  5
303
330
2FA
100
AcDbEntity
  8
Defpoints
 62
     0
100
AcDbPoint
 10
1700.5
 20
-3900.77008291276
 30
0.0
  0
POINT
  5
304
330
2FA
100
AcDbEntity
  8
Defpoints
 62
     0
100
AcDbPoint
 10
1700.5
 20
-4110.0
 30
0.0
  0
POINT
  5
305
330
2FA
100
AcDbEntity
  8
Defpoints
 62
     0
100
AcDbPoint
 10
1834.030066145842
 20
-4121.682367027626
 30
0.0
  0
ENDBLK
  5
2FC
330
2FA
100
AcDbEntity
  8
0
100
AcDbBlockEnd
  0
BLOCK
  5
308
330
307
100
AcDbEntity
  8
0
100
AcDbBlockBegin
  2
*D23
 70
     1
 10
0.0
 20
0.0
 30
0.0
  3
*D23
  1
*D23
  0
LINE
  5
30A
330
307
100
AcDbEntity
  8
Cotes
 62
     0
370
    -2
100
AcDbLine
 10
-538.7014069324487
 20
-1649.75
 30
0.0
 11
-538.7014069324487
 21
-1664.5
 31
0.0
  0
LINE
  5
30B
330
307
100
AcDbEntity
  8
Cotes
 62
     0
370
    -2
100
AcDbLine
 10
-603.7014069324487
 20
-1651.25
 30
0.0
 11
-603.7014069324487
 21
-1664.5
 31
0.0
  0
LINE
  5
30C
330
307
100
AcDbEntity
  8
Cotes
 62
     0
370
    -2
100
AcDbLine
 10
-543.7014069324487
 20
-1662.0
 30
0.0
 11
-598.7014069324487
 21
-1662.0
 31
0.0
  0
SOLID
  5
30D
330
307
100
AcDbEntity
  8
Cotes
 62
     0
100
AcDbTrace
 10
-543.7014069324487
 20
-1662.833333333333
 30
0.0
 11
-543.7014069324487
 21
-1661.166666666666
 31
0.0
 12
-538.7014069324487
 22
-1662.0
 32
0.0
 13
-538.7014069324487
 23
-1662.0
 33
0.0
  0
SOLID
  5
30E
330
307
100
AcDbEntity
  8
Cotes
 62
     0
100
AcDbTrace
 10
-598.7014069324487
 20
-1661.166666666666
 30
0.0
 11
-598.7014069324487
 21
-1662.833333333333
 31
0.0
 12
-603.7014069324487
 22
-1662.0
 32
0.0
 13
-603.7014069324487
 23
-1662.0
 33
0.0
  0
MTEXT
  5
30F
330
307
100
AcDbEntity
  8
Cotes
 62
     0
100
AcDbMText
 10
-571.2014069324487
 20
-1658.25
 30
0.0
 40
5.0
 41
0.0
 46
0.0
 71
     5
 72
     1
  1
\A1;65
 73
     1
 44
1.0
  0
POINT
  5
310
330
307
100
AcDbEntity
  8
Defpoints
 62
     0
100
AcDbPoint
 10
-538.7014069324487
 20
-1648.5
 30
0.0
  0
POINT
  5
311
330
307
100
AcDbEntity
  8
Defpoints
 62
     0
100
AcDbPoint
 10
-603.7014069324487
 20
-1650.0
 30
0.0
  0
POINT
  5
312
330
307
100
AcDbEntity
  8
Defpoints
 62
     0
100
AcDbPoint
 10
-603.7014069324487
 20
-1662.0
 30
0.0
  0
ENDBLK
  5
309
330
307
100
AcDbEntity
  8
0
100
AcDbBlockEnd
  0
BLOCK
  5
314
330
313
100
AcDbEntity
  8
0
100
AcDbBlockBegin
  2
*D24
 70
     1
 10
0.0
 20
0.0
 30
0.0
  3
*D24
  1
*D24
  0
LINE
  5
316
330
313
100
AcDbEntity
  8
Cotes
 62
     0
370
    -2
100
AcDbLine
 10
-603.7014069324489
 20
-1648.249999999999
 30
0.0
 11
-603.7014069324489
 21
-1660.499999999999
 31
0.0
  0
LINE
  5
317
330
313
100
AcDbEntity
  8
Cotes
 62
     0
370
    -2
100
AcDbLine
 10
-583.7014069324491
 20
-1648.249999999999
 30
0.0
 11
-583.7014069324491
 21
-1660.499999999999
 31
0.0
  0
LINE
  5
318
330
313
100
AcDbEntity
  8
Cotes
 62
     0
370
    -2
100
AcDbLine
 10
-598.7014069324489
 20
-1657.999999999999
 30
0.0
 11
-588.7014069324491
 21
-1657.999999999999
 31
0.0
  0
SOLID
  5
319
330
313
100
AcDbEntity
  8
Cotes
 62
     0
100
AcDbTrace
 10
-598.7014069324489
 20
-1657.166666666666
 30
0.0
 11
-598.7014069324489
 21
-1658.833333333332
 31
0.0
 12
-603.7014069324489
 22
-1657.999999999999
 32
0.0
 13
-603.7014069324489
 23
-1657.999999999999
 33
0.0
  0
SOLID
  5
31A
330
313
100
AcDbEntity
  8
Cotes
 62
     0
100
AcDbTrace
 10
-588.7014069324491
 20
-1658.833333333332
 30
0.0
 11
-588.7014069324491
 21
-1657.166666666666
 31
0.0
 12
-583.7014069324491
 22
-1657.999999999999
 32
0.0
 13
-583.7014069324491
 23
-1657.999999999999
 33
0.0
  0
MTEXT
  5
31B
330
313
100
AcDbEntity
  8
Cotes
 62
     0
100
AcDbMText
 10
-593.701406932449
 20
-1654.249999999999
 30
0.0
 40
5.0
 41
0.0
 46
0.0
 71
     5
 72
     1
  1
\A1;20
 73
     1
 44
1.0
  0
POINT
  5
31C
330
313
100
AcDbEntity
  8
Defpoints
 62
     0
100
AcDbPoint
 10
-603.7014069324489
 20
-1646.999999999999
 30
0.0
  0
POINT
  5
31D
330
313
100
AcDbEntity
  8
Defpoints
 62
     0
100
AcDbPoint
 10
-583.7014069324491
 20
-1646.999999999999
 30
0.0
  0
POINT
  5
31E
330
313
100
AcDbEntity
  8
Defpoints
 62
     0
100
AcDbPoint
 10
-583.7014069324491
 20
-1657.999999999999
 30
0.0
  0
ENDBLK
  5
315
330
313
100
AcDbEntity
  8
0
100
AcDbBlockEnd
  0
BLOCK
  5
320
330
31F
100
AcDbEntity
  8
0
100
AcDbBlockBegin
  2
*D25
 70
     1
 10
0.0
 20
0.0
 30
0.0
  3
*D25
  1
*D25
  0
LINE
  5
322
330
31F
100
AcDbEntity
  8
Cotes
 62
     0
370
    -2
100
AcDbLine
 10
300.7500000000001
 20
-4110.0
 30
0.0
 11
362.0000000000007
 21
-4110.0
 31
0.0
  0
LINE
  5
323
330
31F
100
AcDbEntity
  8
Cotes
 62
     0
370
    -2
100
AcDbLine
 10
300.75
 20
-2000.0
 30
0.0
 11
362.0000000000013
 21
-2000.0
 31
0.0
  0
LINE
  5
324
330
31F
100
AcDbEntity
  8
Cotes
 62
     0
370
    -2
100
AcDbLine
 10
359.5000000000007
 20
-4105.0
 30
0.0
 11
359.5000000000013
 21
-2005.0
 31
0.0
  0
SOLID
  5
325
330
31F
100
AcDbEntity
  8
Cotes
 62
     0
100
AcDbTrace
 10
358.6666666666674
 20
-4105.0
 30
0.0
 11
360.333333333334
 21
-4105.0
 31
0.0
 12
359.5000000000007
 22
-4110.0
 32
0.0
 13
359.5000000000007
 23
-4110.0
 33
0.0
  0
SOLID
  5
326
330
31F
100
AcDbEntity
  8
Cotes
 62
     0
100
AcDbTrace
 10
360.3333333333346
 20
-2005.0
 30
0.0
 11
358.666666666668
 21
-2005.0
 31
0.0
 12
359.5000000000013
 22
-2000.0
 32
0.0
 13
359.5000000000013
 23
-2000.0
 33
0.0
  0
MTEXT
  5
327
330
31F
100
AcDbEntity
  8
Cotes
 62
     0
100
AcDbMText
 10
355.750000000001
 20
-3055.0
 30
0.0
 40
5.0
 41
0.0
 46
0.0
 71
     5
 72
     1
  1
\A1;2110
 11
2.963400983264873E-16
 21
1.0
 31
0.0
 73
     1
 44
1.0
  0
POINT
  5
328
330
31F
100
AcDbEntity
  8
Defpoints
 62
     0
100
AcDbPoint
 10
299.5000000000001
 20
-4110.0
 30
0.0
  0
POINT
  5
329
330
31F
100
AcDbEntity
  8
Defpoints
 62
     0
100
AcDbPoint
 10
299.5
 20
-2000.0
 30
0.0
  0
POINT
  5
32A
330
31F
100
AcDbEntity
  8
Defpoints
 62
     0
100
AcDbPoint
 10
359.5000000000013
 20
-2000.0
 30
0.0
  0
ENDBLK
  5
321
330
31F
100
AcDbEntity
  8
0
100
AcDbBlockEnd
  0
BLOCK
  5
32C
330
32B
100
AcDbEntity
  8
0
100
AcDbBlockBegin
  2
*D26
 70
     1
 10
0.0
 20
0.0
 30
0.0
  3
*D26
  1
*D26
  0
LINE
  5
32E
330
32B
100
AcDbEntity
  8
Cotes
 62
     0
370
    -2
100
AcDbLine
 10
48.74999999999977
 20
-2000.0
 30
0.0
 11
-53.00000000000045
 21
-2000.0
 31
0.0
  0
LINE
  5
32F
330
32B
100
AcDbEntity
  8
Cotes
 62
     0
370
    -2
100
AcDbLine
 10
48.75000000000011
 20
-4131.828421549715
 30
0.0
 11
-53.00000000000106
 21
-4131.828421549715
 31
0.0
  0
LINE
  5
330
330
32B
100
AcDbEntity
  8
Cotes
 62
     0
370
    -2
100
AcDbLine
 10
-50.50000000000045
 20
-2005.0
 30
0.0
 11
-50.50000000000106
 21
-4126.828421549715
 31
0.0
  0
SOLID
  5
331
330
32B
100
AcDbEntity
  8
Cotes
 62
     0
100
AcDbTrace
 10
-49.66666666666712
 20
-2005.0
 30
0.0
 11
-51.33333333333379
 21
-2005.0
 31
0.0
 12
-50.50000000000045
 22
-2000.0
 32
0.0
 13
-50.50000000000045
 23
-2000.0
 33
0.0
  0
SOLID
  5
332
330
32B
100
AcDbEntity
  8
Cotes
 62
     0
100
AcDbTrace
 10
-51.33333333333439
 20
-4126.828421549715
 30
0.0
 11
-49.66666666666772
 21
-4126.828421549715
 31
0.0
 12
-50.50000000000106
 22
-4131.828421549715
 32
0.0
 13
-50.50000000000106
 23
-4131.828421549715
 33
0.0
  0
MTEXT
  5
333
330
32B
100
AcDbEntity
  8
Cotes
 62
     0
100
AcDbMText
 10
-54.25000000000075
 20
-3065.914210774858
 30
0.0
 40
5.0
 41
0.0
 46
0.0
 71
     5
 72
     1
  1
\A1;2131.8284
 11
2.833067236044448E-16
 21
1.0
 31
0.0
 73
     1
 44
1.0
  0
POINT
  5
334
330
32B
100
AcDbEntity
  8
Defpoints
 62
     0
100
AcDbPoint
 10
49.99999999999977
 20
-2000.0
 30
0.0
  0
POINT
  5
335
330
32B
100
AcDbEntity
  8
Defpoints
 62
     0
100
AcDbPoint
 10
50.00000000000011
 20
-4131.828421549715
 30
0.0
  0
POINT
  5
336
330
32B
100
AcDbEntity
  8
Defpoints
 62
     0
100
AcDbPoint
 10
-50.50000000000106
 20
-4131.828421549715
 30
0.0
  0
ENDBLK
  5
32D
330
32B
100
AcDbEntity
  8
0
100
AcDbBlockEnd
  0
BLOCK
  5
338
330
337
100
AcDbEntity
  8
0
100
AcDbBlockBegin
  2
*D27
 70
     1
 10
0.0
 20
0.0
 30
0.0
  3
*D27
  1
*D27
  0
LINE
  5
33A
330
337
100
AcDbEntity
  8
Cotes
 62
     0
370
    -2
100
AcDbLine
 10
-604.9514069324489
 20
-1646.999999999999
 30
0.0
 11
-636.2014069324489
 21
-1646.999999999999
 31
0.0
  0
LINE
  5
33B
330
337
100
AcDbEntity
  8
Cotes
 62
     0
370
    -2
100
AcDbLine
 10
-634.9514069324489
 20
-1623.999999999999
 30
0.0
 11
-636.2014069324489
 21
-1623.999999999999
 31
0.0
  0
LINE
  5
33C
330
337
100
AcDbEntity
  8
Cotes
 62
     0
370
    -2
100
AcDbLine
 10
-633.7014069324489
 20
-1641.999999999999
 30
0.0
 11
-633.7014069324489
 21
-1628.999999999999
 31
0.0
  0
SOLID
  5
33D
330
337
100
AcDbEntity
  8
Cotes
 62
     0
100
AcDbTrace
 10
-634.5347402657823
 20
-1641.999999999999
 30
0.0
 11
-632.8680735991155
 21
-1641.999999999999
 31
0.0
 12
-633.7014069324489
 22
-1646.999999999999
 32
0.0
 13
-633.7014069324489
 23
-1646.999999999999
 33
0.0
  0
SOLID
  5
33E
330
337
100
AcDbEntity
  8
Cotes
 62
     0
100
AcDbTrace
 10
-632.8680735991155
 20
-1628.999999999999
 30
0.0
 11
-634.5347402657823
 21
-1628.999999999999
 31
0.0
 12
-633.7014069324489
 22
-1623.999999999999
 32
0.0
 13
-633.7014069324489
 23
-1623.999999999999
 33
0.0
  0
MTEXT
  5
33F
330
337
100
AcDbEntity
  8
Cotes
 62
     0
100
AcDbMText
 10
-637.4514069324489
 20
-1635.499999999999
 30
0.0
 40
5.0
 41
0.0
 46
0.0
 71
     5
 72
     1
  1
\A1;23
 11
0.0
 21
1.0
 31
0.0
 73
     1
 44
1.0
  0
POINT
  5
340
330
337
100
AcDbEntity
  8
Defpoints
 62
     0
100
AcDbPoint
 10
-603.7014069324489
 20
-1646.999999999999
 30
0.0
  0
POINT
  5
341
330
337
100
AcDbEntity
  8
Defpoints
 62
     0
100
AcDbPoint
 10
-633.7014069324489
 20
-1623.999999999999
 30
0.0
  0
POINT
  5
342
330
337
100
AcDbEntity
  8
Defpoints
 62
     0
100
AcDbPoint
 10
-633.7014069324489
 20
-1623.999999999999
 30
0.0
  0
ENDBLK
  5
339
330
337
100
AcDbEntity
  8
0
100
AcDbBlockEnd
  0
BLOCK
  5
344
330
343
100
AcDbEntity
  8
0
100
AcDbBlockBegin
  2
*D28
 70
     1
 10
0.0
 20
0.0
 30
0.0
  3
*D28
  1
*D28
  0
ARC
  5
346
330
343
100
AcDbEntity
  8
Cotes
 62
     0
370
    -2
100
AcDbCircle
 10
299.5000000000001
 20
-4110.0
 30
0.0
 40
76.15773105863857
100
AcDbArc
 50
93.76232812479013
 51
181.2376718752089
  0
SOLID
  5
347
330
343
100
AcDbEntity
  8
Cotes
 62
     0
100
AcDbTrace
 10
294.5300501984997
 20
-4034.839286200494
 30
0.0
 11
294.4753391848082
 21
-4033.173517764379
 31
0.0
 12
299.5000000000004
 22
-4033.842268941361
 32
0.0
 13
299.5000000000004
 23
-4033.842268941361
 33
0.0
  0
SOLID
  5
348
330
343
100
AcDbEntity
  8
Cotes
 62
     0
100
AcDbTrace
 10
222.527937678431
 20
-4111.69032865813
 30
0.0
 11
224.1921357417726
 21
-4111.599650194602
 31
0.0
 12
223.6320721006872
 22
-4116.637583616391
 32
0.0
 13
223.6320721006872
 23
-4116.637583616391
 33
0.0
  0
MTEXT
  5
349
330
343
100
AcDbEntity
  8
Cotes
 62
     0
100
AcDbMText
 10
240.4980697430228
 20
-4055.934691978329
 30
0.0
 40
5.0
 41
0.0
 46
0.0
 71
     5
 72
     1
  1
\A1;95%%d
 11
0.6755902076156659
 21
0.7372773368101188
 31
0.0
 73
     1
 44
1.0
  0
POINT
  5
34A
330
343
100
AcDbEntity
  8
Defpoints
 62
     0
100
AcDbPoint
 10
259.5189747827972
 20
-4045.18088536102
 30
0.0
  0
POINT
  5
34B
330
343
100
AcDbEntity
  8
Defpoints
 62
     0
100
AcDbPoint
 10
299.5000000000001
 20
-4110.0
 30
0.0
  0
POINT
  5
34C
330
343
100
AcDbEntity
  8
Defpoints
 62
     0
100
AcDbPoint
 10
299.5000000000009
 20
-3900.770082912761
 30
0.0
  0
POINT
  5
34D
330
343
100
AcDbEntity
  8
Defpoints
 62
     0
100
AcDbPoint
 10
299.5000000000001
 20
-4110.0
 30
0.0
  0
POINT
  5
34E
330
343
100
AcDbEntity
  8
Defpoints
 62
     0
100
AcDbPoint
 10
165.9699338541579
 20
-4121.682367027626
 30
0.0
  0
ENDBLK
  5
345
330
343
100
AcDbEntity
  8
0
100
AcDbBlockEnd
  0
BLOCK
  5
350
330
34F
100
AcDbEntity
  8
0
100
AcDbBlockBegin
  2
*D29
 70
     1
 10
0.0
 20
0.0
 30
0.0
  3
*D29
  1
*D29
  0
LINE
  5
352
330
34F
100
AcDbEntity
  8
Cotes
 62
     0
370
    -2
100
AcDbLine
 10
-539.9514069324487
 20
-1648.5
 30
0.0
 11
-562.5
 21
-1648.5
 31
0.0
  0
LINE
  5
353
330
34F
100
AcDbEntity
  8
Cotes
 62
     0
370
    -2
100
AcDbLine
 10
-539.9514069324487
 20
-1400.500000000001
 30
0.0
 11
-562.4999999999999
 21
-1400.500000000001
 31
0.0
  0
LINE
  5
354
330
34F
100
AcDbEntity
  8
Cotes
 62
     0
370
    -2
100
AcDbLine
 10
-560.0
 20
-1643.5
 30
0.0
 11
-559.9999999999999
 21
-1405.500000000001
 31
0.0
  0
SOLID
  5
355
330
34F
100
AcDbEntity
  8
Cotes
 62
     0
100
AcDbTrace
 10
-560.8333333333334
 20
-1643.5
 30
0.0
 11
-559.1666666666666
 21
-1643.5
 31
0.0
 12
-560.0
 22
-1648.5
 32
0.0
 13
-560.0
 23
-1648.5
 33
0.0
  0
SOLID
  5
356
330
34F
100
AcDbEntity
  8
Cotes
 62
     0
100
AcDbTrace
 10
-559.1666666666665
 20
-1405.500000000001
 30
0.0
 11
-560.8333333333333
 21
-1405.500000000001
 31
0.0
 12
-559.9999999999999
 22
-1400.500000000001
 32
0.0
 13
-559.9999999999999
 23
-1400.500000000001
 33
0.0
  0
MTEXT
  5
357
330
34F
100
AcDbEntity
  8
Cotes
 62
     0
100
AcDbMText
 10
-563.75
 20
-1524.5
 30
0.0
 40
5.0
 41
0.0
 46
0.0
 71
     5
 72
     1
  1
\A1;248
 11
4.584146682323240E-16
 21
1.0
 31
0.0
 73
     1
 44
1.0
  0
POINT
  5
358
330
34F
100
AcDbEntity
  8
Defpoints
 62
     0
100
AcDbPoint
 10
-538.7014069324487
 20
-1648.5
 30
0.0
  0
POINT
  5
359
330
34F
100
AcDbEntity
  8
Defpoints
 62
     0
100
AcDbPoint
 10
-538.7014069324487
 20
-1400.500000000001
 30
0.0
  0
POINT
  5
35A
330
34F
100
AcDbEntity
  8
Defpoints
 62
     0
100
AcDbPoint
 10
-559.9999999999999
 20
-1400.500000000001
 30
0.0
  0
ENDBLK
  5
351
330
34F
100
AcDbEntity
  8
0
100
AcDbBlockEnd
  0
ENDSEC
  0
SECTION
  2
ENTITIES
  0
INSERT
  5
4F
330
15C
100
AcDbEntity
  8
0
100
AcDbBlockReference
  2
SeuilBaie1_VueDessus
 10
40.0
 20
600.0
 30
0.0
  0
INSERT
  5
51
330
15C
100
AcDbEntity
  8
0
100
AcDbBlockReference
  2
SeuilBaie1_VueCoupe
 10
2605.681169826983
 20
600.0
 30
0.0
  0
MTEXT
  5
6E
330
15C
100
AcDbEntity
  8
0
100
AcDbMText
 10
0.0
 20
900.0
 30
0.0
 40
100.0
 41
0.0
 46
0.0
 71
     1
 72
     1
  1
Seuil
  7
textstyle11
 73
     1
 44
1.0
  0
DIMENSION
  5
70
330
15C
100
AcDbEntity
  8
Cotes
100
AcDbDimension
280
     0
  2
*D5
 10
2576.811270258193
 20
600.0
 30
0.0
 11
2573.061270258193
 21
592.4999999999995
 31
0.0
 70
    33
 71
     5
 42
15.00000000000102
 73
     0
 74
     0
 75
     0
  3
QCADDimStyle
100
AcDbAlignedDimension
 13
2590.623872263833
 23
584.999999999999
 33
0.0
 14
2590.623872263833
 24
600.0
 34
0.0
1001
ACAD
1000
DSTYLE
1002
{
1070
   178
1070
     0
1070
   177
1070
     0
1070
   176
1070
     0
1070
   279
1070
     2
1070
    41
1040
5.0
1070
    79
1070
     2
1070
    44
1040
2.5
1070
    42
1040
1.25
1070
   147
1040
1.25
1070
   140
1040
5.0
1070
    78
1070
     8
1002
}
  0
DIMENSION
  5
72
330
15C
100
AcDbEntity
  8
Cotes
100
AcDbDimension
280
     0
  2
*D6
 10
2641.997725397567
 20
342.2414267126142
 30
0.0
 11
2635.056877028822
 21
464.6021112641567
 31
0.0
 70
    33
 71
     5
 42
245.0
 73
     0
 74
     0
 75
     0
  3
QCADDimStyle
100
AcDbAlignedDimension
 13
2605.681169826983
 23
584.999999999999
 33
0.0
 14
2627.034326800159
 24
340.9322989675213
 34
0.0
1001
ACAD
1000
DSTYLE
1002
{
1070
   178
1070
     0
1070
   177
1070
     0
1070
   176
1070
     0
1070
   279
1070
     2
1070
    41
1040
5.0
1070
    79
1070
     2
1070
    44
1040
2.5
1070
    42
1040
1.25
1070
   147
1040
1.25
1070
   140
1040
5.0
1070
    78
1070
     8
1002
}
  0
DIMENSION
  5
73
330
15C
100
AcDbEntity
  8
Cotes
100
AcDbDimension
280
     0
  2
*D7
 10
2653.528492302326
 20
320.1623818350437
 30
0.0
 11
2645.585352891984
 21
453.9793054146413
 31
0.0
 70
    33
 71
     5
 42
267.9999999999999
 73
     0
 74
     0
 75
     0
  3
QCADDimStyle
100
AcDbAlignedDimension
 13
2605.681169826983
 23
584.999999999999
 33
0.0
 14
2629.038908883355
 24
318.0198209114112
 34
0.0
1001
ACAD
1000
DSTYLE
1002
{
1070
   178
1070
     0
1070
   177
1070
     0
1070
   176
1070
     0
1070
   279
1070
     2
1070
    41
1040
5.0
1070
    79
1070
     2
1070
    44
1040
2.5
1070
    42
1040
1.25
1070
   147
1040
1.25
1070
   140
1040
5.0
1070
    78
1070
     8
1002
}
  0
DIMENSION
  5
7C
330
15C
100
AcDbEntity
  8
Cotes
100
AcDbDimension
280
     0
  2
*D8
 10
2639.038908883355
 20
302.8631571719694
 30
0.0
 11
2634.038908883355
 21
306.6131571719694
 31
0.0
 70
    33
 71
     5
 42
10.0
 73
     0
 74
     0
 75
     0
  3
QCADDimStyle
100
AcDbAlignedDimension
 13
2629.038908883355
 23
318.0198209114112
 33
0.0
 14
2639.038908883355
 24
318.0198209114112
 34
0.0
1001
ACAD
1000
DSTYLE
1002
{
1070
   178
1070
     0
1070
   177
1070
     0
1070
   176
1070
     0
1070
   279
1070
     2
1070
    41
1040
5.0
1070
    79
1070
     2
1070
    44
1040
2.5
1070
    42
1040
1.25
1070
   147
1040
1.25
1070
   140
1040
5.0
1070
    78
1070
     8
1002
}
  0
DIMENSION
  5
7E
330
15C
100
AcDbEntity
  8
Cotes
100
AcDbDimension
280
     0
  2
*D9
 10
2604.809091197791
 20
422.8622056587324
 30
0.0
 11
2612.451814747221
 21
427.2951817185577
 31
0.0
 70
    33
 71
     5
 42
15.99999999999971
 73
     0
 74
     0
 75
     0
  3
QCADDimStyle
100
AcDbAlignedDimension
 13
2620.748206367259
 23
424.256697542695
 33
0.0
 14
2604.809091197791
 24
422.8622056587325
 34
0.0
1001
ACAD
1000
DSTYLE
1002
{
1070
   178
1070
     0
1070
   177
1070
     0
1070
   176
1070
     0
1070
   279
1070
     2
1070
    41
1040
5.0
1070
    79
1070
     2
1070
    44
1040
2.5
1070
    42
1040
1.25
1070
   147
1040
1.25
1070
   140
1040
5.0
1070
    78
1070
     8
1002
}
  0
DIMENSION
  5
7F
330
15C
100
AcDbEntity
  8
Cotes
100
AcDbDimension
280
     0
  2
*D10
 10
2609.438476174106
 20
302.561523825894
 30
0.0
 11
2615.625660509489
 21
301.6776403494107
 31
0.0
 70
    33
 71
     5
 42
9.99999999999992
 73
     0
 74
     0
 75
     0
  3
QCADDimStyle
100
AcDbAlignedDimension
 13
2639.038908883355
 23
318.0198209114112
 33
0.0
 14
2631.96784107149
 24
325.0908887232767
 34
0.0
1001
ACAD
1000
DSTYLE
1002
{
1070
   178
1070
     0
1070
   177
1070
     0
1070
   176
1070
     0
1070
   279
1070
     2
1070
    41
1040
5.0
1070
    79
1070
     2
1070
    44
1040
2.5
1070
    42
1040
1.25
1070
   147
1040
1.25
1070
   140
1040
5.0
1070
    78
1070
     8
1002
}
  0
DIMENSION
  5
82
330
15C
100
AcDbEntity
  8
Cotes
100
AcDbDimension
280
     0
  2
*D11
 10
2608.110417775458
 20
568.7072821382164
 30
0.0
 11
2622.793937116305
 21
585.7471595556229
 31
0.0
 70
    34
 71
     5
 42
3.054326190990066
 73
     0
 74
     0
 75
     0
  3
QCADDimStyle
100
AcDb2LineAngularDimension
 13
2606.681169826983
 23
600.0
 33
0.0
 14
2606.681169826983
 24
584.999999999999
 34
0.0
 15
2606.677364525074
 25
585.0871557427466
 35
0.0
 16
2612.157455812843
 26
582.2933667503085
 36
0.0
1001
ACAD
1000
DSTYLE
1002
{
1070
   178
1070
     0
1070
   177
1070
     0
1070
   176
1070
     0
1070
   279
1070
     2
1070
    41
1040
5.0
1070
    79
1070
     2
1070
    44
1040
2.5
1070
    42
1040
1.25
1070
   147
1040
1.25
1070
   140
1040
5.0
1070
    78
1070
     8
1002
}
  0
DIMENSION
  5
84
330
15C
100
AcDbEntity
  8
Cotes
100
AcDbDimension
280
     0
  2
*D12
 10
2631.260734290303
 20
324.3837819420901
 30
0.0
 11
2603.076820096778
 21
332.9158058180766
 31
0.0
 70
    34
 71
     5
 42
0.7853981633974378
 73
     0
 74
     0
 75
     0
  3
QCADDimStyle
100
AcDb2LineAngularDimension
 13
2629.955240057373
 23
319.0198209114112
 33
0.0
 14
2636.624695320982
 24
319.0198209114112
 34
0.0
 15
2636.624695320982
 25
319.0198209114112
 35
0.0
 16
2608.528310343496
 26
335.2412763414177
 36
0.0
1001
ACAD
1000
DSTYLE
1002
{
1070
   178
1070
     0
1070
   177
1070
     0
1070
   176
1070
     0
1070
   279
1070
     2
1070
    41
1040
5.0
1070
    79
1070
     2
1070
    44
1040
2.5
1070
    42
1040
1.25
1070
   147
1040
1.25
1070
   140
1040
5.0
1070
    78
1070
     8
1002
}
  0
DIMENSION
  5
85
330
15C
100
AcDbEntity
  8
Cotes
100
AcDbDimension
280
     0
  2
*D13
 10
2636.624695320982
 20
319.0198209114112
 30
0.0
 11
2643.799243823042
 21
334.127899909721
 31
0.0
 70
    34
 71
     5
 42
1.658062789394608
 73
     0
 74
     0
 75
     0
  3
QCADDimStyle
100
AcDb2LineAngularDimension
 13
2628.262508392839
 23
338.3678323715683
 33
0.0
 14
2629.955240057373
 24
319.0198209114112
 34
0.0
 15
2629.955240057373
 25
319.0198209114112
 35
0.0
 16
2644.103071641109
 26
327.7463333679384
 36
0.0
1001
ACAD
1000
DSTYLE
1002
{
1070
   178
1070
     0
1070
   177
1070
     0
1070
   176
1070
     0
1070
   279
1070
     2
1070
    41
1040
5.0
1070
    79
1070
     2
1070
    44
1040
2.5
1070
    42
1040
1.25
1070
   147
1040
1.25
1070
   140
1040
5.0
1070
    78
1070
     8
1002
}
  0
DIMENSION
  5
86
330
15C
100
AcDbEntity
  8
Cotes
100
AcDbDimension
280
     0
  2
*D14
 10
2502.0
 20
259.7545941843937
 30
0.0
 11
1238.5
 21
263.5045941843937
 31
0.0
 70
    33
 71
     5
 42
2527.0
 73
     0
 74
     0
 75
     0
  3
QCADDimStyle
100
AcDbAlignedDimension
 13
-25.0
 23
318.0198209114112
 33
0.0
 14
2502.0
 24
318.0198209114112
 34
0.0
1001
ACAD
1000
DSTYLE
1002
{
1070
   178
1070
     0
1070
   177
1070
     0
1070
   176
1070
     0
1070
   279
1070
     2
1070
    41
1040
5.0
1070
    79
1070
     2
1070
    44
1040
2.5
1070
    42
1040
1.25
1070
   147
1040
1.25
1070
   140
1040
5.0
1070
    78
1070
     8
1002
}
  0
DIMENSION
  5
87
330
15C
100
AcDbEntity
  8
Cotes
100
AcDbDimension
280
     0
  2
*D15
 10
2437.0
 20
656.4422600695832
 30
0.0
 11
1238.5
 21
660.1922600695832
 31
0.0
 70
    33
 71
     5
 42
2397.0
 73
     0
 74
     0
 75
     0
  3
QCADDimStyle
100
AcDbAlignedDimension
 13
40.0
 23
600.0
 33
0.0
 14
2437.0
 24
600.0
 34
0.0
1001
ACAD
1000
DSTYLE
1002
{
1070
   178
1070
     0
1070
   177
1070
     0
1070
   176
1070
     0
1070
   279
1070
     2
1070
    41
1040
5.0
1070
    79
1070
     2
1070
    44
1040
2.5
1070
    42
1040
1.25
1070
   147
1040
1.25
1070
   140
1040
5.0
1070
    78
1070
     8
1002
}
  0
LINE
  5
90
330
15C
100
AcDbEntity
  8
0
100
AcDbLine
 10
1600.0
 20
-1300.0
 30
0.0
 11
2024.264068711928
 21
-1724.264068711929
 31
0.0
  0
INSERT
  5
B6
330
15C
100
AcDbEntity
  8
0
100
AcDbBlockReference
  2
JoueEstBaie_VueDessus
 10
2538.701406932449
 20
-1648.5
 30
0.0
  0
DIMENSION
  5
B7
330
15C
100
AcDbEntity
  8
Cotes
100
AcDbDimension
280
     0
  2
*D16
 10
2633.701406932449
 20
-1624.0
 30
0.0
 11
2629.951406932449
 21
-1635.5
 31
0.0
 70
    32
 71
     5
 42
23.0
 73
     0
 74
     0
 75
     0
  3
QCADDimStyle
100
AcDbAlignedDimension
 13
2603.701406932449
 23
-1647.0
 33
0.0
 14
2633.701406932449
 24
-1624.0
 34
0.0
 50
90.0
100
AcDbRotatedDimension
1001
ACAD
1000
DSTYLE
1002
{
1070
   178
1070
     0
1070
   177
1070
     0
1070
   176
1070
     0
1070
   279
1070
     2
1070
    41
1040
5.0
1070
    79
1070
     2
1070
    44
1040
2.5
1070
    42
1040
1.25
1070
   147
1040
1.25
1070
   140
1040
5.0
1070
    78
1070
     8
1002
}
  0
DIMENSION
  5
B8
330
15C
100
AcDbEntity
  8
Cotes
100
AcDbDimension
280
     0
  2
*D17
 10
2560.0
 20
-1400.5
 30
0.0
 11
2556.25
 21
-1524.5
 31
0.0
 70
    32
 71
     5
 42
248.0
 73
     0
 74
     0
 75
     0
  3
QCADDimStyle
100
AcDbAlignedDimension
 13
2538.701406932449
 23
-1648.5
 33
0.0
 14
2538.701406932449
 24
-1400.5
 34
0.0
 50
90.0
100
AcDbRotatedDimension
1001
ACAD
1000
DSTYLE
1002
{
1070
   178
1070
     0
1070
   177
1070
     0
1070
   176
1070
     0
1070
   279
1070
     2
1070
    41
1040
5.0
1070
    79
1070
     2
1070
    44
1040
2.5
1070
    42
1040
1.25
1070
   147
1040
1.25
1070
   140
1040
5.0
1070
    78
1070
     8
1002
}
  0
DIMENSION
  5
BB
330
15C
100
AcDbEntity
  8
Cotes
100
AcDbDimension
280
     0
  2
*D18
 10
2603.701406932449
 20
-1662.0
 30
0.0
 11
2571.201406932449
 21
-1658.25
 31
0.0
 70
    32
 71
     5
 42
65.0
 73
     0
 74
     0
 75
     0
  3
QCADDimStyle
100
AcDbAlignedDimension
 13
2538.701406932449
 23
-1648.5
 33
0.0
 14
2603.701406932449
 24
-1650.0
 34
0.0
100
AcDbRotatedDimension
1001
ACAD
1000
DSTYLE
1002
{
1070
   178
1070
     0
1070
   177
1070
     0
1070
   176
1070
     0
1070
   279
1070
     2
1070
    41
1040
5.0
1070
    79
1070
     2
1070
    44
1040
2.5
1070
    42
1040
1.25
1070
   147
1040
1.25
1070
   140
1040
5.0
1070
    78
1070
     8
1002
}
  0
DIMENSION
  5
BC
330
15C
100
AcDbEntity
  8
Cotes
100
AcDbDimension
280
     0
  2
*D19
 10
2583.701406932449
 20
-1658.0
 30
0.0
 11
2593.701406932449
 21
-1654.25
 31
0.0
 70
    32
 71
     5
 42
20.0
 73
     0
 74
     0
 75
     0
  3
QCADDimStyle
100
AcDbAlignedDimension
 13
2603.701406932449
 23
-1647.0
 33
0.0
 14
2583.701406932449
 24
-1647.0
 34
0.0
100
AcDbRotatedDimension
1001
ACAD
1000
DSTYLE
1002
{
1070
   178
1070
     0
1070
   177
1070
     0
1070
   176
1070
     0
1070
   279
1070
     2
1070
    41
1040
5.0
1070
    79
1070
     2
1070
    44
1040
2.5
1070
    42
1040
1.25
1070
   147
1040
1.25
1070
   140
1040
5.0
1070
    78
1070
     8
1002
}
  0
DIMENSION
  5
C6
330
15C
100
AcDbEntity
  8
Cotes
100
AcDbDimension
280
     0
  2
*D20
 10
1640.5
 20
-2000.0
 30
0.0
 11
1636.75
 21
-3055.0
 31
0.0
 70
    32
 71
     5
 42
2110.0
 73
     0
 74
     0
 75
     0
  3
QCADDimStyle
100
AcDbAlignedDimension
 13
1700.5
 23
-4110.0
 33
0.0
 14
1700.5
 24
-2000.0
 34
0.0
 50
89.99999999999999
100
AcDbRotatedDimension
1001
ACAD
1000
DSTYLE
1002
{
1070
   178
1070
     0
1070
   177
1070
     0
1070
   176
1070
     0
1070
   279
1070
     2
1070
    41
1040
5.0
1070
    79
1070
     2
1070
    44
1040
2.5
1070
    42
1040
1.25
1070
   147
1040
1.25
1070
   140
1040
5.0
1070
    78
1070
     8
1002
}
  0
DIMENSION
  5
C7
330
15C
100
AcDbEntity
  8
Cotes
100
AcDbDimension
280
     0
  2
*D21
 10
2050.5
 20
-4131.828421549715
 30
0.0
 11
2046.75
 21
-3065.914210774858
 31
0.0
 70
    32
 71
     5
 42
2131.828421549715
 73
     0
 74
     0
 75
     0
  3
QCADDimStyle
100
AcDbAlignedDimension
 13
1950.0
 23
-2000.0
 33
0.0
 14
1949.999999999999
 24
-4131.828421549715
 34
0.0
 50
89.99999999999999
100
AcDbRotatedDimension
1001
ACAD
1000
DSTYLE
1002
{
1070
   178
1070
     0
1070
   177
1070
     0
1070
   176
1070
     0
1070
   279
1070
     2
1070
    41
1040
5.0
1070
    79
1070
     2
1070
    44
1040
2.5
1070
    42
1040
1.25
1070
   147
1040
1.25
1070
   140
1040
5.0
1070
    78
1070
     8
1002
}
  0
DIMENSION
  5
C8
330
15C
100
AcDbEntity
  8
Cotes
100
AcDbDimension
280
     0
  2
*D22
 10
1834.030066145842
 20
-4121.682367027626
 30
0.0
 11
1759.501930256977
 21
-4055.934691978328
 31
0.0
 70
    34
 71
     5
 42
1.658062789394597
 73
     0
 74
     0
 75
     0
  3
QCADDimStyle
100
AcDb2LineAngularDimension
 13
1700.5
 23
-3900.77008291276
 33
0.0
 14
1700.5
 24
-4110.0
 34
0.0
 15
1700.5
 25
-4110.0
 35
0.0
 16
1768.557034286971
 26
-4075.820472734955
 36
0.0
1001
ACAD
1000
DSTYLE
1002
{
1070
   178
1070
     0
1070
   177
1070
     0
1070
   176
1070
     0
1070
   279
1070
     2
1070
    41
1040
5.0
1070
    79
1070
     2
1070
    44
1040
2.5
1070
    42
1040
1.25
1070
   147
1040
1.25
1070
   140
1040
5.0
1070
    78
1070
     8
1002
}
  0
MTEXT
  5
F9
330
15C
100
AcDbEntity
  8
0
100
AcDbMText
 10
0.0
 20
-900.0
 30
0.0
 40
100.0
 41
0.0
 46
0.0
 71
     1
 72
     1
  1
Jambages
  7
textstyle12
 73
     1
 44
1.0
  0
INSERT
  5
FB
330
15C
100
AcDbEntity
  8
0
100
AcDbBlockReference
  2
JoueEstBaie_Vue_Coupe
 10
1700.5
 20
-2000.0
 30
0.0
  0
DIMENSION
  5
FC
330
15C
100
AcDbEntity
  8
Cotes
100
AcDbDimension
280
     0
  2
*D23
 10
-603.7014069324487
 20
-1662.0
 30
0.0
 11
-571.2014069324487
 21
-1658.25
 31
0.0
 70
    32
 71
     5
 42
65.0
 73
     0
 74
     0
 75
     0
  3
QCADDimStyle
100
AcDbAlignedDimension
 13
-538.7014069324487
 23
-1648.5
 33
0.0
 14
-603.7014069324487
 24
-1650.0
 34
0.0
 50
180.0
100
AcDbRotatedDimension
1001
ACAD
1000
DSTYLE
1002
{
1070
   178
1070
     0
1070
   177
1070
     0
1070
   176
1070
     0
1070
   279
1070
     2
1070
    41
1040
5.0
1070
    79
1070
     2
1070
    44
1040
2.5
1070
    42
1040
1.25
1070
   147
1040
1.25
1070
   140
1040
5.0
1070
    78
1070
     8
1002
}
  0
DIMENSION
  5
FD
330
15C
100
AcDbEntity
  8
Cotes
100
AcDbDimension
280
     0
  2
*D24
 10
-583.7014069324491
 20
-1657.999999999999
 30
0.0
 11
-593.701406932449
 21
-1654.249999999999
 31
0.0
 70
    32
 71
     5
 42
19.99999999999977
 73
     0
 74
     0
 75
     0
  3
QCADDimStyle
100
AcDbAlignedDimension
 13
-603.7014069324489
 23
-1646.999999999999
 33
0.0
 14
-583.7014069324491
 24
-1646.999999999999
 34
0.0
 50
180.0
100
AcDbRotatedDimension
1001
ACAD
1000
DSTYLE
1002
{
1070
   178
1070
     0
1070
   177
1070
     0
1070
   176
1070
     0
1070
   279
1070
     2
1070
    41
1040
5.0
1070
    79
1070
     2
1070
    44
1040
2.5
1070
    42
1040
1.25
1070
   147
1040
1.25
1070
   140
1040
5.0
1070
    78
1070
     8
1002
}
  0
LINE
  5
FE
330
15C
100
AcDbEntity
  8
0
100
AcDbLine
 10
399.9999999999999
 20
-1300.0
 30
0.0
 11
-24.26406871192876
 21
-1724.264068711928
 31
0.0
  0
DIMENSION
  5
FF
330
15C
100
AcDbEntity
  8
Cotes
100
AcDbDimension
280
     0
  2
*D25
 10
359.5000000000013
 20
-2000.0
 30
0.0
 11
355.750000000001
 21
-3055.0
 31
0.0
 70
    32
 71
     5
 42
2110.0
 73
     0
 74
     0
 75
     0
  3
QCADDimStyle
100
AcDbAlignedDimension
 13
299.5000000000001
 23
-4110.0
 33
0.0
 14
299.5
 24
-2000.0
 34
0.0
 50
89.99999999999999
100
AcDbRotatedDimension
1001
ACAD
1000
DSTYLE
1002
{
1070
   178
1070
     0
1070
   177
1070
     0
1070
   176
1070
     0
1070
   279
1070
     2
1070
    41
1040
5.0
1070
    79
1070
     2
1070
    44
1040
2.5
1070
    42
1040
1.25
1070
   147
1040
1.25
1070
   140
1040
5.0
1070
    78
1070
     8
1002
}
  0
INSERT
  5
100
330
15C
100
AcDbEntity
  8
0
100
AcDbBlockReference
  2
JoueEstBaie_VueDessus
 10
-538.7014069324487
 20
-1648.5
 30
0.0
 42
-1.0
 50
180.0
  0
DIMENSION
  5
101
330
15C
100
AcDbEntity
  8
Cotes
100
AcDbDimension
280
     0
  2
*D26
 10
-50.50000000000106
 20
-4131.828421549715
 30
0.0
 11
-54.25000000000075
 21
-3065.914210774858
 31
0.0
 70
    32
 71
     5
 42
2131.828421549716
 73
     0
 74
     0
 75
     0
  3
QCADDimStyle
100
AcDbAlignedDimension
 13
49.99999999999977
 23
-2000.0
 33
0.0
 14
50.00000000000011
 24
-4131.828421549715
 34
0.0
 50
89.99999999999999
100
AcDbRotatedDimension
1001
ACAD
1000
DSTYLE
1002
{
1070
   178
1070
     0
1070
   177
1070
     0
1070
   176
1070
     0
1070
   279
1070
     2
1070
    41
1040
5.0
1070
    79
1070
     2
1070
    44
1040
2.5
1070
    42
1040
1.25
1070
   147
1040
1.25
1070
   140
1040
5.0
1070
    78
1070
     8
1002
}
  0
DIMENSION
  5
102
330
15C
100
AcDbEntity
  8
Cotes
100
AcDbDimension
280
     0
  2
*D27
 10
-633.7014069324489
 20
-1623.999999999999
 30
0.0
 11
-637.4514069324489
 21
-1635.499999999999
 31
0.0
 70
    32
 71
     5
 42
23.00000000000022
 73
     0
 74
     0
 75
     0
  3
QCADDimStyle
100
AcDbAlignedDimension
 13
-603.7014069324489
 23
-1646.999999999999
 33
0.0
 14
-633.7014069324489
 24
-1623.999999999999
 34
0.0
 50
89.99999999999999
100
AcDbRotatedDimension
1001
ACAD
1000
DSTYLE
1002
{
1070
   178
1070
     0
1070
   177
1070
     0
1070
   176
1070
     0
1070
   279
1070
     2
1070
    41
1040
5.0
1070
    79
1070
     2
1070
    44
1040
2.5
1070
    42
1040
1.25
1070
   147
1040
1.25
1070
   140
1040
5.0
1070
    78
1070
     8
1002
}
  0
DIMENSION
  5
103
330
15C
100
AcDbEntity
  8
Cotes
100
AcDbDimension
280
     0
  2
*D28
 10
165.9699338541579
 20
-4121.682367027626
 30
0.0
 11
240.4980697430228
 21
-4055.934691978329
 31
0.0
 70
    34
 71
     5
 42
1.658062789394604
 73
     0
 74
     0
 75
     0
  3
QCADDimStyle
100
AcDb2LineAngularDimension
 13
299.5000000000009
 23
-3900.770082912761
 33
0.0
 14
299.5000000000001
 24
-4110.0
 34
0.0
 15
299.5000000000001
 25
-4110.0
 35
0.0
 16
259.5189747827972
 26
-4045.18088536102
 36
0.0
1001
ACAD
1000
DSTYLE
1002
{
1070
   178
1070
     0
1070
   177
1070
     0
1070
   176
1070
     0
1070
   279
1070
     2
1070
    41
1040
5.0
1070
    79
1070
     2
1070
    44
1040
2.5
1070
    42
1040
1.25
1070
   147
1040
1.25
1070
   140
1040
5.0
1070
    78
1070
     8
1002
}
  0
INSERT
  5
104
330
15C
100
AcDbEntity
  8
0
100
AcDbBlockReference
  2
JoueEstBaie_Vue_Coupe
 10
299.5
 20
-2000.0
 30
0.0
 42
-1.0
 50
180.0
  0
DIMENSION
  5
105
330
15C
100
AcDbEntity
  8
Cotes
100
AcDbDimension
280
     0
  2
*D29
 10
-559.9999999999999
 20
-1400.500000000001
 30
0.0
 11
-563.75
 21
-1524.5
 31
0.0
 70
    32
 71
     5
 42
247.9999999999993
 73
     0
 74
     0
 75
     0
  3
QCADDimStyle
100
AcDbAlignedDimension
 13
-538.7014069324487
 23
-1648.5
 33
0.0
 14
-538.7014069324487
 24
-1400.500000000001
 34
0.0
 50
89.99999999999999
100
AcDbRotatedDimension
1001
ACAD
1000
DSTYLE
1002
{
1070
   178
1070
     0
1070
   177
1070
     0
1070
   176
1070
     0
1070
   279
1070
     2
1070
    41
1040
5.0
1070
    79
1070
     2
1070
    44
1040
2.5
1070
    42
1040
1.25
1070
   147
1040
1.25
1070
   140
1040
5.0
1070
    78
1070
     8
1002
}
  0
LINE
  5
10E
330
15C
100
AcDbEntity
  8
0
100
AcDbLine
 10
2700.0
 20
-5204.5
 30
0.0
 11
2700.0
 21
-5198.5
 31
0.0
  0
LINE
  5
10F
330
15C
100
AcDbEntity
  8
0
100
AcDbLine
 10
2925.0
 20
-5200.0
 30
0.0
 11
2925.0
 21
-5160.0
 31
0.0
  0
LINE
  5
117
330
15C
100
AcDbEntity
  8
0
100
AcDbLine
 10
2925.0
 20
-5200.0
 30
0.0
 11
2968.33446936699
 21
-5203.791274809523
 31
0.0
  0
LINE
  5
119
330
15C
100
AcDbEntity
  8
0
100
AcDbLine
 10
2924.869266385878
 20
-5201.494292047138
 30
0.0
 11
2969.698027800007
 21
-5205.416300470783
 31
0.0
  0
LINE
  5
11A
330
15C
100
AcDbEntity
  8
0
100
AcDbLine
 10
2926.5
 20
-5198.625503238974
 30
0.0
 11
2969.95949502825
 21
-5202.427716376507
 31
0.0
  0
LINE
  5
11B
330
15C
100
AcDbEntity
  8
0
100
AcDbLine
 10
2926.5
 20
-5198.625503238974
 30
0.0
 11
2926.5
 21
-5160.0
 31
0.0
  0
LINE
  5
11C
330
15C
100
AcDbEntity
  8
0
100
AcDbLine
 10
2969.698027800007
 20
-5205.416300470783
 30
0.0
 11
2969.95949502825
 21
-5202.427716376507
 31
0.0
  0
LINE
  5
11E
330
15C
100
AcDbEntity
  8
0
100
AcDbLine
 10
2925.0
 20
-5160.0
 30
0.0
 11
2926.5
 21
-5160.0
 31
0.0
  0
LINE
  5
122
330
15C
100
AcDbEntity
  8
0
100
AcDbLine
 10
2701.5
 20
-5200.0
 30
0.0
 11
2925.0
 21
-5200.0
 31
0.0
  0
LINE
  5
125
330
15C
100
AcDbEntity
  8
0
100
AcDbLine
 10
2701.5
 20
-5203.0
 30
0.0
 11
2701.5
 21
-5200.0
 31
0.0
  0
LINE
  5
131
330
15C
100
AcDbEntity
  8
0
100
AcDbLine
 10
2710.0
 20
-5203.0
 30
0.0
 11
2710.0
 21
-5200.0
 31
0.0
  0
LINE
  5
132
330
15C
100
AcDbEntity
  8
0
100
AcDbLine
 10
2725.0
 20
-5204.5
 30
0.0
 11
2725.0
 21
-5201.5
 31
0.0
  0
LINE
  5
135
330
15C
100
AcDbEntity
  8
0
100
AcDbLine
 10
2750.0
 20
-5200.0
 30
0.0
 11
2750.0
 21
-5198.5
 31
0.0
  0
LINE
  5
137
330
15C
100
AcDbEntity
  8
0
100
AcDbLine
 10
2700.0
 20
-5198.5
 30
0.0
 11
2750.0
 21
-5198.5
 31
0.0
  0
LINE
  5
138
330
15C
100
AcDbEntity
  8
0
100
AcDbLine
 10
2710.0
 20
-5201.5
 30
0.0
 11
2925.0
 21
-5201.5
 31
0.0
  0
LINE
  5
13A
330
15C
100
AcDbEntity
  8
0
100
AcDbLine
 10
2701.5
 20
-5203.0
 30
0.0
 11
2723.5
 21
-5203.0
 31
0.0
  0
LINE
  5
13D
330
15C
100
AcDbEntity
  8
0
100
AcDbLine
 10
2700.0
 20
-5204.5
 30
0.0
 11
2725.0
 21
-5204.5
 31
0.0
  0
ENDSEC
  0
SECTION
  2
OBJECTS
  0
DICTIONARY
  5
14A
330
0
100
AcDbDictionary
281
     1
  3
ACAD_DETAILVIEWSTYLE
350
362
  3
ACAD_GROUP
350
14B
  3
ACAD_LAYOUT
350
157
  3
ACAD_MATERIAL
350
180
  3
ACAD_MLEADERSTYLE
350
1A8
  3
ACAD_MLINESTYLE
350
154
  3
ACAD_PLOTSETTINGS
350
156
  3
ACAD_PLOTSTYLENAME
350
14C
  3
ACAD_SCALELIST
350
184
  3
ACAD_SECTIONVIEWSTYLE
350
363
  3
ACAD_TABLESTYLE
350
1A6
  3
ACAD_VISUALSTYLE
350
167
  3
ACDB_RECOMPOSE_DATA
350
35F
  3
AcDbVariableDictionary
350
35B
  3
QCAD_OBJECTS
350
1AC
  0
SUN
  5
1AA
330
166
100
AcDbSun
 90
        1
290
     0
 63
     7
421
 16777215
 40
1.0
291
     1
 91
  2455826
 92
 54000000
292
     0
 70
     2
 71
   256
280
     1
  0
DICTIONARY
  5
362
102
{ACAD_REACTORS
330
14A
102
}
330
14A
100
AcDbDictionary
281
     1
  0
DICTIONARY
  5
14B
102
{ACAD_REACTORS
330
14A
102
}
330
14A
100
AcDbDictionary
281
     1
  0
DICTIONARY
  5
157
102
{ACAD_REACTORS
330
14A
102
}
330
14A
100
AcDbDictionary
281
     1
  3
Layout1
350
15B
  3
Layout2
350
163
  3
Model
350
15F
  0
DICTIONARY
  5
180
102
{ACAD_REACTORS
330
14A
102
}
330
14A
100
AcDbDictionary
281
     1
  3
ByBlock
350
182
  3
ByLayer
350
181
  3
Global
350
183
  0
DICTIONARY
  5
1A8
102
{ACAD_REACTORS
330
14A
102
}
330
14A
100
AcDbDictionary
281
     1
  3
Standard
350
1A9
  0
DICTIONARY
  5
154
102
{ACAD_REACTORS
330
14A
102
}
330
14A
100
AcDbDictionary
281
     1
  3
Standard
350
155
  0
DICTIONARY
  5
156
102
{ACAD_REACTORS
330
14A
102
}
330
14A
100
AcDbDictionary
281
     1
  0
ACDBDICTIONARYWDFLT
  5
14C
102
{ACAD_REACTORS
330
14A
102
}
330
14A
100
AcDbDictionary
281
     1
  3
Normal
350
14D
100
AcDbDictionaryWithDefault
340
14D
  0
DICTIONARY
  5
184
102
{ACAD_REACTORS
330
14A
102
}
330
14A
100
AcDbDictionary
281
     1
  3
A0
350
185
  3
A1
350
186
  3
A2
350
187
  3
A3
350
188
  3
A4
350
189
  3
A5
350
18A
  3
A6
350
18B
  3
A7
350
18C
  3
A8
350
18D
  3
A9
350
18E
  3
B0
350
18F
  3
B1
350
190
  3
B2
350
191
  3
B3
350
192
  3
B4
350
193
  3
B5
350
194
  3
B6
350
195
  3
B7
350
196
  3
B8
350
197
  3
B9
350
198
  3
C0
350
199
  3
C1
350
19A
  3
C2
350
19B
  3
C3
350
19C
  3
C4
350
19D
  3
C5
350
19E
  3
C6
350
19F
  3
C7
350
1A0
  3
C8
350
1A1
  3
C9
350
1A2
  3
D0
350
1A3
  3
D1
350
1A4
  3
D2
350
1A5
  0
DICTIONARY
  5
363
102
{ACAD_REACTORS
330
14A
102
}
330
14A
100
AcDbDictionary
281
     1
  0
DICTIONARY
  5
1A6
102
{ACAD_REACTORS
330
14A
102
}
330
14A
100
AcDbDictionary
281
     1
  3
Standard
350
1A7
  0
DICTIONARY
  5
167
102
{ACAD_REACTORS
330
14A
102
}
330
14A
100
AcDbDictionary
281
     1
  3
2dWireframe
350
16C
  3
Basic
350
16F
  3
Brighten
350
173
  3
ColorChange
350
177
  3
Conceptual
350
171
  3
Dim
350
172
  3
EdgeColorOff
350
17A
  3
Facepattern
350
176
  3
Flat
350
168
  3
FlatWithEdges
350
169
  3
Gouraud
350
16A
  3
GouraudWithEdges
350
16B
  3
Hidden
350
16E
  3
JitterOff
350
178
  3
Linepattern
350
175
  3
OverhangOff
350
179
  3
Realistic
350
170
  3
Shaded
350
17F
  3
Shaded with edges
350
17E
  3
Shades of Gray
350
17B
  3
Sketchy
350
17C
  3
Thicken
350
174
  3
Wireframe
350
16D
  3
X-Ray
350
17D
  0
XRECORD
  5
35F
102
{ACAD_REACTORS
330
14A
102
}
330
14A
100
AcDbXrecord
280
     1
 90
        1
330
1A7
  0
DICTIONARY
  5
35B
102
{ACAD_REACTORS
330
14A
102
}
330
14A
100
AcDbDictionary
281
     1
  3
CANNOSCALE
350
35C
  3
CMLEADERSTYLE
350
361
  3
CTABLESTYLE
350
360
  0
DICTIONARY
  5
1AC
102
{ACAD_REACTORS
330
14A
102
}
330
14A
100
AcDbDictionary
281
     1
  3
DimensionSettings/AngularFormat
350
1AE
  3
DimensionSettings/AngularPrecision
350
1AF
  3
DimensionSettings/DimensionFont
350
1B0
  3
DimensionSettings/KeepProportions
350
1B1
  3
DimensionSettings/LinearFormat
350
1B2
  3
DimensionSettings/LinearPrecision
350
1B3
  3
Grid/DisplayGrid00
350
1B4
  3
Grid/DisplayGrid01
350
1B5
  3
Grid/DisplayGrid02
350
1B6
  3
Grid/DisplayGrid03
350
1B7
  3
Grid/GridSpacingX00
350
1B8
  3
Grid/GridSpacingX01
350
1B9
  3
Grid/GridSpacingX02
350
1BA
  3
Grid/GridSpacingX03
350
1BB
  3
Grid/GridSpacingY00
350
1BC
  3
Grid/GridSpacingY01
350
1BD
  3
Grid/GridSpacingY02
350
1BE
  3
Grid/GridSpacingY03
350
1BF
  3
Grid/IsometricGrid00
350
1C0
  3
Grid/IsometricGrid01
350
1C1
  3
Grid/IsometricGrid02
350
1C2
  3
Grid/IsometricGrid03
350
1C3
  3
Grid/IsometricProjection00
350
1C4
  3
Grid/IsometricProjection01
350
1C5
  3
Grid/IsometricProjection02
350
1C6
  3
Grid/IsometricProjection03
350
1C7
  3
Grid/MetaGridSpacingX00
350
1C8
  3
Grid/MetaGridSpacingX01
350
1C9
  3
Grid/MetaGridSpacingX02
350
1CA
  3
Grid/MetaGridSpacingX03
350
1CB
  3
Grid/MetaGridSpacingY00
350
1CC
  3
Grid/MetaGridSpacingY01
350
1CD
  3
Grid/MetaGridSpacingY02
350
1CE
  3
Grid/MetaGridSpacingY03
350
1CF
  3
MultiPageSettings/Columns
350
1D0
  3
MultiPageSettings/GlueMarginsBottom
350
1D1
  3
MultiPageSettings/GlueMarginsLeft
350
1D2
  3
MultiPageSettings/GlueMarginsRight
350
1D3
  3
MultiPageSettings/GlueMarginsTop
350
1D4
  3
MultiPageSettings/PrintCropMarks
350
1D5
  3
MultiPageSettings/Rows
350
1D6
  3
PageSettings/OffsetX
350
1D7
  3
PageSettings/OffsetY
350
1D8
  3
PageSettings/PageOrientation
350
1D9
  3
PageSettings/PaperHeight
350
1DA
  3
PageSettings/PaperWidth
350
1DB
  3
PageSettings/Scale
350
1DC
  3
PageSettings/ShowPaperBorders
350
1DD
  3
QCADVersion
350
1AD
  3
UnitSettings/PaperUnit
350
1DE
  0
LAYOUT
  5
15B
102
{ACAD_REACTORS
330
157
102
}
330
157
100
AcDbPlotSettings
  1

  2
none_device
  4

  6

 40
0.0
 41
0.0
 42
0.0
 43
0.0
 44
0.0
 45
0.0
 46
0.0
 47
0.0
 48
0.0
 49
0.0
140
0.0
141
0.0
142
1.0
143
1.0
 70
   688
 72
     0
 73
     0
 74
     5
  7

 75
    16
 76
     0
 77
     2
 78
   300
147
1.0
148
0.0
149
0.0
100
AcDbLayout
  1
Layout1
 70
     1
 71
     1
 10
0.0
 20
0.0
 11
12.0
 21
9.0
 12
0.0
 22
0.0
 32
0.0
 14
1.000000000000000E+20
 24
1.000000000000000E+20
 34
1.000000000000000E+20
 15
-1.000000000000000E+20
 25
-1.000000000000000E+20
 35
-1.000000000000000E+20
146
0.0
 13
0.0
 23
0.0
 33
0.0
 16
1.0
 26
0.0
 36
0.0
 17
0.0
 27
1.0
 37
0.0
 76
     0
330
158
  0
LAYOUT
  5
163
102
{ACAD_REACTORS
330
157
102
}
330
157
100
AcDbPlotSettings
  1

  2
none_device
  4

  6

 40
0.0
 41
0.0
 42
0.0
 43
0.0
 44
0.0
 45
0.0
 46
0.0
 47
0.0
 48
0.0
 49
0.0
140
0.0
141
0.0
142
1.0
143
1.0
 70
   688
 72
     0
 73
     0
 74
     5
  7

 75
    16
 76
     0
 77
     2
 78
   300
147
1.0
148
0.0
149
0.0
100
AcDbLayout
  1
Layout2
 70
     1
 71
     2
 10
0.0
 20
0.0
 11
0.0
 21
0.0
 12
0.0
 22
0.0
 32
0.0
 14
0.0
 24
0.0
 34
0.0
 15
0.0
 25
0.0
 35
0.0
146
0.0
 13
0.0
 23
0.0
 33
0.0
 16
1.0
 26
0.0
 36
0.0
 17
0.0
 27
1.0
 37
0.0
 76
     0
330
160
  0
LAYOUT
  5
15F
102
{ACAD_REACTORS
330
157
102
}
330
157
100
AcDbPlotSettings
  1

  2
none_device
  4
Letter_(8.50_x_11.00_Inches)
  6

 40
6.35
 41
6.35
 42
6.35000508
 43
6.35000508
 44
215.9
 45
279.4
 46
0.0
 47
0.0
 48
0.0
 49
0.0
140
0.0
141
0.0
142
1.0
143
1.0
 70
  1712
 72
     0
 73
     0
 74
     0
  7

 75
     0
 76
     0
 77
     2
 78
   300
147
1.0
148
0.0
149
0.0
100
AcDbLayout
  1
Model
 70
     1
 71
     0
 10
0.0
 20
0.0
 11
12.0
 21
9.0
 12
0.0
 22
0.0
 32
0.0
 14
1.000000000000000E+20
 24
1.000000000000000E+20
 34
1.000000000000000E+20
 15
-1.000000000000000E+20
 25
-1.000000000000000E+20
 35
-1.000000000000000E+20
146
0.0
 13
0.0
 23
0.0
 33
0.0
 16
1.0
 26
0.0
 36
0.0
 17
0.0
 27
1.0
 37
0.0
 76
     0
330
15C
331
166
  0
MATERIAL
  5
182
102
{ACAD_REACTORS
330
180
102
}
330
180
100
AcDbMaterial
  1
ByBlock
 72
     1
 94
      127
  0
MATERIAL
  5
181
102
{ACAD_REACTORS
330
180
102
}
330
180
100
AcDbMaterial
  1
ByLayer
 72
     1
 94
      127
  0
MATERIAL
  5
183
102
{ACAD_REACTORS
330
180
102
}
330
180
100
AcDbMaterial
  1
Global
 72
     1
 94
      127
  0
MLEADERSTYLE
  5
1A9
102
{ACAD_REACTORS
330
1A8
102
}
330
1A8
100
AcDbMLeaderStyle
179
     2
170
     2
171
     1
172
     0
 90
        2
 40
0.0
 41
0.0
173
     1
 91
-1056964608
340
151
 92
       -2
290
     1
 42
0.09
291
     1
 43
0.36
  3
Standard
341
0
 44
0.18
300

342
14F
174
     1
178
     6
175
     1
176
     0
 93
-1056964608
 45
0.18
292
     0
297
     0
 46
0.18
343
0
 94
-1056964608
 47
1.0
 49
1.0
140
1.0
293
     1
141
0.0
294
     1
177
     0
142
1.0
295
     0
296
     0
143
0.125
271
     0
272
     9
273
     9
298
     0
  0
MLINESTYLE
  5
155
102
{ACAD_REACTORS
330
154
102
}
330
154
100
AcDbMlineStyle
  2
Standard
 70
     0
  3

 62
   256
 51
90.0
 52
90.0
 71
     2
 49
0.5
 62
   256
  6
BYLAYER
 49
-0.5
 62
   256
  6
BYLAYER
  0
ACDBPLACEHOLDER
  5
14D
102
{ACAD_REACTORS
330
14C
102
}
330
14C
  0
SCALE
  5
185
102
{ACAD_REACTORS
330
184
102
}
330
184
100
AcDbScale
 70
     0
300
1:1
140
1.0
141
1.0
290
     1
  0
SCALE
  5
186
102
{ACAD_REACTORS
330
184
102
}
330
184
100
AcDbScale
 70
     0
300
1:2
140
1.0
141
2.0
290
     0
  0
SCALE
  5
187
102
{ACAD_REACTORS
330
184
102
}
330
184
100
AcDbScale
 70
     0
300
1:4
140
1.0
141
4.0
290
     0
  0
SCALE
  5
188
102
{ACAD_REACTORS
330
184
102
}
330
184
100
AcDbScale
 70
     0
300
1:5
140
1.0
141
5.0
290
     0
  0
SCALE
  5
189
102
{ACAD_REACTORS
330
184
102
}
330
184
100
AcDbScale
 70
     0
300
1:8
140
1.0
141
8.0
290
     0
  0
SCALE
  5
18A
102
{ACAD_REACTORS
330
184
102
}
330
184
100
AcDbScale
 70
     0
300
1:10
140
1.0
141
10.0
290
     0
  0
SCALE
  5
18B
102
{ACAD_REACTORS
330
184
102
}
330
184
100
AcDbScale
 70
     0
300
1:16
140
1.0
141
16.0
290
     0
  0
SCALE
  5
18C
102
{ACAD_REACTORS
330
184
102
}
330
184
100
AcDbScale
 70
     0
300
1:20
140
1.0
141
20.0
290
     0
  0
SCALE
  5
18D
102
{ACAD_REACTORS
330
184
102
}
330
184
100
AcDbScale
 70
     0
300
1:30
140
1.0
141
30.0
290
     0
  0
SCALE
  5
18E
102
{ACAD_REACTORS
330
184
102
}
330
184
100
AcDbScale
 70
     0
300
1:40
140
1.0
141
40.0
290
     0
  0
SCALE
  5
18F
102
{ACAD_REACTORS
330
184
102
}
330
184
100
AcDbScale
 70
     0
300
1:50
140
1.0
141
50.0
290
     0
  0
SCALE
  5
190
102
{ACAD_REACTORS
330
184
102
}
330
184
100
AcDbScale
 70
     0
300
1:100
140
1.0
141
100.0
290
     0
  0
SCALE
  5
191
102
{ACAD_REACTORS
330
184
102
}
330
184
100
AcDbScale
 70
     0
300
2:1
140
2.0
141
1.0
290
     0
  0
SCALE
  5
192
102
{ACAD_REACTORS
330
184
102
}
330
184
100
AcDbScale
 70
     0
300
4:1
140
4.0
141
1.0
290
     0
  0
SCALE
  5
193
102
{ACAD_REACTORS
330
184
102
}
330
184
100
AcDbScale
 70
     0
300
8:1
140
8.0
141
1.0
290
     0
  0
SCALE
  5
194
102
{ACAD_REACTORS
330
184
102
}
330
184
100
AcDbScale
 70
     0
300
10:1
140
10.0
141
1.0
290
     0
  0
SCALE
  5
195
102
{ACAD_REACTORS
330
184
102
}
330
184
100
AcDbScale
 70
     0
300
100:1
140
100.0
141
1.0
290
     0
  0
SCALE
  5
196
102
{ACAD_REACTORS
330
184
102
}
330
184
100
AcDbScale
 70
     0
300
1/128" = 1'-0"
140
0.0078125
141
12.0
290
     0
  0
SCALE
  5
197
102
{ACAD_REACTORS
330
184
102
}
330
184
100
AcDbScale
 70
     0
300
1/64" = 1'-0"
140
0.015625
141
12.0
290
     0
  0
SCALE
  5
198
102
{ACAD_REACTORS
330
184
102
}
330
184
100
AcDbScale
 70
     0
300
1/32" = 1'-0"
140
0.03125
141
12.0
290
     0
  0
SCALE
  5
199
102
{ACAD_REACTORS
330
184
102
}
330
184
100
AcDbScale
 70
     0
300
1/16" = 1'-0"
140
0.0625
141
12.0
290
     0
  0
SCALE
  5
19A
102
{ACAD_REACTORS
330
184
102
}
330
184
100
AcDbScale
 70
     0
300
3/32" = 1'-0"
140
0.09375
141
12.0
290
     0
  0
SCALE
  5
19B
102
{ACAD_REACTORS
330
184
102
}
330
184
100
AcDbScale
 70
     0
300
1/8" = 1'-0"
140
0.125
141
12.0
290
     0
  0
SCALE
  5
19C
102
{ACAD_REACTORS
330
184
102
}
330
184
100
AcDbScale
 70
     0
300
3/16" = 1'-0"
140
0.1875
141
12.0
290
     0
  0
SCALE
  5
19D
102
{ACAD_REACTORS
330
184
102
}
330
184
100
AcDbScale
 70
     0
300
1/4" = 1'-0"
140
0.25
141
12.0
290
     0
  0
SCALE
  5
19E
102
{ACAD_REACTORS
330
184
102
}
330
184
100
AcDbScale
 70
     0
300
3/8" = 1'-0"
140
0.375
141
12.0
290
     0
  0
SCALE
  5
19F
102
{ACAD_REACTORS
330
184
102
}
330
184
100
AcDbScale
 70
     0
300
1/2" = 1'-0"
140
0.5
141
12.0
290
     0
  0
SCALE
  5
1A0
102
{ACAD_REACTORS
330
184
102
}
330
184
100
AcDbScale
 70
     0
300
3/4" = 1'-0"
140
0.75
141
12.0
290
     0
  0
SCALE
  5
1A1
102
{ACAD_REACTORS
330
184
102
}
330
184
100
AcDbScale
 70
     0
300
1" = 1'-0"
140
1.0
141
12.0
290
     0
  0
SCALE
  5
1A2
102
{ACAD_REACTORS
330
184
102
}
330
184
100
AcDbScale
 70
     0
300
1-1/2" = 1'-0"
140
1.5
141
12.0
290
     0
  0
SCALE
  5
1A3
102
{ACAD_REACTORS
330
184
102
}
330
184
100
AcDbScale
 70
     0
300
3" = 1'-0"
140
3.0
141
12.0
290
     0
  0
SCALE
  5
1A4
102
{ACAD_REACTORS
330
184
102
}
330
184
100
AcDbScale
 70
     0
300
6" = 1'-0"
140
6.0
141
12.0
290
     0
  0
SCALE
  5
1A5
102
{ACAD_REACTORS
330
184
102
}
330
184
100
AcDbScale
 70
     0
300
1'-0" = 1'-0"
140
12.0
141
12.0
290
     0
  0
TABLESTYLE
  5
1A7
102
{ACAD_REACTORS
330
1A6
102
}
102
{ACAD_XDICTIONARY
360
35D
102
}
330
1A6
100
AcDbTableStyle
  3
Standard
 70
     0
 71
     0
 40
0.06
 41
0.06
280
     0
281
     0
  7
Standard
140
0.18
170
     2
 62
     0
 63
   257
283
     0
 90
        4
 91
        0
  1

274
    -2
284
     1
 64
     0
275
    -2
285
     1
 65
     0
276
    -2
286
     1
 66
     0
277
    -2
287
     1
 67
     0
278
    -2
288
     1
 68
     0
279
    -2
289
     1
 69
     0
  7
Standard
140
0.25
170
     5
 62
     0
 63
   257
283
     0
 90
        4
 91
        0
  1

274
    -2
284
     1
 64
     0
275
    -2
285
     1
 65
     0
276
    -2
286
     1
 66
     0
277
    -2
287
     1
 67
     0
278
    -2
288
     1
 68
     0
279
    -2
289
     1
 69
     0
  7
Standard
140
0.18
170
     5
 62
     0
 63
   257
283
     0
 90
        4
 91
        0
  1

274
    -2
284
     1
 64
     0
275
    -2
285
     1
 65
     0
276
    -2
286
     1
 66
     0
277
    -2
287
     1
 67
     0
278
    -2
288
     1
 68
     0
279
    -2
289
     1
 69
     0
  0
VISUALSTYLE
  5
16C
102
{ACAD_REACTORS
330
167
102
}
330
167
100
AcDbVisualStyle
  2
2dWireframe
 70
     4
177
     3
291
     0
 70
    58
 90
        0
176
     1
 90
        2
176
     1
 90
        0
176
     1
 90
        0
176
     1
 40
0.6
176
     1
 40
30.0
176
     1
 62
     7
420
 16777215
176
     1
 90
        1
176
     1
 90
        4
176
     1
 62
     7
176
     1
 62
   257
176
     1
 90
        1
176
     1
 90
        1
176
     1
 40
1.0
176
     1
 90
        0
176
     1
 62
   257
176
     1
 40
1.0
176
     1
 90
        1
176
     1
 90
        6
176
     1
 90
        2
176
     1
 62
     7
176
     1
 90
        5
176
     1
 90
        0
176
     1
 90
        0
176
     1
290
     0
176
     1
 90
        1
176
     1
 40
0.0
176
     1
 90
        0
176
     1
290
     1
176
     1
290
     1
176
     1
290
     0
176
     1
290
     0
176
     1
290
     0
176
     1
290
     0
176
     1
290
     0
176
     1
290
     0
176
     1
290
     0
176
     1
 90
       50
176
     1
 40
0.0
176
     1
 40
1.0
176
     1
 90
        0
176
     1
 62
   178
420
        0
176
     1
 90
       50
176
     1
 90
        3
176
     1
 62
     5
420
      255
176
     1
290
     0
176
     1
 90
       50
176
     1
 90
       50
176
     1
 90
       50
176
     1
290
     0
176
     1
 90
       50
176
     1
 62
   256
176
     0
 40
1.0
176
     0
 90
        2
176
     1
  1
strokes_ogs.tif
176
     1
290
     0
176
     1
 40
1.0
176
     1
 40
1.0
176
     1
  0
VISUALSTYLE
  5
16F
102
{ACAD_REACTORS
330
167
102
}
330
167
100
AcDbVisualStyle
  2
Basic
 70
     7
177
     3
291
     1
 70
    58
 90
        1
176
     1
 90
        0
176
     1
 90
        1
176
     1
 90
        0
176
     1
 40
0.6
176
     1
 40
30.0
176
     1
 62
     7
420
 16777215
176
     1
 90
        0
176
     1
 90
        4
176
     1
 62
     7
176
     1
 62
   257
176
     1
 90
        1
176
     1
 90
        1
176
     1
 40
1.0
176
     1
 90
        8
176
     1
 62
     7
176
     1
 40
1.0
176
     1
 90
        1
176
     1
 90
        6
176
     1
 90
        2
176
     1
 62
     7
176
     1
 90
        5
176
     1
 90
        0
176
     1
 90
        0
176
     1
290
     0
176
     1
 90
        1
176
     1
 40
0.0
176
     1
 90
        0
176
     1
290
     0
176
     1
290
     1
176
     1
290
     1
176
     1
290
     0
176
     1
290
     0
176
     1
290
     0
176
     1
290
     0
176
     1
290
     0
176
     1
290
     0
176
     1
 90
       50
176
     1
 40
0.0
176
     1
 40
1.0
176
     1
 90
        0
176
     1
 62
   178
420
        0
176
     1
 90
       50
176
     1
 90
        3
176
     1
 62
     5
420
      255
176
     1
290
     0
176
     1
 90
       50
176
     1
 90
       50
176
     1
 90
       50
176
     1
290
     0
176
     1
 90
       50
176
     1
 62
   256
176
     0
 40
1.0
176
     0
 90
        2
176
     1
  1
strokes_ogs.tif
176
     1
290
     0
176
     1
 40
1.0
176
     1
 40
1.0
176
     1
  0
VISUALSTYLE
  5
173
102
{ACAD_REACTORS
330
167
102
}
330
167
100
AcDbVisualStyle
  2
Brighten
 70
    12
177
     3
291
     1
 70
    58
 90
        2
176
     1
 90
        2
176
     1
 90
        0
176
     1
 90
        0
176
     1
 40
0.6
176
     1
 40
30.0
176
     1
 62
     7
420
 16777215
176
     1
 90
        1
176
     1
 90
        4
176
     1
 62
     7
176
     1
 62
   257
176
     1
 90
        1
176
     1
 90
        1
176
     1
 40
1.0
176
     1
 90
        8
176
     1
 62
     7
176
     1
 40
1.0
176
     1
 90
        1
176
     1
 90
        6
176
     1
 90
        2
176
     1
 62
     7
176
     1
 90
        5
176
     1
 90
        0
176
     1
 90
        0
176
     1
290
     0
176
     1
 90
        1
176
     1
 40
50.0
176
     1
 90
        0
176
     1
290
     0
176
     1
290
     1
176
     1
290
     1
176
     1
290
     0
176
     1
290
     0
176
     1
290
     0
176
     1
290
     0
176
     1
290
     0
176
     1
290
     0
176
     1
 90
       50
176
     1
 40
0.0
176
     1
 40
1.0
176
     1
 90
        0
176
     1
 62
   178
420
        0
176
     1
 90
       50
176
     1
 90
        3
176
     1
 62
     5
420
      255
176
     1
290
     0
176
     1
 90
       50
176
     1
 90
       50
176
     1
 90
       50
176
     1
290
     0
176
     1
 90
       50
176
     1
 62
   256
176
     0
 40
1.0
176
     0
 90
        2
176
     1
  1
strokes_ogs.tif
176
     1
290
     0
176
     1
 40
1.0
176
     1
 40
1.0
176
     1
  0
VISUALSTYLE
  5
177
102
{ACAD_REACTORS
330
167
102
}
330
167
100
AcDbVisualStyle
  2
ColorChange
 70
    16
177
     3
291
     1
 70
    58
 90
        2
176
     1
 90
        2
176
     1
 90
        3
176
     1
 90
        0
176
     1
 40
0.6
176
     1
 40
30.0
176
     1
 62
     8
420
  8421504
176
     1
 90
        1
176
     1
 90
        4
176
     1
 62
     7
176
     1
 62
   257
176
     1
 90
        1
176
     1
 90
        1
176
     1
 40
1.0
176
     1
 90
        8
176
     1
 62
     8
420
  8421504
176
     1
 40
1.0
176
     1
 90
        1
176
     1
 90
        6
176
     1
 90
        2
176
     1
 62
     7
176
     1
 90
        5
176
     1
 90
        0
176
     1
 90
        0
176
     1
290
     0
176
     1
 90
        1
176
     1
 40
0.0
176
     1
 90
        0
176
     1
290
     0
176
     1
290
     1
176
     1
290
     1
176
     1
290
     0
176
     1
290
     0
176
     1
290
     0
176
     1
290
     0
176
     1
290
     0
176
     1
290
     0
176
     1
 90
       50
176
     1
 40
0.0
176
     1
 40
1.0
176
     1
 90
        0
176
     1
 62
   178
420
        0
176
     1
 90
       50
176
     1
 90
        3
176
     1
 62
     5
420
      255
176
     1
290
     0
176
     1
 90
       50
176
     1
 90
       50
176
     1
 90
       50
176
     1
290
     0
176
     1
 90
       50
176
     1
 62
   256
176
     0
 40
1.0
176
     0
 90
        2
176
     1
  1
strokes_ogs.tif
176
     1
290
     0
176
     1
 40
1.0
176
     1
 40
1.0
176
     1
  0
VISUALSTYLE
  5
171
102
{ACAD_REACTORS
330
167
102
}
330
167
100
AcDbVisualStyle
  2
Conceptual
 70
     9
177
     3
291
     0
 70
    58
 90
        3
176
     1
 90
        2
176
     1
 90
        0
176
     1
 90
        0
176
     1
 40
0.6
176
     1
 40
30.0
176
     1
 62
     7
420
 16777215
176
     1
 90
        2
176
     1
 90
        2
176
     1
 62
     7
176
     1
 62
   257
176
     1
 90
        1
176
     1
 90
        1
176
     1
 40
179.0
176
     1
 90
        8
176
     1
 62
     7
176
     1
 40
1.0
176
     1
 90
        1
176
     1
 90
        6
176
     1
 90
        2
176
     1
 62
     7
176
     1
 90
        3
176
     1
 90
        0
176
     1
 90
        0
176
     1
290
     0
176
     1
 90
        1
176
     1
 40
0.0
176
     1
 90
        0
176
     1
290
     0
176
     1
290
     1
176
     1
290
     1
176
     1
290
     0
176
     1
290
     0
176
     1
290
     0
176
     1
290
     0
176
     1
290
     0
176
     1
290
     0
176
     1
 90
       50
176
     1
 40
0.0
176
     1
 40
1.0
176
     1
 90
        0
176
     1
 62
   178
420
        0
176
     1
 90
       50
176
     1
 90
        3
176
     1
 62
     5
420
      255
176
     1
290
     0
176
     1
 90
       50
176
     1
 90
       50
176
     1
 90
       50
176
     1
290
     0
176
     1
 90
       50
176
     1
 62
   256
176
     0
 40
1.0
176
     0
 90
        2
176
     1
  1
strokes_ogs.tif
176
     1
290
     0
176
     1
 40
1.0
176
     1
 40
1.0
176
     1
  0
VISUALSTYLE
  5
172
102
{ACAD_REACTORS
330
167
102
}
330
167
100
AcDbVisualStyle
  2
Dim
 70
    11
177
     3
291
     1
 70
    58
 90
        2
176
     1
 90
        2
176
     1
 90
        0
176
     1
 90
        0
176
     1
 40
0.6
176
     1
 40
30.0
176
     1
 62
     7
420
 16777215
176
     1
 90
        1
176
     1
 90
        4
176
     1
 62
     7
176
     1
 62
   257
176
     1
 90
        1
176
     1
 90
        1
176
     1
 40
1.0
176
     1
 90
        8
176
     1
 62
     7
176
     1
 40
1.0
176
     1
 90
        1
176
     1
 90
        6
176
     1
 90
        2
176
     1
 62
     7
176
     1
 90
        5
176
     1
 90
        0
176
     1
 90
        0
176
     1
290
     0
176
     1
 90
        1
176
     1
 40
-50.0
176
     1
 90
        0
176
     1
290
     0
176
     1
290
     1
176
     1
290
     1
176
     1
290
     0
176
     1
290
     0
176
     1
290
     0
176
     1
290
     0
176
     1
290
     0
176
     1
290
     0
176
     1
 90
       50
176
     1
 40
0.0
176
     1
 40
1.0
176
     1
 90
        0
176
     1
 62
   178
420
        0
176
     1
 90
       50
176
     1
 90
        3
176
     1
 62
     5
420
      255
176
     1
290
     0
176
     1
 90
       50
176
     1
 90
       50
176
     1
 90
       50
176
     1
290
     0
176
     1
 90
       50
176
     1
 62
   256
176
     0
 40
1.0
176
     0
 90
        2
176
     1
  1
strokes_ogs.tif
176
     1
290
     0
176
     1
 40
1.0
176
     1
 40
1.0
176
     1
  0
VISUALSTYLE
  5
17A
102
{ACAD_REACTORS
330
167
102
}
330
167
100
AcDbVisualStyle
  2
EdgeColorOff
 70
    22
177
     3
291
     1
 70
    58
 90
        2
176
     0
 90
        2
176
     0
 90
        0
176
     0
 90
        0
176
     0
 40
0.6
176
     0
 40
30.0
176
     0
 62
     7
420
 16777215
176
     0
 90
        1
176
     0
 90
        4
176
     0
 62
     7
176
     0
 62
   257
176
     0
 90
        1
176
     0
 90
        1
176
     0
 40
1.0
176
     0
 90
        8
176
     2
 62
     7
176
     0
 40
1.0
176
     0
 90
        1
176
     0
 90
        6
176
     0
 90
        2
176
     0
 62
     7
176
     0
 90
        5
176
     0
 90
        0
176
     0
 90
        0
176
     0
290
     0
176
     0
 90
        1
176
     0
 40
0.0
176
     0
 90
        0
176
     0
290
     0
176
     0
290
     1
176
     0
290
     1
176
     0
290
     0
176
     0
290
     0
176
     0
290
     0
176
     0
290
     0
176
     0
290
     0
176
     0
290
     0
176
     0
 90
       50
176
     0
 40
0.0
176
     0
 40
1.0
176
     0
 90
        0
176
     0
 62
   178
420
        0
176
     0
 90
       50
176
     0
 90
        3
176
     0
 62
     5
420
      255
176
     0
290
     0
176
     0
 90
       50
176
     0
 90
       50
176
     0
 90
       50
176
     0
290
     0
176
     0
 90
       50
176
     0
 62
   256
176
     0
 40
1.0
176
     0
 90
        2
176
     0
  1
strokes_ogs.tif
176
     0
290
     0
176
     0
 40
1.0
176
     0
 40
1.0
176
     0
  0
VISUALSTYLE
  5
176
102
{ACAD_REACTORS
330
167
102
}
330
167
100
AcDbVisualStyle
  2
Facepattern
 70
    15
177
     3
291
     1
 70
    58
 90
        2
176
     1
 90
        2
176
     1
 90
        0
176
     1
 90
        0
176
     1
 40
0.6
176
     1
 40
30.0
176
     1
 62
     7
420
 16777215
176
     1
 90
        1
176
     1
 90
        4
176
     1
 62
     7
176
     1
 62
   257
176
     1
 90
        1
176
     1
 90
        1
176
     1
 40
1.0
176
     1
 90
        8
176
     1
 62
     7
176
     1
 40
1.0
176
     1
 90
        1
176
     1
 90
        6
176
     1
 90
        2
176
     1
 62
     7
176
     1
 90
        5
176
     1
 90
        0
176
     1
 90
        0
176
     1
290
     0
176
     1
 90
        1
176
     1
 40
0.0
176
     1
 90
        0
176
     1
290
     0
176
     1
290
     1
176
     1
290
     1
176
     1
290
     0
176
     1
290
     0
176
     1
290
     0
176
     1
290
     0
176
     1
290
     0
176
     1
290
     0
176
     1
 90
       50
176
     1
 40
0.0
176
     1
 40
1.0
176
     1
 90
        0
176
     1
 62
   178
420
        0
176
     1
 90
       50
176
     1
 90
        3
176
     1
 62
     5
420
      255
176
     1
290
     0
176
     1
 90
       50
176
     1
 90
       50
176
     1
 90
       50
176
     1
290
     0
176
     1
 90
       50
176
     1
 62
   256
176
     0
 40
1.0
176
     0
 90
        2
176
     1
  1
strokes_ogs.tif
176
     1
290
     0
176
     1
 40
1.0
176
     1
 40
1.0
176
     1
  0
VISUALSTYLE
  5
168
102
{ACAD_REACTORS
330
167
102
}
330
167
100
AcDbVisualStyle
  2
Flat
 70
     0
177
     3
291
     1
 70
    58
 90
        2
176
     1
 90
        1
176
     1
 90
        1
176
     1
 90
        2
176
     1
 40
0.6
176
     1
 40
30.0
176
     1
 62
     7
420
 16777215
176
     1
 90
        0
176
     1
 90
        0
176
     1
 62
     7
176
     1
 62
   257
176
     1
 90
        1
176
     1
 90
        1
176
     1
 40
1.0
176
     1
 90
        8
176
     1
 62
     7
176
     1
 40
1.0
176
     1
 90
        1
176
     1
 90
        6
176
     1
 90
        2
176
     1
 62
     7
176
     1
 90
        5
176
     1
 90
        0
176
     1
 90
        0
176
     1
290
     0
176
     1
 90
       13
176
     1
 40
0.0
176
     1
 90
        0
176
     1
290
     0
176
     1
290
     1
176
     1
290
     1
176
     1
290
     0
176
     1
290
     0
176
     1
290
     0
176
     1
290
     0
176
     1
290
     0
176
     1
290
     0
176
     1
 90
       50
176
     1
 40
0.0
176
     1
 40
1.0
176
     1
 90
        0
176
     1
 62
   178
420
        0
176
     1
 90
       50
176
     1
 90
        3
176
     1
 62
     5
420
      255
176
     1
290
     0
176
     1
 90
       50
176
     1
 90
       50
176
     1
 90
       50
176
     1
290
     0
176
     1
 90
       50
176
     1
 62
   256
176
     0
 40
1.0
176
     0
 90
        2
176
     1
  1
strokes_ogs.tif
176
     1
290
     0
176
     1
 40
1.0
176
     1
 40
1.0
176
     1
  0
VISUALSTYLE
  5
169
102
{ACAD_REACTORS
330
167
102
}
330
167
100
AcDbVisualStyle
  2
FlatWithEdges
 70
     1
177
     3
291
     1
 70
    58
 90
        2
176
     1
 90
        1
176
     1
 90
        1
176
     1
 90
        2
176
     1
 40
0.6
176
     1
 40
30.0
176
     1
 62
     7
420
 16777215
176
     1
 90
        1
176
     1
 90
        0
176
     1
 62
     7
176
     1
 62
   257
176
     1
 90
        1
176
     1
 90
        1
176
     1
 40
1.0
176
     1
 90
        0
176
     1
 62
   257
176
     1
 40
1.0
176
     1
 90
        1
176
     1
 90
        6
176
     1
 90
        2
176
     1
 62
     7
176
     1
 90
        5
176
     1
 90
        0
176
     1
 90
        0
176
     1
290
     0
176
     1
 90
       13
176
     1
 40
0.0
176
     1
 90
        0
176
     1
290
     0
176
     1
290
     1
176
     1
290
     1
176
     1
290
     0
176
     1
290
     0
176
     1
290
     0
176
     1
290
     0
176
     1
290
     0
176
     1
290
     0
176
     1
 90
       50
176
     1
 40
0.0
176
     1
 40
1.0
176
     1
 90
        0
176
     1
 62
   178
420
        0
176
     1
 90
       50
176
     1
 90
        3
176
     1
 62
     5
420
      255
176
     1
290
     0
176
     1
 90
       50
176
     1
 90
       50
176
     1
 90
       50
176
     1
290
     0
176
     1
 90
       50
176
     1
 62
   256
176
     0
 40
1.0
176
     0
 90
        2
176
     1
  1
strokes_ogs.tif
176
     1
290
     0
176
     1
 40
1.0
176
     1
 40
1.0
176
     1
  0
VISUALSTYLE
  5
16A
102
{ACAD_REACTORS
330
167
102
}
330
167
100
AcDbVisualStyle
  2
Gouraud
 70
     2
177
     3
291
     1
 70
    58
 90
        2
176
     1
 90
        2
176
     1
 90
        1
176
     1
 90
        2
176
     1
 40
0.6
176
     1
 40
30.0
176
     1
 62
     7
420
 16777215
176
     1
 90
        0
176
     1
 90
        0
176
     1
 62
     7
176
     1
 62
   257
176
     1
 90
        1
176
     1
 90
        1
176
     1
 40
1.0
176
     1
 90
        0
176
     1
 62
     7
176
     1
 40
1.0
176
     1
 90
        1
176
     1
 90
        6
176
     1
 90
        2
176
     1
 62
     7
176
     1
 90
        5
176
     1
 90
        0
176
     1
 90
        0
176
     1
290
     0
176
     1
 90
       13
176
     1
 40
0.0
176
     1
 90
        0
176
     1
290
     0
176
     1
290
     1
176
     1
290
     1
176
     1
290
     0
176
     1
290
     0
176
     1
290
     0
176
     1
290
     0
176
     1
290
     0
176
     1
290
     0
176
     1
 90
       50
176
     1
 40
0.0
176
     1
 40
1.0
176
     1
 90
        0
176
     1
 62
   178
420
        0
176
     1
 90
       50
176
     1
 90
        3
176
     1
 62
     5
420
      255
176
     1
290
     0
176
     1
 90
       50
176
     1
 90
       50
176
     1
 90
       50
176
     1
290
     0
176
     1
 90
       50
176
     1
 62
   256
176
     0
 40
1.0
176
     0
 90
        2
176
     1
  1
strokes_ogs.tif
176
     1
290
     0
176
     1
 40
1.0
176
     1
 40
1.0
176
     1
  0
VISUALSTYLE
  5
16B
102
{ACAD_REACTORS
330
167
102
}
330
167
100
AcDbVisualStyle
  2
GouraudWithEdges
 70
     3
177
     3
291
     1
 70
    58
 90
        2
176
     1
 90
        2
176
     1
 90
        1
176
     1
 90
        2
176
     1
 40
0.6
176
     1
 40
30.0
176
     1
 62
     7
420
 16777215
176
     1
 90
        1
176
     1
 90
        0
176
     1
 62
     7
176
     1
 62
   257
176
     1
 90
        1
176
     1
 90
        1
176
     1
 40
1.0
176
     1
 90
        0
176
     1
 62
   257
176
     1
 40
1.0
176
     1
 90
        1
176
     1
 90
        6
176
     1
 90
        2
176
     1
 62
     7
176
     1
 90
        5
176
     1
 90
        0
176
     1
 90
        0
176
     1
290
     0
176
     1
 90
       13
176
     1
 40
0.0
176
     1
 90
        0
176
     1
290
     0
176
     1
290
     1
176
     1
290
     1
176
     1
290
     0
176
     1
290
     0
176
     1
290
     0
176
     1
290
     0
176
     1
290
     0
176
     1
290
     0
176
     1
 90
       50
176
     1
 40
0.0
176
     1
 40
1.0
176
     1
 90
        0
176
     1
 62
   178
420
        0
176
     1
 90
       50
176
     1
 90
        3
176
     1
 62
     5
420
      255
176
     1
290
     0
176
     1
 90
       50
176
     1
 90
       50
176
     1
 90
       50
176
     1
290
     0
176
     1
 90
       50
176
     1
 62
   256
176
     0
 40
1.0
176
     0
 90
        2
176
     1
  1
strokes_ogs.tif
176
     1
290
     0
176
     1
 40
1.0
176
     1
 40
1.0
176
     1
  0
VISUALSTYLE
  5
16E
102
{ACAD_REACTORS
330
167
102
}
330
167
100
AcDbVisualStyle
  2
Hidden
 70
     6
177
     3
291
     0
 70
    58
 90
        1
176
     1
 90
        2
176
     1
 90
        2
176
     1
 90
        0
176
     1
 40
0.6
176
     1
 40
30.0
176
     1
 62
     7
420
 16777215
176
     1
 90
        2
176
     1
 90
        2
176
     1
 62
     7
176
     1
 62
   257
176
     1
 90
        2
176
     1
 90
        1
176
     1
 40
40.0
176
     1
 90
        0
176
     1
 62
   257
176
     1
 40
1.0
176
     1
 90
        1
176
     1
 90
        6
176
     1
 90
        2
176
     1
 62
     7
176
     1
 90
        3
176
     1
 90
        0
176
     1
 90
        0
176
     1
290
     0
176
     1
 90
        1
176
     1
 40
0.0
176
     1
 90
        0
176
     1
290
     0
176
     1
290
     1
176
     1
290
     1
176
     1
290
     0
176
     1
290
     0
176
     1
290
     0
176
     1
290
     0
176
     1
290
     0
176
     1
290
     0
176
     1
 90
       50
176
     1
 40
0.0
176
     1
 40
1.0
176
     1
 90
        0
176
     1
 62
   178
420
        0
176
     1
 90
       50
176
     1
 90
        3
176
     1
 62
     5
420
      255
176
     1
290
     0
176
     1
 90
       50
176
     1
 90
       50
176
     1
 90
       50
176
     1
290
     0
176
     1
 90
       50
176
     1
 62
   256
176
     0
 40
1.0
176
     0
 90
        2
176
     1
  1
strokes_ogs.tif
176
     1
290
     0
176
     1
 40
1.0
176
     1
 40
1.0
176
     1
  0
VISUALSTYLE
  5
178
102
{ACAD_REACTORS
330
167
102
}
330
167
100
AcDbVisualStyle
  2
JitterOff
 70
    20
177
     3
291
     1
 70
    58
 90
        2
176
     0
 90
        2
176
     0
 90
        0
176
     0
 90
        0
176
     0
 40
0.6
176
     0
 40
30.0
176
     0
 62
     7
420
 16777215
176
     0
 90
        1
176
     0
 90
        4
176
     0
 62
     7
176
     0
 62
   257
176
     0
 90
        1
176
     0
 90
        1
176
     0
 40
1.0
176
     0
 90
       10
176
     2
 62
     7
176
     0
 40
1.0
176
     0
 90
        1
176
     0
 90
        6
176
     0
 90
        2
176
     0
 62
     7
176
     0
 90
        5
176
     0
 90
        0
176
     0
 90
        0
176
     0
290
     0
176
     0
 90
        1
176
     0
 40
0.0
176
     0
 90
        0
176
     0
290
     0
176
     0
290
     1
176
     0
290
     1
176
     0
290
     0
176
     0
290
     0
176
     0
290
     0
176
     0
290
     0
176
     0
290
     0
176
     0
290
     0
176
     0
 90
       50
176
     0
 40
0.0
176
     0
 40
1.0
176
     0
 90
        0
176
     0
 62
   178
420
        0
176
     0
 90
       50
176
     0
 90
        3
176
     0
 62
     5
420
      255
176
     0
290
     0
176
     0
 90
       50
176
     0
 90
       50
176
     0
 90
       50
176
     0
290
     0
176
     0
 90
       50
176
     0
 62
   256
176
     0
 40
1.0
176
     0
 90
        2
176
     0
  1
strokes_ogs.tif
176
     0
290
     0
176
     0
 40
1.0
176
     0
 40
1.0
176
     0
  0
VISUALSTYLE
  5
175
102
{ACAD_REACTORS
330
167
102
}
330
167
100
AcDbVisualStyle
  2
Linepattern
 70
    14
177
     3
291
     1
 70
    58
 90
        2
176
     1
 90
        2
176
     1
 90
        0
176
     1
 90
        0
176
     1
 40
0.6
176
     1
 40
30.0
176
     1
 62
     7
420
 16777215
176
     1
 90
        1
176
     1
 90
        4
176
     1
 62
     7
176
     1
 62
   257
176
     1
 90
        7
176
     1
 90
        7
176
     1
 40
1.0
176
     1
 90
        8
176
     1
 62
     7
176
     1
 40
1.0
176
     1
 90
        1
176
     1
 90
        6
176
     1
 90
        2
176
     1
 62
     7
176
     1
 90
        5
176
     1
 90
        0
176
     1
 90
        0
176
     1
290
     0
176
     1
 90
        1
176
     1
 40
0.0
176
     1
 90
        0
176
     1
290
     0
176
     1
290
     1
176
     1
290
     1
176
     1
290
     0
176
     1
290
     0
176
     1
290
     0
176
     1
290
     0
176
     1
290
     0
176
     1
290
     0
176
     1
 90
       50
176
     1
 40
0.0
176
     1
 40
1.0
176
     1
 90
        0
176
     1
 62
   178
420
        0
176
     1
 90
       50
176
     1
 90
        3
176
     1
 62
     5
420
      255
176
     1
290
     0
176
     1
 90
       50
176
     1
 90
       50
176
     1
 90
       50
176
     1
290
     0
176
     1
 90
       50
176
     1
 62
   256
176
     0
 40
1.0
176
     0
 90
        2
176
     1
  1
strokes_ogs.tif
176
     1
290
     0
176
     1
 40
1.0
176
     1
 40
1.0
176
     1
  0
VISUALSTYLE
  5
179
102
{ACAD_REACTORS
330
167
102
}
330
167
100
AcDbVisualStyle
  2
OverhangOff
 70
    21
177
     3
291
     1
 70
    58
 90
        2
176
     0
 90
        2
176
     0
 90
        0
176
     0
 90
        0
176
     0
 40
0.6
176
     0
 40
30.0
176
     0
 62
     7
420
 16777215
176
     0
 90
        1
176
     0
 90
        4
176
     0
 62
     7
176
     0
 62
   257
176
     0
 90
        1
176
     0
 90
        1
176
     0
 40
1.0
176
     0
 90
        9
176
     2
 62
     7
176
     0
 40
1.0
176
     0
 90
        1
176
     0
 90
        6
176
     0
 90
        2
176
     0
 62
     7
176
     0
 90
        5
176
     0
 90
        0
176
     0
 90
        0
176
     0
290
     0
176
     0
 90
        1
176
     0
 40
0.0
176
     0
 90
        0
176
     0
290
     0
176
     0
290
     1
176
     0
290
     1
176
     0
290
     0
176
     0
290
     0
176
     0
290
     0
176
     0
290
     0
176
     0
290
     0
176
     0
290
     0
176
     0
 90
       50
176
     0
 40
0.0
176
     0
 40
1.0
176
     0
 90
        0
176
     0
 62
   178
420
        0
176
     0
 90
       50
176
     0
 90
        3
176
     0
 62
     5
420
      255
176
     0
290
     0
176
     0
 90
       50
176
     0
 90
       50
176
     0
 90
       50
176
     0
290
     0
176
     0
 90
       50
176
     0
 62
   256
176
     0
 40
1.0
176
     0
 90
        2
176
     0
  1
strokes_ogs.tif
176
     0
290
     0
176
     0
 40
1.0
176
     0
 40
1.0
176
     0
  0
VISUALSTYLE
  5
170
102
{ACAD_REACTORS
330
167
102
}
330
167
100
AcDbVisualStyle
  2
Realistic
 70
     8
177
     3
291
     0
 70
    58
 90
        2
176
     1
 90
        3
176
     1
 90
        0
176
     1
 90
        2
176
     1
 40
0.6
176
     1
 40
30.0
176
     1
 62
     7
420
 16777215
176
     1
 90
        0
176
     1
 90
        0
176
     1
 62
     7
176
     1
 62
   257
176
     1
 90
        1
176
     1
 90
        1
176
     1
 40
1.0
176
     1
 90
        8
176
     1
 62
   257
176
     1
 40
1.0
176
     1
 90
        1
176
     1
 90
        6
176
     1
 90
        2
176
     1
 62
     7
176
     1
 90
        3
176
     1
 90
        0
176
     1
 90
        0
176
     1
290
     0
176
     1
 90
       13
176
     1
 40
0.0
176
     1
 90
        0
176
     1
290
     0
176
     1
290
     1
176
     1
290
     1
176
     1
290
     0
176
     1
290
     0
176
     1
290
     0
176
     1
290
     0
176
     1
290
     0
176
     1
290
     0
176
     1
 90
       50
176
     1
 40
0.0
176
     1
 40
1.0
176
     1
 90
        0
176
     1
 62
   178
420
        0
176
     1
 90
       50
176
     1
 90
        3
176
     1
 62
     5
420
      255
176
     1
290
     0
176
     1
 90
       50
176
     1
 90
       50
176
     1
 90
       50
176
     1
290
     0
176
     1
 90
       50
176
     1
 62
   256
176
     0
 40
1.0
176
     0
 90
        2
176
     1
  1
strokes_ogs.tif
176
     1
290
     0
176
     1
 40
1.0
176
     1
 40
1.0
176
     1
  0
VISUALSTYLE
  5
17F
102
{ACAD_REACTORS
330
167
102
}
330
167
100
AcDbVisualStyle
  2
Shaded
 70
    27
177
     3
291
     0
 70
    58
 90
        2
176
     1
 90
        2
176
     1
 90
        1
176
     1
 90
        2
176
     1
 40
0.6
176
     1
 40
30.0
176
     1
 62
     7
420
 16777215
176
     1
 90
        0
176
     1
 90
        4
176
     1
 62
     7
176
     1
 62
   257
176
     1
 90
        1
176
     1
 90
        1
176
     1
 40
1.0
176
     1
 90
        8
176
     1
 62
   257
176
     1
 40
1.0
176
     1
 90
        1
176
     1
 90
        6
176
     1
 90
        2
176
     1
 62
     8
420
  7895160
176
     1
 90
        3
176
     1
 90
        0
176
     1
 90
        0
176
     1
290
     0
176
     1
 90
        5
176
     1
 40
0.0
176
     1
 90
        0
176
     1
290
     0
176
     1
290
     1
176
     1
290
     1
176
     1
290
     0
176
     1
290
     0
176
     1
290
     0
176
     1
290
     0
176
     1
290
     0
176
     1
290
     0
176
     1
 90
       50
176
     1
 40
0.0
176
     1
 40
1.0
176
     1
 90
        0
176
     1
 62
   178
420
        0
176
     1
 90
       50
176
     1
 90
        3
176
     1
 62
     5
420
      255
176
     1
290
     0
176
     1
 90
       50
176
     1
 90
       50
176
     1
 90
       50
176
     1
290
     0
176
     1
 90
       50
176
     1
 62
   256
176
     0
 40
1.0
176
     0
 90
        2
176
     1
  1
strokes_ogs.tif
176
     1
290
     0
176
     1
 40
1.0
176
     1
 40
1.0
176
     1
  0
VISUALSTYLE
  5
17E
102
{ACAD_REACTORS
330
167
102
}
330
167
100
AcDbVisualStyle
  2
Shaded with edges
 70
    26
177
     3
291
     0
 70
    58
 90
        2
176
     1
 90
        2
176
     1
 90
        1
176
     1
 90
        2
176
     1
 40
0.6
176
     1
 40
30.0
176
     1
 62
     7
420
 16777215
176
     1
 90
        1
176
     1
 90
       10
176
     1
 62
     7
176
     1
 62
   257
176
     1
 90
        2
176
     1
 90
        1
176
     1
 40
1.0
176
     1
 90
        8
176
     1
 62
   257
176
     1
 40
1.0
176
     1
 90
        1
176
     1
 90
        6
176
     1
 90
        2
176
     1
 62
     7
176
     1
 90
        3
176
     1
 90
        0
176
     1
 90
        0
176
     1
290
     0
176
     1
 90
        5
176
     1
 40
0.0
176
     1
 90
        0
176
     1
290
     0
176
     1
290
     1
176
     1
290
     1
176
     1
290
     0
176
     1
290
     0
176
     1
290
     0
176
     1
290
     0
176
     1
290
     0
176
     1
290
     0
176
     1
 90
       50
176
     1
 40
0.0
176
     1
 40
1.0
176
     1
 90
        0
176
     1
 62
   178
420
        0
176
     1
 90
       50
176
     1
 90
        3
176
     1
 62
     5
420
      255
176
     1
290
     0
176
     1
 90
       50
176
     1
 90
       50
176
     1
 90
       50
176
     1
290
     0
176
     1
 90
       50
176
     1
 62
   256
176
     0
 40
1.0
176
     0
 90
        2
176
     1
  1
strokes_ogs.tif
176
     1
290
     0
176
     1
 40
1.0
176
     1
 40
1.0
176
     1
  0
VISUALSTYLE
  5
17B
102
{ACAD_REACTORS
330
167
102
}
330
167
100
AcDbVisualStyle
  2
Shades of Gray
 70
    23
177
     3
291
     0
 70
    58
 90
        2
176
     1
 90
        2
176
     1
 90
        3
176
     1
 90
        0
176
     1
 40
0.6
176
     1
 40
30.0
176
     1
 62
     7
420
 16777215
176
     1
 90
        2
176
     1
 90
        2
176
     1
 62
     7
176
     1
 62
     7
176
     1
 90
        1
176
     1
 90
        1
176
     1
 40
40.0
176
     1
 90
        8
176
     1
 62
     7
176
     1
 40
1.0
176
     1
 90
        1
176
     1
 90
        6
176
     1
 90
        2
176
     1
 62
     7
176
     1
 90
        3
176
     1
 90
        0
176
     1
 90
        0
176
     1
290
     0
176
     1
 90
        1
176
     1
 40
0.0
176
     1
 90
        0
176
     1
290
     0
176
     1
290
     1
176
     1
290
     1
176
     1
290
     0
176
     1
290
     0
176
     1
290
     0
176
     1
290
     0
176
     1
290
     0
176
     1
290
     0
176
     1
 90
       50
176
     1
 40
0.0
176
     1
 40
1.0
176
     1
 90
        0
176
     1
 62
   178
420
        0
176
     1
 90
       50
176
     1
 90
        3
176
     1
 62
     5
420
      255
176
     1
290
     0
176
     1
 90
       50
176
     1
 90
       50
176
     1
 90
       50
176
     1
290
     0
176
     1
 90
       50
176
     1
 62
   256
176
     0
 40
1.0
176
     0
 90
        2
176
     1
  1
strokes_ogs.tif
176
     1
290
     0
176
     1
 40
1.0
176
     1
 40
1.0
176
     1
  0
VISUALSTYLE
  5
17C
102
{ACAD_REACTORS
330
167
102
}
330
167
100
AcDbVisualStyle
  2
Sketchy
 70
    24
177
     3
291
     0
 70
    58
 90
        1
176
     1
 90
        2
176
     1
 90
        2
176
     1
 90
        0
176
     1
 40
0.6
176
     1
 40
30.0
176
     1
 62
     7
420
 16777215
176
     1
 90
        2
176
     1
 90
        2
176
     1
 62
     7
176
     1
 62
     7
176
     1
 90
        1
176
     1
 90
        1
176
     1
 40
40.0
176
     1
 90
       11
176
     1
 62
     7
176
     1
 40
1.0
176
     1
 90
        1
176
     1
 90
        6
176
     1
 90
        2
176
     1
 62
     7
176
     1
 90
        6
176
     1
 90
        0
176
     1
 90
        0
176
     1
290
     0
176
     1
 90
        1
176
     1
 40
0.0
176
     1
 90
        0
176
     1
290
     0
176
     1
290
     1
176
     1
290
     1
176
     1
290
     0
176
     1
290
     0
176
     1
290
     0
176
     1
290
     0
176
     1
290
     0
176
     1
290
     0
176
     1
 90
       50
176
     1
 40
0.0
176
     1
 40
1.0
176
     1
 90
        0
176
     1
 62
   178
420
        0
176
     1
 90
       50
176
     1
 90
        3
176
     1
 62
     5
420
      255
176
     1
290
     0
176
     1
 90
       50
176
     1
 90
       50
176
     1
 90
       50
176
     1
290
     0
176
     1
 90
       50
176
     1
 62
   256
176
     0
 40
1.0
176
     0
 90
        2
176
     1
  1
strokes_ogs.tif
176
     1
290
     0
176
     1
 40
1.0
176
     1
 40
1.0
176
     1
  0
VISUALSTYLE
  5
174
102
{ACAD_REACTORS
330
167
102
}
330
167
100
AcDbVisualStyle
  2
Thicken
 70
    13
177
     3
291
     1
 70
    58
 90
        2
176
     1
 90
        2
176
     1
 90
        0
176
     1
 90
        0
176
     1
 40
0.6
176
     1
 40
30.0
176
     1
 62
     7
420
 16777215
176
     1
 90
        1
176
     1
 90
        4
176
     1
 62
     7
176
     1
 62
   257
176
     1
 90
        1
176
     1
 90
        1
176
     1
 40
1.0
176
     1
 90
       12
176
     1
 62
     7
176
     1
 40
1.0
176
     1
 90
        1
176
     1
 90
        6
176
     1
 90
        2
176
     1
 62
     7
176
     1
 90
        5
176
     1
 90
        0
176
     1
 90
        0
176
     1
290
     0
176
     1
 90
        1
176
     1
 40
0.0
176
     1
 90
        0
176
     1
290
     0
176
     1
290
     1
176
     1
290
     1
176
     1
290
     0
176
     1
290
     0
176
     1
290
     0
176
     1
290
     0
176
     1
290
     0
176
     1
290
     0
176
     1
 90
       50
176
     1
 40
0.0
176
     1
 40
1.0
176
     1
 90
        0
176
     1
 62
   178
420
        0
176
     1
 90
       50
176
     1
 90
        3
176
     1
 62
     5
420
      255
176
     1
290
     0
176
     1
 90
       50
176
     1
 90
       50
176
     1
 90
       50
176
     1
290
     0
176
     1
 90
       50
176
     1
 62
   256
176
     0
 40
1.0
176
     0
 90
        2
176
     1
  1
strokes_ogs.tif
176
     1
290
     0
176
     1
 40
1.0
176
     1
 40
1.0
176
     1
  0
VISUALSTYLE
  5
16D
102
{ACAD_REACTORS
330
167
102
}
330
167
100
AcDbVisualStyle
  2
Wireframe
 70
     5
177
     3
291
     0
 70
    58
 90
        0
176
     1
 90
        2
176
     1
 90
        0
176
     1
 90
        0
176
     1
 40
0.6
176
     1
 40
30.0
176
     1
 62
     7
420
 16777215
176
     1
 90
        1
176
     1
 90
        4
176
     1
 62
     7
176
     1
 62
   257
176
     1
 90
        1
176
     1
 90
        1
176
     1
 40
1.0
176
     1
 90
        0
176
     1
 62
   257
176
     1
 40
1.0
176
     1
 90
        1
176
     1
 90
        6
176
     1
 90
        2
176
     1
 62
     7
176
     1
 90
        3
176
     1
 90
        0
176
     1
 90
        0
176
     1
290
     0
176
     1
 90
        1
176
     1
 40
0.0
176
     1
 90
        0
176
     1
290
     0
176
     1
290
     1
176
     1
290
     1
176
     1
290
     0
176
     1
290
     0
176
     1
290
     0
176
     1
290
     0
176
     1
290
     0
176
     1
290
     0
176
     1
 90
       50
176
     1
 40
0.0
176
     1
 40
1.0
176
     1
 90
        0
176
     1
 62
   178
420
        0
176
     1
 90
       50
176
     1
 90
        3
176
     1
 62
     5
420
      255
176
     1
290
     0
176
     1
 90
       50
176
     1
 90
       50
176
     1
 90
       50
176
     1
290
     0
176
     1
 90
       50
176
     1
 62
   256
176
     0
 40
1.0
176
     0
 90
        2
176
     1
  1
strokes_ogs.tif
176
     1
290
     0
176
     1
 40
1.0
176
     1
 40
1.0
176
     1
  0
VISUALSTYLE
  5
17D
102
{ACAD_REACTORS
330
167
102
}
330
167
100
AcDbVisualStyle
  2
X-Ray
 70
    25
177
     3
291
     0
 70
    58
 90
        2
176
     1
 90
        2
176
     1
 90
        1
176
     1
 90
        1
176
     1
 40
0.5
176
     1
 40
30.0
176
     1
 62
     7
420
 16777215
176
     1
 90
        1
176
     1
 90
        0
176
     1
 62
     7
176
     1
 62
   257
176
     1
 90
        1
176
     1
 90
        1
176
     1
 40
1.0
176
     1
 90
        8
176
     1
 62
     7
176
     1
 40
1.0
176
     1
 90
        1
176
     1
 90
        6
176
     1
 90
        2
176
     1
 62
     7
176
     1
 90
        3
176
     1
 90
        0
176
     1
 90
        0
176
     1
290
     0
176
     1
 90
       13
176
     1
 40
0.0
176
     1
 90
        0
176
     1
290
     0
176
     1
290
     1
176
     1
290
     1
176
     1
290
     0
176
     1
290
     0
176
     1
290
     0
176
     1
290
     0
176
     1
290
     0
176
     1
290
     0
176
     1
 90
       50
176
     1
 40
0.0
176
     1
 40
1.0
176
     1
 90
        0
176
     1
 62
   178
420
        0
176
     1
 90
       50
176
     1
 90
        3
176
     1
 62
     5
420
      255
176
     1
290
     0
176
     1
 90
       50
176
     1
 90
       50
176
     1
 90
       50
176
     1
290
     0
176
     1
 90
       50
176
     1
 62
   256
176
     0
 40
1.0
176
     0
 90
        2
176
     1
  1
strokes_ogs.tif
176
     1
290
     0
176
     1
 40
1.0
176
     1
 40
1.0
176
     1
  0
DICTIONARYVAR
  5
35C
102
{ACAD_REACTORS
330
35B
102
}
330
35B
100
DictionaryVariables
280
     0
  1
1:1
  0
DICTIONARYVAR
  5
361
102
{ACAD_REACTORS
330
35B
102
}
330
35B
100
DictionaryVariables
280
     0
  1
Standard
  0
DICTIONARYVAR
  5
360
102
{ACAD_REACTORS
330
35B
102
}
330
35B
100
DictionaryVariables
280
     0
  1
Standard
  0
XRECORD
  5
1AE
102
{ACAD_REACTORS
330
1AC
102
}
330
1AC
100
AcDbXrecord
280
     1
 90
        0
  0
XRECORD
  5
1AF
102
{ACAD_REACTORS
330
1AC
102
}
330
1AC
100
AcDbXrecord
280
     1
 90
        0
  0
XRECORD
  5
1B0
102
{ACAD_REACTORS
330
1AC
102
}
330
1AC
100
AcDbXrecord
280
     1
1000
Standard
  0
XRECORD
  5
1B1
102
{ACAD_REACTORS
330
1AC
102
}
330
1AC
100
AcDbXrecord
280
     1
290
     1
  0
XRECORD
  5
1B2
102
{ACAD_REACTORS
330
1AC
102
}
330
1AC
100
AcDbXrecord
280
     1
 90
        2
  0
XRECORD
  5
1B3
102
{ACAD_REACTORS
330
1AC
102
}
330
1AC
100
AcDbXrecord
280
     1
 90
        4
  0
XRECORD
  5
1B4
102
{ACAD_REACTORS
330
1AC
102
}
330
1AC
100
AcDbXrecord
280
     1
290
     1
  0
XRECORD
  5
1B5
102
{ACAD_REACTORS
330
1AC
102
}
330
1AC
100
AcDbXrecord
280
     1
290
     1
  0
XRECORD
  5
1B6
102
{ACAD_REACTORS
330
1AC
102
}
330
1AC
100
AcDbXrecord
280
     1
290
     1
  0
XRECORD
  5
1B7
102
{ACAD_REACTORS
330
1AC
102
}
330
1AC
100
AcDbXrecord
280
     1
290
     1
  0
XRECORD
  5
1B8
102
{ACAD_REACTORS
330
1AC
102
}
330
1AC
100
AcDbXrecord
280
     1
1000
auto
  0
XRECORD
  5
1B9
102
{ACAD_REACTORS
330
1AC
102
}
330
1AC
100
AcDbXrecord
280
     1
1000
auto
  0
XRECORD
  5
1BA
102
{ACAD_REACTORS
330
1AC
102
}
330
1AC
100
AcDbXrecord
280
     1
1000
auto
  0
XRECORD
  5
1BB
102
{ACAD_REACTORS
330
1AC
102
}
330
1AC
100
AcDbXrecord
280
     1
1000
auto
  0
XRECORD
  5
1BC
102
{ACAD_REACTORS
330
1AC
102
}
330
1AC
100
AcDbXrecord
280
     1
1000
auto
  0
XRECORD
  5
1BD
102
{ACAD_REACTORS
330
1AC
102
}
330
1AC
100
AcDbXrecord
280
     1
1000
auto
  0
XRECORD
  5
1BE
102
{ACAD_REACTORS
330
1AC
102
}
330
1AC
100
AcDbXrecord
280
     1
1000
auto
  0
XRECORD
  5
1BF
102
{ACAD_REACTORS
330
1AC
102
}
330
1AC
100
AcDbXrecord
280
     1
1000
auto
  0
XRECORD
  5
1C0
102
{ACAD_REACTORS
330
1AC
102
}
330
1AC
100
AcDbXrecord
280
     1
290
     0
  0
XRECORD
  5
1C1
102
{ACAD_REACTORS
330
1AC
102
}
330
1AC
100
AcDbXrecord
280
     1
290
     0
  0
XRECORD
  5
1C2
102
{ACAD_REACTORS
330
1AC
102
}
330
1AC
100
AcDbXrecord
280
     1
290
     0
  0
XRECORD
  5
1C3
102
{ACAD_REACTORS
330
1AC
102
}
330
1AC
100
AcDbXrecord
280
     1
290
     0
  0
XRECORD
  5
1C4
102
{ACAD_REACTORS
330
1AC
102
}
330
1AC
100
AcDbXrecord
280
     1
 90
        0
  0
XRECORD
  5
1C5
102
{ACAD_REACTORS
330
1AC
102
}
330
1AC
100
AcDbXrecord
280
     1
 90
        0
  0
XRECORD
  5
1C6
102
{ACAD_REACTORS
330
1AC
102
}
330
1AC
100
AcDbXrecord
280
     1
 90
        0
  0
XRECORD
  5
1C7
102
{ACAD_REACTORS
330
1AC
102
}
330
1AC
100
AcDbXrecord
280
     1
 90
        0
  0
XRECORD
  5
1C8
102
{ACAD_REACTORS
330
1AC
102
}
330
1AC
100
AcDbXrecord
280
     1
1000
auto
  0
XRECORD
  5
1C9
102
{ACAD_REACTORS
330
1AC
102
}
330
1AC
100
AcDbXrecord
280
     1
1000
auto
  0
XRECORD
  5
1CA
102
{ACAD_REACTORS
330
1AC
102
}
330
1AC
100
AcDbXrecord
280
     1
1000
auto
  0
XRECORD
  5
1CB
102
{ACAD_REACTORS
330
1AC
102
}
330
1AC
100
AcDbXrecord
280
     1
1000
auto
  0
XRECORD
  5
1CC
102
{ACAD_REACTORS
330
1AC
102
}
330
1AC
100
AcDbXrecord
280
     1
1000
auto
  0
XRECORD
  5
1CD
102
{ACAD_REACTORS
330
1AC
102
}
330
1AC
100
AcDbXrecord
280
     1
1000
auto
  0
XRECORD
  5
1CE
102
{ACAD_REACTORS
330
1AC
102
}
330
1AC
100
AcDbXrecord
280
     1
1000
auto
  0
XRECORD
  5
1CF
102
{ACAD_REACTORS
330
1AC
102
}
330
1AC
100
AcDbXrecord
280
     1
1000
auto
  0
XRECORD
  5
1D0
102
{ACAD_REACTORS
330
1AC
102
}
330
1AC
100
AcDbXrecord
280
     1
 90
        1
  0
XRECORD
  5
1D1
102
{ACAD_REACTORS
330
1AC
102
}
330
1AC
100
AcDbXrecord
280
     1
 40
10.0
  0
XRECORD
  5
1D2
102
{ACAD_REACTORS
330
1AC
102
}
330
1AC
100
AcDbXrecord
280
     1
 40
10.0
  0
XRECORD
  5
1D3
102
{ACAD_REACTORS
330
1AC
102
}
330
1AC
100
AcDbXrecord
280
     1
 40
10.0
  0
XRECORD
  5
1D4
102
{ACAD_REACTORS
330
1AC
102
}
330
1AC
100
AcDbXrecord
280
     1
 40
10.0
  0
XRECORD
  5
1D5
102
{ACAD_REACTORS
330
1AC
102
}
330
1AC
100
AcDbXrecord
280
     1
290
     0
  0
XRECORD
  5
1D6
102
{ACAD_REACTORS
330
1AC
102
}
330
1AC
100
AcDbXrecord
280
     1
 90
        1
  0
XRECORD
  5
1D7
102
{ACAD_REACTORS
330
1AC
102
}
330
1AC
100
AcDbXrecord
280
     1
 40
0.0
  0
XRECORD
  5
1D8
102
{ACAD_REACTORS
330
1AC
102
}
330
1AC
100
AcDbXrecord
280
     1
 40
0.0
  0
XRECORD
  5
1D9
102
{ACAD_REACTORS
330
1AC
102
}
330
1AC
100
AcDbXrecord
280
     1
1000
Portrait
  0
XRECORD
  5
1DA
102
{ACAD_REACTORS
330
1AC
102
}
330
1AC
100
AcDbXrecord
280
     1
 40
297.0
  0
XRECORD
  5
1DB
102
{ACAD_REACTORS
330
1AC
102
}
330
1AC
100
AcDbXrecord
280
     1
 40
210.0
  0
XRECORD
  5
1DC
102
{ACAD_REACTORS
330
1AC
102
}
330
1AC
100
AcDbXrecord
280
     1
1000
1:1
  0
XRECORD
  5
1DD
102
{ACAD_REACTORS
330
1AC
102
}
330
1AC
100
AcDbXrecord
280
     1
290
     1
  0
XRECORD
  5
1AD
102
{ACAD_REACTORS
330
1AC
102
}
330
1AC
100
AcDbXrecord
280
     1
1000
3.9.1
  0
XRECORD
  5
1DE
102
{ACAD_REACTORS
330
1AC
102
}
330
1AC
100
AcDbXrecord
280
     1
 90
        4
  0
DICTIONARY
  5
35D
330
1A7
100
AcDbDictionary
280
     1
281
     1
  3
ACAD_ROUNDTRIP_2008_TABLESTYLE_CELLSTYLEMAP
360
35E
  0
CELLSTYLEMAP
  5
35E
102
{ACAD_REACTORS
330
35D
102
}
330
35D
100
AcDbCellStyleMap
 90
        3
300
CELLSTYLE
  1
TABLEFORMAT_BEGIN
 90
        5
170
     1
 91
        0
 92
    32768
 62
   257
 93
        1
300
CONTENTFORMAT
  1
CONTENTFORMAT_BEGIN
 90
        0
 91
        0
 92
        4
 93
        0
300

 40
0.0
140
1.0
 94
        5
 62
     0
340
14F
144
0.25
309
CONTENTFORMAT_END
171
     1
301
MARGIN
  1
CELLMARGIN_BEGIN
 40
0.06
 40
0.06
 40
0.06
 40
0.06
 40
0.06
 40
0.06
309
CELLMARGIN_END
 94
        6
 95
        1
302
GRIDFORMAT
  1
GRIDFORMAT_BEGIN
 90
        0
 91
        1
 62
     0
 92
       -2
340
151
 93
        0
 40
0.045
309
GRIDFORMAT_END
 95
        2
302
GRIDFORMAT
  1
GRIDFORMAT_BEGIN
 90
        0
 91
        1
 62
     0
 92
       -2
340
151
 93
        0
 40
0.045
309
GRIDFORMAT_END
 95
        4
302
GRIDFORMAT
  1
GRIDFORMAT_BEGIN
 90
        0
 91
        1
 62
     0
 92
       -2
340
151
 93
        0
 40
0.045
309
GRIDFORMAT_END
 95
        8
302
GRIDFORMAT
  1
GRIDFORMAT_BEGIN
 90
        0
 91
        1
 62
     0
 92
       -2
340
151
 93
        0
 40
0.045
309
GRIDFORMAT_END
 95
       16
302
GRIDFORMAT
  1
GRIDFORMAT_BEGIN
 90
        0
 91
        1
 62
     0
 92
       -2
340
151
 93
        0
 40
0.045
309
GRIDFORMAT_END
 95
       32
302
GRIDFORMAT
  1
GRIDFORMAT_BEGIN
 90
        0
 91
        1
 62
     0
 92
       -2
340
151
 93
        0
 40
0.045
309
GRIDFORMAT_END
309
TABLEFORMAT_END
  1
CELLSTYLE_BEGIN
 90
        1
 91
        1
300
_TITLE
309
CELLSTYLE_END
300
CELLSTYLE
  1
TABLEFORMAT_BEGIN
 90
        5
170
     1
 91
        0
 92
        0
 62
   257
 93
        1
300
CONTENTFORMAT
  1
CONTENTFORMAT_BEGIN
 90
        0
 91
        0
 92
        4
 93
        0
300

 40
0.0
140
1.0
 94
        5
 62
     0
340
14F
144
0.18
309
CONTENTFORMAT_END
171
     1
301
MARGIN
  1
CELLMARGIN_BEGIN
 40
0.06
 40
0.06
 40
0.06
 40
0.06
 40
0.06
 40
0.06
309
CELLMARGIN_END
 94
        6
 95
        1
302
GRIDFORMAT
  1
GRIDFORMAT_BEGIN
 90
        0
 91
        1
 62
     0
 92
       -2
340
151
 93
        0
 40
0.045
309
GRIDFORMAT_END
 95
        2
302
GRIDFORMAT
  1
GRIDFORMAT_BEGIN
 90
        0
 91
        1
 62
     0
 92
       -2
340
151
 93
        0
 40
0.045
309
GRIDFORMAT_END
 95
        4
302
GRIDFORMAT
  1
GRIDFORMAT_BEGIN
 90
        0
 91
        1
 62
     0
 92
       -2
340
151
 93
        0
 40
0.045
309
GRIDFORMAT_END
 95
        8
302
GRIDFORMAT
  1
GRIDFORMAT_BEGIN
 90
        0
 91
        1
 62
     0
 92
       -2
340
151
 93
        0
 40
0.045
309
GRIDFORMAT_END
 95
       16
302
GRIDFORMAT
  1
GRIDFORMAT_BEGIN
 90
        0
 91
        1
 62
     0
 92
       -2
340
151
 93
        0
 40
0.045
309
GRIDFORMAT_END
 95
       32
302
GRIDFORMAT
  1
GRIDFORMAT_BEGIN
 90
        0
 91
        1
 62
     0
 92
       -2
340
151
 93
        0
 40
0.045
309
GRIDFORMAT_END
309
TABLEFORMAT_END
  1
CELLSTYLE_BEGIN
 90
        2
 91
        1
300
_HEADER
309
CELLSTYLE_END
300
CELLSTYLE
  1
TABLEFORMAT_BEGIN
 90
        5
170
     1
 91
        0
 92
        0
 62
   257
 93
        1
300
CONTENTFORMAT
  1
CONTENTFORMAT_BEGIN
 90
        0
 91
        0
 92
        4
 93
        0
300

 40
0.0
140
1.0
 94
        2
 62
     0
340
14F
144
0.18
309
CONTENTFORMAT_END
171
     1
301
MARGIN
  1
CELLMARGIN_BEGIN
 40
0.06
 40
0.06
 40
0.06
 40
0.06
 40
0.06
 40
0.06
309
CELLMARGIN_END
 94
        6
 95
        1
302
GRIDFORMAT
  1
GRIDFORMAT_BEGIN
 90
        0
 91
        1
 62
     0
 92
       -2
340
151
 93
        0
 40
0.045
309
GRIDFORMAT_END
 95
        2
302
GRIDFORMAT
  1
GRIDFORMAT_BEGIN
 90
        0
 91
        1
 62
     0
 92
       -2
340
151
 93
        0
 40
0.045
309
GRIDFORMAT_END
 95
        4
302
GRIDFORMAT
  1
GRIDFORMAT_BEGIN
 90
        0
 91
        1
 62
     0
 92
       -2
340
151
 93
        0
 40
0.045
309
GRIDFORMAT_END
 95
        8
302
GRIDFORMAT
  1
GRIDFORMAT_BEGIN
 90
        0
 91
        1
 62
     0
 92
       -2
340
151
 93
        0
 40
0.045
309
GRIDFORMAT_END
 95
       16
302
GRIDFORMAT
  1
GRIDFORMAT_BEGIN
 90
        0
 91
        1
 62
     0
 92
       -2
340
151
 93
        0
 40
0.045
309
GRIDFORMAT_END
 95
       32
302
GRIDFORMAT
  1
GRIDFORMAT_BEGIN
 90
        0
 91
        1
 62
     0
 92
       -2
340
151
 93
        0
 40
0.045
309
GRIDFORMAT_END
309
TABLEFORMAT_END
  1
CELLSTYLE_BEGIN
 90
        3
 91
        2
300
_DATA
309
CELLSTYLE_END
  0
ENDSEC
  0
EOF
