  0
SECTION
  2
HEADER
  9
$ACADVER
  1
AC1027
  9
$ACADMAINTVER
 70
     8
  9
$DWGCODEPAGE
  3
ANSI_1252
  9
$REQUIREDVERSIONS
160
                 0
  9
$INSBASE
 10
0.0
 20
0.0
 30
0.0
  9
$EXTMIN
 10
1.000000000000000E+20
 20
1.000000000000000E+20
 30
1.000000000000000E+20
  9
$EXTMAX
 10
-1.000000000000000E+20
 20
-1.000000000000000E+20
 30
-1.000000000000000E+20
  9
$LIMMIN
 10
0.0
 20
0.0
  9
$LIMMAX
 10
12.0
 20
9.0
  9
$ORTHOMODE
 70
     0
  9
$REGENMODE
 70
     1
  9
$FILLMODE
 70
     1
  9
$QTEXTMODE
 70
     0
  9
$MIRRTEXT
 70
     1
  9
$LTSCALE
 40
1.0
  9
$ATTMODE
 70
     1
  9
$TEXTSIZE
 40
0.2
  9
$TRACEWID
 40
0.05
  9
$TEXTSTYLE
  7
Standard
  9
$CLAYER
  8
0
  9
$CELTYPE
  6
ByLayer
  9
$CECOLOR
 62
   178
  9
$CELTSCALE
 40
1.0
  9
$DISPSILH
 70
     0
  9
$DIMSCALE
 40
1.0
  9
$DIMASZ
 40
20.0
  9
$DIMEXO
 40
5.0
  9
$DIMDLI
 40
0.38
  9
$DIMRND
 40
0.0
  9
$DIMDLE
 40
0.0
  9
$DIMEXE
 40
10.0
  9
$DIMTP
 40
0.0
  9
$DIMTM
 40
0.0
  9
$DIMTXT
 40
20.0
  9
$DIMCEN
 40
0.09
  9
$DIMTSZ
 40
20.0
  9
$DIMTOL
 70
     0
  9
$DIMLIM
 70
     0
  9
$DIMTIH
 70
     1
  9
$DIMTOH
 70
     1
  9
$DIMSE1
 70
     0
  9
$DIMSE2
 70
     0
  9
$DIMTAD
 70
     0
  9
$DIMZIN
 70
     8
  9
$DIMBLK
  1

  9
$DIMASO
 70
     1
  9
$DIMSHO
 70
     1
  9
$DIMPOST
  1

  9
$DIMAPOST
  1

  9
$DIMALT
 70
     0
  9
$DIMALTD
 70
     2
  9
$DIMALTF
 40
25.4
  9
$DIMLFAC
 40
1.0
  9
$DIMTOFL
 70
     0
  9
$DIMTVP
 40
0.0
  9
$DIMTIX
 70
     0
  9
$DIMSOXD
 70
     0
  9
$DIMSAH
 70
     0
  9
$DIMBLK1
  1

  9
$DIMBLK2
  1

  9
$DIMSTYLE
  2
Standard
  9
$DIMCLRD
 70
   178
  9
$DIMCLRE
 70
   178
  9
$DIMCLRT
 70
   178
  9
$DIMTFAC
 40
1.0
  9
$DIMGAP
 40
5.0
  9
$DIMJUST
 70
     0
  9
$DIMSD1
 70
     0
  9
$DIMSD2
 70
     0
  9
$DIMTOLJ
 70
     1
  9
$DIMTZIN
 70
     0
  9
$DIMALTZ
 70
     0
  9
$DIMALTTZ
 70
     0
  9
$DIMUPT
 70
     0
  9
$DIMDEC
 70
     4
  9
$DIMTDEC
 70
     4
  9
$DIMALTU
 70
     2
  9
$DIMALTTD
 70
     2
  9
$DIMTXSTY
  7
Standard
  9
$DIMAUNIT
 70
     0
  9
$DIMADEC
 70
     0
  9
$DIMALTRND
 40
0.0
  9
$DIMAZIN
 70
     2
  9
$DIMDSEP
 70
    46
  9
$DIMATFIT
 70
     3
  9
$DIMFRAC
 70
     0
  9
$DIMLDRBLK
  1

  9
$DIMLUNIT
 70
     2
  9
$DIMLWD
 70
    -2
  9
$DIMLWE
 70
    -2
  9
$DIMTMOVE
 70
     0
  9
$DIMFXL
 40
1.0
  9
$DIMFXLON
 70
     0
  9
$DIMJOGANG
 40
0.7853981633974483
  9
$DIMTFILL
 70
     0
  9
$DIMTFILLCLR
 70
     0
  9
$DIMARCSYM
 70
     0
  9
$DIMLTYPE
  6

  9
$DIMLTEX1
  6

  9
$DIMLTEX2
  6

  9
$DIMTXTDIRECTION
 70
     0
  9
$LUNITS
 70
     2
  9
$LUPREC
 70
     4
  9
$SKETCHINC
 40
0.1
  9
$FILLETRAD
 40
0.5
  9
$AUNITS
 70
     0
  9
$AUPREC
 70
     0
  9
$MENU
  1
.
  9
$ELEVATION
 40
0.0
  9
$PELEVATION
 40
0.0
  9
$THICKNESS
 40
0.0
  9
$LIMCHECK
 70
     0
  9
$CHAMFERA
 40
0.0
  9
$CHAMFERB
 40
0.0
  9
$CHAMFERC
 40
0.0
  9
$CHAMFERD
 40
0.0
  9
$SKPOLY
 70
     0
  9
$TDCREATE
 40
2459458.51068287
  9
$TDUCREATE
 40
2459458.469016204
  9
$TDUPDATE
 40
2459458.51068287
  9
$TDUUPDATE
 40
2459458.469016204
  9
$TDINDWG
 40
0.0000000116
  9
$TDUSRTIMER
 40
0.0000000116
  9
$USRTIMER
 70
     1
  9
$ANGBASE
 50
0.0
  9
$ANGDIR
 70
     0
  9
$PDMODE
 70
     0
  9
$PDSIZE
 40
0.0
  9
$PLINEWID
 40
0.0
  9
$SPLFRAME
 70
     0
  9
$SPLINETYPE
 70
     6
  9
$SPLINESEGS
 70
     8
  9
$HANDSEED
  5
353
  9
$SURFTAB1
 70
     6
  9
$SURFTAB2
 70
     6
  9
$SURFTYPE
 70
     6
  9
$SURFU
 70
     6
  9
$SURFV
 70
     6
  9
$UCSBASE
  2

  9
$UCSNAME
  2

  9
$UCSORG
 10
0.0
 20
0.0
 30
0.0
  9
$UCSXDIR
 10
1.0
 20
0.0
 30
0.0
  9
$UCSYDIR
 10
0.0
 20
1.0
 30
0.0
  9
$UCSORTHOREF
  2

  9
$UCSORTHOVIEW
 70
     0
  9
$UCSORGTOP
 10
0.0
 20
0.0
 30
0.0
  9
$UCSORGBOTTOM
 10
0.0
 20
0.0
 30
0.0
  9
$UCSORGLEFT
 10
0.0
 20
0.0
 30
0.0
  9
$UCSORGRIGHT
 10
0.0
 20
0.0
 30
0.0
  9
$UCSORGFRONT
 10
0.0
 20
0.0
 30
0.0
  9
$UCSORGBACK
 10
0.0
 20
0.0
 30
0.0
  9
$PUCSBASE
  2

  9
$PUCSNAME
  2

  9
$PUCSORG
 10
0.0
 20
0.0
 30
0.0
  9
$PUCSXDIR
 10
1.0
 20
0.0
 30
0.0
  9
$PUCSYDIR
 10
0.0
 20
1.0
 30
0.0
  9
$PUCSORTHOREF
  2

  9
$PUCSORTHOVIEW
 70
     0
  9
$PUCSORGTOP
 10
0.0
 20
0.0
 30
0.0
  9
$PUCSORGBOTTOM
 10
0.0
 20
0.0
 30
0.0
  9
$PUCSORGLEFT
 10
0.0
 20
0.0
 30
0.0
  9
$PUCSORGRIGHT
 10
0.0
 20
0.0
 30
0.0
  9
$PUCSORGFRONT
 10
0.0
 20
0.0
 30
0.0
  9
$PUCSORGBACK
 10
0.0
 20
0.0
 30
0.0
  9
$USERI1
 70
     0
  9
$USERI2
 70
     0
  9
$USERI3
 70
     0
  9
$USERI4
 70
     0
  9
$USERI5
 70
     0
  9
$USERR1
 40
0.0
  9
$USERR2
 40
0.0
  9
$USERR3
 40
0.0
  9
$USERR4
 40
0.0
  9
$USERR5
 40
0.0
  9
$WORLDVIEW
 70
     1
  9
$SHADEDGE
 70
     3
  9
$SHADEDIF
 70
    70
  9
$TILEMODE
 70
     1
  9
$MAXACTVP
 70
     2
  9
$PINSBASE
 10
0.0
 20
0.0
 30
0.0
  9
$PLIMCHECK
 70
     0
  9
$PEXTMIN
 10
1.000000000000000E+20
 20
1.000000000000000E+20
 30
1.000000000000000E+20
  9
$PEXTMAX
 10
-1.000000000000000E+20
 20
-1.000000000000000E+20
 30
-1.000000000000000E+20
  9
$PLIMMIN
 10
0.0
 20
0.0
  9
$PLIMMAX
 10
12.0
 20
9.0
  9
$UNITMODE
 70
     0
  9
$VISRETAIN
 70
     1
  9
$PLINEGEN
 70
     0
  9
$PSLTSCALE
 70
     1
  9
$TREEDEPTH
 70
  3020
  9
$CMLSTYLE
  2
Standard
  9
$CMLJUST
 70
     0
  9
$CMLSCALE
 40
1.0
  9
$PROXYGRAPHICS
 70
     1
  9
$MEASUREMENT
 70
     1
  9
$CELWEIGHT
370
    -1
  9
$ENDCAPS
280
     0
  9
$JOINSTYLE
280
     0
  9
$LWDISPLAY
290
     0
  9
$INSUNITS
 70
     4
  9
$HYPERLINKBASE
  1

  9
$STYLESHEET
  1

  9
$XEDIT
290
     1
  9
$CEPSNTYPE
380
     0
  9
$PSTYLEMODE
290
     1
  9
$FINGERPRINTGUID
  2
{A2901AB5-943D-86B7-B196-F3C33CEFC060}
  9
$VERSIONGUID
  2
{FAEB1C32-E019-11D5-929B-00C0DF256EC4}
  9
$EXTNAMES
290
     1
  9
$PSVPSCALE
 40
0.0
  9
$OLESTARTUP
290
     0
  9
$SORTENTS
280
   127
  9
$INDEXCTL
280
     0
  9
$HIDETEXT
280
     1
  9
$XCLIPFRAME
280
     2
  9
$HALOGAP
280
     0
  9
$OBSCOLOR
 70
   257
  9
$OBSLTYPE
280
     0
  9
$INTERSECTIONDISPLAY
280
     0
  9
$INTERSECTIONCOLOR
 70
   257
  9
$DIMASSOC
280
     2
  9
$PROJECTNAME
  1

  9
$CAMERADISPLAY
290
     0
  9
$LENSLENGTH
 40
50.0
  9
$CAMERAHEIGHT
 40
0.0
  9
$STEPSPERSEC
 40
2.0
  9
$STEPSIZE
 40
6.0
  9
$3DDWFPREC
 40
2.0
  9
$PSOLWIDTH
 40
0.25
  9
$PSOLHEIGHT
 40
4.0
  9
$LOFTANG1
 40
1.570796326794897
  9
$LOFTANG2
 40
1.570796326794897
  9
$LOFTMAG1
 40
0.0
  9
$LOFTMAG2
 40
0.0
  9
$LOFTPARAM
 70
     7
  9
$LOFTNORMALS
280
     1
  9
$LATITUDE
 40
37.795
  9
$LONGITUDE
 40
-122.394
  9
$NORTHDIRECTION
 40
0.0
  9
$TIMEZONE
 70
 -8000
  9
$LIGHTGLYPHDISPLAY
280
     1
  9
$TILEMODELIGHTSYNCH
280
     1
  9
$CMATERIAL
347
1DD
  9
$SOLIDHIST
280
     0
  9
$SHOWHIST
280
     1
  9
$DWFFRAME
280
     2
  9
$DGNFRAME
280
     2
  9
$REALWORLDSCALE
290
     1
  9
$INTERFERECOLOR
 62
   256
  9
$CSHADOW
280
     0
  9
$SHADOWPLANELOCATION
 40
0.0
  0
ENDSEC
  0
SECTION
  2
CLASSES
  0
CLASS
  1
ACDBDICTIONARYWDFLT
  2
AcDbDictionaryWithDefault
  3
ObjectDBX Classes
 90
        0
 91
        4
280
     0
281
     0
  0
CLASS
  1
VISUALSTYLE
  2
AcDbVisualStyle
  3
ObjectDBX Classes
 90
     4095
 91
        4
280
     0
281
     0
  0
CLASS
  1
MATERIAL
  2
AcDbMaterial
  3
ObjectDBX Classes
 90
     1153
 91
        4
280
     0
281
     0
  0
CLASS
  1
SCALE
  2
AcDbScale
  3
ObjectDBX Classes
 90
     1153
 91
        4
280
     0
281
     0
  0
CLASS
  1
TABLESTYLE
  2
AcDbTableStyle
  3
ObjectDBX Classes
 90
     4095
 91
        4
280
     0
281
     0
  0
CLASS
  1
MLEADERSTYLE
  2
AcDbMLeaderStyle
  3
ACDB_MLEADERSTYLE_CLASS
 90
     4095
 91
        4
280
     0
281
     0
  0
CLASS
  1
SUN
  2
AcDbSun
  3
SCENEOE
 90
     1153
 91
        4
280
     0
281
     0
  0
CLASS
  1
DICTIONARYVAR
  2
AcDbDictionaryVar
  3
ObjectDBX Classes
 90
        0
 91
        4
280
     0
281
     0
  0
CLASS
  1
CELLSTYLEMAP
  2
AcDbCellStyleMap
  3
ObjectDBX Classes
 90
     1152
 91
        4
280
     0
281
     0
  0
ENDSEC
  0
SECTION
  2
TABLES
  0
TABLE
  2
VPORT
  5
1A2
330
0
100
AcDbSymbolTable
 70
     1
  0
VPORT
  5
1C2
330
1A2
100
AcDbSymbolTableRecord
100
AcDbViewportTableRecord
  2
*Active
 70
     0
 10
0.0
 20
0.0
 11
1.0
 21
1.0
 12
10.42990654205607
 22
4.5
 13
0.0
 23
0.0
 14
0.5
 24
0.5
 15
0.5
 25
0.5
 16
0.0
 26
0.0
 36
1.0
 17
0.0
 27
0.0
 37
0.0
 40
9.0
 41
1.972972972850329
 42
50.0
 43
0.0
 44
0.0
 50
0.0
 51
0.0
 71
     0
 72
   100
 73
     1
 74
     3
 75
     0
 76
     0
 77
     0
 78
     0
281
     0
 65
     1
110
0.0
120
0.0
130
0.0
111
1.0
121
0.0
131
0.0
112
0.0
122
1.0
132
0.0
 79
     0
146
0.0
 60
     3
 61
     5
292
     1
282
     1
141
0.0
142
0.0
 63
   250
361
206
  0
ENDTAB
  0
TABLE
  2
LTYPE
  5
19F
330
0
100
AcDbSymbolTable
 70
    48
  0
LTYPE
  5
1AD
330
19F
100
AcDbSymbolTableRecord
100
AcDbLinetypeTableRecord
  2
ByBlock
 70
     0
  3

 72
    65
 73
     0
 40
0.0
  0
LTYPE
  5
1AE
330
19F
100
AcDbSymbolTableRecord
100
AcDbLinetypeTableRecord
  2
ByLayer
 70
     0
  3

 72
    65
 73
     0
 40
0.0
  0
LTYPE
  5
1AF
330
19F
100
AcDbSymbolTableRecord
100
AcDbLinetypeTableRecord
  2
Continuous
 70
     0
  3
Solid line
 72
    65
 73
     0
 40
0.0
  0
LTYPE
  5
23E
330
19F
100
AcDbSymbolTableRecord
100
AcDbLinetypeTableRecord
  2
ACAD_ISO02W100
 70
     0
  3
ISO dash __ __ __ __ __ __ __ __ __ __ __ __ __
 72
    65
 73
     2
 40
15.0
 49
12.0
 74
     0
 49
-3.0
 74
     0
  0
LTYPE
  5
23F
330
19F
100
AcDbSymbolTableRecord
100
AcDbLinetypeTableRecord
  2
ACAD_ISO03W100
 70
     0
  3
ISO dash space __    __    __    __    __    __
 72
    65
 73
     2
 40
30.0
 49
12.0
 74
     0
 49
-18.0
 74
     0
  0
LTYPE
  5
240
330
19F
100
AcDbSymbolTableRecord
100
AcDbLinetypeTableRecord
  2
ACAD_ISO04W100
 70
     0
  3
ISO long-dash dot ____ . ____ . ____ . ____ . _
 72
    65
 73
     4
 40
30.0
 49
24.0
 74
     0
 49
-3.0
 74
     0
 49
0.0
 74
     0
 49
-3.0
 74
     0
  0
LTYPE
  5
241
330
19F
100
AcDbSymbolTableRecord
100
AcDbLinetypeTableRecord
  2
ACAD_ISO05W100
 70
     0
  3
ISO long-dash double-dot ____ .. ____ .. ____ . 
 72
    65
 73
     6
 40
33.0
 49
24.0
 74
     0
 49
-3.0
 74
     0
 49
0.0
 74
     0
 49
-3.0
 74
     0
 49
0.0
 74
     0
 49
-3.0
 74
     0
  0
LTYPE
  5
242
330
19F
100
AcDbSymbolTableRecord
100
AcDbLinetypeTableRecord
  2
ACAD_ISO06W100
 70
     0
  3
ISO long-dash triple-dot ____ ... ____ ... ____
 72
    65
 73
     8
 40
36.0
 49
24.0
 74
     0
 49
-3.0
 74
     0
 49
0.0
 74
     0
 49
-3.0
 74
     0
 49
0.0
 74
     0
 49
-3.0
 74
     0
 49
0.0
 74
     0
 49
-3.0
 74
     0
  0
LTYPE
  5
243
330
19F
100
AcDbSymbolTableRecord
100
AcDbLinetypeTableRecord
  2
ACAD_ISO07W100
 70
     0
  3
ISO dot . . . . . . . . . . . . . . . . . . . . 
 72
    65
 73
     2
 40
3.0
 49
0.0
 74
     0
 49
-3.0
 74
     0
  0
LTYPE
  5
244
330
19F
100
AcDbSymbolTableRecord
100
AcDbLinetypeTableRecord
  2
ACAD_ISO08W100
 70
     0
  3
ISO long-dash short-dash ____ __ ____ __ ____ _
 72
    65
 73
     4
 40
36.0
 49
24.0
 74
     0
 49
-3.0
 74
     0
 49
6.0
 74
     0
 49
-3.0
 74
     0
  0
LTYPE
  5
245
330
19F
100
AcDbSymbolTableRecord
100
AcDbLinetypeTableRecord
  2
ACAD_ISO09W100
 70
     0
  3
ISO long-dash double-short-dash ____ __ __ ____
 72
    65
 73
     6
 40
45.0
 49
24.0
 74
     0
 49
-3.0
 74
     0
 49
6.0
 74
     0
 49
-3.0
 74
     0
 49
6.0
 74
     0
 49
-3.0
 74
     0
  0
LTYPE
  5
246
330
19F
100
AcDbSymbolTableRecord
100
AcDbLinetypeTableRecord
  2
ACAD_ISO10W100
 70
     0
  3
ISO dash dot __ . __ . __ . __ . __ . __ . __ . 
 72
    65
 73
     4
 40
18.0
 49
12.0
 74
     0
 49
-3.0
 74
     0
 49
0.0
 74
     0
 49
-3.0
 74
     0
  0
LTYPE
  5
247
330
19F
100
AcDbSymbolTableRecord
100
AcDbLinetypeTableRecord
  2
ACAD_ISO11W100
 70
     0
  3
ISO double-dash dot __ __ . __ __ . __ __ . __ _
 72
    65
 73
     6
 40
33.0
 49
12.0
 74
     0
 49
-3.0
 74
     0
 49
12.0
 74
     0
 49
-3.0
 74
     0
 49
0.0
 74
     0
 49
-3.0
 74
     0
  0
LTYPE
  5
248
330
19F
100
AcDbSymbolTableRecord
100
AcDbLinetypeTableRecord
  2
ACAD_ISO12W100
 70
     0
  3
ISO dash double-dot __ . . __ . . __ . . __ . . 
 72
    65
 73
     6
 40
21.0
 49
12.0
 74
     0
 49
-3.0
 74
     0
 49
0.0
 74
     0
 49
-3.0
 74
     0
 49
0.0
 74
     0
 49
-3.0
 74
     0
  0
LTYPE
  5
249
330
19F
100
AcDbSymbolTableRecord
100
AcDbLinetypeTableRecord
  2
ACAD_ISO13W100
 70
     0
  3
ISO double-dash double-dot __ __ . . __ __ . . _
 72
    65
 73
     8
 40
36.0
 49
12.0
 74
     0
 49
-3.0
 74
     0
 49
12.0
 74
     0
 49
-3.0
 74
     0
 49
0.0
 74
     0
 49
-3.0
 74
     0
 49
0.0
 74
     0
 49
-3.0
 74
     0
  0
LTYPE
  5
24A
330
19F
100
AcDbSymbolTableRecord
100
AcDbLinetypeTableRecord
  2
ACAD_ISO14W100
 70
     0
  3
ISO dash triple-dot __ . . . __ . . . __ . . . _
 72
    65
 73
     8
 40
24.0
 49
12.0
 74
     0
 49
-3.0
 74
     0
 49
0.0
 74
     0
 49
-3.0
 74
     0
 49
0.0
 74
     0
 49
-3.0
 74
     0
 49
0.0
 74
     0
 49
-3.0
 74
     0
  0
LTYPE
  5
24B
330
19F
100
AcDbSymbolTableRecord
100
AcDbLinetypeTableRecord
  2
ACAD_ISO15W100
 70
     0
  3
ISO double-dash triple-dot __ __ . . . __ __ . .
 72
    65
 73
    10
 40
39.0
 49
12.0
 74
     0
 49
-3.0
 74
     0
 49
12.0
 74
     0
 49
-3.0
 74
     0
 49
0.0
 74
     0
 49
-3.0
 74
     0
 49
0.0
 74
     0
 49
-3.0
 74
     0
 49
0.0
 74
     0
 49
-3.0
 74
     0
  0
LTYPE
  5
24E
330
19F
100
AcDbSymbolTableRecord
100
AcDbLinetypeTableRecord
  2
BATTING
 70
     0
  3
Batting SSSSSSSSSSSSSSSSSSSSSSSSSSSSSSSSSSSSSSSSSSSSSSS
 72
    65
 73
     4
 40
10.16254
 49
0.00254
 74
     0
 49
-2.54
 74
     2
 75
     0
340
24C
 46
2.54
 50
0.0
 44
-2.54
 45
0.0
  9
BAT
 49
-5.08
 74
     2
 75
     0
340
24D
 46
2.54
 50
180.0
 44
2.54
 45
0.0
  9
BAT
 49
-2.54
 74
     0
  0
LTYPE
  5
24F
330
19F
100
AcDbSymbolTableRecord
100
AcDbLinetypeTableRecord
  2
BORDER
 70
     0
  3
Border __ __ . __ __ . __ __ . __ __ . __ __ .
 72
    65
 73
     6
 40
44.45
 49
12.7
 74
     0
 49
-6.35
 74
     0
 49
12.7
 74
     0
 49
-6.35
 74
     0
 49
0.0
 74
     0
 49
-6.35
 74
     0
  0
LTYPE
  5
250
330
19F
100
AcDbSymbolTableRecord
100
AcDbLinetypeTableRecord
  2
BORDER2
 70
     0
  3
Border (.5x) __.__.__.__.__.__.__.__.__.__.__.
 72
    65
 73
     6
 40
22.225
 49
6.35
 74
     0
 49
-3.175
 74
     0
 49
6.35
 74
     0
 49
-3.175
 74
     0
 49
0.0
 74
     0
 49
-3.175
 74
     0
  0
LTYPE
  5
251
330
19F
100
AcDbSymbolTableRecord
100
AcDbLinetypeTableRecord
  2
BORDERX2
 70
     0
  3
Border (2x) ____  ____  .  ____  ____  .  ___
 72
    65
 73
     6
 40
88.89999999999999
 49
25.4
 74
     0
 49
-12.7
 74
     0
 49
25.4
 74
     0
 49
-12.7
 74
     0
 49
0.0
 74
     0
 49
-12.7
 74
     0
  0
LTYPE
  5
252
330
19F
100
AcDbSymbolTableRecord
100
AcDbLinetypeTableRecord
  2
CENTER
 70
     0
  3
Center ____ _ ____ _ ____ _ ____ _ ____ _ ____
 72
    65
 73
     4
 40
50.8
 49
31.75
 74
     0
 49
-6.35
 74
     0
 49
6.35
 74
     0
 49
-6.35
 74
     0
  0
LTYPE
  5
253
330
19F
100
AcDbSymbolTableRecord
100
AcDbLinetypeTableRecord
  2
CENTER2
 70
     0
  3
Center (.5x) ___ _ ___ _ ___ _ ___ _ ___ _ ___
 72
    65
 73
     4
 40
28.575
 49
19.05
 74
     0
 49
-3.175
 74
     0
 49
3.175
 74
     0
 49
-3.175
 74
     0
  0
LTYPE
  5
254
330
19F
100
AcDbSymbolTableRecord
100
AcDbLinetypeTableRecord
  2
CENTERX2
 70
     0
  3
Center (2x) ________  __  ________  __  _____
 72
    65
 73
     4
 40
101.6
 49
63.5
 74
     0
 49
-12.7
 74
     0
 49
12.7
 74
     0
 49
-12.7
 74
     0
  0
LTYPE
  5
255
330
19F
100
AcDbSymbolTableRecord
100
AcDbLinetypeTableRecord
  2
DASHDOT
 70
     0
  3
Dash dot __ . __ . __ . __ . __ . __ . __ . __
 72
    65
 73
     4
 40
25.4
 49
12.7
 74
     0
 49
-6.35
 74
     0
 49
0.0
 74
     0
 49
-6.35
 74
     0
  0
LTYPE
  5
256
330
19F
100
AcDbSymbolTableRecord
100
AcDbLinetypeTableRecord
  2
DASHDOT2
 70
     0
  3
Dash dot (.5x) _._._._._._._._._._._._._._._.
 72
    65
 73
     4
 40
12.7
 49
6.35
 74
     0
 49
-3.175
 74
     0
 49
0.0
 74
     0
 49
-3.175
 74
     0
  0
LTYPE
  5
257
330
19F
100
AcDbSymbolTableRecord
100
AcDbLinetypeTableRecord
  2
DASHDOTX2
 70
     0
  3
Dash dot (2x) ____  .  ____  .  ____  .  ___
 72
    65
 73
     4
 40
50.8
 49
25.4
 74
     0
 49
-12.7
 74
     0
 49
0.0
 74
     0
 49
-12.7
 74
     0
  0
LTYPE
  5
258
330
19F
100
AcDbSymbolTableRecord
100
AcDbLinetypeTableRecord
  2
DASHED
 70
     0
  3
Dashed __ __ __ __ __ __ __ __ __ __ __ __ __ _
 72
    65
 73
     2
 40
19.05
 49
12.7
 74
     0
 49
-6.35
 74
     0
  0
LTYPE
  5
259
330
19F
100
AcDbSymbolTableRecord
100
AcDbLinetypeTableRecord
  2
DASHED2
 70
     0
  3
Dashed (.5x) _ _ _ _ _ _ _ _ _ _ _ _ _ _ _ _ _ 
 72
    65
 73
     2
 40
9.524999999999999
 49
6.35
 74
     0
 49
-3.175
 74
     0
  0
LTYPE
  5
25A
330
19F
100
AcDbSymbolTableRecord
100
AcDbLinetypeTableRecord
  2
DASHEDX2
 70
     0
  3
Dashed (2x) ____  ____  ____  ____  ____  ___
 72
    65
 73
     2
 40
38.09999999999999
 49
25.4
 74
     0
 49
-12.7
 74
     0
  0
LTYPE
  5
25B
330
19F
100
AcDbSymbolTableRecord
100
AcDbLinetypeTableRecord
  2
DIVIDE
 70
     0
  3
Divide ____ . . ____ . . ____ . . ____ . . ____
 72
    65
 73
     6
 40
31.75
 49
12.7
 74
     0
 49
-6.35
 74
     0
 49
0.0
 74
     0
 49
-6.35
 74
     0
 49
0.0
 74
     0
 49
-6.35
 74
     0
  0
LTYPE
  5
25C
330
19F
100
AcDbSymbolTableRecord
100
AcDbLinetypeTableRecord
  2
DIVIDE2
 70
     0
  3
Divide (.5x) __..__..__..__..__..__..__..__.._
 72
    65
 73
     6
 40
15.875
 49
6.35
 74
     0
 49
-3.175
 74
     0
 49
0.0
 74
     0
 49
-3.175
 74
     0
 49
0.0
 74
     0
 49
-3.175
 74
     0
  0
LTYPE
  5
25D
330
19F
100
AcDbSymbolTableRecord
100
AcDbLinetypeTableRecord
  2
DIVIDEX2
 70
     0
  3
Divide (2x) ________  .  .  ________  .  .  _
 72
    65
 73
     6
 40
63.5
 49
25.4
 74
     0
 49
-12.7
 74
     0
 49
0.0
 74
     0
 49
-12.7
 74
     0
 49
0.0
 74
     0
 49
-12.7
 74
     0
  0
LTYPE
  5
25E
330
19F
100
AcDbSymbolTableRecord
100
AcDbLinetypeTableRecord
  2
DOT
 70
     0
  3
Dot . . . . . . . . . . . . . . . . . . . . . . . .
 72
    65
 73
     2
 40
6.35
 49
0.0
 74
     0
 49
-6.35
 74
     0
  0
LTYPE
  5
25F
330
19F
100
AcDbSymbolTableRecord
100
AcDbLinetypeTableRecord
  2
DOT2
 70
     0
  3
Dot (.5x) ........................................
 72
    65
 73
     2
 40
3.175
 49
0.0
 74
     0
 49
-3.175
 74
     0
  0
LTYPE
  5
260
330
19F
100
AcDbSymbolTableRecord
100
AcDbLinetypeTableRecord
  2
DOTX2
 70
     0
  3
Dot (2x) .  .  .  .  .  .  .  .  .  .  .  .  .  .
 72
    65
 73
     2
 40
12.7
 49
0.0
 74
     0
 49
-12.7
 74
     0
  0
LTYPE
  5
262
330
19F
100
AcDbSymbolTableRecord
100
AcDbLinetypeTableRecord
  2
DRAINAGE
 70
     0
  3
Drainage ---->---->---->----
 72
    65
 73
     2
 40
10.16
 49
5.08
 74
     2
 75
     0
340
261
 46
2.54
 50
180.0
 44
0.0
 45
0.0
  9
RIGHT_ARROW
 49
5.08
 74
     0
  0
LTYPE
  5
264
330
19F
100
AcDbSymbolTableRecord
100
AcDbLinetypeTableRecord
  2
DRAINAGE2
 70
     0
  3
Drainage reversed----<----<----<----
 72
    65
 73
     2
 40
10.16
 49
5.08
 74
     2
 75
     0
340
263
 46
2.54
 50
0.0
 44
0.0
 45
0.0
  9
RIGHT_ARROW
 49
5.08
 74
     0
  0
LTYPE
  5
266
330
19F
100
AcDbSymbolTableRecord
100
AcDbLinetypeTableRecord
  2
FENCELINE1
 70
     0
  3
Fenceline circle ----0-----0----0-----0----0-----0--
 72
    65
 73
     4
 40
36.83
 49
6.35
 74
     0
 49
-2.54
 74
     2
 75
     0
340
265
 46
2.54
 50
0.0
 44
-2.54
 45
0.0
  9
CIRC1
 49
-2.54
 74
     0
 49
25.4
 74
     0
  0
LTYPE
  5
268
330
19F
100
AcDbSymbolTableRecord
100
AcDbLinetypeTableRecord
  2
FENCELINE2
 70
     0
  3
Fenceline square ----[]-----[]----[]-----[]----[]---
 72
    65
 73
     4
 40
36.83
 49
6.35
 74
     0
 49
-2.54
 74
     2
 75
     0
340
267
 46
2.54
 50
0.0
 44
-2.54
 45
0.0
  9
BOX
 49
-2.54
 74
     0
 49
25.4
 74
     0
  0
LTYPE
  5
26A
330
19F
100
AcDbSymbolTableRecord
100
AcDbLinetypeTableRecord
  2
GAS_LINE
 70
     0
  3
Gas line ----GAS----GAS----GAS----GAS----GAS----GAS--
 72
    65
 73
     3
 40
24.13
 49
12.7
 74
     0
 49
-5.08
 74
     2
 75
     0
340
269
 46
2.54
 50
0.0
 44
-2.54
 45
-1.27
  9
GAS
 49
-6.35
 74
     0
  0
LTYPE
  5
26B
330
19F
100
AcDbSymbolTableRecord
100
AcDbLinetypeTableRecord
  2
HIDDEN
 70
     0
  3
Hidden __ __ __ __ __ __ __ __ __ __ __ __ __ __
 72
    65
 73
     2
 40
9.524999999999999
 49
6.35
 74
     0
 49
-3.175
 74
     0
  0
LTYPE
  5
26C
330
19F
100
AcDbSymbolTableRecord
100
AcDbLinetypeTableRecord
  2
HIDDEN2
 70
     0
  3
Hidden (.5x) _ _ _ _ _ _ _ _ _ _ _ _ _ _ _ _ _ 
 72
    65
 73
     2
 40
4.762499999999999
 49
3.175
 74
     0
 49
-1.5875
 74
     0
  0
LTYPE
  5
26D
330
19F
100
AcDbSymbolTableRecord
100
AcDbLinetypeTableRecord
  2
HIDDENX2
 70
     0
  3
Hidden (2x) ____ ____ ____ ____ ____ ____ ____ 
 72
    65
 73
     2
 40
19.05
 49
12.7
 74
     0
 49
-6.35
 74
     0
  0
LTYPE
  5
26F
330
19F
100
AcDbSymbolTableRecord
100
AcDbLinetypeTableRecord
  2
HOT_WATER_SUPPLY
 70
     0
  3
Hot water supply ---- HW ---- HW ---- HW ----
 72
    65
 73
     3
 40
22.86
 49
12.7
 74
     0
 49
-5.08
 74
     2
 75
     0
340
26E
 46
2.54
 50
0.0
 44
-2.54
 45
-1.27
  9
HW
 49
-5.08
 74
     0
  0
LTYPE
  5
270
330
19F
100
AcDbSymbolTableRecord
100
AcDbLinetypeTableRecord
  2
PHANTOM
 70
     0
  3
Phantom ______  __  __  ______  __  __  ______ 
 72
    65
 73
     6
 40
63.50000000000001
 49
31.75
 74
     0
 49
-6.35
 74
     0
 49
6.35
 74
     0
 49
-6.35
 74
     0
 49
6.35
 74
     0
 49
-6.35
 74
     0
  0
LTYPE
  5
271
330
19F
100
AcDbSymbolTableRecord
100
AcDbLinetypeTableRecord
  2
PHANTOM2
 70
     0
  3
Phantom (.5x) ___ _ _ ___ _ _ ___ _ _ ___ _ _
 72
    65
 73
     6
 40
31.75
 49
15.875
 74
     0
 49
-3.175
 74
     0
 49
3.175
 74
     0
 49
-3.175
 74
     0
 49
3.175
 74
     0
 49
-3.175
 74
     0
  0
LTYPE
  5
272
330
19F
100
AcDbSymbolTableRecord
100
AcDbLinetypeTableRecord
  2
PHANTOMX2
 70
     0
  3
Phantom (2x) ____________    ____    ____   _
 72
    65
 73
     6
 40
127.0
 49
63.5
 74
     0
 49
-12.7
 74
     0
 49
12.7
 74
     0
 49
-12.7
 74
     0
 49
12.7
 74
     0
 49
-12.7
 74
     0
  0
LTYPE
  5
274
330
19F
100
AcDbSymbolTableRecord
100
AcDbLinetypeTableRecord
  2
TRACKS
 70
     0
  3
Tracks -|-|-|-|-|-|-|-|-|-|-|-|-|-|-|-|-|-|-|-|-|-|-|-|-
 72
    65
 73
     2
 40
7.62
 49
3.81
 74
     2
 75
     0
340
273
 46
6.35
 50
0.0
 44
0.0
 45
0.0
  9
TRACK1
 49
3.81
 74
     0
  0
LTYPE
  5
277
330
19F
100
AcDbSymbolTableRecord
100
AcDbLinetypeTableRecord
  2
ZIGZAG
 70
     0
  3
Zig zag /\/\/\/\/\/\/\/\/\/\/\/\/\/\/\/\/\/\/\/\/\/\/\/
 72
    65
 73
     4
 40
20.32254
 49
0.00254
 74
     0
 49
-5.08
 74
     2
 75
     0
340
275
 46
5.08
 50
0.0
 44
-5.08
 45
0.0
  9
ZIG
 49
-10.16
 74
     2
 75
     0
340
276
 46
5.08
 50
180.0
 44
5.08
 45
0.0
  9
ZIG
 49
-5.08
 74
     0
  0
ENDTAB
  0
TABLE
  2
LAYER
  5
19C
330
0
100
AcDbSymbolTable
 70
     5
  0
LAYER
  5
1AA
330
19C
100
AcDbSymbolTableRecord
100
AcDbLayerTableRecord
  2
0
 70
     0
 62
     7
420
 16777215
  6
Continuous
370
    25
390
1A9
347
1DF
348
0
  0
LAYER
  5
278
330
19C
100
AcDbSymbolTableRecord
100
AcDbLayerTableRecord
  2
0 ... Seuil
 70
     0
 62
   178
420
        0
  6
Continuous
370
    25
390
1A9
347
1DF
348
0
  0
LAYER
  5
279
330
19C
100
AcDbSymbolTableRecord
100
AcDbLayerTableRecord
  2
0 ... Seuil ... Rectangle
 70
     0
 62
     5
420
      255
  6
Continuous
370
    25
390
1A9
347
1DF
348
0
  0
LAYER
  5
27A
330
19C
100
AcDbSymbolTableRecord
100
AcDbLayerTableRecord
  2
0 ... Seuil ... Rectangle ... Cotes Angles
 70
     0
 62
     4
420
    65535
  6
Continuous
370
    25
390
1A9
347
1DF
348
0
  0
LAYER
  5
27B
330
19C
100
AcDbSymbolTableRecord
100
AcDbLayerTableRecord
  2
Defpoints
 70
     0
 62
     7
420
 16777215
  6
Continuous
290
     0
370
    -3
390
1A9
347
1DF
348
0
  0
ENDTAB
  0
TABLE
  2
STYLE
  5
19D
330
0
100
AcDbSymbolTable
 70
    22
  0
STYLE
  5
1AB
330
19D
100
AcDbSymbolTableRecord
100
AcDbTextStyleTableRecord
  2
Standard
 70
     0
 40
0.0
 41
1.0
 50
0.0
 71
     0
 42
0.2
  3
txt
  4

  0
STYLE
  5
23C
330
19D
100
AcDbSymbolTableRecord
100
AcDbTextStyleTableRecord
  2
QCADDimTextStyle
 70
     0
 40
0.0
 41
1.0
 50
0.0
 71
     0
 42
0.2
  3
txt
  4

  0
STYLE
  5
24C
330
19D
100
AcDbSymbolTableRecord
100
AcDbTextStyleTableRecord
  2
textstyle0
 70
     0
 40
0.0
 41
1.0
 50
0.0
 71
     0
 42
0.2
  3
ltypeshp.shx
  4

  0
STYLE
  5
24D
330
19D
100
AcDbSymbolTableRecord
100
AcDbTextStyleTableRecord
  2
textstyle1
 70
     0
 40
0.0
 41
1.0
 50
0.0
 71
     0
 42
0.2
  3
ltypeshp.shx
  4

  0
STYLE
  5
261
330
19D
100
AcDbSymbolTableRecord
100
AcDbTextStyleTableRecord
  2
textstyle2
 70
     0
 40
0.0
 41
1.0
 50
0.0
 71
     0
 42
0.2
  3
qcadshp.shx
  4

  0
STYLE
  5
263
330
19D
100
AcDbSymbolTableRecord
100
AcDbTextStyleTableRecord
  2
textstyle3
 70
     0
 40
0.0
 41
1.0
 50
0.0
 71
     0
 42
0.2
  3
qcadshp.shx
  4

  0
STYLE
  5
265
330
19D
100
AcDbSymbolTableRecord
100
AcDbTextStyleTableRecord
  2
textstyle4
 70
     0
 40
0.0
 41
1.0
 50
0.0
 71
     0
 42
0.2
  3
ltypeshp.shx
  4

  0
STYLE
  5
267
330
19D
100
AcDbSymbolTableRecord
100
AcDbTextStyleTableRecord
  2
textstyle5
 70
     0
 40
0.0
 41
1.0
 50
0.0
 71
     0
 42
0.2
  3
ltypeshp.shx
  4

  0
STYLE
  5
269
330
19D
100
AcDbSymbolTableRecord
100
AcDbTextStyleTableRecord
  2
textstyle6
 70
     0
 40
0.0
 41
1.0
 50
0.0
 71
     0
 42
0.2
  3
STANDARD
  4

  0
STYLE
  5
26E
330
19D
100
AcDbSymbolTableRecord
100
AcDbTextStyleTableRecord
  2
textstyle7
 70
     0
 40
0.0
 41
1.0
 50
0.0
 71
     0
 42
0.2
  3
STANDARD
  4

  0
STYLE
  5
273
330
19D
100
AcDbSymbolTableRecord
100
AcDbTextStyleTableRecord
  2
textstyle8
 70
     0
 40
0.0
 41
1.0
 50
0.0
 71
     0
 42
0.2
  3
ltypeshp.shx
  4

  0
STYLE
  5
275
330
19D
100
AcDbSymbolTableRecord
100
AcDbTextStyleTableRecord
  2
textstyle9
 70
     0
 40
0.0
 41
1.0
 50
0.0
 71
     0
 42
0.2
  3
ltypeshp.shx
  4

  0
STYLE
  5
276
330
19D
100
AcDbSymbolTableRecord
100
AcDbTextStyleTableRecord
  2
textstyle10
 70
     0
 40
0.0
 41
1.0
 50
0.0
 71
     0
 42
0.2
  3
ltypeshp.shx
  4

  0
STYLE
  5
300
330
19D
100
AcDbSymbolTableRecord
100
AcDbTextStyleTableRecord
  2
textstyle11
 70
     0
 40
0.0
 41
1.0
 50
0.0
 71
     0
 42
0.2
  3

  4

1001
ACAD
1000
Liberation Sans
1071
        0
  0
STYLE
  5
301
330
19D
100
AcDbSymbolTableRecord
100
AcDbTextStyleTableRecord
  2
textstyle12
 70
     0
 40
0.0
 41
1.0
 50
0.0
 71
     0
 42
0.2
  3

  4

1001
ACAD
1000
Liberation Sans
1071
        0
  0
STYLE
  5
311
330
19D
100
AcDbSymbolTableRecord
100
AcDbTextStyleTableRecord
  2
textstyle13
 70
     0
 40
0.0
 41
1.0
 50
0.0
 71
     0
 42
0.2
  3

  4

1001
ACAD
1000
Liberation Sans
1071
        0
  0
STYLE
  5
312
330
19D
100
AcDbSymbolTableRecord
100
AcDbTextStyleTableRecord
  2
textstyle14
 70
     0
 40
0.0
 41
1.0
 50
0.0
 71
     0
 42
0.2
  3

  4

1001
ACAD
1000
Liberation Sans
1071
        0
  0
STYLE
  5
313
330
19D
100
AcDbSymbolTableRecord
100
AcDbTextStyleTableRecord
  2
textstyle15
 70
     0
 40
0.0
 41
1.0
 50
0.0
 71
     0
 42
0.2
  3

  4

1001
ACAD
1000
Liberation Sans
1071
        0
  0
STYLE
  5
314
330
19D
100
AcDbSymbolTableRecord
100
AcDbTextStyleTableRecord
  2
textstyle16
 70
     0
 40
0.0
 41
1.0
 50
0.0
 71
     0
 42
0.2
  3

  4

1001
ACAD
1000
Liberation Sans
1071
        0
  0
STYLE
  5
315
330
19D
100
AcDbSymbolTableRecord
100
AcDbTextStyleTableRecord
  2
textstyle17
 70
     0
 40
0.0
 41
1.0
 50
0.0
 71
     0
 42
0.2
  3

  4

1001
ACAD
1000
Liberation Sans
1071
        0
  0
STYLE
  5
316
330
19D
100
AcDbSymbolTableRecord
100
AcDbTextStyleTableRecord
  2
textstyle18
 70
     0
 40
0.0
 41
1.0
 50
0.0
 71
     0
 42
0.2
  3

  4

1001
ACAD
1000
Liberation Sans
1071
        0
  0
STYLE
  5
349
330
19D
100
AcDbSymbolTableRecord
100
AcDbTextStyleTableRecord
  2
textstyle19
 70
     0
 40
0.0
 41
1.0
 50
0.0
 71
     0
 42
0.2
  3

  4

1001
ACAD
1000
Liberation Sans
1071
        0
  0
ENDTAB
  0
TABLE
  2
VIEW
  5
1A0
330
0
100
AcDbSymbolTable
 70
     0
  0
ENDTAB
  0
TABLE
  2
UCS
  5
1A1
330
0
100
AcDbSymbolTable
 70
     0
  0
ENDTAB
  0
TABLE
  2
APPID
  5
1A3
330
0
100
AcDbSymbolTable
 70
     2
  0
APPID
  5
1AC
330
1A3
100
AcDbSymbolTableRecord
100
AcDbRegAppTableRecord
  2
ACAD
 70
     0
  0
APPID
  5
207
330
1A3
100
AcDbSymbolTableRecord
100
AcDbRegAppTableRecord
  2
QCAD
 70
     0
  0
ENDTAB
  0
TABLE
  2
DIMSTYLE
  5
1A4
330
0
100
AcDbSymbolTable
 70
     2
100
AcDbDimStyleTable
  0
DIMSTYLE
105
1C0
330
1A4
100
AcDbSymbolTableRecord
100
AcDbDimStyleTableRecord
  2
Standard
 70
     0
178
     0
340
1AB
  0
DIMSTYLE
105
23D
102
{ACAD_REACTORS
330
44
330
45
330
46
330
47
330
48
330
50
330
51
330
52
330
53
330
54
330
59
330
9C
330
A5
330
B6
330
B7
330
B8
102
}
330
1A4
100
AcDbSymbolTableRecord
100
AcDbDimStyleTableRecord
  2
QCADDimStyle
 70
     0
 41
20.0
 42
5.0
 44
10.0
 73
     0
 77
     1
140
20.0
147
5.0
178
     0
340
23C
  0
ENDTAB
  0
TABLE
  2
BLOCK_RECORD
  5
19B
330
0
100
AcDbSymbolTable
 70
    17
  0
BLOCK_RECORD
  5
1B8
330
19B
100
AcDbSymbolTableRecord
100
AcDbBlockTableRecord
  2
*Model_Space
340
1BB
 70
     0
280
     1
281
     0
  0
BLOCK_RECORD
  5
1B4
330
19B
100
AcDbSymbolTableRecord
100
AcDbBlockTableRecord
  2
*Paper_Space
340
1B7
 70
     0
280
     1
281
     0
  0
BLOCK_RECORD
  5
1BC
330
19B
100
AcDbSymbolTableRecord
100
AcDbBlockTableRecord
  2
*Paper_Space0
340
1BF
 70
     0
280
     1
281
     0
  0
BLOCK_RECORD
  5
27C
330
19B
100
AcDbSymbolTableRecord
100
AcDbBlockTableRecord
  2
*D1
340
0
 70
     0
280
     1
281
     0
  0
BLOCK_RECORD
  5
288
330
19B
100
AcDbSymbolTableRecord
100
AcDbBlockTableRecord
  2
*D2
340
0
 70
     0
280
     1
281
     0
  0
BLOCK_RECORD
  5
294
330
19B
100
AcDbSymbolTableRecord
100
AcDbBlockTableRecord
  2
*D3
340
0
 70
     0
280
     1
281
     0
  0
BLOCK_RECORD
  5
2A0
330
19B
100
AcDbSymbolTableRecord
100
AcDbBlockTableRecord
  2
*D4
340
0
 70
     0
280
     1
281
     0
  0
BLOCK_RECORD
  5
2AB
330
19B
100
AcDbSymbolTableRecord
100
AcDbBlockTableRecord
  2
*D5
340
0
 70
     0
280
     1
281
     0
  0
BLOCK_RECORD
  5
2B8
330
19B
100
AcDbSymbolTableRecord
100
AcDbBlockTableRecord
  2
*D6
340
0
 70
     0
280
     1
281
     0
  0
BLOCK_RECORD
  5
2C4
330
19B
100
AcDbSymbolTableRecord
100
AcDbBlockTableRecord
  2
*D7
340
0
 70
     0
280
     1
281
     0
  0
BLOCK_RECORD
  5
2D0
330
19B
100
AcDbSymbolTableRecord
100
AcDbBlockTableRecord
  2
*D8
340
0
 70
     0
280
     1
281
     0
  0
BLOCK_RECORD
  5
2DC
330
19B
100
AcDbSymbolTableRecord
100
AcDbBlockTableRecord
  2
*D9
340
0
 70
     0
280
     1
281
     0
  0
BLOCK_RECORD
  5
2E8
330
19B
100
AcDbSymbolTableRecord
100
AcDbBlockTableRecord
  2
*D10
340
0
 70
     0
280
     1
281
     0
  0
BLOCK_RECORD
  5
2F4
330
19B
100
AcDbSymbolTableRecord
100
AcDbBlockTableRecord
  2
*D11
340
0
 70
     0
280
     1
281
     0
  0
BLOCK_RECORD
  5
302
330
19B
100
AcDbSymbolTableRecord
100
AcDbBlockTableRecord
  2
*D12
340
0
 70
     0
280
     1
281
     0
  0
BLOCK_RECORD
  5
317
330
19B
100
AcDbSymbolTableRecord
100
AcDbBlockTableRecord
  2
*D13
340
0
 70
     0
280
     1
281
     0
  0
BLOCK_RECORD
  5
326
330
19B
100
AcDbSymbolTableRecord
100
AcDbBlockTableRecord
  2
*D14
340
0
 70
     0
280
     1
281
     0
  0
BLOCK_RECORD
  5
331
330
19B
100
AcDbSymbolTableRecord
100
AcDbBlockTableRecord
  2
*D15
340
0
 70
     0
280
     1
281
     0
  0
BLOCK_RECORD
  5
33D
330
19B
100
AcDbSymbolTableRecord
100
AcDbBlockTableRecord
  2
*D16
340
0
 70
     0
280
     1
281
     0
  0
ENDTAB
  0
ENDSEC
  0
SECTION
  2
BLOCKS
  0
BLOCK
  5
1B9
330
1B8
100
AcDbEntity
  8
0
100
AcDbBlockBegin
  2
*Model_Space
 70
     0
 10
0.0
 20
0.0
 30
0.0
  3
*Model_Space
  1
*Model_Space
  0
ENDBLK
  5
1BA
330
1B8
100
AcDbEntity
  8
0
100
AcDbBlockEnd
  0
BLOCK
  5
1B5
330
1B4
100
AcDbEntity
 67
     1
  8
0
100
AcDbBlockBegin
  2
*Paper_Space
 70
     0
 10
0.0
 20
0.0
 30
0.0
  3
*Paper_Space
  1
*Paper_Space
  0
ENDBLK
  5
1B6
330
1B4
100
AcDbEntity
 67
     1
  8
0
100
AcDbBlockEnd
  0
BLOCK
  5
1BD
330
1BC
100
AcDbEntity
  8
0
100
AcDbBlockBegin
  2
*Paper_Space0
 70
     0
 10
0.0
 20
0.0
 30
0.0
  3
*Paper_Space0
  1
*Paper_Space0
  0
ENDBLK
  5
1BE
330
1BC
100
AcDbEntity
  8
0
100
AcDbBlockEnd
  0
BLOCK
  5
27D
330
27C
100
AcDbEntity
  8
0
100
AcDbBlockBegin
  2
*D1
 70
     1
 10
0.0
 20
0.0
 30
0.0
  3
*D1
  1
*D1
  0
LINE
  5
27F
330
27C
100
AcDbEntity
  8
0 ... Seuil ... Rectangle ... Cotes Angles
 62
     0
370
    -2
100
AcDbLine
 10
210.3466870385565
 20
1173.197729027169
 30
0.0
 11
155.8200273305649
 21
1168.427264442784
 31
0.0
  0
LINE
  5
280
330
27C
100
AcDbEntity
  8
0 ... Seuil ... Rectangle ... Cotes Angles
 62
     0
370
    -2
100
AcDbLine
 10
229.5941930142596
 20
953.1977290271712
 30
0.0
 11
175.067533306268
 21
948.4272644427862
 31
0.0
  0
LINE
  5
281
330
27C
100
AcDbEntity
  8
0 ... Seuil ... Rectangle ... Cotes Angles
 62
     0
370
    -2
100
AcDbLine
 10
165.7819743114824
 20
1169.29882187026
 30
0.0
 11
185.0294802871855
 21
949.2988218702627
 31
0.0
  0
LINE
  5
282
330
27C
100
AcDbEntity
  8
0 ... Seuil ... Rectangle ... Cotes Angles
 62
     0
370
    -2
100
AcDbLine
 10
187.4489831282704
 20
1151.118042763378
 30
0.0
 11
144.1149654946943
 21
1187.479600977142
 31
0.0
  0
LINE
  5
283
330
27C
100
AcDbEntity
  8
0 ... Seuil ... Rectangle ... Cotes Angles
 62
     0
370
    -2
100
AcDbLine
 10
163.3624714703974
 20
967.4796009771444
 30
0.0
 11
206.6964891039736
 21
931.118042763381
 31
0.0
  0
MTEXT
  5
284
330
27C
100
AcDbEntity
  8
0 ... Seuil ... Rectangle ... Cotes Angles
 62
     0
100
AcDbMText
 10
190.3486477707092
 20
1060.606158011479
 30
0.0
 40
20.0
 41
0.0
 46
0.0
 71
     5
 72
     1
  1
\A1;220.8404
  7
QCADDimTextStyle
 11
0.08715574274765849
 21
-0.9961946980917455
 31
0.0
 73
     1
 44
1.0
  0
POINT
  5
285
330
27C
100
AcDbEntity
  8
Defpoints
 62
     0
100
AcDbPoint
 10
215.3276605290152
 20
1173.633507740907
 30
0.0
  0
POINT
  5
286
330
27C
100
AcDbEntity
  8
Defpoints
 62
     0
100
AcDbPoint
 10
234.5751665047183
 20
953.6335077409095
 30
0.0
  0
POINT
  5
287
330
27C
100
AcDbEntity
  8
Defpoints
 62
     0
100
AcDbPoint
 10
185.0294802871855
 20
949.2988218702627
 30
0.0
  0
ENDBLK
  5
27E
330
27C
100
AcDbEntity
  8
0
100
AcDbBlockEnd
  0
BLOCK
  5
289
330
288
100
AcDbEntity
  8
0
100
AcDbBlockBegin
  2
*D2
 70
     1
 10
0.0
 20
0.0
 30
0.0
  3
*D2
  1
*D2
  0
LINE
  5
28B
330
288
100
AcDbEntity
  8
0 ... Seuil ... Rectangle ... Cotes Angles
 62
     0
370
    -2
100
AcDbLine
 10
238.4189244815607
 20
1197.63350774091
 30
0.0
 11
121.0533819912753
 21
1197.63350774091
 31
0.0
  0
LINE
  5
28C
330
288
100
AcDbEntity
  8
0 ... Seuil ... Rectangle ... Cotes Angles
 62
     0
370
    -2
100
AcDbLine
 10
210.3276605290152
 20
1173.633507740907
 30
0.0
 11
121.0533819912753
 21
1173.633507740907
 31
0.0
  0
LINE
  5
28D
330
288
100
AcDbEntity
  8
0 ... Seuil ... Rectangle ... Cotes Angles
 62
     0
370
    -2
100
AcDbLine
 10
131.0533819912753
 20
1197.63350774091
 30
0.0
 11
131.0533819912753
 21
1173.633507740907
 31
0.0
  0
LINE
  5
28E
330
288
100
AcDbEntity
  8
0 ... Seuil ... Rectangle ... Cotes Angles
 62
     0
370
    -2
100
AcDbLine
 10
151.0533819912753
 20
1177.63350774091
 30
0.0
 11
111.0533819912753
 21
1217.63350774091
 31
0.0
  0
LINE
  5
28F
330
288
100
AcDbEntity
  8
0 ... Seuil ... Rectangle ... Cotes Angles
 62
     0
370
    -2
100
AcDbLine
 10
111.0533819912753
 20
1193.633507740907
 30
0.0
 11
151.0533819912753
 21
1153.633507740907
 31
0.0
  0
MTEXT
  5
290
330
288
100
AcDbEntity
  8
0 ... Seuil ... Rectangle ... Cotes Angles
 62
     0
100
AcDbMText
 10
103.5533819912753
 20
1185.633507740908
 30
0.0
 40
20.0
 41
0.0
 46
0.0
 71
     5
 72
     1
  1
\A1;24
  7
QCADDimTextStyle
 73
     1
 44
1.0
  0
POINT
  5
291
330
288
100
AcDbEntity
  8
Defpoints
 62
     0
100
AcDbPoint
 10
243.4189244815607
 20
1197.63350774091
 30
0.0
  0
POINT
  5
292
330
288
100
AcDbEntity
  8
Defpoints
 62
     0
100
AcDbPoint
 10
215.3276605290152
 20
1173.633507740907
 30
0.0
  0
POINT
  5
293
330
288
100
AcDbEntity
  8
Defpoints
 62
     0
100
AcDbPoint
 10
131.0533819912753
 20
1173.633507740907
 30
0.0
  0
ENDBLK
  5
28A
330
288
100
AcDbEntity
  8
0
100
AcDbBlockEnd
  0
BLOCK
  5
295
330
294
100
AcDbEntity
  8
0
100
AcDbBlockBegin
  2
*D3
 70
     1
 10
0.0
 20
0.0
 30
0.0
  3
*D3
  1
*D3
  0
LINE
  5
297
330
294
100
AcDbEntity
  8
0 ... Seuil ... Rectangle ... Cotes Angles
 62
     0
370
    -2
100
AcDbLine
 10
210.3276605290152
 20
1173.633507740907
 30
0.0
 11
121.0533819912753
 21
1173.633507740907
 31
0.0
  0
LINE
  5
298
330
294
100
AcDbEntity
  8
0 ... Seuil ... Rectangle ... Cotes Angles
 62
     0
370
    -2
100
AcDbLine
 10
229.5751665047183
 20
953.6335077409095
 30
0.0
 11
121.0533819912753
 21
953.6335077409095
 31
0.0
  0
LINE
  5
299
330
294
100
AcDbEntity
  8
0 ... Seuil ... Rectangle ... Cotes Angles
 62
     0
370
    -2
100
AcDbLine
 10
131.0533819912753
 20
1173.633507740907
 30
0.0
 11
131.0533819912753
 21
953.6335077409095
 31
0.0
  0
LINE
  5
29A
330
294
100
AcDbEntity
  8
0 ... Seuil ... Rectangle ... Cotes Angles
 62
     0
370
    -2
100
AcDbLine
 10
151.0533819912753
 20
1153.633507740907
 30
0.0
 11
111.0533819912753
 21
1193.633507740907
 31
0.0
  0
LINE
  5
29B
330
294
100
AcDbEntity
  8
0 ... Seuil ... Rectangle ... Cotes Angles
 62
     0
370
    -2
100
AcDbLine
 10
111.0533819912753
 20
973.6335077409095
 30
0.0
 11
151.0533819912753
 21
933.6335077409095
 31
0.0
  0
MTEXT
  5
29C
330
294
100
AcDbEntity
  8
0 ... Seuil ... Rectangle ... Cotes Angles
 62
     0
100
AcDbMText
 10
116.0533819912753
 20
1063.633507740914
 30
0.0
 40
20.0
 41
0.0
 46
0.0
 71
     5
 72
     1
  1
\A1;220
  7
QCADDimTextStyle
 11
0.0
 21
1.0
 31
0.0
 73
     1
 44
1.0
  0
POINT
  5
29D
330
294
100
AcDbEntity
  8
Defpoints
 62
     0
100
AcDbPoint
 10
215.3276605290152
 20
1173.633507740907
 30
0.0
  0
POINT
  5
29E
330
294
100
AcDbEntity
  8
Defpoints
 62
     0
100
AcDbPoint
 10
234.5751665047183
 20
953.6335077409095
 30
0.0
  0
POINT
  5
29F
330
294
100
AcDbEntity
  8
Defpoints
 62
     0
100
AcDbPoint
 10
131.0533819912753
 20
953.6335077409095
 30
0.0
  0
ENDBLK
  5
296
330
294
100
AcDbEntity
  8
0
100
AcDbBlockEnd
  0
BLOCK
  5
2A1
330
2A0
100
AcDbEntity
  8
0
100
AcDbBlockBegin
  2
*D4
 70
     1
 10
0.0
 20
0.0
 30
0.0
  3
*D4
  1
*D4
  0
LINE
  5
2A3
330
2A0
100
AcDbEntity
  8
0 ... Seuil ... Rectangle ... Cotes Angles
 62
     0
370
    -2
100
AcDbLine
 10
268.4189244815602
 20
1197.63350774091
 30
0.0
 11
309.2105523193222
 21
1197.63350774091
 31
0.0
  0
LINE
  5
2A4
330
2A0
100
AcDbEntity
  8
0 ... Seuil ... Rectangle ... Cotes Angles
 62
     0
370
    -2
100
AcDbLine
 10
268.5501574768491
 20
1196.13350774091
 30
0.0
 11
309.2105523193222
 21
1196.13350774091
 31
0.0
  0
LINE
  5
2A5
330
2A0
100
AcDbEntity
  8
0 ... Seuil ... Rectangle ... Cotes Angles
 62
     0
370
    -2
100
AcDbLine
 10
279.2105523193222
 20
1217.63350774091
 30
0.0
 11
319.2105523193222
 21
1177.63350774091
 31
0.0
  0
LINE
  5
2A6
330
2A0
100
AcDbEntity
  8
0 ... Seuil ... Rectangle ... Cotes Angles
 62
     0
370
    -2
100
AcDbLine
 10
319.2105523193222
 20
1176.13350774091
 30
0.0
 11
279.2105523193222
 21
1216.13350774091
 31
0.0
  0
MTEXT
  5
2A7
330
2A0
100
AcDbEntity
  8
0 ... Seuil ... Rectangle ... Cotes Angles
 62
     0
100
AcDbMText
 10
326.7105523193222
 20
1196.88350774091
 30
0.0
 40
20.0
 41
0.0
 46
0.0
 71
     5
 72
     1
  1
\A1;1.5
  7
QCADDimTextStyle
 73
     1
 44
1.0
  0
POINT
  5
2A8
330
2A0
100
AcDbEntity
  8
Defpoints
 62
     0
100
AcDbPoint
 10
263.4189244815602
 20
1197.63350774091
 30
0.0
  0
POINT
  5
2A9
330
2A0
100
AcDbEntity
  8
Defpoints
 62
     0
100
AcDbPoint
 10
263.5501574768491
 20
1196.13350774091
 30
0.0
  0
POINT
  5
2AA
330
2A0
100
AcDbEntity
  8
Defpoints
 62
     0
100
AcDbPoint
 10
299.2105523193222
 20
1196.13350774091
 30
0.0
  0
ENDBLK
  5
2A2
330
2A0
100
AcDbEntity
  8
0
100
AcDbBlockEnd
  0
BLOCK
  5
2AC
330
2AB
100
AcDbEntity
  8
0
100
AcDbBlockBegin
  2
*D5
 70
     1
 10
0.0
 20
0.0
 30
0.0
  3
*D5
  1
*D5
  0
LINE
  5
2AE
330
2AB
100
AcDbEntity
  8
0 ... Seuil ... Rectangle ... Cotes Angles
 62
     0
370
    -2
100
AcDbLine
 10
222.0199458235716
 20
1097.140336799113
 30
0.0
 11
222.5023912017872
 21
1091.625960892912
 31
0.0
  0
LINE
  5
2AF
330
2AB
100
AcDbEntity
  8
0 ... Seuil ... Rectangle ... Cotes Angles
 62
     0
370
    -2
100
AcDbLine
 10
271.8296807281586
 20
1101.498123936519
 30
0.0
 11
272.3121261063743
 21
1095.983748030318
 31
0.0
  0
LINE
  5
2B0
330
2AB
100
AcDbEntity
  8
0 ... Seuil ... Rectangle ... Cotes Angles
 62
     0
370
    -2
100
AcDbLine
 10
221.6308337743061
 20
1101.587907873829
 30
0.0
 11
225.4258611956183
 21
1101.919929750966
 31
0.0
  0
LINE
  5
2B1
330
2AB
100
AcDbEntity
  8
0 ... Seuil ... Rectangle ... Cotes Angles
 62
     0
370
    -2
100
AcDbLine
 10
271.4405686788931
 20
1105.945695011235
 30
0.0
 11
267.6455412576
 21
1105.6136731341
 31
0.0
  0
LINE
  5
2B2
330
2AB
100
AcDbEntity
  8
0 ... Seuil ... Rectangle ... Cotes Angles
 62
     0
370
    -2
100
AcDbLine
 10
239.8116128811779
 20
1123.254916690626
 30
0.0
 11
203.4500546674343
 21
1079.920899057033
 31
0.0
  0
LINE
  5
2B3
330
2AB
100
AcDbEntity
  8
0 ... Seuil ... Rectangle ... Cotes Angles
 62
     0
370
    -2
100
AcDbLine
 10
253.2597895720213
 20
1084.278686194439
 30
0.0
 11
289.6213477857649
 21
1127.612703828031
 31
0.0
  0
MTEXT
  5
2B4
330
2AB
100
AcDbEntity
  8
0 ... Seuil ... Rectangle ... Cotes Angles
 62
     0
100
AcDbMText
 10
245.2283650853992
 20
1118.709721913774
 30
0.0
 40
20.0
 41
0.0
 46
0.0
 71
     5
 72
     1
  1
\A1;50
  7
QCADDimTextStyle
 11
0.9961946980917055
 21
0.08715574274811536
 31
0.0
 73
     1
 44
1.0
  0
POINT
  5
2B5
330
2AB
100
AcDbEntity
  8
Defpoints
 62
     0
100
AcDbPoint
 10
221.584167109831
 20
1102.121310289572
 30
0.0
  0
POINT
  5
2B6
330
2AB
100
AcDbEntity
  8
Defpoints
 62
     0
100
AcDbPoint
 10
271.393902014418
 20
1106.479097426978
 30
0.0
  0
POINT
  5
2B7
330
2AB
100
AcDbEntity
  8
Defpoints
 62
     0
100
AcDbPoint
 10
271.4405686788931
 20
1105.945695011235
 30
0.0
  0
ENDBLK
  5
2AD
330
2AB
100
AcDbEntity
  8
0
100
AcDbBlockEnd
  0
BLOCK
  5
2B9
330
2B8
100
AcDbEntity
  8
0
100
AcDbBlockBegin
  2
*D6
 70
     1
 10
0.0
 20
0.0
 30
0.0
  3
*D6
  1
*D6
  0
LINE
  5
2BB
330
2B8
100
AcDbEntity
  8
0 ... Seuil ... Rectangle ... Cotes Angles
 62
     0
370
    -2
100
AcDbLine
 10
268.4189244815602
 20
1197.63350774091
 30
0.0
 11
413.0946898572843
 21
1197.63350774091
 31
0.0
  0
LINE
  5
2BC
330
2B8
100
AcDbEntity
  8
0 ... Seuil ... Rectangle ... Cotes Angles
 62
     0
370
    -2
100
AcDbLine
 10
304.4598844748152
 20
905.6335077409091
 30
0.0
 11
413.0946898572843
 21
905.6335077409091
 31
0.0
  0
LINE
  5
2BD
330
2B8
100
AcDbEntity
  8
0 ... Seuil ... Rectangle ... Cotes Angles
 62
     0
370
    -2
100
AcDbLine
 10
403.0946898572843
 20
1197.63350774091
 30
0.0
 11
403.0946898572843
 21
905.6335077409091
 31
0.0
  0
LINE
  5
2BE
330
2B8
100
AcDbEntity
  8
0 ... Seuil ... Rectangle ... Cotes Angles
 62
     0
370
    -2
100
AcDbLine
 10
423.0946898572843
 20
1177.63350774091
 30
0.0
 11
383.0946898572843
 21
1217.63350774091
 31
0.0
  0
LINE
  5
2BF
330
2B8
100
AcDbEntity
  8
0 ... Seuil ... Rectangle ... Cotes Angles
 62
     0
370
    -2
100
AcDbLine
 10
383.0946898572843
 20
925.6335077409091
 30
0.0
 11
423.0946898572843
 21
885.6335077409091
 31
0.0
  0
MTEXT
  5
2C0
330
2B8
100
AcDbEntity
  8
0 ... Seuil ... Rectangle ... Cotes Angles
 62
     0
100
AcDbMText
 10
388.0946898572843
 20
1051.633507740909
 30
0.0
 40
20.0
 41
0.0
 46
0.0
 71
     5
 72
     1
  1
\A1;292
  7
QCADDimTextStyle
 11
0.0
 21
1.0
 31
0.0
 73
     1
 44
1.0
  0
POINT
  5
2C1
330
2B8
100
AcDbEntity
  8
Defpoints
 62
     0
100
AcDbPoint
 10
263.4189244815602
 20
1197.63350774091
 30
0.0
  0
POINT
  5
2C2
330
2B8
100
AcDbEntity
  8
Defpoints
 62
     0
100
AcDbPoint
 10
299.4598844748152
 20
905.6335077409091
 30
0.0
  0
POINT
  5
2C3
330
2B8
100
AcDbEntity
  8
Defpoints
 62
     0
100
AcDbPoint
 10
403.0946898572843
 20
905.6335077409091
 30
0.0
  0
ENDBLK
  5
2BA
330
2B8
100
AcDbEntity
  8
0
100
AcDbBlockEnd
  0
BLOCK
  5
2C5
330
2C4
100
AcDbEntity
  8
0
100
AcDbBlockBegin
  2
*D7
 70
     1
 10
0.0
 20
0.0
 30
0.0
  3
*D7
  1
*D7
  0
LINE
  5
2C7
330
2C4
100
AcDbEntity
  8
0 ... Seuil ... Rectangle ... Cotes Angles
 62
     0
370
    -2
100
AcDbLine
 10
295.9243505688831
 20
916.2401094587079
 30
0.0
 11
340.8496393565901
 21
961.1653982464067
 31
0.0
  0
LINE
  5
2C8
330
2C4
100
AcDbEntity
  8
0 ... Seuil ... Rectangle ... Cotes Angles
 62
     0
370
    -2
100
AcDbLine
 10
302.9954183807483
 20
909.1690416468415
 30
0.0
 11
347.9207071684552
 21
954.0943304345402
 31
0.0
  0
LINE
  5
2C9
330
2C4
100
AcDbEntity
  8
0 ... Seuil ... Rectangle ... Cotes Angles
 62
     0
370
    -2
100
AcDbLine
 10
333.778571544724
 20
954.0943304345418
 30
0.0
 11
340.8496393565891
 21
947.0232626226754
 31
0.0
  0
LINE
  5
2CA
330
2C4
100
AcDbEntity
  8
0 ... Seuil ... Rectangle ... Cotes Angles
 62
     0
370
    -2
100
AcDbLine
 10
362.0628427921859
 20
954.0943304345392
 30
0.0
 11
305.4943002972621
 21
954.0943304345444
 31
0.0
  0
LINE
  5
2CB
330
2C4
100
AcDbEntity
  8
0 ... Seuil ... Rectangle ... Cotes Angles
 62
     0
370
    -2
100
AcDbLine
 10
312.5653681091272
 20
947.023262622678
 30
0.0
 11
369.133910604051
 21
947.0232626226727
 31
0.0
  0
MTEXT
  5
2CC
330
2C4
100
AcDbEntity
  8
0 ... Seuil ... Rectangle ... Cotes Angles
 62
     0
100
AcDbMText
 10
354.4168557843254
 20
968.2566231025542
 30
0.0
 40
20.0
 41
0.0
 46
0.0
 71
     5
 72
     1
  1
\A1;10
  7
QCADDimTextStyle
 11
0.7071067811864822
 21
-0.7071067811866129
 31
0.0
 73
     1
 44
1.0
  0
POINT
  5
2CD
330
2C4
100
AcDbEntity
  8
Defpoints
 62
     0
100
AcDbPoint
 10
292.3888166629501
 20
912.7045755527755
 30
0.0
  0
POINT
  5
2CE
330
2C4
100
AcDbEntity
  8
Defpoints
 62
     0
100
AcDbPoint
 10
299.4598844748152
 20
905.6335077409091
 30
0.0
  0
POINT
  5
2CF
330
2C4
100
AcDbEntity
  8
Defpoints
 62
     0
100
AcDbPoint
 10
340.8496393565891
 20
947.0232626226754
 30
0.0
  0
ENDBLK
  5
2C6
330
2C4
100
AcDbEntity
  8
0
100
AcDbBlockEnd
  0
BLOCK
  5
2D1
330
2D0
100
AcDbEntity
  8
0
100
AcDbBlockBegin
  2
*D8
 70
     1
 10
0.0
 20
0.0
 30
0.0
  3
*D8
  1
*D8
  0
LINE
  5
2D3
330
2D0
100
AcDbEntity
  8
0 ... Seuil ... Rectangle ... Cotes Angles
 62
     0
370
    -2
100
AcDbLine
 10
287.4598844748152
 20
900.6335077409091
 30
0.0
 11
287.4598844748152
 21
858.7695603072978
 31
0.0
  0
LINE
  5
2D4
330
2D0
100
AcDbEntity
  8
0 ... Seuil ... Rectangle ... Cotes Angles
 62
     0
370
    -2
100
AcDbLine
 10
299.4598844748152
 20
900.6335077409091
 30
0.0
 11
299.4598844748152
 21
858.7695603072978
 31
0.0
  0
LINE
  5
2D5
330
2D0
100
AcDbEntity
  8
0 ... Seuil ... Rectangle ... Cotes Angles
 62
     0
370
    -2
100
AcDbLine
 10
287.4598844748152
 20
868.7695603072978
 30
0.0
 11
299.4598844748152
 21
868.7695603072978
 31
0.0
  0
LINE
  5
2D6
330
2D0
100
AcDbEntity
  8
0 ... Seuil ... Rectangle ... Cotes Angles
 62
     0
370
    -2
100
AcDbLine
 10
307.4598844748152
 20
888.7695603072978
 30
0.0
 11
267.4598844748152
 21
848.7695603072978
 31
0.0
  0
LINE
  5
2D7
330
2D0
100
AcDbEntity
  8
0 ... Seuil ... Rectangle ... Cotes Angles
 62
     0
370
    -2
100
AcDbLine
 10
279.4598844748152
 20
848.7695603072978
 30
0.0
 11
319.4598844748152
 21
888.7695603072978
 31
0.0
  0
MTEXT
  5
2D8
330
2D0
100
AcDbEntity
  8
0 ... Seuil ... Rectangle ... Cotes Angles
 62
     0
100
AcDbMText
 10
293.3426901029409
 20
841.5113115272088
 30
0.0
 40
20.0
 41
0.0
 46
0.0
 71
     5
 72
     1
  1
\A1;12
  7
QCADDimTextStyle
 73
     1
 44
1.0
  0
POINT
  5
2D9
330
2D0
100
AcDbEntity
  8
Defpoints
 62
     0
100
AcDbPoint
 10
287.4598844748152
 20
905.6335077409091
 30
0.0
  0
POINT
  5
2DA
330
2D0
100
AcDbEntity
  8
Defpoints
 62
     0
100
AcDbPoint
 10
299.4598844748152
 20
905.6335077409091
 30
0.0
  0
POINT
  5
2DB
330
2D0
100
AcDbEntity
  8
Defpoints
 62
     0
100
AcDbPoint
 10
299.4598844748152
 20
868.7695603072978
 30
0.0
  0
ENDBLK
  5
2D2
330
2D0
100
AcDbEntity
  8
0
100
AcDbBlockEnd
  0
BLOCK
  5
2DD
330
2DC
100
AcDbEntity
  8
0
100
AcDbBlockBegin
  2
*D9
 70
     1
 10
0.0
 20
0.0
 30
0.0
  3
*D9
  1
*D9
  0
LINE
  5
2DF
330
2DC
100
AcDbEntity
  8
0 ... Seuil ... Rectangle ... Cotes Angles
 62
     0
370
    -2
100
AcDbLine
 10
455.501255666652
 20
1197.633507740909
 30
0.0
 11
428.3914282194701
 21
1197.633507740909
 31
0.0
  0
LINE
  5
2E0
330
2DC
100
AcDbEntity
  8
0 ... Seuil ... Rectangle ... Cotes Angles
 62
     0
370
    -2
100
AcDbLine
 10
455.501255666652
 20
953.6335077409082
 30
0.0
 11
428.3914282194701
 21
953.6335077409082
 31
0.0
  0
LINE
  5
2E1
330
2DC
100
AcDbEntity
  8
0 ... Seuil ... Rectangle ... Cotes Angles
 62
     0
370
    -2
100
AcDbLine
 10
438.3914282194701
 20
1197.633507740909
 30
0.0
 11
438.3914282194701
 21
953.6335077409082
 31
0.0
  0
LINE
  5
2E2
330
2DC
100
AcDbEntity
  8
0 ... Seuil ... Rectangle ... Cotes Angles
 62
     0
370
    -2
100
AcDbLine
 10
458.3914282194701
 20
1177.633507740909
 30
0.0
 11
418.3914282194701
 21
1217.633507740909
 31
0.0
  0
LINE
  5
2E3
330
2DC
100
AcDbEntity
  8
0 ... Seuil ... Rectangle ... Cotes Angles
 62
     0
370
    -2
100
AcDbLine
 10
418.3914282194701
 20
973.6335077409082
 30
0.0
 11
458.3914282194701
 21
933.6335077409082
 31
0.0
  0
MTEXT
  5
2E4
330
2DC
100
AcDbEntity
  8
0 ... Seuil ... Rectangle ... Cotes Angles
 62
     0
100
AcDbMText
 10
423.3914282194701
 20
1075.633507740903
 30
0.0
 40
20.0
 41
0.0
 46
0.0
 71
     5
 72
     1
  1
\A1;244
  7
QCADDimTextStyle
 11
0.0
 21
1.0
 31
0.0
 73
     1
 44
1.0
  0
POINT
  5
2E5
330
2DC
100
AcDbEntity
  8
Defpoints
 62
     0
100
AcDbPoint
 10
460.501255666652
 20
1197.633507740909
 30
0.0
  0
POINT
  5
2E6
330
2DC
100
AcDbEntity
  8
Defpoints
 62
     0
100
AcDbPoint
 10
460.501255666652
 20
953.6335077409082
 30
0.0
  0
POINT
  5
2E7
330
2DC
100
AcDbEntity
  8
Defpoints
 62
     0
100
AcDbPoint
 10
438.3914282194701
 20
953.6335077409082
 30
0.0
  0
ENDBLK
  5
2DE
330
2DC
100
AcDbEntity
  8
0
100
AcDbBlockEnd
  0
BLOCK
  5
2E9
330
2E8
100
AcDbEntity
  8
0
100
AcDbBlockBegin
  2
*D10
 70
     1
 10
0.0
 20
0.0
 30
0.0
  3
*D10
  1
*D10
  0
LINE
  5
2EB
330
2E8
100
AcDbEntity
  8
0 ... Seuil ... Rectangle ... Cotes Angles
 62
     0
370
    -2
100
AcDbLine
 10
460.501255666652
 20
1202.633507740909
 30
0.0
 11
460.501255666652
 21
1257.653630083715
 31
0.0
  0
LINE
  5
2EC
330
2E8
100
AcDbEntity
  8
0 ... Seuil ... Rectangle ... Cotes Angles
 62
     0
370
    -2
100
AcDbLine
 10
2863.601255666652
 20
1202.63350774091
 30
0.0
 11
2863.601255666652
 21
1257.653630083716
 31
0.0
  0
LINE
  5
2ED
330
2E8
100
AcDbEntity
  8
0 ... Seuil ... Rectangle ... Cotes Angles
 62
     0
370
    -2
100
AcDbLine
 10
460.501255666652
 20
1247.653630083715
 30
0.0
 11
2863.601255666652
 21
1247.653630083716
 31
0.0
  0
LINE
  5
2EE
330
2E8
100
AcDbEntity
  8
0 ... Seuil ... Rectangle ... Cotes Angles
 62
     0
370
    -2
100
AcDbLine
 10
480.501255666652
 20
1267.653630083715
 30
0.0
 11
440.501255666652
 21
1227.653630083715
 31
0.0
  0
LINE
  5
2EF
330
2E8
100
AcDbEntity
  8
0 ... Seuil ... Rectangle ... Cotes Angles
 62
     0
370
    -2
100
AcDbLine
 10
2843.601255666652
 20
1227.653630083716
 30
0.0
 11
2883.601255666652
 21
1267.653630083716
 31
0.0
  0
MTEXT
  5
2F0
330
2E8
100
AcDbEntity
  8
0 ... Seuil ... Rectangle ... Cotes Angles
 62
     0
100
AcDbMText
 10
1662.051255666653
 20
1262.653630083716
 30
0.0
 40
20.0
 41
0.0
 46
0.0
 71
     5
 72
     1
  1
\A1;2403.1
  7
QCADDimTextStyle
 73
     1
 44
1.0
  0
POINT
  5
2F1
330
2E8
100
AcDbEntity
  8
Defpoints
 62
     0
100
AcDbPoint
 10
460.501255666652
 20
1197.633507740909
 30
0.0
  0
POINT
  5
2F2
330
2E8
100
AcDbEntity
  8
Defpoints
 62
     0
100
AcDbPoint
 10
2863.601255666652
 20
1197.63350774091
 30
0.0
  0
POINT
  5
2F3
330
2E8
100
AcDbEntity
  8
Defpoints
 62
     0
100
AcDbPoint
 10
2863.601255666652
 20
1247.653630083716
 30
0.0
  0
ENDBLK
  5
2EA
330
2E8
100
AcDbEntity
  8
0
100
AcDbBlockEnd
  0
BLOCK
  5
2F5
330
2F4
100
AcDbEntity
  8
0
100
AcDbBlockBegin
  2
*D11
 70
     1
 10
0.0
 20
0.0
 30
0.0
  3
*D11
  1
*D11
  0
LINE
  5
2F7
330
2F4
100
AcDbEntity
  8
0 ... Seuil ... Rectangle ... Cotes Angles
 62
     0
370
    -2
100
AcDbLine
 10
238.4189244815607
 20
1197.63350774091
 30
0.0
 11
80.16262088048867
 21
1197.63350774091
 31
0.0
  0
LINE
  5
2F8
330
2F4
100
AcDbEntity
  8
0 ... Seuil ... Rectangle ... Cotes Angles
 62
     0
370
    -2
100
AcDbLine
 10
229.5751665047183
 20
953.6335077409095
 30
0.0
 11
80.16262088048866
 21
953.6335077409095
 31
0.0
  0
LINE
  5
2F9
330
2F4
100
AcDbEntity
  8
0 ... Seuil ... Rectangle ... Cotes Angles
 62
     0
370
    -2
100
AcDbLine
 10
90.16262088048867
 20
1197.63350774091
 30
0.0
 11
90.16262088048866
 21
953.6335077409095
 31
0.0
  0
LINE
  5
2FA
330
2F4
100
AcDbEntity
  8
0 ... Seuil ... Rectangle ... Cotes Angles
 62
     0
370
    -2
100
AcDbLine
 10
110.1626208804887
 20
1177.63350774091
 30
0.0
 11
70.16262088048867
 21
1217.63350774091
 31
0.0
  0
LINE
  5
2FB
330
2F4
100
AcDbEntity
  8
0 ... Seuil ... Rectangle ... Cotes Angles
 62
     0
370
    -2
100
AcDbLine
 10
70.16262088048866
 20
973.6335077409095
 30
0.0
 11
110.1626208804887
 21
933.6335077409095
 31
0.0
  0
MTEXT
  5
2FC
330
2F4
100
AcDbEntity
  8
0 ... Seuil ... Rectangle ... Cotes Angles
 62
     0
100
AcDbMText
 10
75.16262088048825
 20
1075.633507740911
 30
0.0
 40
20.0
 41
0.0
 46
0.0
 71
     5
 72
     1
  1
\A1;244
  7
QCADDimTextStyle
 11
5.824120784918841E-17
 21
1.0
 31
0.0
 73
     1
 44
1.0
  0
POINT
  5
2FD
330
2F4
100
AcDbEntity
  8
Defpoints
 62
     0
100
AcDbPoint
 10
243.4189244815607
 20
1197.63350774091
 30
0.0
  0
POINT
  5
2FE
330
2F4
100
AcDbEntity
  8
Defpoints
 62
     0
100
AcDbPoint
 10
234.5751665047183
 20
953.6335077409095
 30
0.0
  0
POINT
  5
2FF
330
2F4
100
AcDbEntity
  8
Defpoints
 62
     0
100
AcDbPoint
 10
90.16262088048866
 20
953.6335077409095
 30
0.0
  0
ENDBLK
  5
2F6
330
2F4
100
AcDbEntity
  8
0
100
AcDbBlockEnd
  0
BLOCK
  5
303
330
302
100
AcDbEntity
  8
0
100
AcDbBlockBegin
  2
*D12
 70
     1
 10
0.0
 20
0.0
 30
0.0
  3
*D12
  1
*D12
  0
LINE
  5
305
330
302
100
AcDbEntity
  8
0 ... Seuil ... Rectangle ... Cotes Angles
 62
     0
370
    -2
100
AcDbLine
 10
260.3780616918863
 20
411.5352454113147
 30
0.0
 11
260.3780616918873
 21
561.3161647016254
 31
0.0
  0
LINE
  5
306
330
302
100
AcDbEntity
  8
0 ... Seuil ... Rectangle ... Cotes Angles
 62
     0
370
    -2
100
AcDbLine
 10
255.3970882014263
 20
406.0994666975763
 30
0.0
 11
106.1861305291122
 21
393.0451994274023
 31
0.0
  0
ARC
  5
307
330
302
100
AcDbEntity
  8
0 ... Seuil ... Rectangle ... Cotes Angles
 62
     0
370
    -2
100
AcDbCircle
 10
260.3780616918862
 20
406.5352454113147
 30
0.0
 40
144.7809192903107
100
AcDbArc
 50
97.92113134823104
 51
132.8517291697516
  0
ARC
  5
308
330
302
100
AcDbEntity
  8
0 ... Seuil ... Rectangle ... Cotes Angles
 62
     0
370
    -2
100
AcDbCircle
 10
260.3780616918862
 20
406.5352454113147
 30
0.0
 40
144.7809192903107
100
AcDbArc
 50
142.1482708302478
 51
177.0788686517685
  0
SOLID
  5
309
330
302
100
AcDbEntity
  8
0 ... Seuil ... Rectangle ... Cotes Angles
 62
     0
100
AcDbTrace
 10
240.6560581187743
 20
546.6093944530119
 30
0.0
 11
240.1955922853382
 21
553.2601399496223
 31
0.0
 12
260.3780616918872
 22
551.3161647016254
 32
0.0
 13
260.3780616918872
 23
551.3161647016254
 33
0.0
  0
SOLID
  5
30A
330
302
100
AcDbEntity
  8
0 ... Seuil ... Rectangle ... Cotes Angles
 62
     0
100
AcDbTrace
 10
112.4524815631442
 20
413.8529972654597
 30
0.0
 11
119.118051206948
 21
413.9739343071209
 31
0.0
 12
116.1480775100297
 22
393.9167568548789
 32
0.0
 13
116.1480775100297
 23
393.9167568548789
 33
0.0
  0
MTEXT
  5
30B
330
302
100
AcDbEntity
  8
0 ... Seuil ... Rectangle ... Cotes Angles
 62
     0
100
AcDbMText
 10
142.5752110444532
 20
514.4816698476774
 30
0.0
 40
20.0
 41
0.0
 46
0.0
 71
     5
 72
     1
  1
\A1;95%%d
  7
QCADDimTextStyle
 11
0.6755902076156644
 21
0.7372773368101202
 31
0.0
 73
     1
 44
1.0
  0
POINT
  5
30C
330
302
100
AcDbEntity
  8
Defpoints
 62
     0
100
AcDbPoint
 10
184.3714697851655
 20
529.7606996700542
 30
0.0
  0
POINT
  5
30D
330
302
100
AcDbEntity
  8
Defpoints
 62
     0
100
AcDbPoint
 10
260.3780616918862
 20
406.5352454113145
 30
0.0
  0
POINT
  5
30E
330
302
100
AcDbEntity
  8
Defpoints
 62
     0
100
AcDbPoint
 10
452.3780616918859
 20
423.333068808292
 30
0.0
  0
POINT
  5
30F
330
302
100
AcDbEntity
  8
Defpoints
 62
     0
100
AcDbPoint
 10
260.378061691885
 20
406.5352454113146
 30
0.0
  0
POINT
  5
310
330
302
100
AcDbEntity
  8
Defpoints
 62
     0
100
AcDbPoint
 10
260.3780616918859
 20
358.5352454113138
 30
0.0
  0
ENDBLK
  5
304
330
302
100
AcDbEntity
  8
0
100
AcDbBlockEnd
  0
BLOCK
  5
318
330
317
100
AcDbEntity
  8
0
100
AcDbBlockBegin
  2
*D13
 70
     1
 10
0.0
 20
0.0
 30
0.0
  3
*D13
  1
*D13
  0
LINE
  5
31A
330
317
100
AcDbEntity
  8
0 ... Seuil ... Rectangle ... Cotes Angles
 62
     0
370
    -2
100
AcDbLine
 10
1428.378061691888
 20
497.6990853843348
 30
0.0
 11
1428.378061691888
 21
407.3631719907439
 31
0.0
  0
LINE
  5
31B
330
317
100
AcDbEntity
  8
0 ... Seuil ... Rectangle ... Cotes Angles
 62
     0
370
    -2
100
AcDbLine
 10
1433.359035182347
 20
503.134864098073
 30
0.0
 11
1523.351193152317
 21
511.0081577266797
 31
0.0
  0
ARC
  5
31C
330
317
100
AcDbEntity
  8
0 ... Seuil ... Rectangle ... Cotes Angles
 62
     0
370
    -2
100
AcDbCircle
 10
1428.378061691888
 20
502.6990853843348
 30
0.0
 40
85.3359133935908
100
AcDbArc
 50
283.4592168613746
 51
300.4647561733948
  0
ARC
  5
31D
330
317
100
AcDbEntity
  8
0 ... Seuil ... Rectangle ... Cotes Angles
 62
     0
370
    -2
100
AcDbCircle
 10
1428.378061691888
 20
502.6990853843348
 30
0.0
 40
85.3359133935908
100
AcDbArc
 50
334.5352438266033
 51
351.5407831386255
  0
SOLID
  5
31E
330
317
100
AcDbEntity
  8
0 ... Seuil ... Rectangle ... Cotes Angles
 62
     0
100
AcDbTrace
 10
1447.849653014574
 20
423.0172185481591
 30
0.0
 11
1448.630879394131
 21
416.3964837106709
 31
0.0
 12
1428.378061691888
 22
417.3631719907439
 32
0.0
 13
1428.378061691888
 23
417.3631719907439
 33
0.0
  0
SOLID
  5
31F
330
317
100
AcDbEntity
  8
0 ... Seuil ... Rectangle ... Cotes Angles
 62
     0
100
AcDbTrace
 10
1516.117405280288
 20
490.0451031178653
 30
0.0
 11
1509.453775972346
 21
490.2463216328929
 31
0.0
 12
1513.389246171399
 22
510.1366002992031
 32
0.0
 13
1513.389246171399
 23
510.1366002992031
 33
0.0
  0
MTEXT
  5
320
330
317
100
AcDbEntity
  8
0 ... Seuil ... Rectangle ... Cotes Angles
 62
     0
100
AcDbMText
 10
1480.23513660082
 20
455.1808310519223
 30
0.0
 40
20.0
 41
0.0
 46
0.0
 71
     5
 72
     1
  1
\A1;95%%d
  7
QCADDimTextStyle
 11
0.6755902076156705
 21
0.7372773368101146
 31
0.0
 73
     1
 44
1.0
  0
POINT
  5
321
330
317
100
AcDbEntity
  8
Defpoints
 62
     0
100
AcDbPoint
 10
1473.177417684981
 20
430.0682667374097
 30
0.0
  0
POINT
  5
322
330
317
100
AcDbEntity
  8
Defpoints
 62
     0
100
AcDbPoint
 10
1428.378061691888
 20
503.6154165583498
 30
0.0
  0
POINT
  5
323
330
317
100
AcDbEntity
  8
Defpoints
 62
     0
100
AcDbPoint
 10
266.3780616918853
 20
401.0372583672101
 30
0.0
  0
POINT
  5
324
330
317
100
AcDbEntity
  8
Defpoints
 62
     0
100
AcDbPoint
 10
1427.465217434636
 20
502.6192218602605
 30
0.0
  0
POINT
  5
325
330
317
100
AcDbEntity
  8
Defpoints
 62
     0
100
AcDbPoint
 10
1428.378061691888
 20
582.6990853843345
 30
0.0
  0
ENDBLK
  5
319
330
317
100
AcDbEntity
  8
0
100
AcDbBlockEnd
  0
BLOCK
  5
327
330
326
100
AcDbEntity
  8
0
100
AcDbBlockBegin
  2
*D14
 70
     1
 10
0.0
 20
0.0
 30
0.0
  3
*D14
  1
*D14
  0
LINE
  5
329
330
326
100
AcDbEntity
  8
0 ... Seuil ... Rectangle ... Cotes Angles
 62
     0
370
    -2
100
AcDbLine
 10
279.7470591941678
 20
958.6335077409092
 30
0.0
 11
279.7470591941539
 21
1009.820690067256
 31
0.0
  0
LINE
  5
32A
330
326
100
AcDbEntity
  8
0 ... Seuil ... Rectangle ... Cotes Angles
 62
     0
370
    -2
100
AcDbLine
 10
284.766158381885
 20
958.6335077409105
 30
0.0
 11
284.766158381871
 21
1009.820690067258
 31
0.0
  0
LINE
  5
32B
330
326
100
AcDbEntity
  8
0 ... Seuil ... Rectangle ... Cotes Angles
 62
     0
370
    -2
100
AcDbLine
 10
259.7470591941621
 20
979.8206900672509
 30
0.0
 11
299.7470591941512
 21
1019.820690067262
 31
0.0
  0
LINE
  5
32C
330
326
100
AcDbEntity
  8
0 ... Seuil ... Rectangle ... Cotes Angles
 62
     0
370
    -2
100
AcDbLine
 10
304.7661583818683
 20
1019.820690067263
 30
0.0
 11
264.7661583818792
 21
979.8206900672523
 31
0.0
  0
MTEXT
  5
32D
330
326
100
AcDbEntity
  8
0 ... Seuil ... Rectangle ... Cotes Angles
 62
     0
100
AcDbMText
 10
289.2105523193222
 20
1023.715785812481
 30
0.0
 40
20.0
 41
0.0
 46
0.0
 71
     5
 72
     1
  1
\A1;5.0191
  7
QCADDimTextStyle
 73
     1
 44
1.0
  0
POINT
  5
32E
330
326
100
AcDbEntity
  8
Defpoints
 62
     0
100
AcDbPoint
 10
279.7470591941692
 20
953.6335077409092
 30
0.0
  0
POINT
  5
32F
330
326
100
AcDbEntity
  8
Defpoints
 62
     0
100
AcDbPoint
 10
284.7661583818863
 20
953.6335077409105
 30
0.0
  0
POINT
  5
330
330
326
100
AcDbEntity
  8
Defpoints
 62
     0
100
AcDbPoint
 10
284.7661583818738
 20
999.8206900672577
 30
0.0
  0
ENDBLK
  5
328
330
326
100
AcDbEntity
  8
0
100
AcDbBlockEnd
  0
BLOCK
  5
332
330
331
100
AcDbEntity
  8
0
100
AcDbBlockBegin
  2
*D15
 70
     1
 10
0.0
 20
0.0
 30
0.0
  3
*D15
  1
*D15
  0
LINE
  5
334
330
331
100
AcDbEntity
  8
0 ... Seuil ... Rectangle ... Cotes Angles
 62
     0
370
    -2
100
AcDbLine
 10
243.4189244815607
 20
1202.63350774091
 30
0.0
 11
243.4189244815607
 21
1293.715785812481
 31
0.0
  0
LINE
  5
335
330
331
100
AcDbEntity
  8
0 ... Seuil ... Rectangle ... Cotes Angles
 62
     0
370
    -2
100
AcDbLine
 10
263.4189244815602
 20
1202.63350774091
 30
0.0
 11
263.4189244815602
 21
1293.715785812481
 31
0.0
  0
LINE
  5
336
330
331
100
AcDbEntity
  8
0 ... Seuil ... Rectangle ... Cotes Angles
 62
     0
370
    -2
100
AcDbLine
 10
243.4189244815607
 20
1283.715785812481
 30
0.0
 11
263.4189244815602
 21
1283.715785812481
 31
0.0
  0
LINE
  5
337
330
331
100
AcDbEntity
  8
0 ... Seuil ... Rectangle ... Cotes Angles
 62
     0
370
    -2
100
AcDbLine
 10
263.4189244815607
 20
1303.715785812481
 30
0.0
 11
223.4189244815607
 21
1263.715785812481
 31
0.0
  0
LINE
  5
338
330
331
100
AcDbEntity
  8
0 ... Seuil ... Rectangle ... Cotes Angles
 62
     0
370
    -2
100
AcDbLine
 10
243.4189244815602
 20
1263.715785812481
 30
0.0
 11
283.4189244815602
 21
1303.715785812481
 31
0.0
  0
MTEXT
  5
339
330
331
100
AcDbEntity
  8
0 ... Seuil ... Rectangle ... Cotes Angles
 62
     0
100
AcDbMText
 10
289.2105523193222
 20
1298.715785812482
 30
0.0
 40
20.0
 41
0.0
 46
0.0
 71
     5
 72
     1
  1
\A1;20
  7
QCADDimTextStyle
 73
     1
 44
1.0
  0
POINT
  5
33A
330
331
100
AcDbEntity
  8
Defpoints
 62
     0
100
AcDbPoint
 10
243.4189244815607
 20
1197.63350774091
 30
0.0
  0
POINT
  5
33B
330
331
100
AcDbEntity
  8
Defpoints
 62
     0
100
AcDbPoint
 10
263.4189244815602
 20
1197.63350774091
 30
0.0
  0
POINT
  5
33C
330
331
100
AcDbEntity
  8
Defpoints
 62
     0
100
AcDbPoint
 10
263.4189244815602
 20
1283.715785812481
 30
0.0
  0
ENDBLK
  5
333
330
331
100
AcDbEntity
  8
0
100
AcDbBlockEnd
  0
BLOCK
  5
33E
330
33D
100
AcDbEntity
  8
0
100
AcDbBlockBegin
  2
*D16
 70
     1
 10
0.0
 20
0.0
 30
0.0
  3
*D16
  1
*D16
  0
LINE
  5
340
330
33D
100
AcDbEntity
  8
0 ... Seuil ... Rectangle ... Cotes Angles
 62
     0
370
    -2
100
AcDbLine
 10
215.3276605290152
 20
1178.633507740907
 30
0.0
 11
215.3276605290152
 21
1253.715785812482
 31
0.0
  0
LINE
  5
341
330
33D
100
AcDbEntity
  8
0 ... Seuil ... Rectangle ... Cotes Angles
 62
     0
370
    -2
100
AcDbLine
 10
243.4189244815607
 20
1202.63350774091
 30
0.0
 11
243.4189244815607
 21
1253.715785812482
 31
0.0
  0
LINE
  5
342
330
33D
100
AcDbEntity
  8
0 ... Seuil ... Rectangle ... Cotes Angles
 62
     0
370
    -2
100
AcDbLine
 10
215.3276605290152
 20
1243.715785812482
 30
0.0
 11
243.4189244815607
 21
1243.715785812482
 31
0.0
  0
LINE
  5
343
330
33D
100
AcDbEntity
  8
0 ... Seuil ... Rectangle ... Cotes Angles
 62
     0
370
    -2
100
AcDbLine
 10
235.3276605290152
 20
1263.715785812482
 30
0.0
 11
195.3276605290152
 21
1223.715785812482
 31
0.0
  0
LINE
  5
344
330
33D
100
AcDbEntity
  8
0 ... Seuil ... Rectangle ... Cotes Angles
 62
     0
370
    -2
100
AcDbLine
 10
223.4189244815607
 20
1223.715785812482
 30
0.0
 11
263.4189244815607
 21
1263.715785812482
 31
0.0
  0
MTEXT
  5
345
330
33D
100
AcDbEntity
  8
0 ... Seuil ... Rectangle ... Cotes Angles
 62
     0
100
AcDbMText
 10
189.2105523193222
 20
1258.715785812481
 30
0.0
 40
20.0
 41
0.0
 46
0.0
 71
     5
 72
     1
  1
\A1;28.0913
  7
QCADDimTextStyle
 73
     1
 44
1.0
  0
POINT
  5
346
330
33D
100
AcDbEntity
  8
Defpoints
 62
     0
100
AcDbPoint
 10
215.3276605290152
 20
1173.633507740907
 30
0.0
  0
POINT
  5
347
330
33D
100
AcDbEntity
  8
Defpoints
 62
     0
100
AcDbPoint
 10
243.4189244815607
 20
1197.63350774091
 30
0.0
  0
POINT
  5
348
330
33D
100
AcDbEntity
  8
Defpoints
 62
     0
100
AcDbPoint
 10
243.4189244815607
 20
1243.715785812482
 30
0.0
  0
ENDBLK
  5
33F
330
33D
100
AcDbEntity
  8
0
100
AcDbBlockEnd
  0
ENDSEC
  0
SECTION
  2
ENTITIES
  0
LINE
  5
37
330
1B8
100
AcDbEntity
  8
0 ... Seuil ... Rectangle
100
AcDbLine
 10
243.4189244815602
 20
1197.633507740909
 30
0.0
 11
263.4189244815602
 21
1197.633507740909
 31
0.0
  0
LINE
  5
38
330
1B8
100
AcDbEntity
  8
0 ... Seuil ... Rectangle
100
AcDbLine
 10
288.9656142311301
 20
905.633507740909
 30
0.0
 11
263.4189244815602
 21
1197.633507740909
 31
0.0
  0
LINE
  5
39
330
1B8
100
AcDbEntity
  8
0 ... Seuil ... Rectangle
100
AcDbLine
 10
287.4598844748152
 20
905.633507740909
 30
0.0
 11
299.4598844748152
 21
905.633507740909
 31
0.0
  0
LINE
  5
3A
330
1B8
100
AcDbEntity
  8
0 ... Seuil ... Rectangle
100
AcDbLine
 10
243.4189244815602
 20
1196.133507740909
 30
0.0
 11
263.5501574768491
 21
1196.133507740909
 31
0.0
  0
LINE
  5
3B
330
1B8
100
AcDbEntity
  8
0 ... Seuil ... Rectangle
100
AcDbLine
 10
288.8343812358412
 20
907.133507740909
 30
0.0
 11
295.8385641312552
 21
907.133507740909
 31
0.0
  0
LINE
  5
3C
330
1B8
100
AcDbEntity
  8
0 ... Seuil ... Rectangle
100
AcDbLine
 10
243.4189244815602
 20
1173.633507740909
 30
0.0
 11
243.4189244815602
 21
1197.633507740909
 31
0.0
  0
LINE
  5
3D
330
1B8
100
AcDbEntity
  8
0 ... Seuil ... Rectangle
100
AcDbLine
 10
292.3888166629504
 20
912.7045755527752
 30
0.0
 11
299.4598844748152
 21
905.633507740909
 31
0.0
  0
LINE
  5
3E
330
1B8
100
AcDbEntity
  8
0 ... Seuil ... Rectangle
100
AcDbLine
 10
291.3281564911704
 20
911.6439153809952
 30
0.0
 11
295.8385641312552
 21
907.133507740909
 31
0.0
  0
LINE
  5
3F
330
1B8
100
AcDbEntity
  8
0 ... Seuil ... Rectangle
100
AcDbLine
 10
291.3281564911704
 20
911.6439153809952
 30
0.0
 11
292.3888166629504
 21
912.7045755527752
 31
0.0
  0
LINE
  5
40
330
1B8
100
AcDbEntity
  8
0 ... Seuil ... Rectangle
100
AcDbLine
 10
234.5751665047183
 20
953.633507740909
 30
0.0
 11
284.7661583818863
 21
953.633507740909
 31
0.0
  0
LINE
  5
41
330
1B8
100
AcDbEntity
  8
0 ... Seuil ... Rectangle
100
AcDbLine
 10
234.5751665047183
 20
953.6335077409099
 30
0.0
 11
215.3276605290152
 21
1173.633507740909
 31
0.0
  0
LINE
  5
42
330
1B8
100
AcDbEntity
  8
0 ... Seuil ... Rectangle
100
AcDbLine
 10
215.3276605290152
 20
1173.633507740909
 30
0.0
 11
243.4189244815602
 21
1173.633507740909
 31
0.0
  0
DIMENSION
  5
44
330
1B8
100
AcDbEntity
  8
0 ... Seuil ... Rectangle ... Cotes Angles
100
AcDbDimension
280
     0
  2
*D1
 10
185.0294802871855
 20
949.2988218702627
 30
0.0
 11
190.3486477707092
 21
1060.606158011479
 31
0.0
 70
   161
 71
     5
 42
220.8403642595338
 73
     0
 74
     0
 75
     0
  3
QCADDimStyle
100
AcDbAlignedDimension
 13
215.3276605290152
 23
1173.633507740907
 33
0.0
 14
234.5751665047183
 24
953.6335077409095
 34
0.0
1001
ACAD
1000
DSTYLE
1002
{
1070
   279
1070
     2
1070
    41
1040
20.0
1070
    79
1070
     2
1070
   176
1070
     0
1070
   177
1070
     0
1070
   178
1070
     0
1070
    44
1040
10.0
1070
    42
1040
5.0
1070
   147
1040
5.0
1070
   142
1040
20.0
1070
   140
1040
20.0
1070
    78
1070
     8
1002
}
  0
DIMENSION
  5
45
330
1B8
100
AcDbEntity
  8
0 ... Seuil ... Rectangle ... Cotes Angles
100
AcDbDimension
280
     0
  2
*D2
 10
131.0533819912753
 20
1173.633507740907
 30
0.0
 11
103.5533819912753
 21
1185.633507740908
 31
0.0
 70
    32
 71
     5
 42
24.00000000000318
 73
     0
 74
     0
 75
     0
  3
QCADDimStyle
100
AcDbAlignedDimension
 13
243.4189244815607
 23
1197.63350774091
 33
0.0
 14
215.3276605290152
 24
1173.633507740907
 34
0.0
 50
90.0
100
AcDbRotatedDimension
1001
ACAD
1000
DSTYLE
1002
{
1070
   279
1070
     2
1070
    41
1040
20.0
1070
    79
1070
     2
1070
   176
1070
     0
1070
   177
1070
     0
1070
   178
1070
     0
1070
    44
1040
10.0
1070
    42
1040
5.0
1070
   147
1040
5.0
1070
   142
1040
20.0
1070
   140
1040
20.0
1070
    78
1070
     8
1002
}
  0
DIMENSION
  5
46
330
1B8
100
AcDbEntity
  8
0 ... Seuil ... Rectangle ... Cotes Angles
100
AcDbDimension
280
     0
  2
*D3
 10
131.0533819912753
 20
953.6335077409095
 30
0.0
 11
116.0533819912753
 21
1063.633507740914
 31
0.0
 70
   160
 71
     5
 42
219.9999999999974
 73
     0
 74
     0
 75
     0
  3
QCADDimStyle
100
AcDbAlignedDimension
 13
215.3276605290152
 23
1173.633507740907
 33
0.0
 14
234.5751665047183
 24
953.6335077409095
 34
0.0
 50
90.0
100
AcDbRotatedDimension
1001
ACAD
1000
DSTYLE
1002
{
1070
   279
1070
     2
1070
    41
1040
20.0
1070
    79
1070
     2
1070
   176
1070
     0
1070
   177
1070
     0
1070
   178
1070
     0
1070
    44
1040
10.0
1070
    42
1040
5.0
1070
   147
1040
5.0
1070
   142
1040
20.0
1070
   140
1040
20.0
1070
    78
1070
     8
1002
}
  0
DIMENSION
  5
47
330
1B8
100
AcDbEntity
  8
0 ... Seuil ... Rectangle ... Cotes Angles
100
AcDbDimension
280
     0
  2
*D4
 10
299.2105523193222
 20
1196.13350774091
 30
0.0
 11
326.7105523193222
 21
1196.88350774091
 31
0.0
 70
    32
 71
     5
 42
1.5
 73
     0
 74
     0
 75
     0
  3
QCADDimStyle
100
AcDbAlignedDimension
 13
263.4189244815602
 23
1197.63350774091
 33
0.0
 14
263.5501574768491
 24
1196.13350774091
 34
0.0
 50
90.0
100
AcDbRotatedDimension
1001
ACAD
1000
DSTYLE
1002
{
1070
   279
1070
     2
1070
    41
1040
20.0
1070
    79
1070
     2
1070
   176
1070
     0
1070
   177
1070
     0
1070
   178
1070
     0
1070
    44
1040
10.0
1070
    42
1040
5.0
1070
   147
1040
5.0
1070
   142
1040
20.0
1070
   140
1040
20.0
1070
    78
1070
     8
1002
}
  0
DIMENSION
  5
48
330
1B8
100
AcDbEntity
  8
0 ... Seuil ... Rectangle ... Cotes Angles
100
AcDbDimension
280
     0
  2
*D5
 10
271.4405686788931
 20
1105.945695011235
 30
0.0
 11
245.2283650853992
 21
1118.709721913774
 31
0.0
 70
   161
 71
     5
 42
50.00000000000176
 73
     0
 74
     0
 75
     0
  3
QCADDimStyle
100
AcDbAlignedDimension
 13
221.584167109831
 23
1102.121310289572
 33
0.0
 14
271.393902014418
 24
1106.479097426978
 34
0.0
1001
ACAD
1000
DSTYLE
1002
{
1070
   279
1070
     2
1070
    41
1040
20.0
1070
    79
1070
     2
1070
   176
1070
     0
1070
   177
1070
     0
1070
   178
1070
     0
1070
    44
1040
10.0
1070
    42
1040
5.0
1070
   147
1040
5.0
1070
   142
1040
20.0
1070
   140
1040
20.0
1070
    78
1070
     8
1002
}
  0
LINE
  5
49
330
1B8
100
AcDbEntity
  8
0 ... Seuil ... Rectangle
100
AcDbLine
 10
460.501255666652
 20
1197.633507740909
 30
0.0
 11
2863.601255666652
 21
1197.633507740909
 31
0.0
  0
LINE
  5
4A
330
1B8
100
AcDbEntity
  8
0 ... Seuil ... Rectangle
100
AcDbLine
 10
460.501255666652
 20
905.633507740909
 30
0.0
 11
2863.601255666652
 21
905.633507740909
 31
0.0
  0
LINE
  5
4B
330
1B8
100
AcDbEntity
  8
0 ... Seuil ... Rectangle
100
AcDbLine
 10
460.501255666652
 20
1196.133507740909
 30
0.0
 11
2863.601255666652
 21
1196.133507740909
 31
0.0
  0
LINE
  5
4C
330
1B8
100
AcDbEntity
  8
0 ... Seuil ... Rectangle
100
AcDbLine
 10
460.501255666652
 20
1197.633507740909
 30
0.0
 11
460.501255666652
 21
905.633507740909
 31
0.0
  0
LINE
  5
4D
330
1B8
100
AcDbEntity
  8
0 ... Seuil ... Rectangle
100
AcDbLine
 10
2863.601255666652
 20
1197.633507740909
 30
0.0
 11
2863.601255666652
 21
905.633507740909
 31
0.0
  0
LINE
  5
4E
330
1B8
100
AcDbEntity
  8
0 ... Seuil ... Rectangle
100
AcDbLine
 10
459.001255666652
 20
953.633507740909
 30
0.0
 11
462.001255666652
 21
953.633507740909
 31
0.0
  0
LINE
  5
4F
330
1B8
100
AcDbEntity
  8
0 ... Seuil ... Rectangle
100
AcDbLine
 10
2862.101255666652
 20
953.633507740909
 30
0.0
 11
2865.101255666652
 21
953.633507740909
 31
0.0
  0
DIMENSION
  5
50
330
1B8
100
AcDbEntity
  8
0 ... Seuil ... Rectangle ... Cotes Angles
100
AcDbDimension
280
     0
  2
*D6
 10
403.0946898572843
 20
905.6335077409091
 30
0.0
 11
388.0946898572843
 21
1051.633507740909
 31
0.0
 70
   160
 71
     5
 42
292.000000000001
 73
     0
 74
     0
 75
     0
  3
QCADDimStyle
100
AcDbAlignedDimension
 13
263.4189244815602
 23
1197.63350774091
 33
0.0
 14
299.4598844748152
 24
905.6335077409091
 34
0.0
 50
90.0
100
AcDbRotatedDimension
1001
ACAD
1000
DSTYLE
1002
{
1070
   279
1070
     2
1070
    41
1040
20.0
1070
    79
1070
     2
1070
   176
1070
     0
1070
   177
1070
     0
1070
   178
1070
     0
1070
    44
1040
10.0
1070
    42
1040
5.0
1070
   147
1040
5.0
1070
   142
1040
20.0
1070
   140
1040
20.0
1070
    78
1070
     8
1002
}
  0
DIMENSION
  5
51
330
1B8
100
AcDbEntity
  8
0 ... Seuil ... Rectangle ... Cotes Angles
100
AcDbDimension
280
     0
  2
*D7
 10
340.8496393565891
 20
947.0232626226754
 30
0.0
 11
354.4168557843254
 21
968.2566231025542
 31
0.0
 70
   161
 71
     5
 42
10.00000000000044
 73
     0
 74
     0
 75
     0
  3
QCADDimStyle
100
AcDbAlignedDimension
 13
292.3888166629501
 23
912.7045755527755
 33
0.0
 14
299.4598844748152
 24
905.6335077409091
 34
0.0
1001
ACAD
1000
DSTYLE
1002
{
1070
   279
1070
     2
1070
    41
1040
20.0
1070
    79
1070
     2
1070
   176
1070
     0
1070
   177
1070
     0
1070
   178
1070
     0
1070
    44
1040
10.0
1070
    42
1040
5.0
1070
   147
1040
5.0
1070
   142
1040
20.0
1070
   140
1040
20.0
1070
    78
1070
     8
1002
}
  0
DIMENSION
  5
52
330
1B8
100
AcDbEntity
  8
0 ... Seuil ... Rectangle ... Cotes Angles
100
AcDbDimension
280
     0
  2
*D8
 10
299.4598844748152
 20
868.7695603072978
 30
0.0
 11
293.3426901029409
 21
841.5113115272088
 31
0.0
 70
   161
 71
     5
 42
12.0
 73
     0
 74
     0
 75
     0
  3
QCADDimStyle
100
AcDbAlignedDimension
 13
287.4598844748152
 23
905.6335077409091
 33
0.0
 14
299.4598844748152
 24
905.6335077409091
 34
0.0
1001
ACAD
1000
DSTYLE
1002
{
1070
   279
1070
     2
1070
    41
1040
20.0
1070
    79
1070
     2
1070
   176
1070
     0
1070
   177
1070
     0
1070
   178
1070
     0
1070
    44
1040
10.0
1070
    42
1040
5.0
1070
   147
1040
5.0
1070
   142
1040
20.0
1070
   140
1040
20.0
1070
    78
1070
     8
1002
}
  0
DIMENSION
  5
53
330
1B8
100
AcDbEntity
  8
0 ... Seuil ... Rectangle ... Cotes Angles
100
AcDbDimension
280
     0
  2
*D9
 10
438.3914282194701
 20
953.6335077409082
 30
0.0
 11
423.3914282194701
 21
1075.633507740903
 31
0.0
 70
   161
 71
     5
 42
244.0000000000008
 73
     0
 74
     0
 75
     0
  3
QCADDimStyle
100
AcDbAlignedDimension
 13
460.501255666652
 23
1197.633507740909
 33
0.0
 14
460.501255666652
 24
953.6335077409082
 34
0.0
1001
ACAD
1000
DSTYLE
1002
{
1070
   279
1070
     2
1070
    41
1040
20.0
1070
    79
1070
     2
1070
   176
1070
     0
1070
   177
1070
     0
1070
   178
1070
     0
1070
    44
1040
10.0
1070
    42
1040
5.0
1070
   147
1040
5.0
1070
   142
1040
20.0
1070
   140
1040
20.0
1070
    78
1070
     8
1002
}
  0
DIMENSION
  5
54
330
1B8
100
AcDbEntity
  8
0 ... Seuil ... Rectangle ... Cotes Angles
100
AcDbDimension
280
     0
  2
*D10
 10
2863.601255666652
 20
1247.653630083716
 30
0.0
 11
1662.051255666653
 21
1262.653630083716
 31
0.0
 70
   161
 71
     5
 42
2403.1
 73
     0
 74
     0
 75
     0
  3
QCADDimStyle
100
AcDbAlignedDimension
 13
460.501255666652
 23
1197.633507740909
 33
0.0
 14
2863.601255666652
 24
1197.63350774091
 34
0.0
1001
ACAD
1000
DSTYLE
1002
{
1070
   279
1070
     2
1070
    41
1040
20.0
1070
    79
1070
     2
1070
   176
1070
     0
1070
   177
1070
     0
1070
   178
1070
     0
1070
    44
1040
10.0
1070
    42
1040
5.0
1070
   147
1040
5.0
1070
   142
1040
20.0
1070
   140
1040
20.0
1070
    78
1070
     8
1002
}
  0
LINE
  5
55
330
1B8
100
AcDbEntity
  8
0 ... Seuil ... Rectangle ... Cotes Angles
100
AcDbLine
 10
455.501255666652
 20
1197.633507740909
 30
0.0
 11
363.9290868454623
 21
1197.633507740909
 31
0.0
  0
LINE
  5
56
330
1B8
100
AcDbEntity
  8
0 ... Seuil ... Rectangle ... Cotes Angles
100
AcDbLine
 10
363.9290868454623
 20
905.633507740909
 30
0.0
 11
455.501255666652
 21
905.633507740909
 31
0.0
  0
LINE
  5
57
330
1B8
100
AcDbEntity
  8
0 ... Seuil ... Rectangle
100
AcDbLine
 10
462.001255666652
 20
1196.133507740909
 30
0.0
 11
462.001255666652
 21
905.633507740909
 31
0.0
  0
LINE
  5
58
330
1B8
100
AcDbEntity
  8
0 ... Seuil ... Rectangle
100
AcDbLine
 10
2862.101255666652
 20
1196.133507740909
 30
0.0
 11
2862.101255666652
 21
905.633507740909
 31
0.0
  0
DIMENSION
  5
59
330
1B8
100
AcDbEntity
  8
0 ... Seuil ... Rectangle ... Cotes Angles
100
AcDbDimension
280
     0
  2
*D11
 10
90.16262088048866
 20
953.6335077409095
 30
0.0
 11
75.16262088048825
 21
1075.633507740911
 31
0.0
 70
   160
 71
     5
 42
244.0000000000006
 73
     0
 74
     0
 75
     0
  3
QCADDimStyle
100
AcDbAlignedDimension
 13
243.4189244815607
 23
1197.63350774091
 33
0.0
 14
234.5751665047183
 24
953.6335077409095
 34
0.0
 50
90.0
100
AcDbRotatedDimension
1001
ACAD
1000
DSTYLE
1002
{
1070
   279
1070
     2
1070
    41
1040
20.0
1070
    79
1070
     2
1070
   176
1070
     0
1070
   177
1070
     0
1070
   178
1070
     0
1070
    44
1040
10.0
1070
    42
1040
5.0
1070
   147
1040
5.0
1070
   142
1040
20.0
1070
   140
1040
20.0
1070
    78
1070
     8
1002
}
  0
MTEXT
  5
5A
330
1B8
100
AcDbEntity
  8
0 ... Seuil ... Rectangle ... Cotes Angles
100
AcDbMText
 10
329.2105523193216
 20
1753.715785812481
 30
0.0
 40
100.0
 41
0.0
 46
0.0
 71
     1
 72
     1
  1
(Acier - RAL 7016 - paisseur 15/10e)
  7
textstyle11
 73
     1
 44
1.0
  0
MTEXT
  5
5B
330
1B8
100
AcDbEntity
  8
0 ... Seuil ... Rectangle ... Cotes Angles
100
AcDbMText
 10
789.6977409265492
 20
801.5144164797803
 30
0.0
 40
50.0
 41
0.0
 46
0.0
 71
     1
 72
     1
  1
Relevs
  7
textstyle12
 73
     1
 44
1.0
  0
LEADER
  5
5C
330
1B8
100
AcDbEntity
  8
0 ... Seuil ... Rectangle ... Cotes Angles
100
AcDbLeader
  3
QCADDimStyle
 76
     2
 10
844.71452734797
 20
659.1993847103931
 30
0.0
 10
910.3704935881724
 20
726.047617920608
 30
0.0
  0
LEADER
  5
5D
330
1B8
100
AcDbEntity
  8
0 ... Seuil ... Rectangle ... Cotes Angles
100
AcDbLeader
  3
QCADDimStyle
 76
     4
 10
1434.704498505156
 20
562.923668952732
 30
0.0
 10
1531.656637417105
 20
682.0773960627339
 30
0.0
 10
1356.330438955243
 20
735.9802726124981
 30
0.0
 10
910.3704935881724
 20
726.047617920608
 30
0.0
  0
LEADER
  5
5E
330
1B8
100
AcDbEntity
  8
0 ... Seuil ... Rectangle ... Cotes Angles
100
AcDbLeader
  3
QCADDimStyle
 76
     2
 10
1706.727682302318
 20
1196.133507740909
 30
0.0
 10
876.3071450923803
 20
834.7673006417658
 30
0.0
  0
LEADER
  5
5F
330
1B8
100
AcDbEntity
  8
0 ... Seuil ... Rectangle ... Cotes Angles
100
AcDbLeader
  3
QCADDimStyle
 76
     2
 10
2862.101255666652
 20
1116.213544254087
 30
0.0
 10
876.3071450923803
 20
834.7673006417658
 30
0.0
  0
LEADER
  5
60
330
1B8
100
AcDbEntity
  8
0 ... Seuil ... Rectangle ... Cotes Angles
100
AcDbLeader
  3
QCADDimStyle
 76
     2
 10
462.001255666652
 20
1161.540392040501
 30
0.0
 10
876.3071450923803
 20
834.7673006417658
 30
0.0
  0
LINE
  5
61
330
1B8
100
AcDbEntity
  8
0 ... Seuil ... Rectangle
100
AcDbLine
 10
2865.101255666652
 20
953.633507740909
 30
0.0
 11
2865.101255666652
 21
905.633507740909
 31
0.0
  0
LINE
  5
62
330
1B8
100
AcDbEntity
  8
0 ... Seuil ... Rectangle
100
AcDbLine
 10
2865.101255666652
 20
905.633507740909
 30
0.0
 11
2863.601255666652
 21
905.633507740909
 31
0.0
  0
LINE
  5
63
330
1B8
100
AcDbEntity
  8
0 ... Seuil ... Rectangle
100
AcDbLine
 10
459.001255666652
 20
953.633507740909
 30
0.0
 11
459.001255666652
 21
905.633507740909
 31
0.0
  0
LINE
  5
64
330
1B8
100
AcDbEntity
  8
0 ... Seuil ... Rectangle
100
AcDbLine
 10
459.001255666652
 20
905.633507740909
 30
0.0
 11
460.501255666652
 21
905.633507740909
 31
0.0
  0
LINE
  5
65
330
1B8
100
AcDbEntity
  8
0 ... Seuil ... Rectangle
100
AcDbLine
 10
287.4598844748152
 20
905.633507740909
 30
0.0
 11
279.7470591941692
 21
953.633507740909
 31
0.0
  0
LINE
  5
66
330
1B8
100
AcDbEntity
  8
0 ... Seuil ... Rectangle
100
AcDbLine
 10
461.501255666652
 20
1477.12491365372
 30
0.0
 11
2862.601255666652
 21
1477.12491365372
 31
0.0
  0
LINE
  5
67
330
1B8
100
AcDbEntity
  8
0 ... Seuil ... Rectangle
100
AcDbLine
 10
460.5012556666534
 20
1465.12491365372
 30
0.0
 11
2863.601255666652
 21
1465.12491365372
 31
0.0
  0
LINE
  5
68
330
1B8
100
AcDbEntity
  8
0 ... Seuil ... Rectangle
100
AcDbLine
 10
459.001255666652
 20
1477.12491365372
 30
0.0
 11
459.001255666652
 21
1483.837738934366
 31
0.0
  0
LINE
  5
69
330
1B8
100
AcDbEntity
  8
0 ... Seuil ... Rectangle
100
AcDbLine
 10
460.501255666652
 20
1478.12491365372
 30
0.0
 11
460.501255666652
 21
1549.257137599519
 31
0.0
  0
LINE
  5
6A
330
1B8
100
AcDbEntity
  8
0 ... Seuil ... Rectangle
100
AcDbLine
 10
462.001255666652
 20
1477.12491365372
 30
0.0
 11
462.001255666652
 21
1483.837738934366
 31
0.0
  0
LINE
  5
6B
330
1B8
100
AcDbEntity
  8
0 ... Seuil ... Rectangle
100
AcDbLine
 10
2863.601255666652
 20
1478.12491365372
 30
0.0
 11
2863.601255666652
 21
1549.257137599519
 31
0.0
  0
LINE
  5
6C
330
1B8
100
AcDbEntity
  8
0 ... Seuil ... Rectangle
100
AcDbLine
 10
2862.101255666652
 20
1477.12491365372
 30
0.0
 11
2862.101255666652
 21
1549.257137599519
 31
0.0
  0
LINE
  5
6D
330
1B8
100
AcDbEntity
  8
0 ... Seuil ... Rectangle
100
AcDbLine
 10
2865.101255666652
 20
1477.12491365372
 30
0.0
 11
2865.101255666652
 21
1483.837738934366
 31
0.0
  0
LINE
  5
6E
330
1B8
100
AcDbEntity
  8
0 ... Seuil ... Rectangle
100
AcDbLine
 10
460.0012556666534
 20
1484.837738934366
 30
0.0
 11
460.5012556666534
 21
1484.837738934366
 31
0.0
  0
LINE
  5
6F
330
1B8
100
AcDbEntity
  8
0 ... Seuil ... Rectangle
100
AcDbLine
 10
460.5012556666534
 20
1477.12491365372
 30
0.0
 11
459.001255666652
 21
1477.12491365372
 31
0.0
  0
LINE
  5
70
330
1B8
100
AcDbEntity
  8
0 ... Seuil ... Rectangle
100
AcDbLine
 10
2864.101255666652
 20
1484.837738934366
 30
0.0
 11
2863.601255666652
 21
1484.837738934366
 31
0.0
  0
LINE
  5
71
330
1B8
100
AcDbEntity
  8
0 ... Seuil ... Rectangle
100
AcDbLine
 10
2863.601255666652
 20
1477.12491365372
 30
0.0
 11
2865.101255666652
 21
1477.12491365372
 31
0.0
  0
LINE
  5
72
330
1B8
100
AcDbEntity
  8
0 ... Seuil ... Rectangle
100
AcDbLine
 10
270.0770102458914
 20
1104.320669349832
 30
0.0
 11
269.9462766317693
 21
1105.814961396969
 31
0.0
  0
LINE
  5
73
330
1B8
100
AcDbEntity
  8
0 ... Seuil ... Rectangle
100
AcDbLine
 10
1624.596101962326
 20
590.9523751151391
 30
0.0
 11
2011.596101962326
 21
590.9523751151391
 31
0.0
  0
LINE
  5
74
330
1B8
100
AcDbEntity
  8
0 ... Seuil ... Rectangle
100
AcDbLine
 10
2014.596101962326
 20
593.9523751151391
 30
0.0
 11
2014.596101962326
 21
890.9523751151391
 31
0.0
  0
LINE
  5
75
330
1B8
100
AcDbEntity
  8
0 ... Seuil ... Rectangle
100
AcDbLine
 10
1624.596101962326
 20
595.4523751151391
 30
0.0
 11
2007.096101962326
 21
595.4523751151391
 31
0.0
  0
LINE
  5
76
330
1B8
100
AcDbEntity
  8
0 ... Seuil ... Rectangle
100
AcDbLine
 10
2010.096101962326
 20
598.4523751151391
 30
0.0
 11
2010.096101962326
 21
890.9523751151391
 31
0.0
  0
ARC
  5
77
330
1B8
100
AcDbEntity
  8
0 ... Seuil ... Rectangle
100
AcDbCircle
 10
2007.096101962326
 20
598.4523751151391
 30
0.0
 40
3.0
100
AcDbArc
 50
270.0
 51
0.0
  0
ARC
  5
78
330
1B8
100
AcDbEntity
  8
0 ... Seuil ... Rectangle
100
AcDbCircle
 10
2011.596101962326
 20
593.9523751151391
 30
0.0
 40
3.0
100
AcDbArc
 50
270.0
 51
0.0
  0
LINE
  5
79
330
1B8
100
AcDbEntity
  8
0 ... Seuil ... Rectangle
100
AcDbLine
 10
2201.08081258894
 20
489.2977686320428
 30
0.0
 11
2618.08081258894
 21
489.2977686320428
 31
0.0
  0
LINE
  5
7A
330
1B8
100
AcDbEntity
  8
0 ... Seuil ... Rectangle
100
AcDbLine
 10
2621.08081258894
 20
492.2977686320428
 30
0.0
 11
2621.08081258894
 21
789.2977686320428
 31
0.0
  0
LINE
  5
7B
330
1B8
100
AcDbEntity
  8
0 ... Seuil ... Rectangle
100
AcDbLine
 10
2616.58081258894
 20
496.7977686320428
 30
0.0
 11
2616.58081258894
 21
789.2977686320428
 31
0.0
  0
LINE
  5
7C
330
1B8
100
AcDbEntity
  8
0 ... Seuil ... Rectangle
100
AcDbLine
 10
2201.08081258894
 20
493.7977686320428
 30
0.0
 11
2613.58081258894
 21
493.7977686320428
 31
0.0
  0
LINE
  5
7D
330
1B8
100
AcDbEntity
  8
0 ... Seuil ... Rectangle
100
AcDbLine
 10
2613.58081258894
 20
789.2977686320428
 30
0.0
 11
2201.08081258894
 21
789.2977686320428
 31
0.0
  0
ARC
  5
7E
330
1B8
100
AcDbEntity
  8
0 ... Seuil ... Rectangle
100
AcDbCircle
 10
2613.58081258894
 20
496.7977686320428
 30
0.0
 40
3.0
100
AcDbArc
 50
270.0
 51
0.0
  0
ARC
  5
7F
330
1B8
100
AcDbEntity
  8
0 ... Seuil ... Rectangle
100
AcDbCircle
 10
2618.08081258894
 20
492.2977686320428
 30
0.0
 40
3.0
100
AcDbArc
 50
270.0
 51
0.0
  0
LINE
  5
80
330
1B8
100
AcDbEntity
  8
0 ... Seuil ... Rectangle
100
AcDbLine
 10
2613.58081258894
 20
493.7977686320428
 30
0.0
 11
2613.58081258894
 21
789.2977686320428
 31
0.0
  0
LINE
  5
81
330
1B8
100
AcDbEntity
  8
0 ... Seuil ... Rectangle
100
AcDbLine
 10
2616.58081258894
 20
789.2977686320428
 30
0.0
 11
2621.08081258894
 21
789.2977686320428
 31
0.0
  0
LINE
  5
82
330
1B8
100
AcDbEntity
  8
0 ... Seuil ... Rectangle
100
AcDbLine
 10
1597.75928585079
 20
297.562933932848
 30
0.0
 11
2014.75928585079
 21
297.562933932848
 31
0.0
  0
LINE
  5
83
330
1B8
100
AcDbEntity
  8
0 ... Seuil ... Rectangle
100
AcDbLine
 10
2017.75928585079
 20
297.562933932848
 30
0.0
 11
2017.75928585079
 21
447.562933932848
 31
0.0
  0
LINE
  5
84
330
1B8
100
AcDbEntity
  8
0 ... Seuil ... Rectangle
100
AcDbLine
 10
2022.25928585079
 20
297.562933932848
 30
0.0
 11
2022.25928585079
 21
447.562933932848
 31
0.0
  0
LINE
  5
85
330
1B8
100
AcDbEntity
  8
0 ... Seuil ... Rectangle
100
AcDbLine
 10
2013.25928585079
 20
305.062933932848
 30
0.0
 11
2013.25928585079
 21
447.562933932848
 31
0.0
  0
LINE
  5
86
330
1B8
100
AcDbEntity
  8
0 ... Seuil ... Rectangle
100
AcDbLine
 10
1597.75928585079
 20
302.062933932848
 30
0.0
 11
2010.25928585079
 21
302.062933932848
 31
0.0
  0
ARC
  5
87
330
1B8
100
AcDbEntity
  8
0 ... Seuil ... Rectangle
100
AcDbCircle
 10
2010.25928585079
 20
305.062933932848
 30
0.0
 40
3.0
100
AcDbArc
 50
270.0
 51
0.0
  0
ARC
  5
88
330
1B8
100
AcDbEntity
  8
0 ... Seuil ... Rectangle
100
AcDbCircle
 10
2017.75928585079
 20
447.562933932848
 30
0.0
 40
4.5
100
AcDbArc
 50
0.0
 51
180.0
  0
ARC
  5
89
330
1B8
100
AcDbEntity
  8
0 ... Seuil ... Rectangle
100
AcDbCircle
 10
2014.75928585079
 20
300.562933932848
 30
0.0
 40
3.0
100
AcDbArc
 50
270.0
 51
0.0
  0
LINE
  5
8A
330
1B8
100
AcDbEntity
  8
0 ... Seuil ... Rectangle
100
AcDbLine
 10
2017.75928585079
 20
297.562933932848
 30
0.0
 11
2022.25928585079
 21
297.562933932848
 31
0.0
  0
LINE
  5
8B
330
1B8
100
AcDbEntity
  8
0 ... Seuil ... Rectangle
100
AcDbLine
 10
2013.25928585079
 20
447.562933932848
 30
0.0
 11
2013.25928585079
 21
522.9855960246769
 31
0.0
  0
LINE
  5
8C
330
1B8
100
AcDbEntity
  8
0 ... Seuil ... Rectangle
100
AcDbLine
 10
2017.75928585079
 20
452.062933932848
 30
0.0
 11
2017.75928585079
 21
522.9855960246759
 31
0.0
  0
LINE
  5
8D
330
1B8
100
AcDbEntity
  8
0 ... Seuil ... Rectangle
100
AcDbLine
 10
2013.25928585079
 20
522.9855960246769
 30
0.0
 11
2017.75928585079
 21
522.9855960246769
 31
0.0
  0
LINE
  5
8E
330
1B8
100
AcDbEntity
  8
0 ... Seuil ... Rectangle
100
AcDbLine
 10
1428.378061691888
 20
582.699085384334
 30
0.0
 11
1428.378061691888
 21
503.6154165583512
 31
0.0
  0
LINE
  5
8F
330
1B8
100
AcDbEntity
  8
0 ... Seuil ... Rectangle
100
AcDbLine
 10
260.3780616918863
 20
400.5123263860546
 30
0.0
 11
1427.465217434636
 21
502.61922186026
 31
0.0
  0
LINE
  5
90
330
1B8
100
AcDbEntity
  8
0 ... Seuil ... Rectangle
100
AcDbLine
 10
260.3780616918862
 20
406.535245411314
 30
0.0
 11
260.3780616918862
 21
358.535245411314
 31
0.0
  0
LINE
  5
91
330
1B8
100
AcDbEntity
  8
0 ... Seuil ... Rectangle
100
AcDbLine
 10
1422.378061691888
 20
582.699085384334
 30
0.0
 11
1422.378061691888
 21
502.174153403178
 31
0.0
  0
LINE
  5
92
330
1B8
100
AcDbEntity
  8
0 ... Seuil ... Rectangle
100
AcDbLine
 10
266.3780616918862
 20
401.0372583672101
 30
0.0
 11
266.3780616918862
 21
373.0205267855517
 31
0.0
  0
LINE
  5
93
330
1B8
100
AcDbEntity
  8
0 ... Seuil ... Rectangle
100
AcDbLine
 10
1332.378061691887
 20
582.699085384334
 30
0.0
 11
1428.378061691888
 21
582.699085384334
 31
0.0
  0
LINE
  5
94
330
1B8
100
AcDbEntity
  8
0 ... Seuil ... Rectangle
100
AcDbLine
 10
288.6623329393483
 20
386.8195166587748
 30
0.0
 11
260.3780616918862
 21
358.535245411314
 31
0.0
  0
LINE
  5
95
330
1B8
100
AcDbEntity
  8
0 ... Seuil ... Rectangle
100
AcDbLine
 10
284.4196922522283
 20
391.0621573458948
 30
0.0
 11
266.3780616918853
 21
373.0205267855517
 31
0.0
  0
LINE
  5
96
330
1B8
100
AcDbEntity
  8
0 ... Seuil ... Rectangle
100
AcDbLine
 10
284.4196922522283
 20
391.0621573458948
 30
0.0
 11
288.6623329393483
 21
386.8195166587748
 31
0.0
  0
LINE
  5
97
330
1B8
100
AcDbEntity
  8
0 ... Seuil ... Rectangle
100
AcDbLine
 10
452.3780616918862
 20
618.0741172917001
 30
0.0
 11
452.3780616918862
 21
417.3101497830298
 31
0.0
  0
LINE
  5
98
330
1B8
100
AcDbEntity
  8
0 ... Seuil ... Rectangle
100
AcDbLine
 10
452.3780616918884
 20
618.0741172917019
 30
0.0
 11
1332.378061691887
 21
695.0641411945157
 31
0.0
  0
LINE
  5
99
330
1B8
100
AcDbEntity
  8
0 ... Seuil ... Rectangle
100
AcDbLine
 10
1332.378061691887
 20
695.0641411945157
 30
0.0
 11
1332.378061691887
 21
582.699085384334
 31
0.0
  0
LINE
  5
9A
330
1B8
100
AcDbEntity
  8
0 ... Seuil ... Rectangle
100
AcDbLine
 10
260.3780616918853
 20
406.535245411314
 30
0.0
 11
452.3780616918862
 21
449.4323845844187
 31
0.0
  0
DIMENSION
  5
9C
330
1B8
100
AcDbEntity
  8
0 ... Seuil ... Rectangle ... Cotes Angles
100
AcDbDimension
280
     0
  2
*D12
 10
260.3780616918859
 20
358.5352454113138
 30
0.0
 11
142.5752110444532
 21
514.4816698476774
 31
0.0
 70
   162
 71
     5
 42
1.65806278939462
 73
     0
 74
     0
 75
     0
  3
QCADDimStyle
100
AcDb2LineAngularDimension
 13
452.3780616918859
 23
423.333068808292
 33
0.0
 14
260.378061691885
 24
406.5352454113146
 34
0.0
 15
260.3780616918862
 25
406.5352454113145
 35
0.0
 16
184.3714697851655
 26
529.7606996700542
 36
0.0
1001
ACAD
1000
DSTYLE
1002
{
1070
   279
1070
     2
1070
    41
1040
20.0
1070
    79
1070
     2
1070
   176
1070
     0
1070
   177
1070
     0
1070
   178
1070
     0
1070
    44
1040
10.0
1070
    42
1040
5.0
1070
   147
1040
5.0
1070
   142
1040
20.0
1070
   140
1040
20.0
1070
    78
1070
     8
1002
}
  0
LEADER
  5
9D
330
1B8
100
AcDbEntity
  8
0 ... Seuil ... Rectangle ... Cotes Angles
100
AcDbLeader
  3
QCADDimStyle
 76
     3
 10
391.0743005104873
 20
435.7357388800788
 30
0.0
 10
424.2589805428124
 20
636.1159951688937
 30
0.0
 10
910.3704935881724
 20
726.047617920608
 30
0.0
  0
MTEXT
  5
9E
330
1B8
100
AcDbEntity
  8
0 ... Seuil ... Rectangle ... Cotes Angles
100
AcDbMText
 10
468.7254481771511
 20
603.0464093486978
 30
0.0
 40
50.0
 41
0.0
 46
0.0
 71
     1
 72
     1
  1
A
  7
textstyle13
 73
     1
 44
1.0
  0
MTEXT
  5
9F
330
1B8
100
AcDbEntity
  8
0 ... Seuil ... Rectangle ... Cotes Angles
100
AcDbMText
 10
433.1463359080678
 20
398.0429529411215
 30
0.0
 40
50.0
 41
0.0
 46
0.0
 71
     1
 72
     1
  1
B
  7
textstyle14
 73
     1
 44
1.0
  0
MTEXT
  5
A0
330
1B8
100
AcDbEntity
  8
0 ... Seuil ... Rectangle ... Cotes Angles
100
AcDbMText
 10
1903.399290818283
 20
427.2564500104924
 30
0.0
 40
50.0
 41
0.0
 46
0.0
 71
     1
 72
     1
  1
B
  7
textstyle15
 73
     1
 44
1.0
  0
MTEXT
  5
A1
330
1B8
100
AcDbEntity
  8
0 ... Seuil ... Rectangle ... Cotes Angles
100
AcDbMText
 10
1344.088003912011
 20
563.715785812482
 30
0.0
 40
50.0
 41
0.0
 46
0.0
 71
     1
 72
     1
  1
C
  7
textstyle16
 73
     1
 44
1.0
  0
MTEXT
  5
A2
330
1B8
100
AcDbEntity
  8
0 ... Seuil ... Rectangle ... Cotes Angles
100
AcDbMText
 10
2432.00324453038
 20
669.194413440261
 30
0.0
 40
50.0
 41
0.0
 46
0.0
 71
     1
 72
     1
  1
C
  7
textstyle17
 73
     1
 44
1.0
  0
MTEXT
  5
A3
330
1B8
100
AcDbEntity
  8
0 ... Seuil ... Rectangle ... Cotes Angles
100
AcDbMText
 10
1897.300014429296
 20
734.2533615894445
 30
0.0
 40
50.0
 41
0.0
 46
0.0
 71
     1
 72
     1
  1
A
  7
textstyle18
 73
     1
 44
1.0
  0
ARC
  5
A4
330
1B8
100
AcDbEntity
  8
0 ... Seuil ... Rectangle
100
AcDbCircle
 10
1427.378061691888
 20
503.6154165583512
 30
0.0
 40
1.0
100
AcDbArc
 50
274.9999999999746
 51
0.0
  0
DIMENSION
  5
A5
330
1B8
100
AcDbEntity
  8
0 ... Seuil ... Rectangle ... Cotes Angles
100
AcDbDimension
280
     0
  2
*D13
 10
1428.378061691888
 20
582.6990853843345
 30
0.0
 11
1480.23513660082
 21
455.1808310519223
 31
0.0
 70
   162
 71
     5
 42
1.658062789394614
 73
     0
 74
     0
 75
     0
  3
QCADDimStyle
100
AcDb2LineAngularDimension
 13
266.3780616918853
 23
401.0372583672101
 33
0.0
 14
1427.465217434636
 24
502.6192218602605
 34
0.0
 15
1428.378061691888
 25
503.6154165583498
 35
0.0
 16
1473.177417684981
 26
430.0682667374097
 36
0.0
1001
ACAD
1000
DSTYLE
1002
{
1070
   279
1070
     2
1070
    41
1040
20.0
1070
    79
1070
     2
1070
   176
1070
     0
1070
   177
1070
     0
1070
   178
1070
     0
1070
    44
1040
10.0
1070
    42
1040
5.0
1070
   147
1040
5.0
1070
   142
1040
20.0
1070
   140
1040
20.0
1070
    78
1070
     8
1002
}
  0
LINE
  5
A6
330
1B8
100
AcDbEntity
  8
0 ... Seuil ... Rectangle
100
AcDbLine
 10
460.5012556666534
 20
1484.837738934366
 30
0.0
 11
461.001255666652
 21
1484.837738934366
 31
0.0
  0
LINE
  5
A7
330
1B8
100
AcDbEntity
  8
0 ... Seuil ... Rectangle
100
AcDbLine
 10
460.5012556666534
 20
1549.25713759952
 30
0.0
 11
462.001255666652
 21
1549.25713759952
 31
0.0
  0
LINE
  5
A8
330
1B8
100
AcDbEntity
  8
0 ... Seuil ... Rectangle
100
AcDbLine
 10
2863.101255666652
 20
1484.837738934366
 30
0.0
 11
2863.601255666652
 21
1484.837738934366
 31
0.0
  0
LINE
  5
A9
330
1B8
100
AcDbEntity
  8
0 ... Seuil ... Rectangle
100
AcDbLine
 10
2863.601255666652
 20
1549.257137599519
 30
0.0
 11
2862.101255666652
 21
1549.257137599519
 31
0.0
  0
ARC
  5
AA
330
1B8
100
AcDbEntity
  8
0 ... Seuil ... Rectangle
100
AcDbCircle
 10
2862.601255666652
 20
1478.12491365372
 30
0.0
 40
1.0
100
AcDbArc
 50
270.0
 51
0.0
  0
LINE
  5
AB
330
1B8
100
AcDbEntity
  8
0 ... Seuil ... Rectangle
100
AcDbLine
 10
2863.601255666652
 20
1465.12491365372
 30
0.0
 11
2863.601255666652
 21
1478.12491365372
 31
0.0
  0
LINE
  5
AC
330
1B8
100
AcDbEntity
  8
0 ... Seuil ... Rectangle
100
AcDbLine
 10
2862.101255666652
 20
1477.12491365372
 30
0.0
 11
2862.101255666652
 21
1483.837738934366
 31
0.0
  0
LINE
  5
AD
330
1B8
100
AcDbEntity
  8
0 ... Seuil ... Rectangle
100
AcDbLine
 10
462.001255666652
 20
1521.165873646975
 30
0.0
 11
2862.101255666652
 21
1521.165873646975
 31
0.0
  0
LINE
  5
AE
330
1B8
100
AcDbEntity
  8
0 ... Seuil ... Rectangle
100
AcDbLine
 10
462.001255666652
 20
1501.165873646975
 30
0.0
 11
2862.101255666652
 21
1501.165873646975
 31
0.0
  0
ARC
  5
AF
330
1B8
100
AcDbEntity
  8
0 ... Seuil ... Rectangle
100
AcDbCircle
 10
2863.101255666652
 20
1483.837738934366
 30
0.0
 40
1.0
100
AcDbArc
 50
90.0
 51
180.0
  0
ARC
  5
B0
330
1B8
100
AcDbEntity
  8
0 ... Seuil ... Rectangle
100
AcDbCircle
 10
2864.101255666652
 20
1483.837738934366
 30
0.0
 40
1.0
100
AcDbArc
 50
0.0
 51
90.0
  0
ARC
  5
B1
330
1B8
100
AcDbEntity
  8
0 ... Seuil ... Rectangle
100
AcDbCircle
 10
460.001255666652
 20
1483.837738934366
 30
0.0
 40
1.0
100
AcDbArc
 50
89.99999999997394
 51
180.0
  0
ARC
  5
B2
330
1B8
100
AcDbEntity
  8
0 ... Seuil ... Rectangle
100
AcDbCircle
 10
461.001255666652
 20
1483.837738934366
 30
0.0
 40
1.0
100
AcDbArc
 50
0.0
 51
90.0
  0
LINE
  5
B3
330
1B8
100
AcDbEntity
  8
0 ... Seuil ... Rectangle
100
AcDbLine
 10
462.001255666652
 20
1477.12491365372
 30
0.0
 11
462.001255666652
 21
1549.25713759952
 31
0.0
  0
ARC
  5
B4
330
1B8
100
AcDbEntity
  8
0 ... Seuil ... Rectangle
100
AcDbCircle
 10
461.501255666652
 20
1478.12491365372
 30
0.0
 40
1.0
100
AcDbArc
 50
180.0
 51
270.0
  0
LINE
  5
B5
330
1B8
100
AcDbEntity
  8
0 ... Seuil ... Rectangle
100
AcDbLine
 10
460.5012556666534
 20
1465.12491365372
 30
0.0
 11
460.501255666652
 21
1478.12491365372
 31
0.0
  0
DIMENSION
  5
B6
330
1B8
100
AcDbEntity
  8
0 ... Seuil ... Rectangle ... Cotes Angles
100
AcDbDimension
280
     0
  2
*D14
 10
284.7661583818738
 20
999.8206900672577
 30
0.0
 11
289.2105523193222
 21
1023.715785812481
 31
0.0
 70
   161
 71
     5
 42
5.019099187717131
 73
     0
 74
     0
 75
     0
  3
QCADDimStyle
100
AcDbAlignedDimension
 13
279.7470591941692
 23
953.6335077409092
 33
0.0
 14
284.7661583818863
 24
953.6335077409105
 34
0.0
1001
ACAD
1000
DSTYLE
1002
{
1070
   279
1070
     2
1070
    41
1040
20.0
1070
    79
1070
     2
1070
   176
1070
     0
1070
   177
1070
     0
1070
   178
1070
     0
1070
    44
1040
10.0
1070
    42
1040
5.0
1070
   147
1040
5.0
1070
   142
1040
20.0
1070
   140
1040
20.0
1070
    78
1070
     8
1002
}
  0
DIMENSION
  5
B7
330
1B8
100
AcDbEntity
  8
0 ... Seuil ... Rectangle ... Cotes Angles
100
AcDbDimension
280
     0
  2
*D15
 10
263.4189244815602
 20
1283.715785812481
 30
0.0
 11
289.2105523193222
 21
1298.715785812482
 31
0.0
 70
   161
 71
     5
 42
19.99999999999952
 73
     0
 74
     0
 75
     0
  3
QCADDimStyle
100
AcDbAlignedDimension
 13
243.4189244815607
 23
1197.63350774091
 33
0.0
 14
263.4189244815602
 24
1197.63350774091
 34
0.0
1001
ACAD
1000
DSTYLE
1002
{
1070
   279
1070
     2
1070
    41
1040
20.0
1070
    79
1070
     2
1070
   176
1070
     0
1070
   177
1070
     0
1070
   178
1070
     0
1070
    44
1040
10.0
1070
    42
1040
5.0
1070
   147
1040
5.0
1070
   142
1040
20.0
1070
   140
1040
20.0
1070
    78
1070
     8
1002
}
  0
DIMENSION
  5
B8
330
1B8
100
AcDbEntity
  8
0 ... Seuil ... Rectangle ... Cotes Angles
100
AcDbDimension
280
     0
  2
*D16
 10
243.4189244815607
 20
1243.715785812482
 30
0.0
 11
189.2105523193222
 21
1258.715785812481
 31
0.0
 70
   160
 71
     5
 42
28.09126395254552
 73
     0
 74
     0
 75
     0
  3
QCADDimStyle
100
AcDbAlignedDimension
 13
215.3276605290152
 23
1173.633507740907
 33
0.0
 14
243.4189244815607
 24
1197.63350774091
 34
0.0
100
AcDbRotatedDimension
1001
ACAD
1000
DSTYLE
1002
{
1070
   279
1070
     2
1070
    41
1040
20.0
1070
    79
1070
     2
1070
   176
1070
     0
1070
   177
1070
     0
1070
   178
1070
     0
1070
    44
1040
10.0
1070
    42
1040
5.0
1070
   147
1040
5.0
1070
   142
1040
20.0
1070
   140
1040
20.0
1070
    78
1070
     8
1002
}
  0
MTEXT
  5
B9
330
1B8
100
AcDbEntity
  8
0 ... Seuil ... Rectangle ... Cotes Angles
100
AcDbMText
 10
69.9932299115394
 20
1902.437066067153
 30
0.0
 40
100.0
 41
0.0
 46
0.0
 71
     1
 72
     1
  1
Baie 1 (ouest) - Seuil - Dessus, Profil & Face\P
  7
textstyle19
 73
     1
 44
1.0
  0
ENDSEC
  0
SECTION
  2
OBJECTS
  0
DICTIONARY
  5
1A6
330
0
100
AcDbDictionary
281
     1
  3
ACAD_DETAILVIEWSTYLE
350
351
  3
ACAD_GROUP
350
1A7
  3
ACAD_LAYOUT
350
1B3
  3
ACAD_MATERIAL
350
1DC
  3
ACAD_MLEADERSTYLE
350
204
  3
ACAD_MLINESTYLE
350
1B0
  3
ACAD_PLOTSETTINGS
350
1B2
  3
ACAD_PLOTSTYLENAME
350
1A8
  3
ACAD_SCALELIST
350
1E0
  3
ACAD_SECTIONVIEWSTYLE
350
352
  3
ACAD_TABLESTYLE
350
202
  3
ACAD_VISUALSTYLE
350
1C3
  3
ACDB_RECOMPOSE_DATA
350
34E
  3
AcDbVariableDictionary
350
34A
  3
QCAD_OBJECTS
350
208
  0
SUN
  5
206
330
1C2
100
AcDbSun
 90
        1
290
     0
 63
     7
421
 16777215
 40
1.0
291
     1
 91
  2455826
 92
 54000000
292
     0
 70
     2
 71
   256
280
     1
  0
DICTIONARY
  5
351
102
{ACAD_REACTORS
330
1A6
102
}
330
1A6
100
AcDbDictionary
281
     1
  0
DICTIONARY
  5
1A7
102
{ACAD_REACTORS
330
1A6
102
}
330
1A6
100
AcDbDictionary
281
     1
  0
DICTIONARY
  5
1B3
102
{ACAD_REACTORS
330
1A6
102
}
330
1A6
100
AcDbDictionary
281
     1
  3
Layout1
350
1B7
  3
Layout2
350
1BF
  3
Model
350
1BB
  0
DICTIONARY
  5
1DC
102
{ACAD_REACTORS
330
1A6
102
}
330
1A6
100
AcDbDictionary
281
     1
  3
ByBlock
350
1DE
  3
ByLayer
350
1DD
  3
Global
350
1DF
  0
DICTIONARY
  5
204
102
{ACAD_REACTORS
330
1A6
102
}
330
1A6
100
AcDbDictionary
281
     1
  3
Standard
350
205
  0
DICTIONARY
  5
1B0
102
{ACAD_REACTORS
330
1A6
102
}
330
1A6
100
AcDbDictionary
281
     1
  3
Standard
350
1B1
  0
DICTIONARY
  5
1B2
102
{ACAD_REACTORS
330
1A6
102
}
330
1A6
100
AcDbDictionary
281
     1
  0
ACDBDICTIONARYWDFLT
  5
1A8
102
{ACAD_REACTORS
330
1A6
102
}
330
1A6
100
AcDbDictionary
281
     1
  3
Normal
350
1A9
100
AcDbDictionaryWithDefault
340
1A9
  0
DICTIONARY
  5
1E0
102
{ACAD_REACTORS
330
1A6
102
}
330
1A6
100
AcDbDictionary
281
     1
  3
A0
350
1E1
  3
A1
350
1E2
  3
A2
350
1E3
  3
A3
350
1E4
  3
A4
350
1E5
  3
A5
350
1E6
  3
A6
350
1E7
  3
A7
350
1E8
  3
A8
350
1E9
  3
A9
350
1EA
  3
B0
350
1EB
  3
B1
350
1EC
  3
B2
350
1ED
  3
B3
350
1EE
  3
B4
350
1EF
  3
B5
350
1F0
  3
B6
350
1F1
  3
B7
350
1F2
  3
B8
350
1F3
  3
B9
350
1F4
  3
C0
350
1F5
  3
C1
350
1F6
  3
C2
350
1F7
  3
C3
350
1F8
  3
C4
350
1F9
  3
C5
350
1FA
  3
C6
350
1FB
  3
C7
350
1FC
  3
C8
350
1FD
  3
C9
350
1FE
  3
D0
350
1FF
  3
D1
350
200
  3
D2
350
201
  0
DICTIONARY
  5
352
102
{ACAD_REACTORS
330
1A6
102
}
330
1A6
100
AcDbDictionary
281
     1
  0
DICTIONARY
  5
202
102
{ACAD_REACTORS
330
1A6
102
}
330
1A6
100
AcDbDictionary
281
     1
  3
Standard
350
203
  0
DICTIONARY
  5
1C3
102
{ACAD_REACTORS
330
1A6
102
}
330
1A6
100
AcDbDictionary
281
     1
  3
2dWireframe
350
1C8
  3
Basic
350
1CB
  3
Brighten
350
1CF
  3
ColorChange
350
1D3
  3
Conceptual
350
1CD
  3
Dim
350
1CE
  3
EdgeColorOff
350
1D6
  3
Facepattern
350
1D2
  3
Flat
350
1C4
  3
FlatWithEdges
350
1C5
  3
Gouraud
350
1C6
  3
GouraudWithEdges
350
1C7
  3
Hidden
350
1CA
  3
JitterOff
350
1D4
  3
Linepattern
350
1D1
  3
OverhangOff
350
1D5
  3
Realistic
350
1CC
  3
Shaded
350
1DB
  3
Shaded with edges
350
1DA
  3
Shades of Gray
350
1D7
  3
Sketchy
350
1D8
  3
Thicken
350
1D0
  3
Wireframe
350
1C9
  3
X-Ray
350
1D9
  0
XRECORD
  5
34E
102
{ACAD_REACTORS
330
1A6
102
}
330
1A6
100
AcDbXrecord
280
     1
 90
        1
330
203
  0
DICTIONARY
  5
34A
102
{ACAD_REACTORS
330
1A6
102
}
330
1A6
100
AcDbDictionary
281
     1
  3
CANNOSCALE
350
34B
  3
CMLEADERSTYLE
350
350
  3
CTABLESTYLE
350
34F
  0
DICTIONARY
  5
208
102
{ACAD_REACTORS
330
1A6
102
}
330
1A6
100
AcDbDictionary
281
     1
  3
DimensionSettings/AngularFormat
350
20A
  3
DimensionSettings/AngularPrecision
350
20B
  3
DimensionSettings/DimensionFont
350
20C
  3
DimensionSettings/KeepProportions
350
20D
  3
DimensionSettings/LinearFormat
350
20E
  3
DimensionSettings/LinearPrecision
350
20F
  3
Grid/DisplayGrid00
350
210
  3
Grid/DisplayGrid01
350
211
  3
Grid/DisplayGrid02
350
212
  3
Grid/DisplayGrid03
350
213
  3
Grid/GridSpacingX00
350
214
  3
Grid/GridSpacingX01
350
215
  3
Grid/GridSpacingX02
350
216
  3
Grid/GridSpacingX03
350
217
  3
Grid/GridSpacingY00
350
218
  3
Grid/GridSpacingY01
350
219
  3
Grid/GridSpacingY02
350
21A
  3
Grid/GridSpacingY03
350
21B
  3
Grid/IsometricGrid00
350
21C
  3
Grid/IsometricGrid01
350
21D
  3
Grid/IsometricGrid02
350
21E
  3
Grid/IsometricGrid03
350
21F
  3
Grid/IsometricProjection00
350
220
  3
Grid/IsometricProjection01
350
221
  3
Grid/IsometricProjection02
350
222
  3
Grid/IsometricProjection03
350
223
  3
Grid/MetaGridSpacingX00
350
224
  3
Grid/MetaGridSpacingX01
350
225
  3
Grid/MetaGridSpacingX02
350
226
  3
Grid/MetaGridSpacingX03
350
227
  3
Grid/MetaGridSpacingY00
350
228
  3
Grid/MetaGridSpacingY01
350
229
  3
Grid/MetaGridSpacingY02
350
22A
  3
Grid/MetaGridSpacingY03
350
22B
  3
MultiPageSettings/Columns
350
22C
  3
MultiPageSettings/GlueMarginsBottom
350
22D
  3
MultiPageSettings/GlueMarginsLeft
350
22E
  3
MultiPageSettings/GlueMarginsRight
350
22F
  3
MultiPageSettings/GlueMarginsTop
350
230
  3
MultiPageSettings/PrintCropMarks
350
231
  3
MultiPageSettings/Rows
350
232
  3
PageSettings/OffsetX
350
233
  3
PageSettings/OffsetY
350
234
  3
PageSettings/PageOrientation
350
235
  3
PageSettings/PaperHeight
350
236
  3
PageSettings/PaperWidth
350
237
  3
PageSettings/Scale
350
238
  3
PageSettings/ShowPaperBorders
350
239
  3
QCADVersion
350
23A
  3
UnitSettings/PaperUnit
350
23B
  0
LAYOUT
  5
1B7
102
{ACAD_REACTORS
330
1B3
102
}
330
1B3
100
AcDbPlotSettings
  1

  2
none_device
  4

  6

 40
0.0
 41
0.0
 42
0.0
 43
0.0
 44
0.0
 45
0.0
 46
0.0
 47
0.0
 48
0.0
 49
0.0
140
0.0
141
0.0
142
1.0
143
1.0
 70
   688
 72
     0
 73
     0
 74
     5
  7

 75
    16
 76
     0
 77
     2
 78
   300
147
1.0
148
0.0
149
0.0
100
AcDbLayout
  1
Layout1
 70
     1
 71
     1
 10
0.0
 20
0.0
 11
12.0
 21
9.0
 12
0.0
 22
0.0
 32
0.0
 14
1.000000000000000E+20
 24
1.000000000000000E+20
 34
1.000000000000000E+20
 15
-1.000000000000000E+20
 25
-1.000000000000000E+20
 35
-1.000000000000000E+20
146
0.0
 13
0.0
 23
0.0
 33
0.0
 16
1.0
 26
0.0
 36
0.0
 17
0.0
 27
1.0
 37
0.0
 76
     0
330
1B4
  0
LAYOUT
  5
1BF
102
{ACAD_REACTORS
330
1B3
102
}
330
1B3
100
AcDbPlotSettings
  1

  2
none_device
  4

  6

 40
0.0
 41
0.0
 42
0.0
 43
0.0
 44
0.0
 45
0.0
 46
0.0
 47
0.0
 48
0.0
 49
0.0
140
0.0
141
0.0
142
1.0
143
1.0
 70
   688
 72
     0
 73
     0
 74
     5
  7

 75
    16
 76
     0
 77
     2
 78
   300
147
1.0
148
0.0
149
0.0
100
AcDbLayout
  1
Layout2
 70
     1
 71
     2
 10
0.0
 20
0.0
 11
0.0
 21
0.0
 12
0.0
 22
0.0
 32
0.0
 14
0.0
 24
0.0
 34
0.0
 15
0.0
 25
0.0
 35
0.0
146
0.0
 13
0.0
 23
0.0
 33
0.0
 16
1.0
 26
0.0
 36
0.0
 17
0.0
 27
1.0
 37
0.0
 76
     0
330
1BC
  0
LAYOUT
  5
1BB
102
{ACAD_REACTORS
330
1B3
102
}
330
1B3
100
AcDbPlotSettings
  1

  2
none_device
  4
Letter_(8.50_x_11.00_Inches)
  6

 40
6.35
 41
6.35
 42
6.35000508
 43
6.35000508
 44
215.9
 45
279.4
 46
0.0
 47
0.0
 48
0.0
 49
0.0
140
0.0
141
0.0
142
1.0
143
1.0
 70
  1712
 72
     0
 73
     0
 74
     0
  7

 75
     0
 76
     0
 77
     2
 78
   300
147
1.0
148
0.0
149
0.0
100
AcDbLayout
  1
Model
 70
     1
 71
     0
 10
0.0
 20
0.0
 11
12.0
 21
9.0
 12
0.0
 22
0.0
 32
0.0
 14
1.000000000000000E+20
 24
1.000000000000000E+20
 34
1.000000000000000E+20
 15
-1.000000000000000E+20
 25
-1.000000000000000E+20
 35
-1.000000000000000E+20
146
0.0
 13
0.0
 23
0.0
 33
0.0
 16
1.0
 26
0.0
 36
0.0
 17
0.0
 27
1.0
 37
0.0
 76
     0
330
1B8
331
1C2
  0
MATERIAL
  5
1DE
102
{ACAD_REACTORS
330
1DC
102
}
330
1DC
100
AcDbMaterial
  1
ByBlock
 72
     1
 94
      127
  0
MATERIAL
  5
1DD
102
{ACAD_REACTORS
330
1DC
102
}
330
1DC
100
AcDbMaterial
  1
ByLayer
 72
     1
 94
      127
  0
MATERIAL
  5
1DF
102
{ACAD_REACTORS
330
1DC
102
}
330
1DC
100
AcDbMaterial
  1
Global
 72
     1
 94
      127
  0
MLEADERSTYLE
  5
205
102
{ACAD_REACTORS
330
204
102
}
330
204
100
AcDbMLeaderStyle
179
     2
170
     2
171
     1
172
     0
 90
        2
 40
0.0
 41
0.0
173
     1
 91
-1056964608
340
1AD
 92
       -2
290
     1
 42
0.09
291
     1
 43
0.36
  3
Standard
341
0
 44
0.18
300

342
1AB
174
     1
178
     6
175
     1
176
     0
 93
-1056964608
 45
0.18
292
     0
297
     0
 46
0.18
343
0
 94
-1056964608
 47
1.0
 49
1.0
140
1.0
293
     1
141
0.0
294
     1
177
     0
142
1.0
295
     0
296
     0
143
0.125
271
     0
272
     9
273
     9
298
     0
  0
MLINESTYLE
  5
1B1
102
{ACAD_REACTORS
330
1B0
102
}
330
1B0
100
AcDbMlineStyle
  2
Standard
 70
     0
  3

 62
   256
 51
90.0
 52
90.0
 71
     2
 49
0.5
 62
   256
  6
BYLAYER
 49
-0.5
 62
   256
  6
BYLAYER
  0
ACDBPLACEHOLDER
  5
1A9
102
{ACAD_REACTORS
330
1A8
102
}
330
1A8
  0
SCALE
  5
1E1
102
{ACAD_REACTORS
330
1E0
102
}
330
1E0
100
AcDbScale
 70
     0
300
1:1
140
1.0
141
1.0
290
     1
  0
SCALE
  5
1E2
102
{ACAD_REACTORS
330
1E0
102
}
330
1E0
100
AcDbScale
 70
     0
300
1:2
140
1.0
141
2.0
290
     0
  0
SCALE
  5
1E3
102
{ACAD_REACTORS
330
1E0
102
}
330
1E0
100
AcDbScale
 70
     0
300
1:4
140
1.0
141
4.0
290
     0
  0
SCALE
  5
1E4
102
{ACAD_REACTORS
330
1E0
102
}
330
1E0
100
AcDbScale
 70
     0
300
1:5
140
1.0
141
5.0
290
     0
  0
SCALE
  5
1E5
102
{ACAD_REACTORS
330
1E0
102
}
330
1E0
100
AcDbScale
 70
     0
300
1:8
140
1.0
141
8.0
290
     0
  0
SCALE
  5
1E6
102
{ACAD_REACTORS
330
1E0
102
}
330
1E0
100
AcDbScale
 70
     0
300
1:10
140
1.0
141
10.0
290
     0
  0
SCALE
  5
1E7
102
{ACAD_REACTORS
330
1E0
102
}
330
1E0
100
AcDbScale
 70
     0
300
1:16
140
1.0
141
16.0
290
     0
  0
SCALE
  5
1E8
102
{ACAD_REACTORS
330
1E0
102
}
330
1E0
100
AcDbScale
 70
     0
300
1:20
140
1.0
141
20.0
290
     0
  0
SCALE
  5
1E9
102
{ACAD_REACTORS
330
1E0
102
}
330
1E0
100
AcDbScale
 70
     0
300
1:30
140
1.0
141
30.0
290
     0
  0
SCALE
  5
1EA
102
{ACAD_REACTORS
330
1E0
102
}
330
1E0
100
AcDbScale
 70
     0
300
1:40
140
1.0
141
40.0
290
     0
  0
SCALE
  5
1EB
102
{ACAD_REACTORS
330
1E0
102
}
330
1E0
100
AcDbScale
 70
     0
300
1:50
140
1.0
141
50.0
290
     0
  0
SCALE
  5
1EC
102
{ACAD_REACTORS
330
1E0
102
}
330
1E0
100
AcDbScale
 70
     0
300
1:100
140
1.0
141
100.0
290
     0
  0
SCALE
  5
1ED
102
{ACAD_REACTORS
330
1E0
102
}
330
1E0
100
AcDbScale
 70
     0
300
2:1
140
2.0
141
1.0
290
     0
  0
SCALE
  5
1EE
102
{ACAD_REACTORS
330
1E0
102
}
330
1E0
100
AcDbScale
 70
     0
300
4:1
140
4.0
141
1.0
290
     0
  0
SCALE
  5
1EF
102
{ACAD_REACTORS
330
1E0
102
}
330
1E0
100
AcDbScale
 70
     0
300
8:1
140
8.0
141
1.0
290
     0
  0
SCALE
  5
1F0
102
{ACAD_REACTORS
330
1E0
102
}
330
1E0
100
AcDbScale
 70
     0
300
10:1
140
10.0
141
1.0
290
     0
  0
SCALE
  5
1F1
102
{ACAD_REACTORS
330
1E0
102
}
330
1E0
100
AcDbScale
 70
     0
300
100:1
140
100.0
141
1.0
290
     0
  0
SCALE
  5
1F2
102
{ACAD_REACTORS
330
1E0
102
}
330
1E0
100
AcDbScale
 70
     0
300
1/128" = 1'-0"
140
0.0078125
141
12.0
290
     0
  0
SCALE
  5
1F3
102
{ACAD_REACTORS
330
1E0
102
}
330
1E0
100
AcDbScale
 70
     0
300
1/64" = 1'-0"
140
0.015625
141
12.0
290
     0
  0
SCALE
  5
1F4
102
{ACAD_REACTORS
330
1E0
102
}
330
1E0
100
AcDbScale
 70
     0
300
1/32" = 1'-0"
140
0.03125
141
12.0
290
     0
  0
SCALE
  5
1F5
102
{ACAD_REACTORS
330
1E0
102
}
330
1E0
100
AcDbScale
 70
     0
300
1/16" = 1'-0"
140
0.0625
141
12.0
290
     0
  0
SCALE
  5
1F6
102
{ACAD_REACTORS
330
1E0
102
}
330
1E0
100
AcDbScale
 70
     0
300
3/32" = 1'-0"
140
0.09375
141
12.0
290
     0
  0
SCALE
  5
1F7
102
{ACAD_REACTORS
330
1E0
102
}
330
1E0
100
AcDbScale
 70
     0
300
1/8" = 1'-0"
140
0.125
141
12.0
290
     0
  0
SCALE
  5
1F8
102
{ACAD_REACTORS
330
1E0
102
}
330
1E0
100
AcDbScale
 70
     0
300
3/16" = 1'-0"
140
0.1875
141
12.0
290
     0
  0
SCALE
  5
1F9
102
{ACAD_REACTORS
330
1E0
102
}
330
1E0
100
AcDbScale
 70
     0
300
1/4" = 1'-0"
140
0.25
141
12.0
290
     0
  0
SCALE
  5
1FA
102
{ACAD_REACTORS
330
1E0
102
}
330
1E0
100
AcDbScale
 70
     0
300
3/8" = 1'-0"
140
0.375
141
12.0
290
     0
  0
SCALE
  5
1FB
102
{ACAD_REACTORS
330
1E0
102
}
330
1E0
100
AcDbScale
 70
     0
300
1/2" = 1'-0"
140
0.5
141
12.0
290
     0
  0
SCALE
  5
1FC
102
{ACAD_REACTORS
330
1E0
102
}
330
1E0
100
AcDbScale
 70
     0
300
3/4" = 1'-0"
140
0.75
141
12.0
290
     0
  0
SCALE
  5
1FD
102
{ACAD_REACTORS
330
1E0
102
}
330
1E0
100
AcDbScale
 70
     0
300
1" = 1'-0"
140
1.0
141
12.0
290
     0
  0
SCALE
  5
1FE
102
{ACAD_REACTORS
330
1E0
102
}
330
1E0
100
AcDbScale
 70
     0
300
1-1/2" = 1'-0"
140
1.5
141
12.0
290
     0
  0
SCALE
  5
1FF
102
{ACAD_REACTORS
330
1E0
102
}
330
1E0
100
AcDbScale
 70
     0
300
3" = 1'-0"
140
3.0
141
12.0
290
     0
  0
SCALE
  5
200
102
{ACAD_REACTORS
330
1E0
102
}
330
1E0
100
AcDbScale
 70
     0
300
6" = 1'-0"
140
6.0
141
12.0
290
     0
  0
SCALE
  5
201
102
{ACAD_REACTORS
330
1E0
102
}
330
1E0
100
AcDbScale
 70
     0
300
1'-0" = 1'-0"
140
12.0
141
12.0
290
     0
  0
TABLESTYLE
  5
203
102
{ACAD_REACTORS
330
202
102
}
102
{ACAD_XDICTIONARY
360
34C
102
}
330
202
100
AcDbTableStyle
  3
Standard
 70
     0
 71
     0
 40
0.06
 41
0.06
280
     0
281
     0
  7
Standard
140
0.18
170
     2
 62
     0
 63
   257
283
     0
 90
        4
 91
        0
  1

274
    -2
284
     1
 64
     0
275
    -2
285
     1
 65
     0
276
    -2
286
     1
 66
     0
277
    -2
287
     1
 67
     0
278
    -2
288
     1
 68
     0
279
    -2
289
     1
 69
     0
  7
Standard
140
0.25
170
     5
 62
     0
 63
   257
283
     0
 90
        4
 91
        0
  1

274
    -2
284
     1
 64
     0
275
    -2
285
     1
 65
     0
276
    -2
286
     1
 66
     0
277
    -2
287
     1
 67
     0
278
    -2
288
     1
 68
     0
279
    -2
289
     1
 69
     0
  7
Standard
140
0.18
170
     5
 62
     0
 63
   257
283
     0
 90
        4
 91
        0
  1

274
    -2
284
     1
 64
     0
275
    -2
285
     1
 65
     0
276
    -2
286
     1
 66
     0
277
    -2
287
     1
 67
     0
278
    -2
288
     1
 68
     0
279
    -2
289
     1
 69
     0
  0
VISUALSTYLE
  5
1C8
102
{ACAD_REACTORS
330
1C3
102
}
330
1C3
100
AcDbVisualStyle
  2
2dWireframe
 70
     4
177
     3
291
     0
 70
    58
 90
        0
176
     1
 90
        2
176
     1
 90
        0
176
     1
 90
        0
176
     1
 40
0.6
176
     1
 40
30.0
176
     1
 62
     7
420
 16777215
176
     1
 90
        1
176
     1
 90
        4
176
     1
 62
     7
176
     1
 62
   257
176
     1
 90
        1
176
     1
 90
        1
176
     1
 40
1.0
176
     1
 90
        0
176
     1
 62
   257
176
     1
 40
1.0
176
     1
 90
        1
176
     1
 90
        6
176
     1
 90
        2
176
     1
 62
     7
176
     1
 90
        5
176
     1
 90
        0
176
     1
 90
        0
176
     1
290
     0
176
     1
 90
        1
176
     1
 40
0.0
176
     1
 90
        0
176
     1
290
     1
176
     1
290
     1
176
     1
290
     0
176
     1
290
     0
176
     1
290
     0
176
     1
290
     0
176
     1
290
     0
176
     1
290
     0
176
     1
290
     0
176
     1
 90
       50
176
     1
 40
0.0
176
     1
 40
1.0
176
     1
 90
        0
176
     1
 62
   178
420
        0
176
     1
 90
       50
176
     1
 90
        3
176
     1
 62
     5
420
      255
176
     1
290
     0
176
     1
 90
       50
176
     1
 90
       50
176
     1
 90
       50
176
     1
290
     0
176
     1
 90
       50
176
     1
 62
   256
176
     0
 40
1.0
176
     0
 90
        2
176
     1
  1
strokes_ogs.tif
176
     1
290
     0
176
     1
 40
1.0
176
     1
 40
1.0
176
     1
  0
VISUALSTYLE
  5
1CB
102
{ACAD_REACTORS
330
1C3
102
}
330
1C3
100
AcDbVisualStyle
  2
Basic
 70
     7
177
     3
291
     1
 70
    58
 90
        1
176
     1
 90
        0
176
     1
 90
        1
176
     1
 90
        0
176
     1
 40
0.6
176
     1
 40
30.0
176
     1
 62
     7
420
 16777215
176
     1
 90
        0
176
     1
 90
        4
176
     1
 62
     7
176
     1
 62
   257
176
     1
 90
        1
176
     1
 90
        1
176
     1
 40
1.0
176
     1
 90
        8
176
     1
 62
     7
176
     1
 40
1.0
176
     1
 90
        1
176
     1
 90
        6
176
     1
 90
        2
176
     1
 62
     7
176
     1
 90
        5
176
     1
 90
        0
176
     1
 90
        0
176
     1
290
     0
176
     1
 90
        1
176
     1
 40
0.0
176
     1
 90
        0
176
     1
290
     0
176
     1
290
     1
176
     1
290
     1
176
     1
290
     0
176
     1
290
     0
176
     1
290
     0
176
     1
290
     0
176
     1
290
     0
176
     1
290
     0
176
     1
 90
       50
176
     1
 40
0.0
176
     1
 40
1.0
176
     1
 90
        0
176
     1
 62
   178
420
        0
176
     1
 90
       50
176
     1
 90
        3
176
     1
 62
     5
420
      255
176
     1
290
     0
176
     1
 90
       50
176
     1
 90
       50
176
     1
 90
       50
176
     1
290
     0
176
     1
 90
       50
176
     1
 62
   256
176
     0
 40
1.0
176
     0
 90
        2
176
     1
  1
strokes_ogs.tif
176
     1
290
     0
176
     1
 40
1.0
176
     1
 40
1.0
176
     1
  0
VISUALSTYLE
  5
1CF
102
{ACAD_REACTORS
330
1C3
102
}
330
1C3
100
AcDbVisualStyle
  2
Brighten
 70
    12
177
     3
291
     1
 70
    58
 90
        2
176
     1
 90
        2
176
     1
 90
        0
176
     1
 90
        0
176
     1
 40
0.6
176
     1
 40
30.0
176
     1
 62
     7
420
 16777215
176
     1
 90
        1
176
     1
 90
        4
176
     1
 62
     7
176
     1
 62
   257
176
     1
 90
        1
176
     1
 90
        1
176
     1
 40
1.0
176
     1
 90
        8
176
     1
 62
     7
176
     1
 40
1.0
176
     1
 90
        1
176
     1
 90
        6
176
     1
 90
        2
176
     1
 62
     7
176
     1
 90
        5
176
     1
 90
        0
176
     1
 90
        0
176
     1
290
     0
176
     1
 90
        1
176
     1
 40
50.0
176
     1
 90
        0
176
     1
290
     0
176
     1
290
     1
176
     1
290
     1
176
     1
290
     0
176
     1
290
     0
176
     1
290
     0
176
     1
290
     0
176
     1
290
     0
176
     1
290
     0
176
     1
 90
       50
176
     1
 40
0.0
176
     1
 40
1.0
176
     1
 90
        0
176
     1
 62
   178
420
        0
176
     1
 90
       50
176
     1
 90
        3
176
     1
 62
     5
420
      255
176
     1
290
     0
176
     1
 90
       50
176
     1
 90
       50
176
     1
 90
       50
176
     1
290
     0
176
     1
 90
       50
176
     1
 62
   256
176
     0
 40
1.0
176
     0
 90
        2
176
     1
  1
strokes_ogs.tif
176
     1
290
     0
176
     1
 40
1.0
176
     1
 40
1.0
176
     1
  0
VISUALSTYLE
  5
1D3
102
{ACAD_REACTORS
330
1C3
102
}
330
1C3
100
AcDbVisualStyle
  2
ColorChange
 70
    16
177
     3
291
     1
 70
    58
 90
        2
176
     1
 90
        2
176
     1
 90
        3
176
     1
 90
        0
176
     1
 40
0.6
176
     1
 40
30.0
176
     1
 62
     8
420
  8421504
176
     1
 90
        1
176
     1
 90
        4
176
     1
 62
     7
176
     1
 62
   257
176
     1
 90
        1
176
     1
 90
        1
176
     1
 40
1.0
176
     1
 90
        8
176
     1
 62
     8
420
  8421504
176
     1
 40
1.0
176
     1
 90
        1
176
     1
 90
        6
176
     1
 90
        2
176
     1
 62
     7
176
     1
 90
        5
176
     1
 90
        0
176
     1
 90
        0
176
     1
290
     0
176
     1
 90
        1
176
     1
 40
0.0
176
     1
 90
        0
176
     1
290
     0
176
     1
290
     1
176
     1
290
     1
176
     1
290
     0
176
     1
290
     0
176
     1
290
     0
176
     1
290
     0
176
     1
290
     0
176
     1
290
     0
176
     1
 90
       50
176
     1
 40
0.0
176
     1
 40
1.0
176
     1
 90
        0
176
     1
 62
   178
420
        0
176
     1
 90
       50
176
     1
 90
        3
176
     1
 62
     5
420
      255
176
     1
290
     0
176
     1
 90
       50
176
     1
 90
       50
176
     1
 90
       50
176
     1
290
     0
176
     1
 90
       50
176
     1
 62
   256
176
     0
 40
1.0
176
     0
 90
        2
176
     1
  1
strokes_ogs.tif
176
     1
290
     0
176
     1
 40
1.0
176
     1
 40
1.0
176
     1
  0
VISUALSTYLE
  5
1CD
102
{ACAD_REACTORS
330
1C3
102
}
330
1C3
100
AcDbVisualStyle
  2
Conceptual
 70
     9
177
     3
291
     0
 70
    58
 90
        3
176
     1
 90
        2
176
     1
 90
        0
176
     1
 90
        0
176
     1
 40
0.6
176
     1
 40
30.0
176
     1
 62
     7
420
 16777215
176
     1
 90
        2
176
     1
 90
        2
176
     1
 62
     7
176
     1
 62
   257
176
     1
 90
        1
176
     1
 90
        1
176
     1
 40
179.0
176
     1
 90
        8
176
     1
 62
     7
176
     1
 40
1.0
176
     1
 90
        1
176
     1
 90
        6
176
     1
 90
        2
176
     1
 62
     7
176
     1
 90
        3
176
     1
 90
        0
176
     1
 90
        0
176
     1
290
     0
176
     1
 90
        1
176
     1
 40
0.0
176
     1
 90
        0
176
     1
290
     0
176
     1
290
     1
176
     1
290
     1
176
     1
290
     0
176
     1
290
     0
176
     1
290
     0
176
     1
290
     0
176
     1
290
     0
176
     1
290
     0
176
     1
 90
       50
176
     1
 40
0.0
176
     1
 40
1.0
176
     1
 90
        0
176
     1
 62
   178
420
        0
176
     1
 90
       50
176
     1
 90
        3
176
     1
 62
     5
420
      255
176
     1
290
     0
176
     1
 90
       50
176
     1
 90
       50
176
     1
 90
       50
176
     1
290
     0
176
     1
 90
       50
176
     1
 62
   256
176
     0
 40
1.0
176
     0
 90
        2
176
     1
  1
strokes_ogs.tif
176
     1
290
     0
176
     1
 40
1.0
176
     1
 40
1.0
176
     1
  0
VISUALSTYLE
  5
1CE
102
{ACAD_REACTORS
330
1C3
102
}
330
1C3
100
AcDbVisualStyle
  2
Dim
 70
    11
177
     3
291
     1
 70
    58
 90
        2
176
     1
 90
        2
176
     1
 90
        0
176
     1
 90
        0
176
     1
 40
0.6
176
     1
 40
30.0
176
     1
 62
     7
420
 16777215
176
     1
 90
        1
176
     1
 90
        4
176
     1
 62
     7
176
     1
 62
   257
176
     1
 90
        1
176
     1
 90
        1
176
     1
 40
1.0
176
     1
 90
        8
176
     1
 62
     7
176
     1
 40
1.0
176
     1
 90
        1
176
     1
 90
        6
176
     1
 90
        2
176
     1
 62
     7
176
     1
 90
        5
176
     1
 90
        0
176
     1
 90
        0
176
     1
290
     0
176
     1
 90
        1
176
     1
 40
-50.0
176
     1
 90
        0
176
     1
290
     0
176
     1
290
     1
176
     1
290
     1
176
     1
290
     0
176
     1
290
     0
176
     1
290
     0
176
     1
290
     0
176
     1
290
     0
176
     1
290
     0
176
     1
 90
       50
176
     1
 40
0.0
176
     1
 40
1.0
176
     1
 90
        0
176
     1
 62
   178
420
        0
176
     1
 90
       50
176
     1
 90
        3
176
     1
 62
     5
420
      255
176
     1
290
     0
176
     1
 90
       50
176
     1
 90
       50
176
     1
 90
       50
176
     1
290
     0
176
     1
 90
       50
176
     1
 62
   256
176
     0
 40
1.0
176
     0
 90
        2
176
     1
  1
strokes_ogs.tif
176
     1
290
     0
176
     1
 40
1.0
176
     1
 40
1.0
176
     1
  0
VISUALSTYLE
  5
1D6
102
{ACAD_REACTORS
330
1C3
102
}
330
1C3
100
AcDbVisualStyle
  2
EdgeColorOff
 70
    22
177
     3
291
     1
 70
    58
 90
        2
176
     0
 90
        2
176
     0
 90
        0
176
     0
 90
        0
176
     0
 40
0.6
176
     0
 40
30.0
176
     0
 62
     7
420
 16777215
176
     0
 90
        1
176
     0
 90
        4
176
     0
 62
     7
176
     0
 62
   257
176
     0
 90
        1
176
     0
 90
        1
176
     0
 40
1.0
176
     0
 90
        8
176
     2
 62
     7
176
     0
 40
1.0
176
     0
 90
        1
176
     0
 90
        6
176
     0
 90
        2
176
     0
 62
     7
176
     0
 90
        5
176
     0
 90
        0
176
     0
 90
        0
176
     0
290
     0
176
     0
 90
        1
176
     0
 40
0.0
176
     0
 90
        0
176
     0
290
     0
176
     0
290
     1
176
     0
290
     1
176
     0
290
     0
176
     0
290
     0
176
     0
290
     0
176
     0
290
     0
176
     0
290
     0
176
     0
290
     0
176
     0
 90
       50
176
     0
 40
0.0
176
     0
 40
1.0
176
     0
 90
        0
176
     0
 62
   178
420
        0
176
     0
 90
       50
176
     0
 90
        3
176
     0
 62
     5
420
      255
176
     0
290
     0
176
     0
 90
       50
176
     0
 90
       50
176
     0
 90
       50
176
     0
290
     0
176
     0
 90
       50
176
     0
 62
   256
176
     0
 40
1.0
176
     0
 90
        2
176
     0
  1
strokes_ogs.tif
176
     0
290
     0
176
     0
 40
1.0
176
     0
 40
1.0
176
     0
  0
VISUALSTYLE
  5
1D2
102
{ACAD_REACTORS
330
1C3
102
}
330
1C3
100
AcDbVisualStyle
  2
Facepattern
 70
    15
177
     3
291
     1
 70
    58
 90
        2
176
     1
 90
        2
176
     1
 90
        0
176
     1
 90
        0
176
     1
 40
0.6
176
     1
 40
30.0
176
     1
 62
     7
420
 16777215
176
     1
 90
        1
176
     1
 90
        4
176
     1
 62
     7
176
     1
 62
   257
176
     1
 90
        1
176
     1
 90
        1
176
     1
 40
1.0
176
     1
 90
        8
176
     1
 62
     7
176
     1
 40
1.0
176
     1
 90
        1
176
     1
 90
        6
176
     1
 90
        2
176
     1
 62
     7
176
     1
 90
        5
176
     1
 90
        0
176
     1
 90
        0
176
     1
290
     0
176
     1
 90
        1
176
     1
 40
0.0
176
     1
 90
        0
176
     1
290
     0
176
     1
290
     1
176
     1
290
     1
176
     1
290
     0
176
     1
290
     0
176
     1
290
     0
176
     1
290
     0
176
     1
290
     0
176
     1
290
     0
176
     1
 90
       50
176
     1
 40
0.0
176
     1
 40
1.0
176
     1
 90
        0
176
     1
 62
   178
420
        0
176
     1
 90
       50
176
     1
 90
        3
176
     1
 62
     5
420
      255
176
     1
290
     0
176
     1
 90
       50
176
     1
 90
       50
176
     1
 90
       50
176
     1
290
     0
176
     1
 90
       50
176
     1
 62
   256
176
     0
 40
1.0
176
     0
 90
        2
176
     1
  1
strokes_ogs.tif
176
     1
290
     0
176
     1
 40
1.0
176
     1
 40
1.0
176
     1
  0
VISUALSTYLE
  5
1C4
102
{ACAD_REACTORS
330
1C3
102
}
330
1C3
100
AcDbVisualStyle
  2
Flat
 70
     0
177
     3
291
     1
 70
    58
 90
        2
176
     1
 90
        1
176
     1
 90
        1
176
     1
 90
        2
176
     1
 40
0.6
176
     1
 40
30.0
176
     1
 62
     7
420
 16777215
176
     1
 90
        0
176
     1
 90
        0
176
     1
 62
     7
176
     1
 62
   257
176
     1
 90
        1
176
     1
 90
        1
176
     1
 40
1.0
176
     1
 90
        8
176
     1
 62
     7
176
     1
 40
1.0
176
     1
 90
        1
176
     1
 90
        6
176
     1
 90
        2
176
     1
 62
     7
176
     1
 90
        5
176
     1
 90
        0
176
     1
 90
        0
176
     1
290
     0
176
     1
 90
       13
176
     1
 40
0.0
176
     1
 90
        0
176
     1
290
     0
176
     1
290
     1
176
     1
290
     1
176
     1
290
     0
176
     1
290
     0
176
     1
290
     0
176
     1
290
     0
176
     1
290
     0
176
     1
290
     0
176
     1
 90
       50
176
     1
 40
0.0
176
     1
 40
1.0
176
     1
 90
        0
176
     1
 62
   178
420
        0
176
     1
 90
       50
176
     1
 90
        3
176
     1
 62
     5
420
      255
176
     1
290
     0
176
     1
 90
       50
176
     1
 90
       50
176
     1
 90
       50
176
     1
290
     0
176
     1
 90
       50
176
     1
 62
   256
176
     0
 40
1.0
176
     0
 90
        2
176
     1
  1
strokes_ogs.tif
176
     1
290
     0
176
     1
 40
1.0
176
     1
 40
1.0
176
     1
  0
VISUALSTYLE
  5
1C5
102
{ACAD_REACTORS
330
1C3
102
}
330
1C3
100
AcDbVisualStyle
  2
FlatWithEdges
 70
     1
177
     3
291
     1
 70
    58
 90
        2
176
     1
 90
        1
176
     1
 90
        1
176
     1
 90
        2
176
     1
 40
0.6
176
     1
 40
30.0
176
     1
 62
     7
420
 16777215
176
     1
 90
        1
176
     1
 90
        0
176
     1
 62
     7
176
     1
 62
   257
176
     1
 90
        1
176
     1
 90
        1
176
     1
 40
1.0
176
     1
 90
        0
176
     1
 62
   257
176
     1
 40
1.0
176
     1
 90
        1
176
     1
 90
        6
176
     1
 90
        2
176
     1
 62
     7
176
     1
 90
        5
176
     1
 90
        0
176
     1
 90
        0
176
     1
290
     0
176
     1
 90
       13
176
     1
 40
0.0
176
     1
 90
        0
176
     1
290
     0
176
     1
290
     1
176
     1
290
     1
176
     1
290
     0
176
     1
290
     0
176
     1
290
     0
176
     1
290
     0
176
     1
290
     0
176
     1
290
     0
176
     1
 90
       50
176
     1
 40
0.0
176
     1
 40
1.0
176
     1
 90
        0
176
     1
 62
   178
420
        0
176
     1
 90
       50
176
     1
 90
        3
176
     1
 62
     5
420
      255
176
     1
290
     0
176
     1
 90
       50
176
     1
 90
       50
176
     1
 90
       50
176
     1
290
     0
176
     1
 90
       50
176
     1
 62
   256
176
     0
 40
1.0
176
     0
 90
        2
176
     1
  1
strokes_ogs.tif
176
     1
290
     0
176
     1
 40
1.0
176
     1
 40
1.0
176
     1
  0
VISUALSTYLE
  5
1C6
102
{ACAD_REACTORS
330
1C3
102
}
330
1C3
100
AcDbVisualStyle
  2
Gouraud
 70
     2
177
     3
291
     1
 70
    58
 90
        2
176
     1
 90
        2
176
     1
 90
        1
176
     1
 90
        2
176
     1
 40
0.6
176
     1
 40
30.0
176
     1
 62
     7
420
 16777215
176
     1
 90
        0
176
     1
 90
        0
176
     1
 62
     7
176
     1
 62
   257
176
     1
 90
        1
176
     1
 90
        1
176
     1
 40
1.0
176
     1
 90
        0
176
     1
 62
     7
176
     1
 40
1.0
176
     1
 90
        1
176
     1
 90
        6
176
     1
 90
        2
176
     1
 62
     7
176
     1
 90
        5
176
     1
 90
        0
176
     1
 90
        0
176
     1
290
     0
176
     1
 90
       13
176
     1
 40
0.0
176
     1
 90
        0
176
     1
290
     0
176
     1
290
     1
176
     1
290
     1
176
     1
290
     0
176
     1
290
     0
176
     1
290
     0
176
     1
290
     0
176
     1
290
     0
176
     1
290
     0
176
     1
 90
       50
176
     1
 40
0.0
176
     1
 40
1.0
176
     1
 90
        0
176
     1
 62
   178
420
        0
176
     1
 90
       50
176
     1
 90
        3
176
     1
 62
     5
420
      255
176
     1
290
     0
176
     1
 90
       50
176
     1
 90
       50
176
     1
 90
       50
176
     1
290
     0
176
     1
 90
       50
176
     1
 62
   256
176
     0
 40
1.0
176
     0
 90
        2
176
     1
  1
strokes_ogs.tif
176
     1
290
     0
176
     1
 40
1.0
176
     1
 40
1.0
176
     1
  0
VISUALSTYLE
  5
1C7
102
{ACAD_REACTORS
330
1C3
102
}
330
1C3
100
AcDbVisualStyle
  2
GouraudWithEdges
 70
     3
177
     3
291
     1
 70
    58
 90
        2
176
     1
 90
        2
176
     1
 90
        1
176
     1
 90
        2
176
     1
 40
0.6
176
     1
 40
30.0
176
     1
 62
     7
420
 16777215
176
     1
 90
        1
176
     1
 90
        0
176
     1
 62
     7
176
     1
 62
   257
176
     1
 90
        1
176
     1
 90
        1
176
     1
 40
1.0
176
     1
 90
        0
176
     1
 62
   257
176
     1
 40
1.0
176
     1
 90
        1
176
     1
 90
        6
176
     1
 90
        2
176
     1
 62
     7
176
     1
 90
        5
176
     1
 90
        0
176
     1
 90
        0
176
     1
290
     0
176
     1
 90
       13
176
     1
 40
0.0
176
     1
 90
        0
176
     1
290
     0
176
     1
290
     1
176
     1
290
     1
176
     1
290
     0
176
     1
290
     0
176
     1
290
     0
176
     1
290
     0
176
     1
290
     0
176
     1
290
     0
176
     1
 90
       50
176
     1
 40
0.0
176
     1
 40
1.0
176
     1
 90
        0
176
     1
 62
   178
420
        0
176
     1
 90
       50
176
     1
 90
        3
176
     1
 62
     5
420
      255
176
     1
290
     0
176
     1
 90
       50
176
     1
 90
       50
176
     1
 90
       50
176
     1
290
     0
176
     1
 90
       50
176
     1
 62
   256
176
     0
 40
1.0
176
     0
 90
        2
176
     1
  1
strokes_ogs.tif
176
     1
290
     0
176
     1
 40
1.0
176
     1
 40
1.0
176
     1
  0
VISUALSTYLE
  5
1CA
102
{ACAD_REACTORS
330
1C3
102
}
330
1C3
100
AcDbVisualStyle
  2
Hidden
 70
     6
177
     3
291
     0
 70
    58
 90
        1
176
     1
 90
        2
176
     1
 90
        2
176
     1
 90
        0
176
     1
 40
0.6
176
     1
 40
30.0
176
     1
 62
     7
420
 16777215
176
     1
 90
        2
176
     1
 90
        2
176
     1
 62
     7
176
     1
 62
   257
176
     1
 90
        2
176
     1
 90
        1
176
     1
 40
40.0
176
     1
 90
        0
176
     1
 62
   257
176
     1
 40
1.0
176
     1
 90
        1
176
     1
 90
        6
176
     1
 90
        2
176
     1
 62
     7
176
     1
 90
        3
176
     1
 90
        0
176
     1
 90
        0
176
     1
290
     0
176
     1
 90
        1
176
     1
 40
0.0
176
     1
 90
        0
176
     1
290
     0
176
     1
290
     1
176
     1
290
     1
176
     1
290
     0
176
     1
290
     0
176
     1
290
     0
176
     1
290
     0
176
     1
290
     0
176
     1
290
     0
176
     1
 90
       50
176
     1
 40
0.0
176
     1
 40
1.0
176
     1
 90
        0
176
     1
 62
   178
420
        0
176
     1
 90
       50
176
     1
 90
        3
176
     1
 62
     5
420
      255
176
     1
290
     0
176
     1
 90
       50
176
     1
 90
       50
176
     1
 90
       50
176
     1
290
     0
176
     1
 90
       50
176
     1
 62
   256
176
     0
 40
1.0
176
     0
 90
        2
176
     1
  1
strokes_ogs.tif
176
     1
290
     0
176
     1
 40
1.0
176
     1
 40
1.0
176
     1
  0
VISUALSTYLE
  5
1D4
102
{ACAD_REACTORS
330
1C3
102
}
330
1C3
100
AcDbVisualStyle
  2
JitterOff
 70
    20
177
     3
291
     1
 70
    58
 90
        2
176
     0
 90
        2
176
     0
 90
        0
176
     0
 90
        0
176
     0
 40
0.6
176
     0
 40
30.0
176
     0
 62
     7
420
 16777215
176
     0
 90
        1
176
     0
 90
        4
176
     0
 62
     7
176
     0
 62
   257
176
     0
 90
        1
176
     0
 90
        1
176
     0
 40
1.0
176
     0
 90
       10
176
     2
 62
     7
176
     0
 40
1.0
176
     0
 90
        1
176
     0
 90
        6
176
     0
 90
        2
176
     0
 62
     7
176
     0
 90
        5
176
     0
 90
        0
176
     0
 90
        0
176
     0
290
     0
176
     0
 90
        1
176
     0
 40
0.0
176
     0
 90
        0
176
     0
290
     0
176
     0
290
     1
176
     0
290
     1
176
     0
290
     0
176
     0
290
     0
176
     0
290
     0
176
     0
290
     0
176
     0
290
     0
176
     0
290
     0
176
     0
 90
       50
176
     0
 40
0.0
176
     0
 40
1.0
176
     0
 90
        0
176
     0
 62
   178
420
        0
176
     0
 90
       50
176
     0
 90
        3
176
     0
 62
     5
420
      255
176
     0
290
     0
176
     0
 90
       50
176
     0
 90
       50
176
     0
 90
       50
176
     0
290
     0
176
     0
 90
       50
176
     0
 62
   256
176
     0
 40
1.0
176
     0
 90
        2
176
     0
  1
strokes_ogs.tif
176
     0
290
     0
176
     0
 40
1.0
176
     0
 40
1.0
176
     0
  0
VISUALSTYLE
  5
1D1
102
{ACAD_REACTORS
330
1C3
102
}
330
1C3
100
AcDbVisualStyle
  2
Linepattern
 70
    14
177
     3
291
     1
 70
    58
 90
        2
176
     1
 90
        2
176
     1
 90
        0
176
     1
 90
        0
176
     1
 40
0.6
176
     1
 40
30.0
176
     1
 62
     7
420
 16777215
176
     1
 90
        1
176
     1
 90
        4
176
     1
 62
     7
176
     1
 62
   257
176
     1
 90
        7
176
     1
 90
        7
176
     1
 40
1.0
176
     1
 90
        8
176
     1
 62
     7
176
     1
 40
1.0
176
     1
 90
        1
176
     1
 90
        6
176
     1
 90
        2
176
     1
 62
     7
176
     1
 90
        5
176
     1
 90
        0
176
     1
 90
        0
176
     1
290
     0
176
     1
 90
        1
176
     1
 40
0.0
176
     1
 90
        0
176
     1
290
     0
176
     1
290
     1
176
     1
290
     1
176
     1
290
     0
176
     1
290
     0
176
     1
290
     0
176
     1
290
     0
176
     1
290
     0
176
     1
290
     0
176
     1
 90
       50
176
     1
 40
0.0
176
     1
 40
1.0
176
     1
 90
        0
176
     1
 62
   178
420
        0
176
     1
 90
       50
176
     1
 90
        3
176
     1
 62
     5
420
      255
176
     1
290
     0
176
     1
 90
       50
176
     1
 90
       50
176
     1
 90
       50
176
     1
290
     0
176
     1
 90
       50
176
     1
 62
   256
176
     0
 40
1.0
176
     0
 90
        2
176
     1
  1
strokes_ogs.tif
176
     1
290
     0
176
     1
 40
1.0
176
     1
 40
1.0
176
     1
  0
VISUALSTYLE
  5
1D5
102
{ACAD_REACTORS
330
1C3
102
}
330
1C3
100
AcDbVisualStyle
  2
OverhangOff
 70
    21
177
     3
291
     1
 70
    58
 90
        2
176
     0
 90
        2
176
     0
 90
        0
176
     0
 90
        0
176
     0
 40
0.6
176
     0
 40
30.0
176
     0
 62
     7
420
 16777215
176
     0
 90
        1
176
     0
 90
        4
176
     0
 62
     7
176
     0
 62
   257
176
     0
 90
        1
176
     0
 90
        1
176
     0
 40
1.0
176
     0
 90
        9
176
     2
 62
     7
176
     0
 40
1.0
176
     0
 90
        1
176
     0
 90
        6
176
     0
 90
        2
176
     0
 62
     7
176
     0
 90
        5
176
     0
 90
        0
176
     0
 90
        0
176
     0
290
     0
176
     0
 90
        1
176
     0
 40
0.0
176
     0
 90
        0
176
     0
290
     0
176
     0
290
     1
176
     0
290
     1
176
     0
290
     0
176
     0
290
     0
176
     0
290
     0
176
     0
290
     0
176
     0
290
     0
176
     0
290
     0
176
     0
 90
       50
176
     0
 40
0.0
176
     0
 40
1.0
176
     0
 90
        0
176
     0
 62
   178
420
        0
176
     0
 90
       50
176
     0
 90
        3
176
     0
 62
     5
420
      255
176
     0
290
     0
176
     0
 90
       50
176
     0
 90
       50
176
     0
 90
       50
176
     0
290
     0
176
     0
 90
       50
176
     0
 62
   256
176
     0
 40
1.0
176
     0
 90
        2
176
     0
  1
strokes_ogs.tif
176
     0
290
     0
176
     0
 40
1.0
176
     0
 40
1.0
176
     0
  0
VISUALSTYLE
  5
1CC
102
{ACAD_REACTORS
330
1C3
102
}
330
1C3
100
AcDbVisualStyle
  2
Realistic
 70
     8
177
     3
291
     0
 70
    58
 90
        2
176
     1
 90
        3
176
     1
 90
        0
176
     1
 90
        2
176
     1
 40
0.6
176
     1
 40
30.0
176
     1
 62
     7
420
 16777215
176
     1
 90
        0
176
     1
 90
        0
176
     1
 62
     7
176
     1
 62
   257
176
     1
 90
        1
176
     1
 90
        1
176
     1
 40
1.0
176
     1
 90
        8
176
     1
 62
   257
176
     1
 40
1.0
176
     1
 90
        1
176
     1
 90
        6
176
     1
 90
        2
176
     1
 62
     7
176
     1
 90
        3
176
     1
 90
        0
176
     1
 90
        0
176
     1
290
     0
176
     1
 90
       13
176
     1
 40
0.0
176
     1
 90
        0
176
     1
290
     0
176
     1
290
     1
176
     1
290
     1
176
     1
290
     0
176
     1
290
     0
176
     1
290
     0
176
     1
290
     0
176
     1
290
     0
176
     1
290
     0
176
     1
 90
       50
176
     1
 40
0.0
176
     1
 40
1.0
176
     1
 90
        0
176
     1
 62
   178
420
        0
176
     1
 90
       50
176
     1
 90
        3
176
     1
 62
     5
420
      255
176
     1
290
     0
176
     1
 90
       50
176
     1
 90
       50
176
     1
 90
       50
176
     1
290
     0
176
     1
 90
       50
176
     1
 62
   256
176
     0
 40
1.0
176
     0
 90
        2
176
     1
  1
strokes_ogs.tif
176
     1
290
     0
176
     1
 40
1.0
176
     1
 40
1.0
176
     1
  0
VISUALSTYLE
  5
1DB
102
{ACAD_REACTORS
330
1C3
102
}
330
1C3
100
AcDbVisualStyle
  2
Shaded
 70
    27
177
     3
291
     0
 70
    58
 90
        2
176
     1
 90
        2
176
     1
 90
        1
176
     1
 90
        2
176
     1
 40
0.6
176
     1
 40
30.0
176
     1
 62
     7
420
 16777215
176
     1
 90
        0
176
     1
 90
        4
176
     1
 62
     7
176
     1
 62
   257
176
     1
 90
        1
176
     1
 90
        1
176
     1
 40
1.0
176
     1
 90
        8
176
     1
 62
   257
176
     1
 40
1.0
176
     1
 90
        1
176
     1
 90
        6
176
     1
 90
        2
176
     1
 62
     8
420
  7895160
176
     1
 90
        3
176
     1
 90
        0
176
     1
 90
        0
176
     1
290
     0
176
     1
 90
        5
176
     1
 40
0.0
176
     1
 90
        0
176
     1
290
     0
176
     1
290
     1
176
     1
290
     1
176
     1
290
     0
176
     1
290
     0
176
     1
290
     0
176
     1
290
     0
176
     1
290
     0
176
     1
290
     0
176
     1
 90
       50
176
     1
 40
0.0
176
     1
 40
1.0
176
     1
 90
        0
176
     1
 62
   178
420
        0
176
     1
 90
       50
176
     1
 90
        3
176
     1
 62
     5
420
      255
176
     1
290
     0
176
     1
 90
       50
176
     1
 90
       50
176
     1
 90
       50
176
     1
290
     0
176
     1
 90
       50
176
     1
 62
   256
176
     0
 40
1.0
176
     0
 90
        2
176
     1
  1
strokes_ogs.tif
176
     1
290
     0
176
     1
 40
1.0
176
     1
 40
1.0
176
     1
  0
VISUALSTYLE
  5
1DA
102
{ACAD_REACTORS
330
1C3
102
}
330
1C3
100
AcDbVisualStyle
  2
Shaded with edges
 70
    26
177
     3
291
     0
 70
    58
 90
        2
176
     1
 90
        2
176
     1
 90
        1
176
     1
 90
        2
176
     1
 40
0.6
176
     1
 40
30.0
176
     1
 62
     7
420
 16777215
176
     1
 90
        1
176
     1
 90
       10
176
     1
 62
     7
176
     1
 62
   257
176
     1
 90
        2
176
     1
 90
        1
176
     1
 40
1.0
176
     1
 90
        8
176
     1
 62
   257
176
     1
 40
1.0
176
     1
 90
        1
176
     1
 90
        6
176
     1
 90
        2
176
     1
 62
     7
176
     1
 90
        3
176
     1
 90
        0
176
     1
 90
        0
176
     1
290
     0
176
     1
 90
        5
176
     1
 40
0.0
176
     1
 90
        0
176
     1
290
     0
176
     1
290
     1
176
     1
290
     1
176
     1
290
     0
176
     1
290
     0
176
     1
290
     0
176
     1
290
     0
176
     1
290
     0
176
     1
290
     0
176
     1
 90
       50
176
     1
 40
0.0
176
     1
 40
1.0
176
     1
 90
        0
176
     1
 62
   178
420
        0
176
     1
 90
       50
176
     1
 90
        3
176
     1
 62
     5
420
      255
176
     1
290
     0
176
     1
 90
       50
176
     1
 90
       50
176
     1
 90
       50
176
     1
290
     0
176
     1
 90
       50
176
     1
 62
   256
176
     0
 40
1.0
176
     0
 90
        2
176
     1
  1
strokes_ogs.tif
176
     1
290
     0
176
     1
 40
1.0
176
     1
 40
1.0
176
     1
  0
VISUALSTYLE
  5
1D7
102
{ACAD_REACTORS
330
1C3
102
}
330
1C3
100
AcDbVisualStyle
  2
Shades of Gray
 70
    23
177
     3
291
     0
 70
    58
 90
        2
176
     1
 90
        2
176
     1
 90
        3
176
     1
 90
        0
176
     1
 40
0.6
176
     1
 40
30.0
176
     1
 62
     7
420
 16777215
176
     1
 90
        2
176
     1
 90
        2
176
     1
 62
     7
176
     1
 62
     7
176
     1
 90
        1
176
     1
 90
        1
176
     1
 40
40.0
176
     1
 90
        8
176
     1
 62
     7
176
     1
 40
1.0
176
     1
 90
        1
176
     1
 90
        6
176
     1
 90
        2
176
     1
 62
     7
176
     1
 90
        3
176
     1
 90
        0
176
     1
 90
        0
176
     1
290
     0
176
     1
 90
        1
176
     1
 40
0.0
176
     1
 90
        0
176
     1
290
     0
176
     1
290
     1
176
     1
290
     1
176
     1
290
     0
176
     1
290
     0
176
     1
290
     0
176
     1
290
     0
176
     1
290
     0
176
     1
290
     0
176
     1
 90
       50
176
     1
 40
0.0
176
     1
 40
1.0
176
     1
 90
        0
176
     1
 62
   178
420
        0
176
     1
 90
       50
176
     1
 90
        3
176
     1
 62
     5
420
      255
176
     1
290
     0
176
     1
 90
       50
176
     1
 90
       50
176
     1
 90
       50
176
     1
290
     0
176
     1
 90
       50
176
     1
 62
   256
176
     0
 40
1.0
176
     0
 90
        2
176
     1
  1
strokes_ogs.tif
176
     1
290
     0
176
     1
 40
1.0
176
     1
 40
1.0
176
     1
  0
VISUALSTYLE
  5
1D8
102
{ACAD_REACTORS
330
1C3
102
}
330
1C3
100
AcDbVisualStyle
  2
Sketchy
 70
    24
177
     3
291
     0
 70
    58
 90
        1
176
     1
 90
        2
176
     1
 90
        2
176
     1
 90
        0
176
     1
 40
0.6
176
     1
 40
30.0
176
     1
 62
     7
420
 16777215
176
     1
 90
        2
176
     1
 90
        2
176
     1
 62
     7
176
     1
 62
     7
176
     1
 90
        1
176
     1
 90
        1
176
     1
 40
40.0
176
     1
 90
       11
176
     1
 62
     7
176
     1
 40
1.0
176
     1
 90
        1
176
     1
 90
        6
176
     1
 90
        2
176
     1
 62
     7
176
     1
 90
        6
176
     1
 90
        0
176
     1
 90
        0
176
     1
290
     0
176
     1
 90
        1
176
     1
 40
0.0
176
     1
 90
        0
176
     1
290
     0
176
     1
290
     1
176
     1
290
     1
176
     1
290
     0
176
     1
290
     0
176
     1
290
     0
176
     1
290
     0
176
     1
290
     0
176
     1
290
     0
176
     1
 90
       50
176
     1
 40
0.0
176
     1
 40
1.0
176
     1
 90
        0
176
     1
 62
   178
420
        0
176
     1
 90
       50
176
     1
 90
        3
176
     1
 62
     5
420
      255
176
     1
290
     0
176
     1
 90
       50
176
     1
 90
       50
176
     1
 90
       50
176
     1
290
     0
176
     1
 90
       50
176
     1
 62
   256
176
     0
 40
1.0
176
     0
 90
        2
176
     1
  1
strokes_ogs.tif
176
     1
290
     0
176
     1
 40
1.0
176
     1
 40
1.0
176
     1
  0
VISUALSTYLE
  5
1D0
102
{ACAD_REACTORS
330
1C3
102
}
330
1C3
100
AcDbVisualStyle
  2
Thicken
 70
    13
177
     3
291
     1
 70
    58
 90
        2
176
     1
 90
        2
176
     1
 90
        0
176
     1
 90
        0
176
     1
 40
0.6
176
     1
 40
30.0
176
     1
 62
     7
420
 16777215
176
     1
 90
        1
176
     1
 90
        4
176
     1
 62
     7
176
     1
 62
   257
176
     1
 90
        1
176
     1
 90
        1
176
     1
 40
1.0
176
     1
 90
       12
176
     1
 62
     7
176
     1
 40
1.0
176
     1
 90
        1
176
     1
 90
        6
176
     1
 90
        2
176
     1
 62
     7
176
     1
 90
        5
176
     1
 90
        0
176
     1
 90
        0
176
     1
290
     0
176
     1
 90
        1
176
     1
 40
0.0
176
     1
 90
        0
176
     1
290
     0
176
     1
290
     1
176
     1
290
     1
176
     1
290
     0
176
     1
290
     0
176
     1
290
     0
176
     1
290
     0
176
     1
290
     0
176
     1
290
     0
176
     1
 90
       50
176
     1
 40
0.0
176
     1
 40
1.0
176
     1
 90
        0
176
     1
 62
   178
420
        0
176
     1
 90
       50
176
     1
 90
        3
176
     1
 62
     5
420
      255
176
     1
290
     0
176
     1
 90
       50
176
     1
 90
       50
176
     1
 90
       50
176
     1
290
     0
176
     1
 90
       50
176
     1
 62
   256
176
     0
 40
1.0
176
     0
 90
        2
176
     1
  1
strokes_ogs.tif
176
     1
290
     0
176
     1
 40
1.0
176
     1
 40
1.0
176
     1
  0
VISUALSTYLE
  5
1C9
102
{ACAD_REACTORS
330
1C3
102
}
330
1C3
100
AcDbVisualStyle
  2
Wireframe
 70
     5
177
     3
291
     0
 70
    58
 90
        0
176
     1
 90
        2
176
     1
 90
        0
176
     1
 90
        0
176
     1
 40
0.6
176
     1
 40
30.0
176
     1
 62
     7
420
 16777215
176
     1
 90
        1
176
     1
 90
        4
176
     1
 62
     7
176
     1
 62
   257
176
     1
 90
        1
176
     1
 90
        1
176
     1
 40
1.0
176
     1
 90
        0
176
     1
 62
   257
176
     1
 40
1.0
176
     1
 90
        1
176
     1
 90
        6
176
     1
 90
        2
176
     1
 62
     7
176
     1
 90
        3
176
     1
 90
        0
176
     1
 90
        0
176
     1
290
     0
176
     1
 90
        1
176
     1
 40
0.0
176
     1
 90
        0
176
     1
290
     0
176
     1
290
     1
176
     1
290
     1
176
     1
290
     0
176
     1
290
     0
176
     1
290
     0
176
     1
290
     0
176
     1
290
     0
176
     1
290
     0
176
     1
 90
       50
176
     1
 40
0.0
176
     1
 40
1.0
176
     1
 90
        0
176
     1
 62
   178
420
        0
176
     1
 90
       50
176
     1
 90
        3
176
     1
 62
     5
420
      255
176
     1
290
     0
176
     1
 90
       50
176
     1
 90
       50
176
     1
 90
       50
176
     1
290
     0
176
     1
 90
       50
176
     1
 62
   256
176
     0
 40
1.0
176
     0
 90
        2
176
     1
  1
strokes_ogs.tif
176
     1
290
     0
176
     1
 40
1.0
176
     1
 40
1.0
176
     1
  0
VISUALSTYLE
  5
1D9
102
{ACAD_REACTORS
330
1C3
102
}
330
1C3
100
AcDbVisualStyle
  2
X-Ray
 70
    25
177
     3
291
     0
 70
    58
 90
        2
176
     1
 90
        2
176
     1
 90
        1
176
     1
 90
        1
176
     1
 40
0.5
176
     1
 40
30.0
176
     1
 62
     7
420
 16777215
176
     1
 90
        1
176
     1
 90
        0
176
     1
 62
     7
176
     1
 62
   257
176
     1
 90
        1
176
     1
 90
        1
176
     1
 40
1.0
176
     1
 90
        8
176
     1
 62
     7
176
     1
 40
1.0
176
     1
 90
        1
176
     1
 90
        6
176
     1
 90
        2
176
     1
 62
     7
176
     1
 90
        3
176
     1
 90
        0
176
     1
 90
        0
176
     1
290
     0
176
     1
 90
       13
176
     1
 40
0.0
176
     1
 90
        0
176
     1
290
     0
176
     1
290
     1
176
     1
290
     1
176
     1
290
     0
176
     1
290
     0
176
     1
290
     0
176
     1
290
     0
176
     1
290
     0
176
     1
290
     0
176
     1
 90
       50
176
     1
 40
0.0
176
     1
 40
1.0
176
     1
 90
        0
176
     1
 62
   178
420
        0
176
     1
 90
       50
176
     1
 90
        3
176
     1
 62
     5
420
      255
176
     1
290
     0
176
     1
 90
       50
176
     1
 90
       50
176
     1
 90
       50
176
     1
290
     0
176
     1
 90
       50
176
     1
 62
   256
176
     0
 40
1.0
176
     0
 90
        2
176
     1
  1
strokes_ogs.tif
176
     1
290
     0
176
     1
 40
1.0
176
     1
 40
1.0
176
     1
  0
DICTIONARYVAR
  5
34B
102
{ACAD_REACTORS
330
34A
102
}
330
34A
100
DictionaryVariables
280
     0
  1
1:1
  0
DICTIONARYVAR
  5
350
102
{ACAD_REACTORS
330
34A
102
}
330
34A
100
DictionaryVariables
280
     0
  1
Standard
  0
DICTIONARYVAR
  5
34F
102
{ACAD_REACTORS
330
34A
102
}
330
34A
100
DictionaryVariables
280
     0
  1
Standard
  0
XRECORD
  5
20A
102
{ACAD_REACTORS
330
208
102
}
330
208
100
AcDbXrecord
280
     1
 90
        0
  0
XRECORD
  5
20B
102
{ACAD_REACTORS
330
208
102
}
330
208
100
AcDbXrecord
280
     1
 90
        0
  0
XRECORD
  5
20C
102
{ACAD_REACTORS
330
208
102
}
330
208
100
AcDbXrecord
280
     1
1000
Standard
  0
XRECORD
  5
20D
102
{ACAD_REACTORS
330
208
102
}
330
208
100
AcDbXrecord
280
     1
290
     1
  0
XRECORD
  5
20E
102
{ACAD_REACTORS
330
208
102
}
330
208
100
AcDbXrecord
280
     1
 90
        2
  0
XRECORD
  5
20F
102
{ACAD_REACTORS
330
208
102
}
330
208
100
AcDbXrecord
280
     1
 90
        4
  0
XRECORD
  5
210
102
{ACAD_REACTORS
330
208
102
}
330
208
100
AcDbXrecord
280
     1
290
     1
  0
XRECORD
  5
211
102
{ACAD_REACTORS
330
208
102
}
330
208
100
AcDbXrecord
280
     1
290
     1
  0
XRECORD
  5
212
102
{ACAD_REACTORS
330
208
102
}
330
208
100
AcDbXrecord
280
     1
290
     1
  0
XRECORD
  5
213
102
{ACAD_REACTORS
330
208
102
}
330
208
100
AcDbXrecord
280
     1
290
     1
  0
XRECORD
  5
214
102
{ACAD_REACTORS
330
208
102
}
330
208
100
AcDbXrecord
280
     1
1000
auto
  0
XRECORD
  5
215
102
{ACAD_REACTORS
330
208
102
}
330
208
100
AcDbXrecord
280
     1
1000
auto
  0
XRECORD
  5
216
102
{ACAD_REACTORS
330
208
102
}
330
208
100
AcDbXrecord
280
     1
1000
auto
  0
XRECORD
  5
217
102
{ACAD_REACTORS
330
208
102
}
330
208
100
AcDbXrecord
280
     1
1000
auto
  0
XRECORD
  5
218
102
{ACAD_REACTORS
330
208
102
}
330
208
100
AcDbXrecord
280
     1
1000
auto
  0
XRECORD
  5
219
102
{ACAD_REACTORS
330
208
102
}
330
208
100
AcDbXrecord
280
     1
1000
auto
  0
XRECORD
  5
21A
102
{ACAD_REACTORS
330
208
102
}
330
208
100
AcDbXrecord
280
     1
1000
auto
  0
XRECORD
  5
21B
102
{ACAD_REACTORS
330
208
102
}
330
208
100
AcDbXrecord
280
     1
1000
auto
  0
XRECORD
  5
21C
102
{ACAD_REACTORS
330
208
102
}
330
208
100
AcDbXrecord
280
     1
290
     0
  0
XRECORD
  5
21D
102
{ACAD_REACTORS
330
208
102
}
330
208
100
AcDbXrecord
280
     1
290
     0
  0
XRECORD
  5
21E
102
{ACAD_REACTORS
330
208
102
}
330
208
100
AcDbXrecord
280
     1
290
     0
  0
XRECORD
  5
21F
102
{ACAD_REACTORS
330
208
102
}
330
208
100
AcDbXrecord
280
     1
290
     0
  0
XRECORD
  5
220
102
{ACAD_REACTORS
330
208
102
}
330
208
100
AcDbXrecord
280
     1
 90
        0
  0
XRECORD
  5
221
102
{ACAD_REACTORS
330
208
102
}
330
208
100
AcDbXrecord
280
     1
 90
        0
  0
XRECORD
  5
222
102
{ACAD_REACTORS
330
208
102
}
330
208
100
AcDbXrecord
280
     1
 90
        0
  0
XRECORD
  5
223
102
{ACAD_REACTORS
330
208
102
}
330
208
100
AcDbXrecord
280
     1
 90
        0
  0
XRECORD
  5
224
102
{ACAD_REACTORS
330
208
102
}
330
208
100
AcDbXrecord
280
     1
1000
auto
  0
XRECORD
  5
225
102
{ACAD_REACTORS
330
208
102
}
330
208
100
AcDbXrecord
280
     1
1000
auto
  0
XRECORD
  5
226
102
{ACAD_REACTORS
330
208
102
}
330
208
100
AcDbXrecord
280
     1
1000
auto
  0
XRECORD
  5
227
102
{ACAD_REACTORS
330
208
102
}
330
208
100
AcDbXrecord
280
     1
1000
auto
  0
XRECORD
  5
228
102
{ACAD_REACTORS
330
208
102
}
330
208
100
AcDbXrecord
280
     1
1000
auto
  0
XRECORD
  5
229
102
{ACAD_REACTORS
330
208
102
}
330
208
100
AcDbXrecord
280
     1
1000
auto
  0
XRECORD
  5
22A
102
{ACAD_REACTORS
330
208
102
}
330
208
100
AcDbXrecord
280
     1
1000
auto
  0
XRECORD
  5
22B
102
{ACAD_REACTORS
330
208
102
}
330
208
100
AcDbXrecord
280
     1
1000
auto
  0
XRECORD
  5
22C
102
{ACAD_REACTORS
330
208
102
}
330
208
100
AcDbXrecord
280
     1
 90
        1
  0
XRECORD
  5
22D
102
{ACAD_REACTORS
330
208
102
}
330
208
100
AcDbXrecord
280
     1
 40
10.0
  0
XRECORD
  5
22E
102
{ACAD_REACTORS
330
208
102
}
330
208
100
AcDbXrecord
280
     1
 40
10.0
  0
XRECORD
  5
22F
102
{ACAD_REACTORS
330
208
102
}
330
208
100
AcDbXrecord
280
     1
 40
10.0
  0
XRECORD
  5
230
102
{ACAD_REACTORS
330
208
102
}
330
208
100
AcDbXrecord
280
     1
 40
10.0
  0
XRECORD
  5
231
102
{ACAD_REACTORS
330
208
102
}
330
208
100
AcDbXrecord
280
     1
290
     0
  0
XRECORD
  5
232
102
{ACAD_REACTORS
330
208
102
}
330
208
100
AcDbXrecord
280
     1
 90
        1
  0
XRECORD
  5
233
102
{ACAD_REACTORS
330
208
102
}
330
208
100
AcDbXrecord
280
     1
 40
0.0
  0
XRECORD
  5
234
102
{ACAD_REACTORS
330
208
102
}
330
208
100
AcDbXrecord
280
     1
 40
0.0
  0
XRECORD
  5
235
102
{ACAD_REACTORS
330
208
102
}
330
208
100
AcDbXrecord
280
     1
1000
Portrait
  0
XRECORD
  5
236
102
{ACAD_REACTORS
330
208
102
}
330
208
100
AcDbXrecord
280
     1
 40
297.0
  0
XRECORD
  5
237
102
{ACAD_REACTORS
330
208
102
}
330
208
100
AcDbXrecord
280
     1
 40
210.0
  0
XRECORD
  5
238
102
{ACAD_REACTORS
330
208
102
}
330
208
100
AcDbXrecord
280
     1
1000
1:1
  0
XRECORD
  5
239
102
{ACAD_REACTORS
330
208
102
}
330
208
100
AcDbXrecord
280
     1
290
     1
  0
XRECORD
  5
23A
102
{ACAD_REACTORS
330
208
102
}
330
208
100
AcDbXrecord
280
     1
1000
3.9.1
  0
XRECORD
  5
23B
102
{ACAD_REACTORS
330
208
102
}
330
208
100
AcDbXrecord
280
     1
 90
        4
  0
DICTIONARY
  5
34C
330
203
100
AcDbDictionary
280
     1
281
     1
  3
ACAD_ROUNDTRIP_2008_TABLESTYLE_CELLSTYLEMAP
360
34D
  0
CELLSTYLEMAP
  5
34D
102
{ACAD_REACTORS
330
34C
102
}
330
34C
100
AcDbCellStyleMap
 90
        3
300
CELLSTYLE
  1
TABLEFORMAT_BEGIN
 90
        5
170
     1
 91
        0
 92
    32768
 62
   257
 93
        1
300
CONTENTFORMAT
  1
CONTENTFORMAT_BEGIN
 90
        0
 91
        0
 92
        4
 93
        0
300

 40
0.0
140
1.0
 94
        5
 62
     0
340
1AB
144
0.25
309
CONTENTFORMAT_END
171
     1
301
MARGIN
  1
CELLMARGIN_BEGIN
 40
0.06
 40
0.06
 40
0.06
 40
0.06
 40
0.06
 40
0.06
309
CELLMARGIN_END
 94
        6
 95
        1
302
GRIDFORMAT
  1
GRIDFORMAT_BEGIN
 90
        0
 91
        1
 62
     0
 92
       -2
340
1AD
 93
        0
 40
0.045
309
GRIDFORMAT_END
 95
        2
302
GRIDFORMAT
  1
GRIDFORMAT_BEGIN
 90
        0
 91
        1
 62
     0
 92
       -2
340
1AD
 93
        0
 40
0.045
309
GRIDFORMAT_END
 95
        4
302
GRIDFORMAT
  1
GRIDFORMAT_BEGIN
 90
        0
 91
        1
 62
     0
 92
       -2
340
1AD
 93
        0
 40
0.045
309
GRIDFORMAT_END
 95
        8
302
GRIDFORMAT
  1
GRIDFORMAT_BEGIN
 90
        0
 91
        1
 62
     0
 92
       -2
340
1AD
 93
        0
 40
0.045
309
GRIDFORMAT_END
 95
       16
302
GRIDFORMAT
  1
GRIDFORMAT_BEGIN
 90
        0
 91
        1
 62
     0
 92
       -2
340
1AD
 93
        0
 40
0.045
309
GRIDFORMAT_END
 95
       32
302
GRIDFORMAT
  1
GRIDFORMAT_BEGIN
 90
        0
 91
        1
 62
     0
 92
       -2
340
1AD
 93
        0
 40
0.045
309
GRIDFORMAT_END
309
TABLEFORMAT_END
  1
CELLSTYLE_BEGIN
 90
        1
 91
        1
300
_TITLE
309
CELLSTYLE_END
300
CELLSTYLE
  1
TABLEFORMAT_BEGIN
 90
        5
170
     1
 91
        0
 92
        0
 62
   257
 93
        1
300
CONTENTFORMAT
  1
CONTENTFORMAT_BEGIN
 90
        0
 91
        0
 92
        4
 93
        0
300

 40
0.0
140
1.0
 94
        5
 62
     0
340
1AB
144
0.18
309
CONTENTFORMAT_END
171
     1
301
MARGIN
  1
CELLMARGIN_BEGIN
 40
0.06
 40
0.06
 40
0.06
 40
0.06
 40
0.06
 40
0.06
309
CELLMARGIN_END
 94
        6
 95
        1
302
GRIDFORMAT
  1
GRIDFORMAT_BEGIN
 90
        0
 91
        1
 62
     0
 92
       -2
340
1AD
 93
        0
 40
0.045
309
GRIDFORMAT_END
 95
        2
302
GRIDFORMAT
  1
GRIDFORMAT_BEGIN
 90
        0
 91
        1
 62
     0
 92
       -2
340
1AD
 93
        0
 40
0.045
309
GRIDFORMAT_END
 95
        4
302
GRIDFORMAT
  1
GRIDFORMAT_BEGIN
 90
        0
 91
        1
 62
     0
 92
       -2
340
1AD
 93
        0
 40
0.045
309
GRIDFORMAT_END
 95
        8
302
GRIDFORMAT
  1
GRIDFORMAT_BEGIN
 90
        0
 91
        1
 62
     0
 92
       -2
340
1AD
 93
        0
 40
0.045
309
GRIDFORMAT_END
 95
       16
302
GRIDFORMAT
  1
GRIDFORMAT_BEGIN
 90
        0
 91
        1
 62
     0
 92
       -2
340
1AD
 93
        0
 40
0.045
309
GRIDFORMAT_END
 95
       32
302
GRIDFORMAT
  1
GRIDFORMAT_BEGIN
 90
        0
 91
        1
 62
     0
 92
       -2
340
1AD
 93
        0
 40
0.045
309
GRIDFORMAT_END
309
TABLEFORMAT_END
  1
CELLSTYLE_BEGIN
 90
        2
 91
        1
300
_HEADER
309
CELLSTYLE_END
300
CELLSTYLE
  1
TABLEFORMAT_BEGIN
 90
        5
170
     1
 91
        0
 92
        0
 62
   257
 93
        1
300
CONTENTFORMAT
  1
CONTENTFORMAT_BEGIN
 90
        0
 91
        0
 92
        4
 93
        0
300

 40
0.0
140
1.0
 94
        2
 62
     0
340
1AB
144
0.18
309
CONTENTFORMAT_END
171
     1
301
MARGIN
  1
CELLMARGIN_BEGIN
 40
0.06
 40
0.06
 40
0.06
 40
0.06
 40
0.06
 40
0.06
309
CELLMARGIN_END
 94
        6
 95
        1
302
GRIDFORMAT
  1
GRIDFORMAT_BEGIN
 90
        0
 91
        1
 62
     0
 92
       -2
340
1AD
 93
        0
 40
0.045
309
GRIDFORMAT_END
 95
        2
302
GRIDFORMAT
  1
GRIDFORMAT_BEGIN
 90
        0
 91
        1
 62
     0
 92
       -2
340
1AD
 93
        0
 40
0.045
309
GRIDFORMAT_END
 95
        4
302
GRIDFORMAT
  1
GRIDFORMAT_BEGIN
 90
        0
 91
        1
 62
     0
 92
       -2
340
1AD
 93
        0
 40
0.045
309
GRIDFORMAT_END
 95
        8
302
GRIDFORMAT
  1
GRIDFORMAT_BEGIN
 90
        0
 91
        1
 62
     0
 92
       -2
340
1AD
 93
        0
 40
0.045
309
GRIDFORMAT_END
 95
       16
302
GRIDFORMAT
  1
GRIDFORMAT_BEGIN
 90
        0
 91
        1
 62
     0
 92
       -2
340
1AD
 93
        0
 40
0.045
309
GRIDFORMAT_END
 95
       32
302
GRIDFORMAT
  1
GRIDFORMAT_BEGIN
 90
        0
 91
        1
 62
     0
 92
       -2
340
1AD
 93
        0
 40
0.045
309
GRIDFORMAT_END
309
TABLEFORMAT_END
  1
CELLSTYLE_BEGIN
 90
        3
 91
        2
300
_DATA
309
CELLSTYLE_END
  0
ENDSEC
  0
EOF
