  0
SECTION
  2
HEADER
  9
$ACADVER
  1
AC1027
  9
$ACADMAINTVER
 70
     8
  9
$DWGCODEPAGE
  3
ANSI_1252
  9
$REQUIREDVERSIONS
160
                 0
  9
$INSBASE
 10
0.0
 20
0.0
 30
0.0
  9
$EXTMIN
 10
1.000000000000000E+20
 20
1.000000000000000E+20
 30
1.000000000000000E+20
  9
$EXTMAX
 10
-1.000000000000000E+20
 20
-1.000000000000000E+20
 30
-1.000000000000000E+20
  9
$LIMMIN
 10
0.0
 20
0.0
  9
$LIMMAX
 10
12.0
 20
9.0
  9
$ORTHOMODE
 70
     0
  9
$REGENMODE
 70
     1
  9
$FILLMODE
 70
     1
  9
$QTEXTMODE
 70
     0
  9
$MIRRTEXT
 70
     1
  9
$LTSCALE
 40
1.0
  9
$ATTMODE
 70
     1
  9
$TEXTSIZE
 40
0.2
  9
$TRACEWID
 40
0.05
  9
$TEXTSTYLE
  7
Standard
  9
$CLAYER
  8
0
  9
$CELTYPE
  6
ByLayer
  9
$CECOLOR
 62
   178
  9
$CELTSCALE
 40
1.0
  9
$DISPSILH
 70
     0
  9
$DIMSCALE
 40
1.0
  9
$DIMASZ
 40
20.0
  9
$DIMEXO
 40
5.0
  9
$DIMDLI
 40
0.38
  9
$DIMRND
 40
0.0
  9
$DIMDLE
 40
0.0
  9
$DIMEXE
 40
10.0
  9
$DIMTP
 40
0.0
  9
$DIMTM
 40
0.0
  9
$DIMTXT
 40
20.0
  9
$DIMCEN
 40
0.09
  9
$DIMTSZ
 40
20.0
  9
$DIMTOL
 70
     0
  9
$DIMLIM
 70
     0
  9
$DIMTIH
 70
     1
  9
$DIMTOH
 70
     1
  9
$DIMSE1
 70
     0
  9
$DIMSE2
 70
     0
  9
$DIMTAD
 70
     0
  9
$DIMZIN
 70
     8
  9
$DIMBLK
  1

  9
$DIMASO
 70
     1
  9
$DIMSHO
 70
     1
  9
$DIMPOST
  1

  9
$DIMAPOST
  1

  9
$DIMALT
 70
     0
  9
$DIMALTD
 70
     2
  9
$DIMALTF
 40
25.4
  9
$DIMLFAC
 40
1.0
  9
$DIMTOFL
 70
     0
  9
$DIMTVP
 40
0.0
  9
$DIMTIX
 70
     0
  9
$DIMSOXD
 70
     0
  9
$DIMSAH
 70
     0
  9
$DIMBLK1
  1

  9
$DIMBLK2
  1

  9
$DIMSTYLE
  2
Standard
  9
$DIMCLRD
 70
   178
  9
$DIMCLRE
 70
   178
  9
$DIMCLRT
 70
   178
  9
$DIMTFAC
 40
1.0
  9
$DIMGAP
 40
5.0
  9
$DIMJUST
 70
     0
  9
$DIMSD1
 70
     0
  9
$DIMSD2
 70
     0
  9
$DIMTOLJ
 70
     1
  9
$DIMTZIN
 70
     0
  9
$DIMALTZ
 70
     0
  9
$DIMALTTZ
 70
     0
  9
$DIMUPT
 70
     0
  9
$DIMDEC
 70
     4
  9
$DIMTDEC
 70
     4
  9
$DIMALTU
 70
     2
  9
$DIMALTTD
 70
     2
  9
$DIMTXSTY
  7
Standard
  9
$DIMAUNIT
 70
     0
  9
$DIMADEC
 70
     0
  9
$DIMALTRND
 40
0.0
  9
$DIMAZIN
 70
     2
  9
$DIMDSEP
 70
    46
  9
$DIMATFIT
 70
     3
  9
$DIMFRAC
 70
     0
  9
$DIMLDRBLK
  1

  9
$DIMLUNIT
 70
     2
  9
$DIMLWD
 70
    -2
  9
$DIMLWE
 70
    -2
  9
$DIMTMOVE
 70
     0
  9
$DIMFXL
 40
1.0
  9
$DIMFXLON
 70
     0
  9
$DIMJOGANG
 40
0.7853981633974483
  9
$DIMTFILL
 70
     0
  9
$DIMTFILLCLR
 70
     0
  9
$DIMARCSYM
 70
     0
  9
$DIMLTYPE
  6

  9
$DIMLTEX1
  6

  9
$DIMLTEX2
  6

  9
$DIMTXTDIRECTION
 70
     0
  9
$LUNITS
 70
     2
  9
$LUPREC
 70
     4
  9
$SKETCHINC
 40
0.1
  9
$FILLETRAD
 40
0.5
  9
$AUNITS
 70
     0
  9
$AUPREC
 70
     0
  9
$MENU
  1
.
  9
$ELEVATION
 40
0.0
  9
$PELEVATION
 40
0.0
  9
$THICKNESS
 40
0.0
  9
$LIMCHECK
 70
     0
  9
$CHAMFERA
 40
0.0
  9
$CHAMFERB
 40
0.0
  9
$CHAMFERC
 40
0.0
  9
$CHAMFERD
 40
0.0
  9
$SKPOLY
 70
     0
  9
$TDCREATE
 40
2459458.510532408
  9
$TDUCREATE
 40
2459458.468865741
  9
$TDUPDATE
 40
2459458.510532408
  9
$TDUUPDATE
 40
2459458.468865741
  9
$TDINDWG
 40
0.0000000116
  9
$TDUSRTIMER
 40
0.0000000116
  9
$USRTIMER
 70
     1
  9
$ANGBASE
 50
0.0
  9
$ANGDIR
 70
     0
  9
$PDMODE
 70
     0
  9
$PDSIZE
 40
0.0
  9
$PLINEWID
 40
0.0
  9
$SPLFRAME
 70
     0
  9
$SPLINETYPE
 70
     6
  9
$SPLINESEGS
 70
     8
  9
$HANDSEED
  5
422
  9
$SURFTAB1
 70
     6
  9
$SURFTAB2
 70
     6
  9
$SURFTYPE
 70
     6
  9
$SURFU
 70
     6
  9
$SURFV
 70
     6
  9
$UCSBASE
  2

  9
$UCSNAME
  2

  9
$UCSORG
 10
0.0
 20
0.0
 30
0.0
  9
$UCSXDIR
 10
1.0
 20
0.0
 30
0.0
  9
$UCSYDIR
 10
0.0
 20
1.0
 30
0.0
  9
$UCSORTHOREF
  2

  9
$UCSORTHOVIEW
 70
     0
  9
$UCSORGTOP
 10
0.0
 20
0.0
 30
0.0
  9
$UCSORGBOTTOM
 10
0.0
 20
0.0
 30
0.0
  9
$UCSORGLEFT
 10
0.0
 20
0.0
 30
0.0
  9
$UCSORGRIGHT
 10
0.0
 20
0.0
 30
0.0
  9
$UCSORGFRONT
 10
0.0
 20
0.0
 30
0.0
  9
$UCSORGBACK
 10
0.0
 20
0.0
 30
0.0
  9
$PUCSBASE
  2

  9
$PUCSNAME
  2

  9
$PUCSORG
 10
0.0
 20
0.0
 30
0.0
  9
$PUCSXDIR
 10
1.0
 20
0.0
 30
0.0
  9
$PUCSYDIR
 10
0.0
 20
1.0
 30
0.0
  9
$PUCSORTHOREF
  2

  9
$PUCSORTHOVIEW
 70
     0
  9
$PUCSORGTOP
 10
0.0
 20
0.0
 30
0.0
  9
$PUCSORGBOTTOM
 10
0.0
 20
0.0
 30
0.0
  9
$PUCSORGLEFT
 10
0.0
 20
0.0
 30
0.0
  9
$PUCSORGRIGHT
 10
0.0
 20
0.0
 30
0.0
  9
$PUCSORGFRONT
 10
0.0
 20
0.0
 30
0.0
  9
$PUCSORGBACK
 10
0.0
 20
0.0
 30
0.0
  9
$USERI1
 70
     0
  9
$USERI2
 70
     0
  9
$USERI3
 70
     0
  9
$USERI4
 70
     0
  9
$USERI5
 70
     0
  9
$USERR1
 40
0.0
  9
$USERR2
 40
0.0
  9
$USERR3
 40
0.0
  9
$USERR4
 40
0.0
  9
$USERR5
 40
0.0
  9
$WORLDVIEW
 70
     1
  9
$SHADEDGE
 70
     3
  9
$SHADEDIF
 70
    70
  9
$TILEMODE
 70
     1
  9
$MAXACTVP
 70
     2
  9
$PINSBASE
 10
0.0
 20
0.0
 30
0.0
  9
$PLIMCHECK
 70
     0
  9
$PEXTMIN
 10
1.000000000000000E+20
 20
1.000000000000000E+20
 30
1.000000000000000E+20
  9
$PEXTMAX
 10
-1.000000000000000E+20
 20
-1.000000000000000E+20
 30
-1.000000000000000E+20
  9
$PLIMMIN
 10
0.0
 20
0.0
  9
$PLIMMAX
 10
12.0
 20
9.0
  9
$UNITMODE
 70
     0
  9
$VISRETAIN
 70
     1
  9
$PLINEGEN
 70
     0
  9
$PSLTSCALE
 70
     1
  9
$TREEDEPTH
 70
  3020
  9
$CMLSTYLE
  2
Standard
  9
$CMLJUST
 70
     0
  9
$CMLSCALE
 40
1.0
  9
$PROXYGRAPHICS
 70
     1
  9
$MEASUREMENT
 70
     1
  9
$CELWEIGHT
370
    -1
  9
$ENDCAPS
280
     0
  9
$JOINSTYLE
280
     0
  9
$LWDISPLAY
290
     0
  9
$INSUNITS
 70
     4
  9
$HYPERLINKBASE
  1

  9
$STYLESHEET
  1

  9
$XEDIT
290
     1
  9
$CEPSNTYPE
380
     0
  9
$PSTYLEMODE
290
     1
  9
$FINGERPRINTGUID
  2
{340372B2-7A5D-50E5-5148-31C16D2B9B4C}
  9
$VERSIONGUID
  2
{FAEB1C32-E019-11D5-929B-00C0DF256EC4}
  9
$EXTNAMES
290
     1
  9
$PSVPSCALE
 40
0.0
  9
$OLESTARTUP
290
     0
  9
$SORTENTS
280
   127
  9
$INDEXCTL
280
     0
  9
$HIDETEXT
280
     1
  9
$XCLIPFRAME
280
     2
  9
$HALOGAP
280
     0
  9
$OBSCOLOR
 70
   257
  9
$OBSLTYPE
280
     0
  9
$INTERSECTIONDISPLAY
280
     0
  9
$INTERSECTIONCOLOR
 70
   257
  9
$DIMASSOC
280
     2
  9
$PROJECTNAME
  1

  9
$CAMERADISPLAY
290
     0
  9
$LENSLENGTH
 40
50.0
  9
$CAMERAHEIGHT
 40
0.0
  9
$STEPSPERSEC
 40
2.0
  9
$STEPSIZE
 40
6.0
  9
$3DDWFPREC
 40
2.0
  9
$PSOLWIDTH
 40
0.25
  9
$PSOLHEIGHT
 40
4.0
  9
$LOFTANG1
 40
1.570796326794897
  9
$LOFTANG2
 40
1.570796326794897
  9
$LOFTMAG1
 40
0.0
  9
$LOFTMAG2
 40
0.0
  9
$LOFTPARAM
 70
     7
  9
$LOFTNORMALS
280
     1
  9
$LATITUDE
 40
37.795
  9
$LONGITUDE
 40
-122.394
  9
$NORTHDIRECTION
 40
0.0
  9
$TIMEZONE
 70
 -8000
  9
$LIGHTGLYPHDISPLAY
280
     1
  9
$TILEMODELIGHTSYNCH
280
     1
  9
$CMATERIAL
347
2BA
  9
$SOLIDHIST
280
     0
  9
$SHOWHIST
280
     1
  9
$DWFFRAME
280
     2
  9
$DGNFRAME
280
     2
  9
$REALWORLDSCALE
290
     1
  9
$INTERFERECOLOR
 62
   256
  9
$CSHADOW
280
     0
  9
$SHADOWPLANELOCATION
 40
0.0
  0
ENDSEC
  0
SECTION
  2
CLASSES
  0
CLASS
  1
ACDBDICTIONARYWDFLT
  2
AcDbDictionaryWithDefault
  3
ObjectDBX Classes
 90
        0
 91
        4
280
     0
281
     0
  0
CLASS
  1
VISUALSTYLE
  2
AcDbVisualStyle
  3
ObjectDBX Classes
 90
     4095
 91
        4
280
     0
281
     0
  0
CLASS
  1
MATERIAL
  2
AcDbMaterial
  3
ObjectDBX Classes
 90
     1153
 91
        4
280
     0
281
     0
  0
CLASS
  1
SCALE
  2
AcDbScale
  3
ObjectDBX Classes
 90
     1153
 91
        4
280
     0
281
     0
  0
CLASS
  1
TABLESTYLE
  2
AcDbTableStyle
  3
ObjectDBX Classes
 90
     4095
 91
        4
280
     0
281
     0
  0
CLASS
  1
MLEADERSTYLE
  2
AcDbMLeaderStyle
  3
ACDB_MLEADERSTYLE_CLASS
 90
     4095
 91
        4
280
     0
281
     0
  0
CLASS
  1
SUN
  2
AcDbSun
  3
SCENEOE
 90
     1153
 91
        4
280
     0
281
     0
  0
CLASS
  1
DICTIONARYVAR
  2
AcDbDictionaryVar
  3
ObjectDBX Classes
 90
        0
 91
        4
280
     0
281
     0
  0
CLASS
  1
CELLSTYLEMAP
  2
AcDbCellStyleMap
  3
ObjectDBX Classes
 90
     1152
 91
        4
280
     0
281
     0
  0
ENDSEC
  0
SECTION
  2
TABLES
  0
TABLE
  2
VPORT
  5
27F
330
0
100
AcDbSymbolTable
 70
     1
  0
VPORT
  5
29F
330
27F
100
AcDbSymbolTableRecord
100
AcDbViewportTableRecord
  2
*Active
 70
     0
 10
0.0
 20
0.0
 11
1.0
 21
1.0
 12
10.42990654205607
 22
4.5
 13
0.0
 23
0.0
 14
0.5
 24
0.5
 15
0.5
 25
0.5
 16
0.0
 26
0.0
 36
1.0
 17
0.0
 27
0.0
 37
0.0
 40
9.0
 41
1.972972972850329
 42
50.0
 43
0.0
 44
0.0
 50
0.0
 51
0.0
 71
     0
 72
   100
 73
     1
 74
     3
 75
     0
 76
     0
 77
     0
 78
     0
281
     0
 65
     1
110
0.0
120
0.0
130
0.0
111
1.0
121
0.0
131
0.0
112
0.0
122
1.0
132
0.0
 79
     0
146
0.0
 60
     3
 61
     5
292
     1
282
     1
141
0.0
142
0.0
 63
   250
361
2E3
  0
ENDTAB
  0
TABLE
  2
LTYPE
  5
27C
330
0
100
AcDbSymbolTable
 70
    48
  0
LTYPE
  5
28A
330
27C
100
AcDbSymbolTableRecord
100
AcDbLinetypeTableRecord
  2
ByBlock
 70
     0
  3

 72
    65
 73
     0
 40
0.0
  0
LTYPE
  5
28B
330
27C
100
AcDbSymbolTableRecord
100
AcDbLinetypeTableRecord
  2
ByLayer
 70
     0
  3

 72
    65
 73
     0
 40
0.0
  0
LTYPE
  5
28C
330
27C
100
AcDbSymbolTableRecord
100
AcDbLinetypeTableRecord
  2
Continuous
 70
     0
  3
Solid line
 72
    65
 73
     0
 40
0.0
  0
LTYPE
  5
31B
330
27C
100
AcDbSymbolTableRecord
100
AcDbLinetypeTableRecord
  2
ACAD_ISO02W100
 70
     0
  3
ISO dash __ __ __ __ __ __ __ __ __ __ __ __ __
 72
    65
 73
     2
 40
15.0
 49
12.0
 74
     0
 49
-3.0
 74
     0
  0
LTYPE
  5
31C
330
27C
100
AcDbSymbolTableRecord
100
AcDbLinetypeTableRecord
  2
ACAD_ISO03W100
 70
     0
  3
ISO dash space __    __    __    __    __    __
 72
    65
 73
     2
 40
30.0
 49
12.0
 74
     0
 49
-18.0
 74
     0
  0
LTYPE
  5
31D
330
27C
100
AcDbSymbolTableRecord
100
AcDbLinetypeTableRecord
  2
ACAD_ISO04W100
 70
     0
  3
ISO long-dash dot ____ . ____ . ____ . ____ . _
 72
    65
 73
     4
 40
30.0
 49
24.0
 74
     0
 49
-3.0
 74
     0
 49
0.0
 74
     0
 49
-3.0
 74
     0
  0
LTYPE
  5
31E
330
27C
100
AcDbSymbolTableRecord
100
AcDbLinetypeTableRecord
  2
ACAD_ISO05W100
 70
     0
  3
ISO long-dash double-dot ____ .. ____ .. ____ . 
 72
    65
 73
     6
 40
33.0
 49
24.0
 74
     0
 49
-3.0
 74
     0
 49
0.0
 74
     0
 49
-3.0
 74
     0
 49
0.0
 74
     0
 49
-3.0
 74
     0
  0
LTYPE
  5
31F
330
27C
100
AcDbSymbolTableRecord
100
AcDbLinetypeTableRecord
  2
ACAD_ISO06W100
 70
     0
  3
ISO long-dash triple-dot ____ ... ____ ... ____
 72
    65
 73
     8
 40
36.0
 49
24.0
 74
     0
 49
-3.0
 74
     0
 49
0.0
 74
     0
 49
-3.0
 74
     0
 49
0.0
 74
     0
 49
-3.0
 74
     0
 49
0.0
 74
     0
 49
-3.0
 74
     0
  0
LTYPE
  5
320
330
27C
100
AcDbSymbolTableRecord
100
AcDbLinetypeTableRecord
  2
ACAD_ISO07W100
 70
     0
  3
ISO dot . . . . . . . . . . . . . . . . . . . . 
 72
    65
 73
     2
 40
3.0
 49
0.0
 74
     0
 49
-3.0
 74
     0
  0
LTYPE
  5
321
330
27C
100
AcDbSymbolTableRecord
100
AcDbLinetypeTableRecord
  2
ACAD_ISO08W100
 70
     0
  3
ISO long-dash short-dash ____ __ ____ __ ____ _
 72
    65
 73
     4
 40
36.0
 49
24.0
 74
     0
 49
-3.0
 74
     0
 49
6.0
 74
     0
 49
-3.0
 74
     0
  0
LTYPE
  5
322
330
27C
100
AcDbSymbolTableRecord
100
AcDbLinetypeTableRecord
  2
ACAD_ISO09W100
 70
     0
  3
ISO long-dash double-short-dash ____ __ __ ____
 72
    65
 73
     6
 40
45.0
 49
24.0
 74
     0
 49
-3.0
 74
     0
 49
6.0
 74
     0
 49
-3.0
 74
     0
 49
6.0
 74
     0
 49
-3.0
 74
     0
  0
LTYPE
  5
323
330
27C
100
AcDbSymbolTableRecord
100
AcDbLinetypeTableRecord
  2
ACAD_ISO10W100
 70
     0
  3
ISO dash dot __ . __ . __ . __ . __ . __ . __ . 
 72
    65
 73
     4
 40
18.0
 49
12.0
 74
     0
 49
-3.0
 74
     0
 49
0.0
 74
     0
 49
-3.0
 74
     0
  0
LTYPE
  5
324
330
27C
100
AcDbSymbolTableRecord
100
AcDbLinetypeTableRecord
  2
ACAD_ISO11W100
 70
     0
  3
ISO double-dash dot __ __ . __ __ . __ __ . __ _
 72
    65
 73
     6
 40
33.0
 49
12.0
 74
     0
 49
-3.0
 74
     0
 49
12.0
 74
     0
 49
-3.0
 74
     0
 49
0.0
 74
     0
 49
-3.0
 74
     0
  0
LTYPE
  5
325
330
27C
100
AcDbSymbolTableRecord
100
AcDbLinetypeTableRecord
  2
ACAD_ISO12W100
 70
     0
  3
ISO dash double-dot __ . . __ . . __ . . __ . . 
 72
    65
 73
     6
 40
21.0
 49
12.0
 74
     0
 49
-3.0
 74
     0
 49
0.0
 74
     0
 49
-3.0
 74
     0
 49
0.0
 74
     0
 49
-3.0
 74
     0
  0
LTYPE
  5
326
330
27C
100
AcDbSymbolTableRecord
100
AcDbLinetypeTableRecord
  2
ACAD_ISO13W100
 70
     0
  3
ISO double-dash double-dot __ __ . . __ __ . . _
 72
    65
 73
     8
 40
36.0
 49
12.0
 74
     0
 49
-3.0
 74
     0
 49
12.0
 74
     0
 49
-3.0
 74
     0
 49
0.0
 74
     0
 49
-3.0
 74
     0
 49
0.0
 74
     0
 49
-3.0
 74
     0
  0
LTYPE
  5
327
330
27C
100
AcDbSymbolTableRecord
100
AcDbLinetypeTableRecord
  2
ACAD_ISO14W100
 70
     0
  3
ISO dash triple-dot __ . . . __ . . . __ . . . _
 72
    65
 73
     8
 40
24.0
 49
12.0
 74
     0
 49
-3.0
 74
     0
 49
0.0
 74
     0
 49
-3.0
 74
     0
 49
0.0
 74
     0
 49
-3.0
 74
     0
 49
0.0
 74
     0
 49
-3.0
 74
     0
  0
LTYPE
  5
328
330
27C
100
AcDbSymbolTableRecord
100
AcDbLinetypeTableRecord
  2
ACAD_ISO15W100
 70
     0
  3
ISO double-dash triple-dot __ __ . . . __ __ . .
 72
    65
 73
    10
 40
39.0
 49
12.0
 74
     0
 49
-3.0
 74
     0
 49
12.0
 74
     0
 49
-3.0
 74
     0
 49
0.0
 74
     0
 49
-3.0
 74
     0
 49
0.0
 74
     0
 49
-3.0
 74
     0
 49
0.0
 74
     0
 49
-3.0
 74
     0
  0
LTYPE
  5
32B
330
27C
100
AcDbSymbolTableRecord
100
AcDbLinetypeTableRecord
  2
BATTING
 70
     0
  3
Batting SSSSSSSSSSSSSSSSSSSSSSSSSSSSSSSSSSSSSSSSSSSSSSS
 72
    65
 73
     4
 40
10.16254
 49
0.00254
 74
     0
 49
-2.54
 74
     2
 75
     0
340
329
 46
2.54
 50
0.0
 44
-2.54
 45
0.0
  9
BAT
 49
-5.08
 74
     2
 75
     0
340
32A
 46
2.54
 50
180.0
 44
2.54
 45
0.0
  9
BAT
 49
-2.54
 74
     0
  0
LTYPE
  5
32C
330
27C
100
AcDbSymbolTableRecord
100
AcDbLinetypeTableRecord
  2
BORDER
 70
     0
  3
Border __ __ . __ __ . __ __ . __ __ . __ __ .
 72
    65
 73
     6
 40
44.45
 49
12.7
 74
     0
 49
-6.35
 74
     0
 49
12.7
 74
     0
 49
-6.35
 74
     0
 49
0.0
 74
     0
 49
-6.35
 74
     0
  0
LTYPE
  5
32D
330
27C
100
AcDbSymbolTableRecord
100
AcDbLinetypeTableRecord
  2
BORDER2
 70
     0
  3
Border (.5x) __.__.__.__.__.__.__.__.__.__.__.
 72
    65
 73
     6
 40
22.225
 49
6.35
 74
     0
 49
-3.175
 74
     0
 49
6.35
 74
     0
 49
-3.175
 74
     0
 49
0.0
 74
     0
 49
-3.175
 74
     0
  0
LTYPE
  5
32E
330
27C
100
AcDbSymbolTableRecord
100
AcDbLinetypeTableRecord
  2
BORDERX2
 70
     0
  3
Border (2x) ____  ____  .  ____  ____  .  ___
 72
    65
 73
     6
 40
88.89999999999999
 49
25.4
 74
     0
 49
-12.7
 74
     0
 49
25.4
 74
     0
 49
-12.7
 74
     0
 49
0.0
 74
     0
 49
-12.7
 74
     0
  0
LTYPE
  5
32F
330
27C
100
AcDbSymbolTableRecord
100
AcDbLinetypeTableRecord
  2
CENTER
 70
     0
  3
Center ____ _ ____ _ ____ _ ____ _ ____ _ ____
 72
    65
 73
     4
 40
50.8
 49
31.75
 74
     0
 49
-6.35
 74
     0
 49
6.35
 74
     0
 49
-6.35
 74
     0
  0
LTYPE
  5
330
330
27C
100
AcDbSymbolTableRecord
100
AcDbLinetypeTableRecord
  2
CENTER2
 70
     0
  3
Center (.5x) ___ _ ___ _ ___ _ ___ _ ___ _ ___
 72
    65
 73
     4
 40
28.575
 49
19.05
 74
     0
 49
-3.175
 74
     0
 49
3.175
 74
     0
 49
-3.175
 74
     0
  0
LTYPE
  5
331
330
27C
100
AcDbSymbolTableRecord
100
AcDbLinetypeTableRecord
  2
CENTERX2
 70
     0
  3
Center (2x) ________  __  ________  __  _____
 72
    65
 73
     4
 40
101.6
 49
63.5
 74
     0
 49
-12.7
 74
     0
 49
12.7
 74
     0
 49
-12.7
 74
     0
  0
LTYPE
  5
332
330
27C
100
AcDbSymbolTableRecord
100
AcDbLinetypeTableRecord
  2
DASHDOT
 70
     0
  3
Dash dot __ . __ . __ . __ . __ . __ . __ . __
 72
    65
 73
     4
 40
25.4
 49
12.7
 74
     0
 49
-6.35
 74
     0
 49
0.0
 74
     0
 49
-6.35
 74
     0
  0
LTYPE
  5
333
330
27C
100
AcDbSymbolTableRecord
100
AcDbLinetypeTableRecord
  2
DASHDOT2
 70
     0
  3
Dash dot (.5x) _._._._._._._._._._._._._._._.
 72
    65
 73
     4
 40
12.7
 49
6.35
 74
     0
 49
-3.175
 74
     0
 49
0.0
 74
     0
 49
-3.175
 74
     0
  0
LTYPE
  5
334
330
27C
100
AcDbSymbolTableRecord
100
AcDbLinetypeTableRecord
  2
DASHDOTX2
 70
     0
  3
Dash dot (2x) ____  .  ____  .  ____  .  ___
 72
    65
 73
     4
 40
50.8
 49
25.4
 74
     0
 49
-12.7
 74
     0
 49
0.0
 74
     0
 49
-12.7
 74
     0
  0
LTYPE
  5
335
330
27C
100
AcDbSymbolTableRecord
100
AcDbLinetypeTableRecord
  2
DASHED
 70
     0
  3
Dashed __ __ __ __ __ __ __ __ __ __ __ __ __ _
 72
    65
 73
     2
 40
19.05
 49
12.7
 74
     0
 49
-6.35
 74
     0
  0
LTYPE
  5
336
330
27C
100
AcDbSymbolTableRecord
100
AcDbLinetypeTableRecord
  2
DASHED2
 70
     0
  3
Dashed (.5x) _ _ _ _ _ _ _ _ _ _ _ _ _ _ _ _ _ 
 72
    65
 73
     2
 40
9.524999999999999
 49
6.35
 74
     0
 49
-3.175
 74
     0
  0
LTYPE
  5
337
330
27C
100
AcDbSymbolTableRecord
100
AcDbLinetypeTableRecord
  2
DASHEDX2
 70
     0
  3
Dashed (2x) ____  ____  ____  ____  ____  ___
 72
    65
 73
     2
 40
38.09999999999999
 49
25.4
 74
     0
 49
-12.7
 74
     0
  0
LTYPE
  5
338
330
27C
100
AcDbSymbolTableRecord
100
AcDbLinetypeTableRecord
  2
DIVIDE
 70
     0
  3
Divide ____ . . ____ . . ____ . . ____ . . ____
 72
    65
 73
     6
 40
31.75
 49
12.7
 74
     0
 49
-6.35
 74
     0
 49
0.0
 74
     0
 49
-6.35
 74
     0
 49
0.0
 74
     0
 49
-6.35
 74
     0
  0
LTYPE
  5
339
330
27C
100
AcDbSymbolTableRecord
100
AcDbLinetypeTableRecord
  2
DIVIDE2
 70
     0
  3
Divide (.5x) __..__..__..__..__..__..__..__.._
 72
    65
 73
     6
 40
15.875
 49
6.35
 74
     0
 49
-3.175
 74
     0
 49
0.0
 74
     0
 49
-3.175
 74
     0
 49
0.0
 74
     0
 49
-3.175
 74
     0
  0
LTYPE
  5
33A
330
27C
100
AcDbSymbolTableRecord
100
AcDbLinetypeTableRecord
  2
DIVIDEX2
 70
     0
  3
Divide (2x) ________  .  .  ________  .  .  _
 72
    65
 73
     6
 40
63.5
 49
25.4
 74
     0
 49
-12.7
 74
     0
 49
0.0
 74
     0
 49
-12.7
 74
     0
 49
0.0
 74
     0
 49
-12.7
 74
     0
  0
LTYPE
  5
33B
330
27C
100
AcDbSymbolTableRecord
100
AcDbLinetypeTableRecord
  2
DOT
 70
     0
  3
Dot . . . . . . . . . . . . . . . . . . . . . . . .
 72
    65
 73
     2
 40
6.35
 49
0.0
 74
     0
 49
-6.35
 74
     0
  0
LTYPE
  5
33C
330
27C
100
AcDbSymbolTableRecord
100
AcDbLinetypeTableRecord
  2
DOT2
 70
     0
  3
Dot (.5x) ........................................
 72
    65
 73
     2
 40
3.175
 49
0.0
 74
     0
 49
-3.175
 74
     0
  0
LTYPE
  5
33D
330
27C
100
AcDbSymbolTableRecord
100
AcDbLinetypeTableRecord
  2
DOTX2
 70
     0
  3
Dot (2x) .  .  .  .  .  .  .  .  .  .  .  .  .  .
 72
    65
 73
     2
 40
12.7
 49
0.0
 74
     0
 49
-12.7
 74
     0
  0
LTYPE
  5
33F
330
27C
100
AcDbSymbolTableRecord
100
AcDbLinetypeTableRecord
  2
DRAINAGE
 70
     0
  3
Drainage ---->---->---->----
 72
    65
 73
     2
 40
10.16
 49
5.08
 74
     2
 75
     0
340
33E
 46
2.54
 50
180.0
 44
0.0
 45
0.0
  9
RIGHT_ARROW
 49
5.08
 74
     0
  0
LTYPE
  5
341
330
27C
100
AcDbSymbolTableRecord
100
AcDbLinetypeTableRecord
  2
DRAINAGE2
 70
     0
  3
Drainage reversed----<----<----<----
 72
    65
 73
     2
 40
10.16
 49
5.08
 74
     2
 75
     0
340
340
 46
2.54
 50
0.0
 44
0.0
 45
0.0
  9
RIGHT_ARROW
 49
5.08
 74
     0
  0
LTYPE
  5
343
330
27C
100
AcDbSymbolTableRecord
100
AcDbLinetypeTableRecord
  2
FENCELINE1
 70
     0
  3
Fenceline circle ----0-----0----0-----0----0-----0--
 72
    65
 73
     4
 40
36.83
 49
6.35
 74
     0
 49
-2.54
 74
     2
 75
     0
340
342
 46
2.54
 50
0.0
 44
-2.54
 45
0.0
  9
CIRC1
 49
-2.54
 74
     0
 49
25.4
 74
     0
  0
LTYPE
  5
345
330
27C
100
AcDbSymbolTableRecord
100
AcDbLinetypeTableRecord
  2
FENCELINE2
 70
     0
  3
Fenceline square ----[]-----[]----[]-----[]----[]---
 72
    65
 73
     4
 40
36.83
 49
6.35
 74
     0
 49
-2.54
 74
     2
 75
     0
340
344
 46
2.54
 50
0.0
 44
-2.54
 45
0.0
  9
BOX
 49
-2.54
 74
     0
 49
25.4
 74
     0
  0
LTYPE
  5
347
330
27C
100
AcDbSymbolTableRecord
100
AcDbLinetypeTableRecord
  2
GAS_LINE
 70
     0
  3
Gas line ----GAS----GAS----GAS----GAS----GAS----GAS--
 72
    65
 73
     3
 40
24.13
 49
12.7
 74
     0
 49
-5.08
 74
     2
 75
     0
340
346
 46
2.54
 50
0.0
 44
-2.54
 45
-1.27
  9
GAS
 49
-6.35
 74
     0
  0
LTYPE
  5
348
330
27C
100
AcDbSymbolTableRecord
100
AcDbLinetypeTableRecord
  2
HIDDEN
 70
     0
  3
Hidden __ __ __ __ __ __ __ __ __ __ __ __ __ __
 72
    65
 73
     2
 40
9.524999999999999
 49
6.35
 74
     0
 49
-3.175
 74
     0
  0
LTYPE
  5
349
330
27C
100
AcDbSymbolTableRecord
100
AcDbLinetypeTableRecord
  2
HIDDEN2
 70
     0
  3
Hidden (.5x) _ _ _ _ _ _ _ _ _ _ _ _ _ _ _ _ _ 
 72
    65
 73
     2
 40
4.762499999999999
 49
3.175
 74
     0
 49
-1.5875
 74
     0
  0
LTYPE
  5
34A
330
27C
100
AcDbSymbolTableRecord
100
AcDbLinetypeTableRecord
  2
HIDDENX2
 70
     0
  3
Hidden (2x) ____ ____ ____ ____ ____ ____ ____ 
 72
    65
 73
     2
 40
19.05
 49
12.7
 74
     0
 49
-6.35
 74
     0
  0
LTYPE
  5
34C
330
27C
100
AcDbSymbolTableRecord
100
AcDbLinetypeTableRecord
  2
HOT_WATER_SUPPLY
 70
     0
  3
Hot water supply ---- HW ---- HW ---- HW ----
 72
    65
 73
     3
 40
22.86
 49
12.7
 74
     0
 49
-5.08
 74
     2
 75
     0
340
34B
 46
2.54
 50
0.0
 44
-2.54
 45
-1.27
  9
HW
 49
-5.08
 74
     0
  0
LTYPE
  5
34D
330
27C
100
AcDbSymbolTableRecord
100
AcDbLinetypeTableRecord
  2
PHANTOM
 70
     0
  3
Phantom ______  __  __  ______  __  __  ______ 
 72
    65
 73
     6
 40
63.50000000000001
 49
31.75
 74
     0
 49
-6.35
 74
     0
 49
6.35
 74
     0
 49
-6.35
 74
     0
 49
6.35
 74
     0
 49
-6.35
 74
     0
  0
LTYPE
  5
34E
330
27C
100
AcDbSymbolTableRecord
100
AcDbLinetypeTableRecord
  2
PHANTOM2
 70
     0
  3
Phantom (.5x) ___ _ _ ___ _ _ ___ _ _ ___ _ _
 72
    65
 73
     6
 40
31.75
 49
15.875
 74
     0
 49
-3.175
 74
     0
 49
3.175
 74
     0
 49
-3.175
 74
     0
 49
3.175
 74
     0
 49
-3.175
 74
     0
  0
LTYPE
  5
34F
330
27C
100
AcDbSymbolTableRecord
100
AcDbLinetypeTableRecord
  2
PHANTOMX2
 70
     0
  3
Phantom (2x) ____________    ____    ____   _
 72
    65
 73
     6
 40
127.0
 49
63.5
 74
     0
 49
-12.7
 74
     0
 49
12.7
 74
     0
 49
-12.7
 74
     0
 49
12.7
 74
     0
 49
-12.7
 74
     0
  0
LTYPE
  5
351
330
27C
100
AcDbSymbolTableRecord
100
AcDbLinetypeTableRecord
  2
TRACKS
 70
     0
  3
Tracks -|-|-|-|-|-|-|-|-|-|-|-|-|-|-|-|-|-|-|-|-|-|-|-|-
 72
    65
 73
     2
 40
7.62
 49
3.81
 74
     2
 75
     0
340
350
 46
6.35
 50
0.0
 44
0.0
 45
0.0
  9
TRACK1
 49
3.81
 74
     0
  0
LTYPE
  5
354
330
27C
100
AcDbSymbolTableRecord
100
AcDbLinetypeTableRecord
  2
ZIGZAG
 70
     0
  3
Zig zag /\/\/\/\/\/\/\/\/\/\/\/\/\/\/\/\/\/\/\/\/\/\/\/
 72
    65
 73
     4
 40
20.32254
 49
0.00254
 74
     0
 49
-5.08
 74
     2
 75
     0
340
352
 46
5.08
 50
0.0
 44
-5.08
 45
0.0
  9
ZIG
 49
-10.16
 74
     2
 75
     0
340
353
 46
5.08
 50
180.0
 44
5.08
 45
0.0
  9
ZIG
 49
-5.08
 74
     0
  0
ENDTAB
  0
TABLE
  2
LAYER
  5
279
330
0
100
AcDbSymbolTable
 70
     5
  0
LAYER
  5
287
330
279
100
AcDbSymbolTableRecord
100
AcDbLayerTableRecord
  2
0
 70
     0
 62
     7
420
 16777215
  6
Continuous
370
    25
390
286
347
2BC
348
0
  0
LAYER
  5
355
330
279
100
AcDbSymbolTableRecord
100
AcDbLayerTableRecord
  2
0 ... Seuil
 70
     0
 62
   178
420
        0
  6
Continuous
370
    25
390
286
347
2BC
348
0
  0
LAYER
  5
356
330
279
100
AcDbSymbolTableRecord
100
AcDbLayerTableRecord
  2
0 ... Seuil ... Rectangle
 70
     0
 62
     5
420
      255
  6
Continuous
370
    25
390
286
347
2BC
348
0
  0
LAYER
  5
357
330
279
100
AcDbSymbolTableRecord
100
AcDbLayerTableRecord
  2
0 ... Seuil ... Rectangle ... Cotes Angles
 70
     0
 62
     4
420
    65535
  6
Continuous
370
    25
390
286
347
2BC
348
0
  0
LAYER
  5
358
330
279
100
AcDbSymbolTableRecord
100
AcDbLayerTableRecord
  2
Defpoints
 70
     0
 62
     7
420
 16777215
  6
Continuous
290
     0
370
    -3
390
286
347
2BC
348
0
  0
ENDTAB
  0
TABLE
  2
STYLE
  5
27A
330
0
100
AcDbSymbolTable
 70
    22
  0
STYLE
  5
288
330
27A
100
AcDbSymbolTableRecord
100
AcDbTextStyleTableRecord
  2
Standard
 70
     0
 40
0.0
 41
1.0
 50
0.0
 71
     0
 42
0.2
  3
txt
  4

  0
STYLE
  5
319
330
27A
100
AcDbSymbolTableRecord
100
AcDbTextStyleTableRecord
  2
QCADDimTextStyle
 70
     0
 40
0.0
 41
1.0
 50
0.0
 71
     0
 42
0.2
  3

  4

  0
STYLE
  5
329
330
27A
100
AcDbSymbolTableRecord
100
AcDbTextStyleTableRecord
  2
textstyle0
 70
     0
 40
0.0
 41
1.0
 50
0.0
 71
     0
 42
0.2
  3
ltypeshp.shx
  4

  0
STYLE
  5
32A
330
27A
100
AcDbSymbolTableRecord
100
AcDbTextStyleTableRecord
  2
textstyle1
 70
     0
 40
0.0
 41
1.0
 50
0.0
 71
     0
 42
0.2
  3
ltypeshp.shx
  4

  0
STYLE
  5
33E
330
27A
100
AcDbSymbolTableRecord
100
AcDbTextStyleTableRecord
  2
textstyle2
 70
     0
 40
0.0
 41
1.0
 50
0.0
 71
     0
 42
0.2
  3
qcadshp.shx
  4

  0
STYLE
  5
340
330
27A
100
AcDbSymbolTableRecord
100
AcDbTextStyleTableRecord
  2
textstyle3
 70
     0
 40
0.0
 41
1.0
 50
0.0
 71
     0
 42
0.2
  3
qcadshp.shx
  4

  0
STYLE
  5
342
330
27A
100
AcDbSymbolTableRecord
100
AcDbTextStyleTableRecord
  2
textstyle4
 70
     0
 40
0.0
 41
1.0
 50
0.0
 71
     0
 42
0.2
  3
ltypeshp.shx
  4

  0
STYLE
  5
344
330
27A
100
AcDbSymbolTableRecord
100
AcDbTextStyleTableRecord
  2
textstyle5
 70
     0
 40
0.0
 41
1.0
 50
0.0
 71
     0
 42
0.2
  3
ltypeshp.shx
  4

  0
STYLE
  5
346
330
27A
100
AcDbSymbolTableRecord
100
AcDbTextStyleTableRecord
  2
textstyle6
 70
     0
 40
0.0
 41
1.0
 50
0.0
 71
     0
 42
0.2
  3
STANDARD
  4

  0
STYLE
  5
34B
330
27A
100
AcDbSymbolTableRecord
100
AcDbTextStyleTableRecord
  2
textstyle7
 70
     0
 40
0.0
 41
1.0
 50
0.0
 71
     0
 42
0.2
  3
STANDARD
  4

  0
STYLE
  5
350
330
27A
100
AcDbSymbolTableRecord
100
AcDbTextStyleTableRecord
  2
textstyle8
 70
     0
 40
0.0
 41
1.0
 50
0.0
 71
     0
 42
0.2
  3
ltypeshp.shx
  4

  0
STYLE
  5
352
330
27A
100
AcDbSymbolTableRecord
100
AcDbTextStyleTableRecord
  2
textstyle9
 70
     0
 40
0.0
 41
1.0
 50
0.0
 71
     0
 42
0.2
  3
ltypeshp.shx
  4

  0
STYLE
  5
353
330
27A
100
AcDbSymbolTableRecord
100
AcDbTextStyleTableRecord
  2
textstyle10
 70
     0
 40
0.0
 41
1.0
 50
0.0
 71
     0
 42
0.2
  3
ltypeshp.shx
  4

  0
STYLE
  5
359
330
27A
100
AcDbSymbolTableRecord
100
AcDbTextStyleTableRecord
  2
textstyle11
 70
     0
 40
0.0
 41
1.0
 50
0.0
 71
     0
 42
0.2
  3

  4

1001
ACAD
1000
Liberation Sans
1071
        0
  0
STYLE
  5
369
330
27A
100
AcDbSymbolTableRecord
100
AcDbTextStyleTableRecord
  2
textstyle12
 70
     0
 40
0.0
 41
1.0
 50
0.0
 71
     0
 42
0.2
  3

  4

1001
ACAD
1000
Liberation Sans
1071
        0
  0
STYLE
  5
36A
330
27A
100
AcDbSymbolTableRecord
100
AcDbTextStyleTableRecord
  2
textstyle13
 70
     0
 40
0.0
 41
1.0
 50
0.0
 71
     0
 42
0.2
  3

  4

1001
ACAD
1000
Liberation Sans
1071
        0
  0
STYLE
  5
36B
330
27A
100
AcDbSymbolTableRecord
100
AcDbTextStyleTableRecord
  2
textstyle14
 70
     0
 40
0.0
 41
1.0
 50
0.0
 71
     0
 42
0.2
  3

  4

1001
ACAD
1000
Liberation Sans
1071
        0
  0
STYLE
  5
36C
330
27A
100
AcDbSymbolTableRecord
100
AcDbTextStyleTableRecord
  2
textstyle15
 70
     0
 40
0.0
 41
1.0
 50
0.0
 71
     0
 42
0.2
  3

  4

1001
ACAD
1000
Liberation Sans
1071
        0
  0
STYLE
  5
36D
330
27A
100
AcDbSymbolTableRecord
100
AcDbTextStyleTableRecord
  2
textstyle16
 70
     0
 40
0.0
 41
1.0
 50
0.0
 71
     0
 42
0.2
  3

  4

1001
ACAD
1000
Liberation Sans
1071
        0
  0
STYLE
  5
36E
330
27A
100
AcDbSymbolTableRecord
100
AcDbTextStyleTableRecord
  2
textstyle17
 70
     0
 40
0.0
 41
1.0
 50
0.0
 71
     0
 42
0.2
  3

  4

1001
ACAD
1000
Liberation Sans
1071
        0
  0
STYLE
  5
37E
330
27A
100
AcDbSymbolTableRecord
100
AcDbTextStyleTableRecord
  2
textstyle18
 70
     0
 40
0.0
 41
1.0
 50
0.0
 71
     0
 42
0.2
  3

  4

1001
ACAD
1000
Liberation Sans
1071
        0
  0
STYLE
  5
418
330
27A
100
AcDbSymbolTableRecord
100
AcDbTextStyleTableRecord
  2
textstyle19
 70
     0
 40
0.0
 41
1.0
 50
0.0
 71
     0
 42
0.2
  3

  4

1001
ACAD
1000
Liberation Sans
1071
        0
  0
ENDTAB
  0
TABLE
  2
VIEW
  5
27D
330
0
100
AcDbSymbolTable
 70
     0
  0
ENDTAB
  0
TABLE
  2
UCS
  5
27E
330
0
100
AcDbSymbolTable
 70
     0
  0
ENDTAB
  0
TABLE
  2
APPID
  5
280
330
0
100
AcDbSymbolTable
 70
     2
  0
APPID
  5
289
330
280
100
AcDbSymbolTableRecord
100
AcDbRegAppTableRecord
  2
ACAD
 70
     0
  0
APPID
  5
2E4
330
280
100
AcDbSymbolTableRecord
100
AcDbRegAppTableRecord
  2
QCAD
 70
     0
  0
ENDTAB
  0
TABLE
  2
DIMSTYLE
  5
281
330
0
100
AcDbSymbolTable
 70
     2
100
AcDbDimStyleTable
  0
DIMSTYLE
105
29D
330
281
100
AcDbSymbolTableRecord
100
AcDbDimStyleTableRecord
  2
Standard
 70
     0
178
     0
340
288
  0
DIMSTYLE
105
31A
102
{ACAD_REACTORS
330
80
330
89
330
AA
330
AB
330
AC
330
AD
330
AE
330
AF
330
B0
330
B3
330
B4
330
B5
330
B6
330
B7
330
B8
102
}
330
281
100
AcDbSymbolTableRecord
100
AcDbDimStyleTableRecord
  2
QCADDimStyle
 70
     0
 41
20.0
 42
5.0
 44
10.0
 73
     0
 77
     1
140
20.0
147
5.0
178
     0
340
319
  0
ENDTAB
  0
TABLE
  2
BLOCK_RECORD
  5
278
330
0
100
AcDbSymbolTable
 70
    16
  0
BLOCK_RECORD
  5
295
330
278
100
AcDbSymbolTableRecord
100
AcDbBlockTableRecord
  2
*Model_Space
340
298
 70
     0
280
     1
281
     0
  0
BLOCK_RECORD
  5
291
330
278
100
AcDbSymbolTableRecord
100
AcDbBlockTableRecord
  2
*Paper_Space
340
294
 70
     0
280
     1
281
     0
  0
BLOCK_RECORD
  5
299
330
278
100
AcDbSymbolTableRecord
100
AcDbBlockTableRecord
  2
*Paper_Space0
340
29C
 70
     0
280
     1
281
     0
  0
BLOCK_RECORD
  5
35A
330
278
100
AcDbSymbolTableRecord
100
AcDbBlockTableRecord
  2
*D1
340
0
 70
     0
280
     1
281
     0
  0
BLOCK_RECORD
  5
36F
330
278
100
AcDbSymbolTableRecord
100
AcDbBlockTableRecord
  2
*D2
340
0
 70
     0
280
     1
281
     0
  0
BLOCK_RECORD
  5
37F
330
278
100
AcDbSymbolTableRecord
100
AcDbBlockTableRecord
  2
*D3
340
0
 70
     0
280
     1
281
     0
  0
BLOCK_RECORD
  5
38B
330
278
100
AcDbSymbolTableRecord
100
AcDbBlockTableRecord
  2
*D4
340
0
 70
     0
280
     1
281
     0
  0
BLOCK_RECORD
  5
397
330
278
100
AcDbSymbolTableRecord
100
AcDbBlockTableRecord
  2
*D5
340
0
 70
     0
280
     1
281
     0
  0
BLOCK_RECORD
  5
3A3
330
278
100
AcDbSymbolTableRecord
100
AcDbBlockTableRecord
  2
*D6
340
0
 70
     0
280
     1
281
     0
  0
BLOCK_RECORD
  5
3AF
330
278
100
AcDbSymbolTableRecord
100
AcDbBlockTableRecord
  2
*D7
340
0
 70
     0
280
     1
281
     0
  0
BLOCK_RECORD
  5
3BA
330
278
100
AcDbSymbolTableRecord
100
AcDbBlockTableRecord
  2
*D8
340
0
 70
     0
280
     1
281
     0
  0
BLOCK_RECORD
  5
3C6
330
278
100
AcDbSymbolTableRecord
100
AcDbBlockTableRecord
  2
*D9
340
0
 70
     0
280
     1
281
     0
  0
BLOCK_RECORD
  5
3D1
330
278
100
AcDbSymbolTableRecord
100
AcDbBlockTableRecord
  2
*D10
340
0
 70
     0
280
     1
281
     0
  0
BLOCK_RECORD
  5
3DD
330
278
100
AcDbSymbolTableRecord
100
AcDbBlockTableRecord
  2
*D11
340
0
 70
     0
280
     1
281
     0
  0
BLOCK_RECORD
  5
3E9
330
278
100
AcDbSymbolTableRecord
100
AcDbBlockTableRecord
  2
*D12
340
0
 70
     0
280
     1
281
     0
  0
BLOCK_RECORD
  5
3F5
330
278
100
AcDbSymbolTableRecord
100
AcDbBlockTableRecord
  2
*D13
340
0
 70
     0
280
     1
281
     0
  0
BLOCK_RECORD
  5
401
330
278
100
AcDbSymbolTableRecord
100
AcDbBlockTableRecord
  2
*D14
340
0
 70
     0
280
     1
281
     0
  0
BLOCK_RECORD
  5
40D
330
278
100
AcDbSymbolTableRecord
100
AcDbBlockTableRecord
  2
*D15
340
0
 70
     0
280
     1
281
     0
  0
ENDTAB
  0
ENDSEC
  0
SECTION
  2
BLOCKS
  0
BLOCK
  5
296
330
295
100
AcDbEntity
  8
0
100
AcDbBlockBegin
  2
*Model_Space
 70
     0
 10
0.0
 20
0.0
 30
0.0
  3
*Model_Space
  1
*Model_Space
  0
ENDBLK
  5
297
330
295
100
AcDbEntity
  8
0
100
AcDbBlockEnd
  0
BLOCK
  5
292
330
291
100
AcDbEntity
 67
     1
  8
0
100
AcDbBlockBegin
  2
*Paper_Space
 70
     0
 10
0.0
 20
0.0
 30
0.0
  3
*Paper_Space
  1
*Paper_Space
  0
ENDBLK
  5
293
330
291
100
AcDbEntity
 67
     1
  8
0
100
AcDbBlockEnd
  0
BLOCK
  5
29A
330
299
100
AcDbEntity
  8
0
100
AcDbBlockBegin
  2
*Paper_Space0
 70
     0
 10
0.0
 20
0.0
 30
0.0
  3
*Paper_Space0
  1
*Paper_Space0
  0
ENDBLK
  5
29B
330
299
100
AcDbEntity
  8
0
100
AcDbBlockEnd
  0
BLOCK
  5
35B
330
35A
100
AcDbEntity
  8
0
100
AcDbBlockBegin
  2
*D1
 70
     1
 10
0.0
 20
0.0
 30
0.0
  3
*D1
  1
*D1
  0
LINE
  5
35D
330
35A
100
AcDbEntity
  8
0 ... Seuil ... Rectangle ... Cotes Angles
 62
     0
370
    -2
100
AcDbLine
 10
588.938635249919
 20
499.302286063583
 30
0.0
 11
588.9386352499193
 21
649.0832053538928
 31
0.0
  0
LINE
  5
35E
330
35A
100
AcDbEntity
  8
0 ... Seuil ... Rectangle ... Cotes Angles
 62
     0
370
    -2
100
AcDbLine
 10
583.9576617594579
 20
493.8665073498445
 30
0.0
 11
434.746704087146
 21
480.8122400796712
 31
0.0
  0
ARC
  5
35F
330
35A
100
AcDbEntity
  8
0 ... Seuil ... Rectangle ... Cotes Angles
 62
     0
370
    -2
100
AcDbCircle
 10
588.938635249919
 20
494.302286063583
 30
0.0
 40
144.7809192903098
100
AcDbArc
 50
97.92113134823137
 51
132.8517291697486
  0
ARC
  5
360
330
35A
100
AcDbEntity
  8
0 ... Seuil ... Rectangle ... Cotes Angles
 62
     0
370
    -2
100
AcDbCircle
 10
588.938635249919
 20
494.302286063583
 30
0.0
 40
144.7809192903098
100
AcDbArc
 50
142.1482708302535
 51
177.0788686517684
  0
SOLID
  5
361
330
35A
100
AcDbEntity
  8
0 ... Seuil ... Rectangle ... Cotes Angles
 62
     0
100
AcDbTrace
 10
569.2166316768064
 20
634.3764351052791
 30
0.0
 11
568.7561658433704
 21
641.0271806018895
 31
0.0
 12
588.9386352499193
 22
639.0832053538928
 32
0.0
 13
588.9386352499193
 23
639.0832053538928
 33
0.0
  0
SOLID
  5
362
330
35A
100
AcDbEntity
  8
0 ... Seuil ... Rectangle ... Cotes Angles
 62
     0
100
AcDbTrace
 10
441.013055121178
 20
501.6200379177286
 30
0.0
 11
447.6786247649817
 21
501.7409749593897
 31
0.0
 12
444.7086510680634
 22
481.6837975071477
 32
0.0
 13
444.7086510680634
 23
481.6837975071477
 33
0.0
  0
MTEXT
  5
363
330
35A
100
AcDbEntity
  8
0 ... Seuil ... Rectangle ... Cotes Angles
 62
     0
100
AcDbMText
 10
471.1357846024848
 20
602.2487104999417
 30
0.0
 40
20.0
 41
0.0
 46
0.0
 71
     5
 72
     1
  1
\A1;95%%d
  7
QCADDimTextStyle
 11
0.675590207615647
 21
0.7372773368101362
 31
0.0
 73
     1
 44
1.0
  0
POINT
  5
364
330
35A
100
AcDbEntity
  8
Defpoints
 62
     0
100
AcDbPoint
 10
512.9320433431985
 20
617.5277403223215
 30
0.0
  0
POINT
  5
365
330
35A
100
AcDbEntity
  8
Defpoints
 62
     0
100
AcDbPoint
 10
588.938635249919
 20
494.302286063583
 30
0.0
  0
POINT
  5
366
330
35A
100
AcDbEntity
  8
Defpoints
 62
     0
100
AcDbPoint
 10
780.9386352499191
 20
511.1001094605599
 30
0.0
  0
POINT
  5
367
330
35A
100
AcDbEntity
  8
Defpoints
 62
     0
100
AcDbPoint
 10
588.9386352499166
 20
494.3022860635828
 30
0.0
  0
POINT
  5
368
330
35A
100
AcDbEntity
  8
Defpoints
 62
     0
100
AcDbPoint
 10
588.9386352499189
 20
446.302286063584
 30
0.0
  0
ENDBLK
  5
35C
330
35A
100
AcDbEntity
  8
0
100
AcDbBlockEnd
  0
BLOCK
  5
370
330
36F
100
AcDbEntity
  8
0
100
AcDbBlockBegin
  2
*D2
 70
     1
 10
0.0
 20
0.0
 30
0.0
  3
*D2
  1
*D2
  0
LINE
  5
372
330
36F
100
AcDbEntity
  8
0 ... Seuil ... Rectangle ... Cotes Angles
 62
     0
370
    -2
100
AcDbLine
 10
1756.938635249921
 20
585.4661260365997
 30
0.0
 11
1756.938635249921
 21
495.1302126430115
 31
0.0
  0
LINE
  5
373
330
36F
100
AcDbEntity
  8
0 ... Seuil ... Rectangle ... Cotes Angles
 62
     0
370
    -2
100
AcDbLine
 10
1761.91960874038
 20
590.901904750338
 30
0.0
 11
1851.911766710347
 21
598.7751983789441
 31
0.0
  0
ARC
  5
374
330
36F
100
AcDbEntity
  8
0 ... Seuil ... Rectangle ... Cotes Angles
 62
     0
370
    -2
100
AcDbCircle
 10
1756.938635249921
 20
590.4661260365997
 30
0.0
 40
85.33591339358817
100
AcDbArc
 50
283.459216861375
 51
300.4647561733939
  0
ARC
  5
375
330
36F
100
AcDbEntity
  8
0 ... Seuil ... Rectangle ... Cotes Angles
 62
     0
370
    -2
100
AcDbCircle
 10
1756.938635249921
 20
590.4661260365997
 30
0.0
 40
85.33591339358817
100
AcDbArc
 50
334.5352438266034
 51
351.5407831386249
  0
SOLID
  5
376
330
36F
100
AcDbEntity
  8
0 ... Seuil ... Rectangle ... Cotes Angles
 62
     0
100
AcDbTrace
 10
1776.410226572607
 20
510.7842592004267
 30
0.0
 11
1777.191452952164
 21
504.1635243629386
 31
0.0
 12
1756.938635249921
 22
505.1302126430115
 32
0.0
 13
1756.938635249921
 23
505.1302126430115
 33
0.0
  0
SOLID
  5
377
330
36F
100
AcDbEntity
  8
0 ... Seuil ... Rectangle ... Cotes Angles
 62
     0
100
AcDbTrace
 10
1844.677978838318
 20
577.8121437701298
 30
0.0
 11
1838.014349530376
 21
578.0133622851574
 31
0.0
 12
1841.94981972943
 22
597.9036409514675
 32
0.0
 13
1841.94981972943
 23
597.9036409514675
 33
0.0
  0
MTEXT
  5
378
330
36F
100
AcDbEntity
  8
0 ... Seuil ... Rectangle ... Cotes Angles
 62
     0
100
AcDbMText
 10
1808.795710158852
 20
542.9478717041874
 30
0.0
 40
20.0
 41
0.0
 46
0.0
 71
     5
 72
     1
  1
\A1;95%%d
  7
QCADDimTextStyle
 11
0.6755902076156761
 21
0.7372773368101095
 31
0.0
 73
     1
 44
1.0
  0
POINT
  5
379
330
36F
100
AcDbEntity
  8
Defpoints
 62
     0
100
AcDbPoint
 10
1801.737991243013
 20
517.8353073896769
 30
0.0
  0
POINT
  5
37A
330
36F
100
AcDbEntity
  8
Defpoints
 62
     0
100
AcDbPoint
 10
1756.938635249921
 20
591.3824572106132
 30
0.0
  0
POINT
  5
37B
330
36F
100
AcDbEntity
  8
Defpoints
 62
     0
100
AcDbPoint
 10
594.9386352499168
 20
488.8042990194779
 30
0.0
  0
POINT
  5
37C
330
36F
100
AcDbEntity
  8
Defpoints
 62
     0
100
AcDbPoint
 10
1756.025790992667
 20
590.3862625125251
 30
0.0
  0
POINT
  5
37D
330
36F
100
AcDbEntity
  8
Defpoints
 62
     0
100
AcDbPoint
 10
1756.938635249921
 20
670.466126036598
 30
0.0
  0
ENDBLK
  5
371
330
36F
100
AcDbEntity
  8
0
100
AcDbBlockEnd
  0
BLOCK
  5
380
330
37F
100
AcDbEntity
  8
0
100
AcDbBlockBegin
  2
*D3
 70
     1
 10
0.0
 20
0.0
 30
0.0
  3
*D3
  1
*D3
  0
LINE
  5
382
330
37F
100
AcDbEntity
  8
0 ... Seuil ... Rectangle ... Cotes Angles
 62
     0
370
    -2
100
AcDbLine
 10
626.3779055650648
 20
1332.940318858501
 30
0.0
 11
626.3779055650648
 21
1362.275108242467
 31
0.0
  0
LINE
  5
383
330
37F
100
AcDbEntity
  8
0 ... Seuil ... Rectangle ... Cotes Angles
 62
     0
370
    -2
100
AcDbLine
 10
2951.677905565066
 20
1332.940318858499
 30
0.0
 11
2951.677905565066
 21
1362.275108242465
 31
0.0
  0
LINE
  5
384
330
37F
100
AcDbEntity
  8
0 ... Seuil ... Rectangle ... Cotes Angles
 62
     0
370
    -2
100
AcDbLine
 10
626.3779055650648
 20
1352.275108242467
 30
0.0
 11
2951.677905565066
 21
1352.275108242465
 31
0.0
  0
LINE
  5
385
330
37F
100
AcDbEntity
  8
0 ... Seuil ... Rectangle ... Cotes Angles
 62
     0
370
    -2
100
AcDbLine
 10
646.3779055650648
 20
1372.275108242467
 30
0.0
 11
606.3779055650648
 21
1332.275108242467
 31
0.0
  0
LINE
  5
386
330
37F
100
AcDbEntity
  8
0 ... Seuil ... Rectangle ... Cotes Angles
 62
     0
370
    -2
100
AcDbLine
 10
2931.677905565066
 20
1332.275108242465
 30
0.0
 11
2971.677905565066
 21
1372.275108242465
 31
0.0
  0
MTEXT
  5
387
330
37F
100
AcDbEntity
  8
0 ... Seuil ... Rectangle ... Cotes Angles
 62
     0
100
AcDbMText
 10
1789.027905565065
 20
1367.275108242466
 30
0.0
 40
20.0
 41
0.0
 46
0.0
 71
     5
 72
     1
  1
\A1;2325.3
  7
QCADDimTextStyle
 73
     1
 44
1.0
  0
POINT
  5
388
330
37F
100
AcDbEntity
  8
Defpoints
 62
     0
100
AcDbPoint
 10
626.3779055650648
 20
1327.940318858501
 30
0.0
  0
POINT
  5
389
330
37F
100
AcDbEntity
  8
Defpoints
 62
     0
100
AcDbPoint
 10
2951.677905565066
 20
1327.940318858499
 30
0.0
  0
POINT
  5
38A
330
37F
100
AcDbEntity
  8
Defpoints
 62
     0
100
AcDbPoint
 10
2951.677905565066
 20
1352.275108242465
 30
0.0
  0
ENDBLK
  5
381
330
37F
100
AcDbEntity
  8
0
100
AcDbBlockEnd
  0
BLOCK
  5
38C
330
38B
100
AcDbEntity
  8
0
100
AcDbBlockBegin
  2
*D4
 70
     1
 10
0.0
 20
0.0
 30
0.0
  3
*D4
  1
*D4
  0
LINE
  5
38E
330
38B
100
AcDbEntity
  8
0 ... Seuil ... Rectangle ... Cotes Angles
 62
     0
370
    -2
100
AcDbLine
 10
621.3779055650648
 20
1327.940318858501
 30
0.0
 11
568.7029228986839
 21
1327.940318858501
 31
0.0
  0
LINE
  5
38F
330
38B
100
AcDbEntity
  8
0 ... Seuil ... Rectangle ... Cotes Angles
 62
     0
370
    -2
100
AcDbLine
 10
621.3779055650648
 20
1081.940318858501
 30
0.0
 11
568.7029228986839
 21
1081.940318858501
 31
0.0
  0
LINE
  5
390
330
38B
100
AcDbEntity
  8
0 ... Seuil ... Rectangle ... Cotes Angles
 62
     0
370
    -2
100
AcDbLine
 10
578.7029228986839
 20
1327.940318858501
 30
0.0
 11
578.7029228986839
 21
1081.940318858501
 31
0.0
  0
LINE
  5
391
330
38B
100
AcDbEntity
  8
0 ... Seuil ... Rectangle ... Cotes Angles
 62
     0
370
    -2
100
AcDbLine
 10
598.7029228986839
 20
1307.940318858501
 30
0.0
 11
558.7029228986839
 21
1347.940318858501
 31
0.0
  0
LINE
  5
392
330
38B
100
AcDbEntity
  8
0 ... Seuil ... Rectangle ... Cotes Angles
 62
     0
370
    -2
100
AcDbLine
 10
558.7029228986839
 20
1101.940318858501
 30
0.0
 11
598.7029228986839
 21
1061.940318858501
 31
0.0
  0
MTEXT
  5
393
330
38B
100
AcDbEntity
  8
0 ... Seuil ... Rectangle ... Cotes Angles
 62
     0
100
AcDbMText
 10
563.7029228986839
 20
1204.940318858501
 30
0.0
 40
20.0
 41
0.0
 46
0.0
 71
     5
 72
     1
  1
\A1;246
  7
QCADDimTextStyle
 11
0.0
 21
1.0
 31
0.0
 73
     1
 44
1.0
  0
POINT
  5
394
330
38B
100
AcDbEntity
  8
Defpoints
 62
     0
100
AcDbPoint
 10
626.3779055650648
 20
1327.940318858501
 30
0.0
  0
POINT
  5
395
330
38B
100
AcDbEntity
  8
Defpoints
 62
     0
100
AcDbPoint
 10
626.3779055650648
 20
1081.940318858501
 30
0.0
  0
POINT
  5
396
330
38B
100
AcDbEntity
  8
Defpoints
 62
     0
100
AcDbPoint
 10
578.7029228986839
 20
1081.940318858501
 30
0.0
  0
ENDBLK
  5
38D
330
38B
100
AcDbEntity
  8
0
100
AcDbBlockEnd
  0
BLOCK
  5
398
330
397
100
AcDbEntity
  8
0
100
AcDbBlockBegin
  2
*D5
 70
     1
 10
0.0
 20
0.0
 30
0.0
  3
*D5
  1
*D5
  0
LINE
  5
39A
330
397
100
AcDbEntity
  8
0 ... Seuil ... Rectangle ... Cotes Angles
 62
     0
370
    -2
100
AcDbLine
 10
621.3779055650648
 20
1327.940318858501
 30
0.0
 11
507.0454616322468
 21
1327.940318858501
 31
0.0
  0
LINE
  5
39B
330
397
100
AcDbEntity
  8
0 ... Seuil ... Rectangle ... Cotes Angles
 62
     0
370
    -2
100
AcDbLine
 10
621.3779055650648
 20
1035.940318858502
 30
0.0
 11
507.0454616322468
 21
1035.940318858502
 31
0.0
  0
LINE
  5
39C
330
397
100
AcDbEntity
  8
0 ... Seuil ... Rectangle ... Cotes Angles
 62
     0
370
    -2
100
AcDbLine
 10
517.0454616322468
 20
1327.940318858501
 30
0.0
 11
517.0454616322468
 21
1035.940318858502
 31
0.0
  0
LINE
  5
39D
330
397
100
AcDbEntity
  8
0 ... Seuil ... Rectangle ... Cotes Angles
 62
     0
370
    -2
100
AcDbLine
 10
537.0454616322468
 20
1307.940318858501
 30
0.0
 11
497.0454616322468
 21
1347.940318858501
 31
0.0
  0
LINE
  5
39E
330
397
100
AcDbEntity
  8
0 ... Seuil ... Rectangle ... Cotes Angles
 62
     0
370
    -2
100
AcDbLine
 10
497.0454616322468
 20
1055.940318858502
 30
0.0
 11
537.0454616322468
 21
1015.940318858502
 31
0.0
  0
MTEXT
  5
39F
330
397
100
AcDbEntity
  8
0 ... Seuil ... Rectangle ... Cotes Angles
 62
     0
100
AcDbMText
 10
502.0454616322468
 20
1181.940318858502
 30
0.0
 40
20.0
 41
0.0
 46
0.0
 71
     5
 72
     1
  1
\A1;292
  7
QCADDimTextStyle
 11
0.0
 21
1.0
 31
0.0
 73
     1
 44
1.0
  0
POINT
  5
3A0
330
397
100
AcDbEntity
  8
Defpoints
 62
     0
100
AcDbPoint
 10
626.3779055650648
 20
1327.940318858501
 30
0.0
  0
POINT
  5
3A1
330
397
100
AcDbEntity
  8
Defpoints
 62
     0
100
AcDbPoint
 10
626.3779055650648
 20
1035.940318858502
 30
0.0
  0
POINT
  5
3A2
330
397
100
AcDbEntity
  8
Defpoints
 62
     0
100
AcDbPoint
 10
517.0454616322468
 20
1035.940318858502
 30
0.0
  0
ENDBLK
  5
399
330
397
100
AcDbEntity
  8
0
100
AcDbBlockEnd
  0
BLOCK
  5
3A4
330
3A3
100
AcDbEntity
  8
0
100
AcDbBlockBegin
  2
*D6
 70
     1
 10
0.0
 20
0.0
 30
0.0
  3
*D6
  1
*D6
  0
LINE
  5
3A6
330
3A3
100
AcDbEntity
  8
0 ... Seuil ... Rectangle ... Cotes Angles
 62
     0
370
    -2
100
AcDbLine
 10
393.9606479899066
 20
1332.940318858499
 30
0.0
 11
393.9606479898994
 21
1402.849173516089
 31
0.0
  0
LINE
  5
3A7
330
3A3
100
AcDbEntity
  8
0 ... Seuil ... Rectangle ... Cotes Angles
 62
     0
370
    -2
100
AcDbLine
 10
413.9606479899066
 20
1332.940318858501
 30
0.0
 11
413.9606479898994
 21
1402.849173516091
 31
0.0
  0
LINE
  5
3A8
330
3A3
100
AcDbEntity
  8
0 ... Seuil ... Rectangle ... Cotes Angles
 62
     0
370
    -2
100
AcDbLine
 10
393.9606479899005
 20
1392.849173516089
 30
0.0
 11
413.9606479899005
 21
1392.849173516091
 31
0.0
  0
LINE
  5
3A9
330
3A3
100
AcDbEntity
  8
0 ... Seuil ... Rectangle ... Cotes Angles
 62
     0
370
    -2
100
AcDbLine
 10
413.9606479898984
 20
1412.849173516091
 30
0.0
 11
373.9606479899025
 21
1372.849173516087
 31
0.0
  0
LINE
  5
3AA
330
3A3
100
AcDbEntity
  8
0 ... Seuil ... Rectangle ... Cotes Angles
 62
     0
370
    -2
100
AcDbLine
 10
393.9606479899025
 20
1372.849173516089
 30
0.0
 11
433.9606479898984
 21
1412.849173516093
 31
0.0
  0
MTEXT
  5
3AB
330
3A3
100
AcDbEntity
  8
0 ... Seuil ... Rectangle ... Cotes Angles
 62
     0
100
AcDbMText
 10
403.9606479898976
 20
1420.34917351609
 30
0.0
 40
20.0
 41
0.0
 46
0.0
 71
     5
 72
     1
  1
\A1;20
  7
QCADDimTextStyle
 73
     1
 44
1.0
  0
POINT
  5
3AC
330
3A3
100
AcDbEntity
  8
Defpoints
 62
     0
100
AcDbPoint
 10
393.9606479899071
 20
1327.940318858499
 30
0.0
  0
POINT
  5
3AD
330
3A3
100
AcDbEntity
  8
Defpoints
 62
     0
100
AcDbPoint
 10
413.9606479899071
 20
1327.940318858501
 30
0.0
  0
POINT
  5
3AE
330
3A3
100
AcDbEntity
  8
Defpoints
 62
     0
100
AcDbPoint
 10
413.9606479899005
 20
1392.849173516091
 30
0.0
  0
ENDBLK
  5
3A5
330
3A3
100
AcDbEntity
  8
0
100
AcDbBlockEnd
  0
BLOCK
  5
3B0
330
3AF
100
AcDbEntity
  8
0
100
AcDbBlockBegin
  2
*D7
 70
     1
 10
0.0
 20
0.0
 30
0.0
  3
*D7
  1
*D7
  0
LINE
  5
3B2
330
3AF
100
AcDbEntity
  8
0 ... Seuil ... Rectangle ... Cotes Angles
 62
     0
370
    -2
100
AcDbLine
 10
430.463760029566
 20
1086.940318858502
 30
0.0
 11
430.4637600295582
 21
1129.84301390566
 31
0.0
  0
LINE
  5
3B3
330
3AF
100
AcDbEntity
  8
0 ... Seuil ... Rectangle ... Cotes Angles
 62
     0
370
    -2
100
AcDbLine
 10
435.482859217283
 20
1086.940318858503
 30
0.0
 11
435.4828592172752
 21
1129.843013905661
 31
0.0
  0
LINE
  5
3B4
330
3AF
100
AcDbEntity
  8
0 ... Seuil ... Rectangle ... Cotes Angles
 62
     0
370
    -2
100
AcDbLine
 10
410.4637600295637
 20
1099.843013905657
 30
0.0
 11
450.4637600295564
 21
1139.843013905664
 31
0.0
  0
LINE
  5
3B5
330
3AF
100
AcDbEntity
  8
0 ... Seuil ... Rectangle ... Cotes Angles
 62
     0
370
    -2
100
AcDbLine
 10
455.4828592172734
 20
1139.843013905665
 30
0.0
 11
415.4828592172806
 21
1099.843013905657
 31
0.0
  0
MTEXT
  5
3B6
330
3AF
100
AcDbEntity
  8
0 ... Seuil ... Rectangle ... Cotes Angles
 62
     0
100
AcDbMText
 10
434.084868457152
 20
1141.024695176259
 30
0.0
 40
20.0
 41
0.0
 46
0.0
 71
     5
 72
     1
  1
\A1;5.0191
  7
QCADDimTextStyle
 73
     1
 44
1.0
  0
POINT
  5
3B7
330
3AF
100
AcDbEntity
  8
Defpoints
 62
     0
100
AcDbPoint
 10
430.4637600295669
 20
1081.940318858502
 30
0.0
  0
POINT
  5
3B8
330
3AF
100
AcDbEntity
  8
Defpoints
 62
     0
100
AcDbPoint
 10
435.4828592172839
 20
1081.940318858503
 30
0.0
  0
POINT
  5
3B9
330
3AF
100
AcDbEntity
  8
Defpoints
 62
     0
100
AcDbPoint
 10
435.482859217277
 20
1119.843013905661
 30
0.0
  0
ENDBLK
  5
3B1
330
3AF
100
AcDbEntity
  8
0
100
AcDbBlockEnd
  0
BLOCK
  5
3BB
330
3BA
100
AcDbEntity
  8
0
100
AcDbBlockBegin
  2
*D8
 70
     1
 10
0.0
 20
0.0
 30
0.0
  3
*D8
  1
*D8
  0
LINE
  5
3BD
330
3BA
100
AcDbEntity
  8
0 ... Seuil ... Rectangle ... Cotes Angles
 62
     0
370
    -2
100
AcDbLine
 10
438.0016079831616
 20
1030.940318858501
 30
0.0
 11
438.0016079831639
 21
999.693444536958
 31
0.0
  0
LINE
  5
3BE
330
3BA
100
AcDbEntity
  8
0 ... Seuil ... Rectangle ... Cotes Angles
 62
     0
370
    -2
100
AcDbLine
 10
450.0016079831616
 20
1030.940318858502
 30
0.0
 11
450.0016079831639
 21
999.693444536959
 31
0.0
  0
LINE
  5
3BF
330
3BA
100
AcDbEntity
  8
0 ... Seuil ... Rectangle ... Cotes Angles
 62
     0
370
    -2
100
AcDbLine
 10
438.0016079831632
 20
1009.693444536958
 30
0.0
 11
450.0016079831632
 21
1009.693444536959
 31
0.0
  0
LINE
  5
3C0
330
3BA
100
AcDbEntity
  8
0 ... Seuil ... Rectangle ... Cotes Angles
 62
     0
370
    -2
100
AcDbLine
 10
458.0016079831616
 20
1029.69344453696
 30
0.0
 11
418.0016079831647
 21
989.6934445369566
 31
0.0
  0
LINE
  5
3C1
330
3BA
100
AcDbEntity
  8
0 ... Seuil ... Rectangle ... Cotes Angles
 62
     0
370
    -2
100
AcDbLine
 10
430.0016079831647
 20
989.6934445369575
 30
0.0
 11
470.0016079831616
 21
1029.69344453696
 31
0.0
  0
MTEXT
  5
3C2
330
3BA
100
AcDbEntity
  8
0 ... Seuil ... Rectangle ... Cotes Angles
 62
     0
100
AcDbMText
 10
444.0016079831612
 20
982.024695176261
 30
0.0
 40
20.0
 41
0.0
 46
0.0
 71
     5
 72
     1
  1
\A1;12
  7
QCADDimTextStyle
 73
     1
 44
1.0
  0
POINT
  5
3C3
330
3BA
100
AcDbEntity
  8
Defpoints
 62
     0
100
AcDbPoint
 10
438.0016079831612
 20
1035.940318858501
 30
0.0
  0
POINT
  5
3C4
330
3BA
100
AcDbEntity
  8
Defpoints
 62
     0
100
AcDbPoint
 10
450.0016079831612
 20
1035.940318858502
 30
0.0
  0
POINT
  5
3C5
330
3BA
100
AcDbEntity
  8
Defpoints
 62
     0
100
AcDbPoint
 10
450.0016079831632
 20
1009.693444536959
 30
0.0
  0
ENDBLK
  5
3BC
330
3BA
100
AcDbEntity
  8
0
100
AcDbBlockEnd
  0
BLOCK
  5
3C7
330
3C6
100
AcDbEntity
  8
0
100
AcDbBlockBegin
  2
*D9
 70
     1
 10
0.0
 20
0.0
 30
0.0
  3
*D9
  1
*D9
  0
LINE
  5
3C9
330
3C6
100
AcDbEntity
  8
0 ... Seuil ... Rectangle ... Cotes Angles
 62
     0
370
    -2
100
AcDbLine
 10
453.5371418890933
 20
1039.475852764435
 30
0.0
 11
469.6282340952416
 21
1055.566944970589
 31
0.0
  0
LINE
  5
3CA
330
3C6
100
AcDbEntity
  8
0 ... Seuil ... Rectangle ... Cotes Angles
 62
     0
370
    -2
100
AcDbLine
 10
446.4660740772271
 20
1046.546920576299
 30
0.0
 11
462.5571662833754
 21
1062.638012782453
 31
0.0
  0
LINE
  5
3CB
330
3C6
100
AcDbEntity
  8
0 ... Seuil ... Rectangle ... Cotes Angles
 62
     0
370
    -2
100
AcDbLine
 10
490.8414375308391
 20
1048.495877158727
 30
0.0
 11
434.2728950359153
 21
1048.495877158718
 31
0.0
  0
LINE
  5
3CC
330
3C6
100
AcDbEntity
  8
0 ... Seuil ... Rectangle ... Cotes Angles
 62
     0
370
    -2
100
AcDbLine
 10
427.2018272240491
 20
1055.566944970582
 30
0.0
 11
483.7703697189729
 21
1055.566944970591
 31
0.0
  0
MTEXT
  5
3CD
330
3C6
100
AcDbEntity
  8
0 ... Seuil ... Rectangle ... Cotes Angles
 62
     0
100
AcDbMText
 10
475.0132656259689
 20
1068.051758710696
 30
0.0
 40
20.0
 41
0.0
 46
0.0
 71
     5
 72
     1
  1
\A1;10
  7
QCADDimTextStyle
 11
0.7071067811866611
 21
-0.7071067811864338
 31
0.0
 73
     1
 44
1.0
  0
POINT
  5
3CE
330
3C6
100
AcDbEntity
  8
Defpoints
 62
     0
100
AcDbPoint
 10
450.0016079831612
 20
1035.940318858502
 30
0.0
  0
POINT
  5
3CF
330
3C6
100
AcDbEntity
  8
Defpoints
 62
     0
100
AcDbPoint
 10
442.930540171295
 20
1043.011386670366
 30
0.0
  0
POINT
  5
3D0
330
3C6
100
AcDbEntity
  8
Defpoints
 62
     0
100
AcDbPoint
 10
455.486098471511
 20
1055.566944970586
 30
0.0
  0
ENDBLK
  5
3C8
330
3C6
100
AcDbEntity
  8
0
100
AcDbBlockEnd
  0
BLOCK
  5
3D2
330
3D1
100
AcDbEntity
  8
0
100
AcDbBlockBegin
  2
*D10
 70
     1
 10
0.0
 20
0.0
 30
0.0
  3
*D10
  1
*D10
  0
LINE
  5
3D4
330
3D1
100
AcDbEntity
  8
0 ... Seuil ... Rectangle ... Cotes Angles
 62
     0
370
    -2
100
AcDbLine
 10
388.9606479899071
 20
1327.940318858499
 30
0.0
 11
289.2499001233978
 21
1327.940318858499
 31
0.0
  0
LINE
  5
3D5
330
3D1
100
AcDbEntity
  8
0 ... Seuil ... Rectangle ... Cotes Angles
 62
     0
370
    -2
100
AcDbLine
 10
360.8693840373608
 20
1303.9403188585
 30
0.0
 11
289.2499001233978
 21
1303.9403188585
 31
0.0
  0
LINE
  5
3D6
330
3D1
100
AcDbEntity
  8
0 ... Seuil ... Rectangle ... Cotes Angles
 62
     0
370
    -2
100
AcDbLine
 10
299.2499001233978
 20
1327.940318858499
 30
0.0
 11
299.2499001233978
 21
1303.9403188585
 31
0.0
  0
LINE
  5
3D7
330
3D1
100
AcDbEntity
  8
0 ... Seuil ... Rectangle ... Cotes Angles
 62
     0
370
    -2
100
AcDbLine
 10
319.2499001233978
 20
1307.940318858499
 30
0.0
 11
279.2499001233978
 21
1347.940318858499
 31
0.0
  0
LINE
  5
3D8
330
3D1
100
AcDbEntity
  8
0 ... Seuil ... Rectangle ... Cotes Angles
 62
     0
370
    -2
100
AcDbLine
 10
279.2499001233978
 20
1323.9403188585
 30
0.0
 11
319.2499001233978
 21
1283.9403188585
 31
0.0
  0
MTEXT
  5
3D9
330
3D1
100
AcDbEntity
  8
0 ... Seuil ... Rectangle ... Cotes Angles
 62
     0
100
AcDbMText
 10
271.7499001233978
 20
1315.940318858499
 30
0.0
 40
20.0
 41
0.0
 46
0.0
 71
     5
 72
     1
  1
\A1;24
  7
QCADDimTextStyle
 73
     1
 44
1.0
  0
POINT
  5
3DA
330
3D1
100
AcDbEntity
  8
Defpoints
 62
     0
100
AcDbPoint
 10
393.9606479899071
 20
1327.940318858499
 30
0.0
  0
POINT
  5
3DB
330
3D1
100
AcDbEntity
  8
Defpoints
 62
     0
100
AcDbPoint
 10
365.8693840373608
 20
1303.9403188585
 30
0.0
  0
POINT
  5
3DC
330
3D1
100
AcDbEntity
  8
Defpoints
 62
     0
100
AcDbPoint
 10
299.2499001233978
 20
1303.9403188585
 30
0.0
  0
ENDBLK
  5
3D3
330
3D1
100
AcDbEntity
  8
0
100
AcDbBlockEnd
  0
BLOCK
  5
3DE
330
3DD
100
AcDbEntity
  8
0
100
AcDbBlockBegin
  2
*D11
 70
     1
 10
0.0
 20
0.0
 30
0.0
  3
*D11
  1
*D11
  0
LINE
  5
3E0
330
3DD
100
AcDbEntity
  8
0 ... Seuil ... Rectangle ... Cotes Angles
 62
     0
370
    -2
100
AcDbLine
 10
365.8693840373608
 20
1308.9403188585
 30
0.0
 11
365.8693840373608
 21
1372.024695176261
 31
0.0
  0
LINE
  5
3E1
330
3DD
100
AcDbEntity
  8
0 ... Seuil ... Rectangle ... Cotes Angles
 62
     0
370
    -2
100
AcDbLine
 10
393.9606479899071
 20
1332.940318858499
 30
0.0
 11
393.9606479899071
 21
1372.024695176261
 31
0.0
  0
LINE
  5
3E2
330
3DD
100
AcDbEntity
  8
0 ... Seuil ... Rectangle ... Cotes Angles
 62
     0
370
    -2
100
AcDbLine
 10
365.8693840373608
 20
1362.024695176261
 30
0.0
 11
393.9606479899071
 21
1362.024695176261
 31
0.0
  0
LINE
  5
3E3
330
3DD
100
AcDbEntity
  8
0 ... Seuil ... Rectangle ... Cotes Angles
 62
     0
370
    -2
100
AcDbLine
 10
385.8693840373608
 20
1382.024695176261
 30
0.0
 11
345.8693840373608
 21
1342.024695176261
 31
0.0
  0
LINE
  5
3E4
330
3DD
100
AcDbEntity
  8
0 ... Seuil ... Rectangle ... Cotes Angles
 62
     0
370
    -2
100
AcDbLine
 10
373.9606479899071
 20
1342.024695176261
 30
0.0
 11
413.9606479899071
 21
1382.024695176261
 31
0.0
  0
MTEXT
  5
3E5
330
3DD
100
AcDbEntity
  8
0 ... Seuil ... Rectangle ... Cotes Angles
 62
     0
100
AcDbMText
 10
338.1935929421402
 20
1377.024695176261
 30
0.0
 40
20.0
 41
0.0
 46
0.0
 71
     5
 72
     1
  1
\A1;28.0913
  7
QCADDimTextStyle
 73
     1
 44
1.0
  0
POINT
  5
3E6
330
3DD
100
AcDbEntity
  8
Defpoints
 62
     0
100
AcDbPoint
 10
365.8693840373608
 20
1303.9403188585
 30
0.0
  0
POINT
  5
3E7
330
3DD
100
AcDbEntity
  8
Defpoints
 62
     0
100
AcDbPoint
 10
393.9606479899071
 20
1327.940318858499
 30
0.0
  0
POINT
  5
3E8
330
3DD
100
AcDbEntity
  8
Defpoints
 62
     0
100
AcDbPoint
 10
393.9606479899071
 20
1362.024695176261
 30
0.0
  0
ENDBLK
  5
3DF
330
3DD
100
AcDbEntity
  8
0
100
AcDbBlockEnd
  0
BLOCK
  5
3EA
330
3E9
100
AcDbEntity
  8
0
100
AcDbBlockBegin
  2
*D12
 70
     1
 10
0.0
 20
0.0
 30
0.0
  3
*D12
  1
*D12
  0
LINE
  5
3EC
330
3E9
100
AcDbEntity
  8
0 ... Seuil ... Rectangle ... Cotes Angles
 62
     0
370
    -2
100
AcDbLine
 10
360.8693840373608
 20
1303.9403188585
 30
0.0
 11
289.2499001233978
 21
1303.9403188585
 31
0.0
  0
LINE
  5
3ED
330
3E9
100
AcDbEntity
  8
0 ... Seuil ... Rectangle ... Cotes Angles
 62
     0
370
    -2
100
AcDbLine
 10
380.2918673401168
 20
1081.940318858501
 30
0.0
 11
289.2499001233978
 21
1081.940318858501
 31
0.0
  0
LINE
  5
3EE
330
3E9
100
AcDbEntity
  8
0 ... Seuil ... Rectangle ... Cotes Angles
 62
     0
370
    -2
100
AcDbLine
 10
299.2499001233978
 20
1303.9403188585
 30
0.0
 11
299.2499001233978
 21
1081.940318858501
 31
0.0
  0
LINE
  5
3EF
330
3E9
100
AcDbEntity
  8
0 ... Seuil ... Rectangle ... Cotes Angles
 62
     0
370
    -2
100
AcDbLine
 10
319.2499001233978
 20
1283.9403188585
 30
0.0
 11
279.2499001233978
 21
1323.9403188585
 31
0.0
  0
LINE
  5
3F0
330
3E9
100
AcDbEntity
  8
0 ... Seuil ... Rectangle ... Cotes Angles
 62
     0
370
    -2
100
AcDbLine
 10
279.2499001233978
 20
1101.940318858501
 30
0.0
 11
319.2499001233978
 21
1061.940318858501
 31
0.0
  0
MTEXT
  5
3F1
330
3E9
100
AcDbEntity
  8
0 ... Seuil ... Rectangle ... Cotes Angles
 62
     0
100
AcDbMText
 10
284.2499001233978
 20
1192.940318858501
 30
0.0
 40
20.0
 41
0.0
 46
0.0
 71
     5
 72
     1
  1
\A1;222
  7
QCADDimTextStyle
 11
0.0
 21
1.0
 31
0.0
 73
     1
 44
1.0
  0
POINT
  5
3F2
330
3E9
100
AcDbEntity
  8
Defpoints
 62
     0
100
AcDbPoint
 10
365.8693840373608
 20
1303.9403188585
 30
0.0
  0
POINT
  5
3F3
330
3E9
100
AcDbEntity
  8
Defpoints
 62
     0
100
AcDbPoint
 10
385.2918673401168
 20
1081.940318858501
 30
0.0
  0
POINT
  5
3F4
330
3E9
100
AcDbEntity
  8
Defpoints
 62
     0
100
AcDbPoint
 10
299.2499001233978
 20
1081.940318858501
 30
0.0
  0
ENDBLK
  5
3EB
330
3E9
100
AcDbEntity
  8
0
100
AcDbBlockEnd
  0
BLOCK
  5
3F6
330
3F5
100
AcDbEntity
  8
0
100
AcDbBlockBegin
  2
*D13
 70
     1
 10
0.0
 20
0.0
 30
0.0
  3
*D13
  1
*D13
  0
LINE
  5
3F8
330
3F5
100
AcDbEntity
  8
0 ... Seuil ... Rectangle ... Cotes Angles
 62
     0
370
    -2
100
AcDbLine
 10
388.9606479899071
 20
1327.940318858499
 30
0.0
 11
253.3230790246462
 21
1327.940318858499
 31
0.0
  0
LINE
  5
3F9
330
3F5
100
AcDbEntity
  8
0 ... Seuil ... Rectangle ... Cotes Angles
 62
     0
370
    -2
100
AcDbLine
 10
380.2918673401159
 20
1081.940318858501
 30
0.0
 11
253.3230790246462
 21
1081.940318858501
 31
0.0
  0
LINE
  5
3FA
330
3F5
100
AcDbEntity
  8
0 ... Seuil ... Rectangle ... Cotes Angles
 62
     0
370
    -2
100
AcDbLine
 10
263.3230790246462
 20
1327.940318858499
 30
0.0
 11
263.3230790246462
 21
1081.940318858501
 31
0.0
  0
LINE
  5
3FB
330
3F5
100
AcDbEntity
  8
0 ... Seuil ... Rectangle ... Cotes Angles
 62
     0
370
    -2
100
AcDbLine
 10
283.3230790246462
 20
1307.940318858499
 30
0.0
 11
243.3230790246462
 21
1347.940318858499
 31
0.0
  0
LINE
  5
3FC
330
3F5
100
AcDbEntity
  8
0 ... Seuil ... Rectangle ... Cotes Angles
 62
     0
370
    -2
100
AcDbLine
 10
243.3230790246462
 20
1101.940318858501
 30
0.0
 11
283.3230790246462
 21
1061.940318858501
 31
0.0
  0
MTEXT
  5
3FD
330
3F5
100
AcDbEntity
  8
0 ... Seuil ... Rectangle ... Cotes Angles
 62
     0
100
AcDbMText
 10
248.3230790246462
 20
1204.9403188585
 30
0.0
 40
20.0
 41
0.0
 46
0.0
 71
     5
 72
     1
  1
\A1;246
  7
QCADDimTextStyle
 11
0.0
 21
1.0
 31
0.0
 73
     1
 44
1.0
  0
POINT
  5
3FE
330
3F5
100
AcDbEntity
  8
Defpoints
 62
     0
100
AcDbPoint
 10
393.9606479899071
 20
1327.940318858499
 30
0.0
  0
POINT
  5
3FF
330
3F5
100
AcDbEntity
  8
Defpoints
 62
     0
100
AcDbPoint
 10
385.2918673401159
 20
1081.940318858501
 30
0.0
  0
POINT
  5
400
330
3F5
100
AcDbEntity
  8
Defpoints
 62
     0
100
AcDbPoint
 10
263.3230790246462
 20
1081.940318858501
 30
0.0
  0
ENDBLK
  5
3F7
330
3F5
100
AcDbEntity
  8
0
100
AcDbBlockEnd
  0
BLOCK
  5
402
330
401
100
AcDbEntity
  8
0
100
AcDbBlockBegin
  2
*D14
 70
     1
 10
0.0
 20
0.0
 30
0.0
  3
*D14
  1
*D14
  0
LINE
  5
404
330
401
100
AcDbEntity
  8
0 ... Seuil ... Rectangle ... Cotes Angles
 62
     0
370
    -2
100
AcDbLine
 10
360.8884105469021
 20
1303.504540144762
 30
0.0
 11
313.7387807177396
 21
1299.379482045266
 31
0.0
  0
LINE
  5
405
330
401
100
AcDbEntity
  8
0 ... Seuil ... Rectangle ... Cotes Angles
 62
     0
370
    -2
100
AcDbLine
 10
380.3108938496581
 20
1081.504540144763
 30
0.0
 11
333.1612640204957
 21
1077.379482045267
 31
0.0
  0
LINE
  5
406
330
401
100
AcDbEntity
  8
0 ... Seuil ... Rectangle ... Cotes Angles
 62
     0
370
    -2
100
AcDbLine
 10
323.7007276986571
 20
1300.251039472743
 30
0.0
 11
343.1232110014131
 21
1078.251039472744
 31
0.0
  0
LINE
  5
407
330
401
100
AcDbEntity
  8
0 ... Seuil ... Rectangle ... Cotes Angles
 62
     0
370
    -2
100
AcDbLine
 10
345.3677365154452
 20
1282.070260365861
 30
0.0
 11
302.0337188818689
 21
1318.431818579624
 31
0.0
  0
LINE
  5
408
330
401
100
AcDbEntity
  8
0 ... Seuil ... Rectangle ... Cotes Angles
 62
     0
370
    -2
100
AcDbLine
 10
321.4562021846249
 20
1096.431818579625
 30
0.0
 11
364.7902198182013
 21
1060.070260365862
 31
0.0
  0
MTEXT
  5
409
330
401
100
AcDbEntity
  8
0 ... Seuil ... Rectangle ... Cotes Angles
 62
     0
100
AcDbMText
 10
348.3548898214112
 20
1190.558375613958
 30
0.0
 40
20.0
 41
0.0
 46
0.0
 71
     5
 72
     1
  1
\A1;222.848
  7
QCADDimTextStyle
 11
0.08715574274766251
 21
-0.9961946980917451
 31
0.0
 73
     1
 44
1.0
  0
POINT
  5
40A
330
401
100
AcDbEntity
  8
Defpoints
 62
     0
100
AcDbPoint
 10
365.8693840373608
 20
1303.9403188585
 30
0.0
  0
POINT
  5
40B
330
401
100
AcDbEntity
  8
Defpoints
 62
     0
100
AcDbPoint
 10
385.2918673401168
 20
1081.940318858501
 30
0.0
  0
POINT
  5
40C
330
401
100
AcDbEntity
  8
Defpoints
 62
     0
100
AcDbPoint
 10
343.1232110014131
 20
1078.251039472744
 30
0.0
  0
ENDBLK
  5
403
330
401
100
AcDbEntity
  8
0
100
AcDbBlockEnd
  0
BLOCK
  5
40E
330
40D
100
AcDbEntity
  8
0
100
AcDbBlockBegin
  2
*D15
 70
     1
 10
0.0
 20
0.0
 30
0.0
  3
*D15
  1
*D15
  0
LINE
  5
410
330
40D
100
AcDbEntity
  8
0 ... Seuil ... Rectangle ... Cotes Angles
 62
     0
370
    -2
100
AcDbLine
 10
418.9606479899071
 20
1327.940318858501
 30
0.0
 11
493.366660302489
 21
1327.940318858501
 31
0.0
  0
LINE
  5
411
330
40D
100
AcDbEntity
  8
0 ... Seuil ... Rectangle ... Cotes Angles
 62
     0
370
    -2
100
AcDbLine
 10
418.9606479899071
 20
1326.440318858502
 30
0.0
 11
493.366660302489
 21
1326.440318858502
 31
0.0
  0
LINE
  5
412
330
40D
100
AcDbEntity
  8
0 ... Seuil ... Rectangle ... Cotes Angles
 62
     0
370
    -2
100
AcDbLine
 10
463.366660302489
 20
1347.940318858501
 30
0.0
 11
503.366660302489
 21
1307.940318858501
 31
0.0
  0
LINE
  5
413
330
40D
100
AcDbEntity
  8
0 ... Seuil ... Rectangle ... Cotes Angles
 62
     0
370
    -2
100
AcDbLine
 10
503.366660302489
 20
1306.440318858502
 30
0.0
 11
463.366660302489
 21
1346.440318858502
 31
0.0
  0
MTEXT
  5
414
330
40D
100
AcDbEntity
  8
0 ... Seuil ... Rectangle ... Cotes Angles
 62
     0
100
AcDbMText
 10
510.866660302489
 20
1327.190318858502
 30
0.0
 40
20.0
 41
0.0
 46
0.0
 71
     5
 72
     1
  1
\A1;1.5
  7
QCADDimTextStyle
 73
     1
 44
1.0
  0
POINT
  5
415
330
40D
100
AcDbEntity
  8
Defpoints
 62
     0
100
AcDbPoint
 10
413.9606479899071
 20
1327.940318858501
 30
0.0
  0
POINT
  5
416
330
40D
100
AcDbEntity
  8
Defpoints
 62
     0
100
AcDbPoint
 10
413.9606479899071
 20
1326.440318858502
 30
0.0
  0
POINT
  5
417
330
40D
100
AcDbEntity
  8
Defpoints
 62
     0
100
AcDbPoint
 10
483.366660302489
 20
1326.440318858502
 30
0.0
  0
ENDBLK
  5
40F
330
40D
100
AcDbEntity
  8
0
100
AcDbBlockEnd
  0
ENDSEC
  0
SECTION
  2
ENTITIES
  0
LINE
  5
37
330
295
100
AcDbEntity
  8
0 ... Seuil ... Rectangle
100
AcDbLine
 10
626.3779055650648
 20
1327.940318858501
 30
0.0
 11
2951.677905565066
 21
1327.940318858501
 31
0.0
  0
LINE
  5
38
330
295
100
AcDbEntity
  8
0 ... Seuil ... Rectangle
100
AcDbLine
 10
626.3779055650648
 20
1035.940318858501
 30
0.0
 11
2951.677905565066
 21
1035.940318858501
 31
0.0
  0
LINE
  5
39
330
295
100
AcDbEntity
  8
0 ... Seuil ... Rectangle
100
AcDbLine
 10
626.3779055650648
 20
1035.940318858501
 30
0.0
 11
626.3779055650648
 21
1327.940318858501
 31
0.0
  0
LINE
  5
3A
330
295
100
AcDbEntity
  8
0 ... Seuil ... Rectangle
100
AcDbLine
 10
2951.677905565066
 20
1035.940318858501
 30
0.0
 11
2951.677905565066
 21
1327.940318858501
 31
0.0
  0
LINE
  5
3B
330
295
100
AcDbEntity
  8
0 ... Seuil ... Rectangle
100
AcDbLine
 10
626.3779055650648
 20
1326.440318858501
 30
0.0
 11
2951.677905565066
 21
1326.440318858501
 31
0.0
  0
LINE
  5
3C
330
295
100
AcDbEntity
  8
0 ... Seuil ... Rectangle
100
AcDbLine
 10
624.8779055650648
 20
1035.940318858501
 30
0.0
 11
624.8779055650648
 21
1081.940318858501
 31
0.0
  0
LINE
  5
3D
330
295
100
AcDbEntity
  8
0 ... Seuil ... Rectangle
100
AcDbLine
 10
2953.177905565066
 20
1035.940318858501
 30
0.0
 11
2953.177905565066
 21
1081.940318858499
 31
0.0
  0
LINE
  5
3E
330
295
100
AcDbEntity
  8
0 ... Seuil ... Rectangle
100
AcDbLine
 10
2950.177905565066
 20
1035.940318858501
 30
0.0
 11
2950.177905565066
 21
1326.440318858499
 31
0.0
  0
LINE
  5
3F
330
295
100
AcDbEntity
  8
0 ... Seuil ... Rectangle
100
AcDbLine
 10
627.8779055650648
 20
1035.940318858501
 30
0.0
 11
627.8779055650648
 21
1326.440318858499
 31
0.0
  0
LINE
  5
40
330
295
100
AcDbEntity
  8
0 ... Seuil ... Rectangle
100
AcDbLine
 10
624.8779055650648
 20
1081.940318858501
 30
0.0
 11
627.8779055650648
 21
1081.940318858501
 31
0.0
  0
LINE
  5
41
330
295
100
AcDbEntity
  8
0 ... Seuil ... Rectangle
100
AcDbLine
 10
2950.177905565066
 20
1081.940318858501
 30
0.0
 11
2953.177905565066
 21
1081.940318858501
 31
0.0
  0
LINE
  5
42
330
295
100
AcDbEntity
  8
0 ... Seuil ... Rectangle
100
AcDbLine
 10
2951.677905565066
 20
1035.940318858501
 30
0.0
 11
2953.177905565066
 21
1035.940318858501
 31
0.0
  0
LINE
  5
43
330
295
100
AcDbEntity
  8
0 ... Seuil ... Rectangle
100
AcDbLine
 10
626.3779055650648
 20
1035.940318858501
 30
0.0
 11
624.8779055650648
 21
1035.940318858501
 31
0.0
  0
LINE
  5
44
330
295
100
AcDbEntity
  8
0 ... Seuil ... Rectangle
100
AcDbLine
 10
393.9606479899071
 20
1327.940318858501
 30
0.0
 11
413.9606479899071
 21
1327.940318858501
 31
0.0
  0
LINE
  5
45
330
295
100
AcDbEntity
  8
0 ... Seuil ... Rectangle
100
AcDbLine
 10
438.0016079831612
 20
1035.940318858501
 30
0.0
 11
450.0016079831612
 21
1035.940318858501
 31
0.0
  0
LINE
  5
46
330
295
100
AcDbEntity
  8
0 ... Seuil ... Rectangle
100
AcDbLine
 10
393.9606479899071
 20
1326.440318858501
 30
0.0
 11
413.9606479899071
 21
1326.440318858501
 31
0.0
  0
LINE
  5
47
330
295
100
AcDbEntity
  8
0 ... Seuil ... Rectangle
100
AcDbLine
 10
393.9606479899071
 20
1327.940318858501
 30
0.0
 11
393.9606479899071
 21
1326.440318858501
 31
0.0
  0
LINE
  5
48
330
295
100
AcDbEntity
  8
0 ... Seuil ... Rectangle
100
AcDbLine
 10
365.8693840373608
 20
1303.940318858501
 30
0.0
 11
393.9606479899071
 21
1303.940318858501
 31
0.0
  0
LINE
  5
49
330
295
100
AcDbEntity
  8
0 ... Seuil ... Rectangle
100
AcDbLine
 10
385.2918673401159
 20
1081.940318858501
 30
0.0
 11
365.8693840373608
 21
1303.940318858501
 31
0.0
  0
LINE
  5
4A
330
295
100
AcDbEntity
  8
0 ... Seuil ... Rectangle
100
AcDbLine
 10
393.9606479899071
 20
1303.940318858501
 30
0.0
 11
393.9606479899071
 21
1326.440318858501
 31
0.0
  0
LINE
  5
4B
330
295
100
AcDbEntity
  8
0 ... Seuil ... Rectangle
100
AcDbLine
 10
439.507337739477
 20
1035.940318858501
 30
0.0
 11
413.9606479899071
 21
1327.940318858501
 31
0.0
  0
LINE
  5
4C
330
295
100
AcDbEntity
  8
0 ... Seuil ... Rectangle
100
AcDbLine
 10
439.3761047441881
 20
1037.440318858501
 30
0.0
 11
446.3802876396021
 21
1037.440318858501
 31
0.0
  0
LINE
  5
4D
330
295
100
AcDbEntity
  8
0 ... Seuil ... Rectangle
100
AcDbLine
 10
442.930540171295
 20
1043.011386670367
 30
0.0
 11
441.869879999515
 21
1041.950726498587
 31
0.0
  0
LINE
  5
4E
330
295
100
AcDbEntity
  8
0 ... Seuil ... Rectangle
100
AcDbLine
 10
441.869879999515
 20
1041.950726498587
 30
0.0
 11
446.3802876396012
 21
1037.440318858501
 31
0.0
  0
LINE
  5
4F
330
295
100
AcDbEntity
  8
0 ... Seuil ... Rectangle
100
AcDbLine
 10
442.930540171295
 20
1043.011386670367
 30
0.0
 11
450.0016079831612
 21
1035.940318858501
 31
0.0
  0
LINE
  5
50
330
295
100
AcDbEntity
  8
0 ... Seuil ... Rectangle
100
AcDbLine
 10
385.2918673401168
 20
1081.940318858501
 30
0.0
 11
435.4828592172839
 21
1081.940318858501
 31
0.0
  0
LINE
  5
51
330
295
100
AcDbEntity
  8
0 ... Seuil ... Rectangle
100
AcDbLine
 10
624.8779055650648
 20
1081.940318858501
 30
0.0
 11
625.5829577666
 21
1081.940318858501
 31
0.0
  0
LINE
  5
52
330
295
100
AcDbEntity
  8
0 ... Seuil ... Rectangle
100
AcDbLine
 10
438.0016079831612
 20
1035.940318858501
 30
0.0
 11
430.4637600295669
 21
1081.940318858501
 31
0.0
  0
MTEXT
  5
54
330
295
100
AcDbEntity
  8
0 ... Seuil ... Rectangle ... Cotes Angles
100
AcDbMText
 10
1118.258314484581
 20
889.281457132048
 30
0.0
 40
50.0
 41
0.0
 46
0.0
 71
     1
 72
     1
  1
Relevs
  7
textstyle11
 73
     1
 44
1.0
  0
LEADER
  5
55
330
295
100
AcDbEntity
  8
0 ... Seuil ... Rectangle ... Cotes Angles
100
AcDbLeader
  3
QCADDimStyle
 76
     2
 10
1173.275100906003
 20
746.9664253626606
 30
0.0
 10
1238.931067146204
 20
813.8146585728746
 30
0.0
  0
LEADER
  5
56
330
295
100
AcDbEntity
  8
0 ... Seuil ... Rectangle ... Cotes Angles
100
AcDbLeader
  3
QCADDimStyle
 76
     4
 10
1763.265072063188
 20
650.6907096049986
 30
0.0
 10
1860.217210975137
 20
769.8444367150016
 30
0.0
 10
1684.891012513275
 20
823.7473132647656
 30
0.0
 10
1238.931067146204
 20
813.8146585728746
 30
0.0
  0
LINE
  5
57
330
295
100
AcDbEntity
  8
0 ... Seuil ... Rectangle
100
AcDbLine
 10
1953.156675520359
 20
678.7194157674057
 30
0.0
 11
2340.156675520359
 21
678.7194157674057
 31
0.0
  0
LINE
  5
58
330
295
100
AcDbEntity
  8
0 ... Seuil ... Rectangle
100
AcDbLine
 10
2343.156675520359
 20
681.7194157674057
 30
0.0
 11
2343.156675520359
 21
978.7194157674055
 31
0.0
  0
LINE
  5
59
330
295
100
AcDbEntity
  8
0 ... Seuil ... Rectangle
100
AcDbLine
 10
1953.156675520359
 20
683.2194157674056
 30
0.0
 11
2335.656675520359
 21
683.2194157674056
 31
0.0
  0
LINE
  5
5A
330
295
100
AcDbEntity
  8
0 ... Seuil ... Rectangle
100
AcDbLine
 10
2338.656675520359
 20
686.2194157674056
 30
0.0
 11
2338.656675520359
 21
978.7194157674055
 31
0.0
  0
ARC
  5
5B
330
295
100
AcDbEntity
  8
0 ... Seuil ... Rectangle
100
AcDbCircle
 10
2335.656675520359
 20
686.2194157674056
 30
0.0
 40
3.0
100
AcDbArc
 50
270.0
 51
0.0
  0
ARC
  5
5C
330
295
100
AcDbEntity
  8
0 ... Seuil ... Rectangle
100
AcDbCircle
 10
2340.156675520359
 20
681.7194157674057
 30
0.0
 40
3.0
100
AcDbArc
 50
270.0
 51
0.0
  0
LINE
  5
5D
330
295
100
AcDbEntity
  8
0 ... Seuil ... Rectangle
100
AcDbLine
 10
2529.641386146972
 20
577.0648092843103
 30
0.0
 11
2946.641386146972
 21
577.0648092843103
 31
0.0
  0
LINE
  5
5E
330
295
100
AcDbEntity
  8
0 ... Seuil ... Rectangle
100
AcDbLine
 10
2949.641386146972
 20
580.0648092843103
 30
0.0
 11
2949.641386146972
 21
877.0648092843105
 31
0.0
  0
LINE
  5
5F
330
295
100
AcDbEntity
  8
0 ... Seuil ... Rectangle
100
AcDbLine
 10
2945.141386146972
 20
584.5648092843103
 30
0.0
 11
2945.141386146972
 21
877.0648092843105
 31
0.0
  0
LINE
  5
60
330
295
100
AcDbEntity
  8
0 ... Seuil ... Rectangle
100
AcDbLine
 10
2529.641386146972
 20
581.5648092843103
 30
0.0
 11
2942.141386146972
 21
581.5648092843103
 31
0.0
  0
LINE
  5
61
330
295
100
AcDbEntity
  8
0 ... Seuil ... Rectangle
100
AcDbLine
 10
2942.141386146972
 20
877.0648092843105
 30
0.0
 11
2529.641386146972
 21
877.0648092843105
 31
0.0
  0
ARC
  5
62
330
295
100
AcDbEntity
  8
0 ... Seuil ... Rectangle
100
AcDbCircle
 10
2942.141386146972
 20
584.5648092843103
 30
0.0
 40
3.0
100
AcDbArc
 50
270.0
 51
0.0
  0
ARC
  5
63
330
295
100
AcDbEntity
  8
0 ... Seuil ... Rectangle
100
AcDbCircle
 10
2946.641386146972
 20
580.0648092843103
 30
0.0
 40
3.0
100
AcDbArc
 50
270.0
 51
0.0
  0
LINE
  5
64
330
295
100
AcDbEntity
  8
0 ... Seuil ... Rectangle
100
AcDbLine
 10
2942.141386146972
 20
581.5648092843103
 30
0.0
 11
2942.141386146972
 21
877.0648092843105
 31
0.0
  0
LINE
  5
65
330
295
100
AcDbEntity
  8
0 ... Seuil ... Rectangle
100
AcDbLine
 10
2945.141386146972
 20
877.0648092843105
 30
0.0
 11
2949.641386146972
 21
877.0648092843105
 31
0.0
  0
LINE
  5
66
330
295
100
AcDbEntity
  8
0 ... Seuil ... Rectangle
100
AcDbLine
 10
1926.319859408822
 20
385.3299745851155
 30
0.0
 11
2343.319859408822
 21
385.3299745851155
 31
0.0
  0
LINE
  5
67
330
295
100
AcDbEntity
  8
0 ... Seuil ... Rectangle
100
AcDbLine
 10
2346.319859408822
 20
385.3299745851155
 30
0.0
 11
2346.319859408822
 21
535.3299745851155
 31
0.0
  0
LINE
  5
68
330
295
100
AcDbEntity
  8
0 ... Seuil ... Rectangle
100
AcDbLine
 10
2350.819859408822
 20
385.3299745851155
 30
0.0
 11
2350.819859408822
 21
535.3299745851155
 31
0.0
  0
LINE
  5
69
330
295
100
AcDbEntity
  8
0 ... Seuil ... Rectangle
100
AcDbLine
 10
2341.819859408822
 20
392.8299745851155
 30
0.0
 11
2341.819859408822
 21
535.3299745851155
 31
0.0
  0
LINE
  5
6A
330
295
100
AcDbEntity
  8
0 ... Seuil ... Rectangle
100
AcDbLine
 10
1926.319859408822
 20
389.8299745851155
 30
0.0
 11
2338.819859408822
 21
389.8299745851155
 31
0.0
  0
ARC
  5
6B
330
295
100
AcDbEntity
  8
0 ... Seuil ... Rectangle
100
AcDbCircle
 10
2338.819859408822
 20
392.8299745851155
 30
0.0
 40
3.0
100
AcDbArc
 50
270.0
 51
0.0
  0
ARC
  5
6C
330
295
100
AcDbEntity
  8
0 ... Seuil ... Rectangle
100
AcDbCircle
 10
2346.319859408822
 20
535.3299745851155
 30
0.0
 40
4.5
100
AcDbArc
 50
0.0
 51
180.0
  0
ARC
  5
6D
330
295
100
AcDbEntity
  8
0 ... Seuil ... Rectangle
100
AcDbCircle
 10
2343.319859408822
 20
388.3299745851155
 30
0.0
 40
3.0
100
AcDbArc
 50
270.0
 51
0.0
  0
LINE
  5
6E
330
295
100
AcDbEntity
  8
0 ... Seuil ... Rectangle
100
AcDbLine
 10
2346.319859408822
 20
385.3299745851155
 30
0.0
 11
2350.819859408822
 21
385.3299745851155
 31
0.0
  0
LINE
  5
6F
330
295
100
AcDbEntity
  8
0 ... Seuil ... Rectangle
100
AcDbLine
 10
2341.819859408822
 20
535.3299745851155
 30
0.0
 11
2341.819859408822
 21
610.7526366769443
 31
0.0
  0
LINE
  5
70
330
295
100
AcDbEntity
  8
0 ... Seuil ... Rectangle
100
AcDbLine
 10
2346.319859408822
 20
539.8299745851155
 30
0.0
 11
2346.319859408822
 21
610.752636676943
 31
0.0
  0
LINE
  5
71
330
295
100
AcDbEntity
  8
0 ... Seuil ... Rectangle
100
AcDbLine
 10
2341.819859408822
 20
610.7526366769443
 30
0.0
 11
2346.319859408822
 21
610.7526366769443
 31
0.0
  0
LINE
  5
72
330
295
100
AcDbEntity
  8
0 ... Seuil ... Rectangle
100
AcDbLine
 10
1756.938635249921
 20
670.466126036601
 30
0.0
 11
1756.938635249921
 21
591.3824572106182
 31
0.0
  0
LINE
  5
73
330
295
100
AcDbEntity
  8
0 ... Seuil ... Rectangle
100
AcDbLine
 10
588.9386352499191
 20
488.2793670383218
 30
0.0
 11
1756.025790992668
 21
590.3862625125266
 31
0.0
  0
LINE
  5
74
330
295
100
AcDbEntity
  8
0 ... Seuil ... Rectangle
100
AcDbLine
 10
588.9386352499191
 20
494.3022860635811
 30
0.0
 11
588.9386352499191
 21
446.3022860635811
 31
0.0
  0
LINE
  5
75
330
295
100
AcDbEntity
  8
0 ... Seuil ... Rectangle
100
AcDbLine
 10
1750.938635249921
 20
670.466126036601
 30
0.0
 11
1750.938635249921
 21
589.9411940554451
 31
0.0
  0
LINE
  5
76
330
295
100
AcDbEntity
  8
0 ... Seuil ... Rectangle
100
AcDbLine
 10
594.9386352499191
 20
488.8042990194772
 30
0.0
 11
594.9386352499191
 21
460.7875674378192
 31
0.0
  0
LINE
  5
77
330
295
100
AcDbEntity
  8
0 ... Seuil ... Rectangle
100
AcDbLine
 10
1660.938635249919
 20
670.466126036601
 30
0.0
 11
1756.938635249921
 21
670.466126036601
 31
0.0
  0
LINE
  5
78
330
295
100
AcDbEntity
  8
0 ... Seuil ... Rectangle
100
AcDbLine
 10
617.2229064973799
 20
474.5865573110423
 30
0.0
 11
588.9386352499191
 21
446.3022860635811
 31
0.0
  0
LINE
  5
79
330
295
100
AcDbEntity
  8
0 ... Seuil ... Rectangle
100
AcDbLine
 10
612.9802658102599
 20
478.8291979981623
 30
0.0
 11
594.9386352499168
 21
460.7875674378192
 31
0.0
  0
LINE
  5
7A
330
295
100
AcDbEntity
  8
0 ... Seuil ... Rectangle
100
AcDbLine
 10
612.9802658102599
 20
478.8291979981623
 30
0.0
 11
617.2229064973799
 21
474.5865573110423
 31
0.0
  0
LINE
  5
7B
330
295
100
AcDbEntity
  8
0 ... Seuil ... Rectangle
100
AcDbLine
 10
780.9386352499191
 20
705.8411579439676
 30
0.0
 11
780.9386352499191
 21
505.0771904352969
 31
0.0
  0
LINE
  5
7C
330
295
100
AcDbEntity
  8
0 ... Seuil ... Rectangle
100
AcDbLine
 10
780.9386352499209
 20
705.8411579439686
 30
0.0
 11
1660.938635249919
 21
782.8311818467826
 31
0.0
  0
LINE
  5
7D
330
295
100
AcDbEntity
  8
0 ... Seuil ... Rectangle
100
AcDbLine
 10
1660.938635249919
 20
782.8311818467826
 30
0.0
 11
1660.938635249919
 21
670.466126036601
 31
0.0
  0
LINE
  5
7E
330
295
100
AcDbEntity
  8
0 ... Seuil ... Rectangle
100
AcDbLine
 10
588.9386352499168
 20
494.3022860635811
 30
0.0
 11
780.9386352499191
 21
537.1994252366858
 31
0.0
  0
DIMENSION
  5
80
330
295
100
AcDbEntity
  8
0 ... Seuil ... Rectangle ... Cotes Angles
100
AcDbDimension
280
     0
  2
*D1
 10
588.9386352499189
 20
446.302286063584
 30
0.0
 11
471.1357846024848
 21
602.2487104999417
 31
0.0
 70
   162
 71
     5
 42
1.658062789394613
 73
     0
 74
     0
 75
     0
  3
QCADDimStyle
100
AcDb2LineAngularDimension
 13
780.9386352499191
 23
511.1001094605599
 33
0.0
 14
588.9386352499166
 24
494.3022860635828
 34
0.0
 15
588.938635249919
 25
494.302286063583
 35
0.0
 16
512.9320433431985
 26
617.5277403223215
 36
0.0
1001
ACAD
1000
DSTYLE
1002
{
1070
   279
1070
     2
1070
    41
1040
20.0
1070
    79
1070
     2
1070
   176
1070
     0
1070
   177
1070
     0
1070
   178
1070
     0
1070
    44
1040
10.0
1070
    42
1040
5.0
1070
   147
1040
5.0
1070
   142
1040
20.0
1070
   140
1040
20.0
1070
    78
1070
     8
1002
}
  0
LEADER
  5
81
330
295
100
AcDbEntity
  8
0 ... Seuil ... Rectangle ... Cotes Angles
100
AcDbLeader
  3
QCADDimStyle
 76
     3
 10
719.6348740685189
 20
523.5027795323458
 30
0.0
 10
752.8195541008449
 20
723.8830358211617
 30
0.0
 10
1238.931067146204
 20
813.8146585728746
 30
0.0
  0
MTEXT
  5
82
330
295
100
AcDbEntity
  8
0 ... Seuil ... Rectangle ... Cotes Angles
100
AcDbMText
 10
797.286021735184
 20
690.8134500009621
 30
0.0
 40
50.0
 41
0.0
 46
0.0
 71
     1
 72
     1
  1
A
  7
textstyle12
 73
     1
 44
1.0
  0
MTEXT
  5
83
330
295
100
AcDbEntity
  8
0 ... Seuil ... Rectangle ... Cotes Angles
100
AcDbMText
 10
761.7069094661
 20
485.8099935933885
 30
0.0
 40
50.0
 41
0.0
 46
0.0
 71
     1
 72
     1
  1
B
  7
textstyle13
 73
     1
 44
1.0
  0
MTEXT
  5
84
330
295
100
AcDbEntity
  8
0 ... Seuil ... Rectangle ... Cotes Angles
100
AcDbMText
 10
2231.959864376314
 20
515.0234906627579
 30
0.0
 40
50.0
 41
0.0
 46
0.0
 71
     1
 72
     1
  1
B
  7
textstyle14
 73
     1
 44
1.0
  0
MTEXT
  5
85
330
295
100
AcDbEntity
  8
0 ... Seuil ... Rectangle ... Cotes Angles
100
AcDbMText
 10
1672.648577470043
 20
651.4828264647485
 30
0.0
 40
50.0
 41
0.0
 46
0.0
 71
     1
 72
     1
  1
C
  7
textstyle15
 73
     1
 44
1.0
  0
MTEXT
  5
86
330
295
100
AcDbEntity
  8
0 ... Seuil ... Rectangle ... Cotes Angles
100
AcDbMText
 10
2760.563818088413
 20
756.9614540925311
 30
0.0
 40
50.0
 41
0.0
 46
0.0
 71
     1
 72
     1
  1
C
  7
textstyle16
 73
     1
 44
1.0
  0
MTEXT
  5
87
330
295
100
AcDbEntity
  8
0 ... Seuil ... Rectangle ... Cotes Angles
100
AcDbMText
 10
2225.860587987329
 20
822.0204022417101
 30
0.0
 40
50.0
 41
0.0
 46
0.0
 71
     1
 72
     1
  1
A
  7
textstyle17
 73
     1
 44
1.0
  0
ARC
  5
88
330
295
100
AcDbEntity
  8
0 ... Seuil ... Rectangle
100
AcDbCircle
 10
1755.938635249921
 20
591.3824572106182
 30
0.0
 40
1.0
100
AcDbArc
 50
274.9999999999746
 51
0.0
  0
DIMENSION
  5
89
330
295
100
AcDbEntity
  8
0 ... Seuil ... Rectangle ... Cotes Angles
100
AcDbDimension
280
     0
  2
*D2
 10
1756.938635249921
 20
670.466126036598
 30
0.0
 11
1808.795710158852
 21
542.9478717041874
 31
0.0
 70
   162
 71
     5
 42
1.658062789394611
 73
     0
 74
     0
 75
     0
  3
QCADDimStyle
100
AcDb2LineAngularDimension
 13
594.9386352499168
 23
488.8042990194779
 33
0.0
 14
1756.025790992667
 24
590.3862625125251
 34
0.0
 15
1756.938635249921
 25
591.3824572106132
 35
0.0
 16
1801.737991243013
 26
517.8353073896769
 36
0.0
1001
ACAD
1000
DSTYLE
1002
{
1070
   279
1070
     2
1070
    41
1040
20.0
1070
    79
1070
     2
1070
   176
1070
     0
1070
   177
1070
     0
1070
   178
1070
     0
1070
    44
1040
10.0
1070
    42
1040
5.0
1070
   147
1040
5.0
1070
   142
1040
20.0
1070
   140
1040
20.0
1070
    78
1070
     8
1002
}
  0
MTEXT
  5
8A
330
295
100
AcDbEntity
  8
0 ... Seuil ... Rectangle ... Cotes Angles
100
AcDbMText
 10
514.749271636922
 20
1856.455759067033
 30
0.0
 40
100.0
 41
0.0
 46
0.0
 71
     1
 72
     1
  1
Acier (RAL 7016) paisseur 15/10e
  7
textstyle18
 73
     1
 44
1.0
  0
LEADER
  5
8B
330
295
100
AcDbEntity
  8
0 ... Seuil ... Rectangle ... Cotes Angles
100
AcDbLeader
  3
QCADDimStyle
 76
     2
 10
1510.754522238654
 20
1326.440318858501
 30
0.0
 10
1255.356885996657
 20
927.8034297961826
 30
0.0
  0
LEADER
  5
8C
330
295
100
AcDbEntity
  8
0 ... Seuil ... Rectangle ... Cotes Angles
100
AcDbLeader
  3
QCADDimStyle
 76
     2
 10
2950.177905565066
 20
1185.569871376826
 30
0.0
 10
1255.356885996657
 20
927.8034297961826
 30
0.0
  0
LEADER
  5
8D
330
295
100
AcDbEntity
  8
0 ... Seuil ... Rectangle ... Cotes Angles
100
AcDbLeader
  3
QCADDimStyle
 76
     2
 10
627.8779055650648
 20
1254.576521194918
 30
0.0
 10
1255.356885996657
 20
927.8034297961826
 30
0.0
  0
LINE
  5
8E
330
295
100
AcDbEntity
  8
0 ... Seuil ... Rectangle
100
AcDbLine
 10
627.3779055650648
 20
1570.161042808137
 30
0.0
 11
2950.677905565066
 21
1570.161042808137
 31
0.0
  0
LINE
  5
8F
330
295
100
AcDbEntity
  8
0 ... Seuil ... Rectangle
100
AcDbLine
 10
626.3779055650662
 20
1558.161042808137
 30
0.0
 11
2951.677905565065
 21
1558.161042808137
 31
0.0
  0
LINE
  5
90
330
295
100
AcDbEntity
  8
0 ... Seuil ... Rectangle
100
AcDbLine
 10
624.8779055650648
 20
1570.161042808137
 30
0.0
 11
624.8779055650648
 21
1576.873868088783
 31
0.0
  0
LINE
  5
91
330
295
100
AcDbEntity
  8
0 ... Seuil ... Rectangle
100
AcDbLine
 10
626.3779055650648
 20
1571.161042808137
 30
0.0
 11
626.3779055650648
 21
1642.293266753936
 31
0.0
  0
LINE
  5
92
330
295
100
AcDbEntity
  8
0 ... Seuil ... Rectangle
100
AcDbLine
 10
627.8779055650648
 20
1570.161042808137
 30
0.0
 11
627.8779055650648
 21
1576.873868088782
 31
0.0
  0
LINE
  5
93
330
295
100
AcDbEntity
  8
0 ... Seuil ... Rectangle
100
AcDbLine
 10
2951.677905565066
 20
1571.161042808137
 30
0.0
 11
2951.677905565066
 21
1642.293266753936
 31
0.0
  0
LINE
  5
94
330
295
100
AcDbEntity
  8
0 ... Seuil ... Rectangle
100
AcDbLine
 10
2950.177905565066
 20
1570.161042808137
 30
0.0
 11
2950.177905565066
 21
1642.293266753936
 31
0.0
  0
LINE
  5
95
330
295
100
AcDbEntity
  8
0 ... Seuil ... Rectangle
100
AcDbLine
 10
2953.177905565066
 20
1570.161042808137
 30
0.0
 11
2953.177905565066
 21
1576.873868088783
 31
0.0
  0
LINE
  5
96
330
295
100
AcDbEntity
  8
0 ... Seuil ... Rectangle
100
AcDbLine
 10
625.8779055650662
 20
1577.873868088783
 30
0.0
 11
626.3779055650662
 21
1577.873868088783
 31
0.0
  0
LINE
  5
97
330
295
100
AcDbEntity
  8
0 ... Seuil ... Rectangle
100
AcDbLine
 10
626.3779055650662
 20
1570.161042808137
 30
0.0
 11
624.8779055650648
 21
1570.161042808137
 31
0.0
  0
LINE
  5
98
330
295
100
AcDbEntity
  8
0 ... Seuil ... Rectangle
100
AcDbLine
 10
2952.177905565066
 20
1577.873868088783
 30
0.0
 11
2951.677905565066
 21
1577.873868088783
 31
0.0
  0
LINE
  5
99
330
295
100
AcDbEntity
  8
0 ... Seuil ... Rectangle
100
AcDbLine
 10
2951.677905565066
 20
1570.161042808137
 30
0.0
 11
2953.177905565066
 21
1570.161042808137
 31
0.0
  0
LINE
  5
9A
330
295
100
AcDbEntity
  8
0 ... Seuil ... Rectangle
100
AcDbLine
 10
626.3779055650662
 20
1577.873868088783
 30
0.0
 11
626.8779055650648
 21
1577.873868088783
 31
0.0
  0
LINE
  5
9B
330
295
100
AcDbEntity
  8
0 ... Seuil ... Rectangle
100
AcDbLine
 10
626.3779055650662
 20
1642.293266753937
 30
0.0
 11
627.8779055650648
 21
1642.293266753937
 31
0.0
  0
LINE
  5
9C
330
295
100
AcDbEntity
  8
0 ... Seuil ... Rectangle
100
AcDbLine
 10
2951.177905565066
 20
1577.873868088783
 30
0.0
 11
2951.677905565066
 21
1577.873868088783
 31
0.0
  0
LINE
  5
9D
330
295
100
AcDbEntity
  8
0 ... Seuil ... Rectangle
100
AcDbLine
 10
2951.677905565066
 20
1642.293266753936
 30
0.0
 11
2950.177905565066
 21
1642.293266753936
 31
0.0
  0
ARC
  5
9E
330
295
100
AcDbEntity
  8
0 ... Seuil ... Rectangle
100
AcDbCircle
 10
2950.677905565066
 20
1571.161042808137
 30
0.0
 40
1.0
100
AcDbArc
 50
270.0
 51
0.0
  0
LINE
  5
9F
330
295
100
AcDbEntity
  8
0 ... Seuil ... Rectangle
100
AcDbLine
 10
2951.677905565066
 20
1558.161042808137
 30
0.0
 11
2951.677905565066
 21
1571.161042808137
 31
0.0
  0
LINE
  5
A0
330
295
100
AcDbEntity
  8
0 ... Seuil ... Rectangle
100
AcDbLine
 10
2950.177905565066
 20
1570.161042808137
 30
0.0
 11
2950.177905565066
 21
1576.873868088783
 31
0.0
  0
LINE
  5
A1
330
295
100
AcDbEntity
  8
0 ... Seuil ... Rectangle
100
AcDbLine
 10
627.8779055650648
 20
1614.202002801392
 30
0.0
 11
2950.177905565066
 21
1614.202002801392
 31
0.0
  0
LINE
  5
A2
330
295
100
AcDbEntity
  8
0 ... Seuil ... Rectangle
100
AcDbLine
 10
627.8779055650648
 20
1594.202002801392
 30
0.0
 11
2950.177905565066
 21
1594.202002801392
 31
0.0
  0
ARC
  5
A3
330
295
100
AcDbEntity
  8
0 ... Seuil ... Rectangle
100
AcDbCircle
 10
2951.177905565066
 20
1576.873868088783
 30
0.0
 40
1.0
100
AcDbArc
 50
90.0
 51
180.0
  0
ARC
  5
A4
330
295
100
AcDbEntity
  8
0 ... Seuil ... Rectangle
100
AcDbCircle
 10
2952.177905565066
 20
1576.873868088783
 30
0.0
 40
1.0
100
AcDbArc
 50
0.0
 51
90.0
  0
ARC
  5
A5
330
295
100
AcDbEntity
  8
0 ... Seuil ... Rectangle
100
AcDbCircle
 10
625.8779055650648
 20
1576.873868088783
 30
0.0
 40
1.0
100
AcDbArc
 50
89.99999999997394
 51
180.0
  0
ARC
  5
A6
330
295
100
AcDbEntity
  8
0 ... Seuil ... Rectangle
100
AcDbCircle
 10
626.8779055650648
 20
1576.873868088782
 30
0.0
 40
1.0
100
AcDbArc
 50
0.0
 51
90.0
  0
LINE
  5
A7
330
295
100
AcDbEntity
  8
0 ... Seuil ... Rectangle
100
AcDbLine
 10
627.8779055650648
 20
1570.161042808137
 30
0.0
 11
627.8779055650648
 21
1642.293266753937
 31
0.0
  0
ARC
  5
A8
330
295
100
AcDbEntity
  8
0 ... Seuil ... Rectangle
100
AcDbCircle
 10
627.3779055650648
 20
1571.161042808137
 30
0.0
 40
1.0
100
AcDbArc
 50
180.0
 51
270.0
  0
LINE
  5
A9
330
295
100
AcDbEntity
  8
0 ... Seuil ... Rectangle
100
AcDbLine
 10
626.3779055650662
 20
1558.161042808137
 30
0.0
 11
626.3779055650648
 21
1571.161042808137
 31
0.0
  0
DIMENSION
  5
AA
330
295
100
AcDbEntity
  8
0 ... Seuil ... Rectangle ... Cotes Angles
100
AcDbDimension
280
     0
  2
*D3
 10
2951.677905565066
 20
1352.275108242465
 30
0.0
 11
1789.027905565065
 21
1367.275108242466
 31
0.0
 70
    33
 71
     5
 42
2325.300000000001
 73
     0
 74
     0
 75
     0
  3
QCADDimStyle
100
AcDbAlignedDimension
 13
626.3779055650648
 23
1327.940318858501
 33
0.0
 14
2951.677905565066
 24
1327.940318858499
 34
0.0
1001
ACAD
1000
DSTYLE
1002
{
1070
   279
1070
     2
1070
    41
1040
20.0
1070
    79
1070
     2
1070
   176
1070
     0
1070
   177
1070
     0
1070
   178
1070
     0
1070
    44
1040
10.0
1070
    42
1040
5.0
1070
   147
1040
5.0
1070
   142
1040
20.0
1070
   140
1040
20.0
1070
    78
1070
     8
1002
}
  0
DIMENSION
  5
AB
330
295
100
AcDbEntity
  8
0 ... Seuil ... Rectangle ... Cotes Angles
100
AcDbDimension
280
     0
  2
*D4
 10
578.7029228986839
 20
1081.940318858501
 30
0.0
 11
563.7029228986839
 21
1204.940318858501
 31
0.0
 70
    33
 71
     5
 42
246.0
 73
     0
 74
     0
 75
     0
  3
QCADDimStyle
100
AcDbAlignedDimension
 13
626.3779055650648
 23
1327.940318858501
 33
0.0
 14
626.3779055650648
 24
1081.940318858501
 34
0.0
1001
ACAD
1000
DSTYLE
1002
{
1070
   279
1070
     2
1070
    41
1040
20.0
1070
    79
1070
     2
1070
   176
1070
     0
1070
   177
1070
     0
1070
   178
1070
     0
1070
    44
1040
10.0
1070
    42
1040
5.0
1070
   147
1040
5.0
1070
   142
1040
20.0
1070
   140
1040
20.0
1070
    78
1070
     8
1002
}
  0
DIMENSION
  5
AC
330
295
100
AcDbEntity
  8
0 ... Seuil ... Rectangle ... Cotes Angles
100
AcDbDimension
280
     0
  2
*D5
 10
517.0454616322468
 20
1035.940318858502
 30
0.0
 11
502.0454616322468
 21
1181.940318858502
 31
0.0
 70
    33
 71
     5
 42
291.9999999999991
 73
     0
 74
     0
 75
     0
  3
QCADDimStyle
100
AcDbAlignedDimension
 13
626.3779055650648
 23
1327.940318858501
 33
0.0
 14
626.3779055650648
 24
1035.940318858502
 34
0.0
1001
ACAD
1000
DSTYLE
1002
{
1070
   279
1070
     2
1070
    41
1040
20.0
1070
    79
1070
     2
1070
   176
1070
     0
1070
   177
1070
     0
1070
   178
1070
     0
1070
    44
1040
10.0
1070
    42
1040
5.0
1070
   147
1040
5.0
1070
   142
1040
20.0
1070
   140
1040
20.0
1070
    78
1070
     8
1002
}
  0
DIMENSION
  5
AD
330
295
100
AcDbEntity
  8
0 ... Seuil ... Rectangle ... Cotes Angles
100
AcDbDimension
280
     0
  2
*D6
 10
413.9606479899005
 20
1392.849173516091
 30
0.0
 11
403.9606479898976
 21
1420.34917351609
 31
0.0
 70
    33
 71
     5
 42
20.0
 73
     0
 74
     0
 75
     0
  3
QCADDimStyle
100
AcDbAlignedDimension
 13
393.9606479899071
 23
1327.940318858499
 33
0.0
 14
413.9606479899071
 24
1327.940318858501
 34
0.0
1001
ACAD
1000
DSTYLE
1002
{
1070
   279
1070
     2
1070
    41
1040
20.0
1070
    79
1070
     2
1070
   176
1070
     0
1070
   177
1070
     0
1070
   178
1070
     0
1070
    44
1040
10.0
1070
    42
1040
5.0
1070
   147
1040
5.0
1070
   142
1040
20.0
1070
   140
1040
20.0
1070
    78
1070
     8
1002
}
  0
DIMENSION
  5
AE
330
295
100
AcDbEntity
  8
0 ... Seuil ... Rectangle ... Cotes Angles
100
AcDbDimension
280
     0
  2
*D7
 10
435.482859217277
 20
1119.843013905661
 30
0.0
 11
434.084868457152
 21
1141.024695176259
 31
0.0
 70
   161
 71
     5
 42
5.019099187716961
 73
     0
 74
     0
 75
     0
  3
QCADDimStyle
100
AcDbAlignedDimension
 13
430.4637600295669
 23
1081.940318858502
 33
0.0
 14
435.4828592172839
 24
1081.940318858503
 34
0.0
1001
ACAD
1000
DSTYLE
1002
{
1070
   279
1070
     2
1070
    41
1040
20.0
1070
    79
1070
     2
1070
   176
1070
     0
1070
   177
1070
     0
1070
   178
1070
     0
1070
    44
1040
10.0
1070
    42
1040
5.0
1070
   147
1040
5.0
1070
   142
1040
20.0
1070
   140
1040
20.0
1070
    78
1070
     8
1002
}
  0
DIMENSION
  5
AF
330
295
100
AcDbEntity
  8
0 ... Seuil ... Rectangle ... Cotes Angles
100
AcDbDimension
280
     0
  2
*D8
 10
450.0016079831632
 20
1009.693444536959
 30
0.0
 11
444.0016079831612
 21
982.024695176261
 31
0.0
 70
   161
 71
     5
 42
12.0
 73
     0
 74
     0
 75
     0
  3
QCADDimStyle
100
AcDbAlignedDimension
 13
438.0016079831612
 23
1035.940318858501
 33
0.0
 14
450.0016079831612
 24
1035.940318858502
 34
0.0
1001
ACAD
1000
DSTYLE
1002
{
1070
   279
1070
     2
1070
    41
1040
20.0
1070
    79
1070
     2
1070
   176
1070
     0
1070
   177
1070
     0
1070
   178
1070
     0
1070
    44
1040
10.0
1070
    42
1040
5.0
1070
   147
1040
5.0
1070
   142
1040
20.0
1070
   140
1040
20.0
1070
    78
1070
     8
1002
}
  0
DIMENSION
  5
B0
330
295
100
AcDbEntity
  8
0 ... Seuil ... Rectangle ... Cotes Angles
100
AcDbDimension
280
     0
  2
*D9
 10
455.486098471511
 20
1055.566944970586
 30
0.0
 11
475.0132656259689
 21
1068.051758710696
 31
0.0
 70
   161
 71
     5
 42
9.999999999999437
 73
     0
 74
     0
 75
     0
  3
QCADDimStyle
100
AcDbAlignedDimension
 13
450.0016079831612
 23
1035.940318858502
 33
0.0
 14
442.930540171295
 24
1043.011386670366
 34
0.0
1001
ACAD
1000
DSTYLE
1002
{
1070
   279
1070
     2
1070
    41
1040
20.0
1070
    79
1070
     2
1070
   176
1070
     0
1070
   177
1070
     0
1070
   178
1070
     0
1070
    44
1040
10.0
1070
    42
1040
5.0
1070
   147
1040
5.0
1070
   142
1040
20.0
1070
   140
1040
20.0
1070
    78
1070
     8
1002
}
  0
LINE
  5
B1
330
295
100
AcDbEntity
  8
0 ... Seuil ... Rectangle ... Cotes Angles
100
AcDbLine
 10
416.4606479899071
 20
1327.940318858501
 30
0.0
 11
514.5454616322468
 21
1327.940318858501
 31
0.0
  0
LINE
  5
B2
330
295
100
AcDbEntity
  8
0 ... Seuil ... Rectangle ... Cotes Angles
100
AcDbLine
 10
452.5016079831612
 20
1035.940318858501
 30
0.0
 11
519.5454616322468
 21
1035.940318858501
 31
0.0
  0
DIMENSION
  5
B3
330
295
100
AcDbEntity
  8
0 ... Seuil ... Rectangle ... Cotes Angles
100
AcDbDimension
280
     0
  2
*D10
 10
299.2499001233978
 20
1303.9403188585
 30
0.0
 11
271.7499001233978
 21
1315.940318858499
 31
0.0
 70
    32
 71
     5
 42
23.99999999999909
 73
     0
 74
     0
 75
     0
  3
QCADDimStyle
100
AcDbAlignedDimension
 13
393.9606479899071
 23
1327.940318858499
 33
0.0
 14
365.8693840373608
 24
1303.9403188585
 34
0.0
 50
90.0
100
AcDbRotatedDimension
1001
ACAD
1000
DSTYLE
1002
{
1070
   279
1070
     2
1070
    41
1040
20.0
1070
    79
1070
     2
1070
   176
1070
     0
1070
   177
1070
     0
1070
   178
1070
     0
1070
    44
1040
10.0
1070
    42
1040
5.0
1070
   147
1040
5.0
1070
   142
1040
20.0
1070
   140
1040
20.0
1070
    78
1070
     8
1002
}
  0
DIMENSION
  5
B4
330
295
100
AcDbEntity
  8
0 ... Seuil ... Rectangle ... Cotes Angles
100
AcDbDimension
280
     0
  2
*D11
 10
393.9606479899071
 20
1362.024695176261
 30
0.0
 11
338.1935929421402
 21
1377.024695176261
 31
0.0
 70
   160
 71
     5
 42
28.09126395254629
 73
     0
 74
     0
 75
     0
  3
QCADDimStyle
100
AcDbAlignedDimension
 13
365.8693840373608
 23
1303.9403188585
 33
0.0
 14
393.9606479899071
 24
1327.940318858499
 34
0.0
100
AcDbRotatedDimension
1001
ACAD
1000
DSTYLE
1002
{
1070
   279
1070
     2
1070
    41
1040
20.0
1070
    79
1070
     2
1070
   176
1070
     0
1070
   177
1070
     0
1070
   178
1070
     0
1070
    44
1040
10.0
1070
    42
1040
5.0
1070
   147
1040
5.0
1070
   142
1040
20.0
1070
   140
1040
20.0
1070
    78
1070
     8
1002
}
  0
DIMENSION
  5
B5
330
295
100
AcDbEntity
  8
0 ... Seuil ... Rectangle ... Cotes Angles
100
AcDbDimension
280
     0
  2
*D12
 10
299.2499001233978
 20
1081.940318858501
 30
0.0
 11
284.2499001233978
 21
1192.940318858501
 31
0.0
 70
    32
 71
     5
 42
221.9999999999989
 73
     0
 74
     0
 75
     0
  3
QCADDimStyle
100
AcDbAlignedDimension
 13
365.8693840373608
 23
1303.9403188585
 33
0.0
 14
385.2918673401168
 24
1081.940318858501
 34
0.0
 50
90.0
100
AcDbRotatedDimension
1001
ACAD
1000
DSTYLE
1002
{
1070
   279
1070
     2
1070
    41
1040
20.0
1070
    79
1070
     2
1070
   176
1070
     0
1070
   177
1070
     0
1070
   178
1070
     0
1070
    44
1040
10.0
1070
    42
1040
5.0
1070
   147
1040
5.0
1070
   142
1040
20.0
1070
   140
1040
20.0
1070
    78
1070
     8
1002
}
  0
DIMENSION
  5
B6
330
295
100
AcDbEntity
  8
0 ... Seuil ... Rectangle ... Cotes Angles
100
AcDbDimension
280
     0
  2
*D13
 10
263.3230790246462
 20
1081.940318858501
 30
0.0
 11
248.3230790246462
 21
1204.9403188585
 31
0.0
 70
    32
 71
     5
 42
245.999999999998
 73
     0
 74
     0
 75
     0
  3
QCADDimStyle
100
AcDbAlignedDimension
 13
393.9606479899071
 23
1327.940318858499
 33
0.0
 14
385.2918673401159
 24
1081.940318858501
 34
0.0
 50
90.0
100
AcDbRotatedDimension
1001
ACAD
1000
DSTYLE
1002
{
1070
   279
1070
     2
1070
    41
1040
20.0
1070
    79
1070
     2
1070
   176
1070
     0
1070
   177
1070
     0
1070
   178
1070
     0
1070
    44
1040
10.0
1070
    42
1040
5.0
1070
   147
1040
5.0
1070
   142
1040
20.0
1070
   140
1040
20.0
1070
    78
1070
     8
1002
}
  0
DIMENSION
  5
B7
330
295
100
AcDbEntity
  8
0 ... Seuil ... Rectangle ... Cotes Angles
100
AcDbDimension
280
     0
  2
*D14
 10
343.1232110014131
 20
1078.251039472744
 30
0.0
 11
348.3548898214112
 21
1190.558375613958
 31
0.0
 70
    33
 71
     5
 42
222.8480039346221
 73
     0
 74
     0
 75
     0
  3
QCADDimStyle
100
AcDbAlignedDimension
 13
365.8693840373608
 23
1303.9403188585
 33
0.0
 14
385.2918673401168
 24
1081.940318858501
 34
0.0
1001
ACAD
1000
DSTYLE
1002
{
1070
   279
1070
     2
1070
    41
1040
20.0
1070
    79
1070
     2
1070
   176
1070
     0
1070
   177
1070
     0
1070
   178
1070
     0
1070
    44
1040
10.0
1070
    42
1040
5.0
1070
   147
1040
5.0
1070
   142
1040
20.0
1070
   140
1040
20.0
1070
    78
1070
     8
1002
}
  0
DIMENSION
  5
B8
330
295
100
AcDbEntity
  8
0 ... Seuil ... Rectangle ... Cotes Angles
100
AcDbDimension
280
     0
  2
*D15
 10
483.366660302489
 20
1326.440318858502
 30
0.0
 11
510.866660302489
 21
1327.190318858502
 31
0.0
 70
    32
 71
     5
 42
1.499999999999091
 73
     0
 74
     0
 75
     0
  3
QCADDimStyle
100
AcDbAlignedDimension
 13
413.9606479899071
 23
1327.940318858501
 33
0.0
 14
413.9606479899071
 24
1326.440318858502
 34
0.0
 50
90.0
100
AcDbRotatedDimension
1001
ACAD
1000
DSTYLE
1002
{
1070
   279
1070
     2
1070
    41
1040
20.0
1070
    79
1070
     2
1070
   176
1070
     0
1070
   177
1070
     0
1070
   178
1070
     0
1070
    44
1040
10.0
1070
    42
1040
5.0
1070
   147
1040
5.0
1070
   142
1040
20.0
1070
   140
1040
20.0
1070
    78
1070
     8
1002
}
  0
MTEXT
  5
B9
330
295
100
AcDbEntity
  8
0 ... Seuil ... Rectangle ... Cotes Angles
100
AcDbMText
 10
412.1238015734511
 20
2014.670025414884
 30
0.0
 40
100.0
 41
0.0
 46
0.0
 71
     1
 72
     1
  1
Baie n%%d2 - seuil - Dessus, Profil et Face
  7
textstyle19
 73
     1
 44
1.0
  0
ENDSEC
  0
SECTION
  2
OBJECTS
  0
DICTIONARY
  5
283
330
0
100
AcDbDictionary
281
     1
  3
ACAD_DETAILVIEWSTYLE
350
420
  3
ACAD_GROUP
350
284
  3
ACAD_LAYOUT
350
290
  3
ACAD_MATERIAL
350
2B9
  3
ACAD_MLEADERSTYLE
350
2E1
  3
ACAD_MLINESTYLE
350
28D
  3
ACAD_PLOTSETTINGS
350
28F
  3
ACAD_PLOTSTYLENAME
350
285
  3
ACAD_SCALELIST
350
2BD
  3
ACAD_SECTIONVIEWSTYLE
350
421
  3
ACAD_TABLESTYLE
350
2DF
  3
ACAD_VISUALSTYLE
350
2A0
  3
ACDB_RECOMPOSE_DATA
350
41D
  3
AcDbVariableDictionary
350
419
  3
QCAD_OBJECTS
350
2E5
  0
SUN
  5
2E3
330
29F
100
AcDbSun
 90
        1
290
     0
 63
     7
421
 16777215
 40
1.0
291
     1
 91
  2455826
 92
 54000000
292
     0
 70
     2
 71
   256
280
     1
  0
DICTIONARY
  5
420
102
{ACAD_REACTORS
330
283
102
}
330
283
100
AcDbDictionary
281
     1
  0
DICTIONARY
  5
284
102
{ACAD_REACTORS
330
283
102
}
330
283
100
AcDbDictionary
281
     1
  0
DICTIONARY
  5
290
102
{ACAD_REACTORS
330
283
102
}
330
283
100
AcDbDictionary
281
     1
  3
Layout1
350
294
  3
Layout2
350
29C
  3
Model
350
298
  0
DICTIONARY
  5
2B9
102
{ACAD_REACTORS
330
283
102
}
330
283
100
AcDbDictionary
281
     1
  3
ByBlock
350
2BB
  3
ByLayer
350
2BA
  3
Global
350
2BC
  0
DICTIONARY
  5
2E1
102
{ACAD_REACTORS
330
283
102
}
330
283
100
AcDbDictionary
281
     1
  3
Standard
350
2E2
  0
DICTIONARY
  5
28D
102
{ACAD_REACTORS
330
283
102
}
330
283
100
AcDbDictionary
281
     1
  3
Standard
350
28E
  0
DICTIONARY
  5
28F
102
{ACAD_REACTORS
330
283
102
}
330
283
100
AcDbDictionary
281
     1
  0
ACDBDICTIONARYWDFLT
  5
285
102
{ACAD_REACTORS
330
283
102
}
330
283
100
AcDbDictionary
281
     1
  3
Normal
350
286
100
AcDbDictionaryWithDefault
340
286
  0
DICTIONARY
  5
2BD
102
{ACAD_REACTORS
330
283
102
}
330
283
100
AcDbDictionary
281
     1
  3
A0
350
2BE
  3
A1
350
2BF
  3
A2
350
2C0
  3
A3
350
2C1
  3
A4
350
2C2
  3
A5
350
2C3
  3
A6
350
2C4
  3
A7
350
2C5
  3
A8
350
2C6
  3
A9
350
2C7
  3
B0
350
2C8
  3
B1
350
2C9
  3
B2
350
2CA
  3
B3
350
2CB
  3
B4
350
2CC
  3
B5
350
2CD
  3
B6
350
2CE
  3
B7
350
2CF
  3
B8
350
2D0
  3
B9
350
2D1
  3
C0
350
2D2
  3
C1
350
2D3
  3
C2
350
2D4
  3
C3
350
2D5
  3
C4
350
2D6
  3
C5
350
2D7
  3
C6
350
2D8
  3
C7
350
2D9
  3
C8
350
2DA
  3
C9
350
2DB
  3
D0
350
2DC
  3
D1
350
2DD
  3
D2
350
2DE
  0
DICTIONARY
  5
421
102
{ACAD_REACTORS
330
283
102
}
330
283
100
AcDbDictionary
281
     1
  0
DICTIONARY
  5
2DF
102
{ACAD_REACTORS
330
283
102
}
330
283
100
AcDbDictionary
281
     1
  3
Standard
350
2E0
  0
DICTIONARY
  5
2A0
102
{ACAD_REACTORS
330
283
102
}
330
283
100
AcDbDictionary
281
     1
  3
2dWireframe
350
2A5
  3
Basic
350
2A8
  3
Brighten
350
2AC
  3
ColorChange
350
2B0
  3
Conceptual
350
2AA
  3
Dim
350
2AB
  3
EdgeColorOff
350
2B3
  3
Facepattern
350
2AF
  3
Flat
350
2A1
  3
FlatWithEdges
350
2A2
  3
Gouraud
350
2A3
  3
GouraudWithEdges
350
2A4
  3
Hidden
350
2A7
  3
JitterOff
350
2B1
  3
Linepattern
350
2AE
  3
OverhangOff
350
2B2
  3
Realistic
350
2A9
  3
Shaded
350
2B8
  3
Shaded with edges
350
2B7
  3
Shades of Gray
350
2B4
  3
Sketchy
350
2B5
  3
Thicken
350
2AD
  3
Wireframe
350
2A6
  3
X-Ray
350
2B6
  0
XRECORD
  5
41D
102
{ACAD_REACTORS
330
283
102
}
330
283
100
AcDbXrecord
280
     1
 90
        1
330
2E0
  0
DICTIONARY
  5
419
102
{ACAD_REACTORS
330
283
102
}
330
283
100
AcDbDictionary
281
     1
  3
CANNOSCALE
350
41A
  3
CMLEADERSTYLE
350
41F
  3
CTABLESTYLE
350
41E
  0
DICTIONARY
  5
2E5
102
{ACAD_REACTORS
330
283
102
}
330
283
100
AcDbDictionary
281
     1
  3
DimensionSettings/AngularFormat
350
2E7
  3
DimensionSettings/AngularPrecision
350
2E8
  3
DimensionSettings/DimensionFont
350
2E9
  3
DimensionSettings/KeepProportions
350
2EA
  3
DimensionSettings/LinearFormat
350
2EB
  3
DimensionSettings/LinearPrecision
350
2EC
  3
Grid/DisplayGrid00
350
2ED
  3
Grid/DisplayGrid01
350
2EE
  3
Grid/DisplayGrid02
350
2EF
  3
Grid/DisplayGrid03
350
2F0
  3
Grid/GridSpacingX00
350
2F1
  3
Grid/GridSpacingX01
350
2F2
  3
Grid/GridSpacingX02
350
2F3
  3
Grid/GridSpacingX03
350
2F4
  3
Grid/GridSpacingY00
350
2F5
  3
Grid/GridSpacingY01
350
2F6
  3
Grid/GridSpacingY02
350
2F7
  3
Grid/GridSpacingY03
350
2F8
  3
Grid/IsometricGrid00
350
2F9
  3
Grid/IsometricGrid01
350
2FA
  3
Grid/IsometricGrid02
350
2FB
  3
Grid/IsometricGrid03
350
2FC
  3
Grid/IsometricProjection00
350
2FD
  3
Grid/IsometricProjection01
350
2FE
  3
Grid/IsometricProjection02
350
2FF
  3
Grid/IsometricProjection03
350
300
  3
Grid/MetaGridSpacingX00
350
301
  3
Grid/MetaGridSpacingX01
350
302
  3
Grid/MetaGridSpacingX02
350
303
  3
Grid/MetaGridSpacingX03
350
304
  3
Grid/MetaGridSpacingY00
350
305
  3
Grid/MetaGridSpacingY01
350
306
  3
Grid/MetaGridSpacingY02
350
307
  3
Grid/MetaGridSpacingY03
350
308
  3
MultiPageSettings/Columns
350
309
  3
MultiPageSettings/GlueMarginsBottom
350
30A
  3
MultiPageSettings/GlueMarginsLeft
350
30B
  3
MultiPageSettings/GlueMarginsRight
350
30C
  3
MultiPageSettings/GlueMarginsTop
350
30D
  3
MultiPageSettings/PrintCropMarks
350
30E
  3
MultiPageSettings/Rows
350
30F
  3
PageSettings/OffsetX
350
310
  3
PageSettings/OffsetY
350
311
  3
PageSettings/PageOrientation
350
312
  3
PageSettings/PaperHeight
350
313
  3
PageSettings/PaperWidth
350
314
  3
PageSettings/Scale
350
315
  3
PageSettings/ShowPaperBorders
350
316
  3
QCADVersion
350
317
  3
UnitSettings/PaperUnit
350
318
  0
LAYOUT
  5
294
102
{ACAD_REACTORS
330
290
102
}
330
290
100
AcDbPlotSettings
  1

  2
none_device
  4

  6

 40
0.0
 41
0.0
 42
0.0
 43
0.0
 44
0.0
 45
0.0
 46
0.0
 47
0.0
 48
0.0
 49
0.0
140
0.0
141
0.0
142
1.0
143
1.0
 70
   688
 72
     0
 73
     0
 74
     5
  7

 75
    16
 76
     0
 77
     2
 78
   300
147
1.0
148
0.0
149
0.0
100
AcDbLayout
  1
Layout1
 70
     1
 71
     1
 10
0.0
 20
0.0
 11
12.0
 21
9.0
 12
0.0
 22
0.0
 32
0.0
 14
1.000000000000000E+20
 24
1.000000000000000E+20
 34
1.000000000000000E+20
 15
-1.000000000000000E+20
 25
-1.000000000000000E+20
 35
-1.000000000000000E+20
146
0.0
 13
0.0
 23
0.0
 33
0.0
 16
1.0
 26
0.0
 36
0.0
 17
0.0
 27
1.0
 37
0.0
 76
     0
330
291
  0
LAYOUT
  5
29C
102
{ACAD_REACTORS
330
290
102
}
330
290
100
AcDbPlotSettings
  1

  2
none_device
  4

  6

 40
0.0
 41
0.0
 42
0.0
 43
0.0
 44
0.0
 45
0.0
 46
0.0
 47
0.0
 48
0.0
 49
0.0
140
0.0
141
0.0
142
1.0
143
1.0
 70
   688
 72
     0
 73
     0
 74
     5
  7

 75
    16
 76
     0
 77
     2
 78
   300
147
1.0
148
0.0
149
0.0
100
AcDbLayout
  1
Layout2
 70
     1
 71
     2
 10
0.0
 20
0.0
 11
0.0
 21
0.0
 12
0.0
 22
0.0
 32
0.0
 14
0.0
 24
0.0
 34
0.0
 15
0.0
 25
0.0
 35
0.0
146
0.0
 13
0.0
 23
0.0
 33
0.0
 16
1.0
 26
0.0
 36
0.0
 17
0.0
 27
1.0
 37
0.0
 76
     0
330
299
  0
LAYOUT
  5
298
102
{ACAD_REACTORS
330
290
102
}
330
290
100
AcDbPlotSettings
  1

  2
none_device
  4
Letter_(8.50_x_11.00_Inches)
  6

 40
6.35
 41
6.35
 42
6.35000508
 43
6.35000508
 44
215.9
 45
279.4
 46
0.0
 47
0.0
 48
0.0
 49
0.0
140
0.0
141
0.0
142
1.0
143
1.0
 70
  1712
 72
     0
 73
     0
 74
     0
  7

 75
     0
 76
     0
 77
     2
 78
   300
147
1.0
148
0.0
149
0.0
100
AcDbLayout
  1
Model
 70
     1
 71
     0
 10
0.0
 20
0.0
 11
12.0
 21
9.0
 12
0.0
 22
0.0
 32
0.0
 14
1.000000000000000E+20
 24
1.000000000000000E+20
 34
1.000000000000000E+20
 15
-1.000000000000000E+20
 25
-1.000000000000000E+20
 35
-1.000000000000000E+20
146
0.0
 13
0.0
 23
0.0
 33
0.0
 16
1.0
 26
0.0
 36
0.0
 17
0.0
 27
1.0
 37
0.0
 76
     0
330
295
331
29F
  0
MATERIAL
  5
2BB
102
{ACAD_REACTORS
330
2B9
102
}
330
2B9
100
AcDbMaterial
  1
ByBlock
 72
     1
 94
      127
  0
MATERIAL
  5
2BA
102
{ACAD_REACTORS
330
2B9
102
}
330
2B9
100
AcDbMaterial
  1
ByLayer
 72
     1
 94
      127
  0
MATERIAL
  5
2BC
102
{ACAD_REACTORS
330
2B9
102
}
330
2B9
100
AcDbMaterial
  1
Global
 72
     1
 94
      127
  0
MLEADERSTYLE
  5
2E2
102
{ACAD_REACTORS
330
2E1
102
}
330
2E1
100
AcDbMLeaderStyle
179
     2
170
     2
171
     1
172
     0
 90
        2
 40
0.0
 41
0.0
173
     1
 91
-1056964608
340
28A
 92
       -2
290
     1
 42
0.09
291
     1
 43
0.36
  3
Standard
341
0
 44
0.18
300

342
288
174
     1
178
     6
175
     1
176
     0
 93
-1056964608
 45
0.18
292
     0
297
     0
 46
0.18
343
0
 94
-1056964608
 47
1.0
 49
1.0
140
1.0
293
     1
141
0.0
294
     1
177
     0
142
1.0
295
     0
296
     0
143
0.125
271
     0
272
     9
273
     9
298
     0
  0
MLINESTYLE
  5
28E
102
{ACAD_REACTORS
330
28D
102
}
330
28D
100
AcDbMlineStyle
  2
Standard
 70
     0
  3

 62
   256
 51
90.0
 52
90.0
 71
     2
 49
0.5
 62
   256
  6
BYLAYER
 49
-0.5
 62
   256
  6
BYLAYER
  0
ACDBPLACEHOLDER
  5
286
102
{ACAD_REACTORS
330
285
102
}
330
285
  0
SCALE
  5
2BE
102
{ACAD_REACTORS
330
2BD
102
}
330
2BD
100
AcDbScale
 70
     0
300
1:1
140
1.0
141
1.0
290
     1
  0
SCALE
  5
2BF
102
{ACAD_REACTORS
330
2BD
102
}
330
2BD
100
AcDbScale
 70
     0
300
1:2
140
1.0
141
2.0
290
     0
  0
SCALE
  5
2C0
102
{ACAD_REACTORS
330
2BD
102
}
330
2BD
100
AcDbScale
 70
     0
300
1:4
140
1.0
141
4.0
290
     0
  0
SCALE
  5
2C1
102
{ACAD_REACTORS
330
2BD
102
}
330
2BD
100
AcDbScale
 70
     0
300
1:5
140
1.0
141
5.0
290
     0
  0
SCALE
  5
2C2
102
{ACAD_REACTORS
330
2BD
102
}
330
2BD
100
AcDbScale
 70
     0
300
1:8
140
1.0
141
8.0
290
     0
  0
SCALE
  5
2C3
102
{ACAD_REACTORS
330
2BD
102
}
330
2BD
100
AcDbScale
 70
     0
300
1:10
140
1.0
141
10.0
290
     0
  0
SCALE
  5
2C4
102
{ACAD_REACTORS
330
2BD
102
}
330
2BD
100
AcDbScale
 70
     0
300
1:16
140
1.0
141
16.0
290
     0
  0
SCALE
  5
2C5
102
{ACAD_REACTORS
330
2BD
102
}
330
2BD
100
AcDbScale
 70
     0
300
1:20
140
1.0
141
20.0
290
     0
  0
SCALE
  5
2C6
102
{ACAD_REACTORS
330
2BD
102
}
330
2BD
100
AcDbScale
 70
     0
300
1:30
140
1.0
141
30.0
290
     0
  0
SCALE
  5
2C7
102
{ACAD_REACTORS
330
2BD
102
}
330
2BD
100
AcDbScale
 70
     0
300
1:40
140
1.0
141
40.0
290
     0
  0
SCALE
  5
2C8
102
{ACAD_REACTORS
330
2BD
102
}
330
2BD
100
AcDbScale
 70
     0
300
1:50
140
1.0
141
50.0
290
     0
  0
SCALE
  5
2C9
102
{ACAD_REACTORS
330
2BD
102
}
330
2BD
100
AcDbScale
 70
     0
300
1:100
140
1.0
141
100.0
290
     0
  0
SCALE
  5
2CA
102
{ACAD_REACTORS
330
2BD
102
}
330
2BD
100
AcDbScale
 70
     0
300
2:1
140
2.0
141
1.0
290
     0
  0
SCALE
  5
2CB
102
{ACAD_REACTORS
330
2BD
102
}
330
2BD
100
AcDbScale
 70
     0
300
4:1
140
4.0
141
1.0
290
     0
  0
SCALE
  5
2CC
102
{ACAD_REACTORS
330
2BD
102
}
330
2BD
100
AcDbScale
 70
     0
300
8:1
140
8.0
141
1.0
290
     0
  0
SCALE
  5
2CD
102
{ACAD_REACTORS
330
2BD
102
}
330
2BD
100
AcDbScale
 70
     0
300
10:1
140
10.0
141
1.0
290
     0
  0
SCALE
  5
2CE
102
{ACAD_REACTORS
330
2BD
102
}
330
2BD
100
AcDbScale
 70
     0
300
100:1
140
100.0
141
1.0
290
     0
  0
SCALE
  5
2CF
102
{ACAD_REACTORS
330
2BD
102
}
330
2BD
100
AcDbScale
 70
     0
300
1/128" = 1'-0"
140
0.0078125
141
12.0
290
     0
  0
SCALE
  5
2D0
102
{ACAD_REACTORS
330
2BD
102
}
330
2BD
100
AcDbScale
 70
     0
300
1/64" = 1'-0"
140
0.015625
141
12.0
290
     0
  0
SCALE
  5
2D1
102
{ACAD_REACTORS
330
2BD
102
}
330
2BD
100
AcDbScale
 70
     0
300
1/32" = 1'-0"
140
0.03125
141
12.0
290
     0
  0
SCALE
  5
2D2
102
{ACAD_REACTORS
330
2BD
102
}
330
2BD
100
AcDbScale
 70
     0
300
1/16" = 1'-0"
140
0.0625
141
12.0
290
     0
  0
SCALE
  5
2D3
102
{ACAD_REACTORS
330
2BD
102
}
330
2BD
100
AcDbScale
 70
     0
300
3/32" = 1'-0"
140
0.09375
141
12.0
290
     0
  0
SCALE
  5
2D4
102
{ACAD_REACTORS
330
2BD
102
}
330
2BD
100
AcDbScale
 70
     0
300
1/8" = 1'-0"
140
0.125
141
12.0
290
     0
  0
SCALE
  5
2D5
102
{ACAD_REACTORS
330
2BD
102
}
330
2BD
100
AcDbScale
 70
     0
300
3/16" = 1'-0"
140
0.1875
141
12.0
290
     0
  0
SCALE
  5
2D6
102
{ACAD_REACTORS
330
2BD
102
}
330
2BD
100
AcDbScale
 70
     0
300
1/4" = 1'-0"
140
0.25
141
12.0
290
     0
  0
SCALE
  5
2D7
102
{ACAD_REACTORS
330
2BD
102
}
330
2BD
100
AcDbScale
 70
     0
300
3/8" = 1'-0"
140
0.375
141
12.0
290
     0
  0
SCALE
  5
2D8
102
{ACAD_REACTORS
330
2BD
102
}
330
2BD
100
AcDbScale
 70
     0
300
1/2" = 1'-0"
140
0.5
141
12.0
290
     0
  0
SCALE
  5
2D9
102
{ACAD_REACTORS
330
2BD
102
}
330
2BD
100
AcDbScale
 70
     0
300
3/4" = 1'-0"
140
0.75
141
12.0
290
     0
  0
SCALE
  5
2DA
102
{ACAD_REACTORS
330
2BD
102
}
330
2BD
100
AcDbScale
 70
     0
300
1" = 1'-0"
140
1.0
141
12.0
290
     0
  0
SCALE
  5
2DB
102
{ACAD_REACTORS
330
2BD
102
}
330
2BD
100
AcDbScale
 70
     0
300
1-1/2" = 1'-0"
140
1.5
141
12.0
290
     0
  0
SCALE
  5
2DC
102
{ACAD_REACTORS
330
2BD
102
}
330
2BD
100
AcDbScale
 70
     0
300
3" = 1'-0"
140
3.0
141
12.0
290
     0
  0
SCALE
  5
2DD
102
{ACAD_REACTORS
330
2BD
102
}
330
2BD
100
AcDbScale
 70
     0
300
6" = 1'-0"
140
6.0
141
12.0
290
     0
  0
SCALE
  5
2DE
102
{ACAD_REACTORS
330
2BD
102
}
330
2BD
100
AcDbScale
 70
     0
300
1'-0" = 1'-0"
140
12.0
141
12.0
290
     0
  0
TABLESTYLE
  5
2E0
102
{ACAD_REACTORS
330
2DF
102
}
102
{ACAD_XDICTIONARY
360
41B
102
}
330
2DF
100
AcDbTableStyle
  3
Standard
 70
     0
 71
     0
 40
0.06
 41
0.06
280
     0
281
     0
  7
Standard
140
0.18
170
     2
 62
     0
 63
   257
283
     0
 90
        4
 91
        0
  1

274
    -2
284
     1
 64
     0
275
    -2
285
     1
 65
     0
276
    -2
286
     1
 66
     0
277
    -2
287
     1
 67
     0
278
    -2
288
     1
 68
     0
279
    -2
289
     1
 69
     0
  7
Standard
140
0.25
170
     5
 62
     0
 63
   257
283
     0
 90
        4
 91
        0
  1

274
    -2
284
     1
 64
     0
275
    -2
285
     1
 65
     0
276
    -2
286
     1
 66
     0
277
    -2
287
     1
 67
     0
278
    -2
288
     1
 68
     0
279
    -2
289
     1
 69
     0
  7
Standard
140
0.18
170
     5
 62
     0
 63
   257
283
     0
 90
        4
 91
        0
  1

274
    -2
284
     1
 64
     0
275
    -2
285
     1
 65
     0
276
    -2
286
     1
 66
     0
277
    -2
287
     1
 67
     0
278
    -2
288
     1
 68
     0
279
    -2
289
     1
 69
     0
  0
VISUALSTYLE
  5
2A5
102
{ACAD_REACTORS
330
2A0
102
}
330
2A0
100
AcDbVisualStyle
  2
2dWireframe
 70
     4
177
     3
291
     0
 70
    58
 90
        0
176
     1
 90
        2
176
     1
 90
        0
176
     1
 90
        0
176
     1
 40
0.6
176
     1
 40
30.0
176
     1
 62
     7
420
 16777215
176
     1
 90
        1
176
     1
 90
        4
176
     1
 62
     7
176
     1
 62
   257
176
     1
 90
        1
176
     1
 90
        1
176
     1
 40
1.0
176
     1
 90
        0
176
     1
 62
   257
176
     1
 40
1.0
176
     1
 90
        1
176
     1
 90
        6
176
     1
 90
        2
176
     1
 62
     7
176
     1
 90
        5
176
     1
 90
        0
176
     1
 90
        0
176
     1
290
     0
176
     1
 90
        1
176
     1
 40
0.0
176
     1
 90
        0
176
     1
290
     1
176
     1
290
     1
176
     1
290
     0
176
     1
290
     0
176
     1
290
     0
176
     1
290
     0
176
     1
290
     0
176
     1
290
     0
176
     1
290
     0
176
     1
 90
       50
176
     1
 40
0.0
176
     1
 40
1.0
176
     1
 90
        0
176
     1
 62
   178
420
        0
176
     1
 90
       50
176
     1
 90
        3
176
     1
 62
     5
420
      255
176
     1
290
     0
176
     1
 90
       50
176
     1
 90
       50
176
     1
 90
       50
176
     1
290
     0
176
     1
 90
       50
176
     1
 62
   256
176
     0
 40
1.0
176
     0
 90
        2
176
     1
  1
strokes_ogs.tif
176
     1
290
     0
176
     1
 40
1.0
176
     1
 40
1.0
176
     1
  0
VISUALSTYLE
  5
2A8
102
{ACAD_REACTORS
330
2A0
102
}
330
2A0
100
AcDbVisualStyle
  2
Basic
 70
     7
177
     3
291
     1
 70
    58
 90
        1
176
     1
 90
        0
176
     1
 90
        1
176
     1
 90
        0
176
     1
 40
0.6
176
     1
 40
30.0
176
     1
 62
     7
420
 16777215
176
     1
 90
        0
176
     1
 90
        4
176
     1
 62
     7
176
     1
 62
   257
176
     1
 90
        1
176
     1
 90
        1
176
     1
 40
1.0
176
     1
 90
        8
176
     1
 62
     7
176
     1
 40
1.0
176
     1
 90
        1
176
     1
 90
        6
176
     1
 90
        2
176
     1
 62
     7
176
     1
 90
        5
176
     1
 90
        0
176
     1
 90
        0
176
     1
290
     0
176
     1
 90
        1
176
     1
 40
0.0
176
     1
 90
        0
176
     1
290
     0
176
     1
290
     1
176
     1
290
     1
176
     1
290
     0
176
     1
290
     0
176
     1
290
     0
176
     1
290
     0
176
     1
290
     0
176
     1
290
     0
176
     1
 90
       50
176
     1
 40
0.0
176
     1
 40
1.0
176
     1
 90
        0
176
     1
 62
   178
420
        0
176
     1
 90
       50
176
     1
 90
        3
176
     1
 62
     5
420
      255
176
     1
290
     0
176
     1
 90
       50
176
     1
 90
       50
176
     1
 90
       50
176
     1
290
     0
176
     1
 90
       50
176
     1
 62
   256
176
     0
 40
1.0
176
     0
 90
        2
176
     1
  1
strokes_ogs.tif
176
     1
290
     0
176
     1
 40
1.0
176
     1
 40
1.0
176
     1
  0
VISUALSTYLE
  5
2AC
102
{ACAD_REACTORS
330
2A0
102
}
330
2A0
100
AcDbVisualStyle
  2
Brighten
 70
    12
177
     3
291
     1
 70
    58
 90
        2
176
     1
 90
        2
176
     1
 90
        0
176
     1
 90
        0
176
     1
 40
0.6
176
     1
 40
30.0
176
     1
 62
     7
420
 16777215
176
     1
 90
        1
176
     1
 90
        4
176
     1
 62
     7
176
     1
 62
   257
176
     1
 90
        1
176
     1
 90
        1
176
     1
 40
1.0
176
     1
 90
        8
176
     1
 62
     7
176
     1
 40
1.0
176
     1
 90
        1
176
     1
 90
        6
176
     1
 90
        2
176
     1
 62
     7
176
     1
 90
        5
176
     1
 90
        0
176
     1
 90
        0
176
     1
290
     0
176
     1
 90
        1
176
     1
 40
50.0
176
     1
 90
        0
176
     1
290
     0
176
     1
290
     1
176
     1
290
     1
176
     1
290
     0
176
     1
290
     0
176
     1
290
     0
176
     1
290
     0
176
     1
290
     0
176
     1
290
     0
176
     1
 90
       50
176
     1
 40
0.0
176
     1
 40
1.0
176
     1
 90
        0
176
     1
 62
   178
420
        0
176
     1
 90
       50
176
     1
 90
        3
176
     1
 62
     5
420
      255
176
     1
290
     0
176
     1
 90
       50
176
     1
 90
       50
176
     1
 90
       50
176
     1
290
     0
176
     1
 90
       50
176
     1
 62
   256
176
     0
 40
1.0
176
     0
 90
        2
176
     1
  1
strokes_ogs.tif
176
     1
290
     0
176
     1
 40
1.0
176
     1
 40
1.0
176
     1
  0
VISUALSTYLE
  5
2B0
102
{ACAD_REACTORS
330
2A0
102
}
330
2A0
100
AcDbVisualStyle
  2
ColorChange
 70
    16
177
     3
291
     1
 70
    58
 90
        2
176
     1
 90
        2
176
     1
 90
        3
176
     1
 90
        0
176
     1
 40
0.6
176
     1
 40
30.0
176
     1
 62
     8
420
  8421504
176
     1
 90
        1
176
     1
 90
        4
176
     1
 62
     7
176
     1
 62
   257
176
     1
 90
        1
176
     1
 90
        1
176
     1
 40
1.0
176
     1
 90
        8
176
     1
 62
     8
420
  8421504
176
     1
 40
1.0
176
     1
 90
        1
176
     1
 90
        6
176
     1
 90
        2
176
     1
 62
     7
176
     1
 90
        5
176
     1
 90
        0
176
     1
 90
        0
176
     1
290
     0
176
     1
 90
        1
176
     1
 40
0.0
176
     1
 90
        0
176
     1
290
     0
176
     1
290
     1
176
     1
290
     1
176
     1
290
     0
176
     1
290
     0
176
     1
290
     0
176
     1
290
     0
176
     1
290
     0
176
     1
290
     0
176
     1
 90
       50
176
     1
 40
0.0
176
     1
 40
1.0
176
     1
 90
        0
176
     1
 62
   178
420
        0
176
     1
 90
       50
176
     1
 90
        3
176
     1
 62
     5
420
      255
176
     1
290
     0
176
     1
 90
       50
176
     1
 90
       50
176
     1
 90
       50
176
     1
290
     0
176
     1
 90
       50
176
     1
 62
   256
176
     0
 40
1.0
176
     0
 90
        2
176
     1
  1
strokes_ogs.tif
176
     1
290
     0
176
     1
 40
1.0
176
     1
 40
1.0
176
     1
  0
VISUALSTYLE
  5
2AA
102
{ACAD_REACTORS
330
2A0
102
}
330
2A0
100
AcDbVisualStyle
  2
Conceptual
 70
     9
177
     3
291
     0
 70
    58
 90
        3
176
     1
 90
        2
176
     1
 90
        0
176
     1
 90
        0
176
     1
 40
0.6
176
     1
 40
30.0
176
     1
 62
     7
420
 16777215
176
     1
 90
        2
176
     1
 90
        2
176
     1
 62
     7
176
     1
 62
   257
176
     1
 90
        1
176
     1
 90
        1
176
     1
 40
179.0
176
     1
 90
        8
176
     1
 62
     7
176
     1
 40
1.0
176
     1
 90
        1
176
     1
 90
        6
176
     1
 90
        2
176
     1
 62
     7
176
     1
 90
        3
176
     1
 90
        0
176
     1
 90
        0
176
     1
290
     0
176
     1
 90
        1
176
     1
 40
0.0
176
     1
 90
        0
176
     1
290
     0
176
     1
290
     1
176
     1
290
     1
176
     1
290
     0
176
     1
290
     0
176
     1
290
     0
176
     1
290
     0
176
     1
290
     0
176
     1
290
     0
176
     1
 90
       50
176
     1
 40
0.0
176
     1
 40
1.0
176
     1
 90
        0
176
     1
 62
   178
420
        0
176
     1
 90
       50
176
     1
 90
        3
176
     1
 62
     5
420
      255
176
     1
290
     0
176
     1
 90
       50
176
     1
 90
       50
176
     1
 90
       50
176
     1
290
     0
176
     1
 90
       50
176
     1
 62
   256
176
     0
 40
1.0
176
     0
 90
        2
176
     1
  1
strokes_ogs.tif
176
     1
290
     0
176
     1
 40
1.0
176
     1
 40
1.0
176
     1
  0
VISUALSTYLE
  5
2AB
102
{ACAD_REACTORS
330
2A0
102
}
330
2A0
100
AcDbVisualStyle
  2
Dim
 70
    11
177
     3
291
     1
 70
    58
 90
        2
176
     1
 90
        2
176
     1
 90
        0
176
     1
 90
        0
176
     1
 40
0.6
176
     1
 40
30.0
176
     1
 62
     7
420
 16777215
176
     1
 90
        1
176
     1
 90
        4
176
     1
 62
     7
176
     1
 62
   257
176
     1
 90
        1
176
     1
 90
        1
176
     1
 40
1.0
176
     1
 90
        8
176
     1
 62
     7
176
     1
 40
1.0
176
     1
 90
        1
176
     1
 90
        6
176
     1
 90
        2
176
     1
 62
     7
176
     1
 90
        5
176
     1
 90
        0
176
     1
 90
        0
176
     1
290
     0
176
     1
 90
        1
176
     1
 40
-50.0
176
     1
 90
        0
176
     1
290
     0
176
     1
290
     1
176
     1
290
     1
176
     1
290
     0
176
     1
290
     0
176
     1
290
     0
176
     1
290
     0
176
     1
290
     0
176
     1
290
     0
176
     1
 90
       50
176
     1
 40
0.0
176
     1
 40
1.0
176
     1
 90
        0
176
     1
 62
   178
420
        0
176
     1
 90
       50
176
     1
 90
        3
176
     1
 62
     5
420
      255
176
     1
290
     0
176
     1
 90
       50
176
     1
 90
       50
176
     1
 90
       50
176
     1
290
     0
176
     1
 90
       50
176
     1
 62
   256
176
     0
 40
1.0
176
     0
 90
        2
176
     1
  1
strokes_ogs.tif
176
     1
290
     0
176
     1
 40
1.0
176
     1
 40
1.0
176
     1
  0
VISUALSTYLE
  5
2B3
102
{ACAD_REACTORS
330
2A0
102
}
330
2A0
100
AcDbVisualStyle
  2
EdgeColorOff
 70
    22
177
     3
291
     1
 70
    58
 90
        2
176
     0
 90
        2
176
     0
 90
        0
176
     0
 90
        0
176
     0
 40
0.6
176
     0
 40
30.0
176
     0
 62
     7
420
 16777215
176
     0
 90
        1
176
     0
 90
        4
176
     0
 62
     7
176
     0
 62
   257
176
     0
 90
        1
176
     0
 90
        1
176
     0
 40
1.0
176
     0
 90
        8
176
     2
 62
     7
176
     0
 40
1.0
176
     0
 90
        1
176
     0
 90
        6
176
     0
 90
        2
176
     0
 62
     7
176
     0
 90
        5
176
     0
 90
        0
176
     0
 90
        0
176
     0
290
     0
176
     0
 90
        1
176
     0
 40
0.0
176
     0
 90
        0
176
     0
290
     0
176
     0
290
     1
176
     0
290
     1
176
     0
290
     0
176
     0
290
     0
176
     0
290
     0
176
     0
290
     0
176
     0
290
     0
176
     0
290
     0
176
     0
 90
       50
176
     0
 40
0.0
176
     0
 40
1.0
176
     0
 90
        0
176
     0
 62
   178
420
        0
176
     0
 90
       50
176
     0
 90
        3
176
     0
 62
     5
420
      255
176
     0
290
     0
176
     0
 90
       50
176
     0
 90
       50
176
     0
 90
       50
176
     0
290
     0
176
     0
 90
       50
176
     0
 62
   256
176
     0
 40
1.0
176
     0
 90
        2
176
     0
  1
strokes_ogs.tif
176
     0
290
     0
176
     0
 40
1.0
176
     0
 40
1.0
176
     0
  0
VISUALSTYLE
  5
2AF
102
{ACAD_REACTORS
330
2A0
102
}
330
2A0
100
AcDbVisualStyle
  2
Facepattern
 70
    15
177
     3
291
     1
 70
    58
 90
        2
176
     1
 90
        2
176
     1
 90
        0
176
     1
 90
        0
176
     1
 40
0.6
176
     1
 40
30.0
176
     1
 62
     7
420
 16777215
176
     1
 90
        1
176
     1
 90
        4
176
     1
 62
     7
176
     1
 62
   257
176
     1
 90
        1
176
     1
 90
        1
176
     1
 40
1.0
176
     1
 90
        8
176
     1
 62
     7
176
     1
 40
1.0
176
     1
 90
        1
176
     1
 90
        6
176
     1
 90
        2
176
     1
 62
     7
176
     1
 90
        5
176
     1
 90
        0
176
     1
 90
        0
176
     1
290
     0
176
     1
 90
        1
176
     1
 40
0.0
176
     1
 90
        0
176
     1
290
     0
176
     1
290
     1
176
     1
290
     1
176
     1
290
     0
176
     1
290
     0
176
     1
290
     0
176
     1
290
     0
176
     1
290
     0
176
     1
290
     0
176
     1
 90
       50
176
     1
 40
0.0
176
     1
 40
1.0
176
     1
 90
        0
176
     1
 62
   178
420
        0
176
     1
 90
       50
176
     1
 90
        3
176
     1
 62
     5
420
      255
176
     1
290
     0
176
     1
 90
       50
176
     1
 90
       50
176
     1
 90
       50
176
     1
290
     0
176
     1
 90
       50
176
     1
 62
   256
176
     0
 40
1.0
176
     0
 90
        2
176
     1
  1
strokes_ogs.tif
176
     1
290
     0
176
     1
 40
1.0
176
     1
 40
1.0
176
     1
  0
VISUALSTYLE
  5
2A1
102
{ACAD_REACTORS
330
2A0
102
}
330
2A0
100
AcDbVisualStyle
  2
Flat
 70
     0
177
     3
291
     1
 70
    58
 90
        2
176
     1
 90
        1
176
     1
 90
        1
176
     1
 90
        2
176
     1
 40
0.6
176
     1
 40
30.0
176
     1
 62
     7
420
 16777215
176
     1
 90
        0
176
     1
 90
        0
176
     1
 62
     7
176
     1
 62
   257
176
     1
 90
        1
176
     1
 90
        1
176
     1
 40
1.0
176
     1
 90
        8
176
     1
 62
     7
176
     1
 40
1.0
176
     1
 90
        1
176
     1
 90
        6
176
     1
 90
        2
176
     1
 62
     7
176
     1
 90
        5
176
     1
 90
        0
176
     1
 90
        0
176
     1
290
     0
176
     1
 90
       13
176
     1
 40
0.0
176
     1
 90
        0
176
     1
290
     0
176
     1
290
     1
176
     1
290
     1
176
     1
290
     0
176
     1
290
     0
176
     1
290
     0
176
     1
290
     0
176
     1
290
     0
176
     1
290
     0
176
     1
 90
       50
176
     1
 40
0.0
176
     1
 40
1.0
176
     1
 90
        0
176
     1
 62
   178
420
        0
176
     1
 90
       50
176
     1
 90
        3
176
     1
 62
     5
420
      255
176
     1
290
     0
176
     1
 90
       50
176
     1
 90
       50
176
     1
 90
       50
176
     1
290
     0
176
     1
 90
       50
176
     1
 62
   256
176
     0
 40
1.0
176
     0
 90
        2
176
     1
  1
strokes_ogs.tif
176
     1
290
     0
176
     1
 40
1.0
176
     1
 40
1.0
176
     1
  0
VISUALSTYLE
  5
2A2
102
{ACAD_REACTORS
330
2A0
102
}
330
2A0
100
AcDbVisualStyle
  2
FlatWithEdges
 70
     1
177
     3
291
     1
 70
    58
 90
        2
176
     1
 90
        1
176
     1
 90
        1
176
     1
 90
        2
176
     1
 40
0.6
176
     1
 40
30.0
176
     1
 62
     7
420
 16777215
176
     1
 90
        1
176
     1
 90
        0
176
     1
 62
     7
176
     1
 62
   257
176
     1
 90
        1
176
     1
 90
        1
176
     1
 40
1.0
176
     1
 90
        0
176
     1
 62
   257
176
     1
 40
1.0
176
     1
 90
        1
176
     1
 90
        6
176
     1
 90
        2
176
     1
 62
     7
176
     1
 90
        5
176
     1
 90
        0
176
     1
 90
        0
176
     1
290
     0
176
     1
 90
       13
176
     1
 40
0.0
176
     1
 90
        0
176
     1
290
     0
176
     1
290
     1
176
     1
290
     1
176
     1
290
     0
176
     1
290
     0
176
     1
290
     0
176
     1
290
     0
176
     1
290
     0
176
     1
290
     0
176
     1
 90
       50
176
     1
 40
0.0
176
     1
 40
1.0
176
     1
 90
        0
176
     1
 62
   178
420
        0
176
     1
 90
       50
176
     1
 90
        3
176
     1
 62
     5
420
      255
176
     1
290
     0
176
     1
 90
       50
176
     1
 90
       50
176
     1
 90
       50
176
     1
290
     0
176
     1
 90
       50
176
     1
 62
   256
176
     0
 40
1.0
176
     0
 90
        2
176
     1
  1
strokes_ogs.tif
176
     1
290
     0
176
     1
 40
1.0
176
     1
 40
1.0
176
     1
  0
VISUALSTYLE
  5
2A3
102
{ACAD_REACTORS
330
2A0
102
}
330
2A0
100
AcDbVisualStyle
  2
Gouraud
 70
     2
177
     3
291
     1
 70
    58
 90
        2
176
     1
 90
        2
176
     1
 90
        1
176
     1
 90
        2
176
     1
 40
0.6
176
     1
 40
30.0
176
     1
 62
     7
420
 16777215
176
     1
 90
        0
176
     1
 90
        0
176
     1
 62
     7
176
     1
 62
   257
176
     1
 90
        1
176
     1
 90
        1
176
     1
 40
1.0
176
     1
 90
        0
176
     1
 62
     7
176
     1
 40
1.0
176
     1
 90
        1
176
     1
 90
        6
176
     1
 90
        2
176
     1
 62
     7
176
     1
 90
        5
176
     1
 90
        0
176
     1
 90
        0
176
     1
290
     0
176
     1
 90
       13
176
     1
 40
0.0
176
     1
 90
        0
176
     1
290
     0
176
     1
290
     1
176
     1
290
     1
176
     1
290
     0
176
     1
290
     0
176
     1
290
     0
176
     1
290
     0
176
     1
290
     0
176
     1
290
     0
176
     1
 90
       50
176
     1
 40
0.0
176
     1
 40
1.0
176
     1
 90
        0
176
     1
 62
   178
420
        0
176
     1
 90
       50
176
     1
 90
        3
176
     1
 62
     5
420
      255
176
     1
290
     0
176
     1
 90
       50
176
     1
 90
       50
176
     1
 90
       50
176
     1
290
     0
176
     1
 90
       50
176
     1
 62
   256
176
     0
 40
1.0
176
     0
 90
        2
176
     1
  1
strokes_ogs.tif
176
     1
290
     0
176
     1
 40
1.0
176
     1
 40
1.0
176
     1
  0
VISUALSTYLE
  5
2A4
102
{ACAD_REACTORS
330
2A0
102
}
330
2A0
100
AcDbVisualStyle
  2
GouraudWithEdges
 70
     3
177
     3
291
     1
 70
    58
 90
        2
176
     1
 90
        2
176
     1
 90
        1
176
     1
 90
        2
176
     1
 40
0.6
176
     1
 40
30.0
176
     1
 62
     7
420
 16777215
176
     1
 90
        1
176
     1
 90
        0
176
     1
 62
     7
176
     1
 62
   257
176
     1
 90
        1
176
     1
 90
        1
176
     1
 40
1.0
176
     1
 90
        0
176
     1
 62
   257
176
     1
 40
1.0
176
     1
 90
        1
176
     1
 90
        6
176
     1
 90
        2
176
     1
 62
     7
176
     1
 90
        5
176
     1
 90
        0
176
     1
 90
        0
176
     1
290
     0
176
     1
 90
       13
176
     1
 40
0.0
176
     1
 90
        0
176
     1
290
     0
176
     1
290
     1
176
     1
290
     1
176
     1
290
     0
176
     1
290
     0
176
     1
290
     0
176
     1
290
     0
176
     1
290
     0
176
     1
290
     0
176
     1
 90
       50
176
     1
 40
0.0
176
     1
 40
1.0
176
     1
 90
        0
176
     1
 62
   178
420
        0
176
     1
 90
       50
176
     1
 90
        3
176
     1
 62
     5
420
      255
176
     1
290
     0
176
     1
 90
       50
176
     1
 90
       50
176
     1
 90
       50
176
     1
290
     0
176
     1
 90
       50
176
     1
 62
   256
176
     0
 40
1.0
176
     0
 90
        2
176
     1
  1
strokes_ogs.tif
176
     1
290
     0
176
     1
 40
1.0
176
     1
 40
1.0
176
     1
  0
VISUALSTYLE
  5
2A7
102
{ACAD_REACTORS
330
2A0
102
}
330
2A0
100
AcDbVisualStyle
  2
Hidden
 70
     6
177
     3
291
     0
 70
    58
 90
        1
176
     1
 90
        2
176
     1
 90
        2
176
     1
 90
        0
176
     1
 40
0.6
176
     1
 40
30.0
176
     1
 62
     7
420
 16777215
176
     1
 90
        2
176
     1
 90
        2
176
     1
 62
     7
176
     1
 62
   257
176
     1
 90
        2
176
     1
 90
        1
176
     1
 40
40.0
176
     1
 90
        0
176
     1
 62
   257
176
     1
 40
1.0
176
     1
 90
        1
176
     1
 90
        6
176
     1
 90
        2
176
     1
 62
     7
176
     1
 90
        3
176
     1
 90
        0
176
     1
 90
        0
176
     1
290
     0
176
     1
 90
        1
176
     1
 40
0.0
176
     1
 90
        0
176
     1
290
     0
176
     1
290
     1
176
     1
290
     1
176
     1
290
     0
176
     1
290
     0
176
     1
290
     0
176
     1
290
     0
176
     1
290
     0
176
     1
290
     0
176
     1
 90
       50
176
     1
 40
0.0
176
     1
 40
1.0
176
     1
 90
        0
176
     1
 62
   178
420
        0
176
     1
 90
       50
176
     1
 90
        3
176
     1
 62
     5
420
      255
176
     1
290
     0
176
     1
 90
       50
176
     1
 90
       50
176
     1
 90
       50
176
     1
290
     0
176
     1
 90
       50
176
     1
 62
   256
176
     0
 40
1.0
176
     0
 90
        2
176
     1
  1
strokes_ogs.tif
176
     1
290
     0
176
     1
 40
1.0
176
     1
 40
1.0
176
     1
  0
VISUALSTYLE
  5
2B1
102
{ACAD_REACTORS
330
2A0
102
}
330
2A0
100
AcDbVisualStyle
  2
JitterOff
 70
    20
177
     3
291
     1
 70
    58
 90
        2
176
     0
 90
        2
176
     0
 90
        0
176
     0
 90
        0
176
     0
 40
0.6
176
     0
 40
30.0
176
     0
 62
     7
420
 16777215
176
     0
 90
        1
176
     0
 90
        4
176
     0
 62
     7
176
     0
 62
   257
176
     0
 90
        1
176
     0
 90
        1
176
     0
 40
1.0
176
     0
 90
       10
176
     2
 62
     7
176
     0
 40
1.0
176
     0
 90
        1
176
     0
 90
        6
176
     0
 90
        2
176
     0
 62
     7
176
     0
 90
        5
176
     0
 90
        0
176
     0
 90
        0
176
     0
290
     0
176
     0
 90
        1
176
     0
 40
0.0
176
     0
 90
        0
176
     0
290
     0
176
     0
290
     1
176
     0
290
     1
176
     0
290
     0
176
     0
290
     0
176
     0
290
     0
176
     0
290
     0
176
     0
290
     0
176
     0
290
     0
176
     0
 90
       50
176
     0
 40
0.0
176
     0
 40
1.0
176
     0
 90
        0
176
     0
 62
   178
420
        0
176
     0
 90
       50
176
     0
 90
        3
176
     0
 62
     5
420
      255
176
     0
290
     0
176
     0
 90
       50
176
     0
 90
       50
176
     0
 90
       50
176
     0
290
     0
176
     0
 90
       50
176
     0
 62
   256
176
     0
 40
1.0
176
     0
 90
        2
176
     0
  1
strokes_ogs.tif
176
     0
290
     0
176
     0
 40
1.0
176
     0
 40
1.0
176
     0
  0
VISUALSTYLE
  5
2AE
102
{ACAD_REACTORS
330
2A0
102
}
330
2A0
100
AcDbVisualStyle
  2
Linepattern
 70
    14
177
     3
291
     1
 70
    58
 90
        2
176
     1
 90
        2
176
     1
 90
        0
176
     1
 90
        0
176
     1
 40
0.6
176
     1
 40
30.0
176
     1
 62
     7
420
 16777215
176
     1
 90
        1
176
     1
 90
        4
176
     1
 62
     7
176
     1
 62
   257
176
     1
 90
        7
176
     1
 90
        7
176
     1
 40
1.0
176
     1
 90
        8
176
     1
 62
     7
176
     1
 40
1.0
176
     1
 90
        1
176
     1
 90
        6
176
     1
 90
        2
176
     1
 62
     7
176
     1
 90
        5
176
     1
 90
        0
176
     1
 90
        0
176
     1
290
     0
176
     1
 90
        1
176
     1
 40
0.0
176
     1
 90
        0
176
     1
290
     0
176
     1
290
     1
176
     1
290
     1
176
     1
290
     0
176
     1
290
     0
176
     1
290
     0
176
     1
290
     0
176
     1
290
     0
176
     1
290
     0
176
     1
 90
       50
176
     1
 40
0.0
176
     1
 40
1.0
176
     1
 90
        0
176
     1
 62
   178
420
        0
176
     1
 90
       50
176
     1
 90
        3
176
     1
 62
     5
420
      255
176
     1
290
     0
176
     1
 90
       50
176
     1
 90
       50
176
     1
 90
       50
176
     1
290
     0
176
     1
 90
       50
176
     1
 62
   256
176
     0
 40
1.0
176
     0
 90
        2
176
     1
  1
strokes_ogs.tif
176
     1
290
     0
176
     1
 40
1.0
176
     1
 40
1.0
176
     1
  0
VISUALSTYLE
  5
2B2
102
{ACAD_REACTORS
330
2A0
102
}
330
2A0
100
AcDbVisualStyle
  2
OverhangOff
 70
    21
177
     3
291
     1
 70
    58
 90
        2
176
     0
 90
        2
176
     0
 90
        0
176
     0
 90
        0
176
     0
 40
0.6
176
     0
 40
30.0
176
     0
 62
     7
420
 16777215
176
     0
 90
        1
176
     0
 90
        4
176
     0
 62
     7
176
     0
 62
   257
176
     0
 90
        1
176
     0
 90
        1
176
     0
 40
1.0
176
     0
 90
        9
176
     2
 62
     7
176
     0
 40
1.0
176
     0
 90
        1
176
     0
 90
        6
176
     0
 90
        2
176
     0
 62
     7
176
     0
 90
        5
176
     0
 90
        0
176
     0
 90
        0
176
     0
290
     0
176
     0
 90
        1
176
     0
 40
0.0
176
     0
 90
        0
176
     0
290
     0
176
     0
290
     1
176
     0
290
     1
176
     0
290
     0
176
     0
290
     0
176
     0
290
     0
176
     0
290
     0
176
     0
290
     0
176
     0
290
     0
176
     0
 90
       50
176
     0
 40
0.0
176
     0
 40
1.0
176
     0
 90
        0
176
     0
 62
   178
420
        0
176
     0
 90
       50
176
     0
 90
        3
176
     0
 62
     5
420
      255
176
     0
290
     0
176
     0
 90
       50
176
     0
 90
       50
176
     0
 90
       50
176
     0
290
     0
176
     0
 90
       50
176
     0
 62
   256
176
     0
 40
1.0
176
     0
 90
        2
176
     0
  1
strokes_ogs.tif
176
     0
290
     0
176
     0
 40
1.0
176
     0
 40
1.0
176
     0
  0
VISUALSTYLE
  5
2A9
102
{ACAD_REACTORS
330
2A0
102
}
330
2A0
100
AcDbVisualStyle
  2
Realistic
 70
     8
177
     3
291
     0
 70
    58
 90
        2
176
     1
 90
        3
176
     1
 90
        0
176
     1
 90
        2
176
     1
 40
0.6
176
     1
 40
30.0
176
     1
 62
     7
420
 16777215
176
     1
 90
        0
176
     1
 90
        0
176
     1
 62
     7
176
     1
 62
   257
176
     1
 90
        1
176
     1
 90
        1
176
     1
 40
1.0
176
     1
 90
        8
176
     1
 62
   257
176
     1
 40
1.0
176
     1
 90
        1
176
     1
 90
        6
176
     1
 90
        2
176
     1
 62
     7
176
     1
 90
        3
176
     1
 90
        0
176
     1
 90
        0
176
     1
290
     0
176
     1
 90
       13
176
     1
 40
0.0
176
     1
 90
        0
176
     1
290
     0
176
     1
290
     1
176
     1
290
     1
176
     1
290
     0
176
     1
290
     0
176
     1
290
     0
176
     1
290
     0
176
     1
290
     0
176
     1
290
     0
176
     1
 90
       50
176
     1
 40
0.0
176
     1
 40
1.0
176
     1
 90
        0
176
     1
 62
   178
420
        0
176
     1
 90
       50
176
     1
 90
        3
176
     1
 62
     5
420
      255
176
     1
290
     0
176
     1
 90
       50
176
     1
 90
       50
176
     1
 90
       50
176
     1
290
     0
176
     1
 90
       50
176
     1
 62
   256
176
     0
 40
1.0
176
     0
 90
        2
176
     1
  1
strokes_ogs.tif
176
     1
290
     0
176
     1
 40
1.0
176
     1
 40
1.0
176
     1
  0
VISUALSTYLE
  5
2B8
102
{ACAD_REACTORS
330
2A0
102
}
330
2A0
100
AcDbVisualStyle
  2
Shaded
 70
    27
177
     3
291
     0
 70
    58
 90
        2
176
     1
 90
        2
176
     1
 90
        1
176
     1
 90
        2
176
     1
 40
0.6
176
     1
 40
30.0
176
     1
 62
     7
420
 16777215
176
     1
 90
        0
176
     1
 90
        4
176
     1
 62
     7
176
     1
 62
   257
176
     1
 90
        1
176
     1
 90
        1
176
     1
 40
1.0
176
     1
 90
        8
176
     1
 62
   257
176
     1
 40
1.0
176
     1
 90
        1
176
     1
 90
        6
176
     1
 90
        2
176
     1
 62
     8
420
  7895160
176
     1
 90
        3
176
     1
 90
        0
176
     1
 90
        0
176
     1
290
     0
176
     1
 90
        5
176
     1
 40
0.0
176
     1
 90
        0
176
     1
290
     0
176
     1
290
     1
176
     1
290
     1
176
     1
290
     0
176
     1
290
     0
176
     1
290
     0
176
     1
290
     0
176
     1
290
     0
176
     1
290
     0
176
     1
 90
       50
176
     1
 40
0.0
176
     1
 40
1.0
176
     1
 90
        0
176
     1
 62
   178
420
        0
176
     1
 90
       50
176
     1
 90
        3
176
     1
 62
     5
420
      255
176
     1
290
     0
176
     1
 90
       50
176
     1
 90
       50
176
     1
 90
       50
176
     1
290
     0
176
     1
 90
       50
176
     1
 62
   256
176
     0
 40
1.0
176
     0
 90
        2
176
     1
  1
strokes_ogs.tif
176
     1
290
     0
176
     1
 40
1.0
176
     1
 40
1.0
176
     1
  0
VISUALSTYLE
  5
2B7
102
{ACAD_REACTORS
330
2A0
102
}
330
2A0
100
AcDbVisualStyle
  2
Shaded with edges
 70
    26
177
     3
291
     0
 70
    58
 90
        2
176
     1
 90
        2
176
     1
 90
        1
176
     1
 90
        2
176
     1
 40
0.6
176
     1
 40
30.0
176
     1
 62
     7
420
 16777215
176
     1
 90
        1
176
     1
 90
       10
176
     1
 62
     7
176
     1
 62
   257
176
     1
 90
        2
176
     1
 90
        1
176
     1
 40
1.0
176
     1
 90
        8
176
     1
 62
   257
176
     1
 40
1.0
176
     1
 90
        1
176
     1
 90
        6
176
     1
 90
        2
176
     1
 62
     7
176
     1
 90
        3
176
     1
 90
        0
176
     1
 90
        0
176
     1
290
     0
176
     1
 90
        5
176
     1
 40
0.0
176
     1
 90
        0
176
     1
290
     0
176
     1
290
     1
176
     1
290
     1
176
     1
290
     0
176
     1
290
     0
176
     1
290
     0
176
     1
290
     0
176
     1
290
     0
176
     1
290
     0
176
     1
 90
       50
176
     1
 40
0.0
176
     1
 40
1.0
176
     1
 90
        0
176
     1
 62
   178
420
        0
176
     1
 90
       50
176
     1
 90
        3
176
     1
 62
     5
420
      255
176
     1
290
     0
176
     1
 90
       50
176
     1
 90
       50
176
     1
 90
       50
176
     1
290
     0
176
     1
 90
       50
176
     1
 62
   256
176
     0
 40
1.0
176
     0
 90
        2
176
     1
  1
strokes_ogs.tif
176
     1
290
     0
176
     1
 40
1.0
176
     1
 40
1.0
176
     1
  0
VISUALSTYLE
  5
2B4
102
{ACAD_REACTORS
330
2A0
102
}
330
2A0
100
AcDbVisualStyle
  2
Shades of Gray
 70
    23
177
     3
291
     0
 70
    58
 90
        2
176
     1
 90
        2
176
     1
 90
        3
176
     1
 90
        0
176
     1
 40
0.6
176
     1
 40
30.0
176
     1
 62
     7
420
 16777215
176
     1
 90
        2
176
     1
 90
        2
176
     1
 62
     7
176
     1
 62
     7
176
     1
 90
        1
176
     1
 90
        1
176
     1
 40
40.0
176
     1
 90
        8
176
     1
 62
     7
176
     1
 40
1.0
176
     1
 90
        1
176
     1
 90
        6
176
     1
 90
        2
176
     1
 62
     7
176
     1
 90
        3
176
     1
 90
        0
176
     1
 90
        0
176
     1
290
     0
176
     1
 90
        1
176
     1
 40
0.0
176
     1
 90
        0
176
     1
290
     0
176
     1
290
     1
176
     1
290
     1
176
     1
290
     0
176
     1
290
     0
176
     1
290
     0
176
     1
290
     0
176
     1
290
     0
176
     1
290
     0
176
     1
 90
       50
176
     1
 40
0.0
176
     1
 40
1.0
176
     1
 90
        0
176
     1
 62
   178
420
        0
176
     1
 90
       50
176
     1
 90
        3
176
     1
 62
     5
420
      255
176
     1
290
     0
176
     1
 90
       50
176
     1
 90
       50
176
     1
 90
       50
176
     1
290
     0
176
     1
 90
       50
176
     1
 62
   256
176
     0
 40
1.0
176
     0
 90
        2
176
     1
  1
strokes_ogs.tif
176
     1
290
     0
176
     1
 40
1.0
176
     1
 40
1.0
176
     1
  0
VISUALSTYLE
  5
2B5
102
{ACAD_REACTORS
330
2A0
102
}
330
2A0
100
AcDbVisualStyle
  2
Sketchy
 70
    24
177
     3
291
     0
 70
    58
 90
        1
176
     1
 90
        2
176
     1
 90
        2
176
     1
 90
        0
176
     1
 40
0.6
176
     1
 40
30.0
176
     1
 62
     7
420
 16777215
176
     1
 90
        2
176
     1
 90
        2
176
     1
 62
     7
176
     1
 62
     7
176
     1
 90
        1
176
     1
 90
        1
176
     1
 40
40.0
176
     1
 90
       11
176
     1
 62
     7
176
     1
 40
1.0
176
     1
 90
        1
176
     1
 90
        6
176
     1
 90
        2
176
     1
 62
     7
176
     1
 90
        6
176
     1
 90
        0
176
     1
 90
        0
176
     1
290
     0
176
     1
 90
        1
176
     1
 40
0.0
176
     1
 90
        0
176
     1
290
     0
176
     1
290
     1
176
     1
290
     1
176
     1
290
     0
176
     1
290
     0
176
     1
290
     0
176
     1
290
     0
176
     1
290
     0
176
     1
290
     0
176
     1
 90
       50
176
     1
 40
0.0
176
     1
 40
1.0
176
     1
 90
        0
176
     1
 62
   178
420
        0
176
     1
 90
       50
176
     1
 90
        3
176
     1
 62
     5
420
      255
176
     1
290
     0
176
     1
 90
       50
176
     1
 90
       50
176
     1
 90
       50
176
     1
290
     0
176
     1
 90
       50
176
     1
 62
   256
176
     0
 40
1.0
176
     0
 90
        2
176
     1
  1
strokes_ogs.tif
176
     1
290
     0
176
     1
 40
1.0
176
     1
 40
1.0
176
     1
  0
VISUALSTYLE
  5
2AD
102
{ACAD_REACTORS
330
2A0
102
}
330
2A0
100
AcDbVisualStyle
  2
Thicken
 70
    13
177
     3
291
     1
 70
    58
 90
        2
176
     1
 90
        2
176
     1
 90
        0
176
     1
 90
        0
176
     1
 40
0.6
176
     1
 40
30.0
176
     1
 62
     7
420
 16777215
176
     1
 90
        1
176
     1
 90
        4
176
     1
 62
     7
176
     1
 62
   257
176
     1
 90
        1
176
     1
 90
        1
176
     1
 40
1.0
176
     1
 90
       12
176
     1
 62
     7
176
     1
 40
1.0
176
     1
 90
        1
176
     1
 90
        6
176
     1
 90
        2
176
     1
 62
     7
176
     1
 90
        5
176
     1
 90
        0
176
     1
 90
        0
176
     1
290
     0
176
     1
 90
        1
176
     1
 40
0.0
176
     1
 90
        0
176
     1
290
     0
176
     1
290
     1
176
     1
290
     1
176
     1
290
     0
176
     1
290
     0
176
     1
290
     0
176
     1
290
     0
176
     1
290
     0
176
     1
290
     0
176
     1
 90
       50
176
     1
 40
0.0
176
     1
 40
1.0
176
     1
 90
        0
176
     1
 62
   178
420
        0
176
     1
 90
       50
176
     1
 90
        3
176
     1
 62
     5
420
      255
176
     1
290
     0
176
     1
 90
       50
176
     1
 90
       50
176
     1
 90
       50
176
     1
290
     0
176
     1
 90
       50
176
     1
 62
   256
176
     0
 40
1.0
176
     0
 90
        2
176
     1
  1
strokes_ogs.tif
176
     1
290
     0
176
     1
 40
1.0
176
     1
 40
1.0
176
     1
  0
VISUALSTYLE
  5
2A6
102
{ACAD_REACTORS
330
2A0
102
}
330
2A0
100
AcDbVisualStyle
  2
Wireframe
 70
     5
177
     3
291
     0
 70
    58
 90
        0
176
     1
 90
        2
176
     1
 90
        0
176
     1
 90
        0
176
     1
 40
0.6
176
     1
 40
30.0
176
     1
 62
     7
420
 16777215
176
     1
 90
        1
176
     1
 90
        4
176
     1
 62
     7
176
     1
 62
   257
176
     1
 90
        1
176
     1
 90
        1
176
     1
 40
1.0
176
     1
 90
        0
176
     1
 62
   257
176
     1
 40
1.0
176
     1
 90
        1
176
     1
 90
        6
176
     1
 90
        2
176
     1
 62
     7
176
     1
 90
        3
176
     1
 90
        0
176
     1
 90
        0
176
     1
290
     0
176
     1
 90
        1
176
     1
 40
0.0
176
     1
 90
        0
176
     1
290
     0
176
     1
290
     1
176
     1
290
     1
176
     1
290
     0
176
     1
290
     0
176
     1
290
     0
176
     1
290
     0
176
     1
290
     0
176
     1
290
     0
176
     1
 90
       50
176
     1
 40
0.0
176
     1
 40
1.0
176
     1
 90
        0
176
     1
 62
   178
420
        0
176
     1
 90
       50
176
     1
 90
        3
176
     1
 62
     5
420
      255
176
     1
290
     0
176
     1
 90
       50
176
     1
 90
       50
176
     1
 90
       50
176
     1
290
     0
176
     1
 90
       50
176
     1
 62
   256
176
     0
 40
1.0
176
     0
 90
        2
176
     1
  1
strokes_ogs.tif
176
     1
290
     0
176
     1
 40
1.0
176
     1
 40
1.0
176
     1
  0
VISUALSTYLE
  5
2B6
102
{ACAD_REACTORS
330
2A0
102
}
330
2A0
100
AcDbVisualStyle
  2
X-Ray
 70
    25
177
     3
291
     0
 70
    58
 90
        2
176
     1
 90
        2
176
     1
 90
        1
176
     1
 90
        1
176
     1
 40
0.5
176
     1
 40
30.0
176
     1
 62
     7
420
 16777215
176
     1
 90
        1
176
     1
 90
        0
176
     1
 62
     7
176
     1
 62
   257
176
     1
 90
        1
176
     1
 90
        1
176
     1
 40
1.0
176
     1
 90
        8
176
     1
 62
     7
176
     1
 40
1.0
176
     1
 90
        1
176
     1
 90
        6
176
     1
 90
        2
176
     1
 62
     7
176
     1
 90
        3
176
     1
 90
        0
176
     1
 90
        0
176
     1
290
     0
176
     1
 90
       13
176
     1
 40
0.0
176
     1
 90
        0
176
     1
290
     0
176
     1
290
     1
176
     1
290
     1
176
     1
290
     0
176
     1
290
     0
176
     1
290
     0
176
     1
290
     0
176
     1
290
     0
176
     1
290
     0
176
     1
 90
       50
176
     1
 40
0.0
176
     1
 40
1.0
176
     1
 90
        0
176
     1
 62
   178
420
        0
176
     1
 90
       50
176
     1
 90
        3
176
     1
 62
     5
420
      255
176
     1
290
     0
176
     1
 90
       50
176
     1
 90
       50
176
     1
 90
       50
176
     1
290
     0
176
     1
 90
       50
176
     1
 62
   256
176
     0
 40
1.0
176
     0
 90
        2
176
     1
  1
strokes_ogs.tif
176
     1
290
     0
176
     1
 40
1.0
176
     1
 40
1.0
176
     1
  0
DICTIONARYVAR
  5
41A
102
{ACAD_REACTORS
330
419
102
}
330
419
100
DictionaryVariables
280
     0
  1
1:1
  0
DICTIONARYVAR
  5
41F
102
{ACAD_REACTORS
330
419
102
}
330
419
100
DictionaryVariables
280
     0
  1
Standard
  0
DICTIONARYVAR
  5
41E
102
{ACAD_REACTORS
330
419
102
}
330
419
100
DictionaryVariables
280
     0
  1
Standard
  0
XRECORD
  5
2E7
102
{ACAD_REACTORS
330
2E5
102
}
330
2E5
100
AcDbXrecord
280
     1
 90
        0
  0
XRECORD
  5
2E8
102
{ACAD_REACTORS
330
2E5
102
}
330
2E5
100
AcDbXrecord
280
     1
 90
        0
  0
XRECORD
  5
2E9
102
{ACAD_REACTORS
330
2E5
102
}
330
2E5
100
AcDbXrecord
280
     1
1000

  0
XRECORD
  5
2EA
102
{ACAD_REACTORS
330
2E5
102
}
330
2E5
100
AcDbXrecord
280
     1
290
     1
  0
XRECORD
  5
2EB
102
{ACAD_REACTORS
330
2E5
102
}
330
2E5
100
AcDbXrecord
280
     1
 90
        2
  0
XRECORD
  5
2EC
102
{ACAD_REACTORS
330
2E5
102
}
330
2E5
100
AcDbXrecord
280
     1
 90
        4
  0
XRECORD
  5
2ED
102
{ACAD_REACTORS
330
2E5
102
}
330
2E5
100
AcDbXrecord
280
     1
290
     1
  0
XRECORD
  5
2EE
102
{ACAD_REACTORS
330
2E5
102
}
330
2E5
100
AcDbXrecord
280
     1
290
     1
  0
XRECORD
  5
2EF
102
{ACAD_REACTORS
330
2E5
102
}
330
2E5
100
AcDbXrecord
280
     1
290
     1
  0
XRECORD
  5
2F0
102
{ACAD_REACTORS
330
2E5
102
}
330
2E5
100
AcDbXrecord
280
     1
290
     1
  0
XRECORD
  5
2F1
102
{ACAD_REACTORS
330
2E5
102
}
330
2E5
100
AcDbXrecord
280
     1
1000
auto
  0
XRECORD
  5
2F2
102
{ACAD_REACTORS
330
2E5
102
}
330
2E5
100
AcDbXrecord
280
     1
1000
auto
  0
XRECORD
  5
2F3
102
{ACAD_REACTORS
330
2E5
102
}
330
2E5
100
AcDbXrecord
280
     1
1000
auto
  0
XRECORD
  5
2F4
102
{ACAD_REACTORS
330
2E5
102
}
330
2E5
100
AcDbXrecord
280
     1
1000
auto
  0
XRECORD
  5
2F5
102
{ACAD_REACTORS
330
2E5
102
}
330
2E5
100
AcDbXrecord
280
     1
1000
auto
  0
XRECORD
  5
2F6
102
{ACAD_REACTORS
330
2E5
102
}
330
2E5
100
AcDbXrecord
280
     1
1000
auto
  0
XRECORD
  5
2F7
102
{ACAD_REACTORS
330
2E5
102
}
330
2E5
100
AcDbXrecord
280
     1
1000
auto
  0
XRECORD
  5
2F8
102
{ACAD_REACTORS
330
2E5
102
}
330
2E5
100
AcDbXrecord
280
     1
1000
auto
  0
XRECORD
  5
2F9
102
{ACAD_REACTORS
330
2E5
102
}
330
2E5
100
AcDbXrecord
280
     1
290
     0
  0
XRECORD
  5
2FA
102
{ACAD_REACTORS
330
2E5
102
}
330
2E5
100
AcDbXrecord
280
     1
290
     0
  0
XRECORD
  5
2FB
102
{ACAD_REACTORS
330
2E5
102
}
330
2E5
100
AcDbXrecord
280
     1
290
     0
  0
XRECORD
  5
2FC
102
{ACAD_REACTORS
330
2E5
102
}
330
2E5
100
AcDbXrecord
280
     1
290
     0
  0
XRECORD
  5
2FD
102
{ACAD_REACTORS
330
2E5
102
}
330
2E5
100
AcDbXrecord
280
     1
 90
        0
  0
XRECORD
  5
2FE
102
{ACAD_REACTORS
330
2E5
102
}
330
2E5
100
AcDbXrecord
280
     1
 90
        0
  0
XRECORD
  5
2FF
102
{ACAD_REACTORS
330
2E5
102
}
330
2E5
100
AcDbXrecord
280
     1
 90
        0
  0
XRECORD
  5
300
102
{ACAD_REACTORS
330
2E5
102
}
330
2E5
100
AcDbXrecord
280
     1
 90
        0
  0
XRECORD
  5
301
102
{ACAD_REACTORS
330
2E5
102
}
330
2E5
100
AcDbXrecord
280
     1
1000
auto
  0
XRECORD
  5
302
102
{ACAD_REACTORS
330
2E5
102
}
330
2E5
100
AcDbXrecord
280
     1
1000
auto
  0
XRECORD
  5
303
102
{ACAD_REACTORS
330
2E5
102
}
330
2E5
100
AcDbXrecord
280
     1
1000
auto
  0
XRECORD
  5
304
102
{ACAD_REACTORS
330
2E5
102
}
330
2E5
100
AcDbXrecord
280
     1
1000
auto
  0
XRECORD
  5
305
102
{ACAD_REACTORS
330
2E5
102
}
330
2E5
100
AcDbXrecord
280
     1
1000
auto
  0
XRECORD
  5
306
102
{ACAD_REACTORS
330
2E5
102
}
330
2E5
100
AcDbXrecord
280
     1
1000
auto
  0
XRECORD
  5
307
102
{ACAD_REACTORS
330
2E5
102
}
330
2E5
100
AcDbXrecord
280
     1
1000
auto
  0
XRECORD
  5
308
102
{ACAD_REACTORS
330
2E5
102
}
330
2E5
100
AcDbXrecord
280
     1
1000
auto
  0
XRECORD
  5
309
102
{ACAD_REACTORS
330
2E5
102
}
330
2E5
100
AcDbXrecord
280
     1
 90
        1
  0
XRECORD
  5
30A
102
{ACAD_REACTORS
330
2E5
102
}
330
2E5
100
AcDbXrecord
280
     1
 40
10.0
  0
XRECORD
  5
30B
102
{ACAD_REACTORS
330
2E5
102
}
330
2E5
100
AcDbXrecord
280
     1
 40
10.0
  0
XRECORD
  5
30C
102
{ACAD_REACTORS
330
2E5
102
}
330
2E5
100
AcDbXrecord
280
     1
 40
10.0
  0
XRECORD
  5
30D
102
{ACAD_REACTORS
330
2E5
102
}
330
2E5
100
AcDbXrecord
280
     1
 40
10.0
  0
XRECORD
  5
30E
102
{ACAD_REACTORS
330
2E5
102
}
330
2E5
100
AcDbXrecord
280
     1
290
     0
  0
XRECORD
  5
30F
102
{ACAD_REACTORS
330
2E5
102
}
330
2E5
100
AcDbXrecord
280
     1
 90
        1
  0
XRECORD
  5
310
102
{ACAD_REACTORS
330
2E5
102
}
330
2E5
100
AcDbXrecord
280
     1
 40
0.0
  0
XRECORD
  5
311
102
{ACAD_REACTORS
330
2E5
102
}
330
2E5
100
AcDbXrecord
280
     1
 40
0.0
  0
XRECORD
  5
312
102
{ACAD_REACTORS
330
2E5
102
}
330
2E5
100
AcDbXrecord
280
     1
1000
Portrait
  0
XRECORD
  5
313
102
{ACAD_REACTORS
330
2E5
102
}
330
2E5
100
AcDbXrecord
280
     1
 40
297.0
  0
XRECORD
  5
314
102
{ACAD_REACTORS
330
2E5
102
}
330
2E5
100
AcDbXrecord
280
     1
 40
210.0
  0
XRECORD
  5
315
102
{ACAD_REACTORS
330
2E5
102
}
330
2E5
100
AcDbXrecord
280
     1
1000
1:1
  0
XRECORD
  5
316
102
{ACAD_REACTORS
330
2E5
102
}
330
2E5
100
AcDbXrecord
280
     1
290
     1
  0
XRECORD
  5
317
102
{ACAD_REACTORS
330
2E5
102
}
330
2E5
100
AcDbXrecord
280
     1
1000
3.9.1
  0
XRECORD
  5
318
102
{ACAD_REACTORS
330
2E5
102
}
330
2E5
100
AcDbXrecord
280
     1
 90
        4
  0
DICTIONARY
  5
41B
330
2E0
100
AcDbDictionary
280
     1
281
     1
  3
ACAD_ROUNDTRIP_2008_TABLESTYLE_CELLSTYLEMAP
360
41C
  0
CELLSTYLEMAP
  5
41C
102
{ACAD_REACTORS
330
41B
102
}
330
41B
100
AcDbCellStyleMap
 90
        3
300
CELLSTYLE
  1
TABLEFORMAT_BEGIN
 90
        5
170
     1
 91
        0
 92
    32768
 62
   257
 93
        1
300
CONTENTFORMAT
  1
CONTENTFORMAT_BEGIN
 90
        0
 91
        0
 92
        4
 93
        0
300

 40
0.0
140
1.0
 94
        5
 62
     0
340
288
144
0.25
309
CONTENTFORMAT_END
171
     1
301
MARGIN
  1
CELLMARGIN_BEGIN
 40
0.06
 40
0.06
 40
0.06
 40
0.06
 40
0.06
 40
0.06
309
CELLMARGIN_END
 94
        6
 95
        1
302
GRIDFORMAT
  1
GRIDFORMAT_BEGIN
 90
        0
 91
        1
 62
     0
 92
       -2
340
28A
 93
        0
 40
0.045
309
GRIDFORMAT_END
 95
        2
302
GRIDFORMAT
  1
GRIDFORMAT_BEGIN
 90
        0
 91
        1
 62
     0
 92
       -2
340
28A
 93
        0
 40
0.045
309
GRIDFORMAT_END
 95
        4
302
GRIDFORMAT
  1
GRIDFORMAT_BEGIN
 90
        0
 91
        1
 62
     0
 92
       -2
340
28A
 93
        0
 40
0.045
309
GRIDFORMAT_END
 95
        8
302
GRIDFORMAT
  1
GRIDFORMAT_BEGIN
 90
        0
 91
        1
 62
     0
 92
       -2
340
28A
 93
        0
 40
0.045
309
GRIDFORMAT_END
 95
       16
302
GRIDFORMAT
  1
GRIDFORMAT_BEGIN
 90
        0
 91
        1
 62
     0
 92
       -2
340
28A
 93
        0
 40
0.045
309
GRIDFORMAT_END
 95
       32
302
GRIDFORMAT
  1
GRIDFORMAT_BEGIN
 90
        0
 91
        1
 62
     0
 92
       -2
340
28A
 93
        0
 40
0.045
309
GRIDFORMAT_END
309
TABLEFORMAT_END
  1
CELLSTYLE_BEGIN
 90
        1
 91
        1
300
_TITLE
309
CELLSTYLE_END
300
CELLSTYLE
  1
TABLEFORMAT_BEGIN
 90
        5
170
     1
 91
        0
 92
        0
 62
   257
 93
        1
300
CONTENTFORMAT
  1
CONTENTFORMAT_BEGIN
 90
        0
 91
        0
 92
        4
 93
        0
300

 40
0.0
140
1.0
 94
        5
 62
     0
340
288
144
0.18
309
CONTENTFORMAT_END
171
     1
301
MARGIN
  1
CELLMARGIN_BEGIN
 40
0.06
 40
0.06
 40
0.06
 40
0.06
 40
0.06
 40
0.06
309
CELLMARGIN_END
 94
        6
 95
        1
302
GRIDFORMAT
  1
GRIDFORMAT_BEGIN
 90
        0
 91
        1
 62
     0
 92
       -2
340
28A
 93
        0
 40
0.045
309
GRIDFORMAT_END
 95
        2
302
GRIDFORMAT
  1
GRIDFORMAT_BEGIN
 90
        0
 91
        1
 62
     0
 92
       -2
340
28A
 93
        0
 40
0.045
309
GRIDFORMAT_END
 95
        4
302
GRIDFORMAT
  1
GRIDFORMAT_BEGIN
 90
        0
 91
        1
 62
     0
 92
       -2
340
28A
 93
        0
 40
0.045
309
GRIDFORMAT_END
 95
        8
302
GRIDFORMAT
  1
GRIDFORMAT_BEGIN
 90
        0
 91
        1
 62
     0
 92
       -2
340
28A
 93
        0
 40
0.045
309
GRIDFORMAT_END
 95
       16
302
GRIDFORMAT
  1
GRIDFORMAT_BEGIN
 90
        0
 91
        1
 62
     0
 92
       -2
340
28A
 93
        0
 40
0.045
309
GRIDFORMAT_END
 95
       32
302
GRIDFORMAT
  1
GRIDFORMAT_BEGIN
 90
        0
 91
        1
 62
     0
 92
       -2
340
28A
 93
        0
 40
0.045
309
GRIDFORMAT_END
309
TABLEFORMAT_END
  1
CELLSTYLE_BEGIN
 90
        2
 91
        1
300
_HEADER
309
CELLSTYLE_END
300
CELLSTYLE
  1
TABLEFORMAT_BEGIN
 90
        5
170
     1
 91
        0
 92
        0
 62
   257
 93
        1
300
CONTENTFORMAT
  1
CONTENTFORMAT_BEGIN
 90
        0
 91
        0
 92
        4
 93
        0
300

 40
0.0
140
1.0
 94
        2
 62
     0
340
288
144
0.18
309
CONTENTFORMAT_END
171
     1
301
MARGIN
  1
CELLMARGIN_BEGIN
 40
0.06
 40
0.06
 40
0.06
 40
0.06
 40
0.06
 40
0.06
309
CELLMARGIN_END
 94
        6
 95
        1
302
GRIDFORMAT
  1
GRIDFORMAT_BEGIN
 90
        0
 91
        1
 62
     0
 92
       -2
340
28A
 93
        0
 40
0.045
309
GRIDFORMAT_END
 95
        2
302
GRIDFORMAT
  1
GRIDFORMAT_BEGIN
 90
        0
 91
        1
 62
     0
 92
       -2
340
28A
 93
        0
 40
0.045
309
GRIDFORMAT_END
 95
        4
302
GRIDFORMAT
  1
GRIDFORMAT_BEGIN
 90
        0
 91
        1
 62
     0
 92
       -2
340
28A
 93
        0
 40
0.045
309
GRIDFORMAT_END
 95
        8
302
GRIDFORMAT
  1
GRIDFORMAT_BEGIN
 90
        0
 91
        1
 62
     0
 92
       -2
340
28A
 93
        0
 40
0.045
309
GRIDFORMAT_END
 95
       16
302
GRIDFORMAT
  1
GRIDFORMAT_BEGIN
 90
        0
 91
        1
 62
     0
 92
       -2
340
28A
 93
        0
 40
0.045
309
GRIDFORMAT_END
 95
       32
302
GRIDFORMAT
  1
GRIDFORMAT_BEGIN
 90
        0
 91
        1
 62
     0
 92
       -2
340
28A
 93
        0
 40
0.045
309
GRIDFORMAT_END
309
TABLEFORMAT_END
  1
CELLSTYLE_BEGIN
 90
        3
 91
        2
300
_DATA
309
CELLSTYLE_END
  0
ENDSEC
  0
EOF
