  0
SECTION
  2
HEADER
  9
$ACADVER
  1
AC1027
  9
$ACADMAINTVER
 70
     8
  9
$DWGCODEPAGE
  3
ANSI_1252
  9
$REQUIREDVERSIONS
160
                 0
  9
$INSBASE
 10
0.0
 20
0.0
 30
0.0
  9
$EXTMIN
 10
1.000000000000000E+20
 20
1.000000000000000E+20
 30
1.000000000000000E+20
  9
$EXTMAX
 10
-1.000000000000000E+20
 20
-1.000000000000000E+20
 30
-1.000000000000000E+20
  9
$LIMMIN
 10
0.0
 20
0.0
  9
$LIMMAX
 10
12.0
 20
9.0
  9
$ORTHOMODE
 70
     0
  9
$REGENMODE
 70
     1
  9
$FILLMODE
 70
     1
  9
$QTEXTMODE
 70
     0
  9
$MIRRTEXT
 70
     1
  9
$LTSCALE
 40
1.0
  9
$ATTMODE
 70
     1
  9
$TEXTSIZE
 40
0.2
  9
$TRACEWID
 40
0.05
  9
$TEXTSTYLE
  7
Standard
  9
$CLAYER
  8
0
  9
$CELTYPE
  6
ByLayer
  9
$CECOLOR
 62
   178
  9
$CELTSCALE
 40
1.0
  9
$DISPSILH
 70
     0
  9
$DIMSCALE
 40
1.0
  9
$DIMASZ
 40
20.0
  9
$DIMEXO
 40
5.0
  9
$DIMDLI
 40
0.38
  9
$DIMRND
 40
0.0
  9
$DIMDLE
 40
0.0
  9
$DIMEXE
 40
10.0
  9
$DIMTP
 40
0.0
  9
$DIMTM
 40
0.0
  9
$DIMTXT
 40
20.0
  9
$DIMCEN
 40
0.09
  9
$DIMTSZ
 40
20.0
  9
$DIMTOL
 70
     0
  9
$DIMLIM
 70
     0
  9
$DIMTIH
 70
     1
  9
$DIMTOH
 70
     1
  9
$DIMSE1
 70
     0
  9
$DIMSE2
 70
     0
  9
$DIMTAD
 70
     0
  9
$DIMZIN
 70
     8
  9
$DIMBLK
  1

  9
$DIMASO
 70
     1
  9
$DIMSHO
 70
     1
  9
$DIMPOST
  1

  9
$DIMAPOST
  1

  9
$DIMALT
 70
     0
  9
$DIMALTD
 70
     2
  9
$DIMALTF
 40
25.4
  9
$DIMLFAC
 40
1.0
  9
$DIMTOFL
 70
     0
  9
$DIMTVP
 40
0.0
  9
$DIMTIX
 70
     0
  9
$DIMSOXD
 70
     0
  9
$DIMSAH
 70
     0
  9
$DIMBLK1
  1

  9
$DIMBLK2
  1

  9
$DIMSTYLE
  2
Standard
  9
$DIMCLRD
 70
   178
  9
$DIMCLRE
 70
   178
  9
$DIMCLRT
 70
   178
  9
$DIMTFAC
 40
1.0
  9
$DIMGAP
 40
5.0
  9
$DIMJUST
 70
     0
  9
$DIMSD1
 70
     0
  9
$DIMSD2
 70
     0
  9
$DIMTOLJ
 70
     1
  9
$DIMTZIN
 70
     0
  9
$DIMALTZ
 70
     0
  9
$DIMALTTZ
 70
     0
  9
$DIMUPT
 70
     0
  9
$DIMDEC
 70
     4
  9
$DIMTDEC
 70
     4
  9
$DIMALTU
 70
     2
  9
$DIMALTTD
 70
     2
  9
$DIMTXSTY
  7
Standard
  9
$DIMAUNIT
 70
     0
  9
$DIMADEC
 70
     0
  9
$DIMALTRND
 40
0.0
  9
$DIMAZIN
 70
     2
  9
$DIMDSEP
 70
    46
  9
$DIMATFIT
 70
     3
  9
$DIMFRAC
 70
     0
  9
$DIMLDRBLK
  1

  9
$DIMLUNIT
 70
     2
  9
$DIMLWD
 70
    -2
  9
$DIMLWE
 70
    -2
  9
$DIMTMOVE
 70
     0
  9
$DIMFXL
 40
1.0
  9
$DIMFXLON
 70
     0
  9
$DIMJOGANG
 40
0.7853981633974483
  9
$DIMTFILL
 70
     0
  9
$DIMTFILLCLR
 70
     0
  9
$DIMARCSYM
 70
     0
  9
$DIMLTYPE
  6

  9
$DIMLTEX1
  6

  9
$DIMLTEX2
  6

  9
$DIMTXTDIRECTION
 70
     0
  9
$LUNITS
 70
     2
  9
$LUPREC
 70
     4
  9
$SKETCHINC
 40
0.1
  9
$FILLETRAD
 40
0.5
  9
$AUNITS
 70
     0
  9
$AUPREC
 70
     0
  9
$MENU
  1
.
  9
$ELEVATION
 40
0.0
  9
$PELEVATION
 40
0.0
  9
$THICKNESS
 40
0.0
  9
$LIMCHECK
 70
     0
  9
$CHAMFERA
 40
0.0
  9
$CHAMFERB
 40
0.0
  9
$CHAMFERC
 40
0.0
  9
$CHAMFERD
 40
0.0
  9
$SKPOLY
 70
     0
  9
$TDCREATE
 40
2459458.510150463
  9
$TDUCREATE
 40
2459458.468483796
  9
$TDUPDATE
 40
2459458.510150463
  9
$TDUUPDATE
 40
2459458.468483796
  9
$TDINDWG
 40
0.0000000116
  9
$TDUSRTIMER
 40
0.0000000116
  9
$USRTIMER
 70
     1
  9
$ANGBASE
 50
0.0
  9
$ANGDIR
 70
     0
  9
$PDMODE
 70
     0
  9
$PDSIZE
 40
0.0
  9
$PLINEWID
 40
0.0
  9
$SPLFRAME
 70
     0
  9
$SPLINETYPE
 70
     6
  9
$SPLINESEGS
 70
     8
  9
$HANDSEED
  5
42E
  9
$SURFTAB1
 70
     6
  9
$SURFTAB2
 70
     6
  9
$SURFTYPE
 70
     6
  9
$SURFU
 70
     6
  9
$SURFV
 70
     6
  9
$UCSBASE
  2

  9
$UCSNAME
  2

  9
$UCSORG
 10
0.0
 20
0.0
 30
0.0
  9
$UCSXDIR
 10
1.0
 20
0.0
 30
0.0
  9
$UCSYDIR
 10
0.0
 20
1.0
 30
0.0
  9
$UCSORTHOREF
  2

  9
$UCSORTHOVIEW
 70
     0
  9
$UCSORGTOP
 10
0.0
 20
0.0
 30
0.0
  9
$UCSORGBOTTOM
 10
0.0
 20
0.0
 30
0.0
  9
$UCSORGLEFT
 10
0.0
 20
0.0
 30
0.0
  9
$UCSORGRIGHT
 10
0.0
 20
0.0
 30
0.0
  9
$UCSORGFRONT
 10
0.0
 20
0.0
 30
0.0
  9
$UCSORGBACK
 10
0.0
 20
0.0
 30
0.0
  9
$PUCSBASE
  2

  9
$PUCSNAME
  2

  9
$PUCSORG
 10
0.0
 20
0.0
 30
0.0
  9
$PUCSXDIR
 10
1.0
 20
0.0
 30
0.0
  9
$PUCSYDIR
 10
0.0
 20
1.0
 30
0.0
  9
$PUCSORTHOREF
  2

  9
$PUCSORTHOVIEW
 70
     0
  9
$PUCSORGTOP
 10
0.0
 20
0.0
 30
0.0
  9
$PUCSORGBOTTOM
 10
0.0
 20
0.0
 30
0.0
  9
$PUCSORGLEFT
 10
0.0
 20
0.0
 30
0.0
  9
$PUCSORGRIGHT
 10
0.0
 20
0.0
 30
0.0
  9
$PUCSORGFRONT
 10
0.0
 20
0.0
 30
0.0
  9
$PUCSORGBACK
 10
0.0
 20
0.0
 30
0.0
  9
$USERI1
 70
     0
  9
$USERI2
 70
     0
  9
$USERI3
 70
     0
  9
$USERI4
 70
     0
  9
$USERI5
 70
     0
  9
$USERR1
 40
0.0
  9
$USERR2
 40
0.0
  9
$USERR3
 40
0.0
  9
$USERR4
 40
0.0
  9
$USERR5
 40
0.0
  9
$WORLDVIEW
 70
     1
  9
$SHADEDGE
 70
     3
  9
$SHADEDIF
 70
    70
  9
$TILEMODE
 70
     1
  9
$MAXACTVP
 70
     2
  9
$PINSBASE
 10
0.0
 20
0.0
 30
0.0
  9
$PLIMCHECK
 70
     0
  9
$PEXTMIN
 10
1.000000000000000E+20
 20
1.000000000000000E+20
 30
1.000000000000000E+20
  9
$PEXTMAX
 10
-1.000000000000000E+20
 20
-1.000000000000000E+20
 30
-1.000000000000000E+20
  9
$PLIMMIN
 10
0.0
 20
0.0
  9
$PLIMMAX
 10
12.0
 20
9.0
  9
$UNITMODE
 70
     0
  9
$VISRETAIN
 70
     1
  9
$PLINEGEN
 70
     0
  9
$PSLTSCALE
 70
     1
  9
$TREEDEPTH
 70
  3020
  9
$CMLSTYLE
  2
Standard
  9
$CMLJUST
 70
     0
  9
$CMLSCALE
 40
1.0
  9
$PROXYGRAPHICS
 70
     1
  9
$MEASUREMENT
 70
     1
  9
$CELWEIGHT
370
    -1
  9
$ENDCAPS
280
     0
  9
$JOINSTYLE
280
     0
  9
$LWDISPLAY
290
     0
  9
$INSUNITS
 70
     4
  9
$HYPERLINKBASE
  1

  9
$STYLESHEET
  1

  9
$XEDIT
290
     1
  9
$CEPSNTYPE
380
     0
  9
$PSTYLEMODE
290
     1
  9
$FINGERPRINTGUID
  2
{F0979726-E3F7-D435-604A-7C0582335DC0}
  9
$VERSIONGUID
  2
{FAEB1C32-E019-11D5-929B-00C0DF256EC4}
  9
$EXTNAMES
290
     1
  9
$PSVPSCALE
 40
0.0
  9
$OLESTARTUP
290
     0
  9
$SORTENTS
280
   127
  9
$INDEXCTL
280
     0
  9
$HIDETEXT
280
     1
  9
$XCLIPFRAME
280
     2
  9
$HALOGAP
280
     0
  9
$OBSCOLOR
 70
   257
  9
$OBSLTYPE
280
     0
  9
$INTERSECTIONDISPLAY
280
     0
  9
$INTERSECTIONCOLOR
 70
   257
  9
$DIMASSOC
280
     2
  9
$PROJECTNAME
  1

  9
$CAMERADISPLAY
290
     0
  9
$LENSLENGTH
 40
50.0
  9
$CAMERAHEIGHT
 40
0.0
  9
$STEPSPERSEC
 40
2.0
  9
$STEPSIZE
 40
6.0
  9
$3DDWFPREC
 40
2.0
  9
$PSOLWIDTH
 40
0.25
  9
$PSOLHEIGHT
 40
4.0
  9
$LOFTANG1
 40
1.570796326794897
  9
$LOFTANG2
 40
1.570796326794897
  9
$LOFTMAG1
 40
0.0
  9
$LOFTMAG2
 40
0.0
  9
$LOFTPARAM
 70
     7
  9
$LOFTNORMALS
280
     1
  9
$LATITUDE
 40
37.795
  9
$LONGITUDE
 40
-122.394
  9
$NORTHDIRECTION
 40
0.0
  9
$TIMEZONE
 70
 -8000
  9
$LIGHTGLYPHDISPLAY
280
     1
  9
$TILEMODELIGHTSYNCH
280
     1
  9
$CMATERIAL
347
2B9
  9
$SOLIDHIST
280
     0
  9
$SHOWHIST
280
     1
  9
$DWFFRAME
280
     2
  9
$DGNFRAME
280
     2
  9
$REALWORLDSCALE
290
     1
  9
$INTERFERECOLOR
 62
   256
  9
$CSHADOW
280
     0
  9
$SHADOWPLANELOCATION
 40
0.0
  0
ENDSEC
  0
SECTION
  2
CLASSES
  0
CLASS
  1
ACDBDICTIONARYWDFLT
  2
AcDbDictionaryWithDefault
  3
ObjectDBX Classes
 90
        0
 91
        4
280
     0
281
     0
  0
CLASS
  1
VISUALSTYLE
  2
AcDbVisualStyle
  3
ObjectDBX Classes
 90
     4095
 91
        4
280
     0
281
     0
  0
CLASS
  1
MATERIAL
  2
AcDbMaterial
  3
ObjectDBX Classes
 90
     1153
 91
        4
280
     0
281
     0
  0
CLASS
  1
SCALE
  2
AcDbScale
  3
ObjectDBX Classes
 90
     1153
 91
        4
280
     0
281
     0
  0
CLASS
  1
TABLESTYLE
  2
AcDbTableStyle
  3
ObjectDBX Classes
 90
     4095
 91
        4
280
     0
281
     0
  0
CLASS
  1
MLEADERSTYLE
  2
AcDbMLeaderStyle
  3
ACDB_MLEADERSTYLE_CLASS
 90
     4095
 91
        4
280
     0
281
     0
  0
CLASS
  1
SUN
  2
AcDbSun
  3
SCENEOE
 90
     1153
 91
        4
280
     0
281
     0
  0
CLASS
  1
DICTIONARYVAR
  2
AcDbDictionaryVar
  3
ObjectDBX Classes
 90
        0
 91
        4
280
     0
281
     0
  0
CLASS
  1
CELLSTYLEMAP
  2
AcDbCellStyleMap
  3
ObjectDBX Classes
 90
     1152
 91
        4
280
     0
281
     0
  0
ENDSEC
  0
SECTION
  2
TABLES
  0
TABLE
  2
VPORT
  5
27E
330
0
100
AcDbSymbolTable
 70
     1
  0
VPORT
  5
29E
330
27E
100
AcDbSymbolTableRecord
100
AcDbViewportTableRecord
  2
*Active
 70
     0
 10
0.0
 20
0.0
 11
1.0
 21
1.0
 12
10.42990654205607
 22
4.5
 13
0.0
 23
0.0
 14
0.5
 24
0.5
 15
0.5
 25
0.5
 16
0.0
 26
0.0
 36
1.0
 17
0.0
 27
0.0
 37
0.0
 40
9.0
 41
1.972972972850329
 42
50.0
 43
0.0
 44
0.0
 50
0.0
 51
0.0
 71
     0
 72
   100
 73
     1
 74
     3
 75
     0
 76
     0
 77
     0
 78
     0
281
     0
 65
     1
110
0.0
120
0.0
130
0.0
111
1.0
121
0.0
131
0.0
112
0.0
122
1.0
132
0.0
 79
     0
146
0.0
 60
     3
 61
     5
292
     1
282
     1
141
0.0
142
0.0
 63
   250
361
2E2
  0
ENDTAB
  0
TABLE
  2
LTYPE
  5
27B
330
0
100
AcDbSymbolTable
 70
    48
  0
LTYPE
  5
289
330
27B
100
AcDbSymbolTableRecord
100
AcDbLinetypeTableRecord
  2
ByBlock
 70
     0
  3

 72
    65
 73
     0
 40
0.0
  0
LTYPE
  5
28A
330
27B
100
AcDbSymbolTableRecord
100
AcDbLinetypeTableRecord
  2
ByLayer
 70
     0
  3

 72
    65
 73
     0
 40
0.0
  0
LTYPE
  5
28B
330
27B
100
AcDbSymbolTableRecord
100
AcDbLinetypeTableRecord
  2
Continuous
 70
     0
  3
Solid line
 72
    65
 73
     0
 40
0.0
  0
LTYPE
  5
31A
330
27B
100
AcDbSymbolTableRecord
100
AcDbLinetypeTableRecord
  2
ACAD_ISO02W100
 70
     0
  3
ISO dash __ __ __ __ __ __ __ __ __ __ __ __ __
 72
    65
 73
     2
 40
15.0
 49
12.0
 74
     0
 49
-3.0
 74
     0
  0
LTYPE
  5
31B
330
27B
100
AcDbSymbolTableRecord
100
AcDbLinetypeTableRecord
  2
ACAD_ISO03W100
 70
     0
  3
ISO dash space __    __    __    __    __    __
 72
    65
 73
     2
 40
30.0
 49
12.0
 74
     0
 49
-18.0
 74
     0
  0
LTYPE
  5
31C
330
27B
100
AcDbSymbolTableRecord
100
AcDbLinetypeTableRecord
  2
ACAD_ISO04W100
 70
     0
  3
ISO long-dash dot ____ . ____ . ____ . ____ . _
 72
    65
 73
     4
 40
30.0
 49
24.0
 74
     0
 49
-3.0
 74
     0
 49
0.0
 74
     0
 49
-3.0
 74
     0
  0
LTYPE
  5
31D
330
27B
100
AcDbSymbolTableRecord
100
AcDbLinetypeTableRecord
  2
ACAD_ISO05W100
 70
     0
  3
ISO long-dash double-dot ____ .. ____ .. ____ . 
 72
    65
 73
     6
 40
33.0
 49
24.0
 74
     0
 49
-3.0
 74
     0
 49
0.0
 74
     0
 49
-3.0
 74
     0
 49
0.0
 74
     0
 49
-3.0
 74
     0
  0
LTYPE
  5
31E
330
27B
100
AcDbSymbolTableRecord
100
AcDbLinetypeTableRecord
  2
ACAD_ISO06W100
 70
     0
  3
ISO long-dash triple-dot ____ ... ____ ... ____
 72
    65
 73
     8
 40
36.0
 49
24.0
 74
     0
 49
-3.0
 74
     0
 49
0.0
 74
     0
 49
-3.0
 74
     0
 49
0.0
 74
     0
 49
-3.0
 74
     0
 49
0.0
 74
     0
 49
-3.0
 74
     0
  0
LTYPE
  5
31F
330
27B
100
AcDbSymbolTableRecord
100
AcDbLinetypeTableRecord
  2
ACAD_ISO07W100
 70
     0
  3
ISO dot . . . . . . . . . . . . . . . . . . . . 
 72
    65
 73
     2
 40
3.0
 49
0.0
 74
     0
 49
-3.0
 74
     0
  0
LTYPE
  5
320
330
27B
100
AcDbSymbolTableRecord
100
AcDbLinetypeTableRecord
  2
ACAD_ISO08W100
 70
     0
  3
ISO long-dash short-dash ____ __ ____ __ ____ _
 72
    65
 73
     4
 40
36.0
 49
24.0
 74
     0
 49
-3.0
 74
     0
 49
6.0
 74
     0
 49
-3.0
 74
     0
  0
LTYPE
  5
321
330
27B
100
AcDbSymbolTableRecord
100
AcDbLinetypeTableRecord
  2
ACAD_ISO09W100
 70
     0
  3
ISO long-dash double-short-dash ____ __ __ ____
 72
    65
 73
     6
 40
45.0
 49
24.0
 74
     0
 49
-3.0
 74
     0
 49
6.0
 74
     0
 49
-3.0
 74
     0
 49
6.0
 74
     0
 49
-3.0
 74
     0
  0
LTYPE
  5
322
330
27B
100
AcDbSymbolTableRecord
100
AcDbLinetypeTableRecord
  2
ACAD_ISO10W100
 70
     0
  3
ISO dash dot __ . __ . __ . __ . __ . __ . __ . 
 72
    65
 73
     4
 40
18.0
 49
12.0
 74
     0
 49
-3.0
 74
     0
 49
0.0
 74
     0
 49
-3.0
 74
     0
  0
LTYPE
  5
323
330
27B
100
AcDbSymbolTableRecord
100
AcDbLinetypeTableRecord
  2
ACAD_ISO11W100
 70
     0
  3
ISO double-dash dot __ __ . __ __ . __ __ . __ _
 72
    65
 73
     6
 40
33.0
 49
12.0
 74
     0
 49
-3.0
 74
     0
 49
12.0
 74
     0
 49
-3.0
 74
     0
 49
0.0
 74
     0
 49
-3.0
 74
     0
  0
LTYPE
  5
324
330
27B
100
AcDbSymbolTableRecord
100
AcDbLinetypeTableRecord
  2
ACAD_ISO12W100
 70
     0
  3
ISO dash double-dot __ . . __ . . __ . . __ . . 
 72
    65
 73
     6
 40
21.0
 49
12.0
 74
     0
 49
-3.0
 74
     0
 49
0.0
 74
     0
 49
-3.0
 74
     0
 49
0.0
 74
     0
 49
-3.0
 74
     0
  0
LTYPE
  5
325
330
27B
100
AcDbSymbolTableRecord
100
AcDbLinetypeTableRecord
  2
ACAD_ISO13W100
 70
     0
  3
ISO double-dash double-dot __ __ . . __ __ . . _
 72
    65
 73
     8
 40
36.0
 49
12.0
 74
     0
 49
-3.0
 74
     0
 49
12.0
 74
     0
 49
-3.0
 74
     0
 49
0.0
 74
     0
 49
-3.0
 74
     0
 49
0.0
 74
     0
 49
-3.0
 74
     0
  0
LTYPE
  5
326
330
27B
100
AcDbSymbolTableRecord
100
AcDbLinetypeTableRecord
  2
ACAD_ISO14W100
 70
     0
  3
ISO dash triple-dot __ . . . __ . . . __ . . . _
 72
    65
 73
     8
 40
24.0
 49
12.0
 74
     0
 49
-3.0
 74
     0
 49
0.0
 74
     0
 49
-3.0
 74
     0
 49
0.0
 74
     0
 49
-3.0
 74
     0
 49
0.0
 74
     0
 49
-3.0
 74
     0
  0
LTYPE
  5
327
330
27B
100
AcDbSymbolTableRecord
100
AcDbLinetypeTableRecord
  2
ACAD_ISO15W100
 70
     0
  3
ISO double-dash triple-dot __ __ . . . __ __ . .
 72
    65
 73
    10
 40
39.0
 49
12.0
 74
     0
 49
-3.0
 74
     0
 49
12.0
 74
     0
 49
-3.0
 74
     0
 49
0.0
 74
     0
 49
-3.0
 74
     0
 49
0.0
 74
     0
 49
-3.0
 74
     0
 49
0.0
 74
     0
 49
-3.0
 74
     0
  0
LTYPE
  5
32A
330
27B
100
AcDbSymbolTableRecord
100
AcDbLinetypeTableRecord
  2
BATTING
 70
     0
  3
Batting SSSSSSSSSSSSSSSSSSSSSSSSSSSSSSSSSSSSSSSSSSSSSSS
 72
    65
 73
     4
 40
10.16254
 49
0.00254
 74
     0
 49
-2.54
 74
     2
 75
     0
340
328
 46
2.54
 50
0.0
 44
-2.54
 45
0.0
  9
BAT
 49
-5.08
 74
     2
 75
     0
340
329
 46
2.54
 50
180.0
 44
2.54
 45
0.0
  9
BAT
 49
-2.54
 74
     0
  0
LTYPE
  5
32B
330
27B
100
AcDbSymbolTableRecord
100
AcDbLinetypeTableRecord
  2
BORDER
 70
     0
  3
Border __ __ . __ __ . __ __ . __ __ . __ __ .
 72
    65
 73
     6
 40
44.45
 49
12.7
 74
     0
 49
-6.35
 74
     0
 49
12.7
 74
     0
 49
-6.35
 74
     0
 49
0.0
 74
     0
 49
-6.35
 74
     0
  0
LTYPE
  5
32C
330
27B
100
AcDbSymbolTableRecord
100
AcDbLinetypeTableRecord
  2
BORDER2
 70
     0
  3
Border (.5x) __.__.__.__.__.__.__.__.__.__.__.
 72
    65
 73
     6
 40
22.225
 49
6.35
 74
     0
 49
-3.175
 74
     0
 49
6.35
 74
     0
 49
-3.175
 74
     0
 49
0.0
 74
     0
 49
-3.175
 74
     0
  0
LTYPE
  5
32D
330
27B
100
AcDbSymbolTableRecord
100
AcDbLinetypeTableRecord
  2
BORDERX2
 70
     0
  3
Border (2x) ____  ____  .  ____  ____  .  ___
 72
    65
 73
     6
 40
88.89999999999999
 49
25.4
 74
     0
 49
-12.7
 74
     0
 49
25.4
 74
     0
 49
-12.7
 74
     0
 49
0.0
 74
     0
 49
-12.7
 74
     0
  0
LTYPE
  5
32E
330
27B
100
AcDbSymbolTableRecord
100
AcDbLinetypeTableRecord
  2
CENTER
 70
     0
  3
Center ____ _ ____ _ ____ _ ____ _ ____ _ ____
 72
    65
 73
     4
 40
50.8
 49
31.75
 74
     0
 49
-6.35
 74
     0
 49
6.35
 74
     0
 49
-6.35
 74
     0
  0
LTYPE
  5
32F
330
27B
100
AcDbSymbolTableRecord
100
AcDbLinetypeTableRecord
  2
CENTER2
 70
     0
  3
Center (.5x) ___ _ ___ _ ___ _ ___ _ ___ _ ___
 72
    65
 73
     4
 40
28.575
 49
19.05
 74
     0
 49
-3.175
 74
     0
 49
3.175
 74
     0
 49
-3.175
 74
     0
  0
LTYPE
  5
330
330
27B
100
AcDbSymbolTableRecord
100
AcDbLinetypeTableRecord
  2
CENTERX2
 70
     0
  3
Center (2x) ________  __  ________  __  _____
 72
    65
 73
     4
 40
101.6
 49
63.5
 74
     0
 49
-12.7
 74
     0
 49
12.7
 74
     0
 49
-12.7
 74
     0
  0
LTYPE
  5
331
330
27B
100
AcDbSymbolTableRecord
100
AcDbLinetypeTableRecord
  2
DASHDOT
 70
     0
  3
Dash dot __ . __ . __ . __ . __ . __ . __ . __
 72
    65
 73
     4
 40
25.4
 49
12.7
 74
     0
 49
-6.35
 74
     0
 49
0.0
 74
     0
 49
-6.35
 74
     0
  0
LTYPE
  5
332
330
27B
100
AcDbSymbolTableRecord
100
AcDbLinetypeTableRecord
  2
DASHDOT2
 70
     0
  3
Dash dot (.5x) _._._._._._._._._._._._._._._.
 72
    65
 73
     4
 40
12.7
 49
6.35
 74
     0
 49
-3.175
 74
     0
 49
0.0
 74
     0
 49
-3.175
 74
     0
  0
LTYPE
  5
333
330
27B
100
AcDbSymbolTableRecord
100
AcDbLinetypeTableRecord
  2
DASHDOTX2
 70
     0
  3
Dash dot (2x) ____  .  ____  .  ____  .  ___
 72
    65
 73
     4
 40
50.8
 49
25.4
 74
     0
 49
-12.7
 74
     0
 49
0.0
 74
     0
 49
-12.7
 74
     0
  0
LTYPE
  5
334
330
27B
100
AcDbSymbolTableRecord
100
AcDbLinetypeTableRecord
  2
DASHED
 70
     0
  3
Dashed __ __ __ __ __ __ __ __ __ __ __ __ __ _
 72
    65
 73
     2
 40
19.05
 49
12.7
 74
     0
 49
-6.35
 74
     0
  0
LTYPE
  5
335
330
27B
100
AcDbSymbolTableRecord
100
AcDbLinetypeTableRecord
  2
DASHED2
 70
     0
  3
Dashed (.5x) _ _ _ _ _ _ _ _ _ _ _ _ _ _ _ _ _ 
 72
    65
 73
     2
 40
9.524999999999999
 49
6.35
 74
     0
 49
-3.175
 74
     0
  0
LTYPE
  5
336
330
27B
100
AcDbSymbolTableRecord
100
AcDbLinetypeTableRecord
  2
DASHEDX2
 70
     0
  3
Dashed (2x) ____  ____  ____  ____  ____  ___
 72
    65
 73
     2
 40
38.09999999999999
 49
25.4
 74
     0
 49
-12.7
 74
     0
  0
LTYPE
  5
337
330
27B
100
AcDbSymbolTableRecord
100
AcDbLinetypeTableRecord
  2
DIVIDE
 70
     0
  3
Divide ____ . . ____ . . ____ . . ____ . . ____
 72
    65
 73
     6
 40
31.75
 49
12.7
 74
     0
 49
-6.35
 74
     0
 49
0.0
 74
     0
 49
-6.35
 74
     0
 49
0.0
 74
     0
 49
-6.35
 74
     0
  0
LTYPE
  5
338
330
27B
100
AcDbSymbolTableRecord
100
AcDbLinetypeTableRecord
  2
DIVIDE2
 70
     0
  3
Divide (.5x) __..__..__..__..__..__..__..__.._
 72
    65
 73
     6
 40
15.875
 49
6.35
 74
     0
 49
-3.175
 74
     0
 49
0.0
 74
     0
 49
-3.175
 74
     0
 49
0.0
 74
     0
 49
-3.175
 74
     0
  0
LTYPE
  5
339
330
27B
100
AcDbSymbolTableRecord
100
AcDbLinetypeTableRecord
  2
DIVIDEX2
 70
     0
  3
Divide (2x) ________  .  .  ________  .  .  _
 72
    65
 73
     6
 40
63.5
 49
25.4
 74
     0
 49
-12.7
 74
     0
 49
0.0
 74
     0
 49
-12.7
 74
     0
 49
0.0
 74
     0
 49
-12.7
 74
     0
  0
LTYPE
  5
33A
330
27B
100
AcDbSymbolTableRecord
100
AcDbLinetypeTableRecord
  2
DOT
 70
     0
  3
Dot . . . . . . . . . . . . . . . . . . . . . . . .
 72
    65
 73
     2
 40
6.35
 49
0.0
 74
     0
 49
-6.35
 74
     0
  0
LTYPE
  5
33B
330
27B
100
AcDbSymbolTableRecord
100
AcDbLinetypeTableRecord
  2
DOT2
 70
     0
  3
Dot (.5x) ........................................
 72
    65
 73
     2
 40
3.175
 49
0.0
 74
     0
 49
-3.175
 74
     0
  0
LTYPE
  5
33C
330
27B
100
AcDbSymbolTableRecord
100
AcDbLinetypeTableRecord
  2
DOTX2
 70
     0
  3
Dot (2x) .  .  .  .  .  .  .  .  .  .  .  .  .  .
 72
    65
 73
     2
 40
12.7
 49
0.0
 74
     0
 49
-12.7
 74
     0
  0
LTYPE
  5
33E
330
27B
100
AcDbSymbolTableRecord
100
AcDbLinetypeTableRecord
  2
DRAINAGE
 70
     0
  3
Drainage ---->---->---->----
 72
    65
 73
     2
 40
10.16
 49
5.08
 74
     2
 75
     0
340
33D
 46
2.54
 50
180.0
 44
0.0
 45
0.0
  9
RIGHT_ARROW
 49
5.08
 74
     0
  0
LTYPE
  5
340
330
27B
100
AcDbSymbolTableRecord
100
AcDbLinetypeTableRecord
  2
DRAINAGE2
 70
     0
  3
Drainage reversed----<----<----<----
 72
    65
 73
     2
 40
10.16
 49
5.08
 74
     2
 75
     0
340
33F
 46
2.54
 50
0.0
 44
0.0
 45
0.0
  9
RIGHT_ARROW
 49
5.08
 74
     0
  0
LTYPE
  5
342
330
27B
100
AcDbSymbolTableRecord
100
AcDbLinetypeTableRecord
  2
FENCELINE1
 70
     0
  3
Fenceline circle ----0-----0----0-----0----0-----0--
 72
    65
 73
     4
 40
36.83
 49
6.35
 74
     0
 49
-2.54
 74
     2
 75
     0
340
341
 46
2.54
 50
0.0
 44
-2.54
 45
0.0
  9
CIRC1
 49
-2.54
 74
     0
 49
25.4
 74
     0
  0
LTYPE
  5
344
330
27B
100
AcDbSymbolTableRecord
100
AcDbLinetypeTableRecord
  2
FENCELINE2
 70
     0
  3
Fenceline square ----[]-----[]----[]-----[]----[]---
 72
    65
 73
     4
 40
36.83
 49
6.35
 74
     0
 49
-2.54
 74
     2
 75
     0
340
343
 46
2.54
 50
0.0
 44
-2.54
 45
0.0
  9
BOX
 49
-2.54
 74
     0
 49
25.4
 74
     0
  0
LTYPE
  5
346
330
27B
100
AcDbSymbolTableRecord
100
AcDbLinetypeTableRecord
  2
GAS_LINE
 70
     0
  3
Gas line ----GAS----GAS----GAS----GAS----GAS----GAS--
 72
    65
 73
     3
 40
24.13
 49
12.7
 74
     0
 49
-5.08
 74
     2
 75
     0
340
345
 46
2.54
 50
0.0
 44
-2.54
 45
-1.27
  9
GAS
 49
-6.35
 74
     0
  0
LTYPE
  5
347
330
27B
100
AcDbSymbolTableRecord
100
AcDbLinetypeTableRecord
  2
HIDDEN
 70
     0
  3
Hidden __ __ __ __ __ __ __ __ __ __ __ __ __ __
 72
    65
 73
     2
 40
9.524999999999999
 49
6.35
 74
     0
 49
-3.175
 74
     0
  0
LTYPE
  5
348
330
27B
100
AcDbSymbolTableRecord
100
AcDbLinetypeTableRecord
  2
HIDDEN2
 70
     0
  3
Hidden (.5x) _ _ _ _ _ _ _ _ _ _ _ _ _ _ _ _ _ 
 72
    65
 73
     2
 40
4.762499999999999
 49
3.175
 74
     0
 49
-1.5875
 74
     0
  0
LTYPE
  5
349
330
27B
100
AcDbSymbolTableRecord
100
AcDbLinetypeTableRecord
  2
HIDDENX2
 70
     0
  3
Hidden (2x) ____ ____ ____ ____ ____ ____ ____ 
 72
    65
 73
     2
 40
19.05
 49
12.7
 74
     0
 49
-6.35
 74
     0
  0
LTYPE
  5
34B
330
27B
100
AcDbSymbolTableRecord
100
AcDbLinetypeTableRecord
  2
HOT_WATER_SUPPLY
 70
     0
  3
Hot water supply ---- HW ---- HW ---- HW ----
 72
    65
 73
     3
 40
22.86
 49
12.7
 74
     0
 49
-5.08
 74
     2
 75
     0
340
34A
 46
2.54
 50
0.0
 44
-2.54
 45
-1.27
  9
HW
 49
-5.08
 74
     0
  0
LTYPE
  5
34C
330
27B
100
AcDbSymbolTableRecord
100
AcDbLinetypeTableRecord
  2
PHANTOM
 70
     0
  3
Phantom ______  __  __  ______  __  __  ______ 
 72
    65
 73
     6
 40
63.50000000000001
 49
31.75
 74
     0
 49
-6.35
 74
     0
 49
6.35
 74
     0
 49
-6.35
 74
     0
 49
6.35
 74
     0
 49
-6.35
 74
     0
  0
LTYPE
  5
34D
330
27B
100
AcDbSymbolTableRecord
100
AcDbLinetypeTableRecord
  2
PHANTOM2
 70
     0
  3
Phantom (.5x) ___ _ _ ___ _ _ ___ _ _ ___ _ _
 72
    65
 73
     6
 40
31.75
 49
15.875
 74
     0
 49
-3.175
 74
     0
 49
3.175
 74
     0
 49
-3.175
 74
     0
 49
3.175
 74
     0
 49
-3.175
 74
     0
  0
LTYPE
  5
34E
330
27B
100
AcDbSymbolTableRecord
100
AcDbLinetypeTableRecord
  2
PHANTOMX2
 70
     0
  3
Phantom (2x) ____________    ____    ____   _
 72
    65
 73
     6
 40
127.0
 49
63.5
 74
     0
 49
-12.7
 74
     0
 49
12.7
 74
     0
 49
-12.7
 74
     0
 49
12.7
 74
     0
 49
-12.7
 74
     0
  0
LTYPE
  5
350
330
27B
100
AcDbSymbolTableRecord
100
AcDbLinetypeTableRecord
  2
TRACKS
 70
     0
  3
Tracks -|-|-|-|-|-|-|-|-|-|-|-|-|-|-|-|-|-|-|-|-|-|-|-|-
 72
    65
 73
     2
 40
7.62
 49
3.81
 74
     2
 75
     0
340
34F
 46
6.35
 50
0.0
 44
0.0
 45
0.0
  9
TRACK1
 49
3.81
 74
     0
  0
LTYPE
  5
353
330
27B
100
AcDbSymbolTableRecord
100
AcDbLinetypeTableRecord
  2
ZIGZAG
 70
     0
  3
Zig zag /\/\/\/\/\/\/\/\/\/\/\/\/\/\/\/\/\/\/\/\/\/\/\/
 72
    65
 73
     4
 40
20.32254
 49
0.00254
 74
     0
 49
-5.08
 74
     2
 75
     0
340
351
 46
5.08
 50
0.0
 44
-5.08
 45
0.0
  9
ZIG
 49
-10.16
 74
     2
 75
     0
340
352
 46
5.08
 50
180.0
 44
5.08
 45
0.0
  9
ZIG
 49
-5.08
 74
     0
  0
ENDTAB
  0
TABLE
  2
LAYER
  5
278
330
0
100
AcDbSymbolTable
 70
     5
  0
LAYER
  5
286
330
278
100
AcDbSymbolTableRecord
100
AcDbLayerTableRecord
  2
0
 70
     0
 62
     7
420
 16777215
  6
Continuous
370
    25
390
285
347
2BB
348
0
  0
LAYER
  5
354
330
278
100
AcDbSymbolTableRecord
100
AcDbLayerTableRecord
  2
0 ... Seuil
 70
     0
 62
   178
420
        0
  6
Continuous
370
    25
390
285
347
2BB
348
0
  0
LAYER
  5
355
330
278
100
AcDbSymbolTableRecord
100
AcDbLayerTableRecord
  2
0 ... Seuil ... Rectangle
 70
     0
 62
     5
420
      255
  6
Continuous
370
    25
390
285
347
2BB
348
0
  0
LAYER
  5
356
330
278
100
AcDbSymbolTableRecord
100
AcDbLayerTableRecord
  2
0 ... Seuil ... Rectangle ... Cotes Angles
 70
     0
 62
     4
420
    65535
  6
Continuous
370
    25
390
285
347
2BB
348
0
  0
LAYER
  5
357
330
278
100
AcDbSymbolTableRecord
100
AcDbLayerTableRecord
  2
Defpoints
 70
     0
 62
     7
420
 16777215
  6
Continuous
290
     0
370
    -3
390
285
347
2BB
348
0
  0
ENDTAB
  0
TABLE
  2
STYLE
  5
279
330
0
100
AcDbSymbolTable
 70
    22
  0
STYLE
  5
287
330
279
100
AcDbSymbolTableRecord
100
AcDbTextStyleTableRecord
  2
Standard
 70
     0
 40
0.0
 41
1.0
 50
0.0
 71
     0
 42
0.2
  3
txt
  4

  0
STYLE
  5
318
330
279
100
AcDbSymbolTableRecord
100
AcDbTextStyleTableRecord
  2
QCADDimTextStyle
 70
     0
 40
0.0
 41
1.0
 50
0.0
 71
     0
 42
0.2
  3

  4

  0
STYLE
  5
328
330
279
100
AcDbSymbolTableRecord
100
AcDbTextStyleTableRecord
  2
textstyle0
 70
     0
 40
0.0
 41
1.0
 50
0.0
 71
     0
 42
0.2
  3
ltypeshp.shx
  4

  0
STYLE
  5
329
330
279
100
AcDbSymbolTableRecord
100
AcDbTextStyleTableRecord
  2
textstyle1
 70
     0
 40
0.0
 41
1.0
 50
0.0
 71
     0
 42
0.2
  3
ltypeshp.shx
  4

  0
STYLE
  5
33D
330
279
100
AcDbSymbolTableRecord
100
AcDbTextStyleTableRecord
  2
textstyle2
 70
     0
 40
0.0
 41
1.0
 50
0.0
 71
     0
 42
0.2
  3
qcadshp.shx
  4

  0
STYLE
  5
33F
330
279
100
AcDbSymbolTableRecord
100
AcDbTextStyleTableRecord
  2
textstyle3
 70
     0
 40
0.0
 41
1.0
 50
0.0
 71
     0
 42
0.2
  3
qcadshp.shx
  4

  0
STYLE
  5
341
330
279
100
AcDbSymbolTableRecord
100
AcDbTextStyleTableRecord
  2
textstyle4
 70
     0
 40
0.0
 41
1.0
 50
0.0
 71
     0
 42
0.2
  3
ltypeshp.shx
  4

  0
STYLE
  5
343
330
279
100
AcDbSymbolTableRecord
100
AcDbTextStyleTableRecord
  2
textstyle5
 70
     0
 40
0.0
 41
1.0
 50
0.0
 71
     0
 42
0.2
  3
ltypeshp.shx
  4

  0
STYLE
  5
345
330
279
100
AcDbSymbolTableRecord
100
AcDbTextStyleTableRecord
  2
textstyle6
 70
     0
 40
0.0
 41
1.0
 50
0.0
 71
     0
 42
0.2
  3
STANDARD
  4

  0
STYLE
  5
34A
330
279
100
AcDbSymbolTableRecord
100
AcDbTextStyleTableRecord
  2
textstyle7
 70
     0
 40
0.0
 41
1.0
 50
0.0
 71
     0
 42
0.2
  3
STANDARD
  4

  0
STYLE
  5
34F
330
279
100
AcDbSymbolTableRecord
100
AcDbTextStyleTableRecord
  2
textstyle8
 70
     0
 40
0.0
 41
1.0
 50
0.0
 71
     0
 42
0.2
  3
ltypeshp.shx
  4

  0
STYLE
  5
351
330
279
100
AcDbSymbolTableRecord
100
AcDbTextStyleTableRecord
  2
textstyle9
 70
     0
 40
0.0
 41
1.0
 50
0.0
 71
     0
 42
0.2
  3
ltypeshp.shx
  4

  0
STYLE
  5
352
330
279
100
AcDbSymbolTableRecord
100
AcDbTextStyleTableRecord
  2
textstyle10
 70
     0
 40
0.0
 41
1.0
 50
0.0
 71
     0
 42
0.2
  3
ltypeshp.shx
  4

  0
STYLE
  5
3CF
330
279
100
AcDbSymbolTableRecord
100
AcDbTextStyleTableRecord
  2
textstyle11
 70
     0
 40
0.0
 41
1.0
 50
0.0
 71
     0
 42
0.2
  3

  4

1001
ACAD
1000
Liberation Sans
1071
        0
  0
STYLE
  5
3D0
330
279
100
AcDbSymbolTableRecord
100
AcDbTextStyleTableRecord
  2
textstyle12
 70
     0
 40
0.0
 41
1.0
 50
0.0
 71
     0
 42
0.2
  3

  4

1001
ACAD
1000
Liberation Sans
1071
        0
  0
STYLE
  5
3E0
330
279
100
AcDbSymbolTableRecord
100
AcDbTextStyleTableRecord
  2
textstyle13
 70
     0
 40
0.0
 41
1.0
 50
0.0
 71
     0
 42
0.2
  3

  4

1001
ACAD
1000
Liberation Sans
1071
        0
  0
STYLE
  5
3E1
330
279
100
AcDbSymbolTableRecord
100
AcDbTextStyleTableRecord
  2
textstyle14
 70
     0
 40
0.0
 41
1.0
 50
0.0
 71
     0
 42
0.2
  3

  4

1001
ACAD
1000
Liberation Sans
1071
        0
  0
STYLE
  5
3E2
330
279
100
AcDbSymbolTableRecord
100
AcDbTextStyleTableRecord
  2
textstyle15
 70
     0
 40
0.0
 41
1.0
 50
0.0
 71
     0
 42
0.2
  3

  4

1001
ACAD
1000
Liberation Sans
1071
        0
  0
STYLE
  5
3E3
330
279
100
AcDbSymbolTableRecord
100
AcDbTextStyleTableRecord
  2
textstyle16
 70
     0
 40
0.0
 41
1.0
 50
0.0
 71
     0
 42
0.2
  3

  4

1001
ACAD
1000
Liberation Sans
1071
        0
  0
STYLE
  5
3E4
330
279
100
AcDbSymbolTableRecord
100
AcDbTextStyleTableRecord
  2
textstyle17
 70
     0
 40
0.0
 41
1.0
 50
0.0
 71
     0
 42
0.2
  3

  4

1001
ACAD
1000
Liberation Sans
1071
        0
  0
STYLE
  5
3E5
330
279
100
AcDbSymbolTableRecord
100
AcDbTextStyleTableRecord
  2
textstyle18
 70
     0
 40
0.0
 41
1.0
 50
0.0
 71
     0
 42
0.2
  3

  4

1001
ACAD
1000
Liberation Sans
1071
        0
  0
STYLE
  5
418
330
279
100
AcDbSymbolTableRecord
100
AcDbTextStyleTableRecord
  2
textstyle19
 70
     0
 40
0.0
 41
1.0
 50
0.0
 71
     0
 42
0.2
  3

  4

1001
ACAD
1000
Liberation Sans
1071
        0
  0
ENDTAB
  0
TABLE
  2
VIEW
  5
27C
330
0
100
AcDbSymbolTable
 70
     0
  0
ENDTAB
  0
TABLE
  2
UCS
  5
27D
330
0
100
AcDbSymbolTable
 70
     0
  0
ENDTAB
  0
TABLE
  2
APPID
  5
27F
330
0
100
AcDbSymbolTable
 70
     2
  0
APPID
  5
288
330
27F
100
AcDbSymbolTableRecord
100
AcDbRegAppTableRecord
  2
ACAD
 70
     0
  0
APPID
  5
2E3
330
27F
100
AcDbSymbolTableRecord
100
AcDbRegAppTableRecord
  2
QCAD
 70
     0
  0
ENDTAB
  0
TABLE
  2
DIMSTYLE
  5
280
330
0
100
AcDbSymbolTable
 70
     2
100
AcDbDimStyleTable
  0
DIMSTYLE
105
29C
330
280
100
AcDbSymbolTableRecord
100
AcDbDimStyleTableRecord
  2
Standard
 70
     0
178
     0
340
287
  0
DIMSTYLE
105
319
102
{ACAD_REACTORS
330
44
330
45
330
46
330
47
330
48
330
50
330
51
330
52
330
53
330
58
330
9B
330
A4
330
B5
330
B6
330
B7
330
B9
102
}
330
280
100
AcDbSymbolTableRecord
100
AcDbDimStyleTableRecord
  2
QCADDimStyle
 70
     0
 41
20.0
 42
5.0
 44
10.0
 73
     0
 77
     1
140
20.0
147
5.0
178
     0
340
318
  0
ENDTAB
  0
TABLE
  2
BLOCK_RECORD
  5
277
330
0
100
AcDbSymbolTable
 70
    17
  0
BLOCK_RECORD
  5
294
330
277
100
AcDbSymbolTableRecord
100
AcDbBlockTableRecord
  2
*Model_Space
340
297
 70
     0
280
     1
281
     0
  0
BLOCK_RECORD
  5
290
330
277
100
AcDbSymbolTableRecord
100
AcDbBlockTableRecord
  2
*Paper_Space
340
293
 70
     0
280
     1
281
     0
  0
BLOCK_RECORD
  5
298
330
277
100
AcDbSymbolTableRecord
100
AcDbBlockTableRecord
  2
*Paper_Space0
340
29B
 70
     0
280
     1
281
     0
  0
BLOCK_RECORD
  5
358
330
277
100
AcDbSymbolTableRecord
100
AcDbBlockTableRecord
  2
*D1
340
0
 70
     0
280
     1
281
     0
  0
BLOCK_RECORD
  5
364
330
277
100
AcDbSymbolTableRecord
100
AcDbBlockTableRecord
  2
*D2
340
0
 70
     0
280
     1
281
     0
  0
BLOCK_RECORD
  5
370
330
277
100
AcDbSymbolTableRecord
100
AcDbBlockTableRecord
  2
*D3
340
0
 70
     0
280
     1
281
     0
  0
BLOCK_RECORD
  5
37C
330
277
100
AcDbSymbolTableRecord
100
AcDbBlockTableRecord
  2
*D4
340
0
 70
     0
280
     1
281
     0
  0
BLOCK_RECORD
  5
387
330
277
100
AcDbSymbolTableRecord
100
AcDbBlockTableRecord
  2
*D5
340
0
 70
     0
280
     1
281
     0
  0
BLOCK_RECORD
  5
393
330
277
100
AcDbSymbolTableRecord
100
AcDbBlockTableRecord
  2
*D6
340
0
 70
     0
280
     1
281
     0
  0
BLOCK_RECORD
  5
39F
330
277
100
AcDbSymbolTableRecord
100
AcDbBlockTableRecord
  2
*D7
340
0
 70
     0
280
     1
281
     0
  0
BLOCK_RECORD
  5
3AB
330
277
100
AcDbSymbolTableRecord
100
AcDbBlockTableRecord
  2
*D8
340
0
 70
     0
280
     1
281
     0
  0
BLOCK_RECORD
  5
3B7
330
277
100
AcDbSymbolTableRecord
100
AcDbBlockTableRecord
  2
*D9
340
0
 70
     0
280
     1
281
     0
  0
BLOCK_RECORD
  5
3C3
330
277
100
AcDbSymbolTableRecord
100
AcDbBlockTableRecord
  2
*D10
340
0
 70
     0
280
     1
281
     0
  0
BLOCK_RECORD
  5
3D1
330
277
100
AcDbSymbolTableRecord
100
AcDbBlockTableRecord
  2
*D11
340
0
 70
     0
280
     1
281
     0
  0
BLOCK_RECORD
  5
3E6
330
277
100
AcDbSymbolTableRecord
100
AcDbBlockTableRecord
  2
*D12
340
0
 70
     0
280
     1
281
     0
  0
BLOCK_RECORD
  5
3F5
330
277
100
AcDbSymbolTableRecord
100
AcDbBlockTableRecord
  2
*D13
340
0
 70
     0
280
     1
281
     0
  0
BLOCK_RECORD
  5
400
330
277
100
AcDbSymbolTableRecord
100
AcDbBlockTableRecord
  2
*D14
340
0
 70
     0
280
     1
281
     0
  0
BLOCK_RECORD
  5
40C
330
277
100
AcDbSymbolTableRecord
100
AcDbBlockTableRecord
  2
*D15
340
0
 70
     0
280
     1
281
     0
  0
BLOCK_RECORD
  5
419
330
277
100
AcDbSymbolTableRecord
100
AcDbBlockTableRecord
  2
*D16
340
0
 70
     0
280
     1
281
     0
  0
ENDTAB
  0
ENDSEC
  0
SECTION
  2
BLOCKS
  0
BLOCK
  5
295
330
294
100
AcDbEntity
  8
0
100
AcDbBlockBegin
  2
*Model_Space
 70
     0
 10
0.0
 20
0.0
 30
0.0
  3
*Model_Space
  1
*Model_Space
  0
ENDBLK
  5
296
330
294
100
AcDbEntity
  8
0
100
AcDbBlockEnd
  0
BLOCK
  5
291
330
290
100
AcDbEntity
 67
     1
  8
0
100
AcDbBlockBegin
  2
*Paper_Space
 70
     0
 10
0.0
 20
0.0
 30
0.0
  3
*Paper_Space
  1
*Paper_Space
  0
ENDBLK
  5
292
330
290
100
AcDbEntity
 67
     1
  8
0
100
AcDbBlockEnd
  0
BLOCK
  5
299
330
298
100
AcDbEntity
  8
0
100
AcDbBlockBegin
  2
*Paper_Space0
 70
     0
 10
0.0
 20
0.0
 30
0.0
  3
*Paper_Space0
  1
*Paper_Space0
  0
ENDBLK
  5
29A
330
298
100
AcDbEntity
  8
0
100
AcDbBlockEnd
  0
BLOCK
  5
359
330
358
100
AcDbEntity
  8
0
100
AcDbBlockBegin
  2
*D1
 70
     1
 10
0.0
 20
0.0
 30
0.0
  3
*D1
  1
*D1
  0
LINE
  5
35B
330
358
100
AcDbEntity
  8
0 ... Seuil ... Rectangle ... Cotes Angles
 62
     0
370
    -2
100
AcDbLine
 10
310.3466870385561
 20
873.1977290271687
 30
0.0
 11
255.8200273305633
 21
868.4272644427833
 31
0.0
  0
LINE
  5
35C
330
358
100
AcDbEntity
  8
0 ... Seuil ... Rectangle ... Cotes Angles
 62
     0
370
    -2
100
AcDbLine
 10
329.0692610331045
 20
659.1977290271691
 30
0.0
 11
274.5426013251117
 21
654.4272644427837
 31
0.0
  0
LINE
  5
35D
330
358
100
AcDbEntity
  8
0 ... Seuil ... Rectangle ... Cotes Angles
 62
     0
370
    -2
100
AcDbLine
 10
265.7819743114807
 20
869.29882187026
 30
0.0
 11
284.5045483060291
 21
655.2988218702603
 31
0.0
  0
LINE
  5
35E
330
358
100
AcDbEntity
  8
0 ... Seuil ... Rectangle ... Cotes Angles
 62
     0
370
    -2
100
AcDbLine
 10
287.4489831282689
 20
851.1180427633783
 30
0.0
 11
244.1149654946926
 21
887.4796009771417
 31
0.0
  0
LINE
  5
35F
330
358
100
AcDbEntity
  8
0 ... Seuil ... Rectangle ... Cotes Angles
 62
     0
370
    -2
100
AcDbLine
 10
262.837539489241
 20
673.479600977142
 30
0.0
 11
306.1715571228173
 21
637.1180427633786
 31
0.0
  0
MTEXT
  5
360
330
358
100
AcDbEntity
  8
0 ... Seuil ... Rectangle ... Cotes Angles
 62
     0
100
AcDbMText
 10
290.0861817801311
 20
763.606158011475
 30
0.0
 40
20.0
 41
0.0
 46
0.0
 71
     5
 72
     1
  1
\A1;214.8174
  7
QCADDimTextStyle
 11
0.08715574274766129
 21
-0.9961946980917452
 31
0.0
 73
     1
 44
1.0
  0
POINT
  5
361
330
358
100
AcDbEntity
  8
Defpoints
 62
     0
100
AcDbPoint
 10
315.3276605290148
 20
873.633507740907
 30
0.0
  0
POINT
  5
362
330
358
100
AcDbEntity
  8
Defpoints
 62
     0
100
AcDbPoint
 10
334.0502345235632
 20
659.6335077409074
 30
0.0
  0
POINT
  5
363
330
358
100
AcDbEntity
  8
Defpoints
 62
     0
100
AcDbPoint
 10
284.5045483060291
 20
655.2988218702603
 30
0.0
  0
ENDBLK
  5
35A
330
358
100
AcDbEntity
  8
0
100
AcDbBlockEnd
  0
BLOCK
  5
365
330
364
100
AcDbEntity
  8
0
100
AcDbBlockBegin
  2
*D2
 70
     1
 10
0.0
 20
0.0
 30
0.0
  3
*D2
  1
*D2
  0
LINE
  5
367
330
364
100
AcDbEntity
  8
0 ... Seuil ... Rectangle ... Cotes Angles
 62
     0
370
    -2
100
AcDbLine
 10
338.4189244815611
 20
897.6335077409095
 30
0.0
 11
221.0533819912748
 21
897.6335077409095
 31
0.0
  0
LINE
  5
368
330
364
100
AcDbEntity
  8
0 ... Seuil ... Rectangle ... Cotes Angles
 62
     0
370
    -2
100
AcDbLine
 10
310.3276605290148
 20
873.633507740907
 30
0.0
 11
221.0533819912748
 21
873.633507740907
 31
0.0
  0
LINE
  5
369
330
364
100
AcDbEntity
  8
0 ... Seuil ... Rectangle ... Cotes Angles
 62
     0
370
    -2
100
AcDbLine
 10
231.0533819912748
 20
897.6335077409095
 30
0.0
 11
231.0533819912748
 21
873.633507740907
 31
0.0
  0
LINE
  5
36A
330
364
100
AcDbEntity
  8
0 ... Seuil ... Rectangle ... Cotes Angles
 62
     0
370
    -2
100
AcDbLine
 10
251.0533819912748
 20
877.6335077409095
 30
0.0
 11
211.0533819912748
 21
917.6335077409095
 31
0.0
  0
LINE
  5
36B
330
364
100
AcDbEntity
  8
0 ... Seuil ... Rectangle ... Cotes Angles
 62
     0
370
    -2
100
AcDbLine
 10
211.0533819912748
 20
893.633507740907
 30
0.0
 11
251.0533819912748
 21
853.633507740907
 31
0.0
  0
MTEXT
  5
36C
330
364
100
AcDbEntity
  8
0 ... Seuil ... Rectangle ... Cotes Angles
 62
     0
100
AcDbMText
 10
203.5533819912748
 20
885.6335077409083
 30
0.0
 40
20.0
 41
0.0
 46
0.0
 71
     5
 72
     1
  1
\A1;24
  7
QCADDimTextStyle
 73
     1
 44
1.0
  0
POINT
  5
36D
330
364
100
AcDbEntity
  8
Defpoints
 62
     0
100
AcDbPoint
 10
343.4189244815611
 20
897.6335077409095
 30
0.0
  0
POINT
  5
36E
330
364
100
AcDbEntity
  8
Defpoints
 62
     0
100
AcDbPoint
 10
315.3276605290148
 20
873.633507740907
 30
0.0
  0
POINT
  5
36F
330
364
100
AcDbEntity
  8
Defpoints
 62
     0
100
AcDbPoint
 10
231.0533819912748
 20
873.633507740907
 30
0.0
  0
ENDBLK
  5
366
330
364
100
AcDbEntity
  8
0
100
AcDbBlockEnd
  0
BLOCK
  5
371
330
370
100
AcDbEntity
  8
0
100
AcDbBlockBegin
  2
*D3
 70
     1
 10
0.0
 20
0.0
 30
0.0
  3
*D3
  1
*D3
  0
LINE
  5
373
330
370
100
AcDbEntity
  8
0 ... Seuil ... Rectangle ... Cotes Angles
 62
     0
370
    -2
100
AcDbLine
 10
310.3276605290148
 20
873.633507740907
 30
0.0
 11
221.0533819912748
 21
873.633507740907
 31
0.0
  0
LINE
  5
374
330
370
100
AcDbEntity
  8
0 ... Seuil ... Rectangle ... Cotes Angles
 62
     0
370
    -2
100
AcDbLine
 10
329.0502345235632
 20
659.6335077409074
 30
0.0
 11
221.0533819912748
 21
659.6335077409074
 31
0.0
  0
LINE
  5
375
330
370
100
AcDbEntity
  8
0 ... Seuil ... Rectangle ... Cotes Angles
 62
     0
370
    -2
100
AcDbLine
 10
231.0533819912748
 20
873.633507740907
 30
0.0
 11
231.0533819912748
 21
659.6335077409074
 31
0.0
  0
LINE
  5
376
330
370
100
AcDbEntity
  8
0 ... Seuil ... Rectangle ... Cotes Angles
 62
     0
370
    -2
100
AcDbLine
 10
251.0533819912748
 20
853.633507740907
 30
0.0
 11
211.0533819912748
 21
893.633507740907
 31
0.0
  0
LINE
  5
377
330
370
100
AcDbEntity
  8
0 ... Seuil ... Rectangle ... Cotes Angles
 62
     0
370
    -2
100
AcDbLine
 10
211.0533819912748
 20
679.6335077409074
 30
0.0
 11
251.0533819912748
 21
639.6335077409074
 31
0.0
  0
MTEXT
  5
378
330
370
100
AcDbEntity
  8
0 ... Seuil ... Rectangle ... Cotes Angles
 62
     0
100
AcDbMText
 10
216.0533819912748
 20
766.6335077409071
 30
0.0
 40
20.0
 41
0.0
 46
0.0
 71
     5
 72
     1
  1
\A1;214
  7
QCADDimTextStyle
 11
0.0
 21
1.0
 31
0.0
 73
     1
 44
1.0
  0
POINT
  5
379
330
370
100
AcDbEntity
  8
Defpoints
 62
     0
100
AcDbPoint
 10
315.3276605290148
 20
873.633507740907
 30
0.0
  0
POINT
  5
37A
330
370
100
AcDbEntity
  8
Defpoints
 62
     0
100
AcDbPoint
 10
334.0502345235632
 20
659.6335077409074
 30
0.0
  0
POINT
  5
37B
330
370
100
AcDbEntity
  8
Defpoints
 62
     0
100
AcDbPoint
 10
231.0533819912748
 20
659.6335077409074
 30
0.0
  0
ENDBLK
  5
372
330
370
100
AcDbEntity
  8
0
100
AcDbBlockEnd
  0
BLOCK
  5
37D
330
37C
100
AcDbEntity
  8
0
100
AcDbBlockBegin
  2
*D4
 70
     1
 10
0.0
 20
0.0
 30
0.0
  3
*D4
  1
*D4
  0
LINE
  5
37F
330
37C
100
AcDbEntity
  8
0 ... Seuil ... Rectangle ... Cotes Angles
 62
     0
370
    -2
100
AcDbLine
 10
368.4189244815602
 20
897.6335077409095
 30
0.0
 11
409.2105523193218
 21
897.6335077409095
 31
0.0
  0
LINE
  5
380
330
37C
100
AcDbEntity
  8
0 ... Seuil ... Rectangle ... Cotes Angles
 62
     0
370
    -2
100
AcDbLine
 10
368.5501574768491
 20
896.1335077409099
 30
0.0
 11
409.2105523193218
 21
896.1335077409099
 31
0.0
  0
LINE
  5
381
330
37C
100
AcDbEntity
  8
0 ... Seuil ... Rectangle ... Cotes Angles
 62
     0
370
    -2
100
AcDbLine
 10
379.2105523193218
 20
917.6335077409095
 30
0.0
 11
419.2105523193218
 21
877.6335077409095
 31
0.0
  0
LINE
  5
382
330
37C
100
AcDbEntity
  8
0 ... Seuil ... Rectangle ... Cotes Angles
 62
     0
370
    -2
100
AcDbLine
 10
419.2105523193218
 20
876.1335077409099
 30
0.0
 11
379.2105523193218
 21
916.1335077409099
 31
0.0
  0
MTEXT
  5
383
330
37C
100
AcDbEntity
  8
0 ... Seuil ... Rectangle ... Cotes Angles
 62
     0
100
AcDbMText
 10
426.7105523193218
 20
896.8835077409096
 30
0.0
 40
20.0
 41
0.0
 46
0.0
 71
     5
 72
     1
  1
\A1;1.5
  7
QCADDimTextStyle
 73
     1
 44
1.0
  0
POINT
  5
384
330
37C
100
AcDbEntity
  8
Defpoints
 62
     0
100
AcDbPoint
 10
363.4189244815602
 20
897.6335077409095
 30
0.0
  0
POINT
  5
385
330
37C
100
AcDbEntity
  8
Defpoints
 62
     0
100
AcDbPoint
 10
363.5501574768491
 20
896.1335077409099
 30
0.0
  0
POINT
  5
386
330
37C
100
AcDbEntity
  8
Defpoints
 62
     0
100
AcDbPoint
 10
399.2105523193218
 20
896.1335077409099
 30
0.0
  0
ENDBLK
  5
37E
330
37C
100
AcDbEntity
  8
0
100
AcDbBlockEnd
  0
BLOCK
  5
388
330
387
100
AcDbEntity
  8
0
100
AcDbBlockBegin
  2
*D5
 70
     1
 10
0.0
 20
0.0
 30
0.0
  3
*D5
  1
*D5
  0
LINE
  5
38A
330
387
100
AcDbEntity
  8
0 ... Seuil ... Rectangle ... Cotes Angles
 62
     0
370
    -2
100
AcDbLine
 10
322.0199458235717
 20
797.1403367991131
 30
0.0
 11
322.5023912017974
 21
791.625960892799
 31
0.0
  0
LINE
  5
38B
330
387
100
AcDbEntity
  8
0 ... Seuil ... Rectangle ... Cotes Angles
 62
     0
370
    -2
100
AcDbLine
 10
371.8296807281587
 20
801.4981239365192
 30
0.0
 11
372.3121261063844
 21
795.983748030205
 31
0.0
  0
LINE
  5
38C
330
387
100
AcDbEntity
  8
0 ... Seuil ... Rectangle ... Cotes Angles
 62
     0
370
    -2
100
AcDbLine
 10
321.630833774316
 20
801.587907873716
 30
0.0
 11
371.440568678903
 21
805.945695011122
 31
0.0
  0
LINE
  5
38D
330
387
100
AcDbEntity
  8
0 ... Seuil ... Rectangle ... Cotes Angles
 62
     0
370
    -2
100
AcDbLine
 10
339.8116128811877
 20
823.2549166905125
 30
0.0
 11
303.4500546674442
 21
779.9208990569194
 31
0.0
  0
LINE
  5
38E
330
387
100
AcDbEntity
  8
0 ... Seuil ... Rectangle ... Cotes Angles
 62
     0
370
    -2
100
AcDbLine
 10
353.2597895720313
 20
784.2786861943255
 30
0.0
 11
389.6213477857747
 21
827.6127038279185
 31
0.0
  0
MTEXT
  5
38F
330
387
100
AcDbEntity
  8
0 ... Seuil ... Rectangle ... Cotes Angles
 62
     0
100
AcDbMText
 10
345.2283650853992
 20
818.7097219137736
 30
0.0
 40
20.0
 41
0.0
 46
0.0
 71
     5
 72
     1
  1
\A1;50
  7
QCADDimTextStyle
 11
0.9961946980917055
 21
0.08715574274811767
 31
0.0
 73
     1
 44
1.0
  0
POINT
  5
390
330
387
100
AcDbEntity
  8
Defpoints
 62
     0
100
AcDbPoint
 10
321.584167109831
 20
802.1213102895716
 30
0.0
  0
POINT
  5
391
330
387
100
AcDbEntity
  8
Defpoints
 62
     0
100
AcDbPoint
 10
371.393902014418
 20
806.4790974269777
 30
0.0
  0
POINT
  5
392
330
387
100
AcDbEntity
  8
Defpoints
 62
     0
100
AcDbPoint
 10
371.440568678903
 20
805.945695011122
 30
0.0
  0
ENDBLK
  5
389
330
387
100
AcDbEntity
  8
0
100
AcDbBlockEnd
  0
BLOCK
  5
394
330
393
100
AcDbEntity
  8
0
100
AcDbBlockBegin
  2
*D6
 70
     1
 10
0.0
 20
0.0
 30
0.0
  3
*D6
  1
*D6
  0
LINE
  5
396
330
393
100
AcDbEntity
  8
0 ... Seuil ... Rectangle ... Cotes Angles
 62
     0
370
    -2
100
AcDbLine
 10
368.4189244815602
 20
897.6335077409095
 30
0.0
 11
513.0946898572838
 21
897.6335077409095
 31
0.0
  0
LINE
  5
397
330
393
100
AcDbEntity
  8
0 ... Seuil ... Rectangle ... Cotes Angles
 62
     0
370
    -2
100
AcDbLine
 10
404.4598844748152
 20
605.6335077409091
 30
0.0
 11
513.0946898572838
 21
605.6335077409091
 31
0.0
  0
LINE
  5
398
330
393
100
AcDbEntity
  8
0 ... Seuil ... Rectangle ... Cotes Angles
 62
     0
370
    -2
100
AcDbLine
 10
503.0946898572838
 20
897.6335077409095
 30
0.0
 11
503.0946898572838
 21
605.6335077409091
 31
0.0
  0
LINE
  5
399
330
393
100
AcDbEntity
  8
0 ... Seuil ... Rectangle ... Cotes Angles
 62
     0
370
    -2
100
AcDbLine
 10
523.0946898572838
 20
877.6335077409095
 30
0.0
 11
483.0946898572838
 21
917.6335077409095
 31
0.0
  0
LINE
  5
39A
330
393
100
AcDbEntity
  8
0 ... Seuil ... Rectangle ... Cotes Angles
 62
     0
370
    -2
100
AcDbLine
 10
483.0946898572838
 20
625.6335077409091
 30
0.0
 11
523.0946898572838
 21
585.6335077409091
 31
0.0
  0
MTEXT
  5
39B
330
393
100
AcDbEntity
  8
0 ... Seuil ... Rectangle ... Cotes Angles
 62
     0
100
AcDbMText
 10
488.0946898572838
 20
751.6335077409088
 30
0.0
 40
20.0
 41
0.0
 46
0.0
 71
     5
 72
     1
  1
\A1;292
  7
QCADDimTextStyle
 11
0.0
 21
1.0
 31
0.0
 73
     1
 44
1.0
  0
POINT
  5
39C
330
393
100
AcDbEntity
  8
Defpoints
 62
     0
100
AcDbPoint
 10
363.4189244815602
 20
897.6335077409095
 30
0.0
  0
POINT
  5
39D
330
393
100
AcDbEntity
  8
Defpoints
 62
     0
100
AcDbPoint
 10
399.4598844748152
 20
605.6335077409091
 30
0.0
  0
POINT
  5
39E
330
393
100
AcDbEntity
  8
Defpoints
 62
     0
100
AcDbPoint
 10
503.0946898572838
 20
605.6335077409091
 30
0.0
  0
ENDBLK
  5
395
330
393
100
AcDbEntity
  8
0
100
AcDbBlockEnd
  0
BLOCK
  5
3A0
330
39F
100
AcDbEntity
  8
0
100
AcDbBlockBegin
  2
*D7
 70
     1
 10
0.0
 20
0.0
 30
0.0
  3
*D7
  1
*D7
  0
LINE
  5
3A2
330
39F
100
AcDbEntity
  8
0 ... Seuil ... Rectangle ... Cotes Angles
 62
     0
370
    -2
100
AcDbLine
 10
395.9243505688822
 20
616.2401094587093
 30
0.0
 11
440.8496393565894
 21
661.1653982464056
 31
0.0
  0
LINE
  5
3A3
330
39F
100
AcDbEntity
  8
0 ... Seuil ... Rectangle ... Cotes Angles
 62
     0
370
    -2
100
AcDbLine
 10
402.9954183807484
 20
609.1690416468414
 30
0.0
 11
447.9207071684556
 21
654.0943304345377
 31
0.0
  0
LINE
  5
3A4
330
39F
100
AcDbEntity
  8
0 ... Seuil ... Rectangle ... Cotes Angles
 62
     0
370
    -2
100
AcDbLine
 10
433.778571544723
 20
654.094330434541
 30
0.0
 11
440.8496393565893
 21
647.0232626226731
 31
0.0
  0
LINE
  5
3A5
330
39F
100
AcDbEntity
  8
0 ... Seuil ... Rectangle ... Cotes Angles
 62
     0
370
    -2
100
AcDbLine
 10
462.0628427921849
 20
654.0943304345376
 30
0.0
 11
405.4943002972611
 21
654.0943304345444
 31
0.0
  0
LINE
  5
3A6
330
39F
100
AcDbEntity
  8
0 ... Seuil ... Rectangle ... Cotes Angles
 62
     0
370
    -2
100
AcDbLine
 10
412.5653681091273
 20
647.0232626226765
 30
0.0
 11
469.1339106040512
 21
647.0232626226697
 31
0.0
  0
MTEXT
  5
3A7
330
39F
100
AcDbEntity
  8
0 ... Seuil ... Rectangle ... Cotes Angles
 62
     0
100
AcDbMText
 10
454.416855784325
 20
668.2566231025542
 30
0.0
 40
20.0
 41
0.0
 46
0.0
 71
     5
 72
     1
  1
\A1;10
  7
QCADDimTextStyle
 11
0.7071067811864622
 21
-0.7071067811866327
 31
0.0
 73
     1
 44
1.0
  0
POINT
  5
3A8
330
39F
100
AcDbEntity
  8
Defpoints
 62
     0
100
AcDbPoint
 10
392.388816662949
 20
612.704575552777
 30
0.0
  0
POINT
  5
3A9
330
39F
100
AcDbEntity
  8
Defpoints
 62
     0
100
AcDbPoint
 10
399.4598844748152
 20
605.6335077409091
 30
0.0
  0
POINT
  5
3AA
330
39F
100
AcDbEntity
  8
Defpoints
 62
     0
100
AcDbPoint
 10
440.8496393565893
 20
647.0232626226731
 30
0.0
  0
ENDBLK
  5
3A1
330
39F
100
AcDbEntity
  8
0
100
AcDbBlockEnd
  0
BLOCK
  5
3AC
330
3AB
100
AcDbEntity
  8
0
100
AcDbBlockBegin
  2
*D8
 70
     1
 10
0.0
 20
0.0
 30
0.0
  3
*D8
  1
*D8
  0
LINE
  5
3AE
330
3AB
100
AcDbEntity
  8
0 ... Seuil ... Rectangle ... Cotes Angles
 62
     0
370
    -2
100
AcDbLine
 10
387.4598844748148
 20
600.6335077409101
 30
0.0
 11
387.4598844748112
 21
558.7695603072978
 31
0.0
  0
LINE
  5
3AF
330
3AB
100
AcDbEntity
  8
0 ... Seuil ... Rectangle ... Cotes Angles
 62
     0
370
    -2
100
AcDbLine
 10
399.4598844748148
 20
600.6335077409091
 30
0.0
 11
399.4598844748112
 21
558.7695603072967
 31
0.0
  0
LINE
  5
3B0
330
3AB
100
AcDbEntity
  8
0 ... Seuil ... Rectangle ... Cotes Angles
 62
     0
370
    -2
100
AcDbLine
 10
387.4598844748121
 20
568.7695603072978
 30
0.0
 11
399.4598844748121
 21
568.7695603072967
 31
0.0
  0
LINE
  5
3B1
330
3AB
100
AcDbEntity
  8
0 ... Seuil ... Rectangle ... Cotes Angles
 62
     0
370
    -2
100
AcDbLine
 10
407.4598844748138
 20
588.769560307296
 30
0.0
 11
367.4598844748104
 21
548.7695603072995
 31
0.0
  0
LINE
  5
3B2
330
3AB
100
AcDbEntity
  8
0 ... Seuil ... Rectangle ... Cotes Angles
 62
     0
370
    -2
100
AcDbLine
 10
379.4598844748104
 20
548.7695603072984
 30
0.0
 11
419.4598844748138
 21
588.769560307295
 31
0.0
  0
MTEXT
  5
3B3
330
3AB
100
AcDbEntity
  8
0 ... Seuil ... Rectangle ... Cotes Angles
 62
     0
100
AcDbMText
 10
393.3426901029409
 20
541.5113115272088
 30
0.0
 40
20.0
 41
0.0
 46
0.0
 71
     5
 72
     1
  1
\A1;12
  7
QCADDimTextStyle
 73
     1
 44
1.0
  0
POINT
  5
3B4
330
3AB
100
AcDbEntity
  8
Defpoints
 62
     0
100
AcDbPoint
 10
387.4598844748152
 20
605.6335077409101
 30
0.0
  0
POINT
  5
3B5
330
3AB
100
AcDbEntity
  8
Defpoints
 62
     0
100
AcDbPoint
 10
399.4598844748152
 20
605.6335077409091
 30
0.0
  0
POINT
  5
3B6
330
3AB
100
AcDbEntity
  8
Defpoints
 62
     0
100
AcDbPoint
 10
399.4598844748121
 20
568.7695603072967
 30
0.0
  0
ENDBLK
  5
3AD
330
3AB
100
AcDbEntity
  8
0
100
AcDbBlockEnd
  0
BLOCK
  5
3B8
330
3B7
100
AcDbEntity
  8
0
100
AcDbBlockBegin
  2
*D9
 70
     1
 10
0.0
 20
0.0
 30
0.0
  3
*D9
  1
*D9
  0
LINE
  5
3BA
330
3B7
100
AcDbEntity
  8
0 ... Seuil ... Rectangle ... Cotes Angles
 62
     0
370
    -2
100
AcDbLine
 10
560.501255666652
 20
902.6335077409087
 30
0.0
 11
560.501255666652
 21
957.6536300837155
 31
0.0
  0
LINE
  5
3BB
330
3B7
100
AcDbEntity
  8
0 ... Seuil ... Rectangle ... Cotes Angles
 62
     0
370
    -2
100
AcDbLine
 10
2583.301255666653
 20
902.6335077409102
 30
0.0
 11
2583.301255666653
 21
957.653630083717
 31
0.0
  0
LINE
  5
3BC
330
3B7
100
AcDbEntity
  8
0 ... Seuil ... Rectangle ... Cotes Angles
 62
     0
370
    -2
100
AcDbLine
 10
560.501255666652
 20
947.6536300837155
 30
0.0
 11
2583.301255666653
 21
947.653630083717
 31
0.0
  0
LINE
  5
3BD
330
3B7
100
AcDbEntity
  8
0 ... Seuil ... Rectangle ... Cotes Angles
 62
     0
370
    -2
100
AcDbLine
 10
580.501255666652
 20
967.6536300837155
 30
0.0
 11
540.501255666652
 21
927.6536300837155
 31
0.0
  0
LINE
  5
3BE
330
3B7
100
AcDbEntity
  8
0 ... Seuil ... Rectangle ... Cotes Angles
 62
     0
370
    -2
100
AcDbLine
 10
2563.301255666653
 20
927.653630083717
 30
0.0
 11
2603.301255666653
 21
967.653630083717
 31
0.0
  0
MTEXT
  5
3BF
330
3B7
100
AcDbEntity
  8
0 ... Seuil ... Rectangle ... Cotes Angles
 62
     0
100
AcDbMText
 10
1571.901255666653
 20
962.6536300837163
 30
0.0
 40
20.0
 41
0.0
 46
0.0
 71
     5
 72
     1
  1
\A1;2022.8
  7
QCADDimTextStyle
 73
     1
 44
1.0
  0
POINT
  5
3C0
330
3B7
100
AcDbEntity
  8
Defpoints
 62
     0
100
AcDbPoint
 10
560.501255666652
 20
897.6335077409087
 30
0.0
  0
POINT
  5
3C1
330
3B7
100
AcDbEntity
  8
Defpoints
 62
     0
100
AcDbPoint
 10
2583.301255666653
 20
897.6335077409102
 30
0.0
  0
POINT
  5
3C2
330
3B7
100
AcDbEntity
  8
Defpoints
 62
     0
100
AcDbPoint
 10
2583.301255666653
 20
947.653630083717
 30
0.0
  0
ENDBLK
  5
3B9
330
3B7
100
AcDbEntity
  8
0
100
AcDbBlockEnd
  0
BLOCK
  5
3C4
330
3C3
100
AcDbEntity
  8
0
100
AcDbBlockBegin
  2
*D10
 70
     1
 10
0.0
 20
0.0
 30
0.0
  3
*D10
  1
*D10
  0
LINE
  5
3C6
330
3C3
100
AcDbEntity
  8
0 ... Seuil ... Rectangle ... Cotes Angles
 62
     0
370
    -2
100
AcDbLine
 10
338.4189244815611
 20
897.6335077409095
 30
0.0
 11
180.1626208804891
 21
897.6335077409095
 31
0.0
  0
LINE
  5
3C7
330
3C3
100
AcDbEntity
  8
0 ... Seuil ... Rectangle ... Cotes Angles
 62
     0
370
    -2
100
AcDbLine
 10
329.0502345235632
 20
659.6335077409074
 30
0.0
 11
180.1626208804891
 21
659.6335077409074
 31
0.0
  0
LINE
  5
3C8
330
3C3
100
AcDbEntity
  8
0 ... Seuil ... Rectangle ... Cotes Angles
 62
     0
370
    -2
100
AcDbLine
 10
190.1626208804891
 20
897.6335077409095
 30
0.0
 11
190.1626208804891
 21
659.6335077409074
 31
0.0
  0
LINE
  5
3C9
330
3C3
100
AcDbEntity
  8
0 ... Seuil ... Rectangle ... Cotes Angles
 62
     0
370
    -2
100
AcDbLine
 10
210.1626208804891
 20
877.6335077409095
 30
0.0
 11
170.1626208804891
 21
917.6335077409095
 31
0.0
  0
LINE
  5
3CA
330
3C3
100
AcDbEntity
  8
0 ... Seuil ... Rectangle ... Cotes Angles
 62
     0
370
    -2
100
AcDbLine
 10
170.1626208804891
 20
679.6335077409074
 30
0.0
 11
210.1626208804891
 21
639.6335077409074
 31
0.0
  0
MTEXT
  5
3CB
330
3C3
100
AcDbEntity
  8
0 ... Seuil ... Rectangle ... Cotes Angles
 62
     0
100
AcDbMText
 10
175.1626208804891
 20
778.6335077409085
 30
0.0
 40
20.0
 41
0.0
 46
0.0
 71
     5
 72
     1
  1
\A1;238
  7
QCADDimTextStyle
 11
1.194189471865704E-16
 21
1.0
 31
0.0
 73
     1
 44
1.0
  0
POINT
  5
3CC
330
3C3
100
AcDbEntity
  8
Defpoints
 62
     0
100
AcDbPoint
 10
343.4189244815611
 20
897.6335077409095
 30
0.0
  0
POINT
  5
3CD
330
3C3
100
AcDbEntity
  8
Defpoints
 62
     0
100
AcDbPoint
 10
334.0502345235632
 20
659.6335077409074
 30
0.0
  0
POINT
  5
3CE
330
3C3
100
AcDbEntity
  8
Defpoints
 62
     0
100
AcDbPoint
 10
190.1626208804891
 20
659.6335077409074
 30
0.0
  0
ENDBLK
  5
3C5
330
3C3
100
AcDbEntity
  8
0
100
AcDbBlockEnd
  0
BLOCK
  5
3D2
330
3D1
100
AcDbEntity
  8
0
100
AcDbBlockBegin
  2
*D11
 70
     1
 10
0.0
 20
0.0
 30
0.0
  3
*D11
  1
*D11
  0
LINE
  5
3D4
330
3D1
100
AcDbEntity
  8
0 ... Seuil ... Rectangle ... Cotes Angles
 62
     0
370
    -2
100
AcDbLine
 10
360.3780616918868
 20
111.5352454113156
 30
0.0
 11
360.3780616918868
 21
261.3161647016263
 31
0.0
  0
LINE
  5
3D5
330
3D1
100
AcDbEntity
  8
0 ... Seuil ... Rectangle ... Cotes Angles
 62
     0
370
    -2
100
AcDbLine
 10
355.397088201425
 20
106.0994666975756
 30
0.0
 11
206.1861305291115
 21
93.045199427402
 31
0.0
  0
ARC
  5
3D6
330
3D1
100
AcDbEntity
  8
0 ... Seuil ... Rectangle ... Cotes Angles
 62
     0
370
    -2
100
AcDbCircle
 10
360.3780616918868
 20
106.5352454113142
 30
0.0
 40
144.7809192903121
100
AcDbArc
 50
97.92113134823137
 51
132.8517291697614
  0
ARC
  5
3D7
330
3D1
100
AcDbEntity
  8
0 ... Seuil ... Rectangle ... Cotes Angles
 62
     0
370
    -2
100
AcDbCircle
 10
360.3780616918868
 20
106.5352454113142
 30
0.0
 40
144.7809192903121
100
AcDbArc
 50
142.1482708302376
 51
177.0788686517685
  0
SOLID
  5
3D8
330
3D1
100
AcDbEntity
  8
0 ... Seuil ... Rectangle ... Cotes Angles
 62
     0
100
AcDbTrace
 10
340.6560581187739
 20
246.6093944530126
 30
0.0
 11
340.1955922853377
 21
253.260139949623
 31
0.0
 12
360.3780616918868
 22
251.3161647016263
 32
0.0
 13
360.3780616918868
 23
251.3161647016263
 33
0.0
  0
SOLID
  5
3D9
330
3D1
100
AcDbEntity
  8
0 ... Seuil ... Rectangle ... Cotes Angles
 62
     0
100
AcDbTrace
 10
212.4524815631434
 20
113.8529972654594
 30
0.0
 11
219.1180512069472
 21
113.9739343071205
 31
0.0
 12
216.1480775100289
 22
93.91675685487856
 32
0.0
 13
216.1480775100289
 23
93.91675685487856
 33
0.0
  0
MTEXT
  5
3DA
330
3D1
100
AcDbEntity
  8
0 ... Seuil ... Rectangle ... Cotes Angles
 62
     0
100
AcDbMText
 10
242.5752110444516
 20
214.4816698476795
 30
0.0
 40
20.0
 41
0.0
 46
0.0
 71
     5
 72
     1
  1
\A1;95%%d
  7
QCADDimTextStyle
 11
0.6755902076156666
 21
0.7372773368101182
 31
0.0
 73
     1
 44
1.0
  0
POINT
  5
3DB
330
3D1
100
AcDbEntity
  8
Defpoints
 62
     0
100
AcDbPoint
 10
284.3714697851649
 20
229.7606996700545
 30
0.0
  0
POINT
  5
3DC
330
3D1
100
AcDbEntity
  8
Defpoints
 62
     0
100
AcDbPoint
 10
360.3780616918868
 20
106.5352454113156
 30
0.0
  0
POINT
  5
3DD
330
3D1
100
AcDbEntity
  8
Defpoints
 62
     0
100
AcDbPoint
 10
552.3780616918868
 20
123.3330688082912
 30
0.0
  0
POINT
  5
3DE
330
3D1
100
AcDbEntity
  8
Defpoints
 62
     0
100
AcDbPoint
 10
360.3780616918837
 20
106.5352454113139
 30
0.0
  0
POINT
  5
3DF
330
3D1
100
AcDbEntity
  8
Defpoints
 62
     0
100
AcDbPoint
 10
360.3780616918868
 20
58.53524541131355
 30
0.0
  0
ENDBLK
  5
3D3
330
3D1
100
AcDbEntity
  8
0
100
AcDbBlockEnd
  0
BLOCK
  5
3E7
330
3E6
100
AcDbEntity
  8
0
100
AcDbBlockBegin
  2
*D12
 70
     1
 10
0.0
 20
0.0
 30
0.0
  3
*D12
  1
*D12
  0
LINE
  5
3E9
330
3E6
100
AcDbEntity
  8
0 ... Seuil ... Rectangle ... Cotes Angles
 62
     0
370
    -2
100
AcDbLine
 10
1528.378061691888
 20
197.6990853843323
 30
0.0
 11
1528.378061691888
 21
107.3631719907424
 31
0.0
  0
LINE
  5
3EA
330
3E6
100
AcDbEntity
  8
0 ... Seuil ... Rectangle ... Cotes Angles
 62
     0
370
    -2
100
AcDbLine
 10
1533.359035182347
 20
203.1348640980706
 30
0.0
 11
1623.351193152316
 21
211.0081577266769
 31
0.0
  0
ARC
  5
3EB
330
3E6
100
AcDbEntity
  8
0 ... Seuil ... Rectangle ... Cotes Angles
 62
     0
370
    -2
100
AcDbCircle
 10
1528.378061691888
 20
202.6990853843323
 30
0.0
 40
85.3359133935899
100
AcDbArc
 50
283.4592168613747
 51
300.4647561733941
  0
ARC
  5
3EC
330
3E6
100
AcDbEntity
  8
0 ... Seuil ... Rectangle ... Cotes Angles
 62
     0
370
    -2
100
AcDbCircle
 10
1528.378061691888
 20
202.6990853843323
 30
0.0
 40
85.3359133935899
100
AcDbArc
 50
334.5352438266031
 51
351.5407831386252
  0
SOLID
  5
3ED
330
3E6
100
AcDbEntity
  8
0 ... Seuil ... Rectangle ... Cotes Angles
 62
     0
100
AcDbTrace
 10
1547.849653014574
 20
123.0172185481575
 30
0.0
 11
1548.630879394131
 21
116.3964837106694
 31
0.0
 12
1528.378061691888
 22
117.3631719907424
 32
0.0
 13
1528.378061691888
 23
117.3631719907424
 33
0.0
  0
SOLID
  5
3EE
330
3E6
100
AcDbEntity
  8
0 ... Seuil ... Rectangle ... Cotes Angles
 62
     0
100
AcDbTrace
 10
1616.117405280286
 20
190.0451031178625
 30
0.0
 11
1609.453775972345
 21
190.2463216328901
 31
0.0
 12
1613.389246171399
 22
210.1366002992003
 32
0.0
 13
1613.389246171399
 23
210.1366002992003
 33
0.0
  0
MTEXT
  5
3EF
330
3E6
100
AcDbEntity
  8
0 ... Seuil ... Rectangle ... Cotes Angles
 62
     0
100
AcDbMText
 10
1580.235136600821
 20
155.1808310519177
 30
0.0
 40
20.0
 41
0.0
 46
0.0
 71
     5
 72
     1
  1
\A1;95%%d
  7
QCADDimTextStyle
 11
0.6755902076156791
 21
0.7372773368101067
 31
0.0
 73
     1
 44
1.0
  0
POINT
  5
3F0
330
3E6
100
AcDbEntity
  8
Defpoints
 62
     0
100
AcDbPoint
 10
1573.177417684981
 20
130.068266737408
 30
0.0
  0
POINT
  5
3F1
330
3E6
100
AcDbEntity
  8
Defpoints
 62
     0
100
AcDbPoint
 10
1528.378061691888
 20
203.6154165583471
 30
0.0
  0
POINT
  5
3F2
330
3E6
100
AcDbEntity
  8
Defpoints
 62
     0
100
AcDbPoint
 10
366.3780616918837
 20
101.03725836721
 30
0.0
  0
POINT
  5
3F3
330
3E6
100
AcDbEntity
  8
Defpoints
 62
     0
100
AcDbPoint
 10
1527.465217434635
 20
202.6192218602579
 30
0.0
  0
POINT
  5
3F4
330
3E6
100
AcDbEntity
  8
Defpoints
 62
     0
100
AcDbPoint
 10
1528.378061691888
 20
282.6990853843342
 30
0.0
  0
ENDBLK
  5
3E8
330
3E6
100
AcDbEntity
  8
0
100
AcDbBlockEnd
  0
BLOCK
  5
3F6
330
3F5
100
AcDbEntity
  8
0
100
AcDbBlockBegin
  2
*D13
 70
     1
 10
0.0
 20
0.0
 30
0.0
  3
*D13
  1
*D13
  0
LINE
  5
3F8
330
3F5
100
AcDbEntity
  8
0 ... Seuil ... Rectangle ... Cotes Angles
 62
     0
370
    -2
100
AcDbLine
 10
379.2221272130163
 20
664.6335077409091
 30
0.0
 11
379.2221272130383
 21
715.8206900672585
 31
0.0
  0
LINE
  5
3F9
330
3F5
100
AcDbEntity
  8
0 ... Seuil ... Rectangle ... Cotes Angles
 62
     0
370
    -2
100
AcDbLine
 10
384.2412264007319
 20
664.6335077409069
 30
0.0
 11
384.241226400754
 21
715.8206900672564
 31
0.0
  0
LINE
  5
3FA
330
3F5
100
AcDbEntity
  8
0 ... Seuil ... Rectangle ... Cotes Angles
 62
     0
370
    -2
100
AcDbLine
 10
359.2221272130254
 20
685.8206900672672
 30
0.0
 11
399.2221272130426
 21
725.8206900672499
 31
0.0
  0
LINE
  5
3FB
330
3F5
100
AcDbEntity
  8
0 ... Seuil ... Rectangle ... Cotes Angles
 62
     0
370
    -2
100
AcDbLine
 10
404.2412264007583
 20
725.8206900672477
 30
0.0
 11
364.2412264007411
 21
685.820690067265
 31
0.0
  0
MTEXT
  5
3FC
330
3F5
100
AcDbEntity
  8
0 ... Seuil ... Rectangle ... Cotes Angles
 62
     0
100
AcDbMText
 10
390.0
 20
729.9999999999998
 30
0.0
 40
20.0
 41
0.0
 46
0.0
 71
     5
 72
     1
  1
\A1;5.0191
  7
QCADDimTextStyle
 73
     1
 44
1.0
  0
POINT
  5
3FD
330
3F5
100
AcDbEntity
  8
Defpoints
 62
     0
100
AcDbPoint
 10
379.2221272130141
 20
659.6335077409091
 30
0.0
  0
POINT
  5
3FE
330
3F5
100
AcDbEntity
  8
Defpoints
 62
     0
100
AcDbPoint
 10
384.2412264007298
 20
659.6335077409069
 30
0.0
  0
POINT
  5
3FF
330
3F5
100
AcDbEntity
  8
Defpoints
 62
     0
100
AcDbPoint
 10
384.2412264007497
 20
705.8206900672564
 30
0.0
  0
ENDBLK
  5
3F7
330
3F5
100
AcDbEntity
  8
0
100
AcDbBlockEnd
  0
BLOCK
  5
401
330
400
100
AcDbEntity
  8
0
100
AcDbBlockBegin
  2
*D14
 70
     1
 10
0.0
 20
0.0
 30
0.0
  3
*D14
  1
*D14
  0
LINE
  5
403
330
400
100
AcDbEntity
  8
0 ... Seuil ... Rectangle ... Cotes Angles
 62
     0
370
    -2
100
AcDbLine
 10
343.4189244815611
 20
902.6335077409095
 30
0.0
 11
343.4189244815611
 21
993.7157858124812
 31
0.0
  0
LINE
  5
404
330
400
100
AcDbEntity
  8
0 ... Seuil ... Rectangle ... Cotes Angles
 62
     0
370
    -2
100
AcDbLine
 10
363.4189244815602
 20
902.6335077409095
 30
0.0
 11
363.4189244815602
 21
993.7157858124812
 31
0.0
  0
LINE
  5
405
330
400
100
AcDbEntity
  8
0 ... Seuil ... Rectangle ... Cotes Angles
 62
     0
370
    -2
100
AcDbLine
 10
343.4189244815611
 20
983.7157858124812
 30
0.0
 11
363.4189244815602
 21
983.7157858124812
 31
0.0
  0
LINE
  5
406
330
400
100
AcDbEntity
  8
0 ... Seuil ... Rectangle ... Cotes Angles
 62
     0
370
    -2
100
AcDbLine
 10
363.4189244815611
 20
1003.715785812481
 30
0.0
 11
323.4189244815611
 21
963.7157858124812
 31
0.0
  0
LINE
  5
407
330
400
100
AcDbEntity
  8
0 ... Seuil ... Rectangle ... Cotes Angles
 62
     0
370
    -2
100
AcDbLine
 10
343.4189244815602
 20
963.7157858124812
 30
0.0
 11
383.4189244815602
 21
1003.715785812481
 31
0.0
  0
MTEXT
  5
408
330
400
100
AcDbEntity
  8
0 ... Seuil ... Rectangle ... Cotes Angles
 62
     0
100
AcDbMText
 10
389.2105523193218
 20
998.7157858124842
 30
0.0
 40
20.0
 41
0.0
 46
0.0
 71
     5
 72
     1
  1
\A1;20
  7
QCADDimTextStyle
 73
     1
 44
1.0
  0
POINT
  5
409
330
400
100
AcDbEntity
  8
Defpoints
 62
     0
100
AcDbPoint
 10
343.4189244815611
 20
897.6335077409095
 30
0.0
  0
POINT
  5
40A
330
400
100
AcDbEntity
  8
Defpoints
 62
     0
100
AcDbPoint
 10
363.4189244815602
 20
897.6335077409095
 30
0.0
  0
POINT
  5
40B
330
400
100
AcDbEntity
  8
Defpoints
 62
     0
100
AcDbPoint
 10
363.4189244815602
 20
983.7157858124812
 30
0.0
  0
ENDBLK
  5
402
330
400
100
AcDbEntity
  8
0
100
AcDbBlockEnd
  0
BLOCK
  5
40D
330
40C
100
AcDbEntity
  8
0
100
AcDbBlockBegin
  2
*D15
 70
     1
 10
0.0
 20
0.0
 30
0.0
  3
*D15
  1
*D15
  0
LINE
  5
40F
330
40C
100
AcDbEntity
  8
0 ... Seuil ... Rectangle ... Cotes Angles
 62
     0
370
    -2
100
AcDbLine
 10
315.3276605290148
 20
878.633507740907
 30
0.0
 11
315.3276605290148
 21
953.7157858124822
 31
0.0
  0
LINE
  5
410
330
40C
100
AcDbEntity
  8
0 ... Seuil ... Rectangle ... Cotes Angles
 62
     0
370
    -2
100
AcDbLine
 10
343.4189244815611
 20
902.6335077409095
 30
0.0
 11
343.4189244815611
 21
953.7157858124822
 31
0.0
  0
LINE
  5
411
330
40C
100
AcDbEntity
  8
0 ... Seuil ... Rectangle ... Cotes Angles
 62
     0
370
    -2
100
AcDbLine
 10
315.3276605290148
 20
943.7157858124822
 30
0.0
 11
343.4189244815611
 21
943.7157858124822
 31
0.0
  0
LINE
  5
412
330
40C
100
AcDbEntity
  8
0 ... Seuil ... Rectangle ... Cotes Angles
 62
     0
370
    -2
100
AcDbLine
 10
335.3276605290148
 20
963.7157858124822
 30
0.0
 11
295.3276605290148
 21
923.7157858124822
 31
0.0
  0
LINE
  5
413
330
40C
100
AcDbEntity
  8
0 ... Seuil ... Rectangle ... Cotes Angles
 62
     0
370
    -2
100
AcDbLine
 10
323.4189244815611
 20
923.7157858124822
 30
0.0
 11
363.4189244815611
 21
963.7157858124822
 31
0.0
  0
MTEXT
  5
414
330
40C
100
AcDbEntity
  8
0 ... Seuil ... Rectangle ... Cotes Angles
 62
     0
100
AcDbMText
 10
289.2105523193218
 20
958.7157858124802
 30
0.0
 40
20.0
 41
0.0
 46
0.0
 71
     5
 72
     1
  1
\A1;28.0913
  7
QCADDimTextStyle
 73
     1
 44
1.0
  0
POINT
  5
415
330
40C
100
AcDbEntity
  8
Defpoints
 62
     0
100
AcDbPoint
 10
315.3276605290148
 20
873.633507740907
 30
0.0
  0
POINT
  5
416
330
40C
100
AcDbEntity
  8
Defpoints
 62
     0
100
AcDbPoint
 10
343.4189244815611
 20
897.6335077409095
 30
0.0
  0
POINT
  5
417
330
40C
100
AcDbEntity
  8
Defpoints
 62
     0
100
AcDbPoint
 10
343.4189244815611
 20
943.7157858124822
 30
0.0
  0
ENDBLK
  5
40E
330
40C
100
AcDbEntity
  8
0
100
AcDbBlockEnd
  0
BLOCK
  5
41A
330
419
100
AcDbEntity
  8
0
100
AcDbBlockBegin
  2
*D16
 70
     1
 10
0.0
 20
0.0
 30
0.0
  3
*D16
  1
*D16
  0
LINE
  5
41C
330
419
100
AcDbEntity
  8
0 ... Seuil ... Rectangle ... Cotes Angles
 62
     0
370
    -2
100
AcDbLine
 10
555.501255666652
 20
897.6335077409087
 30
0.0
 11
529.3294920927128
 21
897.6335077409087
 31
0.0
  0
LINE
  5
41D
330
419
100
AcDbEntity
  8
0 ... Seuil ... Rectangle ... Cotes Angles
 62
     0
370
    -2
100
AcDbLine
 10
555.501255666652
 20
659.6335077409095
 30
0.0
 11
529.3294920927128
 21
659.6335077409095
 31
0.0
  0
LINE
  5
41E
330
419
100
AcDbEntity
  8
0 ... Seuil ... Rectangle ... Cotes Angles
 62
     0
370
    -2
100
AcDbLine
 10
539.3294920927128
 20
897.6335077409087
 30
0.0
 11
539.3294920927128
 21
659.6335077409095
 31
0.0
  0
LINE
  5
41F
330
419
100
AcDbEntity
  8
0 ... Seuil ... Rectangle ... Cotes Angles
 62
     0
370
    -2
100
AcDbLine
 10
559.3294920927128
 20
877.6335077409087
 30
0.0
 11
519.3294920927128
 21
917.6335077409087
 31
0.0
  0
LINE
  5
420
330
419
100
AcDbEntity
  8
0 ... Seuil ... Rectangle ... Cotes Angles
 62
     0
370
    -2
100
AcDbLine
 10
519.3294920927128
 20
679.6335077409095
 30
0.0
 11
559.3294920927128
 21
639.6335077409095
 31
0.0
  0
MTEXT
  5
421
330
419
100
AcDbEntity
  8
0 ... Seuil ... Rectangle ... Cotes Angles
 62
     0
100
AcDbMText
 10
524.3294920927128
 20
778.6335077409092
 30
0.0
 40
20.0
 41
0.0
 46
0.0
 71
     5
 72
     1
  1
\A1;238
  7
QCADDimTextStyle
 11
0.0
 21
1.0
 31
0.0
 73
     1
 44
1.0
  0
POINT
  5
422
330
419
100
AcDbEntity
  8
Defpoints
 62
     0
100
AcDbPoint
 10
560.501255666652
 20
897.6335077409087
 30
0.0
  0
POINT
  5
423
330
419
100
AcDbEntity
  8
Defpoints
 62
     0
100
AcDbPoint
 10
560.501255666652
 20
659.6335077409095
 30
0.0
  0
POINT
  5
424
330
419
100
AcDbEntity
  8
Defpoints
 62
     0
100
AcDbPoint
 10
539.3294920927128
 20
659.6335077409095
 30
0.0
  0
ENDBLK
  5
41B
330
419
100
AcDbEntity
  8
0
100
AcDbBlockEnd
  0
ENDSEC
  0
SECTION
  2
ENTITIES
  0
LINE
  5
37
330
294
100
AcDbEntity
  8
0 ... Seuil ... Rectangle
100
AcDbLine
 10
343.4189244815602
 20
897.6335077409085
 30
0.0
 11
363.4189244815602
 21
897.6335077409085
 31
0.0
  0
LINE
  5
38
330
294
100
AcDbEntity
  8
0 ... Seuil ... Rectangle
100
AcDbLine
 10
388.96561423113
 20
605.6335077409096
 30
0.0
 11
363.4189244815602
 21
897.6335077409085
 31
0.0
  0
LINE
  5
39
330
294
100
AcDbEntity
  8
0 ... Seuil ... Rectangle
100
AcDbLine
 10
387.4598844748152
 20
605.6335077409096
 30
0.0
 11
399.4598844748152
 21
605.6335077409096
 31
0.0
  0
LINE
  5
3A
330
294
100
AcDbEntity
  8
0 ... Seuil ... Rectangle
100
AcDbLine
 10
343.4189244815602
 20
896.1335077409085
 30
0.0
 11
363.5501574768491
 21
896.1335077409085
 31
0.0
  0
LINE
  5
3B
330
294
100
AcDbEntity
  8
0 ... Seuil ... Rectangle
100
AcDbLine
 10
388.8343812358412
 20
607.1335077409096
 30
0.0
 11
395.8385641312561
 21
607.1335077409096
 31
0.0
  0
LINE
  5
3C
330
294
100
AcDbEntity
  8
0 ... Seuil ... Rectangle
100
AcDbLine
 10
343.4189244815602
 20
873.6335077409085
 30
0.0
 11
343.4189244815602
 21
897.6335077409085
 31
0.0
  0
LINE
  5
3D
330
294
100
AcDbEntity
  8
0 ... Seuil ... Rectangle
100
AcDbLine
 10
392.3888166629499
 20
612.7045755527745
 30
0.0
 11
399.4598844748152
 21
605.6335077409096
 31
0.0
  0
LINE
  5
3E
330
294
100
AcDbEntity
  8
0 ... Seuil ... Rectangle
100
AcDbLine
 10
391.3281564911699
 20
611.6439153809945
 30
0.0
 11
395.8385641312561
 21
607.1335077409085
 31
0.0
  0
LINE
  5
3F
330
294
100
AcDbEntity
  8
0 ... Seuil ... Rectangle
100
AcDbLine
 10
391.3281564911699
 20
611.6439153809945
 30
0.0
 11
392.3888166629499
 21
612.7045755527745
 31
0.0
  0
LINE
  5
40
330
294
100
AcDbEntity
  8
0 ... Seuil ... Rectangle
100
AcDbLine
 10
334.0502345235632
 20
659.6335077409085
 30
0.0
 11
384.2412264007298
 21
659.6335077409085
 31
0.0
  0
LINE
  5
41
330
294
100
AcDbEntity
  8
0 ... Seuil ... Rectangle
100
AcDbLine
 10
334.0502345235632
 20
659.6335077409085
 30
0.0
 11
315.3276605290148
 21
873.6335077409085
 31
0.0
  0
LINE
  5
42
330
294
100
AcDbEntity
  8
0 ... Seuil ... Rectangle
100
AcDbLine
 10
315.3276605290148
 20
873.6335077409085
 30
0.0
 11
343.4189244815602
 21
873.6335077409085
 31
0.0
  0
DIMENSION
  5
44
330
294
100
AcDbEntity
  8
0 ... Seuil ... Rectangle ... Cotes Angles
100
AcDbDimension
280
     0
  2
*D1
 10
284.5045483060291
 20
655.2988218702603
 30
0.0
 11
290.0861817801311
 21
763.606158011475
 31
0.0
 70
    33
 71
     5
 42
214.8174452342761
 73
     0
 74
     0
 75
     0
  3
QCADDimStyle
100
AcDbAlignedDimension
 13
315.3276605290148
 23
873.633507740907
 33
0.0
 14
334.0502345235632
 24
659.6335077409074
 34
0.0
1001
ACAD
1000
DSTYLE
1002
{
1070
   279
1070
     2
1070
    41
1040
20.0
1070
    79
1070
     2
1070
   176
1070
     0
1070
   177
1070
     0
1070
   178
1070
     0
1070
    44
1040
10.0
1070
    42
1040
5.0
1070
   147
1040
5.0
1070
   142
1040
20.0
1070
   140
1040
20.0
1070
    78
1070
     8
1002
}
  0
DIMENSION
  5
45
330
294
100
AcDbEntity
  8
0 ... Seuil ... Rectangle ... Cotes Angles
100
AcDbDimension
280
     0
  2
*D2
 10
231.0533819912748
 20
873.633507740907
 30
0.0
 11
203.5533819912748
 21
885.6335077409083
 31
0.0
 70
    32
 71
     5
 42
24.0000000000025
 73
     0
 74
     0
 75
     0
  3
QCADDimStyle
100
AcDbAlignedDimension
 13
343.4189244815611
 23
897.6335077409095
 33
0.0
 14
315.3276605290148
 24
873.633507740907
 34
0.0
 50
90.0
100
AcDbRotatedDimension
1001
ACAD
1000
DSTYLE
1002
{
1070
   279
1070
     2
1070
    41
1040
20.0
1070
    79
1070
     2
1070
   176
1070
     0
1070
   177
1070
     0
1070
   178
1070
     0
1070
    44
1040
10.0
1070
    42
1040
5.0
1070
   147
1040
5.0
1070
   142
1040
20.0
1070
   140
1040
20.0
1070
    78
1070
     8
1002
}
  0
DIMENSION
  5
46
330
294
100
AcDbEntity
  8
0 ... Seuil ... Rectangle ... Cotes Angles
100
AcDbDimension
280
     0
  2
*D3
 10
231.0533819912748
 20
659.6335077409074
 30
0.0
 11
216.0533819912748
 21
766.6335077409071
 31
0.0
 70
    32
 71
     5
 42
213.9999999999997
 73
     0
 74
     0
 75
     0
  3
QCADDimStyle
100
AcDbAlignedDimension
 13
315.3276605290148
 23
873.633507740907
 33
0.0
 14
334.0502345235632
 24
659.6335077409074
 34
0.0
 50
90.0
100
AcDbRotatedDimension
1001
ACAD
1000
DSTYLE
1002
{
1070
   279
1070
     2
1070
    41
1040
20.0
1070
    79
1070
     2
1070
   176
1070
     0
1070
   177
1070
     0
1070
   178
1070
     0
1070
    44
1040
10.0
1070
    42
1040
5.0
1070
   147
1040
5.0
1070
   142
1040
20.0
1070
   140
1040
20.0
1070
    78
1070
     8
1002
}
  0
DIMENSION
  5
47
330
294
100
AcDbEntity
  8
0 ... Seuil ... Rectangle ... Cotes Angles
100
AcDbDimension
280
     0
  2
*D4
 10
399.2105523193218
 20
896.1335077409099
 30
0.0
 11
426.7105523193218
 21
896.8835077409096
 31
0.0
 70
    32
 71
     5
 42
1.499999999999659
 73
     0
 74
     0
 75
     0
  3
QCADDimStyle
100
AcDbAlignedDimension
 13
363.4189244815602
 23
897.6335077409095
 33
0.0
 14
363.5501574768491
 24
896.1335077409099
 34
0.0
 50
90.0
100
AcDbRotatedDimension
1001
ACAD
1000
DSTYLE
1002
{
1070
   279
1070
     2
1070
    41
1040
20.0
1070
    79
1070
     2
1070
   176
1070
     0
1070
   177
1070
     0
1070
   178
1070
     0
1070
    44
1040
10.0
1070
    42
1040
5.0
1070
   147
1040
5.0
1070
   142
1040
20.0
1070
   140
1040
20.0
1070
    78
1070
     8
1002
}
  0
DIMENSION
  5
48
330
294
100
AcDbEntity
  8
0 ... Seuil ... Rectangle ... Cotes Angles
100
AcDbDimension
280
     0
  2
*D5
 10
371.440568678903
 20
805.945695011122
 30
0.0
 11
345.2283650853992
 21
818.7097219137736
 31
0.0
 70
   161
 71
     5
 42
50.00000000000175
 73
     0
 74
     0
 75
     0
  3
QCADDimStyle
100
AcDbAlignedDimension
 13
321.584167109831
 23
802.1213102895716
 33
0.0
 14
371.393902014418
 24
806.4790974269777
 34
0.0
1001
ACAD
1000
DSTYLE
1002
{
1070
   279
1070
     2
1070
    41
1040
20.0
1070
    79
1070
     2
1070
   176
1070
     0
1070
   177
1070
     0
1070
   178
1070
     0
1070
    44
1040
10.0
1070
    42
1040
5.0
1070
   147
1040
5.0
1070
   142
1040
20.0
1070
   140
1040
20.0
1070
    78
1070
     8
1002
}
  0
LINE
  5
49
330
294
100
AcDbEntity
  8
0 ... Seuil ... Rectangle
100
AcDbLine
 10
560.501255666652
 20
897.6335077409085
 30
0.0
 11
2583.301255666653
 21
897.6335077409085
 31
0.0
  0
LINE
  5
4A
330
294
100
AcDbEntity
  8
0 ... Seuil ... Rectangle
100
AcDbLine
 10
560.501255666652
 20
605.6335077409096
 30
0.0
 11
2583.301255666653
 21
605.6335077409096
 31
0.0
  0
LINE
  5
4B
330
294
100
AcDbEntity
  8
0 ... Seuil ... Rectangle
100
AcDbLine
 10
560.501255666652
 20
896.1335077409085
 30
0.0
 11
2583.301255666653
 21
896.1335077409085
 31
0.0
  0
LINE
  5
4C
330
294
100
AcDbEntity
  8
0 ... Seuil ... Rectangle
100
AcDbLine
 10
560.501255666652
 20
897.6335077409085
 30
0.0
 11
560.501255666652
 21
605.6335077409096
 31
0.0
  0
LINE
  5
4D
330
294
100
AcDbEntity
  8
0 ... Seuil ... Rectangle
100
AcDbLine
 10
2583.301255666653
 20
897.6335077409085
 30
0.0
 11
2583.301255666653
 21
605.6335077409096
 31
0.0
  0
LINE
  5
4E
330
294
100
AcDbEntity
  8
0 ... Seuil ... Rectangle
100
AcDbLine
 10
559.001255666652
 20
659.6335077409085
 30
0.0
 11
562.001255666652
 21
659.6335077409085
 31
0.0
  0
LINE
  5
4F
330
294
100
AcDbEntity
  8
0 ... Seuil ... Rectangle
100
AcDbLine
 10
2581.801255666653
 20
659.6335077409085
 30
0.0
 11
2584.801255666653
 21
659.6335077409085
 31
0.0
  0
DIMENSION
  5
50
330
294
100
AcDbEntity
  8
0 ... Seuil ... Rectangle ... Cotes Angles
100
AcDbDimension
280
     0
  2
*D6
 10
503.0946898572838
 20
605.6335077409091
 30
0.0
 11
488.0946898572838
 21
751.6335077409088
 31
0.0
 70
   160
 71
     5
 42
292.0000000000005
 73
     0
 74
     0
 75
     0
  3
QCADDimStyle
100
AcDbAlignedDimension
 13
363.4189244815602
 23
897.6335077409095
 33
0.0
 14
399.4598844748152
 24
605.6335077409091
 34
0.0
 50
90.0
100
AcDbRotatedDimension
1001
ACAD
1000
DSTYLE
1002
{
1070
   279
1070
     2
1070
    41
1040
20.0
1070
    79
1070
     2
1070
   176
1070
     0
1070
   177
1070
     0
1070
   178
1070
     0
1070
    44
1040
10.0
1070
    42
1040
5.0
1070
   147
1040
5.0
1070
   142
1040
20.0
1070
   140
1040
20.0
1070
    78
1070
     8
1002
}
  0
DIMENSION
  5
51
330
294
100
AcDbEntity
  8
0 ... Seuil ... Rectangle ... Cotes Angles
100
AcDbDimension
280
     0
  2
*D7
 10
440.8496393565893
 20
647.0232626226731
 30
0.0
 11
454.416855784325
 21
668.2566231025542
 31
0.0
 70
   161
 71
     5
 42
10.00000000000225
 73
     0
 74
     0
 75
     0
  3
QCADDimStyle
100
AcDbAlignedDimension
 13
392.388816662949
 23
612.704575552777
 33
0.0
 14
399.4598844748152
 24
605.6335077409091
 34
0.0
1001
ACAD
1000
DSTYLE
1002
{
1070
   279
1070
     2
1070
    41
1040
20.0
1070
    79
1070
     2
1070
   176
1070
     0
1070
   177
1070
     0
1070
   178
1070
     0
1070
    44
1040
10.0
1070
    42
1040
5.0
1070
   147
1040
5.0
1070
   142
1040
20.0
1070
   140
1040
20.0
1070
    78
1070
     8
1002
}
  0
DIMENSION
  5
52
330
294
100
AcDbEntity
  8
0 ... Seuil ... Rectangle ... Cotes Angles
100
AcDbDimension
280
     0
  2
*D8
 10
399.4598844748121
 20
568.7695603072967
 30
0.0
 11
393.3426901029409
 21
541.5113115272088
 31
0.0
 70
   161
 71
     5
 42
12.0
 73
     0
 74
     0
 75
     0
  3
QCADDimStyle
100
AcDbAlignedDimension
 13
387.4598844748152
 23
605.6335077409101
 33
0.0
 14
399.4598844748152
 24
605.6335077409091
 34
0.0
1001
ACAD
1000
DSTYLE
1002
{
1070
   279
1070
     2
1070
    41
1040
20.0
1070
    79
1070
     2
1070
   176
1070
     0
1070
   177
1070
     0
1070
   178
1070
     0
1070
    44
1040
10.0
1070
    42
1040
5.0
1070
   147
1040
5.0
1070
   142
1040
20.0
1070
   140
1040
20.0
1070
    78
1070
     8
1002
}
  0
DIMENSION
  5
53
330
294
100
AcDbEntity
  8
0 ... Seuil ... Rectangle ... Cotes Angles
100
AcDbDimension
280
     0
  2
*D9
 10
2583.301255666653
 20
947.653630083717
 30
0.0
 11
1571.901255666653
 21
962.6536300837163
 31
0.0
 70
    33
 71
     5
 42
2022.800000000001
 73
     0
 74
     0
 75
     0
  3
QCADDimStyle
100
AcDbAlignedDimension
 13
560.501255666652
 23
897.6335077409087
 33
0.0
 14
2583.301255666653
 24
897.6335077409102
 34
0.0
1001
ACAD
1000
DSTYLE
1002
{
1070
   279
1070
     2
1070
    41
1040
20.0
1070
    79
1070
     2
1070
   176
1070
     0
1070
   177
1070
     0
1070
   178
1070
     0
1070
    44
1040
10.0
1070
    42
1040
5.0
1070
   147
1040
5.0
1070
   142
1040
20.0
1070
   140
1040
20.0
1070
    78
1070
     8
1002
}
  0
LINE
  5
54
330
294
100
AcDbEntity
  8
0 ... Seuil ... Rectangle ... Cotes Angles
100
AcDbLine
 10
555.501255666652
 20
897.6335077409085
 30
0.0
 11
463.9290868454618
 21
897.6335077409085
 31
0.0
  0
LINE
  5
55
330
294
100
AcDbEntity
  8
0 ... Seuil ... Rectangle ... Cotes Angles
100
AcDbLine
 10
463.9290868454618
 20
605.6335077409096
 30
0.0
 11
555.501255666652
 21
605.6335077409096
 31
0.0
  0
LINE
  5
56
330
294
100
AcDbEntity
  8
0 ... Seuil ... Rectangle
100
AcDbLine
 10
562.001255666652
 20
896.1335077409085
 30
0.0
 11
562.001255666652
 21
605.6335077409085
 31
0.0
  0
LINE
  5
57
330
294
100
AcDbEntity
  8
0 ... Seuil ... Rectangle
100
AcDbLine
 10
2581.801255666653
 20
896.1335077409085
 30
0.0
 11
2581.801255666653
 21
605.6335077409085
 31
0.0
  0
DIMENSION
  5
58
330
294
100
AcDbEntity
  8
0 ... Seuil ... Rectangle ... Cotes Angles
100
AcDbDimension
280
     0
  2
*D10
 10
190.1626208804891
 20
659.6335077409074
 30
0.0
 11
175.1626208804891
 21
778.6335077409085
 31
0.0
 70
    32
 71
     5
 42
238.0000000000022
 73
     0
 74
     0
 75
     0
  3
QCADDimStyle
100
AcDbAlignedDimension
 13
343.4189244815611
 23
897.6335077409095
 33
0.0
 14
334.0502345235632
 24
659.6335077409074
 34
0.0
 50
90.0
100
AcDbRotatedDimension
1001
ACAD
1000
DSTYLE
1002
{
1070
   279
1070
     2
1070
    41
1040
20.0
1070
    79
1070
     2
1070
   176
1070
     0
1070
   177
1070
     0
1070
   178
1070
     0
1070
    44
1040
10.0
1070
    42
1040
5.0
1070
   147
1040
5.0
1070
   142
1040
20.0
1070
   140
1040
20.0
1070
    78
1070
     8
1002
}
  0
MTEXT
  5
59
330
294
100
AcDbEntity
  8
0 ... Seuil ... Rectangle ... Cotes Angles
100
AcDbMText
 10
429.2105523193206
 20
1453.71578581248
 30
0.0
 40
100.0
 41
0.0
 46
0.0
 71
     1
 72
     1
  1
(Acier - RAL 7016 - paisseur 15/10e)
  7
textstyle11
 73
     1
 44
1.0
  0
MTEXT
  5
5A
330
294
100
AcDbEntity
  8
0 ... Seuil ... Rectangle ... Cotes Angles
100
AcDbMText
 10
889.697740926549
 20
501.5144164797824
 30
0.0
 40
50.0
 41
0.0
 46
0.0
 71
     1
 72
     1
  1
Relevs
  7
textstyle12
 73
     1
 44
1.0
  0
LEADER
  5
5B
330
294
100
AcDbEntity
  8
0 ... Seuil ... Rectangle ... Cotes Angles
100
AcDbLeader
  3
QCADDimStyle
 76
     2
 10
944.71452734797
 20
359.1993847103925
 30
0.0
 10
1010.370493588172
 20
426.0476179206075
 30
0.0
  0
LEADER
  5
5C
330
294
100
AcDbEntity
  8
0 ... Seuil ... Rectangle ... Cotes Angles
100
AcDbLeader
  3
QCADDimStyle
 76
     4
 10
1534.704498505156
 20
262.9236689527315
 30
0.0
 10
1631.656637417105
 20
382.0773960627346
 30
0.0
 10
1456.330438955243
 20
435.9802726124976
 30
0.0
 10
1010.370493588172
 20
426.0476179206075
 30
0.0
  0
LEADER
  5
5D
330
294
100
AcDbEntity
  8
0 ... Seuil ... Rectangle ... Cotes Angles
100
AcDbLeader
  3
QCADDimStyle
 76
     2
 10
1806.727682302318
 20
896.1335077409085
 30
0.0
 10
976.3071450923799
 20
534.7673006417656
 30
0.0
  0
LEADER
  5
5E
330
294
100
AcDbEntity
  8
0 ... Seuil ... Rectangle ... Cotes Angles
100
AcDbLeader
  3
QCADDimStyle
 76
     2
 10
2581.801255666653
 20
813.1940544533704
 30
0.0
 10
976.3071450923799
 20
534.7673006417656
 30
0.0
  0
LEADER
  5
5F
330
294
100
AcDbEntity
  8
0 ... Seuil ... Rectangle ... Cotes Angles
100
AcDbLeader
  3
QCADDimStyle
 76
     2
 10
562.001255666652
 20
861.5403920405015
 30
0.0
 10
976.3071450923799
 20
534.7673006417656
 30
0.0
  0
LINE
  5
60
330
294
100
AcDbEntity
  8
0 ... Seuil ... Rectangle
100
AcDbLine
 10
2584.801255666653
 20
659.6335077409085
 30
0.0
 11
2584.801255666653
 21
605.6335077409096
 31
0.0
  0
LINE
  5
61
330
294
100
AcDbEntity
  8
0 ... Seuil ... Rectangle
100
AcDbLine
 10
2584.801255666653
 20
605.6335077409096
 30
0.0
 11
2583.301255666653
 21
605.6335077409096
 31
0.0
  0
LINE
  5
62
330
294
100
AcDbEntity
  8
0 ... Seuil ... Rectangle
100
AcDbLine
 10
559.001255666652
 20
659.6335077409085
 30
0.0
 11
559.001255666652
 21
605.6335077409096
 31
0.0
  0
LINE
  5
63
330
294
100
AcDbEntity
  8
0 ... Seuil ... Rectangle
100
AcDbLine
 10
559.001255666652
 20
605.6335077409096
 30
0.0
 11
560.501255666652
 21
605.6335077409096
 31
0.0
  0
LINE
  5
64
330
294
100
AcDbEntity
  8
0 ... Seuil ... Rectangle
100
AcDbLine
 10
387.4598844748152
 20
605.6335077409085
 30
0.0
 11
379.2221272130141
 21
659.6335077409085
 31
0.0
  0
LINE
  5
65
330
294
100
AcDbEntity
  8
0 ... Seuil ... Rectangle
100
AcDbLine
 10
561.501255666652
 20
1177.124913653719
 30
0.0
 11
2582.301255666653
 21
1177.124913653719
 31
0.0
  0
LINE
  5
66
330
294
100
AcDbEntity
  8
0 ... Seuil ... Rectangle
100
AcDbLine
 10
560.5012556666529
 20
1165.124913653719
 30
0.0
 11
2583.301255666654
 21
1165.124913653719
 31
0.0
  0
LINE
  5
67
330
294
100
AcDbEntity
  8
0 ... Seuil ... Rectangle
100
AcDbLine
 10
559.001255666652
 20
1177.124913653719
 30
0.0
 11
559.001255666652
 21
1183.837738934365
 31
0.0
  0
LINE
  5
68
330
294
100
AcDbEntity
  8
0 ... Seuil ... Rectangle
100
AcDbLine
 10
560.501255666652
 20
1178.124913653719
 30
0.0
 11
560.501255666652
 21
1249.257137599519
 31
0.0
  0
LINE
  5
69
330
294
100
AcDbEntity
  8
0 ... Seuil ... Rectangle
100
AcDbLine
 10
562.001255666652
 20
1177.124913653719
 30
0.0
 11
562.001255666652
 21
1183.837738934365
 31
0.0
  0
LINE
  5
6A
330
294
100
AcDbEntity
  8
0 ... Seuil ... Rectangle
100
AcDbLine
 10
2583.301255666653
 20
1178.124913653719
 30
0.0
 11
2583.301255666653
 21
1249.257137599519
 31
0.0
  0
LINE
  5
6B
330
294
100
AcDbEntity
  8
0 ... Seuil ... Rectangle
100
AcDbLine
 10
2581.801255666653
 20
1177.124913653719
 30
0.0
 11
2581.801255666653
 21
1249.257137599519
 31
0.0
  0
LINE
  5
6C
330
294
100
AcDbEntity
  8
0 ... Seuil ... Rectangle
100
AcDbLine
 10
2584.801255666653
 20
1177.124913653719
 30
0.0
 11
2584.801255666653
 21
1183.837738934366
 31
0.0
  0
LINE
  5
6D
330
294
100
AcDbEntity
  8
0 ... Seuil ... Rectangle
100
AcDbLine
 10
560.0012556666529
 20
1184.837738934365
 30
0.0
 11
560.5012556666529
 21
1184.837738934365
 31
0.0
  0
LINE
  5
6E
330
294
100
AcDbEntity
  8
0 ... Seuil ... Rectangle
100
AcDbLine
 10
560.5012556666529
 20
1177.124913653719
 30
0.0
 11
559.001255666652
 21
1177.124913653719
 31
0.0
  0
LINE
  5
6F
330
294
100
AcDbEntity
  8
0 ... Seuil ... Rectangle
100
AcDbLine
 10
2583.801255666653
 20
1184.837738934365
 30
0.0
 11
2583.301255666653
 21
1184.837738934365
 31
0.0
  0
LINE
  5
70
330
294
100
AcDbEntity
  8
0 ... Seuil ... Rectangle
100
AcDbLine
 10
2583.301255666653
 20
1177.124913653719
 30
0.0
 11
2584.801255666653
 21
1177.124913653719
 31
0.0
  0
LINE
  5
71
330
294
100
AcDbEntity
  8
0 ... Seuil ... Rectangle
100
AcDbLine
 10
370.077010245891
 20
804.3206693498314
 30
0.0
 11
369.9462766317702
 21
805.8149613969686
 31
0.0
  0
LINE
  5
72
330
294
100
AcDbEntity
  8
0 ... Seuil ... Rectangle
100
AcDbLine
 10
1724.596101962326
 20
290.9523751151385
 30
0.0
 11
2111.596101962326
 21
290.9523751151385
 31
0.0
  0
LINE
  5
73
330
294
100
AcDbEntity
  8
0 ... Seuil ... Rectangle
100
AcDbLine
 10
2114.596101962326
 20
293.9523751151385
 30
0.0
 11
2114.596101962326
 21
590.9523751151385
 31
0.0
  0
LINE
  5
74
330
294
100
AcDbEntity
  8
0 ... Seuil ... Rectangle
100
AcDbLine
 10
1724.596101962326
 20
295.4523751151385
 30
0.0
 11
2107.096101962326
 21
295.4523751151385
 31
0.0
  0
LINE
  5
75
330
294
100
AcDbEntity
  8
0 ... Seuil ... Rectangle
100
AcDbLine
 10
2110.096101962326
 20
298.4523751151385
 30
0.0
 11
2110.096101962326
 21
590.9523751151385
 31
0.0
  0
ARC
  5
76
330
294
100
AcDbEntity
  8
0 ... Seuil ... Rectangle
100
AcDbCircle
 10
2107.096101962326
 20
298.4523751151385
 30
0.0
 40
3.0
100
AcDbArc
 50
270.0
 51
0.0
  0
ARC
  5
77
330
294
100
AcDbEntity
  8
0 ... Seuil ... Rectangle
100
AcDbCircle
 10
2111.596101962326
 20
293.9523751151385
 30
0.0
 40
3.0
100
AcDbArc
 50
270.0
 51
0.0
  0
LINE
  5
78
330
294
100
AcDbEntity
  8
0 ... Seuil ... Rectangle
100
AcDbLine
 10
2301.08081258894
 20
189.2977686320426
 30
0.0
 11
2718.08081258894
 21
189.2977686320426
 31
0.0
  0
LINE
  5
79
330
294
100
AcDbEntity
  8
0 ... Seuil ... Rectangle
100
AcDbLine
 10
2721.08081258894
 20
192.2977686320426
 30
0.0
 11
2721.08081258894
 21
489.2977686320426
 31
0.0
  0
LINE
  5
7A
330
294
100
AcDbEntity
  8
0 ... Seuil ... Rectangle
100
AcDbLine
 10
2716.58081258894
 20
196.7977686320426
 30
0.0
 11
2716.58081258894
 21
489.2977686320426
 31
0.0
  0
LINE
  5
7B
330
294
100
AcDbEntity
  8
0 ... Seuil ... Rectangle
100
AcDbLine
 10
2301.08081258894
 20
193.7977686320426
 30
0.0
 11
2713.58081258894
 21
193.7977686320426
 31
0.0
  0
LINE
  5
7C
330
294
100
AcDbEntity
  8
0 ... Seuil ... Rectangle
100
AcDbLine
 10
2713.58081258894
 20
489.2977686320426
 30
0.0
 11
2301.08081258894
 21
489.2977686320426
 31
0.0
  0
ARC
  5
7D
330
294
100
AcDbEntity
  8
0 ... Seuil ... Rectangle
100
AcDbCircle
 10
2713.58081258894
 20
196.7977686320426
 30
0.0
 40
3.0
100
AcDbArc
 50
270.0
 51
0.0
  0
ARC
  5
7E
330
294
100
AcDbEntity
  8
0 ... Seuil ... Rectangle
100
AcDbCircle
 10
2718.08081258894
 20
192.2977686320426
 30
0.0
 40
3.0
100
AcDbArc
 50
270.0
 51
0.0
  0
LINE
  5
7F
330
294
100
AcDbEntity
  8
0 ... Seuil ... Rectangle
100
AcDbLine
 10
2713.58081258894
 20
193.7977686320426
 30
0.0
 11
2713.58081258894
 21
489.2977686320426
 31
0.0
  0
LINE
  5
80
330
294
100
AcDbEntity
  8
0 ... Seuil ... Rectangle
100
AcDbLine
 10
2716.58081258894
 20
489.2977686320426
 30
0.0
 11
2721.08081258894
 21
489.2977686320426
 31
0.0
  0
LINE
  5
81
330
294
100
AcDbEntity
  8
0 ... Seuil ... Rectangle
100
AcDbLine
 10
1697.75928585079
 20
-2.437066067151363
 30
0.0
 11
2114.75928585079
 21
-2.437066067151363
 31
0.0
  0
LINE
  5
82
330
294
100
AcDbEntity
  8
0 ... Seuil ... Rectangle
100
AcDbLine
 10
2117.75928585079
 20
-2.437066067151363
 30
0.0
 11
2117.75928585079
 21
147.5629339328486
 31
0.0
  0
LINE
  5
83
330
294
100
AcDbEntity
  8
0 ... Seuil ... Rectangle
100
AcDbLine
 10
2122.25928585079
 20
-2.437066067151363
 30
0.0
 11
2122.25928585079
 21
147.5629339328486
 31
0.0
  0
LINE
  5
84
330
294
100
AcDbEntity
  8
0 ... Seuil ... Rectangle
100
AcDbLine
 10
2113.25928585079
 20
5.062933932848637
 30
0.0
 11
2113.25928585079
 21
147.5629339328486
 31
0.0
  0
LINE
  5
85
330
294
100
AcDbEntity
  8
0 ... Seuil ... Rectangle
100
AcDbLine
 10
1697.75928585079
 20
2.062933932848637
 30
0.0
 11
2110.25928585079
 21
2.062933932848637
 31
0.0
  0
ARC
  5
86
330
294
100
AcDbEntity
  8
0 ... Seuil ... Rectangle
100
AcDbCircle
 10
2110.25928585079
 20
5.062933932848637
 30
0.0
 40
3.0
100
AcDbArc
 50
270.0
 51
0.0
  0
ARC
  5
87
330
294
100
AcDbEntity
  8
0 ... Seuil ... Rectangle
100
AcDbCircle
 10
2117.75928585079
 20
147.5629339328486
 30
0.0
 40
4.5
100
AcDbArc
 50
0.0
 51
180.0
  0
ARC
  5
88
330
294
100
AcDbEntity
  8
0 ... Seuil ... Rectangle
100
AcDbCircle
 10
2114.75928585079
 20
0.5629339328486367
 30
0.0
 40
3.0
100
AcDbArc
 50
270.0
 51
0.0
  0
LINE
  5
89
330
294
100
AcDbEntity
  8
0 ... Seuil ... Rectangle
100
AcDbLine
 10
2117.75928585079
 20
-2.437066067151363
 30
0.0
 11
2122.25928585079
 21
-2.437066067151363
 31
0.0
  0
LINE
  5
8A
330
294
100
AcDbEntity
  8
0 ... Seuil ... Rectangle
100
AcDbLine
 10
2113.25928585079
 20
147.5629339328486
 30
0.0
 11
2113.25928585079
 21
222.9855960246775
 31
0.0
  0
LINE
  5
8B
330
294
100
AcDbEntity
  8
0 ... Seuil ... Rectangle
100
AcDbLine
 10
2117.75928585079
 20
152.0629339328486
 30
0.0
 11
2117.75928585079
 21
222.9855960246755
 31
0.0
  0
LINE
  5
8C
330
294
100
AcDbEntity
  8
0 ... Seuil ... Rectangle
100
AcDbLine
 10
2113.25928585079
 20
222.9855960246775
 30
0.0
 11
2117.75928585079
 21
222.9855960246775
 31
0.0
  0
LINE
  5
8D
330
294
100
AcDbEntity
  8
0 ... Seuil ... Rectangle
100
AcDbLine
 10
1528.378061691888
 20
282.6990853843336
 30
0.0
 11
1528.378061691888
 21
203.6154165583505
 31
0.0
  0
LINE
  5
8E
330
294
100
AcDbEntity
  8
0 ... Seuil ... Rectangle
100
AcDbLine
 10
360.3780616918871
 20
100.5123263860542
 30
0.0
 11
1527.465217434636
 21
202.6192218602596
 31
0.0
  0
LINE
  5
8F
330
294
100
AcDbEntity
  8
0 ... Seuil ... Rectangle
100
AcDbLine
 10
360.3780616918871
 20
106.5352454113136
 30
0.0
 11
360.3780616918871
 21
58.53524541131355
 31
0.0
  0
LINE
  5
90
330
294
100
AcDbEntity
  8
0 ... Seuil ... Rectangle
100
AcDbLine
 10
1522.378061691888
 20
282.6990853843336
 30
0.0
 11
1522.378061691888
 21
202.1741534031776
 31
0.0
  0
LINE
  5
91
330
294
100
AcDbEntity
  8
0 ... Seuil ... Rectangle
100
AcDbLine
 10
366.3780616918871
 20
101.0372583672095
 30
0.0
 11
366.3780616918871
 21
73.02052678555151
 31
0.0
  0
LINE
  5
92
330
294
100
AcDbEntity
  8
0 ... Seuil ... Rectangle
100
AcDbLine
 10
1432.378061691887
 20
282.6990853843336
 30
0.0
 11
1528.378061691888
 21
282.6990853843336
 31
0.0
  0
LINE
  5
93
330
294
100
AcDbEntity
  8
0 ... Seuil ... Rectangle
100
AcDbLine
 10
388.6623329393478
 20
86.81951665877455
 30
0.0
 11
360.3780616918871
 21
58.53524541131355
 31
0.0
  0
LINE
  5
94
330
294
100
AcDbEntity
  8
0 ... Seuil ... Rectangle
100
AcDbLine
 10
384.4196922522278
 20
91.06215734589455
 30
0.0
 11
366.3780616918848
 21
73.02052678555151
 31
0.0
  0
LINE
  5
95
330
294
100
AcDbEntity
  8
0 ... Seuil ... Rectangle
100
AcDbLine
 10
384.4196922522278
 20
91.06215734589455
 30
0.0
 11
388.6623329393478
 21
86.81951665877455
 31
0.0
  0
LINE
  5
96
330
294
100
AcDbEntity
  8
0 ... Seuil ... Rectangle
100
AcDbLine
 10
552.3780616918871
 20
318.0741172916996
 30
0.0
 11
552.3780616918871
 21
117.3101497830296
 31
0.0
  0
LINE
  5
97
330
294
100
AcDbEntity
  8
0 ... Seuil ... Rectangle
100
AcDbLine
 10
552.378061691888
 20
318.0741172917014
 30
0.0
 11
1432.378061691887
 21
395.0641411945155
 31
0.0
  0
LINE
  5
98
330
294
100
AcDbEntity
  8
0 ... Seuil ... Rectangle
100
AcDbLine
 10
1432.378061691887
 20
395.0641411945155
 30
0.0
 11
1432.378061691887
 21
282.6990853843336
 31
0.0
  0
LINE
  5
99
330
294
100
AcDbEntity
  8
0 ... Seuil ... Rectangle
100
AcDbLine
 10
360.3780616918848
 20
106.5352454113136
 30
0.0
 11
552.3780616918871
 21
149.4323845844185
 31
0.0
  0
DIMENSION
  5
9B
330
294
100
AcDbEntity
  8
0 ... Seuil ... Rectangle ... Cotes Angles
100
AcDbDimension
280
     0
  2
*D11
 10
360.3780616918868
 20
58.53524541131355
 30
0.0
 11
242.5752110444516
 21
214.4816698476795
 31
0.0
 70
   162
 71
     5
 42
1.658062789394611
 73
     0
 74
     0
 75
     0
  3
QCADDimStyle
100
AcDb2LineAngularDimension
 13
552.3780616918868
 23
123.3330688082912
 33
0.0
 14
360.3780616918837
 24
106.5352454113139
 34
0.0
 15
360.3780616918868
 25
106.5352454113156
 35
0.0
 16
284.3714697851649
 26
229.7606996700545
 36
0.0
1001
ACAD
1000
DSTYLE
1002
{
1070
   279
1070
     2
1070
    41
1040
20.0
1070
    79
1070
     2
1070
   176
1070
     0
1070
   177
1070
     0
1070
   178
1070
     0
1070
    44
1040
10.0
1070
    42
1040
5.0
1070
   147
1040
5.0
1070
   142
1040
20.0
1070
   140
1040
20.0
1070
    78
1070
     8
1002
}
  0
LEADER
  5
9C
330
294
100
AcDbEntity
  8
0 ... Seuil ... Rectangle ... Cotes Angles
100
AcDbLeader
  3
QCADDimStyle
 76
     3
 10
491.0743005104869
 20
135.7357388800785
 30
0.0
 10
524.258980542812
 20
336.1159951688935
 30
0.0
 10
1010.370493588172
 20
426.0476179206075
 30
0.0
  0
MTEXT
  5
9D
330
294
100
AcDbEntity
  8
0 ... Seuil ... Rectangle ... Cotes Angles
100
AcDbMText
 10
568.7254481771517
 20
303.0464093486982
 30
0.0
 40
50.0
 41
0.0
 46
0.0
 71
     1
 72
     1
  1
A
  7
textstyle13
 73
     1
 44
1.0
  0
MTEXT
  5
9E
330
294
100
AcDbEntity
  8
0 ... Seuil ... Rectangle ... Cotes Angles
100
AcDbMText
 10
533.1463359080678
 20
98.04295294112
 30
0.0
 40
50.0
 41
0.0
 46
0.0
 71
     1
 72
     1
  1
B
  7
textstyle14
 73
     1
 44
1.0
  0
MTEXT
  5
9F
330
294
100
AcDbEntity
  8
0 ... Seuil ... Rectangle ... Cotes Angles
100
AcDbMText
 10
2003.399290818282
 20
127.2564500104911
 30
0.0
 40
50.0
 41
0.0
 46
0.0
 71
     1
 72
     1
  1
B
  7
textstyle15
 73
     1
 44
1.0
  0
MTEXT
  5
A0
330
294
100
AcDbEntity
  8
0 ... Seuil ... Rectangle ... Cotes Angles
100
AcDbMText
 10
1444.088003912011
 20
263.715785812483
 30
0.0
 40
50.0
 41
0.0
 46
0.0
 71
     1
 72
     1
  1
C
  7
textstyle16
 73
     1
 44
1.0
  0
MTEXT
  5
A1
330
294
100
AcDbEntity
  8
0 ... Seuil ... Rectangle ... Cotes Angles
100
AcDbMText
 10
2532.00324453038
 20
369.1944134402623
 30
0.0
 40
50.0
 41
0.0
 46
0.0
 71
     1
 72
     1
  1
C
  7
textstyle17
 73
     1
 44
1.0
  0
MTEXT
  5
A2
330
294
100
AcDbEntity
  8
0 ... Seuil ... Rectangle ... Cotes Angles
100
AcDbMText
 10
1997.300014429296
 20
434.2533615894427
 30
0.0
 40
50.0
 41
0.0
 46
0.0
 71
     1
 72
     1
  1
A
  7
textstyle18
 73
     1
 44
1.0
  0
ARC
  5
A3
330
294
100
AcDbEntity
  8
0 ... Seuil ... Rectangle
100
AcDbCircle
 10
1527.378061691888
 20
203.6154165583505
 30
0.0
 40
1.0
100
AcDbArc
 50
274.9999999999746
 51
0.0
  0
DIMENSION
  5
A4
330
294
100
AcDbEntity
  8
0 ... Seuil ... Rectangle ... Cotes Angles
100
AcDbDimension
280
     0
  2
*D12
 10
1528.378061691888
 20
282.6990853843342
 30
0.0
 11
1580.235136600821
 21
155.1808310519177
 31
0.0
 70
   162
 71
     5
 42
1.658062789394612
 73
     0
 74
     0
 75
     0
  3
QCADDimStyle
100
AcDb2LineAngularDimension
 13
366.3780616918837
 23
101.03725836721
 33
0.0
 14
1527.465217434635
 24
202.6192218602579
 34
0.0
 15
1528.378061691888
 25
203.6154165583471
 35
0.0
 16
1573.177417684981
 26
130.068266737408
 36
0.0
1001
ACAD
1000
DSTYLE
1002
{
1070
   279
1070
     2
1070
    41
1040
20.0
1070
    79
1070
     2
1070
   176
1070
     0
1070
   177
1070
     0
1070
   178
1070
     0
1070
    44
1040
10.0
1070
    42
1040
5.0
1070
   147
1040
5.0
1070
   142
1040
20.0
1070
   140
1040
20.0
1070
    78
1070
     8
1002
}
  0
LINE
  5
A5
330
294
100
AcDbEntity
  8
0 ... Seuil ... Rectangle
100
AcDbLine
 10
560.5012556666529
 20
1184.837738934365
 30
0.0
 11
561.001255666652
 21
1184.837738934365
 31
0.0
  0
LINE
  5
A6
330
294
100
AcDbEntity
  8
0 ... Seuil ... Rectangle
100
AcDbLine
 10
560.5012556666529
 20
1249.257137599519
 30
0.0
 11
562.001255666652
 21
1249.257137599519
 31
0.0
  0
LINE
  5
A7
330
294
100
AcDbEntity
  8
0 ... Seuil ... Rectangle
100
AcDbLine
 10
2582.801255666653
 20
1184.837738934365
 30
0.0
 11
2583.301255666653
 21
1184.837738934365
 31
0.0
  0
LINE
  5
A8
330
294
100
AcDbEntity
  8
0 ... Seuil ... Rectangle
100
AcDbLine
 10
2583.301255666653
 20
1249.257137599519
 30
0.0
 11
2581.801255666653
 21
1249.257137599519
 31
0.0
  0
ARC
  5
A9
330
294
100
AcDbEntity
  8
0 ... Seuil ... Rectangle
100
AcDbCircle
 10
2582.301255666653
 20
1178.124913653719
 30
0.0
 40
1.0
100
AcDbArc
 50
270.0
 51
0.0
  0
LINE
  5
AA
330
294
100
AcDbEntity
  8
0 ... Seuil ... Rectangle
100
AcDbLine
 10
2583.301255666653
 20
1165.124913653719
 30
0.0
 11
2583.301255666653
 21
1178.124913653719
 31
0.0
  0
LINE
  5
AB
330
294
100
AcDbEntity
  8
0 ... Seuil ... Rectangle
100
AcDbLine
 10
2581.801255666653
 20
1177.124913653719
 30
0.0
 11
2581.801255666653
 21
1183.837738934365
 31
0.0
  0
LINE
  5
AC
330
294
100
AcDbEntity
  8
0 ... Seuil ... Rectangle
100
AcDbLine
 10
562.001255666652
 20
1221.165873646974
 30
0.0
 11
2581.801255666653
 21
1221.165873646974
 31
0.0
  0
LINE
  5
AD
330
294
100
AcDbEntity
  8
0 ... Seuil ... Rectangle
100
AcDbLine
 10
562.001255666652
 20
1201.165873646974
 30
0.0
 11
2581.801255666653
 21
1201.165873646974
 31
0.0
  0
ARC
  5
AE
330
294
100
AcDbEntity
  8
0 ... Seuil ... Rectangle
100
AcDbCircle
 10
2582.801255666653
 20
1183.837738934365
 30
0.0
 40
1.0
100
AcDbArc
 50
90.0
 51
180.0
  0
ARC
  5
AF
330
294
100
AcDbEntity
  8
0 ... Seuil ... Rectangle
100
AcDbCircle
 10
2583.801255666653
 20
1183.837738934366
 30
0.0
 40
1.0
100
AcDbArc
 50
0.0
 51
90.0
  0
ARC
  5
B0
330
294
100
AcDbEntity
  8
0 ... Seuil ... Rectangle
100
AcDbCircle
 10
560.001255666652
 20
1183.837738934365
 30
0.0
 40
1.0
100
AcDbArc
 50
89.99999999997394
 51
180.0
  0
ARC
  5
B1
330
294
100
AcDbEntity
  8
0 ... Seuil ... Rectangle
100
AcDbCircle
 10
561.001255666652
 20
1183.837738934365
 30
0.0
 40
1.0
100
AcDbArc
 50
0.0
 51
90.0
  0
LINE
  5
B2
330
294
100
AcDbEntity
  8
0 ... Seuil ... Rectangle
100
AcDbLine
 10
562.001255666652
 20
1177.124913653719
 30
0.0
 11
562.001255666652
 21
1249.257137599519
 31
0.0
  0
ARC
  5
B3
330
294
100
AcDbEntity
  8
0 ... Seuil ... Rectangle
100
AcDbCircle
 10
561.501255666652
 20
1178.124913653719
 30
0.0
 40
1.0
100
AcDbArc
 50
180.0
 51
270.0
  0
LINE
  5
B4
330
294
100
AcDbEntity
  8
0 ... Seuil ... Rectangle
100
AcDbLine
 10
560.5012556666529
 20
1165.124913653719
 30
0.0
 11
560.501255666652
 21
1178.124913653719
 31
0.0
  0
DIMENSION
  5
B5
330
294
100
AcDbEntity
  8
0 ... Seuil ... Rectangle ... Cotes Angles
100
AcDbDimension
280
     0
  2
*D13
 10
384.2412264007497
 20
705.8206900672564
 30
0.0
 11
390.0
 21
729.9999999999998
 31
0.0
 70
   161
 71
     5
 42
5.019099187715653
 73
     0
 74
     0
 75
     0
  3
QCADDimStyle
100
AcDbAlignedDimension
 13
379.2221272130141
 23
659.6335077409091
 33
0.0
 14
384.2412264007298
 24
659.6335077409069
 34
0.0
1001
ACAD
1000
DSTYLE
1002
{
1070
   279
1070
     2
1070
    41
1040
20.0
1070
    79
1070
     2
1070
   176
1070
     0
1070
   177
1070
     0
1070
   178
1070
     0
1070
    44
1040
10.0
1070
    42
1040
5.0
1070
   147
1040
5.0
1070
   142
1040
20.0
1070
   140
1040
20.0
1070
    78
1070
     8
1002
}
  0
DIMENSION
  5
B6
330
294
100
AcDbEntity
  8
0 ... Seuil ... Rectangle ... Cotes Angles
100
AcDbDimension
280
     0
  2
*D14
 10
363.4189244815602
 20
983.7157858124812
 30
0.0
 11
389.2105523193218
 21
998.7157858124842
 31
0.0
 70
   161
 71
     5
 42
19.99999999999915
 73
     0
 74
     0
 75
     0
  3
QCADDimStyle
100
AcDbAlignedDimension
 13
343.4189244815611
 23
897.6335077409095
 33
0.0
 14
363.4189244815602
 24
897.6335077409095
 34
0.0
1001
ACAD
1000
DSTYLE
1002
{
1070
   279
1070
     2
1070
    41
1040
20.0
1070
    79
1070
     2
1070
   176
1070
     0
1070
   177
1070
     0
1070
   178
1070
     0
1070
    44
1040
10.0
1070
    42
1040
5.0
1070
   147
1040
5.0
1070
   142
1040
20.0
1070
   140
1040
20.0
1070
    78
1070
     8
1002
}
  0
DIMENSION
  5
B7
330
294
100
AcDbEntity
  8
0 ... Seuil ... Rectangle ... Cotes Angles
100
AcDbDimension
280
     0
  2
*D15
 10
343.4189244815611
 20
943.7157858124822
 30
0.0
 11
289.2105523193218
 21
958.7157858124802
 31
0.0
 70
   160
 71
     5
 42
28.09126395254629
 73
     0
 74
     0
 75
     0
  3
QCADDimStyle
100
AcDbAlignedDimension
 13
315.3276605290148
 23
873.633507740907
 33
0.0
 14
343.4189244815611
 24
897.6335077409095
 34
0.0
100
AcDbRotatedDimension
1001
ACAD
1000
DSTYLE
1002
{
1070
   279
1070
     2
1070
    41
1040
20.0
1070
    79
1070
     2
1070
   176
1070
     0
1070
   177
1070
     0
1070
   178
1070
     0
1070
    44
1040
10.0
1070
    42
1040
5.0
1070
   147
1040
5.0
1070
   142
1040
20.0
1070
   140
1040
20.0
1070
    78
1070
     8
1002
}
  0
MTEXT
  5
B8
330
294
100
AcDbEntity
  8
0 ... Seuil ... Rectangle ... Cotes Angles
100
AcDbMText
 10
169.9932299115389
 20
1602.437066067151
 30
0.0
 40
100.0
 41
0.0
 46
0.0
 71
     1
 72
     1
  1
Baie 5 (ouest) - Seuil - Dessus, Profil & Face\P
  7
textstyle19
 73
     1
 44
1.0
  0
DIMENSION
  5
B9
330
294
100
AcDbEntity
  8
0 ... Seuil ... Rectangle ... Cotes Angles
100
AcDbDimension
280
     0
  2
*D16
 10
539.3294920927128
 20
659.6335077409095
 30
0.0
 11
524.3294920927128
 21
778.6335077409092
 31
0.0
 70
    32
 71
     5
 42
237.9999999999992
 73
     0
 74
     0
 75
     0
  3
QCADDimStyle
100
AcDbAlignedDimension
 13
560.501255666652
 23
897.6335077409087
 33
0.0
 14
560.501255666652
 24
659.6335077409095
 34
0.0
 50
90.0
100
AcDbRotatedDimension
1001
ACAD
1000
DSTYLE
1002
{
1070
   279
1070
     2
1070
    41
1040
20.0
1070
    79
1070
     2
1070
   176
1070
     0
1070
   177
1070
     0
1070
   178
1070
     0
1070
    44
1040
10.0
1070
    42
1040
5.0
1070
   147
1040
5.0
1070
   142
1040
20.0
1070
   140
1040
20.0
1070
    78
1070
     8
1002
}
  0
ENDSEC
  0
SECTION
  2
OBJECTS
  0
DICTIONARY
  5
282
330
0
100
AcDbDictionary
281
     1
  3
ACAD_DETAILVIEWSTYLE
350
42C
  3
ACAD_GROUP
350
283
  3
ACAD_LAYOUT
350
28F
  3
ACAD_MATERIAL
350
2B8
  3
ACAD_MLEADERSTYLE
350
2E0
  3
ACAD_MLINESTYLE
350
28C
  3
ACAD_PLOTSETTINGS
350
28E
  3
ACAD_PLOTSTYLENAME
350
284
  3
ACAD_SCALELIST
350
2BC
  3
ACAD_SECTIONVIEWSTYLE
350
42D
  3
ACAD_TABLESTYLE
350
2DE
  3
ACAD_VISUALSTYLE
350
29F
  3
ACDB_RECOMPOSE_DATA
350
429
  3
AcDbVariableDictionary
350
425
  3
QCAD_OBJECTS
350
2E4
  0
SUN
  5
2E2
330
29E
100
AcDbSun
 90
        1
290
     0
 63
     7
421
 16777215
 40
1.0
291
     1
 91
  2455826
 92
 54000000
292
     0
 70
     2
 71
   256
280
     1
  0
DICTIONARY
  5
42C
102
{ACAD_REACTORS
330
282
102
}
330
282
100
AcDbDictionary
281
     1
  0
DICTIONARY
  5
283
102
{ACAD_REACTORS
330
282
102
}
330
282
100
AcDbDictionary
281
     1
  0
DICTIONARY
  5
28F
102
{ACAD_REACTORS
330
282
102
}
330
282
100
AcDbDictionary
281
     1
  3
Layout1
350
293
  3
Layout2
350
29B
  3
Model
350
297
  0
DICTIONARY
  5
2B8
102
{ACAD_REACTORS
330
282
102
}
330
282
100
AcDbDictionary
281
     1
  3
ByBlock
350
2BA
  3
ByLayer
350
2B9
  3
Global
350
2BB
  0
DICTIONARY
  5
2E0
102
{ACAD_REACTORS
330
282
102
}
330
282
100
AcDbDictionary
281
     1
  3
Standard
350
2E1
  0
DICTIONARY
  5
28C
102
{ACAD_REACTORS
330
282
102
}
330
282
100
AcDbDictionary
281
     1
  3
Standard
350
28D
  0
DICTIONARY
  5
28E
102
{ACAD_REACTORS
330
282
102
}
330
282
100
AcDbDictionary
281
     1
  0
ACDBDICTIONARYWDFLT
  5
284
102
{ACAD_REACTORS
330
282
102
}
330
282
100
AcDbDictionary
281
     1
  3
Normal
350
285
100
AcDbDictionaryWithDefault
340
285
  0
DICTIONARY
  5
2BC
102
{ACAD_REACTORS
330
282
102
}
330
282
100
AcDbDictionary
281
     1
  3
A0
350
2BD
  3
A1
350
2BE
  3
A2
350
2BF
  3
A3
350
2C0
  3
A4
350
2C1
  3
A5
350
2C2
  3
A6
350
2C3
  3
A7
350
2C4
  3
A8
350
2C5
  3
A9
350
2C6
  3
B0
350
2C7
  3
B1
350
2C8
  3
B2
350
2C9
  3
B3
350
2CA
  3
B4
350
2CB
  3
B5
350
2CC
  3
B6
350
2CD
  3
B7
350
2CE
  3
B8
350
2CF
  3
B9
350
2D0
  3
C0
350
2D1
  3
C1
350
2D2
  3
C2
350
2D3
  3
C3
350
2D4
  3
C4
350
2D5
  3
C5
350
2D6
  3
C6
350
2D7
  3
C7
350
2D8
  3
C8
350
2D9
  3
C9
350
2DA
  3
D0
350
2DB
  3
D1
350
2DC
  3
D2
350
2DD
  0
DICTIONARY
  5
42D
102
{ACAD_REACTORS
330
282
102
}
330
282
100
AcDbDictionary
281
     1
  0
DICTIONARY
  5
2DE
102
{ACAD_REACTORS
330
282
102
}
330
282
100
AcDbDictionary
281
     1
  3
Standard
350
2DF
  0
DICTIONARY
  5
29F
102
{ACAD_REACTORS
330
282
102
}
330
282
100
AcDbDictionary
281
     1
  3
2dWireframe
350
2A4
  3
Basic
350
2A7
  3
Brighten
350
2AB
  3
ColorChange
350
2AF
  3
Conceptual
350
2A9
  3
Dim
350
2AA
  3
EdgeColorOff
350
2B2
  3
Facepattern
350
2AE
  3
Flat
350
2A0
  3
FlatWithEdges
350
2A1
  3
Gouraud
350
2A2
  3
GouraudWithEdges
350
2A3
  3
Hidden
350
2A6
  3
JitterOff
350
2B0
  3
Linepattern
350
2AD
  3
OverhangOff
350
2B1
  3
Realistic
350
2A8
  3
Shaded
350
2B7
  3
Shaded with edges
350
2B6
  3
Shades of Gray
350
2B3
  3
Sketchy
350
2B4
  3
Thicken
350
2AC
  3
Wireframe
350
2A5
  3
X-Ray
350
2B5
  0
XRECORD
  5
429
102
{ACAD_REACTORS
330
282
102
}
330
282
100
AcDbXrecord
280
     1
 90
        1
330
2DF
  0
DICTIONARY
  5
425
102
{ACAD_REACTORS
330
282
102
}
330
282
100
AcDbDictionary
281
     1
  3
CANNOSCALE
350
426
  3
CMLEADERSTYLE
350
42B
  3
CTABLESTYLE
350
42A
  0
DICTIONARY
  5
2E4
102
{ACAD_REACTORS
330
282
102
}
330
282
100
AcDbDictionary
281
     1
  3
DimensionSettings/AngularFormat
350
2E6
  3
DimensionSettings/AngularPrecision
350
2E7
  3
DimensionSettings/DimensionFont
350
2E8
  3
DimensionSettings/KeepProportions
350
2E9
  3
DimensionSettings/LinearFormat
350
2EA
  3
DimensionSettings/LinearPrecision
350
2EB
  3
Grid/DisplayGrid00
350
2EC
  3
Grid/DisplayGrid01
350
2ED
  3
Grid/DisplayGrid02
350
2EE
  3
Grid/DisplayGrid03
350
2EF
  3
Grid/GridSpacingX00
350
2F0
  3
Grid/GridSpacingX01
350
2F1
  3
Grid/GridSpacingX02
350
2F2
  3
Grid/GridSpacingX03
350
2F3
  3
Grid/GridSpacingY00
350
2F4
  3
Grid/GridSpacingY01
350
2F5
  3
Grid/GridSpacingY02
350
2F6
  3
Grid/GridSpacingY03
350
2F7
  3
Grid/IsometricGrid00
350
2F8
  3
Grid/IsometricGrid01
350
2F9
  3
Grid/IsometricGrid02
350
2FA
  3
Grid/IsometricGrid03
350
2FB
  3
Grid/IsometricProjection00
350
2FC
  3
Grid/IsometricProjection01
350
2FD
  3
Grid/IsometricProjection02
350
2FE
  3
Grid/IsometricProjection03
350
2FF
  3
Grid/MetaGridSpacingX00
350
300
  3
Grid/MetaGridSpacingX01
350
301
  3
Grid/MetaGridSpacingX02
350
302
  3
Grid/MetaGridSpacingX03
350
303
  3
Grid/MetaGridSpacingY00
350
304
  3
Grid/MetaGridSpacingY01
350
305
  3
Grid/MetaGridSpacingY02
350
306
  3
Grid/MetaGridSpacingY03
350
307
  3
MultiPageSettings/Columns
350
308
  3
MultiPageSettings/GlueMarginsBottom
350
309
  3
MultiPageSettings/GlueMarginsLeft
350
30A
  3
MultiPageSettings/GlueMarginsRight
350
30B
  3
MultiPageSettings/GlueMarginsTop
350
30C
  3
MultiPageSettings/PrintCropMarks
350
30D
  3
MultiPageSettings/Rows
350
30E
  3
PageSettings/OffsetX
350
30F
  3
PageSettings/OffsetY
350
310
  3
PageSettings/PageOrientation
350
311
  3
PageSettings/PaperHeight
350
312
  3
PageSettings/PaperWidth
350
313
  3
PageSettings/Scale
350
314
  3
PageSettings/ShowPaperBorders
350
315
  3
QCADVersion
350
316
  3
UnitSettings/PaperUnit
350
317
  0
LAYOUT
  5
293
102
{ACAD_REACTORS
330
28F
102
}
330
28F
100
AcDbPlotSettings
  1

  2
none_device
  4

  6

 40
0.0
 41
0.0
 42
0.0
 43
0.0
 44
0.0
 45
0.0
 46
0.0
 47
0.0
 48
0.0
 49
0.0
140
0.0
141
0.0
142
1.0
143
1.0
 70
   688
 72
     0
 73
     0
 74
     5
  7

 75
    16
 76
     0
 77
     2
 78
   300
147
1.0
148
0.0
149
0.0
100
AcDbLayout
  1
Layout1
 70
     1
 71
     1
 10
0.0
 20
0.0
 11
12.0
 21
9.0
 12
0.0
 22
0.0
 32
0.0
 14
1.000000000000000E+20
 24
1.000000000000000E+20
 34
1.000000000000000E+20
 15
-1.000000000000000E+20
 25
-1.000000000000000E+20
 35
-1.000000000000000E+20
146
0.0
 13
0.0
 23
0.0
 33
0.0
 16
1.0
 26
0.0
 36
0.0
 17
0.0
 27
1.0
 37
0.0
 76
     0
330
290
  0
LAYOUT
  5
29B
102
{ACAD_REACTORS
330
28F
102
}
330
28F
100
AcDbPlotSettings
  1

  2
none_device
  4

  6

 40
0.0
 41
0.0
 42
0.0
 43
0.0
 44
0.0
 45
0.0
 46
0.0
 47
0.0
 48
0.0
 49
0.0
140
0.0
141
0.0
142
1.0
143
1.0
 70
   688
 72
     0
 73
     0
 74
     5
  7

 75
    16
 76
     0
 77
     2
 78
   300
147
1.0
148
0.0
149
0.0
100
AcDbLayout
  1
Layout2
 70
     1
 71
     2
 10
0.0
 20
0.0
 11
0.0
 21
0.0
 12
0.0
 22
0.0
 32
0.0
 14
0.0
 24
0.0
 34
0.0
 15
0.0
 25
0.0
 35
0.0
146
0.0
 13
0.0
 23
0.0
 33
0.0
 16
1.0
 26
0.0
 36
0.0
 17
0.0
 27
1.0
 37
0.0
 76
     0
330
298
  0
LAYOUT
  5
297
102
{ACAD_REACTORS
330
28F
102
}
330
28F
100
AcDbPlotSettings
  1

  2
none_device
  4
Letter_(8.50_x_11.00_Inches)
  6

 40
6.35
 41
6.35
 42
6.35000508
 43
6.35000508
 44
215.9
 45
279.4
 46
0.0
 47
0.0
 48
0.0
 49
0.0
140
0.0
141
0.0
142
1.0
143
1.0
 70
  1712
 72
     0
 73
     0
 74
     0
  7

 75
     0
 76
     0
 77
     2
 78
   300
147
1.0
148
0.0
149
0.0
100
AcDbLayout
  1
Model
 70
     1
 71
     0
 10
0.0
 20
0.0
 11
12.0
 21
9.0
 12
0.0
 22
0.0
 32
0.0
 14
1.000000000000000E+20
 24
1.000000000000000E+20
 34
1.000000000000000E+20
 15
-1.000000000000000E+20
 25
-1.000000000000000E+20
 35
-1.000000000000000E+20
146
0.0
 13
0.0
 23
0.0
 33
0.0
 16
1.0
 26
0.0
 36
0.0
 17
0.0
 27
1.0
 37
0.0
 76
     0
330
294
331
29E
  0
MATERIAL
  5
2BA
102
{ACAD_REACTORS
330
2B8
102
}
330
2B8
100
AcDbMaterial
  1
ByBlock
 72
     1
 94
      127
  0
MATERIAL
  5
2B9
102
{ACAD_REACTORS
330
2B8
102
}
330
2B8
100
AcDbMaterial
  1
ByLayer
 72
     1
 94
      127
  0
MATERIAL
  5
2BB
102
{ACAD_REACTORS
330
2B8
102
}
330
2B8
100
AcDbMaterial
  1
Global
 72
     1
 94
      127
  0
MLEADERSTYLE
  5
2E1
102
{ACAD_REACTORS
330
2E0
102
}
330
2E0
100
AcDbMLeaderStyle
179
     2
170
     2
171
     1
172
     0
 90
        2
 40
0.0
 41
0.0
173
     1
 91
-1056964608
340
289
 92
       -2
290
     1
 42
0.09
291
     1
 43
0.36
  3
Standard
341
0
 44
0.18
300

342
287
174
     1
178
     6
175
     1
176
     0
 93
-1056964608
 45
0.18
292
     0
297
     0
 46
0.18
343
0
 94
-1056964608
 47
1.0
 49
1.0
140
1.0
293
     1
141
0.0
294
     1
177
     0
142
1.0
295
     0
296
     0
143
0.125
271
     0
272
     9
273
     9
298
     0
  0
MLINESTYLE
  5
28D
102
{ACAD_REACTORS
330
28C
102
}
330
28C
100
AcDbMlineStyle
  2
Standard
 70
     0
  3

 62
   256
 51
90.0
 52
90.0
 71
     2
 49
0.5
 62
   256
  6
BYLAYER
 49
-0.5
 62
   256
  6
BYLAYER
  0
ACDBPLACEHOLDER
  5
285
102
{ACAD_REACTORS
330
284
102
}
330
284
  0
SCALE
  5
2BD
102
{ACAD_REACTORS
330
2BC
102
}
330
2BC
100
AcDbScale
 70
     0
300
1:1
140
1.0
141
1.0
290
     1
  0
SCALE
  5
2BE
102
{ACAD_REACTORS
330
2BC
102
}
330
2BC
100
AcDbScale
 70
     0
300
1:2
140
1.0
141
2.0
290
     0
  0
SCALE
  5
2BF
102
{ACAD_REACTORS
330
2BC
102
}
330
2BC
100
AcDbScale
 70
     0
300
1:4
140
1.0
141
4.0
290
     0
  0
SCALE
  5
2C0
102
{ACAD_REACTORS
330
2BC
102
}
330
2BC
100
AcDbScale
 70
     0
300
1:5
140
1.0
141
5.0
290
     0
  0
SCALE
  5
2C1
102
{ACAD_REACTORS
330
2BC
102
}
330
2BC
100
AcDbScale
 70
     0
300
1:8
140
1.0
141
8.0
290
     0
  0
SCALE
  5
2C2
102
{ACAD_REACTORS
330
2BC
102
}
330
2BC
100
AcDbScale
 70
     0
300
1:10
140
1.0
141
10.0
290
     0
  0
SCALE
  5
2C3
102
{ACAD_REACTORS
330
2BC
102
}
330
2BC
100
AcDbScale
 70
     0
300
1:16
140
1.0
141
16.0
290
     0
  0
SCALE
  5
2C4
102
{ACAD_REACTORS
330
2BC
102
}
330
2BC
100
AcDbScale
 70
     0
300
1:20
140
1.0
141
20.0
290
     0
  0
SCALE
  5
2C5
102
{ACAD_REACTORS
330
2BC
102
}
330
2BC
100
AcDbScale
 70
     0
300
1:30
140
1.0
141
30.0
290
     0
  0
SCALE
  5
2C6
102
{ACAD_REACTORS
330
2BC
102
}
330
2BC
100
AcDbScale
 70
     0
300
1:40
140
1.0
141
40.0
290
     0
  0
SCALE
  5
2C7
102
{ACAD_REACTORS
330
2BC
102
}
330
2BC
100
AcDbScale
 70
     0
300
1:50
140
1.0
141
50.0
290
     0
  0
SCALE
  5
2C8
102
{ACAD_REACTORS
330
2BC
102
}
330
2BC
100
AcDbScale
 70
     0
300
1:100
140
1.0
141
100.0
290
     0
  0
SCALE
  5
2C9
102
{ACAD_REACTORS
330
2BC
102
}
330
2BC
100
AcDbScale
 70
     0
300
2:1
140
2.0
141
1.0
290
     0
  0
SCALE
  5
2CA
102
{ACAD_REACTORS
330
2BC
102
}
330
2BC
100
AcDbScale
 70
     0
300
4:1
140
4.0
141
1.0
290
     0
  0
SCALE
  5
2CB
102
{ACAD_REACTORS
330
2BC
102
}
330
2BC
100
AcDbScale
 70
     0
300
8:1
140
8.0
141
1.0
290
     0
  0
SCALE
  5
2CC
102
{ACAD_REACTORS
330
2BC
102
}
330
2BC
100
AcDbScale
 70
     0
300
10:1
140
10.0
141
1.0
290
     0
  0
SCALE
  5
2CD
102
{ACAD_REACTORS
330
2BC
102
}
330
2BC
100
AcDbScale
 70
     0
300
100:1
140
100.0
141
1.0
290
     0
  0
SCALE
  5
2CE
102
{ACAD_REACTORS
330
2BC
102
}
330
2BC
100
AcDbScale
 70
     0
300
1/128" = 1'-0"
140
0.0078125
141
12.0
290
     0
  0
SCALE
  5
2CF
102
{ACAD_REACTORS
330
2BC
102
}
330
2BC
100
AcDbScale
 70
     0
300
1/64" = 1'-0"
140
0.015625
141
12.0
290
     0
  0
SCALE
  5
2D0
102
{ACAD_REACTORS
330
2BC
102
}
330
2BC
100
AcDbScale
 70
     0
300
1/32" = 1'-0"
140
0.03125
141
12.0
290
     0
  0
SCALE
  5
2D1
102
{ACAD_REACTORS
330
2BC
102
}
330
2BC
100
AcDbScale
 70
     0
300
1/16" = 1'-0"
140
0.0625
141
12.0
290
     0
  0
SCALE
  5
2D2
102
{ACAD_REACTORS
330
2BC
102
}
330
2BC
100
AcDbScale
 70
     0
300
3/32" = 1'-0"
140
0.09375
141
12.0
290
     0
  0
SCALE
  5
2D3
102
{ACAD_REACTORS
330
2BC
102
}
330
2BC
100
AcDbScale
 70
     0
300
1/8" = 1'-0"
140
0.125
141
12.0
290
     0
  0
SCALE
  5
2D4
102
{ACAD_REACTORS
330
2BC
102
}
330
2BC
100
AcDbScale
 70
     0
300
3/16" = 1'-0"
140
0.1875
141
12.0
290
     0
  0
SCALE
  5
2D5
102
{ACAD_REACTORS
330
2BC
102
}
330
2BC
100
AcDbScale
 70
     0
300
1/4" = 1'-0"
140
0.25
141
12.0
290
     0
  0
SCALE
  5
2D6
102
{ACAD_REACTORS
330
2BC
102
}
330
2BC
100
AcDbScale
 70
     0
300
3/8" = 1'-0"
140
0.375
141
12.0
290
     0
  0
SCALE
  5
2D7
102
{ACAD_REACTORS
330
2BC
102
}
330
2BC
100
AcDbScale
 70
     0
300
1/2" = 1'-0"
140
0.5
141
12.0
290
     0
  0
SCALE
  5
2D8
102
{ACAD_REACTORS
330
2BC
102
}
330
2BC
100
AcDbScale
 70
     0
300
3/4" = 1'-0"
140
0.75
141
12.0
290
     0
  0
SCALE
  5
2D9
102
{ACAD_REACTORS
330
2BC
102
}
330
2BC
100
AcDbScale
 70
     0
300
1" = 1'-0"
140
1.0
141
12.0
290
     0
  0
SCALE
  5
2DA
102
{ACAD_REACTORS
330
2BC
102
}
330
2BC
100
AcDbScale
 70
     0
300
1-1/2" = 1'-0"
140
1.5
141
12.0
290
     0
  0
SCALE
  5
2DB
102
{ACAD_REACTORS
330
2BC
102
}
330
2BC
100
AcDbScale
 70
     0
300
3" = 1'-0"
140
3.0
141
12.0
290
     0
  0
SCALE
  5
2DC
102
{ACAD_REACTORS
330
2BC
102
}
330
2BC
100
AcDbScale
 70
     0
300
6" = 1'-0"
140
6.0
141
12.0
290
     0
  0
SCALE
  5
2DD
102
{ACAD_REACTORS
330
2BC
102
}
330
2BC
100
AcDbScale
 70
     0
300
1'-0" = 1'-0"
140
12.0
141
12.0
290
     0
  0
TABLESTYLE
  5
2DF
102
{ACAD_REACTORS
330
2DE
102
}
102
{ACAD_XDICTIONARY
360
427
102
}
330
2DE
100
AcDbTableStyle
  3
Standard
 70
     0
 71
     0
 40
0.06
 41
0.06
280
     0
281
     0
  7
Standard
140
0.18
170
     2
 62
     0
 63
   257
283
     0
 90
        4
 91
        0
  1

274
    -2
284
     1
 64
     0
275
    -2
285
     1
 65
     0
276
    -2
286
     1
 66
     0
277
    -2
287
     1
 67
     0
278
    -2
288
     1
 68
     0
279
    -2
289
     1
 69
     0
  7
Standard
140
0.25
170
     5
 62
     0
 63
   257
283
     0
 90
        4
 91
        0
  1

274
    -2
284
     1
 64
     0
275
    -2
285
     1
 65
     0
276
    -2
286
     1
 66
     0
277
    -2
287
     1
 67
     0
278
    -2
288
     1
 68
     0
279
    -2
289
     1
 69
     0
  7
Standard
140
0.18
170
     5
 62
     0
 63
   257
283
     0
 90
        4
 91
        0
  1

274
    -2
284
     1
 64
     0
275
    -2
285
     1
 65
     0
276
    -2
286
     1
 66
     0
277
    -2
287
     1
 67
     0
278
    -2
288
     1
 68
     0
279
    -2
289
     1
 69
     0
  0
VISUALSTYLE
  5
2A4
102
{ACAD_REACTORS
330
29F
102
}
330
29F
100
AcDbVisualStyle
  2
2dWireframe
 70
     4
177
     3
291
     0
 70
    58
 90
        0
176
     1
 90
        2
176
     1
 90
        0
176
     1
 90
        0
176
     1
 40
0.6
176
     1
 40
30.0
176
     1
 62
     7
420
 16777215
176
     1
 90
        1
176
     1
 90
        4
176
     1
 62
     7
176
     1
 62
   257
176
     1
 90
        1
176
     1
 90
        1
176
     1
 40
1.0
176
     1
 90
        0
176
     1
 62
   257
176
     1
 40
1.0
176
     1
 90
        1
176
     1
 90
        6
176
     1
 90
        2
176
     1
 62
     7
176
     1
 90
        5
176
     1
 90
        0
176
     1
 90
        0
176
     1
290
     0
176
     1
 90
        1
176
     1
 40
0.0
176
     1
 90
        0
176
     1
290
     1
176
     1
290
     1
176
     1
290
     0
176
     1
290
     0
176
     1
290
     0
176
     1
290
     0
176
     1
290
     0
176
     1
290
     0
176
     1
290
     0
176
     1
 90
       50
176
     1
 40
0.0
176
     1
 40
1.0
176
     1
 90
        0
176
     1
 62
   178
420
        0
176
     1
 90
       50
176
     1
 90
        3
176
     1
 62
     5
420
      255
176
     1
290
     0
176
     1
 90
       50
176
     1
 90
       50
176
     1
 90
       50
176
     1
290
     0
176
     1
 90
       50
176
     1
 62
   256
176
     0
 40
1.0
176
     0
 90
        2
176
     1
  1
strokes_ogs.tif
176
     1
290
     0
176
     1
 40
1.0
176
     1
 40
1.0
176
     1
  0
VISUALSTYLE
  5
2A7
102
{ACAD_REACTORS
330
29F
102
}
330
29F
100
AcDbVisualStyle
  2
Basic
 70
     7
177
     3
291
     1
 70
    58
 90
        1
176
     1
 90
        0
176
     1
 90
        1
176
     1
 90
        0
176
     1
 40
0.6
176
     1
 40
30.0
176
     1
 62
     7
420
 16777215
176
     1
 90
        0
176
     1
 90
        4
176
     1
 62
     7
176
     1
 62
   257
176
     1
 90
        1
176
     1
 90
        1
176
     1
 40
1.0
176
     1
 90
        8
176
     1
 62
     7
176
     1
 40
1.0
176
     1
 90
        1
176
     1
 90
        6
176
     1
 90
        2
176
     1
 62
     7
176
     1
 90
        5
176
     1
 90
        0
176
     1
 90
        0
176
     1
290
     0
176
     1
 90
        1
176
     1
 40
0.0
176
     1
 90
        0
176
     1
290
     0
176
     1
290
     1
176
     1
290
     1
176
     1
290
     0
176
     1
290
     0
176
     1
290
     0
176
     1
290
     0
176
     1
290
     0
176
     1
290
     0
176
     1
 90
       50
176
     1
 40
0.0
176
     1
 40
1.0
176
     1
 90
        0
176
     1
 62
   178
420
        0
176
     1
 90
       50
176
     1
 90
        3
176
     1
 62
     5
420
      255
176
     1
290
     0
176
     1
 90
       50
176
     1
 90
       50
176
     1
 90
       50
176
     1
290
     0
176
     1
 90
       50
176
     1
 62
   256
176
     0
 40
1.0
176
     0
 90
        2
176
     1
  1
strokes_ogs.tif
176
     1
290
     0
176
     1
 40
1.0
176
     1
 40
1.0
176
     1
  0
VISUALSTYLE
  5
2AB
102
{ACAD_REACTORS
330
29F
102
}
330
29F
100
AcDbVisualStyle
  2
Brighten
 70
    12
177
     3
291
     1
 70
    58
 90
        2
176
     1
 90
        2
176
     1
 90
        0
176
     1
 90
        0
176
     1
 40
0.6
176
     1
 40
30.0
176
     1
 62
     7
420
 16777215
176
     1
 90
        1
176
     1
 90
        4
176
     1
 62
     7
176
     1
 62
   257
176
     1
 90
        1
176
     1
 90
        1
176
     1
 40
1.0
176
     1
 90
        8
176
     1
 62
     7
176
     1
 40
1.0
176
     1
 90
        1
176
     1
 90
        6
176
     1
 90
        2
176
     1
 62
     7
176
     1
 90
        5
176
     1
 90
        0
176
     1
 90
        0
176
     1
290
     0
176
     1
 90
        1
176
     1
 40
50.0
176
     1
 90
        0
176
     1
290
     0
176
     1
290
     1
176
     1
290
     1
176
     1
290
     0
176
     1
290
     0
176
     1
290
     0
176
     1
290
     0
176
     1
290
     0
176
     1
290
     0
176
     1
 90
       50
176
     1
 40
0.0
176
     1
 40
1.0
176
     1
 90
        0
176
     1
 62
   178
420
        0
176
     1
 90
       50
176
     1
 90
        3
176
     1
 62
     5
420
      255
176
     1
290
     0
176
     1
 90
       50
176
     1
 90
       50
176
     1
 90
       50
176
     1
290
     0
176
     1
 90
       50
176
     1
 62
   256
176
     0
 40
1.0
176
     0
 90
        2
176
     1
  1
strokes_ogs.tif
176
     1
290
     0
176
     1
 40
1.0
176
     1
 40
1.0
176
     1
  0
VISUALSTYLE
  5
2AF
102
{ACAD_REACTORS
330
29F
102
}
330
29F
100
AcDbVisualStyle
  2
ColorChange
 70
    16
177
     3
291
     1
 70
    58
 90
        2
176
     1
 90
        2
176
     1
 90
        3
176
     1
 90
        0
176
     1
 40
0.6
176
     1
 40
30.0
176
     1
 62
     8
420
  8421504
176
     1
 90
        1
176
     1
 90
        4
176
     1
 62
     7
176
     1
 62
   257
176
     1
 90
        1
176
     1
 90
        1
176
     1
 40
1.0
176
     1
 90
        8
176
     1
 62
     8
420
  8421504
176
     1
 40
1.0
176
     1
 90
        1
176
     1
 90
        6
176
     1
 90
        2
176
     1
 62
     7
176
     1
 90
        5
176
     1
 90
        0
176
     1
 90
        0
176
     1
290
     0
176
     1
 90
        1
176
     1
 40
0.0
176
     1
 90
        0
176
     1
290
     0
176
     1
290
     1
176
     1
290
     1
176
     1
290
     0
176
     1
290
     0
176
     1
290
     0
176
     1
290
     0
176
     1
290
     0
176
     1
290
     0
176
     1
 90
       50
176
     1
 40
0.0
176
     1
 40
1.0
176
     1
 90
        0
176
     1
 62
   178
420
        0
176
     1
 90
       50
176
     1
 90
        3
176
     1
 62
     5
420
      255
176
     1
290
     0
176
     1
 90
       50
176
     1
 90
       50
176
     1
 90
       50
176
     1
290
     0
176
     1
 90
       50
176
     1
 62
   256
176
     0
 40
1.0
176
     0
 90
        2
176
     1
  1
strokes_ogs.tif
176
     1
290
     0
176
     1
 40
1.0
176
     1
 40
1.0
176
     1
  0
VISUALSTYLE
  5
2A9
102
{ACAD_REACTORS
330
29F
102
}
330
29F
100
AcDbVisualStyle
  2
Conceptual
 70
     9
177
     3
291
     0
 70
    58
 90
        3
176
     1
 90
        2
176
     1
 90
        0
176
     1
 90
        0
176
     1
 40
0.6
176
     1
 40
30.0
176
     1
 62
     7
420
 16777215
176
     1
 90
        2
176
     1
 90
        2
176
     1
 62
     7
176
     1
 62
   257
176
     1
 90
        1
176
     1
 90
        1
176
     1
 40
179.0
176
     1
 90
        8
176
     1
 62
     7
176
     1
 40
1.0
176
     1
 90
        1
176
     1
 90
        6
176
     1
 90
        2
176
     1
 62
     7
176
     1
 90
        3
176
     1
 90
        0
176
     1
 90
        0
176
     1
290
     0
176
     1
 90
        1
176
     1
 40
0.0
176
     1
 90
        0
176
     1
290
     0
176
     1
290
     1
176
     1
290
     1
176
     1
290
     0
176
     1
290
     0
176
     1
290
     0
176
     1
290
     0
176
     1
290
     0
176
     1
290
     0
176
     1
 90
       50
176
     1
 40
0.0
176
     1
 40
1.0
176
     1
 90
        0
176
     1
 62
   178
420
        0
176
     1
 90
       50
176
     1
 90
        3
176
     1
 62
     5
420
      255
176
     1
290
     0
176
     1
 90
       50
176
     1
 90
       50
176
     1
 90
       50
176
     1
290
     0
176
     1
 90
       50
176
     1
 62
   256
176
     0
 40
1.0
176
     0
 90
        2
176
     1
  1
strokes_ogs.tif
176
     1
290
     0
176
     1
 40
1.0
176
     1
 40
1.0
176
     1
  0
VISUALSTYLE
  5
2AA
102
{ACAD_REACTORS
330
29F
102
}
330
29F
100
AcDbVisualStyle
  2
Dim
 70
    11
177
     3
291
     1
 70
    58
 90
        2
176
     1
 90
        2
176
     1
 90
        0
176
     1
 90
        0
176
     1
 40
0.6
176
     1
 40
30.0
176
     1
 62
     7
420
 16777215
176
     1
 90
        1
176
     1
 90
        4
176
     1
 62
     7
176
     1
 62
   257
176
     1
 90
        1
176
     1
 90
        1
176
     1
 40
1.0
176
     1
 90
        8
176
     1
 62
     7
176
     1
 40
1.0
176
     1
 90
        1
176
     1
 90
        6
176
     1
 90
        2
176
     1
 62
     7
176
     1
 90
        5
176
     1
 90
        0
176
     1
 90
        0
176
     1
290
     0
176
     1
 90
        1
176
     1
 40
-50.0
176
     1
 90
        0
176
     1
290
     0
176
     1
290
     1
176
     1
290
     1
176
     1
290
     0
176
     1
290
     0
176
     1
290
     0
176
     1
290
     0
176
     1
290
     0
176
     1
290
     0
176
     1
 90
       50
176
     1
 40
0.0
176
     1
 40
1.0
176
     1
 90
        0
176
     1
 62
   178
420
        0
176
     1
 90
       50
176
     1
 90
        3
176
     1
 62
     5
420
      255
176
     1
290
     0
176
     1
 90
       50
176
     1
 90
       50
176
     1
 90
       50
176
     1
290
     0
176
     1
 90
       50
176
     1
 62
   256
176
     0
 40
1.0
176
     0
 90
        2
176
     1
  1
strokes_ogs.tif
176
     1
290
     0
176
     1
 40
1.0
176
     1
 40
1.0
176
     1
  0
VISUALSTYLE
  5
2B2
102
{ACAD_REACTORS
330
29F
102
}
330
29F
100
AcDbVisualStyle
  2
EdgeColorOff
 70
    22
177
     3
291
     1
 70
    58
 90
        2
176
     0
 90
        2
176
     0
 90
        0
176
     0
 90
        0
176
     0
 40
0.6
176
     0
 40
30.0
176
     0
 62
     7
420
 16777215
176
     0
 90
        1
176
     0
 90
        4
176
     0
 62
     7
176
     0
 62
   257
176
     0
 90
        1
176
     0
 90
        1
176
     0
 40
1.0
176
     0
 90
        8
176
     2
 62
     7
176
     0
 40
1.0
176
     0
 90
        1
176
     0
 90
        6
176
     0
 90
        2
176
     0
 62
     7
176
     0
 90
        5
176
     0
 90
        0
176
     0
 90
        0
176
     0
290
     0
176
     0
 90
        1
176
     0
 40
0.0
176
     0
 90
        0
176
     0
290
     0
176
     0
290
     1
176
     0
290
     1
176
     0
290
     0
176
     0
290
     0
176
     0
290
     0
176
     0
290
     0
176
     0
290
     0
176
     0
290
     0
176
     0
 90
       50
176
     0
 40
0.0
176
     0
 40
1.0
176
     0
 90
        0
176
     0
 62
   178
420
        0
176
     0
 90
       50
176
     0
 90
        3
176
     0
 62
     5
420
      255
176
     0
290
     0
176
     0
 90
       50
176
     0
 90
       50
176
     0
 90
       50
176
     0
290
     0
176
     0
 90
       50
176
     0
 62
   256
176
     0
 40
1.0
176
     0
 90
        2
176
     0
  1
strokes_ogs.tif
176
     0
290
     0
176
     0
 40
1.0
176
     0
 40
1.0
176
     0
  0
VISUALSTYLE
  5
2AE
102
{ACAD_REACTORS
330
29F
102
}
330
29F
100
AcDbVisualStyle
  2
Facepattern
 70
    15
177
     3
291
     1
 70
    58
 90
        2
176
     1
 90
        2
176
     1
 90
        0
176
     1
 90
        0
176
     1
 40
0.6
176
     1
 40
30.0
176
     1
 62
     7
420
 16777215
176
     1
 90
        1
176
     1
 90
        4
176
     1
 62
     7
176
     1
 62
   257
176
     1
 90
        1
176
     1
 90
        1
176
     1
 40
1.0
176
     1
 90
        8
176
     1
 62
     7
176
     1
 40
1.0
176
     1
 90
        1
176
     1
 90
        6
176
     1
 90
        2
176
     1
 62
     7
176
     1
 90
        5
176
     1
 90
        0
176
     1
 90
        0
176
     1
290
     0
176
     1
 90
        1
176
     1
 40
0.0
176
     1
 90
        0
176
     1
290
     0
176
     1
290
     1
176
     1
290
     1
176
     1
290
     0
176
     1
290
     0
176
     1
290
     0
176
     1
290
     0
176
     1
290
     0
176
     1
290
     0
176
     1
 90
       50
176
     1
 40
0.0
176
     1
 40
1.0
176
     1
 90
        0
176
     1
 62
   178
420
        0
176
     1
 90
       50
176
     1
 90
        3
176
     1
 62
     5
420
      255
176
     1
290
     0
176
     1
 90
       50
176
     1
 90
       50
176
     1
 90
       50
176
     1
290
     0
176
     1
 90
       50
176
     1
 62
   256
176
     0
 40
1.0
176
     0
 90
        2
176
     1
  1
strokes_ogs.tif
176
     1
290
     0
176
     1
 40
1.0
176
     1
 40
1.0
176
     1
  0
VISUALSTYLE
  5
2A0
102
{ACAD_REACTORS
330
29F
102
}
330
29F
100
AcDbVisualStyle
  2
Flat
 70
     0
177
     3
291
     1
 70
    58
 90
        2
176
     1
 90
        1
176
     1
 90
        1
176
     1
 90
        2
176
     1
 40
0.6
176
     1
 40
30.0
176
     1
 62
     7
420
 16777215
176
     1
 90
        0
176
     1
 90
        0
176
     1
 62
     7
176
     1
 62
   257
176
     1
 90
        1
176
     1
 90
        1
176
     1
 40
1.0
176
     1
 90
        8
176
     1
 62
     7
176
     1
 40
1.0
176
     1
 90
        1
176
     1
 90
        6
176
     1
 90
        2
176
     1
 62
     7
176
     1
 90
        5
176
     1
 90
        0
176
     1
 90
        0
176
     1
290
     0
176
     1
 90
       13
176
     1
 40
0.0
176
     1
 90
        0
176
     1
290
     0
176
     1
290
     1
176
     1
290
     1
176
     1
290
     0
176
     1
290
     0
176
     1
290
     0
176
     1
290
     0
176
     1
290
     0
176
     1
290
     0
176
     1
 90
       50
176
     1
 40
0.0
176
     1
 40
1.0
176
     1
 90
        0
176
     1
 62
   178
420
        0
176
     1
 90
       50
176
     1
 90
        3
176
     1
 62
     5
420
      255
176
     1
290
     0
176
     1
 90
       50
176
     1
 90
       50
176
     1
 90
       50
176
     1
290
     0
176
     1
 90
       50
176
     1
 62
   256
176
     0
 40
1.0
176
     0
 90
        2
176
     1
  1
strokes_ogs.tif
176
     1
290
     0
176
     1
 40
1.0
176
     1
 40
1.0
176
     1
  0
VISUALSTYLE
  5
2A1
102
{ACAD_REACTORS
330
29F
102
}
330
29F
100
AcDbVisualStyle
  2
FlatWithEdges
 70
     1
177
     3
291
     1
 70
    58
 90
        2
176
     1
 90
        1
176
     1
 90
        1
176
     1
 90
        2
176
     1
 40
0.6
176
     1
 40
30.0
176
     1
 62
     7
420
 16777215
176
     1
 90
        1
176
     1
 90
        0
176
     1
 62
     7
176
     1
 62
   257
176
     1
 90
        1
176
     1
 90
        1
176
     1
 40
1.0
176
     1
 90
        0
176
     1
 62
   257
176
     1
 40
1.0
176
     1
 90
        1
176
     1
 90
        6
176
     1
 90
        2
176
     1
 62
     7
176
     1
 90
        5
176
     1
 90
        0
176
     1
 90
        0
176
     1
290
     0
176
     1
 90
       13
176
     1
 40
0.0
176
     1
 90
        0
176
     1
290
     0
176
     1
290
     1
176
     1
290
     1
176
     1
290
     0
176
     1
290
     0
176
     1
290
     0
176
     1
290
     0
176
     1
290
     0
176
     1
290
     0
176
     1
 90
       50
176
     1
 40
0.0
176
     1
 40
1.0
176
     1
 90
        0
176
     1
 62
   178
420
        0
176
     1
 90
       50
176
     1
 90
        3
176
     1
 62
     5
420
      255
176
     1
290
     0
176
     1
 90
       50
176
     1
 90
       50
176
     1
 90
       50
176
     1
290
     0
176
     1
 90
       50
176
     1
 62
   256
176
     0
 40
1.0
176
     0
 90
        2
176
     1
  1
strokes_ogs.tif
176
     1
290
     0
176
     1
 40
1.0
176
     1
 40
1.0
176
     1
  0
VISUALSTYLE
  5
2A2
102
{ACAD_REACTORS
330
29F
102
}
330
29F
100
AcDbVisualStyle
  2
Gouraud
 70
     2
177
     3
291
     1
 70
    58
 90
        2
176
     1
 90
        2
176
     1
 90
        1
176
     1
 90
        2
176
     1
 40
0.6
176
     1
 40
30.0
176
     1
 62
     7
420
 16777215
176
     1
 90
        0
176
     1
 90
        0
176
     1
 62
     7
176
     1
 62
   257
176
     1
 90
        1
176
     1
 90
        1
176
     1
 40
1.0
176
     1
 90
        0
176
     1
 62
     7
176
     1
 40
1.0
176
     1
 90
        1
176
     1
 90
        6
176
     1
 90
        2
176
     1
 62
     7
176
     1
 90
        5
176
     1
 90
        0
176
     1
 90
        0
176
     1
290
     0
176
     1
 90
       13
176
     1
 40
0.0
176
     1
 90
        0
176
     1
290
     0
176
     1
290
     1
176
     1
290
     1
176
     1
290
     0
176
     1
290
     0
176
     1
290
     0
176
     1
290
     0
176
     1
290
     0
176
     1
290
     0
176
     1
 90
       50
176
     1
 40
0.0
176
     1
 40
1.0
176
     1
 90
        0
176
     1
 62
   178
420
        0
176
     1
 90
       50
176
     1
 90
        3
176
     1
 62
     5
420
      255
176
     1
290
     0
176
     1
 90
       50
176
     1
 90
       50
176
     1
 90
       50
176
     1
290
     0
176
     1
 90
       50
176
     1
 62
   256
176
     0
 40
1.0
176
     0
 90
        2
176
     1
  1
strokes_ogs.tif
176
     1
290
     0
176
     1
 40
1.0
176
     1
 40
1.0
176
     1
  0
VISUALSTYLE
  5
2A3
102
{ACAD_REACTORS
330
29F
102
}
330
29F
100
AcDbVisualStyle
  2
GouraudWithEdges
 70
     3
177
     3
291
     1
 70
    58
 90
        2
176
     1
 90
        2
176
     1
 90
        1
176
     1
 90
        2
176
     1
 40
0.6
176
     1
 40
30.0
176
     1
 62
     7
420
 16777215
176
     1
 90
        1
176
     1
 90
        0
176
     1
 62
     7
176
     1
 62
   257
176
     1
 90
        1
176
     1
 90
        1
176
     1
 40
1.0
176
     1
 90
        0
176
     1
 62
   257
176
     1
 40
1.0
176
     1
 90
        1
176
     1
 90
        6
176
     1
 90
        2
176
     1
 62
     7
176
     1
 90
        5
176
     1
 90
        0
176
     1
 90
        0
176
     1
290
     0
176
     1
 90
       13
176
     1
 40
0.0
176
     1
 90
        0
176
     1
290
     0
176
     1
290
     1
176
     1
290
     1
176
     1
290
     0
176
     1
290
     0
176
     1
290
     0
176
     1
290
     0
176
     1
290
     0
176
     1
290
     0
176
     1
 90
       50
176
     1
 40
0.0
176
     1
 40
1.0
176
     1
 90
        0
176
     1
 62
   178
420
        0
176
     1
 90
       50
176
     1
 90
        3
176
     1
 62
     5
420
      255
176
     1
290
     0
176
     1
 90
       50
176
     1
 90
       50
176
     1
 90
       50
176
     1
290
     0
176
     1
 90
       50
176
     1
 62
   256
176
     0
 40
1.0
176
     0
 90
        2
176
     1
  1
strokes_ogs.tif
176
     1
290
     0
176
     1
 40
1.0
176
     1
 40
1.0
176
     1
  0
VISUALSTYLE
  5
2A6
102
{ACAD_REACTORS
330
29F
102
}
330
29F
100
AcDbVisualStyle
  2
Hidden
 70
     6
177
     3
291
     0
 70
    58
 90
        1
176
     1
 90
        2
176
     1
 90
        2
176
     1
 90
        0
176
     1
 40
0.6
176
     1
 40
30.0
176
     1
 62
     7
420
 16777215
176
     1
 90
        2
176
     1
 90
        2
176
     1
 62
     7
176
     1
 62
   257
176
     1
 90
        2
176
     1
 90
        1
176
     1
 40
40.0
176
     1
 90
        0
176
     1
 62
   257
176
     1
 40
1.0
176
     1
 90
        1
176
     1
 90
        6
176
     1
 90
        2
176
     1
 62
     7
176
     1
 90
        3
176
     1
 90
        0
176
     1
 90
        0
176
     1
290
     0
176
     1
 90
        1
176
     1
 40
0.0
176
     1
 90
        0
176
     1
290
     0
176
     1
290
     1
176
     1
290
     1
176
     1
290
     0
176
     1
290
     0
176
     1
290
     0
176
     1
290
     0
176
     1
290
     0
176
     1
290
     0
176
     1
 90
       50
176
     1
 40
0.0
176
     1
 40
1.0
176
     1
 90
        0
176
     1
 62
   178
420
        0
176
     1
 90
       50
176
     1
 90
        3
176
     1
 62
     5
420
      255
176
     1
290
     0
176
     1
 90
       50
176
     1
 90
       50
176
     1
 90
       50
176
     1
290
     0
176
     1
 90
       50
176
     1
 62
   256
176
     0
 40
1.0
176
     0
 90
        2
176
     1
  1
strokes_ogs.tif
176
     1
290
     0
176
     1
 40
1.0
176
     1
 40
1.0
176
     1
  0
VISUALSTYLE
  5
2B0
102
{ACAD_REACTORS
330
29F
102
}
330
29F
100
AcDbVisualStyle
  2
JitterOff
 70
    20
177
     3
291
     1
 70
    58
 90
        2
176
     0
 90
        2
176
     0
 90
        0
176
     0
 90
        0
176
     0
 40
0.6
176
     0
 40
30.0
176
     0
 62
     7
420
 16777215
176
     0
 90
        1
176
     0
 90
        4
176
     0
 62
     7
176
     0
 62
   257
176
     0
 90
        1
176
     0
 90
        1
176
     0
 40
1.0
176
     0
 90
       10
176
     2
 62
     7
176
     0
 40
1.0
176
     0
 90
        1
176
     0
 90
        6
176
     0
 90
        2
176
     0
 62
     7
176
     0
 90
        5
176
     0
 90
        0
176
     0
 90
        0
176
     0
290
     0
176
     0
 90
        1
176
     0
 40
0.0
176
     0
 90
        0
176
     0
290
     0
176
     0
290
     1
176
     0
290
     1
176
     0
290
     0
176
     0
290
     0
176
     0
290
     0
176
     0
290
     0
176
     0
290
     0
176
     0
290
     0
176
     0
 90
       50
176
     0
 40
0.0
176
     0
 40
1.0
176
     0
 90
        0
176
     0
 62
   178
420
        0
176
     0
 90
       50
176
     0
 90
        3
176
     0
 62
     5
420
      255
176
     0
290
     0
176
     0
 90
       50
176
     0
 90
       50
176
     0
 90
       50
176
     0
290
     0
176
     0
 90
       50
176
     0
 62
   256
176
     0
 40
1.0
176
     0
 90
        2
176
     0
  1
strokes_ogs.tif
176
     0
290
     0
176
     0
 40
1.0
176
     0
 40
1.0
176
     0
  0
VISUALSTYLE
  5
2AD
102
{ACAD_REACTORS
330
29F
102
}
330
29F
100
AcDbVisualStyle
  2
Linepattern
 70
    14
177
     3
291
     1
 70
    58
 90
        2
176
     1
 90
        2
176
     1
 90
        0
176
     1
 90
        0
176
     1
 40
0.6
176
     1
 40
30.0
176
     1
 62
     7
420
 16777215
176
     1
 90
        1
176
     1
 90
        4
176
     1
 62
     7
176
     1
 62
   257
176
     1
 90
        7
176
     1
 90
        7
176
     1
 40
1.0
176
     1
 90
        8
176
     1
 62
     7
176
     1
 40
1.0
176
     1
 90
        1
176
     1
 90
        6
176
     1
 90
        2
176
     1
 62
     7
176
     1
 90
        5
176
     1
 90
        0
176
     1
 90
        0
176
     1
290
     0
176
     1
 90
        1
176
     1
 40
0.0
176
     1
 90
        0
176
     1
290
     0
176
     1
290
     1
176
     1
290
     1
176
     1
290
     0
176
     1
290
     0
176
     1
290
     0
176
     1
290
     0
176
     1
290
     0
176
     1
290
     0
176
     1
 90
       50
176
     1
 40
0.0
176
     1
 40
1.0
176
     1
 90
        0
176
     1
 62
   178
420
        0
176
     1
 90
       50
176
     1
 90
        3
176
     1
 62
     5
420
      255
176
     1
290
     0
176
     1
 90
       50
176
     1
 90
       50
176
     1
 90
       50
176
     1
290
     0
176
     1
 90
       50
176
     1
 62
   256
176
     0
 40
1.0
176
     0
 90
        2
176
     1
  1
strokes_ogs.tif
176
     1
290
     0
176
     1
 40
1.0
176
     1
 40
1.0
176
     1
  0
VISUALSTYLE
  5
2B1
102
{ACAD_REACTORS
330
29F
102
}
330
29F
100
AcDbVisualStyle
  2
OverhangOff
 70
    21
177
     3
291
     1
 70
    58
 90
        2
176
     0
 90
        2
176
     0
 90
        0
176
     0
 90
        0
176
     0
 40
0.6
176
     0
 40
30.0
176
     0
 62
     7
420
 16777215
176
     0
 90
        1
176
     0
 90
        4
176
     0
 62
     7
176
     0
 62
   257
176
     0
 90
        1
176
     0
 90
        1
176
     0
 40
1.0
176
     0
 90
        9
176
     2
 62
     7
176
     0
 40
1.0
176
     0
 90
        1
176
     0
 90
        6
176
     0
 90
        2
176
     0
 62
     7
176
     0
 90
        5
176
     0
 90
        0
176
     0
 90
        0
176
     0
290
     0
176
     0
 90
        1
176
     0
 40
0.0
176
     0
 90
        0
176
     0
290
     0
176
     0
290
     1
176
     0
290
     1
176
     0
290
     0
176
     0
290
     0
176
     0
290
     0
176
     0
290
     0
176
     0
290
     0
176
     0
290
     0
176
     0
 90
       50
176
     0
 40
0.0
176
     0
 40
1.0
176
     0
 90
        0
176
     0
 62
   178
420
        0
176
     0
 90
       50
176
     0
 90
        3
176
     0
 62
     5
420
      255
176
     0
290
     0
176
     0
 90
       50
176
     0
 90
       50
176
     0
 90
       50
176
     0
290
     0
176
     0
 90
       50
176
     0
 62
   256
176
     0
 40
1.0
176
     0
 90
        2
176
     0
  1
strokes_ogs.tif
176
     0
290
     0
176
     0
 40
1.0
176
     0
 40
1.0
176
     0
  0
VISUALSTYLE
  5
2A8
102
{ACAD_REACTORS
330
29F
102
}
330
29F
100
AcDbVisualStyle
  2
Realistic
 70
     8
177
     3
291
     0
 70
    58
 90
        2
176
     1
 90
        3
176
     1
 90
        0
176
     1
 90
        2
176
     1
 40
0.6
176
     1
 40
30.0
176
     1
 62
     7
420
 16777215
176
     1
 90
        0
176
     1
 90
        0
176
     1
 62
     7
176
     1
 62
   257
176
     1
 90
        1
176
     1
 90
        1
176
     1
 40
1.0
176
     1
 90
        8
176
     1
 62
   257
176
     1
 40
1.0
176
     1
 90
        1
176
     1
 90
        6
176
     1
 90
        2
176
     1
 62
     7
176
     1
 90
        3
176
     1
 90
        0
176
     1
 90
        0
176
     1
290
     0
176
     1
 90
       13
176
     1
 40
0.0
176
     1
 90
        0
176
     1
290
     0
176
     1
290
     1
176
     1
290
     1
176
     1
290
     0
176
     1
290
     0
176
     1
290
     0
176
     1
290
     0
176
     1
290
     0
176
     1
290
     0
176
     1
 90
       50
176
     1
 40
0.0
176
     1
 40
1.0
176
     1
 90
        0
176
     1
 62
   178
420
        0
176
     1
 90
       50
176
     1
 90
        3
176
     1
 62
     5
420
      255
176
     1
290
     0
176
     1
 90
       50
176
     1
 90
       50
176
     1
 90
       50
176
     1
290
     0
176
     1
 90
       50
176
     1
 62
   256
176
     0
 40
1.0
176
     0
 90
        2
176
     1
  1
strokes_ogs.tif
176
     1
290
     0
176
     1
 40
1.0
176
     1
 40
1.0
176
     1
  0
VISUALSTYLE
  5
2B7
102
{ACAD_REACTORS
330
29F
102
}
330
29F
100
AcDbVisualStyle
  2
Shaded
 70
    27
177
     3
291
     0
 70
    58
 90
        2
176
     1
 90
        2
176
     1
 90
        1
176
     1
 90
        2
176
     1
 40
0.6
176
     1
 40
30.0
176
     1
 62
     7
420
 16777215
176
     1
 90
        0
176
     1
 90
        4
176
     1
 62
     7
176
     1
 62
   257
176
     1
 90
        1
176
     1
 90
        1
176
     1
 40
1.0
176
     1
 90
        8
176
     1
 62
   257
176
     1
 40
1.0
176
     1
 90
        1
176
     1
 90
        6
176
     1
 90
        2
176
     1
 62
     8
420
  7895160
176
     1
 90
        3
176
     1
 90
        0
176
     1
 90
        0
176
     1
290
     0
176
     1
 90
        5
176
     1
 40
0.0
176
     1
 90
        0
176
     1
290
     0
176
     1
290
     1
176
     1
290
     1
176
     1
290
     0
176
     1
290
     0
176
     1
290
     0
176
     1
290
     0
176
     1
290
     0
176
     1
290
     0
176
     1
 90
       50
176
     1
 40
0.0
176
     1
 40
1.0
176
     1
 90
        0
176
     1
 62
   178
420
        0
176
     1
 90
       50
176
     1
 90
        3
176
     1
 62
     5
420
      255
176
     1
290
     0
176
     1
 90
       50
176
     1
 90
       50
176
     1
 90
       50
176
     1
290
     0
176
     1
 90
       50
176
     1
 62
   256
176
     0
 40
1.0
176
     0
 90
        2
176
     1
  1
strokes_ogs.tif
176
     1
290
     0
176
     1
 40
1.0
176
     1
 40
1.0
176
     1
  0
VISUALSTYLE
  5
2B6
102
{ACAD_REACTORS
330
29F
102
}
330
29F
100
AcDbVisualStyle
  2
Shaded with edges
 70
    26
177
     3
291
     0
 70
    58
 90
        2
176
     1
 90
        2
176
     1
 90
        1
176
     1
 90
        2
176
     1
 40
0.6
176
     1
 40
30.0
176
     1
 62
     7
420
 16777215
176
     1
 90
        1
176
     1
 90
       10
176
     1
 62
     7
176
     1
 62
   257
176
     1
 90
        2
176
     1
 90
        1
176
     1
 40
1.0
176
     1
 90
        8
176
     1
 62
   257
176
     1
 40
1.0
176
     1
 90
        1
176
     1
 90
        6
176
     1
 90
        2
176
     1
 62
     7
176
     1
 90
        3
176
     1
 90
        0
176
     1
 90
        0
176
     1
290
     0
176
     1
 90
        5
176
     1
 40
0.0
176
     1
 90
        0
176
     1
290
     0
176
     1
290
     1
176
     1
290
     1
176
     1
290
     0
176
     1
290
     0
176
     1
290
     0
176
     1
290
     0
176
     1
290
     0
176
     1
290
     0
176
     1
 90
       50
176
     1
 40
0.0
176
     1
 40
1.0
176
     1
 90
        0
176
     1
 62
   178
420
        0
176
     1
 90
       50
176
     1
 90
        3
176
     1
 62
     5
420
      255
176
     1
290
     0
176
     1
 90
       50
176
     1
 90
       50
176
     1
 90
       50
176
     1
290
     0
176
     1
 90
       50
176
     1
 62
   256
176
     0
 40
1.0
176
     0
 90
        2
176
     1
  1
strokes_ogs.tif
176
     1
290
     0
176
     1
 40
1.0
176
     1
 40
1.0
176
     1
  0
VISUALSTYLE
  5
2B3
102
{ACAD_REACTORS
330
29F
102
}
330
29F
100
AcDbVisualStyle
  2
Shades of Gray
 70
    23
177
     3
291
     0
 70
    58
 90
        2
176
     1
 90
        2
176
     1
 90
        3
176
     1
 90
        0
176
     1
 40
0.6
176
     1
 40
30.0
176
     1
 62
     7
420
 16777215
176
     1
 90
        2
176
     1
 90
        2
176
     1
 62
     7
176
     1
 62
     7
176
     1
 90
        1
176
     1
 90
        1
176
     1
 40
40.0
176
     1
 90
        8
176
     1
 62
     7
176
     1
 40
1.0
176
     1
 90
        1
176
     1
 90
        6
176
     1
 90
        2
176
     1
 62
     7
176
     1
 90
        3
176
     1
 90
        0
176
     1
 90
        0
176
     1
290
     0
176
     1
 90
        1
176
     1
 40
0.0
176
     1
 90
        0
176
     1
290
     0
176
     1
290
     1
176
     1
290
     1
176
     1
290
     0
176
     1
290
     0
176
     1
290
     0
176
     1
290
     0
176
     1
290
     0
176
     1
290
     0
176
     1
 90
       50
176
     1
 40
0.0
176
     1
 40
1.0
176
     1
 90
        0
176
     1
 62
   178
420
        0
176
     1
 90
       50
176
     1
 90
        3
176
     1
 62
     5
420
      255
176
     1
290
     0
176
     1
 90
       50
176
     1
 90
       50
176
     1
 90
       50
176
     1
290
     0
176
     1
 90
       50
176
     1
 62
   256
176
     0
 40
1.0
176
     0
 90
        2
176
     1
  1
strokes_ogs.tif
176
     1
290
     0
176
     1
 40
1.0
176
     1
 40
1.0
176
     1
  0
VISUALSTYLE
  5
2B4
102
{ACAD_REACTORS
330
29F
102
}
330
29F
100
AcDbVisualStyle
  2
Sketchy
 70
    24
177
     3
291
     0
 70
    58
 90
        1
176
     1
 90
        2
176
     1
 90
        2
176
     1
 90
        0
176
     1
 40
0.6
176
     1
 40
30.0
176
     1
 62
     7
420
 16777215
176
     1
 90
        2
176
     1
 90
        2
176
     1
 62
     7
176
     1
 62
     7
176
     1
 90
        1
176
     1
 90
        1
176
     1
 40
40.0
176
     1
 90
       11
176
     1
 62
     7
176
     1
 40
1.0
176
     1
 90
        1
176
     1
 90
        6
176
     1
 90
        2
176
     1
 62
     7
176
     1
 90
        6
176
     1
 90
        0
176
     1
 90
        0
176
     1
290
     0
176
     1
 90
        1
176
     1
 40
0.0
176
     1
 90
        0
176
     1
290
     0
176
     1
290
     1
176
     1
290
     1
176
     1
290
     0
176
     1
290
     0
176
     1
290
     0
176
     1
290
     0
176
     1
290
     0
176
     1
290
     0
176
     1
 90
       50
176
     1
 40
0.0
176
     1
 40
1.0
176
     1
 90
        0
176
     1
 62
   178
420
        0
176
     1
 90
       50
176
     1
 90
        3
176
     1
 62
     5
420
      255
176
     1
290
     0
176
     1
 90
       50
176
     1
 90
       50
176
     1
 90
       50
176
     1
290
     0
176
     1
 90
       50
176
     1
 62
   256
176
     0
 40
1.0
176
     0
 90
        2
176
     1
  1
strokes_ogs.tif
176
     1
290
     0
176
     1
 40
1.0
176
     1
 40
1.0
176
     1
  0
VISUALSTYLE
  5
2AC
102
{ACAD_REACTORS
330
29F
102
}
330
29F
100
AcDbVisualStyle
  2
Thicken
 70
    13
177
     3
291
     1
 70
    58
 90
        2
176
     1
 90
        2
176
     1
 90
        0
176
     1
 90
        0
176
     1
 40
0.6
176
     1
 40
30.0
176
     1
 62
     7
420
 16777215
176
     1
 90
        1
176
     1
 90
        4
176
     1
 62
     7
176
     1
 62
   257
176
     1
 90
        1
176
     1
 90
        1
176
     1
 40
1.0
176
     1
 90
       12
176
     1
 62
     7
176
     1
 40
1.0
176
     1
 90
        1
176
     1
 90
        6
176
     1
 90
        2
176
     1
 62
     7
176
     1
 90
        5
176
     1
 90
        0
176
     1
 90
        0
176
     1
290
     0
176
     1
 90
        1
176
     1
 40
0.0
176
     1
 90
        0
176
     1
290
     0
176
     1
290
     1
176
     1
290
     1
176
     1
290
     0
176
     1
290
     0
176
     1
290
     0
176
     1
290
     0
176
     1
290
     0
176
     1
290
     0
176
     1
 90
       50
176
     1
 40
0.0
176
     1
 40
1.0
176
     1
 90
        0
176
     1
 62
   178
420
        0
176
     1
 90
       50
176
     1
 90
        3
176
     1
 62
     5
420
      255
176
     1
290
     0
176
     1
 90
       50
176
     1
 90
       50
176
     1
 90
       50
176
     1
290
     0
176
     1
 90
       50
176
     1
 62
   256
176
     0
 40
1.0
176
     0
 90
        2
176
     1
  1
strokes_ogs.tif
176
     1
290
     0
176
     1
 40
1.0
176
     1
 40
1.0
176
     1
  0
VISUALSTYLE
  5
2A5
102
{ACAD_REACTORS
330
29F
102
}
330
29F
100
AcDbVisualStyle
  2
Wireframe
 70
     5
177
     3
291
     0
 70
    58
 90
        0
176
     1
 90
        2
176
     1
 90
        0
176
     1
 90
        0
176
     1
 40
0.6
176
     1
 40
30.0
176
     1
 62
     7
420
 16777215
176
     1
 90
        1
176
     1
 90
        4
176
     1
 62
     7
176
     1
 62
   257
176
     1
 90
        1
176
     1
 90
        1
176
     1
 40
1.0
176
     1
 90
        0
176
     1
 62
   257
176
     1
 40
1.0
176
     1
 90
        1
176
     1
 90
        6
176
     1
 90
        2
176
     1
 62
     7
176
     1
 90
        3
176
     1
 90
        0
176
     1
 90
        0
176
     1
290
     0
176
     1
 90
        1
176
     1
 40
0.0
176
     1
 90
        0
176
     1
290
     0
176
     1
290
     1
176
     1
290
     1
176
     1
290
     0
176
     1
290
     0
176
     1
290
     0
176
     1
290
     0
176
     1
290
     0
176
     1
290
     0
176
     1
 90
       50
176
     1
 40
0.0
176
     1
 40
1.0
176
     1
 90
        0
176
     1
 62
   178
420
        0
176
     1
 90
       50
176
     1
 90
        3
176
     1
 62
     5
420
      255
176
     1
290
     0
176
     1
 90
       50
176
     1
 90
       50
176
     1
 90
       50
176
     1
290
     0
176
     1
 90
       50
176
     1
 62
   256
176
     0
 40
1.0
176
     0
 90
        2
176
     1
  1
strokes_ogs.tif
176
     1
290
     0
176
     1
 40
1.0
176
     1
 40
1.0
176
     1
  0
VISUALSTYLE
  5
2B5
102
{ACAD_REACTORS
330
29F
102
}
330
29F
100
AcDbVisualStyle
  2
X-Ray
 70
    25
177
     3
291
     0
 70
    58
 90
        2
176
     1
 90
        2
176
     1
 90
        1
176
     1
 90
        1
176
     1
 40
0.5
176
     1
 40
30.0
176
     1
 62
     7
420
 16777215
176
     1
 90
        1
176
     1
 90
        0
176
     1
 62
     7
176
     1
 62
   257
176
     1
 90
        1
176
     1
 90
        1
176
     1
 40
1.0
176
     1
 90
        8
176
     1
 62
     7
176
     1
 40
1.0
176
     1
 90
        1
176
     1
 90
        6
176
     1
 90
        2
176
     1
 62
     7
176
     1
 90
        3
176
     1
 90
        0
176
     1
 90
        0
176
     1
290
     0
176
     1
 90
       13
176
     1
 40
0.0
176
     1
 90
        0
176
     1
290
     0
176
     1
290
     1
176
     1
290
     1
176
     1
290
     0
176
     1
290
     0
176
     1
290
     0
176
     1
290
     0
176
     1
290
     0
176
     1
290
     0
176
     1
 90
       50
176
     1
 40
0.0
176
     1
 40
1.0
176
     1
 90
        0
176
     1
 62
   178
420
        0
176
     1
 90
       50
176
     1
 90
        3
176
     1
 62
     5
420
      255
176
     1
290
     0
176
     1
 90
       50
176
     1
 90
       50
176
     1
 90
       50
176
     1
290
     0
176
     1
 90
       50
176
     1
 62
   256
176
     0
 40
1.0
176
     0
 90
        2
176
     1
  1
strokes_ogs.tif
176
     1
290
     0
176
     1
 40
1.0
176
     1
 40
1.0
176
     1
  0
DICTIONARYVAR
  5
426
102
{ACAD_REACTORS
330
425
102
}
330
425
100
DictionaryVariables
280
     0
  1
1:1
  0
DICTIONARYVAR
  5
42B
102
{ACAD_REACTORS
330
425
102
}
330
425
100
DictionaryVariables
280
     0
  1
Standard
  0
DICTIONARYVAR
  5
42A
102
{ACAD_REACTORS
330
425
102
}
330
425
100
DictionaryVariables
280
     0
  1
Standard
  0
XRECORD
  5
2E6
102
{ACAD_REACTORS
330
2E4
102
}
330
2E4
100
AcDbXrecord
280
     1
 90
        0
  0
XRECORD
  5
2E7
102
{ACAD_REACTORS
330
2E4
102
}
330
2E4
100
AcDbXrecord
280
     1
 90
        0
  0
XRECORD
  5
2E8
102
{ACAD_REACTORS
330
2E4
102
}
330
2E4
100
AcDbXrecord
280
     1
1000

  0
XRECORD
  5
2E9
102
{ACAD_REACTORS
330
2E4
102
}
330
2E4
100
AcDbXrecord
280
     1
290
     1
  0
XRECORD
  5
2EA
102
{ACAD_REACTORS
330
2E4
102
}
330
2E4
100
AcDbXrecord
280
     1
 90
        2
  0
XRECORD
  5
2EB
102
{ACAD_REACTORS
330
2E4
102
}
330
2E4
100
AcDbXrecord
280
     1
 90
        4
  0
XRECORD
  5
2EC
102
{ACAD_REACTORS
330
2E4
102
}
330
2E4
100
AcDbXrecord
280
     1
290
     1
  0
XRECORD
  5
2ED
102
{ACAD_REACTORS
330
2E4
102
}
330
2E4
100
AcDbXrecord
280
     1
290
     1
  0
XRECORD
  5
2EE
102
{ACAD_REACTORS
330
2E4
102
}
330
2E4
100
AcDbXrecord
280
     1
290
     1
  0
XRECORD
  5
2EF
102
{ACAD_REACTORS
330
2E4
102
}
330
2E4
100
AcDbXrecord
280
     1
290
     1
  0
XRECORD
  5
2F0
102
{ACAD_REACTORS
330
2E4
102
}
330
2E4
100
AcDbXrecord
280
     1
1000
auto
  0
XRECORD
  5
2F1
102
{ACAD_REACTORS
330
2E4
102
}
330
2E4
100
AcDbXrecord
280
     1
1000
auto
  0
XRECORD
  5
2F2
102
{ACAD_REACTORS
330
2E4
102
}
330
2E4
100
AcDbXrecord
280
     1
1000
auto
  0
XRECORD
  5
2F3
102
{ACAD_REACTORS
330
2E4
102
}
330
2E4
100
AcDbXrecord
280
     1
1000
auto
  0
XRECORD
  5
2F4
102
{ACAD_REACTORS
330
2E4
102
}
330
2E4
100
AcDbXrecord
280
     1
1000
auto
  0
XRECORD
  5
2F5
102
{ACAD_REACTORS
330
2E4
102
}
330
2E4
100
AcDbXrecord
280
     1
1000
auto
  0
XRECORD
  5
2F6
102
{ACAD_REACTORS
330
2E4
102
}
330
2E4
100
AcDbXrecord
280
     1
1000
auto
  0
XRECORD
  5
2F7
102
{ACAD_REACTORS
330
2E4
102
}
330
2E4
100
AcDbXrecord
280
     1
1000
auto
  0
XRECORD
  5
2F8
102
{ACAD_REACTORS
330
2E4
102
}
330
2E4
100
AcDbXrecord
280
     1
290
     0
  0
XRECORD
  5
2F9
102
{ACAD_REACTORS
330
2E4
102
}
330
2E4
100
AcDbXrecord
280
     1
290
     0
  0
XRECORD
  5
2FA
102
{ACAD_REACTORS
330
2E4
102
}
330
2E4
100
AcDbXrecord
280
     1
290
     0
  0
XRECORD
  5
2FB
102
{ACAD_REACTORS
330
2E4
102
}
330
2E4
100
AcDbXrecord
280
     1
290
     0
  0
XRECORD
  5
2FC
102
{ACAD_REACTORS
330
2E4
102
}
330
2E4
100
AcDbXrecord
280
     1
 90
        0
  0
XRECORD
  5
2FD
102
{ACAD_REACTORS
330
2E4
102
}
330
2E4
100
AcDbXrecord
280
     1
 90
        0
  0
XRECORD
  5
2FE
102
{ACAD_REACTORS
330
2E4
102
}
330
2E4
100
AcDbXrecord
280
     1
 90
        0
  0
XRECORD
  5
2FF
102
{ACAD_REACTORS
330
2E4
102
}
330
2E4
100
AcDbXrecord
280
     1
 90
        0
  0
XRECORD
  5
300
102
{ACAD_REACTORS
330
2E4
102
}
330
2E4
100
AcDbXrecord
280
     1
1000
auto
  0
XRECORD
  5
301
102
{ACAD_REACTORS
330
2E4
102
}
330
2E4
100
AcDbXrecord
280
     1
1000
auto
  0
XRECORD
  5
302
102
{ACAD_REACTORS
330
2E4
102
}
330
2E4
100
AcDbXrecord
280
     1
1000
auto
  0
XRECORD
  5
303
102
{ACAD_REACTORS
330
2E4
102
}
330
2E4
100
AcDbXrecord
280
     1
1000
auto
  0
XRECORD
  5
304
102
{ACAD_REACTORS
330
2E4
102
}
330
2E4
100
AcDbXrecord
280
     1
1000
auto
  0
XRECORD
  5
305
102
{ACAD_REACTORS
330
2E4
102
}
330
2E4
100
AcDbXrecord
280
     1
1000
auto
  0
XRECORD
  5
306
102
{ACAD_REACTORS
330
2E4
102
}
330
2E4
100
AcDbXrecord
280
     1
1000
auto
  0
XRECORD
  5
307
102
{ACAD_REACTORS
330
2E4
102
}
330
2E4
100
AcDbXrecord
280
     1
1000
auto
  0
XRECORD
  5
308
102
{ACAD_REACTORS
330
2E4
102
}
330
2E4
100
AcDbXrecord
280
     1
 90
        1
  0
XRECORD
  5
309
102
{ACAD_REACTORS
330
2E4
102
}
330
2E4
100
AcDbXrecord
280
     1
 40
10.0
  0
XRECORD
  5
30A
102
{ACAD_REACTORS
330
2E4
102
}
330
2E4
100
AcDbXrecord
280
     1
 40
10.0
  0
XRECORD
  5
30B
102
{ACAD_REACTORS
330
2E4
102
}
330
2E4
100
AcDbXrecord
280
     1
 40
10.0
  0
XRECORD
  5
30C
102
{ACAD_REACTORS
330
2E4
102
}
330
2E4
100
AcDbXrecord
280
     1
 40
10.0
  0
XRECORD
  5
30D
102
{ACAD_REACTORS
330
2E4
102
}
330
2E4
100
AcDbXrecord
280
     1
290
     0
  0
XRECORD
  5
30E
102
{ACAD_REACTORS
330
2E4
102
}
330
2E4
100
AcDbXrecord
280
     1
 90
        1
  0
XRECORD
  5
30F
102
{ACAD_REACTORS
330
2E4
102
}
330
2E4
100
AcDbXrecord
280
     1
 40
0.0
  0
XRECORD
  5
310
102
{ACAD_REACTORS
330
2E4
102
}
330
2E4
100
AcDbXrecord
280
     1
 40
0.0
  0
XRECORD
  5
311
102
{ACAD_REACTORS
330
2E4
102
}
330
2E4
100
AcDbXrecord
280
     1
1000
Portrait
  0
XRECORD
  5
312
102
{ACAD_REACTORS
330
2E4
102
}
330
2E4
100
AcDbXrecord
280
     1
 40
297.0
  0
XRECORD
  5
313
102
{ACAD_REACTORS
330
2E4
102
}
330
2E4
100
AcDbXrecord
280
     1
 40
210.0
  0
XRECORD
  5
314
102
{ACAD_REACTORS
330
2E4
102
}
330
2E4
100
AcDbXrecord
280
     1
1000
1:1
  0
XRECORD
  5
315
102
{ACAD_REACTORS
330
2E4
102
}
330
2E4
100
AcDbXrecord
280
     1
290
     1
  0
XRECORD
  5
316
102
{ACAD_REACTORS
330
2E4
102
}
330
2E4
100
AcDbXrecord
280
     1
1000
3.9.1
  0
XRECORD
  5
317
102
{ACAD_REACTORS
330
2E4
102
}
330
2E4
100
AcDbXrecord
280
     1
 90
        4
  0
DICTIONARY
  5
427
330
2DF
100
AcDbDictionary
280
     1
281
     1
  3
ACAD_ROUNDTRIP_2008_TABLESTYLE_CELLSTYLEMAP
360
428
  0
CELLSTYLEMAP
  5
428
102
{ACAD_REACTORS
330
427
102
}
330
427
100
AcDbCellStyleMap
 90
        3
300
CELLSTYLE
  1
TABLEFORMAT_BEGIN
 90
        5
170
     1
 91
        0
 92
    32768
 62
   257
 93
        1
300
CONTENTFORMAT
  1
CONTENTFORMAT_BEGIN
 90
        0
 91
        0
 92
        4
 93
        0
300

 40
0.0
140
1.0
 94
        5
 62
     0
340
287
144
0.25
309
CONTENTFORMAT_END
171
     1
301
MARGIN
  1
CELLMARGIN_BEGIN
 40
0.06
 40
0.06
 40
0.06
 40
0.06
 40
0.06
 40
0.06
309
CELLMARGIN_END
 94
        6
 95
        1
302
GRIDFORMAT
  1
GRIDFORMAT_BEGIN
 90
        0
 91
        1
 62
     0
 92
       -2
340
289
 93
        0
 40
0.045
309
GRIDFORMAT_END
 95
        2
302
GRIDFORMAT
  1
GRIDFORMAT_BEGIN
 90
        0
 91
        1
 62
     0
 92
       -2
340
289
 93
        0
 40
0.045
309
GRIDFORMAT_END
 95
        4
302
GRIDFORMAT
  1
GRIDFORMAT_BEGIN
 90
        0
 91
        1
 62
     0
 92
       -2
340
289
 93
        0
 40
0.045
309
GRIDFORMAT_END
 95
        8
302
GRIDFORMAT
  1
GRIDFORMAT_BEGIN
 90
        0
 91
        1
 62
     0
 92
       -2
340
289
 93
        0
 40
0.045
309
GRIDFORMAT_END
 95
       16
302
GRIDFORMAT
  1
GRIDFORMAT_BEGIN
 90
        0
 91
        1
 62
     0
 92
       -2
340
289
 93
        0
 40
0.045
309
GRIDFORMAT_END
 95
       32
302
GRIDFORMAT
  1
GRIDFORMAT_BEGIN
 90
        0
 91
        1
 62
     0
 92
       -2
340
289
 93
        0
 40
0.045
309
GRIDFORMAT_END
309
TABLEFORMAT_END
  1
CELLSTYLE_BEGIN
 90
        1
 91
        1
300
_TITLE
309
CELLSTYLE_END
300
CELLSTYLE
  1
TABLEFORMAT_BEGIN
 90
        5
170
     1
 91
        0
 92
        0
 62
   257
 93
        1
300
CONTENTFORMAT
  1
CONTENTFORMAT_BEGIN
 90
        0
 91
        0
 92
        4
 93
        0
300

 40
0.0
140
1.0
 94
        5
 62
     0
340
287
144
0.18
309
CONTENTFORMAT_END
171
     1
301
MARGIN
  1
CELLMARGIN_BEGIN
 40
0.06
 40
0.06
 40
0.06
 40
0.06
 40
0.06
 40
0.06
309
CELLMARGIN_END
 94
        6
 95
        1
302
GRIDFORMAT
  1
GRIDFORMAT_BEGIN
 90
        0
 91
        1
 62
     0
 92
       -2
340
289
 93
        0
 40
0.045
309
GRIDFORMAT_END
 95
        2
302
GRIDFORMAT
  1
GRIDFORMAT_BEGIN
 90
        0
 91
        1
 62
     0
 92
       -2
340
289
 93
        0
 40
0.045
309
GRIDFORMAT_END
 95
        4
302
GRIDFORMAT
  1
GRIDFORMAT_BEGIN
 90
        0
 91
        1
 62
     0
 92
       -2
340
289
 93
        0
 40
0.045
309
GRIDFORMAT_END
 95
        8
302
GRIDFORMAT
  1
GRIDFORMAT_BEGIN
 90
        0
 91
        1
 62
     0
 92
       -2
340
289
 93
        0
 40
0.045
309
GRIDFORMAT_END
 95
       16
302
GRIDFORMAT
  1
GRIDFORMAT_BEGIN
 90
        0
 91
        1
 62
     0
 92
       -2
340
289
 93
        0
 40
0.045
309
GRIDFORMAT_END
 95
       32
302
GRIDFORMAT
  1
GRIDFORMAT_BEGIN
 90
        0
 91
        1
 62
     0
 92
       -2
340
289
 93
        0
 40
0.045
309
GRIDFORMAT_END
309
TABLEFORMAT_END
  1
CELLSTYLE_BEGIN
 90
        2
 91
        1
300
_HEADER
309
CELLSTYLE_END
300
CELLSTYLE
  1
TABLEFORMAT_BEGIN
 90
        5
170
     1
 91
        0
 92
        0
 62
   257
 93
        1
300
CONTENTFORMAT
  1
CONTENTFORMAT_BEGIN
 90
        0
 91
        0
 92
        4
 93
        0
300

 40
0.0
140
1.0
 94
        2
 62
     0
340
287
144
0.18
309
CONTENTFORMAT_END
171
     1
301
MARGIN
  1
CELLMARGIN_BEGIN
 40
0.06
 40
0.06
 40
0.06
 40
0.06
 40
0.06
 40
0.06
309
CELLMARGIN_END
 94
        6
 95
        1
302
GRIDFORMAT
  1
GRIDFORMAT_BEGIN
 90
        0
 91
        1
 62
     0
 92
       -2
340
289
 93
        0
 40
0.045
309
GRIDFORMAT_END
 95
        2
302
GRIDFORMAT
  1
GRIDFORMAT_BEGIN
 90
        0
 91
        1
 62
     0
 92
       -2
340
289
 93
        0
 40
0.045
309
GRIDFORMAT_END
 95
        4
302
GRIDFORMAT
  1
GRIDFORMAT_BEGIN
 90
        0
 91
        1
 62
     0
 92
       -2
340
289
 93
        0
 40
0.045
309
GRIDFORMAT_END
 95
        8
302
GRIDFORMAT
  1
GRIDFORMAT_BEGIN
 90
        0
 91
        1
 62
     0
 92
       -2
340
289
 93
        0
 40
0.045
309
GRIDFORMAT_END
 95
       16
302
GRIDFORMAT
  1
GRIDFORMAT_BEGIN
 90
        0
 91
        1
 62
     0
 92
       -2
340
289
 93
        0
 40
0.045
309
GRIDFORMAT_END
 95
       32
302
GRIDFORMAT
  1
GRIDFORMAT_BEGIN
 90
        0
 91
        1
 62
     0
 92
       -2
340
289
 93
        0
 40
0.045
309
GRIDFORMAT_END
309
TABLEFORMAT_END
  1
CELLSTYLE_BEGIN
 90
        3
 91
        2
300
_DATA
309
CELLSTYLE_END
  0
ENDSEC
  0
EOF
