  0
SECTION
  2
HEADER
  9
$ACADVER
  1
AC1027
  9
$ACADMAINTVER
 70
     8
  9
$DWGCODEPAGE
  3
ANSI_1252
  9
$REQUIREDVERSIONS
160
                 0
  9
$INSBASE
 10
0.0
 20
0.0
 30
0.0
  9
$EXTMIN
 10
1.000000000000000E+20
 20
1.000000000000000E+20
 30
1.000000000000000E+20
  9
$EXTMAX
 10
-1.000000000000000E+20
 20
-1.000000000000000E+20
 30
-1.000000000000000E+20
  9
$LIMMIN
 10
0.0
 20
0.0
  9
$LIMMAX
 10
12.0
 20
9.0
  9
$ORTHOMODE
 70
     0
  9
$REGENMODE
 70
     1
  9
$FILLMODE
 70
     1
  9
$QTEXTMODE
 70
     0
  9
$MIRRTEXT
 70
     1
  9
$LTSCALE
 40
1.0
  9
$ATTMODE
 70
     1
  9
$TEXTSIZE
 40
0.2
  9
$TRACEWID
 40
0.05
  9
$TEXTSTYLE
  7
Standard
  9
$CLAYER
  8
0
  9
$CELTYPE
  6
ByLayer
  9
$CECOLOR
 62
   178
  9
$CELTSCALE
 40
1.0
  9
$DISPSILH
 70
     0
  9
$DIMSCALE
 40
1.0
  9
$DIMASZ
 40
20.0
  9
$DIMEXO
 40
5.0
  9
$DIMDLI
 40
0.38
  9
$DIMRND
 40
0.0
  9
$DIMDLE
 40
0.0
  9
$DIMEXE
 40
10.0
  9
$DIMTP
 40
0.0
  9
$DIMTM
 40
0.0
  9
$DIMTXT
 40
20.0
  9
$DIMCEN
 40
0.09
  9
$DIMTSZ
 40
20.0
  9
$DIMTOL
 70
     0
  9
$DIMLIM
 70
     0
  9
$DIMTIH
 70
     1
  9
$DIMTOH
 70
     1
  9
$DIMSE1
 70
     0
  9
$DIMSE2
 70
     0
  9
$DIMTAD
 70
     0
  9
$DIMZIN
 70
     8
  9
$DIMBLK
  1

  9
$DIMASO
 70
     1
  9
$DIMSHO
 70
     1
  9
$DIMPOST
  1

  9
$DIMAPOST
  1

  9
$DIMALT
 70
     0
  9
$DIMALTD
 70
     2
  9
$DIMALTF
 40
25.4
  9
$DIMLFAC
 40
1.0
  9
$DIMTOFL
 70
     0
  9
$DIMTVP
 40
0.0
  9
$DIMTIX
 70
     0
  9
$DIMSOXD
 70
     0
  9
$DIMSAH
 70
     0
  9
$DIMBLK1
  1

  9
$DIMBLK2
  1

  9
$DIMSTYLE
  2
Standard
  9
$DIMCLRD
 70
   178
  9
$DIMCLRE
 70
   178
  9
$DIMCLRT
 70
   178
  9
$DIMTFAC
 40
1.0
  9
$DIMGAP
 40
5.0
  9
$DIMJUST
 70
     0
  9
$DIMSD1
 70
     0
  9
$DIMSD2
 70
     0
  9
$DIMTOLJ
 70
     1
  9
$DIMTZIN
 70
     0
  9
$DIMALTZ
 70
     0
  9
$DIMALTTZ
 70
     0
  9
$DIMUPT
 70
     0
  9
$DIMDEC
 70
     4
  9
$DIMTDEC
 70
     4
  9
$DIMALTU
 70
     2
  9
$DIMALTTD
 70
     2
  9
$DIMTXSTY
  7
Standard
  9
$DIMAUNIT
 70
     0
  9
$DIMADEC
 70
     0
  9
$DIMALTRND
 40
0.0
  9
$DIMAZIN
 70
     2
  9
$DIMDSEP
 70
    46
  9
$DIMATFIT
 70
     3
  9
$DIMFRAC
 70
     0
  9
$DIMLDRBLK
  1

  9
$DIMLUNIT
 70
     2
  9
$DIMLWD
 70
    -2
  9
$DIMLWE
 70
    -2
  9
$DIMTMOVE
 70
     0
  9
$DIMFXL
 40
1.0
  9
$DIMFXLON
 70
     0
  9
$DIMJOGANG
 40
0.7853981633974483
  9
$DIMTFILL
 70
     0
  9
$DIMTFILLCLR
 70
     0
  9
$DIMARCSYM
 70
     0
  9
$DIMLTYPE
  6

  9
$DIMLTEX1
  6

  9
$DIMLTEX2
  6

  9
$DIMTXTDIRECTION
 70
     0
  9
$LUNITS
 70
     2
  9
$LUPREC
 70
     4
  9
$SKETCHINC
 40
0.1
  9
$FILLETRAD
 40
0.5
  9
$AUNITS
 70
     0
  9
$AUPREC
 70
     0
  9
$MENU
  1
.
  9
$ELEVATION
 40
0.0
  9
$PELEVATION
 40
0.0
  9
$THICKNESS
 40
0.0
  9
$LIMCHECK
 70
     0
  9
$CHAMFERA
 40
0.0
  9
$CHAMFERB
 40
0.0
  9
$CHAMFERC
 40
0.0
  9
$CHAMFERD
 40
0.0
  9
$SKPOLY
 70
     0
  9
$TDCREATE
 40
2459458.509641204
  9
$TDUCREATE
 40
2459458.467974537
  9
$TDUPDATE
 40
2459458.509641204
  9
$TDUUPDATE
 40
2459458.467974537
  9
$TDINDWG
 40
0.0000000116
  9
$TDUSRTIMER
 40
0.0000000116
  9
$USRTIMER
 70
     1
  9
$ANGBASE
 50
0.0
  9
$ANGDIR
 70
     0
  9
$PDMODE
 70
     0
  9
$PDSIZE
 40
0.0
  9
$PLINEWID
 40
0.0
  9
$SPLFRAME
 70
     0
  9
$SPLINETYPE
 70
     6
  9
$SPLINESEGS
 70
     8
  9
$HANDSEED
  5
34E
  9
$SURFTAB1
 70
     6
  9
$SURFTAB2
 70
     6
  9
$SURFTYPE
 70
     6
  9
$SURFU
 70
     6
  9
$SURFV
 70
     6
  9
$UCSBASE
  2

  9
$UCSNAME
  2

  9
$UCSORG
 10
0.0
 20
0.0
 30
0.0
  9
$UCSXDIR
 10
1.0
 20
0.0
 30
0.0
  9
$UCSYDIR
 10
0.0
 20
1.0
 30
0.0
  9
$UCSORTHOREF
  2

  9
$UCSORTHOVIEW
 70
     0
  9
$UCSORGTOP
 10
0.0
 20
0.0
 30
0.0
  9
$UCSORGBOTTOM
 10
0.0
 20
0.0
 30
0.0
  9
$UCSORGLEFT
 10
0.0
 20
0.0
 30
0.0
  9
$UCSORGRIGHT
 10
0.0
 20
0.0
 30
0.0
  9
$UCSORGFRONT
 10
0.0
 20
0.0
 30
0.0
  9
$UCSORGBACK
 10
0.0
 20
0.0
 30
0.0
  9
$PUCSBASE
  2

  9
$PUCSNAME
  2

  9
$PUCSORG
 10
0.0
 20
0.0
 30
0.0
  9
$PUCSXDIR
 10
1.0
 20
0.0
 30
0.0
  9
$PUCSYDIR
 10
0.0
 20
1.0
 30
0.0
  9
$PUCSORTHOREF
  2

  9
$PUCSORTHOVIEW
 70
     0
  9
$PUCSORGTOP
 10
0.0
 20
0.0
 30
0.0
  9
$PUCSORGBOTTOM
 10
0.0
 20
0.0
 30
0.0
  9
$PUCSORGLEFT
 10
0.0
 20
0.0
 30
0.0
  9
$PUCSORGRIGHT
 10
0.0
 20
0.0
 30
0.0
  9
$PUCSORGFRONT
 10
0.0
 20
0.0
 30
0.0
  9
$PUCSORGBACK
 10
0.0
 20
0.0
 30
0.0
  9
$USERI1
 70
     0
  9
$USERI2
 70
     0
  9
$USERI3
 70
     0
  9
$USERI4
 70
     0
  9
$USERI5
 70
     0
  9
$USERR1
 40
0.0
  9
$USERR2
 40
0.0
  9
$USERR3
 40
0.0
  9
$USERR4
 40
0.0
  9
$USERR5
 40
0.0
  9
$WORLDVIEW
 70
     1
  9
$SHADEDGE
 70
     3
  9
$SHADEDIF
 70
    70
  9
$TILEMODE
 70
     1
  9
$MAXACTVP
 70
     2
  9
$PINSBASE
 10
0.0
 20
0.0
 30
0.0
  9
$PLIMCHECK
 70
     0
  9
$PEXTMIN
 10
1.000000000000000E+20
 20
1.000000000000000E+20
 30
1.000000000000000E+20
  9
$PEXTMAX
 10
-1.000000000000000E+20
 20
-1.000000000000000E+20
 30
-1.000000000000000E+20
  9
$PLIMMIN
 10
0.0
 20
0.0
  9
$PLIMMAX
 10
12.0
 20
9.0
  9
$UNITMODE
 70
     0
  9
$VISRETAIN
 70
     1
  9
$PLINEGEN
 70
     0
  9
$PSLTSCALE
 70
     1
  9
$TREEDEPTH
 70
  3020
  9
$CMLSTYLE
  2
Standard
  9
$CMLJUST
 70
     0
  9
$CMLSCALE
 40
1.0
  9
$PROXYGRAPHICS
 70
     1
  9
$MEASUREMENT
 70
     1
  9
$CELWEIGHT
370
    -1
  9
$ENDCAPS
280
     0
  9
$JOINSTYLE
280
     0
  9
$LWDISPLAY
290
     0
  9
$INSUNITS
 70
     4
  9
$HYPERLINKBASE
  1

  9
$STYLESHEET
  1

  9
$XEDIT
290
     1
  9
$CEPSNTYPE
380
     0
  9
$PSTYLEMODE
290
     1
  9
$FINGERPRINTGUID
  2
{DB04D84E-A34A-02C7-AD78-8927127199E4}
  9
$VERSIONGUID
  2
{FAEB1C32-E019-11D5-929B-00C0DF256EC4}
  9
$EXTNAMES
290
     1
  9
$PSVPSCALE
 40
0.0
  9
$OLESTARTUP
290
     0
  9
$SORTENTS
280
   127
  9
$INDEXCTL
280
     0
  9
$HIDETEXT
280
     1
  9
$XCLIPFRAME
280
     2
  9
$HALOGAP
280
     0
  9
$OBSCOLOR
 70
   257
  9
$OBSLTYPE
280
     0
  9
$INTERSECTIONDISPLAY
280
     0
  9
$INTERSECTIONCOLOR
 70
   257
  9
$DIMASSOC
280
     2
  9
$PROJECTNAME
  1

  9
$CAMERADISPLAY
290
     0
  9
$LENSLENGTH
 40
50.0
  9
$CAMERAHEIGHT
 40
0.0
  9
$STEPSPERSEC
 40
2.0
  9
$STEPSIZE
 40
6.0
  9
$3DDWFPREC
 40
2.0
  9
$PSOLWIDTH
 40
0.25
  9
$PSOLHEIGHT
 40
4.0
  9
$LOFTANG1
 40
1.570796326794897
  9
$LOFTANG2
 40
1.570796326794897
  9
$LOFTMAG1
 40
0.0
  9
$LOFTMAG2
 40
0.0
  9
$LOFTPARAM
 70
     7
  9
$LOFTNORMALS
280
     1
  9
$LATITUDE
 40
37.795
  9
$LONGITUDE
 40
-122.394
  9
$NORTHDIRECTION
 40
0.0
  9
$TIMEZONE
 70
 -8000
  9
$LIGHTGLYPHDISPLAY
280
     1
  9
$TILEMODELIGHTSYNCH
280
     1
  9
$CMATERIAL
347
1D8
  9
$SOLIDHIST
280
     0
  9
$SHOWHIST
280
     1
  9
$DWFFRAME
280
     2
  9
$DGNFRAME
280
     2
  9
$REALWORLDSCALE
290
     1
  9
$INTERFERECOLOR
 62
   256
  9
$CSHADOW
280
     0
  9
$SHADOWPLANELOCATION
 40
0.0
  0
ENDSEC
  0
SECTION
  2
CLASSES
  0
CLASS
  1
ACDBDICTIONARYWDFLT
  2
AcDbDictionaryWithDefault
  3
ObjectDBX Classes
 90
        0
 91
        4
280
     0
281
     0
  0
CLASS
  1
VISUALSTYLE
  2
AcDbVisualStyle
  3
ObjectDBX Classes
 90
     4095
 91
        4
280
     0
281
     0
  0
CLASS
  1
MATERIAL
  2
AcDbMaterial
  3
ObjectDBX Classes
 90
     1153
 91
        4
280
     0
281
     0
  0
CLASS
  1
SCALE
  2
AcDbScale
  3
ObjectDBX Classes
 90
     1153
 91
        4
280
     0
281
     0
  0
CLASS
  1
TABLESTYLE
  2
AcDbTableStyle
  3
ObjectDBX Classes
 90
     4095
 91
        4
280
     0
281
     0
  0
CLASS
  1
MLEADERSTYLE
  2
AcDbMLeaderStyle
  3
ACDB_MLEADERSTYLE_CLASS
 90
     4095
 91
        4
280
     0
281
     0
  0
CLASS
  1
SUN
  2
AcDbSun
  3
SCENEOE
 90
     1153
 91
        4
280
     0
281
     0
  0
CLASS
  1
DICTIONARYVAR
  2
AcDbDictionaryVar
  3
ObjectDBX Classes
 90
        0
 91
        4
280
     0
281
     0
  0
CLASS
  1
CELLSTYLEMAP
  2
AcDbCellStyleMap
  3
ObjectDBX Classes
 90
     1152
 91
        4
280
     0
281
     0
  0
ENDSEC
  0
SECTION
  2
TABLES
  0
TABLE
  2
VPORT
  5
19D
330
0
100
AcDbSymbolTable
 70
     1
  0
VPORT
  5
1BD
330
19D
100
AcDbSymbolTableRecord
100
AcDbViewportTableRecord
  2
*Active
 70
     0
 10
0.0
 20
0.0
 11
1.0
 21
1.0
 12
10.42990654205607
 22
4.5
 13
0.0
 23
0.0
 14
0.5
 24
0.5
 15
0.5
 25
0.5
 16
0.0
 26
0.0
 36
1.0
 17
0.0
 27
0.0
 37
0.0
 40
9.0
 41
1.972972972850329
 42
50.0
 43
0.0
 44
0.0
 50
0.0
 51
0.0
 71
     0
 72
   100
 73
     1
 74
     3
 75
     0
 76
     0
 77
     0
 78
     0
281
     0
 65
     1
110
0.0
120
0.0
130
0.0
111
1.0
121
0.0
131
0.0
112
0.0
122
1.0
132
0.0
 79
     0
146
0.0
 60
     3
 61
     5
292
     1
282
     1
141
0.0
142
0.0
 63
   250
361
201
  0
ENDTAB
  0
TABLE
  2
LTYPE
  5
19A
330
0
100
AcDbSymbolTable
 70
    48
  0
LTYPE
  5
1A8
330
19A
100
AcDbSymbolTableRecord
100
AcDbLinetypeTableRecord
  2
ByBlock
 70
     0
  3

 72
    65
 73
     0
 40
0.0
  0
LTYPE
  5
1A9
330
19A
100
AcDbSymbolTableRecord
100
AcDbLinetypeTableRecord
  2
ByLayer
 70
     0
  3

 72
    65
 73
     0
 40
0.0
  0
LTYPE
  5
1AA
330
19A
100
AcDbSymbolTableRecord
100
AcDbLinetypeTableRecord
  2
Continuous
 70
     0
  3
Solid line
 72
    65
 73
     0
 40
0.0
  0
LTYPE
  5
239
330
19A
100
AcDbSymbolTableRecord
100
AcDbLinetypeTableRecord
  2
ACAD_ISO02W100
 70
     0
  3
ISO dash __ __ __ __ __ __ __ __ __ __ __ __ __
 72
    65
 73
     2
 40
15.0
 49
12.0
 74
     0
 49
-3.0
 74
     0
  0
LTYPE
  5
23A
330
19A
100
AcDbSymbolTableRecord
100
AcDbLinetypeTableRecord
  2
ACAD_ISO03W100
 70
     0
  3
ISO dash space __    __    __    __    __    __
 72
    65
 73
     2
 40
30.0
 49
12.0
 74
     0
 49
-18.0
 74
     0
  0
LTYPE
  5
23B
330
19A
100
AcDbSymbolTableRecord
100
AcDbLinetypeTableRecord
  2
ACAD_ISO04W100
 70
     0
  3
ISO long-dash dot ____ . ____ . ____ . ____ . _
 72
    65
 73
     4
 40
30.0
 49
24.0
 74
     0
 49
-3.0
 74
     0
 49
0.0
 74
     0
 49
-3.0
 74
     0
  0
LTYPE
  5
23C
330
19A
100
AcDbSymbolTableRecord
100
AcDbLinetypeTableRecord
  2
ACAD_ISO05W100
 70
     0
  3
ISO long-dash double-dot ____ .. ____ .. ____ . 
 72
    65
 73
     6
 40
33.0
 49
24.0
 74
     0
 49
-3.0
 74
     0
 49
0.0
 74
     0
 49
-3.0
 74
     0
 49
0.0
 74
     0
 49
-3.0
 74
     0
  0
LTYPE
  5
23D
330
19A
100
AcDbSymbolTableRecord
100
AcDbLinetypeTableRecord
  2
ACAD_ISO06W100
 70
     0
  3
ISO long-dash triple-dot ____ ... ____ ... ____
 72
    65
 73
     8
 40
36.0
 49
24.0
 74
     0
 49
-3.0
 74
     0
 49
0.0
 74
     0
 49
-3.0
 74
     0
 49
0.0
 74
     0
 49
-3.0
 74
     0
 49
0.0
 74
     0
 49
-3.0
 74
     0
  0
LTYPE
  5
23E
330
19A
100
AcDbSymbolTableRecord
100
AcDbLinetypeTableRecord
  2
ACAD_ISO07W100
 70
     0
  3
ISO dot . . . . . . . . . . . . . . . . . . . . 
 72
    65
 73
     2
 40
3.0
 49
0.0
 74
     0
 49
-3.0
 74
     0
  0
LTYPE
  5
23F
330
19A
100
AcDbSymbolTableRecord
100
AcDbLinetypeTableRecord
  2
ACAD_ISO08W100
 70
     0
  3
ISO long-dash short-dash ____ __ ____ __ ____ _
 72
    65
 73
     4
 40
36.0
 49
24.0
 74
     0
 49
-3.0
 74
     0
 49
6.0
 74
     0
 49
-3.0
 74
     0
  0
LTYPE
  5
240
330
19A
100
AcDbSymbolTableRecord
100
AcDbLinetypeTableRecord
  2
ACAD_ISO09W100
 70
     0
  3
ISO long-dash double-short-dash ____ __ __ ____
 72
    65
 73
     6
 40
45.0
 49
24.0
 74
     0
 49
-3.0
 74
     0
 49
6.0
 74
     0
 49
-3.0
 74
     0
 49
6.0
 74
     0
 49
-3.0
 74
     0
  0
LTYPE
  5
241
330
19A
100
AcDbSymbolTableRecord
100
AcDbLinetypeTableRecord
  2
ACAD_ISO10W100
 70
     0
  3
ISO dash dot __ . __ . __ . __ . __ . __ . __ . 
 72
    65
 73
     4
 40
18.0
 49
12.0
 74
     0
 49
-3.0
 74
     0
 49
0.0
 74
     0
 49
-3.0
 74
     0
  0
LTYPE
  5
242
330
19A
100
AcDbSymbolTableRecord
100
AcDbLinetypeTableRecord
  2
ACAD_ISO11W100
 70
     0
  3
ISO double-dash dot __ __ . __ __ . __ __ . __ _
 72
    65
 73
     6
 40
33.0
 49
12.0
 74
     0
 49
-3.0
 74
     0
 49
12.0
 74
     0
 49
-3.0
 74
     0
 49
0.0
 74
     0
 49
-3.0
 74
     0
  0
LTYPE
  5
243
330
19A
100
AcDbSymbolTableRecord
100
AcDbLinetypeTableRecord
  2
ACAD_ISO12W100
 70
     0
  3
ISO dash double-dot __ . . __ . . __ . . __ . . 
 72
    65
 73
     6
 40
21.0
 49
12.0
 74
     0
 49
-3.0
 74
     0
 49
0.0
 74
     0
 49
-3.0
 74
     0
 49
0.0
 74
     0
 49
-3.0
 74
     0
  0
LTYPE
  5
244
330
19A
100
AcDbSymbolTableRecord
100
AcDbLinetypeTableRecord
  2
ACAD_ISO13W100
 70
     0
  3
ISO double-dash double-dot __ __ . . __ __ . . _
 72
    65
 73
     8
 40
36.0
 49
12.0
 74
     0
 49
-3.0
 74
     0
 49
12.0
 74
     0
 49
-3.0
 74
     0
 49
0.0
 74
     0
 49
-3.0
 74
     0
 49
0.0
 74
     0
 49
-3.0
 74
     0
  0
LTYPE
  5
245
330
19A
100
AcDbSymbolTableRecord
100
AcDbLinetypeTableRecord
  2
ACAD_ISO14W100
 70
     0
  3
ISO dash triple-dot __ . . . __ . . . __ . . . _
 72
    65
 73
     8
 40
24.0
 49
12.0
 74
     0
 49
-3.0
 74
     0
 49
0.0
 74
     0
 49
-3.0
 74
     0
 49
0.0
 74
     0
 49
-3.0
 74
     0
 49
0.0
 74
     0
 49
-3.0
 74
     0
  0
LTYPE
  5
246
330
19A
100
AcDbSymbolTableRecord
100
AcDbLinetypeTableRecord
  2
ACAD_ISO15W100
 70
     0
  3
ISO double-dash triple-dot __ __ . . . __ __ . .
 72
    65
 73
    10
 40
39.0
 49
12.0
 74
     0
 49
-3.0
 74
     0
 49
12.0
 74
     0
 49
-3.0
 74
     0
 49
0.0
 74
     0
 49
-3.0
 74
     0
 49
0.0
 74
     0
 49
-3.0
 74
     0
 49
0.0
 74
     0
 49
-3.0
 74
     0
  0
LTYPE
  5
249
330
19A
100
AcDbSymbolTableRecord
100
AcDbLinetypeTableRecord
  2
BATTING
 70
     0
  3
Batting SSSSSSSSSSSSSSSSSSSSSSSSSSSSSSSSSSSSSSSSSSSSSSS
 72
    65
 73
     4
 40
10.16254
 49
0.00254
 74
     0
 49
-2.54
 74
     2
 75
     0
340
247
 46
2.54
 50
0.0
 44
-2.54
 45
0.0
  9
BAT
 49
-5.08
 74
     2
 75
     0
340
248
 46
2.54
 50
180.0
 44
2.54
 45
0.0
  9
BAT
 49
-2.54
 74
     0
  0
LTYPE
  5
24A
330
19A
100
AcDbSymbolTableRecord
100
AcDbLinetypeTableRecord
  2
BORDER
 70
     0
  3
Border __ __ . __ __ . __ __ . __ __ . __ __ .
 72
    65
 73
     6
 40
44.45
 49
12.7
 74
     0
 49
-6.35
 74
     0
 49
12.7
 74
     0
 49
-6.35
 74
     0
 49
0.0
 74
     0
 49
-6.35
 74
     0
  0
LTYPE
  5
24B
330
19A
100
AcDbSymbolTableRecord
100
AcDbLinetypeTableRecord
  2
BORDER2
 70
     0
  3
Border (.5x) __.__.__.__.__.__.__.__.__.__.__.
 72
    65
 73
     6
 40
22.225
 49
6.35
 74
     0
 49
-3.175
 74
     0
 49
6.35
 74
     0
 49
-3.175
 74
     0
 49
0.0
 74
     0
 49
-3.175
 74
     0
  0
LTYPE
  5
24C
330
19A
100
AcDbSymbolTableRecord
100
AcDbLinetypeTableRecord
  2
BORDERX2
 70
     0
  3
Border (2x) ____  ____  .  ____  ____  .  ___
 72
    65
 73
     6
 40
88.89999999999999
 49
25.4
 74
     0
 49
-12.7
 74
     0
 49
25.4
 74
     0
 49
-12.7
 74
     0
 49
0.0
 74
     0
 49
-12.7
 74
     0
  0
LTYPE
  5
24D
330
19A
100
AcDbSymbolTableRecord
100
AcDbLinetypeTableRecord
  2
CENTER
 70
     0
  3
Center ____ _ ____ _ ____ _ ____ _ ____ _ ____
 72
    65
 73
     4
 40
50.8
 49
31.75
 74
     0
 49
-6.35
 74
     0
 49
6.35
 74
     0
 49
-6.35
 74
     0
  0
LTYPE
  5
24E
330
19A
100
AcDbSymbolTableRecord
100
AcDbLinetypeTableRecord
  2
CENTER2
 70
     0
  3
Center (.5x) ___ _ ___ _ ___ _ ___ _ ___ _ ___
 72
    65
 73
     4
 40
28.575
 49
19.05
 74
     0
 49
-3.175
 74
     0
 49
3.175
 74
     0
 49
-3.175
 74
     0
  0
LTYPE
  5
24F
330
19A
100
AcDbSymbolTableRecord
100
AcDbLinetypeTableRecord
  2
CENTERX2
 70
     0
  3
Center (2x) ________  __  ________  __  _____
 72
    65
 73
     4
 40
101.6
 49
63.5
 74
     0
 49
-12.7
 74
     0
 49
12.7
 74
     0
 49
-12.7
 74
     0
  0
LTYPE
  5
250
330
19A
100
AcDbSymbolTableRecord
100
AcDbLinetypeTableRecord
  2
DASHDOT
 70
     0
  3
Dash dot __ . __ . __ . __ . __ . __ . __ . __
 72
    65
 73
     4
 40
25.4
 49
12.7
 74
     0
 49
-6.35
 74
     0
 49
0.0
 74
     0
 49
-6.35
 74
     0
  0
LTYPE
  5
251
330
19A
100
AcDbSymbolTableRecord
100
AcDbLinetypeTableRecord
  2
DASHDOT2
 70
     0
  3
Dash dot (.5x) _._._._._._._._._._._._._._._.
 72
    65
 73
     4
 40
12.7
 49
6.35
 74
     0
 49
-3.175
 74
     0
 49
0.0
 74
     0
 49
-3.175
 74
     0
  0
LTYPE
  5
252
330
19A
100
AcDbSymbolTableRecord
100
AcDbLinetypeTableRecord
  2
DASHDOTX2
 70
     0
  3
Dash dot (2x) ____  .  ____  .  ____  .  ___
 72
    65
 73
     4
 40
50.8
 49
25.4
 74
     0
 49
-12.7
 74
     0
 49
0.0
 74
     0
 49
-12.7
 74
     0
  0
LTYPE
  5
253
330
19A
100
AcDbSymbolTableRecord
100
AcDbLinetypeTableRecord
  2
DASHED
 70
     0
  3
Dashed __ __ __ __ __ __ __ __ __ __ __ __ __ _
 72
    65
 73
     2
 40
19.05
 49
12.7
 74
     0
 49
-6.35
 74
     0
  0
LTYPE
  5
254
330
19A
100
AcDbSymbolTableRecord
100
AcDbLinetypeTableRecord
  2
DASHED2
 70
     0
  3
Dashed (.5x) _ _ _ _ _ _ _ _ _ _ _ _ _ _ _ _ _ 
 72
    65
 73
     2
 40
9.524999999999999
 49
6.35
 74
     0
 49
-3.175
 74
     0
  0
LTYPE
  5
255
330
19A
100
AcDbSymbolTableRecord
100
AcDbLinetypeTableRecord
  2
DASHEDX2
 70
     0
  3
Dashed (2x) ____  ____  ____  ____  ____  ___
 72
    65
 73
     2
 40
38.09999999999999
 49
25.4
 74
     0
 49
-12.7
 74
     0
  0
LTYPE
  5
256
330
19A
100
AcDbSymbolTableRecord
100
AcDbLinetypeTableRecord
  2
DIVIDE
 70
     0
  3
Divide ____ . . ____ . . ____ . . ____ . . ____
 72
    65
 73
     6
 40
31.75
 49
12.7
 74
     0
 49
-6.35
 74
     0
 49
0.0
 74
     0
 49
-6.35
 74
     0
 49
0.0
 74
     0
 49
-6.35
 74
     0
  0
LTYPE
  5
257
330
19A
100
AcDbSymbolTableRecord
100
AcDbLinetypeTableRecord
  2
DIVIDE2
 70
     0
  3
Divide (.5x) __..__..__..__..__..__..__..__.._
 72
    65
 73
     6
 40
15.875
 49
6.35
 74
     0
 49
-3.175
 74
     0
 49
0.0
 74
     0
 49
-3.175
 74
     0
 49
0.0
 74
     0
 49
-3.175
 74
     0
  0
LTYPE
  5
258
330
19A
100
AcDbSymbolTableRecord
100
AcDbLinetypeTableRecord
  2
DIVIDEX2
 70
     0
  3
Divide (2x) ________  .  .  ________  .  .  _
 72
    65
 73
     6
 40
63.5
 49
25.4
 74
     0
 49
-12.7
 74
     0
 49
0.0
 74
     0
 49
-12.7
 74
     0
 49
0.0
 74
     0
 49
-12.7
 74
     0
  0
LTYPE
  5
259
330
19A
100
AcDbSymbolTableRecord
100
AcDbLinetypeTableRecord
  2
DOT
 70
     0
  3
Dot . . . . . . . . . . . . . . . . . . . . . . . .
 72
    65
 73
     2
 40
6.35
 49
0.0
 74
     0
 49
-6.35
 74
     0
  0
LTYPE
  5
25A
330
19A
100
AcDbSymbolTableRecord
100
AcDbLinetypeTableRecord
  2
DOT2
 70
     0
  3
Dot (.5x) ........................................
 72
    65
 73
     2
 40
3.175
 49
0.0
 74
     0
 49
-3.175
 74
     0
  0
LTYPE
  5
25B
330
19A
100
AcDbSymbolTableRecord
100
AcDbLinetypeTableRecord
  2
DOTX2
 70
     0
  3
Dot (2x) .  .  .  .  .  .  .  .  .  .  .  .  .  .
 72
    65
 73
     2
 40
12.7
 49
0.0
 74
     0
 49
-12.7
 74
     0
  0
LTYPE
  5
25D
330
19A
100
AcDbSymbolTableRecord
100
AcDbLinetypeTableRecord
  2
DRAINAGE
 70
     0
  3
Drainage ---->---->---->----
 72
    65
 73
     2
 40
10.16
 49
5.08
 74
     2
 75
     0
340
25C
 46
2.54
 50
180.0
 44
0.0
 45
0.0
  9
RIGHT_ARROW
 49
5.08
 74
     0
  0
LTYPE
  5
25F
330
19A
100
AcDbSymbolTableRecord
100
AcDbLinetypeTableRecord
  2
DRAINAGE2
 70
     0
  3
Drainage reversed----<----<----<----
 72
    65
 73
     2
 40
10.16
 49
5.08
 74
     2
 75
     0
340
25E
 46
2.54
 50
0.0
 44
0.0
 45
0.0
  9
RIGHT_ARROW
 49
5.08
 74
     0
  0
LTYPE
  5
261
330
19A
100
AcDbSymbolTableRecord
100
AcDbLinetypeTableRecord
  2
FENCELINE1
 70
     0
  3
Fenceline circle ----0-----0----0-----0----0-----0--
 72
    65
 73
     4
 40
36.83
 49
6.35
 74
     0
 49
-2.54
 74
     2
 75
     0
340
260
 46
2.54
 50
0.0
 44
-2.54
 45
0.0
  9
CIRC1
 49
-2.54
 74
     0
 49
25.4
 74
     0
  0
LTYPE
  5
263
330
19A
100
AcDbSymbolTableRecord
100
AcDbLinetypeTableRecord
  2
FENCELINE2
 70
     0
  3
Fenceline square ----[]-----[]----[]-----[]----[]---
 72
    65
 73
     4
 40
36.83
 49
6.35
 74
     0
 49
-2.54
 74
     2
 75
     0
340
262
 46
2.54
 50
0.0
 44
-2.54
 45
0.0
  9
BOX
 49
-2.54
 74
     0
 49
25.4
 74
     0
  0
LTYPE
  5
265
330
19A
100
AcDbSymbolTableRecord
100
AcDbLinetypeTableRecord
  2
GAS_LINE
 70
     0
  3
Gas line ----GAS----GAS----GAS----GAS----GAS----GAS--
 72
    65
 73
     3
 40
24.13
 49
12.7
 74
     0
 49
-5.08
 74
     2
 75
     0
340
264
 46
2.54
 50
0.0
 44
-2.54
 45
-1.27
  9
GAS
 49
-6.35
 74
     0
  0
LTYPE
  5
266
330
19A
100
AcDbSymbolTableRecord
100
AcDbLinetypeTableRecord
  2
HIDDEN
 70
     0
  3
Hidden __ __ __ __ __ __ __ __ __ __ __ __ __ __
 72
    65
 73
     2
 40
9.524999999999999
 49
6.35
 74
     0
 49
-3.175
 74
     0
  0
LTYPE
  5
267
330
19A
100
AcDbSymbolTableRecord
100
AcDbLinetypeTableRecord
  2
HIDDEN2
 70
     0
  3
Hidden (.5x) _ _ _ _ _ _ _ _ _ _ _ _ _ _ _ _ _ 
 72
    65
 73
     2
 40
4.762499999999999
 49
3.175
 74
     0
 49
-1.5875
 74
     0
  0
LTYPE
  5
268
330
19A
100
AcDbSymbolTableRecord
100
AcDbLinetypeTableRecord
  2
HIDDENX2
 70
     0
  3
Hidden (2x) ____ ____ ____ ____ ____ ____ ____ 
 72
    65
 73
     2
 40
19.05
 49
12.7
 74
     0
 49
-6.35
 74
     0
  0
LTYPE
  5
26A
330
19A
100
AcDbSymbolTableRecord
100
AcDbLinetypeTableRecord
  2
HOT_WATER_SUPPLY
 70
     0
  3
Hot water supply ---- HW ---- HW ---- HW ----
 72
    65
 73
     3
 40
22.86
 49
12.7
 74
     0
 49
-5.08
 74
     2
 75
     0
340
269
 46
2.54
 50
0.0
 44
-2.54
 45
-1.27
  9
HW
 49
-5.08
 74
     0
  0
LTYPE
  5
26B
330
19A
100
AcDbSymbolTableRecord
100
AcDbLinetypeTableRecord
  2
PHANTOM
 70
     0
  3
Phantom ______  __  __  ______  __  __  ______ 
 72
    65
 73
     6
 40
63.50000000000001
 49
31.75
 74
     0
 49
-6.35
 74
     0
 49
6.35
 74
     0
 49
-6.35
 74
     0
 49
6.35
 74
     0
 49
-6.35
 74
     0
  0
LTYPE
  5
26C
330
19A
100
AcDbSymbolTableRecord
100
AcDbLinetypeTableRecord
  2
PHANTOM2
 70
     0
  3
Phantom (.5x) ___ _ _ ___ _ _ ___ _ _ ___ _ _
 72
    65
 73
     6
 40
31.75
 49
15.875
 74
     0
 49
-3.175
 74
     0
 49
3.175
 74
     0
 49
-3.175
 74
     0
 49
3.175
 74
     0
 49
-3.175
 74
     0
  0
LTYPE
  5
26D
330
19A
100
AcDbSymbolTableRecord
100
AcDbLinetypeTableRecord
  2
PHANTOMX2
 70
     0
  3
Phantom (2x) ____________    ____    ____   _
 72
    65
 73
     6
 40
127.0
 49
63.5
 74
     0
 49
-12.7
 74
     0
 49
12.7
 74
     0
 49
-12.7
 74
     0
 49
12.7
 74
     0
 49
-12.7
 74
     0
  0
LTYPE
  5
26F
330
19A
100
AcDbSymbolTableRecord
100
AcDbLinetypeTableRecord
  2
TRACKS
 70
     0
  3
Tracks -|-|-|-|-|-|-|-|-|-|-|-|-|-|-|-|-|-|-|-|-|-|-|-|-
 72
    65
 73
     2
 40
7.62
 49
3.81
 74
     2
 75
     0
340
26E
 46
6.35
 50
0.0
 44
0.0
 45
0.0
  9
TRACK1
 49
3.81
 74
     0
  0
LTYPE
  5
272
330
19A
100
AcDbSymbolTableRecord
100
AcDbLinetypeTableRecord
  2
ZIGZAG
 70
     0
  3
Zig zag /\/\/\/\/\/\/\/\/\/\/\/\/\/\/\/\/\/\/\/\/\/\/\/
 72
    65
 73
     4
 40
20.32254
 49
0.00254
 74
     0
 49
-5.08
 74
     2
 75
     0
340
270
 46
5.08
 50
0.0
 44
-5.08
 45
0.0
  9
ZIG
 49
-10.16
 74
     2
 75
     0
340
271
 46
5.08
 50
180.0
 44
5.08
 45
0.0
  9
ZIG
 49
-5.08
 74
     0
  0
ENDTAB
  0
TABLE
  2
LAYER
  5
197
330
0
100
AcDbSymbolTable
 70
     5
  0
LAYER
  5
1A5
330
197
100
AcDbSymbolTableRecord
100
AcDbLayerTableRecord
  2
0
 70
     0
 62
     7
420
 16777215
  6
Continuous
370
    25
390
1A4
347
1DA
348
0
  0
LAYER
  5
273
330
197
100
AcDbSymbolTableRecord
100
AcDbLayerTableRecord
  2
0 ... Seuil
 70
     0
 62
   178
420
        0
  6
Continuous
370
    25
390
1A4
347
1DA
348
0
  0
LAYER
  5
274
330
197
100
AcDbSymbolTableRecord
100
AcDbLayerTableRecord
  2
0 ... Seuil ... Rectangle
 70
     0
 62
     5
420
      255
  6
Continuous
370
    25
390
1A4
347
1DA
348
0
  0
LAYER
  5
275
330
197
100
AcDbSymbolTableRecord
100
AcDbLayerTableRecord
  2
0 ... Seuil ... Rectangle ... Cotes Angles
 70
     0
 62
     4
420
    65535
  6
Continuous
370
    25
390
1A4
347
1DA
348
0
  0
LAYER
  5
276
330
197
100
AcDbSymbolTableRecord
100
AcDbLayerTableRecord
  2
Defpoints
 70
     0
 62
     7
420
 16777215
  6
Continuous
290
     0
370
    -3
390
1A4
347
1DA
348
0
  0
ENDTAB
  0
TABLE
  2
STYLE
  5
198
330
0
100
AcDbSymbolTable
 70
    22
  0
STYLE
  5
1A6
330
198
100
AcDbSymbolTableRecord
100
AcDbTextStyleTableRecord
  2
Standard
 70
     0
 40
0.0
 41
1.0
 50
0.0
 71
     0
 42
0.2
  3
txt
  4

  0
STYLE
  5
237
330
198
100
AcDbSymbolTableRecord
100
AcDbTextStyleTableRecord
  2
QCADDimTextStyle
 70
     0
 40
0.0
 41
1.0
 50
0.0
 71
     0
 42
0.2
  3

  4

  0
STYLE
  5
247
330
198
100
AcDbSymbolTableRecord
100
AcDbTextStyleTableRecord
  2
textstyle0
 70
     0
 40
0.0
 41
1.0
 50
0.0
 71
     0
 42
0.2
  3
ltypeshp.shx
  4

  0
STYLE
  5
248
330
198
100
AcDbSymbolTableRecord
100
AcDbTextStyleTableRecord
  2
textstyle1
 70
     0
 40
0.0
 41
1.0
 50
0.0
 71
     0
 42
0.2
  3
ltypeshp.shx
  4

  0
STYLE
  5
25C
330
198
100
AcDbSymbolTableRecord
100
AcDbTextStyleTableRecord
  2
textstyle2
 70
     0
 40
0.0
 41
1.0
 50
0.0
 71
     0
 42
0.2
  3
qcadshp.shx
  4

  0
STYLE
  5
25E
330
198
100
AcDbSymbolTableRecord
100
AcDbTextStyleTableRecord
  2
textstyle3
 70
     0
 40
0.0
 41
1.0
 50
0.0
 71
     0
 42
0.2
  3
qcadshp.shx
  4

  0
STYLE
  5
260
330
198
100
AcDbSymbolTableRecord
100
AcDbTextStyleTableRecord
  2
textstyle4
 70
     0
 40
0.0
 41
1.0
 50
0.0
 71
     0
 42
0.2
  3
ltypeshp.shx
  4

  0
STYLE
  5
262
330
198
100
AcDbSymbolTableRecord
100
AcDbTextStyleTableRecord
  2
textstyle5
 70
     0
 40
0.0
 41
1.0
 50
0.0
 71
     0
 42
0.2
  3
ltypeshp.shx
  4

  0
STYLE
  5
264
330
198
100
AcDbSymbolTableRecord
100
AcDbTextStyleTableRecord
  2
textstyle6
 70
     0
 40
0.0
 41
1.0
 50
0.0
 71
     0
 42
0.2
  3
STANDARD
  4

  0
STYLE
  5
269
330
198
100
AcDbSymbolTableRecord
100
AcDbTextStyleTableRecord
  2
textstyle7
 70
     0
 40
0.0
 41
1.0
 50
0.0
 71
     0
 42
0.2
  3
STANDARD
  4

  0
STYLE
  5
26E
330
198
100
AcDbSymbolTableRecord
100
AcDbTextStyleTableRecord
  2
textstyle8
 70
     0
 40
0.0
 41
1.0
 50
0.0
 71
     0
 42
0.2
  3
ltypeshp.shx
  4

  0
STYLE
  5
270
330
198
100
AcDbSymbolTableRecord
100
AcDbTextStyleTableRecord
  2
textstyle9
 70
     0
 40
0.0
 41
1.0
 50
0.0
 71
     0
 42
0.2
  3
ltypeshp.shx
  4

  0
STYLE
  5
271
330
198
100
AcDbSymbolTableRecord
100
AcDbTextStyleTableRecord
  2
textstyle10
 70
     0
 40
0.0
 41
1.0
 50
0.0
 71
     0
 42
0.2
  3
ltypeshp.shx
  4

  0
STYLE
  5
2FB
330
198
100
AcDbSymbolTableRecord
100
AcDbTextStyleTableRecord
  2
textstyle11
 70
     0
 40
0.0
 41
1.0
 50
0.0
 71
     0
 42
0.2
  3

  4

1001
ACAD
1000
Liberation Sans
1071
        0
  0
STYLE
  5
2FC
330
198
100
AcDbSymbolTableRecord
100
AcDbTextStyleTableRecord
  2
textstyle12
 70
     0
 40
0.0
 41
1.0
 50
0.0
 71
     0
 42
0.2
  3

  4

1001
ACAD
1000
Liberation Sans
1071
        0
  0
STYLE
  5
30C
330
198
100
AcDbSymbolTableRecord
100
AcDbTextStyleTableRecord
  2
textstyle13
 70
     0
 40
0.0
 41
1.0
 50
0.0
 71
     0
 42
0.2
  3

  4

1001
ACAD
1000
Liberation Sans
1071
        0
  0
STYLE
  5
30D
330
198
100
AcDbSymbolTableRecord
100
AcDbTextStyleTableRecord
  2
textstyle14
 70
     0
 40
0.0
 41
1.0
 50
0.0
 71
     0
 42
0.2
  3

  4

1001
ACAD
1000
Liberation Sans
1071
        0
  0
STYLE
  5
30E
330
198
100
AcDbSymbolTableRecord
100
AcDbTextStyleTableRecord
  2
textstyle15
 70
     0
 40
0.0
 41
1.0
 50
0.0
 71
     0
 42
0.2
  3

  4

1001
ACAD
1000
Liberation Sans
1071
        0
  0
STYLE
  5
30F
330
198
100
AcDbSymbolTableRecord
100
AcDbTextStyleTableRecord
  2
textstyle16
 70
     0
 40
0.0
 41
1.0
 50
0.0
 71
     0
 42
0.2
  3

  4

1001
ACAD
1000
Liberation Sans
1071
        0
  0
STYLE
  5
310
330
198
100
AcDbSymbolTableRecord
100
AcDbTextStyleTableRecord
  2
textstyle17
 70
     0
 40
0.0
 41
1.0
 50
0.0
 71
     0
 42
0.2
  3

  4

1001
ACAD
1000
Liberation Sans
1071
        0
  0
STYLE
  5
311
330
198
100
AcDbSymbolTableRecord
100
AcDbTextStyleTableRecord
  2
textstyle18
 70
     0
 40
0.0
 41
1.0
 50
0.0
 71
     0
 42
0.2
  3

  4

1001
ACAD
1000
Liberation Sans
1071
        0
  0
STYLE
  5
344
330
198
100
AcDbSymbolTableRecord
100
AcDbTextStyleTableRecord
  2
textstyle19
 70
     0
 40
0.0
 41
1.0
 50
0.0
 71
     0
 42
0.2
  3

  4

1001
ACAD
1000
Liberation Sans
1071
        0
  0
ENDTAB
  0
TABLE
  2
VIEW
  5
19B
330
0
100
AcDbSymbolTable
 70
     0
  0
ENDTAB
  0
TABLE
  2
UCS
  5
19C
330
0
100
AcDbSymbolTable
 70
     0
  0
ENDTAB
  0
TABLE
  2
APPID
  5
19E
330
0
100
AcDbSymbolTable
 70
     2
  0
APPID
  5
1A7
330
19E
100
AcDbSymbolTableRecord
100
AcDbRegAppTableRecord
  2
ACAD
 70
     0
  0
APPID
  5
202
330
19E
100
AcDbSymbolTableRecord
100
AcDbRegAppTableRecord
  2
QCAD
 70
     0
  0
ENDTAB
  0
TABLE
  2
DIMSTYLE
  5
19F
330
0
100
AcDbSymbolTable
 70
     2
100
AcDbDimStyleTable
  0
DIMSTYLE
105
1BB
330
19F
100
AcDbSymbolTableRecord
100
AcDbDimStyleTableRecord
  2
Standard
 70
     0
178
     0
340
1A6
  0
DIMSTYLE
105
238
102
{ACAD_REACTORS
330
44
330
45
330
46
330
47
330
48
330
4F
330
50
330
51
330
52
330
53
330
58
330
9A
330
A3
330
B4
330
B5
330
B6
102
}
330
19F
100
AcDbSymbolTableRecord
100
AcDbDimStyleTableRecord
  2
QCADDimStyle
 70
     0
 41
20.0
 42
5.0
 44
10.0
 73
     0
 77
     1
140
20.0
147
5.0
178
     0
340
237
  0
ENDTAB
  0
TABLE
  2
BLOCK_RECORD
  5
196
330
0
100
AcDbSymbolTable
 70
    17
  0
BLOCK_RECORD
  5
1B3
330
196
100
AcDbSymbolTableRecord
100
AcDbBlockTableRecord
  2
*Model_Space
340
1B6
 70
     0
280
     1
281
     0
  0
BLOCK_RECORD
  5
1AF
330
196
100
AcDbSymbolTableRecord
100
AcDbBlockTableRecord
  2
*Paper_Space
340
1B2
 70
     0
280
     1
281
     0
  0
BLOCK_RECORD
  5
1B7
330
196
100
AcDbSymbolTableRecord
100
AcDbBlockTableRecord
  2
*Paper_Space0
340
1BA
 70
     0
280
     1
281
     0
  0
BLOCK_RECORD
  5
277
330
196
100
AcDbSymbolTableRecord
100
AcDbBlockTableRecord
  2
*D1
340
0
 70
     0
280
     1
281
     0
  0
BLOCK_RECORD
  5
283
330
196
100
AcDbSymbolTableRecord
100
AcDbBlockTableRecord
  2
*D2
340
0
 70
     0
280
     1
281
     0
  0
BLOCK_RECORD
  5
28F
330
196
100
AcDbSymbolTableRecord
100
AcDbBlockTableRecord
  2
*D3
340
0
 70
     0
280
     1
281
     0
  0
BLOCK_RECORD
  5
29B
330
196
100
AcDbSymbolTableRecord
100
AcDbBlockTableRecord
  2
*D4
340
0
 70
     0
280
     1
281
     0
  0
BLOCK_RECORD
  5
2A6
330
196
100
AcDbSymbolTableRecord
100
AcDbBlockTableRecord
  2
*D5
340
0
 70
     0
280
     1
281
     0
  0
BLOCK_RECORD
  5
2B3
330
196
100
AcDbSymbolTableRecord
100
AcDbBlockTableRecord
  2
*D6
340
0
 70
     0
280
     1
281
     0
  0
BLOCK_RECORD
  5
2BF
330
196
100
AcDbSymbolTableRecord
100
AcDbBlockTableRecord
  2
*D7
340
0
 70
     0
280
     1
281
     0
  0
BLOCK_RECORD
  5
2CB
330
196
100
AcDbSymbolTableRecord
100
AcDbBlockTableRecord
  2
*D8
340
0
 70
     0
280
     1
281
     0
  0
BLOCK_RECORD
  5
2D7
330
196
100
AcDbSymbolTableRecord
100
AcDbBlockTableRecord
  2
*D9
340
0
 70
     0
280
     1
281
     0
  0
BLOCK_RECORD
  5
2E3
330
196
100
AcDbSymbolTableRecord
100
AcDbBlockTableRecord
  2
*D10
340
0
 70
     0
280
     1
281
     0
  0
BLOCK_RECORD
  5
2EF
330
196
100
AcDbSymbolTableRecord
100
AcDbBlockTableRecord
  2
*D11
340
0
 70
     0
280
     1
281
     0
  0
BLOCK_RECORD
  5
2FD
330
196
100
AcDbSymbolTableRecord
100
AcDbBlockTableRecord
  2
*D12
340
0
 70
     0
280
     1
281
     0
  0
BLOCK_RECORD
  5
312
330
196
100
AcDbSymbolTableRecord
100
AcDbBlockTableRecord
  2
*D13
340
0
 70
     0
280
     1
281
     0
  0
BLOCK_RECORD
  5
321
330
196
100
AcDbSymbolTableRecord
100
AcDbBlockTableRecord
  2
*D14
340
0
 70
     0
280
     1
281
     0
  0
BLOCK_RECORD
  5
32C
330
196
100
AcDbSymbolTableRecord
100
AcDbBlockTableRecord
  2
*D15
340
0
 70
     0
280
     1
281
     0
  0
BLOCK_RECORD
  5
338
330
196
100
AcDbSymbolTableRecord
100
AcDbBlockTableRecord
  2
*D16
340
0
 70
     0
280
     1
281
     0
  0
ENDTAB
  0
ENDSEC
  0
SECTION
  2
BLOCKS
  0
BLOCK
  5
1B4
330
1B3
100
AcDbEntity
  8
0
100
AcDbBlockBegin
  2
*Model_Space
 70
     0
 10
0.0
 20
0.0
 30
0.0
  3
*Model_Space
  1
*Model_Space
  0
ENDBLK
  5
1B5
330
1B3
100
AcDbEntity
  8
0
100
AcDbBlockEnd
  0
BLOCK
  5
1B0
330
1AF
100
AcDbEntity
 67
     1
  8
0
100
AcDbBlockBegin
  2
*Paper_Space
 70
     0
 10
0.0
 20
0.0
 30
0.0
  3
*Paper_Space
  1
*Paper_Space
  0
ENDBLK
  5
1B1
330
1AF
100
AcDbEntity
 67
     1
  8
0
100
AcDbBlockEnd
  0
BLOCK
  5
1B8
330
1B7
100
AcDbEntity
  8
0
100
AcDbBlockBegin
  2
*Paper_Space0
 70
     0
 10
0.0
 20
0.0
 30
0.0
  3
*Paper_Space0
  1
*Paper_Space0
  0
ENDBLK
  5
1B9
330
1B7
100
AcDbEntity
  8
0
100
AcDbBlockEnd
  0
BLOCK
  5
278
330
277
100
AcDbEntity
  8
0
100
AcDbBlockBegin
  2
*D1
 70
     1
 10
0.0
 20
0.0
 30
0.0
  3
*D1
  1
*D1
  0
LINE
  5
27A
330
277
100
AcDbEntity
  8
0 ... Seuil ... Rectangle ... Cotes Angles
 62
     0
370
    -2
100
AcDbLine
 10
509.6322624579699
 20
1074.965161524989
 30
0.0
 11
455.1056027499809
 21
1070.194696940604
 31
0.0
  0
LINE
  5
27B
330
277
100
AcDbEntity
  8
0 ... Seuil ... Rectangle ... Cotes Angles
 62
     0
370
    -2
100
AcDbLine
 10
528.7047911066221
 20
856.9651615249904
 30
0.0
 11
474.1781313986331
 21
852.1946969406054
 31
0.0
  0
LINE
  5
27C
330
277
100
AcDbEntity
  8
0 ... Seuil ... Rectangle ... Cotes Angles
 62
     0
370
    -2
100
AcDbLine
 10
465.0675497308983
 20
1071.06625436808
 30
0.0
 11
484.1400783795506
 21
853.066254368082
 31
0.0
  0
LINE
  5
27D
330
277
100
AcDbEntity
  8
0 ... Seuil ... Rectangle ... Cotes Angles
 62
     0
370
    -2
100
AcDbLine
 10
486.7345585476865
 20
1052.885475261199
 30
0.0
 11
443.4005409141102
 21
1089.247033474962
 31
0.0
  0
LINE
  5
27E
330
277
100
AcDbEntity
  8
0 ... Seuil ... Rectangle ... Cotes Angles
 62
     0
370
    -2
100
AcDbLine
 10
462.4730695627624
 20
871.2470334749637
 30
0.0
 11
505.8070871963387
 21
834.8854752612003
 31
0.0
  0
MTEXT
  5
27F
330
277
100
AcDbEntity
  8
0 ... Seuil ... Rectangle ... Cotes Angles
 62
     0
100
AcDbMText
 10
489.5467345266006
 20
963.3735905092959
 30
0.0
 40
20.0
 41
0.0
 46
0.0
 71
     5
 72
     1
  1
\A1;218.8327
  7
QCADDimTextStyle
 11
0.08715574274766248
 21
-0.9961946980917451
 31
0.0
 73
     1
 44
1.0
  0
POINT
  5
280
330
277
100
AcDbEntity
  8
Defpoints
 62
     0
100
AcDbPoint
 10
514.6132359484286
 20
1075.400940238727
 30
0.0
  0
POINT
  5
281
330
277
100
AcDbEntity
  8
Defpoints
 62
     0
100
AcDbPoint
 10
533.6857645970808
 20
857.4009402387287
 30
0.0
  0
POINT
  5
282
330
277
100
AcDbEntity
  8
Defpoints
 62
     0
100
AcDbPoint
 10
484.1400783795506
 20
853.066254368082
 30
0.0
  0
ENDBLK
  5
279
330
277
100
AcDbEntity
  8
0
100
AcDbBlockEnd
  0
BLOCK
  5
284
330
283
100
AcDbEntity
  8
0
100
AcDbBlockBegin
  2
*D2
 70
     1
 10
0.0
 20
0.0
 30
0.0
  3
*D2
  1
*D2
  0
LINE
  5
286
330
283
100
AcDbEntity
  8
0 ... Seuil ... Rectangle ... Cotes Angles
 62
     0
370
    -2
100
AcDbLine
 10
537.7044999009759
 20
1099.40094023873
 30
0.0
 11
420.33895741069
 21
1099.40094023873
 31
0.0
  0
LINE
  5
287
330
283
100
AcDbEntity
  8
0 ... Seuil ... Rectangle ... Cotes Angles
 62
     0
370
    -2
100
AcDbLine
 10
509.6132359484286
 20
1075.400940238727
 30
0.0
 11
420.33895741069
 21
1075.400940238727
 31
0.0
  0
LINE
  5
288
330
283
100
AcDbEntity
  8
0 ... Seuil ... Rectangle ... Cotes Angles
 62
     0
370
    -2
100
AcDbLine
 10
430.33895741069
 20
1099.40094023873
 30
0.0
 11
430.33895741069
 21
1075.400940238727
 31
0.0
  0
LINE
  5
289
330
283
100
AcDbEntity
  8
0 ... Seuil ... Rectangle ... Cotes Angles
 62
     0
370
    -2
100
AcDbLine
 10
450.33895741069
 20
1079.40094023873
 30
0.0
 11
410.33895741069
 21
1119.40094023873
 31
0.0
  0
LINE
  5
28A
330
283
100
AcDbEntity
  8
0 ... Seuil ... Rectangle ... Cotes Angles
 62
     0
370
    -2
100
AcDbLine
 10
410.33895741069
 20
1095.400940238727
 30
0.0
 11
450.33895741069
 21
1055.400940238727
 31
0.0
  0
MTEXT
  5
28B
330
283
100
AcDbEntity
  8
0 ... Seuil ... Rectangle ... Cotes Angles
 62
     0
100
AcDbMText
 10
402.83895741069
 20
1087.400940238728
 30
0.0
 40
20.0
 41
0.0
 46
0.0
 71
     5
 72
     1
  1
\A1;24
  7
QCADDimTextStyle
 73
     1
 44
1.0
  0
POINT
  5
28C
330
283
100
AcDbEntity
  8
Defpoints
 62
     0
100
AcDbPoint
 10
542.7044999009759
 20
1099.40094023873
 30
0.0
  0
POINT
  5
28D
330
283
100
AcDbEntity
  8
Defpoints
 62
     0
100
AcDbPoint
 10
514.6132359484286
 20
1075.400940238727
 30
0.0
  0
POINT
  5
28E
330
283
100
AcDbEntity
  8
Defpoints
 62
     0
100
AcDbPoint
 10
430.33895741069
 20
1075.400940238727
 30
0.0
  0
ENDBLK
  5
285
330
283
100
AcDbEntity
  8
0
100
AcDbBlockEnd
  0
BLOCK
  5
290
330
28F
100
AcDbEntity
  8
0
100
AcDbBlockBegin
  2
*D3
 70
     1
 10
0.0
 20
0.0
 30
0.0
  3
*D3
  1
*D3
  0
LINE
  5
292
330
28F
100
AcDbEntity
  8
0 ... Seuil ... Rectangle ... Cotes Angles
 62
     0
370
    -2
100
AcDbLine
 10
509.6132359484286
 20
1075.400940238727
 30
0.0
 11
420.33895741069
 21
1075.400940238727
 31
0.0
  0
LINE
  5
293
330
28F
100
AcDbEntity
  8
0 ... Seuil ... Rectangle ... Cotes Angles
 62
     0
370
    -2
100
AcDbLine
 10
528.6857645970808
 20
857.4009402387287
 30
0.0
 11
420.33895741069
 21
857.4009402387287
 31
0.0
  0
LINE
  5
294
330
28F
100
AcDbEntity
  8
0 ... Seuil ... Rectangle ... Cotes Angles
 62
     0
370
    -2
100
AcDbLine
 10
430.33895741069
 20
1075.400940238727
 30
0.0
 11
430.33895741069
 21
857.4009402387287
 31
0.0
  0
LINE
  5
295
330
28F
100
AcDbEntity
  8
0 ... Seuil ... Rectangle ... Cotes Angles
 62
     0
370
    -2
100
AcDbLine
 10
450.33895741069
 20
1055.400940238727
 30
0.0
 11
410.33895741069
 21
1095.400940238727
 31
0.0
  0
LINE
  5
296
330
28F
100
AcDbEntity
  8
0 ... Seuil ... Rectangle ... Cotes Angles
 62
     0
370
    -2
100
AcDbLine
 10
410.33895741069
 20
877.4009402387287
 30
0.0
 11
450.33895741069
 21
837.4009402387287
 31
0.0
  0
MTEXT
  5
297
330
28F
100
AcDbEntity
  8
0 ... Seuil ... Rectangle ... Cotes Angles
 62
     0
100
AcDbMText
 10
415.33895741069
 20
966.4009402387278
 30
0.0
 40
20.0
 41
0.0
 46
0.0
 71
     5
 72
     1
  1
\A1;218
  7
QCADDimTextStyle
 11
0.0
 21
1.0
 31
0.0
 73
     1
 44
1.0
  0
POINT
  5
298
330
28F
100
AcDbEntity
  8
Defpoints
 62
     0
100
AcDbPoint
 10
514.6132359484286
 20
1075.400940238727
 30
0.0
  0
POINT
  5
299
330
28F
100
AcDbEntity
  8
Defpoints
 62
     0
100
AcDbPoint
 10
533.6857645970808
 20
857.4009402387287
 30
0.0
  0
POINT
  5
29A
330
28F
100
AcDbEntity
  8
Defpoints
 62
     0
100
AcDbPoint
 10
430.33895741069
 20
857.4009402387287
 30
0.0
  0
ENDBLK
  5
291
330
28F
100
AcDbEntity
  8
0
100
AcDbBlockEnd
  0
BLOCK
  5
29C
330
29B
100
AcDbEntity
  8
0
100
AcDbBlockBegin
  2
*D4
 70
     1
 10
0.0
 20
0.0
 30
0.0
  3
*D4
  1
*D4
  0
LINE
  5
29E
330
29B
100
AcDbEntity
  8
0 ... Seuil ... Rectangle ... Cotes Angles
 62
     0
370
    -2
100
AcDbLine
 10
567.704499900974
 20
1099.400940238725
 30
0.0
 11
608.496127738737
 21
1099.400940238725
 31
0.0
  0
LINE
  5
29F
330
29B
100
AcDbEntity
  8
0 ... Seuil ... Rectangle ... Cotes Angles
 62
     0
370
    -2
100
AcDbLine
 10
567.8357328962638
 20
1097.900940238729
 30
0.0
 11
608.496127738737
 21
1097.900940238729
 31
0.0
  0
LINE
  5
2A0
330
29B
100
AcDbEntity
  8
0 ... Seuil ... Rectangle ... Cotes Angles
 62
     0
370
    -2
100
AcDbLine
 10
578.496127738737
 20
1119.400940238725
 30
0.0
 11
618.496127738737
 21
1079.400940238725
 31
0.0
  0
LINE
  5
2A1
330
29B
100
AcDbEntity
  8
0 ... Seuil ... Rectangle ... Cotes Angles
 62
     0
370
    -2
100
AcDbLine
 10
618.496127738737
 20
1077.900940238729
 30
0.0
 11
578.496127738737
 21
1117.900940238729
 31
0.0
  0
MTEXT
  5
2A2
330
29B
100
AcDbEntity
  8
0 ... Seuil ... Rectangle ... Cotes Angles
 62
     0
100
AcDbMText
 10
625.996127738737
 20
1098.650940238727
 30
0.0
 40
20.0
 41
0.0
 46
0.0
 71
     5
 72
     1
  1
\A1;1.5
  7
QCADDimTextStyle
 73
     1
 44
1.0
  0
POINT
  5
2A3
330
29B
100
AcDbEntity
  8
Defpoints
 62
     0
100
AcDbPoint
 10
562.704499900974
 20
1099.400940238725
 30
0.0
  0
POINT
  5
2A4
330
29B
100
AcDbEntity
  8
Defpoints
 62
     0
100
AcDbPoint
 10
562.8357328962638
 20
1097.900940238729
 30
0.0
  0
POINT
  5
2A5
330
29B
100
AcDbEntity
  8
Defpoints
 62
     0
100
AcDbPoint
 10
598.496127738737
 20
1097.900940238729
 30
0.0
  0
ENDBLK
  5
29D
330
29B
100
AcDbEntity
  8
0
100
AcDbBlockEnd
  0
BLOCK
  5
2A7
330
2A6
100
AcDbEntity
  8
0
100
AcDbBlockBegin
  2
*D5
 70
     1
 10
0.0
 20
0.0
 30
0.0
  3
*D5
  1
*D5
  0
LINE
  5
2A9
330
2A6
100
AcDbEntity
  8
0 ... Seuil ... Rectangle ... Cotes Angles
 62
     0
370
    -2
100
AcDbLine
 10
521.3055212429806
 20
998.90776929695
 30
0.0
 11
521.7879666211871
 21
993.3933933907931
 31
0.0
  0
LINE
  5
2AA
330
2A6
100
AcDbEntity
  8
0 ... Seuil ... Rectangle ... Cotes Angles
 62
     0
370
    -2
100
AcDbLine
 10
571.1152561475676
 20
1003.265556434312
 30
0.0
 11
571.5977015257741
 21
997.7511805281551
 31
0.0
  0
LINE
  5
2AB
330
2A6
100
AcDbEntity
  8
0 ... Seuil ... Rectangle ... Cotes Angles
 62
     0
370
    -2
100
AcDbLine
 10
520.9164091937155
 20
1003.355340371711
 30
0.0
 11
524.7114366150134
 21
1003.687362248843
 31
0.0
  0
LINE
  5
2AC
330
2A6
100
AcDbEntity
  8
0 ... Seuil ... Rectangle ... Cotes Angles
 62
     0
370
    -2
100
AcDbLine
 10
570.7261440983025
 20
1007.713127509073
 30
0.0
 11
566.9311166769984
 21
1007.38110563194
 31
0.0
  0
LINE
  5
2AD
330
2A6
100
AcDbEntity
  8
0 ... Seuil ... Rectangle ... Cotes Angles
 62
     0
370
    -2
100
AcDbLine
 10
539.0971883006063
 20
1025.022349188491
 30
0.0
 11
502.7356300868248
 21
981.6883315549305
 31
0.0
  0
LINE
  5
2AE
330
2A6
100
AcDbEntity
  8
0 ... Seuil ... Rectangle ... Cotes Angles
 62
     0
370
    -2
100
AcDbLine
 10
552.5453649914117
 20
986.0461186922926
 30
0.0
 11
588.9069232051933
 21
1029.380136325854
 31
0.0
  0
MTEXT
  5
2AF
330
2A6
100
AcDbEntity
  8
0 ... Seuil ... Rectangle ... Cotes Angles
 62
     0
100
AcDbMText
 10
544.513940504813
 20
1020.477154411588
 30
0.0
 40
20.0
 41
0.0
 46
0.0
 71
     5
 72
     1
  1
\A1;50
  7
QCADDimTextStyle
 11
0.9961946980917817
 21
0.08715574274724441
 31
0.0
 73
     1
 44
1.0
  0
POINT
  5
2B0
330
2A6
100
AcDbEntity
  8
Defpoints
 62
     0
100
AcDbPoint
 10
520.8697425292448
 20
1003.888742787409
 30
0.0
  0
POINT
  5
2B1
330
2A6
100
AcDbEntity
  8
Defpoints
 62
     0
100
AcDbPoint
 10
570.6794774338318
 20
1008.246529924771
 30
0.0
  0
POINT
  5
2B2
330
2A6
100
AcDbEntity
  8
Defpoints
 62
     0
100
AcDbPoint
 10
570.7261440983025
 20
1007.713127509073
 30
0.0
  0
ENDBLK
  5
2A8
330
2A6
100
AcDbEntity
  8
0
100
AcDbBlockEnd
  0
BLOCK
  5
2B4
330
2B3
100
AcDbEntity
  8
0
100
AcDbBlockBegin
  2
*D6
 70
     1
 10
0.0
 20
0.0
 30
0.0
  3
*D6
  1
*D6
  0
LINE
  5
2B6
330
2B3
100
AcDbEntity
  8
0 ... Seuil ... Rectangle ... Cotes Angles
 62
     0
370
    -2
100
AcDbLine
 10
567.704499900974
 20
1099.400940238725
 30
0.0
 11
712.3802652766976
 21
1099.400940238725
 31
0.0
  0
LINE
  5
2B7
330
2B3
100
AcDbEntity
  8
0 ... Seuil ... Rectangle ... Cotes Angles
 62
     0
370
    -2
100
AcDbLine
 10
601.995686623713
 20
827.4009402387276
 30
0.0
 11
712.3802652766976
 21
827.4009402387276
 31
0.0
  0
LINE
  5
2B8
330
2B3
100
AcDbEntity
  8
0 ... Seuil ... Rectangle ... Cotes Angles
 62
     0
370
    -2
100
AcDbLine
 10
702.3802652766976
 20
1099.400940238725
 30
0.0
 11
702.3802652766976
 21
827.4009402387276
 31
0.0
  0
LINE
  5
2B9
330
2B3
100
AcDbEntity
  8
0 ... Seuil ... Rectangle ... Cotes Angles
 62
     0
370
    -2
100
AcDbLine
 10
722.3802652766976
 20
1079.400940238725
 30
0.0
 11
682.3802652766976
 21
1119.400940238725
 31
0.0
  0
LINE
  5
2BA
330
2B3
100
AcDbEntity
  8
0 ... Seuil ... Rectangle ... Cotes Angles
 62
     0
370
    -2
100
AcDbLine
 10
682.3802652766976
 20
847.4009402387276
 30
0.0
 11
722.3802652766976
 21
807.4009402387276
 31
0.0
  0
MTEXT
  5
2BB
330
2B3
100
AcDbEntity
  8
0 ... Seuil ... Rectangle ... Cotes Angles
 62
     0
100
AcDbMText
 10
687.3802652766976
 20
963.4009402387263
 30
0.0
 40
20.0
 41
0.0
 46
0.0
 71
     5
 72
     1
  1
\A1;272
  7
QCADDimTextStyle
 11
0.0
 21
1.0
 31
0.0
 73
     1
 44
1.0
  0
POINT
  5
2BC
330
2B3
100
AcDbEntity
  8
Defpoints
 62
     0
100
AcDbPoint
 10
562.704499900974
 20
1099.400940238725
 30
0.0
  0
POINT
  5
2BD
330
2B3
100
AcDbEntity
  8
Defpoints
 62
     0
100
AcDbPoint
 10
596.995686623713
 20
827.4009402387276
 30
0.0
  0
POINT
  5
2BE
330
2B3
100
AcDbEntity
  8
Defpoints
 62
     0
100
AcDbPoint
 10
702.3802652766976
 20
827.4009402387276
 30
0.0
  0
ENDBLK
  5
2B5
330
2B3
100
AcDbEntity
  8
0
100
AcDbBlockEnd
  0
BLOCK
  5
2C0
330
2BF
100
AcDbEntity
  8
0
100
AcDbBlockBegin
  2
*D7
 70
     1
 10
0.0
 20
0.0
 30
0.0
  3
*D7
  1
*D7
  0
LINE
  5
2C2
330
2BF
100
AcDbEntity
  8
0 ... Seuil ... Rectangle ... Cotes Angles
 62
     0
370
    -2
100
AcDbLine
 10
593.4601527177796
 20
838.0075419565288
 30
0.0
 11
638.3854415054832
 21
882.9328307442318
 31
0.0
  0
LINE
  5
2C3
330
2BF
100
AcDbEntity
  8
0 ... Seuil ... Rectangle ... Cotes Angles
 62
     0
370
    -2
100
AcDbLine
 10
600.5312205296458
 20
830.9364741446625
 30
0.0
 11
645.4565093173494
 21
875.8617629323654
 31
0.0
  0
LINE
  5
2C4
330
2BF
100
AcDbEntity
  8
0 ... Seuil ... Rectangle ... Cotes Angles
 62
     0
370
    -2
100
AcDbLine
 10
631.3143736936177
 20
875.8617629323663
 30
0.0
 11
638.3854415054839
 21
868.7906951205
 31
0.0
  0
LINE
  5
2C5
330
2BF
100
AcDbEntity
  8
0 ... Seuil ... Rectangle ... Cotes Angles
 62
     0
370
    -2
100
AcDbLine
 10
659.5986449410796
 20
875.8617629323661
 30
0.0
 11
603.0301024461558
 21
875.8617629323666
 31
0.0
  0
LINE
  5
2C6
330
2BF
100
AcDbEntity
  8
0 ... Seuil ... Rectangle ... Cotes Angles
 62
     0
370
    -2
100
AcDbLine
 10
610.101170258022
 20
868.7906951205002
 30
0.0
 11
666.6697127529458
 21
868.7906951204998
 31
0.0
  0
MTEXT
  5
2C7
330
2BF
100
AcDbEntity
  8
0 ... Seuil ... Rectangle ... Cotes Angles
 62
     0
100
AcDbMText
 10
651.9526579332219
 20
890.024055600374
 30
0.0
 40
20.0
 41
0.0
 46
0.0
 71
     5
 72
     1
  1
\A1;10
  7
QCADDimTextStyle
 11
0.7071067811865418
 21
-0.7071067811865532
 31
0.0
 73
     1
 44
1.0
  0
POINT
  5
2C8
330
2BF
100
AcDbEntity
  8
Defpoints
 62
     0
100
AcDbPoint
 10
589.9246188118468
 20
834.4720080505962
 30
0.0
  0
POINT
  5
2C9
330
2BF
100
AcDbEntity
  8
Defpoints
 62
     0
100
AcDbPoint
 10
596.995686623713
 20
827.4009402387298
 30
0.0
  0
POINT
  5
2CA
330
2BF
100
AcDbEntity
  8
Defpoints
 62
     0
100
AcDbPoint
 10
638.3854415054839
 20
868.7906951205
 30
0.0
  0
ENDBLK
  5
2C1
330
2BF
100
AcDbEntity
  8
0
100
AcDbBlockEnd
  0
BLOCK
  5
2CC
330
2CB
100
AcDbEntity
  8
0
100
AcDbBlockBegin
  2
*D8
 70
     1
 10
0.0
 20
0.0
 30
0.0
  3
*D8
  1
*D8
  0
LINE
  5
2CE
330
2CB
100
AcDbEntity
  8
0 ... Seuil ... Rectangle ... Cotes Angles
 62
     0
370
    -2
100
AcDbLine
 10
584.995686623712
 20
822.4009402387289
 30
0.0
 11
584.9956866237153
 21
780.5369928051175
 31
0.0
  0
LINE
  5
2CF
330
2CB
100
AcDbEntity
  8
0 ... Seuil ... Rectangle ... Cotes Angles
 62
     0
370
    -2
100
AcDbLine
 10
596.9956866237134
 20
822.4009402387298
 30
0.0
 11
596.9956866237167
 21
780.5369928051184
 31
0.0
  0
LINE
  5
2D0
330
2CB
100
AcDbEntity
  8
0 ... Seuil ... Rectangle ... Cotes Angles
 62
     0
370
    -2
100
AcDbLine
 10
584.9956866237145
 20
790.5369928051175
 30
0.0
 11
596.9956866237159
 21
790.5369928051184
 31
0.0
  0
LINE
  5
2D1
330
2CB
100
AcDbEntity
  8
0 ... Seuil ... Rectangle ... Cotes Angles
 62
     0
370
    -2
100
AcDbLine
 10
604.995686623713
 20
810.536992805119
 30
0.0
 11
564.995686623716
 21
770.536992805116
 31
0.0
  0
LINE
  5
2D2
330
2CB
100
AcDbEntity
  8
0 ... Seuil ... Rectangle ... Cotes Angles
 62
     0
370
    -2
100
AcDbLine
 10
576.9956866237173
 20
770.5369928051169
 30
0.0
 11
616.9956866237144
 21
810.5369928051199
 31
0.0
  0
MTEXT
  5
2D3
330
2CB
100
AcDbEntity
  8
0 ... Seuil ... Rectangle ... Cotes Angles
 62
     0
100
AcDbMText
 10
590.8784922518357
 20
763.2787440250281
 30
0.0
 40
20.0
 41
0.0
 46
0.0
 71
     5
 72
     1
  1
\A1;12
  7
QCADDimTextStyle
 73
     1
 44
1.0
  0
POINT
  5
2D4
330
2CB
100
AcDbEntity
  8
Defpoints
 62
     0
100
AcDbPoint
 10
584.9956866237117
 20
827.4009402387289
 30
0.0
  0
POINT
  5
2D5
330
2CB
100
AcDbEntity
  8
Defpoints
 62
     0
100
AcDbPoint
 10
596.995686623713
 20
827.4009402387298
 30
0.0
  0
POINT
  5
2D6
330
2CB
100
AcDbEntity
  8
Defpoints
 62
     0
100
AcDbPoint
 10
596.9956866237159
 20
790.5369928051184
 30
0.0
  0
ENDBLK
  5
2CD
330
2CB
100
AcDbEntity
  8
0
100
AcDbBlockEnd
  0
BLOCK
  5
2D8
330
2D7
100
AcDbEntity
  8
0
100
AcDbBlockBegin
  2
*D9
 70
     1
 10
0.0
 20
0.0
 30
0.0
  3
*D9
  1
*D9
  0
LINE
  5
2DA
330
2D7
100
AcDbEntity
  8
0 ... Seuil ... Rectangle ... Cotes Angles
 62
     0
370
    -2
100
AcDbLine
 10
754.7868310860658
 20
1099.400940238728
 30
0.0
 11
727.6770036388848
 21
1099.400940238728
 31
0.0
  0
LINE
  5
2DB
330
2D7
100
AcDbEntity
  8
0 ... Seuil ... Rectangle ... Cotes Angles
 62
     0
370
    -2
100
AcDbLine
 10
754.7868310860656
 20
857.4009402387298
 30
0.0
 11
727.6770036388846
 21
857.4009402387298
 31
0.0
  0
LINE
  5
2DC
330
2D7
100
AcDbEntity
  8
0 ... Seuil ... Rectangle ... Cotes Angles
 62
     0
370
    -2
100
AcDbLine
 10
737.6770036388848
 20
1099.400940238728
 30
0.0
 11
737.6770036388846
 21
857.4009402387298
 31
0.0
  0
LINE
  5
2DD
330
2D7
100
AcDbEntity
  8
0 ... Seuil ... Rectangle ... Cotes Angles
 62
     0
370
    -2
100
AcDbLine
 10
757.6770036388848
 20
1079.400940238728
 30
0.0
 11
717.6770036388848
 21
1119.400940238728
 31
0.0
  0
LINE
  5
2DE
330
2D7
100
AcDbEntity
  8
0 ... Seuil ... Rectangle ... Cotes Angles
 62
     0
370
    -2
100
AcDbLine
 10
717.6770036388846
 20
877.4009402387298
 30
0.0
 11
757.6770036388846
 21
837.4009402387298
 31
0.0
  0
MTEXT
  5
2DF
330
2D7
100
AcDbEntity
  8
0 ... Seuil ... Rectangle ... Cotes Angles
 62
     0
100
AcDbMText
 10
722.6770036388847
 20
978.4009402387289
 30
0.0
 40
20.0
 41
0.0
 46
0.0
 71
     5
 72
     1
  1
\A1;242
  7
QCADDimTextStyle
 11
9.395606423274123E-16
 21
1.0
 31
0.0
 73
     1
 44
1.0
  0
POINT
  5
2E0
330
2D7
100
AcDbEntity
  8
Defpoints
 62
     0
100
AcDbPoint
 10
759.7868310860658
 20
1099.400940238728
 30
0.0
  0
POINT
  5
2E1
330
2D7
100
AcDbEntity
  8
Defpoints
 62
     0
100
AcDbPoint
 10
759.7868310860656
 20
857.4009402387298
 30
0.0
  0
POINT
  5
2E2
330
2D7
100
AcDbEntity
  8
Defpoints
 62
     0
100
AcDbPoint
 10
737.6770036388846
 20
857.4009402387298
 30
0.0
  0
ENDBLK
  5
2D9
330
2D7
100
AcDbEntity
  8
0
100
AcDbBlockEnd
  0
BLOCK
  5
2E4
330
2E3
100
AcDbEntity
  8
0
100
AcDbBlockBegin
  2
*D10
 70
     1
 10
0.0
 20
0.0
 30
0.0
  3
*D10
  1
*D10
  0
LINE
  5
2E6
330
2E3
100
AcDbEntity
  8
0 ... Seuil ... Rectangle ... Cotes Angles
 62
     0
370
    -2
100
AcDbLine
 10
759.7868310860658
 20
1104.400940238728
 30
0.0
 11
759.7868310860658
 21
1159.421062581536
 31
0.0
  0
LINE
  5
2E7
330
2E3
100
AcDbEntity
  8
0 ... Seuil ... Rectangle ... Cotes Angles
 62
     0
370
    -2
100
AcDbLine
 10
1573.786831086066
 20
1104.400940238727
 30
0.0
 11
1573.786831086066
 21
1159.421062581535
 31
0.0
  0
LINE
  5
2E8
330
2E3
100
AcDbEntity
  8
0 ... Seuil ... Rectangle ... Cotes Angles
 62
     0
370
    -2
100
AcDbLine
 10
759.7868310860658
 20
1149.421062581536
 30
0.0
 11
1573.786831086066
 21
1149.421062581535
 31
0.0
  0
LINE
  5
2E9
330
2E3
100
AcDbEntity
  8
0 ... Seuil ... Rectangle ... Cotes Angles
 62
     0
370
    -2
100
AcDbLine
 10
779.7868310860658
 20
1169.421062581536
 30
0.0
 11
739.7868310860658
 21
1129.421062581536
 31
0.0
  0
LINE
  5
2EA
330
2E3
100
AcDbEntity
  8
0 ... Seuil ... Rectangle ... Cotes Angles
 62
     0
370
    -2
100
AcDbLine
 10
1553.786831086066
 20
1129.421062581535
 30
0.0
 11
1593.786831086066
 21
1169.421062581535
 31
0.0
  0
MTEXT
  5
2EB
330
2E3
100
AcDbEntity
  8
0 ... Seuil ... Rectangle ... Cotes Angles
 62
     0
100
AcDbMText
 10
1166.786831086066
 20
1164.421062581535
 30
0.0
 40
20.0
 41
0.0
 46
0.0
 71
     5
 72
     1
  1
\A1;814
  7
QCADDimTextStyle
 73
     1
 44
1.0
  0
POINT
  5
2EC
330
2E3
100
AcDbEntity
  8
Defpoints
 62
     0
100
AcDbPoint
 10
759.7868310860658
 20
1099.400940238728
 30
0.0
  0
POINT
  5
2ED
330
2E3
100
AcDbEntity
  8
Defpoints
 62
     0
100
AcDbPoint
 10
1573.786831086066
 20
1099.400940238727
 30
0.0
  0
POINT
  5
2EE
330
2E3
100
AcDbEntity
  8
Defpoints
 62
     0
100
AcDbPoint
 10
1573.786831086066
 20
1149.421062581535
 30
0.0
  0
ENDBLK
  5
2E5
330
2E3
100
AcDbEntity
  8
0
100
AcDbBlockEnd
  0
BLOCK
  5
2F0
330
2EF
100
AcDbEntity
  8
0
100
AcDbBlockBegin
  2
*D11
 70
     1
 10
0.0
 20
0.0
 30
0.0
  3
*D11
  1
*D11
  0
LINE
  5
2F2
330
2EF
100
AcDbEntity
  8
0 ... Seuil ... Rectangle ... Cotes Angles
 62
     0
370
    -2
100
AcDbLine
 10
537.7044999009759
 20
1099.40094023873
 30
0.0
 11
379.4481962999039
 21
1099.40094023873
 31
0.0
  0
LINE
  5
2F3
330
2EF
100
AcDbEntity
  8
0 ... Seuil ... Rectangle ... Cotes Angles
 62
     0
370
    -2
100
AcDbLine
 10
528.6857645970808
 20
857.4009402387287
 30
0.0
 11
379.4481962999039
 21
857.4009402387287
 31
0.0
  0
LINE
  5
2F4
330
2EF
100
AcDbEntity
  8
0 ... Seuil ... Rectangle ... Cotes Angles
 62
     0
370
    -2
100
AcDbLine
 10
389.4481962999039
 20
1099.40094023873
 30
0.0
 11
389.4481962999039
 21
857.4009402387287
 31
0.0
  0
LINE
  5
2F5
330
2EF
100
AcDbEntity
  8
0 ... Seuil ... Rectangle ... Cotes Angles
 62
     0
370
    -2
100
AcDbLine
 10
409.4481962999039
 20
1079.40094023873
 30
0.0
 11
369.4481962999039
 21
1119.40094023873
 31
0.0
  0
LINE
  5
2F6
330
2EF
100
AcDbEntity
  8
0 ... Seuil ... Rectangle ... Cotes Angles
 62
     0
370
    -2
100
AcDbLine
 10
369.4481962999039
 20
877.4009402387287
 30
0.0
 11
409.4481962999039
 21
837.4009402387287
 31
0.0
  0
MTEXT
  5
2F7
330
2EF
100
AcDbEntity
  8
0 ... Seuil ... Rectangle ... Cotes Angles
 62
     0
100
AcDbMText
 10
374.4481962999039
 20
978.4009402387294
 30
0.0
 40
20.0
 41
0.0
 46
0.0
 71
     5
 72
     1
  1
\A1;242
  7
QCADDimTextStyle
 11
0.0
 21
1.0
 31
0.0
 73
     1
 44
1.0
  0
POINT
  5
2F8
330
2EF
100
AcDbEntity
  8
Defpoints
 62
     0
100
AcDbPoint
 10
542.7044999009759
 20
1099.40094023873
 30
0.0
  0
POINT
  5
2F9
330
2EF
100
AcDbEntity
  8
Defpoints
 62
     0
100
AcDbPoint
 10
533.6857645970808
 20
857.4009402387287
 30
0.0
  0
POINT
  5
2FA
330
2EF
100
AcDbEntity
  8
Defpoints
 62
     0
100
AcDbPoint
 10
389.4481962999039
 20
857.4009402387287
 30
0.0
  0
ENDBLK
  5
2F1
330
2EF
100
AcDbEntity
  8
0
100
AcDbBlockEnd
  0
BLOCK
  5
2FE
330
2FD
100
AcDbEntity
  8
0
100
AcDbBlockBegin
  2
*D12
 70
     1
 10
0.0
 20
0.0
 30
0.0
  3
*D12
  1
*D12
  0
LINE
  5
300
330
2FD
100
AcDbEntity
  8
0 ... Seuil ... Rectangle ... Cotes Angles
 62
     0
370
    -2
100
AcDbLine
 10
559.663637111301
 20
313.3026779091354
 30
0.0
 11
559.6636371113038
 21
463.0835971994477
 31
0.0
  0
LINE
  5
301
330
2FD
100
AcDbEntity
  8
0 ... Seuil ... Rectangle ... Cotes Angles
 62
     0
370
    -2
100
AcDbLine
 10
554.6826636208397
 20
307.8668991953969
 30
0.0
 11
405.4717059485255
 21
294.8126319252227
 31
0.0
  0
ARC
  5
302
330
2FD
100
AcDbEntity
  8
0 ... Seuil ... Rectangle ... Cotes Angles
 62
     0
370
    -2
100
AcDbCircle
 10
559.6636371113009
 20
308.3026779091354
 30
0.0
 40
144.7809192903123
100
AcDbArc
 50
97.92113134823029
 51
132.8517291697435
  0
ARC
  5
303
330
2FD
100
AcDbEntity
  8
0 ... Seuil ... Rectangle ... Cotes Angles
 62
     0
370
    -2
100
AcDbCircle
 10
559.6636371113009
 20
308.3026779091354
 30
0.0
 40
144.7809192903123
100
AcDbArc
 50
142.1482708302572
 51
177.0788686517687
  0
SOLID
  5
304
330
2FD
100
AcDbEntity
  8
0 ... Seuil ... Rectangle ... Cotes Angles
 62
     0
100
AcDbTrace
 10
539.9416335381907
 20
448.3768269508345
 30
0.0
 11
539.4811677047546
 21
455.0275724474448
 31
0.0
 12
559.6636371113036
 22
453.0835971994477
 32
0.0
 13
559.6636371113036
 23
453.0835971994477
 33
0.0
  0
SOLID
  5
305
330
2FD
100
AcDbEntity
  8
0 ... Seuil ... Rectangle ... Cotes Angles
 62
     0
100
AcDbTrace
 10
411.7380569825573
 20
315.6204297632801
 30
0.0
 11
418.4036266263611
 21
315.7413668049413
 31
0.0
 12
415.4336529294429
 22
295.6841893526993
 32
0.0
 13
415.4336529294429
 23
295.6841893526993
 33
0.0
  0
MTEXT
  5
306
330
2FD
100
AcDbEntity
  8
0 ... Seuil ... Rectangle ... Cotes Angles
 62
     0
100
AcDbMText
 10
441.8607864638668
 20
416.2491023454965
 30
0.0
 40
20.0
 41
0.0
 46
0.0
 71
     5
 72
     1
  1
\A1;95%%d
  7
QCADDimTextStyle
 11
0.6755902076156557
 21
0.7372773368101283
 31
0.0
 73
     1
 44
1.0
  0
POINT
  5
307
330
2FD
100
AcDbEntity
  8
Defpoints
 62
     0
100
AcDbPoint
 10
483.6570452045803
 20
431.5281321678767
 30
0.0
  0
POINT
  5
308
330
2FD
100
AcDbEntity
  8
Defpoints
 62
     0
100
AcDbPoint
 10
559.6636371113009
 20
308.3026779091321
 30
0.0
  0
POINT
  5
309
330
2FD
100
AcDbEntity
  8
Defpoints
 62
     0
100
AcDbPoint
 10
751.6636371113009
 20
325.1005013061131
 30
0.0
  0
POINT
  5
30A
330
2FD
100
AcDbEntity
  8
Defpoints
 62
     0
100
AcDbPoint
 10
559.6636371112984
 20
308.3026779091352
 30
0.0
  0
POINT
  5
30B
330
2FD
100
AcDbEntity
  8
Defpoints
 62
     0
100
AcDbPoint
 10
559.6636371113
 20
260.3026779091335
 30
0.0
  0
ENDBLK
  5
2FF
330
2FD
100
AcDbEntity
  8
0
100
AcDbBlockEnd
  0
BLOCK
  5
313
330
312
100
AcDbEntity
  8
0
100
AcDbBlockBegin
  2
*D13
 70
     1
 10
0.0
 20
0.0
 30
0.0
  3
*D13
  1
*D13
  0
LINE
  5
315
330
312
100
AcDbEntity
  8
0 ... Seuil ... Rectangle ... Cotes Angles
 62
     0
370
    -2
100
AcDbLine
 10
1727.663637111302
 20
399.4665178821534
 30
0.0
 11
1727.663637111302
 21
309.1306044885598
 31
0.0
  0
LINE
  5
316
330
312
100
AcDbEntity
  8
0 ... Seuil ... Rectangle ... Cotes Angles
 62
     0
370
    -2
100
AcDbLine
 10
1732.644610601761
 20
404.9022965958917
 30
0.0
 11
1822.636768571734
 21
412.7755902244983
 31
0.0
  0
ARC
  5
317
330
312
100
AcDbEntity
  8
0 ... Seuil ... Rectangle ... Cotes Angles
 62
     0
370
    -2
100
AcDbCircle
 10
1727.663637111302
 20
404.4665178821534
 30
0.0
 40
85.33591339359369
100
AcDbArc
 50
283.4592168613741
 51
300.4647561733963
  0
ARC
  5
318
330
312
100
AcDbEntity
  8
0 ... Seuil ... Rectangle ... Cotes Angles
 62
     0
370
    -2
100
AcDbCircle
 10
1727.663637111302
 20
404.4665178821534
 30
0.0
 40
85.33591339359369
100
AcDbArc
 50
334.5352438266032
 51
351.5407831386258
  0
SOLID
  5
319
330
312
100
AcDbEntity
  8
0 ... Seuil ... Rectangle ... Cotes Angles
 62
     0
100
AcDbTrace
 10
1747.135228433988
 20
324.7846510459748
 30
0.0
 11
1747.916454813545
 21
318.1639162084867
 31
0.0
 12
1727.663637111302
 22
319.1306044885598
 32
0.0
 13
1727.663637111302
 23
319.1306044885598
 33
0.0
  0
SOLID
  5
31A
330
312
100
AcDbEntity
  8
0 ... Seuil ... Rectangle ... Cotes Angles
 62
     0
100
AcDbTrace
 10
1815.402980699705
 20
391.8125356156841
 30
0.0
 11
1808.739351391763
 21
392.0137541307116
 31
0.0
 12
1812.674821590816
 22
411.9040327970218
 32
0.0
 13
1812.674821590816
 23
411.9040327970218
 33
0.0
  0
MTEXT
  5
31B
330
312
100
AcDbEntity
  8
0 ... Seuil ... Rectangle ... Cotes Angles
 62
     0
100
AcDbMText
 10
1779.520712020236
 20
356.9482635497401
 30
0.0
 40
20.0
 41
0.0
 46
0.0
 71
     5
 72
     1
  1
\A1;95%%d
  7
QCADDimTextStyle
 11
0.6755902076156631
 21
0.7372773368101215
 31
0.0
 73
     1
 44
1.0
  0
POINT
  5
31C
330
312
100
AcDbEntity
  8
Defpoints
 62
     0
100
AcDbPoint
 10
1772.462993104397
 20
331.8356992352259
 30
0.0
  0
POINT
  5
31D
330
312
100
AcDbEntity
  8
Defpoints
 62
     0
100
AcDbPoint
 10
1727.663637111302
 20
405.3828490561694
 30
0.0
  0
POINT
  5
31E
330
312
100
AcDbEntity
  8
Defpoints
 62
     0
100
AcDbPoint
 10
565.6636371112986
 20
302.8046908650309
 30
0.0
  0
POINT
  5
31F
330
312
100
AcDbEntity
  8
Defpoints
 62
     0
100
AcDbPoint
 10
1726.750792854051
 20
404.3866543580792
 30
0.0
  0
POINT
  5
320
330
312
100
AcDbEntity
  8
Defpoints
 62
     0
100
AcDbPoint
 10
1727.663637111302
 20
484.4665178821532
 30
0.0
  0
ENDBLK
  5
314
330
312
100
AcDbEntity
  8
0
100
AcDbBlockEnd
  0
BLOCK
  5
322
330
321
100
AcDbEntity
  8
0
100
AcDbBlockBegin
  2
*D14
 70
     1
 10
0.0
 20
0.0
 30
0.0
  3
*D14
  1
*D14
  0
LINE
  5
324
330
321
100
AcDbEntity
  8
0 ... Seuil ... Rectangle ... Cotes Angles
 62
     0
370
    -2
100
AcDbLine
 10
578.8576572865305
 20
862.400940238727
 30
0.0
 11
578.8576572865178
 21
913.5881225650743
 31
0.0
  0
LINE
  5
325
330
321
100
AcDbEntity
  8
0 ... Seuil ... Rectangle ... Cotes Angles
 62
     0
370
    -2
100
AcDbLine
 10
583.8767564742476
 20
862.4009402387283
 30
0.0
 11
583.8767564742349
 21
913.5881225650755
 31
0.0
  0
LINE
  5
326
330
321
100
AcDbEntity
  8
0 ... Seuil ... Rectangle ... Cotes Angles
 62
     0
370
    -2
100
AcDbLine
 10
558.8576572865253
 20
883.5881225650693
 30
0.0
 11
598.8576572865153
 21
923.5881225650793
 31
0.0
  0
LINE
  5
327
330
321
100
AcDbEntity
  8
0 ... Seuil ... Rectangle ... Cotes Angles
 62
     0
370
    -2
100
AcDbLine
 10
603.8767564742324
 20
923.5881225650805
 30
0.0
 11
563.8767564742424
 21
883.5881225650705
 31
0.0
  0
MTEXT
  5
328
330
321
100
AcDbEntity
  8
0 ... Seuil ... Rectangle ... Cotes Angles
 62
     0
100
AcDbMText
 10
581.367206880372
 20
931.0881225650749
 30
0.0
 40
20.0
 41
0.0
 46
0.0
 71
     5
 72
     1
  1
\A1;5.0191
  7
QCADDimTextStyle
 73
     1
 44
1.0
  0
POINT
  5
329
330
321
100
AcDbEntity
  8
Defpoints
 62
     0
100
AcDbPoint
 10
578.8576572865318
 20
857.400940238727
 30
0.0
  0
POINT
  5
32A
330
321
100
AcDbEntity
  8
Defpoints
 62
     0
100
AcDbPoint
 10
583.8767564742489
 20
857.4009402387283
 30
0.0
  0
POINT
  5
32B
330
321
100
AcDbEntity
  8
Defpoints
 62
     0
100
AcDbPoint
 10
583.8767564742374
 20
903.5881225650755
 30
0.0
  0
ENDBLK
  5
323
330
321
100
AcDbEntity
  8
0
100
AcDbBlockEnd
  0
BLOCK
  5
32D
330
32C
100
AcDbEntity
  8
0
100
AcDbBlockBegin
  2
*D15
 70
     1
 10
0.0
 20
0.0
 30
0.0
  3
*D15
  1
*D15
  0
LINE
  5
32F
330
32C
100
AcDbEntity
  8
0 ... Seuil ... Rectangle ... Cotes Angles
 62
     0
370
    -2
100
AcDbLine
 10
542.7044999009771
 20
1104.40094023873
 30
0.0
 11
542.7044999009998
 21
1195.483218310301
 31
0.0
  0
LINE
  5
330
330
32C
100
AcDbEntity
  8
0 ... Seuil ... Rectangle ... Cotes Angles
 62
     0
370
    -2
100
AcDbLine
 10
562.7044999009753
 20
1104.400940238725
 30
0.0
 11
562.704499900998
 21
1195.483218310296
 31
0.0
  0
LINE
  5
331
330
32C
100
AcDbEntity
  8
0 ... Seuil ... Rectangle ... Cotes Angles
 62
     0
370
    -2
100
AcDbLine
 10
542.7044999009973
 20
1185.483218310301
 30
0.0
 11
562.7044999009955
 21
1185.483218310296
 31
0.0
  0
LINE
  5
332
330
32C
100
AcDbEntity
  8
0 ... Seuil ... Rectangle ... Cotes Angles
 62
     0
370
    -2
100
AcDbLine
 10
562.7044999010024
 20
1205.483218310296
 30
0.0
 11
522.7044999009923
 21
1165.483218310306
 31
0.0
  0
LINE
  5
333
330
32C
100
AcDbEntity
  8
0 ... Seuil ... Rectangle ... Cotes Angles
 62
     0
370
    -2
100
AcDbLine
 10
542.7044999009905
 20
1165.483218310301
 30
0.0
 11
582.7044999010005
 21
1205.483218310291
 31
0.0
  0
MTEXT
  5
334
330
32C
100
AcDbEntity
  8
0 ... Seuil ... Rectangle ... Cotes Angles
 62
     0
100
AcDbMText
 10
588.496127738737
 20
1200.483218310301
 30
0.0
 40
20.0
 41
0.0
 46
0.0
 71
     5
 72
     1
  1
\A1;20
  7
QCADDimTextStyle
 73
     1
 44
1.0
  0
POINT
  5
335
330
32C
100
AcDbEntity
  8
Defpoints
 62
     0
100
AcDbPoint
 10
542.7044999009759
 20
1099.40094023873
 30
0.0
  0
POINT
  5
336
330
32C
100
AcDbEntity
  8
Defpoints
 62
     0
100
AcDbPoint
 10
562.704499900974
 20
1099.400940238725
 30
0.0
  0
POINT
  5
337
330
32C
100
AcDbEntity
  8
Defpoints
 62
     0
100
AcDbPoint
 10
562.7044999009955
 20
1185.483218310296
 30
0.0
  0
ENDBLK
  5
32E
330
32C
100
AcDbEntity
  8
0
100
AcDbBlockEnd
  0
BLOCK
  5
339
330
338
100
AcDbEntity
  8
0
100
AcDbBlockBegin
  2
*D16
 70
     1
 10
0.0
 20
0.0
 30
0.0
  3
*D16
  1
*D16
  0
LINE
  5
33B
330
338
100
AcDbEntity
  8
0 ... Seuil ... Rectangle ... Cotes Angles
 62
     0
370
    -2
100
AcDbLine
 10
514.6132359484286
 20
1080.400940238727
 30
0.0
 11
514.6132359484286
 21
1155.4832183103
 31
0.0
  0
LINE
  5
33C
330
338
100
AcDbEntity
  8
0 ... Seuil ... Rectangle ... Cotes Angles
 62
     0
370
    -2
100
AcDbLine
 10
542.7044999009759
 20
1104.40094023873
 30
0.0
 11
542.7044999009759
 21
1155.4832183103
 31
0.0
  0
LINE
  5
33D
330
338
100
AcDbEntity
  8
0 ... Seuil ... Rectangle ... Cotes Angles
 62
     0
370
    -2
100
AcDbLine
 10
514.6132359484286
 20
1145.4832183103
 30
0.0
 11
542.7044999009759
 21
1145.4832183103
 31
0.0
  0
LINE
  5
33E
330
338
100
AcDbEntity
  8
0 ... Seuil ... Rectangle ... Cotes Angles
 62
     0
370
    -2
100
AcDbLine
 10
534.6132359484286
 20
1165.4832183103
 30
0.0
 11
494.6132359484286
 21
1125.4832183103
 31
0.0
  0
LINE
  5
33F
330
338
100
AcDbEntity
  8
0 ... Seuil ... Rectangle ... Cotes Angles
 62
     0
370
    -2
100
AcDbLine
 10
522.7044999009759
 20
1125.4832183103
 30
0.0
 11
562.7044999009759
 21
1165.4832183103
 31
0.0
  0
MTEXT
  5
340
330
338
100
AcDbEntity
  8
0 ... Seuil ... Rectangle ... Cotes Angles
 62
     0
100
AcDbMText
 10
488.4961277387356
 20
1160.4832183103
 30
0.0
 40
20.0
 41
0.0
 46
0.0
 71
     5
 72
     1
  1
\A1;28.0913
  7
QCADDimTextStyle
 73
     1
 44
1.0
  0
POINT
  5
341
330
338
100
AcDbEntity
  8
Defpoints
 62
     0
100
AcDbPoint
 10
514.6132359484286
 20
1075.400940238727
 30
0.0
  0
POINT
  5
342
330
338
100
AcDbEntity
  8
Defpoints
 62
     0
100
AcDbPoint
 10
542.7044999009759
 20
1099.40094023873
 30
0.0
  0
POINT
  5
343
330
338
100
AcDbEntity
  8
Defpoints
 62
     0
100
AcDbPoint
 10
542.7044999009759
 20
1145.4832183103
 30
0.0
  0
ENDBLK
  5
33A
330
338
100
AcDbEntity
  8
0
100
AcDbBlockEnd
  0
ENDSEC
  0
SECTION
  2
ENTITIES
  0
LINE
  5
37
330
1B3
100
AcDbEntity
  8
0 ... Seuil ... Rectangle
100
AcDbLine
 10
542.704499900974
 20
1099.400940238728
 30
0.0
 11
562.704499900974
 21
1099.400940238728
 31
0.0
  0
LINE
  5
38
330
1B3
100
AcDbEntity
  8
0 ... Seuil ... Rectangle
100
AcDbLine
 10
586.5014163800265
 20
827.4009402387273
 30
0.0
 11
562.704499900974
 21
1099.400940238728
 31
0.0
  0
LINE
  5
39
330
1B3
100
AcDbEntity
  8
0 ... Seuil ... Rectangle
100
AcDbLine
 10
584.995686623713
 20
827.4009402387273
 30
0.0
 11
596.995686623713
 21
827.4009402387273
 31
0.0
  0
LINE
  5
3A
330
1B3
100
AcDbEntity
  8
0 ... Seuil ... Rectangle
100
AcDbLine
 10
542.704499900974
 20
1097.900940238728
 30
0.0
 11
562.8357328962638
 21
1097.900940238728
 31
0.0
  0
LINE
  5
3B
330
1B3
100
AcDbEntity
  8
0 ... Seuil ... Rectangle
100
AcDbLine
 10
586.3701833847376
 20
828.9009402387273
 30
0.0
 11
593.374366280153
 21
828.9009402387273
 31
0.0
  0
LINE
  5
3C
330
1B3
100
AcDbEntity
  8
0 ... Seuil ... Rectangle
100
AcDbLine
 10
542.704499900974
 20
1075.400940238728
 30
0.0
 11
542.704499900974
 21
1099.400940238728
 31
0.0
  0
LINE
  5
3D
330
1B3
100
AcDbEntity
  8
0 ... Seuil ... Rectangle
100
AcDbLine
 10
589.9246188118468
 20
834.4720080505933
 30
0.0
 11
596.995686623713
 21
827.4009402387273
 31
0.0
  0
LINE
  5
3E
330
1B3
100
AcDbEntity
  8
0 ... Seuil ... Rectangle
100
AcDbLine
 10
588.8639586400668
 20
833.4113478788133
 30
0.0
 11
593.374366280153
 21
828.9009402387273
 31
0.0
  0
LINE
  5
3F
330
1B3
100
AcDbEntity
  8
0 ... Seuil ... Rectangle
100
AcDbLine
 10
588.8639586400668
 20
833.4113478788133
 30
0.0
 11
589.9246188118468
 21
834.4720080505933
 31
0.0
  0
LINE
  5
40
330
1B3
100
AcDbEntity
  8
0 ... Seuil ... Rectangle
100
AcDbLine
 10
533.6857645970808
 20
857.4009402387283
 30
0.0
 11
583.8767564742489
 21
857.4009402387283
 31
0.0
  0
LINE
  5
41
330
1B3
100
AcDbEntity
  8
0 ... Seuil ... Rectangle
100
AcDbLine
 10
533.6857645970808
 20
857.4009402387283
 30
0.0
 11
514.6132359484286
 21
1075.400940238728
 31
0.0
  0
LINE
  5
42
330
1B3
100
AcDbEntity
  8
0 ... Seuil ... Rectangle
100
AcDbLine
 10
514.6132359484286
 20
1075.400940238728
 30
0.0
 11
542.704499900974
 21
1075.400940238728
 31
0.0
  0
DIMENSION
  5
44
330
1B3
100
AcDbEntity
  8
0 ... Seuil ... Rectangle ... Cotes Angles
100
AcDbDimension
280
     0
  2
*D1
 10
484.1400783795506
 20
853.066254368082
 30
0.0
 11
489.5467345266006
 21
963.3735905092959
 31
0.0
 70
    33
 71
     5
 42
218.832724584448
 73
     0
 74
     0
 75
     0
  3
QCADDimStyle
100
AcDbAlignedDimension
 13
514.6132359484286
 23
1075.400940238727
 33
0.0
 14
533.6857645970808
 24
857.4009402387287
 34
0.0
1001
ACAD
1000
DSTYLE
1002
{
1070
   279
1070
     2
1070
    41
1040
20.0
1070
    79
1070
     2
1070
   176
1070
     0
1070
   177
1070
     0
1070
   178
1070
     0
1070
    44
1040
10.0
1070
    42
1040
5.0
1070
   147
1040
5.0
1070
   142
1040
20.0
1070
   140
1040
20.0
1070
    78
1070
     8
1002
}
  0
DIMENSION
  5
45
330
1B3
100
AcDbEntity
  8
0 ... Seuil ... Rectangle ... Cotes Angles
100
AcDbDimension
280
     0
  2
*D2
 10
430.33895741069
 20
1075.400940238727
 30
0.0
 11
402.83895741069
 21
1087.400940238728
 31
0.0
 70
    32
 71
     5
 42
24.00000000000318
 73
     0
 74
     0
 75
     0
  3
QCADDimStyle
100
AcDbAlignedDimension
 13
542.7044999009759
 23
1099.40094023873
 33
0.0
 14
514.6132359484286
 24
1075.400940238727
 34
0.0
 50
90.0
100
AcDbRotatedDimension
1001
ACAD
1000
DSTYLE
1002
{
1070
   279
1070
     2
1070
    41
1040
20.0
1070
    79
1070
     2
1070
   176
1070
     0
1070
   177
1070
     0
1070
   178
1070
     0
1070
    44
1040
10.0
1070
    42
1040
5.0
1070
   147
1040
5.0
1070
   142
1040
20.0
1070
   140
1040
20.0
1070
    78
1070
     8
1002
}
  0
DIMENSION
  5
46
330
1B3
100
AcDbEntity
  8
0 ... Seuil ... Rectangle ... Cotes Angles
100
AcDbDimension
280
     0
  2
*D3
 10
430.33895741069
 20
857.4009402387287
 30
0.0
 11
415.33895741069
 21
966.4009402387278
 31
0.0
 70
    32
 71
     5
 42
217.9999999999982
 73
     0
 74
     0
 75
     0
  3
QCADDimStyle
100
AcDbAlignedDimension
 13
514.6132359484286
 23
1075.400940238727
 33
0.0
 14
533.6857645970808
 24
857.4009402387287
 34
0.0
 50
90.0
100
AcDbRotatedDimension
1001
ACAD
1000
DSTYLE
1002
{
1070
   279
1070
     2
1070
    41
1040
20.0
1070
    79
1070
     2
1070
   176
1070
     0
1070
   177
1070
     0
1070
   178
1070
     0
1070
    44
1040
10.0
1070
    42
1040
5.0
1070
   147
1040
5.0
1070
   142
1040
20.0
1070
   140
1040
20.0
1070
    78
1070
     8
1002
}
  0
DIMENSION
  5
47
330
1B3
100
AcDbEntity
  8
0 ... Seuil ... Rectangle ... Cotes Angles
100
AcDbDimension
280
     0
  2
*D4
 10
598.496127738737
 20
1097.900940238729
 30
0.0
 11
625.996127738737
 21
1098.650940238727
 31
0.0
 70
    32
 71
     5
 42
1.499999999996135
 73
     0
 74
     0
 75
     0
  3
QCADDimStyle
100
AcDbAlignedDimension
 13
562.704499900974
 23
1099.400940238725
 33
0.0
 14
562.8357328962638
 24
1097.900940238729
 34
0.0
 50
90.0
100
AcDbRotatedDimension
1001
ACAD
1000
DSTYLE
1002
{
1070
   279
1070
     2
1070
    41
1040
20.0
1070
    79
1070
     2
1070
   176
1070
     0
1070
   177
1070
     0
1070
   178
1070
     0
1070
    44
1040
10.0
1070
    42
1040
5.0
1070
   147
1040
5.0
1070
   142
1040
20.0
1070
   140
1040
20.0
1070
    78
1070
     8
1002
}
  0
DIMENSION
  5
48
330
1B3
100
AcDbEntity
  8
0 ... Seuil ... Rectangle ... Cotes Angles
100
AcDbDimension
280
     0
  2
*D5
 10
570.7261440983025
 20
1007.713127509073
 30
0.0
 11
544.513940504813
 21
1020.477154411588
 31
0.0
 70
   161
 71
     5
 42
49.99999999999791
 73
     0
 74
     0
 75
     0
  3
QCADDimStyle
100
AcDbAlignedDimension
 13
520.8697425292448
 23
1003.888742787409
 33
0.0
 14
570.6794774338318
 24
1008.246529924771
 34
0.0
1001
ACAD
1000
DSTYLE
1002
{
1070
   279
1070
     2
1070
    41
1040
20.0
1070
    79
1070
     2
1070
   176
1070
     0
1070
   177
1070
     0
1070
   178
1070
     0
1070
    44
1040
10.0
1070
    42
1040
5.0
1070
   147
1040
5.0
1070
   142
1040
20.0
1070
   140
1040
20.0
1070
    78
1070
     8
1002
}
  0
LINE
  5
49
330
1B3
100
AcDbEntity
  8
0 ... Seuil ... Rectangle
100
AcDbLine
 10
759.7868310860658
 20
1099.400940238728
 30
0.0
 11
1573.786831086066
 21
1099.400940238728
 31
0.0
  0
LINE
  5
4A
330
1B3
100
AcDbEntity
  8
0 ... Seuil ... Rectangle
100
AcDbLine
 10
759.7868310860658
 20
1097.900940238728
 30
0.0
 11
1573.786831086066
 21
1097.900940238728
 31
0.0
  0
LINE
  5
4B
330
1B3
100
AcDbEntity
  8
0 ... Seuil ... Rectangle
100
AcDbLine
 10
759.7868310860658
 20
1099.400940238728
 30
0.0
 11
759.7868310860658
 21
827.4009402387283
 31
0.0
  0
LINE
  5
4C
330
1B3
100
AcDbEntity
  8
0 ... Seuil ... Rectangle
100
AcDbLine
 10
1573.786831086066
 20
1099.400940238728
 30
0.0
 11
1573.786831086066
 21
827.4009402387283
 31
0.0
  0
LINE
  5
4D
330
1B3
100
AcDbEntity
  8
0 ... Seuil ... Rectangle
100
AcDbLine
 10
758.2868310860658
 20
857.4009402387283
 30
0.0
 11
761.2868310860658
 21
857.4009402387283
 31
0.0
  0
LINE
  5
4E
330
1B3
100
AcDbEntity
  8
0 ... Seuil ... Rectangle
100
AcDbLine
 10
1572.286831086066
 20
857.4009402387283
 30
0.0
 11
1575.286831086066
 21
857.4009402387283
 31
0.0
  0
DIMENSION
  5
4F
330
1B3
100
AcDbEntity
  8
0 ... Seuil ... Rectangle ... Cotes Angles
100
AcDbDimension
280
     0
  2
*D6
 10
702.3802652766976
 20
827.4009402387276
 30
0.0
 11
687.3802652766976
 21
963.4009402387263
 31
0.0
 70
    32
 71
     5
 42
271.9999999999975
 73
     0
 74
     0
 75
     0
  3
QCADDimStyle
100
AcDbAlignedDimension
 13
562.704499900974
 23
1099.400940238725
 33
0.0
 14
596.995686623713
 24
827.4009402387276
 34
0.0
 50
90.0
100
AcDbRotatedDimension
1001
ACAD
1000
DSTYLE
1002
{
1070
   279
1070
     2
1070
    41
1040
20.0
1070
    79
1070
     2
1070
   176
1070
     0
1070
   177
1070
     0
1070
   178
1070
     0
1070
    44
1040
10.0
1070
    42
1040
5.0
1070
   147
1040
5.0
1070
   142
1040
20.0
1070
   140
1040
20.0
1070
    78
1070
     8
1002
}
  0
DIMENSION
  5
50
330
1B3
100
AcDbEntity
  8
0 ... Seuil ... Rectangle ... Cotes Angles
100
AcDbDimension
280
     0
  2
*D7
 10
638.3854415054839
 20
868.7906951205
 30
0.0
 11
651.9526579332219
 21
890.024055600374
 31
0.0
 70
   161
 71
     5
 42
10.00000000000113
 73
     0
 74
     0
 75
     0
  3
QCADDimStyle
100
AcDbAlignedDimension
 13
589.9246188118468
 23
834.4720080505962
 33
0.0
 14
596.995686623713
 24
827.4009402387298
 34
0.0
1001
ACAD
1000
DSTYLE
1002
{
1070
   279
1070
     2
1070
    41
1040
20.0
1070
    79
1070
     2
1070
   176
1070
     0
1070
   177
1070
     0
1070
   178
1070
     0
1070
    44
1040
10.0
1070
    42
1040
5.0
1070
   147
1040
5.0
1070
   142
1040
20.0
1070
   140
1040
20.0
1070
    78
1070
     8
1002
}
  0
DIMENSION
  5
51
330
1B3
100
AcDbEntity
  8
0 ... Seuil ... Rectangle ... Cotes Angles
100
AcDbDimension
280
     0
  2
*D8
 10
596.9956866237159
 20
790.5369928051184
 30
0.0
 11
590.8784922518357
 21
763.2787440250281
 31
0.0
 70
   161
 71
     5
 42
12.00000000000136
 73
     0
 74
     0
 75
     0
  3
QCADDimStyle
100
AcDbAlignedDimension
 13
584.9956866237117
 23
827.4009402387289
 33
0.0
 14
596.995686623713
 24
827.4009402387298
 34
0.0
1001
ACAD
1000
DSTYLE
1002
{
1070
   279
1070
     2
1070
    41
1040
20.0
1070
    79
1070
     2
1070
   176
1070
     0
1070
   177
1070
     0
1070
   178
1070
     0
1070
    44
1040
10.0
1070
    42
1040
5.0
1070
   147
1040
5.0
1070
   142
1040
20.0
1070
   140
1040
20.0
1070
    78
1070
     8
1002
}
  0
DIMENSION
  5
52
330
1B3
100
AcDbEntity
  8
0 ... Seuil ... Rectangle ... Cotes Angles
100
AcDbDimension
280
     0
  2
*D9
 10
737.6770036388846
 20
857.4009402387298
 30
0.0
 11
722.6770036388847
 21
978.4009402387289
 31
0.0
 70
    33
 71
     5
 42
241.9999999999982
 73
     0
 74
     0
 75
     0
  3
QCADDimStyle
100
AcDbAlignedDimension
 13
759.7868310860658
 23
1099.400940238728
 33
0.0
 14
759.7868310860656
 24
857.4009402387298
 34
0.0
1001
ACAD
1000
DSTYLE
1002
{
1070
   279
1070
     2
1070
    41
1040
20.0
1070
    79
1070
     2
1070
   176
1070
     0
1070
   177
1070
     0
1070
   178
1070
     0
1070
    44
1040
10.0
1070
    42
1040
5.0
1070
   147
1040
5.0
1070
   142
1040
20.0
1070
   140
1040
20.0
1070
    78
1070
     8
1002
}
  0
DIMENSION
  5
53
330
1B3
100
AcDbEntity
  8
0 ... Seuil ... Rectangle ... Cotes Angles
100
AcDbDimension
280
     0
  2
*D10
 10
1573.786831086066
 20
1149.421062581535
 30
0.0
 11
1166.786831086066
 21
1164.421062581535
 31
0.0
 70
    33
 71
     5
 42
814.0000000000002
 73
     0
 74
     0
 75
     0
  3
QCADDimStyle
100
AcDbAlignedDimension
 13
759.7868310860658
 23
1099.400940238728
 33
0.0
 14
1573.786831086066
 24
1099.400940238727
 34
0.0
1001
ACAD
1000
DSTYLE
1002
{
1070
   279
1070
     2
1070
    41
1040
20.0
1070
    79
1070
     2
1070
   176
1070
     0
1070
   177
1070
     0
1070
   178
1070
     0
1070
    44
1040
10.0
1070
    42
1040
5.0
1070
   147
1040
5.0
1070
   142
1040
20.0
1070
   140
1040
20.0
1070
    78
1070
     8
1002
}
  0
LINE
  5
54
330
1B3
100
AcDbEntity
  8
0 ... Seuil ... Rectangle ... Cotes Angles
100
AcDbLine
 10
754.7868310860658
 20
1099.400940238728
 30
0.0
 11
663.2146622648756
 21
1099.400940238728
 31
0.0
  0
LINE
  5
55
330
1B3
100
AcDbEntity
  8
0 ... Seuil ... Rectangle ... Cotes Angles
100
AcDbLine
 10
663.2146622648756
 20
827.4009402387283
 30
0.0
 11
754.7868310860658
 21
827.4009402387283
 31
0.0
  0
LINE
  5
56
330
1B3
100
AcDbEntity
  8
0 ... Seuil ... Rectangle
100
AcDbLine
 10
761.2868310860658
 20
1097.900940238728
 30
0.0
 11
761.2868310860658
 21
827.4009402387283
 31
0.0
  0
LINE
  5
57
330
1B3
100
AcDbEntity
  8
0 ... Seuil ... Rectangle
100
AcDbLine
 10
1572.286831086066
 20
1097.900940238728
 30
0.0
 11
1572.286831086066
 21
827.4009402387283
 31
0.0
  0
DIMENSION
  5
58
330
1B3
100
AcDbEntity
  8
0 ... Seuil ... Rectangle ... Cotes Angles
100
AcDbDimension
280
     0
  2
*D11
 10
389.4481962999039
 20
857.4009402387287
 30
0.0
 11
374.4481962999039
 21
978.4009402387294
 31
0.0
 70
    32
 71
     5
 42
242.0000000000014
 73
     0
 74
     0
 75
     0
  3
QCADDimStyle
100
AcDbAlignedDimension
 13
542.7044999009759
 23
1099.40094023873
 33
0.0
 14
533.6857645970808
 24
857.4009402387287
 34
0.0
 50
90.0
100
AcDbRotatedDimension
1001
ACAD
1000
DSTYLE
1002
{
1070
   279
1070
     2
1070
    41
1040
20.0
1070
    79
1070
     2
1070
   176
1070
     0
1070
   177
1070
     0
1070
   178
1070
     0
1070
    44
1040
10.0
1070
    42
1040
5.0
1070
   147
1040
5.0
1070
   142
1040
20.0
1070
   140
1040
20.0
1070
    78
1070
     8
1002
}
  0
MTEXT
  5
59
330
1B3
100
AcDbEntity
  8
0 ... Seuil ... Rectangle ... Cotes Angles
100
AcDbMText
 10
628.4961277387379
 20
1655.4832183103
 30
0.0
 40
100.0
 41
0.0
 46
0.0
 71
     1
 72
     1
  1
(Acier - RAL 7016 - paisseur 15/10e)
  7
textstyle11
 73
     1
 44
1.0
  0
MTEXT
  5
5A
330
1B3
100
AcDbEntity
  8
0 ... Seuil ... Rectangle ... Cotes Angles
100
AcDbMText
 10
1088.983316345965
 20
703.281848977598
 30
0.0
 40
50.0
 41
0.0
 46
0.0
 71
     1
 72
     1
  1
Relevs
  7
textstyle12
 73
     1
 44
1.0
  0
LEADER
  5
5B
330
1B3
100
AcDbEntity
  8
0 ... Seuil ... Rectangle ... Cotes Angles
100
AcDbLeader
  3
QCADDimStyle
 76
     2
 10
1144.000102767384
 20
560.9668172082122
 30
0.0
 10
1209.656069007586
 20
627.8150504184273
 30
0.0
  0
LEADER
  5
5C
330
1B3
100
AcDbEntity
  8
0 ... Seuil ... Rectangle ... Cotes Angles
100
AcDbLeader
  3
QCADDimStyle
 76
     4
 10
1733.990073924572
 20
464.6911014505511
 30
0.0
 10
1830.94221283652
 20
583.8448285605532
 30
0.0
 10
1655.616014374659
 20
637.7477051103174
 30
0.0
 10
1209.656069007586
 20
627.8150504184273
 30
0.0
  0
LEADER
  5
5D
330
1B3
100
AcDbEntity
  8
0 ... Seuil ... Rectangle ... Cotes Angles
100
AcDbLeader
  3
QCADDimStyle
 76
     2
 10
1216.931734532677
 20
1097.900940238728
 30
0.0
 10
1175.592720511794
 20
736.5347331395853
 30
0.0
  0
LEADER
  5
5E
330
1B3
100
AcDbEntity
  8
0 ... Seuil ... Rectangle ... Cotes Angles
100
AcDbLeader
  3
QCADDimStyle
 76
     2
 10
1571.286831086066
 20
1017.980976751906
 30
0.0
 10
1175.592720511794
 20
736.5347331395853
 30
0.0
  0
LEADER
  5
5F
330
1B3
100
AcDbEntity
  8
0 ... Seuil ... Rectangle ... Cotes Angles
100
AcDbLeader
  3
QCADDimStyle
 76
     2
 10
761.2868310860658
 20
1063.30782453832
 30
0.0
 10
1175.592720511794
 20
736.5347331395853
 30
0.0
  0
LINE
  5
60
330
1B3
100
AcDbEntity
  8
0 ... Seuil ... Rectangle
100
AcDbLine
 10
1575.286831086066
 20
857.4009402387283
 30
0.0
 11
1575.286831086066
 21
827.4009402387273
 31
0.0
  0
LINE
  5
61
330
1B3
100
AcDbEntity
  8
0 ... Seuil ... Rectangle
100
AcDbLine
 10
1575.286831086066
 20
827.4009402387283
 30
0.0
 11
1573.786831086066
 21
827.4009402387283
 31
0.0
  0
LINE
  5
62
330
1B3
100
AcDbEntity
  8
0 ... Seuil ... Rectangle
100
AcDbLine
 10
758.2868310860658
 20
857.4009402387283
 30
0.0
 11
758.2868310860658
 21
827.4009402387273
 31
0.0
  0
LINE
  5
63
330
1B3
100
AcDbEntity
  8
0 ... Seuil ... Rectangle
100
AcDbLine
 10
758.2868310860658
 20
827.4009402387283
 30
0.0
 11
759.7868310860658
 21
827.4009402387283
 31
0.0
  0
LINE
  5
64
330
1B3
100
AcDbEntity
  8
0 ... Seuil ... Rectangle
100
AcDbLine
 10
584.995686623713
 20
827.4009402387273
 30
0.0
 11
578.8576572865318
 21
857.4009402387283
 31
0.0
  0
LINE
  5
65
330
1B3
100
AcDbEntity
  8
0 ... Seuil ... Rectangle
100
AcDbLine
 10
759.7868310860677
 20
1366.892346151539
 30
0.0
 11
1572.786831086066
 21
1366.892346151539
 31
0.0
  0
LINE
  5
66
330
1B3
100
AcDbEntity
  8
0 ... Seuil ... Rectangle
100
AcDbLine
 10
758.2868310860658
 20
1378.892346151539
 30
0.0
 11
758.2868310860658
 21
1385.605171432185
 31
0.0
  0
LINE
  5
67
330
1B3
100
AcDbEntity
  8
0 ... Seuil ... Rectangle
100
AcDbLine
 10
759.7868310860658
 20
1379.892346151539
 30
0.0
 11
759.7868310860658
 21
1451.024570097337
 31
0.0
  0
LINE
  5
68
330
1B3
100
AcDbEntity
  8
0 ... Seuil ... Rectangle
100
AcDbLine
 10
761.2868310860658
 20
1378.892346151539
 30
0.0
 11
761.2868310860658
 21
1385.605171432185
 31
0.0
  0
LINE
  5
69
330
1B3
100
AcDbEntity
  8
0 ... Seuil ... Rectangle
100
AcDbLine
 10
1572.786831086066
 20
1379.892346151539
 30
0.0
 11
1572.786831086066
 21
1451.024570097337
 31
0.0
  0
LINE
  5
6A
330
1B3
100
AcDbEntity
  8
0 ... Seuil ... Rectangle
100
AcDbLine
 10
1571.286831086066
 20
1378.892346151539
 30
0.0
 11
1571.286831086066
 21
1451.024570097337
 31
0.0
  0
LINE
  5
6B
330
1B3
100
AcDbEntity
  8
0 ... Seuil ... Rectangle
100
AcDbLine
 10
1574.286831086066
 20
1378.892346151539
 30
0.0
 11
1574.286831086066
 21
1385.605171432185
 31
0.0
  0
LINE
  5
6C
330
1B3
100
AcDbEntity
  8
0 ... Seuil ... Rectangle
100
AcDbLine
 10
759.2868310860677
 20
1386.605171432185
 30
0.0
 11
759.7868310860677
 21
1386.605171432185
 31
0.0
  0
LINE
  5
6D
330
1B3
100
AcDbEntity
  8
0 ... Seuil ... Rectangle
100
AcDbLine
 10
759.7868310860677
 20
1378.892346151539
 30
0.0
 11
758.2868310860658
 21
1378.892346151539
 31
0.0
  0
LINE
  5
6E
330
1B3
100
AcDbEntity
  8
0 ... Seuil ... Rectangle
100
AcDbLine
 10
1573.286831086066
 20
1386.605171432185
 30
0.0
 11
1572.786831086066
 21
1386.605171432185
 31
0.0
  0
LINE
  5
6F
330
1B3
100
AcDbEntity
  8
0 ... Seuil ... Rectangle
100
AcDbLine
 10
1572.786831086066
 20
1378.892346151539
 30
0.0
 11
1574.286831086066
 21
1378.892346151539
 31
0.0
  0
LINE
  5
70
330
1B3
100
AcDbEntity
  8
0 ... Seuil ... Rectangle
100
AcDbLine
 10
569.3625856653048
 20
1006.088101847651
 30
0.0
 11
569.231852051184
 21
1007.582393894788
 31
0.0
  0
LINE
  5
71
330
1B3
100
AcDbEntity
  8
0 ... Seuil ... Rectangle
100
AcDbLine
 10
1923.88167738174
 20
492.7198076129583
 30
0.0
 11
2310.88167738174
 21
492.7198076129583
 31
0.0
  0
LINE
  5
72
330
1B3
100
AcDbEntity
  8
0 ... Seuil ... Rectangle
100
AcDbLine
 10
2313.88167738174
 20
495.7198076129583
 30
0.0
 11
2313.88167738174
 21
792.7198076129582
 31
0.0
  0
LINE
  5
73
330
1B3
100
AcDbEntity
  8
0 ... Seuil ... Rectangle
100
AcDbLine
 10
1923.88167738174
 20
497.2198076129583
 30
0.0
 11
2306.38167738174
 21
497.2198076129583
 31
0.0
  0
LINE
  5
74
330
1B3
100
AcDbEntity
  8
0 ... Seuil ... Rectangle
100
AcDbLine
 10
2309.38167738174
 20
500.2198076129583
 30
0.0
 11
2309.38167738174
 21
792.7198076129582
 31
0.0
  0
ARC
  5
75
330
1B3
100
AcDbEntity
  8
0 ... Seuil ... Rectangle
100
AcDbCircle
 10
2306.38167738174
 20
500.2198076129583
 30
0.0
 40
3.0
100
AcDbArc
 50
270.0
 51
0.0
  0
ARC
  5
76
330
1B3
100
AcDbEntity
  8
0 ... Seuil ... Rectangle
100
AcDbCircle
 10
2310.88167738174
 20
495.7198076129583
 30
0.0
 40
3.0
100
AcDbArc
 50
270.0
 51
0.0
  0
LINE
  5
77
330
1B3
100
AcDbEntity
  8
0 ... Seuil ... Rectangle
100
AcDbLine
 10
2500.366388008355
 20
391.065201129861
 30
0.0
 11
2917.366388008355
 21
391.065201129861
 31
0.0
  0
LINE
  5
78
330
1B3
100
AcDbEntity
  8
0 ... Seuil ... Rectangle
100
AcDbLine
 10
2920.366388008355
 20
394.065201129861
 30
0.0
 11
2920.366388008355
 21
691.0652011298623
 31
0.0
  0
LINE
  5
79
330
1B3
100
AcDbEntity
  8
0 ... Seuil ... Rectangle
100
AcDbLine
 10
2915.866388008355
 20
398.565201129861
 30
0.0
 11
2915.866388008355
 21
691.0652011298623
 31
0.0
  0
LINE
  5
7A
330
1B3
100
AcDbEntity
  8
0 ... Seuil ... Rectangle
100
AcDbLine
 10
2500.366388008355
 20
395.565201129861
 30
0.0
 11
2912.866388008355
 21
395.565201129861
 31
0.0
  0
LINE
  5
7B
330
1B3
100
AcDbEntity
  8
0 ... Seuil ... Rectangle
100
AcDbLine
 10
2912.866388008355
 20
691.0652011298623
 30
0.0
 11
2500.366388008355
 21
691.0652011298623
 31
0.0
  0
ARC
  5
7C
330
1B3
100
AcDbEntity
  8
0 ... Seuil ... Rectangle
100
AcDbCircle
 10
2912.866388008355
 20
398.565201129861
 30
0.0
 40
3.0
100
AcDbArc
 50
270.0
 51
0.0
  0
ARC
  5
7D
330
1B3
100
AcDbEntity
  8
0 ... Seuil ... Rectangle
100
AcDbCircle
 10
2917.366388008355
 20
394.065201129861
 30
0.0
 40
3.0
100
AcDbArc
 50
270.0
 51
0.0
  0
LINE
  5
7E
330
1B3
100
AcDbEntity
  8
0 ... Seuil ... Rectangle
100
AcDbLine
 10
2912.866388008355
 20
395.565201129861
 30
0.0
 11
2912.866388008355
 21
691.0652011298623
 31
0.0
  0
LINE
  5
7F
330
1B3
100
AcDbEntity
  8
0 ... Seuil ... Rectangle
100
AcDbLine
 10
2915.866388008355
 20
691.0652011298623
 30
0.0
 11
2920.366388008355
 21
691.0652011298623
 31
0.0
  0
LINE
  5
80
330
1B3
100
AcDbEntity
  8
0 ... Seuil ... Rectangle
100
AcDbLine
 10
1897.044861270205
 20
199.3303664306666
 30
0.0
 11
2314.044861270205
 21
199.3303664306666
 31
0.0
  0
LINE
  5
81
330
1B3
100
AcDbEntity
  8
0 ... Seuil ... Rectangle
100
AcDbLine
 10
2317.044861270205
 20
199.3303664306666
 30
0.0
 11
2317.044861270205
 21
349.330366430667
 31
0.0
  0
LINE
  5
82
330
1B3
100
AcDbEntity
  8
0 ... Seuil ... Rectangle
100
AcDbLine
 10
2321.544861270205
 20
199.3303664306666
 30
0.0
 11
2321.544861270205
 21
349.330366430667
 31
0.0
  0
LINE
  5
83
330
1B3
100
AcDbEntity
  8
0 ... Seuil ... Rectangle
100
AcDbLine
 10
2312.544861270205
 20
206.8303664306666
 30
0.0
 11
2312.544861270205
 21
349.330366430667
 31
0.0
  0
LINE
  5
84
330
1B3
100
AcDbEntity
  8
0 ... Seuil ... Rectangle
100
AcDbLine
 10
1897.044861270205
 20
203.8303664306666
 30
0.0
 11
2309.544861270205
 21
203.8303664306666
 31
0.0
  0
ARC
  5
85
330
1B3
100
AcDbEntity
  8
0 ... Seuil ... Rectangle
100
AcDbCircle
 10
2309.544861270205
 20
206.8303664306666
 30
0.0
 40
3.0
100
AcDbArc
 50
270.0
 51
0.0
  0
ARC
  5
86
330
1B3
100
AcDbEntity
  8
0 ... Seuil ... Rectangle
100
AcDbCircle
 10
2317.044861270205
 20
349.330366430667
 30
0.0
 40
4.5
100
AcDbArc
 50
0.0
 51
180.0
  0
ARC
  5
87
330
1B3
100
AcDbEntity
  8
0 ... Seuil ... Rectangle
100
AcDbCircle
 10
2314.044861270205
 20
202.3303664306666
 30
0.0
 40
3.0
100
AcDbArc
 50
270.0
 51
0.0
  0
LINE
  5
88
330
1B3
100
AcDbEntity
  8
0 ... Seuil ... Rectangle
100
AcDbLine
 10
2317.044861270205
 20
199.3303664306666
 30
0.0
 11
2321.544861270205
 21
199.3303664306666
 31
0.0
  0
LINE
  5
89
330
1B3
100
AcDbEntity
  8
0 ... Seuil ... Rectangle
100
AcDbLine
 10
2312.544861270205
 20
349.330366430667
 30
0.0
 11
2312.544861270205
 21
424.753028522495
 31
0.0
  0
LINE
  5
8A
330
1B3
100
AcDbEntity
  8
0 ... Seuil ... Rectangle
100
AcDbLine
 10
2317.044861270205
 20
353.830366430667
 30
0.0
 11
2317.044861270205
 21
424.753028522495
 31
0.0
  0
LINE
  5
8B
330
1B3
100
AcDbEntity
  8
0 ... Seuil ... Rectangle
100
AcDbLine
 10
2312.544861270205
 20
424.753028522495
 30
0.0
 11
2317.044861270205
 21
424.753028522495
 31
0.0
  0
LINE
  5
8C
330
1B3
100
AcDbEntity
  8
0 ... Seuil ... Rectangle
100
AcDbLine
 10
1727.663637111302
 20
484.4665178821533
 30
0.0
 11
1727.663637111302
 21
405.38284905617
 31
0.0
  0
LINE
  5
8D
330
1B3
100
AcDbEntity
  8
0 ... Seuil ... Rectangle
100
AcDbLine
 10
559.6636371113009
 20
302.2797588838736
 30
0.0
 11
1726.750792854051
 21
404.3866543580791
 31
0.0
  0
LINE
  5
8E
330
1B3
100
AcDbEntity
  8
0 ... Seuil ... Rectangle
100
AcDbLine
 10
559.6636371113009
 20
308.302677909133
 30
0.0
 11
559.6636371113009
 21
260.3026779091326
 31
0.0
  0
LINE
  5
8F
330
1B3
100
AcDbEntity
  8
0 ... Seuil ... Rectangle
100
AcDbLine
 10
1721.663637111302
 20
484.4665178821533
 30
0.0
 11
1721.663637111302
 21
403.9415859009971
 31
0.0
  0
LINE
  5
90
330
1B3
100
AcDbEntity
  8
0 ... Seuil ... Rectangle
100
AcDbLine
 10
565.6636371113009
 20
302.804690865029
 30
0.0
 11
565.6636371113009
 21
274.7879592833704
 31
0.0
  0
LINE
  5
91
330
1B3
100
AcDbEntity
  8
0 ... Seuil ... Rectangle
100
AcDbLine
 10
1631.663637111302
 20
484.4665178821533
 30
0.0
 11
1727.663637111302
 21
484.4665178821533
 31
0.0
  0
LINE
  5
92
330
1B3
100
AcDbEntity
  8
0 ... Seuil ... Rectangle
100
AcDbLine
 10
587.9479083587617
 20
288.5869491565934
 30
0.0
 11
559.6636371113009
 21
260.3026779091326
 31
0.0
  0
LINE
  5
93
330
1B3
100
AcDbEntity
  8
0 ... Seuil ... Rectangle
100
AcDbLine
 10
583.7052676716416
 20
292.8295898437134
 30
0.0
 11
565.6636371112986
 21
274.7879592833704
 31
0.0
  0
LINE
  5
94
330
1B3
100
AcDbEntity
  8
0 ... Seuil ... Rectangle
100
AcDbLine
 10
583.7052676716416
 20
292.8295898437134
 30
0.0
 11
587.9479083587617
 21
288.5869491565934
 31
0.0
  0
LINE
  5
95
330
1B3
100
AcDbEntity
  8
0 ... Seuil ... Rectangle
100
AcDbLine
 10
751.6636371113009
 20
519.8415497895182
 30
0.0
 11
751.6636371113009
 21
319.077582280848
 31
0.0
  0
LINE
  5
96
330
1B3
100
AcDbEntity
  8
0 ... Seuil ... Rectangle
100
AcDbLine
 10
751.6636371113018
 20
519.8415497895212
 30
0.0
 11
1631.663637111302
 21
596.8315736923353
 31
0.0
  0
LINE
  5
97
330
1B3
100
AcDbEntity
  8
0 ... Seuil ... Rectangle
100
AcDbLine
 10
1631.663637111302
 20
596.8315736923353
 30
0.0
 11
1631.663637111302
 21
484.4665178821533
 31
0.0
  0
LINE
  5
98
330
1B3
100
AcDbEntity
  8
0 ... Seuil ... Rectangle
100
AcDbLine
 10
559.6636371112986
 20
308.302677909133
 30
0.0
 11
751.6636371113009
 21
351.1998170822369
 31
0.0
  0
DIMENSION
  5
9A
330
1B3
100
AcDbEntity
  8
0 ... Seuil ... Rectangle ... Cotes Angles
100
AcDbDimension
280
     0
  2
*D12
 10
559.6636371113
 20
260.3026779091335
 30
0.0
 11
441.8607864638668
 21
416.2491023454965
 31
0.0
 70
   162
 71
     5
 42
1.658062789394633
 73
     0
 74
     0
 75
     0
  3
QCADDimStyle
100
AcDb2LineAngularDimension
 13
751.6636371113009
 23
325.1005013061131
 33
0.0
 14
559.6636371112984
 24
308.3026779091352
 34
0.0
 15
559.6636371113009
 25
308.3026779091321
 35
0.0
 16
483.6570452045803
 26
431.5281321678767
 36
0.0
1001
ACAD
1000
DSTYLE
1002
{
1070
   279
1070
     2
1070
    41
1040
20.0
1070
    79
1070
     2
1070
   176
1070
     0
1070
   177
1070
     0
1070
   178
1070
     0
1070
    44
1040
10.0
1070
    42
1040
5.0
1070
   147
1040
5.0
1070
   142
1040
20.0
1070
   140
1040
20.0
1070
    78
1070
     8
1002
}
  0
LEADER
  5
9B
330
1B3
100
AcDbEntity
  8
0 ... Seuil ... Rectangle ... Cotes Angles
100
AcDbLeader
  3
QCADDimStyle
 76
     3
 10
690.3598759299007
 20
337.5031713778969
 30
0.0
 10
723.5445559622258
 20
537.8834276667133
 30
0.0
 10
1209.656069007586
 20
627.8150504184273
 30
0.0
  0
MTEXT
  5
9C
330
1B3
100
AcDbEntity
  8
0 ... Seuil ... Rectangle ... Cotes Angles
100
AcDbMText
 10
768.0110235965656
 20
504.8138418465184
 30
0.0
 40
50.0
 41
0.0
 46
0.0
 71
     1
 72
     1
  1
A
  7
textstyle13
 73
     1
 44
1.0
  0
MTEXT
  5
9D
330
1B3
100
AcDbEntity
  8
0 ... Seuil ... Rectangle ... Cotes Angles
100
AcDbMText
 10
732.4319113274826
 20
299.8103854389411
 30
0.0
 40
50.0
 41
0.0
 46
0.0
 71
     1
 72
     1
  1
B
  7
textstyle14
 73
     1
 44
1.0
  0
MTEXT
  5
9E
330
1B3
100
AcDbEntity
  8
0 ... Seuil ... Rectangle ... Cotes Angles
100
AcDbMText
 10
2202.684866237698
 20
329.0238825083131
 30
0.0
 40
50.0
 41
0.0
 46
0.0
 71
     1
 72
     1
  1
B
  7
textstyle15
 73
     1
 44
1.0
  0
MTEXT
  5
9F
330
1B3
100
AcDbEntity
  8
0 ... Seuil ... Rectangle ... Cotes Angles
100
AcDbMText
 10
1643.373579331425
 20
465.4832183102998
 30
0.0
 40
50.0
 41
0.0
 46
0.0
 71
     1
 72
     1
  1
C
  7
textstyle16
 73
     1
 44
1.0
  0
MTEXT
  5
A0
330
1B3
100
AcDbEntity
  8
0 ... Seuil ... Rectangle ... Cotes Angles
100
AcDbMText
 10
2731.288819949794
 20
570.9618459380739
 30
0.0
 40
50.0
 41
0.0
 46
0.0
 71
     1
 72
     1
  1
C
  7
textstyle17
 73
     1
 44
1.0
  0
MTEXT
  5
A1
330
1B3
100
AcDbEntity
  8
0 ... Seuil ... Rectangle ... Cotes Angles
100
AcDbMText
 10
2196.58558984871
 20
636.0207940872638
 30
0.0
 40
50.0
 41
0.0
 46
0.0
 71
     1
 72
     1
  1
A
  7
textstyle18
 73
     1
 44
1.0
  0
ARC
  5
A2
330
1B3
100
AcDbEntity
  8
0 ... Seuil ... Rectangle
100
AcDbCircle
 10
1726.663637111302
 20
405.38284905617
 30
0.0
 40
1.0
100
AcDbArc
 50
274.9999999999746
 51
0.0
  0
DIMENSION
  5
A3
330
1B3
100
AcDbEntity
  8
0 ... Seuil ... Rectangle ... Cotes Angles
100
AcDbDimension
280
     0
  2
*D13
 10
1727.663637111302
 20
484.4665178821532
 30
0.0
 11
1779.520712020236
 21
356.9482635497401
 31
0.0
 70
   162
 71
     5
 42
1.658062789394612
 73
     0
 74
     0
 75
     0
  3
QCADDimStyle
100
AcDb2LineAngularDimension
 13
565.6636371112986
 23
302.8046908650309
 33
0.0
 14
1726.750792854051
 24
404.3866543580792
 34
0.0
 15
1727.663637111302
 25
405.3828490561694
 35
0.0
 16
1772.462993104397
 26
331.8356992352259
 36
0.0
1001
ACAD
1000
DSTYLE
1002
{
1070
   279
1070
     2
1070
    41
1040
20.0
1070
    79
1070
     2
1070
   176
1070
     0
1070
   177
1070
     0
1070
   178
1070
     0
1070
    44
1040
10.0
1070
    42
1040
5.0
1070
   147
1040
5.0
1070
   142
1040
20.0
1070
   140
1040
20.0
1070
    78
1070
     8
1002
}
  0
LINE
  5
A4
330
1B3
100
AcDbEntity
  8
0 ... Seuil ... Rectangle
100
AcDbLine
 10
759.7868310860677
 20
1386.605171432185
 30
0.0
 11
760.2868310860658
 21
1386.605171432185
 31
0.0
  0
LINE
  5
A5
330
1B3
100
AcDbEntity
  8
0 ... Seuil ... Rectangle
100
AcDbLine
 10
759.7868310860677
 20
1451.024570097339
 30
0.0
 11
761.2868310860658
 21
1451.024570097339
 31
0.0
  0
LINE
  5
A6
330
1B3
100
AcDbEntity
  8
0 ... Seuil ... Rectangle
100
AcDbLine
 10
1572.286831086066
 20
1386.605171432185
 30
0.0
 11
1572.786831086066
 21
1386.605171432185
 31
0.0
  0
LINE
  5
A7
330
1B3
100
AcDbEntity
  8
0 ... Seuil ... Rectangle
100
AcDbLine
 10
1572.786831086066
 20
1451.024570097337
 30
0.0
 11
1571.286831086066
 21
1451.024570097337
 31
0.0
  0
ARC
  5
A8
330
1B3
100
AcDbEntity
  8
0 ... Seuil ... Rectangle
100
AcDbCircle
 10
1571.786831086066
 20
1379.892346151539
 30
0.0
 40
1.0
100
AcDbArc
 50
270.0
 51
0.0
  0
LINE
  5
A9
330
1B3
100
AcDbEntity
  8
0 ... Seuil ... Rectangle
100
AcDbLine
 10
1572.786831086066
 20
1366.892346151539
 30
0.0
 11
1572.786831086066
 21
1379.892346151539
 31
0.0
  0
LINE
  5
AA
330
1B3
100
AcDbEntity
  8
0 ... Seuil ... Rectangle
100
AcDbLine
 10
1571.286831086066
 20
1378.892346151539
 30
0.0
 11
1571.286831086066
 21
1385.605171432185
 31
0.0
  0
LINE
  5
AB
330
1B3
100
AcDbEntity
  8
0 ... Seuil ... Rectangle
100
AcDbLine
 10
761.2868310860658
 20
1422.933306144793
 30
0.0
 11
1571.286831086066
 21
1422.933306144793
 31
0.0
  0
LINE
  5
AC
330
1B3
100
AcDbEntity
  8
0 ... Seuil ... Rectangle
100
AcDbLine
 10
761.2868310860658
 20
1402.933306144793
 30
0.0
 11
1571.286831086066
 21
1402.933306144793
 31
0.0
  0
ARC
  5
AD
330
1B3
100
AcDbEntity
  8
0 ... Seuil ... Rectangle
100
AcDbCircle
 10
1572.286831086066
 20
1385.605171432185
 30
0.0
 40
1.0
100
AcDbArc
 50
90.0
 51
180.0
  0
ARC
  5
AE
330
1B3
100
AcDbEntity
  8
0 ... Seuil ... Rectangle
100
AcDbCircle
 10
1573.286831086066
 20
1385.605171432185
 30
0.0
 40
1.0
100
AcDbArc
 50
0.0
 51
90.0
  0
ARC
  5
AF
330
1B3
100
AcDbEntity
  8
0 ... Seuil ... Rectangle
100
AcDbCircle
 10
759.2868310860658
 20
1385.605171432185
 30
0.0
 40
1.0
100
AcDbArc
 50
89.99999999997394
 51
180.0
  0
ARC
  5
B0
330
1B3
100
AcDbEntity
  8
0 ... Seuil ... Rectangle
100
AcDbCircle
 10
760.2868310860658
 20
1385.605171432185
 30
0.0
 40
1.0
100
AcDbArc
 50
0.0
 51
90.0
  0
LINE
  5
B1
330
1B3
100
AcDbEntity
  8
0 ... Seuil ... Rectangle
100
AcDbLine
 10
761.2868310860658
 20
1378.892346151539
 30
0.0
 11
761.2868310860658
 21
1451.024570097339
 31
0.0
  0
ARC
  5
B2
330
1B3
100
AcDbEntity
  8
0 ... Seuil ... Rectangle
100
AcDbCircle
 10
760.7868310860658
 20
1379.892346151539
 30
0.0
 40
1.0
100
AcDbArc
 50
180.0
 51
270.0
  0
LINE
  5
B3
330
1B3
100
AcDbEntity
  8
0 ... Seuil ... Rectangle
100
AcDbLine
 10
759.7868310860677
 20
1366.892346151539
 30
0.0
 11
759.7868310860658
 21
1379.892346151539
 31
0.0
  0
DIMENSION
  5
B4
330
1B3
100
AcDbEntity
  8
0 ... Seuil ... Rectangle ... Cotes Angles
100
AcDbDimension
280
     0
  2
*D14
 10
583.8767564742374
 20
903.5881225650755
 30
0.0
 11
581.367206880372
 21
931.0881225650749
 31
0.0
 70
    33
 71
     5
 42
5.019099187717075
 73
     0
 74
     0
 75
     0
  3
QCADDimStyle
100
AcDbAlignedDimension
 13
578.8576572865318
 23
857.400940238727
 33
0.0
 14
583.8767564742489
 24
857.4009402387283
 34
0.0
1001
ACAD
1000
DSTYLE
1002
{
1070
   279
1070
     2
1070
    41
1040
20.0
1070
    79
1070
     2
1070
   176
1070
     0
1070
   177
1070
     0
1070
   178
1070
     0
1070
    44
1040
10.0
1070
    42
1040
5.0
1070
   147
1040
5.0
1070
   142
1040
20.0
1070
   140
1040
20.0
1070
    78
1070
     8
1002
}
  0
DIMENSION
  5
B5
330
1B3
100
AcDbEntity
  8
0 ... Seuil ... Rectangle ... Cotes Angles
100
AcDbDimension
280
     0
  2
*D15
 10
562.7044999009955
 20
1185.483218310296
 30
0.0
 11
588.496127738737
 21
1200.483218310301
 31
0.0
 70
   161
 71
     5
 42
19.99999999999818
 73
     0
 74
     0
 75
     0
  3
QCADDimStyle
100
AcDbAlignedDimension
 13
542.7044999009759
 23
1099.40094023873
 33
0.0
 14
562.704499900974
 24
1099.400940238725
 34
0.0
1001
ACAD
1000
DSTYLE
1002
{
1070
   279
1070
     2
1070
    41
1040
20.0
1070
    79
1070
     2
1070
   176
1070
     0
1070
   177
1070
     0
1070
   178
1070
     0
1070
    44
1040
10.0
1070
    42
1040
5.0
1070
   147
1040
5.0
1070
   142
1040
20.0
1070
   140
1040
20.0
1070
    78
1070
     8
1002
}
  0
DIMENSION
  5
B6
330
1B3
100
AcDbEntity
  8
0 ... Seuil ... Rectangle ... Cotes Angles
100
AcDbDimension
280
     0
  2
*D16
 10
542.7044999009759
 20
1145.4832183103
 30
0.0
 11
488.4961277387356
 21
1160.4832183103
 31
0.0
 70
   160
 71
     5
 42
28.09126395254725
 73
     0
 74
     0
 75
     0
  3
QCADDimStyle
100
AcDbAlignedDimension
 13
514.6132359484286
 23
1075.400940238727
 33
0.0
 14
542.7044999009759
 24
1099.40094023873
 34
0.0
100
AcDbRotatedDimension
1001
ACAD
1000
DSTYLE
1002
{
1070
   279
1070
     2
1070
    41
1040
20.0
1070
    79
1070
     2
1070
   176
1070
     0
1070
   177
1070
     0
1070
   178
1070
     0
1070
    44
1040
10.0
1070
    42
1040
5.0
1070
   147
1040
5.0
1070
   142
1040
20.0
1070
   140
1040
20.0
1070
    78
1070
     8
1002
}
  0
MTEXT
  5
B7
330
1B3
100
AcDbEntity
  8
0 ... Seuil ... Rectangle ... Cotes Angles
100
AcDbMText
 10
359.580991313235
 20
1800.669633569333
 30
0.0
 40
100.0
 41
0.0
 46
0.0
 71
     1
 72
     1
  1
Fentre Musik - Seuil - Dessus, Profil & Face\P
  7
textstyle19
 73
     1
 44
1.0
  0
LINE
  5
B8
330
1B3
100
AcDbEntity
  8
0 ... Seuil ... Rectangle
100
AcDbLine
 10
760.7868310860658
 20
1378.892346151539
 30
0.0
 11
1571.786831086066
 21
1378.892346151539
 31
0.0
  0
LINE
  5
B9
330
1B3
100
AcDbEntity
  8
0 ... Seuil ... Rectangle
100
AcDbLine
 10
1572.786831086066
 20
1378.892346151539
 30
0.0
 11
1574.286831086066
 21
1378.892346151539
 31
0.0
  0
LINE
  5
BA
330
1B3
100
AcDbEntity
  8
0 ... Seuil ... Rectangle
100
AcDbLine
 10
759.7868310860658
 20
827.4009402387283
 30
0.0
 11
1573.786831086066
 21
827.4009402387283
 31
0.0
  0
ENDSEC
  0
SECTION
  2
OBJECTS
  0
DICTIONARY
  5
1A1
330
0
100
AcDbDictionary
281
     1
  3
ACAD_DETAILVIEWSTYLE
350
34C
  3
ACAD_GROUP
350
1A2
  3
ACAD_LAYOUT
350
1AE
  3
ACAD_MATERIAL
350
1D7
  3
ACAD_MLEADERSTYLE
350
1FF
  3
ACAD_MLINESTYLE
350
1AB
  3
ACAD_PLOTSETTINGS
350
1AD
  3
ACAD_PLOTSTYLENAME
350
1A3
  3
ACAD_SCALELIST
350
1DB
  3
ACAD_SECTIONVIEWSTYLE
350
34D
  3
ACAD_TABLESTYLE
350
1FD
  3
ACAD_VISUALSTYLE
350
1BE
  3
ACDB_RECOMPOSE_DATA
350
349
  3
AcDbVariableDictionary
350
345
  3
QCAD_OBJECTS
350
203
  0
SUN
  5
201
330
1BD
100
AcDbSun
 90
        1
290
     0
 63
     7
421
 16777215
 40
1.0
291
     1
 91
  2455826
 92
 54000000
292
     0
 70
     2
 71
   256
280
     1
  0
DICTIONARY
  5
34C
102
{ACAD_REACTORS
330
1A1
102
}
330
1A1
100
AcDbDictionary
281
     1
  0
DICTIONARY
  5
1A2
102
{ACAD_REACTORS
330
1A1
102
}
330
1A1
100
AcDbDictionary
281
     1
  0
DICTIONARY
  5
1AE
102
{ACAD_REACTORS
330
1A1
102
}
330
1A1
100
AcDbDictionary
281
     1
  3
Layout1
350
1B2
  3
Layout2
350
1BA
  3
Model
350
1B6
  0
DICTIONARY
  5
1D7
102
{ACAD_REACTORS
330
1A1
102
}
330
1A1
100
AcDbDictionary
281
     1
  3
ByBlock
350
1D9
  3
ByLayer
350
1D8
  3
Global
350
1DA
  0
DICTIONARY
  5
1FF
102
{ACAD_REACTORS
330
1A1
102
}
330
1A1
100
AcDbDictionary
281
     1
  3
Standard
350
200
  0
DICTIONARY
  5
1AB
102
{ACAD_REACTORS
330
1A1
102
}
330
1A1
100
AcDbDictionary
281
     1
  3
Standard
350
1AC
  0
DICTIONARY
  5
1AD
102
{ACAD_REACTORS
330
1A1
102
}
330
1A1
100
AcDbDictionary
281
     1
  0
ACDBDICTIONARYWDFLT
  5
1A3
102
{ACAD_REACTORS
330
1A1
102
}
330
1A1
100
AcDbDictionary
281
     1
  3
Normal
350
1A4
100
AcDbDictionaryWithDefault
340
1A4
  0
DICTIONARY
  5
1DB
102
{ACAD_REACTORS
330
1A1
102
}
330
1A1
100
AcDbDictionary
281
     1
  3
A0
350
1DC
  3
A1
350
1DD
  3
A2
350
1DE
  3
A3
350
1DF
  3
A4
350
1E0
  3
A5
350
1E1
  3
A6
350
1E2
  3
A7
350
1E3
  3
A8
350
1E4
  3
A9
350
1E5
  3
B0
350
1E6
  3
B1
350
1E7
  3
B2
350
1E8
  3
B3
350
1E9
  3
B4
350
1EA
  3
B5
350
1EB
  3
B6
350
1EC
  3
B7
350
1ED
  3
B8
350
1EE
  3
B9
350
1EF
  3
C0
350
1F0
  3
C1
350
1F1
  3
C2
350
1F2
  3
C3
350
1F3
  3
C4
350
1F4
  3
C5
350
1F5
  3
C6
350
1F6
  3
C7
350
1F7
  3
C8
350
1F8
  3
C9
350
1F9
  3
D0
350
1FA
  3
D1
350
1FB
  3
D2
350
1FC
  0
DICTIONARY
  5
34D
102
{ACAD_REACTORS
330
1A1
102
}
330
1A1
100
AcDbDictionary
281
     1
  0
DICTIONARY
  5
1FD
102
{ACAD_REACTORS
330
1A1
102
}
330
1A1
100
AcDbDictionary
281
     1
  3
Standard
350
1FE
  0
DICTIONARY
  5
1BE
102
{ACAD_REACTORS
330
1A1
102
}
330
1A1
100
AcDbDictionary
281
     1
  3
2dWireframe
350
1C3
  3
Basic
350
1C6
  3
Brighten
350
1CA
  3
ColorChange
350
1CE
  3
Conceptual
350
1C8
  3
Dim
350
1C9
  3
EdgeColorOff
350
1D1
  3
Facepattern
350
1CD
  3
Flat
350
1BF
  3
FlatWithEdges
350
1C0
  3
Gouraud
350
1C1
  3
GouraudWithEdges
350
1C2
  3
Hidden
350
1C5
  3
JitterOff
350
1CF
  3
Linepattern
350
1CC
  3
OverhangOff
350
1D0
  3
Realistic
350
1C7
  3
Shaded
350
1D6
  3
Shaded with edges
350
1D5
  3
Shades of Gray
350
1D2
  3
Sketchy
350
1D3
  3
Thicken
350
1CB
  3
Wireframe
350
1C4
  3
X-Ray
350
1D4
  0
XRECORD
  5
349
102
{ACAD_REACTORS
330
1A1
102
}
330
1A1
100
AcDbXrecord
280
     1
 90
        1
330
1FE
  0
DICTIONARY
  5
345
102
{ACAD_REACTORS
330
1A1
102
}
330
1A1
100
AcDbDictionary
281
     1
  3
CANNOSCALE
350
346
  3
CMLEADERSTYLE
350
34B
  3
CTABLESTYLE
350
34A
  0
DICTIONARY
  5
203
102
{ACAD_REACTORS
330
1A1
102
}
330
1A1
100
AcDbDictionary
281
     1
  3
DimensionSettings/AngularFormat
350
205
  3
DimensionSettings/AngularPrecision
350
206
  3
DimensionSettings/DimensionFont
350
207
  3
DimensionSettings/KeepProportions
350
208
  3
DimensionSettings/LinearFormat
350
209
  3
DimensionSettings/LinearPrecision
350
20A
  3
Grid/DisplayGrid00
350
20B
  3
Grid/DisplayGrid01
350
20C
  3
Grid/DisplayGrid02
350
20D
  3
Grid/DisplayGrid03
350
20E
  3
Grid/GridSpacingX00
350
20F
  3
Grid/GridSpacingX01
350
210
  3
Grid/GridSpacingX02
350
211
  3
Grid/GridSpacingX03
350
212
  3
Grid/GridSpacingY00
350
213
  3
Grid/GridSpacingY01
350
214
  3
Grid/GridSpacingY02
350
215
  3
Grid/GridSpacingY03
350
216
  3
Grid/IsometricGrid00
350
217
  3
Grid/IsometricGrid01
350
218
  3
Grid/IsometricGrid02
350
219
  3
Grid/IsometricGrid03
350
21A
  3
Grid/IsometricProjection00
350
21B
  3
Grid/IsometricProjection01
350
21C
  3
Grid/IsometricProjection02
350
21D
  3
Grid/IsometricProjection03
350
21E
  3
Grid/MetaGridSpacingX00
350
21F
  3
Grid/MetaGridSpacingX01
350
220
  3
Grid/MetaGridSpacingX02
350
221
  3
Grid/MetaGridSpacingX03
350
222
  3
Grid/MetaGridSpacingY00
350
223
  3
Grid/MetaGridSpacingY01
350
224
  3
Grid/MetaGridSpacingY02
350
225
  3
Grid/MetaGridSpacingY03
350
226
  3
MultiPageSettings/Columns
350
227
  3
MultiPageSettings/GlueMarginsBottom
350
228
  3
MultiPageSettings/GlueMarginsLeft
350
229
  3
MultiPageSettings/GlueMarginsRight
350
22A
  3
MultiPageSettings/GlueMarginsTop
350
22B
  3
MultiPageSettings/PrintCropMarks
350
22C
  3
MultiPageSettings/Rows
350
22D
  3
PageSettings/OffsetX
350
22E
  3
PageSettings/OffsetY
350
22F
  3
PageSettings/PageOrientation
350
230
  3
PageSettings/PaperHeight
350
231
  3
PageSettings/PaperWidth
350
232
  3
PageSettings/Scale
350
233
  3
PageSettings/ShowPaperBorders
350
234
  3
QCADVersion
350
235
  3
UnitSettings/PaperUnit
350
236
  0
LAYOUT
  5
1B2
102
{ACAD_REACTORS
330
1AE
102
}
330
1AE
100
AcDbPlotSettings
  1

  2
none_device
  4

  6

 40
0.0
 41
0.0
 42
0.0
 43
0.0
 44
0.0
 45
0.0
 46
0.0
 47
0.0
 48
0.0
 49
0.0
140
0.0
141
0.0
142
1.0
143
1.0
 70
   688
 72
     0
 73
     0
 74
     5
  7

 75
    16
 76
     0
 77
     2
 78
   300
147
1.0
148
0.0
149
0.0
100
AcDbLayout
  1
Layout1
 70
     1
 71
     1
 10
0.0
 20
0.0
 11
12.0
 21
9.0
 12
0.0
 22
0.0
 32
0.0
 14
1.000000000000000E+20
 24
1.000000000000000E+20
 34
1.000000000000000E+20
 15
-1.000000000000000E+20
 25
-1.000000000000000E+20
 35
-1.000000000000000E+20
146
0.0
 13
0.0
 23
0.0
 33
0.0
 16
1.0
 26
0.0
 36
0.0
 17
0.0
 27
1.0
 37
0.0
 76
     0
330
1AF
  0
LAYOUT
  5
1BA
102
{ACAD_REACTORS
330
1AE
102
}
330
1AE
100
AcDbPlotSettings
  1

  2
none_device
  4

  6

 40
0.0
 41
0.0
 42
0.0
 43
0.0
 44
0.0
 45
0.0
 46
0.0
 47
0.0
 48
0.0
 49
0.0
140
0.0
141
0.0
142
1.0
143
1.0
 70
   688
 72
     0
 73
     0
 74
     5
  7

 75
    16
 76
     0
 77
     2
 78
   300
147
1.0
148
0.0
149
0.0
100
AcDbLayout
  1
Layout2
 70
     1
 71
     2
 10
0.0
 20
0.0
 11
0.0
 21
0.0
 12
0.0
 22
0.0
 32
0.0
 14
0.0
 24
0.0
 34
0.0
 15
0.0
 25
0.0
 35
0.0
146
0.0
 13
0.0
 23
0.0
 33
0.0
 16
1.0
 26
0.0
 36
0.0
 17
0.0
 27
1.0
 37
0.0
 76
     0
330
1B7
  0
LAYOUT
  5
1B6
102
{ACAD_REACTORS
330
1AE
102
}
330
1AE
100
AcDbPlotSettings
  1

  2
none_device
  4
Letter_(8.50_x_11.00_Inches)
  6

 40
6.35
 41
6.35
 42
6.35000508
 43
6.35000508
 44
215.9
 45
279.4
 46
0.0
 47
0.0
 48
0.0
 49
0.0
140
0.0
141
0.0
142
1.0
143
1.0
 70
  1712
 72
     0
 73
     0
 74
     0
  7

 75
     0
 76
     0
 77
     2
 78
   300
147
1.0
148
0.0
149
0.0
100
AcDbLayout
  1
Model
 70
     1
 71
     0
 10
0.0
 20
0.0
 11
12.0
 21
9.0
 12
0.0
 22
0.0
 32
0.0
 14
1.000000000000000E+20
 24
1.000000000000000E+20
 34
1.000000000000000E+20
 15
-1.000000000000000E+20
 25
-1.000000000000000E+20
 35
-1.000000000000000E+20
146
0.0
 13
0.0
 23
0.0
 33
0.0
 16
1.0
 26
0.0
 36
0.0
 17
0.0
 27
1.0
 37
0.0
 76
     0
330
1B3
331
1BD
  0
MATERIAL
  5
1D9
102
{ACAD_REACTORS
330
1D7
102
}
330
1D7
100
AcDbMaterial
  1
ByBlock
 72
     1
 94
      127
  0
MATERIAL
  5
1D8
102
{ACAD_REACTORS
330
1D7
102
}
330
1D7
100
AcDbMaterial
  1
ByLayer
 72
     1
 94
      127
  0
MATERIAL
  5
1DA
102
{ACAD_REACTORS
330
1D7
102
}
330
1D7
100
AcDbMaterial
  1
Global
 72
     1
 94
      127
  0
MLEADERSTYLE
  5
200
102
{ACAD_REACTORS
330
1FF
102
}
330
1FF
100
AcDbMLeaderStyle
179
     2
170
     2
171
     1
172
     0
 90
        2
 40
0.0
 41
0.0
173
     1
 91
-1056964608
340
1A8
 92
       -2
290
     1
 42
0.09
291
     1
 43
0.36
  3
Standard
341
0
 44
0.18
300

342
1A6
174
     1
178
     6
175
     1
176
     0
 93
-1056964608
 45
0.18
292
     0
297
     0
 46
0.18
343
0
 94
-1056964608
 47
1.0
 49
1.0
140
1.0
293
     1
141
0.0
294
     1
177
     0
142
1.0
295
     0
296
     0
143
0.125
271
     0
272
     9
273
     9
298
     0
  0
MLINESTYLE
  5
1AC
102
{ACAD_REACTORS
330
1AB
102
}
330
1AB
100
AcDbMlineStyle
  2
Standard
 70
     0
  3

 62
   256
 51
90.0
 52
90.0
 71
     2
 49
0.5
 62
   256
  6
BYLAYER
 49
-0.5
 62
   256
  6
BYLAYER
  0
ACDBPLACEHOLDER
  5
1A4
102
{ACAD_REACTORS
330
1A3
102
}
330
1A3
  0
SCALE
  5
1DC
102
{ACAD_REACTORS
330
1DB
102
}
330
1DB
100
AcDbScale
 70
     0
300
1:1
140
1.0
141
1.0
290
     1
  0
SCALE
  5
1DD
102
{ACAD_REACTORS
330
1DB
102
}
330
1DB
100
AcDbScale
 70
     0
300
1:2
140
1.0
141
2.0
290
     0
  0
SCALE
  5
1DE
102
{ACAD_REACTORS
330
1DB
102
}
330
1DB
100
AcDbScale
 70
     0
300
1:4
140
1.0
141
4.0
290
     0
  0
SCALE
  5
1DF
102
{ACAD_REACTORS
330
1DB
102
}
330
1DB
100
AcDbScale
 70
     0
300
1:5
140
1.0
141
5.0
290
     0
  0
SCALE
  5
1E0
102
{ACAD_REACTORS
330
1DB
102
}
330
1DB
100
AcDbScale
 70
     0
300
1:8
140
1.0
141
8.0
290
     0
  0
SCALE
  5
1E1
102
{ACAD_REACTORS
330
1DB
102
}
330
1DB
100
AcDbScale
 70
     0
300
1:10
140
1.0
141
10.0
290
     0
  0
SCALE
  5
1E2
102
{ACAD_REACTORS
330
1DB
102
}
330
1DB
100
AcDbScale
 70
     0
300
1:16
140
1.0
141
16.0
290
     0
  0
SCALE
  5
1E3
102
{ACAD_REACTORS
330
1DB
102
}
330
1DB
100
AcDbScale
 70
     0
300
1:20
140
1.0
141
20.0
290
     0
  0
SCALE
  5
1E4
102
{ACAD_REACTORS
330
1DB
102
}
330
1DB
100
AcDbScale
 70
     0
300
1:30
140
1.0
141
30.0
290
     0
  0
SCALE
  5
1E5
102
{ACAD_REACTORS
330
1DB
102
}
330
1DB
100
AcDbScale
 70
     0
300
1:40
140
1.0
141
40.0
290
     0
  0
SCALE
  5
1E6
102
{ACAD_REACTORS
330
1DB
102
}
330
1DB
100
AcDbScale
 70
     0
300
1:50
140
1.0
141
50.0
290
     0
  0
SCALE
  5
1E7
102
{ACAD_REACTORS
330
1DB
102
}
330
1DB
100
AcDbScale
 70
     0
300
1:100
140
1.0
141
100.0
290
     0
  0
SCALE
  5
1E8
102
{ACAD_REACTORS
330
1DB
102
}
330
1DB
100
AcDbScale
 70
     0
300
2:1
140
2.0
141
1.0
290
     0
  0
SCALE
  5
1E9
102
{ACAD_REACTORS
330
1DB
102
}
330
1DB
100
AcDbScale
 70
     0
300
4:1
140
4.0
141
1.0
290
     0
  0
SCALE
  5
1EA
102
{ACAD_REACTORS
330
1DB
102
}
330
1DB
100
AcDbScale
 70
     0
300
8:1
140
8.0
141
1.0
290
     0
  0
SCALE
  5
1EB
102
{ACAD_REACTORS
330
1DB
102
}
330
1DB
100
AcDbScale
 70
     0
300
10:1
140
10.0
141
1.0
290
     0
  0
SCALE
  5
1EC
102
{ACAD_REACTORS
330
1DB
102
}
330
1DB
100
AcDbScale
 70
     0
300
100:1
140
100.0
141
1.0
290
     0
  0
SCALE
  5
1ED
102
{ACAD_REACTORS
330
1DB
102
}
330
1DB
100
AcDbScale
 70
     0
300
1/128" = 1'-0"
140
0.0078125
141
12.0
290
     0
  0
SCALE
  5
1EE
102
{ACAD_REACTORS
330
1DB
102
}
330
1DB
100
AcDbScale
 70
     0
300
1/64" = 1'-0"
140
0.015625
141
12.0
290
     0
  0
SCALE
  5
1EF
102
{ACAD_REACTORS
330
1DB
102
}
330
1DB
100
AcDbScale
 70
     0
300
1/32" = 1'-0"
140
0.03125
141
12.0
290
     0
  0
SCALE
  5
1F0
102
{ACAD_REACTORS
330
1DB
102
}
330
1DB
100
AcDbScale
 70
     0
300
1/16" = 1'-0"
140
0.0625
141
12.0
290
     0
  0
SCALE
  5
1F1
102
{ACAD_REACTORS
330
1DB
102
}
330
1DB
100
AcDbScale
 70
     0
300
3/32" = 1'-0"
140
0.09375
141
12.0
290
     0
  0
SCALE
  5
1F2
102
{ACAD_REACTORS
330
1DB
102
}
330
1DB
100
AcDbScale
 70
     0
300
1/8" = 1'-0"
140
0.125
141
12.0
290
     0
  0
SCALE
  5
1F3
102
{ACAD_REACTORS
330
1DB
102
}
330
1DB
100
AcDbScale
 70
     0
300
3/16" = 1'-0"
140
0.1875
141
12.0
290
     0
  0
SCALE
  5
1F4
102
{ACAD_REACTORS
330
1DB
102
}
330
1DB
100
AcDbScale
 70
     0
300
1/4" = 1'-0"
140
0.25
141
12.0
290
     0
  0
SCALE
  5
1F5
102
{ACAD_REACTORS
330
1DB
102
}
330
1DB
100
AcDbScale
 70
     0
300
3/8" = 1'-0"
140
0.375
141
12.0
290
     0
  0
SCALE
  5
1F6
102
{ACAD_REACTORS
330
1DB
102
}
330
1DB
100
AcDbScale
 70
     0
300
1/2" = 1'-0"
140
0.5
141
12.0
290
     0
  0
SCALE
  5
1F7
102
{ACAD_REACTORS
330
1DB
102
}
330
1DB
100
AcDbScale
 70
     0
300
3/4" = 1'-0"
140
0.75
141
12.0
290
     0
  0
SCALE
  5
1F8
102
{ACAD_REACTORS
330
1DB
102
}
330
1DB
100
AcDbScale
 70
     0
300
1" = 1'-0"
140
1.0
141
12.0
290
     0
  0
SCALE
  5
1F9
102
{ACAD_REACTORS
330
1DB
102
}
330
1DB
100
AcDbScale
 70
     0
300
1-1/2" = 1'-0"
140
1.5
141
12.0
290
     0
  0
SCALE
  5
1FA
102
{ACAD_REACTORS
330
1DB
102
}
330
1DB
100
AcDbScale
 70
     0
300
3" = 1'-0"
140
3.0
141
12.0
290
     0
  0
SCALE
  5
1FB
102
{ACAD_REACTORS
330
1DB
102
}
330
1DB
100
AcDbScale
 70
     0
300
6" = 1'-0"
140
6.0
141
12.0
290
     0
  0
SCALE
  5
1FC
102
{ACAD_REACTORS
330
1DB
102
}
330
1DB
100
AcDbScale
 70
     0
300
1'-0" = 1'-0"
140
12.0
141
12.0
290
     0
  0
TABLESTYLE
  5
1FE
102
{ACAD_REACTORS
330
1FD
102
}
102
{ACAD_XDICTIONARY
360
347
102
}
330
1FD
100
AcDbTableStyle
  3
Standard
 70
     0
 71
     0
 40
0.06
 41
0.06
280
     0
281
     0
  7
Standard
140
0.18
170
     2
 62
     0
 63
   257
283
     0
 90
        4
 91
        0
  1

274
    -2
284
     1
 64
     0
275
    -2
285
     1
 65
     0
276
    -2
286
     1
 66
     0
277
    -2
287
     1
 67
     0
278
    -2
288
     1
 68
     0
279
    -2
289
     1
 69
     0
  7
Standard
140
0.25
170
     5
 62
     0
 63
   257
283
     0
 90
        4
 91
        0
  1

274
    -2
284
     1
 64
     0
275
    -2
285
     1
 65
     0
276
    -2
286
     1
 66
     0
277
    -2
287
     1
 67
     0
278
    -2
288
     1
 68
     0
279
    -2
289
     1
 69
     0
  7
Standard
140
0.18
170
     5
 62
     0
 63
   257
283
     0
 90
        4
 91
        0
  1

274
    -2
284
     1
 64
     0
275
    -2
285
     1
 65
     0
276
    -2
286
     1
 66
     0
277
    -2
287
     1
 67
     0
278
    -2
288
     1
 68
     0
279
    -2
289
     1
 69
     0
  0
VISUALSTYLE
  5
1C3
102
{ACAD_REACTORS
330
1BE
102
}
330
1BE
100
AcDbVisualStyle
  2
2dWireframe
 70
     4
177
     3
291
     0
 70
    58
 90
        0
176
     1
 90
        2
176
     1
 90
        0
176
     1
 90
        0
176
     1
 40
0.6
176
     1
 40
30.0
176
     1
 62
     7
420
 16777215
176
     1
 90
        1
176
     1
 90
        4
176
     1
 62
     7
176
     1
 62
   257
176
     1
 90
        1
176
     1
 90
        1
176
     1
 40
1.0
176
     1
 90
        0
176
     1
 62
   257
176
     1
 40
1.0
176
     1
 90
        1
176
     1
 90
        6
176
     1
 90
        2
176
     1
 62
     7
176
     1
 90
        5
176
     1
 90
        0
176
     1
 90
        0
176
     1
290
     0
176
     1
 90
        1
176
     1
 40
0.0
176
     1
 90
        0
176
     1
290
     1
176
     1
290
     1
176
     1
290
     0
176
     1
290
     0
176
     1
290
     0
176
     1
290
     0
176
     1
290
     0
176
     1
290
     0
176
     1
290
     0
176
     1
 90
       50
176
     1
 40
0.0
176
     1
 40
1.0
176
     1
 90
        0
176
     1
 62
   178
420
        0
176
     1
 90
       50
176
     1
 90
        3
176
     1
 62
     5
420
      255
176
     1
290
     0
176
     1
 90
       50
176
     1
 90
       50
176
     1
 90
       50
176
     1
290
     0
176
     1
 90
       50
176
     1
 62
   256
176
     0
 40
1.0
176
     0
 90
        2
176
     1
  1
strokes_ogs.tif
176
     1
290
     0
176
     1
 40
1.0
176
     1
 40
1.0
176
     1
  0
VISUALSTYLE
  5
1C6
102
{ACAD_REACTORS
330
1BE
102
}
330
1BE
100
AcDbVisualStyle
  2
Basic
 70
     7
177
     3
291
     1
 70
    58
 90
        1
176
     1
 90
        0
176
     1
 90
        1
176
     1
 90
        0
176
     1
 40
0.6
176
     1
 40
30.0
176
     1
 62
     7
420
 16777215
176
     1
 90
        0
176
     1
 90
        4
176
     1
 62
     7
176
     1
 62
   257
176
     1
 90
        1
176
     1
 90
        1
176
     1
 40
1.0
176
     1
 90
        8
176
     1
 62
     7
176
     1
 40
1.0
176
     1
 90
        1
176
     1
 90
        6
176
     1
 90
        2
176
     1
 62
     7
176
     1
 90
        5
176
     1
 90
        0
176
     1
 90
        0
176
     1
290
     0
176
     1
 90
        1
176
     1
 40
0.0
176
     1
 90
        0
176
     1
290
     0
176
     1
290
     1
176
     1
290
     1
176
     1
290
     0
176
     1
290
     0
176
     1
290
     0
176
     1
290
     0
176
     1
290
     0
176
     1
290
     0
176
     1
 90
       50
176
     1
 40
0.0
176
     1
 40
1.0
176
     1
 90
        0
176
     1
 62
   178
420
        0
176
     1
 90
       50
176
     1
 90
        3
176
     1
 62
     5
420
      255
176
     1
290
     0
176
     1
 90
       50
176
     1
 90
       50
176
     1
 90
       50
176
     1
290
     0
176
     1
 90
       50
176
     1
 62
   256
176
     0
 40
1.0
176
     0
 90
        2
176
     1
  1
strokes_ogs.tif
176
     1
290
     0
176
     1
 40
1.0
176
     1
 40
1.0
176
     1
  0
VISUALSTYLE
  5
1CA
102
{ACAD_REACTORS
330
1BE
102
}
330
1BE
100
AcDbVisualStyle
  2
Brighten
 70
    12
177
     3
291
     1
 70
    58
 90
        2
176
     1
 90
        2
176
     1
 90
        0
176
     1
 90
        0
176
     1
 40
0.6
176
     1
 40
30.0
176
     1
 62
     7
420
 16777215
176
     1
 90
        1
176
     1
 90
        4
176
     1
 62
     7
176
     1
 62
   257
176
     1
 90
        1
176
     1
 90
        1
176
     1
 40
1.0
176
     1
 90
        8
176
     1
 62
     7
176
     1
 40
1.0
176
     1
 90
        1
176
     1
 90
        6
176
     1
 90
        2
176
     1
 62
     7
176
     1
 90
        5
176
     1
 90
        0
176
     1
 90
        0
176
     1
290
     0
176
     1
 90
        1
176
     1
 40
50.0
176
     1
 90
        0
176
     1
290
     0
176
     1
290
     1
176
     1
290
     1
176
     1
290
     0
176
     1
290
     0
176
     1
290
     0
176
     1
290
     0
176
     1
290
     0
176
     1
290
     0
176
     1
 90
       50
176
     1
 40
0.0
176
     1
 40
1.0
176
     1
 90
        0
176
     1
 62
   178
420
        0
176
     1
 90
       50
176
     1
 90
        3
176
     1
 62
     5
420
      255
176
     1
290
     0
176
     1
 90
       50
176
     1
 90
       50
176
     1
 90
       50
176
     1
290
     0
176
     1
 90
       50
176
     1
 62
   256
176
     0
 40
1.0
176
     0
 90
        2
176
     1
  1
strokes_ogs.tif
176
     1
290
     0
176
     1
 40
1.0
176
     1
 40
1.0
176
     1
  0
VISUALSTYLE
  5
1CE
102
{ACAD_REACTORS
330
1BE
102
}
330
1BE
100
AcDbVisualStyle
  2
ColorChange
 70
    16
177
     3
291
     1
 70
    58
 90
        2
176
     1
 90
        2
176
     1
 90
        3
176
     1
 90
        0
176
     1
 40
0.6
176
     1
 40
30.0
176
     1
 62
     8
420
  8421504
176
     1
 90
        1
176
     1
 90
        4
176
     1
 62
     7
176
     1
 62
   257
176
     1
 90
        1
176
     1
 90
        1
176
     1
 40
1.0
176
     1
 90
        8
176
     1
 62
     8
420
  8421504
176
     1
 40
1.0
176
     1
 90
        1
176
     1
 90
        6
176
     1
 90
        2
176
     1
 62
     7
176
     1
 90
        5
176
     1
 90
        0
176
     1
 90
        0
176
     1
290
     0
176
     1
 90
        1
176
     1
 40
0.0
176
     1
 90
        0
176
     1
290
     0
176
     1
290
     1
176
     1
290
     1
176
     1
290
     0
176
     1
290
     0
176
     1
290
     0
176
     1
290
     0
176
     1
290
     0
176
     1
290
     0
176
     1
 90
       50
176
     1
 40
0.0
176
     1
 40
1.0
176
     1
 90
        0
176
     1
 62
   178
420
        0
176
     1
 90
       50
176
     1
 90
        3
176
     1
 62
     5
420
      255
176
     1
290
     0
176
     1
 90
       50
176
     1
 90
       50
176
     1
 90
       50
176
     1
290
     0
176
     1
 90
       50
176
     1
 62
   256
176
     0
 40
1.0
176
     0
 90
        2
176
     1
  1
strokes_ogs.tif
176
     1
290
     0
176
     1
 40
1.0
176
     1
 40
1.0
176
     1
  0
VISUALSTYLE
  5
1C8
102
{ACAD_REACTORS
330
1BE
102
}
330
1BE
100
AcDbVisualStyle
  2
Conceptual
 70
     9
177
     3
291
     0
 70
    58
 90
        3
176
     1
 90
        2
176
     1
 90
        0
176
     1
 90
        0
176
     1
 40
0.6
176
     1
 40
30.0
176
     1
 62
     7
420
 16777215
176
     1
 90
        2
176
     1
 90
        2
176
     1
 62
     7
176
     1
 62
   257
176
     1
 90
        1
176
     1
 90
        1
176
     1
 40
179.0
176
     1
 90
        8
176
     1
 62
     7
176
     1
 40
1.0
176
     1
 90
        1
176
     1
 90
        6
176
     1
 90
        2
176
     1
 62
     7
176
     1
 90
        3
176
     1
 90
        0
176
     1
 90
        0
176
     1
290
     0
176
     1
 90
        1
176
     1
 40
0.0
176
     1
 90
        0
176
     1
290
     0
176
     1
290
     1
176
     1
290
     1
176
     1
290
     0
176
     1
290
     0
176
     1
290
     0
176
     1
290
     0
176
     1
290
     0
176
     1
290
     0
176
     1
 90
       50
176
     1
 40
0.0
176
     1
 40
1.0
176
     1
 90
        0
176
     1
 62
   178
420
        0
176
     1
 90
       50
176
     1
 90
        3
176
     1
 62
     5
420
      255
176
     1
290
     0
176
     1
 90
       50
176
     1
 90
       50
176
     1
 90
       50
176
     1
290
     0
176
     1
 90
       50
176
     1
 62
   256
176
     0
 40
1.0
176
     0
 90
        2
176
     1
  1
strokes_ogs.tif
176
     1
290
     0
176
     1
 40
1.0
176
     1
 40
1.0
176
     1
  0
VISUALSTYLE
  5
1C9
102
{ACAD_REACTORS
330
1BE
102
}
330
1BE
100
AcDbVisualStyle
  2
Dim
 70
    11
177
     3
291
     1
 70
    58
 90
        2
176
     1
 90
        2
176
     1
 90
        0
176
     1
 90
        0
176
     1
 40
0.6
176
     1
 40
30.0
176
     1
 62
     7
420
 16777215
176
     1
 90
        1
176
     1
 90
        4
176
     1
 62
     7
176
     1
 62
   257
176
     1
 90
        1
176
     1
 90
        1
176
     1
 40
1.0
176
     1
 90
        8
176
     1
 62
     7
176
     1
 40
1.0
176
     1
 90
        1
176
     1
 90
        6
176
     1
 90
        2
176
     1
 62
     7
176
     1
 90
        5
176
     1
 90
        0
176
     1
 90
        0
176
     1
290
     0
176
     1
 90
        1
176
     1
 40
-50.0
176
     1
 90
        0
176
     1
290
     0
176
     1
290
     1
176
     1
290
     1
176
     1
290
     0
176
     1
290
     0
176
     1
290
     0
176
     1
290
     0
176
     1
290
     0
176
     1
290
     0
176
     1
 90
       50
176
     1
 40
0.0
176
     1
 40
1.0
176
     1
 90
        0
176
     1
 62
   178
420
        0
176
     1
 90
       50
176
     1
 90
        3
176
     1
 62
     5
420
      255
176
     1
290
     0
176
     1
 90
       50
176
     1
 90
       50
176
     1
 90
       50
176
     1
290
     0
176
     1
 90
       50
176
     1
 62
   256
176
     0
 40
1.0
176
     0
 90
        2
176
     1
  1
strokes_ogs.tif
176
     1
290
     0
176
     1
 40
1.0
176
     1
 40
1.0
176
     1
  0
VISUALSTYLE
  5
1D1
102
{ACAD_REACTORS
330
1BE
102
}
330
1BE
100
AcDbVisualStyle
  2
EdgeColorOff
 70
    22
177
     3
291
     1
 70
    58
 90
        2
176
     0
 90
        2
176
     0
 90
        0
176
     0
 90
        0
176
     0
 40
0.6
176
     0
 40
30.0
176
     0
 62
     7
420
 16777215
176
     0
 90
        1
176
     0
 90
        4
176
     0
 62
     7
176
     0
 62
   257
176
     0
 90
        1
176
     0
 90
        1
176
     0
 40
1.0
176
     0
 90
        8
176
     2
 62
     7
176
     0
 40
1.0
176
     0
 90
        1
176
     0
 90
        6
176
     0
 90
        2
176
     0
 62
     7
176
     0
 90
        5
176
     0
 90
        0
176
     0
 90
        0
176
     0
290
     0
176
     0
 90
        1
176
     0
 40
0.0
176
     0
 90
        0
176
     0
290
     0
176
     0
290
     1
176
     0
290
     1
176
     0
290
     0
176
     0
290
     0
176
     0
290
     0
176
     0
290
     0
176
     0
290
     0
176
     0
290
     0
176
     0
 90
       50
176
     0
 40
0.0
176
     0
 40
1.0
176
     0
 90
        0
176
     0
 62
   178
420
        0
176
     0
 90
       50
176
     0
 90
        3
176
     0
 62
     5
420
      255
176
     0
290
     0
176
     0
 90
       50
176
     0
 90
       50
176
     0
 90
       50
176
     0
290
     0
176
     0
 90
       50
176
     0
 62
   256
176
     0
 40
1.0
176
     0
 90
        2
176
     0
  1
strokes_ogs.tif
176
     0
290
     0
176
     0
 40
1.0
176
     0
 40
1.0
176
     0
  0
VISUALSTYLE
  5
1CD
102
{ACAD_REACTORS
330
1BE
102
}
330
1BE
100
AcDbVisualStyle
  2
Facepattern
 70
    15
177
     3
291
     1
 70
    58
 90
        2
176
     1
 90
        2
176
     1
 90
        0
176
     1
 90
        0
176
     1
 40
0.6
176
     1
 40
30.0
176
     1
 62
     7
420
 16777215
176
     1
 90
        1
176
     1
 90
        4
176
     1
 62
     7
176
     1
 62
   257
176
     1
 90
        1
176
     1
 90
        1
176
     1
 40
1.0
176
     1
 90
        8
176
     1
 62
     7
176
     1
 40
1.0
176
     1
 90
        1
176
     1
 90
        6
176
     1
 90
        2
176
     1
 62
     7
176
     1
 90
        5
176
     1
 90
        0
176
     1
 90
        0
176
     1
290
     0
176
     1
 90
        1
176
     1
 40
0.0
176
     1
 90
        0
176
     1
290
     0
176
     1
290
     1
176
     1
290
     1
176
     1
290
     0
176
     1
290
     0
176
     1
290
     0
176
     1
290
     0
176
     1
290
     0
176
     1
290
     0
176
     1
 90
       50
176
     1
 40
0.0
176
     1
 40
1.0
176
     1
 90
        0
176
     1
 62
   178
420
        0
176
     1
 90
       50
176
     1
 90
        3
176
     1
 62
     5
420
      255
176
     1
290
     0
176
     1
 90
       50
176
     1
 90
       50
176
     1
 90
       50
176
     1
290
     0
176
     1
 90
       50
176
     1
 62
   256
176
     0
 40
1.0
176
     0
 90
        2
176
     1
  1
strokes_ogs.tif
176
     1
290
     0
176
     1
 40
1.0
176
     1
 40
1.0
176
     1
  0
VISUALSTYLE
  5
1BF
102
{ACAD_REACTORS
330
1BE
102
}
330
1BE
100
AcDbVisualStyle
  2
Flat
 70
     0
177
     3
291
     1
 70
    58
 90
        2
176
     1
 90
        1
176
     1
 90
        1
176
     1
 90
        2
176
     1
 40
0.6
176
     1
 40
30.0
176
     1
 62
     7
420
 16777215
176
     1
 90
        0
176
     1
 90
        0
176
     1
 62
     7
176
     1
 62
   257
176
     1
 90
        1
176
     1
 90
        1
176
     1
 40
1.0
176
     1
 90
        8
176
     1
 62
     7
176
     1
 40
1.0
176
     1
 90
        1
176
     1
 90
        6
176
     1
 90
        2
176
     1
 62
     7
176
     1
 90
        5
176
     1
 90
        0
176
     1
 90
        0
176
     1
290
     0
176
     1
 90
       13
176
     1
 40
0.0
176
     1
 90
        0
176
     1
290
     0
176
     1
290
     1
176
     1
290
     1
176
     1
290
     0
176
     1
290
     0
176
     1
290
     0
176
     1
290
     0
176
     1
290
     0
176
     1
290
     0
176
     1
 90
       50
176
     1
 40
0.0
176
     1
 40
1.0
176
     1
 90
        0
176
     1
 62
   178
420
        0
176
     1
 90
       50
176
     1
 90
        3
176
     1
 62
     5
420
      255
176
     1
290
     0
176
     1
 90
       50
176
     1
 90
       50
176
     1
 90
       50
176
     1
290
     0
176
     1
 90
       50
176
     1
 62
   256
176
     0
 40
1.0
176
     0
 90
        2
176
     1
  1
strokes_ogs.tif
176
     1
290
     0
176
     1
 40
1.0
176
     1
 40
1.0
176
     1
  0
VISUALSTYLE
  5
1C0
102
{ACAD_REACTORS
330
1BE
102
}
330
1BE
100
AcDbVisualStyle
  2
FlatWithEdges
 70
     1
177
     3
291
     1
 70
    58
 90
        2
176
     1
 90
        1
176
     1
 90
        1
176
     1
 90
        2
176
     1
 40
0.6
176
     1
 40
30.0
176
     1
 62
     7
420
 16777215
176
     1
 90
        1
176
     1
 90
        0
176
     1
 62
     7
176
     1
 62
   257
176
     1
 90
        1
176
     1
 90
        1
176
     1
 40
1.0
176
     1
 90
        0
176
     1
 62
   257
176
     1
 40
1.0
176
     1
 90
        1
176
     1
 90
        6
176
     1
 90
        2
176
     1
 62
     7
176
     1
 90
        5
176
     1
 90
        0
176
     1
 90
        0
176
     1
290
     0
176
     1
 90
       13
176
     1
 40
0.0
176
     1
 90
        0
176
     1
290
     0
176
     1
290
     1
176
     1
290
     1
176
     1
290
     0
176
     1
290
     0
176
     1
290
     0
176
     1
290
     0
176
     1
290
     0
176
     1
290
     0
176
     1
 90
       50
176
     1
 40
0.0
176
     1
 40
1.0
176
     1
 90
        0
176
     1
 62
   178
420
        0
176
     1
 90
       50
176
     1
 90
        3
176
     1
 62
     5
420
      255
176
     1
290
     0
176
     1
 90
       50
176
     1
 90
       50
176
     1
 90
       50
176
     1
290
     0
176
     1
 90
       50
176
     1
 62
   256
176
     0
 40
1.0
176
     0
 90
        2
176
     1
  1
strokes_ogs.tif
176
     1
290
     0
176
     1
 40
1.0
176
     1
 40
1.0
176
     1
  0
VISUALSTYLE
  5
1C1
102
{ACAD_REACTORS
330
1BE
102
}
330
1BE
100
AcDbVisualStyle
  2
Gouraud
 70
     2
177
     3
291
     1
 70
    58
 90
        2
176
     1
 90
        2
176
     1
 90
        1
176
     1
 90
        2
176
     1
 40
0.6
176
     1
 40
30.0
176
     1
 62
     7
420
 16777215
176
     1
 90
        0
176
     1
 90
        0
176
     1
 62
     7
176
     1
 62
   257
176
     1
 90
        1
176
     1
 90
        1
176
     1
 40
1.0
176
     1
 90
        0
176
     1
 62
     7
176
     1
 40
1.0
176
     1
 90
        1
176
     1
 90
        6
176
     1
 90
        2
176
     1
 62
     7
176
     1
 90
        5
176
     1
 90
        0
176
     1
 90
        0
176
     1
290
     0
176
     1
 90
       13
176
     1
 40
0.0
176
     1
 90
        0
176
     1
290
     0
176
     1
290
     1
176
     1
290
     1
176
     1
290
     0
176
     1
290
     0
176
     1
290
     0
176
     1
290
     0
176
     1
290
     0
176
     1
290
     0
176
     1
 90
       50
176
     1
 40
0.0
176
     1
 40
1.0
176
     1
 90
        0
176
     1
 62
   178
420
        0
176
     1
 90
       50
176
     1
 90
        3
176
     1
 62
     5
420
      255
176
     1
290
     0
176
     1
 90
       50
176
     1
 90
       50
176
     1
 90
       50
176
     1
290
     0
176
     1
 90
       50
176
     1
 62
   256
176
     0
 40
1.0
176
     0
 90
        2
176
     1
  1
strokes_ogs.tif
176
     1
290
     0
176
     1
 40
1.0
176
     1
 40
1.0
176
     1
  0
VISUALSTYLE
  5
1C2
102
{ACAD_REACTORS
330
1BE
102
}
330
1BE
100
AcDbVisualStyle
  2
GouraudWithEdges
 70
     3
177
     3
291
     1
 70
    58
 90
        2
176
     1
 90
        2
176
     1
 90
        1
176
     1
 90
        2
176
     1
 40
0.6
176
     1
 40
30.0
176
     1
 62
     7
420
 16777215
176
     1
 90
        1
176
     1
 90
        0
176
     1
 62
     7
176
     1
 62
   257
176
     1
 90
        1
176
     1
 90
        1
176
     1
 40
1.0
176
     1
 90
        0
176
     1
 62
   257
176
     1
 40
1.0
176
     1
 90
        1
176
     1
 90
        6
176
     1
 90
        2
176
     1
 62
     7
176
     1
 90
        5
176
     1
 90
        0
176
     1
 90
        0
176
     1
290
     0
176
     1
 90
       13
176
     1
 40
0.0
176
     1
 90
        0
176
     1
290
     0
176
     1
290
     1
176
     1
290
     1
176
     1
290
     0
176
     1
290
     0
176
     1
290
     0
176
     1
290
     0
176
     1
290
     0
176
     1
290
     0
176
     1
 90
       50
176
     1
 40
0.0
176
     1
 40
1.0
176
     1
 90
        0
176
     1
 62
   178
420
        0
176
     1
 90
       50
176
     1
 90
        3
176
     1
 62
     5
420
      255
176
     1
290
     0
176
     1
 90
       50
176
     1
 90
       50
176
     1
 90
       50
176
     1
290
     0
176
     1
 90
       50
176
     1
 62
   256
176
     0
 40
1.0
176
     0
 90
        2
176
     1
  1
strokes_ogs.tif
176
     1
290
     0
176
     1
 40
1.0
176
     1
 40
1.0
176
     1
  0
VISUALSTYLE
  5
1C5
102
{ACAD_REACTORS
330
1BE
102
}
330
1BE
100
AcDbVisualStyle
  2
Hidden
 70
     6
177
     3
291
     0
 70
    58
 90
        1
176
     1
 90
        2
176
     1
 90
        2
176
     1
 90
        0
176
     1
 40
0.6
176
     1
 40
30.0
176
     1
 62
     7
420
 16777215
176
     1
 90
        2
176
     1
 90
        2
176
     1
 62
     7
176
     1
 62
   257
176
     1
 90
        2
176
     1
 90
        1
176
     1
 40
40.0
176
     1
 90
        0
176
     1
 62
   257
176
     1
 40
1.0
176
     1
 90
        1
176
     1
 90
        6
176
     1
 90
        2
176
     1
 62
     7
176
     1
 90
        3
176
     1
 90
        0
176
     1
 90
        0
176
     1
290
     0
176
     1
 90
        1
176
     1
 40
0.0
176
     1
 90
        0
176
     1
290
     0
176
     1
290
     1
176
     1
290
     1
176
     1
290
     0
176
     1
290
     0
176
     1
290
     0
176
     1
290
     0
176
     1
290
     0
176
     1
290
     0
176
     1
 90
       50
176
     1
 40
0.0
176
     1
 40
1.0
176
     1
 90
        0
176
     1
 62
   178
420
        0
176
     1
 90
       50
176
     1
 90
        3
176
     1
 62
     5
420
      255
176
     1
290
     0
176
     1
 90
       50
176
     1
 90
       50
176
     1
 90
       50
176
     1
290
     0
176
     1
 90
       50
176
     1
 62
   256
176
     0
 40
1.0
176
     0
 90
        2
176
     1
  1
strokes_ogs.tif
176
     1
290
     0
176
     1
 40
1.0
176
     1
 40
1.0
176
     1
  0
VISUALSTYLE
  5
1CF
102
{ACAD_REACTORS
330
1BE
102
}
330
1BE
100
AcDbVisualStyle
  2
JitterOff
 70
    20
177
     3
291
     1
 70
    58
 90
        2
176
     0
 90
        2
176
     0
 90
        0
176
     0
 90
        0
176
     0
 40
0.6
176
     0
 40
30.0
176
     0
 62
     7
420
 16777215
176
     0
 90
        1
176
     0
 90
        4
176
     0
 62
     7
176
     0
 62
   257
176
     0
 90
        1
176
     0
 90
        1
176
     0
 40
1.0
176
     0
 90
       10
176
     2
 62
     7
176
     0
 40
1.0
176
     0
 90
        1
176
     0
 90
        6
176
     0
 90
        2
176
     0
 62
     7
176
     0
 90
        5
176
     0
 90
        0
176
     0
 90
        0
176
     0
290
     0
176
     0
 90
        1
176
     0
 40
0.0
176
     0
 90
        0
176
     0
290
     0
176
     0
290
     1
176
     0
290
     1
176
     0
290
     0
176
     0
290
     0
176
     0
290
     0
176
     0
290
     0
176
     0
290
     0
176
     0
290
     0
176
     0
 90
       50
176
     0
 40
0.0
176
     0
 40
1.0
176
     0
 90
        0
176
     0
 62
   178
420
        0
176
     0
 90
       50
176
     0
 90
        3
176
     0
 62
     5
420
      255
176
     0
290
     0
176
     0
 90
       50
176
     0
 90
       50
176
     0
 90
       50
176
     0
290
     0
176
     0
 90
       50
176
     0
 62
   256
176
     0
 40
1.0
176
     0
 90
        2
176
     0
  1
strokes_ogs.tif
176
     0
290
     0
176
     0
 40
1.0
176
     0
 40
1.0
176
     0
  0
VISUALSTYLE
  5
1CC
102
{ACAD_REACTORS
330
1BE
102
}
330
1BE
100
AcDbVisualStyle
  2
Linepattern
 70
    14
177
     3
291
     1
 70
    58
 90
        2
176
     1
 90
        2
176
     1
 90
        0
176
     1
 90
        0
176
     1
 40
0.6
176
     1
 40
30.0
176
     1
 62
     7
420
 16777215
176
     1
 90
        1
176
     1
 90
        4
176
     1
 62
     7
176
     1
 62
   257
176
     1
 90
        7
176
     1
 90
        7
176
     1
 40
1.0
176
     1
 90
        8
176
     1
 62
     7
176
     1
 40
1.0
176
     1
 90
        1
176
     1
 90
        6
176
     1
 90
        2
176
     1
 62
     7
176
     1
 90
        5
176
     1
 90
        0
176
     1
 90
        0
176
     1
290
     0
176
     1
 90
        1
176
     1
 40
0.0
176
     1
 90
        0
176
     1
290
     0
176
     1
290
     1
176
     1
290
     1
176
     1
290
     0
176
     1
290
     0
176
     1
290
     0
176
     1
290
     0
176
     1
290
     0
176
     1
290
     0
176
     1
 90
       50
176
     1
 40
0.0
176
     1
 40
1.0
176
     1
 90
        0
176
     1
 62
   178
420
        0
176
     1
 90
       50
176
     1
 90
        3
176
     1
 62
     5
420
      255
176
     1
290
     0
176
     1
 90
       50
176
     1
 90
       50
176
     1
 90
       50
176
     1
290
     0
176
     1
 90
       50
176
     1
 62
   256
176
     0
 40
1.0
176
     0
 90
        2
176
     1
  1
strokes_ogs.tif
176
     1
290
     0
176
     1
 40
1.0
176
     1
 40
1.0
176
     1
  0
VISUALSTYLE
  5
1D0
102
{ACAD_REACTORS
330
1BE
102
}
330
1BE
100
AcDbVisualStyle
  2
OverhangOff
 70
    21
177
     3
291
     1
 70
    58
 90
        2
176
     0
 90
        2
176
     0
 90
        0
176
     0
 90
        0
176
     0
 40
0.6
176
     0
 40
30.0
176
     0
 62
     7
420
 16777215
176
     0
 90
        1
176
     0
 90
        4
176
     0
 62
     7
176
     0
 62
   257
176
     0
 90
        1
176
     0
 90
        1
176
     0
 40
1.0
176
     0
 90
        9
176
     2
 62
     7
176
     0
 40
1.0
176
     0
 90
        1
176
     0
 90
        6
176
     0
 90
        2
176
     0
 62
     7
176
     0
 90
        5
176
     0
 90
        0
176
     0
 90
        0
176
     0
290
     0
176
     0
 90
        1
176
     0
 40
0.0
176
     0
 90
        0
176
     0
290
     0
176
     0
290
     1
176
     0
290
     1
176
     0
290
     0
176
     0
290
     0
176
     0
290
     0
176
     0
290
     0
176
     0
290
     0
176
     0
290
     0
176
     0
 90
       50
176
     0
 40
0.0
176
     0
 40
1.0
176
     0
 90
        0
176
     0
 62
   178
420
        0
176
     0
 90
       50
176
     0
 90
        3
176
     0
 62
     5
420
      255
176
     0
290
     0
176
     0
 90
       50
176
     0
 90
       50
176
     0
 90
       50
176
     0
290
     0
176
     0
 90
       50
176
     0
 62
   256
176
     0
 40
1.0
176
     0
 90
        2
176
     0
  1
strokes_ogs.tif
176
     0
290
     0
176
     0
 40
1.0
176
     0
 40
1.0
176
     0
  0
VISUALSTYLE
  5
1C7
102
{ACAD_REACTORS
330
1BE
102
}
330
1BE
100
AcDbVisualStyle
  2
Realistic
 70
     8
177
     3
291
     0
 70
    58
 90
        2
176
     1
 90
        3
176
     1
 90
        0
176
     1
 90
        2
176
     1
 40
0.6
176
     1
 40
30.0
176
     1
 62
     7
420
 16777215
176
     1
 90
        0
176
     1
 90
        0
176
     1
 62
     7
176
     1
 62
   257
176
     1
 90
        1
176
     1
 90
        1
176
     1
 40
1.0
176
     1
 90
        8
176
     1
 62
   257
176
     1
 40
1.0
176
     1
 90
        1
176
     1
 90
        6
176
     1
 90
        2
176
     1
 62
     7
176
     1
 90
        3
176
     1
 90
        0
176
     1
 90
        0
176
     1
290
     0
176
     1
 90
       13
176
     1
 40
0.0
176
     1
 90
        0
176
     1
290
     0
176
     1
290
     1
176
     1
290
     1
176
     1
290
     0
176
     1
290
     0
176
     1
290
     0
176
     1
290
     0
176
     1
290
     0
176
     1
290
     0
176
     1
 90
       50
176
     1
 40
0.0
176
     1
 40
1.0
176
     1
 90
        0
176
     1
 62
   178
420
        0
176
     1
 90
       50
176
     1
 90
        3
176
     1
 62
     5
420
      255
176
     1
290
     0
176
     1
 90
       50
176
     1
 90
       50
176
     1
 90
       50
176
     1
290
     0
176
     1
 90
       50
176
     1
 62
   256
176
     0
 40
1.0
176
     0
 90
        2
176
     1
  1
strokes_ogs.tif
176
     1
290
     0
176
     1
 40
1.0
176
     1
 40
1.0
176
     1
  0
VISUALSTYLE
  5
1D6
102
{ACAD_REACTORS
330
1BE
102
}
330
1BE
100
AcDbVisualStyle
  2
Shaded
 70
    27
177
     3
291
     0
 70
    58
 90
        2
176
     1
 90
        2
176
     1
 90
        1
176
     1
 90
        2
176
     1
 40
0.6
176
     1
 40
30.0
176
     1
 62
     7
420
 16777215
176
     1
 90
        0
176
     1
 90
        4
176
     1
 62
     7
176
     1
 62
   257
176
     1
 90
        1
176
     1
 90
        1
176
     1
 40
1.0
176
     1
 90
        8
176
     1
 62
   257
176
     1
 40
1.0
176
     1
 90
        1
176
     1
 90
        6
176
     1
 90
        2
176
     1
 62
     8
420
  7895160
176
     1
 90
        3
176
     1
 90
        0
176
     1
 90
        0
176
     1
290
     0
176
     1
 90
        5
176
     1
 40
0.0
176
     1
 90
        0
176
     1
290
     0
176
     1
290
     1
176
     1
290
     1
176
     1
290
     0
176
     1
290
     0
176
     1
290
     0
176
     1
290
     0
176
     1
290
     0
176
     1
290
     0
176
     1
 90
       50
176
     1
 40
0.0
176
     1
 40
1.0
176
     1
 90
        0
176
     1
 62
   178
420
        0
176
     1
 90
       50
176
     1
 90
        3
176
     1
 62
     5
420
      255
176
     1
290
     0
176
     1
 90
       50
176
     1
 90
       50
176
     1
 90
       50
176
     1
290
     0
176
     1
 90
       50
176
     1
 62
   256
176
     0
 40
1.0
176
     0
 90
        2
176
     1
  1
strokes_ogs.tif
176
     1
290
     0
176
     1
 40
1.0
176
     1
 40
1.0
176
     1
  0
VISUALSTYLE
  5
1D5
102
{ACAD_REACTORS
330
1BE
102
}
330
1BE
100
AcDbVisualStyle
  2
Shaded with edges
 70
    26
177
     3
291
     0
 70
    58
 90
        2
176
     1
 90
        2
176
     1
 90
        1
176
     1
 90
        2
176
     1
 40
0.6
176
     1
 40
30.0
176
     1
 62
     7
420
 16777215
176
     1
 90
        1
176
     1
 90
       10
176
     1
 62
     7
176
     1
 62
   257
176
     1
 90
        2
176
     1
 90
        1
176
     1
 40
1.0
176
     1
 90
        8
176
     1
 62
   257
176
     1
 40
1.0
176
     1
 90
        1
176
     1
 90
        6
176
     1
 90
        2
176
     1
 62
     7
176
     1
 90
        3
176
     1
 90
        0
176
     1
 90
        0
176
     1
290
     0
176
     1
 90
        5
176
     1
 40
0.0
176
     1
 90
        0
176
     1
290
     0
176
     1
290
     1
176
     1
290
     1
176
     1
290
     0
176
     1
290
     0
176
     1
290
     0
176
     1
290
     0
176
     1
290
     0
176
     1
290
     0
176
     1
 90
       50
176
     1
 40
0.0
176
     1
 40
1.0
176
     1
 90
        0
176
     1
 62
   178
420
        0
176
     1
 90
       50
176
     1
 90
        3
176
     1
 62
     5
420
      255
176
     1
290
     0
176
     1
 90
       50
176
     1
 90
       50
176
     1
 90
       50
176
     1
290
     0
176
     1
 90
       50
176
     1
 62
   256
176
     0
 40
1.0
176
     0
 90
        2
176
     1
  1
strokes_ogs.tif
176
     1
290
     0
176
     1
 40
1.0
176
     1
 40
1.0
176
     1
  0
VISUALSTYLE
  5
1D2
102
{ACAD_REACTORS
330
1BE
102
}
330
1BE
100
AcDbVisualStyle
  2
Shades of Gray
 70
    23
177
     3
291
     0
 70
    58
 90
        2
176
     1
 90
        2
176
     1
 90
        3
176
     1
 90
        0
176
     1
 40
0.6
176
     1
 40
30.0
176
     1
 62
     7
420
 16777215
176
     1
 90
        2
176
     1
 90
        2
176
     1
 62
     7
176
     1
 62
     7
176
     1
 90
        1
176
     1
 90
        1
176
     1
 40
40.0
176
     1
 90
        8
176
     1
 62
     7
176
     1
 40
1.0
176
     1
 90
        1
176
     1
 90
        6
176
     1
 90
        2
176
     1
 62
     7
176
     1
 90
        3
176
     1
 90
        0
176
     1
 90
        0
176
     1
290
     0
176
     1
 90
        1
176
     1
 40
0.0
176
     1
 90
        0
176
     1
290
     0
176
     1
290
     1
176
     1
290
     1
176
     1
290
     0
176
     1
290
     0
176
     1
290
     0
176
     1
290
     0
176
     1
290
     0
176
     1
290
     0
176
     1
 90
       50
176
     1
 40
0.0
176
     1
 40
1.0
176
     1
 90
        0
176
     1
 62
   178
420
        0
176
     1
 90
       50
176
     1
 90
        3
176
     1
 62
     5
420
      255
176
     1
290
     0
176
     1
 90
       50
176
     1
 90
       50
176
     1
 90
       50
176
     1
290
     0
176
     1
 90
       50
176
     1
 62
   256
176
     0
 40
1.0
176
     0
 90
        2
176
     1
  1
strokes_ogs.tif
176
     1
290
     0
176
     1
 40
1.0
176
     1
 40
1.0
176
     1
  0
VISUALSTYLE
  5
1D3
102
{ACAD_REACTORS
330
1BE
102
}
330
1BE
100
AcDbVisualStyle
  2
Sketchy
 70
    24
177
     3
291
     0
 70
    58
 90
        1
176
     1
 90
        2
176
     1
 90
        2
176
     1
 90
        0
176
     1
 40
0.6
176
     1
 40
30.0
176
     1
 62
     7
420
 16777215
176
     1
 90
        2
176
     1
 90
        2
176
     1
 62
     7
176
     1
 62
     7
176
     1
 90
        1
176
     1
 90
        1
176
     1
 40
40.0
176
     1
 90
       11
176
     1
 62
     7
176
     1
 40
1.0
176
     1
 90
        1
176
     1
 90
        6
176
     1
 90
        2
176
     1
 62
     7
176
     1
 90
        6
176
     1
 90
        0
176
     1
 90
        0
176
     1
290
     0
176
     1
 90
        1
176
     1
 40
0.0
176
     1
 90
        0
176
     1
290
     0
176
     1
290
     1
176
     1
290
     1
176
     1
290
     0
176
     1
290
     0
176
     1
290
     0
176
     1
290
     0
176
     1
290
     0
176
     1
290
     0
176
     1
 90
       50
176
     1
 40
0.0
176
     1
 40
1.0
176
     1
 90
        0
176
     1
 62
   178
420
        0
176
     1
 90
       50
176
     1
 90
        3
176
     1
 62
     5
420
      255
176
     1
290
     0
176
     1
 90
       50
176
     1
 90
       50
176
     1
 90
       50
176
     1
290
     0
176
     1
 90
       50
176
     1
 62
   256
176
     0
 40
1.0
176
     0
 90
        2
176
     1
  1
strokes_ogs.tif
176
     1
290
     0
176
     1
 40
1.0
176
     1
 40
1.0
176
     1
  0
VISUALSTYLE
  5
1CB
102
{ACAD_REACTORS
330
1BE
102
}
330
1BE
100
AcDbVisualStyle
  2
Thicken
 70
    13
177
     3
291
     1
 70
    58
 90
        2
176
     1
 90
        2
176
     1
 90
        0
176
     1
 90
        0
176
     1
 40
0.6
176
     1
 40
30.0
176
     1
 62
     7
420
 16777215
176
     1
 90
        1
176
     1
 90
        4
176
     1
 62
     7
176
     1
 62
   257
176
     1
 90
        1
176
     1
 90
        1
176
     1
 40
1.0
176
     1
 90
       12
176
     1
 62
     7
176
     1
 40
1.0
176
     1
 90
        1
176
     1
 90
        6
176
     1
 90
        2
176
     1
 62
     7
176
     1
 90
        5
176
     1
 90
        0
176
     1
 90
        0
176
     1
290
     0
176
     1
 90
        1
176
     1
 40
0.0
176
     1
 90
        0
176
     1
290
     0
176
     1
290
     1
176
     1
290
     1
176
     1
290
     0
176
     1
290
     0
176
     1
290
     0
176
     1
290
     0
176
     1
290
     0
176
     1
290
     0
176
     1
 90
       50
176
     1
 40
0.0
176
     1
 40
1.0
176
     1
 90
        0
176
     1
 62
   178
420
        0
176
     1
 90
       50
176
     1
 90
        3
176
     1
 62
     5
420
      255
176
     1
290
     0
176
     1
 90
       50
176
     1
 90
       50
176
     1
 90
       50
176
     1
290
     0
176
     1
 90
       50
176
     1
 62
   256
176
     0
 40
1.0
176
     0
 90
        2
176
     1
  1
strokes_ogs.tif
176
     1
290
     0
176
     1
 40
1.0
176
     1
 40
1.0
176
     1
  0
VISUALSTYLE
  5
1C4
102
{ACAD_REACTORS
330
1BE
102
}
330
1BE
100
AcDbVisualStyle
  2
Wireframe
 70
     5
177
     3
291
     0
 70
    58
 90
        0
176
     1
 90
        2
176
     1
 90
        0
176
     1
 90
        0
176
     1
 40
0.6
176
     1
 40
30.0
176
     1
 62
     7
420
 16777215
176
     1
 90
        1
176
     1
 90
        4
176
     1
 62
     7
176
     1
 62
   257
176
     1
 90
        1
176
     1
 90
        1
176
     1
 40
1.0
176
     1
 90
        0
176
     1
 62
   257
176
     1
 40
1.0
176
     1
 90
        1
176
     1
 90
        6
176
     1
 90
        2
176
     1
 62
     7
176
     1
 90
        3
176
     1
 90
        0
176
     1
 90
        0
176
     1
290
     0
176
     1
 90
        1
176
     1
 40
0.0
176
     1
 90
        0
176
     1
290
     0
176
     1
290
     1
176
     1
290
     1
176
     1
290
     0
176
     1
290
     0
176
     1
290
     0
176
     1
290
     0
176
     1
290
     0
176
     1
290
     0
176
     1
 90
       50
176
     1
 40
0.0
176
     1
 40
1.0
176
     1
 90
        0
176
     1
 62
   178
420
        0
176
     1
 90
       50
176
     1
 90
        3
176
     1
 62
     5
420
      255
176
     1
290
     0
176
     1
 90
       50
176
     1
 90
       50
176
     1
 90
       50
176
     1
290
     0
176
     1
 90
       50
176
     1
 62
   256
176
     0
 40
1.0
176
     0
 90
        2
176
     1
  1
strokes_ogs.tif
176
     1
290
     0
176
     1
 40
1.0
176
     1
 40
1.0
176
     1
  0
VISUALSTYLE
  5
1D4
102
{ACAD_REACTORS
330
1BE
102
}
330
1BE
100
AcDbVisualStyle
  2
X-Ray
 70
    25
177
     3
291
     0
 70
    58
 90
        2
176
     1
 90
        2
176
     1
 90
        1
176
     1
 90
        1
176
     1
 40
0.5
176
     1
 40
30.0
176
     1
 62
     7
420
 16777215
176
     1
 90
        1
176
     1
 90
        0
176
     1
 62
     7
176
     1
 62
   257
176
     1
 90
        1
176
     1
 90
        1
176
     1
 40
1.0
176
     1
 90
        8
176
     1
 62
     7
176
     1
 40
1.0
176
     1
 90
        1
176
     1
 90
        6
176
     1
 90
        2
176
     1
 62
     7
176
     1
 90
        3
176
     1
 90
        0
176
     1
 90
        0
176
     1
290
     0
176
     1
 90
       13
176
     1
 40
0.0
176
     1
 90
        0
176
     1
290
     0
176
     1
290
     1
176
     1
290
     1
176
     1
290
     0
176
     1
290
     0
176
     1
290
     0
176
     1
290
     0
176
     1
290
     0
176
     1
290
     0
176
     1
 90
       50
176
     1
 40
0.0
176
     1
 40
1.0
176
     1
 90
        0
176
     1
 62
   178
420
        0
176
     1
 90
       50
176
     1
 90
        3
176
     1
 62
     5
420
      255
176
     1
290
     0
176
     1
 90
       50
176
     1
 90
       50
176
     1
 90
       50
176
     1
290
     0
176
     1
 90
       50
176
     1
 62
   256
176
     0
 40
1.0
176
     0
 90
        2
176
     1
  1
strokes_ogs.tif
176
     1
290
     0
176
     1
 40
1.0
176
     1
 40
1.0
176
     1
  0
DICTIONARYVAR
  5
346
102
{ACAD_REACTORS
330
345
102
}
330
345
100
DictionaryVariables
280
     0
  1
1:1
  0
DICTIONARYVAR
  5
34B
102
{ACAD_REACTORS
330
345
102
}
330
345
100
DictionaryVariables
280
     0
  1
Standard
  0
DICTIONARYVAR
  5
34A
102
{ACAD_REACTORS
330
345
102
}
330
345
100
DictionaryVariables
280
     0
  1
Standard
  0
XRECORD
  5
205
102
{ACAD_REACTORS
330
203
102
}
330
203
100
AcDbXrecord
280
     1
 90
        0
  0
XRECORD
  5
206
102
{ACAD_REACTORS
330
203
102
}
330
203
100
AcDbXrecord
280
     1
 90
        0
  0
XRECORD
  5
207
102
{ACAD_REACTORS
330
203
102
}
330
203
100
AcDbXrecord
280
     1
1000

  0
XRECORD
  5
208
102
{ACAD_REACTORS
330
203
102
}
330
203
100
AcDbXrecord
280
     1
290
     1
  0
XRECORD
  5
209
102
{ACAD_REACTORS
330
203
102
}
330
203
100
AcDbXrecord
280
     1
 90
        2
  0
XRECORD
  5
20A
102
{ACAD_REACTORS
330
203
102
}
330
203
100
AcDbXrecord
280
     1
 90
        4
  0
XRECORD
  5
20B
102
{ACAD_REACTORS
330
203
102
}
330
203
100
AcDbXrecord
280
     1
290
     1
  0
XRECORD
  5
20C
102
{ACAD_REACTORS
330
203
102
}
330
203
100
AcDbXrecord
280
     1
290
     1
  0
XRECORD
  5
20D
102
{ACAD_REACTORS
330
203
102
}
330
203
100
AcDbXrecord
280
     1
290
     1
  0
XRECORD
  5
20E
102
{ACAD_REACTORS
330
203
102
}
330
203
100
AcDbXrecord
280
     1
290
     1
  0
XRECORD
  5
20F
102
{ACAD_REACTORS
330
203
102
}
330
203
100
AcDbXrecord
280
     1
1000
auto
  0
XRECORD
  5
210
102
{ACAD_REACTORS
330
203
102
}
330
203
100
AcDbXrecord
280
     1
1000
auto
  0
XRECORD
  5
211
102
{ACAD_REACTORS
330
203
102
}
330
203
100
AcDbXrecord
280
     1
1000
auto
  0
XRECORD
  5
212
102
{ACAD_REACTORS
330
203
102
}
330
203
100
AcDbXrecord
280
     1
1000
auto
  0
XRECORD
  5
213
102
{ACAD_REACTORS
330
203
102
}
330
203
100
AcDbXrecord
280
     1
1000
auto
  0
XRECORD
  5
214
102
{ACAD_REACTORS
330
203
102
}
330
203
100
AcDbXrecord
280
     1
1000
auto
  0
XRECORD
  5
215
102
{ACAD_REACTORS
330
203
102
}
330
203
100
AcDbXrecord
280
     1
1000
auto
  0
XRECORD
  5
216
102
{ACAD_REACTORS
330
203
102
}
330
203
100
AcDbXrecord
280
     1
1000
auto
  0
XRECORD
  5
217
102
{ACAD_REACTORS
330
203
102
}
330
203
100
AcDbXrecord
280
     1
290
     0
  0
XRECORD
  5
218
102
{ACAD_REACTORS
330
203
102
}
330
203
100
AcDbXrecord
280
     1
290
     0
  0
XRECORD
  5
219
102
{ACAD_REACTORS
330
203
102
}
330
203
100
AcDbXrecord
280
     1
290
     0
  0
XRECORD
  5
21A
102
{ACAD_REACTORS
330
203
102
}
330
203
100
AcDbXrecord
280
     1
290
     0
  0
XRECORD
  5
21B
102
{ACAD_REACTORS
330
203
102
}
330
203
100
AcDbXrecord
280
     1
 90
        0
  0
XRECORD
  5
21C
102
{ACAD_REACTORS
330
203
102
}
330
203
100
AcDbXrecord
280
     1
 90
        0
  0
XRECORD
  5
21D
102
{ACAD_REACTORS
330
203
102
}
330
203
100
AcDbXrecord
280
     1
 90
        0
  0
XRECORD
  5
21E
102
{ACAD_REACTORS
330
203
102
}
330
203
100
AcDbXrecord
280
     1
 90
        0
  0
XRECORD
  5
21F
102
{ACAD_REACTORS
330
203
102
}
330
203
100
AcDbXrecord
280
     1
1000
auto
  0
XRECORD
  5
220
102
{ACAD_REACTORS
330
203
102
}
330
203
100
AcDbXrecord
280
     1
1000
auto
  0
XRECORD
  5
221
102
{ACAD_REACTORS
330
203
102
}
330
203
100
AcDbXrecord
280
     1
1000
auto
  0
XRECORD
  5
222
102
{ACAD_REACTORS
330
203
102
}
330
203
100
AcDbXrecord
280
     1
1000
auto
  0
XRECORD
  5
223
102
{ACAD_REACTORS
330
203
102
}
330
203
100
AcDbXrecord
280
     1
1000
auto
  0
XRECORD
  5
224
102
{ACAD_REACTORS
330
203
102
}
330
203
100
AcDbXrecord
280
     1
1000
auto
  0
XRECORD
  5
225
102
{ACAD_REACTORS
330
203
102
}
330
203
100
AcDbXrecord
280
     1
1000
auto
  0
XRECORD
  5
226
102
{ACAD_REACTORS
330
203
102
}
330
203
100
AcDbXrecord
280
     1
1000
auto
  0
XRECORD
  5
227
102
{ACAD_REACTORS
330
203
102
}
330
203
100
AcDbXrecord
280
     1
 90
        1
  0
XRECORD
  5
228
102
{ACAD_REACTORS
330
203
102
}
330
203
100
AcDbXrecord
280
     1
 40
10.0
  0
XRECORD
  5
229
102
{ACAD_REACTORS
330
203
102
}
330
203
100
AcDbXrecord
280
     1
 40
10.0
  0
XRECORD
  5
22A
102
{ACAD_REACTORS
330
203
102
}
330
203
100
AcDbXrecord
280
     1
 40
10.0
  0
XRECORD
  5
22B
102
{ACAD_REACTORS
330
203
102
}
330
203
100
AcDbXrecord
280
     1
 40
10.0
  0
XRECORD
  5
22C
102
{ACAD_REACTORS
330
203
102
}
330
203
100
AcDbXrecord
280
     1
290
     0
  0
XRECORD
  5
22D
102
{ACAD_REACTORS
330
203
102
}
330
203
100
AcDbXrecord
280
     1
 90
        1
  0
XRECORD
  5
22E
102
{ACAD_REACTORS
330
203
102
}
330
203
100
AcDbXrecord
280
     1
 40
0.0
  0
XRECORD
  5
22F
102
{ACAD_REACTORS
330
203
102
}
330
203
100
AcDbXrecord
280
     1
 40
0.0
  0
XRECORD
  5
230
102
{ACAD_REACTORS
330
203
102
}
330
203
100
AcDbXrecord
280
     1
1000
Portrait
  0
XRECORD
  5
231
102
{ACAD_REACTORS
330
203
102
}
330
203
100
AcDbXrecord
280
     1
 40
297.0
  0
XRECORD
  5
232
102
{ACAD_REACTORS
330
203
102
}
330
203
100
AcDbXrecord
280
     1
 40
210.0
  0
XRECORD
  5
233
102
{ACAD_REACTORS
330
203
102
}
330
203
100
AcDbXrecord
280
     1
1000
1:1
  0
XRECORD
  5
234
102
{ACAD_REACTORS
330
203
102
}
330
203
100
AcDbXrecord
280
     1
290
     1
  0
XRECORD
  5
235
102
{ACAD_REACTORS
330
203
102
}
330
203
100
AcDbXrecord
280
     1
1000
3.9.1
  0
XRECORD
  5
236
102
{ACAD_REACTORS
330
203
102
}
330
203
100
AcDbXrecord
280
     1
 90
        4
  0
DICTIONARY
  5
347
330
1FE
100
AcDbDictionary
280
     1
281
     1
  3
ACAD_ROUNDTRIP_2008_TABLESTYLE_CELLSTYLEMAP
360
348
  0
CELLSTYLEMAP
  5
348
102
{ACAD_REACTORS
330
347
102
}
330
347
100
AcDbCellStyleMap
 90
        3
300
CELLSTYLE
  1
TABLEFORMAT_BEGIN
 90
        5
170
     1
 91
        0
 92
    32768
 62
   257
 93
        1
300
CONTENTFORMAT
  1
CONTENTFORMAT_BEGIN
 90
        0
 91
        0
 92
        4
 93
        0
300

 40
0.0
140
1.0
 94
        5
 62
     0
340
1A6
144
0.25
309
CONTENTFORMAT_END
171
     1
301
MARGIN
  1
CELLMARGIN_BEGIN
 40
0.06
 40
0.06
 40
0.06
 40
0.06
 40
0.06
 40
0.06
309
CELLMARGIN_END
 94
        6
 95
        1
302
GRIDFORMAT
  1
GRIDFORMAT_BEGIN
 90
        0
 91
        1
 62
     0
 92
       -2
340
1A8
 93
        0
 40
0.045
309
GRIDFORMAT_END
 95
        2
302
GRIDFORMAT
  1
GRIDFORMAT_BEGIN
 90
        0
 91
        1
 62
     0
 92
       -2
340
1A8
 93
        0
 40
0.045
309
GRIDFORMAT_END
 95
        4
302
GRIDFORMAT
  1
GRIDFORMAT_BEGIN
 90
        0
 91
        1
 62
     0
 92
       -2
340
1A8
 93
        0
 40
0.045
309
GRIDFORMAT_END
 95
        8
302
GRIDFORMAT
  1
GRIDFORMAT_BEGIN
 90
        0
 91
        1
 62
     0
 92
       -2
340
1A8
 93
        0
 40
0.045
309
GRIDFORMAT_END
 95
       16
302
GRIDFORMAT
  1
GRIDFORMAT_BEGIN
 90
        0
 91
        1
 62
     0
 92
       -2
340
1A8
 93
        0
 40
0.045
309
GRIDFORMAT_END
 95
       32
302
GRIDFORMAT
  1
GRIDFORMAT_BEGIN
 90
        0
 91
        1
 62
     0
 92
       -2
340
1A8
 93
        0
 40
0.045
309
GRIDFORMAT_END
309
TABLEFORMAT_END
  1
CELLSTYLE_BEGIN
 90
        1
 91
        1
300
_TITLE
309
CELLSTYLE_END
300
CELLSTYLE
  1
TABLEFORMAT_BEGIN
 90
        5
170
     1
 91
        0
 92
        0
 62
   257
 93
        1
300
CONTENTFORMAT
  1
CONTENTFORMAT_BEGIN
 90
        0
 91
        0
 92
        4
 93
        0
300

 40
0.0
140
1.0
 94
        5
 62
     0
340
1A6
144
0.18
309
CONTENTFORMAT_END
171
     1
301
MARGIN
  1
CELLMARGIN_BEGIN
 40
0.06
 40
0.06
 40
0.06
 40
0.06
 40
0.06
 40
0.06
309
CELLMARGIN_END
 94
        6
 95
        1
302
GRIDFORMAT
  1
GRIDFORMAT_BEGIN
 90
        0
 91
        1
 62
     0
 92
       -2
340
1A8
 93
        0
 40
0.045
309
GRIDFORMAT_END
 95
        2
302
GRIDFORMAT
  1
GRIDFORMAT_BEGIN
 90
        0
 91
        1
 62
     0
 92
       -2
340
1A8
 93
        0
 40
0.045
309
GRIDFORMAT_END
 95
        4
302
GRIDFORMAT
  1
GRIDFORMAT_BEGIN
 90
        0
 91
        1
 62
     0
 92
       -2
340
1A8
 93
        0
 40
0.045
309
GRIDFORMAT_END
 95
        8
302
GRIDFORMAT
  1
GRIDFORMAT_BEGIN
 90
        0
 91
        1
 62
     0
 92
       -2
340
1A8
 93
        0
 40
0.045
309
GRIDFORMAT_END
 95
       16
302
GRIDFORMAT
  1
GRIDFORMAT_BEGIN
 90
        0
 91
        1
 62
     0
 92
       -2
340
1A8
 93
        0
 40
0.045
309
GRIDFORMAT_END
 95
       32
302
GRIDFORMAT
  1
GRIDFORMAT_BEGIN
 90
        0
 91
        1
 62
     0
 92
       -2
340
1A8
 93
        0
 40
0.045
309
GRIDFORMAT_END
309
TABLEFORMAT_END
  1
CELLSTYLE_BEGIN
 90
        2
 91
        1
300
_HEADER
309
CELLSTYLE_END
300
CELLSTYLE
  1
TABLEFORMAT_BEGIN
 90
        5
170
     1
 91
        0
 92
        0
 62
   257
 93
        1
300
CONTENTFORMAT
  1
CONTENTFORMAT_BEGIN
 90
        0
 91
        0
 92
        4
 93
        0
300

 40
0.0
140
1.0
 94
        2
 62
     0
340
1A6
144
0.18
309
CONTENTFORMAT_END
171
     1
301
MARGIN
  1
CELLMARGIN_BEGIN
 40
0.06
 40
0.06
 40
0.06
 40
0.06
 40
0.06
 40
0.06
309
CELLMARGIN_END
 94
        6
 95
        1
302
GRIDFORMAT
  1
GRIDFORMAT_BEGIN
 90
        0
 91
        1
 62
     0
 92
       -2
340
1A8
 93
        0
 40
0.045
309
GRIDFORMAT_END
 95
        2
302
GRIDFORMAT
  1
GRIDFORMAT_BEGIN
 90
        0
 91
        1
 62
     0
 92
       -2
340
1A8
 93
        0
 40
0.045
309
GRIDFORMAT_END
 95
        4
302
GRIDFORMAT
  1
GRIDFORMAT_BEGIN
 90
        0
 91
        1
 62
     0
 92
       -2
340
1A8
 93
        0
 40
0.045
309
GRIDFORMAT_END
 95
        8
302
GRIDFORMAT
  1
GRIDFORMAT_BEGIN
 90
        0
 91
        1
 62
     0
 92
       -2
340
1A8
 93
        0
 40
0.045
309
GRIDFORMAT_END
 95
       16
302
GRIDFORMAT
  1
GRIDFORMAT_BEGIN
 90
        0
 91
        1
 62
     0
 92
       -2
340
1A8
 93
        0
 40
0.045
309
GRIDFORMAT_END
 95
       32
302
GRIDFORMAT
  1
GRIDFORMAT_BEGIN
 90
        0
 91
        1
 62
     0
 92
       -2
340
1A8
 93
        0
 40
0.045
309
GRIDFORMAT_END
309
TABLEFORMAT_END
  1
CELLSTYLE_BEGIN
 90
        3
 91
        2
300
_DATA
309
CELLSTYLE_END
  0
ENDSEC
  0
EOF
