  0
SECTION
  2
HEADER
  9
$ACADVER
  1
AC1027
  9
$ACADMAINTVER
 70
     8
  9
$DWGCODEPAGE
  3
ANSI_1252
  9
$REQUIREDVERSIONS
160
                 0
  9
$INSBASE
 10
0.0
 20
0.0
 30
0.0
  9
$EXTMIN
 10
1.000000000000000E+20
 20
1.000000000000000E+20
 30
1.000000000000000E+20
  9
$EXTMAX
 10
-1.000000000000000E+20
 20
-1.000000000000000E+20
 30
-1.000000000000000E+20
  9
$LIMMIN
 10
0.0
 20
0.0
  9
$LIMMAX
 10
12.0
 20
9.0
  9
$ORTHOMODE
 70
     0
  9
$REGENMODE
 70
     1
  9
$FILLMODE
 70
     1
  9
$QTEXTMODE
 70
     0
  9
$MIRRTEXT
 70
     1
  9
$LTSCALE
 40
1.0
  9
$ATTMODE
 70
     1
  9
$TEXTSIZE
 40
0.2
  9
$TRACEWID
 40
0.05
  9
$TEXTSTYLE
  7
Standard
  9
$CLAYER
  8
0
  9
$CELTYPE
  6
ByLayer
  9
$CECOLOR
 62
   178
  9
$CELTSCALE
 40
1.0
  9
$DISPSILH
 70
     0
  9
$DIMSCALE
 40
1.0
  9
$DIMASZ
 40
20.0
  9
$DIMEXO
 40
5.0
  9
$DIMDLI
 40
0.38
  9
$DIMRND
 40
0.0
  9
$DIMDLE
 40
0.0
  9
$DIMEXE
 40
10.0
  9
$DIMTP
 40
0.0
  9
$DIMTM
 40
0.0
  9
$DIMTXT
 40
20.0
  9
$DIMCEN
 40
0.09
  9
$DIMTSZ
 40
20.0
  9
$DIMTOL
 70
     0
  9
$DIMLIM
 70
     0
  9
$DIMTIH
 70
     1
  9
$DIMTOH
 70
     1
  9
$DIMSE1
 70
     0
  9
$DIMSE2
 70
     0
  9
$DIMTAD
 70
     0
  9
$DIMZIN
 70
     8
  9
$DIMBLK
  1

  9
$DIMASO
 70
     1
  9
$DIMSHO
 70
     1
  9
$DIMPOST
  1

  9
$DIMAPOST
  1

  9
$DIMALT
 70
     0
  9
$DIMALTD
 70
     2
  9
$DIMALTF
 40
25.4
  9
$DIMLFAC
 40
1.0
  9
$DIMTOFL
 70
     0
  9
$DIMTVP
 40
0.0
  9
$DIMTIX
 70
     0
  9
$DIMSOXD
 70
     0
  9
$DIMSAH
 70
     0
  9
$DIMBLK1
  1

  9
$DIMBLK2
  1

  9
$DIMSTYLE
  2
Standard
  9
$DIMCLRD
 70
   178
  9
$DIMCLRE
 70
   178
  9
$DIMCLRT
 70
   178
  9
$DIMTFAC
 40
1.0
  9
$DIMGAP
 40
5.0
  9
$DIMJUST
 70
     0
  9
$DIMSD1
 70
     0
  9
$DIMSD2
 70
     0
  9
$DIMTOLJ
 70
     1
  9
$DIMTZIN
 70
     0
  9
$DIMALTZ
 70
     0
  9
$DIMALTTZ
 70
     0
  9
$DIMUPT
 70
     0
  9
$DIMDEC
 70
     4
  9
$DIMTDEC
 70
     4
  9
$DIMALTU
 70
     2
  9
$DIMALTTD
 70
     2
  9
$DIMTXSTY
  7
Standard
  9
$DIMAUNIT
 70
     0
  9
$DIMADEC
 70
     0
  9
$DIMALTRND
 40
0.0
  9
$DIMAZIN
 70
     2
  9
$DIMDSEP
 70
    46
  9
$DIMATFIT
 70
     3
  9
$DIMFRAC
 70
     0
  9
$DIMLDRBLK
  1

  9
$DIMLUNIT
 70
     2
  9
$DIMLWD
 70
    -2
  9
$DIMLWE
 70
    -2
  9
$DIMTMOVE
 70
     0
  9
$DIMFXL
 40
1.0
  9
$DIMFXLON
 70
     0
  9
$DIMJOGANG
 40
0.7853981633974483
  9
$DIMTFILL
 70
     0
  9
$DIMTFILLCLR
 70
     0
  9
$DIMARCSYM
 70
     0
  9
$DIMLTYPE
  6

  9
$DIMLTEX1
  6

  9
$DIMLTEX2
  6

  9
$DIMTXTDIRECTION
 70
     0
  9
$LUNITS
 70
     2
  9
$LUPREC
 70
     4
  9
$SKETCHINC
 40
0.1
  9
$FILLETRAD
 40
0.5
  9
$AUNITS
 70
     0
  9
$AUPREC
 70
     0
  9
$MENU
  1
.
  9
$ELEVATION
 40
0.0
  9
$PELEVATION
 40
0.0
  9
$THICKNESS
 40
0.0
  9
$LIMCHECK
 70
     0
  9
$CHAMFERA
 40
0.0
  9
$CHAMFERB
 40
0.0
  9
$CHAMFERC
 40
0.0
  9
$CHAMFERD
 40
0.0
  9
$SKPOLY
 70
     0
  9
$TDCREATE
 40
2459458.511018518
  9
$TDUCREATE
 40
2459458.469351852
  9
$TDUPDATE
 40
2459458.511018518
  9
$TDUUPDATE
 40
2459458.469351852
  9
$TDINDWG
 40
0.0000000116
  9
$TDUSRTIMER
 40
0.0000000116
  9
$USRTIMER
 70
     1
  9
$ANGBASE
 50
0.0
  9
$ANGDIR
 70
     0
  9
$PDMODE
 70
     0
  9
$PDSIZE
 40
0.0
  9
$PLINEWID
 40
0.0
  9
$SPLFRAME
 70
     0
  9
$SPLINETYPE
 70
     6
  9
$SPLINESEGS
 70
     8
  9
$HANDSEED
  5
34E
  9
$SURFTAB1
 70
     6
  9
$SURFTAB2
 70
     6
  9
$SURFTYPE
 70
     6
  9
$SURFU
 70
     6
  9
$SURFV
 70
     6
  9
$UCSBASE
  2

  9
$UCSNAME
  2

  9
$UCSORG
 10
0.0
 20
0.0
 30
0.0
  9
$UCSXDIR
 10
1.0
 20
0.0
 30
0.0
  9
$UCSYDIR
 10
0.0
 20
1.0
 30
0.0
  9
$UCSORTHOREF
  2

  9
$UCSORTHOVIEW
 70
     0
  9
$UCSORGTOP
 10
0.0
 20
0.0
 30
0.0
  9
$UCSORGBOTTOM
 10
0.0
 20
0.0
 30
0.0
  9
$UCSORGLEFT
 10
0.0
 20
0.0
 30
0.0
  9
$UCSORGRIGHT
 10
0.0
 20
0.0
 30
0.0
  9
$UCSORGFRONT
 10
0.0
 20
0.0
 30
0.0
  9
$UCSORGBACK
 10
0.0
 20
0.0
 30
0.0
  9
$PUCSBASE
  2

  9
$PUCSNAME
  2

  9
$PUCSORG
 10
0.0
 20
0.0
 30
0.0
  9
$PUCSXDIR
 10
1.0
 20
0.0
 30
0.0
  9
$PUCSYDIR
 10
0.0
 20
1.0
 30
0.0
  9
$PUCSORTHOREF
  2

  9
$PUCSORTHOVIEW
 70
     0
  9
$PUCSORGTOP
 10
0.0
 20
0.0
 30
0.0
  9
$PUCSORGBOTTOM
 10
0.0
 20
0.0
 30
0.0
  9
$PUCSORGLEFT
 10
0.0
 20
0.0
 30
0.0
  9
$PUCSORGRIGHT
 10
0.0
 20
0.0
 30
0.0
  9
$PUCSORGFRONT
 10
0.0
 20
0.0
 30
0.0
  9
$PUCSORGBACK
 10
0.0
 20
0.0
 30
0.0
  9
$USERI1
 70
     0
  9
$USERI2
 70
     0
  9
$USERI3
 70
     0
  9
$USERI4
 70
     0
  9
$USERI5
 70
     0
  9
$USERR1
 40
0.0
  9
$USERR2
 40
0.0
  9
$USERR3
 40
0.0
  9
$USERR4
 40
0.0
  9
$USERR5
 40
0.0
  9
$WORLDVIEW
 70
     1
  9
$SHADEDGE
 70
     3
  9
$SHADEDIF
 70
    70
  9
$TILEMODE
 70
     1
  9
$MAXACTVP
 70
     2
  9
$PINSBASE
 10
0.0
 20
0.0
 30
0.0
  9
$PLIMCHECK
 70
     0
  9
$PEXTMIN
 10
1.000000000000000E+20
 20
1.000000000000000E+20
 30
1.000000000000000E+20
  9
$PEXTMAX
 10
-1.000000000000000E+20
 20
-1.000000000000000E+20
 30
-1.000000000000000E+20
  9
$PLIMMIN
 10
0.0
 20
0.0
  9
$PLIMMAX
 10
12.0
 20
9.0
  9
$UNITMODE
 70
     0
  9
$VISRETAIN
 70
     1
  9
$PLINEGEN
 70
     0
  9
$PSLTSCALE
 70
     1
  9
$TREEDEPTH
 70
  3020
  9
$CMLSTYLE
  2
Standard
  9
$CMLJUST
 70
     0
  9
$CMLSCALE
 40
1.0
  9
$PROXYGRAPHICS
 70
     1
  9
$MEASUREMENT
 70
     1
  9
$CELWEIGHT
370
    -1
  9
$ENDCAPS
280
     0
  9
$JOINSTYLE
280
     0
  9
$LWDISPLAY
290
     0
  9
$INSUNITS
 70
     4
  9
$HYPERLINKBASE
  1

  9
$STYLESHEET
  1

  9
$XEDIT
290
     1
  9
$CEPSNTYPE
380
     0
  9
$PSTYLEMODE
290
     1
  9
$FINGERPRINTGUID
  2
{D93A9EF3-379A-5FDF-C200-8BA19FE6DAFC}
  9
$VERSIONGUID
  2
{FAEB1C32-E019-11D5-929B-00C0DF256EC4}
  9
$EXTNAMES
290
     1
  9
$PSVPSCALE
 40
0.0
  9
$OLESTARTUP
290
     0
  9
$SORTENTS
280
   127
  9
$INDEXCTL
280
     0
  9
$HIDETEXT
280
     1
  9
$XCLIPFRAME
280
     2
  9
$HALOGAP
280
     0
  9
$OBSCOLOR
 70
   257
  9
$OBSLTYPE
280
     0
  9
$INTERSECTIONDISPLAY
280
     0
  9
$INTERSECTIONCOLOR
 70
   257
  9
$DIMASSOC
280
     2
  9
$PROJECTNAME
  1

  9
$CAMERADISPLAY
290
     0
  9
$LENSLENGTH
 40
50.0
  9
$CAMERAHEIGHT
 40
0.0
  9
$STEPSPERSEC
 40
2.0
  9
$STEPSIZE
 40
6.0
  9
$3DDWFPREC
 40
2.0
  9
$PSOLWIDTH
 40
0.25
  9
$PSOLHEIGHT
 40
4.0
  9
$LOFTANG1
 40
1.570796326794897
  9
$LOFTANG2
 40
1.570796326794897
  9
$LOFTMAG1
 40
0.0
  9
$LOFTMAG2
 40
0.0
  9
$LOFTPARAM
 70
     7
  9
$LOFTNORMALS
280
     1
  9
$LATITUDE
 40
37.795
  9
$LONGITUDE
 40
-122.394
  9
$NORTHDIRECTION
 40
0.0
  9
$TIMEZONE
 70
 -8000
  9
$LIGHTGLYPHDISPLAY
280
     1
  9
$TILEMODELIGHTSYNCH
280
     1
  9
$CMATERIAL
347
1D8
  9
$SOLIDHIST
280
     0
  9
$SHOWHIST
280
     1
  9
$DWFFRAME
280
     2
  9
$DGNFRAME
280
     2
  9
$REALWORLDSCALE
290
     1
  9
$INTERFERECOLOR
 62
   256
  9
$CSHADOW
280
     0
  9
$SHADOWPLANELOCATION
 40
0.0
  0
ENDSEC
  0
SECTION
  2
CLASSES
  0
CLASS
  1
ACDBDICTIONARYWDFLT
  2
AcDbDictionaryWithDefault
  3
ObjectDBX Classes
 90
        0
 91
        4
280
     0
281
     0
  0
CLASS
  1
VISUALSTYLE
  2
AcDbVisualStyle
  3
ObjectDBX Classes
 90
     4095
 91
        4
280
     0
281
     0
  0
CLASS
  1
MATERIAL
  2
AcDbMaterial
  3
ObjectDBX Classes
 90
     1153
 91
        4
280
     0
281
     0
  0
CLASS
  1
SCALE
  2
AcDbScale
  3
ObjectDBX Classes
 90
     1153
 91
        4
280
     0
281
     0
  0
CLASS
  1
TABLESTYLE
  2
AcDbTableStyle
  3
ObjectDBX Classes
 90
     4095
 91
        4
280
     0
281
     0
  0
CLASS
  1
MLEADERSTYLE
  2
AcDbMLeaderStyle
  3
ACDB_MLEADERSTYLE_CLASS
 90
     4095
 91
        4
280
     0
281
     0
  0
CLASS
  1
SUN
  2
AcDbSun
  3
SCENEOE
 90
     1153
 91
        4
280
     0
281
     0
  0
CLASS
  1
DICTIONARYVAR
  2
AcDbDictionaryVar
  3
ObjectDBX Classes
 90
        0
 91
        4
280
     0
281
     0
  0
CLASS
  1
CELLSTYLEMAP
  2
AcDbCellStyleMap
  3
ObjectDBX Classes
 90
     1152
 91
        4
280
     0
281
     0
  0
ENDSEC
  0
SECTION
  2
TABLES
  0
TABLE
  2
VPORT
  5
19D
330
0
100
AcDbSymbolTable
 70
     1
  0
VPORT
  5
1BD
330
19D
100
AcDbSymbolTableRecord
100
AcDbViewportTableRecord
  2
*Active
 70
     0
 10
0.0
 20
0.0
 11
1.0
 21
1.0
 12
10.42990654205607
 22
4.5
 13
0.0
 23
0.0
 14
0.5
 24
0.5
 15
0.5
 25
0.5
 16
0.0
 26
0.0
 36
1.0
 17
0.0
 27
0.0
 37
0.0
 40
9.0
 41
1.972972972850329
 42
50.0
 43
0.0
 44
0.0
 50
0.0
 51
0.0
 71
     0
 72
   100
 73
     1
 74
     3
 75
     0
 76
     0
 77
     0
 78
     0
281
     0
 65
     1
110
0.0
120
0.0
130
0.0
111
1.0
121
0.0
131
0.0
112
0.0
122
1.0
132
0.0
 79
     0
146
0.0
 60
     3
 61
     5
292
     1
282
     1
141
0.0
142
0.0
 63
   250
361
201
  0
ENDTAB
  0
TABLE
  2
LTYPE
  5
19A
330
0
100
AcDbSymbolTable
 70
    48
  0
LTYPE
  5
1A8
330
19A
100
AcDbSymbolTableRecord
100
AcDbLinetypeTableRecord
  2
ByBlock
 70
     0
  3

 72
    65
 73
     0
 40
0.0
  0
LTYPE
  5
1A9
330
19A
100
AcDbSymbolTableRecord
100
AcDbLinetypeTableRecord
  2
ByLayer
 70
     0
  3

 72
    65
 73
     0
 40
0.0
  0
LTYPE
  5
1AA
330
19A
100
AcDbSymbolTableRecord
100
AcDbLinetypeTableRecord
  2
Continuous
 70
     0
  3
Solid line
 72
    65
 73
     0
 40
0.0
  0
LTYPE
  5
239
330
19A
100
AcDbSymbolTableRecord
100
AcDbLinetypeTableRecord
  2
ACAD_ISO02W100
 70
     0
  3
ISO dash __ __ __ __ __ __ __ __ __ __ __ __ __
 72
    65
 73
     2
 40
15.0
 49
12.0
 74
     0
 49
-3.0
 74
     0
  0
LTYPE
  5
23A
330
19A
100
AcDbSymbolTableRecord
100
AcDbLinetypeTableRecord
  2
ACAD_ISO03W100
 70
     0
  3
ISO dash space __    __    __    __    __    __
 72
    65
 73
     2
 40
30.0
 49
12.0
 74
     0
 49
-18.0
 74
     0
  0
LTYPE
  5
23B
330
19A
100
AcDbSymbolTableRecord
100
AcDbLinetypeTableRecord
  2
ACAD_ISO04W100
 70
     0
  3
ISO long-dash dot ____ . ____ . ____ . ____ . _
 72
    65
 73
     4
 40
30.0
 49
24.0
 74
     0
 49
-3.0
 74
     0
 49
0.0
 74
     0
 49
-3.0
 74
     0
  0
LTYPE
  5
23C
330
19A
100
AcDbSymbolTableRecord
100
AcDbLinetypeTableRecord
  2
ACAD_ISO05W100
 70
     0
  3
ISO long-dash double-dot ____ .. ____ .. ____ . 
 72
    65
 73
     6
 40
33.0
 49
24.0
 74
     0
 49
-3.0
 74
     0
 49
0.0
 74
     0
 49
-3.0
 74
     0
 49
0.0
 74
     0
 49
-3.0
 74
     0
  0
LTYPE
  5
23D
330
19A
100
AcDbSymbolTableRecord
100
AcDbLinetypeTableRecord
  2
ACAD_ISO06W100
 70
     0
  3
ISO long-dash triple-dot ____ ... ____ ... ____
 72
    65
 73
     8
 40
36.0
 49
24.0
 74
     0
 49
-3.0
 74
     0
 49
0.0
 74
     0
 49
-3.0
 74
     0
 49
0.0
 74
     0
 49
-3.0
 74
     0
 49
0.0
 74
     0
 49
-3.0
 74
     0
  0
LTYPE
  5
23E
330
19A
100
AcDbSymbolTableRecord
100
AcDbLinetypeTableRecord
  2
ACAD_ISO07W100
 70
     0
  3
ISO dot . . . . . . . . . . . . . . . . . . . . 
 72
    65
 73
     2
 40
3.0
 49
0.0
 74
     0
 49
-3.0
 74
     0
  0
LTYPE
  5
23F
330
19A
100
AcDbSymbolTableRecord
100
AcDbLinetypeTableRecord
  2
ACAD_ISO08W100
 70
     0
  3
ISO long-dash short-dash ____ __ ____ __ ____ _
 72
    65
 73
     4
 40
36.0
 49
24.0
 74
     0
 49
-3.0
 74
     0
 49
6.0
 74
     0
 49
-3.0
 74
     0
  0
LTYPE
  5
240
330
19A
100
AcDbSymbolTableRecord
100
AcDbLinetypeTableRecord
  2
ACAD_ISO09W100
 70
     0
  3
ISO long-dash double-short-dash ____ __ __ ____
 72
    65
 73
     6
 40
45.0
 49
24.0
 74
     0
 49
-3.0
 74
     0
 49
6.0
 74
     0
 49
-3.0
 74
     0
 49
6.0
 74
     0
 49
-3.0
 74
     0
  0
LTYPE
  5
241
330
19A
100
AcDbSymbolTableRecord
100
AcDbLinetypeTableRecord
  2
ACAD_ISO10W100
 70
     0
  3
ISO dash dot __ . __ . __ . __ . __ . __ . __ . 
 72
    65
 73
     4
 40
18.0
 49
12.0
 74
     0
 49
-3.0
 74
     0
 49
0.0
 74
     0
 49
-3.0
 74
     0
  0
LTYPE
  5
242
330
19A
100
AcDbSymbolTableRecord
100
AcDbLinetypeTableRecord
  2
ACAD_ISO11W100
 70
     0
  3
ISO double-dash dot __ __ . __ __ . __ __ . __ _
 72
    65
 73
     6
 40
33.0
 49
12.0
 74
     0
 49
-3.0
 74
     0
 49
12.0
 74
     0
 49
-3.0
 74
     0
 49
0.0
 74
     0
 49
-3.0
 74
     0
  0
LTYPE
  5
243
330
19A
100
AcDbSymbolTableRecord
100
AcDbLinetypeTableRecord
  2
ACAD_ISO12W100
 70
     0
  3
ISO dash double-dot __ . . __ . . __ . . __ . . 
 72
    65
 73
     6
 40
21.0
 49
12.0
 74
     0
 49
-3.0
 74
     0
 49
0.0
 74
     0
 49
-3.0
 74
     0
 49
0.0
 74
     0
 49
-3.0
 74
     0
  0
LTYPE
  5
244
330
19A
100
AcDbSymbolTableRecord
100
AcDbLinetypeTableRecord
  2
ACAD_ISO13W100
 70
     0
  3
ISO double-dash double-dot __ __ . . __ __ . . _
 72
    65
 73
     8
 40
36.0
 49
12.0
 74
     0
 49
-3.0
 74
     0
 49
12.0
 74
     0
 49
-3.0
 74
     0
 49
0.0
 74
     0
 49
-3.0
 74
     0
 49
0.0
 74
     0
 49
-3.0
 74
     0
  0
LTYPE
  5
245
330
19A
100
AcDbSymbolTableRecord
100
AcDbLinetypeTableRecord
  2
ACAD_ISO14W100
 70
     0
  3
ISO dash triple-dot __ . . . __ . . . __ . . . _
 72
    65
 73
     8
 40
24.0
 49
12.0
 74
     0
 49
-3.0
 74
     0
 49
0.0
 74
     0
 49
-3.0
 74
     0
 49
0.0
 74
     0
 49
-3.0
 74
     0
 49
0.0
 74
     0
 49
-3.0
 74
     0
  0
LTYPE
  5
246
330
19A
100
AcDbSymbolTableRecord
100
AcDbLinetypeTableRecord
  2
ACAD_ISO15W100
 70
     0
  3
ISO double-dash triple-dot __ __ . . . __ __ . .
 72
    65
 73
    10
 40
39.0
 49
12.0
 74
     0
 49
-3.0
 74
     0
 49
12.0
 74
     0
 49
-3.0
 74
     0
 49
0.0
 74
     0
 49
-3.0
 74
     0
 49
0.0
 74
     0
 49
-3.0
 74
     0
 49
0.0
 74
     0
 49
-3.0
 74
     0
  0
LTYPE
  5
249
330
19A
100
AcDbSymbolTableRecord
100
AcDbLinetypeTableRecord
  2
BATTING
 70
     0
  3
Batting SSSSSSSSSSSSSSSSSSSSSSSSSSSSSSSSSSSSSSSSSSSSSSS
 72
    65
 73
     4
 40
10.16254
 49
0.00254
 74
     0
 49
-2.54
 74
     2
 75
     0
340
247
 46
2.54
 50
0.0
 44
-2.54
 45
0.0
  9
BAT
 49
-5.08
 74
     2
 75
     0
340
248
 46
2.54
 50
180.0
 44
2.54
 45
0.0
  9
BAT
 49
-2.54
 74
     0
  0
LTYPE
  5
24A
330
19A
100
AcDbSymbolTableRecord
100
AcDbLinetypeTableRecord
  2
BORDER
 70
     0
  3
Border __ __ . __ __ . __ __ . __ __ . __ __ .
 72
    65
 73
     6
 40
44.45
 49
12.7
 74
     0
 49
-6.35
 74
     0
 49
12.7
 74
     0
 49
-6.35
 74
     0
 49
0.0
 74
     0
 49
-6.35
 74
     0
  0
LTYPE
  5
24B
330
19A
100
AcDbSymbolTableRecord
100
AcDbLinetypeTableRecord
  2
BORDER2
 70
     0
  3
Border (.5x) __.__.__.__.__.__.__.__.__.__.__.
 72
    65
 73
     6
 40
22.225
 49
6.35
 74
     0
 49
-3.175
 74
     0
 49
6.35
 74
     0
 49
-3.175
 74
     0
 49
0.0
 74
     0
 49
-3.175
 74
     0
  0
LTYPE
  5
24C
330
19A
100
AcDbSymbolTableRecord
100
AcDbLinetypeTableRecord
  2
BORDERX2
 70
     0
  3
Border (2x) ____  ____  .  ____  ____  .  ___
 72
    65
 73
     6
 40
88.89999999999999
 49
25.4
 74
     0
 49
-12.7
 74
     0
 49
25.4
 74
     0
 49
-12.7
 74
     0
 49
0.0
 74
     0
 49
-12.7
 74
     0
  0
LTYPE
  5
24D
330
19A
100
AcDbSymbolTableRecord
100
AcDbLinetypeTableRecord
  2
CENTER
 70
     0
  3
Center ____ _ ____ _ ____ _ ____ _ ____ _ ____
 72
    65
 73
     4
 40
50.8
 49
31.75
 74
     0
 49
-6.35
 74
     0
 49
6.35
 74
     0
 49
-6.35
 74
     0
  0
LTYPE
  5
24E
330
19A
100
AcDbSymbolTableRecord
100
AcDbLinetypeTableRecord
  2
CENTER2
 70
     0
  3
Center (.5x) ___ _ ___ _ ___ _ ___ _ ___ _ ___
 72
    65
 73
     4
 40
28.575
 49
19.05
 74
     0
 49
-3.175
 74
     0
 49
3.175
 74
     0
 49
-3.175
 74
     0
  0
LTYPE
  5
24F
330
19A
100
AcDbSymbolTableRecord
100
AcDbLinetypeTableRecord
  2
CENTERX2
 70
     0
  3
Center (2x) ________  __  ________  __  _____
 72
    65
 73
     4
 40
101.6
 49
63.5
 74
     0
 49
-12.7
 74
     0
 49
12.7
 74
     0
 49
-12.7
 74
     0
  0
LTYPE
  5
250
330
19A
100
AcDbSymbolTableRecord
100
AcDbLinetypeTableRecord
  2
DASHDOT
 70
     0
  3
Dash dot __ . __ . __ . __ . __ . __ . __ . __
 72
    65
 73
     4
 40
25.4
 49
12.7
 74
     0
 49
-6.35
 74
     0
 49
0.0
 74
     0
 49
-6.35
 74
     0
  0
LTYPE
  5
251
330
19A
100
AcDbSymbolTableRecord
100
AcDbLinetypeTableRecord
  2
DASHDOT2
 70
     0
  3
Dash dot (.5x) _._._._._._._._._._._._._._._.
 72
    65
 73
     4
 40
12.7
 49
6.35
 74
     0
 49
-3.175
 74
     0
 49
0.0
 74
     0
 49
-3.175
 74
     0
  0
LTYPE
  5
252
330
19A
100
AcDbSymbolTableRecord
100
AcDbLinetypeTableRecord
  2
DASHDOTX2
 70
     0
  3
Dash dot (2x) ____  .  ____  .  ____  .  ___
 72
    65
 73
     4
 40
50.8
 49
25.4
 74
     0
 49
-12.7
 74
     0
 49
0.0
 74
     0
 49
-12.7
 74
     0
  0
LTYPE
  5
253
330
19A
100
AcDbSymbolTableRecord
100
AcDbLinetypeTableRecord
  2
DASHED
 70
     0
  3
Dashed __ __ __ __ __ __ __ __ __ __ __ __ __ _
 72
    65
 73
     2
 40
19.05
 49
12.7
 74
     0
 49
-6.35
 74
     0
  0
LTYPE
  5
254
330
19A
100
AcDbSymbolTableRecord
100
AcDbLinetypeTableRecord
  2
DASHED2
 70
     0
  3
Dashed (.5x) _ _ _ _ _ _ _ _ _ _ _ _ _ _ _ _ _ 
 72
    65
 73
     2
 40
9.524999999999999
 49
6.35
 74
     0
 49
-3.175
 74
     0
  0
LTYPE
  5
255
330
19A
100
AcDbSymbolTableRecord
100
AcDbLinetypeTableRecord
  2
DASHEDX2
 70
     0
  3
Dashed (2x) ____  ____  ____  ____  ____  ___
 72
    65
 73
     2
 40
38.09999999999999
 49
25.4
 74
     0
 49
-12.7
 74
     0
  0
LTYPE
  5
256
330
19A
100
AcDbSymbolTableRecord
100
AcDbLinetypeTableRecord
  2
DIVIDE
 70
     0
  3
Divide ____ . . ____ . . ____ . . ____ . . ____
 72
    65
 73
     6
 40
31.75
 49
12.7
 74
     0
 49
-6.35
 74
     0
 49
0.0
 74
     0
 49
-6.35
 74
     0
 49
0.0
 74
     0
 49
-6.35
 74
     0
  0
LTYPE
  5
257
330
19A
100
AcDbSymbolTableRecord
100
AcDbLinetypeTableRecord
  2
DIVIDE2
 70
     0
  3
Divide (.5x) __..__..__..__..__..__..__..__.._
 72
    65
 73
     6
 40
15.875
 49
6.35
 74
     0
 49
-3.175
 74
     0
 49
0.0
 74
     0
 49
-3.175
 74
     0
 49
0.0
 74
     0
 49
-3.175
 74
     0
  0
LTYPE
  5
258
330
19A
100
AcDbSymbolTableRecord
100
AcDbLinetypeTableRecord
  2
DIVIDEX2
 70
     0
  3
Divide (2x) ________  .  .  ________  .  .  _
 72
    65
 73
     6
 40
63.5
 49
25.4
 74
     0
 49
-12.7
 74
     0
 49
0.0
 74
     0
 49
-12.7
 74
     0
 49
0.0
 74
     0
 49
-12.7
 74
     0
  0
LTYPE
  5
259
330
19A
100
AcDbSymbolTableRecord
100
AcDbLinetypeTableRecord
  2
DOT
 70
     0
  3
Dot . . . . . . . . . . . . . . . . . . . . . . . .
 72
    65
 73
     2
 40
6.35
 49
0.0
 74
     0
 49
-6.35
 74
     0
  0
LTYPE
  5
25A
330
19A
100
AcDbSymbolTableRecord
100
AcDbLinetypeTableRecord
  2
DOT2
 70
     0
  3
Dot (.5x) ........................................
 72
    65
 73
     2
 40
3.175
 49
0.0
 74
     0
 49
-3.175
 74
     0
  0
LTYPE
  5
25B
330
19A
100
AcDbSymbolTableRecord
100
AcDbLinetypeTableRecord
  2
DOTX2
 70
     0
  3
Dot (2x) .  .  .  .  .  .  .  .  .  .  .  .  .  .
 72
    65
 73
     2
 40
12.7
 49
0.0
 74
     0
 49
-12.7
 74
     0
  0
LTYPE
  5
25D
330
19A
100
AcDbSymbolTableRecord
100
AcDbLinetypeTableRecord
  2
DRAINAGE
 70
     0
  3
Drainage ---->---->---->----
 72
    65
 73
     2
 40
10.16
 49
5.08
 74
     2
 75
     0
340
25C
 46
2.54
 50
180.0
 44
0.0
 45
0.0
  9
RIGHT_ARROW
 49
5.08
 74
     0
  0
LTYPE
  5
25F
330
19A
100
AcDbSymbolTableRecord
100
AcDbLinetypeTableRecord
  2
DRAINAGE2
 70
     0
  3
Drainage reversed----<----<----<----
 72
    65
 73
     2
 40
10.16
 49
5.08
 74
     2
 75
     0
340
25E
 46
2.54
 50
0.0
 44
0.0
 45
0.0
  9
RIGHT_ARROW
 49
5.08
 74
     0
  0
LTYPE
  5
261
330
19A
100
AcDbSymbolTableRecord
100
AcDbLinetypeTableRecord
  2
FENCELINE1
 70
     0
  3
Fenceline circle ----0-----0----0-----0----0-----0--
 72
    65
 73
     4
 40
36.83
 49
6.35
 74
     0
 49
-2.54
 74
     2
 75
     0
340
260
 46
2.54
 50
0.0
 44
-2.54
 45
0.0
  9
CIRC1
 49
-2.54
 74
     0
 49
25.4
 74
     0
  0
LTYPE
  5
263
330
19A
100
AcDbSymbolTableRecord
100
AcDbLinetypeTableRecord
  2
FENCELINE2
 70
     0
  3
Fenceline square ----[]-----[]----[]-----[]----[]---
 72
    65
 73
     4
 40
36.83
 49
6.35
 74
     0
 49
-2.54
 74
     2
 75
     0
340
262
 46
2.54
 50
0.0
 44
-2.54
 45
0.0
  9
BOX
 49
-2.54
 74
     0
 49
25.4
 74
     0
  0
LTYPE
  5
265
330
19A
100
AcDbSymbolTableRecord
100
AcDbLinetypeTableRecord
  2
GAS_LINE
 70
     0
  3
Gas line ----GAS----GAS----GAS----GAS----GAS----GAS--
 72
    65
 73
     3
 40
24.13
 49
12.7
 74
     0
 49
-5.08
 74
     2
 75
     0
340
264
 46
2.54
 50
0.0
 44
-2.54
 45
-1.27
  9
GAS
 49
-6.35
 74
     0
  0
LTYPE
  5
266
330
19A
100
AcDbSymbolTableRecord
100
AcDbLinetypeTableRecord
  2
HIDDEN
 70
     0
  3
Hidden __ __ __ __ __ __ __ __ __ __ __ __ __ __
 72
    65
 73
     2
 40
9.524999999999999
 49
6.35
 74
     0
 49
-3.175
 74
     0
  0
LTYPE
  5
267
330
19A
100
AcDbSymbolTableRecord
100
AcDbLinetypeTableRecord
  2
HIDDEN2
 70
     0
  3
Hidden (.5x) _ _ _ _ _ _ _ _ _ _ _ _ _ _ _ _ _ 
 72
    65
 73
     2
 40
4.762499999999999
 49
3.175
 74
     0
 49
-1.5875
 74
     0
  0
LTYPE
  5
268
330
19A
100
AcDbSymbolTableRecord
100
AcDbLinetypeTableRecord
  2
HIDDENX2
 70
     0
  3
Hidden (2x) ____ ____ ____ ____ ____ ____ ____ 
 72
    65
 73
     2
 40
19.05
 49
12.7
 74
     0
 49
-6.35
 74
     0
  0
LTYPE
  5
26A
330
19A
100
AcDbSymbolTableRecord
100
AcDbLinetypeTableRecord
  2
HOT_WATER_SUPPLY
 70
     0
  3
Hot water supply ---- HW ---- HW ---- HW ----
 72
    65
 73
     3
 40
22.86
 49
12.7
 74
     0
 49
-5.08
 74
     2
 75
     0
340
269
 46
2.54
 50
0.0
 44
-2.54
 45
-1.27
  9
HW
 49
-5.08
 74
     0
  0
LTYPE
  5
26B
330
19A
100
AcDbSymbolTableRecord
100
AcDbLinetypeTableRecord
  2
PHANTOM
 70
     0
  3
Phantom ______  __  __  ______  __  __  ______ 
 72
    65
 73
     6
 40
63.50000000000001
 49
31.75
 74
     0
 49
-6.35
 74
     0
 49
6.35
 74
     0
 49
-6.35
 74
     0
 49
6.35
 74
     0
 49
-6.35
 74
     0
  0
LTYPE
  5
26C
330
19A
100
AcDbSymbolTableRecord
100
AcDbLinetypeTableRecord
  2
PHANTOM2
 70
     0
  3
Phantom (.5x) ___ _ _ ___ _ _ ___ _ _ ___ _ _
 72
    65
 73
     6
 40
31.75
 49
15.875
 74
     0
 49
-3.175
 74
     0
 49
3.175
 74
     0
 49
-3.175
 74
     0
 49
3.175
 74
     0
 49
-3.175
 74
     0
  0
LTYPE
  5
26D
330
19A
100
AcDbSymbolTableRecord
100
AcDbLinetypeTableRecord
  2
PHANTOMX2
 70
     0
  3
Phantom (2x) ____________    ____    ____   _
 72
    65
 73
     6
 40
127.0
 49
63.5
 74
     0
 49
-12.7
 74
     0
 49
12.7
 74
     0
 49
-12.7
 74
     0
 49
12.7
 74
     0
 49
-12.7
 74
     0
  0
LTYPE
  5
26F
330
19A
100
AcDbSymbolTableRecord
100
AcDbLinetypeTableRecord
  2
TRACKS
 70
     0
  3
Tracks -|-|-|-|-|-|-|-|-|-|-|-|-|-|-|-|-|-|-|-|-|-|-|-|-
 72
    65
 73
     2
 40
7.62
 49
3.81
 74
     2
 75
     0
340
26E
 46
6.35
 50
0.0
 44
0.0
 45
0.0
  9
TRACK1
 49
3.81
 74
     0
  0
LTYPE
  5
272
330
19A
100
AcDbSymbolTableRecord
100
AcDbLinetypeTableRecord
  2
ZIGZAG
 70
     0
  3
Zig zag /\/\/\/\/\/\/\/\/\/\/\/\/\/\/\/\/\/\/\/\/\/\/\/
 72
    65
 73
     4
 40
20.32254
 49
0.00254
 74
     0
 49
-5.08
 74
     2
 75
     0
340
270
 46
5.08
 50
0.0
 44
-5.08
 45
0.0
  9
ZIG
 49
-10.16
 74
     2
 75
     0
340
271
 46
5.08
 50
180.0
 44
5.08
 45
0.0
  9
ZIG
 49
-5.08
 74
     0
  0
ENDTAB
  0
TABLE
  2
LAYER
  5
197
330
0
100
AcDbSymbolTable
 70
     5
  0
LAYER
  5
1A5
330
197
100
AcDbSymbolTableRecord
100
AcDbLayerTableRecord
  2
0
 70
     0
 62
     7
420
 16777215
  6
Continuous
370
    25
390
1A4
347
1DA
348
0
  0
LAYER
  5
273
330
197
100
AcDbSymbolTableRecord
100
AcDbLayerTableRecord
  2
0 ... Seuil
 70
     0
 62
   178
420
        0
  6
Continuous
370
    25
390
1A4
347
1DA
348
0
  0
LAYER
  5
274
330
197
100
AcDbSymbolTableRecord
100
AcDbLayerTableRecord
  2
0 ... Seuil ... Rectangle
 70
     0
 62
     5
420
      255
  6
Continuous
370
    25
390
1A4
347
1DA
348
0
  0
LAYER
  5
275
330
197
100
AcDbSymbolTableRecord
100
AcDbLayerTableRecord
  2
0 ... Seuil ... Rectangle ... Cotes Angles
 70
     0
 62
     4
420
    65535
  6
Continuous
370
    25
390
1A4
347
1DA
348
0
  0
LAYER
  5
276
330
197
100
AcDbSymbolTableRecord
100
AcDbLayerTableRecord
  2
Defpoints
 70
     0
 62
     7
420
 16777215
  6
Continuous
290
     0
370
    -3
390
1A4
347
1DA
348
0
  0
ENDTAB
  0
TABLE
  2
STYLE
  5
198
330
0
100
AcDbSymbolTable
 70
    22
  0
STYLE
  5
1A6
330
198
100
AcDbSymbolTableRecord
100
AcDbTextStyleTableRecord
  2
Standard
 70
     0
 40
0.0
 41
1.0
 50
0.0
 71
     0
 42
0.2
  3
txt
  4

  0
STYLE
  5
237
330
198
100
AcDbSymbolTableRecord
100
AcDbTextStyleTableRecord
  2
QCADDimTextStyle
 70
     0
 40
0.0
 41
1.0
 50
0.0
 71
     0
 42
0.2
  3

  4

  0
STYLE
  5
247
330
198
100
AcDbSymbolTableRecord
100
AcDbTextStyleTableRecord
  2
textstyle0
 70
     0
 40
0.0
 41
1.0
 50
0.0
 71
     0
 42
0.2
  3
ltypeshp.shx
  4

  0
STYLE
  5
248
330
198
100
AcDbSymbolTableRecord
100
AcDbTextStyleTableRecord
  2
textstyle1
 70
     0
 40
0.0
 41
1.0
 50
0.0
 71
     0
 42
0.2
  3
ltypeshp.shx
  4

  0
STYLE
  5
25C
330
198
100
AcDbSymbolTableRecord
100
AcDbTextStyleTableRecord
  2
textstyle2
 70
     0
 40
0.0
 41
1.0
 50
0.0
 71
     0
 42
0.2
  3
qcadshp.shx
  4

  0
STYLE
  5
25E
330
198
100
AcDbSymbolTableRecord
100
AcDbTextStyleTableRecord
  2
textstyle3
 70
     0
 40
0.0
 41
1.0
 50
0.0
 71
     0
 42
0.2
  3
qcadshp.shx
  4

  0
STYLE
  5
260
330
198
100
AcDbSymbolTableRecord
100
AcDbTextStyleTableRecord
  2
textstyle4
 70
     0
 40
0.0
 41
1.0
 50
0.0
 71
     0
 42
0.2
  3
ltypeshp.shx
  4

  0
STYLE
  5
262
330
198
100
AcDbSymbolTableRecord
100
AcDbTextStyleTableRecord
  2
textstyle5
 70
     0
 40
0.0
 41
1.0
 50
0.0
 71
     0
 42
0.2
  3
ltypeshp.shx
  4

  0
STYLE
  5
264
330
198
100
AcDbSymbolTableRecord
100
AcDbTextStyleTableRecord
  2
textstyle6
 70
     0
 40
0.0
 41
1.0
 50
0.0
 71
     0
 42
0.2
  3
STANDARD
  4

  0
STYLE
  5
269
330
198
100
AcDbSymbolTableRecord
100
AcDbTextStyleTableRecord
  2
textstyle7
 70
     0
 40
0.0
 41
1.0
 50
0.0
 71
     0
 42
0.2
  3
STANDARD
  4

  0
STYLE
  5
26E
330
198
100
AcDbSymbolTableRecord
100
AcDbTextStyleTableRecord
  2
textstyle8
 70
     0
 40
0.0
 41
1.0
 50
0.0
 71
     0
 42
0.2
  3
ltypeshp.shx
  4

  0
STYLE
  5
270
330
198
100
AcDbSymbolTableRecord
100
AcDbTextStyleTableRecord
  2
textstyle9
 70
     0
 40
0.0
 41
1.0
 50
0.0
 71
     0
 42
0.2
  3
ltypeshp.shx
  4

  0
STYLE
  5
271
330
198
100
AcDbSymbolTableRecord
100
AcDbTextStyleTableRecord
  2
textstyle10
 70
     0
 40
0.0
 41
1.0
 50
0.0
 71
     0
 42
0.2
  3
ltypeshp.shx
  4

  0
STYLE
  5
2FB
330
198
100
AcDbSymbolTableRecord
100
AcDbTextStyleTableRecord
  2
textstyle11
 70
     0
 40
0.0
 41
1.0
 50
0.0
 71
     0
 42
0.2
  3

  4

1001
ACAD
1000
Liberation Sans
1071
        0
  0
STYLE
  5
2FC
330
198
100
AcDbSymbolTableRecord
100
AcDbTextStyleTableRecord
  2
textstyle12
 70
     0
 40
0.0
 41
1.0
 50
0.0
 71
     0
 42
0.2
  3

  4

1001
ACAD
1000
Liberation Sans
1071
        0
  0
STYLE
  5
30C
330
198
100
AcDbSymbolTableRecord
100
AcDbTextStyleTableRecord
  2
textstyle13
 70
     0
 40
0.0
 41
1.0
 50
0.0
 71
     0
 42
0.2
  3

  4

1001
ACAD
1000
Liberation Sans
1071
        0
  0
STYLE
  5
30D
330
198
100
AcDbSymbolTableRecord
100
AcDbTextStyleTableRecord
  2
textstyle14
 70
     0
 40
0.0
 41
1.0
 50
0.0
 71
     0
 42
0.2
  3

  4

1001
ACAD
1000
Liberation Sans
1071
        0
  0
STYLE
  5
30E
330
198
100
AcDbSymbolTableRecord
100
AcDbTextStyleTableRecord
  2
textstyle15
 70
     0
 40
0.0
 41
1.0
 50
0.0
 71
     0
 42
0.2
  3

  4

1001
ACAD
1000
Liberation Sans
1071
        0
  0
STYLE
  5
30F
330
198
100
AcDbSymbolTableRecord
100
AcDbTextStyleTableRecord
  2
textstyle16
 70
     0
 40
0.0
 41
1.0
 50
0.0
 71
     0
 42
0.2
  3

  4

1001
ACAD
1000
Liberation Sans
1071
        0
  0
STYLE
  5
310
330
198
100
AcDbSymbolTableRecord
100
AcDbTextStyleTableRecord
  2
textstyle17
 70
     0
 40
0.0
 41
1.0
 50
0.0
 71
     0
 42
0.2
  3

  4

1001
ACAD
1000
Liberation Sans
1071
        0
  0
STYLE
  5
311
330
198
100
AcDbSymbolTableRecord
100
AcDbTextStyleTableRecord
  2
textstyle18
 70
     0
 40
0.0
 41
1.0
 50
0.0
 71
     0
 42
0.2
  3

  4

1001
ACAD
1000
Liberation Sans
1071
        0
  0
STYLE
  5
344
330
198
100
AcDbSymbolTableRecord
100
AcDbTextStyleTableRecord
  2
textstyle19
 70
     0
 40
0.0
 41
1.0
 50
0.0
 71
     0
 42
0.2
  3

  4

1001
ACAD
1000
Liberation Sans
1071
        0
  0
ENDTAB
  0
TABLE
  2
VIEW
  5
19B
330
0
100
AcDbSymbolTable
 70
     0
  0
ENDTAB
  0
TABLE
  2
UCS
  5
19C
330
0
100
AcDbSymbolTable
 70
     0
  0
ENDTAB
  0
TABLE
  2
APPID
  5
19E
330
0
100
AcDbSymbolTable
 70
     2
  0
APPID
  5
1A7
330
19E
100
AcDbSymbolTableRecord
100
AcDbRegAppTableRecord
  2
ACAD
 70
     0
  0
APPID
  5
202
330
19E
100
AcDbSymbolTableRecord
100
AcDbRegAppTableRecord
  2
QCAD
 70
     0
  0
ENDTAB
  0
TABLE
  2
DIMSTYLE
  5
19F
330
0
100
AcDbSymbolTable
 70
     2
100
AcDbDimStyleTable
  0
DIMSTYLE
105
1BB
330
19F
100
AcDbSymbolTableRecord
100
AcDbDimStyleTableRecord
  2
Standard
 70
     0
178
     0
340
1A6
  0
DIMSTYLE
105
238
102
{ACAD_REACTORS
330
44
330
45
330
46
330
47
330
48
330
4F
330
50
330
51
330
52
330
53
330
58
330
9A
330
A3
330
B4
330
B5
330
B6
102
}
330
19F
100
AcDbSymbolTableRecord
100
AcDbDimStyleTableRecord
  2
QCADDimStyle
 70
     0
 41
20.0
 42
5.0
 44
10.0
 73
     0
 77
     1
140
20.0
147
5.0
178
     0
340
237
  0
ENDTAB
  0
TABLE
  2
BLOCK_RECORD
  5
196
330
0
100
AcDbSymbolTable
 70
    17
  0
BLOCK_RECORD
  5
1B3
330
196
100
AcDbSymbolTableRecord
100
AcDbBlockTableRecord
  2
*Model_Space
340
1B6
 70
     0
280
     1
281
     0
  0
BLOCK_RECORD
  5
1AF
330
196
100
AcDbSymbolTableRecord
100
AcDbBlockTableRecord
  2
*Paper_Space
340
1B2
 70
     0
280
     1
281
     0
  0
BLOCK_RECORD
  5
1B7
330
196
100
AcDbSymbolTableRecord
100
AcDbBlockTableRecord
  2
*Paper_Space0
340
1BA
 70
     0
280
     1
281
     0
  0
BLOCK_RECORD
  5
277
330
196
100
AcDbSymbolTableRecord
100
AcDbBlockTableRecord
  2
*D1
340
0
 70
     0
280
     1
281
     0
  0
BLOCK_RECORD
  5
283
330
196
100
AcDbSymbolTableRecord
100
AcDbBlockTableRecord
  2
*D2
340
0
 70
     0
280
     1
281
     0
  0
BLOCK_RECORD
  5
28F
330
196
100
AcDbSymbolTableRecord
100
AcDbBlockTableRecord
  2
*D3
340
0
 70
     0
280
     1
281
     0
  0
BLOCK_RECORD
  5
29B
330
196
100
AcDbSymbolTableRecord
100
AcDbBlockTableRecord
  2
*D4
340
0
 70
     0
280
     1
281
     0
  0
BLOCK_RECORD
  5
2A6
330
196
100
AcDbSymbolTableRecord
100
AcDbBlockTableRecord
  2
*D5
340
0
 70
     0
280
     1
281
     0
  0
BLOCK_RECORD
  5
2B3
330
196
100
AcDbSymbolTableRecord
100
AcDbBlockTableRecord
  2
*D6
340
0
 70
     0
280
     1
281
     0
  0
BLOCK_RECORD
  5
2BF
330
196
100
AcDbSymbolTableRecord
100
AcDbBlockTableRecord
  2
*D7
340
0
 70
     0
280
     1
281
     0
  0
BLOCK_RECORD
  5
2CB
330
196
100
AcDbSymbolTableRecord
100
AcDbBlockTableRecord
  2
*D8
340
0
 70
     0
280
     1
281
     0
  0
BLOCK_RECORD
  5
2D7
330
196
100
AcDbSymbolTableRecord
100
AcDbBlockTableRecord
  2
*D9
340
0
 70
     0
280
     1
281
     0
  0
BLOCK_RECORD
  5
2E3
330
196
100
AcDbSymbolTableRecord
100
AcDbBlockTableRecord
  2
*D10
340
0
 70
     0
280
     1
281
     0
  0
BLOCK_RECORD
  5
2EF
330
196
100
AcDbSymbolTableRecord
100
AcDbBlockTableRecord
  2
*D11
340
0
 70
     0
280
     1
281
     0
  0
BLOCK_RECORD
  5
2FD
330
196
100
AcDbSymbolTableRecord
100
AcDbBlockTableRecord
  2
*D12
340
0
 70
     0
280
     1
281
     0
  0
BLOCK_RECORD
  5
312
330
196
100
AcDbSymbolTableRecord
100
AcDbBlockTableRecord
  2
*D13
340
0
 70
     0
280
     1
281
     0
  0
BLOCK_RECORD
  5
321
330
196
100
AcDbSymbolTableRecord
100
AcDbBlockTableRecord
  2
*D14
340
0
 70
     0
280
     1
281
     0
  0
BLOCK_RECORD
  5
32C
330
196
100
AcDbSymbolTableRecord
100
AcDbBlockTableRecord
  2
*D15
340
0
 70
     0
280
     1
281
     0
  0
BLOCK_RECORD
  5
338
330
196
100
AcDbSymbolTableRecord
100
AcDbBlockTableRecord
  2
*D16
340
0
 70
     0
280
     1
281
     0
  0
ENDTAB
  0
ENDSEC
  0
SECTION
  2
BLOCKS
  0
BLOCK
  5
1B4
330
1B3
100
AcDbEntity
  8
0
100
AcDbBlockBegin
  2
*Model_Space
 70
     0
 10
0.0
 20
0.0
 30
0.0
  3
*Model_Space
  1
*Model_Space
  0
ENDBLK
  5
1B5
330
1B3
100
AcDbEntity
  8
0
100
AcDbBlockEnd
  0
BLOCK
  5
1B0
330
1AF
100
AcDbEntity
 67
     1
  8
0
100
AcDbBlockBegin
  2
*Paper_Space
 70
     0
 10
0.0
 20
0.0
 30
0.0
  3
*Paper_Space
  1
*Paper_Space
  0
ENDBLK
  5
1B1
330
1AF
100
AcDbEntity
 67
     1
  8
0
100
AcDbBlockEnd
  0
BLOCK
  5
1B8
330
1B7
100
AcDbEntity
  8
0
100
AcDbBlockBegin
  2
*Paper_Space0
 70
     0
 10
0.0
 20
0.0
 30
0.0
  3
*Paper_Space0
  1
*Paper_Space0
  0
ENDBLK
  5
1B9
330
1B7
100
AcDbEntity
  8
0
100
AcDbBlockEnd
  0
BLOCK
  5
278
330
277
100
AcDbEntity
  8
0
100
AcDbBlockBegin
  2
*D1
 70
     1
 10
0.0
 20
0.0
 30
0.0
  3
*D1
  1
*D1
  0
LINE
  5
27A
330
277
100
AcDbEntity
  8
0 ... Seuil ... Rectangle ... Cotes Angles
 62
     0
370
    -2
100
AcDbLine
 10
362.0338976138218
 20
1074.965161524988
 30
0.0
 11
307.5072379058312
 21
1070.194696940603
 31
0.0
  0
LINE
  5
27B
330
277
100
AcDbEntity
  8
0 ... Seuil ... Rectangle ... Cotes Angles
 62
     0
370
    -2
100
AcDbLine
 10
381.2814035895248
 20
854.9651615249909
 30
0.0
 11
326.7547438815342
 21
850.1946969406059
 31
0.0
  0
LINE
  5
27C
330
277
100
AcDbEntity
  8
0 ... Seuil ... Rectangle ... Cotes Angles
 62
     0
370
    -2
100
AcDbLine
 10
317.4691848867487
 20
1071.066254368079
 30
0.0
 11
336.7166908624517
 21
851.0662543680825
 31
0.0
  0
LINE
  5
27D
330
277
100
AcDbEntity
  8
0 ... Seuil ... Rectangle ... Cotes Angles
 62
     0
370
    -2
100
AcDbLine
 10
339.1361937035367
 20
1052.885475261197
 30
0.0
 11
295.8021760699606
 21
1089.247033474961
 31
0.0
  0
LINE
  5
27E
330
277
100
AcDbEntity
  8
0 ... Seuil ... Rectangle ... Cotes Angles
 62
     0
370
    -2
100
AcDbLine
 10
315.0496820456636
 20
869.2470334749643
 30
0.0
 11
358.3836996792397
 21
832.8854752612007
 31
0.0
  0
MTEXT
  5
27F
330
277
100
AcDbEntity
  8
0 ... Seuil ... Rectangle ... Cotes Angles
 62
     0
100
AcDbMText
 10
342.0358583459745
 20
962.3735905093018
 30
0.0
 40
20.0
 41
0.0
 46
0.0
 71
     5
 72
     1
  1
\A1;220.8404
  7
QCADDimTextStyle
 11
0.08715574274765819
 21
-0.9961946980917455
 31
0.0
 73
     1
 44
1.0
  0
POINT
  5
280
330
277
100
AcDbEntity
  8
Defpoints
 62
     0
100
AcDbPoint
 10
367.0148711042805
 20
1075.400940238726
 30
0.0
  0
POINT
  5
281
330
277
100
AcDbEntity
  8
Defpoints
 62
     0
100
AcDbPoint
 10
386.2623770799835
 20
855.4009402387292
 30
0.0
  0
POINT
  5
282
330
277
100
AcDbEntity
  8
Defpoints
 62
     0
100
AcDbPoint
 10
336.7166908624517
 20
851.0662543680825
 30
0.0
  0
ENDBLK
  5
279
330
277
100
AcDbEntity
  8
0
100
AcDbBlockEnd
  0
BLOCK
  5
284
330
283
100
AcDbEntity
  8
0
100
AcDbBlockBegin
  2
*D2
 70
     1
 10
0.0
 20
0.0
 30
0.0
  3
*D2
  1
*D2
  0
LINE
  5
286
330
283
100
AcDbEntity
  8
0 ... Seuil ... Rectangle ... Cotes Angles
 62
     0
370
    -2
100
AcDbLine
 10
390.1061350568266
 20
1099.40094023873
 30
0.0
 11
272.7405925665405
 21
1099.40094023873
 31
0.0
  0
LINE
  5
287
330
283
100
AcDbEntity
  8
0 ... Seuil ... Rectangle ... Cotes Angles
 62
     0
370
    -2
100
AcDbLine
 10
362.0148711042805
 20
1075.400940238726
 30
0.0
 11
272.7405925665405
 21
1075.400940238726
 31
0.0
  0
LINE
  5
288
330
283
100
AcDbEntity
  8
0 ... Seuil ... Rectangle ... Cotes Angles
 62
     0
370
    -2
100
AcDbLine
 10
282.7405925665405
 20
1099.40094023873
 30
0.0
 11
282.7405925665405
 21
1075.400940238726
 31
0.0
  0
LINE
  5
289
330
283
100
AcDbEntity
  8
0 ... Seuil ... Rectangle ... Cotes Angles
 62
     0
370
    -2
100
AcDbLine
 10
302.7405925665405
 20
1079.40094023873
 30
0.0
 11
262.7405925665405
 21
1119.40094023873
 31
0.0
  0
LINE
  5
28A
330
283
100
AcDbEntity
  8
0 ... Seuil ... Rectangle ... Cotes Angles
 62
     0
370
    -2
100
AcDbLine
 10
262.7405925665405
 20
1095.400940238726
 30
0.0
 11
302.7405925665405
 21
1055.400940238726
 31
0.0
  0
MTEXT
  5
28B
330
283
100
AcDbEntity
  8
0 ... Seuil ... Rectangle ... Cotes Angles
 62
     0
100
AcDbMText
 10
255.2405925665405
 20
1087.400940238728
 30
0.0
 40
20.0
 41
0.0
 46
0.0
 71
     5
 72
     1
  1
\A1;24
  7
QCADDimTextStyle
 73
     1
 44
1.0
  0
POINT
  5
28C
330
283
100
AcDbEntity
  8
Defpoints
 62
     0
100
AcDbPoint
 10
395.1061350568266
 20
1099.40094023873
 30
0.0
  0
POINT
  5
28D
330
283
100
AcDbEntity
  8
Defpoints
 62
     0
100
AcDbPoint
 10
367.0148711042805
 20
1075.400940238726
 30
0.0
  0
POINT
  5
28E
330
283
100
AcDbEntity
  8
Defpoints
 62
     0
100
AcDbPoint
 10
282.7405925665405
 20
1075.400940238726
 30
0.0
  0
ENDBLK
  5
285
330
283
100
AcDbEntity
  8
0
100
AcDbBlockEnd
  0
BLOCK
  5
290
330
28F
100
AcDbEntity
  8
0
100
AcDbBlockBegin
  2
*D3
 70
     1
 10
0.0
 20
0.0
 30
0.0
  3
*D3
  1
*D3
  0
LINE
  5
292
330
28F
100
AcDbEntity
  8
0 ... Seuil ... Rectangle ... Cotes Angles
 62
     0
370
    -2
100
AcDbLine
 10
362.0148711042805
 20
1075.400940238726
 30
0.0
 11
272.7405925665405
 21
1075.400940238726
 31
0.0
  0
LINE
  5
293
330
28F
100
AcDbEntity
  8
0 ... Seuil ... Rectangle ... Cotes Angles
 62
     0
370
    -2
100
AcDbLine
 10
381.2623770799835
 20
855.4009402387292
 30
0.0
 11
272.7405925665405
 21
855.4009402387292
 31
0.0
  0
LINE
  5
294
330
28F
100
AcDbEntity
  8
0 ... Seuil ... Rectangle ... Cotes Angles
 62
     0
370
    -2
100
AcDbLine
 10
282.7405925665405
 20
1075.400940238726
 30
0.0
 11
282.7405925665405
 21
855.4009402387292
 31
0.0
  0
LINE
  5
295
330
28F
100
AcDbEntity
  8
0 ... Seuil ... Rectangle ... Cotes Angles
 62
     0
370
    -2
100
AcDbLine
 10
302.7405925665405
 20
1055.400940238726
 30
0.0
 11
262.7405925665405
 21
1095.400940238726
 31
0.0
  0
LINE
  5
296
330
28F
100
AcDbEntity
  8
0 ... Seuil ... Rectangle ... Cotes Angles
 62
     0
370
    -2
100
AcDbLine
 10
262.7405925665405
 20
875.4009402387292
 30
0.0
 11
302.7405925665405
 21
835.4009402387292
 31
0.0
  0
MTEXT
  5
297
330
28F
100
AcDbEntity
  8
0 ... Seuil ... Rectangle ... Cotes Angles
 62
     0
100
AcDbMText
 10
267.7405925665405
 20
965.400940238738
 30
0.0
 40
20.0
 41
0.0
 46
0.0
 71
     5
 72
     1
  1
\A1;220
  7
QCADDimTextStyle
 11
0.0
 21
1.0
 31
0.0
 73
     1
 44
1.0
  0
POINT
  5
298
330
28F
100
AcDbEntity
  8
Defpoints
 62
     0
100
AcDbPoint
 10
367.0148711042805
 20
1075.400940238726
 30
0.0
  0
POINT
  5
299
330
28F
100
AcDbEntity
  8
Defpoints
 62
     0
100
AcDbPoint
 10
386.2623770799835
 20
855.4009402387292
 30
0.0
  0
POINT
  5
29A
330
28F
100
AcDbEntity
  8
Defpoints
 62
     0
100
AcDbPoint
 10
282.7405925665405
 20
855.4009402387292
 30
0.0
  0
ENDBLK
  5
291
330
28F
100
AcDbEntity
  8
0
100
AcDbBlockEnd
  0
BLOCK
  5
29C
330
29B
100
AcDbEntity
  8
0
100
AcDbBlockBegin
  2
*D4
 70
     1
 10
0.0
 20
0.0
 30
0.0
  3
*D4
  1
*D4
  0
LINE
  5
29E
330
29B
100
AcDbEntity
  8
0 ... Seuil ... Rectangle ... Cotes Angles
 62
     0
370
    -2
100
AcDbLine
 10
420.1061350568255
 20
1099.400940238728
 30
0.0
 11
460.8977628945877
 21
1099.400940238728
 31
0.0
  0
LINE
  5
29F
330
29B
100
AcDbEntity
  8
0 ... Seuil ... Rectangle ... Cotes Angles
 62
     0
370
    -2
100
AcDbLine
 10
420.2373680521146
 20
1097.900940238727
 30
0.0
 11
460.8977628945877
 21
1097.900940238727
 31
0.0
  0
LINE
  5
2A0
330
29B
100
AcDbEntity
  8
0 ... Seuil ... Rectangle ... Cotes Angles
 62
     0
370
    -2
100
AcDbLine
 10
430.8977628945877
 20
1119.400940238728
 30
0.0
 11
470.8977628945877
 21
1079.400940238728
 31
0.0
  0
LINE
  5
2A1
330
29B
100
AcDbEntity
  8
0 ... Seuil ... Rectangle ... Cotes Angles
 62
     0
370
    -2
100
AcDbLine
 10
470.8977628945877
 20
1077.900940238727
 30
0.0
 11
430.8977628945877
 21
1117.900940238727
 31
0.0
  0
MTEXT
  5
2A2
330
29B
100
AcDbEntity
  8
0 ... Seuil ... Rectangle ... Cotes Angles
 62
     0
100
AcDbMText
 10
478.3977628945877
 20
1098.650940238727
 30
0.0
 40
20.0
 41
0.0
 46
0.0
 71
     5
 72
     1
  1
\A1;1.5
  7
QCADDimTextStyle
 73
     1
 44
1.0
  0
POINT
  5
2A3
330
29B
100
AcDbEntity
  8
Defpoints
 62
     0
100
AcDbPoint
 10
415.1061350568255
 20
1099.400940238728
 30
0.0
  0
POINT
  5
2A4
330
29B
100
AcDbEntity
  8
Defpoints
 62
     0
100
AcDbPoint
 10
415.2373680521146
 20
1097.900940238727
 30
0.0
  0
POINT
  5
2A5
330
29B
100
AcDbEntity
  8
Defpoints
 62
     0
100
AcDbPoint
 10
450.8977628945877
 20
1097.900940238727
 30
0.0
  0
ENDBLK
  5
29D
330
29B
100
AcDbEntity
  8
0
100
AcDbBlockEnd
  0
BLOCK
  5
2A7
330
2A6
100
AcDbEntity
  8
0
100
AcDbBlockBegin
  2
*D5
 70
     1
 10
0.0
 20
0.0
 30
0.0
  3
*D5
  1
*D5
  0
LINE
  5
2A9
330
2A6
100
AcDbEntity
  8
0 ... Seuil ... Rectangle ... Cotes Angles
 62
     0
370
    -2
100
AcDbLine
 10
373.7071563988382
 20
998.9077692969126
 30
0.0
 11
374.1896017770432
 21
993.3933933908452
 31
0.0
  0
LINE
  5
2AA
330
2A6
100
AcDbEntity
  8
0 ... Seuil ... Rectangle ... Cotes Angles
 62
     0
370
    -2
100
AcDbLine
 10
423.5168913034252
 20
1003.26555643433
 30
0.0
 11
423.9993366816302
 21
997.7511805282621
 31
0.0
  0
LINE
  5
2AB
330
2A6
100
AcDbEntity
  8
0 ... Seuil ... Rectangle ... Cotes Angles
 62
     0
370
    -2
100
AcDbLine
 10
373.31804434956
 20
1003.355340371762
 30
0.0
 11
377.1130717708766
 21
1003.6873622489
 31
0.0
  0
LINE
  5
2AC
330
2A6
100
AcDbEntity
  8
0 ... Seuil ... Rectangle ... Cotes Angles
 62
     0
370
    -2
100
AcDbLine
 10
423.127779254147
 20
1007.713127509179
 30
0.0
 11
419.3327518328576
 21
1007.381105632044
 31
0.0
  0
LINE
  5
2AD
330
2A6
100
AcDbEntity
  8
0 ... Seuil ... Rectangle ... Cotes Angles
 62
     0
370
    -2
100
AcDbLine
 10
391.498823456427
 20
1025.022349188562
 30
0.0
 11
355.137265242693
 21
981.6883315549617
 31
0.0
  0
LINE
  5
2AE
330
2A6
100
AcDbEntity
  8
0 ... Seuil ... Rectangle ... Cotes Angles
 62
     0
370
    -2
100
AcDbLine
 10
404.94700014728
 20
986.0461186923786
 30
0.0
 11
441.308558361014
 21
1029.380136325979
 31
0.0
  0
MTEXT
  5
2AF
330
2A6
100
AcDbEntity
  8
0 ... Seuil ... Rectangle ... Cotes Angles
 62
     0
100
AcDbMText
 10
396.9155756606642
 20
1020.477154411594
 30
0.0
 40
20.0
 41
0.0
 46
0.0
 71
     5
 72
     1
  1
\A1;50
  7
QCADDimTextStyle
 11
0.9961946980916863
 21
0.08715574274833428
 31
0.0
 73
     1
 44
1.0
  0
POINT
  5
2B0
330
2A6
100
AcDbEntity
  8
Defpoints
 62
     0
100
AcDbPoint
 10
373.2713776850965
 20
1003.888742787371
 30
0.0
  0
POINT
  5
2B1
330
2A6
100
AcDbEntity
  8
Defpoints
 62
     0
100
AcDbPoint
 10
423.0811125896835
 20
1008.246529924788
 30
0.0
  0
POINT
  5
2B2
330
2A6
100
AcDbEntity
  8
Defpoints
 62
     0
100
AcDbPoint
 10
423.127779254147
 20
1007.713127509179
 30
0.0
  0
ENDBLK
  5
2A8
330
2A6
100
AcDbEntity
  8
0
100
AcDbBlockEnd
  0
BLOCK
  5
2B4
330
2B3
100
AcDbEntity
  8
0
100
AcDbBlockBegin
  2
*D6
 70
     1
 10
0.0
 20
0.0
 30
0.0
  3
*D6
  1
*D6
  0
LINE
  5
2B6
330
2B3
100
AcDbEntity
  8
0 ... Seuil ... Rectangle ... Cotes Angles
 62
     0
370
    -2
100
AcDbLine
 10
420.1061350568255
 20
1099.400940238728
 30
0.0
 11
564.7819004325495
 21
1099.400940238728
 31
0.0
  0
LINE
  5
2B7
330
2B3
100
AcDbEntity
  8
0 ... Seuil ... Rectangle ... Cotes Angles
 62
     0
370
    -2
100
AcDbLine
 10
456.1470950500805
 20
825.4009402387292
 30
0.0
 11
564.7819004325495
 21
825.4009402387292
 31
0.0
  0
LINE
  5
2B8
330
2B3
100
AcDbEntity
  8
0 ... Seuil ... Rectangle ... Cotes Angles
 62
     0
370
    -2
100
AcDbLine
 10
554.7819004325495
 20
1099.400940238728
 30
0.0
 11
554.7819004325495
 21
825.4009402387292
 31
0.0
  0
LINE
  5
2B9
330
2B3
100
AcDbEntity
  8
0 ... Seuil ... Rectangle ... Cotes Angles
 62
     0
370
    -2
100
AcDbLine
 10
574.7819004325495
 20
1079.400940238728
 30
0.0
 11
534.7819004325495
 21
1119.400940238728
 31
0.0
  0
LINE
  5
2BA
330
2B3
100
AcDbEntity
  8
0 ... Seuil ... Rectangle ... Cotes Angles
 62
     0
370
    -2
100
AcDbLine
 10
534.7819004325495
 20
845.4009402387292
 30
0.0
 11
574.7819004325495
 21
805.4009402387292
 31
0.0
  0
MTEXT
  5
2BB
330
2B3
100
AcDbEntity
  8
0 ... Seuil ... Rectangle ... Cotes Angles
 62
     0
100
AcDbMText
 10
539.7819004325495
 20
962.4009402387286
 30
0.0
 40
20.0
 41
0.0
 46
0.0
 71
     5
 72
     1
  1
\A1;274
  7
QCADDimTextStyle
 11
0.0
 21
1.0
 31
0.0
 73
     1
 44
1.0
  0
POINT
  5
2BC
330
2B3
100
AcDbEntity
  8
Defpoints
 62
     0
100
AcDbPoint
 10
415.1061350568255
 20
1099.400940238728
 30
0.0
  0
POINT
  5
2BD
330
2B3
100
AcDbEntity
  8
Defpoints
 62
     0
100
AcDbPoint
 10
451.1470950500805
 20
825.4009402387292
 30
0.0
  0
POINT
  5
2BE
330
2B3
100
AcDbEntity
  8
Defpoints
 62
     0
100
AcDbPoint
 10
554.7819004325495
 20
825.4009402387292
 30
0.0
  0
ENDBLK
  5
2B5
330
2B3
100
AcDbEntity
  8
0
100
AcDbBlockEnd
  0
BLOCK
  5
2C0
330
2BF
100
AcDbEntity
  8
0
100
AcDbBlockBegin
  2
*D7
 70
     1
 10
0.0
 20
0.0
 30
0.0
  3
*D7
  1
*D7
  0
LINE
  5
2C2
330
2BF
100
AcDbEntity
  8
0 ... Seuil ... Rectangle ... Cotes Angles
 62
     0
370
    -2
100
AcDbLine
 10
446.0367652006825
 20
836.0075419565269
 30
0.0
 11
490.9620539883901
 21
880.932830744228
 31
0.0
  0
LINE
  5
2C3
330
2BF
100
AcDbEntity
  8
0 ... Seuil ... Rectangle ... Cotes Angles
 62
     0
370
    -2
100
AcDbLine
 10
453.1078330125475
 20
828.9364741446609
 30
0.0
 11
498.0331218002551
 21
873.861762932362
 31
0.0
  0
LINE
  5
2C4
330
2BF
100
AcDbEntity
  8
0 ... Seuil ... Rectangle ... Cotes Angles
 62
     0
370
    -2
100
AcDbLine
 10
483.8909861765241
 20
873.861762932363
 30
0.0
 11
490.9620539883891
 21
866.790695120497
 31
0.0
  0
LINE
  5
2C5
330
2BF
100
AcDbEntity
  8
0 ... Seuil ... Rectangle ... Cotes Angles
 62
     0
370
    -2
100
AcDbLine
 10
512.175257423986
 20
873.861762932361
 30
0.0
 11
455.6067149290622
 21
873.8617629323651
 31
0.0
  0
LINE
  5
2C6
330
2BF
100
AcDbEntity
  8
0 ... Seuil ... Rectangle ... Cotes Angles
 62
     0
370
    -2
100
AcDbLine
 10
462.6777827409272
 20
866.7906951204991
 30
0.0
 11
519.2463252358509
 21
866.790695120495
 31
0.0
  0
MTEXT
  5
2C7
330
2BF
100
AcDbEntity
  8
0 ... Seuil ... Rectangle ... Cotes Angles
 62
     0
100
AcDbMText
 10
504.5292704161245
 20
888.0240556003738
 30
0.0
 40
20.0
 41
0.0
 46
0.0
 71
     5
 72
     1
  1
\A1;10
  7
QCADDimTextStyle
 11
0.7071067811864963
 21
-0.7071067811865986
 31
0.0
 73
     1
 44
1.0
  0
POINT
  5
2C8
330
2BF
100
AcDbEntity
  8
Defpoints
 62
     0
100
AcDbPoint
 10
442.5012312947495
 20
832.4720080505945
 30
0.0
  0
POINT
  5
2C9
330
2BF
100
AcDbEntity
  8
Defpoints
 62
     0
100
AcDbPoint
 10
449.5722991066145
 20
825.4009402387285
 30
0.0
  0
POINT
  5
2CA
330
2BF
100
AcDbEntity
  8
Defpoints
 62
     0
100
AcDbPoint
 10
490.9620539883891
 20
866.790695120497
 30
0.0
  0
ENDBLK
  5
2C1
330
2BF
100
AcDbEntity
  8
0
100
AcDbBlockEnd
  0
BLOCK
  5
2CC
330
2CB
100
AcDbEntity
  8
0
100
AcDbBlockBegin
  2
*D8
 70
     1
 10
0.0
 20
0.0
 30
0.0
  3
*D8
  1
*D8
  0
LINE
  5
2CE
330
2CB
100
AcDbEntity
  8
0 ... Seuil ... Rectangle ... Cotes Angles
 62
     0
370
    -2
100
AcDbLine
 10
437.5722991066144
 20
820.4009402387286
 30
0.0
 11
437.572299106614
 21
778.536992805117
 31
0.0
  0
LINE
  5
2CF
330
2CB
100
AcDbEntity
  8
0 ... Seuil ... Rectangle ... Cotes Angles
 62
     0
370
    -2
100
AcDbLine
 10
449.5722991066144
 20
820.4009402387285
 30
0.0
 11
449.572299106614
 21
778.5369928051169
 31
0.0
  0
LINE
  5
2D0
330
2CB
100
AcDbEntity
  8
0 ... Seuil ... Rectangle ... Cotes Angles
 62
     0
370
    -2
100
AcDbLine
 10
437.5722991066141
 20
788.536992805117
 30
0.0
 11
449.5722991066141
 21
788.5369928051169
 31
0.0
  0
LINE
  5
2D1
330
2CB
100
AcDbEntity
  8
0 ... Seuil ... Rectangle ... Cotes Angles
 62
     0
370
    -2
100
AcDbLine
 10
457.5722991066143
 20
808.5369928051168
 30
0.0
 11
417.572299106614
 21
768.5369928051173
 31
0.0
  0
LINE
  5
2D2
330
2CB
100
AcDbEntity
  8
0 ... Seuil ... Rectangle ... Cotes Angles
 62
     0
370
    -2
100
AcDbLine
 10
429.572299106614
 20
768.5369928051172
 30
0.0
 11
469.5722991066143
 21
808.5369928051167
 31
0.0
  0
MTEXT
  5
2D3
330
2CB
100
AcDbEntity
  8
0 ... Seuil ... Rectangle ... Cotes Angles
 62
     0
100
AcDbMText
 10
443.4551047347393
 20
761.2787440250288
 30
0.0
 40
20.0
 41
0.0
 46
0.0
 71
     5
 72
     1
  1
\A1;12
  7
QCADDimTextStyle
 73
     1
 44
1.0
  0
POINT
  5
2D4
330
2CB
100
AcDbEntity
  8
Defpoints
 62
     0
100
AcDbPoint
 10
437.5722991066145
 20
825.4009402387286
 30
0.0
  0
POINT
  5
2D5
330
2CB
100
AcDbEntity
  8
Defpoints
 62
     0
100
AcDbPoint
 10
449.5722991066145
 20
825.4009402387285
 30
0.0
  0
POINT
  5
2D6
330
2CB
100
AcDbEntity
  8
Defpoints
 62
     0
100
AcDbPoint
 10
449.5722991066141
 20
788.5369928051169
 30
0.0
  0
ENDBLK
  5
2CD
330
2CB
100
AcDbEntity
  8
0
100
AcDbBlockEnd
  0
BLOCK
  5
2D8
330
2D7
100
AcDbEntity
  8
0
100
AcDbBlockBegin
  2
*D9
 70
     1
 10
0.0
 20
0.0
 30
0.0
  3
*D9
  1
*D9
  0
LINE
  5
2DA
330
2D7
100
AcDbEntity
  8
0 ... Seuil ... Rectangle ... Cotes Angles
 62
     0
370
    -2
100
AcDbLine
 10
607.1884662419175
 20
1099.400940238728
 30
0.0
 11
580.0786387947362
 21
1099.400940238728
 31
0.0
  0
LINE
  5
2DB
330
2D7
100
AcDbEntity
  8
0 ... Seuil ... Rectangle ... Cotes Angles
 62
     0
370
    -2
100
AcDbLine
 10
607.1884662419174
 20
855.4009402387267
 30
0.0
 11
580.0786387947361
 21
855.4009402387267
 31
0.0
  0
LINE
  5
2DC
330
2D7
100
AcDbEntity
  8
0 ... Seuil ... Rectangle ... Cotes Angles
 62
     0
370
    -2
100
AcDbLine
 10
590.0786387947362
 20
1099.400940238728
 30
0.0
 11
590.0786387947361
 21
855.4009402387267
 31
0.0
  0
LINE
  5
2DD
330
2D7
100
AcDbEntity
  8
0 ... Seuil ... Rectangle ... Cotes Angles
 62
     0
370
    -2
100
AcDbLine
 10
610.0786387947362
 20
1079.400940238728
 30
0.0
 11
570.0786387947362
 21
1119.400940238728
 31
0.0
  0
LINE
  5
2DE
330
2D7
100
AcDbEntity
  8
0 ... Seuil ... Rectangle ... Cotes Angles
 62
     0
370
    -2
100
AcDbLine
 10
570.0786387947361
 20
875.4009402387267
 30
0.0
 11
610.0786387947361
 21
835.4009402387267
 31
0.0
  0
MTEXT
  5
2DF
330
2D7
100
AcDbEntity
  8
0 ... Seuil ... Rectangle ... Cotes Angles
 62
     0
100
AcDbMText
 10
575.0786387947355
 20
977.4009402387211
 30
0.0
 40
20.0
 41
0.0
 46
0.0
 71
     5
 72
     1
  1
\A1;244
  7
QCADDimTextStyle
 11
4.659296627935057E-16
 21
1.0
 31
0.0
 73
     1
 44
1.0
  0
POINT
  5
2E0
330
2D7
100
AcDbEntity
  8
Defpoints
 62
     0
100
AcDbPoint
 10
612.1884662419175
 20
1099.400940238728
 30
0.0
  0
POINT
  5
2E1
330
2D7
100
AcDbEntity
  8
Defpoints
 62
     0
100
AcDbPoint
 10
612.1884662419174
 20
855.4009402387267
 30
0.0
  0
POINT
  5
2E2
330
2D7
100
AcDbEntity
  8
Defpoints
 62
     0
100
AcDbPoint
 10
590.0786387947361
 20
855.4009402387267
 30
0.0
  0
ENDBLK
  5
2D9
330
2D7
100
AcDbEntity
  8
0
100
AcDbBlockEnd
  0
BLOCK
  5
2E4
330
2E3
100
AcDbEntity
  8
0
100
AcDbBlockBegin
  2
*D10
 70
     1
 10
0.0
 20
0.0
 30
0.0
  3
*D10
  1
*D10
  0
LINE
  5
2E6
330
2E3
100
AcDbEntity
  8
0 ... Seuil ... Rectangle ... Cotes Angles
 62
     0
370
    -2
100
AcDbLine
 10
612.1884662419175
 20
1104.400940238728
 30
0.0
 11
612.1884662419177
 21
1159.421062581536
 31
0.0
  0
LINE
  5
2E7
330
2E3
100
AcDbEntity
  8
0 ... Seuil ... Rectangle ... Cotes Angles
 62
     0
370
    -2
100
AcDbLine
 10
1426.188466241917
 20
1104.400940238726
 30
0.0
 11
1426.188466241917
 21
1159.421062581534
 31
0.0
  0
LINE
  5
2E8
330
2E3
100
AcDbEntity
  8
0 ... Seuil ... Rectangle ... Cotes Angles
 62
     0
370
    -2
100
AcDbLine
 10
612.1884662419177
 20
1149.421062581536
 30
0.0
 11
1426.188466241917
 21
1149.421062581534
 31
0.0
  0
LINE
  5
2E9
330
2E3
100
AcDbEntity
  8
0 ... Seuil ... Rectangle ... Cotes Angles
 62
     0
370
    -2
100
AcDbLine
 10
632.1884662419177
 20
1169.421062581536
 30
0.0
 11
592.1884662419177
 21
1129.421062581536
 31
0.0
  0
LINE
  5
2EA
330
2E3
100
AcDbEntity
  8
0 ... Seuil ... Rectangle ... Cotes Angles
 62
     0
370
    -2
100
AcDbLine
 10
1406.188466241917
 20
1129.421062581534
 30
0.0
 11
1446.188466241917
 21
1169.421062581534
 31
0.0
  0
MTEXT
  5
2EB
330
2E3
100
AcDbEntity
  8
0 ... Seuil ... Rectangle ... Cotes Angles
 62
     0
100
AcDbMText
 10
1019.188466241917
 20
1164.421062581535
 30
0.0
 40
20.0
 41
0.0
 46
0.0
 71
     5
 72
     1
  1
\A1;814
  7
QCADDimTextStyle
 73
     1
 44
1.0
  0
POINT
  5
2EC
330
2E3
100
AcDbEntity
  8
Defpoints
 62
     0
100
AcDbPoint
 10
612.1884662419175
 20
1099.400940238728
 30
0.0
  0
POINT
  5
2ED
330
2E3
100
AcDbEntity
  8
Defpoints
 62
     0
100
AcDbPoint
 10
1426.188466241917
 20
1099.400940238726
 30
0.0
  0
POINT
  5
2EE
330
2E3
100
AcDbEntity
  8
Defpoints
 62
     0
100
AcDbPoint
 10
1426.188466241917
 20
1149.421062581534
 30
0.0
  0
ENDBLK
  5
2E5
330
2E3
100
AcDbEntity
  8
0
100
AcDbBlockEnd
  0
BLOCK
  5
2F0
330
2EF
100
AcDbEntity
  8
0
100
AcDbBlockBegin
  2
*D11
 70
     1
 10
0.0
 20
0.0
 30
0.0
  3
*D11
  1
*D11
  0
LINE
  5
2F2
330
2EF
100
AcDbEntity
  8
0 ... Seuil ... Rectangle ... Cotes Angles
 62
     0
370
    -2
100
AcDbLine
 10
390.1061350568266
 20
1099.40094023873
 30
0.0
 11
231.8498314557546
 21
1099.40094023873
 31
0.0
  0
LINE
  5
2F3
330
2EF
100
AcDbEntity
  8
0 ... Seuil ... Rectangle ... Cotes Angles
 62
     0
370
    -2
100
AcDbLine
 10
381.2623770799835
 20
855.4009402387292
 30
0.0
 11
231.8498314557546
 21
855.4009402387292
 31
0.0
  0
LINE
  5
2F4
330
2EF
100
AcDbEntity
  8
0 ... Seuil ... Rectangle ... Cotes Angles
 62
     0
370
    -2
100
AcDbLine
 10
241.8498314557546
 20
1099.40094023873
 30
0.0
 11
241.8498314557546
 21
855.4009402387292
 31
0.0
  0
LINE
  5
2F5
330
2EF
100
AcDbEntity
  8
0 ... Seuil ... Rectangle ... Cotes Angles
 62
     0
370
    -2
100
AcDbLine
 10
261.8498314557546
 20
1079.40094023873
 30
0.0
 11
221.8498314557546
 21
1119.40094023873
 31
0.0
  0
LINE
  5
2F6
330
2EF
100
AcDbEntity
  8
0 ... Seuil ... Rectangle ... Cotes Angles
 62
     0
370
    -2
100
AcDbLine
 10
221.8498314557546
 20
875.4009402387292
 30
0.0
 11
261.8498314557546
 21
835.4009402387292
 31
0.0
  0
MTEXT
  5
2F7
330
2EF
100
AcDbEntity
  8
0 ... Seuil ... Rectangle ... Cotes Angles
 62
     0
100
AcDbMText
 10
226.8498314557535
 20
977.4009402387394
 30
0.0
 40
20.0
 41
0.0
 46
0.0
 71
     5
 72
     1
  1
\A1;244
  7
QCADDimTextStyle
 11
1.164824156983766E-16
 21
1.0
 31
0.0
 73
     1
 44
1.0
  0
POINT
  5
2F8
330
2EF
100
AcDbEntity
  8
Defpoints
 62
     0
100
AcDbPoint
 10
395.1061350568266
 20
1099.40094023873
 30
0.0
  0
POINT
  5
2F9
330
2EF
100
AcDbEntity
  8
Defpoints
 62
     0
100
AcDbPoint
 10
386.2623770799835
 20
855.4009402387292
 30
0.0
  0
POINT
  5
2FA
330
2EF
100
AcDbEntity
  8
Defpoints
 62
     0
100
AcDbPoint
 10
241.8498314557546
 20
855.4009402387292
 30
0.0
  0
ENDBLK
  5
2F1
330
2EF
100
AcDbEntity
  8
0
100
AcDbBlockEnd
  0
BLOCK
  5
2FE
330
2FD
100
AcDbEntity
  8
0
100
AcDbBlockBegin
  2
*D12
 70
     1
 10
0.0
 20
0.0
 30
0.0
  3
*D12
  1
*D12
  0
LINE
  5
300
330
2FD
100
AcDbEntity
  8
0 ... Seuil ... Rectangle ... Cotes Angles
 62
     0
370
    -2
100
AcDbLine
 10
412.0652722671514
 20
313.3026779091347
 30
0.0
 11
412.0652722671506
 21
463.0835971994445
 31
0.0
  0
LINE
  5
301
330
2FD
100
AcDbEntity
  8
0 ... Seuil ... Rectangle ... Cotes Angles
 62
     0
370
    -2
100
AcDbLine
 10
407.0842987766915
 20
307.8668991953963
 30
0.0
 11
257.8733411043783
 21
294.8126319252237
 31
0.0
  0
ARC
  5
302
330
2FD
100
AcDbEntity
  8
0 ... Seuil ... Rectangle ... Cotes Angles
 62
     0
370
    -2
100
AcDbCircle
 10
412.0652722671514
 20
308.3026779091347
 30
0.0
 40
144.7809192903098
100
AcDbArc
 50
97.92113134823178
 51
132.8517291697524
  0
ARC
  5
303
330
2FD
100
AcDbEntity
  8
0 ... Seuil ... Rectangle ... Cotes Angles
 62
     0
370
    -2
100
AcDbCircle
 10
412.0652722671514
 20
308.3026779091347
 30
0.0
 40
144.7809192903098
100
AcDbArc
 50
142.1482708302478
 51
177.078868651768
  0
SOLID
  5
304
330
2FD
100
AcDbEntity
  8
0 ... Seuil ... Rectangle ... Cotes Angles
 62
     0
100
AcDbTrace
 10
392.3432686940378
 20
448.3768269508308
 30
0.0
 11
391.8828028606017
 21
455.0275724474411
 31
0.0
 12
412.0652722671507
 22
453.0835971994445
 32
0.0
 13
412.0652722671507
 23
453.0835971994445
 33
0.0
  0
SOLID
  5
305
330
2FD
100
AcDbEntity
  8
0 ... Seuil ... Rectangle ... Cotes Angles
 62
     0
100
AcDbTrace
 10
264.1396921384103
 20
315.620429763281
 30
0.0
 11
270.8052617822141
 21
315.7413668049421
 31
0.0
 12
267.8352880852957
 22
295.6841893527002
 32
0.0
 13
267.8352880852957
 23
295.6841893527002
 33
0.0
  0
MTEXT
  5
306
330
2FD
100
AcDbEntity
  8
0 ... Seuil ... Rectangle ... Cotes Angles
 62
     0
100
AcDbMText
 10
294.2624216197182
 20
416.249102345496
 30
0.0
 40
20.0
 41
0.0
 46
0.0
 71
     5
 72
     1
  1
\A1;95%%d
  7
QCADDimTextStyle
 11
0.6755902076156591
 21
0.7372773368101252
 31
0.0
 73
     1
 44
1.0
  0
POINT
  5
307
330
2FD
100
AcDbEntity
  8
Defpoints
 62
     0
100
AcDbPoint
 10
336.0586803604306
 20
431.5281321678729
 30
0.0
  0
POINT
  5
308
330
2FD
100
AcDbEntity
  8
Defpoints
 62
     0
100
AcDbPoint
 10
412.0652722671514
 20
308.3026779091332
 30
0.0
  0
POINT
  5
309
330
2FD
100
AcDbEntity
  8
Defpoints
 62
     0
100
AcDbPoint
 10
604.0652722671515
 20
325.1005013061106
 30
0.0
  0
POINT
  5
30A
330
2FD
100
AcDbEntity
  8
Defpoints
 62
     0
100
AcDbPoint
 10
412.0652722671502
 20
308.3026779091346
 30
0.0
  0
POINT
  5
30B
330
2FD
100
AcDbEntity
  8
Defpoints
 62
     0
100
AcDbPoint
 10
412.0652722671516
 20
260.3026779091324
 30
0.0
  0
ENDBLK
  5
2FF
330
2FD
100
AcDbEntity
  8
0
100
AcDbBlockEnd
  0
BLOCK
  5
313
330
312
100
AcDbEntity
  8
0
100
AcDbBlockBegin
  2
*D13
 70
     1
 10
0.0
 20
0.0
 30
0.0
  3
*D13
  1
*D13
  0
LINE
  5
315
330
312
100
AcDbEntity
  8
0 ... Seuil ... Rectangle ... Cotes Angles
 62
     0
370
    -2
100
AcDbLine
 10
1580.065272267153
 20
399.4665178821526
 30
0.0
 11
1580.065272267153
 21
309.1306044885618
 31
0.0
  0
LINE
  5
316
330
312
100
AcDbEntity
  8
0 ... Seuil ... Rectangle ... Cotes Angles
 62
     0
370
    -2
100
AcDbLine
 10
1585.046245757612
 20
404.9022965958908
 30
0.0
 11
1675.038403727582
 21
412.7755902244974
 31
0.0
  0
ARC
  5
317
330
312
100
AcDbEntity
  8
0 ... Seuil ... Rectangle ... Cotes Angles
 62
     0
370
    -2
100
AcDbCircle
 10
1580.065272267153
 20
404.4665178821526
 30
0.0
 40
85.33591339359077
100
AcDbArc
 50
283.4592168613746
 51
300.4647561733962
  0
ARC
  5
318
330
312
100
AcDbEntity
  8
0 ... Seuil ... Rectangle ... Cotes Angles
 62
     0
370
    -2
100
AcDbCircle
 10
1580.065272267153
 20
404.4665178821526
 30
0.0
 40
85.33591339359077
100
AcDbArc
 50
334.5352438266045
 51
351.5407831386254
  0
SOLID
  5
319
330
312
100
AcDbEntity
  8
0 ... Seuil ... Rectangle ... Cotes Angles
 62
     0
100
AcDbTrace
 10
1599.536863589839
 20
324.7846510459769
 30
0.0
 11
1600.318089969396
 21
318.1639162084888
 31
0.0
 12
1580.065272267153
 22
319.1306044885618
 32
0.0
 13
1580.065272267153
 23
319.1306044885618
 33
0.0
  0
SOLID
  5
31A
330
312
100
AcDbEntity
  8
0 ... Seuil ... Rectangle ... Cotes Angles
 62
     0
100
AcDbTrace
 10
1667.804615855553
 20
391.812535615683
 30
0.0
 11
1661.140986547611
 21
392.0137541307106
 31
0.0
 12
1665.076456746664
 22
411.9040327970208
 32
0.0
 13
1665.076456746664
 23
411.9040327970208
 33
0.0
  0
MTEXT
  5
31B
330
312
100
AcDbEntity
  8
0 ... Seuil ... Rectangle ... Cotes Angles
 62
     0
100
AcDbMText
 10
1631.922347176087
 20
356.9482635497401
 30
0.0
 40
20.0
 41
0.0
 46
0.0
 71
     5
 72
     1
  1
\A1;95%%d
  7
QCADDimTextStyle
 11
0.6755902076156565
 21
0.7372773368101274
 31
0.0
 73
     1
 44
1.0
  0
POINT
  5
31C
330
312
100
AcDbEntity
  8
Defpoints
 62
     0
100
AcDbPoint
 10
1624.864628260246
 20
331.8356992352276
 30
0.0
  0
POINT
  5
31D
330
312
100
AcDbEntity
  8
Defpoints
 62
     0
100
AcDbPoint
 10
1580.065272267153
 20
405.382849056169
 30
0.0
  0
POINT
  5
31E
330
312
100
AcDbEntity
  8
Defpoints
 62
     0
100
AcDbPoint
 10
418.0652722671505
 20
302.8046908650292
 30
0.0
  0
POINT
  5
31F
330
312
100
AcDbEntity
  8
Defpoints
 62
     0
100
AcDbPoint
 10
1579.152428009902
 20
404.3866543580784
 30
0.0
  0
POINT
  5
320
330
312
100
AcDbEntity
  8
Defpoints
 62
     0
100
AcDbPoint
 10
1580.065272267153
 20
484.4665178821525
 30
0.0
  0
ENDBLK
  5
314
330
312
100
AcDbEntity
  8
0
100
AcDbBlockEnd
  0
BLOCK
  5
322
330
321
100
AcDbEntity
  8
0
100
AcDbBlockBegin
  2
*D14
 70
     1
 10
0.0
 20
0.0
 30
0.0
  3
*D14
  1
*D14
  0
LINE
  5
324
330
321
100
AcDbEntity
  8
0 ... Seuil ... Rectangle ... Cotes Angles
 62
     0
370
    -2
100
AcDbLine
 10
431.4342697694331
 20
860.4009402387294
 30
0.0
 11
431.4342697694191
 21
911.5881225650755
 31
0.0
  0
LINE
  5
325
330
321
100
AcDbEntity
  8
0 ... Seuil ... Rectangle ... Cotes Angles
 62
     0
370
    -2
100
AcDbLine
 10
436.4533689571501
 20
860.4009402387308
 30
0.0
 11
436.4533689571362
 21
911.5881225650769
 31
0.0
  0
LINE
  5
326
330
321
100
AcDbEntity
  8
0 ... Seuil ... Rectangle ... Cotes Angles
 62
     0
370
    -2
100
AcDbLine
 10
411.4342697694273
 20
881.5881225650701
 30
0.0
 11
451.4342697694164
 21
921.588122565081
 31
0.0
  0
LINE
  5
327
330
321
100
AcDbEntity
  8
0 ... Seuil ... Rectangle ... Cotes Angles
 62
     0
370
    -2
100
AcDbLine
 10
456.4533689571335
 20
921.5881225650824
 30
0.0
 11
416.4533689571444
 21
881.5881225650714
 31
0.0
  0
MTEXT
  5
328
330
321
100
AcDbEntity
  8
0 ... Seuil ... Rectangle ... Cotes Angles
 62
     0
100
AcDbMText
 10
440.8977628945872
 20
925.4832183103013
 30
0.0
 40
20.0
 41
0.0
 46
0.0
 71
     5
 72
     1
  1
\A1;5.0191
  7
QCADDimTextStyle
 73
     1
 44
1.0
  0
POINT
  5
329
330
321
100
AcDbEntity
  8
Defpoints
 62
     0
100
AcDbPoint
 10
431.4342697694344
 20
855.4009402387294
 30
0.0
  0
POINT
  5
32A
330
321
100
AcDbEntity
  8
Defpoints
 62
     0
100
AcDbPoint
 10
436.4533689571515
 20
855.4009402387308
 30
0.0
  0
POINT
  5
32B
330
321
100
AcDbEntity
  8
Defpoints
 62
     0
100
AcDbPoint
 10
436.4533689571389
 20
901.5881225650769
 30
0.0
  0
ENDBLK
  5
323
330
321
100
AcDbEntity
  8
0
100
AcDbBlockEnd
  0
BLOCK
  5
32D
330
32C
100
AcDbEntity
  8
0
100
AcDbBlockBegin
  2
*D15
 70
     1
 10
0.0
 20
0.0
 30
0.0
  3
*D15
  1
*D15
  0
LINE
  5
32F
330
32C
100
AcDbEntity
  8
0 ... Seuil ... Rectangle ... Cotes Angles
 62
     0
370
    -2
100
AcDbLine
 10
395.1061350568271
 20
1104.40094023873
 30
0.0
 11
395.1061350568364
 21
1195.483218310299
 31
0.0
  0
LINE
  5
330
330
32C
100
AcDbEntity
  8
0 ... Seuil ... Rectangle ... Cotes Angles
 62
     0
370
    -2
100
AcDbLine
 10
415.106135056826
 20
1104.400940238728
 30
0.0
 11
415.1061350568353
 21
1195.483218310297
 31
0.0
  0
LINE
  5
331
330
32C
100
AcDbEntity
  8
0 ... Seuil ... Rectangle ... Cotes Angles
 62
     0
370
    -2
100
AcDbLine
 10
395.1061350568354
 20
1185.483218310299
 30
0.0
 11
415.1061350568343
 21
1185.483218310297
 31
0.0
  0
LINE
  5
332
330
32C
100
AcDbEntity
  8
0 ... Seuil ... Rectangle ... Cotes Angles
 62
     0
370
    -2
100
AcDbLine
 10
415.1061350568374
 20
1205.483218310297
 30
0.0
 11
375.1061350568334
 21
1165.483218310301
 31
0.0
  0
LINE
  5
333
330
32C
100
AcDbEntity
  8
0 ... Seuil ... Rectangle ... Cotes Angles
 62
     0
370
    -2
100
AcDbLine
 10
395.1061350568323
 20
1165.483218310299
 30
0.0
 11
435.1061350568364
 21
1205.483218310295
 31
0.0
  0
MTEXT
  5
334
330
32C
100
AcDbEntity
  8
0 ... Seuil ... Rectangle ... Cotes Angles
 62
     0
100
AcDbMText
 10
440.8977628945875
 20
1200.4832183103
 30
0.0
 40
20.0
 41
0.0
 46
0.0
 71
     5
 72
     1
  1
\A1;20
  7
QCADDimTextStyle
 73
     1
 44
1.0
  0
POINT
  5
335
330
32C
100
AcDbEntity
  8
Defpoints
 62
     0
100
AcDbPoint
 10
395.1061350568266
 20
1099.40094023873
 30
0.0
  0
POINT
  5
336
330
32C
100
AcDbEntity
  8
Defpoints
 62
     0
100
AcDbPoint
 10
415.1061350568255
 20
1099.400940238728
 30
0.0
  0
POINT
  5
337
330
32C
100
AcDbEntity
  8
Defpoints
 62
     0
100
AcDbPoint
 10
415.1061350568343
 20
1185.483218310297
 30
0.0
  0
ENDBLK
  5
32E
330
32C
100
AcDbEntity
  8
0
100
AcDbBlockEnd
  0
BLOCK
  5
339
330
338
100
AcDbEntity
  8
0
100
AcDbBlockBegin
  2
*D16
 70
     1
 10
0.0
 20
0.0
 30
0.0
  3
*D16
  1
*D16
  0
LINE
  5
33B
330
338
100
AcDbEntity
  8
0 ... Seuil ... Rectangle ... Cotes Angles
 62
     0
370
    -2
100
AcDbLine
 10
367.0148711042805
 20
1080.400940238726
 30
0.0
 11
367.0148711042805
 21
1155.4832183103
 31
0.0
  0
LINE
  5
33C
330
338
100
AcDbEntity
  8
0 ... Seuil ... Rectangle ... Cotes Angles
 62
     0
370
    -2
100
AcDbLine
 10
395.1061350568266
 20
1104.40094023873
 30
0.0
 11
395.1061350568266
 21
1155.4832183103
 31
0.0
  0
LINE
  5
33D
330
338
100
AcDbEntity
  8
0 ... Seuil ... Rectangle ... Cotes Angles
 62
     0
370
    -2
100
AcDbLine
 10
367.0148711042805
 20
1145.4832183103
 30
0.0
 11
395.1061350568266
 21
1145.4832183103
 31
0.0
  0
LINE
  5
33E
330
338
100
AcDbEntity
  8
0 ... Seuil ... Rectangle ... Cotes Angles
 62
     0
370
    -2
100
AcDbLine
 10
387.0148711042805
 20
1165.4832183103
 30
0.0
 11
347.0148711042805
 21
1125.4832183103
 31
0.0
  0
LINE
  5
33F
330
338
100
AcDbEntity
  8
0 ... Seuil ... Rectangle ... Cotes Angles
 62
     0
370
    -2
100
AcDbLine
 10
375.1061350568266
 20
1125.4832183103
 30
0.0
 11
415.1061350568266
 21
1165.4832183103
 31
0.0
  0
MTEXT
  5
340
330
338
100
AcDbEntity
  8
0 ... Seuil ... Rectangle ... Cotes Angles
 62
     0
100
AcDbMText
 10
340.8977628945875
 20
1160.483218310302
 30
0.0
 40
20.0
 41
0.0
 46
0.0
 71
     5
 72
     1
  1
\A1;28.0913
  7
QCADDimTextStyle
 73
     1
 44
1.0
  0
POINT
  5
341
330
338
100
AcDbEntity
  8
Defpoints
 62
     0
100
AcDbPoint
 10
367.0148711042805
 20
1075.400940238726
 30
0.0
  0
POINT
  5
342
330
338
100
AcDbEntity
  8
Defpoints
 62
     0
100
AcDbPoint
 10
395.1061350568266
 20
1099.40094023873
 30
0.0
  0
POINT
  5
343
330
338
100
AcDbEntity
  8
Defpoints
 62
     0
100
AcDbPoint
 10
395.1061350568266
 20
1145.4832183103
 30
0.0
  0
ENDBLK
  5
33A
330
338
100
AcDbEntity
  8
0
100
AcDbBlockEnd
  0
ENDSEC
  0
SECTION
  2
ENTITIES
  0
LINE
  5
37
330
1B3
100
AcDbEntity
  8
0 ... Seuil ... Rectangle
100
AcDbLine
 10
395.1061350568255
 20
1099.400940238728
 30
0.0
 11
415.1061350568255
 21
1099.400940238728
 31
0.0
  0
LINE
  5
38
330
1B3
100
AcDbEntity
  8
0 ... Seuil ... Rectangle
100
AcDbLine
 10
439.0780288629294
 20
825.400940238728
 30
0.0
 11
415.1061350568255
 21
1099.400940238728
 31
0.0
  0
LINE
  5
39
330
1B3
100
AcDbEntity
  8
0 ... Seuil ... Rectangle
100
AcDbLine
 10
437.5722991066145
 20
825.400940238728
 30
0.0
 11
449.5722991066145
 21
825.400940238728
 31
0.0
  0
LINE
  5
3A
330
1B3
100
AcDbEntity
  8
0 ... Seuil ... Rectangle
100
AcDbLine
 10
395.1061350568255
 20
1097.900940238728
 30
0.0
 11
415.2373680521146
 21
1097.900940238728
 31
0.0
  0
LINE
  5
3B
330
1B3
100
AcDbEntity
  8
0 ... Seuil ... Rectangle
100
AcDbLine
 10
438.9467958676405
 20
826.900940238728
 30
0.0
 11
445.9509787630545
 21
826.900940238728
 31
0.0
  0
LINE
  5
3C
330
1B3
100
AcDbEntity
  8
0 ... Seuil ... Rectangle
100
AcDbLine
 10
395.1061350568255
 20
1075.400940238728
 30
0.0
 11
395.1061350568255
 21
1099.400940238728
 31
0.0
  0
LINE
  5
3D
330
1B3
100
AcDbEntity
  8
0 ... Seuil ... Rectangle
100
AcDbLine
 10
442.5012312947495
 20
832.472008050594
 30
0.0
 11
449.5722991066145
 21
825.400940238728
 31
0.0
  0
LINE
  5
3E
330
1B3
100
AcDbEntity
  8
0 ... Seuil ... Rectangle
100
AcDbLine
 10
441.4405711229695
 20
831.411347878814
 30
0.0
 11
445.9509787630545
 21
826.900940238728
 31
0.0
  0
LINE
  5
3F
330
1B3
100
AcDbEntity
  8
0 ... Seuil ... Rectangle
100
AcDbLine
 10
441.4405711229695
 20
831.411347878814
 30
0.0
 11
442.5012312947495
 21
832.472008050594
 31
0.0
  0
LINE
  5
40
330
1B3
100
AcDbEntity
  8
0 ... Seuil ... Rectangle
100
AcDbLine
 10
386.2623770799835
 20
855.400940238728
 30
0.0
 11
436.4533689571515
 21
855.400940238728
 31
0.0
  0
LINE
  5
41
330
1B3
100
AcDbEntity
  8
0 ... Seuil ... Rectangle
100
AcDbLine
 10
386.2623770799835
 20
855.4009402387289
 30
0.0
 11
367.0148711042805
 21
1075.400940238728
 31
0.0
  0
LINE
  5
42
330
1B3
100
AcDbEntity
  8
0 ... Seuil ... Rectangle
100
AcDbLine
 10
367.0148711042805
 20
1075.400940238728
 30
0.0
 11
395.1061350568255
 21
1075.400940238728
 31
0.0
  0
DIMENSION
  5
44
330
1B3
100
AcDbEntity
  8
0 ... Seuil ... Rectangle ... Cotes Angles
100
AcDbDimension
280
     0
  2
*D1
 10
336.7166908624517
 20
851.0662543680825
 30
0.0
 11
342.0358583459745
 21
962.3735905093018
 31
0.0
 70
   161
 71
     5
 42
220.8403642595332
 73
     0
 74
     0
 75
     0
  3
QCADDimStyle
100
AcDbAlignedDimension
 13
367.0148711042805
 23
1075.400940238726
 33
0.0
 14
386.2623770799835
 24
855.4009402387292
 34
0.0
1001
ACAD
1000
DSTYLE
1002
{
1070
   279
1070
     2
1070
    41
1040
20.0
1070
    79
1070
     2
1070
   176
1070
     0
1070
   177
1070
     0
1070
   178
1070
     0
1070
    44
1040
10.0
1070
    42
1040
5.0
1070
   147
1040
5.0
1070
   142
1040
20.0
1070
   140
1040
20.0
1070
    78
1070
     8
1002
}
  0
DIMENSION
  5
45
330
1B3
100
AcDbEntity
  8
0 ... Seuil ... Rectangle ... Cotes Angles
100
AcDbDimension
280
     0
  2
*D2
 10
282.7405925665405
 20
1075.400940238726
 30
0.0
 11
255.2405925665405
 21
1087.400940238728
 31
0.0
 70
    32
 71
     5
 42
24.00000000000409
 73
     0
 74
     0
 75
     0
  3
QCADDimStyle
100
AcDbAlignedDimension
 13
395.1061350568266
 23
1099.40094023873
 33
0.0
 14
367.0148711042805
 24
1075.400940238726
 34
0.0
 50
90.0
100
AcDbRotatedDimension
1001
ACAD
1000
DSTYLE
1002
{
1070
   279
1070
     2
1070
    41
1040
20.0
1070
    79
1070
     2
1070
   176
1070
     0
1070
   177
1070
     0
1070
   178
1070
     0
1070
    44
1040
10.0
1070
    42
1040
5.0
1070
   147
1040
5.0
1070
   142
1040
20.0
1070
   140
1040
20.0
1070
    78
1070
     8
1002
}
  0
DIMENSION
  5
46
330
1B3
100
AcDbEntity
  8
0 ... Seuil ... Rectangle ... Cotes Angles
100
AcDbDimension
280
     0
  2
*D3
 10
282.7405925665405
 20
855.4009402387292
 30
0.0
 11
267.7405925665405
 21
965.400940238738
 31
0.0
 70
   160
 71
     5
 42
219.9999999999968
 73
     0
 74
     0
 75
     0
  3
QCADDimStyle
100
AcDbAlignedDimension
 13
367.0148711042805
 23
1075.400940238726
 33
0.0
 14
386.2623770799835
 24
855.4009402387292
 34
0.0
 50
90.0
100
AcDbRotatedDimension
1001
ACAD
1000
DSTYLE
1002
{
1070
   279
1070
     2
1070
    41
1040
20.0
1070
    79
1070
     2
1070
   176
1070
     0
1070
   177
1070
     0
1070
   178
1070
     0
1070
    44
1040
10.0
1070
    42
1040
5.0
1070
   147
1040
5.0
1070
   142
1040
20.0
1070
   140
1040
20.0
1070
    78
1070
     8
1002
}
  0
DIMENSION
  5
47
330
1B3
100
AcDbEntity
  8
0 ... Seuil ... Rectangle ... Cotes Angles
100
AcDbDimension
280
     0
  2
*D4
 10
450.8977628945877
 20
1097.900940238727
 30
0.0
 11
478.3977628945877
 21
1098.650940238727
 31
0.0
 70
    32
 71
     5
 42
1.500000000001137
 73
     0
 74
     0
 75
     0
  3
QCADDimStyle
100
AcDbAlignedDimension
 13
415.1061350568255
 23
1099.400940238728
 33
0.0
 14
415.2373680521146
 24
1097.900940238727
 34
0.0
 50
90.0
100
AcDbRotatedDimension
1001
ACAD
1000
DSTYLE
1002
{
1070
   279
1070
     2
1070
    41
1040
20.0
1070
    79
1070
     2
1070
   176
1070
     0
1070
   177
1070
     0
1070
   178
1070
     0
1070
    44
1040
10.0
1070
    42
1040
5.0
1070
   147
1040
5.0
1070
   142
1040
20.0
1070
   140
1040
20.0
1070
    78
1070
     8
1002
}
  0
DIMENSION
  5
48
330
1B3
100
AcDbEntity
  8
0 ... Seuil ... Rectangle ... Cotes Angles
100
AcDbDimension
280
     0
  2
*D5
 10
423.127779254147
 20
1007.713127509179
 30
0.0
 11
396.9155756606642
 21
1020.477154411594
 31
0.0
 70
   161
 71
     5
 42
50.0000000000027
 73
     0
 74
     0
 75
     0
  3
QCADDimStyle
100
AcDbAlignedDimension
 13
373.2713776850965
 23
1003.888742787371
 33
0.0
 14
423.0811125896835
 24
1008.246529924788
 34
0.0
1001
ACAD
1000
DSTYLE
1002
{
1070
   279
1070
     2
1070
    41
1040
20.0
1070
    79
1070
     2
1070
   176
1070
     0
1070
   177
1070
     0
1070
   178
1070
     0
1070
    44
1040
10.0
1070
    42
1040
5.0
1070
   147
1040
5.0
1070
   142
1040
20.0
1070
   140
1040
20.0
1070
    78
1070
     8
1002
}
  0
LINE
  5
49
330
1B3
100
AcDbEntity
  8
0 ... Seuil ... Rectangle
100
AcDbLine
 10
612.1884662419175
 20
1099.400940238728
 30
0.0
 11
1426.188466241917
 21
1099.400940238728
 31
0.0
  0
LINE
  5
4A
330
1B3
100
AcDbEntity
  8
0 ... Seuil ... Rectangle
100
AcDbLine
 10
612.1884662419175
 20
1097.900940238728
 30
0.0
 11
1426.188466241917
 21
1097.900940238728
 31
0.0
  0
LINE
  5
4B
330
1B3
100
AcDbEntity
  8
0 ... Seuil ... Rectangle
100
AcDbLine
 10
612.1884662419175
 20
1099.400940238728
 30
0.0
 11
612.1884662419175
 21
825.400940238728
 31
0.0
  0
LINE
  5
4C
330
1B3
100
AcDbEntity
  8
0 ... Seuil ... Rectangle
100
AcDbLine
 10
1426.188466241917
 20
1099.400940238728
 30
0.0
 11
1426.188466241917
 21
825.400940238728
 31
0.0
  0
LINE
  5
4D
330
1B3
100
AcDbEntity
  8
0 ... Seuil ... Rectangle
100
AcDbLine
 10
610.6884662419175
 20
855.400940238728
 30
0.0
 11
613.6884662419175
 21
855.400940238728
 31
0.0
  0
LINE
  5
4E
330
1B3
100
AcDbEntity
  8
0 ... Seuil ... Rectangle
100
AcDbLine
 10
1424.688466241917
 20
855.400940238728
 30
0.0
 11
1427.688466241917
 21
855.400940238728
 31
0.0
  0
DIMENSION
  5
4F
330
1B3
100
AcDbEntity
  8
0 ... Seuil ... Rectangle ... Cotes Angles
100
AcDbDimension
280
     0
  2
*D6
 10
554.7819004325495
 20
825.4009402387292
 30
0.0
 11
539.7819004325495
 21
962.4009402387286
 31
0.0
 70
    32
 71
     5
 42
273.9999999999989
 73
     0
 74
     0
 75
     0
  3
QCADDimStyle
100
AcDbAlignedDimension
 13
415.1061350568255
 23
1099.400940238728
 33
0.0
 14
451.1470950500805
 24
825.4009402387292
 34
0.0
 50
90.0
100
AcDbRotatedDimension
1001
ACAD
1000
DSTYLE
1002
{
1070
   279
1070
     2
1070
    41
1040
20.0
1070
    79
1070
     2
1070
   176
1070
     0
1070
   177
1070
     0
1070
   178
1070
     0
1070
    44
1040
10.0
1070
    42
1040
5.0
1070
   147
1040
5.0
1070
   142
1040
20.0
1070
   140
1040
20.0
1070
    78
1070
     8
1002
}
  0
DIMENSION
  5
50
330
1B3
100
AcDbEntity
  8
0 ... Seuil ... Rectangle ... Cotes Angles
100
AcDbDimension
280
     0
  2
*D7
 10
490.9620539883891
 20
866.790695120497
 30
0.0
 11
504.5292704161245
 21
888.0240556003738
 31
0.0
 70
   161
 71
     5
 42
10.0
 73
     0
 74
     0
 75
     0
  3
QCADDimStyle
100
AcDbAlignedDimension
 13
442.5012312947495
 23
832.4720080505945
 33
0.0
 14
449.5722991066145
 24
825.4009402387285
 34
0.0
1001
ACAD
1000
DSTYLE
1002
{
1070
   279
1070
     2
1070
    41
1040
20.0
1070
    79
1070
     2
1070
   176
1070
     0
1070
   177
1070
     0
1070
   178
1070
     0
1070
    44
1040
10.0
1070
    42
1040
5.0
1070
   147
1040
5.0
1070
   142
1040
20.0
1070
   140
1040
20.0
1070
    78
1070
     8
1002
}
  0
DIMENSION
  5
51
330
1B3
100
AcDbEntity
  8
0 ... Seuil ... Rectangle ... Cotes Angles
100
AcDbDimension
280
     0
  2
*D8
 10
449.5722991066141
 20
788.5369928051169
 30
0.0
 11
443.4551047347393
 21
761.2787440250288
 31
0.0
 70
   161
 71
     5
 42
12.0
 73
     0
 74
     0
 75
     0
  3
QCADDimStyle
100
AcDbAlignedDimension
 13
437.5722991066145
 23
825.4009402387286
 33
0.0
 14
449.5722991066145
 24
825.4009402387285
 34
0.0
1001
ACAD
1000
DSTYLE
1002
{
1070
   279
1070
     2
1070
    41
1040
20.0
1070
    79
1070
     2
1070
   176
1070
     0
1070
   177
1070
     0
1070
   178
1070
     0
1070
    44
1040
10.0
1070
    42
1040
5.0
1070
   147
1040
5.0
1070
   142
1040
20.0
1070
   140
1040
20.0
1070
    78
1070
     8
1002
}
  0
DIMENSION
  5
52
330
1B3
100
AcDbEntity
  8
0 ... Seuil ... Rectangle ... Cotes Angles
100
AcDbDimension
280
     0
  2
*D9
 10
590.0786387947361
 20
855.4009402387267
 30
0.0
 11
575.0786387947355
 21
977.4009402387211
 31
0.0
 70
   161
 71
     5
 42
244.0000000000014
 73
     0
 74
     0
 75
     0
  3
QCADDimStyle
100
AcDbAlignedDimension
 13
612.1884662419175
 23
1099.400940238728
 33
0.0
 14
612.1884662419174
 24
855.4009402387267
 34
0.0
1001
ACAD
1000
DSTYLE
1002
{
1070
   279
1070
     2
1070
    41
1040
20.0
1070
    79
1070
     2
1070
   176
1070
     0
1070
   177
1070
     0
1070
   178
1070
     0
1070
    44
1040
10.0
1070
    42
1040
5.0
1070
   147
1040
5.0
1070
   142
1040
20.0
1070
   140
1040
20.0
1070
    78
1070
     8
1002
}
  0
DIMENSION
  5
53
330
1B3
100
AcDbEntity
  8
0 ... Seuil ... Rectangle ... Cotes Angles
100
AcDbDimension
280
     0
  2
*D10
 10
1426.188466241917
 20
1149.421062581534
 30
0.0
 11
1019.188466241917
 21
1164.421062581535
 31
0.0
 70
    33
 71
     5
 42
813.9999999999995
 73
     0
 74
     0
 75
     0
  3
QCADDimStyle
100
AcDbAlignedDimension
 13
612.1884662419175
 23
1099.400940238728
 33
0.0
 14
1426.188466241917
 24
1099.400940238726
 34
0.0
1001
ACAD
1000
DSTYLE
1002
{
1070
   279
1070
     2
1070
    41
1040
20.0
1070
    79
1070
     2
1070
   176
1070
     0
1070
   177
1070
     0
1070
   178
1070
     0
1070
    44
1040
10.0
1070
    42
1040
5.0
1070
   147
1040
5.0
1070
   142
1040
20.0
1070
   140
1040
20.0
1070
    78
1070
     8
1002
}
  0
LINE
  5
54
330
1B3
100
AcDbEntity
  8
0 ... Seuil ... Rectangle ... Cotes Angles
100
AcDbLine
 10
607.1884662419175
 20
1099.400940238728
 30
0.0
 11
515.6162974207275
 21
1099.400940238728
 31
0.0
  0
LINE
  5
55
330
1B3
100
AcDbEntity
  8
0 ... Seuil ... Rectangle ... Cotes Angles
100
AcDbLine
 10
515.6162974207275
 20
825.400940238728
 30
0.0
 11
607.1884662419175
 21
825.400940238728
 31
0.0
  0
LINE
  5
56
330
1B3
100
AcDbEntity
  8
0 ... Seuil ... Rectangle
100
AcDbLine
 10
613.6884662419175
 20
1097.900940238728
 30
0.0
 11
613.6884662419175
 21
825.400940238728
 31
0.0
  0
LINE
  5
57
330
1B3
100
AcDbEntity
  8
0 ... Seuil ... Rectangle
100
AcDbLine
 10
1424.688466241917
 20
1097.900940238728
 30
0.0
 11
1424.688466241917
 21
825.400940238728
 31
0.0
  0
DIMENSION
  5
58
330
1B3
100
AcDbEntity
  8
0 ... Seuil ... Rectangle ... Cotes Angles
100
AcDbDimension
280
     0
  2
*D11
 10
241.8498314557546
 20
855.4009402387292
 30
0.0
 11
226.8498314557535
 21
977.4009402387394
 31
0.0
 70
   160
 71
     5
 42
244.0000000000009
 73
     0
 74
     0
 75
     0
  3
QCADDimStyle
100
AcDbAlignedDimension
 13
395.1061350568266
 23
1099.40094023873
 33
0.0
 14
386.2623770799835
 24
855.4009402387292
 34
0.0
 50
90.0
100
AcDbRotatedDimension
1001
ACAD
1000
DSTYLE
1002
{
1070
   279
1070
     2
1070
    41
1040
20.0
1070
    79
1070
     2
1070
   176
1070
     0
1070
   177
1070
     0
1070
   178
1070
     0
1070
    44
1040
10.0
1070
    42
1040
5.0
1070
   147
1040
5.0
1070
   142
1040
20.0
1070
   140
1040
20.0
1070
    78
1070
     8
1002
}
  0
MTEXT
  5
59
330
1B3
100
AcDbEntity
  8
0 ... Seuil ... Rectangle ... Cotes Angles
100
AcDbMText
 10
480.8977628945884
 20
1655.483218310299
 30
0.0
 40
100.0
 41
0.0
 46
0.0
 71
     1
 72
     1
  1
(Acier - RAL 7016 - paisseur 15/10e)
  7
textstyle11
 73
     1
 44
1.0
  0
MTEXT
  5
5A
330
1B3
100
AcDbEntity
  8
0 ... Seuil ... Rectangle ... Cotes Angles
100
AcDbMText
 10
941.3849515018154
 20
703.2818489775996
 30
0.0
 40
50.0
 41
0.0
 46
0.0
 71
     1
 72
     1
  1
Relevs
  7
textstyle12
 73
     1
 44
1.0
  0
LEADER
  5
5B
330
1B3
100
AcDbEntity
  8
0 ... Seuil ... Rectangle ... Cotes Angles
100
AcDbLeader
  3
QCADDimStyle
 76
     2
 10
996.4017379232355
 20
560.966817208212
 30
0.0
 10
1062.057704163437
 20
627.8150504184271
 30
0.0
  0
LEADER
  5
5C
330
1B3
100
AcDbEntity
  8
0 ... Seuil ... Rectangle ... Cotes Angles
100
AcDbLeader
  3
QCADDimStyle
 76
     4
 10
1586.391709080423
 20
464.6911014505511
 30
0.0
 10
1683.343847992371
 20
583.844828560553
 30
0.0
 10
1508.01764953051
 20
637.7477051103169
 30
0.0
 10
1062.057704163437
 20
627.8150504184271
 30
0.0
  0
LEADER
  5
5D
330
1B3
100
AcDbEntity
  8
0 ... Seuil ... Rectangle ... Cotes Angles
100
AcDbLeader
  3
QCADDimStyle
 76
     2
 10
1069.333369688528
 20
1097.900940238728
 30
0.0
 10
1027.994355667645
 20
736.5347331395849
 30
0.0
  0
LEADER
  5
5E
330
1B3
100
AcDbEntity
  8
0 ... Seuil ... Rectangle ... Cotes Angles
100
AcDbLeader
  3
QCADDimStyle
 76
     2
 10
1423.688466241917
 20
1017.980976751906
 30
0.0
 10
1027.994355667645
 20
736.5347331395849
 30
0.0
  0
LEADER
  5
5F
330
1B3
100
AcDbEntity
  8
0 ... Seuil ... Rectangle ... Cotes Angles
100
AcDbLeader
  3
QCADDimStyle
 76
     2
 10
613.6884662419175
 20
1063.30782453832
 30
0.0
 10
1027.994355667645
 20
736.5347331395849
 30
0.0
  0
LINE
  5
60
330
1B3
100
AcDbEntity
  8
0 ... Seuil ... Rectangle
100
AcDbLine
 10
1427.688466241917
 20
855.400940238728
 30
0.0
 11
1427.688466241917
 21
825.400940238728
 31
0.0
  0
LINE
  5
61
330
1B3
100
AcDbEntity
  8
0 ... Seuil ... Rectangle
100
AcDbLine
 10
1427.688466241917
 20
825.400940238728
 30
0.0
 11
1426.188466241917
 21
825.400940238728
 31
0.0
  0
LINE
  5
62
330
1B3
100
AcDbEntity
  8
0 ... Seuil ... Rectangle
100
AcDbLine
 10
610.6884662419175
 20
855.400940238728
 30
0.0
 11
610.6884662419175
 21
825.400940238728
 31
0.0
  0
LINE
  5
63
330
1B3
100
AcDbEntity
  8
0 ... Seuil ... Rectangle
100
AcDbLine
 10
610.6884662419175
 20
825.400940238728
 30
0.0
 11
612.1884662419175
 21
825.400940238728
 31
0.0
  0
LINE
  5
64
330
1B3
100
AcDbEntity
  8
0 ... Seuil ... Rectangle
100
AcDbLine
 10
437.5722991066145
 20
825.400940238728
 30
0.0
 11
431.4342697694344
 21
855.400940238728
 31
0.0
  0
LINE
  5
65
330
1B3
100
AcDbEntity
  8
0 ... Seuil ... Rectangle
100
AcDbLine
 10
612.1884662419186
 20
1366.892346151539
 30
0.0
 11
1426.188466241917
 21
1366.892346151539
 31
0.0
  0
LINE
  5
66
330
1B3
100
AcDbEntity
  8
0 ... Seuil ... Rectangle
100
AcDbLine
 10
610.6884662419175
 20
1378.892346151539
 30
0.0
 11
610.6884662419175
 21
1385.605171432185
 31
0.0
  0
LINE
  5
67
330
1B3
100
AcDbEntity
  8
0 ... Seuil ... Rectangle
100
AcDbLine
 10
612.1884662419175
 20
1379.892346151539
 30
0.0
 11
612.1884662419175
 21
1451.024570097337
 31
0.0
  0
LINE
  5
68
330
1B3
100
AcDbEntity
  8
0 ... Seuil ... Rectangle
100
AcDbLine
 10
613.6884662419175
 20
1378.892346151539
 30
0.0
 11
613.6884662419175
 21
1385.605171432185
 31
0.0
  0
LINE
  5
69
330
1B3
100
AcDbEntity
  8
0 ... Seuil ... Rectangle
100
AcDbLine
 10
1426.188466241917
 20
1379.892346151539
 30
0.0
 11
1426.188466241917
 21
1451.024570097337
 31
0.0
  0
LINE
  5
6A
330
1B3
100
AcDbEntity
  8
0 ... Seuil ... Rectangle
100
AcDbLine
 10
1424.688466241917
 20
1378.892346151539
 30
0.0
 11
1424.688466241917
 21
1451.024570097337
 31
0.0
  0
LINE
  5
6B
330
1B3
100
AcDbEntity
  8
0 ... Seuil ... Rectangle
100
AcDbLine
 10
1427.688466241917
 20
1378.892346151539
 30
0.0
 11
1427.688466241917
 21
1385.605171432185
 31
0.0
  0
LINE
  5
6C
330
1B3
100
AcDbEntity
  8
0 ... Seuil ... Rectangle
100
AcDbLine
 10
611.6884662419186
 20
1386.605171432185
 30
0.0
 11
612.1884662419186
 21
1386.605171432185
 31
0.0
  0
LINE
  5
6D
330
1B3
100
AcDbEntity
  8
0 ... Seuil ... Rectangle
100
AcDbLine
 10
612.1884662419186
 20
1378.892346151539
 30
0.0
 11
610.6884662419175
 21
1378.892346151539
 31
0.0
  0
LINE
  5
6E
330
1B3
100
AcDbEntity
  8
0 ... Seuil ... Rectangle
100
AcDbLine
 10
1426.688466241917
 20
1386.605171432185
 30
0.0
 11
1426.188466241917
 21
1386.605171432185
 31
0.0
  0
LINE
  5
6F
330
1B3
100
AcDbEntity
  8
0 ... Seuil ... Rectangle
100
AcDbLine
 10
1426.188466241917
 20
1378.892346151539
 30
0.0
 11
1427.688466241917
 21
1378.892346151539
 31
0.0
  0
LINE
  5
70
330
1B3
100
AcDbEntity
  8
0 ... Seuil ... Rectangle
100
AcDbLine
 10
421.7642208211566
 20
1006.088101847651
 30
0.0
 11
421.6334872070345
 21
1007.582393894788
 31
0.0
  0
LINE
  5
71
330
1B3
100
AcDbEntity
  8
0 ... Seuil ... Rectangle
100
AcDbLine
 10
1776.283312537591
 20
492.719807612958
 30
0.0
 11
2163.283312537591
 21
492.719807612958
 31
0.0
  0
LINE
  5
72
330
1B3
100
AcDbEntity
  8
0 ... Seuil ... Rectangle
100
AcDbLine
 10
2166.283312537591
 20
495.719807612958
 30
0.0
 11
2166.283312537591
 21
792.719807612958
 31
0.0
  0
LINE
  5
73
330
1B3
100
AcDbEntity
  8
0 ... Seuil ... Rectangle
100
AcDbLine
 10
1776.283312537591
 20
497.219807612958
 30
0.0
 11
2158.783312537591
 21
497.219807612958
 31
0.0
  0
LINE
  5
74
330
1B3
100
AcDbEntity
  8
0 ... Seuil ... Rectangle
100
AcDbLine
 10
2161.783312537591
 20
500.219807612958
 30
0.0
 11
2161.783312537591
 21
792.719807612958
 31
0.0
  0
ARC
  5
75
330
1B3
100
AcDbEntity
  8
0 ... Seuil ... Rectangle
100
AcDbCircle
 10
2158.783312537591
 20
500.219807612958
 30
0.0
 40
3.0
100
AcDbArc
 50
270.0
 51
0.0
  0
ARC
  5
76
330
1B3
100
AcDbEntity
  8
0 ... Seuil ... Rectangle
100
AcDbCircle
 10
2163.283312537591
 20
495.719807612958
 30
0.0
 40
3.0
100
AcDbArc
 50
270.0
 51
0.0
  0
LINE
  5
77
330
1B3
100
AcDbEntity
  8
0 ... Seuil ... Rectangle
100
AcDbLine
 10
2352.768023164206
 20
391.065201129861
 30
0.0
 11
2769.768023164206
 21
391.065201129861
 31
0.0
  0
LINE
  5
78
330
1B3
100
AcDbEntity
  8
0 ... Seuil ... Rectangle
100
AcDbLine
 10
2772.768023164206
 20
394.065201129861
 30
0.0
 11
2772.768023164206
 21
691.0652011298621
 31
0.0
  0
LINE
  5
79
330
1B3
100
AcDbEntity
  8
0 ... Seuil ... Rectangle
100
AcDbLine
 10
2768.268023164206
 20
398.565201129861
 30
0.0
 11
2768.268023164206
 21
691.0652011298621
 31
0.0
  0
LINE
  5
7A
330
1B3
100
AcDbEntity
  8
0 ... Seuil ... Rectangle
100
AcDbLine
 10
2352.768023164206
 20
395.565201129861
 30
0.0
 11
2765.268023164206
 21
395.565201129861
 31
0.0
  0
LINE
  5
7B
330
1B3
100
AcDbEntity
  8
0 ... Seuil ... Rectangle
100
AcDbLine
 10
2765.268023164206
 20
691.0652011298621
 30
0.0
 11
2352.768023164206
 21
691.0652011298621
 31
0.0
  0
ARC
  5
7C
330
1B3
100
AcDbEntity
  8
0 ... Seuil ... Rectangle
100
AcDbCircle
 10
2765.268023164206
 20
398.565201129861
 30
0.0
 40
3.0
100
AcDbArc
 50
270.0
 51
0.0
  0
ARC
  5
7D
330
1B3
100
AcDbEntity
  8
0 ... Seuil ... Rectangle
100
AcDbCircle
 10
2769.768023164206
 20
394.065201129861
 30
0.0
 40
3.0
100
AcDbArc
 50
270.0
 51
0.0
  0
LINE
  5
7E
330
1B3
100
AcDbEntity
  8
0 ... Seuil ... Rectangle
100
AcDbLine
 10
2765.268023164206
 20
395.565201129861
 30
0.0
 11
2765.268023164206
 21
691.0652011298621
 31
0.0
  0
LINE
  5
7F
330
1B3
100
AcDbEntity
  8
0 ... Seuil ... Rectangle
100
AcDbLine
 10
2768.268023164206
 20
691.0652011298621
 30
0.0
 11
2772.768023164206
 21
691.0652011298621
 31
0.0
  0
LINE
  5
80
330
1B3
100
AcDbEntity
  8
0 ... Seuil ... Rectangle
100
AcDbLine
 10
1749.446496426056
 20
199.3303664306666
 30
0.0
 11
2166.446496426056
 21
199.3303664306666
 31
0.0
  0
LINE
  5
81
330
1B3
100
AcDbEntity
  8
0 ... Seuil ... Rectangle
100
AcDbLine
 10
2169.446496426056
 20
199.3303664306666
 30
0.0
 11
2169.446496426056
 21
349.330366430667
 31
0.0
  0
LINE
  5
82
330
1B3
100
AcDbEntity
  8
0 ... Seuil ... Rectangle
100
AcDbLine
 10
2173.946496426056
 20
199.3303664306666
 30
0.0
 11
2173.946496426056
 21
349.330366430667
 31
0.0
  0
LINE
  5
83
330
1B3
100
AcDbEntity
  8
0 ... Seuil ... Rectangle
100
AcDbLine
 10
2164.946496426056
 20
206.8303664306666
 30
0.0
 11
2164.946496426056
 21
349.330366430667
 31
0.0
  0
LINE
  5
84
330
1B3
100
AcDbEntity
  8
0 ... Seuil ... Rectangle
100
AcDbLine
 10
1749.446496426056
 20
203.8303664306666
 30
0.0
 11
2161.946496426056
 21
203.8303664306666
 31
0.0
  0
ARC
  5
85
330
1B3
100
AcDbEntity
  8
0 ... Seuil ... Rectangle
100
AcDbCircle
 10
2161.946496426056
 20
206.8303664306666
 30
0.0
 40
3.0
100
AcDbArc
 50
270.0
 51
0.0
  0
ARC
  5
86
330
1B3
100
AcDbEntity
  8
0 ... Seuil ... Rectangle
100
AcDbCircle
 10
2169.446496426056
 20
349.330366430667
 30
0.0
 40
4.5
100
AcDbArc
 50
0.0
 51
180.0
  0
ARC
  5
87
330
1B3
100
AcDbEntity
  8
0 ... Seuil ... Rectangle
100
AcDbCircle
 10
2166.446496426056
 20
202.3303664306666
 30
0.0
 40
3.0
100
AcDbArc
 50
270.0
 51
0.0
  0
LINE
  5
88
330
1B3
100
AcDbEntity
  8
0 ... Seuil ... Rectangle
100
AcDbLine
 10
2169.446496426056
 20
199.3303664306666
 30
0.0
 11
2173.946496426056
 21
199.3303664306666
 31
0.0
  0
LINE
  5
89
330
1B3
100
AcDbEntity
  8
0 ... Seuil ... Rectangle
100
AcDbLine
 10
2164.946496426056
 20
349.330366430667
 30
0.0
 11
2164.946496426056
 21
424.753028522495
 31
0.0
  0
LINE
  5
8A
330
1B3
100
AcDbEntity
  8
0 ... Seuil ... Rectangle
100
AcDbLine
 10
2169.446496426056
 20
353.830366430667
 30
0.0
 11
2169.446496426056
 21
424.753028522495
 31
0.0
  0
LINE
  5
8B
330
1B3
100
AcDbEntity
  8
0 ... Seuil ... Rectangle
100
AcDbLine
 10
2164.946496426056
 20
424.753028522495
 30
0.0
 11
2169.446496426056
 21
424.753028522495
 31
0.0
  0
LINE
  5
8C
330
1B3
100
AcDbEntity
  8
0 ... Seuil ... Rectangle
100
AcDbLine
 10
1580.065272267153
 20
484.4665178821531
 30
0.0
 11
1580.065272267153
 21
405.38284905617
 31
0.0
  0
LINE
  5
8D
330
1B3
100
AcDbEntity
  8
0 ... Seuil ... Rectangle
100
AcDbLine
 10
412.0652722671516
 20
302.2797588838735
 30
0.0
 11
1579.152428009902
 21
404.3866543580791
 31
0.0
  0
LINE
  5
8E
330
1B3
100
AcDbEntity
  8
0 ... Seuil ... Rectangle
100
AcDbLine
 10
412.0652722671516
 20
308.302677909133
 30
0.0
 11
412.0652722671516
 21
260.3026779091326
 31
0.0
  0
LINE
  5
8F
330
1B3
100
AcDbEntity
  8
0 ... Seuil ... Rectangle
100
AcDbLine
 10
1574.065272267153
 20
484.4665178821531
 30
0.0
 11
1574.065272267153
 21
403.9415859009971
 31
0.0
  0
LINE
  5
90
330
1B3
100
AcDbEntity
  8
0 ... Seuil ... Rectangle
100
AcDbLine
 10
418.0652722671516
 20
302.804690865029
 30
0.0
 11
418.0652722671516
 21
274.7879592833704
 31
0.0
  0
LINE
  5
91
330
1B3
100
AcDbEntity
  8
0 ... Seuil ... Rectangle
100
AcDbLine
 10
1484.065272267153
 20
484.4665178821531
 30
0.0
 11
1580.065272267153
 21
484.4665178821531
 31
0.0
  0
LINE
  5
92
330
1B3
100
AcDbEntity
  8
0 ... Seuil ... Rectangle
100
AcDbLine
 10
440.3495435146135
 20
288.5869491565934
 30
0.0
 11
412.0652722671516
 21
260.3026779091326
 31
0.0
  0
LINE
  5
93
330
1B3
100
AcDbEntity
  8
0 ... Seuil ... Rectangle
100
AcDbLine
 10
436.1069028274935
 20
292.8295898437134
 30
0.0
 11
418.0652722671505
 21
274.7879592833704
 31
0.0
  0
LINE
  5
94
330
1B3
100
AcDbEntity
  8
0 ... Seuil ... Rectangle
100
AcDbLine
 10
436.1069028274935
 20
292.8295898437134
 30
0.0
 11
440.3495435146135
 21
288.5869491565934
 31
0.0
  0
LINE
  5
95
330
1B3
100
AcDbEntity
  8
0 ... Seuil ... Rectangle
100
AcDbLine
 10
604.0652722671516
 20
519.841549789518
 30
0.0
 11
604.0652722671516
 21
319.077582280848
 31
0.0
  0
LINE
  5
96
330
1B3
100
AcDbEntity
  8
0 ... Seuil ... Rectangle
100
AcDbLine
 10
604.0652722671534
 20
519.841549789521
 30
0.0
 11
1484.065272267153
 21
596.831573692335
 31
0.0
  0
LINE
  5
97
330
1B3
100
AcDbEntity
  8
0 ... Seuil ... Rectangle
100
AcDbLine
 10
1484.065272267153
 20
596.831573692335
 30
0.0
 11
1484.065272267153
 21
484.4665178821531
 31
0.0
  0
LINE
  5
98
330
1B3
100
AcDbEntity
  8
0 ... Seuil ... Rectangle
100
AcDbLine
 10
412.0652722671505
 20
308.302677909133
 30
0.0
 11
604.0652722671516
 21
351.1998170822369
 31
0.0
  0
DIMENSION
  5
9A
330
1B3
100
AcDbEntity
  8
0 ... Seuil ... Rectangle ... Cotes Angles
100
AcDbDimension
280
     0
  2
*D12
 10
412.0652722671516
 20
260.3026779091324
 30
0.0
 11
294.2624216197182
 21
416.249102345496
 31
0.0
 70
   162
 71
     5
 42
1.6580627893946
 73
     0
 74
     0
 75
     0
  3
QCADDimStyle
100
AcDb2LineAngularDimension
 13
604.0652722671515
 23
325.1005013061106
 33
0.0
 14
412.0652722671502
 24
308.3026779091346
 34
0.0
 15
412.0652722671514
 25
308.3026779091332
 35
0.0
 16
336.0586803604306
 26
431.5281321678729
 36
0.0
1001
ACAD
1000
DSTYLE
1002
{
1070
   279
1070
     2
1070
    41
1040
20.0
1070
    79
1070
     2
1070
   176
1070
     0
1070
   177
1070
     0
1070
   178
1070
     0
1070
    44
1040
10.0
1070
    42
1040
5.0
1070
   147
1040
5.0
1070
   142
1040
20.0
1070
   140
1040
20.0
1070
    78
1070
     8
1002
}
  0
LEADER
  5
9B
330
1B3
100
AcDbEntity
  8
0 ... Seuil ... Rectangle ... Cotes Angles
100
AcDbLeader
  3
QCADDimStyle
 76
     3
 10
542.7615110857525
 20
337.5031713778969
 30
0.0
 10
575.9461911180774
 20
537.883427666713
 30
0.0
 10
1062.057704163437
 20
627.8150504184271
 30
0.0
  0
MTEXT
  5
9C
330
1B3
100
AcDbEntity
  8
0 ... Seuil ... Rectangle ... Cotes Angles
100
AcDbMText
 10
620.4126587524164
 20
504.8138418465174
 30
0.0
 40
50.0
 41
0.0
 46
0.0
 71
     1
 72
     1
  1
A
  7
textstyle13
 73
     1
 44
1.0
  0
MTEXT
  5
9D
330
1B3
100
AcDbEntity
  8
0 ... Seuil ... Rectangle ... Cotes Angles
100
AcDbMText
 10
584.8335464833335
 20
299.8103854389407
 30
0.0
 40
50.0
 41
0.0
 46
0.0
 71
     1
 72
     1
  1
B
  7
textstyle14
 73
     1
 44
1.0
  0
MTEXT
  5
9E
330
1B3
100
AcDbEntity
  8
0 ... Seuil ... Rectangle ... Cotes Angles
100
AcDbMText
 10
2055.086501393549
 20
329.0238825083122
 30
0.0
 40
50.0
 41
0.0
 46
0.0
 71
     1
 72
     1
  1
B
  7
textstyle15
 73
     1
 44
1.0
  0
MTEXT
  5
9F
330
1B3
100
AcDbEntity
  8
0 ... Seuil ... Rectangle ... Cotes Angles
100
AcDbMText
 10
1495.775214487277
 20
465.4832183103001
 30
0.0
 40
50.0
 41
0.0
 46
0.0
 71
     1
 72
     1
  1
C
  7
textstyle16
 73
     1
 44
1.0
  0
MTEXT
  5
A0
330
1B3
100
AcDbEntity
  8
0 ... Seuil ... Rectangle ... Cotes Angles
100
AcDbMText
 10
2583.690455105645
 20
570.9618459380781
 30
0.0
 40
50.0
 41
0.0
 46
0.0
 71
     1
 72
     1
  1
C
  7
textstyle17
 73
     1
 44
1.0
  0
MTEXT
  5
A1
330
1B3
100
AcDbEntity
  8
0 ... Seuil ... Rectangle ... Cotes Angles
100
AcDbMText
 10
2048.987225004561
 20
636.0207940872644
 30
0.0
 40
50.0
 41
0.0
 46
0.0
 71
     1
 72
     1
  1
A
  7
textstyle18
 73
     1
 44
1.0
  0
ARC
  5
A2
330
1B3
100
AcDbEntity
  8
0 ... Seuil ... Rectangle
100
AcDbCircle
 10
1579.065272267153
 20
405.38284905617
 30
0.0
 40
1.0
100
AcDbArc
 50
274.9999999999746
 51
0.0
  0
DIMENSION
  5
A3
330
1B3
100
AcDbEntity
  8
0 ... Seuil ... Rectangle ... Cotes Angles
100
AcDbDimension
280
     0
  2
*D13
 10
1580.065272267153
 20
484.4665178821525
 30
0.0
 11
1631.922347176087
 21
356.9482635497401
 31
0.0
 70
   162
 71
     5
 42
1.658062789394613
 73
     0
 74
     0
 75
     0
  3
QCADDimStyle
100
AcDb2LineAngularDimension
 13
418.0652722671505
 23
302.8046908650292
 33
0.0
 14
1579.152428009902
 24
404.3866543580784
 34
0.0
 15
1580.065272267153
 25
405.382849056169
 35
0.0
 16
1624.864628260246
 26
331.8356992352276
 36
0.0
1001
ACAD
1000
DSTYLE
1002
{
1070
   279
1070
     2
1070
    41
1040
20.0
1070
    79
1070
     2
1070
   176
1070
     0
1070
   177
1070
     0
1070
   178
1070
     0
1070
    44
1040
10.0
1070
    42
1040
5.0
1070
   147
1040
5.0
1070
   142
1040
20.0
1070
   140
1040
20.0
1070
    78
1070
     8
1002
}
  0
LINE
  5
A4
330
1B3
100
AcDbEntity
  8
0 ... Seuil ... Rectangle
100
AcDbLine
 10
612.1884662419186
 20
1386.605171432185
 30
0.0
 11
612.6884662419175
 21
1386.605171432185
 31
0.0
  0
LINE
  5
A5
330
1B3
100
AcDbEntity
  8
0 ... Seuil ... Rectangle
100
AcDbLine
 10
612.1884662419186
 20
1451.024570097339
 30
0.0
 11
613.6884662419175
 21
1451.024570097339
 31
0.0
  0
LINE
  5
A6
330
1B3
100
AcDbEntity
  8
0 ... Seuil ... Rectangle
100
AcDbLine
 10
1425.688466241917
 20
1386.605171432185
 30
0.0
 11
1426.188466241917
 21
1386.605171432185
 31
0.0
  0
LINE
  5
A7
330
1B3
100
AcDbEntity
  8
0 ... Seuil ... Rectangle
100
AcDbLine
 10
1426.188466241917
 20
1451.024570097337
 30
0.0
 11
1424.688466241917
 21
1451.024570097337
 31
0.0
  0
ARC
  5
A8
330
1B3
100
AcDbEntity
  8
0 ... Seuil ... Rectangle
100
AcDbCircle
 10
1425.188466241917
 20
1379.892346151539
 30
0.0
 40
1.0
100
AcDbArc
 50
270.0
 51
0.0
  0
LINE
  5
A9
330
1B3
100
AcDbEntity
  8
0 ... Seuil ... Rectangle
100
AcDbLine
 10
1426.188466241917
 20
1366.892346151539
 30
0.0
 11
1426.188466241917
 21
1379.892346151539
 31
0.0
  0
LINE
  5
AA
330
1B3
100
AcDbEntity
  8
0 ... Seuil ... Rectangle
100
AcDbLine
 10
1424.688466241917
 20
1378.892346151539
 30
0.0
 11
1424.688466241917
 21
1385.605171432185
 31
0.0
  0
LINE
  5
AB
330
1B3
100
AcDbEntity
  8
0 ... Seuil ... Rectangle
100
AcDbLine
 10
613.6884662419175
 20
1422.933306144793
 30
0.0
 11
1424.688466241917
 21
1422.933306144793
 31
0.0
  0
LINE
  5
AC
330
1B3
100
AcDbEntity
  8
0 ... Seuil ... Rectangle
100
AcDbLine
 10
613.6884662419175
 20
1402.933306144793
 30
0.0
 11
1424.688466241917
 21
1402.933306144793
 31
0.0
  0
ARC
  5
AD
330
1B3
100
AcDbEntity
  8
0 ... Seuil ... Rectangle
100
AcDbCircle
 10
1425.688466241917
 20
1385.605171432185
 30
0.0
 40
1.0
100
AcDbArc
 50
90.0
 51
180.0
  0
ARC
  5
AE
330
1B3
100
AcDbEntity
  8
0 ... Seuil ... Rectangle
100
AcDbCircle
 10
1426.688466241917
 20
1385.605171432185
 30
0.0
 40
1.0
100
AcDbArc
 50
0.0
 51
90.0
  0
ARC
  5
AF
330
1B3
100
AcDbEntity
  8
0 ... Seuil ... Rectangle
100
AcDbCircle
 10
611.6884662419175
 20
1385.605171432185
 30
0.0
 40
1.0
100
AcDbArc
 50
89.99999999997394
 51
180.0
  0
ARC
  5
B0
330
1B3
100
AcDbEntity
  8
0 ... Seuil ... Rectangle
100
AcDbCircle
 10
612.6884662419175
 20
1385.605171432185
 30
0.0
 40
1.0
100
AcDbArc
 50
0.0
 51
90.0
  0
LINE
  5
B1
330
1B3
100
AcDbEntity
  8
0 ... Seuil ... Rectangle
100
AcDbLine
 10
613.6884662419175
 20
1378.892346151539
 30
0.0
 11
613.6884662419175
 21
1451.024570097339
 31
0.0
  0
ARC
  5
B2
330
1B3
100
AcDbEntity
  8
0 ... Seuil ... Rectangle
100
AcDbCircle
 10
613.1884662419175
 20
1379.892346151539
 30
0.0
 40
1.0
100
AcDbArc
 50
180.0
 51
270.0
  0
LINE
  5
B3
330
1B3
100
AcDbEntity
  8
0 ... Seuil ... Rectangle
100
AcDbLine
 10
612.1884662419186
 20
1366.892346151539
 30
0.0
 11
612.1884662419175
 21
1379.892346151539
 31
0.0
  0
DIMENSION
  5
B4
330
1B3
100
AcDbEntity
  8
0 ... Seuil ... Rectangle ... Cotes Angles
100
AcDbDimension
280
     0
  2
*D14
 10
436.4533689571389
 20
901.5881225650769
 30
0.0
 11
440.8977628945872
 21
925.4832183103013
 31
0.0
 70
   161
 71
     5
 42
5.019099187717075
 73
     0
 74
     0
 75
     0
  3
QCADDimStyle
100
AcDbAlignedDimension
 13
431.4342697694344
 23
855.4009402387294
 33
0.0
 14
436.4533689571515
 24
855.4009402387308
 34
0.0
1001
ACAD
1000
DSTYLE
1002
{
1070
   279
1070
     2
1070
    41
1040
20.0
1070
    79
1070
     2
1070
   176
1070
     0
1070
   177
1070
     0
1070
   178
1070
     0
1070
    44
1040
10.0
1070
    42
1040
5.0
1070
   147
1040
5.0
1070
   142
1040
20.0
1070
   140
1040
20.0
1070
    78
1070
     8
1002
}
  0
DIMENSION
  5
B5
330
1B3
100
AcDbEntity
  8
0 ... Seuil ... Rectangle ... Cotes Angles
100
AcDbDimension
280
     0
  2
*D15
 10
415.1061350568343
 20
1185.483218310297
 30
0.0
 11
440.8977628945875
 21
1200.4832183103
 31
0.0
 70
   161
 71
     5
 42
19.99999999999892
 73
     0
 74
     0
 75
     0
  3
QCADDimStyle
100
AcDbAlignedDimension
 13
395.1061350568266
 23
1099.40094023873
 33
0.0
 14
415.1061350568255
 24
1099.400940238728
 34
0.0
1001
ACAD
1000
DSTYLE
1002
{
1070
   279
1070
     2
1070
    41
1040
20.0
1070
    79
1070
     2
1070
   176
1070
     0
1070
   177
1070
     0
1070
   178
1070
     0
1070
    44
1040
10.0
1070
    42
1040
5.0
1070
   147
1040
5.0
1070
   142
1040
20.0
1070
   140
1040
20.0
1070
    78
1070
     8
1002
}
  0
DIMENSION
  5
B6
330
1B3
100
AcDbEntity
  8
0 ... Seuil ... Rectangle ... Cotes Angles
100
AcDbDimension
280
     0
  2
*D16
 10
395.1061350568266
 20
1145.4832183103
 30
0.0
 11
340.8977628945875
 21
1160.483218310302
 31
0.0
 70
   160
 71
     5
 42
28.09126395254611
 73
     0
 74
     0
 75
     0
  3
QCADDimStyle
100
AcDbAlignedDimension
 13
367.0148711042805
 23
1075.400940238726
 33
0.0
 14
395.1061350568266
 24
1099.40094023873
 34
0.0
100
AcDbRotatedDimension
1001
ACAD
1000
DSTYLE
1002
{
1070
   279
1070
     2
1070
    41
1040
20.0
1070
    79
1070
     2
1070
   176
1070
     0
1070
   177
1070
     0
1070
   178
1070
     0
1070
    44
1040
10.0
1070
    42
1040
5.0
1070
   147
1040
5.0
1070
   142
1040
20.0
1070
   140
1040
20.0
1070
    78
1070
     8
1002
}
  0
MTEXT
  5
B7
330
1B3
100
AcDbEntity
  8
0 ... Seuil ... Rectangle ... Cotes Angles
100
AcDbMText
 10
211.9826264690855
 20
1800.669633569334
 30
0.0
 40
100.0
 41
0.0
 46
0.0
 71
     1
 72
     1
  1
Fentre SdB - Seuil - Dessus, Profil & Face\P
  7
textstyle19
 73
     1
 44
1.0
  0
LINE
  5
B8
330
1B3
100
AcDbEntity
  8
0 ... Seuil ... Rectangle
100
AcDbLine
 10
613.1884662419175
 20
1378.892346151539
 30
0.0
 11
1425.188466241917
 21
1378.892346151539
 31
0.0
  0
LINE
  5
B9
330
1B3
100
AcDbEntity
  8
0 ... Seuil ... Rectangle
100
AcDbLine
 10
1426.188466241917
 20
1378.892346151539
 30
0.0
 11
1427.688466241917
 21
1378.892346151539
 31
0.0
  0
LINE
  5
BA
330
1B3
100
AcDbEntity
  8
0 ... Seuil ... Rectangle
100
AcDbLine
 10
612.1884662419175
 20
825.400940238728
 30
0.0
 11
1426.188466241917
 21
825.400940238728
 31
0.0
  0
ENDSEC
  0
SECTION
  2
OBJECTS
  0
DICTIONARY
  5
1A1
330
0
100
AcDbDictionary
281
     1
  3
ACAD_DETAILVIEWSTYLE
350
34C
  3
ACAD_GROUP
350
1A2
  3
ACAD_LAYOUT
350
1AE
  3
ACAD_MATERIAL
350
1D7
  3
ACAD_MLEADERSTYLE
350
1FF
  3
ACAD_MLINESTYLE
350
1AB
  3
ACAD_PLOTSETTINGS
350
1AD
  3
ACAD_PLOTSTYLENAME
350
1A3
  3
ACAD_SCALELIST
350
1DB
  3
ACAD_SECTIONVIEWSTYLE
350
34D
  3
ACAD_TABLESTYLE
350
1FD
  3
ACAD_VISUALSTYLE
350
1BE
  3
ACDB_RECOMPOSE_DATA
350
349
  3
AcDbVariableDictionary
350
345
  3
QCAD_OBJECTS
350
203
  0
SUN
  5
201
330
1BD
100
AcDbSun
 90
        1
290
     0
 63
     7
421
 16777215
 40
1.0
291
     1
 91
  2455826
 92
 54000000
292
     0
 70
     2
 71
   256
280
     1
  0
DICTIONARY
  5
34C
102
{ACAD_REACTORS
330
1A1
102
}
330
1A1
100
AcDbDictionary
281
     1
  0
DICTIONARY
  5
1A2
102
{ACAD_REACTORS
330
1A1
102
}
330
1A1
100
AcDbDictionary
281
     1
  0
DICTIONARY
  5
1AE
102
{ACAD_REACTORS
330
1A1
102
}
330
1A1
100
AcDbDictionary
281
     1
  3
Layout1
350
1B2
  3
Layout2
350
1BA
  3
Model
350
1B6
  0
DICTIONARY
  5
1D7
102
{ACAD_REACTORS
330
1A1
102
}
330
1A1
100
AcDbDictionary
281
     1
  3
ByBlock
350
1D9
  3
ByLayer
350
1D8
  3
Global
350
1DA
  0
DICTIONARY
  5
1FF
102
{ACAD_REACTORS
330
1A1
102
}
330
1A1
100
AcDbDictionary
281
     1
  3
Standard
350
200
  0
DICTIONARY
  5
1AB
102
{ACAD_REACTORS
330
1A1
102
}
330
1A1
100
AcDbDictionary
281
     1
  3
Standard
350
1AC
  0
DICTIONARY
  5
1AD
102
{ACAD_REACTORS
330
1A1
102
}
330
1A1
100
AcDbDictionary
281
     1
  0
ACDBDICTIONARYWDFLT
  5
1A3
102
{ACAD_REACTORS
330
1A1
102
}
330
1A1
100
AcDbDictionary
281
     1
  3
Normal
350
1A4
100
AcDbDictionaryWithDefault
340
1A4
  0
DICTIONARY
  5
1DB
102
{ACAD_REACTORS
330
1A1
102
}
330
1A1
100
AcDbDictionary
281
     1
  3
A0
350
1DC
  3
A1
350
1DD
  3
A2
350
1DE
  3
A3
350
1DF
  3
A4
350
1E0
  3
A5
350
1E1
  3
A6
350
1E2
  3
A7
350
1E3
  3
A8
350
1E4
  3
A9
350
1E5
  3
B0
350
1E6
  3
B1
350
1E7
  3
B2
350
1E8
  3
B3
350
1E9
  3
B4
350
1EA
  3
B5
350
1EB
  3
B6
350
1EC
  3
B7
350
1ED
  3
B8
350
1EE
  3
B9
350
1EF
  3
C0
350
1F0
  3
C1
350
1F1
  3
C2
350
1F2
  3
C3
350
1F3
  3
C4
350
1F4
  3
C5
350
1F5
  3
C6
350
1F6
  3
C7
350
1F7
  3
C8
350
1F8
  3
C9
350
1F9
  3
D0
350
1FA
  3
D1
350
1FB
  3
D2
350
1FC
  0
DICTIONARY
  5
34D
102
{ACAD_REACTORS
330
1A1
102
}
330
1A1
100
AcDbDictionary
281
     1
  0
DICTIONARY
  5
1FD
102
{ACAD_REACTORS
330
1A1
102
}
330
1A1
100
AcDbDictionary
281
     1
  3
Standard
350
1FE
  0
DICTIONARY
  5
1BE
102
{ACAD_REACTORS
330
1A1
102
}
330
1A1
100
AcDbDictionary
281
     1
  3
2dWireframe
350
1C3
  3
Basic
350
1C6
  3
Brighten
350
1CA
  3
ColorChange
350
1CE
  3
Conceptual
350
1C8
  3
Dim
350
1C9
  3
EdgeColorOff
350
1D1
  3
Facepattern
350
1CD
  3
Flat
350
1BF
  3
FlatWithEdges
350
1C0
  3
Gouraud
350
1C1
  3
GouraudWithEdges
350
1C2
  3
Hidden
350
1C5
  3
JitterOff
350
1CF
  3
Linepattern
350
1CC
  3
OverhangOff
350
1D0
  3
Realistic
350
1C7
  3
Shaded
350
1D6
  3
Shaded with edges
350
1D5
  3
Shades of Gray
350
1D2
  3
Sketchy
350
1D3
  3
Thicken
350
1CB
  3
Wireframe
350
1C4
  3
X-Ray
350
1D4
  0
XRECORD
  5
349
102
{ACAD_REACTORS
330
1A1
102
}
330
1A1
100
AcDbXrecord
280
     1
 90
        1
330
1FE
  0
DICTIONARY
  5
345
102
{ACAD_REACTORS
330
1A1
102
}
330
1A1
100
AcDbDictionary
281
     1
  3
CANNOSCALE
350
346
  3
CMLEADERSTYLE
350
34B
  3
CTABLESTYLE
350
34A
  0
DICTIONARY
  5
203
102
{ACAD_REACTORS
330
1A1
102
}
330
1A1
100
AcDbDictionary
281
     1
  3
DimensionSettings/AngularFormat
350
205
  3
DimensionSettings/AngularPrecision
350
206
  3
DimensionSettings/DimensionFont
350
207
  3
DimensionSettings/KeepProportions
350
208
  3
DimensionSettings/LinearFormat
350
209
  3
DimensionSettings/LinearPrecision
350
20A
  3
Grid/DisplayGrid00
350
20B
  3
Grid/DisplayGrid01
350
20C
  3
Grid/DisplayGrid02
350
20D
  3
Grid/DisplayGrid03
350
20E
  3
Grid/GridSpacingX00
350
20F
  3
Grid/GridSpacingX01
350
210
  3
Grid/GridSpacingX02
350
211
  3
Grid/GridSpacingX03
350
212
  3
Grid/GridSpacingY00
350
213
  3
Grid/GridSpacingY01
350
214
  3
Grid/GridSpacingY02
350
215
  3
Grid/GridSpacingY03
350
216
  3
Grid/IsometricGrid00
350
217
  3
Grid/IsometricGrid01
350
218
  3
Grid/IsometricGrid02
350
219
  3
Grid/IsometricGrid03
350
21A
  3
Grid/IsometricProjection00
350
21B
  3
Grid/IsometricProjection01
350
21C
  3
Grid/IsometricProjection02
350
21D
  3
Grid/IsometricProjection03
350
21E
  3
Grid/MetaGridSpacingX00
350
21F
  3
Grid/MetaGridSpacingX01
350
220
  3
Grid/MetaGridSpacingX02
350
221
  3
Grid/MetaGridSpacingX03
350
222
  3
Grid/MetaGridSpacingY00
350
223
  3
Grid/MetaGridSpacingY01
350
224
  3
Grid/MetaGridSpacingY02
350
225
  3
Grid/MetaGridSpacingY03
350
226
  3
MultiPageSettings/Columns
350
227
  3
MultiPageSettings/GlueMarginsBottom
350
228
  3
MultiPageSettings/GlueMarginsLeft
350
229
  3
MultiPageSettings/GlueMarginsRight
350
22A
  3
MultiPageSettings/GlueMarginsTop
350
22B
  3
MultiPageSettings/PrintCropMarks
350
22C
  3
MultiPageSettings/Rows
350
22D
  3
PageSettings/OffsetX
350
22E
  3
PageSettings/OffsetY
350
22F
  3
PageSettings/PageOrientation
350
230
  3
PageSettings/PaperHeight
350
231
  3
PageSettings/PaperWidth
350
232
  3
PageSettings/Scale
350
233
  3
PageSettings/ShowPaperBorders
350
234
  3
QCADVersion
350
235
  3
UnitSettings/PaperUnit
350
236
  0
LAYOUT
  5
1B2
102
{ACAD_REACTORS
330
1AE
102
}
330
1AE
100
AcDbPlotSettings
  1

  2
none_device
  4

  6

 40
0.0
 41
0.0
 42
0.0
 43
0.0
 44
0.0
 45
0.0
 46
0.0
 47
0.0
 48
0.0
 49
0.0
140
0.0
141
0.0
142
1.0
143
1.0
 70
   688
 72
     0
 73
     0
 74
     5
  7

 75
    16
 76
     0
 77
     2
 78
   300
147
1.0
148
0.0
149
0.0
100
AcDbLayout
  1
Layout1
 70
     1
 71
     1
 10
0.0
 20
0.0
 11
12.0
 21
9.0
 12
0.0
 22
0.0
 32
0.0
 14
1.000000000000000E+20
 24
1.000000000000000E+20
 34
1.000000000000000E+20
 15
-1.000000000000000E+20
 25
-1.000000000000000E+20
 35
-1.000000000000000E+20
146
0.0
 13
0.0
 23
0.0
 33
0.0
 16
1.0
 26
0.0
 36
0.0
 17
0.0
 27
1.0
 37
0.0
 76
     0
330
1AF
  0
LAYOUT
  5
1BA
102
{ACAD_REACTORS
330
1AE
102
}
330
1AE
100
AcDbPlotSettings
  1

  2
none_device
  4

  6

 40
0.0
 41
0.0
 42
0.0
 43
0.0
 44
0.0
 45
0.0
 46
0.0
 47
0.0
 48
0.0
 49
0.0
140
0.0
141
0.0
142
1.0
143
1.0
 70
   688
 72
     0
 73
     0
 74
     5
  7

 75
    16
 76
     0
 77
     2
 78
   300
147
1.0
148
0.0
149
0.0
100
AcDbLayout
  1
Layout2
 70
     1
 71
     2
 10
0.0
 20
0.0
 11
0.0
 21
0.0
 12
0.0
 22
0.0
 32
0.0
 14
0.0
 24
0.0
 34
0.0
 15
0.0
 25
0.0
 35
0.0
146
0.0
 13
0.0
 23
0.0
 33
0.0
 16
1.0
 26
0.0
 36
0.0
 17
0.0
 27
1.0
 37
0.0
 76
     0
330
1B7
  0
LAYOUT
  5
1B6
102
{ACAD_REACTORS
330
1AE
102
}
330
1AE
100
AcDbPlotSettings
  1

  2
none_device
  4
Letter_(8.50_x_11.00_Inches)
  6

 40
6.35
 41
6.35
 42
6.35000508
 43
6.35000508
 44
215.9
 45
279.4
 46
0.0
 47
0.0
 48
0.0
 49
0.0
140
0.0
141
0.0
142
1.0
143
1.0
 70
  1712
 72
     0
 73
     0
 74
     0
  7

 75
     0
 76
     0
 77
     2
 78
   300
147
1.0
148
0.0
149
0.0
100
AcDbLayout
  1
Model
 70
     1
 71
     0
 10
0.0
 20
0.0
 11
12.0
 21
9.0
 12
0.0
 22
0.0
 32
0.0
 14
1.000000000000000E+20
 24
1.000000000000000E+20
 34
1.000000000000000E+20
 15
-1.000000000000000E+20
 25
-1.000000000000000E+20
 35
-1.000000000000000E+20
146
0.0
 13
0.0
 23
0.0
 33
0.0
 16
1.0
 26
0.0
 36
0.0
 17
0.0
 27
1.0
 37
0.0
 76
     0
330
1B3
331
1BD
  0
MATERIAL
  5
1D9
102
{ACAD_REACTORS
330
1D7
102
}
330
1D7
100
AcDbMaterial
  1
ByBlock
 72
     1
 94
      127
  0
MATERIAL
  5
1D8
102
{ACAD_REACTORS
330
1D7
102
}
330
1D7
100
AcDbMaterial
  1
ByLayer
 72
     1
 94
      127
  0
MATERIAL
  5
1DA
102
{ACAD_REACTORS
330
1D7
102
}
330
1D7
100
AcDbMaterial
  1
Global
 72
     1
 94
      127
  0
MLEADERSTYLE
  5
200
102
{ACAD_REACTORS
330
1FF
102
}
330
1FF
100
AcDbMLeaderStyle
179
     2
170
     2
171
     1
172
     0
 90
        2
 40
0.0
 41
0.0
173
     1
 91
-1056964608
340
1A8
 92
       -2
290
     1
 42
0.09
291
     1
 43
0.36
  3
Standard
341
0
 44
0.18
300

342
1A6
174
     1
178
     6
175
     1
176
     0
 93
-1056964608
 45
0.18
292
     0
297
     0
 46
0.18
343
0
 94
-1056964608
 47
1.0
 49
1.0
140
1.0
293
     1
141
0.0
294
     1
177
     0
142
1.0
295
     0
296
     0
143
0.125
271
     0
272
     9
273
     9
298
     0
  0
MLINESTYLE
  5
1AC
102
{ACAD_REACTORS
330
1AB
102
}
330
1AB
100
AcDbMlineStyle
  2
Standard
 70
     0
  3

 62
   256
 51
90.0
 52
90.0
 71
     2
 49
0.5
 62
   256
  6
BYLAYER
 49
-0.5
 62
   256
  6
BYLAYER
  0
ACDBPLACEHOLDER
  5
1A4
102
{ACAD_REACTORS
330
1A3
102
}
330
1A3
  0
SCALE
  5
1DC
102
{ACAD_REACTORS
330
1DB
102
}
330
1DB
100
AcDbScale
 70
     0
300
1:1
140
1.0
141
1.0
290
     1
  0
SCALE
  5
1DD
102
{ACAD_REACTORS
330
1DB
102
}
330
1DB
100
AcDbScale
 70
     0
300
1:2
140
1.0
141
2.0
290
     0
  0
SCALE
  5
1DE
102
{ACAD_REACTORS
330
1DB
102
}
330
1DB
100
AcDbScale
 70
     0
300
1:4
140
1.0
141
4.0
290
     0
  0
SCALE
  5
1DF
102
{ACAD_REACTORS
330
1DB
102
}
330
1DB
100
AcDbScale
 70
     0
300
1:5
140
1.0
141
5.0
290
     0
  0
SCALE
  5
1E0
102
{ACAD_REACTORS
330
1DB
102
}
330
1DB
100
AcDbScale
 70
     0
300
1:8
140
1.0
141
8.0
290
     0
  0
SCALE
  5
1E1
102
{ACAD_REACTORS
330
1DB
102
}
330
1DB
100
AcDbScale
 70
     0
300
1:10
140
1.0
141
10.0
290
     0
  0
SCALE
  5
1E2
102
{ACAD_REACTORS
330
1DB
102
}
330
1DB
100
AcDbScale
 70
     0
300
1:16
140
1.0
141
16.0
290
     0
  0
SCALE
  5
1E3
102
{ACAD_REACTORS
330
1DB
102
}
330
1DB
100
AcDbScale
 70
     0
300
1:20
140
1.0
141
20.0
290
     0
  0
SCALE
  5
1E4
102
{ACAD_REACTORS
330
1DB
102
}
330
1DB
100
AcDbScale
 70
     0
300
1:30
140
1.0
141
30.0
290
     0
  0
SCALE
  5
1E5
102
{ACAD_REACTORS
330
1DB
102
}
330
1DB
100
AcDbScale
 70
     0
300
1:40
140
1.0
141
40.0
290
     0
  0
SCALE
  5
1E6
102
{ACAD_REACTORS
330
1DB
102
}
330
1DB
100
AcDbScale
 70
     0
300
1:50
140
1.0
141
50.0
290
     0
  0
SCALE
  5
1E7
102
{ACAD_REACTORS
330
1DB
102
}
330
1DB
100
AcDbScale
 70
     0
300
1:100
140
1.0
141
100.0
290
     0
  0
SCALE
  5
1E8
102
{ACAD_REACTORS
330
1DB
102
}
330
1DB
100
AcDbScale
 70
     0
300
2:1
140
2.0
141
1.0
290
     0
  0
SCALE
  5
1E9
102
{ACAD_REACTORS
330
1DB
102
}
330
1DB
100
AcDbScale
 70
     0
300
4:1
140
4.0
141
1.0
290
     0
  0
SCALE
  5
1EA
102
{ACAD_REACTORS
330
1DB
102
}
330
1DB
100
AcDbScale
 70
     0
300
8:1
140
8.0
141
1.0
290
     0
  0
SCALE
  5
1EB
102
{ACAD_REACTORS
330
1DB
102
}
330
1DB
100
AcDbScale
 70
     0
300
10:1
140
10.0
141
1.0
290
     0
  0
SCALE
  5
1EC
102
{ACAD_REACTORS
330
1DB
102
}
330
1DB
100
AcDbScale
 70
     0
300
100:1
140
100.0
141
1.0
290
     0
  0
SCALE
  5
1ED
102
{ACAD_REACTORS
330
1DB
102
}
330
1DB
100
AcDbScale
 70
     0
300
1/128" = 1'-0"
140
0.0078125
141
12.0
290
     0
  0
SCALE
  5
1EE
102
{ACAD_REACTORS
330
1DB
102
}
330
1DB
100
AcDbScale
 70
     0
300
1/64" = 1'-0"
140
0.015625
141
12.0
290
     0
  0
SCALE
  5
1EF
102
{ACAD_REACTORS
330
1DB
102
}
330
1DB
100
AcDbScale
 70
     0
300
1/32" = 1'-0"
140
0.03125
141
12.0
290
     0
  0
SCALE
  5
1F0
102
{ACAD_REACTORS
330
1DB
102
}
330
1DB
100
AcDbScale
 70
     0
300
1/16" = 1'-0"
140
0.0625
141
12.0
290
     0
  0
SCALE
  5
1F1
102
{ACAD_REACTORS
330
1DB
102
}
330
1DB
100
AcDbScale
 70
     0
300
3/32" = 1'-0"
140
0.09375
141
12.0
290
     0
  0
SCALE
  5
1F2
102
{ACAD_REACTORS
330
1DB
102
}
330
1DB
100
AcDbScale
 70
     0
300
1/8" = 1'-0"
140
0.125
141
12.0
290
     0
  0
SCALE
  5
1F3
102
{ACAD_REACTORS
330
1DB
102
}
330
1DB
100
AcDbScale
 70
     0
300
3/16" = 1'-0"
140
0.1875
141
12.0
290
     0
  0
SCALE
  5
1F4
102
{ACAD_REACTORS
330
1DB
102
}
330
1DB
100
AcDbScale
 70
     0
300
1/4" = 1'-0"
140
0.25
141
12.0
290
     0
  0
SCALE
  5
1F5
102
{ACAD_REACTORS
330
1DB
102
}
330
1DB
100
AcDbScale
 70
     0
300
3/8" = 1'-0"
140
0.375
141
12.0
290
     0
  0
SCALE
  5
1F6
102
{ACAD_REACTORS
330
1DB
102
}
330
1DB
100
AcDbScale
 70
     0
300
1/2" = 1'-0"
140
0.5
141
12.0
290
     0
  0
SCALE
  5
1F7
102
{ACAD_REACTORS
330
1DB
102
}
330
1DB
100
AcDbScale
 70
     0
300
3/4" = 1'-0"
140
0.75
141
12.0
290
     0
  0
SCALE
  5
1F8
102
{ACAD_REACTORS
330
1DB
102
}
330
1DB
100
AcDbScale
 70
     0
300
1" = 1'-0"
140
1.0
141
12.0
290
     0
  0
SCALE
  5
1F9
102
{ACAD_REACTORS
330
1DB
102
}
330
1DB
100
AcDbScale
 70
     0
300
1-1/2" = 1'-0"
140
1.5
141
12.0
290
     0
  0
SCALE
  5
1FA
102
{ACAD_REACTORS
330
1DB
102
}
330
1DB
100
AcDbScale
 70
     0
300
3" = 1'-0"
140
3.0
141
12.0
290
     0
  0
SCALE
  5
1FB
102
{ACAD_REACTORS
330
1DB
102
}
330
1DB
100
AcDbScale
 70
     0
300
6" = 1'-0"
140
6.0
141
12.0
290
     0
  0
SCALE
  5
1FC
102
{ACAD_REACTORS
330
1DB
102
}
330
1DB
100
AcDbScale
 70
     0
300
1'-0" = 1'-0"
140
12.0
141
12.0
290
     0
  0
TABLESTYLE
  5
1FE
102
{ACAD_REACTORS
330
1FD
102
}
102
{ACAD_XDICTIONARY
360
347
102
}
330
1FD
100
AcDbTableStyle
  3
Standard
 70
     0
 71
     0
 40
0.06
 41
0.06
280
     0
281
     0
  7
Standard
140
0.18
170
     2
 62
     0
 63
   257
283
     0
 90
        4
 91
        0
  1

274
    -2
284
     1
 64
     0
275
    -2
285
     1
 65
     0
276
    -2
286
     1
 66
     0
277
    -2
287
     1
 67
     0
278
    -2
288
     1
 68
     0
279
    -2
289
     1
 69
     0
  7
Standard
140
0.25
170
     5
 62
     0
 63
   257
283
     0
 90
        4
 91
        0
  1

274
    -2
284
     1
 64
     0
275
    -2
285
     1
 65
     0
276
    -2
286
     1
 66
     0
277
    -2
287
     1
 67
     0
278
    -2
288
     1
 68
     0
279
    -2
289
     1
 69
     0
  7
Standard
140
0.18
170
     5
 62
     0
 63
   257
283
     0
 90
        4
 91
        0
  1

274
    -2
284
     1
 64
     0
275
    -2
285
     1
 65
     0
276
    -2
286
     1
 66
     0
277
    -2
287
     1
 67
     0
278
    -2
288
     1
 68
     0
279
    -2
289
     1
 69
     0
  0
VISUALSTYLE
  5
1C3
102
{ACAD_REACTORS
330
1BE
102
}
330
1BE
100
AcDbVisualStyle
  2
2dWireframe
 70
     4
177
     3
291
     0
 70
    58
 90
        0
176
     1
 90
        2
176
     1
 90
        0
176
     1
 90
        0
176
     1
 40
0.6
176
     1
 40
30.0
176
     1
 62
     7
420
 16777215
176
     1
 90
        1
176
     1
 90
        4
176
     1
 62
     7
176
     1
 62
   257
176
     1
 90
        1
176
     1
 90
        1
176
     1
 40
1.0
176
     1
 90
        0
176
     1
 62
   257
176
     1
 40
1.0
176
     1
 90
        1
176
     1
 90
        6
176
     1
 90
        2
176
     1
 62
     7
176
     1
 90
        5
176
     1
 90
        0
176
     1
 90
        0
176
     1
290
     0
176
     1
 90
        1
176
     1
 40
0.0
176
     1
 90
        0
176
     1
290
     1
176
     1
290
     1
176
     1
290
     0
176
     1
290
     0
176
     1
290
     0
176
     1
290
     0
176
     1
290
     0
176
     1
290
     0
176
     1
290
     0
176
     1
 90
       50
176
     1
 40
0.0
176
     1
 40
1.0
176
     1
 90
        0
176
     1
 62
   178
420
        0
176
     1
 90
       50
176
     1
 90
        3
176
     1
 62
     5
420
      255
176
     1
290
     0
176
     1
 90
       50
176
     1
 90
       50
176
     1
 90
       50
176
     1
290
     0
176
     1
 90
       50
176
     1
 62
   256
176
     0
 40
1.0
176
     0
 90
        2
176
     1
  1
strokes_ogs.tif
176
     1
290
     0
176
     1
 40
1.0
176
     1
 40
1.0
176
     1
  0
VISUALSTYLE
  5
1C6
102
{ACAD_REACTORS
330
1BE
102
}
330
1BE
100
AcDbVisualStyle
  2
Basic
 70
     7
177
     3
291
     1
 70
    58
 90
        1
176
     1
 90
        0
176
     1
 90
        1
176
     1
 90
        0
176
     1
 40
0.6
176
     1
 40
30.0
176
     1
 62
     7
420
 16777215
176
     1
 90
        0
176
     1
 90
        4
176
     1
 62
     7
176
     1
 62
   257
176
     1
 90
        1
176
     1
 90
        1
176
     1
 40
1.0
176
     1
 90
        8
176
     1
 62
     7
176
     1
 40
1.0
176
     1
 90
        1
176
     1
 90
        6
176
     1
 90
        2
176
     1
 62
     7
176
     1
 90
        5
176
     1
 90
        0
176
     1
 90
        0
176
     1
290
     0
176
     1
 90
        1
176
     1
 40
0.0
176
     1
 90
        0
176
     1
290
     0
176
     1
290
     1
176
     1
290
     1
176
     1
290
     0
176
     1
290
     0
176
     1
290
     0
176
     1
290
     0
176
     1
290
     0
176
     1
290
     0
176
     1
 90
       50
176
     1
 40
0.0
176
     1
 40
1.0
176
     1
 90
        0
176
     1
 62
   178
420
        0
176
     1
 90
       50
176
     1
 90
        3
176
     1
 62
     5
420
      255
176
     1
290
     0
176
     1
 90
       50
176
     1
 90
       50
176
     1
 90
       50
176
     1
290
     0
176
     1
 90
       50
176
     1
 62
   256
176
     0
 40
1.0
176
     0
 90
        2
176
     1
  1
strokes_ogs.tif
176
     1
290
     0
176
     1
 40
1.0
176
     1
 40
1.0
176
     1
  0
VISUALSTYLE
  5
1CA
102
{ACAD_REACTORS
330
1BE
102
}
330
1BE
100
AcDbVisualStyle
  2
Brighten
 70
    12
177
     3
291
     1
 70
    58
 90
        2
176
     1
 90
        2
176
     1
 90
        0
176
     1
 90
        0
176
     1
 40
0.6
176
     1
 40
30.0
176
     1
 62
     7
420
 16777215
176
     1
 90
        1
176
     1
 90
        4
176
     1
 62
     7
176
     1
 62
   257
176
     1
 90
        1
176
     1
 90
        1
176
     1
 40
1.0
176
     1
 90
        8
176
     1
 62
     7
176
     1
 40
1.0
176
     1
 90
        1
176
     1
 90
        6
176
     1
 90
        2
176
     1
 62
     7
176
     1
 90
        5
176
     1
 90
        0
176
     1
 90
        0
176
     1
290
     0
176
     1
 90
        1
176
     1
 40
50.0
176
     1
 90
        0
176
     1
290
     0
176
     1
290
     1
176
     1
290
     1
176
     1
290
     0
176
     1
290
     0
176
     1
290
     0
176
     1
290
     0
176
     1
290
     0
176
     1
290
     0
176
     1
 90
       50
176
     1
 40
0.0
176
     1
 40
1.0
176
     1
 90
        0
176
     1
 62
   178
420
        0
176
     1
 90
       50
176
     1
 90
        3
176
     1
 62
     5
420
      255
176
     1
290
     0
176
     1
 90
       50
176
     1
 90
       50
176
     1
 90
       50
176
     1
290
     0
176
     1
 90
       50
176
     1
 62
   256
176
     0
 40
1.0
176
     0
 90
        2
176
     1
  1
strokes_ogs.tif
176
     1
290
     0
176
     1
 40
1.0
176
     1
 40
1.0
176
     1
  0
VISUALSTYLE
  5
1CE
102
{ACAD_REACTORS
330
1BE
102
}
330
1BE
100
AcDbVisualStyle
  2
ColorChange
 70
    16
177
     3
291
     1
 70
    58
 90
        2
176
     1
 90
        2
176
     1
 90
        3
176
     1
 90
        0
176
     1
 40
0.6
176
     1
 40
30.0
176
     1
 62
     8
420
  8421504
176
     1
 90
        1
176
     1
 90
        4
176
     1
 62
     7
176
     1
 62
   257
176
     1
 90
        1
176
     1
 90
        1
176
     1
 40
1.0
176
     1
 90
        8
176
     1
 62
     8
420
  8421504
176
     1
 40
1.0
176
     1
 90
        1
176
     1
 90
        6
176
     1
 90
        2
176
     1
 62
     7
176
     1
 90
        5
176
     1
 90
        0
176
     1
 90
        0
176
     1
290
     0
176
     1
 90
        1
176
     1
 40
0.0
176
     1
 90
        0
176
     1
290
     0
176
     1
290
     1
176
     1
290
     1
176
     1
290
     0
176
     1
290
     0
176
     1
290
     0
176
     1
290
     0
176
     1
290
     0
176
     1
290
     0
176
     1
 90
       50
176
     1
 40
0.0
176
     1
 40
1.0
176
     1
 90
        0
176
     1
 62
   178
420
        0
176
     1
 90
       50
176
     1
 90
        3
176
     1
 62
     5
420
      255
176
     1
290
     0
176
     1
 90
       50
176
     1
 90
       50
176
     1
 90
       50
176
     1
290
     0
176
     1
 90
       50
176
     1
 62
   256
176
     0
 40
1.0
176
     0
 90
        2
176
     1
  1
strokes_ogs.tif
176
     1
290
     0
176
     1
 40
1.0
176
     1
 40
1.0
176
     1
  0
VISUALSTYLE
  5
1C8
102
{ACAD_REACTORS
330
1BE
102
}
330
1BE
100
AcDbVisualStyle
  2
Conceptual
 70
     9
177
     3
291
     0
 70
    58
 90
        3
176
     1
 90
        2
176
     1
 90
        0
176
     1
 90
        0
176
     1
 40
0.6
176
     1
 40
30.0
176
     1
 62
     7
420
 16777215
176
     1
 90
        2
176
     1
 90
        2
176
     1
 62
     7
176
     1
 62
   257
176
     1
 90
        1
176
     1
 90
        1
176
     1
 40
179.0
176
     1
 90
        8
176
     1
 62
     7
176
     1
 40
1.0
176
     1
 90
        1
176
     1
 90
        6
176
     1
 90
        2
176
     1
 62
     7
176
     1
 90
        3
176
     1
 90
        0
176
     1
 90
        0
176
     1
290
     0
176
     1
 90
        1
176
     1
 40
0.0
176
     1
 90
        0
176
     1
290
     0
176
     1
290
     1
176
     1
290
     1
176
     1
290
     0
176
     1
290
     0
176
     1
290
     0
176
     1
290
     0
176
     1
290
     0
176
     1
290
     0
176
     1
 90
       50
176
     1
 40
0.0
176
     1
 40
1.0
176
     1
 90
        0
176
     1
 62
   178
420
        0
176
     1
 90
       50
176
     1
 90
        3
176
     1
 62
     5
420
      255
176
     1
290
     0
176
     1
 90
       50
176
     1
 90
       50
176
     1
 90
       50
176
     1
290
     0
176
     1
 90
       50
176
     1
 62
   256
176
     0
 40
1.0
176
     0
 90
        2
176
     1
  1
strokes_ogs.tif
176
     1
290
     0
176
     1
 40
1.0
176
     1
 40
1.0
176
     1
  0
VISUALSTYLE
  5
1C9
102
{ACAD_REACTORS
330
1BE
102
}
330
1BE
100
AcDbVisualStyle
  2
Dim
 70
    11
177
     3
291
     1
 70
    58
 90
        2
176
     1
 90
        2
176
     1
 90
        0
176
     1
 90
        0
176
     1
 40
0.6
176
     1
 40
30.0
176
     1
 62
     7
420
 16777215
176
     1
 90
        1
176
     1
 90
        4
176
     1
 62
     7
176
     1
 62
   257
176
     1
 90
        1
176
     1
 90
        1
176
     1
 40
1.0
176
     1
 90
        8
176
     1
 62
     7
176
     1
 40
1.0
176
     1
 90
        1
176
     1
 90
        6
176
     1
 90
        2
176
     1
 62
     7
176
     1
 90
        5
176
     1
 90
        0
176
     1
 90
        0
176
     1
290
     0
176
     1
 90
        1
176
     1
 40
-50.0
176
     1
 90
        0
176
     1
290
     0
176
     1
290
     1
176
     1
290
     1
176
     1
290
     0
176
     1
290
     0
176
     1
290
     0
176
     1
290
     0
176
     1
290
     0
176
     1
290
     0
176
     1
 90
       50
176
     1
 40
0.0
176
     1
 40
1.0
176
     1
 90
        0
176
     1
 62
   178
420
        0
176
     1
 90
       50
176
     1
 90
        3
176
     1
 62
     5
420
      255
176
     1
290
     0
176
     1
 90
       50
176
     1
 90
       50
176
     1
 90
       50
176
     1
290
     0
176
     1
 90
       50
176
     1
 62
   256
176
     0
 40
1.0
176
     0
 90
        2
176
     1
  1
strokes_ogs.tif
176
     1
290
     0
176
     1
 40
1.0
176
     1
 40
1.0
176
     1
  0
VISUALSTYLE
  5
1D1
102
{ACAD_REACTORS
330
1BE
102
}
330
1BE
100
AcDbVisualStyle
  2
EdgeColorOff
 70
    22
177
     3
291
     1
 70
    58
 90
        2
176
     0
 90
        2
176
     0
 90
        0
176
     0
 90
        0
176
     0
 40
0.6
176
     0
 40
30.0
176
     0
 62
     7
420
 16777215
176
     0
 90
        1
176
     0
 90
        4
176
     0
 62
     7
176
     0
 62
   257
176
     0
 90
        1
176
     0
 90
        1
176
     0
 40
1.0
176
     0
 90
        8
176
     2
 62
     7
176
     0
 40
1.0
176
     0
 90
        1
176
     0
 90
        6
176
     0
 90
        2
176
     0
 62
     7
176
     0
 90
        5
176
     0
 90
        0
176
     0
 90
        0
176
     0
290
     0
176
     0
 90
        1
176
     0
 40
0.0
176
     0
 90
        0
176
     0
290
     0
176
     0
290
     1
176
     0
290
     1
176
     0
290
     0
176
     0
290
     0
176
     0
290
     0
176
     0
290
     0
176
     0
290
     0
176
     0
290
     0
176
     0
 90
       50
176
     0
 40
0.0
176
     0
 40
1.0
176
     0
 90
        0
176
     0
 62
   178
420
        0
176
     0
 90
       50
176
     0
 90
        3
176
     0
 62
     5
420
      255
176
     0
290
     0
176
     0
 90
       50
176
     0
 90
       50
176
     0
 90
       50
176
     0
290
     0
176
     0
 90
       50
176
     0
 62
   256
176
     0
 40
1.0
176
     0
 90
        2
176
     0
  1
strokes_ogs.tif
176
     0
290
     0
176
     0
 40
1.0
176
     0
 40
1.0
176
     0
  0
VISUALSTYLE
  5
1CD
102
{ACAD_REACTORS
330
1BE
102
}
330
1BE
100
AcDbVisualStyle
  2
Facepattern
 70
    15
177
     3
291
     1
 70
    58
 90
        2
176
     1
 90
        2
176
     1
 90
        0
176
     1
 90
        0
176
     1
 40
0.6
176
     1
 40
30.0
176
     1
 62
     7
420
 16777215
176
     1
 90
        1
176
     1
 90
        4
176
     1
 62
     7
176
     1
 62
   257
176
     1
 90
        1
176
     1
 90
        1
176
     1
 40
1.0
176
     1
 90
        8
176
     1
 62
     7
176
     1
 40
1.0
176
     1
 90
        1
176
     1
 90
        6
176
     1
 90
        2
176
     1
 62
     7
176
     1
 90
        5
176
     1
 90
        0
176
     1
 90
        0
176
     1
290
     0
176
     1
 90
        1
176
     1
 40
0.0
176
     1
 90
        0
176
     1
290
     0
176
     1
290
     1
176
     1
290
     1
176
     1
290
     0
176
     1
290
     0
176
     1
290
     0
176
     1
290
     0
176
     1
290
     0
176
     1
290
     0
176
     1
 90
       50
176
     1
 40
0.0
176
     1
 40
1.0
176
     1
 90
        0
176
     1
 62
   178
420
        0
176
     1
 90
       50
176
     1
 90
        3
176
     1
 62
     5
420
      255
176
     1
290
     0
176
     1
 90
       50
176
     1
 90
       50
176
     1
 90
       50
176
     1
290
     0
176
     1
 90
       50
176
     1
 62
   256
176
     0
 40
1.0
176
     0
 90
        2
176
     1
  1
strokes_ogs.tif
176
     1
290
     0
176
     1
 40
1.0
176
     1
 40
1.0
176
     1
  0
VISUALSTYLE
  5
1BF
102
{ACAD_REACTORS
330
1BE
102
}
330
1BE
100
AcDbVisualStyle
  2
Flat
 70
     0
177
     3
291
     1
 70
    58
 90
        2
176
     1
 90
        1
176
     1
 90
        1
176
     1
 90
        2
176
     1
 40
0.6
176
     1
 40
30.0
176
     1
 62
     7
420
 16777215
176
     1
 90
        0
176
     1
 90
        0
176
     1
 62
     7
176
     1
 62
   257
176
     1
 90
        1
176
     1
 90
        1
176
     1
 40
1.0
176
     1
 90
        8
176
     1
 62
     7
176
     1
 40
1.0
176
     1
 90
        1
176
     1
 90
        6
176
     1
 90
        2
176
     1
 62
     7
176
     1
 90
        5
176
     1
 90
        0
176
     1
 90
        0
176
     1
290
     0
176
     1
 90
       13
176
     1
 40
0.0
176
     1
 90
        0
176
     1
290
     0
176
     1
290
     1
176
     1
290
     1
176
     1
290
     0
176
     1
290
     0
176
     1
290
     0
176
     1
290
     0
176
     1
290
     0
176
     1
290
     0
176
     1
 90
       50
176
     1
 40
0.0
176
     1
 40
1.0
176
     1
 90
        0
176
     1
 62
   178
420
        0
176
     1
 90
       50
176
     1
 90
        3
176
     1
 62
     5
420
      255
176
     1
290
     0
176
     1
 90
       50
176
     1
 90
       50
176
     1
 90
       50
176
     1
290
     0
176
     1
 90
       50
176
     1
 62
   256
176
     0
 40
1.0
176
     0
 90
        2
176
     1
  1
strokes_ogs.tif
176
     1
290
     0
176
     1
 40
1.0
176
     1
 40
1.0
176
     1
  0
VISUALSTYLE
  5
1C0
102
{ACAD_REACTORS
330
1BE
102
}
330
1BE
100
AcDbVisualStyle
  2
FlatWithEdges
 70
     1
177
     3
291
     1
 70
    58
 90
        2
176
     1
 90
        1
176
     1
 90
        1
176
     1
 90
        2
176
     1
 40
0.6
176
     1
 40
30.0
176
     1
 62
     7
420
 16777215
176
     1
 90
        1
176
     1
 90
        0
176
     1
 62
     7
176
     1
 62
   257
176
     1
 90
        1
176
     1
 90
        1
176
     1
 40
1.0
176
     1
 90
        0
176
     1
 62
   257
176
     1
 40
1.0
176
     1
 90
        1
176
     1
 90
        6
176
     1
 90
        2
176
     1
 62
     7
176
     1
 90
        5
176
     1
 90
        0
176
     1
 90
        0
176
     1
290
     0
176
     1
 90
       13
176
     1
 40
0.0
176
     1
 90
        0
176
     1
290
     0
176
     1
290
     1
176
     1
290
     1
176
     1
290
     0
176
     1
290
     0
176
     1
290
     0
176
     1
290
     0
176
     1
290
     0
176
     1
290
     0
176
     1
 90
       50
176
     1
 40
0.0
176
     1
 40
1.0
176
     1
 90
        0
176
     1
 62
   178
420
        0
176
     1
 90
       50
176
     1
 90
        3
176
     1
 62
     5
420
      255
176
     1
290
     0
176
     1
 90
       50
176
     1
 90
       50
176
     1
 90
       50
176
     1
290
     0
176
     1
 90
       50
176
     1
 62
   256
176
     0
 40
1.0
176
     0
 90
        2
176
     1
  1
strokes_ogs.tif
176
     1
290
     0
176
     1
 40
1.0
176
     1
 40
1.0
176
     1
  0
VISUALSTYLE
  5
1C1
102
{ACAD_REACTORS
330
1BE
102
}
330
1BE
100
AcDbVisualStyle
  2
Gouraud
 70
     2
177
     3
291
     1
 70
    58
 90
        2
176
     1
 90
        2
176
     1
 90
        1
176
     1
 90
        2
176
     1
 40
0.6
176
     1
 40
30.0
176
     1
 62
     7
420
 16777215
176
     1
 90
        0
176
     1
 90
        0
176
     1
 62
     7
176
     1
 62
   257
176
     1
 90
        1
176
     1
 90
        1
176
     1
 40
1.0
176
     1
 90
        0
176
     1
 62
     7
176
     1
 40
1.0
176
     1
 90
        1
176
     1
 90
        6
176
     1
 90
        2
176
     1
 62
     7
176
     1
 90
        5
176
     1
 90
        0
176
     1
 90
        0
176
     1
290
     0
176
     1
 90
       13
176
     1
 40
0.0
176
     1
 90
        0
176
     1
290
     0
176
     1
290
     1
176
     1
290
     1
176
     1
290
     0
176
     1
290
     0
176
     1
290
     0
176
     1
290
     0
176
     1
290
     0
176
     1
290
     0
176
     1
 90
       50
176
     1
 40
0.0
176
     1
 40
1.0
176
     1
 90
        0
176
     1
 62
   178
420
        0
176
     1
 90
       50
176
     1
 90
        3
176
     1
 62
     5
420
      255
176
     1
290
     0
176
     1
 90
       50
176
     1
 90
       50
176
     1
 90
       50
176
     1
290
     0
176
     1
 90
       50
176
     1
 62
   256
176
     0
 40
1.0
176
     0
 90
        2
176
     1
  1
strokes_ogs.tif
176
     1
290
     0
176
     1
 40
1.0
176
     1
 40
1.0
176
     1
  0
VISUALSTYLE
  5
1C2
102
{ACAD_REACTORS
330
1BE
102
}
330
1BE
100
AcDbVisualStyle
  2
GouraudWithEdges
 70
     3
177
     3
291
     1
 70
    58
 90
        2
176
     1
 90
        2
176
     1
 90
        1
176
     1
 90
        2
176
     1
 40
0.6
176
     1
 40
30.0
176
     1
 62
     7
420
 16777215
176
     1
 90
        1
176
     1
 90
        0
176
     1
 62
     7
176
     1
 62
   257
176
     1
 90
        1
176
     1
 90
        1
176
     1
 40
1.0
176
     1
 90
        0
176
     1
 62
   257
176
     1
 40
1.0
176
     1
 90
        1
176
     1
 90
        6
176
     1
 90
        2
176
     1
 62
     7
176
     1
 90
        5
176
     1
 90
        0
176
     1
 90
        0
176
     1
290
     0
176
     1
 90
       13
176
     1
 40
0.0
176
     1
 90
        0
176
     1
290
     0
176
     1
290
     1
176
     1
290
     1
176
     1
290
     0
176
     1
290
     0
176
     1
290
     0
176
     1
290
     0
176
     1
290
     0
176
     1
290
     0
176
     1
 90
       50
176
     1
 40
0.0
176
     1
 40
1.0
176
     1
 90
        0
176
     1
 62
   178
420
        0
176
     1
 90
       50
176
     1
 90
        3
176
     1
 62
     5
420
      255
176
     1
290
     0
176
     1
 90
       50
176
     1
 90
       50
176
     1
 90
       50
176
     1
290
     0
176
     1
 90
       50
176
     1
 62
   256
176
     0
 40
1.0
176
     0
 90
        2
176
     1
  1
strokes_ogs.tif
176
     1
290
     0
176
     1
 40
1.0
176
     1
 40
1.0
176
     1
  0
VISUALSTYLE
  5
1C5
102
{ACAD_REACTORS
330
1BE
102
}
330
1BE
100
AcDbVisualStyle
  2
Hidden
 70
     6
177
     3
291
     0
 70
    58
 90
        1
176
     1
 90
        2
176
     1
 90
        2
176
     1
 90
        0
176
     1
 40
0.6
176
     1
 40
30.0
176
     1
 62
     7
420
 16777215
176
     1
 90
        2
176
     1
 90
        2
176
     1
 62
     7
176
     1
 62
   257
176
     1
 90
        2
176
     1
 90
        1
176
     1
 40
40.0
176
     1
 90
        0
176
     1
 62
   257
176
     1
 40
1.0
176
     1
 90
        1
176
     1
 90
        6
176
     1
 90
        2
176
     1
 62
     7
176
     1
 90
        3
176
     1
 90
        0
176
     1
 90
        0
176
     1
290
     0
176
     1
 90
        1
176
     1
 40
0.0
176
     1
 90
        0
176
     1
290
     0
176
     1
290
     1
176
     1
290
     1
176
     1
290
     0
176
     1
290
     0
176
     1
290
     0
176
     1
290
     0
176
     1
290
     0
176
     1
290
     0
176
     1
 90
       50
176
     1
 40
0.0
176
     1
 40
1.0
176
     1
 90
        0
176
     1
 62
   178
420
        0
176
     1
 90
       50
176
     1
 90
        3
176
     1
 62
     5
420
      255
176
     1
290
     0
176
     1
 90
       50
176
     1
 90
       50
176
     1
 90
       50
176
     1
290
     0
176
     1
 90
       50
176
     1
 62
   256
176
     0
 40
1.0
176
     0
 90
        2
176
     1
  1
strokes_ogs.tif
176
     1
290
     0
176
     1
 40
1.0
176
     1
 40
1.0
176
     1
  0
VISUALSTYLE
  5
1CF
102
{ACAD_REACTORS
330
1BE
102
}
330
1BE
100
AcDbVisualStyle
  2
JitterOff
 70
    20
177
     3
291
     1
 70
    58
 90
        2
176
     0
 90
        2
176
     0
 90
        0
176
     0
 90
        0
176
     0
 40
0.6
176
     0
 40
30.0
176
     0
 62
     7
420
 16777215
176
     0
 90
        1
176
     0
 90
        4
176
     0
 62
     7
176
     0
 62
   257
176
     0
 90
        1
176
     0
 90
        1
176
     0
 40
1.0
176
     0
 90
       10
176
     2
 62
     7
176
     0
 40
1.0
176
     0
 90
        1
176
     0
 90
        6
176
     0
 90
        2
176
     0
 62
     7
176
     0
 90
        5
176
     0
 90
        0
176
     0
 90
        0
176
     0
290
     0
176
     0
 90
        1
176
     0
 40
0.0
176
     0
 90
        0
176
     0
290
     0
176
     0
290
     1
176
     0
290
     1
176
     0
290
     0
176
     0
290
     0
176
     0
290
     0
176
     0
290
     0
176
     0
290
     0
176
     0
290
     0
176
     0
 90
       50
176
     0
 40
0.0
176
     0
 40
1.0
176
     0
 90
        0
176
     0
 62
   178
420
        0
176
     0
 90
       50
176
     0
 90
        3
176
     0
 62
     5
420
      255
176
     0
290
     0
176
     0
 90
       50
176
     0
 90
       50
176
     0
 90
       50
176
     0
290
     0
176
     0
 90
       50
176
     0
 62
   256
176
     0
 40
1.0
176
     0
 90
        2
176
     0
  1
strokes_ogs.tif
176
     0
290
     0
176
     0
 40
1.0
176
     0
 40
1.0
176
     0
  0
VISUALSTYLE
  5
1CC
102
{ACAD_REACTORS
330
1BE
102
}
330
1BE
100
AcDbVisualStyle
  2
Linepattern
 70
    14
177
     3
291
     1
 70
    58
 90
        2
176
     1
 90
        2
176
     1
 90
        0
176
     1
 90
        0
176
     1
 40
0.6
176
     1
 40
30.0
176
     1
 62
     7
420
 16777215
176
     1
 90
        1
176
     1
 90
        4
176
     1
 62
     7
176
     1
 62
   257
176
     1
 90
        7
176
     1
 90
        7
176
     1
 40
1.0
176
     1
 90
        8
176
     1
 62
     7
176
     1
 40
1.0
176
     1
 90
        1
176
     1
 90
        6
176
     1
 90
        2
176
     1
 62
     7
176
     1
 90
        5
176
     1
 90
        0
176
     1
 90
        0
176
     1
290
     0
176
     1
 90
        1
176
     1
 40
0.0
176
     1
 90
        0
176
     1
290
     0
176
     1
290
     1
176
     1
290
     1
176
     1
290
     0
176
     1
290
     0
176
     1
290
     0
176
     1
290
     0
176
     1
290
     0
176
     1
290
     0
176
     1
 90
       50
176
     1
 40
0.0
176
     1
 40
1.0
176
     1
 90
        0
176
     1
 62
   178
420
        0
176
     1
 90
       50
176
     1
 90
        3
176
     1
 62
     5
420
      255
176
     1
290
     0
176
     1
 90
       50
176
     1
 90
       50
176
     1
 90
       50
176
     1
290
     0
176
     1
 90
       50
176
     1
 62
   256
176
     0
 40
1.0
176
     0
 90
        2
176
     1
  1
strokes_ogs.tif
176
     1
290
     0
176
     1
 40
1.0
176
     1
 40
1.0
176
     1
  0
VISUALSTYLE
  5
1D0
102
{ACAD_REACTORS
330
1BE
102
}
330
1BE
100
AcDbVisualStyle
  2
OverhangOff
 70
    21
177
     3
291
     1
 70
    58
 90
        2
176
     0
 90
        2
176
     0
 90
        0
176
     0
 90
        0
176
     0
 40
0.6
176
     0
 40
30.0
176
     0
 62
     7
420
 16777215
176
     0
 90
        1
176
     0
 90
        4
176
     0
 62
     7
176
     0
 62
   257
176
     0
 90
        1
176
     0
 90
        1
176
     0
 40
1.0
176
     0
 90
        9
176
     2
 62
     7
176
     0
 40
1.0
176
     0
 90
        1
176
     0
 90
        6
176
     0
 90
        2
176
     0
 62
     7
176
     0
 90
        5
176
     0
 90
        0
176
     0
 90
        0
176
     0
290
     0
176
     0
 90
        1
176
     0
 40
0.0
176
     0
 90
        0
176
     0
290
     0
176
     0
290
     1
176
     0
290
     1
176
     0
290
     0
176
     0
290
     0
176
     0
290
     0
176
     0
290
     0
176
     0
290
     0
176
     0
290
     0
176
     0
 90
       50
176
     0
 40
0.0
176
     0
 40
1.0
176
     0
 90
        0
176
     0
 62
   178
420
        0
176
     0
 90
       50
176
     0
 90
        3
176
     0
 62
     5
420
      255
176
     0
290
     0
176
     0
 90
       50
176
     0
 90
       50
176
     0
 90
       50
176
     0
290
     0
176
     0
 90
       50
176
     0
 62
   256
176
     0
 40
1.0
176
     0
 90
        2
176
     0
  1
strokes_ogs.tif
176
     0
290
     0
176
     0
 40
1.0
176
     0
 40
1.0
176
     0
  0
VISUALSTYLE
  5
1C7
102
{ACAD_REACTORS
330
1BE
102
}
330
1BE
100
AcDbVisualStyle
  2
Realistic
 70
     8
177
     3
291
     0
 70
    58
 90
        2
176
     1
 90
        3
176
     1
 90
        0
176
     1
 90
        2
176
     1
 40
0.6
176
     1
 40
30.0
176
     1
 62
     7
420
 16777215
176
     1
 90
        0
176
     1
 90
        0
176
     1
 62
     7
176
     1
 62
   257
176
     1
 90
        1
176
     1
 90
        1
176
     1
 40
1.0
176
     1
 90
        8
176
     1
 62
   257
176
     1
 40
1.0
176
     1
 90
        1
176
     1
 90
        6
176
     1
 90
        2
176
     1
 62
     7
176
     1
 90
        3
176
     1
 90
        0
176
     1
 90
        0
176
     1
290
     0
176
     1
 90
       13
176
     1
 40
0.0
176
     1
 90
        0
176
     1
290
     0
176
     1
290
     1
176
     1
290
     1
176
     1
290
     0
176
     1
290
     0
176
     1
290
     0
176
     1
290
     0
176
     1
290
     0
176
     1
290
     0
176
     1
 90
       50
176
     1
 40
0.0
176
     1
 40
1.0
176
     1
 90
        0
176
     1
 62
   178
420
        0
176
     1
 90
       50
176
     1
 90
        3
176
     1
 62
     5
420
      255
176
     1
290
     0
176
     1
 90
       50
176
     1
 90
       50
176
     1
 90
       50
176
     1
290
     0
176
     1
 90
       50
176
     1
 62
   256
176
     0
 40
1.0
176
     0
 90
        2
176
     1
  1
strokes_ogs.tif
176
     1
290
     0
176
     1
 40
1.0
176
     1
 40
1.0
176
     1
  0
VISUALSTYLE
  5
1D6
102
{ACAD_REACTORS
330
1BE
102
}
330
1BE
100
AcDbVisualStyle
  2
Shaded
 70
    27
177
     3
291
     0
 70
    58
 90
        2
176
     1
 90
        2
176
     1
 90
        1
176
     1
 90
        2
176
     1
 40
0.6
176
     1
 40
30.0
176
     1
 62
     7
420
 16777215
176
     1
 90
        0
176
     1
 90
        4
176
     1
 62
     7
176
     1
 62
   257
176
     1
 90
        1
176
     1
 90
        1
176
     1
 40
1.0
176
     1
 90
        8
176
     1
 62
   257
176
     1
 40
1.0
176
     1
 90
        1
176
     1
 90
        6
176
     1
 90
        2
176
     1
 62
     8
420
  7895160
176
     1
 90
        3
176
     1
 90
        0
176
     1
 90
        0
176
     1
290
     0
176
     1
 90
        5
176
     1
 40
0.0
176
     1
 90
        0
176
     1
290
     0
176
     1
290
     1
176
     1
290
     1
176
     1
290
     0
176
     1
290
     0
176
     1
290
     0
176
     1
290
     0
176
     1
290
     0
176
     1
290
     0
176
     1
 90
       50
176
     1
 40
0.0
176
     1
 40
1.0
176
     1
 90
        0
176
     1
 62
   178
420
        0
176
     1
 90
       50
176
     1
 90
        3
176
     1
 62
     5
420
      255
176
     1
290
     0
176
     1
 90
       50
176
     1
 90
       50
176
     1
 90
       50
176
     1
290
     0
176
     1
 90
       50
176
     1
 62
   256
176
     0
 40
1.0
176
     0
 90
        2
176
     1
  1
strokes_ogs.tif
176
     1
290
     0
176
     1
 40
1.0
176
     1
 40
1.0
176
     1
  0
VISUALSTYLE
  5
1D5
102
{ACAD_REACTORS
330
1BE
102
}
330
1BE
100
AcDbVisualStyle
  2
Shaded with edges
 70
    26
177
     3
291
     0
 70
    58
 90
        2
176
     1
 90
        2
176
     1
 90
        1
176
     1
 90
        2
176
     1
 40
0.6
176
     1
 40
30.0
176
     1
 62
     7
420
 16777215
176
     1
 90
        1
176
     1
 90
       10
176
     1
 62
     7
176
     1
 62
   257
176
     1
 90
        2
176
     1
 90
        1
176
     1
 40
1.0
176
     1
 90
        8
176
     1
 62
   257
176
     1
 40
1.0
176
     1
 90
        1
176
     1
 90
        6
176
     1
 90
        2
176
     1
 62
     7
176
     1
 90
        3
176
     1
 90
        0
176
     1
 90
        0
176
     1
290
     0
176
     1
 90
        5
176
     1
 40
0.0
176
     1
 90
        0
176
     1
290
     0
176
     1
290
     1
176
     1
290
     1
176
     1
290
     0
176
     1
290
     0
176
     1
290
     0
176
     1
290
     0
176
     1
290
     0
176
     1
290
     0
176
     1
 90
       50
176
     1
 40
0.0
176
     1
 40
1.0
176
     1
 90
        0
176
     1
 62
   178
420
        0
176
     1
 90
       50
176
     1
 90
        3
176
     1
 62
     5
420
      255
176
     1
290
     0
176
     1
 90
       50
176
     1
 90
       50
176
     1
 90
       50
176
     1
290
     0
176
     1
 90
       50
176
     1
 62
   256
176
     0
 40
1.0
176
     0
 90
        2
176
     1
  1
strokes_ogs.tif
176
     1
290
     0
176
     1
 40
1.0
176
     1
 40
1.0
176
     1
  0
VISUALSTYLE
  5
1D2
102
{ACAD_REACTORS
330
1BE
102
}
330
1BE
100
AcDbVisualStyle
  2
Shades of Gray
 70
    23
177
     3
291
     0
 70
    58
 90
        2
176
     1
 90
        2
176
     1
 90
        3
176
     1
 90
        0
176
     1
 40
0.6
176
     1
 40
30.0
176
     1
 62
     7
420
 16777215
176
     1
 90
        2
176
     1
 90
        2
176
     1
 62
     7
176
     1
 62
     7
176
     1
 90
        1
176
     1
 90
        1
176
     1
 40
40.0
176
     1
 90
        8
176
     1
 62
     7
176
     1
 40
1.0
176
     1
 90
        1
176
     1
 90
        6
176
     1
 90
        2
176
     1
 62
     7
176
     1
 90
        3
176
     1
 90
        0
176
     1
 90
        0
176
     1
290
     0
176
     1
 90
        1
176
     1
 40
0.0
176
     1
 90
        0
176
     1
290
     0
176
     1
290
     1
176
     1
290
     1
176
     1
290
     0
176
     1
290
     0
176
     1
290
     0
176
     1
290
     0
176
     1
290
     0
176
     1
290
     0
176
     1
 90
       50
176
     1
 40
0.0
176
     1
 40
1.0
176
     1
 90
        0
176
     1
 62
   178
420
        0
176
     1
 90
       50
176
     1
 90
        3
176
     1
 62
     5
420
      255
176
     1
290
     0
176
     1
 90
       50
176
     1
 90
       50
176
     1
 90
       50
176
     1
290
     0
176
     1
 90
       50
176
     1
 62
   256
176
     0
 40
1.0
176
     0
 90
        2
176
     1
  1
strokes_ogs.tif
176
     1
290
     0
176
     1
 40
1.0
176
     1
 40
1.0
176
     1
  0
VISUALSTYLE
  5
1D3
102
{ACAD_REACTORS
330
1BE
102
}
330
1BE
100
AcDbVisualStyle
  2
Sketchy
 70
    24
177
     3
291
     0
 70
    58
 90
        1
176
     1
 90
        2
176
     1
 90
        2
176
     1
 90
        0
176
     1
 40
0.6
176
     1
 40
30.0
176
     1
 62
     7
420
 16777215
176
     1
 90
        2
176
     1
 90
        2
176
     1
 62
     7
176
     1
 62
     7
176
     1
 90
        1
176
     1
 90
        1
176
     1
 40
40.0
176
     1
 90
       11
176
     1
 62
     7
176
     1
 40
1.0
176
     1
 90
        1
176
     1
 90
        6
176
     1
 90
        2
176
     1
 62
     7
176
     1
 90
        6
176
     1
 90
        0
176
     1
 90
        0
176
     1
290
     0
176
     1
 90
        1
176
     1
 40
0.0
176
     1
 90
        0
176
     1
290
     0
176
     1
290
     1
176
     1
290
     1
176
     1
290
     0
176
     1
290
     0
176
     1
290
     0
176
     1
290
     0
176
     1
290
     0
176
     1
290
     0
176
     1
 90
       50
176
     1
 40
0.0
176
     1
 40
1.0
176
     1
 90
        0
176
     1
 62
   178
420
        0
176
     1
 90
       50
176
     1
 90
        3
176
     1
 62
     5
420
      255
176
     1
290
     0
176
     1
 90
       50
176
     1
 90
       50
176
     1
 90
       50
176
     1
290
     0
176
     1
 90
       50
176
     1
 62
   256
176
     0
 40
1.0
176
     0
 90
        2
176
     1
  1
strokes_ogs.tif
176
     1
290
     0
176
     1
 40
1.0
176
     1
 40
1.0
176
     1
  0
VISUALSTYLE
  5
1CB
102
{ACAD_REACTORS
330
1BE
102
}
330
1BE
100
AcDbVisualStyle
  2
Thicken
 70
    13
177
     3
291
     1
 70
    58
 90
        2
176
     1
 90
        2
176
     1
 90
        0
176
     1
 90
        0
176
     1
 40
0.6
176
     1
 40
30.0
176
     1
 62
     7
420
 16777215
176
     1
 90
        1
176
     1
 90
        4
176
     1
 62
     7
176
     1
 62
   257
176
     1
 90
        1
176
     1
 90
        1
176
     1
 40
1.0
176
     1
 90
       12
176
     1
 62
     7
176
     1
 40
1.0
176
     1
 90
        1
176
     1
 90
        6
176
     1
 90
        2
176
     1
 62
     7
176
     1
 90
        5
176
     1
 90
        0
176
     1
 90
        0
176
     1
290
     0
176
     1
 90
        1
176
     1
 40
0.0
176
     1
 90
        0
176
     1
290
     0
176
     1
290
     1
176
     1
290
     1
176
     1
290
     0
176
     1
290
     0
176
     1
290
     0
176
     1
290
     0
176
     1
290
     0
176
     1
290
     0
176
     1
 90
       50
176
     1
 40
0.0
176
     1
 40
1.0
176
     1
 90
        0
176
     1
 62
   178
420
        0
176
     1
 90
       50
176
     1
 90
        3
176
     1
 62
     5
420
      255
176
     1
290
     0
176
     1
 90
       50
176
     1
 90
       50
176
     1
 90
       50
176
     1
290
     0
176
     1
 90
       50
176
     1
 62
   256
176
     0
 40
1.0
176
     0
 90
        2
176
     1
  1
strokes_ogs.tif
176
     1
290
     0
176
     1
 40
1.0
176
     1
 40
1.0
176
     1
  0
VISUALSTYLE
  5
1C4
102
{ACAD_REACTORS
330
1BE
102
}
330
1BE
100
AcDbVisualStyle
  2
Wireframe
 70
     5
177
     3
291
     0
 70
    58
 90
        0
176
     1
 90
        2
176
     1
 90
        0
176
     1
 90
        0
176
     1
 40
0.6
176
     1
 40
30.0
176
     1
 62
     7
420
 16777215
176
     1
 90
        1
176
     1
 90
        4
176
     1
 62
     7
176
     1
 62
   257
176
     1
 90
        1
176
     1
 90
        1
176
     1
 40
1.0
176
     1
 90
        0
176
     1
 62
   257
176
     1
 40
1.0
176
     1
 90
        1
176
     1
 90
        6
176
     1
 90
        2
176
     1
 62
     7
176
     1
 90
        3
176
     1
 90
        0
176
     1
 90
        0
176
     1
290
     0
176
     1
 90
        1
176
     1
 40
0.0
176
     1
 90
        0
176
     1
290
     0
176
     1
290
     1
176
     1
290
     1
176
     1
290
     0
176
     1
290
     0
176
     1
290
     0
176
     1
290
     0
176
     1
290
     0
176
     1
290
     0
176
     1
 90
       50
176
     1
 40
0.0
176
     1
 40
1.0
176
     1
 90
        0
176
     1
 62
   178
420
        0
176
     1
 90
       50
176
     1
 90
        3
176
     1
 62
     5
420
      255
176
     1
290
     0
176
     1
 90
       50
176
     1
 90
       50
176
     1
 90
       50
176
     1
290
     0
176
     1
 90
       50
176
     1
 62
   256
176
     0
 40
1.0
176
     0
 90
        2
176
     1
  1
strokes_ogs.tif
176
     1
290
     0
176
     1
 40
1.0
176
     1
 40
1.0
176
     1
  0
VISUALSTYLE
  5
1D4
102
{ACAD_REACTORS
330
1BE
102
}
330
1BE
100
AcDbVisualStyle
  2
X-Ray
 70
    25
177
     3
291
     0
 70
    58
 90
        2
176
     1
 90
        2
176
     1
 90
        1
176
     1
 90
        1
176
     1
 40
0.5
176
     1
 40
30.0
176
     1
 62
     7
420
 16777215
176
     1
 90
        1
176
     1
 90
        0
176
     1
 62
     7
176
     1
 62
   257
176
     1
 90
        1
176
     1
 90
        1
176
     1
 40
1.0
176
     1
 90
        8
176
     1
 62
     7
176
     1
 40
1.0
176
     1
 90
        1
176
     1
 90
        6
176
     1
 90
        2
176
     1
 62
     7
176
     1
 90
        3
176
     1
 90
        0
176
     1
 90
        0
176
     1
290
     0
176
     1
 90
       13
176
     1
 40
0.0
176
     1
 90
        0
176
     1
290
     0
176
     1
290
     1
176
     1
290
     1
176
     1
290
     0
176
     1
290
     0
176
     1
290
     0
176
     1
290
     0
176
     1
290
     0
176
     1
290
     0
176
     1
 90
       50
176
     1
 40
0.0
176
     1
 40
1.0
176
     1
 90
        0
176
     1
 62
   178
420
        0
176
     1
 90
       50
176
     1
 90
        3
176
     1
 62
     5
420
      255
176
     1
290
     0
176
     1
 90
       50
176
     1
 90
       50
176
     1
 90
       50
176
     1
290
     0
176
     1
 90
       50
176
     1
 62
   256
176
     0
 40
1.0
176
     0
 90
        2
176
     1
  1
strokes_ogs.tif
176
     1
290
     0
176
     1
 40
1.0
176
     1
 40
1.0
176
     1
  0
DICTIONARYVAR
  5
346
102
{ACAD_REACTORS
330
345
102
}
330
345
100
DictionaryVariables
280
     0
  1
1:1
  0
DICTIONARYVAR
  5
34B
102
{ACAD_REACTORS
330
345
102
}
330
345
100
DictionaryVariables
280
     0
  1
Standard
  0
DICTIONARYVAR
  5
34A
102
{ACAD_REACTORS
330
345
102
}
330
345
100
DictionaryVariables
280
     0
  1
Standard
  0
XRECORD
  5
205
102
{ACAD_REACTORS
330
203
102
}
330
203
100
AcDbXrecord
280
     1
 90
        0
  0
XRECORD
  5
206
102
{ACAD_REACTORS
330
203
102
}
330
203
100
AcDbXrecord
280
     1
 90
        0
  0
XRECORD
  5
207
102
{ACAD_REACTORS
330
203
102
}
330
203
100
AcDbXrecord
280
     1
1000

  0
XRECORD
  5
208
102
{ACAD_REACTORS
330
203
102
}
330
203
100
AcDbXrecord
280
     1
290
     1
  0
XRECORD
  5
209
102
{ACAD_REACTORS
330
203
102
}
330
203
100
AcDbXrecord
280
     1
 90
        2
  0
XRECORD
  5
20A
102
{ACAD_REACTORS
330
203
102
}
330
203
100
AcDbXrecord
280
     1
 90
        4
  0
XRECORD
  5
20B
102
{ACAD_REACTORS
330
203
102
}
330
203
100
AcDbXrecord
280
     1
290
     1
  0
XRECORD
  5
20C
102
{ACAD_REACTORS
330
203
102
}
330
203
100
AcDbXrecord
280
     1
290
     1
  0
XRECORD
  5
20D
102
{ACAD_REACTORS
330
203
102
}
330
203
100
AcDbXrecord
280
     1
290
     1
  0
XRECORD
  5
20E
102
{ACAD_REACTORS
330
203
102
}
330
203
100
AcDbXrecord
280
     1
290
     1
  0
XRECORD
  5
20F
102
{ACAD_REACTORS
330
203
102
}
330
203
100
AcDbXrecord
280
     1
1000
auto
  0
XRECORD
  5
210
102
{ACAD_REACTORS
330
203
102
}
330
203
100
AcDbXrecord
280
     1
1000
auto
  0
XRECORD
  5
211
102
{ACAD_REACTORS
330
203
102
}
330
203
100
AcDbXrecord
280
     1
1000
auto
  0
XRECORD
  5
212
102
{ACAD_REACTORS
330
203
102
}
330
203
100
AcDbXrecord
280
     1
1000
auto
  0
XRECORD
  5
213
102
{ACAD_REACTORS
330
203
102
}
330
203
100
AcDbXrecord
280
     1
1000
auto
  0
XRECORD
  5
214
102
{ACAD_REACTORS
330
203
102
}
330
203
100
AcDbXrecord
280
     1
1000
auto
  0
XRECORD
  5
215
102
{ACAD_REACTORS
330
203
102
}
330
203
100
AcDbXrecord
280
     1
1000
auto
  0
XRECORD
  5
216
102
{ACAD_REACTORS
330
203
102
}
330
203
100
AcDbXrecord
280
     1
1000
auto
  0
XRECORD
  5
217
102
{ACAD_REACTORS
330
203
102
}
330
203
100
AcDbXrecord
280
     1
290
     0
  0
XRECORD
  5
218
102
{ACAD_REACTORS
330
203
102
}
330
203
100
AcDbXrecord
280
     1
290
     0
  0
XRECORD
  5
219
102
{ACAD_REACTORS
330
203
102
}
330
203
100
AcDbXrecord
280
     1
290
     0
  0
XRECORD
  5
21A
102
{ACAD_REACTORS
330
203
102
}
330
203
100
AcDbXrecord
280
     1
290
     0
  0
XRECORD
  5
21B
102
{ACAD_REACTORS
330
203
102
}
330
203
100
AcDbXrecord
280
     1
 90
        0
  0
XRECORD
  5
21C
102
{ACAD_REACTORS
330
203
102
}
330
203
100
AcDbXrecord
280
     1
 90
        0
  0
XRECORD
  5
21D
102
{ACAD_REACTORS
330
203
102
}
330
203
100
AcDbXrecord
280
     1
 90
        0
  0
XRECORD
  5
21E
102
{ACAD_REACTORS
330
203
102
}
330
203
100
AcDbXrecord
280
     1
 90
        0
  0
XRECORD
  5
21F
102
{ACAD_REACTORS
330
203
102
}
330
203
100
AcDbXrecord
280
     1
1000
auto
  0
XRECORD
  5
220
102
{ACAD_REACTORS
330
203
102
}
330
203
100
AcDbXrecord
280
     1
1000
auto
  0
XRECORD
  5
221
102
{ACAD_REACTORS
330
203
102
}
330
203
100
AcDbXrecord
280
     1
1000
auto
  0
XRECORD
  5
222
102
{ACAD_REACTORS
330
203
102
}
330
203
100
AcDbXrecord
280
     1
1000
auto
  0
XRECORD
  5
223
102
{ACAD_REACTORS
330
203
102
}
330
203
100
AcDbXrecord
280
     1
1000
auto
  0
XRECORD
  5
224
102
{ACAD_REACTORS
330
203
102
}
330
203
100
AcDbXrecord
280
     1
1000
auto
  0
XRECORD
  5
225
102
{ACAD_REACTORS
330
203
102
}
330
203
100
AcDbXrecord
280
     1
1000
auto
  0
XRECORD
  5
226
102
{ACAD_REACTORS
330
203
102
}
330
203
100
AcDbXrecord
280
     1
1000
auto
  0
XRECORD
  5
227
102
{ACAD_REACTORS
330
203
102
}
330
203
100
AcDbXrecord
280
     1
 90
        1
  0
XRECORD
  5
228
102
{ACAD_REACTORS
330
203
102
}
330
203
100
AcDbXrecord
280
     1
 40
10.0
  0
XRECORD
  5
229
102
{ACAD_REACTORS
330
203
102
}
330
203
100
AcDbXrecord
280
     1
 40
10.0
  0
XRECORD
  5
22A
102
{ACAD_REACTORS
330
203
102
}
330
203
100
AcDbXrecord
280
     1
 40
10.0
  0
XRECORD
  5
22B
102
{ACAD_REACTORS
330
203
102
}
330
203
100
AcDbXrecord
280
     1
 40
10.0
  0
XRECORD
  5
22C
102
{ACAD_REACTORS
330
203
102
}
330
203
100
AcDbXrecord
280
     1
290
     0
  0
XRECORD
  5
22D
102
{ACAD_REACTORS
330
203
102
}
330
203
100
AcDbXrecord
280
     1
 90
        1
  0
XRECORD
  5
22E
102
{ACAD_REACTORS
330
203
102
}
330
203
100
AcDbXrecord
280
     1
 40
0.0
  0
XRECORD
  5
22F
102
{ACAD_REACTORS
330
203
102
}
330
203
100
AcDbXrecord
280
     1
 40
0.0
  0
XRECORD
  5
230
102
{ACAD_REACTORS
330
203
102
}
330
203
100
AcDbXrecord
280
     1
1000
Portrait
  0
XRECORD
  5
231
102
{ACAD_REACTORS
330
203
102
}
330
203
100
AcDbXrecord
280
     1
 40
297.0
  0
XRECORD
  5
232
102
{ACAD_REACTORS
330
203
102
}
330
203
100
AcDbXrecord
280
     1
 40
210.0
  0
XRECORD
  5
233
102
{ACAD_REACTORS
330
203
102
}
330
203
100
AcDbXrecord
280
     1
1000
1:1
  0
XRECORD
  5
234
102
{ACAD_REACTORS
330
203
102
}
330
203
100
AcDbXrecord
280
     1
290
     1
  0
XRECORD
  5
235
102
{ACAD_REACTORS
330
203
102
}
330
203
100
AcDbXrecord
280
     1
1000
3.9.1
  0
XRECORD
  5
236
102
{ACAD_REACTORS
330
203
102
}
330
203
100
AcDbXrecord
280
     1
 90
        4
  0
DICTIONARY
  5
347
330
1FE
100
AcDbDictionary
280
     1
281
     1
  3
ACAD_ROUNDTRIP_2008_TABLESTYLE_CELLSTYLEMAP
360
348
  0
CELLSTYLEMAP
  5
348
102
{ACAD_REACTORS
330
347
102
}
330
347
100
AcDbCellStyleMap
 90
        3
300
CELLSTYLE
  1
TABLEFORMAT_BEGIN
 90
        5
170
     1
 91
        0
 92
    32768
 62
   257
 93
        1
300
CONTENTFORMAT
  1
CONTENTFORMAT_BEGIN
 90
        0
 91
        0
 92
        4
 93
        0
300

 40
0.0
140
1.0
 94
        5
 62
     0
340
1A6
144
0.25
309
CONTENTFORMAT_END
171
     1
301
MARGIN
  1
CELLMARGIN_BEGIN
 40
0.06
 40
0.06
 40
0.06
 40
0.06
 40
0.06
 40
0.06
309
CELLMARGIN_END
 94
        6
 95
        1
302
GRIDFORMAT
  1
GRIDFORMAT_BEGIN
 90
        0
 91
        1
 62
     0
 92
       -2
340
1A8
 93
        0
 40
0.045
309
GRIDFORMAT_END
 95
        2
302
GRIDFORMAT
  1
GRIDFORMAT_BEGIN
 90
        0
 91
        1
 62
     0
 92
       -2
340
1A8
 93
        0
 40
0.045
309
GRIDFORMAT_END
 95
        4
302
GRIDFORMAT
  1
GRIDFORMAT_BEGIN
 90
        0
 91
        1
 62
     0
 92
       -2
340
1A8
 93
        0
 40
0.045
309
GRIDFORMAT_END
 95
        8
302
GRIDFORMAT
  1
GRIDFORMAT_BEGIN
 90
        0
 91
        1
 62
     0
 92
       -2
340
1A8
 93
        0
 40
0.045
309
GRIDFORMAT_END
 95
       16
302
GRIDFORMAT
  1
GRIDFORMAT_BEGIN
 90
        0
 91
        1
 62
     0
 92
       -2
340
1A8
 93
        0
 40
0.045
309
GRIDFORMAT_END
 95
       32
302
GRIDFORMAT
  1
GRIDFORMAT_BEGIN
 90
        0
 91
        1
 62
     0
 92
       -2
340
1A8
 93
        0
 40
0.045
309
GRIDFORMAT_END
309
TABLEFORMAT_END
  1
CELLSTYLE_BEGIN
 90
        1
 91
        1
300
_TITLE
309
CELLSTYLE_END
300
CELLSTYLE
  1
TABLEFORMAT_BEGIN
 90
        5
170
     1
 91
        0
 92
        0
 62
   257
 93
        1
300
CONTENTFORMAT
  1
CONTENTFORMAT_BEGIN
 90
        0
 91
        0
 92
        4
 93
        0
300

 40
0.0
140
1.0
 94
        5
 62
     0
340
1A6
144
0.18
309
CONTENTFORMAT_END
171
     1
301
MARGIN
  1
CELLMARGIN_BEGIN
 40
0.06
 40
0.06
 40
0.06
 40
0.06
 40
0.06
 40
0.06
309
CELLMARGIN_END
 94
        6
 95
        1
302
GRIDFORMAT
  1
GRIDFORMAT_BEGIN
 90
        0
 91
        1
 62
     0
 92
       -2
340
1A8
 93
        0
 40
0.045
309
GRIDFORMAT_END
 95
        2
302
GRIDFORMAT
  1
GRIDFORMAT_BEGIN
 90
        0
 91
        1
 62
     0
 92
       -2
340
1A8
 93
        0
 40
0.045
309
GRIDFORMAT_END
 95
        4
302
GRIDFORMAT
  1
GRIDFORMAT_BEGIN
 90
        0
 91
        1
 62
     0
 92
       -2
340
1A8
 93
        0
 40
0.045
309
GRIDFORMAT_END
 95
        8
302
GRIDFORMAT
  1
GRIDFORMAT_BEGIN
 90
        0
 91
        1
 62
     0
 92
       -2
340
1A8
 93
        0
 40
0.045
309
GRIDFORMAT_END
 95
       16
302
GRIDFORMAT
  1
GRIDFORMAT_BEGIN
 90
        0
 91
        1
 62
     0
 92
       -2
340
1A8
 93
        0
 40
0.045
309
GRIDFORMAT_END
 95
       32
302
GRIDFORMAT
  1
GRIDFORMAT_BEGIN
 90
        0
 91
        1
 62
     0
 92
       -2
340
1A8
 93
        0
 40
0.045
309
GRIDFORMAT_END
309
TABLEFORMAT_END
  1
CELLSTYLE_BEGIN
 90
        2
 91
        1
300
_HEADER
309
CELLSTYLE_END
300
CELLSTYLE
  1
TABLEFORMAT_BEGIN
 90
        5
170
     1
 91
        0
 92
        0
 62
   257
 93
        1
300
CONTENTFORMAT
  1
CONTENTFORMAT_BEGIN
 90
        0
 91
        0
 92
        4
 93
        0
300

 40
0.0
140
1.0
 94
        2
 62
     0
340
1A6
144
0.18
309
CONTENTFORMAT_END
171
     1
301
MARGIN
  1
CELLMARGIN_BEGIN
 40
0.06
 40
0.06
 40
0.06
 40
0.06
 40
0.06
 40
0.06
309
CELLMARGIN_END
 94
        6
 95
        1
302
GRIDFORMAT
  1
GRIDFORMAT_BEGIN
 90
        0
 91
        1
 62
     0
 92
       -2
340
1A8
 93
        0
 40
0.045
309
GRIDFORMAT_END
 95
        2
302
GRIDFORMAT
  1
GRIDFORMAT_BEGIN
 90
        0
 91
        1
 62
     0
 92
       -2
340
1A8
 93
        0
 40
0.045
309
GRIDFORMAT_END
 95
        4
302
GRIDFORMAT
  1
GRIDFORMAT_BEGIN
 90
        0
 91
        1
 62
     0
 92
       -2
340
1A8
 93
        0
 40
0.045
309
GRIDFORMAT_END
 95
        8
302
GRIDFORMAT
  1
GRIDFORMAT_BEGIN
 90
        0
 91
        1
 62
     0
 92
       -2
340
1A8
 93
        0
 40
0.045
309
GRIDFORMAT_END
 95
       16
302
GRIDFORMAT
  1
GRIDFORMAT_BEGIN
 90
        0
 91
        1
 62
     0
 92
       -2
340
1A8
 93
        0
 40
0.045
309
GRIDFORMAT_END
 95
       32
302
GRIDFORMAT
  1
GRIDFORMAT_BEGIN
 90
        0
 91
        1
 62
     0
 92
       -2
340
1A8
 93
        0
 40
0.045
309
GRIDFORMAT_END
309
TABLEFORMAT_END
  1
CELLSTYLE_BEGIN
 90
        3
 91
        2
300
_DATA
309
CELLSTYLE_END
  0
ENDSEC
  0
EOF
