  0
SECTION
  2
HEADER
  9
$ACADVER
  1
AC1027
  9
$ACADMAINTVER
 70
     8
  9
$DWGCODEPAGE
  3
ANSI_1252
  9
$REQUIREDVERSIONS
160
                 0
  9
$INSBASE
 10
0.0
 20
0.0
 30
0.0
  9
$EXTMIN
 10
1.000000000000000E+20
 20
1.000000000000000E+20
 30
1.000000000000000E+20
  9
$EXTMAX
 10
-1.000000000000000E+20
 20
-1.000000000000000E+20
 30
-1.000000000000000E+20
  9
$LIMMIN
 10
0.0
 20
0.0
  9
$LIMMAX
 10
12.0
 20
9.0
  9
$ORTHOMODE
 70
     0
  9
$REGENMODE
 70
     1
  9
$FILLMODE
 70
     1
  9
$QTEXTMODE
 70
     0
  9
$MIRRTEXT
 70
     1
  9
$LTSCALE
 40
1.0
  9
$ATTMODE
 70
     1
  9
$TEXTSIZE
 40
0.2
  9
$TRACEWID
 40
0.05
  9
$TEXTSTYLE
  7
Standard
  9
$CLAYER
  8
0
  9
$CELTYPE
  6
ByLayer
  9
$CECOLOR
 62
   178
  9
$CELTSCALE
 40
1.0
  9
$DISPSILH
 70
     0
  9
$DIMSCALE
 40
1.0
  9
$DIMASZ
 40
20.0
  9
$DIMEXO
 40
5.0
  9
$DIMDLI
 40
0.38
  9
$DIMRND
 40
0.0
  9
$DIMDLE
 40
0.0
  9
$DIMEXE
 40
10.0
  9
$DIMTP
 40
0.0
  9
$DIMTM
 40
0.0
  9
$DIMTXT
 40
20.0
  9
$DIMCEN
 40
0.09
  9
$DIMTSZ
 40
20.0
  9
$DIMTOL
 70
     0
  9
$DIMLIM
 70
     0
  9
$DIMTIH
 70
     1
  9
$DIMTOH
 70
     1
  9
$DIMSE1
 70
     0
  9
$DIMSE2
 70
     0
  9
$DIMTAD
 70
     0
  9
$DIMZIN
 70
     8
  9
$DIMBLK
  1

  9
$DIMASO
 70
     1
  9
$DIMSHO
 70
     1
  9
$DIMPOST
  1

  9
$DIMAPOST
  1

  9
$DIMALT
 70
     0
  9
$DIMALTD
 70
     2
  9
$DIMALTF
 40
25.4
  9
$DIMLFAC
 40
1.0
  9
$DIMTOFL
 70
     0
  9
$DIMTVP
 40
0.0
  9
$DIMTIX
 70
     0
  9
$DIMSOXD
 70
     0
  9
$DIMSAH
 70
     0
  9
$DIMBLK1
  1

  9
$DIMBLK2
  1

  9
$DIMSTYLE
  2
Standard
  9
$DIMCLRD
 70
   178
  9
$DIMCLRE
 70
   178
  9
$DIMCLRT
 70
   178
  9
$DIMTFAC
 40
1.0
  9
$DIMGAP
 40
5.0
  9
$DIMJUST
 70
     0
  9
$DIMSD1
 70
     0
  9
$DIMSD2
 70
     0
  9
$DIMTOLJ
 70
     1
  9
$DIMTZIN
 70
     0
  9
$DIMALTZ
 70
     0
  9
$DIMALTTZ
 70
     0
  9
$DIMUPT
 70
     0
  9
$DIMDEC
 70
     4
  9
$DIMTDEC
 70
     4
  9
$DIMALTU
 70
     2
  9
$DIMALTTD
 70
     2
  9
$DIMTXSTY
  7
Standard
  9
$DIMAUNIT
 70
     0
  9
$DIMADEC
 70
     0
  9
$DIMALTRND
 40
0.0
  9
$DIMAZIN
 70
     2
  9
$DIMDSEP
 70
    46
  9
$DIMATFIT
 70
     3
  9
$DIMFRAC
 70
     0
  9
$DIMLDRBLK
  1

  9
$DIMLUNIT
 70
     2
  9
$DIMLWD
 70
    -2
  9
$DIMLWE
 70
    -2
  9
$DIMTMOVE
 70
     0
  9
$DIMFXL
 40
1.0
  9
$DIMFXLON
 70
     0
  9
$DIMJOGANG
 40
0.7853981633974483
  9
$DIMTFILL
 70
     0
  9
$DIMTFILLCLR
 70
     0
  9
$DIMARCSYM
 70
     0
  9
$DIMLTYPE
  6

  9
$DIMLTEX1
  6

  9
$DIMLTEX2
  6

  9
$DIMTXTDIRECTION
 70
     0
  9
$LUNITS
 70
     2
  9
$LUPREC
 70
     4
  9
$SKETCHINC
 40
0.1
  9
$FILLETRAD
 40
0.5
  9
$AUNITS
 70
     0
  9
$AUPREC
 70
     0
  9
$MENU
  1
.
  9
$ELEVATION
 40
0.0
  9
$PELEVATION
 40
0.0
  9
$THICKNESS
 40
0.0
  9
$LIMCHECK
 70
     0
  9
$CHAMFERA
 40
0.0
  9
$CHAMFERB
 40
0.0
  9
$CHAMFERC
 40
0.0
  9
$CHAMFERD
 40
0.0
  9
$SKPOLY
 70
     0
  9
$TDCREATE
 40
2459458.512037037
  9
$TDUCREATE
 40
2459458.47037037
  9
$TDUPDATE
 40
2459458.512037037
  9
$TDUUPDATE
 40
2459458.47037037
  9
$TDINDWG
 40
0.0000000116
  9
$TDUSRTIMER
 40
0.0000000116
  9
$USRTIMER
 70
     1
  9
$ANGBASE
 50
0.0
  9
$ANGDIR
 70
     0
  9
$PDMODE
 70
     0
  9
$PDSIZE
 40
0.0
  9
$PLINEWID
 40
0.0
  9
$SPLFRAME
 70
     0
  9
$SPLINETYPE
 70
     6
  9
$SPLINESEGS
 70
     8
  9
$HANDSEED
  5
34E
  9
$SURFTAB1
 70
     6
  9
$SURFTAB2
 70
     6
  9
$SURFTYPE
 70
     6
  9
$SURFU
 70
     6
  9
$SURFV
 70
     6
  9
$UCSBASE
  2

  9
$UCSNAME
  2

  9
$UCSORG
 10
0.0
 20
0.0
 30
0.0
  9
$UCSXDIR
 10
1.0
 20
0.0
 30
0.0
  9
$UCSYDIR
 10
0.0
 20
1.0
 30
0.0
  9
$UCSORTHOREF
  2

  9
$UCSORTHOVIEW
 70
     0
  9
$UCSORGTOP
 10
0.0
 20
0.0
 30
0.0
  9
$UCSORGBOTTOM
 10
0.0
 20
0.0
 30
0.0
  9
$UCSORGLEFT
 10
0.0
 20
0.0
 30
0.0
  9
$UCSORGRIGHT
 10
0.0
 20
0.0
 30
0.0
  9
$UCSORGFRONT
 10
0.0
 20
0.0
 30
0.0
  9
$UCSORGBACK
 10
0.0
 20
0.0
 30
0.0
  9
$PUCSBASE
  2

  9
$PUCSNAME
  2

  9
$PUCSORG
 10
0.0
 20
0.0
 30
0.0
  9
$PUCSXDIR
 10
1.0
 20
0.0
 30
0.0
  9
$PUCSYDIR
 10
0.0
 20
1.0
 30
0.0
  9
$PUCSORTHOREF
  2

  9
$PUCSORTHOVIEW
 70
     0
  9
$PUCSORGTOP
 10
0.0
 20
0.0
 30
0.0
  9
$PUCSORGBOTTOM
 10
0.0
 20
0.0
 30
0.0
  9
$PUCSORGLEFT
 10
0.0
 20
0.0
 30
0.0
  9
$PUCSORGRIGHT
 10
0.0
 20
0.0
 30
0.0
  9
$PUCSORGFRONT
 10
0.0
 20
0.0
 30
0.0
  9
$PUCSORGBACK
 10
0.0
 20
0.0
 30
0.0
  9
$USERI1
 70
     0
  9
$USERI2
 70
     0
  9
$USERI3
 70
     0
  9
$USERI4
 70
     0
  9
$USERI5
 70
     0
  9
$USERR1
 40
0.0
  9
$USERR2
 40
0.0
  9
$USERR3
 40
0.0
  9
$USERR4
 40
0.0
  9
$USERR5
 40
0.0
  9
$WORLDVIEW
 70
     1
  9
$SHADEDGE
 70
     3
  9
$SHADEDIF
 70
    70
  9
$TILEMODE
 70
     1
  9
$MAXACTVP
 70
     2
  9
$PINSBASE
 10
0.0
 20
0.0
 30
0.0
  9
$PLIMCHECK
 70
     0
  9
$PEXTMIN
 10
1.000000000000000E+20
 20
1.000000000000000E+20
 30
1.000000000000000E+20
  9
$PEXTMAX
 10
-1.000000000000000E+20
 20
-1.000000000000000E+20
 30
-1.000000000000000E+20
  9
$PLIMMIN
 10
0.0
 20
0.0
  9
$PLIMMAX
 10
12.0
 20
9.0
  9
$UNITMODE
 70
     0
  9
$VISRETAIN
 70
     1
  9
$PLINEGEN
 70
     0
  9
$PSLTSCALE
 70
     1
  9
$TREEDEPTH
 70
  3020
  9
$CMLSTYLE
  2
Standard
  9
$CMLJUST
 70
     0
  9
$CMLSCALE
 40
1.0
  9
$PROXYGRAPHICS
 70
     1
  9
$MEASUREMENT
 70
     1
  9
$CELWEIGHT
370
    -1
  9
$ENDCAPS
280
     0
  9
$JOINSTYLE
280
     0
  9
$LWDISPLAY
290
     0
  9
$INSUNITS
 70
     4
  9
$HYPERLINKBASE
  1

  9
$STYLESHEET
  1

  9
$XEDIT
290
     1
  9
$CEPSNTYPE
380
     0
  9
$PSTYLEMODE
290
     1
  9
$FINGERPRINTGUID
  2
{4FE4F3FB-509C-F894-8ADD-5A41FE24AC09}
  9
$VERSIONGUID
  2
{FAEB1C32-E019-11D5-929B-00C0DF256EC4}
  9
$EXTNAMES
290
     1
  9
$PSVPSCALE
 40
0.0
  9
$OLESTARTUP
290
     0
  9
$SORTENTS
280
   127
  9
$INDEXCTL
280
     0
  9
$HIDETEXT
280
     1
  9
$XCLIPFRAME
280
     2
  9
$HALOGAP
280
     0
  9
$OBSCOLOR
 70
   257
  9
$OBSLTYPE
280
     0
  9
$INTERSECTIONDISPLAY
280
     0
  9
$INTERSECTIONCOLOR
 70
   257
  9
$DIMASSOC
280
     2
  9
$PROJECTNAME
  1

  9
$CAMERADISPLAY
290
     0
  9
$LENSLENGTH
 40
50.0
  9
$CAMERAHEIGHT
 40
0.0
  9
$STEPSPERSEC
 40
2.0
  9
$STEPSIZE
 40
6.0
  9
$3DDWFPREC
 40
2.0
  9
$PSOLWIDTH
 40
0.25
  9
$PSOLHEIGHT
 40
4.0
  9
$LOFTANG1
 40
1.570796326794897
  9
$LOFTANG2
 40
1.570796326794897
  9
$LOFTMAG1
 40
0.0
  9
$LOFTMAG2
 40
0.0
  9
$LOFTPARAM
 70
     7
  9
$LOFTNORMALS
280
     1
  9
$LATITUDE
 40
37.795
  9
$LONGITUDE
 40
-122.394
  9
$NORTHDIRECTION
 40
0.0
  9
$TIMEZONE
 70
 -8000
  9
$LIGHTGLYPHDISPLAY
280
     1
  9
$TILEMODELIGHTSYNCH
280
     1
  9
$CMATERIAL
347
1D8
  9
$SOLIDHIST
280
     0
  9
$SHOWHIST
280
     1
  9
$DWFFRAME
280
     2
  9
$DGNFRAME
280
     2
  9
$REALWORLDSCALE
290
     1
  9
$INTERFERECOLOR
 62
   256
  9
$CSHADOW
280
     0
  9
$SHADOWPLANELOCATION
 40
0.0
  0
ENDSEC
  0
SECTION
  2
CLASSES
  0
CLASS
  1
ACDBDICTIONARYWDFLT
  2
AcDbDictionaryWithDefault
  3
ObjectDBX Classes
 90
        0
 91
        4
280
     0
281
     0
  0
CLASS
  1
VISUALSTYLE
  2
AcDbVisualStyle
  3
ObjectDBX Classes
 90
     4095
 91
        4
280
     0
281
     0
  0
CLASS
  1
MATERIAL
  2
AcDbMaterial
  3
ObjectDBX Classes
 90
     1153
 91
        4
280
     0
281
     0
  0
CLASS
  1
SCALE
  2
AcDbScale
  3
ObjectDBX Classes
 90
     1153
 91
        4
280
     0
281
     0
  0
CLASS
  1
TABLESTYLE
  2
AcDbTableStyle
  3
ObjectDBX Classes
 90
     4095
 91
        4
280
     0
281
     0
  0
CLASS
  1
MLEADERSTYLE
  2
AcDbMLeaderStyle
  3
ACDB_MLEADERSTYLE_CLASS
 90
     4095
 91
        4
280
     0
281
     0
  0
CLASS
  1
SUN
  2
AcDbSun
  3
SCENEOE
 90
     1153
 91
        4
280
     0
281
     0
  0
CLASS
  1
DICTIONARYVAR
  2
AcDbDictionaryVar
  3
ObjectDBX Classes
 90
        0
 91
        4
280
     0
281
     0
  0
CLASS
  1
CELLSTYLEMAP
  2
AcDbCellStyleMap
  3
ObjectDBX Classes
 90
     1152
 91
        4
280
     0
281
     0
  0
ENDSEC
  0
SECTION
  2
TABLES
  0
TABLE
  2
VPORT
  5
19D
330
0
100
AcDbSymbolTable
 70
     1
  0
VPORT
  5
1BD
330
19D
100
AcDbSymbolTableRecord
100
AcDbViewportTableRecord
  2
*Active
 70
     0
 10
0.0
 20
0.0
 11
1.0
 21
1.0
 12
10.42990654205607
 22
4.5
 13
0.0
 23
0.0
 14
0.5
 24
0.5
 15
0.5
 25
0.5
 16
0.0
 26
0.0
 36
1.0
 17
0.0
 27
0.0
 37
0.0
 40
9.0
 41
1.972972972850329
 42
50.0
 43
0.0
 44
0.0
 50
0.0
 51
0.0
 71
     0
 72
   100
 73
     1
 74
     3
 75
     0
 76
     0
 77
     0
 78
     0
281
     0
 65
     1
110
0.0
120
0.0
130
0.0
111
1.0
121
0.0
131
0.0
112
0.0
122
1.0
132
0.0
 79
     0
146
0.0
 60
     3
 61
     5
292
     1
282
     1
141
0.0
142
0.0
 63
   250
361
201
  0
ENDTAB
  0
TABLE
  2
LTYPE
  5
19A
330
0
100
AcDbSymbolTable
 70
    48
  0
LTYPE
  5
1A8
330
19A
100
AcDbSymbolTableRecord
100
AcDbLinetypeTableRecord
  2
ByBlock
 70
     0
  3

 72
    65
 73
     0
 40
0.0
  0
LTYPE
  5
1A9
330
19A
100
AcDbSymbolTableRecord
100
AcDbLinetypeTableRecord
  2
ByLayer
 70
     0
  3

 72
    65
 73
     0
 40
0.0
  0
LTYPE
  5
1AA
330
19A
100
AcDbSymbolTableRecord
100
AcDbLinetypeTableRecord
  2
Continuous
 70
     0
  3
Solid line
 72
    65
 73
     0
 40
0.0
  0
LTYPE
  5
239
330
19A
100
AcDbSymbolTableRecord
100
AcDbLinetypeTableRecord
  2
ACAD_ISO02W100
 70
     0
  3
ISO dash __ __ __ __ __ __ __ __ __ __ __ __ __
 72
    65
 73
     2
 40
15.0
 49
12.0
 74
     0
 49
-3.0
 74
     0
  0
LTYPE
  5
23A
330
19A
100
AcDbSymbolTableRecord
100
AcDbLinetypeTableRecord
  2
ACAD_ISO03W100
 70
     0
  3
ISO dash space __    __    __    __    __    __
 72
    65
 73
     2
 40
30.0
 49
12.0
 74
     0
 49
-18.0
 74
     0
  0
LTYPE
  5
23B
330
19A
100
AcDbSymbolTableRecord
100
AcDbLinetypeTableRecord
  2
ACAD_ISO04W100
 70
     0
  3
ISO long-dash dot ____ . ____ . ____ . ____ . _
 72
    65
 73
     4
 40
30.0
 49
24.0
 74
     0
 49
-3.0
 74
     0
 49
0.0
 74
     0
 49
-3.0
 74
     0
  0
LTYPE
  5
23C
330
19A
100
AcDbSymbolTableRecord
100
AcDbLinetypeTableRecord
  2
ACAD_ISO05W100
 70
     0
  3
ISO long-dash double-dot ____ .. ____ .. ____ . 
 72
    65
 73
     6
 40
33.0
 49
24.0
 74
     0
 49
-3.0
 74
     0
 49
0.0
 74
     0
 49
-3.0
 74
     0
 49
0.0
 74
     0
 49
-3.0
 74
     0
  0
LTYPE
  5
23D
330
19A
100
AcDbSymbolTableRecord
100
AcDbLinetypeTableRecord
  2
ACAD_ISO06W100
 70
     0
  3
ISO long-dash triple-dot ____ ... ____ ... ____
 72
    65
 73
     8
 40
36.0
 49
24.0
 74
     0
 49
-3.0
 74
     0
 49
0.0
 74
     0
 49
-3.0
 74
     0
 49
0.0
 74
     0
 49
-3.0
 74
     0
 49
0.0
 74
     0
 49
-3.0
 74
     0
  0
LTYPE
  5
23E
330
19A
100
AcDbSymbolTableRecord
100
AcDbLinetypeTableRecord
  2
ACAD_ISO07W100
 70
     0
  3
ISO dot . . . . . . . . . . . . . . . . . . . . 
 72
    65
 73
     2
 40
3.0
 49
0.0
 74
     0
 49
-3.0
 74
     0
  0
LTYPE
  5
23F
330
19A
100
AcDbSymbolTableRecord
100
AcDbLinetypeTableRecord
  2
ACAD_ISO08W100
 70
     0
  3
ISO long-dash short-dash ____ __ ____ __ ____ _
 72
    65
 73
     4
 40
36.0
 49
24.0
 74
     0
 49
-3.0
 74
     0
 49
6.0
 74
     0
 49
-3.0
 74
     0
  0
LTYPE
  5
240
330
19A
100
AcDbSymbolTableRecord
100
AcDbLinetypeTableRecord
  2
ACAD_ISO09W100
 70
     0
  3
ISO long-dash double-short-dash ____ __ __ ____
 72
    65
 73
     6
 40
45.0
 49
24.0
 74
     0
 49
-3.0
 74
     0
 49
6.0
 74
     0
 49
-3.0
 74
     0
 49
6.0
 74
     0
 49
-3.0
 74
     0
  0
LTYPE
  5
241
330
19A
100
AcDbSymbolTableRecord
100
AcDbLinetypeTableRecord
  2
ACAD_ISO10W100
 70
     0
  3
ISO dash dot __ . __ . __ . __ . __ . __ . __ . 
 72
    65
 73
     4
 40
18.0
 49
12.0
 74
     0
 49
-3.0
 74
     0
 49
0.0
 74
     0
 49
-3.0
 74
     0
  0
LTYPE
  5
242
330
19A
100
AcDbSymbolTableRecord
100
AcDbLinetypeTableRecord
  2
ACAD_ISO11W100
 70
     0
  3
ISO double-dash dot __ __ . __ __ . __ __ . __ _
 72
    65
 73
     6
 40
33.0
 49
12.0
 74
     0
 49
-3.0
 74
     0
 49
12.0
 74
     0
 49
-3.0
 74
     0
 49
0.0
 74
     0
 49
-3.0
 74
     0
  0
LTYPE
  5
243
330
19A
100
AcDbSymbolTableRecord
100
AcDbLinetypeTableRecord
  2
ACAD_ISO12W100
 70
     0
  3
ISO dash double-dot __ . . __ . . __ . . __ . . 
 72
    65
 73
     6
 40
21.0
 49
12.0
 74
     0
 49
-3.0
 74
     0
 49
0.0
 74
     0
 49
-3.0
 74
     0
 49
0.0
 74
     0
 49
-3.0
 74
     0
  0
LTYPE
  5
244
330
19A
100
AcDbSymbolTableRecord
100
AcDbLinetypeTableRecord
  2
ACAD_ISO13W100
 70
     0
  3
ISO double-dash double-dot __ __ . . __ __ . . _
 72
    65
 73
     8
 40
36.0
 49
12.0
 74
     0
 49
-3.0
 74
     0
 49
12.0
 74
     0
 49
-3.0
 74
     0
 49
0.0
 74
     0
 49
-3.0
 74
     0
 49
0.0
 74
     0
 49
-3.0
 74
     0
  0
LTYPE
  5
245
330
19A
100
AcDbSymbolTableRecord
100
AcDbLinetypeTableRecord
  2
ACAD_ISO14W100
 70
     0
  3
ISO dash triple-dot __ . . . __ . . . __ . . . _
 72
    65
 73
     8
 40
24.0
 49
12.0
 74
     0
 49
-3.0
 74
     0
 49
0.0
 74
     0
 49
-3.0
 74
     0
 49
0.0
 74
     0
 49
-3.0
 74
     0
 49
0.0
 74
     0
 49
-3.0
 74
     0
  0
LTYPE
  5
246
330
19A
100
AcDbSymbolTableRecord
100
AcDbLinetypeTableRecord
  2
ACAD_ISO15W100
 70
     0
  3
ISO double-dash triple-dot __ __ . . . __ __ . .
 72
    65
 73
    10
 40
39.0
 49
12.0
 74
     0
 49
-3.0
 74
     0
 49
12.0
 74
     0
 49
-3.0
 74
     0
 49
0.0
 74
     0
 49
-3.0
 74
     0
 49
0.0
 74
     0
 49
-3.0
 74
     0
 49
0.0
 74
     0
 49
-3.0
 74
     0
  0
LTYPE
  5
249
330
19A
100
AcDbSymbolTableRecord
100
AcDbLinetypeTableRecord
  2
BATTING
 70
     0
  3
Batting SSSSSSSSSSSSSSSSSSSSSSSSSSSSSSSSSSSSSSSSSSSSSSS
 72
    65
 73
     4
 40
10.16254
 49
0.00254
 74
     0
 49
-2.54
 74
     2
 75
     0
340
247
 46
2.54
 50
0.0
 44
-2.54
 45
0.0
  9
BAT
 49
-5.08
 74
     2
 75
     0
340
248
 46
2.54
 50
180.0
 44
2.54
 45
0.0
  9
BAT
 49
-2.54
 74
     0
  0
LTYPE
  5
24A
330
19A
100
AcDbSymbolTableRecord
100
AcDbLinetypeTableRecord
  2
BORDER
 70
     0
  3
Border __ __ . __ __ . __ __ . __ __ . __ __ .
 72
    65
 73
     6
 40
44.45
 49
12.7
 74
     0
 49
-6.35
 74
     0
 49
12.7
 74
     0
 49
-6.35
 74
     0
 49
0.0
 74
     0
 49
-6.35
 74
     0
  0
LTYPE
  5
24B
330
19A
100
AcDbSymbolTableRecord
100
AcDbLinetypeTableRecord
  2
BORDER2
 70
     0
  3
Border (.5x) __.__.__.__.__.__.__.__.__.__.__.
 72
    65
 73
     6
 40
22.225
 49
6.35
 74
     0
 49
-3.175
 74
     0
 49
6.35
 74
     0
 49
-3.175
 74
     0
 49
0.0
 74
     0
 49
-3.175
 74
     0
  0
LTYPE
  5
24C
330
19A
100
AcDbSymbolTableRecord
100
AcDbLinetypeTableRecord
  2
BORDERX2
 70
     0
  3
Border (2x) ____  ____  .  ____  ____  .  ___
 72
    65
 73
     6
 40
88.89999999999999
 49
25.4
 74
     0
 49
-12.7
 74
     0
 49
25.4
 74
     0
 49
-12.7
 74
     0
 49
0.0
 74
     0
 49
-12.7
 74
     0
  0
LTYPE
  5
24D
330
19A
100
AcDbSymbolTableRecord
100
AcDbLinetypeTableRecord
  2
CENTER
 70
     0
  3
Center ____ _ ____ _ ____ _ ____ _ ____ _ ____
 72
    65
 73
     4
 40
50.8
 49
31.75
 74
     0
 49
-6.35
 74
     0
 49
6.35
 74
     0
 49
-6.35
 74
     0
  0
LTYPE
  5
24E
330
19A
100
AcDbSymbolTableRecord
100
AcDbLinetypeTableRecord
  2
CENTER2
 70
     0
  3
Center (.5x) ___ _ ___ _ ___ _ ___ _ ___ _ ___
 72
    65
 73
     4
 40
28.575
 49
19.05
 74
     0
 49
-3.175
 74
     0
 49
3.175
 74
     0
 49
-3.175
 74
     0
  0
LTYPE
  5
24F
330
19A
100
AcDbSymbolTableRecord
100
AcDbLinetypeTableRecord
  2
CENTERX2
 70
     0
  3
Center (2x) ________  __  ________  __  _____
 72
    65
 73
     4
 40
101.6
 49
63.5
 74
     0
 49
-12.7
 74
     0
 49
12.7
 74
     0
 49
-12.7
 74
     0
  0
LTYPE
  5
250
330
19A
100
AcDbSymbolTableRecord
100
AcDbLinetypeTableRecord
  2
DASHDOT
 70
     0
  3
Dash dot __ . __ . __ . __ . __ . __ . __ . __
 72
    65
 73
     4
 40
25.4
 49
12.7
 74
     0
 49
-6.35
 74
     0
 49
0.0
 74
     0
 49
-6.35
 74
     0
  0
LTYPE
  5
251
330
19A
100
AcDbSymbolTableRecord
100
AcDbLinetypeTableRecord
  2
DASHDOT2
 70
     0
  3
Dash dot (.5x) _._._._._._._._._._._._._._._.
 72
    65
 73
     4
 40
12.7
 49
6.35
 74
     0
 49
-3.175
 74
     0
 49
0.0
 74
     0
 49
-3.175
 74
     0
  0
LTYPE
  5
252
330
19A
100
AcDbSymbolTableRecord
100
AcDbLinetypeTableRecord
  2
DASHDOTX2
 70
     0
  3
Dash dot (2x) ____  .  ____  .  ____  .  ___
 72
    65
 73
     4
 40
50.8
 49
25.4
 74
     0
 49
-12.7
 74
     0
 49
0.0
 74
     0
 49
-12.7
 74
     0
  0
LTYPE
  5
253
330
19A
100
AcDbSymbolTableRecord
100
AcDbLinetypeTableRecord
  2
DASHED
 70
     0
  3
Dashed __ __ __ __ __ __ __ __ __ __ __ __ __ _
 72
    65
 73
     2
 40
19.05
 49
12.7
 74
     0
 49
-6.35
 74
     0
  0
LTYPE
  5
254
330
19A
100
AcDbSymbolTableRecord
100
AcDbLinetypeTableRecord
  2
DASHED2
 70
     0
  3
Dashed (.5x) _ _ _ _ _ _ _ _ _ _ _ _ _ _ _ _ _ 
 72
    65
 73
     2
 40
9.524999999999999
 49
6.35
 74
     0
 49
-3.175
 74
     0
  0
LTYPE
  5
255
330
19A
100
AcDbSymbolTableRecord
100
AcDbLinetypeTableRecord
  2
DASHEDX2
 70
     0
  3
Dashed (2x) ____  ____  ____  ____  ____  ___
 72
    65
 73
     2
 40
38.09999999999999
 49
25.4
 74
     0
 49
-12.7
 74
     0
  0
LTYPE
  5
256
330
19A
100
AcDbSymbolTableRecord
100
AcDbLinetypeTableRecord
  2
DIVIDE
 70
     0
  3
Divide ____ . . ____ . . ____ . . ____ . . ____
 72
    65
 73
     6
 40
31.75
 49
12.7
 74
     0
 49
-6.35
 74
     0
 49
0.0
 74
     0
 49
-6.35
 74
     0
 49
0.0
 74
     0
 49
-6.35
 74
     0
  0
LTYPE
  5
257
330
19A
100
AcDbSymbolTableRecord
100
AcDbLinetypeTableRecord
  2
DIVIDE2
 70
     0
  3
Divide (.5x) __..__..__..__..__..__..__..__.._
 72
    65
 73
     6
 40
15.875
 49
6.35
 74
     0
 49
-3.175
 74
     0
 49
0.0
 74
     0
 49
-3.175
 74
     0
 49
0.0
 74
     0
 49
-3.175
 74
     0
  0
LTYPE
  5
258
330
19A
100
AcDbSymbolTableRecord
100
AcDbLinetypeTableRecord
  2
DIVIDEX2
 70
     0
  3
Divide (2x) ________  .  .  ________  .  .  _
 72
    65
 73
     6
 40
63.5
 49
25.4
 74
     0
 49
-12.7
 74
     0
 49
0.0
 74
     0
 49
-12.7
 74
     0
 49
0.0
 74
     0
 49
-12.7
 74
     0
  0
LTYPE
  5
259
330
19A
100
AcDbSymbolTableRecord
100
AcDbLinetypeTableRecord
  2
DOT
 70
     0
  3
Dot . . . . . . . . . . . . . . . . . . . . . . . .
 72
    65
 73
     2
 40
6.35
 49
0.0
 74
     0
 49
-6.35
 74
     0
  0
LTYPE
  5
25A
330
19A
100
AcDbSymbolTableRecord
100
AcDbLinetypeTableRecord
  2
DOT2
 70
     0
  3
Dot (.5x) ........................................
 72
    65
 73
     2
 40
3.175
 49
0.0
 74
     0
 49
-3.175
 74
     0
  0
LTYPE
  5
25B
330
19A
100
AcDbSymbolTableRecord
100
AcDbLinetypeTableRecord
  2
DOTX2
 70
     0
  3
Dot (2x) .  .  .  .  .  .  .  .  .  .  .  .  .  .
 72
    65
 73
     2
 40
12.7
 49
0.0
 74
     0
 49
-12.7
 74
     0
  0
LTYPE
  5
25D
330
19A
100
AcDbSymbolTableRecord
100
AcDbLinetypeTableRecord
  2
DRAINAGE
 70
     0
  3
Drainage ---->---->---->----
 72
    65
 73
     2
 40
10.16
 49
5.08
 74
     2
 75
     0
340
25C
 46
2.54
 50
180.0
 44
0.0
 45
0.0
  9
RIGHT_ARROW
 49
5.08
 74
     0
  0
LTYPE
  5
25F
330
19A
100
AcDbSymbolTableRecord
100
AcDbLinetypeTableRecord
  2
DRAINAGE2
 70
     0
  3
Drainage reversed----<----<----<----
 72
    65
 73
     2
 40
10.16
 49
5.08
 74
     2
 75
     0
340
25E
 46
2.54
 50
0.0
 44
0.0
 45
0.0
  9
RIGHT_ARROW
 49
5.08
 74
     0
  0
LTYPE
  5
261
330
19A
100
AcDbSymbolTableRecord
100
AcDbLinetypeTableRecord
  2
FENCELINE1
 70
     0
  3
Fenceline circle ----0-----0----0-----0----0-----0--
 72
    65
 73
     4
 40
36.83
 49
6.35
 74
     0
 49
-2.54
 74
     2
 75
     0
340
260
 46
2.54
 50
0.0
 44
-2.54
 45
0.0
  9
CIRC1
 49
-2.54
 74
     0
 49
25.4
 74
     0
  0
LTYPE
  5
263
330
19A
100
AcDbSymbolTableRecord
100
AcDbLinetypeTableRecord
  2
FENCELINE2
 70
     0
  3
Fenceline square ----[]-----[]----[]-----[]----[]---
 72
    65
 73
     4
 40
36.83
 49
6.35
 74
     0
 49
-2.54
 74
     2
 75
     0
340
262
 46
2.54
 50
0.0
 44
-2.54
 45
0.0
  9
BOX
 49
-2.54
 74
     0
 49
25.4
 74
     0
  0
LTYPE
  5
265
330
19A
100
AcDbSymbolTableRecord
100
AcDbLinetypeTableRecord
  2
GAS_LINE
 70
     0
  3
Gas line ----GAS----GAS----GAS----GAS----GAS----GAS--
 72
    65
 73
     3
 40
24.13
 49
12.7
 74
     0
 49
-5.08
 74
     2
 75
     0
340
264
 46
2.54
 50
0.0
 44
-2.54
 45
-1.27
  9
GAS
 49
-6.35
 74
     0
  0
LTYPE
  5
266
330
19A
100
AcDbSymbolTableRecord
100
AcDbLinetypeTableRecord
  2
HIDDEN
 70
     0
  3
Hidden __ __ __ __ __ __ __ __ __ __ __ __ __ __
 72
    65
 73
     2
 40
9.524999999999999
 49
6.35
 74
     0
 49
-3.175
 74
     0
  0
LTYPE
  5
267
330
19A
100
AcDbSymbolTableRecord
100
AcDbLinetypeTableRecord
  2
HIDDEN2
 70
     0
  3
Hidden (.5x) _ _ _ _ _ _ _ _ _ _ _ _ _ _ _ _ _ 
 72
    65
 73
     2
 40
4.762499999999999
 49
3.175
 74
     0
 49
-1.5875
 74
     0
  0
LTYPE
  5
268
330
19A
100
AcDbSymbolTableRecord
100
AcDbLinetypeTableRecord
  2
HIDDENX2
 70
     0
  3
Hidden (2x) ____ ____ ____ ____ ____ ____ ____ 
 72
    65
 73
     2
 40
19.05
 49
12.7
 74
     0
 49
-6.35
 74
     0
  0
LTYPE
  5
26A
330
19A
100
AcDbSymbolTableRecord
100
AcDbLinetypeTableRecord
  2
HOT_WATER_SUPPLY
 70
     0
  3
Hot water supply ---- HW ---- HW ---- HW ----
 72
    65
 73
     3
 40
22.86
 49
12.7
 74
     0
 49
-5.08
 74
     2
 75
     0
340
269
 46
2.54
 50
0.0
 44
-2.54
 45
-1.27
  9
HW
 49
-5.08
 74
     0
  0
LTYPE
  5
26B
330
19A
100
AcDbSymbolTableRecord
100
AcDbLinetypeTableRecord
  2
PHANTOM
 70
     0
  3
Phantom ______  __  __  ______  __  __  ______ 
 72
    65
 73
     6
 40
63.50000000000001
 49
31.75
 74
     0
 49
-6.35
 74
     0
 49
6.35
 74
     0
 49
-6.35
 74
     0
 49
6.35
 74
     0
 49
-6.35
 74
     0
  0
LTYPE
  5
26C
330
19A
100
AcDbSymbolTableRecord
100
AcDbLinetypeTableRecord
  2
PHANTOM2
 70
     0
  3
Phantom (.5x) ___ _ _ ___ _ _ ___ _ _ ___ _ _
 72
    65
 73
     6
 40
31.75
 49
15.875
 74
     0
 49
-3.175
 74
     0
 49
3.175
 74
     0
 49
-3.175
 74
     0
 49
3.175
 74
     0
 49
-3.175
 74
     0
  0
LTYPE
  5
26D
330
19A
100
AcDbSymbolTableRecord
100
AcDbLinetypeTableRecord
  2
PHANTOMX2
 70
     0
  3
Phantom (2x) ____________    ____    ____   _
 72
    65
 73
     6
 40
127.0
 49
63.5
 74
     0
 49
-12.7
 74
     0
 49
12.7
 74
     0
 49
-12.7
 74
     0
 49
12.7
 74
     0
 49
-12.7
 74
     0
  0
LTYPE
  5
26F
330
19A
100
AcDbSymbolTableRecord
100
AcDbLinetypeTableRecord
  2
TRACKS
 70
     0
  3
Tracks -|-|-|-|-|-|-|-|-|-|-|-|-|-|-|-|-|-|-|-|-|-|-|-|-
 72
    65
 73
     2
 40
7.62
 49
3.81
 74
     2
 75
     0
340
26E
 46
6.35
 50
0.0
 44
0.0
 45
0.0
  9
TRACK1
 49
3.81
 74
     0
  0
LTYPE
  5
272
330
19A
100
AcDbSymbolTableRecord
100
AcDbLinetypeTableRecord
  2
ZIGZAG
 70
     0
  3
Zig zag /\/\/\/\/\/\/\/\/\/\/\/\/\/\/\/\/\/\/\/\/\/\/\/
 72
    65
 73
     4
 40
20.32254
 49
0.00254
 74
     0
 49
-5.08
 74
     2
 75
     0
340
270
 46
5.08
 50
0.0
 44
-5.08
 45
0.0
  9
ZIG
 49
-10.16
 74
     2
 75
     0
340
271
 46
5.08
 50
180.0
 44
5.08
 45
0.0
  9
ZIG
 49
-5.08
 74
     0
  0
ENDTAB
  0
TABLE
  2
LAYER
  5
197
330
0
100
AcDbSymbolTable
 70
     5
  0
LAYER
  5
1A5
330
197
100
AcDbSymbolTableRecord
100
AcDbLayerTableRecord
  2
0
 70
     0
 62
     7
420
 16777215
  6
Continuous
370
    25
390
1A4
347
1DA
348
0
  0
LAYER
  5
273
330
197
100
AcDbSymbolTableRecord
100
AcDbLayerTableRecord
  2
0 ... Seuil
 70
     1
 62
   178
420
        0
  6
Continuous
370
    25
390
1A4
347
1DA
348
0
  0
LAYER
  5
274
330
197
100
AcDbSymbolTableRecord
100
AcDbLayerTableRecord
  2
0 ... Seuil ... Rectangle
 70
     0
 62
     5
420
      255
  6
Continuous
370
    25
390
1A4
347
1DA
348
0
  0
LAYER
  5
275
330
197
100
AcDbSymbolTableRecord
100
AcDbLayerTableRecord
  2
0 ... Seuil ... Rectangle ... Cotes Angles
 70
     0
 62
     4
420
    65535
  6
Continuous
370
    25
390
1A4
347
1DA
348
0
  0
LAYER
  5
276
330
197
100
AcDbSymbolTableRecord
100
AcDbLayerTableRecord
  2
Defpoints
 70
     0
 62
     7
420
 16777215
  6
Continuous
290
     0
370
    -3
390
1A4
347
1DA
348
0
  0
ENDTAB
  0
TABLE
  2
STYLE
  5
198
330
0
100
AcDbSymbolTable
 70
    22
  0
STYLE
  5
1A6
330
198
100
AcDbSymbolTableRecord
100
AcDbTextStyleTableRecord
  2
Standard
 70
     0
 40
0.0
 41
1.0
 50
0.0
 71
     0
 42
0.2
  3
txt
  4

  0
STYLE
  5
237
330
198
100
AcDbSymbolTableRecord
100
AcDbTextStyleTableRecord
  2
QCADDimTextStyle
 70
     0
 40
0.0
 41
1.0
 50
0.0
 71
     0
 42
0.2
  3

  4

  0
STYLE
  5
247
330
198
100
AcDbSymbolTableRecord
100
AcDbTextStyleTableRecord
  2
textstyle0
 70
     0
 40
0.0
 41
1.0
 50
0.0
 71
     0
 42
0.2
  3
ltypeshp.shx
  4

  0
STYLE
  5
248
330
198
100
AcDbSymbolTableRecord
100
AcDbTextStyleTableRecord
  2
textstyle1
 70
     0
 40
0.0
 41
1.0
 50
0.0
 71
     0
 42
0.2
  3
ltypeshp.shx
  4

  0
STYLE
  5
25C
330
198
100
AcDbSymbolTableRecord
100
AcDbTextStyleTableRecord
  2
textstyle2
 70
     0
 40
0.0
 41
1.0
 50
0.0
 71
     0
 42
0.2
  3
qcadshp.shx
  4

  0
STYLE
  5
25E
330
198
100
AcDbSymbolTableRecord
100
AcDbTextStyleTableRecord
  2
textstyle3
 70
     0
 40
0.0
 41
1.0
 50
0.0
 71
     0
 42
0.2
  3
qcadshp.shx
  4

  0
STYLE
  5
260
330
198
100
AcDbSymbolTableRecord
100
AcDbTextStyleTableRecord
  2
textstyle4
 70
     0
 40
0.0
 41
1.0
 50
0.0
 71
     0
 42
0.2
  3
ltypeshp.shx
  4

  0
STYLE
  5
262
330
198
100
AcDbSymbolTableRecord
100
AcDbTextStyleTableRecord
  2
textstyle5
 70
     0
 40
0.0
 41
1.0
 50
0.0
 71
     0
 42
0.2
  3
ltypeshp.shx
  4

  0
STYLE
  5
264
330
198
100
AcDbSymbolTableRecord
100
AcDbTextStyleTableRecord
  2
textstyle6
 70
     0
 40
0.0
 41
1.0
 50
0.0
 71
     0
 42
0.2
  3
STANDARD
  4

  0
STYLE
  5
269
330
198
100
AcDbSymbolTableRecord
100
AcDbTextStyleTableRecord
  2
textstyle7
 70
     0
 40
0.0
 41
1.0
 50
0.0
 71
     0
 42
0.2
  3
STANDARD
  4

  0
STYLE
  5
26E
330
198
100
AcDbSymbolTableRecord
100
AcDbTextStyleTableRecord
  2
textstyle8
 70
     0
 40
0.0
 41
1.0
 50
0.0
 71
     0
 42
0.2
  3
ltypeshp.shx
  4

  0
STYLE
  5
270
330
198
100
AcDbSymbolTableRecord
100
AcDbTextStyleTableRecord
  2
textstyle9
 70
     0
 40
0.0
 41
1.0
 50
0.0
 71
     0
 42
0.2
  3
ltypeshp.shx
  4

  0
STYLE
  5
271
330
198
100
AcDbSymbolTableRecord
100
AcDbTextStyleTableRecord
  2
textstyle10
 70
     0
 40
0.0
 41
1.0
 50
0.0
 71
     0
 42
0.2
  3
ltypeshp.shx
  4

  0
STYLE
  5
2FB
330
198
100
AcDbSymbolTableRecord
100
AcDbTextStyleTableRecord
  2
textstyle11
 70
     0
 40
0.0
 41
1.0
 50
0.0
 71
     0
 42
0.2
  3

  4

1001
ACAD
1000
Liberation Sans
1071
        0
  0
STYLE
  5
2FC
330
198
100
AcDbSymbolTableRecord
100
AcDbTextStyleTableRecord
  2
textstyle12
 70
     0
 40
0.0
 41
1.0
 50
0.0
 71
     0
 42
0.2
  3

  4

1001
ACAD
1000
Liberation Sans
1071
        0
  0
STYLE
  5
30C
330
198
100
AcDbSymbolTableRecord
100
AcDbTextStyleTableRecord
  2
textstyle13
 70
     0
 40
0.0
 41
1.0
 50
0.0
 71
     0
 42
0.2
  3

  4

1001
ACAD
1000
Liberation Sans
1071
        0
  0
STYLE
  5
30D
330
198
100
AcDbSymbolTableRecord
100
AcDbTextStyleTableRecord
  2
textstyle14
 70
     0
 40
0.0
 41
1.0
 50
0.0
 71
     0
 42
0.2
  3

  4

1001
ACAD
1000
Liberation Sans
1071
        0
  0
STYLE
  5
30E
330
198
100
AcDbSymbolTableRecord
100
AcDbTextStyleTableRecord
  2
textstyle15
 70
     0
 40
0.0
 41
1.0
 50
0.0
 71
     0
 42
0.2
  3

  4

1001
ACAD
1000
Liberation Sans
1071
        0
  0
STYLE
  5
30F
330
198
100
AcDbSymbolTableRecord
100
AcDbTextStyleTableRecord
  2
textstyle16
 70
     0
 40
0.0
 41
1.0
 50
0.0
 71
     0
 42
0.2
  3

  4

1001
ACAD
1000
Liberation Sans
1071
        0
  0
STYLE
  5
310
330
198
100
AcDbSymbolTableRecord
100
AcDbTextStyleTableRecord
  2
textstyle17
 70
     0
 40
0.0
 41
1.0
 50
0.0
 71
     0
 42
0.2
  3

  4

1001
ACAD
1000
Liberation Sans
1071
        0
  0
STYLE
  5
311
330
198
100
AcDbSymbolTableRecord
100
AcDbTextStyleTableRecord
  2
textstyle18
 70
     0
 40
0.0
 41
1.0
 50
0.0
 71
     0
 42
0.2
  3

  4

1001
ACAD
1000
Liberation Sans
1071
        0
  0
STYLE
  5
344
330
198
100
AcDbSymbolTableRecord
100
AcDbTextStyleTableRecord
  2
textstyle19
 70
     0
 40
0.0
 41
1.0
 50
0.0
 71
     0
 42
0.2
  3

  4

1001
ACAD
1000
Liberation Sans
1071
        0
  0
ENDTAB
  0
TABLE
  2
VIEW
  5
19B
330
0
100
AcDbSymbolTable
 70
     0
  0
ENDTAB
  0
TABLE
  2
UCS
  5
19C
330
0
100
AcDbSymbolTable
 70
     0
  0
ENDTAB
  0
TABLE
  2
APPID
  5
19E
330
0
100
AcDbSymbolTable
 70
     2
  0
APPID
  5
1A7
330
19E
100
AcDbSymbolTableRecord
100
AcDbRegAppTableRecord
  2
ACAD
 70
     0
  0
APPID
  5
202
330
19E
100
AcDbSymbolTableRecord
100
AcDbRegAppTableRecord
  2
QCAD
 70
     0
  0
ENDTAB
  0
TABLE
  2
DIMSTYLE
  5
19F
330
0
100
AcDbSymbolTable
 70
     2
100
AcDbDimStyleTable
  0
DIMSTYLE
105
1BB
330
19F
100
AcDbSymbolTableRecord
100
AcDbDimStyleTableRecord
  2
Standard
 70
     0
178
     0
340
1A6
  0
DIMSTYLE
105
238
102
{ACAD_REACTORS
330
44
330
45
330
46
330
47
330
48
330
4F
330
50
330
51
330
52
330
53
330
58
330
99
330
A2
330
B3
330
B4
330
B5
102
}
330
19F
100
AcDbSymbolTableRecord
100
AcDbDimStyleTableRecord
  2
QCADDimStyle
 70
     0
 41
20.0
 42
5.0
 44
10.0
 73
     0
 77
     1
140
20.0
147
5.0
178
     0
340
237
  0
ENDTAB
  0
TABLE
  2
BLOCK_RECORD
  5
196
330
0
100
AcDbSymbolTable
 70
    17
  0
BLOCK_RECORD
  5
1B3
330
196
100
AcDbSymbolTableRecord
100
AcDbBlockTableRecord
  2
*Model_Space
340
1B6
 70
     0
280
     1
281
     0
  0
BLOCK_RECORD
  5
1AF
330
196
100
AcDbSymbolTableRecord
100
AcDbBlockTableRecord
  2
*Paper_Space
340
1B2
 70
     0
280
     1
281
     0
  0
BLOCK_RECORD
  5
1B7
330
196
100
AcDbSymbolTableRecord
100
AcDbBlockTableRecord
  2
*Paper_Space0
340
1BA
 70
     0
280
     1
281
     0
  0
BLOCK_RECORD
  5
277
330
196
100
AcDbSymbolTableRecord
100
AcDbBlockTableRecord
  2
*D1
340
0
 70
     0
280
     1
281
     0
  0
BLOCK_RECORD
  5
283
330
196
100
AcDbSymbolTableRecord
100
AcDbBlockTableRecord
  2
*D2
340
0
 70
     0
280
     1
281
     0
  0
BLOCK_RECORD
  5
28F
330
196
100
AcDbSymbolTableRecord
100
AcDbBlockTableRecord
  2
*D3
340
0
 70
     0
280
     1
281
     0
  0
BLOCK_RECORD
  5
29B
330
196
100
AcDbSymbolTableRecord
100
AcDbBlockTableRecord
  2
*D4
340
0
 70
     0
280
     1
281
     0
  0
BLOCK_RECORD
  5
2A6
330
196
100
AcDbSymbolTableRecord
100
AcDbBlockTableRecord
  2
*D5
340
0
 70
     0
280
     1
281
     0
  0
BLOCK_RECORD
  5
2B3
330
196
100
AcDbSymbolTableRecord
100
AcDbBlockTableRecord
  2
*D6
340
0
 70
     0
280
     1
281
     0
  0
BLOCK_RECORD
  5
2BF
330
196
100
AcDbSymbolTableRecord
100
AcDbBlockTableRecord
  2
*D7
340
0
 70
     0
280
     1
281
     0
  0
BLOCK_RECORD
  5
2CB
330
196
100
AcDbSymbolTableRecord
100
AcDbBlockTableRecord
  2
*D8
340
0
 70
     0
280
     1
281
     0
  0
BLOCK_RECORD
  5
2D7
330
196
100
AcDbSymbolTableRecord
100
AcDbBlockTableRecord
  2
*D9
340
0
 70
     0
280
     1
281
     0
  0
BLOCK_RECORD
  5
2E3
330
196
100
AcDbSymbolTableRecord
100
AcDbBlockTableRecord
  2
*D10
340
0
 70
     0
280
     1
281
     0
  0
BLOCK_RECORD
  5
2EF
330
196
100
AcDbSymbolTableRecord
100
AcDbBlockTableRecord
  2
*D11
340
0
 70
     0
280
     1
281
     0
  0
BLOCK_RECORD
  5
2FD
330
196
100
AcDbSymbolTableRecord
100
AcDbBlockTableRecord
  2
*D12
340
0
 70
     0
280
     1
281
     0
  0
BLOCK_RECORD
  5
312
330
196
100
AcDbSymbolTableRecord
100
AcDbBlockTableRecord
  2
*D13
340
0
 70
     0
280
     1
281
     0
  0
BLOCK_RECORD
  5
321
330
196
100
AcDbSymbolTableRecord
100
AcDbBlockTableRecord
  2
*D14
340
0
 70
     0
280
     1
281
     0
  0
BLOCK_RECORD
  5
32C
330
196
100
AcDbSymbolTableRecord
100
AcDbBlockTableRecord
  2
*D15
340
0
 70
     0
280
     1
281
     0
  0
BLOCK_RECORD
  5
338
330
196
100
AcDbSymbolTableRecord
100
AcDbBlockTableRecord
  2
*D16
340
0
 70
     0
280
     1
281
     0
  0
ENDTAB
  0
ENDSEC
  0
SECTION
  2
BLOCKS
  0
BLOCK
  5
1B4
330
1B3
100
AcDbEntity
  8
0
100
AcDbBlockBegin
  2
*Model_Space
 70
     0
 10
0.0
 20
0.0
 30
0.0
  3
*Model_Space
  1
*Model_Space
  0
ENDBLK
  5
1B5
330
1B3
100
AcDbEntity
  8
0
100
AcDbBlockEnd
  0
BLOCK
  5
1B0
330
1AF
100
AcDbEntity
 67
     1
  8
0
100
AcDbBlockBegin
  2
*Paper_Space
 70
     0
 10
0.0
 20
0.0
 30
0.0
  3
*Paper_Space
  1
*Paper_Space
  0
ENDBLK
  5
1B1
330
1AF
100
AcDbEntity
 67
     1
  8
0
100
AcDbBlockEnd
  0
BLOCK
  5
1B8
330
1B7
100
AcDbEntity
  8
0
100
AcDbBlockBegin
  2
*Paper_Space0
 70
     0
 10
0.0
 20
0.0
 30
0.0
  3
*Paper_Space0
  1
*Paper_Space0
  0
ENDBLK
  5
1B9
330
1B7
100
AcDbEntity
  8
0
100
AcDbBlockEnd
  0
BLOCK
  5
278
330
277
100
AcDbEntity
  8
0
100
AcDbBlockBegin
  2
*D1
 70
     1
 10
0.0
 20
0.0
 30
0.0
  3
*D1
  1
*D1
  0
LINE
  5
27A
330
277
100
AcDbEntity
  8
0 ... Seuil ... Rectangle ... Cotes Angles
 62
     0
370
    -2
100
AcDbLine
 10
366.8257814992816
 20
954.6341528321635
 30
0.0
 11
312.2991217912922
 21
949.8636882477781
 31
0.0
  0
LINE
  5
27B
330
277
100
AcDbEntity
  8
0 ... Seuil ... Rectangle ... Cotes Angles
 62
     0
370
    -2
100
AcDbLine
 10
382.6612295974757
 20
773.6341528321678
 30
0.0
 11
328.1345698894863
 21
768.8636882477824
 31
0.0
  0
LINE
  5
27C
330
277
100
AcDbEntity
  8
0 ... Seuil ... Rectangle ... Cotes Angles
 62
     0
370
    -2
100
AcDbLine
 10
322.2610687722096
 20
950.7352456752548
 30
0.0
 11
338.0965168704037
 21
769.7352456752591
 31
0.0
  0
LINE
  5
27D
330
277
100
AcDbEntity
  8
0 ... Seuil ... Rectangle ... Cotes Angles
 62
     0
370
    -2
100
AcDbLine
 10
343.9280775889979
 20
932.5544665683733
 30
0.0
 11
300.5940599554214
 21
968.9160247821362
 31
0.0
  0
LINE
  5
27E
330
277
100
AcDbEntity
  8
0 ... Seuil ... Rectangle ... Cotes Angles
 62
     0
370
    -2
100
AcDbLine
 10
316.4295080536155
 20
787.9160247821405
 30
0.0
 11
359.763525687192
 21
751.5544665683776
 31
0.0
  0
MTEXT
  5
27F
330
277
100
AcDbEntity
  8
0 ... Seuil ... Rectangle ... Cotes Angles
 62
     0
100
AcDbMText
 10
345.1217132926828
 20
861.542581816472
 30
0.0
 40
20.0
 41
0.0
 46
0.0
 71
     5
 72
     1
  1
\A1;181.6914
  7
QCADDimTextStyle
 11
0.08715574274767032
 21
-0.9961946980917444
 31
0.0
 73
     1
 44
1.0
  0
POINT
  5
280
330
277
100
AcDbEntity
  8
Defpoints
 62
     0
100
AcDbPoint
 10
371.8067549897403
 20
955.0699315459019
 30
0.0
  0
POINT
  5
281
330
277
100
AcDbEntity
  8
Defpoints
 62
     0
100
AcDbPoint
 10
387.6422030879344
 20
774.0699315459062
 30
0.0
  0
POINT
  5
282
330
277
100
AcDbEntity
  8
Defpoints
 62
     0
100
AcDbPoint
 10
338.0965168704037
 20
769.7352456752591
 30
0.0
  0
ENDBLK
  5
279
330
277
100
AcDbEntity
  8
0
100
AcDbBlockEnd
  0
BLOCK
  5
284
330
283
100
AcDbEntity
  8
0
100
AcDbBlockBegin
  2
*D2
 70
     1
 10
0.0
 20
0.0
 30
0.0
  3
*D2
  1
*D2
  0
LINE
  5
286
330
283
100
AcDbEntity
  8
0 ... Seuil ... Rectangle ... Cotes Angles
 62
     0
370
    -2
100
AcDbLine
 10
394.8980189422882
 20
979.0699315459067
 30
0.0
 11
277.5324764520021
 21
979.0699315459067
 31
0.0
  0
LINE
  5
287
330
283
100
AcDbEntity
  8
0 ... Seuil ... Rectangle ... Cotes Angles
 62
     0
370
    -2
100
AcDbLine
 10
366.8067549897403
 20
955.0699315459019
 30
0.0
 11
277.5324764520021
 21
955.0699315459019
 31
0.0
  0
LINE
  5
288
330
283
100
AcDbEntity
  8
0 ... Seuil ... Rectangle ... Cotes Angles
 62
     0
370
    -2
100
AcDbLine
 10
287.5324764520021
 20
979.0699315459067
 30
0.0
 11
287.5324764520021
 21
955.0699315459019
 31
0.0
  0
LINE
  5
289
330
283
100
AcDbEntity
  8
0 ... Seuil ... Rectangle ... Cotes Angles
 62
     0
370
    -2
100
AcDbLine
 10
307.5324764520021
 20
959.0699315459067
 30
0.0
 11
267.5324764520021
 21
999.0699315459067
 31
0.0
  0
LINE
  5
28A
330
283
100
AcDbEntity
  8
0 ... Seuil ... Rectangle ... Cotes Angles
 62
     0
370
    -2
100
AcDbLine
 10
267.5324764520021
 20
975.0699315459019
 30
0.0
 11
307.5324764520021
 21
935.0699315459019
 31
0.0
  0
MTEXT
  5
28B
330
283
100
AcDbEntity
  8
0 ... Seuil ... Rectangle ... Cotes Angles
 62
     0
100
AcDbMText
 10
260.0324764520021
 20
967.0699315459043
 30
0.0
 40
20.0
 41
0.0
 46
0.0
 71
     5
 72
     1
  1
\A1;24
  7
QCADDimTextStyle
 73
     1
 44
1.0
  0
POINT
  5
28C
330
283
100
AcDbEntity
  8
Defpoints
 62
     0
100
AcDbPoint
 10
399.8980189422882
 20
979.0699315459067
 30
0.0
  0
POINT
  5
28D
330
283
100
AcDbEntity
  8
Defpoints
 62
     0
100
AcDbPoint
 10
371.8067549897403
 20
955.0699315459019
 30
0.0
  0
POINT
  5
28E
330
283
100
AcDbEntity
  8
Defpoints
 62
     0
100
AcDbPoint
 10
287.5324764520021
 20
955.0699315459019
 30
0.0
  0
ENDBLK
  5
285
330
283
100
AcDbEntity
  8
0
100
AcDbBlockEnd
  0
BLOCK
  5
290
330
28F
100
AcDbEntity
  8
0
100
AcDbBlockBegin
  2
*D3
 70
     1
 10
0.0
 20
0.0
 30
0.0
  3
*D3
  1
*D3
  0
LINE
  5
292
330
28F
100
AcDbEntity
  8
0 ... Seuil ... Rectangle ... Cotes Angles
 62
     0
370
    -2
100
AcDbLine
 10
366.8067549897403
 20
955.0699315459019
 30
0.0
 11
277.5324764520024
 21
955.0699315459019
 31
0.0
  0
LINE
  5
293
330
28F
100
AcDbEntity
  8
0 ... Seuil ... Rectangle ... Cotes Angles
 62
     0
370
    -2
100
AcDbLine
 10
382.6422030879344
 20
774.0699315459062
 30
0.0
 11
277.5324764520024
 21
774.0699315459062
 31
0.0
  0
LINE
  5
294
330
28F
100
AcDbEntity
  8
0 ... Seuil ... Rectangle ... Cotes Angles
 62
     0
370
    -2
100
AcDbLine
 10
287.5324764520024
 20
955.0699315459019
 30
0.0
 11
287.5324764520024
 21
774.0699315459062
 31
0.0
  0
LINE
  5
295
330
28F
100
AcDbEntity
  8
0 ... Seuil ... Rectangle ... Cotes Angles
 62
     0
370
    -2
100
AcDbLine
 10
307.5324764520024
 20
935.0699315459019
 30
0.0
 11
267.5324764520024
 21
975.0699315459019
 31
0.0
  0
LINE
  5
296
330
28F
100
AcDbEntity
  8
0 ... Seuil ... Rectangle ... Cotes Angles
 62
     0
370
    -2
100
AcDbLine
 10
267.5324764520024
 20
794.0699315459062
 30
0.0
 11
307.5324764520024
 21
754.0699315459062
 31
0.0
  0
MTEXT
  5
297
330
28F
100
AcDbEntity
  8
0 ... Seuil ... Rectangle ... Cotes Angles
 62
     0
100
AcDbMText
 10
272.5324764520024
 20
864.5699315459041
 30
0.0
 40
20.0
 41
0.0
 46
0.0
 71
     5
 72
     1
  1
\A1;181
  7
QCADDimTextStyle
 11
0.0
 21
1.0
 31
0.0
 73
     1
 44
1.0
  0
POINT
  5
298
330
28F
100
AcDbEntity
  8
Defpoints
 62
     0
100
AcDbPoint
 10
371.8067549897403
 20
955.0699315459019
 30
0.0
  0
POINT
  5
299
330
28F
100
AcDbEntity
  8
Defpoints
 62
     0
100
AcDbPoint
 10
387.6422030879344
 20
774.0699315459062
 30
0.0
  0
POINT
  5
29A
330
28F
100
AcDbEntity
  8
Defpoints
 62
     0
100
AcDbPoint
 10
287.5324764520024
 20
774.0699315459062
 30
0.0
  0
ENDBLK
  5
291
330
28F
100
AcDbEntity
  8
0
100
AcDbBlockEnd
  0
BLOCK
  5
29C
330
29B
100
AcDbEntity
  8
0
100
AcDbBlockBegin
  2
*D4
 70
     1
 10
0.0
 20
0.0
 30
0.0
  3
*D4
  1
*D4
  0
LINE
  5
29E
330
29B
100
AcDbEntity
  8
0 ... Seuil ... Rectangle ... Cotes Angles
 62
     0
370
    -2
100
AcDbLine
 10
424.898018942285
 20
979.0699315458999
 30
0.0
 11
465.6896467800489
 21
979.0699315458999
 31
0.0
  0
LINE
  5
29F
330
29B
100
AcDbEntity
  8
0 ... Seuil ... Rectangle ... Cotes Angles
 62
     0
370
    -2
100
AcDbLine
 10
425.0292519375764
 20
977.569931545903
 30
0.0
 11
465.6896467800489
 21
977.569931545903
 31
0.0
  0
LINE
  5
2A0
330
29B
100
AcDbEntity
  8
0 ... Seuil ... Rectangle ... Cotes Angles
 62
     0
370
    -2
100
AcDbLine
 10
435.6896467800489
 20
999.0699315458999
 30
0.0
 11
475.6896467800489
 21
959.0699315458999
 31
0.0
  0
LINE
  5
2A1
330
29B
100
AcDbEntity
  8
0 ... Seuil ... Rectangle ... Cotes Angles
 62
     0
370
    -2
100
AcDbLine
 10
475.6896467800489
 20
957.569931545903
 30
0.0
 11
435.6896467800489
 21
997.569931545903
 31
0.0
  0
MTEXT
  5
2A2
330
29B
100
AcDbEntity
  8
0 ... Seuil ... Rectangle ... Cotes Angles
 62
     0
100
AcDbMText
 10
483.1896467800489
 20
978.3199315459015
 30
0.0
 40
20.0
 41
0.0
 46
0.0
 71
     5
 72
     1
  1
\A1;1.5
  7
QCADDimTextStyle
 73
     1
 44
1.0
  0
POINT
  5
2A3
330
29B
100
AcDbEntity
  8
Defpoints
 62
     0
100
AcDbPoint
 10
419.898018942285
 20
979.0699315458999
 30
0.0
  0
POINT
  5
2A4
330
29B
100
AcDbEntity
  8
Defpoints
 62
     0
100
AcDbPoint
 10
420.0292519375764
 20
977.569931545903
 30
0.0
  0
POINT
  5
2A5
330
29B
100
AcDbEntity
  8
Defpoints
 62
     0
100
AcDbPoint
 10
455.6896467800489
 20
977.569931545903
 30
0.0
  0
ENDBLK
  5
29D
330
29B
100
AcDbEntity
  8
0
100
AcDbBlockEnd
  0
BLOCK
  5
2A7
330
2A6
100
AcDbEntity
  8
0
100
AcDbBlockBegin
  2
*D5
 70
     1
 10
0.0
 20
0.0
 30
0.0
  3
*D5
  1
*D5
  0
LINE
  5
2A9
330
2A6
100
AcDbEntity
  8
0 ... Seuil ... Rectangle ... Cotes Angles
 62
     0
370
    -2
100
AcDbLine
 10
378.4990402842932
 20
878.5767606041233
 30
0.0
 11
378.9814856625008
 21
873.0623846979585
 31
0.0
  0
LINE
  5
2AA
330
2A6
100
AcDbEntity
  8
0 ... Seuil ... Rectangle ... Cotes Angles
 62
     0
370
    -2
100
AcDbLine
 10
428.3087751888804
 20
882.9345477414845
 30
0.0
 11
428.791220567088
 21
877.4201718353197
 31
0.0
  0
LINE
  5
2AB
330
2A6
100
AcDbEntity
  8
0 ... Seuil ... Rectangle ... Cotes Angles
 62
     0
370
    -2
100
AcDbLine
 10
378.1099282350284
 20
883.0243316788763
 30
0.0
 11
381.9049556563244
 21
883.356353556008
 31
0.0
  0
LINE
  5
2AC
330
2A6
100
AcDbEntity
  8
0 ... Seuil ... Rectangle ... Cotes Angles
 62
     0
370
    -2
100
AcDbLine
 10
427.9196631396156
 20
887.3821188162375
 30
0.0
 11
424.1246357183095
 21
887.0500969391048
 31
0.0
  0
LINE
  5
2AD
330
2A6
100
AcDbEntity
  8
0 ... Seuil ... Rectangle ... Cotes Angles
 62
     0
370
    -2
100
AcDbLine
 10
396.2907073419195
 20
904.6913404956565
 30
0.0
 11
359.9291491281373
 21
861.357322862096
 31
0.0
  0
LINE
  5
2AE
330
2A6
100
AcDbEntity
  8
0 ... Seuil ... Rectangle ... Cotes Angles
 62
     0
370
    -2
100
AcDbLine
 10
409.7388840327245
 20
865.7151099994572
 30
0.0
 11
446.1004422465067
 21
909.0491276330177
 31
0.0
  0
MTEXT
  5
2AF
330
2A6
100
AcDbEntity
  8
0 ... Seuil ... Rectangle ... Cotes Angles
 62
     0
100
AcDbMText
 10
401.7074595461243
 20
900.1461457187539
 30
0.0
 40
20.0
 41
0.0
 46
0.0
 71
     5
 72
     1
  1
\A1;50
  7
QCADDimTextStyle
 11
0.9961946980917833
 21
0.08715574274722833
 31
0.0
 73
     1
 44
1.0
  0
POINT
  5
2B0
330
2A6
100
AcDbEntity
  8
Defpoints
 62
     0
100
AcDbPoint
 10
378.063261570557
 20
883.5577340945822
 30
0.0
  0
POINT
  5
2B1
330
2A6
100
AcDbEntity
  8
Defpoints
 62
     0
100
AcDbPoint
 10
427.8729964751442
 20
887.9155212319434
 30
0.0
  0
POINT
  5
2B2
330
2A6
100
AcDbEntity
  8
Defpoints
 62
     0
100
AcDbPoint
 10
427.9196631396156
 20
887.3821188162375
 30
0.0
  0
ENDBLK
  5
2A8
330
2A6
100
AcDbEntity
  8
0
100
AcDbBlockEnd
  0
BLOCK
  5
2B4
330
2B3
100
AcDbEntity
  8
0
100
AcDbBlockBegin
  2
*D6
 70
     1
 10
0.0
 20
0.0
 30
0.0
  3
*D6
  1
*D6
  0
LINE
  5
2B6
330
2B3
100
AcDbEntity
  8
0 ... Seuil ... Rectangle ... Cotes Angles
 62
     0
370
    -2
100
AcDbLine
 10
424.898018942285
 20
979.0699315458999
 30
0.0
 11
569.5737843180091
 21
979.0699315458999
 31
0.0
  0
LINE
  5
2B7
330
2B3
100
AcDbEntity
  8
0 ... Seuil ... Rectangle ... Cotes Angles
 62
     0
370
    -2
100
AcDbLine
 10
459.0142283379728
 20
744.0699315459055
 30
0.0
 11
569.5737843180091
 21
744.0699315459055
 31
0.0
  0
LINE
  5
2B8
330
2B3
100
AcDbEntity
  8
0 ... Seuil ... Rectangle ... Cotes Angles
 62
     0
370
    -2
100
AcDbLine
 10
559.5737843180091
 20
979.0699315458999
 30
0.0
 11
559.5737843180091
 21
744.0699315459055
 31
0.0
  0
LINE
  5
2B9
330
2B3
100
AcDbEntity
  8
0 ... Seuil ... Rectangle ... Cotes Angles
 62
     0
370
    -2
100
AcDbLine
 10
579.5737843180091
 20
959.0699315458999
 30
0.0
 11
539.5737843180091
 21
999.0699315458999
 31
0.0
  0
LINE
  5
2BA
330
2B3
100
AcDbEntity
  8
0 ... Seuil ... Rectangle ... Cotes Angles
 62
     0
370
    -2
100
AcDbLine
 10
539.5737843180091
 20
764.0699315459055
 30
0.0
 11
579.5737843180091
 21
724.0699315459055
 31
0.0
  0
MTEXT
  5
2BB
330
2B3
100
AcDbEntity
  8
0 ... Seuil ... Rectangle ... Cotes Angles
 62
     0
100
AcDbMText
 10
544.5737843180091
 20
861.5699315459027
 30
0.0
 40
20.0
 41
0.0
 46
0.0
 71
     5
 72
     1
  1
\A1;235
  7
QCADDimTextStyle
 11
0.0
 21
1.0
 31
0.0
 73
     1
 44
1.0
  0
POINT
  5
2BC
330
2B3
100
AcDbEntity
  8
Defpoints
 62
     0
100
AcDbPoint
 10
419.898018942285
 20
979.0699315458999
 30
0.0
  0
POINT
  5
2BD
330
2B3
100
AcDbEntity
  8
Defpoints
 62
     0
100
AcDbPoint
 10
454.0142283379728
 20
744.0699315459055
 30
0.0
  0
POINT
  5
2BE
330
2B3
100
AcDbEntity
  8
Defpoints
 62
     0
100
AcDbPoint
 10
559.5737843180091
 20
744.0699315459055
 30
0.0
  0
ENDBLK
  5
2B5
330
2B3
100
AcDbEntity
  8
0
100
AcDbBlockEnd
  0
BLOCK
  5
2C0
330
2BF
100
AcDbEntity
  8
0
100
AcDbBlockBegin
  2
*D7
 70
     1
 10
0.0
 20
0.0
 30
0.0
  3
*D7
  1
*D7
  0
LINE
  5
2C2
330
2BF
100
AcDbEntity
  8
0 ... Seuil ... Rectangle ... Cotes Angles
 62
     0
370
    -2
100
AcDbLine
 10
447.4165912086335
 20
755.6765332637058
 30
0.0
 11
492.3418799963443
 21
800.6018220514015
 31
0.0
  0
LINE
  5
2C3
330
2BF
100
AcDbEntity
  8
0 ... Seuil ... Rectangle ... Cotes Angles
 62
     0
370
    -2
100
AcDbLine
 10
454.4876590204985
 20
748.6054654518383
 30
0.0
 11
499.4129478082094
 21
793.5307542395341
 31
0.0
  0
LINE
  5
2C4
330
2BF
100
AcDbEntity
  8
0 ... Seuil ... Rectangle ... Cotes Angles
 62
     0
370
    -2
100
AcDbLine
 10
485.2708121844777
 20
793.5307542395373
 30
0.0
 11
492.3418799963428
 21
786.4596864276698
 31
0.0
  0
LINE
  5
2C5
330
2BF
100
AcDbEntity
  8
0 ... Seuil ... Rectangle ... Cotes Angles
 62
     0
370
    -2
100
AcDbLine
 10
513.5550834319396
 20
793.5307542395325
 30
0.0
 11
456.9865409370158
 21
793.530754239542
 31
0.0
  0
LINE
  5
2C6
330
2BF
100
AcDbEntity
  8
0 ... Seuil ... Rectangle ... Cotes Angles
 62
     0
370
    -2
100
AcDbLine
 10
464.0576087488809
 20
786.4596864276746
 30
0.0
 11
520.6261512438047
 21
786.459686427665
 31
0.0
  0
MTEXT
  5
2C7
330
2BF
100
AcDbEntity
  8
0 ... Seuil ... Rectangle ... Cotes Angles
 62
     0
100
AcDbMText
 10
505.9090964240754
 20
807.6930469075501
 30
0.0
 40
20.0
 41
0.0
 46
0.0
 71
     5
 72
     1
  1
\A1;10
  7
QCADDimTextStyle
 11
0.7071067811864281
 21
-0.7071067811866669
 31
0.0
 73
     1
 44
1.0
  0
POINT
  5
2C8
330
2BF
100
AcDbEntity
  8
Defpoints
 62
     0
100
AcDbPoint
 10
443.8810573027001
 20
752.1409993577737
 30
0.0
  0
POINT
  5
2C9
330
2BF
100
AcDbEntity
  8
Defpoints
 62
     0
100
AcDbPoint
 10
450.9521251145652
 20
745.0699315459062
 30
0.0
  0
POINT
  5
2CA
330
2BF
100
AcDbEntity
  8
Defpoints
 62
     0
100
AcDbPoint
 10
492.3418799963428
 20
786.4596864276698
 30
0.0
  0
ENDBLK
  5
2C1
330
2BF
100
AcDbEntity
  8
0
100
AcDbBlockEnd
  0
BLOCK
  5
2CC
330
2CB
100
AcDbEntity
  8
0
100
AcDbBlockBegin
  2
*D8
 70
     1
 10
0.0
 20
0.0
 30
0.0
  3
*D8
  1
*D8
  0
LINE
  5
2CE
330
2CB
100
AcDbEntity
  8
0 ... Seuil ... Rectangle ... Cotes Angles
 62
     0
370
    -2
100
AcDbLine
 10
438.9521251145641
 20
740.0699315459063
 30
0.0
 11
438.9521251145637
 21
698.2059841122953
 31
0.0
  0
LINE
  5
2CF
330
2CB
100
AcDbEntity
  8
0 ... Seuil ... Rectangle ... Cotes Angles
 62
     0
370
    -2
100
AcDbLine
 10
450.9521251145651
 20
740.0699315459062
 30
0.0
 11
450.9521251145648
 21
698.2059841122951
 31
0.0
  0
LINE
  5
2D0
330
2CB
100
AcDbEntity
  8
0 ... Seuil ... Rectangle ... Cotes Angles
 62
     0
370
    -2
100
AcDbLine
 10
438.9521251145638
 20
708.2059841122953
 30
0.0
 11
450.9521251145649
 21
708.2059841122951
 31
0.0
  0
LINE
  5
2D1
330
2CB
100
AcDbEntity
  8
0 ... Seuil ... Rectangle ... Cotes Angles
 62
     0
370
    -2
100
AcDbLine
 10
458.952125114564
 20
728.205984112295
 30
0.0
 11
418.9521251145636
 21
688.2059841122955
 31
0.0
  0
LINE
  5
2D2
330
2CB
100
AcDbEntity
  8
0 ... Seuil ... Rectangle ... Cotes Angles
 62
     0
370
    -2
100
AcDbLine
 10
430.9521251145647
 20
688.2059841122954
 30
0.0
 11
470.952125114565
 21
728.2059841122949
 31
0.0
  0
MTEXT
  5
2D3
330
2CB
100
AcDbEntity
  8
0 ... Seuil ... Rectangle ... Cotes Angles
 62
     0
100
AcDbMText
 10
444.8349307426881
 20
680.9477353322054
 30
0.0
 40
20.0
 41
0.0
 46
0.0
 71
     5
 72
     1
  1
\A1;12
  7
QCADDimTextStyle
 73
     1
 44
1.0
  0
POINT
  5
2D4
330
2CB
100
AcDbEntity
  8
Defpoints
 62
     0
100
AcDbPoint
 10
438.9521251145641
 20
745.0699315459063
 30
0.0
  0
POINT
  5
2D5
330
2CB
100
AcDbEntity
  8
Defpoints
 62
     0
100
AcDbPoint
 10
450.9521251145652
 20
745.0699315459062
 30
0.0
  0
POINT
  5
2D6
330
2CB
100
AcDbEntity
  8
Defpoints
 62
     0
100
AcDbPoint
 10
450.9521251145649
 20
708.2059841122951
 30
0.0
  0
ENDBLK
  5
2CD
330
2CB
100
AcDbEntity
  8
0
100
AcDbBlockEnd
  0
BLOCK
  5
2D8
330
2D7
100
AcDbEntity
  8
0
100
AcDbBlockBegin
  2
*D9
 70
     1
 10
0.0
 20
0.0
 30
0.0
  3
*D9
  1
*D9
  0
LINE
  5
2DA
330
2D7
100
AcDbEntity
  8
0 ... Seuil ... Rectangle ... Cotes Angles
 62
     0
370
    -2
100
AcDbLine
 10
611.980350127378
 20
979.0699315459027
 30
0.0
 11
584.8705226801972
 21
979.0699315459027
 31
0.0
  0
LINE
  5
2DB
330
2D7
100
AcDbEntity
  8
0 ... Seuil ... Rectangle ... Cotes Angles
 62
     0
370
    -2
100
AcDbLine
 10
611.9803501273782
 20
774.0699315459051
 30
0.0
 11
584.8705226801974
 21
774.0699315459051
 31
0.0
  0
LINE
  5
2DC
330
2D7
100
AcDbEntity
  8
0 ... Seuil ... Rectangle ... Cotes Angles
 62
     0
370
    -2
100
AcDbLine
 10
594.8705226801972
 20
979.0699315459027
 30
0.0
 11
594.8705226801974
 21
774.0699315459051
 31
0.0
  0
LINE
  5
2DD
330
2D7
100
AcDbEntity
  8
0 ... Seuil ... Rectangle ... Cotes Angles
 62
     0
370
    -2
100
AcDbLine
 10
614.8705226801972
 20
959.0699315459027
 30
0.0
 11
574.8705226801972
 21
999.0699315459027
 31
0.0
  0
LINE
  5
2DE
330
2D7
100
AcDbEntity
  8
0 ... Seuil ... Rectangle ... Cotes Angles
 62
     0
370
    -2
100
AcDbLine
 10
574.8705226801974
 20
794.0699315459051
 30
0.0
 11
614.8705226801974
 21
754.0699315459051
 31
0.0
  0
MTEXT
  5
2DF
330
2D7
100
AcDbEntity
  8
0 ... Seuil ... Rectangle ... Cotes Angles
 62
     0
100
AcDbMText
 10
579.8705226801973
 20
876.569931545904
 30
0.0
 40
20.0
 41
0.0
 46
0.0
 71
     5
 72
     1
  1
\A1;205
  7
QCADDimTextStyle
 11
-1.109139880210901E-15
 21
1.0
 31
0.0
 73
     1
 44
1.0
  0
POINT
  5
2E0
330
2D7
100
AcDbEntity
  8
Defpoints
 62
     0
100
AcDbPoint
 10
616.980350127378
 20
979.0699315459027
 30
0.0
  0
POINT
  5
2E1
330
2D7
100
AcDbEntity
  8
Defpoints
 62
     0
100
AcDbPoint
 10
616.9803501273782
 20
774.0699315459051
 30
0.0
  0
POINT
  5
2E2
330
2D7
100
AcDbEntity
  8
Defpoints
 62
     0
100
AcDbPoint
 10
594.8705226801974
 20
774.0699315459051
 30
0.0
  0
ENDBLK
  5
2D9
330
2D7
100
AcDbEntity
  8
0
100
AcDbBlockEnd
  0
BLOCK
  5
2E4
330
2E3
100
AcDbEntity
  8
0
100
AcDbBlockBegin
  2
*D10
 70
     1
 10
0.0
 20
0.0
 30
0.0
  3
*D10
  1
*D10
  0
LINE
  5
2E6
330
2E3
100
AcDbEntity
  8
0 ... Seuil ... Rectangle ... Cotes Angles
 62
     0
370
    -2
100
AcDbLine
 10
616.980350127378
 20
984.0699315459027
 30
0.0
 11
616.980350127378
 21
1039.090053888712
 31
0.0
  0
LINE
  5
2E7
330
2E3
100
AcDbEntity
  8
0 ... Seuil ... Rectangle ... Cotes Angles
 62
     0
370
    -2
100
AcDbLine
 10
1667.980350127378
 20
984.0699315459019
 30
0.0
 11
1667.980350127378
 21
1039.090053888711
 31
0.0
  0
LINE
  5
2E8
330
2E3
100
AcDbEntity
  8
0 ... Seuil ... Rectangle ... Cotes Angles
 62
     0
370
    -2
100
AcDbLine
 10
616.980350127378
 20
1029.090053888712
 30
0.0
 11
1667.980350127378
 21
1029.090053888711
 31
0.0
  0
LINE
  5
2E9
330
2E3
100
AcDbEntity
  8
0 ... Seuil ... Rectangle ... Cotes Angles
 62
     0
370
    -2
100
AcDbLine
 10
636.980350127378
 20
1049.090053888712
 30
0.0
 11
596.980350127378
 21
1009.090053888712
 31
0.0
  0
LINE
  5
2EA
330
2E3
100
AcDbEntity
  8
0 ... Seuil ... Rectangle ... Cotes Angles
 62
     0
370
    -2
100
AcDbLine
 10
1647.980350127378
 20
1009.090053888711
 30
0.0
 11
1687.980350127378
 21
1049.090053888711
 31
0.0
  0
MTEXT
  5
2EB
330
2E3
100
AcDbEntity
  8
0 ... Seuil ... Rectangle ... Cotes Angles
 62
     0
100
AcDbMText
 10
1142.480350127378
 20
1044.090053888711
 30
0.0
 40
20.0
 41
0.0
 46
0.0
 71
     5
 72
     1
  1
\A1;1051
  7
QCADDimTextStyle
 73
     1
 44
1.0
  0
POINT
  5
2EC
330
2E3
100
AcDbEntity
  8
Defpoints
 62
     0
100
AcDbPoint
 10
616.980350127378
 20
979.0699315459027
 30
0.0
  0
POINT
  5
2ED
330
2E3
100
AcDbEntity
  8
Defpoints
 62
     0
100
AcDbPoint
 10
1667.980350127378
 20
979.0699315459019
 30
0.0
  0
POINT
  5
2EE
330
2E3
100
AcDbEntity
  8
Defpoints
 62
     0
100
AcDbPoint
 10
1667.980350127378
 20
1029.090053888711
 30
0.0
  0
ENDBLK
  5
2E5
330
2E3
100
AcDbEntity
  8
0
100
AcDbBlockEnd
  0
BLOCK
  5
2F0
330
2EF
100
AcDbEntity
  8
0
100
AcDbBlockBegin
  2
*D11
 70
     1
 10
0.0
 20
0.0
 30
0.0
  3
*D11
  1
*D11
  0
LINE
  5
2F2
330
2EF
100
AcDbEntity
  8
0 ... Seuil ... Rectangle ... Cotes Angles
 62
     0
370
    -2
100
AcDbLine
 10
394.8980189422882
 20
979.0699315459067
 30
0.0
 11
236.6417153412158
 21
979.0699315459067
 31
0.0
  0
LINE
  5
2F3
330
2EF
100
AcDbEntity
  8
0 ... Seuil ... Rectangle ... Cotes Angles
 62
     0
370
    -2
100
AcDbLine
 10
382.6422030879344
 20
774.0699315459062
 30
0.0
 11
236.6417153412158
 21
774.0699315459062
 31
0.0
  0
LINE
  5
2F4
330
2EF
100
AcDbEntity
  8
0 ... Seuil ... Rectangle ... Cotes Angles
 62
     0
370
    -2
100
AcDbLine
 10
246.6417153412158
 20
979.0699315459067
 30
0.0
 11
246.6417153412158
 21
774.0699315459062
 31
0.0
  0
LINE
  5
2F5
330
2EF
100
AcDbEntity
  8
0 ... Seuil ... Rectangle ... Cotes Angles
 62
     0
370
    -2
100
AcDbLine
 10
266.6417153412158
 20
959.0699315459067
 30
0.0
 11
226.6417153412158
 21
999.0699315459067
 31
0.0
  0
LINE
  5
2F6
330
2EF
100
AcDbEntity
  8
0 ... Seuil ... Rectangle ... Cotes Angles
 62
     0
370
    -2
100
AcDbLine
 10
226.6417153412158
 20
794.0699315459062
 30
0.0
 11
266.6417153412158
 21
754.0699315459062
 31
0.0
  0
MTEXT
  5
2F7
330
2EF
100
AcDbEntity
  8
0 ... Seuil ... Rectangle ... Cotes Angles
 62
     0
100
AcDbMText
 10
231.6417153412158
 20
876.5699315459065
 30
0.0
 40
20.0
 41
0.0
 46
0.0
 71
     5
 72
     1
  1
\A1;205
  7
QCADDimTextStyle
 11
0.0
 21
1.0
 31
0.0
 73
     1
 44
1.0
  0
POINT
  5
2F8
330
2EF
100
AcDbEntity
  8
Defpoints
 62
     0
100
AcDbPoint
 10
399.8980189422882
 20
979.0699315459067
 30
0.0
  0
POINT
  5
2F9
330
2EF
100
AcDbEntity
  8
Defpoints
 62
     0
100
AcDbPoint
 10
387.6422030879344
 20
774.0699315459062
 30
0.0
  0
POINT
  5
2FA
330
2EF
100
AcDbEntity
  8
Defpoints
 62
     0
100
AcDbPoint
 10
246.6417153412158
 20
774.0699315459062
 30
0.0
  0
ENDBLK
  5
2F1
330
2EF
100
AcDbEntity
  8
0
100
AcDbBlockEnd
  0
BLOCK
  5
2FE
330
2FD
100
AcDbEntity
  8
0
100
AcDbBlockBegin
  2
*D12
 70
     1
 10
0.0
 20
0.0
 30
0.0
  3
*D12
  1
*D12
  0
LINE
  5
300
330
2FD
100
AcDbEntity
  8
0 ... Seuil ... Rectangle ... Cotes Angles
 62
     0
370
    -2
100
AcDbLine
 10
416.857156152613
 20
192.9716692163128
 30
0.0
 11
416.8571561526179
 21
342.7525885066252
 31
0.0
  0
LINE
  5
301
330
2FD
100
AcDbEntity
  8
0 ... Seuil ... Rectangle ... Cotes Angles
 62
     0
370
    -2
100
AcDbLine
 10
411.8761826621511
 20
187.5358905025742
 30
0.0
 11
262.665224989837
 21
174.4816232324009
 31
0.0
  0
ARC
  5
302
330
2FD
100
AcDbEntity
  8
0 ... Seuil ... Rectangle ... Cotes Angles
 62
     0
370
    -2
100
AcDbCircle
 10
416.8571561526128
 20
187.9716692163128
 30
0.0
 40
144.7809192903125
100
AcDbArc
 50
97.92113134822947
 51
132.8517291697455
  0
ARC
  5
303
330
2FD
100
AcDbEntity
  8
0 ... Seuil ... Rectangle ... Cotes Angles
 62
     0
370
    -2
100
AcDbCircle
 10
416.8571561526128
 20
187.9716692163128
 30
0.0
 40
144.7809192903125
100
AcDbArc
 50
142.1482708302559
 51
177.0788686517683
  0
SOLID
  5
304
330
2FD
100
AcDbEntity
  8
0 ... Seuil ... Rectangle ... Cotes Angles
 62
     0
100
AcDbTrace
 10
397.1351525795046
 20
328.0458182580123
 30
0.0
 11
396.6746867460686
 21
334.6965637546226
 31
0.0
 12
416.8571561526176
 22
332.7525885066252
 32
0.0
 13
416.8571561526176
 23
332.7525885066252
 33
0.0
  0
SOLID
  5
305
330
2FD
100
AcDbEntity
  8
0 ... Seuil ... Rectangle ... Cotes Angles
 62
     0
100
AcDbTrace
 10
268.931576023869
 20
195.2894210704583
 30
0.0
 11
275.5971456676728
 21
195.4103581121195
 31
0.0
 12
272.6271719707545
 22
175.3531806598775
 32
0.0
 13
272.6271719707545
 23
175.3531806598775
 33
0.0
  0
MTEXT
  5
306
330
2FD
100
AcDbEntity
  8
0 ... Seuil ... Rectangle ... Cotes Angles
 62
     0
100
AcDbMText
 10
299.0543055051776
 20
295.9180936526736
 30
0.0
 40
20.0
 41
0.0
 46
0.0
 71
     5
 72
     1
  1
\A1;95%%d
  7
QCADDimTextStyle
 11
0.6755902076156511
 21
0.7372773368101324
 31
0.0
 73
     1
 44
1.0
  0
POINT
  5
307
330
2FD
100
AcDbEntity
  8
Defpoints
 62
     0
100
AcDbPoint
 10
340.8505642458935
 20
311.1971234750552
 30
0.0
  0
POINT
  5
308
330
2FD
100
AcDbEntity
  8
Defpoints
 62
     0
100
AcDbPoint
 10
416.8571561526128
 20
187.9716692163089
 30
0.0
  0
POINT
  5
309
330
2FD
100
AcDbEntity
  8
Defpoints
 62
     0
100
AcDbPoint
 10
608.8571561526119
 20
204.7694926132892
 30
0.0
  0
POINT
  5
30A
330
2FD
100
AcDbEntity
  8
Defpoints
 62
     0
100
AcDbPoint
 10
416.8571561526098
 20
187.9716692163125
 30
0.0
  0
POINT
  5
30B
330
2FD
100
AcDbEntity
  8
Defpoints
 62
     0
100
AcDbPoint
 10
416.8571561526112
 20
139.9716692163098
 30
0.0
  0
ENDBLK
  5
2FF
330
2FD
100
AcDbEntity
  8
0
100
AcDbBlockEnd
  0
BLOCK
  5
313
330
312
100
AcDbEntity
  8
0
100
AcDbBlockBegin
  2
*D13
 70
     1
 10
0.0
 20
0.0
 30
0.0
  3
*D13
  1
*D13
  0
LINE
  5
315
330
312
100
AcDbEntity
  8
0 ... Seuil ... Rectangle ... Cotes Angles
 62
     0
370
    -2
100
AcDbLine
 10
1584.857156152613
 20
279.1355091893314
 30
0.0
 11
1584.857156152613
 21
188.7995957957392
 31
0.0
  0
LINE
  5
316
330
312
100
AcDbEntity
  8
0 ... Seuil ... Rectangle ... Cotes Angles
 62
     0
370
    -2
100
AcDbLine
 10
1589.838129643072
 20
284.5712879030697
 30
0.0
 11
1679.830287613044
 21
292.4445815316762
 31
0.0
  0
ARC
  5
317
330
312
100
AcDbEntity
  8
0 ... Seuil ... Rectangle ... Cotes Angles
 62
     0
370
    -2
100
AcDbCircle
 10
1584.857156152613
 20
284.1355091893314
 30
0.0
 40
85.33591339359222
100
AcDbArc
 50
283.4592168613743
 51
300.4647561733953
  0
ARC
  5
318
330
312
100
AcDbEntity
  8
0 ... Seuil ... Rectangle ... Cotes Angles
 62
     0
370
    -2
100
AcDbCircle
 10
1584.857156152613
 20
284.1355091893314
 30
0.0
 40
85.33591339359222
100
AcDbArc
 50
334.5352438266031
 51
351.5407831386256
  0
SOLID
  5
319
330
312
100
AcDbEntity
  8
0 ... Seuil ... Rectangle ... Cotes Angles
 62
     0
100
AcDbTrace
 10
1604.328747475299
 20
204.4536423531543
 30
0.0
 11
1605.109973854856
 21
197.8329075156662
 31
0.0
 12
1584.857156152613
 22
198.7995957957392
 32
0.0
 13
1584.857156152613
 23
198.7995957957392
 33
0.0
  0
SOLID
  5
31A
330
312
100
AcDbEntity
  8
0 ... Seuil ... Rectangle ... Cotes Angles
 62
     0
100
AcDbTrace
 10
1672.596499741014
 20
271.4815269228619
 30
0.0
 11
1665.932870433073
 21
271.6827454378895
 31
0.0
 12
1669.868340632126
 22
291.5730241041996
 32
0.0
 13
1669.868340632126
 23
291.5730241041996
 33
0.0
  0
MTEXT
  5
31B
330
312
100
AcDbEntity
  8
0 ... Seuil ... Rectangle ... Cotes Angles
 62
     0
100
AcDbMText
 10
1636.714231061548
 20
236.6172548569161
 30
0.0
 40
20.0
 41
0.0
 46
0.0
 71
     5
 72
     1
  1
\A1;95%%d
  7
QCADDimTextStyle
 11
0.6755902076156717
 21
0.7372773368101134
 31
0.0
 73
     1
 44
1.0
  0
POINT
  5
31C
330
312
100
AcDbEntity
  8
Defpoints
 62
     0
100
AcDbPoint
 10
1629.656512145707
 20
211.5046905424052
 30
0.0
  0
POINT
  5
31D
330
312
100
AcDbEntity
  8
Defpoints
 62
     0
100
AcDbPoint
 10
1584.857156152613
 20
285.0518403633464
 30
0.0
  0
POINT
  5
31E
330
312
100
AcDbEntity
  8
Defpoints
 62
     0
100
AcDbPoint
 10
422.8571561526098
 20
182.4736821722092
 30
0.0
  0
POINT
  5
31F
330
312
100
AcDbEntity
  8
Defpoints
 62
     0
100
AcDbPoint
 10
1583.944311895362
 20
284.0556456652572
 30
0.0
  0
POINT
  5
320
330
312
100
AcDbEntity
  8
Defpoints
 62
     0
100
AcDbPoint
 10
1584.857156152613
 20
364.1355091893288
 30
0.0
  0
ENDBLK
  5
314
330
312
100
AcDbEntity
  8
0
100
AcDbBlockEnd
  0
BLOCK
  5
322
330
321
100
AcDbEntity
  8
0
100
AcDbBlockBegin
  2
*D14
 70
     1
 10
0.0
 20
0.0
 30
0.0
  3
*D14
  1
*D14
  0
LINE
  5
324
330
321
100
AcDbEntity
  8
0 ... Seuil ... Rectangle ... Cotes Angles
 62
     0
370
    -2
100
AcDbLine
 10
432.8140957773841
 20
779.0699315459055
 30
0.0
 11
432.8140957773829
 21
830.2571138722535
 31
0.0
  0
LINE
  5
325
330
321
100
AcDbEntity
  8
0 ... Seuil ... Rectangle ... Cotes Angles
 62
     0
370
    -2
100
AcDbLine
 10
437.8331949651009
 20
779.0699315459057
 30
0.0
 11
437.8331949650997
 21
830.2571138722536
 31
0.0
  0
LINE
  5
326
330
321
100
AcDbEntity
  8
0 ... Seuil ... Rectangle ... Cotes Angles
 62
     0
370
    -2
100
AcDbLine
 10
412.8140957773836
 20
800.2571138722531
 30
0.0
 11
452.8140957773827
 21
840.257113872254
 31
0.0
  0
LINE
  5
327
330
321
100
AcDbEntity
  8
0 ... Seuil ... Rectangle ... Cotes Angles
 62
     0
370
    -2
100
AcDbLine
 10
457.8331949650995
 20
840.2571138722541
 30
0.0
 11
417.8331949651004
 21
800.2571138722532
 31
0.0
  0
MTEXT
  5
328
330
321
100
AcDbEntity
  8
0 ... Seuil ... Rectangle ... Cotes Angles
 62
     0
100
AcDbMText
 10
435.323645371241
 20
847.7571138722535
 30
0.0
 40
20.0
 41
0.0
 46
0.0
 71
     5
 72
     1
  1
\A1;5.0191
  7
QCADDimTextStyle
 73
     1
 44
1.0
  0
POINT
  5
329
330
321
100
AcDbEntity
  8
Defpoints
 62
     0
100
AcDbPoint
 10
432.8140957773842
 20
774.0699315459055
 30
0.0
  0
POINT
  5
32A
330
321
100
AcDbEntity
  8
Defpoints
 62
     0
100
AcDbPoint
 10
437.833194965101
 20
774.0699315459057
 30
0.0
  0
POINT
  5
32B
330
321
100
AcDbEntity
  8
Defpoints
 62
     0
100
AcDbPoint
 10
437.8331949650999
 20
820.2571138722536
 30
0.0
  0
ENDBLK
  5
323
330
321
100
AcDbEntity
  8
0
100
AcDbBlockEnd
  0
BLOCK
  5
32D
330
32C
100
AcDbEntity
  8
0
100
AcDbBlockBegin
  2
*D15
 70
     1
 10
0.0
 20
0.0
 30
0.0
  3
*D15
  1
*D15
  0
LINE
  5
32F
330
32C
100
AcDbEntity
  8
0 ... Seuil ... Rectangle ... Cotes Angles
 62
     0
370
    -2
100
AcDbLine
 10
399.8980189422899
 20
984.0699315459067
 30
0.0
 11
399.898018942321
 21
1075.152209617477
 31
0.0
  0
LINE
  5
330
330
32C
100
AcDbEntity
  8
0 ... Seuil ... Rectangle ... Cotes Angles
 62
     0
370
    -2
100
AcDbLine
 10
419.8980189422867
 20
984.0699315458999
 30
0.0
 11
419.8980189423177
 21
1075.15220961747
 31
0.0
  0
LINE
  5
331
330
32C
100
AcDbEntity
  8
0 ... Seuil ... Rectangle ... Cotes Angles
 62
     0
370
    -2
100
AcDbLine
 10
399.8980189423175
 20
1065.152209617477
 30
0.0
 11
419.8980189423143
 21
1065.15220961747
 31
0.0
  0
LINE
  5
332
330
32C
100
AcDbEntity
  8
0 ... Seuil ... Rectangle ... Cotes Angles
 62
     0
370
    -2
100
AcDbLine
 10
419.8980189423244
 20
1085.15220961747
 30
0.0
 11
379.8980189423107
 21
1045.152209617484
 31
0.0
  0
LINE
  5
333
330
32C
100
AcDbEntity
  8
0 ... Seuil ... Rectangle ... Cotes Angles
 62
     0
370
    -2
100
AcDbLine
 10
399.8980189423075
 20
1045.152209617477
 30
0.0
 11
439.8980189423211
 21
1085.152209617463
 31
0.0
  0
MTEXT
  5
334
330
32C
100
AcDbEntity
  8
0 ... Seuil ... Rectangle ... Cotes Angles
 62
     0
100
AcDbMText
 10
445.6896467800493
 20
1080.152209617479
 30
0.0
 40
20.0
 41
0.0
 46
0.0
 71
     5
 72
     1
  1
\A1;20
  7
QCADDimTextStyle
 73
     1
 44
1.0
  0
POINT
  5
335
330
32C
100
AcDbEntity
  8
Defpoints
 62
     0
100
AcDbPoint
 10
399.8980189422882
 20
979.0699315459067
 30
0.0
  0
POINT
  5
336
330
32C
100
AcDbEntity
  8
Defpoints
 62
     0
100
AcDbPoint
 10
419.898018942285
 20
979.0699315458999
 30
0.0
  0
POINT
  5
337
330
32C
100
AcDbEntity
  8
Defpoints
 62
     0
100
AcDbPoint
 10
419.8980189423143
 20
1065.15220961747
 30
0.0
  0
ENDBLK
  5
32E
330
32C
100
AcDbEntity
  8
0
100
AcDbBlockEnd
  0
BLOCK
  5
339
330
338
100
AcDbEntity
  8
0
100
AcDbBlockBegin
  2
*D16
 70
     1
 10
0.0
 20
0.0
 30
0.0
  3
*D16
  1
*D16
  0
LINE
  5
33B
330
338
100
AcDbEntity
  8
0 ... Seuil ... Rectangle ... Cotes Angles
 62
     0
370
    -2
100
AcDbLine
 10
371.8067549897403
 20
960.0699315459019
 30
0.0
 11
371.8067549897403
 21
1035.152209617477
 31
0.0
  0
LINE
  5
33C
330
338
100
AcDbEntity
  8
0 ... Seuil ... Rectangle ... Cotes Angles
 62
     0
370
    -2
100
AcDbLine
 10
399.8980189422882
 20
984.0699315459067
 30
0.0
 11
399.8980189422882
 21
1035.152209617477
 31
0.0
  0
LINE
  5
33D
330
338
100
AcDbEntity
  8
0 ... Seuil ... Rectangle ... Cotes Angles
 62
     0
370
    -2
100
AcDbLine
 10
371.8067549897403
 20
1025.152209617477
 30
0.0
 11
399.8980189422882
 21
1025.152209617477
 31
0.0
  0
LINE
  5
33E
330
338
100
AcDbEntity
  8
0 ... Seuil ... Rectangle ... Cotes Angles
 62
     0
370
    -2
100
AcDbLine
 10
391.8067549897403
 20
1045.152209617477
 30
0.0
 11
351.8067549897403
 21
1005.152209617477
 31
0.0
  0
LINE
  5
33F
330
338
100
AcDbEntity
  8
0 ... Seuil ... Rectangle ... Cotes Angles
 62
     0
370
    -2
100
AcDbLine
 10
379.8980189422882
 20
1005.152209617477
 30
0.0
 11
419.8980189422882
 21
1045.152209617477
 31
0.0
  0
MTEXT
  5
340
330
338
100
AcDbEntity
  8
0 ... Seuil ... Rectangle ... Cotes Angles
 62
     0
100
AcDbMText
 10
345.689646780047
 20
1040.152209617476
 30
0.0
 40
20.0
 41
0.0
 46
0.0
 71
     5
 72
     1
  1
\A1;28.0913
  7
QCADDimTextStyle
 73
     1
 44
1.0
  0
POINT
  5
341
330
338
100
AcDbEntity
  8
Defpoints
 62
     0
100
AcDbPoint
 10
371.8067549897403
 20
955.0699315459019
 30
0.0
  0
POINT
  5
342
330
338
100
AcDbEntity
  8
Defpoints
 62
     0
100
AcDbPoint
 10
399.8980189422882
 20
979.0699315459067
 30
0.0
  0
POINT
  5
343
330
338
100
AcDbEntity
  8
Defpoints
 62
     0
100
AcDbPoint
 10
399.8980189422882
 20
1025.152209617477
 30
0.0
  0
ENDBLK
  5
33A
330
338
100
AcDbEntity
  8
0
100
AcDbBlockEnd
  0
ENDSEC
  0
SECTION
  2
ENTITIES
  0
LINE
  5
37
330
1B3
100
AcDbEntity
  8
0 ... Seuil ... Rectangle
100
AcDbLine
 10
399.8980189422862
 20
979.0699315459046
 30
0.0
 11
419.8980189422862
 21
979.0699315459046
 31
0.0
  0
LINE
  5
38
330
1B3
100
AcDbEntity
  8
0 ... Seuil ... Rectangle
100
AcDbLine
 10
440.4578548708789
 20
744.0699315459046
 30
0.0
 11
419.8980189422862
 21
979.0699315459046
 31
0.0
  0
LINE
  5
39
330
1B3
100
AcDbEntity
  8
0 ... Seuil ... Rectangle
100
AcDbLine
 10
438.9521251145652
 20
744.0699315459046
 30
0.0
 11
450.9521251145652
 21
744.0699315459046
 31
0.0
  0
LINE
  5
3A
330
1B3
100
AcDbEntity
  8
0 ... Seuil ... Rectangle
100
AcDbLine
 10
399.8980189422862
 20
977.5699315459046
 30
0.0
 11
420.0292519375762
 21
977.5699315459046
 31
0.0
  0
LINE
  5
3B
330
1B3
100
AcDbEntity
  8
0 ... Seuil ... Rectangle
100
AcDbLine
 10
440.32662187559
 20
745.5699315459046
 30
0.0
 11
447.3308047710052
 21
745.5699315459046
 31
0.0
  0
LINE
  5
3C
330
1B3
100
AcDbEntity
  8
0 ... Seuil ... Rectangle
100
AcDbLine
 10
399.8980189422862
 20
955.0699315459046
 30
0.0
 11
399.8980189422862
 21
979.0699315459046
 31
0.0
  0
LINE
  5
3D
330
1B3
100
AcDbEntity
  8
0 ... Seuil ... Rectangle
100
AcDbLine
 10
443.8810573027001
 20
751.1409993577695
 30
0.0
 11
450.9521251145652
 21
744.0699315459046
 31
0.0
  0
LINE
  5
3E
330
1B3
100
AcDbEntity
  8
0 ... Seuil ... Rectangle
100
AcDbLine
 10
442.8203971309201
 20
750.0803391859895
 30
0.0
 11
447.3308047710052
 21
745.5699315459046
 31
0.0
  0
LINE
  5
3F
330
1B3
100
AcDbEntity
  8
0 ... Seuil ... Rectangle
100
AcDbLine
 10
442.8203971309201
 20
750.0803391859895
 30
0.0
 11
443.8810573027001
 21
751.1409993577695
 31
0.0
  0
LINE
  5
40
330
1B3
100
AcDbEntity
  8
0 ... Seuil ... Rectangle
100
AcDbLine
 10
387.6422030879341
 20
774.0699315459055
 30
0.0
 11
437.833194965101
 21
774.0699315459055
 31
0.0
  0
LINE
  5
41
330
1B3
100
AcDbEntity
  8
0 ... Seuil ... Rectangle
100
AcDbLine
 10
387.6422030879341
 20
774.0699315459055
 30
0.0
 11
371.8067549897401
 21
955.0699315459046
 31
0.0
  0
LINE
  5
42
330
1B3
100
AcDbEntity
  8
0 ... Seuil ... Rectangle
100
AcDbLine
 10
371.8067549897401
 20
955.0699315459046
 30
0.0
 11
399.8980189422862
 21
955.0699315459046
 31
0.0
  0
DIMENSION
  5
44
330
1B3
100
AcDbEntity
  8
0 ... Seuil ... Rectangle ... Cotes Angles
100
AcDbDimension
280
     0
  2
*D1
 10
338.0965168704037
 20
769.7352456752591
 30
0.0
 11
345.1217132926828
 21
861.542581816472
 31
0.0
 70
    33
 71
     5
 42
181.6913905953417
 73
     0
 74
     0
 75
     0
  3
QCADDimStyle
100
AcDbAlignedDimension
 13
371.8067549897403
 23
955.0699315459019
 33
0.0
 14
387.6422030879344
 24
774.0699315459062
 34
0.0
1001
ACAD
1000
DSTYLE
1002
{
1070
   279
1070
     2
1070
    41
1040
20.0
1070
    79
1070
     2
1070
   176
1070
     0
1070
   177
1070
     0
1070
   178
1070
     0
1070
    44
1040
10.0
1070
    42
1040
5.0
1070
   147
1040
5.0
1070
   142
1040
20.0
1070
   140
1040
20.0
1070
    78
1070
     8
1002
}
  0
DIMENSION
  5
45
330
1B3
100
AcDbEntity
  8
0 ... Seuil ... Rectangle ... Cotes Angles
100
AcDbDimension
280
     0
  2
*D2
 10
287.5324764520021
 20
955.0699315459019
 30
0.0
 11
260.0324764520021
 21
967.0699315459043
 31
0.0
 70
    32
 71
     5
 42
24.00000000000477
 73
     0
 74
     0
 75
     0
  3
QCADDimStyle
100
AcDbAlignedDimension
 13
399.8980189422882
 23
979.0699315459067
 33
0.0
 14
371.8067549897403
 24
955.0699315459019
 34
0.0
 50
90.0
100
AcDbRotatedDimension
1001
ACAD
1000
DSTYLE
1002
{
1070
   279
1070
     2
1070
    41
1040
20.0
1070
    79
1070
     2
1070
   176
1070
     0
1070
   177
1070
     0
1070
   178
1070
     0
1070
    44
1040
10.0
1070
    42
1040
5.0
1070
   147
1040
5.0
1070
   142
1040
20.0
1070
   140
1040
20.0
1070
    78
1070
     8
1002
}
  0
DIMENSION
  5
46
330
1B3
100
AcDbEntity
  8
0 ... Seuil ... Rectangle ... Cotes Angles
100
AcDbDimension
280
     0
  2
*D3
 10
287.5324764520024
 20
774.0699315459062
 30
0.0
 11
272.5324764520024
 21
864.5699315459041
 31
0.0
 70
    32
 71
     5
 42
180.9999999999957
 73
     0
 74
     0
 75
     0
  3
QCADDimStyle
100
AcDbAlignedDimension
 13
371.8067549897403
 23
955.0699315459019
 33
0.0
 14
387.6422030879344
 24
774.0699315459062
 34
0.0
 50
90.0
100
AcDbRotatedDimension
1001
ACAD
1000
DSTYLE
1002
{
1070
   279
1070
     2
1070
    41
1040
20.0
1070
    79
1070
     2
1070
   176
1070
     0
1070
   177
1070
     0
1070
   178
1070
     0
1070
    44
1040
10.0
1070
    42
1040
5.0
1070
   147
1040
5.0
1070
   142
1040
20.0
1070
   140
1040
20.0
1070
    78
1070
     8
1002
}
  0
DIMENSION
  5
47
330
1B3
100
AcDbEntity
  8
0 ... Seuil ... Rectangle ... Cotes Angles
100
AcDbDimension
280
     0
  2
*D4
 10
455.6896467800489
 20
977.569931545903
 30
0.0
 11
483.1896467800489
 21
978.3199315459015
 31
0.0
 70
    32
 71
     5
 42
1.499999999996817
 73
     0
 74
     0
 75
     0
  3
QCADDimStyle
100
AcDbAlignedDimension
 13
419.898018942285
 23
979.0699315458999
 33
0.0
 14
420.0292519375764
 24
977.569931545903
 34
0.0
 50
90.0
100
AcDbRotatedDimension
1001
ACAD
1000
DSTYLE
1002
{
1070
   279
1070
     2
1070
    41
1040
20.0
1070
    79
1070
     2
1070
   176
1070
     0
1070
   177
1070
     0
1070
   178
1070
     0
1070
    44
1040
10.0
1070
    42
1040
5.0
1070
   147
1040
5.0
1070
   142
1040
20.0
1070
   140
1040
20.0
1070
    78
1070
     8
1002
}
  0
DIMENSION
  5
48
330
1B3
100
AcDbEntity
  8
0 ... Seuil ... Rectangle ... Cotes Angles
100
AcDbDimension
280
     0
  2
*D5
 10
427.9196631396156
 20
887.3821188162375
 30
0.0
 11
401.7074595461243
 21
900.1461457187539
 31
0.0
 70
   161
 71
     5
 42
49.99999999999801
 73
     0
 74
     0
 75
     0
  3
QCADDimStyle
100
AcDbAlignedDimension
 13
378.063261570557
 23
883.5577340945822
 33
0.0
 14
427.8729964751442
 24
887.9155212319434
 34
0.0
1001
ACAD
1000
DSTYLE
1002
{
1070
   279
1070
     2
1070
    41
1040
20.0
1070
    79
1070
     2
1070
   176
1070
     0
1070
   177
1070
     0
1070
   178
1070
     0
1070
    44
1040
10.0
1070
    42
1040
5.0
1070
   147
1040
5.0
1070
   142
1040
20.0
1070
   140
1040
20.0
1070
    78
1070
     8
1002
}
  0
LINE
  5
49
330
1B3
100
AcDbEntity
  8
0 ... Seuil ... Rectangle
100
AcDbLine
 10
616.9803501273782
 20
979.0699315459046
 30
0.0
 11
1667.980350127378
 21
979.0699315459046
 31
0.0
  0
LINE
  5
4A
330
1B3
100
AcDbEntity
  8
0 ... Seuil ... Rectangle
100
AcDbLine
 10
616.9803501273782
 20
977.5699315459046
 30
0.0
 11
1667.980350127378
 21
977.5699315459046
 31
0.0
  0
LINE
  5
4B
330
1B3
100
AcDbEntity
  8
0 ... Seuil ... Rectangle
100
AcDbLine
 10
616.9803501273782
 20
979.0699315459046
 30
0.0
 11
616.9803501273782
 21
744.0699315459046
 31
0.0
  0
LINE
  5
4C
330
1B3
100
AcDbEntity
  8
0 ... Seuil ... Rectangle
100
AcDbLine
 10
1667.980350127378
 20
979.0699315459046
 30
0.0
 11
1667.980350127378
 21
744.0699315459046
 31
0.0
  0
LINE
  5
4D
330
1B3
100
AcDbEntity
  8
0 ... Seuil ... Rectangle
100
AcDbLine
 10
615.4803501273782
 20
774.0699315459046
 30
0.0
 11
618.4803501273782
 21
774.0699315459046
 31
0.0
  0
LINE
  5
4E
330
1B3
100
AcDbEntity
  8
0 ... Seuil ... Rectangle
100
AcDbLine
 10
1666.480350127378
 20
774.0699315459046
 30
0.0
 11
1669.480350127378
 21
774.0699315459046
 31
0.0
  0
DIMENSION
  5
4F
330
1B3
100
AcDbEntity
  8
0 ... Seuil ... Rectangle ... Cotes Angles
100
AcDbDimension
280
     0
  2
*D6
 10
559.5737843180091
 20
744.0699315459055
 30
0.0
 11
544.5737843180091
 21
861.5699315459027
 31
0.0
 70
    32
 71
     5
 42
234.9999999999943
 73
     0
 74
     0
 75
     0
  3
QCADDimStyle
100
AcDbAlignedDimension
 13
419.898018942285
 23
979.0699315458999
 33
0.0
 14
454.0142283379728
 24
744.0699315459055
 34
0.0
 50
90.0
100
AcDbRotatedDimension
1001
ACAD
1000
DSTYLE
1002
{
1070
   279
1070
     2
1070
    41
1040
20.0
1070
    79
1070
     2
1070
   176
1070
     0
1070
   177
1070
     0
1070
   178
1070
     0
1070
    44
1040
10.0
1070
    42
1040
5.0
1070
   147
1040
5.0
1070
   142
1040
20.0
1070
   140
1040
20.0
1070
    78
1070
     8
1002
}
  0
DIMENSION
  5
50
330
1B3
100
AcDbEntity
  8
0 ... Seuil ... Rectangle ... Cotes Angles
100
AcDbDimension
280
     0
  2
*D7
 10
492.3418799963428
 20
786.4596864276698
 30
0.0
 11
505.9090964240754
 21
807.6930469075501
 31
0.0
 70
   161
 71
     5
 42
10.00000000000113
 73
     0
 74
     0
 75
     0
  3
QCADDimStyle
100
AcDbAlignedDimension
 13
443.8810573027001
 23
752.1409993577737
 33
0.0
 14
450.9521251145652
 24
745.0699315459062
 34
0.0
1001
ACAD
1000
DSTYLE
1002
{
1070
   279
1070
     2
1070
    41
1040
20.0
1070
    79
1070
     2
1070
   176
1070
     0
1070
   177
1070
     0
1070
   178
1070
     0
1070
    44
1040
10.0
1070
    42
1040
5.0
1070
   147
1040
5.0
1070
   142
1040
20.0
1070
   140
1040
20.0
1070
    78
1070
     8
1002
}
  0
DIMENSION
  5
51
330
1B3
100
AcDbEntity
  8
0 ... Seuil ... Rectangle ... Cotes Angles
100
AcDbDimension
280
     0
  2
*D8
 10
450.9521251145649
 20
708.2059841122951
 30
0.0
 11
444.8349307426881
 21
680.9477353322054
 31
0.0
 70
   161
 71
     5
 42
12.00000000000108
 73
     0
 74
     0
 75
     0
  3
QCADDimStyle
100
AcDbAlignedDimension
 13
438.9521251145641
 23
745.0699315459063
 33
0.0
 14
450.9521251145652
 24
745.0699315459062
 34
0.0
1001
ACAD
1000
DSTYLE
1002
{
1070
   279
1070
     2
1070
    41
1040
20.0
1070
    79
1070
     2
1070
   176
1070
     0
1070
   177
1070
     0
1070
   178
1070
     0
1070
    44
1040
10.0
1070
    42
1040
5.0
1070
   147
1040
5.0
1070
   142
1040
20.0
1070
   140
1040
20.0
1070
    78
1070
     8
1002
}
  0
DIMENSION
  5
52
330
1B3
100
AcDbEntity
  8
0 ... Seuil ... Rectangle ... Cotes Angles
100
AcDbDimension
280
     0
  2
*D9
 10
594.8705226801974
 20
774.0699315459051
 30
0.0
 11
579.8705226801973
 21
876.569931545904
 31
0.0
 70
    33
 71
     5
 42
204.9999999999976
 73
     0
 74
     0
 75
     0
  3
QCADDimStyle
100
AcDbAlignedDimension
 13
616.980350127378
 23
979.0699315459027
 33
0.0
 14
616.9803501273782
 24
774.0699315459051
 34
0.0
1001
ACAD
1000
DSTYLE
1002
{
1070
   279
1070
     2
1070
    41
1040
20.0
1070
    79
1070
     2
1070
   176
1070
     0
1070
   177
1070
     0
1070
   178
1070
     0
1070
    44
1040
10.0
1070
    42
1040
5.0
1070
   147
1040
5.0
1070
   142
1040
20.0
1070
   140
1040
20.0
1070
    78
1070
     8
1002
}
  0
DIMENSION
  5
53
330
1B3
100
AcDbEntity
  8
0 ... Seuil ... Rectangle ... Cotes Angles
100
AcDbDimension
280
     0
  2
*D10
 10
1667.980350127378
 20
1029.090053888711
 30
0.0
 11
1142.480350127378
 21
1044.090053888711
 31
0.0
 70
    33
 71
     5
 42
1051.0
 73
     0
 74
     0
 75
     0
  3
QCADDimStyle
100
AcDbAlignedDimension
 13
616.980350127378
 23
979.0699315459027
 33
0.0
 14
1667.980350127378
 24
979.0699315459019
 34
0.0
1001
ACAD
1000
DSTYLE
1002
{
1070
   279
1070
     2
1070
    41
1040
20.0
1070
    79
1070
     2
1070
   176
1070
     0
1070
   177
1070
     0
1070
   178
1070
     0
1070
    44
1040
10.0
1070
    42
1040
5.0
1070
   147
1040
5.0
1070
   142
1040
20.0
1070
   140
1040
20.0
1070
    78
1070
     8
1002
}
  0
LINE
  5
54
330
1B3
100
AcDbEntity
  8
0 ... Seuil ... Rectangle ... Cotes Angles
100
AcDbLine
 10
611.9803501273782
 20
979.0699315459046
 30
0.0
 11
520.4081813061871
 21
979.0699315459046
 31
0.0
  0
LINE
  5
55
330
1B3
100
AcDbEntity
  8
0 ... Seuil ... Rectangle ... Cotes Angles
100
AcDbLine
 10
520.4081813061871
 20
744.0699315459046
 30
0.0
 11
611.9803501273782
 21
744.0699315459046
 31
0.0
  0
LINE
  5
56
330
1B3
100
AcDbEntity
  8
0 ... Seuil ... Rectangle
100
AcDbLine
 10
618.4803501273782
 20
977.5699315459046
 30
0.0
 11
618.4803501273782
 21
744.0699315459046
 31
0.0
  0
LINE
  5
57
330
1B3
100
AcDbEntity
  8
0 ... Seuil ... Rectangle
100
AcDbLine
 10
1666.480350127378
 20
977.5699315459046
 30
0.0
 11
1666.480350127378
 21
744.0699315459046
 31
0.0
  0
DIMENSION
  5
58
330
1B3
100
AcDbEntity
  8
0 ... Seuil ... Rectangle ... Cotes Angles
100
AcDbDimension
280
     0
  2
*D11
 10
246.6417153412158
 20
774.0699315459062
 30
0.0
 11
231.6417153412158
 21
876.5699315459065
 31
0.0
 70
    32
 71
     5
 42
205.0000000000005
 73
     0
 74
     0
 75
     0
  3
QCADDimStyle
100
AcDbAlignedDimension
 13
399.8980189422882
 23
979.0699315459067
 33
0.0
 14
387.6422030879344
 24
774.0699315459062
 34
0.0
 50
90.0
100
AcDbRotatedDimension
1001
ACAD
1000
DSTYLE
1002
{
1070
   279
1070
     2
1070
    41
1040
20.0
1070
    79
1070
     2
1070
   176
1070
     0
1070
   177
1070
     0
1070
   178
1070
     0
1070
    44
1040
10.0
1070
    42
1040
5.0
1070
   147
1040
5.0
1070
   142
1040
20.0
1070
   140
1040
20.0
1070
    78
1070
     8
1002
}
  0
MTEXT
  5
59
330
1B3
100
AcDbEntity
  8
0 ... Seuil ... Rectangle ... Cotes Angles
100
AcDbMText
 10
485.68964678005
 20
1535.152209617476
 30
0.0
 40
100.0
 41
0.0
 46
0.0
 71
     1
 72
     1
  1
(Acier - RAL 7016 - paisseur 15/10e)
  7
textstyle11
 73
     1
 44
1.0
  0
MTEXT
  5
5A
330
1B3
100
AcDbEntity
  8
0 ... Seuil ... Rectangle ... Cotes Angles
100
AcDbMText
 10
946.176835387277
 20
582.9508402847749
 30
0.0
 40
50.0
 41
0.0
 46
0.0
 71
     1
 72
     1
  1
Relevs
  7
textstyle12
 73
     1
 44
1.0
  0
LEADER
  5
5B
330
1B3
100
AcDbEntity
  8
0 ... Seuil ... Rectangle ... Cotes Angles
100
AcDbLeader
  3
QCADDimStyle
 76
     2
 10
1001.193621808696
 20
440.6358085153884
 30
0.0
 10
1066.849588048898
 20
507.4840417256037
 30
0.0
  0
LEADER
  5
5C
330
1B3
100
AcDbEntity
  8
0 ... Seuil ... Rectangle ... Cotes Angles
100
AcDbLeader
  3
QCADDimStyle
 76
     4
 10
1591.183592965884
 20
344.3600927577277
 30
0.0
 10
1688.135731877832
 20
463.5138198677296
 30
0.0
 10
1512.809533415971
 20
517.4166964174938
 30
0.0
 10
1066.849588048898
 20
507.4840417256037
 30
0.0
  0
LEADER
  5
5D
330
1B3
100
AcDbEntity
  8
0 ... Seuil ... Rectangle ... Cotes Angles
100
AcDbLeader
  3
QCADDimStyle
 76
     2
 10
1074.125253573989
 20
977.5699315459046
 30
0.0
 10
1032.786239553105
 20
616.2037244467615
 30
0.0
  0
LEADER
  5
5E
330
1B3
100
AcDbEntity
  8
0 ... Seuil ... Rectangle ... Cotes Angles
100
AcDbLeader
  3
QCADDimStyle
 76
     2
 10
1666.480350127378
 20
910.3808780262184
 30
0.0
 10
1032.786239553105
 20
616.2037244467615
 30
0.0
  0
LEADER
  5
5F
330
1B3
100
AcDbEntity
  8
0 ... Seuil ... Rectangle ... Cotes Angles
100
AcDbLeader
  3
QCADDimStyle
 76
     2
 10
618.4803501273782
 20
942.9768158454967
 30
0.0
 10
1032.786239553105
 20
616.2037244467615
 30
0.0
  0
LINE
  5
60
330
1B3
100
AcDbEntity
  8
0 ... Seuil ... Rectangle
100
AcDbLine
 10
1669.480350127378
 20
774.0699315459046
 30
0.0
 11
1669.480350127378
 21
744.0699315459046
 31
0.0
  0
LINE
  5
61
330
1B3
100
AcDbEntity
  8
0 ... Seuil ... Rectangle
100
AcDbLine
 10
1669.480350127378
 20
744.0699315459046
 30
0.0
 11
1667.980350127378
 21
744.0699315459046
 31
0.0
  0
LINE
  5
62
330
1B3
100
AcDbEntity
  8
0 ... Seuil ... Rectangle
100
AcDbLine
 10
615.4803501273782
 20
774.0699315459046
 30
0.0
 11
615.4803501273782
 21
744.0699315459046
 31
0.0
  0
LINE
  5
63
330
1B3
100
AcDbEntity
  8
0 ... Seuil ... Rectangle
100
AcDbLine
 10
615.4803501273782
 20
744.0699315459046
 30
0.0
 11
616.9803501273782
 21
744.0699315459046
 31
0.0
  0
LINE
  5
64
330
1B3
100
AcDbEntity
  8
0 ... Seuil ... Rectangle
100
AcDbLine
 10
616.9803501273791
 20
1246.561337458716
 30
0.0
 11
1667.980350127378
 21
1246.561337458716
 31
0.0
  0
LINE
  5
65
330
1B3
100
AcDbEntity
  8
0 ... Seuil ... Rectangle
100
AcDbLine
 10
615.4803501273782
 20
1258.561337458716
 30
0.0
 11
615.4803501273782
 21
1265.274162739362
 31
0.0
  0
LINE
  5
66
330
1B3
100
AcDbEntity
  8
0 ... Seuil ... Rectangle
100
AcDbLine
 10
616.9803501273782
 20
1259.561337458716
 30
0.0
 11
616.9803501273782
 21
1330.693561404514
 31
0.0
  0
LINE
  5
67
330
1B3
100
AcDbEntity
  8
0 ... Seuil ... Rectangle
100
AcDbLine
 10
618.4803501273782
 20
1258.561337458716
 30
0.0
 11
618.4803501273782
 21
1265.274162739362
 31
0.0
  0
LINE
  5
68
330
1B3
100
AcDbEntity
  8
0 ... Seuil ... Rectangle
100
AcDbLine
 10
1667.980350127378
 20
1259.561337458716
 30
0.0
 11
1667.980350127378
 21
1330.693561404514
 31
0.0
  0
LINE
  5
69
330
1B3
100
AcDbEntity
  8
0 ... Seuil ... Rectangle
100
AcDbLine
 10
1666.480350127378
 20
1258.561337458716
 30
0.0
 11
1666.480350127378
 21
1330.693561404514
 31
0.0
  0
LINE
  5
6A
330
1B3
100
AcDbEntity
  8
0 ... Seuil ... Rectangle
100
AcDbLine
 10
1669.480350127378
 20
1258.561337458716
 30
0.0
 11
1669.480350127378
 21
1265.274162739362
 31
0.0
  0
LINE
  5
6B
330
1B3
100
AcDbEntity
  8
0 ... Seuil ... Rectangle
100
AcDbLine
 10
616.4803501273791
 20
1266.274162739362
 30
0.0
 11
616.9803501273791
 21
1266.274162739362
 31
0.0
  0
LINE
  5
6C
330
1B3
100
AcDbEntity
  8
0 ... Seuil ... Rectangle
100
AcDbLine
 10
616.9803501273791
 20
1258.561337458716
 30
0.0
 11
615.4803501273782
 21
1258.561337458716
 31
0.0
  0
LINE
  5
6D
330
1B3
100
AcDbEntity
  8
0 ... Seuil ... Rectangle
100
AcDbLine
 10
1668.480350127378
 20
1266.274162739362
 30
0.0
 11
1667.980350127378
 21
1266.274162739362
 31
0.0
  0
LINE
  5
6E
330
1B3
100
AcDbEntity
  8
0 ... Seuil ... Rectangle
100
AcDbLine
 10
1667.980350127378
 20
1258.561337458716
 30
0.0
 11
1669.480350127378
 21
1258.561337458716
 31
0.0
  0
LINE
  5
6F
330
1B3
100
AcDbEntity
  8
0 ... Seuil ... Rectangle
100
AcDbLine
 10
426.5561047066171
 20
885.7570931548275
 30
0.0
 11
426.4253710924961
 21
887.2513852019647
 31
0.0
  0
LINE
  5
70
330
1B3
100
AcDbEntity
  8
0 ... Seuil ... Rectangle
100
AcDbLine
 10
1781.075196423052
 20
372.3887989201344
 30
0.0
 11
2168.075196423051
 21
372.3887989201344
 31
0.0
  0
LINE
  5
71
330
1B3
100
AcDbEntity
  8
0 ... Seuil ... Rectangle
100
AcDbLine
 10
2171.075196423051
 20
375.3887989201344
 30
0.0
 11
2171.075196423051
 21
672.3887989201344
 31
0.0
  0
LINE
  5
72
330
1B3
100
AcDbEntity
  8
0 ... Seuil ... Rectangle
100
AcDbLine
 10
1781.075196423052
 20
376.8887989201344
 30
0.0
 11
2163.575196423051
 21
376.8887989201344
 31
0.0
  0
LINE
  5
73
330
1B3
100
AcDbEntity
  8
0 ... Seuil ... Rectangle
100
AcDbLine
 10
2166.575196423051
 20
379.8887989201344
 30
0.0
 11
2166.575196423051
 21
672.3887989201344
 31
0.0
  0
ARC
  5
74
330
1B3
100
AcDbEntity
  8
0 ... Seuil ... Rectangle
100
AcDbCircle
 10
2163.575196423051
 20
379.8887989201344
 30
0.0
 40
3.0
100
AcDbArc
 50
270.0
 51
0.0
  0
ARC
  5
75
330
1B3
100
AcDbEntity
  8
0 ... Seuil ... Rectangle
100
AcDbCircle
 10
2168.075196423051
 20
375.3887989201344
 30
0.0
 40
3.0
100
AcDbArc
 50
270.0
 51
0.0
  0
LINE
  5
76
330
1B3
100
AcDbEntity
  8
0 ... Seuil ... Rectangle
100
AcDbLine
 10
2357.559907049666
 20
270.7341924370376
 30
0.0
 11
2774.559907049666
 21
270.7341924370376
 31
0.0
  0
LINE
  5
77
330
1B3
100
AcDbEntity
  8
0 ... Seuil ... Rectangle
100
AcDbLine
 10
2777.559907049666
 20
273.7341924370376
 30
0.0
 11
2777.559907049666
 21
570.7341924370385
 31
0.0
  0
LINE
  5
78
330
1B3
100
AcDbEntity
  8
0 ... Seuil ... Rectangle
100
AcDbLine
 10
2773.059907049666
 20
278.2341924370376
 30
0.0
 11
2773.059907049666
 21
570.7341924370385
 31
0.0
  0
LINE
  5
79
330
1B3
100
AcDbEntity
  8
0 ... Seuil ... Rectangle
100
AcDbLine
 10
2357.559907049666
 20
275.2341924370376
 30
0.0
 11
2770.059907049666
 21
275.2341924370376
 31
0.0
  0
LINE
  5
7A
330
1B3
100
AcDbEntity
  8
0 ... Seuil ... Rectangle
100
AcDbLine
 10
2770.059907049666
 20
570.7341924370385
 30
0.0
 11
2357.559907049666
 21
570.7341924370385
 31
0.0
  0
ARC
  5
7B
330
1B3
100
AcDbEntity
  8
0 ... Seuil ... Rectangle
100
AcDbCircle
 10
2770.059907049666
 20
278.2341924370376
 30
0.0
 40
3.0
100
AcDbArc
 50
270.0
 51
0.0
  0
ARC
  5
7C
330
1B3
100
AcDbEntity
  8
0 ... Seuil ... Rectangle
100
AcDbCircle
 10
2774.559907049666
 20
273.7341924370376
 30
0.0
 40
3.0
100
AcDbArc
 50
270.0
 51
0.0
  0
LINE
  5
7D
330
1B3
100
AcDbEntity
  8
0 ... Seuil ... Rectangle
100
AcDbLine
 10
2770.059907049666
 20
275.2341924370376
 30
0.0
 11
2770.059907049666
 21
570.7341924370385
 31
0.0
  0
LINE
  5
7E
330
1B3
100
AcDbEntity
  8
0 ... Seuil ... Rectangle
100
AcDbLine
 10
2773.059907049666
 20
570.7341924370385
 30
0.0
 11
2777.559907049666
 21
570.7341924370385
 31
0.0
  0
LINE
  5
7F
330
1B3
100
AcDbEntity
  8
0 ... Seuil ... Rectangle
100
AcDbLine
 10
1754.238380311517
 20
78.99935773784364
 30
0.0
 11
2171.238380311517
 21
78.99935773784364
 31
0.0
  0
LINE
  5
80
330
1B3
100
AcDbEntity
  8
0 ... Seuil ... Rectangle
100
AcDbLine
 10
2174.238380311517
 20
78.99935773784364
 30
0.0
 11
2174.238380311517
 21
228.9993577378436
 31
0.0
  0
LINE
  5
81
330
1B3
100
AcDbEntity
  8
0 ... Seuil ... Rectangle
100
AcDbLine
 10
2178.738380311517
 20
78.99935773784364
 30
0.0
 11
2178.738380311517
 21
228.9993577378436
 31
0.0
  0
LINE
  5
82
330
1B3
100
AcDbEntity
  8
0 ... Seuil ... Rectangle
100
AcDbLine
 10
2169.738380311517
 20
86.49935773784364
 30
0.0
 11
2169.738380311517
 21
228.9993577378436
 31
0.0
  0
LINE
  5
83
330
1B3
100
AcDbEntity
  8
0 ... Seuil ... Rectangle
100
AcDbLine
 10
1754.238380311517
 20
83.49935773784364
 30
0.0
 11
2166.738380311517
 21
83.49935773784364
 31
0.0
  0
ARC
  5
84
330
1B3
100
AcDbEntity
  8
0 ... Seuil ... Rectangle
100
AcDbCircle
 10
2166.738380311517
 20
86.49935773784364
 30
0.0
 40
3.0
100
AcDbArc
 50
270.0
 51
0.0
  0
ARC
  5
85
330
1B3
100
AcDbEntity
  8
0 ... Seuil ... Rectangle
100
AcDbCircle
 10
2174.238380311517
 20
228.9993577378436
 30
0.0
 40
4.5
100
AcDbArc
 50
0.0
 51
180.0
  0
ARC
  5
86
330
1B3
100
AcDbEntity
  8
0 ... Seuil ... Rectangle
100
AcDbCircle
 10
2171.238380311517
 20
81.99935773784364
 30
0.0
 40
3.0
100
AcDbArc
 50
270.0
 51
0.0
  0
LINE
  5
87
330
1B3
100
AcDbEntity
  8
0 ... Seuil ... Rectangle
100
AcDbLine
 10
2174.238380311517
 20
78.99935773784364
 30
0.0
 11
2178.738380311517
 21
78.99935773784364
 31
0.0
  0
LINE
  5
88
330
1B3
100
AcDbEntity
  8
0 ... Seuil ... Rectangle
100
AcDbLine
 10
2169.738380311517
 20
228.9993577378436
 30
0.0
 11
2169.738380311517
 21
304.4220198296716
 31
0.0
  0
LINE
  5
89
330
1B3
100
AcDbEntity
  8
0 ... Seuil ... Rectangle
100
AcDbLine
 10
2174.238380311517
 20
233.4993577378436
 30
0.0
 11
2174.238380311517
 21
304.4220198296716
 31
0.0
  0
LINE
  5
8A
330
1B3
100
AcDbEntity
  8
0 ... Seuil ... Rectangle
100
AcDbLine
 10
2169.738380311517
 20
304.4220198296716
 30
0.0
 11
2174.238380311517
 21
304.4220198296716
 31
0.0
  0
LINE
  5
8B
330
1B3
100
AcDbEntity
  8
0 ... Seuil ... Rectangle
100
AcDbLine
 10
1584.857156152614
 20
364.1355091893297
 30
0.0
 11
1584.857156152614
 21
285.0518403633464
 31
0.0
  0
LINE
  5
8C
330
1B3
100
AcDbEntity
  8
0 ... Seuil ... Rectangle
100
AcDbLine
 10
416.857156152613
 20
181.9487501910501
 30
0.0
 11
1583.944311895363
 21
284.0556456652557
 31
0.0
  0
LINE
  5
8D
330
1B3
100
AcDbEntity
  8
0 ... Seuil ... Rectangle
100
AcDbLine
 10
416.857156152613
 20
187.9716692163097
 30
0.0
 11
416.857156152613
 21
139.9716692163088
 31
0.0
  0
LINE
  5
8E
330
1B3
100
AcDbEntity
  8
0 ... Seuil ... Rectangle
100
AcDbLine
 10
1578.857156152614
 20
364.1355091893297
 30
0.0
 11
1578.857156152614
 21
283.6105772081737
 31
0.0
  0
LINE
  5
8F
330
1B3
100
AcDbEntity
  8
0 ... Seuil ... Rectangle
100
AcDbLine
 10
422.857156152613
 20
182.4736821722054
 30
0.0
 11
422.857156152613
 21
154.4569505905465
 31
0.0
  0
LINE
  5
90
330
1B3
100
AcDbEntity
  8
0 ... Seuil ... Rectangle
100
AcDbLine
 10
1488.857156152614
 20
364.1355091893297
 30
0.0
 11
1584.857156152614
 21
364.1355091893297
 31
0.0
  0
LINE
  5
91
330
1B3
100
AcDbEntity
  8
0 ... Seuil ... Rectangle
100
AcDbLine
 10
445.1414274000731
 20
168.2559404637695
 30
0.0
 11
416.857156152613
 21
139.9716692163088
 31
0.0
  0
LINE
  5
92
330
1B3
100
AcDbEntity
  8
0 ... Seuil ... Rectangle
100
AcDbLine
 10
440.8987867129531
 20
172.4985811508895
 30
0.0
 11
422.8571561526101
 21
154.4569505905465
 31
0.0
  0
LINE
  5
93
330
1B3
100
AcDbEntity
  8
0 ... Seuil ... Rectangle
100
AcDbLine
 10
440.8987867129531
 20
172.4985811508895
 30
0.0
 11
445.1414274000731
 21
168.2559404637695
 31
0.0
  0
LINE
  5
94
330
1B3
100
AcDbEntity
  8
0 ... Seuil ... Rectangle
100
AcDbLine
 10
608.857156152613
 20
399.5105410966944
 30
0.0
 11
608.857156152613
 21
198.7465735880246
 31
0.0
  0
LINE
  5
95
330
1B3
100
AcDbEntity
  8
0 ... Seuil ... Rectangle
100
AcDbLine
 10
608.8571561526142
 20
399.5105410966976
 30
0.0
 11
1488.857156152614
 21
476.5005649995114
 31
0.0
  0
LINE
  5
96
330
1B3
100
AcDbEntity
  8
0 ... Seuil ... Rectangle
100
AcDbLine
 10
1488.857156152614
 20
476.5005649995114
 30
0.0
 11
1488.857156152614
 21
364.1355091893297
 31
0.0
  0
LINE
  5
97
330
1B3
100
AcDbEntity
  8
0 ... Seuil ... Rectangle
100
AcDbLine
 10
416.8571561526101
 20
187.9716692163097
 30
0.0
 11
608.857156152613
 21
230.8688083894135
 31
0.0
  0
DIMENSION
  5
99
330
1B3
100
AcDbEntity
  8
0 ... Seuil ... Rectangle ... Cotes Angles
100
AcDbDimension
280
     0
  2
*D12
 10
416.8571561526112
 20
139.9716692163098
 30
0.0
 11
299.0543055051776
 21
295.9180936526736
 31
0.0
 70
   162
 71
     5
 42
1.658062789394642
 73
     0
 74
     0
 75
     0
  3
QCADDimStyle
100
AcDb2LineAngularDimension
 13
608.8571561526119
 23
204.7694926132892
 33
0.0
 14
416.8571561526098
 24
187.9716692163125
 34
0.0
 15
416.8571561526128
 25
187.9716692163089
 35
0.0
 16
340.8505642458935
 26
311.1971234750552
 36
0.0
1001
ACAD
1000
DSTYLE
1002
{
1070
   279
1070
     2
1070
    41
1040
20.0
1070
    79
1070
     2
1070
   176
1070
     0
1070
   177
1070
     0
1070
   178
1070
     0
1070
    44
1040
10.0
1070
    42
1040
5.0
1070
   147
1040
5.0
1070
   142
1040
20.0
1070
   140
1040
20.0
1070
    78
1070
     8
1002
}
  0
LEADER
  5
9A
330
1B3
100
AcDbEntity
  8
0 ... Seuil ... Rectangle ... Cotes Angles
100
AcDbLeader
  3
QCADDimStyle
 76
     3
 10
547.5533949712121
 20
217.1721626850735
 30
0.0
 10
580.7380750035381
 20
417.5524189738894
 30
0.0
 10
1066.849588048898
 20
507.4840417256037
 30
0.0
  0
MTEXT
  5
9B
330
1B3
100
AcDbEntity
  8
0 ... Seuil ... Rectangle ... Cotes Angles
100
AcDbMText
 10
625.204542637877
 20
384.4828331536962
 30
0.0
 40
50.0
 41
0.0
 46
0.0
 71
     1
 72
     1
  1
A
  7
textstyle13
 73
     1
 44
1.0
  0
MTEXT
  5
9C
330
1B3
100
AcDbEntity
  8
0 ... Seuil ... Rectangle ... Cotes Angles
100
AcDbMText
 10
589.6254303687939
 20
179.4793767461188
 30
0.0
 40
50.0
 41
0.0
 46
0.0
 71
     1
 72
     1
  1
B
  7
textstyle14
 73
     1
 44
1.0
  0
MTEXT
  5
9D
330
1B3
100
AcDbEntity
  8
0 ... Seuil ... Rectangle ... Cotes Angles
100
AcDbMText
 10
2059.878385279009
 20
208.6928738154902
 30
0.0
 40
50.0
 41
0.0
 46
0.0
 71
     1
 72
     1
  1
B
  7
textstyle15
 73
     1
 44
1.0
  0
MTEXT
  5
9E
330
1B3
100
AcDbEntity
  8
0 ... Seuil ... Rectangle ... Cotes Angles
100
AcDbMText
 10
1500.567098372737
 20
345.1522096174775
 30
0.0
 40
50.0
 41
0.0
 46
0.0
 71
     1
 72
     1
  1
C
  7
textstyle16
 73
     1
 44
1.0
  0
MTEXT
  5
9F
330
1B3
100
AcDbEntity
  8
0 ... Seuil ... Rectangle ... Cotes Angles
100
AcDbMText
 10
2588.482338991104
 20
450.630837245248
 30
0.0
 40
50.0
 41
0.0
 46
0.0
 71
     1
 72
     1
  1
C
  7
textstyle17
 73
     1
 44
1.0
  0
MTEXT
  5
A0
330
1B3
100
AcDbEntity
  8
0 ... Seuil ... Rectangle ... Cotes Angles
100
AcDbMText
 10
2053.779108890021
 20
515.6897853944404
 30
0.0
 40
50.0
 41
0.0
 46
0.0
 71
     1
 72
     1
  1
A
  7
textstyle18
 73
     1
 44
1.0
  0
ARC
  5
A1
330
1B3
100
AcDbEntity
  8
0 ... Seuil ... Rectangle
100
AcDbCircle
 10
1583.857156152614
 20
285.0518403633464
 30
0.0
 40
1.0
100
AcDbArc
 50
274.9999999999746
 51
0.0
  0
DIMENSION
  5
A2
330
1B3
100
AcDbEntity
  8
0 ... Seuil ... Rectangle ... Cotes Angles
100
AcDbDimension
280
     0
  2
*D13
 10
1584.857156152613
 20
364.1355091893288
 30
0.0
 11
1636.714231061548
 21
236.6172548569161
 31
0.0
 70
   162
 71
     5
 42
1.658062789394612
 73
     0
 74
     0
 75
     0
  3
QCADDimStyle
100
AcDb2LineAngularDimension
 13
422.8571561526098
 23
182.4736821722092
 33
0.0
 14
1583.944311895362
 24
284.0556456652572
 34
0.0
 15
1584.857156152613
 25
285.0518403633464
 35
0.0
 16
1629.656512145707
 26
211.5046905424052
 36
0.0
1001
ACAD
1000
DSTYLE
1002
{
1070
   279
1070
     2
1070
    41
1040
20.0
1070
    79
1070
     2
1070
   176
1070
     0
1070
   177
1070
     0
1070
   178
1070
     0
1070
    44
1040
10.0
1070
    42
1040
5.0
1070
   147
1040
5.0
1070
   142
1040
20.0
1070
   140
1040
20.0
1070
    78
1070
     8
1002
}
  0
LINE
  5
A3
330
1B3
100
AcDbEntity
  8
0 ... Seuil ... Rectangle
100
AcDbLine
 10
616.9803501273791
 20
1266.274162739362
 30
0.0
 11
617.4803501273782
 21
1266.274162739362
 31
0.0
  0
LINE
  5
A4
330
1B3
100
AcDbEntity
  8
0 ... Seuil ... Rectangle
100
AcDbLine
 10
616.9803501273791
 20
1330.693561404516
 30
0.0
 11
618.4803501273782
 21
1330.693561404516
 31
0.0
  0
LINE
  5
A5
330
1B3
100
AcDbEntity
  8
0 ... Seuil ... Rectangle
100
AcDbLine
 10
1667.480350127378
 20
1266.274162739362
 30
0.0
 11
1667.980350127378
 21
1266.274162739362
 31
0.0
  0
LINE
  5
A6
330
1B3
100
AcDbEntity
  8
0 ... Seuil ... Rectangle
100
AcDbLine
 10
1667.980350127378
 20
1330.693561404514
 30
0.0
 11
1666.480350127378
 21
1330.693561404514
 31
0.0
  0
ARC
  5
A7
330
1B3
100
AcDbEntity
  8
0 ... Seuil ... Rectangle
100
AcDbCircle
 10
1666.980350127378
 20
1259.561337458716
 30
0.0
 40
1.0
100
AcDbArc
 50
270.0
 51
0.0
  0
LINE
  5
A8
330
1B3
100
AcDbEntity
  8
0 ... Seuil ... Rectangle
100
AcDbLine
 10
1667.980350127378
 20
1246.561337458716
 30
0.0
 11
1667.980350127378
 21
1259.561337458716
 31
0.0
  0
LINE
  5
A9
330
1B3
100
AcDbEntity
  8
0 ... Seuil ... Rectangle
100
AcDbLine
 10
1666.480350127378
 20
1258.561337458716
 30
0.0
 11
1666.480350127378
 21
1265.274162739362
 31
0.0
  0
LINE
  5
AA
330
1B3
100
AcDbEntity
  8
0 ... Seuil ... Rectangle
100
AcDbLine
 10
618.4803501273782
 20
1302.60229745197
 30
0.0
 11
1666.480350127378
 21
1302.60229745197
 31
0.0
  0
LINE
  5
AB
330
1B3
100
AcDbEntity
  8
0 ... Seuil ... Rectangle
100
AcDbLine
 10
618.4803501273782
 20
1282.60229745197
 30
0.0
 11
1666.480350127378
 21
1282.60229745197
 31
0.0
  0
ARC
  5
AC
330
1B3
100
AcDbEntity
  8
0 ... Seuil ... Rectangle
100
AcDbCircle
 10
1667.480350127378
 20
1265.274162739362
 30
0.0
 40
1.0
100
AcDbArc
 50
90.0
 51
180.0
  0
ARC
  5
AD
330
1B3
100
AcDbEntity
  8
0 ... Seuil ... Rectangle
100
AcDbCircle
 10
1668.480350127378
 20
1265.274162739362
 30
0.0
 40
1.0
100
AcDbArc
 50
0.0
 51
90.0
  0
ARC
  5
AE
330
1B3
100
AcDbEntity
  8
0 ... Seuil ... Rectangle
100
AcDbCircle
 10
616.4803501273782
 20
1265.274162739362
 30
0.0
 40
1.0
100
AcDbArc
 50
89.99999999997394
 51
180.0
  0
ARC
  5
AF
330
1B3
100
AcDbEntity
  8
0 ... Seuil ... Rectangle
100
AcDbCircle
 10
617.4803501273782
 20
1265.274162739362
 30
0.0
 40
1.0
100
AcDbArc
 50
0.0
 51
90.0
  0
LINE
  5
B0
330
1B3
100
AcDbEntity
  8
0 ... Seuil ... Rectangle
100
AcDbLine
 10
618.4803501273782
 20
1258.561337458716
 30
0.0
 11
618.4803501273782
 21
1330.693561404516
 31
0.0
  0
ARC
  5
B1
330
1B3
100
AcDbEntity
  8
0 ... Seuil ... Rectangle
100
AcDbCircle
 10
617.9803501273782
 20
1259.561337458716
 30
0.0
 40
1.0
100
AcDbArc
 50
180.0
 51
270.0
  0
LINE
  5
B2
330
1B3
100
AcDbEntity
  8
0 ... Seuil ... Rectangle
100
AcDbLine
 10
616.9803501273791
 20
1246.561337458716
 30
0.0
 11
616.9803501273782
 21
1259.561337458716
 31
0.0
  0
DIMENSION
  5
B3
330
1B3
100
AcDbEntity
  8
0 ... Seuil ... Rectangle ... Cotes Angles
100
AcDbDimension
280
     0
  2
*D14
 10
437.8331949650999
 20
820.2571138722536
 30
0.0
 11
435.323645371241
 21
847.7571138722535
 31
0.0
 70
    33
 71
     5
 42
5.01909918771679
 73
     0
 74
     0
 75
     0
  3
QCADDimStyle
100
AcDbAlignedDimension
 13
432.8140957773842
 23
774.0699315459055
 33
0.0
 14
437.833194965101
 24
774.0699315459057
 34
0.0
1001
ACAD
1000
DSTYLE
1002
{
1070
   279
1070
     2
1070
    41
1040
20.0
1070
    79
1070
     2
1070
   176
1070
     0
1070
   177
1070
     0
1070
   178
1070
     0
1070
    44
1040
10.0
1070
    42
1040
5.0
1070
   147
1040
5.0
1070
   142
1040
20.0
1070
   140
1040
20.0
1070
    78
1070
     8
1002
}
  0
DIMENSION
  5
B4
330
1B3
100
AcDbEntity
  8
0 ... Seuil ... Rectangle ... Cotes Angles
100
AcDbDimension
280
     0
  2
*D15
 10
419.8980189423143
 20
1065.15220961747
 30
0.0
 11
445.6896467800493
 21
1080.152209617479
 31
0.0
 70
   161
 71
     5
 42
19.99999999999676
 73
     0
 74
     0
 75
     0
  3
QCADDimStyle
100
AcDbAlignedDimension
 13
399.8980189422882
 23
979.0699315459067
 33
0.0
 14
419.898018942285
 24
979.0699315458999
 34
0.0
1001
ACAD
1000
DSTYLE
1002
{
1070
   279
1070
     2
1070
    41
1040
20.0
1070
    79
1070
     2
1070
   176
1070
     0
1070
   177
1070
     0
1070
   178
1070
     0
1070
    44
1040
10.0
1070
    42
1040
5.0
1070
   147
1040
5.0
1070
   142
1040
20.0
1070
   140
1040
20.0
1070
    78
1070
     8
1002
}
  0
DIMENSION
  5
B5
330
1B3
100
AcDbEntity
  8
0 ... Seuil ... Rectangle ... Cotes Angles
100
AcDbDimension
280
     0
  2
*D16
 10
399.8980189422882
 20
1025.152209617477
 30
0.0
 11
345.689646780047
 21
1040.152209617476
 31
0.0
 70
   160
 71
     5
 42
28.09126395254793
 73
     0
 74
     0
 75
     0
  3
QCADDimStyle
100
AcDbAlignedDimension
 13
371.8067549897403
 23
955.0699315459019
 33
0.0
 14
399.8980189422882
 24
979.0699315459067
 34
0.0
100
AcDbRotatedDimension
1001
ACAD
1000
DSTYLE
1002
{
1070
   279
1070
     2
1070
    41
1040
20.0
1070
    79
1070
     2
1070
   176
1070
     0
1070
   177
1070
     0
1070
   178
1070
     0
1070
    44
1040
10.0
1070
    42
1040
5.0
1070
   147
1040
5.0
1070
   142
1040
20.0
1070
   140
1040
20.0
1070
    78
1070
     8
1002
}
  0
MTEXT
  5
B6
330
1B3
100
AcDbEntity
  8
0 ... Seuil ... Rectangle ... Cotes Angles
100
AcDbMText
 10
216.7745103545478
 20
1680.33862487651
 30
0.0
 40
100.0
 41
0.0
 46
0.0
 71
     1
 72
     1
  1
PF Ch K - Seuil - Dessus, Profil & Face\P
  7
textstyle19
 73
     1
 44
1.0
  0
LINE
  5
B7
330
1B3
100
AcDbEntity
  8
0 ... Seuil ... Rectangle
100
AcDbLine
 10
617.9803501273782
 20
1258.561337458716
 30
0.0
 11
1666.980350127378
 21
1258.561337458716
 31
0.0
  0
LINE
  5
B8
330
1B3
100
AcDbEntity
  8
0 ... Seuil ... Rectangle
100
AcDbLine
 10
1667.980350127378
 20
1258.561337458716
 30
0.0
 11
1669.480350127378
 21
1258.561337458716
 31
0.0
  0
LINE
  5
B9
330
1B3
100
AcDbEntity
  8
0 ... Seuil ... Rectangle
100
AcDbLine
 10
616.9803501273782
 20
744.0699315459046
 30
0.0
 11
1667.980350127378
 21
744.0699315459046
 31
0.0
  0
LINE
  5
BA
330
1B3
100
AcDbEntity
  8
0 ... Seuil ... Rectangle
100
AcDbLine
 10
438.9521251145652
 20
744.0699315459046
 30
0.0
 11
432.8140957773842
 21
774.0699315459055
 31
0.0
  0
ENDSEC
  0
SECTION
  2
OBJECTS
  0
DICTIONARY
  5
1A1
330
0
100
AcDbDictionary
281
     1
  3
ACAD_DETAILVIEWSTYLE
350
34C
  3
ACAD_GROUP
350
1A2
  3
ACAD_LAYOUT
350
1AE
  3
ACAD_MATERIAL
350
1D7
  3
ACAD_MLEADERSTYLE
350
1FF
  3
ACAD_MLINESTYLE
350
1AB
  3
ACAD_PLOTSETTINGS
350
1AD
  3
ACAD_PLOTSTYLENAME
350
1A3
  3
ACAD_SCALELIST
350
1DB
  3
ACAD_SECTIONVIEWSTYLE
350
34D
  3
ACAD_TABLESTYLE
350
1FD
  3
ACAD_VISUALSTYLE
350
1BE
  3
ACDB_RECOMPOSE_DATA
350
349
  3
AcDbVariableDictionary
350
345
  3
QCAD_OBJECTS
350
203
  0
SUN
  5
201
330
1BD
100
AcDbSun
 90
        1
290
     0
 63
     7
421
 16777215
 40
1.0
291
     1
 91
  2455826
 92
 54000000
292
     0
 70
     2
 71
   256
280
     1
  0
DICTIONARY
  5
34C
102
{ACAD_REACTORS
330
1A1
102
}
330
1A1
100
AcDbDictionary
281
     1
  0
DICTIONARY
  5
1A2
102
{ACAD_REACTORS
330
1A1
102
}
330
1A1
100
AcDbDictionary
281
     1
  0
DICTIONARY
  5
1AE
102
{ACAD_REACTORS
330
1A1
102
}
330
1A1
100
AcDbDictionary
281
     1
  3
Layout1
350
1B2
  3
Layout2
350
1BA
  3
Model
350
1B6
  0
DICTIONARY
  5
1D7
102
{ACAD_REACTORS
330
1A1
102
}
330
1A1
100
AcDbDictionary
281
     1
  3
ByBlock
350
1D9
  3
ByLayer
350
1D8
  3
Global
350
1DA
  0
DICTIONARY
  5
1FF
102
{ACAD_REACTORS
330
1A1
102
}
330
1A1
100
AcDbDictionary
281
     1
  3
Standard
350
200
  0
DICTIONARY
  5
1AB
102
{ACAD_REACTORS
330
1A1
102
}
330
1A1
100
AcDbDictionary
281
     1
  3
Standard
350
1AC
  0
DICTIONARY
  5
1AD
102
{ACAD_REACTORS
330
1A1
102
}
330
1A1
100
AcDbDictionary
281
     1
  0
ACDBDICTIONARYWDFLT
  5
1A3
102
{ACAD_REACTORS
330
1A1
102
}
330
1A1
100
AcDbDictionary
281
     1
  3
Normal
350
1A4
100
AcDbDictionaryWithDefault
340
1A4
  0
DICTIONARY
  5
1DB
102
{ACAD_REACTORS
330
1A1
102
}
330
1A1
100
AcDbDictionary
281
     1
  3
A0
350
1DC
  3
A1
350
1DD
  3
A2
350
1DE
  3
A3
350
1DF
  3
A4
350
1E0
  3
A5
350
1E1
  3
A6
350
1E2
  3
A7
350
1E3
  3
A8
350
1E4
  3
A9
350
1E5
  3
B0
350
1E6
  3
B1
350
1E7
  3
B2
350
1E8
  3
B3
350
1E9
  3
B4
350
1EA
  3
B5
350
1EB
  3
B6
350
1EC
  3
B7
350
1ED
  3
B8
350
1EE
  3
B9
350
1EF
  3
C0
350
1F0
  3
C1
350
1F1
  3
C2
350
1F2
  3
C3
350
1F3
  3
C4
350
1F4
  3
C5
350
1F5
  3
C6
350
1F6
  3
C7
350
1F7
  3
C8
350
1F8
  3
C9
350
1F9
  3
D0
350
1FA
  3
D1
350
1FB
  3
D2
350
1FC
  0
DICTIONARY
  5
34D
102
{ACAD_REACTORS
330
1A1
102
}
330
1A1
100
AcDbDictionary
281
     1
  0
DICTIONARY
  5
1FD
102
{ACAD_REACTORS
330
1A1
102
}
330
1A1
100
AcDbDictionary
281
     1
  3
Standard
350
1FE
  0
DICTIONARY
  5
1BE
102
{ACAD_REACTORS
330
1A1
102
}
330
1A1
100
AcDbDictionary
281
     1
  3
2dWireframe
350
1C3
  3
Basic
350
1C6
  3
Brighten
350
1CA
  3
ColorChange
350
1CE
  3
Conceptual
350
1C8
  3
Dim
350
1C9
  3
EdgeColorOff
350
1D1
  3
Facepattern
350
1CD
  3
Flat
350
1BF
  3
FlatWithEdges
350
1C0
  3
Gouraud
350
1C1
  3
GouraudWithEdges
350
1C2
  3
Hidden
350
1C5
  3
JitterOff
350
1CF
  3
Linepattern
350
1CC
  3
OverhangOff
350
1D0
  3
Realistic
350
1C7
  3
Shaded
350
1D6
  3
Shaded with edges
350
1D5
  3
Shades of Gray
350
1D2
  3
Sketchy
350
1D3
  3
Thicken
350
1CB
  3
Wireframe
350
1C4
  3
X-Ray
350
1D4
  0
XRECORD
  5
349
102
{ACAD_REACTORS
330
1A1
102
}
330
1A1
100
AcDbXrecord
280
     1
 90
        1
330
1FE
  0
DICTIONARY
  5
345
102
{ACAD_REACTORS
330
1A1
102
}
330
1A1
100
AcDbDictionary
281
     1
  3
CANNOSCALE
350
346
  3
CMLEADERSTYLE
350
34B
  3
CTABLESTYLE
350
34A
  0
DICTIONARY
  5
203
102
{ACAD_REACTORS
330
1A1
102
}
330
1A1
100
AcDbDictionary
281
     1
  3
DimensionSettings/AngularFormat
350
205
  3
DimensionSettings/AngularPrecision
350
206
  3
DimensionSettings/DimensionFont
350
207
  3
DimensionSettings/KeepProportions
350
208
  3
DimensionSettings/LinearFormat
350
209
  3
DimensionSettings/LinearPrecision
350
20A
  3
Grid/DisplayGrid00
350
20B
  3
Grid/DisplayGrid01
350
20C
  3
Grid/DisplayGrid02
350
20D
  3
Grid/DisplayGrid03
350
20E
  3
Grid/GridSpacingX00
350
20F
  3
Grid/GridSpacingX01
350
210
  3
Grid/GridSpacingX02
350
211
  3
Grid/GridSpacingX03
350
212
  3
Grid/GridSpacingY00
350
213
  3
Grid/GridSpacingY01
350
214
  3
Grid/GridSpacingY02
350
215
  3
Grid/GridSpacingY03
350
216
  3
Grid/IsometricGrid00
350
217
  3
Grid/IsometricGrid01
350
218
  3
Grid/IsometricGrid02
350
219
  3
Grid/IsometricGrid03
350
21A
  3
Grid/IsometricProjection00
350
21B
  3
Grid/IsometricProjection01
350
21C
  3
Grid/IsometricProjection02
350
21D
  3
Grid/IsometricProjection03
350
21E
  3
Grid/MetaGridSpacingX00
350
21F
  3
Grid/MetaGridSpacingX01
350
220
  3
Grid/MetaGridSpacingX02
350
221
  3
Grid/MetaGridSpacingX03
350
222
  3
Grid/MetaGridSpacingY00
350
223
  3
Grid/MetaGridSpacingY01
350
224
  3
Grid/MetaGridSpacingY02
350
225
  3
Grid/MetaGridSpacingY03
350
226
  3
MultiPageSettings/Columns
350
227
  3
MultiPageSettings/GlueMarginsBottom
350
228
  3
MultiPageSettings/GlueMarginsLeft
350
229
  3
MultiPageSettings/GlueMarginsRight
350
22A
  3
MultiPageSettings/GlueMarginsTop
350
22B
  3
MultiPageSettings/PrintCropMarks
350
22C
  3
MultiPageSettings/Rows
350
22D
  3
PageSettings/OffsetX
350
22E
  3
PageSettings/OffsetY
350
22F
  3
PageSettings/PageOrientation
350
230
  3
PageSettings/PaperHeight
350
231
  3
PageSettings/PaperWidth
350
232
  3
PageSettings/Scale
350
233
  3
PageSettings/ShowPaperBorders
350
234
  3
QCADVersion
350
235
  3
UnitSettings/PaperUnit
350
236
  0
LAYOUT
  5
1B2
102
{ACAD_REACTORS
330
1AE
102
}
330
1AE
100
AcDbPlotSettings
  1

  2
none_device
  4

  6

 40
0.0
 41
0.0
 42
0.0
 43
0.0
 44
0.0
 45
0.0
 46
0.0
 47
0.0
 48
0.0
 49
0.0
140
0.0
141
0.0
142
1.0
143
1.0
 70
   688
 72
     0
 73
     0
 74
     5
  7

 75
    16
 76
     0
 77
     2
 78
   300
147
1.0
148
0.0
149
0.0
100
AcDbLayout
  1
Layout1
 70
     1
 71
     1
 10
0.0
 20
0.0
 11
12.0
 21
9.0
 12
0.0
 22
0.0
 32
0.0
 14
1.000000000000000E+20
 24
1.000000000000000E+20
 34
1.000000000000000E+20
 15
-1.000000000000000E+20
 25
-1.000000000000000E+20
 35
-1.000000000000000E+20
146
0.0
 13
0.0
 23
0.0
 33
0.0
 16
1.0
 26
0.0
 36
0.0
 17
0.0
 27
1.0
 37
0.0
 76
     0
330
1AF
  0
LAYOUT
  5
1BA
102
{ACAD_REACTORS
330
1AE
102
}
330
1AE
100
AcDbPlotSettings
  1

  2
none_device
  4

  6

 40
0.0
 41
0.0
 42
0.0
 43
0.0
 44
0.0
 45
0.0
 46
0.0
 47
0.0
 48
0.0
 49
0.0
140
0.0
141
0.0
142
1.0
143
1.0
 70
   688
 72
     0
 73
     0
 74
     5
  7

 75
    16
 76
     0
 77
     2
 78
   300
147
1.0
148
0.0
149
0.0
100
AcDbLayout
  1
Layout2
 70
     1
 71
     2
 10
0.0
 20
0.0
 11
0.0
 21
0.0
 12
0.0
 22
0.0
 32
0.0
 14
0.0
 24
0.0
 34
0.0
 15
0.0
 25
0.0
 35
0.0
146
0.0
 13
0.0
 23
0.0
 33
0.0
 16
1.0
 26
0.0
 36
0.0
 17
0.0
 27
1.0
 37
0.0
 76
     0
330
1B7
  0
LAYOUT
  5
1B6
102
{ACAD_REACTORS
330
1AE
102
}
330
1AE
100
AcDbPlotSettings
  1

  2
none_device
  4
Letter_(8.50_x_11.00_Inches)
  6

 40
6.35
 41
6.35
 42
6.35000508
 43
6.35000508
 44
215.9
 45
279.4
 46
0.0
 47
0.0
 48
0.0
 49
0.0
140
0.0
141
0.0
142
1.0
143
1.0
 70
  1712
 72
     0
 73
     0
 74
     0
  7

 75
     0
 76
     0
 77
     2
 78
   300
147
1.0
148
0.0
149
0.0
100
AcDbLayout
  1
Model
 70
     1
 71
     0
 10
0.0
 20
0.0
 11
12.0
 21
9.0
 12
0.0
 22
0.0
 32
0.0
 14
1.000000000000000E+20
 24
1.000000000000000E+20
 34
1.000000000000000E+20
 15
-1.000000000000000E+20
 25
-1.000000000000000E+20
 35
-1.000000000000000E+20
146
0.0
 13
0.0
 23
0.0
 33
0.0
 16
1.0
 26
0.0
 36
0.0
 17
0.0
 27
1.0
 37
0.0
 76
     0
330
1B3
331
1BD
  0
MATERIAL
  5
1D9
102
{ACAD_REACTORS
330
1D7
102
}
330
1D7
100
AcDbMaterial
  1
ByBlock
 72
     1
 94
      127
  0
MATERIAL
  5
1D8
102
{ACAD_REACTORS
330
1D7
102
}
330
1D7
100
AcDbMaterial
  1
ByLayer
 72
     1
 94
      127
  0
MATERIAL
  5
1DA
102
{ACAD_REACTORS
330
1D7
102
}
330
1D7
100
AcDbMaterial
  1
Global
 72
     1
 94
      127
  0
MLEADERSTYLE
  5
200
102
{ACAD_REACTORS
330
1FF
102
}
330
1FF
100
AcDbMLeaderStyle
179
     2
170
     2
171
     1
172
     0
 90
        2
 40
0.0
 41
0.0
173
     1
 91
-1056964608
340
1A8
 92
       -2
290
     1
 42
0.09
291
     1
 43
0.36
  3
Standard
341
0
 44
0.18
300

342
1A6
174
     1
178
     6
175
     1
176
     0
 93
-1056964608
 45
0.18
292
     0
297
     0
 46
0.18
343
0
 94
-1056964608
 47
1.0
 49
1.0
140
1.0
293
     1
141
0.0
294
     1
177
     0
142
1.0
295
     0
296
     0
143
0.125
271
     0
272
     9
273
     9
298
     0
  0
MLINESTYLE
  5
1AC
102
{ACAD_REACTORS
330
1AB
102
}
330
1AB
100
AcDbMlineStyle
  2
Standard
 70
     0
  3

 62
   256
 51
90.0
 52
90.0
 71
     2
 49
0.5
 62
   256
  6
BYLAYER
 49
-0.5
 62
   256
  6
BYLAYER
  0
ACDBPLACEHOLDER
  5
1A4
102
{ACAD_REACTORS
330
1A3
102
}
330
1A3
  0
SCALE
  5
1DC
102
{ACAD_REACTORS
330
1DB
102
}
330
1DB
100
AcDbScale
 70
     0
300
1:1
140
1.0
141
1.0
290
     1
  0
SCALE
  5
1DD
102
{ACAD_REACTORS
330
1DB
102
}
330
1DB
100
AcDbScale
 70
     0
300
1:2
140
1.0
141
2.0
290
     0
  0
SCALE
  5
1DE
102
{ACAD_REACTORS
330
1DB
102
}
330
1DB
100
AcDbScale
 70
     0
300
1:4
140
1.0
141
4.0
290
     0
  0
SCALE
  5
1DF
102
{ACAD_REACTORS
330
1DB
102
}
330
1DB
100
AcDbScale
 70
     0
300
1:5
140
1.0
141
5.0
290
     0
  0
SCALE
  5
1E0
102
{ACAD_REACTORS
330
1DB
102
}
330
1DB
100
AcDbScale
 70
     0
300
1:8
140
1.0
141
8.0
290
     0
  0
SCALE
  5
1E1
102
{ACAD_REACTORS
330
1DB
102
}
330
1DB
100
AcDbScale
 70
     0
300
1:10
140
1.0
141
10.0
290
     0
  0
SCALE
  5
1E2
102
{ACAD_REACTORS
330
1DB
102
}
330
1DB
100
AcDbScale
 70
     0
300
1:16
140
1.0
141
16.0
290
     0
  0
SCALE
  5
1E3
102
{ACAD_REACTORS
330
1DB
102
}
330
1DB
100
AcDbScale
 70
     0
300
1:20
140
1.0
141
20.0
290
     0
  0
SCALE
  5
1E4
102
{ACAD_REACTORS
330
1DB
102
}
330
1DB
100
AcDbScale
 70
     0
300
1:30
140
1.0
141
30.0
290
     0
  0
SCALE
  5
1E5
102
{ACAD_REACTORS
330
1DB
102
}
330
1DB
100
AcDbScale
 70
     0
300
1:40
140
1.0
141
40.0
290
     0
  0
SCALE
  5
1E6
102
{ACAD_REACTORS
330
1DB
102
}
330
1DB
100
AcDbScale
 70
     0
300
1:50
140
1.0
141
50.0
290
     0
  0
SCALE
  5
1E7
102
{ACAD_REACTORS
330
1DB
102
}
330
1DB
100
AcDbScale
 70
     0
300
1:100
140
1.0
141
100.0
290
     0
  0
SCALE
  5
1E8
102
{ACAD_REACTORS
330
1DB
102
}
330
1DB
100
AcDbScale
 70
     0
300
2:1
140
2.0
141
1.0
290
     0
  0
SCALE
  5
1E9
102
{ACAD_REACTORS
330
1DB
102
}
330
1DB
100
AcDbScale
 70
     0
300
4:1
140
4.0
141
1.0
290
     0
  0
SCALE
  5
1EA
102
{ACAD_REACTORS
330
1DB
102
}
330
1DB
100
AcDbScale
 70
     0
300
8:1
140
8.0
141
1.0
290
     0
  0
SCALE
  5
1EB
102
{ACAD_REACTORS
330
1DB
102
}
330
1DB
100
AcDbScale
 70
     0
300
10:1
140
10.0
141
1.0
290
     0
  0
SCALE
  5
1EC
102
{ACAD_REACTORS
330
1DB
102
}
330
1DB
100
AcDbScale
 70
     0
300
100:1
140
100.0
141
1.0
290
     0
  0
SCALE
  5
1ED
102
{ACAD_REACTORS
330
1DB
102
}
330
1DB
100
AcDbScale
 70
     0
300
1/128" = 1'-0"
140
0.0078125
141
12.0
290
     0
  0
SCALE
  5
1EE
102
{ACAD_REACTORS
330
1DB
102
}
330
1DB
100
AcDbScale
 70
     0
300
1/64" = 1'-0"
140
0.015625
141
12.0
290
     0
  0
SCALE
  5
1EF
102
{ACAD_REACTORS
330
1DB
102
}
330
1DB
100
AcDbScale
 70
     0
300
1/32" = 1'-0"
140
0.03125
141
12.0
290
     0
  0
SCALE
  5
1F0
102
{ACAD_REACTORS
330
1DB
102
}
330
1DB
100
AcDbScale
 70
     0
300
1/16" = 1'-0"
140
0.0625
141
12.0
290
     0
  0
SCALE
  5
1F1
102
{ACAD_REACTORS
330
1DB
102
}
330
1DB
100
AcDbScale
 70
     0
300
3/32" = 1'-0"
140
0.09375
141
12.0
290
     0
  0
SCALE
  5
1F2
102
{ACAD_REACTORS
330
1DB
102
}
330
1DB
100
AcDbScale
 70
     0
300
1/8" = 1'-0"
140
0.125
141
12.0
290
     0
  0
SCALE
  5
1F3
102
{ACAD_REACTORS
330
1DB
102
}
330
1DB
100
AcDbScale
 70
     0
300
3/16" = 1'-0"
140
0.1875
141
12.0
290
     0
  0
SCALE
  5
1F4
102
{ACAD_REACTORS
330
1DB
102
}
330
1DB
100
AcDbScale
 70
     0
300
1/4" = 1'-0"
140
0.25
141
12.0
290
     0
  0
SCALE
  5
1F5
102
{ACAD_REACTORS
330
1DB
102
}
330
1DB
100
AcDbScale
 70
     0
300
3/8" = 1'-0"
140
0.375
141
12.0
290
     0
  0
SCALE
  5
1F6
102
{ACAD_REACTORS
330
1DB
102
}
330
1DB
100
AcDbScale
 70
     0
300
1/2" = 1'-0"
140
0.5
141
12.0
290
     0
  0
SCALE
  5
1F7
102
{ACAD_REACTORS
330
1DB
102
}
330
1DB
100
AcDbScale
 70
     0
300
3/4" = 1'-0"
140
0.75
141
12.0
290
     0
  0
SCALE
  5
1F8
102
{ACAD_REACTORS
330
1DB
102
}
330
1DB
100
AcDbScale
 70
     0
300
1" = 1'-0"
140
1.0
141
12.0
290
     0
  0
SCALE
  5
1F9
102
{ACAD_REACTORS
330
1DB
102
}
330
1DB
100
AcDbScale
 70
     0
300
1-1/2" = 1'-0"
140
1.5
141
12.0
290
     0
  0
SCALE
  5
1FA
102
{ACAD_REACTORS
330
1DB
102
}
330
1DB
100
AcDbScale
 70
     0
300
3" = 1'-0"
140
3.0
141
12.0
290
     0
  0
SCALE
  5
1FB
102
{ACAD_REACTORS
330
1DB
102
}
330
1DB
100
AcDbScale
 70
     0
300
6" = 1'-0"
140
6.0
141
12.0
290
     0
  0
SCALE
  5
1FC
102
{ACAD_REACTORS
330
1DB
102
}
330
1DB
100
AcDbScale
 70
     0
300
1'-0" = 1'-0"
140
12.0
141
12.0
290
     0
  0
TABLESTYLE
  5
1FE
102
{ACAD_REACTORS
330
1FD
102
}
102
{ACAD_XDICTIONARY
360
347
102
}
330
1FD
100
AcDbTableStyle
  3
Standard
 70
     0
 71
     0
 40
0.06
 41
0.06
280
     0
281
     0
  7
Standard
140
0.18
170
     2
 62
     0
 63
   257
283
     0
 90
        4
 91
        0
  1

274
    -2
284
     1
 64
     0
275
    -2
285
     1
 65
     0
276
    -2
286
     1
 66
     0
277
    -2
287
     1
 67
     0
278
    -2
288
     1
 68
     0
279
    -2
289
     1
 69
     0
  7
Standard
140
0.25
170
     5
 62
     0
 63
   257
283
     0
 90
        4
 91
        0
  1

274
    -2
284
     1
 64
     0
275
    -2
285
     1
 65
     0
276
    -2
286
     1
 66
     0
277
    -2
287
     1
 67
     0
278
    -2
288
     1
 68
     0
279
    -2
289
     1
 69
     0
  7
Standard
140
0.18
170
     5
 62
     0
 63
   257
283
     0
 90
        4
 91
        0
  1

274
    -2
284
     1
 64
     0
275
    -2
285
     1
 65
     0
276
    -2
286
     1
 66
     0
277
    -2
287
     1
 67
     0
278
    -2
288
     1
 68
     0
279
    -2
289
     1
 69
     0
  0
VISUALSTYLE
  5
1C3
102
{ACAD_REACTORS
330
1BE
102
}
330
1BE
100
AcDbVisualStyle
  2
2dWireframe
 70
     4
177
     3
291
     0
 70
    58
 90
        0
176
     1
 90
        2
176
     1
 90
        0
176
     1
 90
        0
176
     1
 40
0.6
176
     1
 40
30.0
176
     1
 62
     7
420
 16777215
176
     1
 90
        1
176
     1
 90
        4
176
     1
 62
     7
176
     1
 62
   257
176
     1
 90
        1
176
     1
 90
        1
176
     1
 40
1.0
176
     1
 90
        0
176
     1
 62
   257
176
     1
 40
1.0
176
     1
 90
        1
176
     1
 90
        6
176
     1
 90
        2
176
     1
 62
     7
176
     1
 90
        5
176
     1
 90
        0
176
     1
 90
        0
176
     1
290
     0
176
     1
 90
        1
176
     1
 40
0.0
176
     1
 90
        0
176
     1
290
     1
176
     1
290
     1
176
     1
290
     0
176
     1
290
     0
176
     1
290
     0
176
     1
290
     0
176
     1
290
     0
176
     1
290
     0
176
     1
290
     0
176
     1
 90
       50
176
     1
 40
0.0
176
     1
 40
1.0
176
     1
 90
        0
176
     1
 62
   178
420
        0
176
     1
 90
       50
176
     1
 90
        3
176
     1
 62
     5
420
      255
176
     1
290
     0
176
     1
 90
       50
176
     1
 90
       50
176
     1
 90
       50
176
     1
290
     0
176
     1
 90
       50
176
     1
 62
   256
176
     0
 40
1.0
176
     0
 90
        2
176
     1
  1
strokes_ogs.tif
176
     1
290
     0
176
     1
 40
1.0
176
     1
 40
1.0
176
     1
  0
VISUALSTYLE
  5
1C6
102
{ACAD_REACTORS
330
1BE
102
}
330
1BE
100
AcDbVisualStyle
  2
Basic
 70
     7
177
     3
291
     1
 70
    58
 90
        1
176
     1
 90
        0
176
     1
 90
        1
176
     1
 90
        0
176
     1
 40
0.6
176
     1
 40
30.0
176
     1
 62
     7
420
 16777215
176
     1
 90
        0
176
     1
 90
        4
176
     1
 62
     7
176
     1
 62
   257
176
     1
 90
        1
176
     1
 90
        1
176
     1
 40
1.0
176
     1
 90
        8
176
     1
 62
     7
176
     1
 40
1.0
176
     1
 90
        1
176
     1
 90
        6
176
     1
 90
        2
176
     1
 62
     7
176
     1
 90
        5
176
     1
 90
        0
176
     1
 90
        0
176
     1
290
     0
176
     1
 90
        1
176
     1
 40
0.0
176
     1
 90
        0
176
     1
290
     0
176
     1
290
     1
176
     1
290
     1
176
     1
290
     0
176
     1
290
     0
176
     1
290
     0
176
     1
290
     0
176
     1
290
     0
176
     1
290
     0
176
     1
 90
       50
176
     1
 40
0.0
176
     1
 40
1.0
176
     1
 90
        0
176
     1
 62
   178
420
        0
176
     1
 90
       50
176
     1
 90
        3
176
     1
 62
     5
420
      255
176
     1
290
     0
176
     1
 90
       50
176
     1
 90
       50
176
     1
 90
       50
176
     1
290
     0
176
     1
 90
       50
176
     1
 62
   256
176
     0
 40
1.0
176
     0
 90
        2
176
     1
  1
strokes_ogs.tif
176
     1
290
     0
176
     1
 40
1.0
176
     1
 40
1.0
176
     1
  0
VISUALSTYLE
  5
1CA
102
{ACAD_REACTORS
330
1BE
102
}
330
1BE
100
AcDbVisualStyle
  2
Brighten
 70
    12
177
     3
291
     1
 70
    58
 90
        2
176
     1
 90
        2
176
     1
 90
        0
176
     1
 90
        0
176
     1
 40
0.6
176
     1
 40
30.0
176
     1
 62
     7
420
 16777215
176
     1
 90
        1
176
     1
 90
        4
176
     1
 62
     7
176
     1
 62
   257
176
     1
 90
        1
176
     1
 90
        1
176
     1
 40
1.0
176
     1
 90
        8
176
     1
 62
     7
176
     1
 40
1.0
176
     1
 90
        1
176
     1
 90
        6
176
     1
 90
        2
176
     1
 62
     7
176
     1
 90
        5
176
     1
 90
        0
176
     1
 90
        0
176
     1
290
     0
176
     1
 90
        1
176
     1
 40
50.0
176
     1
 90
        0
176
     1
290
     0
176
     1
290
     1
176
     1
290
     1
176
     1
290
     0
176
     1
290
     0
176
     1
290
     0
176
     1
290
     0
176
     1
290
     0
176
     1
290
     0
176
     1
 90
       50
176
     1
 40
0.0
176
     1
 40
1.0
176
     1
 90
        0
176
     1
 62
   178
420
        0
176
     1
 90
       50
176
     1
 90
        3
176
     1
 62
     5
420
      255
176
     1
290
     0
176
     1
 90
       50
176
     1
 90
       50
176
     1
 90
       50
176
     1
290
     0
176
     1
 90
       50
176
     1
 62
   256
176
     0
 40
1.0
176
     0
 90
        2
176
     1
  1
strokes_ogs.tif
176
     1
290
     0
176
     1
 40
1.0
176
     1
 40
1.0
176
     1
  0
VISUALSTYLE
  5
1CE
102
{ACAD_REACTORS
330
1BE
102
}
330
1BE
100
AcDbVisualStyle
  2
ColorChange
 70
    16
177
     3
291
     1
 70
    58
 90
        2
176
     1
 90
        2
176
     1
 90
        3
176
     1
 90
        0
176
     1
 40
0.6
176
     1
 40
30.0
176
     1
 62
     8
420
  8421504
176
     1
 90
        1
176
     1
 90
        4
176
     1
 62
     7
176
     1
 62
   257
176
     1
 90
        1
176
     1
 90
        1
176
     1
 40
1.0
176
     1
 90
        8
176
     1
 62
     8
420
  8421504
176
     1
 40
1.0
176
     1
 90
        1
176
     1
 90
        6
176
     1
 90
        2
176
     1
 62
     7
176
     1
 90
        5
176
     1
 90
        0
176
     1
 90
        0
176
     1
290
     0
176
     1
 90
        1
176
     1
 40
0.0
176
     1
 90
        0
176
     1
290
     0
176
     1
290
     1
176
     1
290
     1
176
     1
290
     0
176
     1
290
     0
176
     1
290
     0
176
     1
290
     0
176
     1
290
     0
176
     1
290
     0
176
     1
 90
       50
176
     1
 40
0.0
176
     1
 40
1.0
176
     1
 90
        0
176
     1
 62
   178
420
        0
176
     1
 90
       50
176
     1
 90
        3
176
     1
 62
     5
420
      255
176
     1
290
     0
176
     1
 90
       50
176
     1
 90
       50
176
     1
 90
       50
176
     1
290
     0
176
     1
 90
       50
176
     1
 62
   256
176
     0
 40
1.0
176
     0
 90
        2
176
     1
  1
strokes_ogs.tif
176
     1
290
     0
176
     1
 40
1.0
176
     1
 40
1.0
176
     1
  0
VISUALSTYLE
  5
1C8
102
{ACAD_REACTORS
330
1BE
102
}
330
1BE
100
AcDbVisualStyle
  2
Conceptual
 70
     9
177
     3
291
     0
 70
    58
 90
        3
176
     1
 90
        2
176
     1
 90
        0
176
     1
 90
        0
176
     1
 40
0.6
176
     1
 40
30.0
176
     1
 62
     7
420
 16777215
176
     1
 90
        2
176
     1
 90
        2
176
     1
 62
     7
176
     1
 62
   257
176
     1
 90
        1
176
     1
 90
        1
176
     1
 40
179.0
176
     1
 90
        8
176
     1
 62
     7
176
     1
 40
1.0
176
     1
 90
        1
176
     1
 90
        6
176
     1
 90
        2
176
     1
 62
     7
176
     1
 90
        3
176
     1
 90
        0
176
     1
 90
        0
176
     1
290
     0
176
     1
 90
        1
176
     1
 40
0.0
176
     1
 90
        0
176
     1
290
     0
176
     1
290
     1
176
     1
290
     1
176
     1
290
     0
176
     1
290
     0
176
     1
290
     0
176
     1
290
     0
176
     1
290
     0
176
     1
290
     0
176
     1
 90
       50
176
     1
 40
0.0
176
     1
 40
1.0
176
     1
 90
        0
176
     1
 62
   178
420
        0
176
     1
 90
       50
176
     1
 90
        3
176
     1
 62
     5
420
      255
176
     1
290
     0
176
     1
 90
       50
176
     1
 90
       50
176
     1
 90
       50
176
     1
290
     0
176
     1
 90
       50
176
     1
 62
   256
176
     0
 40
1.0
176
     0
 90
        2
176
     1
  1
strokes_ogs.tif
176
     1
290
     0
176
     1
 40
1.0
176
     1
 40
1.0
176
     1
  0
VISUALSTYLE
  5
1C9
102
{ACAD_REACTORS
330
1BE
102
}
330
1BE
100
AcDbVisualStyle
  2
Dim
 70
    11
177
     3
291
     1
 70
    58
 90
        2
176
     1
 90
        2
176
     1
 90
        0
176
     1
 90
        0
176
     1
 40
0.6
176
     1
 40
30.0
176
     1
 62
     7
420
 16777215
176
     1
 90
        1
176
     1
 90
        4
176
     1
 62
     7
176
     1
 62
   257
176
     1
 90
        1
176
     1
 90
        1
176
     1
 40
1.0
176
     1
 90
        8
176
     1
 62
     7
176
     1
 40
1.0
176
     1
 90
        1
176
     1
 90
        6
176
     1
 90
        2
176
     1
 62
     7
176
     1
 90
        5
176
     1
 90
        0
176
     1
 90
        0
176
     1
290
     0
176
     1
 90
        1
176
     1
 40
-50.0
176
     1
 90
        0
176
     1
290
     0
176
     1
290
     1
176
     1
290
     1
176
     1
290
     0
176
     1
290
     0
176
     1
290
     0
176
     1
290
     0
176
     1
290
     0
176
     1
290
     0
176
     1
 90
       50
176
     1
 40
0.0
176
     1
 40
1.0
176
     1
 90
        0
176
     1
 62
   178
420
        0
176
     1
 90
       50
176
     1
 90
        3
176
     1
 62
     5
420
      255
176
     1
290
     0
176
     1
 90
       50
176
     1
 90
       50
176
     1
 90
       50
176
     1
290
     0
176
     1
 90
       50
176
     1
 62
   256
176
     0
 40
1.0
176
     0
 90
        2
176
     1
  1
strokes_ogs.tif
176
     1
290
     0
176
     1
 40
1.0
176
     1
 40
1.0
176
     1
  0
VISUALSTYLE
  5
1D1
102
{ACAD_REACTORS
330
1BE
102
}
330
1BE
100
AcDbVisualStyle
  2
EdgeColorOff
 70
    22
177
     3
291
     1
 70
    58
 90
        2
176
     0
 90
        2
176
     0
 90
        0
176
     0
 90
        0
176
     0
 40
0.6
176
     0
 40
30.0
176
     0
 62
     7
420
 16777215
176
     0
 90
        1
176
     0
 90
        4
176
     0
 62
     7
176
     0
 62
   257
176
     0
 90
        1
176
     0
 90
        1
176
     0
 40
1.0
176
     0
 90
        8
176
     2
 62
     7
176
     0
 40
1.0
176
     0
 90
        1
176
     0
 90
        6
176
     0
 90
        2
176
     0
 62
     7
176
     0
 90
        5
176
     0
 90
        0
176
     0
 90
        0
176
     0
290
     0
176
     0
 90
        1
176
     0
 40
0.0
176
     0
 90
        0
176
     0
290
     0
176
     0
290
     1
176
     0
290
     1
176
     0
290
     0
176
     0
290
     0
176
     0
290
     0
176
     0
290
     0
176
     0
290
     0
176
     0
290
     0
176
     0
 90
       50
176
     0
 40
0.0
176
     0
 40
1.0
176
     0
 90
        0
176
     0
 62
   178
420
        0
176
     0
 90
       50
176
     0
 90
        3
176
     0
 62
     5
420
      255
176
     0
290
     0
176
     0
 90
       50
176
     0
 90
       50
176
     0
 90
       50
176
     0
290
     0
176
     0
 90
       50
176
     0
 62
   256
176
     0
 40
1.0
176
     0
 90
        2
176
     0
  1
strokes_ogs.tif
176
     0
290
     0
176
     0
 40
1.0
176
     0
 40
1.0
176
     0
  0
VISUALSTYLE
  5
1CD
102
{ACAD_REACTORS
330
1BE
102
}
330
1BE
100
AcDbVisualStyle
  2
Facepattern
 70
    15
177
     3
291
     1
 70
    58
 90
        2
176
     1
 90
        2
176
     1
 90
        0
176
     1
 90
        0
176
     1
 40
0.6
176
     1
 40
30.0
176
     1
 62
     7
420
 16777215
176
     1
 90
        1
176
     1
 90
        4
176
     1
 62
     7
176
     1
 62
   257
176
     1
 90
        1
176
     1
 90
        1
176
     1
 40
1.0
176
     1
 90
        8
176
     1
 62
     7
176
     1
 40
1.0
176
     1
 90
        1
176
     1
 90
        6
176
     1
 90
        2
176
     1
 62
     7
176
     1
 90
        5
176
     1
 90
        0
176
     1
 90
        0
176
     1
290
     0
176
     1
 90
        1
176
     1
 40
0.0
176
     1
 90
        0
176
     1
290
     0
176
     1
290
     1
176
     1
290
     1
176
     1
290
     0
176
     1
290
     0
176
     1
290
     0
176
     1
290
     0
176
     1
290
     0
176
     1
290
     0
176
     1
 90
       50
176
     1
 40
0.0
176
     1
 40
1.0
176
     1
 90
        0
176
     1
 62
   178
420
        0
176
     1
 90
       50
176
     1
 90
        3
176
     1
 62
     5
420
      255
176
     1
290
     0
176
     1
 90
       50
176
     1
 90
       50
176
     1
 90
       50
176
     1
290
     0
176
     1
 90
       50
176
     1
 62
   256
176
     0
 40
1.0
176
     0
 90
        2
176
     1
  1
strokes_ogs.tif
176
     1
290
     0
176
     1
 40
1.0
176
     1
 40
1.0
176
     1
  0
VISUALSTYLE
  5
1BF
102
{ACAD_REACTORS
330
1BE
102
}
330
1BE
100
AcDbVisualStyle
  2
Flat
 70
     0
177
     3
291
     1
 70
    58
 90
        2
176
     1
 90
        1
176
     1
 90
        1
176
     1
 90
        2
176
     1
 40
0.6
176
     1
 40
30.0
176
     1
 62
     7
420
 16777215
176
     1
 90
        0
176
     1
 90
        0
176
     1
 62
     7
176
     1
 62
   257
176
     1
 90
        1
176
     1
 90
        1
176
     1
 40
1.0
176
     1
 90
        8
176
     1
 62
     7
176
     1
 40
1.0
176
     1
 90
        1
176
     1
 90
        6
176
     1
 90
        2
176
     1
 62
     7
176
     1
 90
        5
176
     1
 90
        0
176
     1
 90
        0
176
     1
290
     0
176
     1
 90
       13
176
     1
 40
0.0
176
     1
 90
        0
176
     1
290
     0
176
     1
290
     1
176
     1
290
     1
176
     1
290
     0
176
     1
290
     0
176
     1
290
     0
176
     1
290
     0
176
     1
290
     0
176
     1
290
     0
176
     1
 90
       50
176
     1
 40
0.0
176
     1
 40
1.0
176
     1
 90
        0
176
     1
 62
   178
420
        0
176
     1
 90
       50
176
     1
 90
        3
176
     1
 62
     5
420
      255
176
     1
290
     0
176
     1
 90
       50
176
     1
 90
       50
176
     1
 90
       50
176
     1
290
     0
176
     1
 90
       50
176
     1
 62
   256
176
     0
 40
1.0
176
     0
 90
        2
176
     1
  1
strokes_ogs.tif
176
     1
290
     0
176
     1
 40
1.0
176
     1
 40
1.0
176
     1
  0
VISUALSTYLE
  5
1C0
102
{ACAD_REACTORS
330
1BE
102
}
330
1BE
100
AcDbVisualStyle
  2
FlatWithEdges
 70
     1
177
     3
291
     1
 70
    58
 90
        2
176
     1
 90
        1
176
     1
 90
        1
176
     1
 90
        2
176
     1
 40
0.6
176
     1
 40
30.0
176
     1
 62
     7
420
 16777215
176
     1
 90
        1
176
     1
 90
        0
176
     1
 62
     7
176
     1
 62
   257
176
     1
 90
        1
176
     1
 90
        1
176
     1
 40
1.0
176
     1
 90
        0
176
     1
 62
   257
176
     1
 40
1.0
176
     1
 90
        1
176
     1
 90
        6
176
     1
 90
        2
176
     1
 62
     7
176
     1
 90
        5
176
     1
 90
        0
176
     1
 90
        0
176
     1
290
     0
176
     1
 90
       13
176
     1
 40
0.0
176
     1
 90
        0
176
     1
290
     0
176
     1
290
     1
176
     1
290
     1
176
     1
290
     0
176
     1
290
     0
176
     1
290
     0
176
     1
290
     0
176
     1
290
     0
176
     1
290
     0
176
     1
 90
       50
176
     1
 40
0.0
176
     1
 40
1.0
176
     1
 90
        0
176
     1
 62
   178
420
        0
176
     1
 90
       50
176
     1
 90
        3
176
     1
 62
     5
420
      255
176
     1
290
     0
176
     1
 90
       50
176
     1
 90
       50
176
     1
 90
       50
176
     1
290
     0
176
     1
 90
       50
176
     1
 62
   256
176
     0
 40
1.0
176
     0
 90
        2
176
     1
  1
strokes_ogs.tif
176
     1
290
     0
176
     1
 40
1.0
176
     1
 40
1.0
176
     1
  0
VISUALSTYLE
  5
1C1
102
{ACAD_REACTORS
330
1BE
102
}
330
1BE
100
AcDbVisualStyle
  2
Gouraud
 70
     2
177
     3
291
     1
 70
    58
 90
        2
176
     1
 90
        2
176
     1
 90
        1
176
     1
 90
        2
176
     1
 40
0.6
176
     1
 40
30.0
176
     1
 62
     7
420
 16777215
176
     1
 90
        0
176
     1
 90
        0
176
     1
 62
     7
176
     1
 62
   257
176
     1
 90
        1
176
     1
 90
        1
176
     1
 40
1.0
176
     1
 90
        0
176
     1
 62
     7
176
     1
 40
1.0
176
     1
 90
        1
176
     1
 90
        6
176
     1
 90
        2
176
     1
 62
     7
176
     1
 90
        5
176
     1
 90
        0
176
     1
 90
        0
176
     1
290
     0
176
     1
 90
       13
176
     1
 40
0.0
176
     1
 90
        0
176
     1
290
     0
176
     1
290
     1
176
     1
290
     1
176
     1
290
     0
176
     1
290
     0
176
     1
290
     0
176
     1
290
     0
176
     1
290
     0
176
     1
290
     0
176
     1
 90
       50
176
     1
 40
0.0
176
     1
 40
1.0
176
     1
 90
        0
176
     1
 62
   178
420
        0
176
     1
 90
       50
176
     1
 90
        3
176
     1
 62
     5
420
      255
176
     1
290
     0
176
     1
 90
       50
176
     1
 90
       50
176
     1
 90
       50
176
     1
290
     0
176
     1
 90
       50
176
     1
 62
   256
176
     0
 40
1.0
176
     0
 90
        2
176
     1
  1
strokes_ogs.tif
176
     1
290
     0
176
     1
 40
1.0
176
     1
 40
1.0
176
     1
  0
VISUALSTYLE
  5
1C2
102
{ACAD_REACTORS
330
1BE
102
}
330
1BE
100
AcDbVisualStyle
  2
GouraudWithEdges
 70
     3
177
     3
291
     1
 70
    58
 90
        2
176
     1
 90
        2
176
     1
 90
        1
176
     1
 90
        2
176
     1
 40
0.6
176
     1
 40
30.0
176
     1
 62
     7
420
 16777215
176
     1
 90
        1
176
     1
 90
        0
176
     1
 62
     7
176
     1
 62
   257
176
     1
 90
        1
176
     1
 90
        1
176
     1
 40
1.0
176
     1
 90
        0
176
     1
 62
   257
176
     1
 40
1.0
176
     1
 90
        1
176
     1
 90
        6
176
     1
 90
        2
176
     1
 62
     7
176
     1
 90
        5
176
     1
 90
        0
176
     1
 90
        0
176
     1
290
     0
176
     1
 90
       13
176
     1
 40
0.0
176
     1
 90
        0
176
     1
290
     0
176
     1
290
     1
176
     1
290
     1
176
     1
290
     0
176
     1
290
     0
176
     1
290
     0
176
     1
290
     0
176
     1
290
     0
176
     1
290
     0
176
     1
 90
       50
176
     1
 40
0.0
176
     1
 40
1.0
176
     1
 90
        0
176
     1
 62
   178
420
        0
176
     1
 90
       50
176
     1
 90
        3
176
     1
 62
     5
420
      255
176
     1
290
     0
176
     1
 90
       50
176
     1
 90
       50
176
     1
 90
       50
176
     1
290
     0
176
     1
 90
       50
176
     1
 62
   256
176
     0
 40
1.0
176
     0
 90
        2
176
     1
  1
strokes_ogs.tif
176
     1
290
     0
176
     1
 40
1.0
176
     1
 40
1.0
176
     1
  0
VISUALSTYLE
  5
1C5
102
{ACAD_REACTORS
330
1BE
102
}
330
1BE
100
AcDbVisualStyle
  2
Hidden
 70
     6
177
     3
291
     0
 70
    58
 90
        1
176
     1
 90
        2
176
     1
 90
        2
176
     1
 90
        0
176
     1
 40
0.6
176
     1
 40
30.0
176
     1
 62
     7
420
 16777215
176
     1
 90
        2
176
     1
 90
        2
176
     1
 62
     7
176
     1
 62
   257
176
     1
 90
        2
176
     1
 90
        1
176
     1
 40
40.0
176
     1
 90
        0
176
     1
 62
   257
176
     1
 40
1.0
176
     1
 90
        1
176
     1
 90
        6
176
     1
 90
        2
176
     1
 62
     7
176
     1
 90
        3
176
     1
 90
        0
176
     1
 90
        0
176
     1
290
     0
176
     1
 90
        1
176
     1
 40
0.0
176
     1
 90
        0
176
     1
290
     0
176
     1
290
     1
176
     1
290
     1
176
     1
290
     0
176
     1
290
     0
176
     1
290
     0
176
     1
290
     0
176
     1
290
     0
176
     1
290
     0
176
     1
 90
       50
176
     1
 40
0.0
176
     1
 40
1.0
176
     1
 90
        0
176
     1
 62
   178
420
        0
176
     1
 90
       50
176
     1
 90
        3
176
     1
 62
     5
420
      255
176
     1
290
     0
176
     1
 90
       50
176
     1
 90
       50
176
     1
 90
       50
176
     1
290
     0
176
     1
 90
       50
176
     1
 62
   256
176
     0
 40
1.0
176
     0
 90
        2
176
     1
  1
strokes_ogs.tif
176
     1
290
     0
176
     1
 40
1.0
176
     1
 40
1.0
176
     1
  0
VISUALSTYLE
  5
1CF
102
{ACAD_REACTORS
330
1BE
102
}
330
1BE
100
AcDbVisualStyle
  2
JitterOff
 70
    20
177
     3
291
     1
 70
    58
 90
        2
176
     0
 90
        2
176
     0
 90
        0
176
     0
 90
        0
176
     0
 40
0.6
176
     0
 40
30.0
176
     0
 62
     7
420
 16777215
176
     0
 90
        1
176
     0
 90
        4
176
     0
 62
     7
176
     0
 62
   257
176
     0
 90
        1
176
     0
 90
        1
176
     0
 40
1.0
176
     0
 90
       10
176
     2
 62
     7
176
     0
 40
1.0
176
     0
 90
        1
176
     0
 90
        6
176
     0
 90
        2
176
     0
 62
     7
176
     0
 90
        5
176
     0
 90
        0
176
     0
 90
        0
176
     0
290
     0
176
     0
 90
        1
176
     0
 40
0.0
176
     0
 90
        0
176
     0
290
     0
176
     0
290
     1
176
     0
290
     1
176
     0
290
     0
176
     0
290
     0
176
     0
290
     0
176
     0
290
     0
176
     0
290
     0
176
     0
290
     0
176
     0
 90
       50
176
     0
 40
0.0
176
     0
 40
1.0
176
     0
 90
        0
176
     0
 62
   178
420
        0
176
     0
 90
       50
176
     0
 90
        3
176
     0
 62
     5
420
      255
176
     0
290
     0
176
     0
 90
       50
176
     0
 90
       50
176
     0
 90
       50
176
     0
290
     0
176
     0
 90
       50
176
     0
 62
   256
176
     0
 40
1.0
176
     0
 90
        2
176
     0
  1
strokes_ogs.tif
176
     0
290
     0
176
     0
 40
1.0
176
     0
 40
1.0
176
     0
  0
VISUALSTYLE
  5
1CC
102
{ACAD_REACTORS
330
1BE
102
}
330
1BE
100
AcDbVisualStyle
  2
Linepattern
 70
    14
177
     3
291
     1
 70
    58
 90
        2
176
     1
 90
        2
176
     1
 90
        0
176
     1
 90
        0
176
     1
 40
0.6
176
     1
 40
30.0
176
     1
 62
     7
420
 16777215
176
     1
 90
        1
176
     1
 90
        4
176
     1
 62
     7
176
     1
 62
   257
176
     1
 90
        7
176
     1
 90
        7
176
     1
 40
1.0
176
     1
 90
        8
176
     1
 62
     7
176
     1
 40
1.0
176
     1
 90
        1
176
     1
 90
        6
176
     1
 90
        2
176
     1
 62
     7
176
     1
 90
        5
176
     1
 90
        0
176
     1
 90
        0
176
     1
290
     0
176
     1
 90
        1
176
     1
 40
0.0
176
     1
 90
        0
176
     1
290
     0
176
     1
290
     1
176
     1
290
     1
176
     1
290
     0
176
     1
290
     0
176
     1
290
     0
176
     1
290
     0
176
     1
290
     0
176
     1
290
     0
176
     1
 90
       50
176
     1
 40
0.0
176
     1
 40
1.0
176
     1
 90
        0
176
     1
 62
   178
420
        0
176
     1
 90
       50
176
     1
 90
        3
176
     1
 62
     5
420
      255
176
     1
290
     0
176
     1
 90
       50
176
     1
 90
       50
176
     1
 90
       50
176
     1
290
     0
176
     1
 90
       50
176
     1
 62
   256
176
     0
 40
1.0
176
     0
 90
        2
176
     1
  1
strokes_ogs.tif
176
     1
290
     0
176
     1
 40
1.0
176
     1
 40
1.0
176
     1
  0
VISUALSTYLE
  5
1D0
102
{ACAD_REACTORS
330
1BE
102
}
330
1BE
100
AcDbVisualStyle
  2
OverhangOff
 70
    21
177
     3
291
     1
 70
    58
 90
        2
176
     0
 90
        2
176
     0
 90
        0
176
     0
 90
        0
176
     0
 40
0.6
176
     0
 40
30.0
176
     0
 62
     7
420
 16777215
176
     0
 90
        1
176
     0
 90
        4
176
     0
 62
     7
176
     0
 62
   257
176
     0
 90
        1
176
     0
 90
        1
176
     0
 40
1.0
176
     0
 90
        9
176
     2
 62
     7
176
     0
 40
1.0
176
     0
 90
        1
176
     0
 90
        6
176
     0
 90
        2
176
     0
 62
     7
176
     0
 90
        5
176
     0
 90
        0
176
     0
 90
        0
176
     0
290
     0
176
     0
 90
        1
176
     0
 40
0.0
176
     0
 90
        0
176
     0
290
     0
176
     0
290
     1
176
     0
290
     1
176
     0
290
     0
176
     0
290
     0
176
     0
290
     0
176
     0
290
     0
176
     0
290
     0
176
     0
290
     0
176
     0
 90
       50
176
     0
 40
0.0
176
     0
 40
1.0
176
     0
 90
        0
176
     0
 62
   178
420
        0
176
     0
 90
       50
176
     0
 90
        3
176
     0
 62
     5
420
      255
176
     0
290
     0
176
     0
 90
       50
176
     0
 90
       50
176
     0
 90
       50
176
     0
290
     0
176
     0
 90
       50
176
     0
 62
   256
176
     0
 40
1.0
176
     0
 90
        2
176
     0
  1
strokes_ogs.tif
176
     0
290
     0
176
     0
 40
1.0
176
     0
 40
1.0
176
     0
  0
VISUALSTYLE
  5
1C7
102
{ACAD_REACTORS
330
1BE
102
}
330
1BE
100
AcDbVisualStyle
  2
Realistic
 70
     8
177
     3
291
     0
 70
    58
 90
        2
176
     1
 90
        3
176
     1
 90
        0
176
     1
 90
        2
176
     1
 40
0.6
176
     1
 40
30.0
176
     1
 62
     7
420
 16777215
176
     1
 90
        0
176
     1
 90
        0
176
     1
 62
     7
176
     1
 62
   257
176
     1
 90
        1
176
     1
 90
        1
176
     1
 40
1.0
176
     1
 90
        8
176
     1
 62
   257
176
     1
 40
1.0
176
     1
 90
        1
176
     1
 90
        6
176
     1
 90
        2
176
     1
 62
     7
176
     1
 90
        3
176
     1
 90
        0
176
     1
 90
        0
176
     1
290
     0
176
     1
 90
       13
176
     1
 40
0.0
176
     1
 90
        0
176
     1
290
     0
176
     1
290
     1
176
     1
290
     1
176
     1
290
     0
176
     1
290
     0
176
     1
290
     0
176
     1
290
     0
176
     1
290
     0
176
     1
290
     0
176
     1
 90
       50
176
     1
 40
0.0
176
     1
 40
1.0
176
     1
 90
        0
176
     1
 62
   178
420
        0
176
     1
 90
       50
176
     1
 90
        3
176
     1
 62
     5
420
      255
176
     1
290
     0
176
     1
 90
       50
176
     1
 90
       50
176
     1
 90
       50
176
     1
290
     0
176
     1
 90
       50
176
     1
 62
   256
176
     0
 40
1.0
176
     0
 90
        2
176
     1
  1
strokes_ogs.tif
176
     1
290
     0
176
     1
 40
1.0
176
     1
 40
1.0
176
     1
  0
VISUALSTYLE
  5
1D6
102
{ACAD_REACTORS
330
1BE
102
}
330
1BE
100
AcDbVisualStyle
  2
Shaded
 70
    27
177
     3
291
     0
 70
    58
 90
        2
176
     1
 90
        2
176
     1
 90
        1
176
     1
 90
        2
176
     1
 40
0.6
176
     1
 40
30.0
176
     1
 62
     7
420
 16777215
176
     1
 90
        0
176
     1
 90
        4
176
     1
 62
     7
176
     1
 62
   257
176
     1
 90
        1
176
     1
 90
        1
176
     1
 40
1.0
176
     1
 90
        8
176
     1
 62
   257
176
     1
 40
1.0
176
     1
 90
        1
176
     1
 90
        6
176
     1
 90
        2
176
     1
 62
     8
420
  7895160
176
     1
 90
        3
176
     1
 90
        0
176
     1
 90
        0
176
     1
290
     0
176
     1
 90
        5
176
     1
 40
0.0
176
     1
 90
        0
176
     1
290
     0
176
     1
290
     1
176
     1
290
     1
176
     1
290
     0
176
     1
290
     0
176
     1
290
     0
176
     1
290
     0
176
     1
290
     0
176
     1
290
     0
176
     1
 90
       50
176
     1
 40
0.0
176
     1
 40
1.0
176
     1
 90
        0
176
     1
 62
   178
420
        0
176
     1
 90
       50
176
     1
 90
        3
176
     1
 62
     5
420
      255
176
     1
290
     0
176
     1
 90
       50
176
     1
 90
       50
176
     1
 90
       50
176
     1
290
     0
176
     1
 90
       50
176
     1
 62
   256
176
     0
 40
1.0
176
     0
 90
        2
176
     1
  1
strokes_ogs.tif
176
     1
290
     0
176
     1
 40
1.0
176
     1
 40
1.0
176
     1
  0
VISUALSTYLE
  5
1D5
102
{ACAD_REACTORS
330
1BE
102
}
330
1BE
100
AcDbVisualStyle
  2
Shaded with edges
 70
    26
177
     3
291
     0
 70
    58
 90
        2
176
     1
 90
        2
176
     1
 90
        1
176
     1
 90
        2
176
     1
 40
0.6
176
     1
 40
30.0
176
     1
 62
     7
420
 16777215
176
     1
 90
        1
176
     1
 90
       10
176
     1
 62
     7
176
     1
 62
   257
176
     1
 90
        2
176
     1
 90
        1
176
     1
 40
1.0
176
     1
 90
        8
176
     1
 62
   257
176
     1
 40
1.0
176
     1
 90
        1
176
     1
 90
        6
176
     1
 90
        2
176
     1
 62
     7
176
     1
 90
        3
176
     1
 90
        0
176
     1
 90
        0
176
     1
290
     0
176
     1
 90
        5
176
     1
 40
0.0
176
     1
 90
        0
176
     1
290
     0
176
     1
290
     1
176
     1
290
     1
176
     1
290
     0
176
     1
290
     0
176
     1
290
     0
176
     1
290
     0
176
     1
290
     0
176
     1
290
     0
176
     1
 90
       50
176
     1
 40
0.0
176
     1
 40
1.0
176
     1
 90
        0
176
     1
 62
   178
420
        0
176
     1
 90
       50
176
     1
 90
        3
176
     1
 62
     5
420
      255
176
     1
290
     0
176
     1
 90
       50
176
     1
 90
       50
176
     1
 90
       50
176
     1
290
     0
176
     1
 90
       50
176
     1
 62
   256
176
     0
 40
1.0
176
     0
 90
        2
176
     1
  1
strokes_ogs.tif
176
     1
290
     0
176
     1
 40
1.0
176
     1
 40
1.0
176
     1
  0
VISUALSTYLE
  5
1D2
102
{ACAD_REACTORS
330
1BE
102
}
330
1BE
100
AcDbVisualStyle
  2
Shades of Gray
 70
    23
177
     3
291
     0
 70
    58
 90
        2
176
     1
 90
        2
176
     1
 90
        3
176
     1
 90
        0
176
     1
 40
0.6
176
     1
 40
30.0
176
     1
 62
     7
420
 16777215
176
     1
 90
        2
176
     1
 90
        2
176
     1
 62
     7
176
     1
 62
     7
176
     1
 90
        1
176
     1
 90
        1
176
     1
 40
40.0
176
     1
 90
        8
176
     1
 62
     7
176
     1
 40
1.0
176
     1
 90
        1
176
     1
 90
        6
176
     1
 90
        2
176
     1
 62
     7
176
     1
 90
        3
176
     1
 90
        0
176
     1
 90
        0
176
     1
290
     0
176
     1
 90
        1
176
     1
 40
0.0
176
     1
 90
        0
176
     1
290
     0
176
     1
290
     1
176
     1
290
     1
176
     1
290
     0
176
     1
290
     0
176
     1
290
     0
176
     1
290
     0
176
     1
290
     0
176
     1
290
     0
176
     1
 90
       50
176
     1
 40
0.0
176
     1
 40
1.0
176
     1
 90
        0
176
     1
 62
   178
420
        0
176
     1
 90
       50
176
     1
 90
        3
176
     1
 62
     5
420
      255
176
     1
290
     0
176
     1
 90
       50
176
     1
 90
       50
176
     1
 90
       50
176
     1
290
     0
176
     1
 90
       50
176
     1
 62
   256
176
     0
 40
1.0
176
     0
 90
        2
176
     1
  1
strokes_ogs.tif
176
     1
290
     0
176
     1
 40
1.0
176
     1
 40
1.0
176
     1
  0
VISUALSTYLE
  5
1D3
102
{ACAD_REACTORS
330
1BE
102
}
330
1BE
100
AcDbVisualStyle
  2
Sketchy
 70
    24
177
     3
291
     0
 70
    58
 90
        1
176
     1
 90
        2
176
     1
 90
        2
176
     1
 90
        0
176
     1
 40
0.6
176
     1
 40
30.0
176
     1
 62
     7
420
 16777215
176
     1
 90
        2
176
     1
 90
        2
176
     1
 62
     7
176
     1
 62
     7
176
     1
 90
        1
176
     1
 90
        1
176
     1
 40
40.0
176
     1
 90
       11
176
     1
 62
     7
176
     1
 40
1.0
176
     1
 90
        1
176
     1
 90
        6
176
     1
 90
        2
176
     1
 62
     7
176
     1
 90
        6
176
     1
 90
        0
176
     1
 90
        0
176
     1
290
     0
176
     1
 90
        1
176
     1
 40
0.0
176
     1
 90
        0
176
     1
290
     0
176
     1
290
     1
176
     1
290
     1
176
     1
290
     0
176
     1
290
     0
176
     1
290
     0
176
     1
290
     0
176
     1
290
     0
176
     1
290
     0
176
     1
 90
       50
176
     1
 40
0.0
176
     1
 40
1.0
176
     1
 90
        0
176
     1
 62
   178
420
        0
176
     1
 90
       50
176
     1
 90
        3
176
     1
 62
     5
420
      255
176
     1
290
     0
176
     1
 90
       50
176
     1
 90
       50
176
     1
 90
       50
176
     1
290
     0
176
     1
 90
       50
176
     1
 62
   256
176
     0
 40
1.0
176
     0
 90
        2
176
     1
  1
strokes_ogs.tif
176
     1
290
     0
176
     1
 40
1.0
176
     1
 40
1.0
176
     1
  0
VISUALSTYLE
  5
1CB
102
{ACAD_REACTORS
330
1BE
102
}
330
1BE
100
AcDbVisualStyle
  2
Thicken
 70
    13
177
     3
291
     1
 70
    58
 90
        2
176
     1
 90
        2
176
     1
 90
        0
176
     1
 90
        0
176
     1
 40
0.6
176
     1
 40
30.0
176
     1
 62
     7
420
 16777215
176
     1
 90
        1
176
     1
 90
        4
176
     1
 62
     7
176
     1
 62
   257
176
     1
 90
        1
176
     1
 90
        1
176
     1
 40
1.0
176
     1
 90
       12
176
     1
 62
     7
176
     1
 40
1.0
176
     1
 90
        1
176
     1
 90
        6
176
     1
 90
        2
176
     1
 62
     7
176
     1
 90
        5
176
     1
 90
        0
176
     1
 90
        0
176
     1
290
     0
176
     1
 90
        1
176
     1
 40
0.0
176
     1
 90
        0
176
     1
290
     0
176
     1
290
     1
176
     1
290
     1
176
     1
290
     0
176
     1
290
     0
176
     1
290
     0
176
     1
290
     0
176
     1
290
     0
176
     1
290
     0
176
     1
 90
       50
176
     1
 40
0.0
176
     1
 40
1.0
176
     1
 90
        0
176
     1
 62
   178
420
        0
176
     1
 90
       50
176
     1
 90
        3
176
     1
 62
     5
420
      255
176
     1
290
     0
176
     1
 90
       50
176
     1
 90
       50
176
     1
 90
       50
176
     1
290
     0
176
     1
 90
       50
176
     1
 62
   256
176
     0
 40
1.0
176
     0
 90
        2
176
     1
  1
strokes_ogs.tif
176
     1
290
     0
176
     1
 40
1.0
176
     1
 40
1.0
176
     1
  0
VISUALSTYLE
  5
1C4
102
{ACAD_REACTORS
330
1BE
102
}
330
1BE
100
AcDbVisualStyle
  2
Wireframe
 70
     5
177
     3
291
     0
 70
    58
 90
        0
176
     1
 90
        2
176
     1
 90
        0
176
     1
 90
        0
176
     1
 40
0.6
176
     1
 40
30.0
176
     1
 62
     7
420
 16777215
176
     1
 90
        1
176
     1
 90
        4
176
     1
 62
     7
176
     1
 62
   257
176
     1
 90
        1
176
     1
 90
        1
176
     1
 40
1.0
176
     1
 90
        0
176
     1
 62
   257
176
     1
 40
1.0
176
     1
 90
        1
176
     1
 90
        6
176
     1
 90
        2
176
     1
 62
     7
176
     1
 90
        3
176
     1
 90
        0
176
     1
 90
        0
176
     1
290
     0
176
     1
 90
        1
176
     1
 40
0.0
176
     1
 90
        0
176
     1
290
     0
176
     1
290
     1
176
     1
290
     1
176
     1
290
     0
176
     1
290
     0
176
     1
290
     0
176
     1
290
     0
176
     1
290
     0
176
     1
290
     0
176
     1
 90
       50
176
     1
 40
0.0
176
     1
 40
1.0
176
     1
 90
        0
176
     1
 62
   178
420
        0
176
     1
 90
       50
176
     1
 90
        3
176
     1
 62
     5
420
      255
176
     1
290
     0
176
     1
 90
       50
176
     1
 90
       50
176
     1
 90
       50
176
     1
290
     0
176
     1
 90
       50
176
     1
 62
   256
176
     0
 40
1.0
176
     0
 90
        2
176
     1
  1
strokes_ogs.tif
176
     1
290
     0
176
     1
 40
1.0
176
     1
 40
1.0
176
     1
  0
VISUALSTYLE
  5
1D4
102
{ACAD_REACTORS
330
1BE
102
}
330
1BE
100
AcDbVisualStyle
  2
X-Ray
 70
    25
177
     3
291
     0
 70
    58
 90
        2
176
     1
 90
        2
176
     1
 90
        1
176
     1
 90
        1
176
     1
 40
0.5
176
     1
 40
30.0
176
     1
 62
     7
420
 16777215
176
     1
 90
        1
176
     1
 90
        0
176
     1
 62
     7
176
     1
 62
   257
176
     1
 90
        1
176
     1
 90
        1
176
     1
 40
1.0
176
     1
 90
        8
176
     1
 62
     7
176
     1
 40
1.0
176
     1
 90
        1
176
     1
 90
        6
176
     1
 90
        2
176
     1
 62
     7
176
     1
 90
        3
176
     1
 90
        0
176
     1
 90
        0
176
     1
290
     0
176
     1
 90
       13
176
     1
 40
0.0
176
     1
 90
        0
176
     1
290
     0
176
     1
290
     1
176
     1
290
     1
176
     1
290
     0
176
     1
290
     0
176
     1
290
     0
176
     1
290
     0
176
     1
290
     0
176
     1
290
     0
176
     1
 90
       50
176
     1
 40
0.0
176
     1
 40
1.0
176
     1
 90
        0
176
     1
 62
   178
420
        0
176
     1
 90
       50
176
     1
 90
        3
176
     1
 62
     5
420
      255
176
     1
290
     0
176
     1
 90
       50
176
     1
 90
       50
176
     1
 90
       50
176
     1
290
     0
176
     1
 90
       50
176
     1
 62
   256
176
     0
 40
1.0
176
     0
 90
        2
176
     1
  1
strokes_ogs.tif
176
     1
290
     0
176
     1
 40
1.0
176
     1
 40
1.0
176
     1
  0
DICTIONARYVAR
  5
346
102
{ACAD_REACTORS
330
345
102
}
330
345
100
DictionaryVariables
280
     0
  1
1:1
  0
DICTIONARYVAR
  5
34B
102
{ACAD_REACTORS
330
345
102
}
330
345
100
DictionaryVariables
280
     0
  1
Standard
  0
DICTIONARYVAR
  5
34A
102
{ACAD_REACTORS
330
345
102
}
330
345
100
DictionaryVariables
280
     0
  1
Standard
  0
XRECORD
  5
205
102
{ACAD_REACTORS
330
203
102
}
330
203
100
AcDbXrecord
280
     1
 90
        0
  0
XRECORD
  5
206
102
{ACAD_REACTORS
330
203
102
}
330
203
100
AcDbXrecord
280
     1
 90
        0
  0
XRECORD
  5
207
102
{ACAD_REACTORS
330
203
102
}
330
203
100
AcDbXrecord
280
     1
1000

  0
XRECORD
  5
208
102
{ACAD_REACTORS
330
203
102
}
330
203
100
AcDbXrecord
280
     1
290
     1
  0
XRECORD
  5
209
102
{ACAD_REACTORS
330
203
102
}
330
203
100
AcDbXrecord
280
     1
 90
        2
  0
XRECORD
  5
20A
102
{ACAD_REACTORS
330
203
102
}
330
203
100
AcDbXrecord
280
     1
 90
        4
  0
XRECORD
  5
20B
102
{ACAD_REACTORS
330
203
102
}
330
203
100
AcDbXrecord
280
     1
290
     1
  0
XRECORD
  5
20C
102
{ACAD_REACTORS
330
203
102
}
330
203
100
AcDbXrecord
280
     1
290
     1
  0
XRECORD
  5
20D
102
{ACAD_REACTORS
330
203
102
}
330
203
100
AcDbXrecord
280
     1
290
     1
  0
XRECORD
  5
20E
102
{ACAD_REACTORS
330
203
102
}
330
203
100
AcDbXrecord
280
     1
290
     1
  0
XRECORD
  5
20F
102
{ACAD_REACTORS
330
203
102
}
330
203
100
AcDbXrecord
280
     1
1000
auto
  0
XRECORD
  5
210
102
{ACAD_REACTORS
330
203
102
}
330
203
100
AcDbXrecord
280
     1
1000
auto
  0
XRECORD
  5
211
102
{ACAD_REACTORS
330
203
102
}
330
203
100
AcDbXrecord
280
     1
1000
auto
  0
XRECORD
  5
212
102
{ACAD_REACTORS
330
203
102
}
330
203
100
AcDbXrecord
280
     1
1000
auto
  0
XRECORD
  5
213
102
{ACAD_REACTORS
330
203
102
}
330
203
100
AcDbXrecord
280
     1
1000
auto
  0
XRECORD
  5
214
102
{ACAD_REACTORS
330
203
102
}
330
203
100
AcDbXrecord
280
     1
1000
auto
  0
XRECORD
  5
215
102
{ACAD_REACTORS
330
203
102
}
330
203
100
AcDbXrecord
280
     1
1000
auto
  0
XRECORD
  5
216
102
{ACAD_REACTORS
330
203
102
}
330
203
100
AcDbXrecord
280
     1
1000
auto
  0
XRECORD
  5
217
102
{ACAD_REACTORS
330
203
102
}
330
203
100
AcDbXrecord
280
     1
290
     0
  0
XRECORD
  5
218
102
{ACAD_REACTORS
330
203
102
}
330
203
100
AcDbXrecord
280
     1
290
     0
  0
XRECORD
  5
219
102
{ACAD_REACTORS
330
203
102
}
330
203
100
AcDbXrecord
280
     1
290
     0
  0
XRECORD
  5
21A
102
{ACAD_REACTORS
330
203
102
}
330
203
100
AcDbXrecord
280
     1
290
     0
  0
XRECORD
  5
21B
102
{ACAD_REACTORS
330
203
102
}
330
203
100
AcDbXrecord
280
     1
 90
        0
  0
XRECORD
  5
21C
102
{ACAD_REACTORS
330
203
102
}
330
203
100
AcDbXrecord
280
     1
 90
        0
  0
XRECORD
  5
21D
102
{ACAD_REACTORS
330
203
102
}
330
203
100
AcDbXrecord
280
     1
 90
        0
  0
XRECORD
  5
21E
102
{ACAD_REACTORS
330
203
102
}
330
203
100
AcDbXrecord
280
     1
 90
        0
  0
XRECORD
  5
21F
102
{ACAD_REACTORS
330
203
102
}
330
203
100
AcDbXrecord
280
     1
1000
auto
  0
XRECORD
  5
220
102
{ACAD_REACTORS
330
203
102
}
330
203
100
AcDbXrecord
280
     1
1000
auto
  0
XRECORD
  5
221
102
{ACAD_REACTORS
330
203
102
}
330
203
100
AcDbXrecord
280
     1
1000
auto
  0
XRECORD
  5
222
102
{ACAD_REACTORS
330
203
102
}
330
203
100
AcDbXrecord
280
     1
1000
auto
  0
XRECORD
  5
223
102
{ACAD_REACTORS
330
203
102
}
330
203
100
AcDbXrecord
280
     1
1000
auto
  0
XRECORD
  5
224
102
{ACAD_REACTORS
330
203
102
}
330
203
100
AcDbXrecord
280
     1
1000
auto
  0
XRECORD
  5
225
102
{ACAD_REACTORS
330
203
102
}
330
203
100
AcDbXrecord
280
     1
1000
auto
  0
XRECORD
  5
226
102
{ACAD_REACTORS
330
203
102
}
330
203
100
AcDbXrecord
280
     1
1000
auto
  0
XRECORD
  5
227
102
{ACAD_REACTORS
330
203
102
}
330
203
100
AcDbXrecord
280
     1
 90
        1
  0
XRECORD
  5
228
102
{ACAD_REACTORS
330
203
102
}
330
203
100
AcDbXrecord
280
     1
 40
10.0
  0
XRECORD
  5
229
102
{ACAD_REACTORS
330
203
102
}
330
203
100
AcDbXrecord
280
     1
 40
10.0
  0
XRECORD
  5
22A
102
{ACAD_REACTORS
330
203
102
}
330
203
100
AcDbXrecord
280
     1
 40
10.0
  0
XRECORD
  5
22B
102
{ACAD_REACTORS
330
203
102
}
330
203
100
AcDbXrecord
280
     1
 40
10.0
  0
XRECORD
  5
22C
102
{ACAD_REACTORS
330
203
102
}
330
203
100
AcDbXrecord
280
     1
290
     0
  0
XRECORD
  5
22D
102
{ACAD_REACTORS
330
203
102
}
330
203
100
AcDbXrecord
280
     1
 90
        1
  0
XRECORD
  5
22E
102
{ACAD_REACTORS
330
203
102
}
330
203
100
AcDbXrecord
280
     1
 40
0.0
  0
XRECORD
  5
22F
102
{ACAD_REACTORS
330
203
102
}
330
203
100
AcDbXrecord
280
     1
 40
0.0
  0
XRECORD
  5
230
102
{ACAD_REACTORS
330
203
102
}
330
203
100
AcDbXrecord
280
     1
1000
Portrait
  0
XRECORD
  5
231
102
{ACAD_REACTORS
330
203
102
}
330
203
100
AcDbXrecord
280
     1
 40
297.0
  0
XRECORD
  5
232
102
{ACAD_REACTORS
330
203
102
}
330
203
100
AcDbXrecord
280
     1
 40
210.0
  0
XRECORD
  5
233
102
{ACAD_REACTORS
330
203
102
}
330
203
100
AcDbXrecord
280
     1
1000
1:1
  0
XRECORD
  5
234
102
{ACAD_REACTORS
330
203
102
}
330
203
100
AcDbXrecord
280
     1
290
     1
  0
XRECORD
  5
235
102
{ACAD_REACTORS
330
203
102
}
330
203
100
AcDbXrecord
280
     1
1000
3.9.1
  0
XRECORD
  5
236
102
{ACAD_REACTORS
330
203
102
}
330
203
100
AcDbXrecord
280
     1
 90
        4
  0
DICTIONARY
  5
347
330
1FE
100
AcDbDictionary
280
     1
281
     1
  3
ACAD_ROUNDTRIP_2008_TABLESTYLE_CELLSTYLEMAP
360
348
  0
CELLSTYLEMAP
  5
348
102
{ACAD_REACTORS
330
347
102
}
330
347
100
AcDbCellStyleMap
 90
        3
300
CELLSTYLE
  1
TABLEFORMAT_BEGIN
 90
        5
170
     1
 91
        0
 92
    32768
 62
   257
 93
        1
300
CONTENTFORMAT
  1
CONTENTFORMAT_BEGIN
 90
        0
 91
        0
 92
        4
 93
        0
300

 40
0.0
140
1.0
 94
        5
 62
     0
340
1A6
144
0.25
309
CONTENTFORMAT_END
171
     1
301
MARGIN
  1
CELLMARGIN_BEGIN
 40
0.06
 40
0.06
 40
0.06
 40
0.06
 40
0.06
 40
0.06
309
CELLMARGIN_END
 94
        6
 95
        1
302
GRIDFORMAT
  1
GRIDFORMAT_BEGIN
 90
        0
 91
        1
 62
     0
 92
       -2
340
1A8
 93
        0
 40
0.045
309
GRIDFORMAT_END
 95
        2
302
GRIDFORMAT
  1
GRIDFORMAT_BEGIN
 90
        0
 91
        1
 62
     0
 92
       -2
340
1A8
 93
        0
 40
0.045
309
GRIDFORMAT_END
 95
        4
302
GRIDFORMAT
  1
GRIDFORMAT_BEGIN
 90
        0
 91
        1
 62
     0
 92
       -2
340
1A8
 93
        0
 40
0.045
309
GRIDFORMAT_END
 95
        8
302
GRIDFORMAT
  1
GRIDFORMAT_BEGIN
 90
        0
 91
        1
 62
     0
 92
       -2
340
1A8
 93
        0
 40
0.045
309
GRIDFORMAT_END
 95
       16
302
GRIDFORMAT
  1
GRIDFORMAT_BEGIN
 90
        0
 91
        1
 62
     0
 92
       -2
340
1A8
 93
        0
 40
0.045
309
GRIDFORMAT_END
 95
       32
302
GRIDFORMAT
  1
GRIDFORMAT_BEGIN
 90
        0
 91
        1
 62
     0
 92
       -2
340
1A8
 93
        0
 40
0.045
309
GRIDFORMAT_END
309
TABLEFORMAT_END
  1
CELLSTYLE_BEGIN
 90
        1
 91
        1
300
_TITLE
309
CELLSTYLE_END
300
CELLSTYLE
  1
TABLEFORMAT_BEGIN
 90
        5
170
     1
 91
        0
 92
        0
 62
   257
 93
        1
300
CONTENTFORMAT
  1
CONTENTFORMAT_BEGIN
 90
        0
 91
        0
 92
        4
 93
        0
300

 40
0.0
140
1.0
 94
        5
 62
     0
340
1A6
144
0.18
309
CONTENTFORMAT_END
171
     1
301
MARGIN
  1
CELLMARGIN_BEGIN
 40
0.06
 40
0.06
 40
0.06
 40
0.06
 40
0.06
 40
0.06
309
CELLMARGIN_END
 94
        6
 95
        1
302
GRIDFORMAT
  1
GRIDFORMAT_BEGIN
 90
        0
 91
        1
 62
     0
 92
       -2
340
1A8
 93
        0
 40
0.045
309
GRIDFORMAT_END
 95
        2
302
GRIDFORMAT
  1
GRIDFORMAT_BEGIN
 90
        0
 91
        1
 62
     0
 92
       -2
340
1A8
 93
        0
 40
0.045
309
GRIDFORMAT_END
 95
        4
302
GRIDFORMAT
  1
GRIDFORMAT_BEGIN
 90
        0
 91
        1
 62
     0
 92
       -2
340
1A8
 93
        0
 40
0.045
309
GRIDFORMAT_END
 95
        8
302
GRIDFORMAT
  1
GRIDFORMAT_BEGIN
 90
        0
 91
        1
 62
     0
 92
       -2
340
1A8
 93
        0
 40
0.045
309
GRIDFORMAT_END
 95
       16
302
GRIDFORMAT
  1
GRIDFORMAT_BEGIN
 90
        0
 91
        1
 62
     0
 92
       -2
340
1A8
 93
        0
 40
0.045
309
GRIDFORMAT_END
 95
       32
302
GRIDFORMAT
  1
GRIDFORMAT_BEGIN
 90
        0
 91
        1
 62
     0
 92
       -2
340
1A8
 93
        0
 40
0.045
309
GRIDFORMAT_END
309
TABLEFORMAT_END
  1
CELLSTYLE_BEGIN
 90
        2
 91
        1
300
_HEADER
309
CELLSTYLE_END
300
CELLSTYLE
  1
TABLEFORMAT_BEGIN
 90
        5
170
     1
 91
        0
 92
        0
 62
   257
 93
        1
300
CONTENTFORMAT
  1
CONTENTFORMAT_BEGIN
 90
        0
 91
        0
 92
        4
 93
        0
300

 40
0.0
140
1.0
 94
        2
 62
     0
340
1A6
144
0.18
309
CONTENTFORMAT_END
171
     1
301
MARGIN
  1
CELLMARGIN_BEGIN
 40
0.06
 40
0.06
 40
0.06
 40
0.06
 40
0.06
 40
0.06
309
CELLMARGIN_END
 94
        6
 95
        1
302
GRIDFORMAT
  1
GRIDFORMAT_BEGIN
 90
        0
 91
        1
 62
     0
 92
       -2
340
1A8
 93
        0
 40
0.045
309
GRIDFORMAT_END
 95
        2
302
GRIDFORMAT
  1
GRIDFORMAT_BEGIN
 90
        0
 91
        1
 62
     0
 92
       -2
340
1A8
 93
        0
 40
0.045
309
GRIDFORMAT_END
 95
        4
302
GRIDFORMAT
  1
GRIDFORMAT_BEGIN
 90
        0
 91
        1
 62
     0
 92
       -2
340
1A8
 93
        0
 40
0.045
309
GRIDFORMAT_END
 95
        8
302
GRIDFORMAT
  1
GRIDFORMAT_BEGIN
 90
        0
 91
        1
 62
     0
 92
       -2
340
1A8
 93
        0
 40
0.045
309
GRIDFORMAT_END
 95
       16
302
GRIDFORMAT
  1
GRIDFORMAT_BEGIN
 90
        0
 91
        1
 62
     0
 92
       -2
340
1A8
 93
        0
 40
0.045
309
GRIDFORMAT_END
 95
       32
302
GRIDFORMAT
  1
GRIDFORMAT_BEGIN
 90
        0
 91
        1
 62
     0
 92
       -2
340
1A8
 93
        0
 40
0.045
309
GRIDFORMAT_END
309
TABLEFORMAT_END
  1
CELLSTYLE_BEGIN
 90
        3
 91
        2
300
_DATA
309
CELLSTYLE_END
  0
ENDSEC
  0
EOF
