  0
SECTION
  2
HEADER
  9
$ACADVER
  1
AC1027
  9
$ACADMAINTVER
 70
     8
  9
$DWGCODEPAGE
  3
ANSI_1252
  9
$REQUIREDVERSIONS
160
                 0
  9
$INSBASE
 10
0.0
 20
0.0
 30
0.0
  9
$EXTMIN
 10
1.000000000000000E+20
 20
1.000000000000000E+20
 30
1.000000000000000E+20
  9
$EXTMAX
 10
-1.000000000000000E+20
 20
-1.000000000000000E+20
 30
-1.000000000000000E+20
  9
$LIMMIN
 10
0.0
 20
0.0
  9
$LIMMAX
 10
12.0
 20
9.0
  9
$ORTHOMODE
 70
     0
  9
$REGENMODE
 70
     1
  9
$FILLMODE
 70
     1
  9
$QTEXTMODE
 70
     0
  9
$MIRRTEXT
 70
     1
  9
$LTSCALE
 40
1.0
  9
$ATTMODE
 70
     1
  9
$TEXTSIZE
 40
0.2
  9
$TRACEWID
 40
0.05
  9
$TEXTSTYLE
  7
Standard
  9
$CLAYER
  8
0
  9
$CELTYPE
  6
ByLayer
  9
$CECOLOR
 62
   178
  9
$CELTSCALE
 40
1.0
  9
$DISPSILH
 70
     0
  9
$DIMSCALE
 40
1.0
  9
$DIMASZ
 40
20.0
  9
$DIMEXO
 40
5.0
  9
$DIMDLI
 40
0.38
  9
$DIMRND
 40
0.0
  9
$DIMDLE
 40
0.0
  9
$DIMEXE
 40
10.0
  9
$DIMTP
 40
0.0
  9
$DIMTM
 40
0.0
  9
$DIMTXT
 40
20.0
  9
$DIMCEN
 40
0.09
  9
$DIMTSZ
 40
20.0
  9
$DIMTOL
 70
     0
  9
$DIMLIM
 70
     0
  9
$DIMTIH
 70
     1
  9
$DIMTOH
 70
     1
  9
$DIMSE1
 70
     0
  9
$DIMSE2
 70
     0
  9
$DIMTAD
 70
     0
  9
$DIMZIN
 70
     8
  9
$DIMBLK
  1

  9
$DIMASO
 70
     1
  9
$DIMSHO
 70
     1
  9
$DIMPOST
  1

  9
$DIMAPOST
  1

  9
$DIMALT
 70
     0
  9
$DIMALTD
 70
     2
  9
$DIMALTF
 40
25.4
  9
$DIMLFAC
 40
1.0
  9
$DIMTOFL
 70
     0
  9
$DIMTVP
 40
0.0
  9
$DIMTIX
 70
     0
  9
$DIMSOXD
 70
     0
  9
$DIMSAH
 70
     0
  9
$DIMBLK1
  1

  9
$DIMBLK2
  1

  9
$DIMSTYLE
  2
Standard
  9
$DIMCLRD
 70
   178
  9
$DIMCLRE
 70
   178
  9
$DIMCLRT
 70
   178
  9
$DIMTFAC
 40
1.0
  9
$DIMGAP
 40
5.0
  9
$DIMJUST
 70
     0
  9
$DIMSD1
 70
     0
  9
$DIMSD2
 70
     0
  9
$DIMTOLJ
 70
     1
  9
$DIMTZIN
 70
     0
  9
$DIMALTZ
 70
     0
  9
$DIMALTTZ
 70
     0
  9
$DIMUPT
 70
     0
  9
$DIMDEC
 70
     4
  9
$DIMTDEC
 70
     4
  9
$DIMALTU
 70
     2
  9
$DIMALTTD
 70
     2
  9
$DIMTXSTY
  7
Standard
  9
$DIMAUNIT
 70
     0
  9
$DIMADEC
 70
     0
  9
$DIMALTRND
 40
0.0
  9
$DIMAZIN
 70
     2
  9
$DIMDSEP
 70
    46
  9
$DIMATFIT
 70
     3
  9
$DIMFRAC
 70
     0
  9
$DIMLDRBLK
  1

  9
$DIMLUNIT
 70
     2
  9
$DIMLWD
 70
    -2
  9
$DIMLWE
 70
    -2
  9
$DIMTMOVE
 70
     0
  9
$DIMFXL
 40
1.0
  9
$DIMFXLON
 70
     0
  9
$DIMJOGANG
 40
0.7853981633974483
  9
$DIMTFILL
 70
     0
  9
$DIMTFILLCLR
 70
     0
  9
$DIMARCSYM
 70
     0
  9
$DIMLTYPE
  6

  9
$DIMLTEX1
  6

  9
$DIMLTEX2
  6

  9
$DIMTXTDIRECTION
 70
     0
  9
$LUNITS
 70
     2
  9
$LUPREC
 70
     4
  9
$SKETCHINC
 40
0.1
  9
$FILLETRAD
 40
0.5
  9
$AUNITS
 70
     0
  9
$AUPREC
 70
     0
  9
$MENU
  1
.
  9
$ELEVATION
 40
0.0
  9
$PELEVATION
 40
0.0
  9
$THICKNESS
 40
0.0
  9
$LIMCHECK
 70
     0
  9
$CHAMFERA
 40
0.0
  9
$CHAMFERB
 40
0.0
  9
$CHAMFERC
 40
0.0
  9
$CHAMFERD
 40
0.0
  9
$SKPOLY
 70
     0
  9
$TDCREATE
 40
2459458.511724537
  9
$TDUCREATE
 40
2459458.47005787
  9
$TDUPDATE
 40
2459458.511724537
  9
$TDUUPDATE
 40
2459458.47005787
  9
$TDINDWG
 40
0.0000000116
  9
$TDUSRTIMER
 40
0.0000000116
  9
$USRTIMER
 70
     1
  9
$ANGBASE
 50
0.0
  9
$ANGDIR
 70
     0
  9
$PDMODE
 70
     0
  9
$PDSIZE
 40
0.0
  9
$PLINEWID
 40
0.0
  9
$SPLFRAME
 70
     0
  9
$SPLINETYPE
 70
     6
  9
$SPLINESEGS
 70
     8
  9
$HANDSEED
  5
34D
  9
$SURFTAB1
 70
     6
  9
$SURFTAB2
 70
     6
  9
$SURFTYPE
 70
     6
  9
$SURFU
 70
     6
  9
$SURFV
 70
     6
  9
$UCSBASE
  2

  9
$UCSNAME
  2

  9
$UCSORG
 10
0.0
 20
0.0
 30
0.0
  9
$UCSXDIR
 10
1.0
 20
0.0
 30
0.0
  9
$UCSYDIR
 10
0.0
 20
1.0
 30
0.0
  9
$UCSORTHOREF
  2

  9
$UCSORTHOVIEW
 70
     0
  9
$UCSORGTOP
 10
0.0
 20
0.0
 30
0.0
  9
$UCSORGBOTTOM
 10
0.0
 20
0.0
 30
0.0
  9
$UCSORGLEFT
 10
0.0
 20
0.0
 30
0.0
  9
$UCSORGRIGHT
 10
0.0
 20
0.0
 30
0.0
  9
$UCSORGFRONT
 10
0.0
 20
0.0
 30
0.0
  9
$UCSORGBACK
 10
0.0
 20
0.0
 30
0.0
  9
$PUCSBASE
  2

  9
$PUCSNAME
  2

  9
$PUCSORG
 10
0.0
 20
0.0
 30
0.0
  9
$PUCSXDIR
 10
1.0
 20
0.0
 30
0.0
  9
$PUCSYDIR
 10
0.0
 20
1.0
 30
0.0
  9
$PUCSORTHOREF
  2

  9
$PUCSORTHOVIEW
 70
     0
  9
$PUCSORGTOP
 10
0.0
 20
0.0
 30
0.0
  9
$PUCSORGBOTTOM
 10
0.0
 20
0.0
 30
0.0
  9
$PUCSORGLEFT
 10
0.0
 20
0.0
 30
0.0
  9
$PUCSORGRIGHT
 10
0.0
 20
0.0
 30
0.0
  9
$PUCSORGFRONT
 10
0.0
 20
0.0
 30
0.0
  9
$PUCSORGBACK
 10
0.0
 20
0.0
 30
0.0
  9
$USERI1
 70
     0
  9
$USERI2
 70
     0
  9
$USERI3
 70
     0
  9
$USERI4
 70
     0
  9
$USERI5
 70
     0
  9
$USERR1
 40
0.0
  9
$USERR2
 40
0.0
  9
$USERR3
 40
0.0
  9
$USERR4
 40
0.0
  9
$USERR5
 40
0.0
  9
$WORLDVIEW
 70
     1
  9
$SHADEDGE
 70
     3
  9
$SHADEDIF
 70
    70
  9
$TILEMODE
 70
     1
  9
$MAXACTVP
 70
     2
  9
$PINSBASE
 10
0.0
 20
0.0
 30
0.0
  9
$PLIMCHECK
 70
     0
  9
$PEXTMIN
 10
1.000000000000000E+20
 20
1.000000000000000E+20
 30
1.000000000000000E+20
  9
$PEXTMAX
 10
-1.000000000000000E+20
 20
-1.000000000000000E+20
 30
-1.000000000000000E+20
  9
$PLIMMIN
 10
0.0
 20
0.0
  9
$PLIMMAX
 10
12.0
 20
9.0
  9
$UNITMODE
 70
     0
  9
$VISRETAIN
 70
     1
  9
$PLINEGEN
 70
     0
  9
$PSLTSCALE
 70
     1
  9
$TREEDEPTH
 70
  3020
  9
$CMLSTYLE
  2
Standard
  9
$CMLJUST
 70
     0
  9
$CMLSCALE
 40
1.0
  9
$PROXYGRAPHICS
 70
     1
  9
$MEASUREMENT
 70
     1
  9
$CELWEIGHT
370
    -1
  9
$ENDCAPS
280
     0
  9
$JOINSTYLE
280
     0
  9
$LWDISPLAY
290
     0
  9
$INSUNITS
 70
     4
  9
$HYPERLINKBASE
  1

  9
$STYLESHEET
  1

  9
$XEDIT
290
     1
  9
$CEPSNTYPE
380
     0
  9
$PSTYLEMODE
290
     1
  9
$FINGERPRINTGUID
  2
{6C093F8F-E269-F861-9623-25C563B0D18B}
  9
$VERSIONGUID
  2
{FAEB1C32-E019-11D5-929B-00C0DF256EC4}
  9
$EXTNAMES
290
     1
  9
$PSVPSCALE
 40
0.0
  9
$OLESTARTUP
290
     0
  9
$SORTENTS
280
   127
  9
$INDEXCTL
280
     0
  9
$HIDETEXT
280
     1
  9
$XCLIPFRAME
280
     2
  9
$HALOGAP
280
     0
  9
$OBSCOLOR
 70
   257
  9
$OBSLTYPE
280
     0
  9
$INTERSECTIONDISPLAY
280
     0
  9
$INTERSECTIONCOLOR
 70
   257
  9
$DIMASSOC
280
     2
  9
$PROJECTNAME
  1

  9
$CAMERADISPLAY
290
     0
  9
$LENSLENGTH
 40
50.0
  9
$CAMERAHEIGHT
 40
0.0
  9
$STEPSPERSEC
 40
2.0
  9
$STEPSIZE
 40
6.0
  9
$3DDWFPREC
 40
2.0
  9
$PSOLWIDTH
 40
0.25
  9
$PSOLHEIGHT
 40
4.0
  9
$LOFTANG1
 40
1.570796326794897
  9
$LOFTANG2
 40
1.570796326794897
  9
$LOFTMAG1
 40
0.0
  9
$LOFTMAG2
 40
0.0
  9
$LOFTPARAM
 70
     7
  9
$LOFTNORMALS
280
     1
  9
$LATITUDE
 40
37.795
  9
$LONGITUDE
 40
-122.394
  9
$NORTHDIRECTION
 40
0.0
  9
$TIMEZONE
 70
 -8000
  9
$LIGHTGLYPHDISPLAY
280
     1
  9
$TILEMODELIGHTSYNCH
280
     1
  9
$CMATERIAL
347
1D8
  9
$SOLIDHIST
280
     0
  9
$SHOWHIST
280
     1
  9
$DWFFRAME
280
     2
  9
$DGNFRAME
280
     2
  9
$REALWORLDSCALE
290
     1
  9
$INTERFERECOLOR
 62
   256
  9
$CSHADOW
280
     0
  9
$SHADOWPLANELOCATION
 40
0.0
  0
ENDSEC
  0
SECTION
  2
CLASSES
  0
CLASS
  1
ACDBDICTIONARYWDFLT
  2
AcDbDictionaryWithDefault
  3
ObjectDBX Classes
 90
        0
 91
        4
280
     0
281
     0
  0
CLASS
  1
VISUALSTYLE
  2
AcDbVisualStyle
  3
ObjectDBX Classes
 90
     4095
 91
        4
280
     0
281
     0
  0
CLASS
  1
MATERIAL
  2
AcDbMaterial
  3
ObjectDBX Classes
 90
     1153
 91
        4
280
     0
281
     0
  0
CLASS
  1
SCALE
  2
AcDbScale
  3
ObjectDBX Classes
 90
     1153
 91
        4
280
     0
281
     0
  0
CLASS
  1
TABLESTYLE
  2
AcDbTableStyle
  3
ObjectDBX Classes
 90
     4095
 91
        4
280
     0
281
     0
  0
CLASS
  1
MLEADERSTYLE
  2
AcDbMLeaderStyle
  3
ACDB_MLEADERSTYLE_CLASS
 90
     4095
 91
        4
280
     0
281
     0
  0
CLASS
  1
SUN
  2
AcDbSun
  3
SCENEOE
 90
     1153
 91
        4
280
     0
281
     0
  0
CLASS
  1
DICTIONARYVAR
  2
AcDbDictionaryVar
  3
ObjectDBX Classes
 90
        0
 91
        4
280
     0
281
     0
  0
CLASS
  1
CELLSTYLEMAP
  2
AcDbCellStyleMap
  3
ObjectDBX Classes
 90
     1152
 91
        4
280
     0
281
     0
  0
ENDSEC
  0
SECTION
  2
TABLES
  0
TABLE
  2
VPORT
  5
19D
330
0
100
AcDbSymbolTable
 70
     1
  0
VPORT
  5
1BD
330
19D
100
AcDbSymbolTableRecord
100
AcDbViewportTableRecord
  2
*Active
 70
     0
 10
0.0
 20
0.0
 11
1.0
 21
1.0
 12
10.42990654205607
 22
4.5
 13
0.0
 23
0.0
 14
0.5
 24
0.5
 15
0.5
 25
0.5
 16
0.0
 26
0.0
 36
1.0
 17
0.0
 27
0.0
 37
0.0
 40
9.0
 41
1.972972972850329
 42
50.0
 43
0.0
 44
0.0
 50
0.0
 51
0.0
 71
     0
 72
   100
 73
     1
 74
     3
 75
     0
 76
     0
 77
     0
 78
     0
281
     0
 65
     1
110
0.0
120
0.0
130
0.0
111
1.0
121
0.0
131
0.0
112
0.0
122
1.0
132
0.0
 79
     0
146
0.0
 60
     3
 61
     5
292
     1
282
     1
141
0.0
142
0.0
 63
   250
361
201
  0
ENDTAB
  0
TABLE
  2
LTYPE
  5
19A
330
0
100
AcDbSymbolTable
 70
    48
  0
LTYPE
  5
1A8
330
19A
100
AcDbSymbolTableRecord
100
AcDbLinetypeTableRecord
  2
ByBlock
 70
     0
  3

 72
    65
 73
     0
 40
0.0
  0
LTYPE
  5
1A9
330
19A
100
AcDbSymbolTableRecord
100
AcDbLinetypeTableRecord
  2
ByLayer
 70
     0
  3

 72
    65
 73
     0
 40
0.0
  0
LTYPE
  5
1AA
330
19A
100
AcDbSymbolTableRecord
100
AcDbLinetypeTableRecord
  2
Continuous
 70
     0
  3
Solid line
 72
    65
 73
     0
 40
0.0
  0
LTYPE
  5
239
330
19A
100
AcDbSymbolTableRecord
100
AcDbLinetypeTableRecord
  2
ACAD_ISO02W100
 70
     0
  3
ISO dash __ __ __ __ __ __ __ __ __ __ __ __ __
 72
    65
 73
     2
 40
15.0
 49
12.0
 74
     0
 49
-3.0
 74
     0
  0
LTYPE
  5
23A
330
19A
100
AcDbSymbolTableRecord
100
AcDbLinetypeTableRecord
  2
ACAD_ISO03W100
 70
     0
  3
ISO dash space __    __    __    __    __    __
 72
    65
 73
     2
 40
30.0
 49
12.0
 74
     0
 49
-18.0
 74
     0
  0
LTYPE
  5
23B
330
19A
100
AcDbSymbolTableRecord
100
AcDbLinetypeTableRecord
  2
ACAD_ISO04W100
 70
     0
  3
ISO long-dash dot ____ . ____ . ____ . ____ . _
 72
    65
 73
     4
 40
30.0
 49
24.0
 74
     0
 49
-3.0
 74
     0
 49
0.0
 74
     0
 49
-3.0
 74
     0
  0
LTYPE
  5
23C
330
19A
100
AcDbSymbolTableRecord
100
AcDbLinetypeTableRecord
  2
ACAD_ISO05W100
 70
     0
  3
ISO long-dash double-dot ____ .. ____ .. ____ . 
 72
    65
 73
     6
 40
33.0
 49
24.0
 74
     0
 49
-3.0
 74
     0
 49
0.0
 74
     0
 49
-3.0
 74
     0
 49
0.0
 74
     0
 49
-3.0
 74
     0
  0
LTYPE
  5
23D
330
19A
100
AcDbSymbolTableRecord
100
AcDbLinetypeTableRecord
  2
ACAD_ISO06W100
 70
     0
  3
ISO long-dash triple-dot ____ ... ____ ... ____
 72
    65
 73
     8
 40
36.0
 49
24.0
 74
     0
 49
-3.0
 74
     0
 49
0.0
 74
     0
 49
-3.0
 74
     0
 49
0.0
 74
     0
 49
-3.0
 74
     0
 49
0.0
 74
     0
 49
-3.0
 74
     0
  0
LTYPE
  5
23E
330
19A
100
AcDbSymbolTableRecord
100
AcDbLinetypeTableRecord
  2
ACAD_ISO07W100
 70
     0
  3
ISO dot . . . . . . . . . . . . . . . . . . . . 
 72
    65
 73
     2
 40
3.0
 49
0.0
 74
     0
 49
-3.0
 74
     0
  0
LTYPE
  5
23F
330
19A
100
AcDbSymbolTableRecord
100
AcDbLinetypeTableRecord
  2
ACAD_ISO08W100
 70
     0
  3
ISO long-dash short-dash ____ __ ____ __ ____ _
 72
    65
 73
     4
 40
36.0
 49
24.0
 74
     0
 49
-3.0
 74
     0
 49
6.0
 74
     0
 49
-3.0
 74
     0
  0
LTYPE
  5
240
330
19A
100
AcDbSymbolTableRecord
100
AcDbLinetypeTableRecord
  2
ACAD_ISO09W100
 70
     0
  3
ISO long-dash double-short-dash ____ __ __ ____
 72
    65
 73
     6
 40
45.0
 49
24.0
 74
     0
 49
-3.0
 74
     0
 49
6.0
 74
     0
 49
-3.0
 74
     0
 49
6.0
 74
     0
 49
-3.0
 74
     0
  0
LTYPE
  5
241
330
19A
100
AcDbSymbolTableRecord
100
AcDbLinetypeTableRecord
  2
ACAD_ISO10W100
 70
     0
  3
ISO dash dot __ . __ . __ . __ . __ . __ . __ . 
 72
    65
 73
     4
 40
18.0
 49
12.0
 74
     0
 49
-3.0
 74
     0
 49
0.0
 74
     0
 49
-3.0
 74
     0
  0
LTYPE
  5
242
330
19A
100
AcDbSymbolTableRecord
100
AcDbLinetypeTableRecord
  2
ACAD_ISO11W100
 70
     0
  3
ISO double-dash dot __ __ . __ __ . __ __ . __ _
 72
    65
 73
     6
 40
33.0
 49
12.0
 74
     0
 49
-3.0
 74
     0
 49
12.0
 74
     0
 49
-3.0
 74
     0
 49
0.0
 74
     0
 49
-3.0
 74
     0
  0
LTYPE
  5
243
330
19A
100
AcDbSymbolTableRecord
100
AcDbLinetypeTableRecord
  2
ACAD_ISO12W100
 70
     0
  3
ISO dash double-dot __ . . __ . . __ . . __ . . 
 72
    65
 73
     6
 40
21.0
 49
12.0
 74
     0
 49
-3.0
 74
     0
 49
0.0
 74
     0
 49
-3.0
 74
     0
 49
0.0
 74
     0
 49
-3.0
 74
     0
  0
LTYPE
  5
244
330
19A
100
AcDbSymbolTableRecord
100
AcDbLinetypeTableRecord
  2
ACAD_ISO13W100
 70
     0
  3
ISO double-dash double-dot __ __ . . __ __ . . _
 72
    65
 73
     8
 40
36.0
 49
12.0
 74
     0
 49
-3.0
 74
     0
 49
12.0
 74
     0
 49
-3.0
 74
     0
 49
0.0
 74
     0
 49
-3.0
 74
     0
 49
0.0
 74
     0
 49
-3.0
 74
     0
  0
LTYPE
  5
245
330
19A
100
AcDbSymbolTableRecord
100
AcDbLinetypeTableRecord
  2
ACAD_ISO14W100
 70
     0
  3
ISO dash triple-dot __ . . . __ . . . __ . . . _
 72
    65
 73
     8
 40
24.0
 49
12.0
 74
     0
 49
-3.0
 74
     0
 49
0.0
 74
     0
 49
-3.0
 74
     0
 49
0.0
 74
     0
 49
-3.0
 74
     0
 49
0.0
 74
     0
 49
-3.0
 74
     0
  0
LTYPE
  5
246
330
19A
100
AcDbSymbolTableRecord
100
AcDbLinetypeTableRecord
  2
ACAD_ISO15W100
 70
     0
  3
ISO double-dash triple-dot __ __ . . . __ __ . .
 72
    65
 73
    10
 40
39.0
 49
12.0
 74
     0
 49
-3.0
 74
     0
 49
12.0
 74
     0
 49
-3.0
 74
     0
 49
0.0
 74
     0
 49
-3.0
 74
     0
 49
0.0
 74
     0
 49
-3.0
 74
     0
 49
0.0
 74
     0
 49
-3.0
 74
     0
  0
LTYPE
  5
249
330
19A
100
AcDbSymbolTableRecord
100
AcDbLinetypeTableRecord
  2
BATTING
 70
     0
  3
Batting SSSSSSSSSSSSSSSSSSSSSSSSSSSSSSSSSSSSSSSSSSSSSSS
 72
    65
 73
     4
 40
10.16254
 49
0.00254
 74
     0
 49
-2.54
 74
     2
 75
     0
340
247
 46
2.54
 50
0.0
 44
-2.54
 45
0.0
  9
BAT
 49
-5.08
 74
     2
 75
     0
340
248
 46
2.54
 50
180.0
 44
2.54
 45
0.0
  9
BAT
 49
-2.54
 74
     0
  0
LTYPE
  5
24A
330
19A
100
AcDbSymbolTableRecord
100
AcDbLinetypeTableRecord
  2
BORDER
 70
     0
  3
Border __ __ . __ __ . __ __ . __ __ . __ __ .
 72
    65
 73
     6
 40
44.45
 49
12.7
 74
     0
 49
-6.35
 74
     0
 49
12.7
 74
     0
 49
-6.35
 74
     0
 49
0.0
 74
     0
 49
-6.35
 74
     0
  0
LTYPE
  5
24B
330
19A
100
AcDbSymbolTableRecord
100
AcDbLinetypeTableRecord
  2
BORDER2
 70
     0
  3
Border (.5x) __.__.__.__.__.__.__.__.__.__.__.
 72
    65
 73
     6
 40
22.225
 49
6.35
 74
     0
 49
-3.175
 74
     0
 49
6.35
 74
     0
 49
-3.175
 74
     0
 49
0.0
 74
     0
 49
-3.175
 74
     0
  0
LTYPE
  5
24C
330
19A
100
AcDbSymbolTableRecord
100
AcDbLinetypeTableRecord
  2
BORDERX2
 70
     0
  3
Border (2x) ____  ____  .  ____  ____  .  ___
 72
    65
 73
     6
 40
88.89999999999999
 49
25.4
 74
     0
 49
-12.7
 74
     0
 49
25.4
 74
     0
 49
-12.7
 74
     0
 49
0.0
 74
     0
 49
-12.7
 74
     0
  0
LTYPE
  5
24D
330
19A
100
AcDbSymbolTableRecord
100
AcDbLinetypeTableRecord
  2
CENTER
 70
     0
  3
Center ____ _ ____ _ ____ _ ____ _ ____ _ ____
 72
    65
 73
     4
 40
50.8
 49
31.75
 74
     0
 49
-6.35
 74
     0
 49
6.35
 74
     0
 49
-6.35
 74
     0
  0
LTYPE
  5
24E
330
19A
100
AcDbSymbolTableRecord
100
AcDbLinetypeTableRecord
  2
CENTER2
 70
     0
  3
Center (.5x) ___ _ ___ _ ___ _ ___ _ ___ _ ___
 72
    65
 73
     4
 40
28.575
 49
19.05
 74
     0
 49
-3.175
 74
     0
 49
3.175
 74
     0
 49
-3.175
 74
     0
  0
LTYPE
  5
24F
330
19A
100
AcDbSymbolTableRecord
100
AcDbLinetypeTableRecord
  2
CENTERX2
 70
     0
  3
Center (2x) ________  __  ________  __  _____
 72
    65
 73
     4
 40
101.6
 49
63.5
 74
     0
 49
-12.7
 74
     0
 49
12.7
 74
     0
 49
-12.7
 74
     0
  0
LTYPE
  5
250
330
19A
100
AcDbSymbolTableRecord
100
AcDbLinetypeTableRecord
  2
DASHDOT
 70
     0
  3
Dash dot __ . __ . __ . __ . __ . __ . __ . __
 72
    65
 73
     4
 40
25.4
 49
12.7
 74
     0
 49
-6.35
 74
     0
 49
0.0
 74
     0
 49
-6.35
 74
     0
  0
LTYPE
  5
251
330
19A
100
AcDbSymbolTableRecord
100
AcDbLinetypeTableRecord
  2
DASHDOT2
 70
     0
  3
Dash dot (.5x) _._._._._._._._._._._._._._._.
 72
    65
 73
     4
 40
12.7
 49
6.35
 74
     0
 49
-3.175
 74
     0
 49
0.0
 74
     0
 49
-3.175
 74
     0
  0
LTYPE
  5
252
330
19A
100
AcDbSymbolTableRecord
100
AcDbLinetypeTableRecord
  2
DASHDOTX2
 70
     0
  3
Dash dot (2x) ____  .  ____  .  ____  .  ___
 72
    65
 73
     4
 40
50.8
 49
25.4
 74
     0
 49
-12.7
 74
     0
 49
0.0
 74
     0
 49
-12.7
 74
     0
  0
LTYPE
  5
253
330
19A
100
AcDbSymbolTableRecord
100
AcDbLinetypeTableRecord
  2
DASHED
 70
     0
  3
Dashed __ __ __ __ __ __ __ __ __ __ __ __ __ _
 72
    65
 73
     2
 40
19.05
 49
12.7
 74
     0
 49
-6.35
 74
     0
  0
LTYPE
  5
254
330
19A
100
AcDbSymbolTableRecord
100
AcDbLinetypeTableRecord
  2
DASHED2
 70
     0
  3
Dashed (.5x) _ _ _ _ _ _ _ _ _ _ _ _ _ _ _ _ _ 
 72
    65
 73
     2
 40
9.524999999999999
 49
6.35
 74
     0
 49
-3.175
 74
     0
  0
LTYPE
  5
255
330
19A
100
AcDbSymbolTableRecord
100
AcDbLinetypeTableRecord
  2
DASHEDX2
 70
     0
  3
Dashed (2x) ____  ____  ____  ____  ____  ___
 72
    65
 73
     2
 40
38.09999999999999
 49
25.4
 74
     0
 49
-12.7
 74
     0
  0
LTYPE
  5
256
330
19A
100
AcDbSymbolTableRecord
100
AcDbLinetypeTableRecord
  2
DIVIDE
 70
     0
  3
Divide ____ . . ____ . . ____ . . ____ . . ____
 72
    65
 73
     6
 40
31.75
 49
12.7
 74
     0
 49
-6.35
 74
     0
 49
0.0
 74
     0
 49
-6.35
 74
     0
 49
0.0
 74
     0
 49
-6.35
 74
     0
  0
LTYPE
  5
257
330
19A
100
AcDbSymbolTableRecord
100
AcDbLinetypeTableRecord
  2
DIVIDE2
 70
     0
  3
Divide (.5x) __..__..__..__..__..__..__..__.._
 72
    65
 73
     6
 40
15.875
 49
6.35
 74
     0
 49
-3.175
 74
     0
 49
0.0
 74
     0
 49
-3.175
 74
     0
 49
0.0
 74
     0
 49
-3.175
 74
     0
  0
LTYPE
  5
258
330
19A
100
AcDbSymbolTableRecord
100
AcDbLinetypeTableRecord
  2
DIVIDEX2
 70
     0
  3
Divide (2x) ________  .  .  ________  .  .  _
 72
    65
 73
     6
 40
63.5
 49
25.4
 74
     0
 49
-12.7
 74
     0
 49
0.0
 74
     0
 49
-12.7
 74
     0
 49
0.0
 74
     0
 49
-12.7
 74
     0
  0
LTYPE
  5
259
330
19A
100
AcDbSymbolTableRecord
100
AcDbLinetypeTableRecord
  2
DOT
 70
     0
  3
Dot . . . . . . . . . . . . . . . . . . . . . . . .
 72
    65
 73
     2
 40
6.35
 49
0.0
 74
     0
 49
-6.35
 74
     0
  0
LTYPE
  5
25A
330
19A
100
AcDbSymbolTableRecord
100
AcDbLinetypeTableRecord
  2
DOT2
 70
     0
  3
Dot (.5x) ........................................
 72
    65
 73
     2
 40
3.175
 49
0.0
 74
     0
 49
-3.175
 74
     0
  0
LTYPE
  5
25B
330
19A
100
AcDbSymbolTableRecord
100
AcDbLinetypeTableRecord
  2
DOTX2
 70
     0
  3
Dot (2x) .  .  .  .  .  .  .  .  .  .  .  .  .  .
 72
    65
 73
     2
 40
12.7
 49
0.0
 74
     0
 49
-12.7
 74
     0
  0
LTYPE
  5
25D
330
19A
100
AcDbSymbolTableRecord
100
AcDbLinetypeTableRecord
  2
DRAINAGE
 70
     0
  3
Drainage ---->---->---->----
 72
    65
 73
     2
 40
10.16
 49
5.08
 74
     2
 75
     0
340
25C
 46
2.54
 50
180.0
 44
0.0
 45
0.0
  9
RIGHT_ARROW
 49
5.08
 74
     0
  0
LTYPE
  5
25F
330
19A
100
AcDbSymbolTableRecord
100
AcDbLinetypeTableRecord
  2
DRAINAGE2
 70
     0
  3
Drainage reversed----<----<----<----
 72
    65
 73
     2
 40
10.16
 49
5.08
 74
     2
 75
     0
340
25E
 46
2.54
 50
0.0
 44
0.0
 45
0.0
  9
RIGHT_ARROW
 49
5.08
 74
     0
  0
LTYPE
  5
261
330
19A
100
AcDbSymbolTableRecord
100
AcDbLinetypeTableRecord
  2
FENCELINE1
 70
     0
  3
Fenceline circle ----0-----0----0-----0----0-----0--
 72
    65
 73
     4
 40
36.83
 49
6.35
 74
     0
 49
-2.54
 74
     2
 75
     0
340
260
 46
2.54
 50
0.0
 44
-2.54
 45
0.0
  9
CIRC1
 49
-2.54
 74
     0
 49
25.4
 74
     0
  0
LTYPE
  5
263
330
19A
100
AcDbSymbolTableRecord
100
AcDbLinetypeTableRecord
  2
FENCELINE2
 70
     0
  3
Fenceline square ----[]-----[]----[]-----[]----[]---
 72
    65
 73
     4
 40
36.83
 49
6.35
 74
     0
 49
-2.54
 74
     2
 75
     0
340
262
 46
2.54
 50
0.0
 44
-2.54
 45
0.0
  9
BOX
 49
-2.54
 74
     0
 49
25.4
 74
     0
  0
LTYPE
  5
265
330
19A
100
AcDbSymbolTableRecord
100
AcDbLinetypeTableRecord
  2
GAS_LINE
 70
     0
  3
Gas line ----GAS----GAS----GAS----GAS----GAS----GAS--
 72
    65
 73
     3
 40
24.13
 49
12.7
 74
     0
 49
-5.08
 74
     2
 75
     0
340
264
 46
2.54
 50
0.0
 44
-2.54
 45
-1.27
  9
GAS
 49
-6.35
 74
     0
  0
LTYPE
  5
266
330
19A
100
AcDbSymbolTableRecord
100
AcDbLinetypeTableRecord
  2
HIDDEN
 70
     0
  3
Hidden __ __ __ __ __ __ __ __ __ __ __ __ __ __
 72
    65
 73
     2
 40
9.524999999999999
 49
6.35
 74
     0
 49
-3.175
 74
     0
  0
LTYPE
  5
267
330
19A
100
AcDbSymbolTableRecord
100
AcDbLinetypeTableRecord
  2
HIDDEN2
 70
     0
  3
Hidden (.5x) _ _ _ _ _ _ _ _ _ _ _ _ _ _ _ _ _ 
 72
    65
 73
     2
 40
4.762499999999999
 49
3.175
 74
     0
 49
-1.5875
 74
     0
  0
LTYPE
  5
268
330
19A
100
AcDbSymbolTableRecord
100
AcDbLinetypeTableRecord
  2
HIDDENX2
 70
     0
  3
Hidden (2x) ____ ____ ____ ____ ____ ____ ____ 
 72
    65
 73
     2
 40
19.05
 49
12.7
 74
     0
 49
-6.35
 74
     0
  0
LTYPE
  5
26A
330
19A
100
AcDbSymbolTableRecord
100
AcDbLinetypeTableRecord
  2
HOT_WATER_SUPPLY
 70
     0
  3
Hot water supply ---- HW ---- HW ---- HW ----
 72
    65
 73
     3
 40
22.86
 49
12.7
 74
     0
 49
-5.08
 74
     2
 75
     0
340
269
 46
2.54
 50
0.0
 44
-2.54
 45
-1.27
  9
HW
 49
-5.08
 74
     0
  0
LTYPE
  5
26B
330
19A
100
AcDbSymbolTableRecord
100
AcDbLinetypeTableRecord
  2
PHANTOM
 70
     0
  3
Phantom ______  __  __  ______  __  __  ______ 
 72
    65
 73
     6
 40
63.50000000000001
 49
31.75
 74
     0
 49
-6.35
 74
     0
 49
6.35
 74
     0
 49
-6.35
 74
     0
 49
6.35
 74
     0
 49
-6.35
 74
     0
  0
LTYPE
  5
26C
330
19A
100
AcDbSymbolTableRecord
100
AcDbLinetypeTableRecord
  2
PHANTOM2
 70
     0
  3
Phantom (.5x) ___ _ _ ___ _ _ ___ _ _ ___ _ _
 72
    65
 73
     6
 40
31.75
 49
15.875
 74
     0
 49
-3.175
 74
     0
 49
3.175
 74
     0
 49
-3.175
 74
     0
 49
3.175
 74
     0
 49
-3.175
 74
     0
  0
LTYPE
  5
26D
330
19A
100
AcDbSymbolTableRecord
100
AcDbLinetypeTableRecord
  2
PHANTOMX2
 70
     0
  3
Phantom (2x) ____________    ____    ____   _
 72
    65
 73
     6
 40
127.0
 49
63.5
 74
     0
 49
-12.7
 74
     0
 49
12.7
 74
     0
 49
-12.7
 74
     0
 49
12.7
 74
     0
 49
-12.7
 74
     0
  0
LTYPE
  5
26F
330
19A
100
AcDbSymbolTableRecord
100
AcDbLinetypeTableRecord
  2
TRACKS
 70
     0
  3
Tracks -|-|-|-|-|-|-|-|-|-|-|-|-|-|-|-|-|-|-|-|-|-|-|-|-
 72
    65
 73
     2
 40
7.62
 49
3.81
 74
     2
 75
     0
340
26E
 46
6.35
 50
0.0
 44
0.0
 45
0.0
  9
TRACK1
 49
3.81
 74
     0
  0
LTYPE
  5
272
330
19A
100
AcDbSymbolTableRecord
100
AcDbLinetypeTableRecord
  2
ZIGZAG
 70
     0
  3
Zig zag /\/\/\/\/\/\/\/\/\/\/\/\/\/\/\/\/\/\/\/\/\/\/\/
 72
    65
 73
     4
 40
20.32254
 49
0.00254
 74
     0
 49
-5.08
 74
     2
 75
     0
340
270
 46
5.08
 50
0.0
 44
-5.08
 45
0.0
  9
ZIG
 49
-10.16
 74
     2
 75
     0
340
271
 46
5.08
 50
180.0
 44
5.08
 45
0.0
  9
ZIG
 49
-5.08
 74
     0
  0
ENDTAB
  0
TABLE
  2
LAYER
  5
197
330
0
100
AcDbSymbolTable
 70
     5
  0
LAYER
  5
1A5
330
197
100
AcDbSymbolTableRecord
100
AcDbLayerTableRecord
  2
0
 70
     0
 62
     7
420
 16777215
  6
Continuous
370
    25
390
1A4
347
1DA
348
0
  0
LAYER
  5
273
330
197
100
AcDbSymbolTableRecord
100
AcDbLayerTableRecord
  2
0 ... Seuil
 70
     0
 62
   178
420
        0
  6
Continuous
370
    25
390
1A4
347
1DA
348
0
  0
LAYER
  5
274
330
197
100
AcDbSymbolTableRecord
100
AcDbLayerTableRecord
  2
0 ... Seuil ... Rectangle
 70
     0
 62
     5
420
      255
  6
Continuous
370
    25
390
1A4
347
1DA
348
0
  0
LAYER
  5
275
330
197
100
AcDbSymbolTableRecord
100
AcDbLayerTableRecord
  2
0 ... Seuil ... Rectangle ... Cotes Angles
 70
     0
 62
     4
420
    65535
  6
Continuous
370
    25
390
1A4
347
1DA
348
0
  0
LAYER
  5
276
330
197
100
AcDbSymbolTableRecord
100
AcDbLayerTableRecord
  2
Defpoints
 70
     0
 62
     7
420
 16777215
  6
Continuous
290
     0
370
    -3
390
1A4
347
1DA
348
0
  0
ENDTAB
  0
TABLE
  2
STYLE
  5
198
330
0
100
AcDbSymbolTable
 70
    22
  0
STYLE
  5
1A6
330
198
100
AcDbSymbolTableRecord
100
AcDbTextStyleTableRecord
  2
Standard
 70
     0
 40
0.0
 41
1.0
 50
0.0
 71
     0
 42
0.2
  3
txt
  4

  0
STYLE
  5
237
330
198
100
AcDbSymbolTableRecord
100
AcDbTextStyleTableRecord
  2
QCADDimTextStyle
 70
     0
 40
0.0
 41
1.0
 50
0.0
 71
     0
 42
0.2
  3

  4

  0
STYLE
  5
247
330
198
100
AcDbSymbolTableRecord
100
AcDbTextStyleTableRecord
  2
textstyle0
 70
     0
 40
0.0
 41
1.0
 50
0.0
 71
     0
 42
0.2
  3
ltypeshp.shx
  4

  0
STYLE
  5
248
330
198
100
AcDbSymbolTableRecord
100
AcDbTextStyleTableRecord
  2
textstyle1
 70
     0
 40
0.0
 41
1.0
 50
0.0
 71
     0
 42
0.2
  3
ltypeshp.shx
  4

  0
STYLE
  5
25C
330
198
100
AcDbSymbolTableRecord
100
AcDbTextStyleTableRecord
  2
textstyle2
 70
     0
 40
0.0
 41
1.0
 50
0.0
 71
     0
 42
0.2
  3
qcadshp.shx
  4

  0
STYLE
  5
25E
330
198
100
AcDbSymbolTableRecord
100
AcDbTextStyleTableRecord
  2
textstyle3
 70
     0
 40
0.0
 41
1.0
 50
0.0
 71
     0
 42
0.2
  3
qcadshp.shx
  4

  0
STYLE
  5
260
330
198
100
AcDbSymbolTableRecord
100
AcDbTextStyleTableRecord
  2
textstyle4
 70
     0
 40
0.0
 41
1.0
 50
0.0
 71
     0
 42
0.2
  3
ltypeshp.shx
  4

  0
STYLE
  5
262
330
198
100
AcDbSymbolTableRecord
100
AcDbTextStyleTableRecord
  2
textstyle5
 70
     0
 40
0.0
 41
1.0
 50
0.0
 71
     0
 42
0.2
  3
ltypeshp.shx
  4

  0
STYLE
  5
264
330
198
100
AcDbSymbolTableRecord
100
AcDbTextStyleTableRecord
  2
textstyle6
 70
     0
 40
0.0
 41
1.0
 50
0.0
 71
     0
 42
0.2
  3
STANDARD
  4

  0
STYLE
  5
269
330
198
100
AcDbSymbolTableRecord
100
AcDbTextStyleTableRecord
  2
textstyle7
 70
     0
 40
0.0
 41
1.0
 50
0.0
 71
     0
 42
0.2
  3
STANDARD
  4

  0
STYLE
  5
26E
330
198
100
AcDbSymbolTableRecord
100
AcDbTextStyleTableRecord
  2
textstyle8
 70
     0
 40
0.0
 41
1.0
 50
0.0
 71
     0
 42
0.2
  3
ltypeshp.shx
  4

  0
STYLE
  5
270
330
198
100
AcDbSymbolTableRecord
100
AcDbTextStyleTableRecord
  2
textstyle9
 70
     0
 40
0.0
 41
1.0
 50
0.0
 71
     0
 42
0.2
  3
ltypeshp.shx
  4

  0
STYLE
  5
271
330
198
100
AcDbSymbolTableRecord
100
AcDbTextStyleTableRecord
  2
textstyle10
 70
     0
 40
0.0
 41
1.0
 50
0.0
 71
     0
 42
0.2
  3
ltypeshp.shx
  4

  0
STYLE
  5
2FA
330
198
100
AcDbSymbolTableRecord
100
AcDbTextStyleTableRecord
  2
textstyle11
 70
     0
 40
0.0
 41
1.0
 50
0.0
 71
     0
 42
0.2
  3

  4

1001
ACAD
1000
Liberation Sans
1071
        0
  0
STYLE
  5
2FB
330
198
100
AcDbSymbolTableRecord
100
AcDbTextStyleTableRecord
  2
textstyle12
 70
     0
 40
0.0
 41
1.0
 50
0.0
 71
     0
 42
0.2
  3

  4

1001
ACAD
1000
Liberation Sans
1071
        0
  0
STYLE
  5
30B
330
198
100
AcDbSymbolTableRecord
100
AcDbTextStyleTableRecord
  2
textstyle13
 70
     0
 40
0.0
 41
1.0
 50
0.0
 71
     0
 42
0.2
  3

  4

1001
ACAD
1000
Liberation Sans
1071
        0
  0
STYLE
  5
30C
330
198
100
AcDbSymbolTableRecord
100
AcDbTextStyleTableRecord
  2
textstyle14
 70
     0
 40
0.0
 41
1.0
 50
0.0
 71
     0
 42
0.2
  3

  4

1001
ACAD
1000
Liberation Sans
1071
        0
  0
STYLE
  5
30D
330
198
100
AcDbSymbolTableRecord
100
AcDbTextStyleTableRecord
  2
textstyle15
 70
     0
 40
0.0
 41
1.0
 50
0.0
 71
     0
 42
0.2
  3

  4

1001
ACAD
1000
Liberation Sans
1071
        0
  0
STYLE
  5
30E
330
198
100
AcDbSymbolTableRecord
100
AcDbTextStyleTableRecord
  2
textstyle16
 70
     0
 40
0.0
 41
1.0
 50
0.0
 71
     0
 42
0.2
  3

  4

1001
ACAD
1000
Liberation Sans
1071
        0
  0
STYLE
  5
30F
330
198
100
AcDbSymbolTableRecord
100
AcDbTextStyleTableRecord
  2
textstyle17
 70
     0
 40
0.0
 41
1.0
 50
0.0
 71
     0
 42
0.2
  3

  4

1001
ACAD
1000
Liberation Sans
1071
        0
  0
STYLE
  5
310
330
198
100
AcDbSymbolTableRecord
100
AcDbTextStyleTableRecord
  2
textstyle18
 70
     0
 40
0.0
 41
1.0
 50
0.0
 71
     0
 42
0.2
  3

  4

1001
ACAD
1000
Liberation Sans
1071
        0
  0
STYLE
  5
343
330
198
100
AcDbSymbolTableRecord
100
AcDbTextStyleTableRecord
  2
textstyle19
 70
     0
 40
0.0
 41
1.0
 50
0.0
 71
     0
 42
0.2
  3

  4

1001
ACAD
1000
Liberation Sans
1071
        0
  0
ENDTAB
  0
TABLE
  2
VIEW
  5
19B
330
0
100
AcDbSymbolTable
 70
     0
  0
ENDTAB
  0
TABLE
  2
UCS
  5
19C
330
0
100
AcDbSymbolTable
 70
     0
  0
ENDTAB
  0
TABLE
  2
APPID
  5
19E
330
0
100
AcDbSymbolTable
 70
     2
  0
APPID
  5
1A7
330
19E
100
AcDbSymbolTableRecord
100
AcDbRegAppTableRecord
  2
ACAD
 70
     0
  0
APPID
  5
202
330
19E
100
AcDbSymbolTableRecord
100
AcDbRegAppTableRecord
  2
QCAD
 70
     0
  0
ENDTAB
  0
TABLE
  2
DIMSTYLE
  5
19F
330
0
100
AcDbSymbolTable
 70
     2
100
AcDbDimStyleTable
  0
DIMSTYLE
105
1BB
330
19F
100
AcDbSymbolTableRecord
100
AcDbDimStyleTableRecord
  2
Standard
 70
     0
178
     0
340
1A6
  0
DIMSTYLE
105
238
102
{ACAD_REACTORS
330
43
330
44
330
45
330
46
330
47
330
4E
330
4F
330
50
330
51
330
52
330
57
330
99
330
A2
330
B3
330
B4
330
B5
102
}
330
19F
100
AcDbSymbolTableRecord
100
AcDbDimStyleTableRecord
  2
QCADDimStyle
 70
     0
 41
20.0
 42
5.0
 44
10.0
 73
     0
 77
     1
140
20.0
147
5.0
178
     0
340
237
  0
ENDTAB
  0
TABLE
  2
BLOCK_RECORD
  5
196
330
0
100
AcDbSymbolTable
 70
    17
  0
BLOCK_RECORD
  5
1B3
330
196
100
AcDbSymbolTableRecord
100
AcDbBlockTableRecord
  2
*Model_Space
340
1B6
 70
     0
280
     1
281
     0
  0
BLOCK_RECORD
  5
1AF
330
196
100
AcDbSymbolTableRecord
100
AcDbBlockTableRecord
  2
*Paper_Space
340
1B2
 70
     0
280
     1
281
     0
  0
BLOCK_RECORD
  5
1B7
330
196
100
AcDbSymbolTableRecord
100
AcDbBlockTableRecord
  2
*Paper_Space0
340
1BA
 70
     0
280
     1
281
     0
  0
BLOCK_RECORD
  5
277
330
196
100
AcDbSymbolTableRecord
100
AcDbBlockTableRecord
  2
*D1
340
0
 70
     0
280
     1
281
     0
  0
BLOCK_RECORD
  5
283
330
196
100
AcDbSymbolTableRecord
100
AcDbBlockTableRecord
  2
*D2
340
0
 70
     0
280
     1
281
     0
  0
BLOCK_RECORD
  5
28F
330
196
100
AcDbSymbolTableRecord
100
AcDbBlockTableRecord
  2
*D3
340
0
 70
     0
280
     1
281
     0
  0
BLOCK_RECORD
  5
29B
330
196
100
AcDbSymbolTableRecord
100
AcDbBlockTableRecord
  2
*D4
340
0
 70
     0
280
     1
281
     0
  0
BLOCK_RECORD
  5
2A6
330
196
100
AcDbSymbolTableRecord
100
AcDbBlockTableRecord
  2
*D5
340
0
 70
     0
280
     1
281
     0
  0
BLOCK_RECORD
  5
2B3
330
196
100
AcDbSymbolTableRecord
100
AcDbBlockTableRecord
  2
*D6
340
0
 70
     0
280
     1
281
     0
  0
BLOCK_RECORD
  5
2BF
330
196
100
AcDbSymbolTableRecord
100
AcDbBlockTableRecord
  2
*D7
340
0
 70
     0
280
     1
281
     0
  0
BLOCK_RECORD
  5
2CA
330
196
100
AcDbSymbolTableRecord
100
AcDbBlockTableRecord
  2
*D8
340
0
 70
     0
280
     1
281
     0
  0
BLOCK_RECORD
  5
2D6
330
196
100
AcDbSymbolTableRecord
100
AcDbBlockTableRecord
  2
*D9
340
0
 70
     0
280
     1
281
     0
  0
BLOCK_RECORD
  5
2E2
330
196
100
AcDbSymbolTableRecord
100
AcDbBlockTableRecord
  2
*D10
340
0
 70
     0
280
     1
281
     0
  0
BLOCK_RECORD
  5
2EE
330
196
100
AcDbSymbolTableRecord
100
AcDbBlockTableRecord
  2
*D11
340
0
 70
     0
280
     1
281
     0
  0
BLOCK_RECORD
  5
2FC
330
196
100
AcDbSymbolTableRecord
100
AcDbBlockTableRecord
  2
*D12
340
0
 70
     0
280
     1
281
     0
  0
BLOCK_RECORD
  5
311
330
196
100
AcDbSymbolTableRecord
100
AcDbBlockTableRecord
  2
*D13
340
0
 70
     0
280
     1
281
     0
  0
BLOCK_RECORD
  5
320
330
196
100
AcDbSymbolTableRecord
100
AcDbBlockTableRecord
  2
*D14
340
0
 70
     0
280
     1
281
     0
  0
BLOCK_RECORD
  5
32B
330
196
100
AcDbSymbolTableRecord
100
AcDbBlockTableRecord
  2
*D15
340
0
 70
     0
280
     1
281
     0
  0
BLOCK_RECORD
  5
337
330
196
100
AcDbSymbolTableRecord
100
AcDbBlockTableRecord
  2
*D16
340
0
 70
     0
280
     1
281
     0
  0
ENDTAB
  0
ENDSEC
  0
SECTION
  2
BLOCKS
  0
BLOCK
  5
1B4
330
1B3
100
AcDbEntity
  8
0
100
AcDbBlockBegin
  2
*Model_Space
 70
     0
 10
0.0
 20
0.0
 30
0.0
  3
*Model_Space
  1
*Model_Space
  0
ENDBLK
  5
1B5
330
1B3
100
AcDbEntity
  8
0
100
AcDbBlockEnd
  0
BLOCK
  5
1B0
330
1AF
100
AcDbEntity
 67
     1
  8
0
100
AcDbBlockBegin
  2
*Paper_Space
 70
     0
 10
0.0
 20
0.0
 30
0.0
  3
*Paper_Space
  1
*Paper_Space
  0
ENDBLK
  5
1B1
330
1AF
100
AcDbEntity
 67
     1
  8
0
100
AcDbBlockEnd
  0
BLOCK
  5
1B8
330
1B7
100
AcDbEntity
  8
0
100
AcDbBlockBegin
  2
*Paper_Space0
 70
     0
 10
0.0
 20
0.0
 30
0.0
  3
*Paper_Space0
  1
*Paper_Space0
  0
ENDBLK
  5
1B9
330
1B7
100
AcDbEntity
  8
0
100
AcDbBlockEnd
  0
BLOCK
  5
278
330
277
100
AcDbEntity
  8
0
100
AcDbBlockBegin
  2
*D1
 70
     1
 10
0.0
 20
0.0
 30
0.0
  3
*D1
  1
*D1
  0
LINE
  5
27A
330
277
100
AcDbEntity
  8
0 ... Seuil ... Rectangle ... Cotes Angles
 62
     0
370
    -2
100
AcDbLine
 10
403.3678337358414
 20
1623.234189139665
 30
0.0
 11
348.7762860886269
 21
1619.274785555304
 31
0.0
  0
LINE
  5
27B
330
277
100
AcDbEntity
  8
0 ... Seuil ... Rectangle ... Cotes Angles
 62
     0
370
    -2
100
AcDbLine
 10
422.8778057021222
 20
1354.234189139663
 30
0.0
 11
368.2862580549076
 21
1350.274785555302
 31
0.0
  0
LINE
  5
27C
330
277
100
AcDbEntity
  8
0 ... Seuil ... Rectangle ... Cotes Angles
 62
     0
370
    -2
100
AcDbLine
 10
358.750088008279
 20
1619.998163235043
 30
0.0
 11
378.2600599745597
 21
1350.99816323504
 31
0.0
  0
LINE
  5
27D
330
277
100
AcDbEntity
  8
0 ... Seuil ... Rectangle ... Cotes Angles
 62
     0
370
    -2
100
AcDbLine
 10
380.1444472070601
 20
1601.497314755215
 30
0.0
 11
337.3557288094978
 21
1638.49901171487
 31
0.0
  0
LINE
  5
27E
330
277
100
AcDbEntity
  8
0 ... Seuil ... Rectangle ... Cotes Angles
 62
     0
370
    -2
100
AcDbLine
 10
356.8657007757786
 20
1369.499011714868
 30
0.0
 11
399.6544191733409
 21
1332.497314755213
 31
0.0
  0
MTEXT
  5
27F
330
277
100
AcDbEntity
  8
0 ... Seuil ... Rectangle ... Cotes Angles
 62
     0
100
AcDbMText
 10
383.4657768708975
 20
1486.583229754649
 30
0.0
 40
20.0
 41
0.0
 46
0.0
 71
     5
 72
     1
  1
\A1;269.7066
  7
QCADDimTextStyle
 11
0.07233776797384707
 21
-0.9973801919652114
 31
0.0
 73
     1
 44
1.0
  0
POINT
  5
280
330
277
100
AcDbEntity
  8
Defpoints
 62
     0
100
AcDbPoint
 10
408.3547346956675
 20
1623.595877979534
 30
0.0
  0
POINT
  5
281
330
277
100
AcDbEntity
  8
Defpoints
 62
     0
100
AcDbPoint
 10
427.8647066619483
 20
1354.595877979532
 30
0.0
  0
POINT
  5
282
330
277
100
AcDbEntity
  8
Defpoints
 62
     0
100
AcDbPoint
 10
378.2600599745597
 20
1350.99816323504
 30
0.0
  0
ENDBLK
  5
279
330
277
100
AcDbEntity
  8
0
100
AcDbBlockEnd
  0
BLOCK
  5
284
330
283
100
AcDbEntity
  8
0
100
AcDbBlockBegin
  2
*D2
 70
     1
 10
0.0
 20
0.0
 30
0.0
  3
*D2
  1
*D2
  0
LINE
  5
286
330
283
100
AcDbEntity
  8
0 ... Seuil ... Rectangle ... Cotes Angles
 62
     0
370
    -2
100
AcDbLine
 10
431.7084646387916
 20
1644.595877979534
 30
0.0
 11
314.3429221485053
 21
1644.595877979534
 31
0.0
  0
LINE
  5
287
330
283
100
AcDbEntity
  8
0 ... Seuil ... Rectangle ... Cotes Angles
 62
     0
370
    -2
100
AcDbLine
 10
403.3547346956675
 20
1623.595877979534
 30
0.0
 11
314.3429221485053
 21
1623.595877979534
 31
0.0
  0
LINE
  5
288
330
283
100
AcDbEntity
  8
0 ... Seuil ... Rectangle ... Cotes Angles
 62
     0
370
    -2
100
AcDbLine
 10
324.3429221485053
 20
1644.595877979534
 30
0.0
 11
324.3429221485053
 21
1623.595877979534
 31
0.0
  0
LINE
  5
289
330
283
100
AcDbEntity
  8
0 ... Seuil ... Rectangle ... Cotes Angles
 62
     0
370
    -2
100
AcDbLine
 10
344.3429221485053
 20
1624.595877979534
 30
0.0
 11
304.3429221485053
 21
1664.595877979534
 31
0.0
  0
LINE
  5
28A
330
283
100
AcDbEntity
  8
0 ... Seuil ... Rectangle ... Cotes Angles
 62
     0
370
    -2
100
AcDbLine
 10
304.3429221485053
 20
1643.595877979534
 30
0.0
 11
344.3429221485053
 21
1603.595877979534
 31
0.0
  0
MTEXT
  5
28B
330
283
100
AcDbEntity
  8
0 ... Seuil ... Rectangle ... Cotes Angles
 62
     0
100
AcDbMText
 10
296.8429221485053
 20
1634.095877979534
 30
0.0
 40
20.0
 41
0.0
 46
0.0
 71
     5
 72
     1
  1
\A1;21
  7
QCADDimTextStyle
 73
     1
 44
1.0
  0
POINT
  5
28C
330
283
100
AcDbEntity
  8
Defpoints
 62
     0
100
AcDbPoint
 10
436.7084646387916
 20
1644.595877979534
 30
0.0
  0
POINT
  5
28D
330
283
100
AcDbEntity
  8
Defpoints
 62
     0
100
AcDbPoint
 10
408.3547346956675
 20
1623.595877979534
 30
0.0
  0
POINT
  5
28E
330
283
100
AcDbEntity
  8
Defpoints
 62
     0
100
AcDbPoint
 10
324.3429221485053
 20
1623.595877979534
 30
0.0
  0
ENDBLK
  5
285
330
283
100
AcDbEntity
  8
0
100
AcDbBlockEnd
  0
BLOCK
  5
290
330
28F
100
AcDbEntity
  8
0
100
AcDbBlockBegin
  2
*D3
 70
     1
 10
0.0
 20
0.0
 30
0.0
  3
*D3
  1
*D3
  0
LINE
  5
292
330
28F
100
AcDbEntity
  8
0 ... Seuil ... Rectangle ... Cotes Angles
 62
     0
370
    -2
100
AcDbLine
 10
403.3547346956675
 20
1623.595877979534
 30
0.0
 11
314.3429221485053
 21
1623.595877979534
 31
0.0
  0
LINE
  5
293
330
28F
100
AcDbEntity
  8
0 ... Seuil ... Rectangle ... Cotes Angles
 62
     0
370
    -2
100
AcDbLine
 10
422.8647066619483
 20
1354.595877979532
 30
0.0
 11
314.3429221485053
 21
1354.595877979532
 31
0.0
  0
LINE
  5
294
330
28F
100
AcDbEntity
  8
0 ... Seuil ... Rectangle ... Cotes Angles
 62
     0
370
    -2
100
AcDbLine
 10
324.3429221485053
 20
1623.595877979534
 30
0.0
 11
324.3429221485053
 21
1354.595877979532
 31
0.0
  0
LINE
  5
295
330
28F
100
AcDbEntity
  8
0 ... Seuil ... Rectangle ... Cotes Angles
 62
     0
370
    -2
100
AcDbLine
 10
344.3429221485053
 20
1603.595877979534
 30
0.0
 11
304.3429221485053
 21
1643.595877979534
 31
0.0
  0
LINE
  5
296
330
28F
100
AcDbEntity
  8
0 ... Seuil ... Rectangle ... Cotes Angles
 62
     0
370
    -2
100
AcDbLine
 10
304.3429221485053
 20
1374.595877979532
 30
0.0
 11
344.3429221485053
 21
1334.595877979532
 31
0.0
  0
MTEXT
  5
297
330
28F
100
AcDbEntity
  8
0 ... Seuil ... Rectangle ... Cotes Angles
 62
     0
100
AcDbMText
 10
309.3429221485053
 20
1489.095877979533
 30
0.0
 40
20.0
 41
0.0
 46
0.0
 71
     5
 72
     1
  1
\A1;269
  7
QCADDimTextStyle
 11
0.0
 21
1.0
 31
0.0
 73
     1
 44
1.0
  0
POINT
  5
298
330
28F
100
AcDbEntity
  8
Defpoints
 62
     0
100
AcDbPoint
 10
408.3547346956675
 20
1623.595877979534
 30
0.0
  0
POINT
  5
299
330
28F
100
AcDbEntity
  8
Defpoints
 62
     0
100
AcDbPoint
 10
427.8647066619483
 20
1354.595877979532
 30
0.0
  0
POINT
  5
29A
330
28F
100
AcDbEntity
  8
Defpoints
 62
     0
100
AcDbPoint
 10
324.3429221485053
 20
1354.595877979532
 30
0.0
  0
ENDBLK
  5
291
330
28F
100
AcDbEntity
  8
0
100
AcDbBlockEnd
  0
BLOCK
  5
29C
330
29B
100
AcDbEntity
  8
0
100
AcDbBlockBegin
  2
*D4
 70
     1
 10
0.0
 20
0.0
 30
0.0
  3
*D4
  1
*D4
  0
LINE
  5
29E
330
29B
100
AcDbEntity
  8
0 ... Seuil ... Rectangle ... Cotes Angles
 62
     0
370
    -2
100
AcDbLine
 10
461.7084646387907
 20
1644.595877979535
 30
0.0
 11
502.5000924765523
 21
1644.595877979535
 31
0.0
  0
LINE
  5
29F
330
29B
100
AcDbEntity
  8
0 ... Seuil ... Rectangle ... Cotes Angles
 62
     0
370
    -2
100
AcDbLine
 10
461.8396976340796
 20
1643.095877979535
 30
0.0
 11
502.5000924765523
 21
1643.095877979535
 31
0.0
  0
LINE
  5
2A0
330
29B
100
AcDbEntity
  8
0 ... Seuil ... Rectangle ... Cotes Angles
 62
     0
370
    -2
100
AcDbLine
 10
472.5000924765523
 20
1664.595877979535
 30
0.0
 11
512.5000924765523
 21
1624.595877979535
 31
0.0
  0
LINE
  5
2A1
330
29B
100
AcDbEntity
  8
0 ... Seuil ... Rectangle ... Cotes Angles
 62
     0
370
    -2
100
AcDbLine
 10
512.5000924765523
 20
1623.095877979535
 30
0.0
 11
472.5000924765523
 21
1663.095877979535
 31
0.0
  0
MTEXT
  5
2A2
330
29B
100
AcDbEntity
  8
0 ... Seuil ... Rectangle ... Cotes Angles
 62
     0
100
AcDbMText
 10
520.0000924765523
 20
1643.845877979535
 30
0.0
 40
20.0
 41
0.0
 46
0.0
 71
     5
 72
     1
  1
\A1;1.5
  7
QCADDimTextStyle
 73
     1
 44
1.0
  0
POINT
  5
2A3
330
29B
100
AcDbEntity
  8
Defpoints
 62
     0
100
AcDbPoint
 10
456.7084646387907
 20
1644.595877979535
 30
0.0
  0
POINT
  5
2A4
330
29B
100
AcDbEntity
  8
Defpoints
 62
     0
100
AcDbPoint
 10
456.8396976340796
 20
1643.095877979535
 30
0.0
  0
POINT
  5
2A5
330
29B
100
AcDbEntity
  8
Defpoints
 62
     0
100
AcDbPoint
 10
492.5000924765523
 20
1643.095877979535
 30
0.0
  0
ENDBLK
  5
29D
330
29B
100
AcDbEntity
  8
0
100
AcDbBlockEnd
  0
BLOCK
  5
2A7
330
2A6
100
AcDbEntity
  8
0
100
AcDbBlockBegin
  2
*D5
 70
     1
 10
0.0
 20
0.0
 30
0.0
  3
*D5
  1
*D5
  0
LINE
  5
2A9
330
2A6
100
AcDbEntity
  8
0 ... Seuil ... Rectangle ... Cotes Angles
 62
     0
370
    -2
100
AcDbLine
 10
415.3094859808018
 20
1544.102707037739
 30
0.0
 11
415.7919313590174
 21
1538.588331131536
 31
0.0
  0
LINE
  5
2AA
330
2A6
100
AcDbEntity
  8
0 ... Seuil ... Rectangle ... Cotes Angles
 62
     0
370
    -2
100
AcDbLine
 10
465.1192208853888
 20
1548.460494175145
 30
0.0
 11
465.6016662636044
 21
1542.946118268941
 31
0.0
  0
LINE
  5
2AB
330
2A6
100
AcDbEntity
  8
0 ... Seuil ... Rectangle ... Cotes Angles
 62
     0
370
    -2
100
AcDbLine
 10
414.9203739315367
 20
1548.550278112453
 30
0.0
 11
418.7154013528486
 21
1548.882299989589
 31
0.0
  0
LINE
  5
2AC
330
2A6
100
AcDbEntity
  8
0 ... Seuil ... Rectangle ... Cotes Angles
 62
     0
370
    -2
100
AcDbLine
 10
464.7301088361237
 20
1552.908065249858
 30
0.0
 11
460.9350814148304
 21
1552.576043372723
 31
0.0
  0
LINE
  5
2AD
330
2A6
100
AcDbEntity
  8
0 ... Seuil ... Rectangle ... Cotes Angles
 62
     0
370
    -2
100
AcDbLine
 10
433.1011530384089
 20
1570.217286929249
 30
0.0
 11
396.7395948246646
 21
1526.883269295657
 31
0.0
  0
LINE
  5
2AE
330
2A6
100
AcDbEntity
  8
0 ... Seuil ... Rectangle ... Cotes Angles
 62
     0
370
    -2
100
AcDbLine
 10
446.5493297292516
 20
1531.241056433062
 30
0.0
 11
482.9108879429959
 21
1574.575074066654
 31
0.0
  0
MTEXT
  5
2AF
330
2A6
100
AcDbEntity
  8
0 ... Seuil ... Rectangle ... Cotes Angles
 62
     0
100
AcDbMText
 10
438.5179052426297
 20
1565.672092152399
 30
0.0
 40
20.0
 41
0.0
 46
0.0
 71
     5
 72
     1
  1
\A1;50
  7
QCADDimTextStyle
 11
0.9961946980917072
 21
0.08715574274809737
 31
0.0
 73
     1
 44
1.0
  0
POINT
  5
2B0
330
2A6
100
AcDbEntity
  8
Defpoints
 62
     0
100
AcDbPoint
 10
414.8737072670615
 20
1549.083680528198
 30
0.0
  0
POINT
  5
2B1
330
2A6
100
AcDbEntity
  8
Defpoints
 62
     0
100
AcDbPoint
 10
464.6834421716485
 20
1553.441467665603
 30
0.0
  0
POINT
  5
2B2
330
2A6
100
AcDbEntity
  8
Defpoints
 62
     0
100
AcDbPoint
 10
464.7301088361237
 20
1552.908065249858
 30
0.0
  0
ENDBLK
  5
2A8
330
2A6
100
AcDbEntity
  8
0
100
AcDbBlockEnd
  0
BLOCK
  5
2B4
330
2B3
100
AcDbEntity
  8
0
100
AcDbBlockBegin
  2
*D6
 70
     1
 10
0.0
 20
0.0
 30
0.0
  3
*D6
  1
*D6
  0
LINE
  5
2B6
330
2B3
100
AcDbEntity
  8
0 ... Seuil ... Rectangle ... Cotes Angles
 62
     0
370
    -2
100
AcDbLine
 10
461.7084646387907
 20
1644.595877979535
 30
0.0
 11
606.3842300145143
 21
1644.595877979535
 31
0.0
  0
LINE
  5
2B7
330
2B3
100
AcDbEntity
  8
0 ... Seuil ... Rectangle ... Cotes Angles
 62
     0
370
    -2
100
AcDbLine
 10
503.8736310788604
 20
1282.595877979534
 30
0.0
 11
606.3842300145143
 21
1282.595877979534
 31
0.0
  0
LINE
  5
2B8
330
2B3
100
AcDbEntity
  8
0 ... Seuil ... Rectangle ... Cotes Angles
 62
     0
370
    -2
100
AcDbLine
 10
596.3842300145143
 20
1644.595877979535
 30
0.0
 11
596.3842300145143
 21
1282.595877979534
 31
0.0
  0
LINE
  5
2B9
330
2B3
100
AcDbEntity
  8
0 ... Seuil ... Rectangle ... Cotes Angles
 62
     0
370
    -2
100
AcDbLine
 10
616.3842300145143
 20
1624.595877979535
 30
0.0
 11
576.3842300145143
 21
1664.595877979535
 31
0.0
  0
LINE
  5
2BA
330
2B3
100
AcDbEntity
  8
0 ... Seuil ... Rectangle ... Cotes Angles
 62
     0
370
    -2
100
AcDbLine
 10
576.3842300145143
 20
1302.595877979534
 30
0.0
 11
616.3842300145143
 21
1262.595877979534
 31
0.0
  0
MTEXT
  5
2BB
330
2B3
100
AcDbEntity
  8
0 ... Seuil ... Rectangle ... Cotes Angles
 62
     0
100
AcDbMText
 10
581.3842300145143
 20
1463.595877979535
 30
0.0
 40
20.0
 41
0.0
 46
0.0
 71
     5
 72
     1
  1
\A1;362
  7
QCADDimTextStyle
 11
0.0
 21
1.0
 31
0.0
 73
     1
 44
1.0
  0
POINT
  5
2BC
330
2B3
100
AcDbEntity
  8
Defpoints
 62
     0
100
AcDbPoint
 10
456.7084646387907
 20
1644.595877979535
 30
0.0
  0
POINT
  5
2BD
330
2B3
100
AcDbEntity
  8
Defpoints
 62
     0
100
AcDbPoint
 10
498.8736310788604
 20
1282.595877979534
 30
0.0
  0
POINT
  5
2BE
330
2B3
100
AcDbEntity
  8
Defpoints
 62
     0
100
AcDbPoint
 10
596.3842300145143
 20
1282.595877979534
 30
0.0
  0
ENDBLK
  5
2B5
330
2B3
100
AcDbEntity
  8
0
100
AcDbBlockEnd
  0
BLOCK
  5
2C0
330
2BF
100
AcDbEntity
  8
0
100
AcDbBlockBegin
  2
*D7
 70
     1
 10
0.0
 20
0.0
 30
0.0
  3
*D7
  1
*D7
  0
LINE
  5
2C2
330
2BF
100
AcDbEntity
  8
0 ... Seuil ... Rectangle ... Cotes Angles
 62
     0
370
    -2
100
AcDbLine
 10
495.338097172928
 20
1293.202479697333
 30
0.0
 11
540.2633859606277
 21
1338.127768485039
 31
0.0
  0
LINE
  5
2C3
330
2BF
100
AcDbEntity
  8
0 ... Seuil ... Rectangle ... Cotes Angles
 62
     0
370
    -2
100
AcDbLine
 10
502.4091649847929
 20
1286.131411885469
 30
0.0
 11
547.3344537724926
 21
1331.056700673175
 31
0.0
  0
LINE
  5
2C4
330
2BF
100
AcDbEntity
  8
0 ... Seuil ... Rectangle ... Cotes Angles
 62
     0
370
    -2
100
AcDbLine
 10
504.9080469013008
 20
1331.056700673171
 30
0.0
 11
561.4765893962247
 21
1331.056700673175
 31
0.0
  0
LINE
  5
2C5
330
2BF
100
AcDbEntity
  8
0 ... Seuil ... Rectangle ... Cotes Angles
 62
     0
370
    -2
100
AcDbLine
 10
568.5476572080895
 20
1323.985632861311
 30
0.0
 11
511.9791147131657
 21
1323.985632861307
 31
0.0
  0
MTEXT
  5
2C6
330
2BF
100
AcDbEntity
  8
0 ... Seuil ... Rectangle ... Cotes Angles
 62
     0
100
AcDbMText
 10
553.8306023883706
 20
1345.218993341179
 30
0.0
 40
20.0
 41
0.0
 46
0.0
 71
     5
 72
     1
  1
\A1;10
  7
QCADDimTextStyle
 11
0.7071067811865959
 21
-0.7071067811864992
 31
0.0
 73
     1
 44
1.0
  0
POINT
  5
2C7
330
2BF
100
AcDbEntity
  8
Defpoints
 62
     0
100
AcDbPoint
 10
491.8025632669955
 20
1289.6669457914
 30
0.0
  0
POINT
  5
2C8
330
2BF
100
AcDbEntity
  8
Defpoints
 62
     0
100
AcDbPoint
 10
498.8736310788604
 20
1282.595877979536
 30
0.0
  0
POINT
  5
2C9
330
2BF
100
AcDbEntity
  8
Defpoints
 62
     0
100
AcDbPoint
 10
540.2633859606276
 20
1323.985632861309
 30
0.0
  0
ENDBLK
  5
2C1
330
2BF
100
AcDbEntity
  8
0
100
AcDbBlockEnd
  0
BLOCK
  5
2CB
330
2CA
100
AcDbEntity
  8
0
100
AcDbBlockBegin
  2
*D8
 70
     1
 10
0.0
 20
0.0
 30
0.0
  3
*D8
  1
*D8
  0
LINE
  5
2CD
330
2CA
100
AcDbEntity
  8
0 ... Seuil ... Rectangle ... Cotes Angles
 62
     0
370
    -2
100
AcDbLine
 10
486.8736310788621
 20
1277.595877979532
 30
0.0
 11
486.8736310788764
 21
1235.731930545922
 31
0.0
  0
LINE
  5
2CE
330
2CA
100
AcDbEntity
  8
0 ... Seuil ... Rectangle ... Cotes Angles
 62
     0
370
    -2
100
AcDbLine
 10
498.8736310788621
 20
1277.595877979536
 30
0.0
 11
498.8736310788764
 21
1235.731930545926
 31
0.0
  0
LINE
  5
2CF
330
2CA
100
AcDbEntity
  8
0 ... Seuil ... Rectangle ... Cotes Angles
 62
     0
370
    -2
100
AcDbLine
 10
486.873631078873
 20
1245.731930545922
 30
0.0
 11
498.873631078873
 21
1245.731930545926
 31
0.0
  0
LINE
  5
2D0
330
2CA
100
AcDbEntity
  8
0 ... Seuil ... Rectangle ... Cotes Angles
 62
     0
370
    -2
100
AcDbLine
 10
506.8736310788661
 20
1265.731930545929
 30
0.0
 11
466.8736310788798
 21
1225.731930545915
 31
0.0
  0
LINE
  5
2D1
330
2CA
100
AcDbEntity
  8
0 ... Seuil ... Rectangle ... Cotes Angles
 62
     0
370
    -2
100
AcDbLine
 10
478.8736310788798
 20
1225.731930545919
 30
0.0
 11
518.8736310788661
 21
1265.731930545933
 31
0.0
  0
MTEXT
  5
2D2
330
2CA
100
AcDbEntity
  8
0 ... Seuil ... Rectangle ... Cotes Angles
 62
     0
100
AcDbMText
 10
492.7564367069854
 20
1218.473681765834
 30
0.0
 40
20.0
 41
0.0
 46
0.0
 71
     5
 72
     1
  1
\A1;12
  7
QCADDimTextStyle
 73
     1
 44
1.0
  0
POINT
  5
2D3
330
2CA
100
AcDbEntity
  8
Defpoints
 62
     0
100
AcDbPoint
 10
486.8736310788604
 20
1282.595877979532
 30
0.0
  0
POINT
  5
2D4
330
2CA
100
AcDbEntity
  8
Defpoints
 62
     0
100
AcDbPoint
 10
498.8736310788604
 20
1282.595877979536
 30
0.0
  0
POINT
  5
2D5
330
2CA
100
AcDbEntity
  8
Defpoints
 62
     0
100
AcDbPoint
 10
498.873631078873
 20
1245.731930545926
 30
0.0
  0
ENDBLK
  5
2CC
330
2CA
100
AcDbEntity
  8
0
100
AcDbBlockEnd
  0
BLOCK
  5
2D7
330
2D6
100
AcDbEntity
  8
0
100
AcDbBlockBegin
  2
*D9
 70
     1
 10
0.0
 20
0.0
 30
0.0
  3
*D9
  1
*D9
  0
LINE
  5
2D9
330
2D6
100
AcDbEntity
  8
0 ... Seuil ... Rectangle ... Cotes Angles
 62
     0
370
    -2
100
AcDbLine
 10
648.7907958238825
 20
1644.595877979534
 30
0.0
 11
621.6809683767005
 21
1644.595877979534
 31
0.0
  0
LINE
  5
2DA
330
2D6
100
AcDbEntity
  8
0 ... Seuil ... Rectangle ... Cotes Angles
 62
     0
370
    -2
100
AcDbLine
 10
648.7907958238825
 20
1354.595877979535
 30
0.0
 11
621.6809683767005
 21
1354.595877979535
 31
0.0
  0
LINE
  5
2DB
330
2D6
100
AcDbEntity
  8
0 ... Seuil ... Rectangle ... Cotes Angles
 62
     0
370
    -2
100
AcDbLine
 10
631.6809683767005
 20
1644.595877979534
 30
0.0
 11
631.6809683767005
 21
1354.595877979535
 31
0.0
  0
LINE
  5
2DC
330
2D6
100
AcDbEntity
  8
0 ... Seuil ... Rectangle ... Cotes Angles
 62
     0
370
    -2
100
AcDbLine
 10
651.6809683767005
 20
1624.595877979534
 30
0.0
 11
611.6809683767005
 21
1664.595877979534
 31
0.0
  0
LINE
  5
2DD
330
2D6
100
AcDbEntity
  8
0 ... Seuil ... Rectangle ... Cotes Angles
 62
     0
370
    -2
100
AcDbLine
 10
611.6809683767005
 20
1374.595877979535
 30
0.0
 11
651.6809683767005
 21
1334.595877979535
 31
0.0
  0
MTEXT
  5
2DE
330
2D6
100
AcDbEntity
  8
0 ... Seuil ... Rectangle ... Cotes Angles
 62
     0
100
AcDbMText
 10
616.6809683767005
 20
1499.595877979535
 30
0.0
 40
20.0
 41
0.0
 46
0.0
 71
     5
 72
     1
  1
\A1;290
  7
QCADDimTextStyle
 11
0.0
 21
1.0
 31
0.0
 73
     1
 44
1.0
  0
POINT
  5
2DF
330
2D6
100
AcDbEntity
  8
Defpoints
 62
     0
100
AcDbPoint
 10
653.7907958238825
 20
1644.595877979534
 30
0.0
  0
POINT
  5
2E0
330
2D6
100
AcDbEntity
  8
Defpoints
 62
     0
100
AcDbPoint
 10
653.7907958238825
 20
1354.595877979535
 30
0.0
  0
POINT
  5
2E1
330
2D6
100
AcDbEntity
  8
Defpoints
 62
     0
100
AcDbPoint
 10
631.6809683767005
 20
1354.595877979535
 30
0.0
  0
ENDBLK
  5
2D8
330
2D6
100
AcDbEntity
  8
0
100
AcDbBlockEnd
  0
BLOCK
  5
2E3
330
2E2
100
AcDbEntity
  8
0
100
AcDbBlockBegin
  2
*D10
 70
     1
 10
0.0
 20
0.0
 30
0.0
  3
*D10
  1
*D10
  0
LINE
  5
2E5
330
2E2
100
AcDbEntity
  8
0 ... Seuil ... Rectangle ... Cotes Angles
 62
     0
370
    -2
100
AcDbLine
 10
653.7907958238825
 20
1649.595877979534
 30
0.0
 11
653.7907958238825
 21
1704.616000322341
 31
0.0
  0
LINE
  5
2E6
330
2E2
100
AcDbEntity
  8
0 ... Seuil ... Rectangle ... Cotes Angles
 62
     0
370
    -2
100
AcDbLine
 10
2019.790795823882
 20
1649.595877979533
 30
0.0
 11
2019.790795823882
 21
1704.61600032234
 31
0.0
  0
LINE
  5
2E7
330
2E2
100
AcDbEntity
  8
0 ... Seuil ... Rectangle ... Cotes Angles
 62
     0
370
    -2
100
AcDbLine
 10
653.7907958238825
 20
1694.616000322341
 30
0.0
 11
2019.790795823882
 21
1694.61600032234
 31
0.0
  0
LINE
  5
2E8
330
2E2
100
AcDbEntity
  8
0 ... Seuil ... Rectangle ... Cotes Angles
 62
     0
370
    -2
100
AcDbLine
 10
673.7907958238825
 20
1714.616000322341
 30
0.0
 11
633.7907958238825
 21
1674.616000322341
 31
0.0
  0
LINE
  5
2E9
330
2E2
100
AcDbEntity
  8
0 ... Seuil ... Rectangle ... Cotes Angles
 62
     0
370
    -2
100
AcDbLine
 10
1999.790795823882
 20
1674.61600032234
 30
0.0
 11
2039.790795823882
 21
1714.61600032234
 31
0.0
  0
MTEXT
  5
2EA
330
2E2
100
AcDbEntity
  8
0 ... Seuil ... Rectangle ... Cotes Angles
 62
     0
100
AcDbMText
 10
1336.790795823882
 20
1709.61600032234
 30
0.0
 40
20.0
 41
0.0
 46
0.0
 71
     5
 72
     1
  1
\A1;1366
  7
QCADDimTextStyle
 73
     1
 44
1.0
  0
POINT
  5
2EB
330
2E2
100
AcDbEntity
  8
Defpoints
 62
     0
100
AcDbPoint
 10
653.7907958238825
 20
1644.595877979534
 30
0.0
  0
POINT
  5
2EC
330
2E2
100
AcDbEntity
  8
Defpoints
 62
     0
100
AcDbPoint
 10
2019.790795823882
 20
1644.595877979533
 30
0.0
  0
POINT
  5
2ED
330
2E2
100
AcDbEntity
  8
Defpoints
 62
     0
100
AcDbPoint
 10
2019.790795823882
 20
1694.61600032234
 30
0.0
  0
ENDBLK
  5
2E4
330
2E2
100
AcDbEntity
  8
0
100
AcDbBlockEnd
  0
BLOCK
  5
2EF
330
2EE
100
AcDbEntity
  8
0
100
AcDbBlockBegin
  2
*D11
 70
     1
 10
0.0
 20
0.0
 30
0.0
  3
*D11
  1
*D11
  0
LINE
  5
2F1
330
2EE
100
AcDbEntity
  8
0 ... Seuil ... Rectangle ... Cotes Angles
 62
     0
370
    -2
100
AcDbLine
 10
431.7084646387916
 20
1644.595877979534
 30
0.0
 11
273.4521610377196
 21
1644.595877979534
 31
0.0
  0
LINE
  5
2F2
330
2EE
100
AcDbEntity
  8
0 ... Seuil ... Rectangle ... Cotes Angles
 62
     0
370
    -2
100
AcDbLine
 10
422.8647066619483
 20
1354.595877979532
 30
0.0
 11
273.4521610377196
 21
1354.595877979532
 31
0.0
  0
LINE
  5
2F3
330
2EE
100
AcDbEntity
  8
0 ... Seuil ... Rectangle ... Cotes Angles
 62
     0
370
    -2
100
AcDbLine
 10
283.4521610377196
 20
1644.595877979534
 30
0.0
 11
283.4521610377196
 21
1354.595877979532
 31
0.0
  0
LINE
  5
2F4
330
2EE
100
AcDbEntity
  8
0 ... Seuil ... Rectangle ... Cotes Angles
 62
     0
370
    -2
100
AcDbLine
 10
303.4521610377196
 20
1624.595877979534
 30
0.0
 11
263.4521610377196
 21
1664.595877979534
 31
0.0
  0
LINE
  5
2F5
330
2EE
100
AcDbEntity
  8
0 ... Seuil ... Rectangle ... Cotes Angles
 62
     0
370
    -2
100
AcDbLine
 10
263.4521610377196
 20
1374.595877979532
 30
0.0
 11
303.4521610377196
 21
1334.595877979532
 31
0.0
  0
MTEXT
  5
2F6
330
2EE
100
AcDbEntity
  8
0 ... Seuil ... Rectangle ... Cotes Angles
 62
     0
100
AcDbMText
 10
268.4521610377196
 20
1499.595877979533
 30
0.0
 40
20.0
 41
0.0
 46
0.0
 71
     5
 72
     1
  1
\A1;290
  7
QCADDimTextStyle
 11
0.0
 21
1.0
 31
0.0
 73
     1
 44
1.0
  0
POINT
  5
2F7
330
2EE
100
AcDbEntity
  8
Defpoints
 62
     0
100
AcDbPoint
 10
436.7084646387916
 20
1644.595877979534
 30
0.0
  0
POINT
  5
2F8
330
2EE
100
AcDbEntity
  8
Defpoints
 62
     0
100
AcDbPoint
 10
427.8647066619483
 20
1354.595877979532
 30
0.0
  0
POINT
  5
2F9
330
2EE
100
AcDbEntity
  8
Defpoints
 62
     0
100
AcDbPoint
 10
283.4521610377196
 20
1354.595877979532
 30
0.0
  0
ENDBLK
  5
2F0
330
2EE
100
AcDbEntity
  8
0
100
AcDbBlockEnd
  0
BLOCK
  5
2FD
330
2FC
100
AcDbEntity
  8
0
100
AcDbBlockBegin
  2
*D12
 70
     1
 10
0.0
 20
0.0
 30
0.0
  3
*D12
  1
*D12
  0
LINE
  5
2FF
330
2FC
100
AcDbEntity
  8
0 ... Seuil ... Rectangle ... Cotes Angles
 62
     0
370
    -2
100
AcDbLine
 10
453.6676018491166
 20
711.5352454113156
 30
0.0
 11
453.6676018491178
 21
861.3161647016258
 31
0.0
  0
LINE
  5
300
330
2FC
100
AcDbEntity
  8
0 ... Seuil ... Rectangle ... Cotes Angles
 62
     0
370
    -2
100
AcDbLine
 10
448.6866283586563
 20
706.0994666975772
 30
0.0
 11
299.4756706863431
 21
693.0451994274047
 31
0.0
  0
ARC
  5
301
330
2FC
100
AcDbEntity
  8
0 ... Seuil ... Rectangle ... Cotes Angles
 62
     0
370
    -2
100
AcDbCircle
 10
453.6676018491166
 20
706.5352454113156
 30
0.0
 40
144.7809192903102
100
AcDbArc
 50
97.92113134823099
 51
132.85172916975
  0
ARC
  5
302
330
2FC
100
AcDbEntity
  8
0 ... Seuil ... Rectangle ... Cotes Angles
 62
     0
370
    -2
100
AcDbCircle
 10
453.6676018491166
 20
706.5352454113156
 30
0.0
 40
144.7809192903102
100
AcDbArc
 50
142.1482708302504
 51
177.0788686517681
  0
SOLID
  5
303
330
2FC
100
AcDbEntity
  8
0 ... Seuil ... Rectangle ... Cotes Angles
 62
     0
100
AcDbTrace
 10
433.9455982760049
 20
846.6093944530122
 30
0.0
 11
433.4851324425687
 21
853.2601399496226
 31
0.0
 12
453.6676018491178
 22
851.3161647016258
 32
0.0
 13
453.6676018491178
 23
851.3161647016258
 33
0.0
  0
SOLID
  5
304
330
2FC
100
AcDbEntity
  8
0 ... Seuil ... Rectangle ... Cotes Angles
 62
     0
100
AcDbTrace
 10
305.7420217203752
 20
713.852997265462
 30
0.0
 11
312.407591364179
 21
713.9739343071232
 31
0.0
 12
309.4376176672606
 22
693.9167568548812
 32
0.0
 13
309.4376176672606
 23
693.9167568548812
 33
0.0
  0
MTEXT
  5
305
330
2FC
100
AcDbEntity
  8
0 ... Seuil ... Rectangle ... Cotes Angles
 62
     0
100
AcDbMText
 10
335.8647512016835
 20
814.4816698476765
 30
0.0
 40
20.0
 41
0.0
 46
0.0
 71
     5
 72
     1
  1
\A1;95%%d
  7
QCADDimTextStyle
 11
0.675590207615658
 21
0.7372773368101263
 31
0.0
 73
     1
 44
1.0
  0
POINT
  5
306
330
2FC
100
AcDbEntity
  8
Defpoints
 62
     0
100
AcDbPoint
 10
377.6610099423967
 20
829.760699670055
 30
0.0
  0
POINT
  5
307
330
2FC
100
AcDbEntity
  8
Defpoints
 62
     0
100
AcDbPoint
 10
453.6676018491166
 20
706.5352454113134
 30
0.0
  0
POINT
  5
308
330
2FC
100
AcDbEntity
  8
Defpoints
 62
     0
100
AcDbPoint
 10
645.6676018491164
 20
723.3330688082913
 30
0.0
  0
POINT
  5
309
330
2FC
100
AcDbEntity
  8
Defpoints
 62
     0
100
AcDbPoint
 10
453.667601849115
 20
706.5352454113155
 30
0.0
  0
POINT
  5
30A
330
2FC
100
AcDbEntity
  8
Defpoints
 62
     0
100
AcDbPoint
 10
453.6676018491162
 20
658.5352454113136
 30
0.0
  0
ENDBLK
  5
2FE
330
2FC
100
AcDbEntity
  8
0
100
AcDbBlockEnd
  0
BLOCK
  5
312
330
311
100
AcDbEntity
  8
0
100
AcDbBlockBegin
  2
*D13
 70
     1
 10
0.0
 20
0.0
 30
0.0
  3
*D13
  1
*D13
  0
LINE
  5
314
330
311
100
AcDbEntity
  8
0 ... Seuil ... Rectangle ... Cotes Angles
 62
     0
370
    -2
100
AcDbLine
 10
1621.667601849118
 20
797.6990853843347
 30
0.0
 11
1621.667601849118
 21
707.3631719907419
 31
0.0
  0
LINE
  5
315
330
311
100
AcDbEntity
  8
0 ... Seuil ... Rectangle ... Cotes Angles
 62
     0
370
    -2
100
AcDbLine
 10
1626.648575339577
 20
803.134864098073
 30
0.0
 11
1716.640733309549
 21
811.0081577266798
 31
0.0
  0
ARC
  5
316
330
311
100
AcDbEntity
  8
0 ... Seuil ... Rectangle ... Cotes Angles
 62
     0
370
    -2
100
AcDbCircle
 10
1621.667601849118
 20
802.6990853843347
 30
0.0
 40
85.33591339359279
100
AcDbArc
 50
283.4592168613742
 51
300.4647561733944
  0
ARC
  5
317
330
311
100
AcDbEntity
  8
0 ... Seuil ... Rectangle ... Cotes Angles
 62
     0
370
    -2
100
AcDbCircle
 10
1621.667601849118
 20
802.6990853843347
 30
0.0
 40
85.33591339359279
100
AcDbArc
 50
334.5352438266021
 51
351.5407831386258
  0
SOLID
  5
318
330
311
100
AcDbEntity
  8
0 ... Seuil ... Rectangle ... Cotes Angles
 62
     0
100
AcDbTrace
 10
1641.139193171804
 20
723.017218548157
 30
0.0
 11
1641.920419551361
 21
716.3964837106689
 31
0.0
 12
1621.667601849118
 22
717.3631719907419
 32
0.0
 13
1621.667601849118
 23
717.3631719907419
 33
0.0
  0
SOLID
  5
319
330
311
100
AcDbEntity
  8
0 ... Seuil ... Rectangle ... Cotes Angles
 62
     0
100
AcDbTrace
 10
1709.40694543752
 20
790.0451031178656
 30
0.0
 11
1702.743316129578
 21
790.246321632893
 31
0.0
 12
1706.678786328632
 22
810.1366002992032
 32
0.0
 13
1706.678786328632
 23
810.1366002992032
 33
0.0
  0
MTEXT
  5
31A
330
311
100
AcDbEntity
  8
0 ... Seuil ... Rectangle ... Cotes Angles
 62
     0
100
AcDbMText
 10
1673.52467675805
 20
755.1808310519207
 30
0.0
 40
20.0
 41
0.0
 46
0.0
 71
     5
 72
     1
  1
\A1;95%%d
  7
QCADDimTextStyle
 11
0.6755902076156829
 21
0.7372773368101033
 31
0.0
 73
     1
 44
1.0
  0
POINT
  5
31B
330
311
100
AcDbEntity
  8
Defpoints
 62
     0
100
AcDbPoint
 10
1666.466957842213
 20
730.0682667374078
 30
0.0
  0
POINT
  5
31C
330
311
100
AcDbEntity
  8
Defpoints
 62
     0
100
AcDbPoint
 10
1621.667601849118
 20
803.6154165583492
 30
0.0
  0
POINT
  5
31D
330
311
100
AcDbEntity
  8
Defpoints
 62
     0
100
AcDbPoint
 10
459.667601849115
 20
701.0372583672096
 30
0.0
  0
POINT
  5
31E
330
311
100
AcDbEntity
  8
Defpoints
 62
     0
100
AcDbPoint
 10
1620.754757591867
 20
802.6192218602605
 30
0.0
  0
POINT
  5
31F
330
311
100
AcDbEntity
  8
Defpoints
 62
     0
100
AcDbPoint
 10
1621.667601849118
 20
882.6990853843338
 30
0.0
  0
ENDBLK
  5
313
330
311
100
AcDbEntity
  8
0
100
AcDbBlockEnd
  0
BLOCK
  5
321
330
320
100
AcDbEntity
  8
0
100
AcDbBlockBegin
  2
*D14
 70
     1
 10
0.0
 20
0.0
 30
0.0
  3
*D14
  1
*D14
  0
LINE
  5
323
330
320
100
AcDbEntity
  8
0 ... Seuil ... Rectangle ... Cotes Angles
 62
     0
370
    -2
100
AcDbLine
 10
477.0610778735942
 20
1359.595877979536
 30
0.0
 11
477.0610778736244
 21
1410.783060306061
 31
0.0
  0
LINE
  5
324
330
320
100
AcDbEntity
  8
0 ... Seuil ... Rectangle ... Cotes Angles
 62
     0
370
    -2
100
AcDbLine
 10
482.0801770613114
 20
1359.595877979533
 30
0.0
 11
482.0801770613415
 21
1410.783060306058
 31
0.0
  0
LINE
  5
325
330
320
100
AcDbEntity
  8
0 ... Seuil ... Rectangle ... Cotes Angles
 62
     0
370
    -2
100
AcDbLine
 10
457.0610778736067
 20
1380.783060306073
 30
0.0
 11
497.0610778736303
 21
1420.783060306049
 31
0.0
  0
LINE
  5
326
330
320
100
AcDbEntity
  8
0 ... Seuil ... Rectangle ... Cotes Angles
 62
     0
370
    -2
100
AcDbLine
 10
502.0801770613474
 20
1420.783060306046
 30
0.0
 11
462.0801770613239
 21
1380.78306030607
 31
0.0
  0
MTEXT
  5
327
330
320
100
AcDbEntity
  8
0 ... Seuil ... Rectangle ... Cotes Angles
 62
     0
100
AcDbMText
 10
479.5706274674932
 20
1428.283060306059
 30
0.0
 40
20.0
 41
0.0
 46
0.0
 71
     5
 72
     1
  1
\A1;5.0191
  7
QCADDimTextStyle
 73
     1
 44
1.0
  0
POINT
  5
328
330
320
100
AcDbEntity
  8
Defpoints
 62
     0
100
AcDbPoint
 10
477.0610778735913
 20
1354.595877979536
 30
0.0
  0
POINT
  5
329
330
320
100
AcDbEntity
  8
Defpoints
 62
     0
100
AcDbPoint
 10
482.0801770613084
 20
1354.595877979533
 30
0.0
  0
POINT
  5
32A
330
320
100
AcDbEntity
  8
Defpoints
 62
     0
100
AcDbPoint
 10
482.0801770613356
 20
1400.783060306058
 30
0.0
  0
ENDBLK
  5
322
330
320
100
AcDbEntity
  8
0
100
AcDbBlockEnd
  0
BLOCK
  5
32C
330
32B
100
AcDbEntity
  8
0
100
AcDbBlockBegin
  2
*D15
 70
     1
 10
0.0
 20
0.0
 30
0.0
  3
*D15
  1
*D15
  0
LINE
  5
32E
330
32B
100
AcDbEntity
  8
0 ... Seuil ... Rectangle ... Cotes Angles
 62
     0
370
    -2
100
AcDbLine
 10
436.7084646387913
 20
1649.595877979534
 30
0.0
 11
436.7084646387862
 21
1740.678156051106
 31
0.0
  0
LINE
  5
32F
330
32B
100
AcDbEntity
  8
0 ... Seuil ... Rectangle ... Cotes Angles
 62
     0
370
    -2
100
AcDbLine
 10
456.7084646387904
 20
1649.595877979535
 30
0.0
 11
456.7084646387852
 21
1740.678156051107
 31
0.0
  0
LINE
  5
330
330
32B
100
AcDbEntity
  8
0 ... Seuil ... Rectangle ... Cotes Angles
 62
     0
370
    -2
100
AcDbLine
 10
436.7084646387867
 20
1730.678156051106
 30
0.0
 11
456.7084646387858
 21
1730.678156051107
 31
0.0
  0
LINE
  5
331
330
32B
100
AcDbEntity
  8
0 ... Seuil ... Rectangle ... Cotes Angles
 62
     0
370
    -2
100
AcDbLine
 10
456.7084646387856
 20
1750.678156051107
 30
0.0
 11
416.7084646387879
 21
1710.678156051105
 31
0.0
  0
LINE
  5
332
330
32B
100
AcDbEntity
  8
0 ... Seuil ... Rectangle ... Cotes Angles
 62
     0
370
    -2
100
AcDbLine
 10
436.7084646387869
 20
1710.678156051106
 30
0.0
 11
476.7084646387847
 21
1750.678156051108
 31
0.0
  0
MTEXT
  5
333
330
32B
100
AcDbEntity
  8
0 ... Seuil ... Rectangle ... Cotes Angles
 62
     0
100
AcDbMText
 10
482.5000924765523
 20
1745.678156051108
 30
0.0
 40
20.0
 41
0.0
 46
0.0
 71
     5
 72
     1
  1
\A1;20
  7
QCADDimTextStyle
 73
     1
 44
1.0
  0
POINT
  5
334
330
32B
100
AcDbEntity
  8
Defpoints
 62
     0
100
AcDbPoint
 10
436.7084646387916
 20
1644.595877979534
 30
0.0
  0
POINT
  5
335
330
32B
100
AcDbEntity
  8
Defpoints
 62
     0
100
AcDbPoint
 10
456.7084646387907
 20
1644.595877979535
 30
0.0
  0
POINT
  5
336
330
32B
100
AcDbEntity
  8
Defpoints
 62
     0
100
AcDbPoint
 10
456.7084646387858
 20
1730.678156051107
 30
0.0
  0
ENDBLK
  5
32D
330
32B
100
AcDbEntity
  8
0
100
AcDbBlockEnd
  0
BLOCK
  5
338
330
337
100
AcDbEntity
  8
0
100
AcDbBlockBegin
  2
*D16
 70
     1
 10
0.0
 20
0.0
 30
0.0
  3
*D16
  1
*D16
  0
LINE
  5
33A
330
337
100
AcDbEntity
  8
0 ... Seuil ... Rectangle ... Cotes Angles
 62
     0
370
    -2
100
AcDbLine
 10
408.3547346956675
 20
1628.595877979534
 30
0.0
 11
408.3547346956675
 21
1700.678156051109
 31
0.0
  0
LINE
  5
33B
330
337
100
AcDbEntity
  8
0 ... Seuil ... Rectangle ... Cotes Angles
 62
     0
370
    -2
100
AcDbLine
 10
436.7084646387916
 20
1649.595877979534
 30
0.0
 11
436.7084646387916
 21
1700.678156051109
 31
0.0
  0
LINE
  5
33C
330
337
100
AcDbEntity
  8
0 ... Seuil ... Rectangle ... Cotes Angles
 62
     0
370
    -2
100
AcDbLine
 10
408.3547346956675
 20
1690.678156051109
 30
0.0
 11
436.7084646387916
 21
1690.678156051109
 31
0.0
  0
LINE
  5
33D
330
337
100
AcDbEntity
  8
0 ... Seuil ... Rectangle ... Cotes Angles
 62
     0
370
    -2
100
AcDbLine
 10
428.3547346956675
 20
1710.678156051109
 30
0.0
 11
388.3547346956675
 21
1670.678156051109
 31
0.0
  0
LINE
  5
33E
330
337
100
AcDbEntity
  8
0 ... Seuil ... Rectangle ... Cotes Angles
 62
     0
370
    -2
100
AcDbLine
 10
416.7084646387916
 20
1670.678156051109
 30
0.0
 11
456.7084646387916
 21
1710.678156051109
 31
0.0
  0
MTEXT
  5
33F
330
337
100
AcDbEntity
  8
0 ... Seuil ... Rectangle ... Cotes Angles
 62
     0
100
AcDbMText
 10
422.5315996672296
 20
1718.178156051109
 30
0.0
 40
20.0
 41
0.0
 46
0.0
 71
     5
 72
     1
  1
\A1;28.3537
  7
QCADDimTextStyle
 73
     1
 44
1.0
  0
POINT
  5
340
330
337
100
AcDbEntity
  8
Defpoints
 62
     0
100
AcDbPoint
 10
408.3547346956675
 20
1623.595877979534
 30
0.0
  0
POINT
  5
341
330
337
100
AcDbEntity
  8
Defpoints
 62
     0
100
AcDbPoint
 10
436.7084646387916
 20
1644.595877979534
 30
0.0
  0
POINT
  5
342
330
337
100
AcDbEntity
  8
Defpoints
 62
     0
100
AcDbPoint
 10
436.7084646387916
 20
1690.678156051109
 30
0.0
  0
ENDBLK
  5
339
330
337
100
AcDbEntity
  8
0
100
AcDbBlockEnd
  0
ENDSEC
  0
SECTION
  2
ENTITIES
  0
LINE
  5
37
330
1B3
100
AcDbEntity
  8
0 ... Seuil ... Rectangle
100
AcDbLine
 10
436.7084646387907
 20
1644.595877979533
 30
0.0
 11
456.7084646387907
 21
1644.595877979533
 31
0.0
  0
LINE
  5
38
330
1B3
100
AcDbEntity
  8
0 ... Seuil ... Rectangle
100
AcDbLine
 10
488.3793608351753
 20
1282.595877979533
 30
0.0
 11
456.7084646387907
 21
1644.595877979533
 31
0.0
  0
LINE
  5
39
330
1B3
100
AcDbEntity
  8
0 ... Seuil ... Rectangle
100
AcDbLine
 10
486.8736310788604
 20
1282.595877979533
 30
0.0
 11
498.8736310788604
 21
1282.595877979533
 31
0.0
  0
LINE
  5
3A
330
1B3
100
AcDbEntity
  8
0 ... Seuil ... Rectangle
100
AcDbLine
 10
436.7084646387907
 20
1643.095877979533
 30
0.0
 11
456.8396976340796
 21
1643.095877979533
 31
0.0
  0
LINE
  5
3B
330
1B3
100
AcDbEntity
  8
0 ... Seuil ... Rectangle
100
AcDbLine
 10
488.2481278398864
 20
1284.095877979533
 30
0.0
 11
495.2523107353004
 21
1284.095877979533
 31
0.0
  0
LINE
  5
3C
330
1B3
100
AcDbEntity
  8
0 ... Seuil ... Rectangle
100
AcDbLine
 10
436.7084646387907
 20
1623.595877979533
 30
0.0
 11
436.7084646387907
 21
1644.595877979533
 31
0.0
  0
LINE
  5
3D
330
1B3
100
AcDbEntity
  8
0 ... Seuil ... Rectangle
100
AcDbLine
 10
491.8025632669955
 20
1289.666945791401
 30
0.0
 11
498.8736310788604
 21
1282.595877979533
 31
0.0
  0
LINE
  5
3E
330
1B3
100
AcDbEntity
  8
0 ... Seuil ... Rectangle
100
AcDbLine
 10
490.7419030952155
 20
1288.606285619621
 30
0.0
 11
495.2523107353004
 21
1284.095877979533
 31
0.0
  0
LINE
  5
3F
330
1B3
100
AcDbEntity
  8
0 ... Seuil ... Rectangle
100
AcDbLine
 10
490.7419030952155
 20
1288.606285619621
 30
0.0
 11
491.8025632669955
 21
1289.666945791401
 31
0.0
  0
LINE
  5
40
330
1B3
100
AcDbEntity
  8
0 ... Seuil ... Rectangle
100
AcDbLine
 10
431.8891851841413
 20
1354.595877979533
 30
0.0
 11
482.0801770613084
 21
1354.595877979533
 31
0.0
  0
LINE
  5
41
330
1B3
100
AcDbEntity
  8
0 ... Seuil ... Rectangle
100
AcDbLine
 10
431.8891851841413
 20
1354.595877979535
 30
0.0
 11
408.3547346956675
 21
1623.595877979533
 31
0.0
  0
DIMENSION
  5
43
330
1B3
100
AcDbEntity
  8
0 ... Seuil ... Rectangle ... Cotes Angles
100
AcDbDimension
280
     0
  2
*D1
 10
378.2600599745597
 20
1350.99816323504
 30
0.0
 11
383.4657768708975
 21
1486.583229754649
 31
0.0
 70
    33
 71
     5
 42
269.706579463917
 73
     0
 74
     0
 75
     0
  3
QCADDimStyle
100
AcDbAlignedDimension
 13
408.3547346956675
 23
1623.595877979534
 33
0.0
 14
427.8647066619483
 24
1354.595877979532
 34
0.0
1001
ACAD
1000
DSTYLE
1002
{
1070
   279
1070
     2
1070
    41
1040
20.0
1070
    79
1070
     2
1070
   176
1070
     0
1070
   177
1070
     0
1070
   178
1070
     0
1070
    44
1040
10.0
1070
    42
1040
5.0
1070
   147
1040
5.0
1070
   142
1040
20.0
1070
   140
1040
20.0
1070
    78
1070
     8
1002
}
  0
DIMENSION
  5
44
330
1B3
100
AcDbEntity
  8
0 ... Seuil ... Rectangle ... Cotes Angles
100
AcDbDimension
280
     0
  2
*D2
 10
324.3429221485053
 20
1623.595877979534
 30
0.0
 11
296.8429221485053
 21
1634.095877979534
 31
0.0
 70
    32
 71
     5
 42
21.0
 73
     0
 74
     0
 75
     0
  3
QCADDimStyle
100
AcDbAlignedDimension
 13
436.7084646387916
 23
1644.595877979534
 33
0.0
 14
408.3547346956675
 24
1623.595877979534
 34
0.0
 50
90.0
100
AcDbRotatedDimension
1001
ACAD
1000
DSTYLE
1002
{
1070
   279
1070
     2
1070
    41
1040
20.0
1070
    79
1070
     2
1070
   176
1070
     0
1070
   177
1070
     0
1070
   178
1070
     0
1070
    44
1040
10.0
1070
    42
1040
5.0
1070
   147
1040
5.0
1070
   142
1040
20.0
1070
   140
1040
20.0
1070
    78
1070
     8
1002
}
  0
DIMENSION
  5
45
330
1B3
100
AcDbEntity
  8
0 ... Seuil ... Rectangle ... Cotes Angles
100
AcDbDimension
280
     0
  2
*D3
 10
324.3429221485053
 20
1354.595877979532
 30
0.0
 11
309.3429221485053
 21
1489.095877979533
 31
0.0
 70
    32
 71
     5
 42
269.000000000002
 73
     0
 74
     0
 75
     0
  3
QCADDimStyle
100
AcDbAlignedDimension
 13
408.3547346956675
 23
1623.595877979534
 33
0.0
 14
427.8647066619483
 24
1354.595877979532
 34
0.0
 50
90.0
100
AcDbRotatedDimension
1001
ACAD
1000
DSTYLE
1002
{
1070
   279
1070
     2
1070
    41
1040
20.0
1070
    79
1070
     2
1070
   176
1070
     0
1070
   177
1070
     0
1070
   178
1070
     0
1070
    44
1040
10.0
1070
    42
1040
5.0
1070
   147
1040
5.0
1070
   142
1040
20.0
1070
   140
1040
20.0
1070
    78
1070
     8
1002
}
  0
DIMENSION
  5
46
330
1B3
100
AcDbEntity
  8
0 ... Seuil ... Rectangle ... Cotes Angles
100
AcDbDimension
280
     0
  2
*D4
 10
492.5000924765523
 20
1643.095877979535
 30
0.0
 11
520.0000924765523
 21
1643.845877979535
 31
0.0
 70
    32
 71
     5
 42
1.5
 73
     0
 74
     0
 75
     0
  3
QCADDimStyle
100
AcDbAlignedDimension
 13
456.7084646387907
 23
1644.595877979535
 33
0.0
 14
456.8396976340796
 24
1643.095877979535
 34
0.0
 50
90.0
100
AcDbRotatedDimension
1001
ACAD
1000
DSTYLE
1002
{
1070
   279
1070
     2
1070
    41
1040
20.0
1070
    79
1070
     2
1070
   176
1070
     0
1070
   177
1070
     0
1070
   178
1070
     0
1070
    44
1040
10.0
1070
    42
1040
5.0
1070
   147
1040
5.0
1070
   142
1040
20.0
1070
   140
1040
20.0
1070
    78
1070
     8
1002
}
  0
DIMENSION
  5
47
330
1B3
100
AcDbEntity
  8
0 ... Seuil ... Rectangle ... Cotes Angles
100
AcDbDimension
280
     0
  2
*D5
 10
464.7301088361237
 20
1552.908065249858
 30
0.0
 11
438.5179052426297
 21
1565.672092152399
 31
0.0
 70
   161
 71
     5
 42
50.00000000000166
 73
     0
 74
     0
 75
     0
  3
QCADDimStyle
100
AcDbAlignedDimension
 13
414.8737072670615
 23
1549.083680528198
 33
0.0
 14
464.6834421716485
 24
1553.441467665603
 34
0.0
1001
ACAD
1000
DSTYLE
1002
{
1070
   279
1070
     2
1070
    41
1040
20.0
1070
    79
1070
     2
1070
   176
1070
     0
1070
   177
1070
     0
1070
   178
1070
     0
1070
    44
1040
10.0
1070
    42
1040
5.0
1070
   147
1040
5.0
1070
   142
1040
20.0
1070
   140
1040
20.0
1070
    78
1070
     8
1002
}
  0
LINE
  5
48
330
1B3
100
AcDbEntity
  8
0 ... Seuil ... Rectangle
100
AcDbLine
 10
653.7907958238825
 20
1644.595877979533
 30
0.0
 11
2019.790795823882
 21
1644.595877979533
 31
0.0
  0
LINE
  5
49
330
1B3
100
AcDbEntity
  8
0 ... Seuil ... Rectangle
100
AcDbLine
 10
653.7907958238825
 20
1643.095877979533
 30
0.0
 11
2019.790795823882
 21
1643.095877979533
 31
0.0
  0
LINE
  5
4A
330
1B3
100
AcDbEntity
  8
0 ... Seuil ... Rectangle
100
AcDbLine
 10
653.7907958238825
 20
1644.595877979533
 30
0.0
 11
653.7907958238825
 21
1282.595877979535
 31
0.0
  0
LINE
  5
4B
330
1B3
100
AcDbEntity
  8
0 ... Seuil ... Rectangle
100
AcDbLine
 10
2019.790795823882
 20
1644.595877979533
 30
0.0
 11
2019.790795823882
 21
1282.595877979535
 31
0.0
  0
LINE
  5
4C
330
1B3
100
AcDbEntity
  8
0 ... Seuil ... Rectangle
100
AcDbLine
 10
652.2907958238825
 20
1354.595877979533
 30
0.0
 11
655.2907958238825
 21
1354.595877979533
 31
0.0
  0
LINE
  5
4D
330
1B3
100
AcDbEntity
  8
0 ... Seuil ... Rectangle
100
AcDbLine
 10
2018.290795823882
 20
1354.595877979533
 30
0.0
 11
2021.290795823882
 21
1354.595877979533
 31
0.0
  0
DIMENSION
  5
4E
330
1B3
100
AcDbEntity
  8
0 ... Seuil ... Rectangle ... Cotes Angles
100
AcDbDimension
280
     0
  2
*D6
 10
596.3842300145143
 20
1282.595877979534
 30
0.0
 11
581.3842300145143
 21
1463.595877979535
 31
0.0
 70
    32
 71
     5
 42
362.0000000000011
 73
     0
 74
     0
 75
     0
  3
QCADDimStyle
100
AcDbAlignedDimension
 13
456.7084646387907
 23
1644.595877979535
 33
0.0
 14
498.8736310788604
 24
1282.595877979534
 34
0.0
 50
90.0
100
AcDbRotatedDimension
1001
ACAD
1000
DSTYLE
1002
{
1070
   279
1070
     2
1070
    41
1040
20.0
1070
    79
1070
     2
1070
   176
1070
     0
1070
   177
1070
     0
1070
   178
1070
     0
1070
    44
1040
10.0
1070
    42
1040
5.0
1070
   147
1040
5.0
1070
   142
1040
20.0
1070
   140
1040
20.0
1070
    78
1070
     8
1002
}
  0
DIMENSION
  5
4F
330
1B3
100
AcDbEntity
  8
0 ... Seuil ... Rectangle ... Cotes Angles
100
AcDbDimension
280
     0
  2
*D7
 10
540.2633859606276
 20
1323.985632861309
 30
0.0
 11
553.8306023883706
 21
1345.218993341179
 31
0.0
 70
   161
 71
     5
 42
9.999999999998513
 73
     0
 74
     0
 75
     0
  3
QCADDimStyle
100
AcDbAlignedDimension
 13
491.8025632669955
 23
1289.6669457914
 33
0.0
 14
498.8736310788604
 24
1282.595877979536
 34
0.0
1001
ACAD
1000
DSTYLE
1002
{
1070
   279
1070
     2
1070
    41
1040
20.0
1070
    79
1070
     2
1070
   176
1070
     0
1070
   177
1070
     0
1070
   178
1070
     0
1070
    44
1040
10.0
1070
    42
1040
5.0
1070
   147
1040
5.0
1070
   142
1040
20.0
1070
   140
1040
20.0
1070
    78
1070
     8
1002
}
  0
DIMENSION
  5
50
330
1B3
100
AcDbEntity
  8
0 ... Seuil ... Rectangle ... Cotes Angles
100
AcDbDimension
280
     0
  2
*D8
 10
498.873631078873
 20
1245.731930545926
 30
0.0
 11
492.7564367069854
 21
1218.473681765834
 31
0.0
 70
   161
 71
     5
 42
12.0
 73
     0
 74
     0
 75
     0
  3
QCADDimStyle
100
AcDbAlignedDimension
 13
486.8736310788604
 23
1282.595877979532
 33
0.0
 14
498.8736310788604
 24
1282.595877979536
 34
0.0
1001
ACAD
1000
DSTYLE
1002
{
1070
   279
1070
     2
1070
    41
1040
20.0
1070
    79
1070
     2
1070
   176
1070
     0
1070
   177
1070
     0
1070
   178
1070
     0
1070
    44
1040
10.0
1070
    42
1040
5.0
1070
   147
1040
5.0
1070
   142
1040
20.0
1070
   140
1040
20.0
1070
    78
1070
     8
1002
}
  0
DIMENSION
  5
51
330
1B3
100
AcDbEntity
  8
0 ... Seuil ... Rectangle ... Cotes Angles
100
AcDbDimension
280
     0
  2
*D9
 10
631.6809683767005
 20
1354.595877979535
 30
0.0
 11
616.6809683767005
 21
1499.595877979535
 31
0.0
 70
    33
 71
     5
 42
289.9999999999989
 73
     0
 74
     0
 75
     0
  3
QCADDimStyle
100
AcDbAlignedDimension
 13
653.7907958238825
 23
1644.595877979534
 33
0.0
 14
653.7907958238825
 24
1354.595877979535
 34
0.0
1001
ACAD
1000
DSTYLE
1002
{
1070
   279
1070
     2
1070
    41
1040
20.0
1070
    79
1070
     2
1070
   176
1070
     0
1070
   177
1070
     0
1070
   178
1070
     0
1070
    44
1040
10.0
1070
    42
1040
5.0
1070
   147
1040
5.0
1070
   142
1040
20.0
1070
   140
1040
20.0
1070
    78
1070
     8
1002
}
  0
DIMENSION
  5
52
330
1B3
100
AcDbEntity
  8
0 ... Seuil ... Rectangle ... Cotes Angles
100
AcDbDimension
280
     0
  2
*D10
 10
2019.790795823882
 20
1694.61600032234
 30
0.0
 11
1336.790795823882
 21
1709.61600032234
 31
0.0
 70
    33
 71
     5
 42
1366.0
 73
     0
 74
     0
 75
     0
  3
QCADDimStyle
100
AcDbAlignedDimension
 13
653.7907958238825
 23
1644.595877979534
 33
0.0
 14
2019.790795823882
 24
1644.595877979533
 34
0.0
1001
ACAD
1000
DSTYLE
1002
{
1070
   279
1070
     2
1070
    41
1040
20.0
1070
    79
1070
     2
1070
   176
1070
     0
1070
   177
1070
     0
1070
   178
1070
     0
1070
    44
1040
10.0
1070
    42
1040
5.0
1070
   147
1040
5.0
1070
   142
1040
20.0
1070
   140
1040
20.0
1070
    78
1070
     8
1002
}
  0
LINE
  5
53
330
1B3
100
AcDbEntity
  8
0 ... Seuil ... Rectangle ... Cotes Angles
100
AcDbLine
 10
648.7907958238825
 20
1644.595877979533
 30
0.0
 11
557.2186270026923
 21
1644.595877979533
 31
0.0
  0
LINE
  5
54
330
1B3
100
AcDbEntity
  8
0 ... Seuil ... Rectangle ... Cotes Angles
100
AcDbLine
 10
557.2186270026923
 20
1282.595877979533
 30
0.0
 11
648.7907958238825
 21
1282.595877979533
 31
0.0
  0
LINE
  5
55
330
1B3
100
AcDbEntity
  8
0 ... Seuil ... Rectangle
100
AcDbLine
 10
655.2907958238825
 20
1643.095877979533
 30
0.0
 11
655.2907958238825
 21
1282.595877979535
 31
0.0
  0
LINE
  5
56
330
1B3
100
AcDbEntity
  8
0 ... Seuil ... Rectangle
100
AcDbLine
 10
2018.290795823882
 20
1643.095877979533
 30
0.0
 11
2018.290795823882
 21
1282.595877979535
 31
0.0
  0
DIMENSION
  5
57
330
1B3
100
AcDbEntity
  8
0 ... Seuil ... Rectangle ... Cotes Angles
100
AcDbDimension
280
     0
  2
*D11
 10
283.4521610377196
 20
1354.595877979532
 30
0.0
 11
268.4521610377196
 21
1499.595877979533
 31
0.0
 70
    32
 71
     5
 42
290.000000000002
 73
     0
 74
     0
 75
     0
  3
QCADDimStyle
100
AcDbAlignedDimension
 13
436.7084646387916
 23
1644.595877979534
 33
0.0
 14
427.8647066619483
 24
1354.595877979532
 34
0.0
 50
90.0
100
AcDbRotatedDimension
1001
ACAD
1000
DSTYLE
1002
{
1070
   279
1070
     2
1070
    41
1040
20.0
1070
    79
1070
     2
1070
   176
1070
     0
1070
   177
1070
     0
1070
   178
1070
     0
1070
    44
1040
10.0
1070
    42
1040
5.0
1070
   147
1040
5.0
1070
   142
1040
20.0
1070
   140
1040
20.0
1070
    78
1070
     8
1002
}
  0
MTEXT
  5
58
330
1B3
100
AcDbEntity
  8
0 ... Seuil ... Rectangle ... Cotes Angles
100
AcDbMText
 10
522.5000924765513
 20
2053.71578581248
 30
0.0
 40
100.0
 41
0.0
 46
0.0
 71
     1
 72
     1
  1
(Acier - RAL 7016 - paisseur 15/10e)
  7
textstyle11
 73
     1
 44
1.0
  0
MTEXT
  5
59
330
1B3
100
AcDbEntity
  8
0 ... Seuil ... Rectangle ... Cotes Angles
100
AcDbMText
 10
982.9872810837795
 20
1101.51441647978
 30
0.0
 40
50.0
 41
0.0
 46
0.0
 71
     1
 72
     1
  1
Relevs
  7
textstyle12
 73
     1
 44
1.0
  0
LEADER
  5
5A
330
1B3
100
AcDbEntity
  8
0 ... Seuil ... Rectangle ... Cotes Angles
100
AcDbLeader
  3
QCADDimStyle
 76
     2
 10
1038.004067505201
 20
959.1993847103925
 30
0.0
 10
1103.660033745402
 20
1026.047617920608
 30
0.0
  0
LEADER
  5
5B
330
1B3
100
AcDbEntity
  8
0 ... Seuil ... Rectangle ... Cotes Angles
100
AcDbLeader
  3
QCADDimStyle
 76
     4
 10
1627.994038662387
 20
862.9236689527315
 30
0.0
 10
1724.946177574335
 20
982.0773960627334
 30
0.0
 10
1549.619979112474
 20
1035.980272612498
 30
0.0
 10
1103.660033745402
 20
1026.047617920608
 30
0.0
  0
LEADER
  5
5C
330
1B3
100
AcDbEntity
  8
0 ... Seuil ... Rectangle ... Cotes Angles
100
AcDbLeader
  3
QCADDimStyle
 76
     2
 10
1900.017222459549
 20
1643.095877979533
 30
0.0
 10
1101.339550883547
 20
1115.034652525477
 30
0.0
  0
LEADER
  5
5D
330
1B3
100
AcDbEntity
  8
0 ... Seuil ... Rectangle ... Cotes Angles
100
AcDbLeader
  3
QCADDimStyle
 76
     2
 10
2018.290795823882
 20
1533.911785375826
 30
0.0
 10
1101.339550883547
 20
1115.034652525477
 30
0.0
  0
LEADER
  5
5E
330
1B3
100
AcDbEntity
  8
0 ... Seuil ... Rectangle ... Cotes Angles
100
AcDbLeader
  3
QCADDimStyle
 76
     2
 10
655.2907958238825
 20
1608.502762279127
 30
0.0
 10
1101.339550883547
 20
1115.034652525477
 30
0.0
  0
LINE
  5
5F
330
1B3
100
AcDbEntity
  8
0 ... Seuil ... Rectangle
100
AcDbLine
 10
2021.290795823882
 20
1354.595877979533
 30
0.0
 11
2021.290795823882
 21
1282.595877979533
 31
0.0
  0
LINE
  5
60
330
1B3
100
AcDbEntity
  8
0 ... Seuil ... Rectangle
100
AcDbLine
 10
2021.290795823882
 20
1282.595877979533
 30
0.0
 11
2019.790795823882
 21
1282.595877979533
 31
0.0
  0
LINE
  5
61
330
1B3
100
AcDbEntity
  8
0 ... Seuil ... Rectangle
100
AcDbLine
 10
652.2907958238825
 20
1354.595877979533
 30
0.0
 11
652.2907958238825
 21
1282.595877979533
 31
0.0
  0
LINE
  5
62
330
1B3
100
AcDbEntity
  8
0 ... Seuil ... Rectangle
100
AcDbLine
 10
652.2907958238825
 20
1282.595877979533
 30
0.0
 11
653.7907958238825
 21
1282.595877979533
 31
0.0
  0
LINE
  5
63
330
1B3
100
AcDbEntity
  8
0 ... Seuil ... Rectangle
100
AcDbLine
 10
486.8736310788604
 20
1282.595877979533
 30
0.0
 11
477.0610778735913
 21
1354.595877979533
 31
0.0
  0
LINE
  5
64
330
1B3
100
AcDbEntity
  8
0 ... Seuil ... Rectangle
100
AcDbLine
 10
653.7907958238834
 20
1765.124913653719
 30
0.0
 11
2019.790795823882
 21
1765.124913653719
 31
0.0
  0
LINE
  5
65
330
1B3
100
AcDbEntity
  8
0 ... Seuil ... Rectangle
100
AcDbLine
 10
652.2907958238825
 20
1777.124913653719
 30
0.0
 11
652.2907958238825
 21
1783.837738934365
 31
0.0
  0
LINE
  5
66
330
1B3
100
AcDbEntity
  8
0 ... Seuil ... Rectangle
100
AcDbLine
 10
653.7907958238825
 20
1778.124913653719
 30
0.0
 11
653.7907958238825
 21
1849.257137599519
 31
0.0
  0
LINE
  5
67
330
1B3
100
AcDbEntity
  8
0 ... Seuil ... Rectangle
100
AcDbLine
 10
655.2907958238825
 20
1777.124913653719
 30
0.0
 11
655.2907958238825
 21
1783.837738934365
 31
0.0
  0
LINE
  5
68
330
1B3
100
AcDbEntity
  8
0 ... Seuil ... Rectangle
100
AcDbLine
 10
2019.790795823882
 20
1778.124913653719
 30
0.0
 11
2019.790795823882
 21
1849.257137599519
 31
0.0
  0
LINE
  5
69
330
1B3
100
AcDbEntity
  8
0 ... Seuil ... Rectangle
100
AcDbLine
 10
2018.290795823882
 20
1777.124913653719
 30
0.0
 11
2018.290795823882
 21
1849.257137599519
 31
0.0
  0
LINE
  5
6A
330
1B3
100
AcDbEntity
  8
0 ... Seuil ... Rectangle
100
AcDbLine
 10
2021.290795823882
 20
1777.124913653719
 30
0.0
 11
2021.290795823882
 21
1783.837738934365
 31
0.0
  0
LINE
  5
6B
330
1B3
100
AcDbEntity
  8
0 ... Seuil ... Rectangle
100
AcDbLine
 10
653.2907958238834
 20
1784.837738934365
 30
0.0
 11
653.7907958238834
 21
1784.837738934365
 31
0.0
  0
LINE
  5
6C
330
1B3
100
AcDbEntity
  8
0 ... Seuil ... Rectangle
100
AcDbLine
 10
653.7907958238834
 20
1777.124913653719
 30
0.0
 11
652.2907958238825
 21
1777.124913653719
 31
0.0
  0
LINE
  5
6D
330
1B3
100
AcDbEntity
  8
0 ... Seuil ... Rectangle
100
AcDbLine
 10
2020.290795823882
 20
1784.837738934365
 30
0.0
 11
2019.790795823882
 21
1784.837738934365
 31
0.0
  0
LINE
  5
6E
330
1B3
100
AcDbEntity
  8
0 ... Seuil ... Rectangle
100
AcDbLine
 10
2019.790795823882
 20
1777.124913653719
 30
0.0
 11
2021.290795823882
 21
1777.124913653719
 31
0.0
  0
LINE
  5
6F
330
1B3
100
AcDbEntity
  8
0 ... Seuil ... Rectangle
100
AcDbLine
 10
463.3665504031214
 20
1551.283039588457
 30
0.0
 11
463.2358167889993
 21
1552.777331635594
 31
0.0
  0
LINE
  5
70
330
1B3
100
AcDbEntity
  8
0 ... Seuil ... Rectangle
100
AcDbLine
 10
1817.885642119556
 20
890.9523751151385
 30
0.0
 11
2204.885642119556
 21
890.9523751151385
 31
0.0
  0
LINE
  5
71
330
1B3
100
AcDbEntity
  8
0 ... Seuil ... Rectangle
100
AcDbLine
 10
2207.885642119556
 20
893.9523751151385
 30
0.0
 11
2207.885642119556
 21
1190.952375115138
 31
0.0
  0
LINE
  5
72
330
1B3
100
AcDbEntity
  8
0 ... Seuil ... Rectangle
100
AcDbLine
 10
1817.885642119556
 20
895.4523751151385
 30
0.0
 11
2200.385642119556
 21
895.4523751151385
 31
0.0
  0
LINE
  5
73
330
1B3
100
AcDbEntity
  8
0 ... Seuil ... Rectangle
100
AcDbLine
 10
2203.385642119556
 20
898.4523751151385
 30
0.0
 11
2203.385642119556
 21
1190.952375115138
 31
0.0
  0
ARC
  5
74
330
1B3
100
AcDbEntity
  8
0 ... Seuil ... Rectangle
100
AcDbCircle
 10
2200.385642119556
 20
898.4523751151385
 30
0.0
 40
3.0
100
AcDbArc
 50
270.0
 51
0.0
  0
ARC
  5
75
330
1B3
100
AcDbEntity
  8
0 ... Seuil ... Rectangle
100
AcDbCircle
 10
2204.885642119556
 20
893.9523751151385
 30
0.0
 40
3.0
100
AcDbArc
 50
270.0
 51
0.0
  0
LINE
  5
76
330
1B3
100
AcDbEntity
  8
0 ... Seuil ... Rectangle
100
AcDbLine
 10
2394.37035274617
 20
789.2977686320426
 30
0.0
 11
2811.37035274617
 21
789.2977686320426
 31
0.0
  0
LINE
  5
77
330
1B3
100
AcDbEntity
  8
0 ... Seuil ... Rectangle
100
AcDbLine
 10
2814.37035274617
 20
792.2977686320426
 30
0.0
 11
2814.37035274617
 21
1089.297768632043
 31
0.0
  0
LINE
  5
78
330
1B3
100
AcDbEntity
  8
0 ... Seuil ... Rectangle
100
AcDbLine
 10
2809.87035274617
 20
796.7977686320426
 30
0.0
 11
2809.87035274617
 21
1089.297768632043
 31
0.0
  0
LINE
  5
79
330
1B3
100
AcDbEntity
  8
0 ... Seuil ... Rectangle
100
AcDbLine
 10
2394.37035274617
 20
793.7977686320426
 30
0.0
 11
2806.87035274617
 21
793.7977686320426
 31
0.0
  0
LINE
  5
7A
330
1B3
100
AcDbEntity
  8
0 ... Seuil ... Rectangle
100
AcDbLine
 10
2806.87035274617
 20
1089.297768632043
 30
0.0
 11
2394.37035274617
 21
1089.297768632043
 31
0.0
  0
ARC
  5
7B
330
1B3
100
AcDbEntity
  8
0 ... Seuil ... Rectangle
100
AcDbCircle
 10
2806.87035274617
 20
796.7977686320426
 30
0.0
 40
3.0
100
AcDbArc
 50
270.0
 51
0.0
  0
ARC
  5
7C
330
1B3
100
AcDbEntity
  8
0 ... Seuil ... Rectangle
100
AcDbCircle
 10
2811.37035274617
 20
792.2977686320426
 30
0.0
 40
3.0
100
AcDbArc
 50
270.0
 51
0.0
  0
LINE
  5
7D
330
1B3
100
AcDbEntity
  8
0 ... Seuil ... Rectangle
100
AcDbLine
 10
2806.87035274617
 20
793.7977686320426
 30
0.0
 11
2806.87035274617
 21
1089.297768632043
 31
0.0
  0
LINE
  5
7E
330
1B3
100
AcDbEntity
  8
0 ... Seuil ... Rectangle
100
AcDbLine
 10
2809.87035274617
 20
1089.297768632043
 30
0.0
 11
2814.37035274617
 21
1089.297768632043
 31
0.0
  0
LINE
  5
7F
330
1B3
100
AcDbEntity
  8
0 ... Seuil ... Rectangle
100
AcDbLine
 10
1791.048826008021
 20
597.5629339328475
 30
0.0
 11
2208.048826008021
 21
597.5629339328475
 31
0.0
  0
LINE
  5
80
330
1B3
100
AcDbEntity
  8
0 ... Seuil ... Rectangle
100
AcDbLine
 10
2211.048826008021
 20
597.5629339328475
 30
0.0
 11
2211.048826008021
 21
747.5629339328475
 31
0.0
  0
LINE
  5
81
330
1B3
100
AcDbEntity
  8
0 ... Seuil ... Rectangle
100
AcDbLine
 10
2215.548826008021
 20
597.5629339328475
 30
0.0
 11
2215.548826008021
 21
747.5629339328475
 31
0.0
  0
LINE
  5
82
330
1B3
100
AcDbEntity
  8
0 ... Seuil ... Rectangle
100
AcDbLine
 10
2206.548826008021
 20
605.0629339328475
 30
0.0
 11
2206.548826008021
 21
747.5629339328475
 31
0.0
  0
LINE
  5
83
330
1B3
100
AcDbEntity
  8
0 ... Seuil ... Rectangle
100
AcDbLine
 10
1791.048826008021
 20
602.0629339328475
 30
0.0
 11
2203.548826008021
 21
602.0629339328475
 31
0.0
  0
ARC
  5
84
330
1B3
100
AcDbEntity
  8
0 ... Seuil ... Rectangle
100
AcDbCircle
 10
2203.548826008021
 20
605.0629339328475
 30
0.0
 40
3.0
100
AcDbArc
 50
270.0
 51
0.0
  0
ARC
  5
85
330
1B3
100
AcDbEntity
  8
0 ... Seuil ... Rectangle
100
AcDbCircle
 10
2211.048826008021
 20
747.5629339328475
 30
0.0
 40
4.5
100
AcDbArc
 50
0.0
 51
180.0
  0
ARC
  5
86
330
1B3
100
AcDbEntity
  8
0 ... Seuil ... Rectangle
100
AcDbCircle
 10
2208.048826008021
 20
600.5629339328475
 30
0.0
 40
3.0
100
AcDbArc
 50
270.0
 51
0.0
  0
LINE
  5
87
330
1B3
100
AcDbEntity
  8
0 ... Seuil ... Rectangle
100
AcDbLine
 10
2211.048826008021
 20
597.5629339328475
 30
0.0
 11
2215.548826008021
 21
597.5629339328475
 31
0.0
  0
LINE
  5
88
330
1B3
100
AcDbEntity
  8
0 ... Seuil ... Rectangle
100
AcDbLine
 10
2206.548826008021
 20
747.5629339328475
 30
0.0
 11
2206.548826008021
 21
822.9855960246766
 31
0.0
  0
LINE
  5
89
330
1B3
100
AcDbEntity
  8
0 ... Seuil ... Rectangle
100
AcDbLine
 10
2211.048826008021
 20
752.0629339328475
 30
0.0
 11
2211.048826008021
 21
822.9855960246755
 31
0.0
  0
LINE
  5
8A
330
1B3
100
AcDbEntity
  8
0 ... Seuil ... Rectangle
100
AcDbLine
 10
2206.548826008021
 20
822.9855960246766
 30
0.0
 11
2211.048826008021
 21
822.9855960246766
 31
0.0
  0
LINE
  5
8B
330
1B3
100
AcDbEntity
  8
0 ... Seuil ... Rectangle
100
AcDbLine
 10
1621.667601849118
 20
882.6990853843336
 30
0.0
 11
1621.667601849118
 21
803.6154165583505
 31
0.0
  0
LINE
  5
8C
330
1B3
100
AcDbEntity
  8
0 ... Seuil ... Rectangle
100
AcDbLine
 10
453.6676018491165
 20
700.5123263860542
 30
0.0
 11
1620.754757591867
 21
802.6192218602596
 31
0.0
  0
LINE
  5
8D
330
1B3
100
AcDbEntity
  8
0 ... Seuil ... Rectangle
100
AcDbLine
 10
453.6676018491166
 20
706.5352454113136
 30
0.0
 11
453.6676018491166
 21
658.5352454113136
 31
0.0
  0
LINE
  5
8E
330
1B3
100
AcDbEntity
  8
0 ... Seuil ... Rectangle
100
AcDbLine
 10
1615.667601849118
 20
882.6990853843336
 30
0.0
 11
1615.667601849118
 21
802.1741534031776
 31
0.0
  0
LINE
  5
8F
330
1B3
100
AcDbEntity
  8
0 ... Seuil ... Rectangle
100
AcDbLine
 10
459.6676018491166
 20
701.0372583672096
 30
0.0
 11
459.6676018491166
 21
673.0205267855513
 31
0.0
  0
LINE
  5
90
330
1B3
100
AcDbEntity
  8
0 ... Seuil ... Rectangle
100
AcDbLine
 10
1525.667601849118
 20
882.6990853843336
 30
0.0
 11
1621.667601849118
 21
882.6990853843336
 31
0.0
  0
LINE
  5
91
330
1B3
100
AcDbEntity
  8
0 ... Seuil ... Rectangle
100
AcDbLine
 10
481.9518730965783
 20
686.8195166587743
 30
0.0
 11
453.6676018491166
 21
658.5352454113136
 31
0.0
  0
LINE
  5
92
330
1B3
100
AcDbEntity
  8
0 ... Seuil ... Rectangle
100
AcDbLine
 10
477.7092324094583
 20
691.0621573458943
 30
0.0
 11
459.6676018491153
 21
673.0205267855513
 31
0.0
  0
LINE
  5
93
330
1B3
100
AcDbEntity
  8
0 ... Seuil ... Rectangle
100
AcDbLine
 10
477.7092324094583
 20
691.0621573458943
 30
0.0
 11
481.9518730965783
 21
686.8195166587743
 31
0.0
  0
LINE
  5
94
330
1B3
100
AcDbEntity
  8
0 ... Seuil ... Rectangle
100
AcDbLine
 10
645.6676018491166
 20
918.0741172916996
 30
0.0
 11
645.6676018491166
 21
717.3101497830296
 31
0.0
  0
LINE
  5
95
330
1B3
100
AcDbEntity
  8
0 ... Seuil ... Rectangle
100
AcDbLine
 10
645.6676018491185
 20
918.0741172917014
 30
0.0
 11
1525.667601849118
 21
995.0641411945155
 31
0.0
  0
LINE
  5
96
330
1B3
100
AcDbEntity
  8
0 ... Seuil ... Rectangle
100
AcDbLine
 10
1525.667601849118
 20
995.0641411945155
 30
0.0
 11
1525.667601849118
 21
882.6990853843336
 31
0.0
  0
LINE
  5
97
330
1B3
100
AcDbEntity
  8
0 ... Seuil ... Rectangle
100
AcDbLine
 10
453.6676018491153
 20
706.5352454113136
 30
0.0
 11
645.6676018491166
 21
749.4323845844185
 31
0.0
  0
DIMENSION
  5
99
330
1B3
100
AcDbEntity
  8
0 ... Seuil ... Rectangle ... Cotes Angles
100
AcDbDimension
280
     0
  2
*D12
 10
453.6676018491162
 20
658.5352454113136
 30
0.0
 11
335.8647512016835
 21
814.4816698476765
 31
0.0
 70
   162
 71
     5
 42
1.658062789394612
 73
     0
 74
     0
 75
     0
  3
QCADDimStyle
100
AcDb2LineAngularDimension
 13
645.6676018491164
 23
723.3330688082913
 33
0.0
 14
453.667601849115
 24
706.5352454113155
 34
0.0
 15
453.6676018491166
 25
706.5352454113134
 35
0.0
 16
377.6610099423967
 26
829.760699670055
 36
0.0
1001
ACAD
1000
DSTYLE
1002
{
1070
   279
1070
     2
1070
    41
1040
20.0
1070
    79
1070
     2
1070
   176
1070
     0
1070
   177
1070
     0
1070
   178
1070
     0
1070
    44
1040
10.0
1070
    42
1040
5.0
1070
   147
1040
5.0
1070
   142
1040
20.0
1070
   140
1040
20.0
1070
    78
1070
     8
1002
}
  0
LEADER
  5
9A
330
1B3
100
AcDbEntity
  8
0 ... Seuil ... Rectangle ... Cotes Angles
100
AcDbLeader
  3
QCADDimStyle
 76
     3
 10
584.3638406677173
 20
735.7357388800785
 30
0.0
 10
617.5485207000424
 20
936.1159951688935
 30
0.0
 10
1103.660033745402
 20
1026.047617920608
 30
0.0
  0
MTEXT
  5
9B
330
1B3
100
AcDbEntity
  8
0 ... Seuil ... Rectangle ... Cotes Angles
100
AcDbMText
 10
662.0149883343813
 20
903.0464093486985
 30
0.0
 40
50.0
 41
0.0
 46
0.0
 71
     1
 72
     1
  1
A
  7
textstyle13
 73
     1
 44
1.0
  0
MTEXT
  5
9C
330
1B3
100
AcDbEntity
  8
0 ... Seuil ... Rectangle ... Cotes Angles
100
AcDbMText
 10
626.4358760652985
 20
698.0429529411213
 30
0.0
 40
50.0
 41
0.0
 46
0.0
 71
     1
 72
     1
  1
B
  7
textstyle14
 73
     1
 44
1.0
  0
MTEXT
  5
9D
330
1B3
100
AcDbEntity
  8
0 ... Seuil ... Rectangle ... Cotes Angles
100
AcDbMText
 10
2096.688830975514
 20
727.2564500104914
 30
0.0
 40
50.0
 41
0.0
 46
0.0
 71
     1
 72
     1
  1
B
  7
textstyle15
 73
     1
 44
1.0
  0
MTEXT
  5
9E
330
1B3
100
AcDbEntity
  8
0 ... Seuil ... Rectangle ... Cotes Angles
100
AcDbMText
 10
1537.377544069242
 20
863.7157858124815
 30
0.0
 40
50.0
 41
0.0
 46
0.0
 71
     1
 72
     1
  1
C
  7
textstyle16
 73
     1
 44
1.0
  0
MTEXT
  5
9F
330
1B3
100
AcDbEntity
  8
0 ... Seuil ... Rectangle ... Cotes Angles
100
AcDbMText
 10
2625.29278468761
 20
969.194413440259
 30
0.0
 40
50.0
 41
0.0
 46
0.0
 71
     1
 72
     1
  1
C
  7
textstyle17
 73
     1
 44
1.0
  0
MTEXT
  5
A0
330
1B3
100
AcDbEntity
  8
0 ... Seuil ... Rectangle ... Cotes Angles
100
AcDbMText
 10
2090.589554586526
 20
1034.253361589445
 30
0.0
 40
50.0
 41
0.0
 46
0.0
 71
     1
 72
     1
  1
A
  7
textstyle18
 73
     1
 44
1.0
  0
ARC
  5
A1
330
1B3
100
AcDbEntity
  8
0 ... Seuil ... Rectangle
100
AcDbCircle
 10
1620.667601849118
 20
803.6154165583505
 30
0.0
 40
1.0
100
AcDbArc
 50
274.9999999999746
 51
0.0
  0
DIMENSION
  5
A2
330
1B3
100
AcDbEntity
  8
0 ... Seuil ... Rectangle ... Cotes Angles
100
AcDbDimension
280
     0
  2
*D13
 10
1621.667601849118
 20
882.6990853843338
 30
0.0
 11
1673.52467675805
 21
755.1808310519207
 31
0.0
 70
   162
 71
     5
 42
1.658062789394614
 73
     0
 74
     0
 75
     0
  3
QCADDimStyle
100
AcDb2LineAngularDimension
 13
459.667601849115
 23
701.0372583672096
 33
0.0
 14
1620.754757591867
 24
802.6192218602605
 34
0.0
 15
1621.667601849118
 25
803.6154165583492
 35
0.0
 16
1666.466957842213
 26
730.0682667374078
 36
0.0
1001
ACAD
1000
DSTYLE
1002
{
1070
   279
1070
     2
1070
    41
1040
20.0
1070
    79
1070
     2
1070
   176
1070
     0
1070
   177
1070
     0
1070
   178
1070
     0
1070
    44
1040
10.0
1070
    42
1040
5.0
1070
   147
1040
5.0
1070
   142
1040
20.0
1070
   140
1040
20.0
1070
    78
1070
     8
1002
}
  0
LINE
  5
A3
330
1B3
100
AcDbEntity
  8
0 ... Seuil ... Rectangle
100
AcDbLine
 10
653.7907958238834
 20
1784.837738934365
 30
0.0
 11
654.2907958238825
 21
1784.837738934365
 31
0.0
  0
LINE
  5
A4
330
1B3
100
AcDbEntity
  8
0 ... Seuil ... Rectangle
100
AcDbLine
 10
653.7907958238834
 20
1849.257137599519
 30
0.0
 11
655.2907958238825
 21
1849.257137599519
 31
0.0
  0
LINE
  5
A5
330
1B3
100
AcDbEntity
  8
0 ... Seuil ... Rectangle
100
AcDbLine
 10
2019.290795823882
 20
1784.837738934365
 30
0.0
 11
2019.790795823882
 21
1784.837738934365
 31
0.0
  0
LINE
  5
A6
330
1B3
100
AcDbEntity
  8
0 ... Seuil ... Rectangle
100
AcDbLine
 10
2019.790795823882
 20
1849.257137599519
 30
0.0
 11
2018.290795823882
 21
1849.257137599519
 31
0.0
  0
ARC
  5
A7
330
1B3
100
AcDbEntity
  8
0 ... Seuil ... Rectangle
100
AcDbCircle
 10
2018.790795823882
 20
1778.124913653719
 30
0.0
 40
1.0
100
AcDbArc
 50
270.0
 51
0.0
  0
LINE
  5
A8
330
1B3
100
AcDbEntity
  8
0 ... Seuil ... Rectangle
100
AcDbLine
 10
2019.790795823882
 20
1765.124913653719
 30
0.0
 11
2019.790795823882
 21
1778.124913653719
 31
0.0
  0
LINE
  5
A9
330
1B3
100
AcDbEntity
  8
0 ... Seuil ... Rectangle
100
AcDbLine
 10
2018.290795823882
 20
1777.124913653719
 30
0.0
 11
2018.290795823882
 21
1783.837738934365
 31
0.0
  0
LINE
  5
AA
330
1B3
100
AcDbEntity
  8
0 ... Seuil ... Rectangle
100
AcDbLine
 10
655.2907958238825
 20
1821.165873646974
 30
0.0
 11
2018.290795823882
 21
1821.165873646974
 31
0.0
  0
LINE
  5
AB
330
1B3
100
AcDbEntity
  8
0 ... Seuil ... Rectangle
100
AcDbLine
 10
655.2907958238825
 20
1801.165873646974
 30
0.0
 11
2018.290795823882
 21
1801.165873646974
 31
0.0
  0
ARC
  5
AC
330
1B3
100
AcDbEntity
  8
0 ... Seuil ... Rectangle
100
AcDbCircle
 10
2019.290795823882
 20
1783.837738934365
 30
0.0
 40
1.0
100
AcDbArc
 50
90.0
 51
180.0
  0
ARC
  5
AD
330
1B3
100
AcDbEntity
  8
0 ... Seuil ... Rectangle
100
AcDbCircle
 10
2020.290795823882
 20
1783.837738934365
 30
0.0
 40
1.0
100
AcDbArc
 50
0.0
 51
90.0
  0
ARC
  5
AE
330
1B3
100
AcDbEntity
  8
0 ... Seuil ... Rectangle
100
AcDbCircle
 10
653.2907958238825
 20
1783.837738934365
 30
0.0
 40
1.0
100
AcDbArc
 50
89.99999999997394
 51
180.0
  0
ARC
  5
AF
330
1B3
100
AcDbEntity
  8
0 ... Seuil ... Rectangle
100
AcDbCircle
 10
654.2907958238825
 20
1783.837738934365
 30
0.0
 40
1.0
100
AcDbArc
 50
0.0
 51
90.0
  0
LINE
  5
B0
330
1B3
100
AcDbEntity
  8
0 ... Seuil ... Rectangle
100
AcDbLine
 10
655.2907958238825
 20
1777.124913653719
 30
0.0
 11
655.2907958238825
 21
1849.257137599519
 31
0.0
  0
ARC
  5
B1
330
1B3
100
AcDbEntity
  8
0 ... Seuil ... Rectangle
100
AcDbCircle
 10
654.7907958238825
 20
1778.124913653719
 30
0.0
 40
1.0
100
AcDbArc
 50
180.0
 51
270.0
  0
LINE
  5
B2
330
1B3
100
AcDbEntity
  8
0 ... Seuil ... Rectangle
100
AcDbLine
 10
653.7907958238834
 20
1765.124913653719
 30
0.0
 11
653.7907958238825
 21
1778.124913653719
 31
0.0
  0
DIMENSION
  5
B3
330
1B3
100
AcDbEntity
  8
0 ... Seuil ... Rectangle ... Cotes Angles
100
AcDbDimension
280
     0
  2
*D14
 10
482.0801770613356
 20
1400.783060306058
 30
0.0
 11
479.5706274674932
 21
1428.283060306059
 31
0.0
 70
    33
 71
     5
 42
5.019099187717131
 73
     0
 74
     0
 75
     0
  3
QCADDimStyle
100
AcDbAlignedDimension
 13
477.0610778735913
 23
1354.595877979536
 33
0.0
 14
482.0801770613084
 24
1354.595877979533
 34
0.0
1001
ACAD
1000
DSTYLE
1002
{
1070
   279
1070
     2
1070
    41
1040
20.0
1070
    79
1070
     2
1070
   176
1070
     0
1070
   177
1070
     0
1070
   178
1070
     0
1070
    44
1040
10.0
1070
    42
1040
5.0
1070
   147
1040
5.0
1070
   142
1040
20.0
1070
   140
1040
20.0
1070
    78
1070
     8
1002
}
  0
DIMENSION
  5
B4
330
1B3
100
AcDbEntity
  8
0 ... Seuil ... Rectangle ... Cotes Angles
100
AcDbDimension
280
     0
  2
*D15
 10
456.7084646387858
 20
1730.678156051107
 30
0.0
 11
482.5000924765523
 21
1745.678156051108
 31
0.0
 70
   161
 71
     5
 42
19.99999999999909
 73
     0
 74
     0
 75
     0
  3
QCADDimStyle
100
AcDbAlignedDimension
 13
436.7084646387916
 23
1644.595877979534
 33
0.0
 14
456.7084646387907
 24
1644.595877979535
 34
0.0
1001
ACAD
1000
DSTYLE
1002
{
1070
   279
1070
     2
1070
    41
1040
20.0
1070
    79
1070
     2
1070
   176
1070
     0
1070
   177
1070
     0
1070
   178
1070
     0
1070
    44
1040
10.0
1070
    42
1040
5.0
1070
   147
1040
5.0
1070
   142
1040
20.0
1070
   140
1040
20.0
1070
    78
1070
     8
1002
}
  0
DIMENSION
  5
B5
330
1B3
100
AcDbEntity
  8
0 ... Seuil ... Rectangle ... Cotes Angles
100
AcDbDimension
280
     0
  2
*D16
 10
436.7084646387916
 20
1690.678156051109
 30
0.0
 11
422.5315996672296
 21
1718.178156051109
 31
0.0
 70
    32
 71
     5
 42
28.35372994312411
 73
     0
 74
     0
 75
     0
  3
QCADDimStyle
100
AcDbAlignedDimension
 13
408.3547346956675
 23
1623.595877979534
 33
0.0
 14
436.7084646387916
 24
1644.595877979534
 34
0.0
100
AcDbRotatedDimension
1001
ACAD
1000
DSTYLE
1002
{
1070
   279
1070
     2
1070
    41
1040
20.0
1070
    79
1070
     2
1070
   176
1070
     0
1070
   177
1070
     0
1070
   178
1070
     0
1070
    44
1040
10.0
1070
    42
1040
5.0
1070
   147
1040
5.0
1070
   142
1040
20.0
1070
   140
1040
20.0
1070
    78
1070
     8
1002
}
  0
MTEXT
  5
B6
330
1B3
100
AcDbEntity
  8
0 ... Seuil ... Rectangle ... Cotes Angles
100
AcDbMText
 10
263.2827700687697
 20
2202.437066067153
 30
0.0
 40
100.0
 41
0.0
 46
0.0
 71
     1
 72
     1
  1
Salle Musique - Seuil - Dessus, Profil & Face\P
  7
textstyle19
 73
     1
 44
1.0
  0
LINE
  5
B7
330
1B3
100
AcDbEntity
  8
0 ... Seuil ... Rectangle
100
AcDbLine
 10
653.7907958238825
 20
1282.595877979533
 30
0.0
 11
2019.790795823882
 21
1282.595877979533
 31
0.0
  0
LINE
  5
B8
330
1B3
100
AcDbEntity
  8
0 ... Seuil ... Rectangle
100
AcDbLine
 10
654.7907958238825
 20
1777.124913653719
 30
0.0
 11
2018.790795823882
 21
1777.124913653719
 31
0.0
  0
LINE
  5
B9
330
1B3
100
AcDbEntity
  8
0 ... Seuil ... Rectangle
100
AcDbLine
 10
2019.790795823882
 20
1777.124913653719
 30
0.0
 11
2021.290795823882
 21
1777.124913653719
 31
0.0
  0
LINE
  5
BA
330
1B3
100
AcDbEntity
  8
0 ... Seuil ... Rectangle
100
AcDbLine
 10
408.3547346956675
 20
1623.595877979533
 30
0.0
 11
436.7084646387907
 21
1623.595877979533
 31
0.0
  0
ENDSEC
  0
SECTION
  2
OBJECTS
  0
DICTIONARY
  5
1A1
330
0
100
AcDbDictionary
281
     1
  3
ACAD_DETAILVIEWSTYLE
350
34B
  3
ACAD_GROUP
350
1A2
  3
ACAD_LAYOUT
350
1AE
  3
ACAD_MATERIAL
350
1D7
  3
ACAD_MLEADERSTYLE
350
1FF
  3
ACAD_MLINESTYLE
350
1AB
  3
ACAD_PLOTSETTINGS
350
1AD
  3
ACAD_PLOTSTYLENAME
350
1A3
  3
ACAD_SCALELIST
350
1DB
  3
ACAD_SECTIONVIEWSTYLE
350
34C
  3
ACAD_TABLESTYLE
350
1FD
  3
ACAD_VISUALSTYLE
350
1BE
  3
ACDB_RECOMPOSE_DATA
350
348
  3
AcDbVariableDictionary
350
344
  3
QCAD_OBJECTS
350
203
  0
SUN
  5
201
330
1BD
100
AcDbSun
 90
        1
290
     0
 63
     7
421
 16777215
 40
1.0
291
     1
 91
  2455826
 92
 54000000
292
     0
 70
     2
 71
   256
280
     1
  0
DICTIONARY
  5
34B
102
{ACAD_REACTORS
330
1A1
102
}
330
1A1
100
AcDbDictionary
281
     1
  0
DICTIONARY
  5
1A2
102
{ACAD_REACTORS
330
1A1
102
}
330
1A1
100
AcDbDictionary
281
     1
  0
DICTIONARY
  5
1AE
102
{ACAD_REACTORS
330
1A1
102
}
330
1A1
100
AcDbDictionary
281
     1
  3
Layout1
350
1B2
  3
Layout2
350
1BA
  3
Model
350
1B6
  0
DICTIONARY
  5
1D7
102
{ACAD_REACTORS
330
1A1
102
}
330
1A1
100
AcDbDictionary
281
     1
  3
ByBlock
350
1D9
  3
ByLayer
350
1D8
  3
Global
350
1DA
  0
DICTIONARY
  5
1FF
102
{ACAD_REACTORS
330
1A1
102
}
330
1A1
100
AcDbDictionary
281
     1
  3
Standard
350
200
  0
DICTIONARY
  5
1AB
102
{ACAD_REACTORS
330
1A1
102
}
330
1A1
100
AcDbDictionary
281
     1
  3
Standard
350
1AC
  0
DICTIONARY
  5
1AD
102
{ACAD_REACTORS
330
1A1
102
}
330
1A1
100
AcDbDictionary
281
     1
  0
ACDBDICTIONARYWDFLT
  5
1A3
102
{ACAD_REACTORS
330
1A1
102
}
330
1A1
100
AcDbDictionary
281
     1
  3
Normal
350
1A4
100
AcDbDictionaryWithDefault
340
1A4
  0
DICTIONARY
  5
1DB
102
{ACAD_REACTORS
330
1A1
102
}
330
1A1
100
AcDbDictionary
281
     1
  3
A0
350
1DC
  3
A1
350
1DD
  3
A2
350
1DE
  3
A3
350
1DF
  3
A4
350
1E0
  3
A5
350
1E1
  3
A6
350
1E2
  3
A7
350
1E3
  3
A8
350
1E4
  3
A9
350
1E5
  3
B0
350
1E6
  3
B1
350
1E7
  3
B2
350
1E8
  3
B3
350
1E9
  3
B4
350
1EA
  3
B5
350
1EB
  3
B6
350
1EC
  3
B7
350
1ED
  3
B8
350
1EE
  3
B9
350
1EF
  3
C0
350
1F0
  3
C1
350
1F1
  3
C2
350
1F2
  3
C3
350
1F3
  3
C4
350
1F4
  3
C5
350
1F5
  3
C6
350
1F6
  3
C7
350
1F7
  3
C8
350
1F8
  3
C9
350
1F9
  3
D0
350
1FA
  3
D1
350
1FB
  3
D2
350
1FC
  0
DICTIONARY
  5
34C
102
{ACAD_REACTORS
330
1A1
102
}
330
1A1
100
AcDbDictionary
281
     1
  0
DICTIONARY
  5
1FD
102
{ACAD_REACTORS
330
1A1
102
}
330
1A1
100
AcDbDictionary
281
     1
  3
Standard
350
1FE
  0
DICTIONARY
  5
1BE
102
{ACAD_REACTORS
330
1A1
102
}
330
1A1
100
AcDbDictionary
281
     1
  3
2dWireframe
350
1C3
  3
Basic
350
1C6
  3
Brighten
350
1CA
  3
ColorChange
350
1CE
  3
Conceptual
350
1C8
  3
Dim
350
1C9
  3
EdgeColorOff
350
1D1
  3
Facepattern
350
1CD
  3
Flat
350
1BF
  3
FlatWithEdges
350
1C0
  3
Gouraud
350
1C1
  3
GouraudWithEdges
350
1C2
  3
Hidden
350
1C5
  3
JitterOff
350
1CF
  3
Linepattern
350
1CC
  3
OverhangOff
350
1D0
  3
Realistic
350
1C7
  3
Shaded
350
1D6
  3
Shaded with edges
350
1D5
  3
Shades of Gray
350
1D2
  3
Sketchy
350
1D3
  3
Thicken
350
1CB
  3
Wireframe
350
1C4
  3
X-Ray
350
1D4
  0
XRECORD
  5
348
102
{ACAD_REACTORS
330
1A1
102
}
330
1A1
100
AcDbXrecord
280
     1
 90
        1
330
1FE
  0
DICTIONARY
  5
344
102
{ACAD_REACTORS
330
1A1
102
}
330
1A1
100
AcDbDictionary
281
     1
  3
CANNOSCALE
350
345
  3
CMLEADERSTYLE
350
34A
  3
CTABLESTYLE
350
349
  0
DICTIONARY
  5
203
102
{ACAD_REACTORS
330
1A1
102
}
330
1A1
100
AcDbDictionary
281
     1
  3
DimensionSettings/AngularFormat
350
205
  3
DimensionSettings/AngularPrecision
350
206
  3
DimensionSettings/DimensionFont
350
207
  3
DimensionSettings/KeepProportions
350
208
  3
DimensionSettings/LinearFormat
350
209
  3
DimensionSettings/LinearPrecision
350
20A
  3
Grid/DisplayGrid00
350
20B
  3
Grid/DisplayGrid01
350
20C
  3
Grid/DisplayGrid02
350
20D
  3
Grid/DisplayGrid03
350
20E
  3
Grid/GridSpacingX00
350
20F
  3
Grid/GridSpacingX01
350
210
  3
Grid/GridSpacingX02
350
211
  3
Grid/GridSpacingX03
350
212
  3
Grid/GridSpacingY00
350
213
  3
Grid/GridSpacingY01
350
214
  3
Grid/GridSpacingY02
350
215
  3
Grid/GridSpacingY03
350
216
  3
Grid/IsometricGrid00
350
217
  3
Grid/IsometricGrid01
350
218
  3
Grid/IsometricGrid02
350
219
  3
Grid/IsometricGrid03
350
21A
  3
Grid/IsometricProjection00
350
21B
  3
Grid/IsometricProjection01
350
21C
  3
Grid/IsometricProjection02
350
21D
  3
Grid/IsometricProjection03
350
21E
  3
Grid/MetaGridSpacingX00
350
21F
  3
Grid/MetaGridSpacingX01
350
220
  3
Grid/MetaGridSpacingX02
350
221
  3
Grid/MetaGridSpacingX03
350
222
  3
Grid/MetaGridSpacingY00
350
223
  3
Grid/MetaGridSpacingY01
350
224
  3
Grid/MetaGridSpacingY02
350
225
  3
Grid/MetaGridSpacingY03
350
226
  3
MultiPageSettings/Columns
350
227
  3
MultiPageSettings/GlueMarginsBottom
350
228
  3
MultiPageSettings/GlueMarginsLeft
350
229
  3
MultiPageSettings/GlueMarginsRight
350
22A
  3
MultiPageSettings/GlueMarginsTop
350
22B
  3
MultiPageSettings/PrintCropMarks
350
22C
  3
MultiPageSettings/Rows
350
22D
  3
PageSettings/OffsetX
350
22E
  3
PageSettings/OffsetY
350
22F
  3
PageSettings/PageOrientation
350
230
  3
PageSettings/PaperHeight
350
231
  3
PageSettings/PaperWidth
350
232
  3
PageSettings/Scale
350
233
  3
PageSettings/ShowPaperBorders
350
234
  3
QCADVersion
350
235
  3
UnitSettings/PaperUnit
350
236
  0
LAYOUT
  5
1B2
102
{ACAD_REACTORS
330
1AE
102
}
330
1AE
100
AcDbPlotSettings
  1

  2
none_device
  4

  6

 40
0.0
 41
0.0
 42
0.0
 43
0.0
 44
0.0
 45
0.0
 46
0.0
 47
0.0
 48
0.0
 49
0.0
140
0.0
141
0.0
142
1.0
143
1.0
 70
   688
 72
     0
 73
     0
 74
     5
  7

 75
    16
 76
     0
 77
     2
 78
   300
147
1.0
148
0.0
149
0.0
100
AcDbLayout
  1
Layout1
 70
     1
 71
     1
 10
0.0
 20
0.0
 11
12.0
 21
9.0
 12
0.0
 22
0.0
 32
0.0
 14
1.000000000000000E+20
 24
1.000000000000000E+20
 34
1.000000000000000E+20
 15
-1.000000000000000E+20
 25
-1.000000000000000E+20
 35
-1.000000000000000E+20
146
0.0
 13
0.0
 23
0.0
 33
0.0
 16
1.0
 26
0.0
 36
0.0
 17
0.0
 27
1.0
 37
0.0
 76
     0
330
1AF
  0
LAYOUT
  5
1BA
102
{ACAD_REACTORS
330
1AE
102
}
330
1AE
100
AcDbPlotSettings
  1

  2
none_device
  4

  6

 40
0.0
 41
0.0
 42
0.0
 43
0.0
 44
0.0
 45
0.0
 46
0.0
 47
0.0
 48
0.0
 49
0.0
140
0.0
141
0.0
142
1.0
143
1.0
 70
   688
 72
     0
 73
     0
 74
     5
  7

 75
    16
 76
     0
 77
     2
 78
   300
147
1.0
148
0.0
149
0.0
100
AcDbLayout
  1
Layout2
 70
     1
 71
     2
 10
0.0
 20
0.0
 11
0.0
 21
0.0
 12
0.0
 22
0.0
 32
0.0
 14
0.0
 24
0.0
 34
0.0
 15
0.0
 25
0.0
 35
0.0
146
0.0
 13
0.0
 23
0.0
 33
0.0
 16
1.0
 26
0.0
 36
0.0
 17
0.0
 27
1.0
 37
0.0
 76
     0
330
1B7
  0
LAYOUT
  5
1B6
102
{ACAD_REACTORS
330
1AE
102
}
330
1AE
100
AcDbPlotSettings
  1

  2
none_device
  4
Letter_(8.50_x_11.00_Inches)
  6

 40
6.35
 41
6.35
 42
6.35000508
 43
6.35000508
 44
215.9
 45
279.4
 46
0.0
 47
0.0
 48
0.0
 49
0.0
140
0.0
141
0.0
142
1.0
143
1.0
 70
  1712
 72
     0
 73
     0
 74
     0
  7

 75
     0
 76
     0
 77
     2
 78
   300
147
1.0
148
0.0
149
0.0
100
AcDbLayout
  1
Model
 70
     1
 71
     0
 10
0.0
 20
0.0
 11
12.0
 21
9.0
 12
0.0
 22
0.0
 32
0.0
 14
1.000000000000000E+20
 24
1.000000000000000E+20
 34
1.000000000000000E+20
 15
-1.000000000000000E+20
 25
-1.000000000000000E+20
 35
-1.000000000000000E+20
146
0.0
 13
0.0
 23
0.0
 33
0.0
 16
1.0
 26
0.0
 36
0.0
 17
0.0
 27
1.0
 37
0.0
 76
     0
330
1B3
331
1BD
  0
MATERIAL
  5
1D9
102
{ACAD_REACTORS
330
1D7
102
}
330
1D7
100
AcDbMaterial
  1
ByBlock
 72
     1
 94
      127
  0
MATERIAL
  5
1D8
102
{ACAD_REACTORS
330
1D7
102
}
330
1D7
100
AcDbMaterial
  1
ByLayer
 72
     1
 94
      127
  0
MATERIAL
  5
1DA
102
{ACAD_REACTORS
330
1D7
102
}
330
1D7
100
AcDbMaterial
  1
Global
 72
     1
 94
      127
  0
MLEADERSTYLE
  5
200
102
{ACAD_REACTORS
330
1FF
102
}
330
1FF
100
AcDbMLeaderStyle
179
     2
170
     2
171
     1
172
     0
 90
        2
 40
0.0
 41
0.0
173
     1
 91
-1056964608
340
1A8
 92
       -2
290
     1
 42
0.09
291
     1
 43
0.36
  3
Standard
341
0
 44
0.18
300

342
1A6
174
     1
178
     6
175
     1
176
     0
 93
-1056964608
 45
0.18
292
     0
297
     0
 46
0.18
343
0
 94
-1056964608
 47
1.0
 49
1.0
140
1.0
293
     1
141
0.0
294
     1
177
     0
142
1.0
295
     0
296
     0
143
0.125
271
     0
272
     9
273
     9
298
     0
  0
MLINESTYLE
  5
1AC
102
{ACAD_REACTORS
330
1AB
102
}
330
1AB
100
AcDbMlineStyle
  2
Standard
 70
     0
  3

 62
   256
 51
90.0
 52
90.0
 71
     2
 49
0.5
 62
   256
  6
BYLAYER
 49
-0.5
 62
   256
  6
BYLAYER
  0
ACDBPLACEHOLDER
  5
1A4
102
{ACAD_REACTORS
330
1A3
102
}
330
1A3
  0
SCALE
  5
1DC
102
{ACAD_REACTORS
330
1DB
102
}
330
1DB
100
AcDbScale
 70
     0
300
1:1
140
1.0
141
1.0
290
     1
  0
SCALE
  5
1DD
102
{ACAD_REACTORS
330
1DB
102
}
330
1DB
100
AcDbScale
 70
     0
300
1:2
140
1.0
141
2.0
290
     0
  0
SCALE
  5
1DE
102
{ACAD_REACTORS
330
1DB
102
}
330
1DB
100
AcDbScale
 70
     0
300
1:4
140
1.0
141
4.0
290
     0
  0
SCALE
  5
1DF
102
{ACAD_REACTORS
330
1DB
102
}
330
1DB
100
AcDbScale
 70
     0
300
1:5
140
1.0
141
5.0
290
     0
  0
SCALE
  5
1E0
102
{ACAD_REACTORS
330
1DB
102
}
330
1DB
100
AcDbScale
 70
     0
300
1:8
140
1.0
141
8.0
290
     0
  0
SCALE
  5
1E1
102
{ACAD_REACTORS
330
1DB
102
}
330
1DB
100
AcDbScale
 70
     0
300
1:10
140
1.0
141
10.0
290
     0
  0
SCALE
  5
1E2
102
{ACAD_REACTORS
330
1DB
102
}
330
1DB
100
AcDbScale
 70
     0
300
1:16
140
1.0
141
16.0
290
     0
  0
SCALE
  5
1E3
102
{ACAD_REACTORS
330
1DB
102
}
330
1DB
100
AcDbScale
 70
     0
300
1:20
140
1.0
141
20.0
290
     0
  0
SCALE
  5
1E4
102
{ACAD_REACTORS
330
1DB
102
}
330
1DB
100
AcDbScale
 70
     0
300
1:30
140
1.0
141
30.0
290
     0
  0
SCALE
  5
1E5
102
{ACAD_REACTORS
330
1DB
102
}
330
1DB
100
AcDbScale
 70
     0
300
1:40
140
1.0
141
40.0
290
     0
  0
SCALE
  5
1E6
102
{ACAD_REACTORS
330
1DB
102
}
330
1DB
100
AcDbScale
 70
     0
300
1:50
140
1.0
141
50.0
290
     0
  0
SCALE
  5
1E7
102
{ACAD_REACTORS
330
1DB
102
}
330
1DB
100
AcDbScale
 70
     0
300
1:100
140
1.0
141
100.0
290
     0
  0
SCALE
  5
1E8
102
{ACAD_REACTORS
330
1DB
102
}
330
1DB
100
AcDbScale
 70
     0
300
2:1
140
2.0
141
1.0
290
     0
  0
SCALE
  5
1E9
102
{ACAD_REACTORS
330
1DB
102
}
330
1DB
100
AcDbScale
 70
     0
300
4:1
140
4.0
141
1.0
290
     0
  0
SCALE
  5
1EA
102
{ACAD_REACTORS
330
1DB
102
}
330
1DB
100
AcDbScale
 70
     0
300
8:1
140
8.0
141
1.0
290
     0
  0
SCALE
  5
1EB
102
{ACAD_REACTORS
330
1DB
102
}
330
1DB
100
AcDbScale
 70
     0
300
10:1
140
10.0
141
1.0
290
     0
  0
SCALE
  5
1EC
102
{ACAD_REACTORS
330
1DB
102
}
330
1DB
100
AcDbScale
 70
     0
300
100:1
140
100.0
141
1.0
290
     0
  0
SCALE
  5
1ED
102
{ACAD_REACTORS
330
1DB
102
}
330
1DB
100
AcDbScale
 70
     0
300
1/128" = 1'-0"
140
0.0078125
141
12.0
290
     0
  0
SCALE
  5
1EE
102
{ACAD_REACTORS
330
1DB
102
}
330
1DB
100
AcDbScale
 70
     0
300
1/64" = 1'-0"
140
0.015625
141
12.0
290
     0
  0
SCALE
  5
1EF
102
{ACAD_REACTORS
330
1DB
102
}
330
1DB
100
AcDbScale
 70
     0
300
1/32" = 1'-0"
140
0.03125
141
12.0
290
     0
  0
SCALE
  5
1F0
102
{ACAD_REACTORS
330
1DB
102
}
330
1DB
100
AcDbScale
 70
     0
300
1/16" = 1'-0"
140
0.0625
141
12.0
290
     0
  0
SCALE
  5
1F1
102
{ACAD_REACTORS
330
1DB
102
}
330
1DB
100
AcDbScale
 70
     0
300
3/32" = 1'-0"
140
0.09375
141
12.0
290
     0
  0
SCALE
  5
1F2
102
{ACAD_REACTORS
330
1DB
102
}
330
1DB
100
AcDbScale
 70
     0
300
1/8" = 1'-0"
140
0.125
141
12.0
290
     0
  0
SCALE
  5
1F3
102
{ACAD_REACTORS
330
1DB
102
}
330
1DB
100
AcDbScale
 70
     0
300
3/16" = 1'-0"
140
0.1875
141
12.0
290
     0
  0
SCALE
  5
1F4
102
{ACAD_REACTORS
330
1DB
102
}
330
1DB
100
AcDbScale
 70
     0
300
1/4" = 1'-0"
140
0.25
141
12.0
290
     0
  0
SCALE
  5
1F5
102
{ACAD_REACTORS
330
1DB
102
}
330
1DB
100
AcDbScale
 70
     0
300
3/8" = 1'-0"
140
0.375
141
12.0
290
     0
  0
SCALE
  5
1F6
102
{ACAD_REACTORS
330
1DB
102
}
330
1DB
100
AcDbScale
 70
     0
300
1/2" = 1'-0"
140
0.5
141
12.0
290
     0
  0
SCALE
  5
1F7
102
{ACAD_REACTORS
330
1DB
102
}
330
1DB
100
AcDbScale
 70
     0
300
3/4" = 1'-0"
140
0.75
141
12.0
290
     0
  0
SCALE
  5
1F8
102
{ACAD_REACTORS
330
1DB
102
}
330
1DB
100
AcDbScale
 70
     0
300
1" = 1'-0"
140
1.0
141
12.0
290
     0
  0
SCALE
  5
1F9
102
{ACAD_REACTORS
330
1DB
102
}
330
1DB
100
AcDbScale
 70
     0
300
1-1/2" = 1'-0"
140
1.5
141
12.0
290
     0
  0
SCALE
  5
1FA
102
{ACAD_REACTORS
330
1DB
102
}
330
1DB
100
AcDbScale
 70
     0
300
3" = 1'-0"
140
3.0
141
12.0
290
     0
  0
SCALE
  5
1FB
102
{ACAD_REACTORS
330
1DB
102
}
330
1DB
100
AcDbScale
 70
     0
300
6" = 1'-0"
140
6.0
141
12.0
290
     0
  0
SCALE
  5
1FC
102
{ACAD_REACTORS
330
1DB
102
}
330
1DB
100
AcDbScale
 70
     0
300
1'-0" = 1'-0"
140
12.0
141
12.0
290
     0
  0
TABLESTYLE
  5
1FE
102
{ACAD_REACTORS
330
1FD
102
}
102
{ACAD_XDICTIONARY
360
346
102
}
330
1FD
100
AcDbTableStyle
  3
Standard
 70
     0
 71
     0
 40
0.06
 41
0.06
280
     0
281
     0
  7
Standard
140
0.18
170
     2
 62
     0
 63
   257
283
     0
 90
        4
 91
        0
  1

274
    -2
284
     1
 64
     0
275
    -2
285
     1
 65
     0
276
    -2
286
     1
 66
     0
277
    -2
287
     1
 67
     0
278
    -2
288
     1
 68
     0
279
    -2
289
     1
 69
     0
  7
Standard
140
0.25
170
     5
 62
     0
 63
   257
283
     0
 90
        4
 91
        0
  1

274
    -2
284
     1
 64
     0
275
    -2
285
     1
 65
     0
276
    -2
286
     1
 66
     0
277
    -2
287
     1
 67
     0
278
    -2
288
     1
 68
     0
279
    -2
289
     1
 69
     0
  7
Standard
140
0.18
170
     5
 62
     0
 63
   257
283
     0
 90
        4
 91
        0
  1

274
    -2
284
     1
 64
     0
275
    -2
285
     1
 65
     0
276
    -2
286
     1
 66
     0
277
    -2
287
     1
 67
     0
278
    -2
288
     1
 68
     0
279
    -2
289
     1
 69
     0
  0
VISUALSTYLE
  5
1C3
102
{ACAD_REACTORS
330
1BE
102
}
330
1BE
100
AcDbVisualStyle
  2
2dWireframe
 70
     4
177
     3
291
     0
 70
    58
 90
        0
176
     1
 90
        2
176
     1
 90
        0
176
     1
 90
        0
176
     1
 40
0.6
176
     1
 40
30.0
176
     1
 62
     7
420
 16777215
176
     1
 90
        1
176
     1
 90
        4
176
     1
 62
     7
176
     1
 62
   257
176
     1
 90
        1
176
     1
 90
        1
176
     1
 40
1.0
176
     1
 90
        0
176
     1
 62
   257
176
     1
 40
1.0
176
     1
 90
        1
176
     1
 90
        6
176
     1
 90
        2
176
     1
 62
     7
176
     1
 90
        5
176
     1
 90
        0
176
     1
 90
        0
176
     1
290
     0
176
     1
 90
        1
176
     1
 40
0.0
176
     1
 90
        0
176
     1
290
     1
176
     1
290
     1
176
     1
290
     0
176
     1
290
     0
176
     1
290
     0
176
     1
290
     0
176
     1
290
     0
176
     1
290
     0
176
     1
290
     0
176
     1
 90
       50
176
     1
 40
0.0
176
     1
 40
1.0
176
     1
 90
        0
176
     1
 62
   178
420
        0
176
     1
 90
       50
176
     1
 90
        3
176
     1
 62
     5
420
      255
176
     1
290
     0
176
     1
 90
       50
176
     1
 90
       50
176
     1
 90
       50
176
     1
290
     0
176
     1
 90
       50
176
     1
 62
   256
176
     0
 40
1.0
176
     0
 90
        2
176
     1
  1
strokes_ogs.tif
176
     1
290
     0
176
     1
 40
1.0
176
     1
 40
1.0
176
     1
  0
VISUALSTYLE
  5
1C6
102
{ACAD_REACTORS
330
1BE
102
}
330
1BE
100
AcDbVisualStyle
  2
Basic
 70
     7
177
     3
291
     1
 70
    58
 90
        1
176
     1
 90
        0
176
     1
 90
        1
176
     1
 90
        0
176
     1
 40
0.6
176
     1
 40
30.0
176
     1
 62
     7
420
 16777215
176
     1
 90
        0
176
     1
 90
        4
176
     1
 62
     7
176
     1
 62
   257
176
     1
 90
        1
176
     1
 90
        1
176
     1
 40
1.0
176
     1
 90
        8
176
     1
 62
     7
176
     1
 40
1.0
176
     1
 90
        1
176
     1
 90
        6
176
     1
 90
        2
176
     1
 62
     7
176
     1
 90
        5
176
     1
 90
        0
176
     1
 90
        0
176
     1
290
     0
176
     1
 90
        1
176
     1
 40
0.0
176
     1
 90
        0
176
     1
290
     0
176
     1
290
     1
176
     1
290
     1
176
     1
290
     0
176
     1
290
     0
176
     1
290
     0
176
     1
290
     0
176
     1
290
     0
176
     1
290
     0
176
     1
 90
       50
176
     1
 40
0.0
176
     1
 40
1.0
176
     1
 90
        0
176
     1
 62
   178
420
        0
176
     1
 90
       50
176
     1
 90
        3
176
     1
 62
     5
420
      255
176
     1
290
     0
176
     1
 90
       50
176
     1
 90
       50
176
     1
 90
       50
176
     1
290
     0
176
     1
 90
       50
176
     1
 62
   256
176
     0
 40
1.0
176
     0
 90
        2
176
     1
  1
strokes_ogs.tif
176
     1
290
     0
176
     1
 40
1.0
176
     1
 40
1.0
176
     1
  0
VISUALSTYLE
  5
1CA
102
{ACAD_REACTORS
330
1BE
102
}
330
1BE
100
AcDbVisualStyle
  2
Brighten
 70
    12
177
     3
291
     1
 70
    58
 90
        2
176
     1
 90
        2
176
     1
 90
        0
176
     1
 90
        0
176
     1
 40
0.6
176
     1
 40
30.0
176
     1
 62
     7
420
 16777215
176
     1
 90
        1
176
     1
 90
        4
176
     1
 62
     7
176
     1
 62
   257
176
     1
 90
        1
176
     1
 90
        1
176
     1
 40
1.0
176
     1
 90
        8
176
     1
 62
     7
176
     1
 40
1.0
176
     1
 90
        1
176
     1
 90
        6
176
     1
 90
        2
176
     1
 62
     7
176
     1
 90
        5
176
     1
 90
        0
176
     1
 90
        0
176
     1
290
     0
176
     1
 90
        1
176
     1
 40
50.0
176
     1
 90
        0
176
     1
290
     0
176
     1
290
     1
176
     1
290
     1
176
     1
290
     0
176
     1
290
     0
176
     1
290
     0
176
     1
290
     0
176
     1
290
     0
176
     1
290
     0
176
     1
 90
       50
176
     1
 40
0.0
176
     1
 40
1.0
176
     1
 90
        0
176
     1
 62
   178
420
        0
176
     1
 90
       50
176
     1
 90
        3
176
     1
 62
     5
420
      255
176
     1
290
     0
176
     1
 90
       50
176
     1
 90
       50
176
     1
 90
       50
176
     1
290
     0
176
     1
 90
       50
176
     1
 62
   256
176
     0
 40
1.0
176
     0
 90
        2
176
     1
  1
strokes_ogs.tif
176
     1
290
     0
176
     1
 40
1.0
176
     1
 40
1.0
176
     1
  0
VISUALSTYLE
  5
1CE
102
{ACAD_REACTORS
330
1BE
102
}
330
1BE
100
AcDbVisualStyle
  2
ColorChange
 70
    16
177
     3
291
     1
 70
    58
 90
        2
176
     1
 90
        2
176
     1
 90
        3
176
     1
 90
        0
176
     1
 40
0.6
176
     1
 40
30.0
176
     1
 62
     8
420
  8421504
176
     1
 90
        1
176
     1
 90
        4
176
     1
 62
     7
176
     1
 62
   257
176
     1
 90
        1
176
     1
 90
        1
176
     1
 40
1.0
176
     1
 90
        8
176
     1
 62
     8
420
  8421504
176
     1
 40
1.0
176
     1
 90
        1
176
     1
 90
        6
176
     1
 90
        2
176
     1
 62
     7
176
     1
 90
        5
176
     1
 90
        0
176
     1
 90
        0
176
     1
290
     0
176
     1
 90
        1
176
     1
 40
0.0
176
     1
 90
        0
176
     1
290
     0
176
     1
290
     1
176
     1
290
     1
176
     1
290
     0
176
     1
290
     0
176
     1
290
     0
176
     1
290
     0
176
     1
290
     0
176
     1
290
     0
176
     1
 90
       50
176
     1
 40
0.0
176
     1
 40
1.0
176
     1
 90
        0
176
     1
 62
   178
420
        0
176
     1
 90
       50
176
     1
 90
        3
176
     1
 62
     5
420
      255
176
     1
290
     0
176
     1
 90
       50
176
     1
 90
       50
176
     1
 90
       50
176
     1
290
     0
176
     1
 90
       50
176
     1
 62
   256
176
     0
 40
1.0
176
     0
 90
        2
176
     1
  1
strokes_ogs.tif
176
     1
290
     0
176
     1
 40
1.0
176
     1
 40
1.0
176
     1
  0
VISUALSTYLE
  5
1C8
102
{ACAD_REACTORS
330
1BE
102
}
330
1BE
100
AcDbVisualStyle
  2
Conceptual
 70
     9
177
     3
291
     0
 70
    58
 90
        3
176
     1
 90
        2
176
     1
 90
        0
176
     1
 90
        0
176
     1
 40
0.6
176
     1
 40
30.0
176
     1
 62
     7
420
 16777215
176
     1
 90
        2
176
     1
 90
        2
176
     1
 62
     7
176
     1
 62
   257
176
     1
 90
        1
176
     1
 90
        1
176
     1
 40
179.0
176
     1
 90
        8
176
     1
 62
     7
176
     1
 40
1.0
176
     1
 90
        1
176
     1
 90
        6
176
     1
 90
        2
176
     1
 62
     7
176
     1
 90
        3
176
     1
 90
        0
176
     1
 90
        0
176
     1
290
     0
176
     1
 90
        1
176
     1
 40
0.0
176
     1
 90
        0
176
     1
290
     0
176
     1
290
     1
176
     1
290
     1
176
     1
290
     0
176
     1
290
     0
176
     1
290
     0
176
     1
290
     0
176
     1
290
     0
176
     1
290
     0
176
     1
 90
       50
176
     1
 40
0.0
176
     1
 40
1.0
176
     1
 90
        0
176
     1
 62
   178
420
        0
176
     1
 90
       50
176
     1
 90
        3
176
     1
 62
     5
420
      255
176
     1
290
     0
176
     1
 90
       50
176
     1
 90
       50
176
     1
 90
       50
176
     1
290
     0
176
     1
 90
       50
176
     1
 62
   256
176
     0
 40
1.0
176
     0
 90
        2
176
     1
  1
strokes_ogs.tif
176
     1
290
     0
176
     1
 40
1.0
176
     1
 40
1.0
176
     1
  0
VISUALSTYLE
  5
1C9
102
{ACAD_REACTORS
330
1BE
102
}
330
1BE
100
AcDbVisualStyle
  2
Dim
 70
    11
177
     3
291
     1
 70
    58
 90
        2
176
     1
 90
        2
176
     1
 90
        0
176
     1
 90
        0
176
     1
 40
0.6
176
     1
 40
30.0
176
     1
 62
     7
420
 16777215
176
     1
 90
        1
176
     1
 90
        4
176
     1
 62
     7
176
     1
 62
   257
176
     1
 90
        1
176
     1
 90
        1
176
     1
 40
1.0
176
     1
 90
        8
176
     1
 62
     7
176
     1
 40
1.0
176
     1
 90
        1
176
     1
 90
        6
176
     1
 90
        2
176
     1
 62
     7
176
     1
 90
        5
176
     1
 90
        0
176
     1
 90
        0
176
     1
290
     0
176
     1
 90
        1
176
     1
 40
-50.0
176
     1
 90
        0
176
     1
290
     0
176
     1
290
     1
176
     1
290
     1
176
     1
290
     0
176
     1
290
     0
176
     1
290
     0
176
     1
290
     0
176
     1
290
     0
176
     1
290
     0
176
     1
 90
       50
176
     1
 40
0.0
176
     1
 40
1.0
176
     1
 90
        0
176
     1
 62
   178
420
        0
176
     1
 90
       50
176
     1
 90
        3
176
     1
 62
     5
420
      255
176
     1
290
     0
176
     1
 90
       50
176
     1
 90
       50
176
     1
 90
       50
176
     1
290
     0
176
     1
 90
       50
176
     1
 62
   256
176
     0
 40
1.0
176
     0
 90
        2
176
     1
  1
strokes_ogs.tif
176
     1
290
     0
176
     1
 40
1.0
176
     1
 40
1.0
176
     1
  0
VISUALSTYLE
  5
1D1
102
{ACAD_REACTORS
330
1BE
102
}
330
1BE
100
AcDbVisualStyle
  2
EdgeColorOff
 70
    22
177
     3
291
     1
 70
    58
 90
        2
176
     0
 90
        2
176
     0
 90
        0
176
     0
 90
        0
176
     0
 40
0.6
176
     0
 40
30.0
176
     0
 62
     7
420
 16777215
176
     0
 90
        1
176
     0
 90
        4
176
     0
 62
     7
176
     0
 62
   257
176
     0
 90
        1
176
     0
 90
        1
176
     0
 40
1.0
176
     0
 90
        8
176
     2
 62
     7
176
     0
 40
1.0
176
     0
 90
        1
176
     0
 90
        6
176
     0
 90
        2
176
     0
 62
     7
176
     0
 90
        5
176
     0
 90
        0
176
     0
 90
        0
176
     0
290
     0
176
     0
 90
        1
176
     0
 40
0.0
176
     0
 90
        0
176
     0
290
     0
176
     0
290
     1
176
     0
290
     1
176
     0
290
     0
176
     0
290
     0
176
     0
290
     0
176
     0
290
     0
176
     0
290
     0
176
     0
290
     0
176
     0
 90
       50
176
     0
 40
0.0
176
     0
 40
1.0
176
     0
 90
        0
176
     0
 62
   178
420
        0
176
     0
 90
       50
176
     0
 90
        3
176
     0
 62
     5
420
      255
176
     0
290
     0
176
     0
 90
       50
176
     0
 90
       50
176
     0
 90
       50
176
     0
290
     0
176
     0
 90
       50
176
     0
 62
   256
176
     0
 40
1.0
176
     0
 90
        2
176
     0
  1
strokes_ogs.tif
176
     0
290
     0
176
     0
 40
1.0
176
     0
 40
1.0
176
     0
  0
VISUALSTYLE
  5
1CD
102
{ACAD_REACTORS
330
1BE
102
}
330
1BE
100
AcDbVisualStyle
  2
Facepattern
 70
    15
177
     3
291
     1
 70
    58
 90
        2
176
     1
 90
        2
176
     1
 90
        0
176
     1
 90
        0
176
     1
 40
0.6
176
     1
 40
30.0
176
     1
 62
     7
420
 16777215
176
     1
 90
        1
176
     1
 90
        4
176
     1
 62
     7
176
     1
 62
   257
176
     1
 90
        1
176
     1
 90
        1
176
     1
 40
1.0
176
     1
 90
        8
176
     1
 62
     7
176
     1
 40
1.0
176
     1
 90
        1
176
     1
 90
        6
176
     1
 90
        2
176
     1
 62
     7
176
     1
 90
        5
176
     1
 90
        0
176
     1
 90
        0
176
     1
290
     0
176
     1
 90
        1
176
     1
 40
0.0
176
     1
 90
        0
176
     1
290
     0
176
     1
290
     1
176
     1
290
     1
176
     1
290
     0
176
     1
290
     0
176
     1
290
     0
176
     1
290
     0
176
     1
290
     0
176
     1
290
     0
176
     1
 90
       50
176
     1
 40
0.0
176
     1
 40
1.0
176
     1
 90
        0
176
     1
 62
   178
420
        0
176
     1
 90
       50
176
     1
 90
        3
176
     1
 62
     5
420
      255
176
     1
290
     0
176
     1
 90
       50
176
     1
 90
       50
176
     1
 90
       50
176
     1
290
     0
176
     1
 90
       50
176
     1
 62
   256
176
     0
 40
1.0
176
     0
 90
        2
176
     1
  1
strokes_ogs.tif
176
     1
290
     0
176
     1
 40
1.0
176
     1
 40
1.0
176
     1
  0
VISUALSTYLE
  5
1BF
102
{ACAD_REACTORS
330
1BE
102
}
330
1BE
100
AcDbVisualStyle
  2
Flat
 70
     0
177
     3
291
     1
 70
    58
 90
        2
176
     1
 90
        1
176
     1
 90
        1
176
     1
 90
        2
176
     1
 40
0.6
176
     1
 40
30.0
176
     1
 62
     7
420
 16777215
176
     1
 90
        0
176
     1
 90
        0
176
     1
 62
     7
176
     1
 62
   257
176
     1
 90
        1
176
     1
 90
        1
176
     1
 40
1.0
176
     1
 90
        8
176
     1
 62
     7
176
     1
 40
1.0
176
     1
 90
        1
176
     1
 90
        6
176
     1
 90
        2
176
     1
 62
     7
176
     1
 90
        5
176
     1
 90
        0
176
     1
 90
        0
176
     1
290
     0
176
     1
 90
       13
176
     1
 40
0.0
176
     1
 90
        0
176
     1
290
     0
176
     1
290
     1
176
     1
290
     1
176
     1
290
     0
176
     1
290
     0
176
     1
290
     0
176
     1
290
     0
176
     1
290
     0
176
     1
290
     0
176
     1
 90
       50
176
     1
 40
0.0
176
     1
 40
1.0
176
     1
 90
        0
176
     1
 62
   178
420
        0
176
     1
 90
       50
176
     1
 90
        3
176
     1
 62
     5
420
      255
176
     1
290
     0
176
     1
 90
       50
176
     1
 90
       50
176
     1
 90
       50
176
     1
290
     0
176
     1
 90
       50
176
     1
 62
   256
176
     0
 40
1.0
176
     0
 90
        2
176
     1
  1
strokes_ogs.tif
176
     1
290
     0
176
     1
 40
1.0
176
     1
 40
1.0
176
     1
  0
VISUALSTYLE
  5
1C0
102
{ACAD_REACTORS
330
1BE
102
}
330
1BE
100
AcDbVisualStyle
  2
FlatWithEdges
 70
     1
177
     3
291
     1
 70
    58
 90
        2
176
     1
 90
        1
176
     1
 90
        1
176
     1
 90
        2
176
     1
 40
0.6
176
     1
 40
30.0
176
     1
 62
     7
420
 16777215
176
     1
 90
        1
176
     1
 90
        0
176
     1
 62
     7
176
     1
 62
   257
176
     1
 90
        1
176
     1
 90
        1
176
     1
 40
1.0
176
     1
 90
        0
176
     1
 62
   257
176
     1
 40
1.0
176
     1
 90
        1
176
     1
 90
        6
176
     1
 90
        2
176
     1
 62
     7
176
     1
 90
        5
176
     1
 90
        0
176
     1
 90
        0
176
     1
290
     0
176
     1
 90
       13
176
     1
 40
0.0
176
     1
 90
        0
176
     1
290
     0
176
     1
290
     1
176
     1
290
     1
176
     1
290
     0
176
     1
290
     0
176
     1
290
     0
176
     1
290
     0
176
     1
290
     0
176
     1
290
     0
176
     1
 90
       50
176
     1
 40
0.0
176
     1
 40
1.0
176
     1
 90
        0
176
     1
 62
   178
420
        0
176
     1
 90
       50
176
     1
 90
        3
176
     1
 62
     5
420
      255
176
     1
290
     0
176
     1
 90
       50
176
     1
 90
       50
176
     1
 90
       50
176
     1
290
     0
176
     1
 90
       50
176
     1
 62
   256
176
     0
 40
1.0
176
     0
 90
        2
176
     1
  1
strokes_ogs.tif
176
     1
290
     0
176
     1
 40
1.0
176
     1
 40
1.0
176
     1
  0
VISUALSTYLE
  5
1C1
102
{ACAD_REACTORS
330
1BE
102
}
330
1BE
100
AcDbVisualStyle
  2
Gouraud
 70
     2
177
     3
291
     1
 70
    58
 90
        2
176
     1
 90
        2
176
     1
 90
        1
176
     1
 90
        2
176
     1
 40
0.6
176
     1
 40
30.0
176
     1
 62
     7
420
 16777215
176
     1
 90
        0
176
     1
 90
        0
176
     1
 62
     7
176
     1
 62
   257
176
     1
 90
        1
176
     1
 90
        1
176
     1
 40
1.0
176
     1
 90
        0
176
     1
 62
     7
176
     1
 40
1.0
176
     1
 90
        1
176
     1
 90
        6
176
     1
 90
        2
176
     1
 62
     7
176
     1
 90
        5
176
     1
 90
        0
176
     1
 90
        0
176
     1
290
     0
176
     1
 90
       13
176
     1
 40
0.0
176
     1
 90
        0
176
     1
290
     0
176
     1
290
     1
176
     1
290
     1
176
     1
290
     0
176
     1
290
     0
176
     1
290
     0
176
     1
290
     0
176
     1
290
     0
176
     1
290
     0
176
     1
 90
       50
176
     1
 40
0.0
176
     1
 40
1.0
176
     1
 90
        0
176
     1
 62
   178
420
        0
176
     1
 90
       50
176
     1
 90
        3
176
     1
 62
     5
420
      255
176
     1
290
     0
176
     1
 90
       50
176
     1
 90
       50
176
     1
 90
       50
176
     1
290
     0
176
     1
 90
       50
176
     1
 62
   256
176
     0
 40
1.0
176
     0
 90
        2
176
     1
  1
strokes_ogs.tif
176
     1
290
     0
176
     1
 40
1.0
176
     1
 40
1.0
176
     1
  0
VISUALSTYLE
  5
1C2
102
{ACAD_REACTORS
330
1BE
102
}
330
1BE
100
AcDbVisualStyle
  2
GouraudWithEdges
 70
     3
177
     3
291
     1
 70
    58
 90
        2
176
     1
 90
        2
176
     1
 90
        1
176
     1
 90
        2
176
     1
 40
0.6
176
     1
 40
30.0
176
     1
 62
     7
420
 16777215
176
     1
 90
        1
176
     1
 90
        0
176
     1
 62
     7
176
     1
 62
   257
176
     1
 90
        1
176
     1
 90
        1
176
     1
 40
1.0
176
     1
 90
        0
176
     1
 62
   257
176
     1
 40
1.0
176
     1
 90
        1
176
     1
 90
        6
176
     1
 90
        2
176
     1
 62
     7
176
     1
 90
        5
176
     1
 90
        0
176
     1
 90
        0
176
     1
290
     0
176
     1
 90
       13
176
     1
 40
0.0
176
     1
 90
        0
176
     1
290
     0
176
     1
290
     1
176
     1
290
     1
176
     1
290
     0
176
     1
290
     0
176
     1
290
     0
176
     1
290
     0
176
     1
290
     0
176
     1
290
     0
176
     1
 90
       50
176
     1
 40
0.0
176
     1
 40
1.0
176
     1
 90
        0
176
     1
 62
   178
420
        0
176
     1
 90
       50
176
     1
 90
        3
176
     1
 62
     5
420
      255
176
     1
290
     0
176
     1
 90
       50
176
     1
 90
       50
176
     1
 90
       50
176
     1
290
     0
176
     1
 90
       50
176
     1
 62
   256
176
     0
 40
1.0
176
     0
 90
        2
176
     1
  1
strokes_ogs.tif
176
     1
290
     0
176
     1
 40
1.0
176
     1
 40
1.0
176
     1
  0
VISUALSTYLE
  5
1C5
102
{ACAD_REACTORS
330
1BE
102
}
330
1BE
100
AcDbVisualStyle
  2
Hidden
 70
     6
177
     3
291
     0
 70
    58
 90
        1
176
     1
 90
        2
176
     1
 90
        2
176
     1
 90
        0
176
     1
 40
0.6
176
     1
 40
30.0
176
     1
 62
     7
420
 16777215
176
     1
 90
        2
176
     1
 90
        2
176
     1
 62
     7
176
     1
 62
   257
176
     1
 90
        2
176
     1
 90
        1
176
     1
 40
40.0
176
     1
 90
        0
176
     1
 62
   257
176
     1
 40
1.0
176
     1
 90
        1
176
     1
 90
        6
176
     1
 90
        2
176
     1
 62
     7
176
     1
 90
        3
176
     1
 90
        0
176
     1
 90
        0
176
     1
290
     0
176
     1
 90
        1
176
     1
 40
0.0
176
     1
 90
        0
176
     1
290
     0
176
     1
290
     1
176
     1
290
     1
176
     1
290
     0
176
     1
290
     0
176
     1
290
     0
176
     1
290
     0
176
     1
290
     0
176
     1
290
     0
176
     1
 90
       50
176
     1
 40
0.0
176
     1
 40
1.0
176
     1
 90
        0
176
     1
 62
   178
420
        0
176
     1
 90
       50
176
     1
 90
        3
176
     1
 62
     5
420
      255
176
     1
290
     0
176
     1
 90
       50
176
     1
 90
       50
176
     1
 90
       50
176
     1
290
     0
176
     1
 90
       50
176
     1
 62
   256
176
     0
 40
1.0
176
     0
 90
        2
176
     1
  1
strokes_ogs.tif
176
     1
290
     0
176
     1
 40
1.0
176
     1
 40
1.0
176
     1
  0
VISUALSTYLE
  5
1CF
102
{ACAD_REACTORS
330
1BE
102
}
330
1BE
100
AcDbVisualStyle
  2
JitterOff
 70
    20
177
     3
291
     1
 70
    58
 90
        2
176
     0
 90
        2
176
     0
 90
        0
176
     0
 90
        0
176
     0
 40
0.6
176
     0
 40
30.0
176
     0
 62
     7
420
 16777215
176
     0
 90
        1
176
     0
 90
        4
176
     0
 62
     7
176
     0
 62
   257
176
     0
 90
        1
176
     0
 90
        1
176
     0
 40
1.0
176
     0
 90
       10
176
     2
 62
     7
176
     0
 40
1.0
176
     0
 90
        1
176
     0
 90
        6
176
     0
 90
        2
176
     0
 62
     7
176
     0
 90
        5
176
     0
 90
        0
176
     0
 90
        0
176
     0
290
     0
176
     0
 90
        1
176
     0
 40
0.0
176
     0
 90
        0
176
     0
290
     0
176
     0
290
     1
176
     0
290
     1
176
     0
290
     0
176
     0
290
     0
176
     0
290
     0
176
     0
290
     0
176
     0
290
     0
176
     0
290
     0
176
     0
 90
       50
176
     0
 40
0.0
176
     0
 40
1.0
176
     0
 90
        0
176
     0
 62
   178
420
        0
176
     0
 90
       50
176
     0
 90
        3
176
     0
 62
     5
420
      255
176
     0
290
     0
176
     0
 90
       50
176
     0
 90
       50
176
     0
 90
       50
176
     0
290
     0
176
     0
 90
       50
176
     0
 62
   256
176
     0
 40
1.0
176
     0
 90
        2
176
     0
  1
strokes_ogs.tif
176
     0
290
     0
176
     0
 40
1.0
176
     0
 40
1.0
176
     0
  0
VISUALSTYLE
  5
1CC
102
{ACAD_REACTORS
330
1BE
102
}
330
1BE
100
AcDbVisualStyle
  2
Linepattern
 70
    14
177
     3
291
     1
 70
    58
 90
        2
176
     1
 90
        2
176
     1
 90
        0
176
     1
 90
        0
176
     1
 40
0.6
176
     1
 40
30.0
176
     1
 62
     7
420
 16777215
176
     1
 90
        1
176
     1
 90
        4
176
     1
 62
     7
176
     1
 62
   257
176
     1
 90
        7
176
     1
 90
        7
176
     1
 40
1.0
176
     1
 90
        8
176
     1
 62
     7
176
     1
 40
1.0
176
     1
 90
        1
176
     1
 90
        6
176
     1
 90
        2
176
     1
 62
     7
176
     1
 90
        5
176
     1
 90
        0
176
     1
 90
        0
176
     1
290
     0
176
     1
 90
        1
176
     1
 40
0.0
176
     1
 90
        0
176
     1
290
     0
176
     1
290
     1
176
     1
290
     1
176
     1
290
     0
176
     1
290
     0
176
     1
290
     0
176
     1
290
     0
176
     1
290
     0
176
     1
290
     0
176
     1
 90
       50
176
     1
 40
0.0
176
     1
 40
1.0
176
     1
 90
        0
176
     1
 62
   178
420
        0
176
     1
 90
       50
176
     1
 90
        3
176
     1
 62
     5
420
      255
176
     1
290
     0
176
     1
 90
       50
176
     1
 90
       50
176
     1
 90
       50
176
     1
290
     0
176
     1
 90
       50
176
     1
 62
   256
176
     0
 40
1.0
176
     0
 90
        2
176
     1
  1
strokes_ogs.tif
176
     1
290
     0
176
     1
 40
1.0
176
     1
 40
1.0
176
     1
  0
VISUALSTYLE
  5
1D0
102
{ACAD_REACTORS
330
1BE
102
}
330
1BE
100
AcDbVisualStyle
  2
OverhangOff
 70
    21
177
     3
291
     1
 70
    58
 90
        2
176
     0
 90
        2
176
     0
 90
        0
176
     0
 90
        0
176
     0
 40
0.6
176
     0
 40
30.0
176
     0
 62
     7
420
 16777215
176
     0
 90
        1
176
     0
 90
        4
176
     0
 62
     7
176
     0
 62
   257
176
     0
 90
        1
176
     0
 90
        1
176
     0
 40
1.0
176
     0
 90
        9
176
     2
 62
     7
176
     0
 40
1.0
176
     0
 90
        1
176
     0
 90
        6
176
     0
 90
        2
176
     0
 62
     7
176
     0
 90
        5
176
     0
 90
        0
176
     0
 90
        0
176
     0
290
     0
176
     0
 90
        1
176
     0
 40
0.0
176
     0
 90
        0
176
     0
290
     0
176
     0
290
     1
176
     0
290
     1
176
     0
290
     0
176
     0
290
     0
176
     0
290
     0
176
     0
290
     0
176
     0
290
     0
176
     0
290
     0
176
     0
 90
       50
176
     0
 40
0.0
176
     0
 40
1.0
176
     0
 90
        0
176
     0
 62
   178
420
        0
176
     0
 90
       50
176
     0
 90
        3
176
     0
 62
     5
420
      255
176
     0
290
     0
176
     0
 90
       50
176
     0
 90
       50
176
     0
 90
       50
176
     0
290
     0
176
     0
 90
       50
176
     0
 62
   256
176
     0
 40
1.0
176
     0
 90
        2
176
     0
  1
strokes_ogs.tif
176
     0
290
     0
176
     0
 40
1.0
176
     0
 40
1.0
176
     0
  0
VISUALSTYLE
  5
1C7
102
{ACAD_REACTORS
330
1BE
102
}
330
1BE
100
AcDbVisualStyle
  2
Realistic
 70
     8
177
     3
291
     0
 70
    58
 90
        2
176
     1
 90
        3
176
     1
 90
        0
176
     1
 90
        2
176
     1
 40
0.6
176
     1
 40
30.0
176
     1
 62
     7
420
 16777215
176
     1
 90
        0
176
     1
 90
        0
176
     1
 62
     7
176
     1
 62
   257
176
     1
 90
        1
176
     1
 90
        1
176
     1
 40
1.0
176
     1
 90
        8
176
     1
 62
   257
176
     1
 40
1.0
176
     1
 90
        1
176
     1
 90
        6
176
     1
 90
        2
176
     1
 62
     7
176
     1
 90
        3
176
     1
 90
        0
176
     1
 90
        0
176
     1
290
     0
176
     1
 90
       13
176
     1
 40
0.0
176
     1
 90
        0
176
     1
290
     0
176
     1
290
     1
176
     1
290
     1
176
     1
290
     0
176
     1
290
     0
176
     1
290
     0
176
     1
290
     0
176
     1
290
     0
176
     1
290
     0
176
     1
 90
       50
176
     1
 40
0.0
176
     1
 40
1.0
176
     1
 90
        0
176
     1
 62
   178
420
        0
176
     1
 90
       50
176
     1
 90
        3
176
     1
 62
     5
420
      255
176
     1
290
     0
176
     1
 90
       50
176
     1
 90
       50
176
     1
 90
       50
176
     1
290
     0
176
     1
 90
       50
176
     1
 62
   256
176
     0
 40
1.0
176
     0
 90
        2
176
     1
  1
strokes_ogs.tif
176
     1
290
     0
176
     1
 40
1.0
176
     1
 40
1.0
176
     1
  0
VISUALSTYLE
  5
1D6
102
{ACAD_REACTORS
330
1BE
102
}
330
1BE
100
AcDbVisualStyle
  2
Shaded
 70
    27
177
     3
291
     0
 70
    58
 90
        2
176
     1
 90
        2
176
     1
 90
        1
176
     1
 90
        2
176
     1
 40
0.6
176
     1
 40
30.0
176
     1
 62
     7
420
 16777215
176
     1
 90
        0
176
     1
 90
        4
176
     1
 62
     7
176
     1
 62
   257
176
     1
 90
        1
176
     1
 90
        1
176
     1
 40
1.0
176
     1
 90
        8
176
     1
 62
   257
176
     1
 40
1.0
176
     1
 90
        1
176
     1
 90
        6
176
     1
 90
        2
176
     1
 62
     8
420
  7895160
176
     1
 90
        3
176
     1
 90
        0
176
     1
 90
        0
176
     1
290
     0
176
     1
 90
        5
176
     1
 40
0.0
176
     1
 90
        0
176
     1
290
     0
176
     1
290
     1
176
     1
290
     1
176
     1
290
     0
176
     1
290
     0
176
     1
290
     0
176
     1
290
     0
176
     1
290
     0
176
     1
290
     0
176
     1
 90
       50
176
     1
 40
0.0
176
     1
 40
1.0
176
     1
 90
        0
176
     1
 62
   178
420
        0
176
     1
 90
       50
176
     1
 90
        3
176
     1
 62
     5
420
      255
176
     1
290
     0
176
     1
 90
       50
176
     1
 90
       50
176
     1
 90
       50
176
     1
290
     0
176
     1
 90
       50
176
     1
 62
   256
176
     0
 40
1.0
176
     0
 90
        2
176
     1
  1
strokes_ogs.tif
176
     1
290
     0
176
     1
 40
1.0
176
     1
 40
1.0
176
     1
  0
VISUALSTYLE
  5
1D5
102
{ACAD_REACTORS
330
1BE
102
}
330
1BE
100
AcDbVisualStyle
  2
Shaded with edges
 70
    26
177
     3
291
     0
 70
    58
 90
        2
176
     1
 90
        2
176
     1
 90
        1
176
     1
 90
        2
176
     1
 40
0.6
176
     1
 40
30.0
176
     1
 62
     7
420
 16777215
176
     1
 90
        1
176
     1
 90
       10
176
     1
 62
     7
176
     1
 62
   257
176
     1
 90
        2
176
     1
 90
        1
176
     1
 40
1.0
176
     1
 90
        8
176
     1
 62
   257
176
     1
 40
1.0
176
     1
 90
        1
176
     1
 90
        6
176
     1
 90
        2
176
     1
 62
     7
176
     1
 90
        3
176
     1
 90
        0
176
     1
 90
        0
176
     1
290
     0
176
     1
 90
        5
176
     1
 40
0.0
176
     1
 90
        0
176
     1
290
     0
176
     1
290
     1
176
     1
290
     1
176
     1
290
     0
176
     1
290
     0
176
     1
290
     0
176
     1
290
     0
176
     1
290
     0
176
     1
290
     0
176
     1
 90
       50
176
     1
 40
0.0
176
     1
 40
1.0
176
     1
 90
        0
176
     1
 62
   178
420
        0
176
     1
 90
       50
176
     1
 90
        3
176
     1
 62
     5
420
      255
176
     1
290
     0
176
     1
 90
       50
176
     1
 90
       50
176
     1
 90
       50
176
     1
290
     0
176
     1
 90
       50
176
     1
 62
   256
176
     0
 40
1.0
176
     0
 90
        2
176
     1
  1
strokes_ogs.tif
176
     1
290
     0
176
     1
 40
1.0
176
     1
 40
1.0
176
     1
  0
VISUALSTYLE
  5
1D2
102
{ACAD_REACTORS
330
1BE
102
}
330
1BE
100
AcDbVisualStyle
  2
Shades of Gray
 70
    23
177
     3
291
     0
 70
    58
 90
        2
176
     1
 90
        2
176
     1
 90
        3
176
     1
 90
        0
176
     1
 40
0.6
176
     1
 40
30.0
176
     1
 62
     7
420
 16777215
176
     1
 90
        2
176
     1
 90
        2
176
     1
 62
     7
176
     1
 62
     7
176
     1
 90
        1
176
     1
 90
        1
176
     1
 40
40.0
176
     1
 90
        8
176
     1
 62
     7
176
     1
 40
1.0
176
     1
 90
        1
176
     1
 90
        6
176
     1
 90
        2
176
     1
 62
     7
176
     1
 90
        3
176
     1
 90
        0
176
     1
 90
        0
176
     1
290
     0
176
     1
 90
        1
176
     1
 40
0.0
176
     1
 90
        0
176
     1
290
     0
176
     1
290
     1
176
     1
290
     1
176
     1
290
     0
176
     1
290
     0
176
     1
290
     0
176
     1
290
     0
176
     1
290
     0
176
     1
290
     0
176
     1
 90
       50
176
     1
 40
0.0
176
     1
 40
1.0
176
     1
 90
        0
176
     1
 62
   178
420
        0
176
     1
 90
       50
176
     1
 90
        3
176
     1
 62
     5
420
      255
176
     1
290
     0
176
     1
 90
       50
176
     1
 90
       50
176
     1
 90
       50
176
     1
290
     0
176
     1
 90
       50
176
     1
 62
   256
176
     0
 40
1.0
176
     0
 90
        2
176
     1
  1
strokes_ogs.tif
176
     1
290
     0
176
     1
 40
1.0
176
     1
 40
1.0
176
     1
  0
VISUALSTYLE
  5
1D3
102
{ACAD_REACTORS
330
1BE
102
}
330
1BE
100
AcDbVisualStyle
  2
Sketchy
 70
    24
177
     3
291
     0
 70
    58
 90
        1
176
     1
 90
        2
176
     1
 90
        2
176
     1
 90
        0
176
     1
 40
0.6
176
     1
 40
30.0
176
     1
 62
     7
420
 16777215
176
     1
 90
        2
176
     1
 90
        2
176
     1
 62
     7
176
     1
 62
     7
176
     1
 90
        1
176
     1
 90
        1
176
     1
 40
40.0
176
     1
 90
       11
176
     1
 62
     7
176
     1
 40
1.0
176
     1
 90
        1
176
     1
 90
        6
176
     1
 90
        2
176
     1
 62
     7
176
     1
 90
        6
176
     1
 90
        0
176
     1
 90
        0
176
     1
290
     0
176
     1
 90
        1
176
     1
 40
0.0
176
     1
 90
        0
176
     1
290
     0
176
     1
290
     1
176
     1
290
     1
176
     1
290
     0
176
     1
290
     0
176
     1
290
     0
176
     1
290
     0
176
     1
290
     0
176
     1
290
     0
176
     1
 90
       50
176
     1
 40
0.0
176
     1
 40
1.0
176
     1
 90
        0
176
     1
 62
   178
420
        0
176
     1
 90
       50
176
     1
 90
        3
176
     1
 62
     5
420
      255
176
     1
290
     0
176
     1
 90
       50
176
     1
 90
       50
176
     1
 90
       50
176
     1
290
     0
176
     1
 90
       50
176
     1
 62
   256
176
     0
 40
1.0
176
     0
 90
        2
176
     1
  1
strokes_ogs.tif
176
     1
290
     0
176
     1
 40
1.0
176
     1
 40
1.0
176
     1
  0
VISUALSTYLE
  5
1CB
102
{ACAD_REACTORS
330
1BE
102
}
330
1BE
100
AcDbVisualStyle
  2
Thicken
 70
    13
177
     3
291
     1
 70
    58
 90
        2
176
     1
 90
        2
176
     1
 90
        0
176
     1
 90
        0
176
     1
 40
0.6
176
     1
 40
30.0
176
     1
 62
     7
420
 16777215
176
     1
 90
        1
176
     1
 90
        4
176
     1
 62
     7
176
     1
 62
   257
176
     1
 90
        1
176
     1
 90
        1
176
     1
 40
1.0
176
     1
 90
       12
176
     1
 62
     7
176
     1
 40
1.0
176
     1
 90
        1
176
     1
 90
        6
176
     1
 90
        2
176
     1
 62
     7
176
     1
 90
        5
176
     1
 90
        0
176
     1
 90
        0
176
     1
290
     0
176
     1
 90
        1
176
     1
 40
0.0
176
     1
 90
        0
176
     1
290
     0
176
     1
290
     1
176
     1
290
     1
176
     1
290
     0
176
     1
290
     0
176
     1
290
     0
176
     1
290
     0
176
     1
290
     0
176
     1
290
     0
176
     1
 90
       50
176
     1
 40
0.0
176
     1
 40
1.0
176
     1
 90
        0
176
     1
 62
   178
420
        0
176
     1
 90
       50
176
     1
 90
        3
176
     1
 62
     5
420
      255
176
     1
290
     0
176
     1
 90
       50
176
     1
 90
       50
176
     1
 90
       50
176
     1
290
     0
176
     1
 90
       50
176
     1
 62
   256
176
     0
 40
1.0
176
     0
 90
        2
176
     1
  1
strokes_ogs.tif
176
     1
290
     0
176
     1
 40
1.0
176
     1
 40
1.0
176
     1
  0
VISUALSTYLE
  5
1C4
102
{ACAD_REACTORS
330
1BE
102
}
330
1BE
100
AcDbVisualStyle
  2
Wireframe
 70
     5
177
     3
291
     0
 70
    58
 90
        0
176
     1
 90
        2
176
     1
 90
        0
176
     1
 90
        0
176
     1
 40
0.6
176
     1
 40
30.0
176
     1
 62
     7
420
 16777215
176
     1
 90
        1
176
     1
 90
        4
176
     1
 62
     7
176
     1
 62
   257
176
     1
 90
        1
176
     1
 90
        1
176
     1
 40
1.0
176
     1
 90
        0
176
     1
 62
   257
176
     1
 40
1.0
176
     1
 90
        1
176
     1
 90
        6
176
     1
 90
        2
176
     1
 62
     7
176
     1
 90
        3
176
     1
 90
        0
176
     1
 90
        0
176
     1
290
     0
176
     1
 90
        1
176
     1
 40
0.0
176
     1
 90
        0
176
     1
290
     0
176
     1
290
     1
176
     1
290
     1
176
     1
290
     0
176
     1
290
     0
176
     1
290
     0
176
     1
290
     0
176
     1
290
     0
176
     1
290
     0
176
     1
 90
       50
176
     1
 40
0.0
176
     1
 40
1.0
176
     1
 90
        0
176
     1
 62
   178
420
        0
176
     1
 90
       50
176
     1
 90
        3
176
     1
 62
     5
420
      255
176
     1
290
     0
176
     1
 90
       50
176
     1
 90
       50
176
     1
 90
       50
176
     1
290
     0
176
     1
 90
       50
176
     1
 62
   256
176
     0
 40
1.0
176
     0
 90
        2
176
     1
  1
strokes_ogs.tif
176
     1
290
     0
176
     1
 40
1.0
176
     1
 40
1.0
176
     1
  0
VISUALSTYLE
  5
1D4
102
{ACAD_REACTORS
330
1BE
102
}
330
1BE
100
AcDbVisualStyle
  2
X-Ray
 70
    25
177
     3
291
     0
 70
    58
 90
        2
176
     1
 90
        2
176
     1
 90
        1
176
     1
 90
        1
176
     1
 40
0.5
176
     1
 40
30.0
176
     1
 62
     7
420
 16777215
176
     1
 90
        1
176
     1
 90
        0
176
     1
 62
     7
176
     1
 62
   257
176
     1
 90
        1
176
     1
 90
        1
176
     1
 40
1.0
176
     1
 90
        8
176
     1
 62
     7
176
     1
 40
1.0
176
     1
 90
        1
176
     1
 90
        6
176
     1
 90
        2
176
     1
 62
     7
176
     1
 90
        3
176
     1
 90
        0
176
     1
 90
        0
176
     1
290
     0
176
     1
 90
       13
176
     1
 40
0.0
176
     1
 90
        0
176
     1
290
     0
176
     1
290
     1
176
     1
290
     1
176
     1
290
     0
176
     1
290
     0
176
     1
290
     0
176
     1
290
     0
176
     1
290
     0
176
     1
290
     0
176
     1
 90
       50
176
     1
 40
0.0
176
     1
 40
1.0
176
     1
 90
        0
176
     1
 62
   178
420
        0
176
     1
 90
       50
176
     1
 90
        3
176
     1
 62
     5
420
      255
176
     1
290
     0
176
     1
 90
       50
176
     1
 90
       50
176
     1
 90
       50
176
     1
290
     0
176
     1
 90
       50
176
     1
 62
   256
176
     0
 40
1.0
176
     0
 90
        2
176
     1
  1
strokes_ogs.tif
176
     1
290
     0
176
     1
 40
1.0
176
     1
 40
1.0
176
     1
  0
DICTIONARYVAR
  5
345
102
{ACAD_REACTORS
330
344
102
}
330
344
100
DictionaryVariables
280
     0
  1
1:1
  0
DICTIONARYVAR
  5
34A
102
{ACAD_REACTORS
330
344
102
}
330
344
100
DictionaryVariables
280
     0
  1
Standard
  0
DICTIONARYVAR
  5
349
102
{ACAD_REACTORS
330
344
102
}
330
344
100
DictionaryVariables
280
     0
  1
Standard
  0
XRECORD
  5
205
102
{ACAD_REACTORS
330
203
102
}
330
203
100
AcDbXrecord
280
     1
 90
        0
  0
XRECORD
  5
206
102
{ACAD_REACTORS
330
203
102
}
330
203
100
AcDbXrecord
280
     1
 90
        0
  0
XRECORD
  5
207
102
{ACAD_REACTORS
330
203
102
}
330
203
100
AcDbXrecord
280
     1
1000

  0
XRECORD
  5
208
102
{ACAD_REACTORS
330
203
102
}
330
203
100
AcDbXrecord
280
     1
290
     1
  0
XRECORD
  5
209
102
{ACAD_REACTORS
330
203
102
}
330
203
100
AcDbXrecord
280
     1
 90
        2
  0
XRECORD
  5
20A
102
{ACAD_REACTORS
330
203
102
}
330
203
100
AcDbXrecord
280
     1
 90
        4
  0
XRECORD
  5
20B
102
{ACAD_REACTORS
330
203
102
}
330
203
100
AcDbXrecord
280
     1
290
     1
  0
XRECORD
  5
20C
102
{ACAD_REACTORS
330
203
102
}
330
203
100
AcDbXrecord
280
     1
290
     1
  0
XRECORD
  5
20D
102
{ACAD_REACTORS
330
203
102
}
330
203
100
AcDbXrecord
280
     1
290
     1
  0
XRECORD
  5
20E
102
{ACAD_REACTORS
330
203
102
}
330
203
100
AcDbXrecord
280
     1
290
     1
  0
XRECORD
  5
20F
102
{ACAD_REACTORS
330
203
102
}
330
203
100
AcDbXrecord
280
     1
1000
auto
  0
XRECORD
  5
210
102
{ACAD_REACTORS
330
203
102
}
330
203
100
AcDbXrecord
280
     1
1000
auto
  0
XRECORD
  5
211
102
{ACAD_REACTORS
330
203
102
}
330
203
100
AcDbXrecord
280
     1
1000
auto
  0
XRECORD
  5
212
102
{ACAD_REACTORS
330
203
102
}
330
203
100
AcDbXrecord
280
     1
1000
auto
  0
XRECORD
  5
213
102
{ACAD_REACTORS
330
203
102
}
330
203
100
AcDbXrecord
280
     1
1000
auto
  0
XRECORD
  5
214
102
{ACAD_REACTORS
330
203
102
}
330
203
100
AcDbXrecord
280
     1
1000
auto
  0
XRECORD
  5
215
102
{ACAD_REACTORS
330
203
102
}
330
203
100
AcDbXrecord
280
     1
1000
auto
  0
XRECORD
  5
216
102
{ACAD_REACTORS
330
203
102
}
330
203
100
AcDbXrecord
280
     1
1000
auto
  0
XRECORD
  5
217
102
{ACAD_REACTORS
330
203
102
}
330
203
100
AcDbXrecord
280
     1
290
     0
  0
XRECORD
  5
218
102
{ACAD_REACTORS
330
203
102
}
330
203
100
AcDbXrecord
280
     1
290
     0
  0
XRECORD
  5
219
102
{ACAD_REACTORS
330
203
102
}
330
203
100
AcDbXrecord
280
     1
290
     0
  0
XRECORD
  5
21A
102
{ACAD_REACTORS
330
203
102
}
330
203
100
AcDbXrecord
280
     1
290
     0
  0
XRECORD
  5
21B
102
{ACAD_REACTORS
330
203
102
}
330
203
100
AcDbXrecord
280
     1
 90
        0
  0
XRECORD
  5
21C
102
{ACAD_REACTORS
330
203
102
}
330
203
100
AcDbXrecord
280
     1
 90
        0
  0
XRECORD
  5
21D
102
{ACAD_REACTORS
330
203
102
}
330
203
100
AcDbXrecord
280
     1
 90
        0
  0
XRECORD
  5
21E
102
{ACAD_REACTORS
330
203
102
}
330
203
100
AcDbXrecord
280
     1
 90
        0
  0
XRECORD
  5
21F
102
{ACAD_REACTORS
330
203
102
}
330
203
100
AcDbXrecord
280
     1
1000
auto
  0
XRECORD
  5
220
102
{ACAD_REACTORS
330
203
102
}
330
203
100
AcDbXrecord
280
     1
1000
auto
  0
XRECORD
  5
221
102
{ACAD_REACTORS
330
203
102
}
330
203
100
AcDbXrecord
280
     1
1000
auto
  0
XRECORD
  5
222
102
{ACAD_REACTORS
330
203
102
}
330
203
100
AcDbXrecord
280
     1
1000
auto
  0
XRECORD
  5
223
102
{ACAD_REACTORS
330
203
102
}
330
203
100
AcDbXrecord
280
     1
1000
auto
  0
XRECORD
  5
224
102
{ACAD_REACTORS
330
203
102
}
330
203
100
AcDbXrecord
280
     1
1000
auto
  0
XRECORD
  5
225
102
{ACAD_REACTORS
330
203
102
}
330
203
100
AcDbXrecord
280
     1
1000
auto
  0
XRECORD
  5
226
102
{ACAD_REACTORS
330
203
102
}
330
203
100
AcDbXrecord
280
     1
1000
auto
  0
XRECORD
  5
227
102
{ACAD_REACTORS
330
203
102
}
330
203
100
AcDbXrecord
280
     1
 90
        1
  0
XRECORD
  5
228
102
{ACAD_REACTORS
330
203
102
}
330
203
100
AcDbXrecord
280
     1
 40
10.0
  0
XRECORD
  5
229
102
{ACAD_REACTORS
330
203
102
}
330
203
100
AcDbXrecord
280
     1
 40
10.0
  0
XRECORD
  5
22A
102
{ACAD_REACTORS
330
203
102
}
330
203
100
AcDbXrecord
280
     1
 40
10.0
  0
XRECORD
  5
22B
102
{ACAD_REACTORS
330
203
102
}
330
203
100
AcDbXrecord
280
     1
 40
10.0
  0
XRECORD
  5
22C
102
{ACAD_REACTORS
330
203
102
}
330
203
100
AcDbXrecord
280
     1
290
     0
  0
XRECORD
  5
22D
102
{ACAD_REACTORS
330
203
102
}
330
203
100
AcDbXrecord
280
     1
 90
        1
  0
XRECORD
  5
22E
102
{ACAD_REACTORS
330
203
102
}
330
203
100
AcDbXrecord
280
     1
 40
0.0
  0
XRECORD
  5
22F
102
{ACAD_REACTORS
330
203
102
}
330
203
100
AcDbXrecord
280
     1
 40
0.0
  0
XRECORD
  5
230
102
{ACAD_REACTORS
330
203
102
}
330
203
100
AcDbXrecord
280
     1
1000
Portrait
  0
XRECORD
  5
231
102
{ACAD_REACTORS
330
203
102
}
330
203
100
AcDbXrecord
280
     1
 40
297.0
  0
XRECORD
  5
232
102
{ACAD_REACTORS
330
203
102
}
330
203
100
AcDbXrecord
280
     1
 40
210.0
  0
XRECORD
  5
233
102
{ACAD_REACTORS
330
203
102
}
330
203
100
AcDbXrecord
280
     1
1000
1:1
  0
XRECORD
  5
234
102
{ACAD_REACTORS
330
203
102
}
330
203
100
AcDbXrecord
280
     1
290
     1
  0
XRECORD
  5
235
102
{ACAD_REACTORS
330
203
102
}
330
203
100
AcDbXrecord
280
     1
1000
3.9.1
  0
XRECORD
  5
236
102
{ACAD_REACTORS
330
203
102
}
330
203
100
AcDbXrecord
280
     1
 90
        4
  0
DICTIONARY
  5
346
330
1FE
100
AcDbDictionary
280
     1
281
     1
  3
ACAD_ROUNDTRIP_2008_TABLESTYLE_CELLSTYLEMAP
360
347
  0
CELLSTYLEMAP
  5
347
102
{ACAD_REACTORS
330
346
102
}
330
346
100
AcDbCellStyleMap
 90
        3
300
CELLSTYLE
  1
TABLEFORMAT_BEGIN
 90
        5
170
     1
 91
        0
 92
    32768
 62
   257
 93
        1
300
CONTENTFORMAT
  1
CONTENTFORMAT_BEGIN
 90
        0
 91
        0
 92
        4
 93
        0
300

 40
0.0
140
1.0
 94
        5
 62
     0
340
1A6
144
0.25
309
CONTENTFORMAT_END
171
     1
301
MARGIN
  1
CELLMARGIN_BEGIN
 40
0.06
 40
0.06
 40
0.06
 40
0.06
 40
0.06
 40
0.06
309
CELLMARGIN_END
 94
        6
 95
        1
302
GRIDFORMAT
  1
GRIDFORMAT_BEGIN
 90
        0
 91
        1
 62
     0
 92
       -2
340
1A8
 93
        0
 40
0.045
309
GRIDFORMAT_END
 95
        2
302
GRIDFORMAT
  1
GRIDFORMAT_BEGIN
 90
        0
 91
        1
 62
     0
 92
       -2
340
1A8
 93
        0
 40
0.045
309
GRIDFORMAT_END
 95
        4
302
GRIDFORMAT
  1
GRIDFORMAT_BEGIN
 90
        0
 91
        1
 62
     0
 92
       -2
340
1A8
 93
        0
 40
0.045
309
GRIDFORMAT_END
 95
        8
302
GRIDFORMAT
  1
GRIDFORMAT_BEGIN
 90
        0
 91
        1
 62
     0
 92
       -2
340
1A8
 93
        0
 40
0.045
309
GRIDFORMAT_END
 95
       16
302
GRIDFORMAT
  1
GRIDFORMAT_BEGIN
 90
        0
 91
        1
 62
     0
 92
       -2
340
1A8
 93
        0
 40
0.045
309
GRIDFORMAT_END
 95
       32
302
GRIDFORMAT
  1
GRIDFORMAT_BEGIN
 90
        0
 91
        1
 62
     0
 92
       -2
340
1A8
 93
        0
 40
0.045
309
GRIDFORMAT_END
309
TABLEFORMAT_END
  1
CELLSTYLE_BEGIN
 90
        1
 91
        1
300
_TITLE
309
CELLSTYLE_END
300
CELLSTYLE
  1
TABLEFORMAT_BEGIN
 90
        5
170
     1
 91
        0
 92
        0
 62
   257
 93
        1
300
CONTENTFORMAT
  1
CONTENTFORMAT_BEGIN
 90
        0
 91
        0
 92
        4
 93
        0
300

 40
0.0
140
1.0
 94
        5
 62
     0
340
1A6
144
0.18
309
CONTENTFORMAT_END
171
     1
301
MARGIN
  1
CELLMARGIN_BEGIN
 40
0.06
 40
0.06
 40
0.06
 40
0.06
 40
0.06
 40
0.06
309
CELLMARGIN_END
 94
        6
 95
        1
302
GRIDFORMAT
  1
GRIDFORMAT_BEGIN
 90
        0
 91
        1
 62
     0
 92
       -2
340
1A8
 93
        0
 40
0.045
309
GRIDFORMAT_END
 95
        2
302
GRIDFORMAT
  1
GRIDFORMAT_BEGIN
 90
        0
 91
        1
 62
     0
 92
       -2
340
1A8
 93
        0
 40
0.045
309
GRIDFORMAT_END
 95
        4
302
GRIDFORMAT
  1
GRIDFORMAT_BEGIN
 90
        0
 91
        1
 62
     0
 92
       -2
340
1A8
 93
        0
 40
0.045
309
GRIDFORMAT_END
 95
        8
302
GRIDFORMAT
  1
GRIDFORMAT_BEGIN
 90
        0
 91
        1
 62
     0
 92
       -2
340
1A8
 93
        0
 40
0.045
309
GRIDFORMAT_END
 95
       16
302
GRIDFORMAT
  1
GRIDFORMAT_BEGIN
 90
        0
 91
        1
 62
     0
 92
       -2
340
1A8
 93
        0
 40
0.045
309
GRIDFORMAT_END
 95
       32
302
GRIDFORMAT
  1
GRIDFORMAT_BEGIN
 90
        0
 91
        1
 62
     0
 92
       -2
340
1A8
 93
        0
 40
0.045
309
GRIDFORMAT_END
309
TABLEFORMAT_END
  1
CELLSTYLE_BEGIN
 90
        2
 91
        1
300
_HEADER
309
CELLSTYLE_END
300
CELLSTYLE
  1
TABLEFORMAT_BEGIN
 90
        5
170
     1
 91
        0
 92
        0
 62
   257
 93
        1
300
CONTENTFORMAT
  1
CONTENTFORMAT_BEGIN
 90
        0
 91
        0
 92
        4
 93
        0
300

 40
0.0
140
1.0
 94
        2
 62
     0
340
1A6
144
0.18
309
CONTENTFORMAT_END
171
     1
301
MARGIN
  1
CELLMARGIN_BEGIN
 40
0.06
 40
0.06
 40
0.06
 40
0.06
 40
0.06
 40
0.06
309
CELLMARGIN_END
 94
        6
 95
        1
302
GRIDFORMAT
  1
GRIDFORMAT_BEGIN
 90
        0
 91
        1
 62
     0
 92
       -2
340
1A8
 93
        0
 40
0.045
309
GRIDFORMAT_END
 95
        2
302
GRIDFORMAT
  1
GRIDFORMAT_BEGIN
 90
        0
 91
        1
 62
     0
 92
       -2
340
1A8
 93
        0
 40
0.045
309
GRIDFORMAT_END
 95
        4
302
GRIDFORMAT
  1
GRIDFORMAT_BEGIN
 90
        0
 91
        1
 62
     0
 92
       -2
340
1A8
 93
        0
 40
0.045
309
GRIDFORMAT_END
 95
        8
302
GRIDFORMAT
  1
GRIDFORMAT_BEGIN
 90
        0
 91
        1
 62
     0
 92
       -2
340
1A8
 93
        0
 40
0.045
309
GRIDFORMAT_END
 95
       16
302
GRIDFORMAT
  1
GRIDFORMAT_BEGIN
 90
        0
 91
        1
 62
     0
 92
       -2
340
1A8
 93
        0
 40
0.045
309
GRIDFORMAT_END
 95
       32
302
GRIDFORMAT
  1
GRIDFORMAT_BEGIN
 90
        0
 91
        1
 62
     0
 92
       -2
340
1A8
 93
        0
 40
0.045
309
GRIDFORMAT_END
309
TABLEFORMAT_END
  1
CELLSTYLE_BEGIN
 90
        3
 91
        2
300
_DATA
309
CELLSTYLE_END
  0
ENDSEC
  0
EOF
